<svg width="115" height="111" viewBox="0 0 115 111" fill="none" xmlns="http://www.w3.org/2000/svg">
<rect opacity="0.5" width="115" height="111" rx="25" fill="#1D2D24"/>
<path d="M72.8242 26.2783C75.9706 25.1749 78.9891 24.7903 81.4922 24.9512C83.8356 25.1018 85.739 25.7314 86.8682 26.709L87.084 26.9092L87.2842 27.125C88.2618 28.2541 88.8913 30.1575 89.042 32.501C89.2029 35.0043 88.8183 38.0236 87.7148 41.1709L87.6709 41.2969L87.5762 41.2031L72.792 26.417L72.6982 26.3223L72.8242 26.2783Z" fill="url(#paint0_linear_5555_29483)" stroke="#65DA00" stroke-width="0.167396"/>
<path d="M53.626 38.2949L40.7812 53.7598L40.7598 53.7852L40.7275 53.7891L27.0098 55.4502L26.8125 55.4746L26.9336 55.3164L37.2354 41.8516L37.2539 41.8271L37.2832 41.8203L53.543 38.1592L53.7832 38.1055L53.626 38.2949Z" fill="url(#paint1_linear_5555_29483)" stroke="#65DA00" stroke-width="0.167396"/>
<path d="M75.8408 60.4531L72.1797 76.7148L72.1729 76.7441L72.1494 76.7627L58.6836 87.0625L58.5254 87.1836L58.5498 86.9863L60.2109 73.2695L60.2148 73.2363L60.2402 73.2148L75.7061 60.3701L75.8945 60.2129L75.8408 60.4531Z" fill="url(#paint2_linear_5555_29483)" stroke="#65DA00" stroke-width="0.167396"/>
<path d="M70.1055 27.4692L86.5293 43.894L86.5713 43.936L86.5459 43.9897C85.1777 46.8098 83.2097 49.6407 80.5137 52.2134C76.6616 55.8931 70.9626 60.6086 66.2285 64.4028C63.8611 66.3002 61.7341 67.9684 60.1992 69.1616C59.4319 69.7581 58.8124 70.2361 58.3848 70.5649C58.1709 70.7294 58.005 70.8568 57.8926 70.9429C57.8364 70.9858 57.7934 71.0185 57.7646 71.0405C57.7505 71.0513 57.7397 71.0594 57.7324 71.0649C57.7288 71.0677 57.7255 71.0704 57.7236 71.0718L57.7217 71.0728V71.0737L57.6699 71.0073L57.7207 71.0737L57.6631 71.1177L57.6113 71.0659L56.3018 69.7554L42.9326 56.3882L42.8809 56.3364L42.9258 56.2778L42.9277 56.2749C42.9291 56.2731 42.931 56.2705 42.9336 56.2671C42.9391 56.2598 42.9481 56.2492 42.959 56.2349C42.981 56.2061 43.0137 56.163 43.0566 56.1069C43.1427 55.9945 43.2701 55.8285 43.4346 55.6147C43.7635 55.1872 44.2413 54.5676 44.8379 53.8003C46.0312 52.2655 47.6992 50.1383 49.5967 47.771C53.3911 43.0372 58.1064 37.3388 61.7852 33.4858C64.358 30.7898 67.1896 28.822 70.0098 27.4536L70.0625 27.4272L70.1055 27.4692ZM71.0898 42.9097C68.5532 40.373 64.44 40.373 61.9033 42.9097C59.3668 45.4483 59.3667 49.5596 61.9033 52.0962C64.44 54.6326 68.5532 54.6326 71.0879 52.0962C73.6264 49.5596 73.6263 45.4482 71.0898 42.9097Z" fill="url(#paint3_linear_5555_29483)" stroke="#65DA00" stroke-width="0.167396"/>
<path d="M37.6641 63.5557C38.9688 62.9972 40.3453 62.9557 41.4561 63.6602L41.6748 63.8105L41.6846 63.8184H41.6836L42.8262 64.9619L42.9355 65.0713L42.7842 65.1025C40.8935 65.496 38.7155 66.5025 37.7754 68.3828C37.0747 69.7861 36.3944 70.7734 35.8887 71.4111C35.636 71.7298 35.4268 71.9613 35.2803 72.1133C35.254 72.1405 35.2282 72.1643 35.2061 72.1865C35.2719 72.1843 35.3518 72.1823 35.4434 72.1777C35.7253 72.1637 36.1192 72.1372 36.5664 72.0869C37.4634 71.9859 38.5681 71.79 39.417 71.4131C39.8102 71.2385 40.174 71.0348 40.5186 70.8691C40.8536 70.7081 41.1707 70.5826 41.4375 70.5938C41.5747 70.5995 41.701 70.6415 41.8086 70.7334C41.915 70.8244 41.9974 70.9593 42.0566 71.1396C42.1742 71.4977 42.2102 72.0591 42.1543 72.8936C42.0647 74.2276 41.2242 75.86 40.416 77.1484C40.0106 77.7949 39.61 78.3583 39.3115 78.7607C39.1778 78.9411 39.064 79.0888 38.9795 79.1973C39.0108 79.1877 39.0454 79.1785 39.082 79.167C39.3087 79.0957 39.6346 78.9863 40.0312 78.8359C40.825 78.5351 41.901 78.0694 43.0283 77.4082C45.2851 76.0844 47.7365 73.9863 48.5664 70.8799L48.6045 70.7393L48.707 70.8418L50.1748 72.3105L50.1914 72.3262L50.1973 72.3486C50.6216 74.0478 50.1593 76.1247 48.9336 78.0859C47.7068 80.0488 45.7107 81.9041 43.0527 83.1631C40.7158 84.2701 37.917 84.549 35.3115 84.6396C34.0113 84.6849 32.7464 84.6827 31.6201 84.7129C30.4888 84.7432 29.4892 84.8058 28.6973 84.9775L28.5908 85.001L28.5957 84.8916C28.6316 84.1339 29.019 83.4469 29.5908 82.8223C30.1628 82.1975 30.9257 81.6282 31.7275 81.1055C32.5291 80.583 33.3762 80.1026 34.1133 79.6602C34.8544 79.2154 35.4818 78.8106 35.8574 78.4346C36.4463 77.8466 36.8401 77.3311 37.0566 76.9111C37.2756 76.4864 37.3024 76.1809 37.2012 75.9932C37.1029 75.8108 36.8591 75.6984 36.4297 75.7197C36.0043 75.7409 35.4226 75.8934 34.6963 76.2051C31.7423 77.4688 29.3443 76.7675 27.6494 75.3564L27.4854 75.2197L27.6992 75.209C28.331 75.1759 28.9615 74.802 29.5781 74.2041C30.1937 73.6072 30.7858 72.7956 31.3408 71.9092C31.8954 71.0234 32.411 70.0657 32.874 69.1768C33.3362 68.2893 33.7479 67.4679 34.0918 66.8604C34.9515 65.3386 36.2723 64.1514 37.6641 63.5557Z" fill="url(#paint4_linear_5555_29483)" stroke="#65DA00" stroke-width="0.167396"/>
<defs>
<linearGradient id="paint0_linear_5555_29483" x1="82.7312" y1="44.4552" x2="80.9638" y2="26.1916" gradientUnits="userSpaceOnUse">
<stop stop-color="#142A01"/>
<stop offset="0.460655" stop-color="#65DA00"/>
<stop offset="1" stop-color="#65DA00"/>
</linearGradient>
<linearGradient id="paint1_linear_5555_29483" x1="43.2573" y1="58.8806" x2="42.0419" y2="39.3997" gradientUnits="userSpaceOnUse">
<stop stop-color="#142A01"/>
<stop offset="0.460655" stop-color="#65DA00"/>
<stop offset="1" stop-color="#65DA00"/>
</linearGradient>
<linearGradient id="paint2_linear_5555_29483" x1="69.1151" y1="92.4449" x2="64.6635" y2="62.7818" gradientUnits="userSpaceOnUse">
<stop stop-color="#142A01"/>
<stop offset="0.460655" stop-color="#65DA00"/>
<stop offset="1" stop-color="#65DA00"/>
</linearGradient>
<linearGradient id="paint3_linear_5555_29483" x1="69.6033" y1="79.9257" x2="64.8438" y2="30.7379" gradientUnits="userSpaceOnUse">
<stop stop-color="#142A01"/>
<stop offset="0.460655" stop-color="#65DA00"/>
<stop offset="1" stop-color="#65DA00"/>
</linearGradient>
<linearGradient id="paint4_linear_5555_29483" x1="41.5137" y1="89.3428" x2="39.2321" y2="64.8003" gradientUnits="userSpaceOnUse">
<stop stop-color="#142A01"/>
<stop offset="0.460655" stop-color="#65DA00"/>
<stop offset="1" stop-color="#65DA00"/>
</linearGradient>
</defs>
</svg>
