<svg width="65" height="63" viewBox="0 0 65 63" fill="none" xmlns="http://www.w3.org/2000/svg">
<rect opacity="0.5" width="65" height="62.7391" rx="14.1304" fill="#1D2D24"/>
<path fill-rule="evenodd" clip-rule="evenodd" d="M26.02 14.1269C25.8956 14.2512 25.815 14.8549 25.815 15.6603C25.815 17.1941 25.713 17.3165 24.1307 17.6823C23.6272 17.7986 22.4109 18.3061 21.4282 18.81L19.6413 19.7261L18.7402 18.8739C18.2445 18.405 17.6902 18.0215 17.5085 18.0215C17.0864 18.0215 15.2243 19.8919 15.2243 20.3159C15.2243 20.492 15.6144 21.0487 16.0914 21.553C16.5683 22.0572 16.9335 22.5316 16.9028 22.6069C16.8722 22.6823 16.4805 23.4685 16.0324 24.3542C15.5844 25.2399 15.0928 26.5026 14.9397 27.1602C14.7868 27.8179 14.5552 28.4713 14.425 28.6122C14.2746 28.7751 13.739 28.8995 12.9553 28.9538L11.7225 29.0392L11.673 30.5508C11.6412 31.5183 11.6949 32.1484 11.822 32.3017C11.9564 32.4636 12.3933 32.541 13.1745 32.541C13.9251 32.541 14.3941 32.6202 14.5166 32.7677C14.6201 32.8925 14.869 33.5266 15.0697 34.1769C15.4385 35.3719 16.2805 37.1515 16.9222 38.0926C17.1146 38.3744 17.2724 38.7003 17.2729 38.8167C17.2736 38.9332 16.8898 39.4528 16.42 39.9716C15.9503 40.4903 15.5659 40.9589 15.5659 41.013C15.5659 41.253 17.6984 43.3025 17.9482 43.3025C18.1012 43.3025 18.605 42.9182 19.0677 42.4484C19.5304 41.9787 20.0509 41.5943 20.2243 41.5943C20.3979 41.5943 21.1694 41.895 21.939 42.2624C22.7085 42.63 23.9746 43.0879 24.7525 43.2805C25.5304 43.4728 26.2414 43.6764 26.3326 43.7326C26.4236 43.789 26.4983 44.4015 26.4983 45.094C26.4983 46.7592 26.6335 46.8905 28.3467 46.8871C29.0682 46.8856 29.7725 46.8123 29.9119 46.7241C30.0941 46.609 30.1901 46.1215 30.2535 44.9893L30.3417 43.4147L31.452 43.0545C32.0626 42.8565 32.6585 42.6344 32.7758 42.5613C32.9311 42.4645 32.9893 41.733 32.9893 39.8761C32.9893 38.4723 32.9436 37.3239 32.8875 37.3239C32.8317 37.3239 32.5756 37.4737 32.3185 37.6566C30.7263 38.7903 27.7898 39.1831 25.685 38.5437C23.4042 37.851 21.5189 36.1912 20.5161 33.9929C19.656 32.1075 19.4879 30.5889 19.9158 28.5693C20.8673 24.0801 25.2144 21.1082 29.5113 22.0097C32.8884 22.7183 35.3625 25.2023 36.129 28.6539L36.3283 29.5517H40.3384H44.3487L44.4046 29.1579C44.5064 28.4395 44.1702 28.2705 42.6385 28.2705C40.9151 28.2705 40.6507 28.0908 40.2498 26.6478C40.0931 26.0841 39.5716 24.8767 39.0908 23.9646L38.2165 22.3065L39.2756 21.2037C39.8579 20.5971 40.3345 19.9574 40.3345 19.7818C40.3345 19.3563 38.4519 17.509 38.0182 17.509C37.8267 17.509 37.2297 17.9602 36.6619 18.5339C36.104 19.0976 35.5477 19.5589 35.4254 19.5589C35.3032 19.5589 34.9064 19.3715 34.5438 19.1426C33.6789 18.5966 32.0285 17.9076 30.8521 17.6011C30.3341 17.4662 29.8345 17.3088 29.7417 17.2516C29.649 17.1942 29.573 16.5702 29.573 15.8649C29.573 13.9767 29.5209 13.9219 27.7222 13.9219C26.7854 13.9219 26.1483 13.9986 26.02 14.1269ZM26.3929 23.4692C24.5106 23.953 22.8534 25.3419 21.9316 27.2084C21.3052 28.4767 21.2883 28.5604 21.2883 30.3977C21.2883 32.1606 21.3235 32.3579 21.8223 33.3951C22.8118 35.4529 24.3186 36.6966 26.4957 37.2523C28.4661 37.7552 30.725 37.2381 32.1896 35.949L32.9623 35.2688L33.0185 33.0615C33.0741 30.8789 33.0804 30.8484 33.5824 30.3248C33.8617 30.0336 34.2653 29.7514 34.4792 29.6977C34.951 29.5794 34.9503 29.5971 34.5286 28.2313C33.937 26.3161 32.6214 24.8122 30.7764 23.9425C29.8811 23.5205 29.4155 23.4142 28.2995 23.3775C27.5437 23.3527 26.6856 23.3939 26.3929 23.4692ZM34.6218 31.3834C34.4756 31.5921 34.3559 31.9764 34.3559 32.2374V32.7118H44.1779H53.9999V32.1261C53.9999 30.9488 54.4792 31.0036 44.1753 31.0036H34.8876L34.6218 31.3834ZM34.3559 39.5445V44.8399H44.1779H53.9999V39.5445V34.2492H44.1779H34.3559V39.5445ZM38.2847 36.1282C38.0486 36.5694 38.2071 36.8499 39.2927 37.9113L40.1556 38.7552L39.1348 39.8183C38.5732 40.403 38.1139 40.998 38.1139 41.1403C38.1139 41.4367 38.5633 41.936 38.8303 41.936C39.1827 41.936 41.8718 39.1494 41.8718 38.7842C41.8718 38.2916 39.34 35.7865 38.8421 35.7865C38.636 35.7865 38.3853 35.9403 38.2847 36.1282ZM43.8789 40.5831C43.4775 40.8169 43.4968 41.5378 43.9104 41.7592C44.0921 41.8564 45.0581 41.936 46.0569 41.936C48.0614 41.936 48.5337 41.7894 48.5337 41.1673C48.5337 40.9317 48.3908 40.6758 48.2034 40.5754C47.7784 40.348 44.2718 40.3542 43.8789 40.5831ZM34.4059 47.0851C34.458 47.4744 34.6027 47.8575 34.7272 47.9366C34.8518 48.0155 39.1596 48.0813 44.3 48.0828C53.367 48.0854 53.6516 48.0755 53.8231 47.755C53.9203 47.5733 53.9999 47.1889 53.9999 46.9009V46.3772H44.1553H34.3109L34.4059 47.0851Z" fill="url(#paint0_linear_5555_29521)"/>
<defs>
<linearGradient id="paint0_linear_5555_29521" x1="37.5781" y1="55.0906" x2="34.5511" y2="16.3177" gradientUnits="userSpaceOnUse">
<stop stop-color="#142A01"/>
<stop offset="0.460655" stop-color="#65DA00"/>
<stop offset="1" stop-color="#65DA00"/>
</linearGradient>
</defs>
</svg>
