<svg width="48" height="48" viewBox="0 0 48 48" fill="none" xmlns="http://www.w3.org/2000/svg">
<path opacity="0.5" d="M0 15C0 6.71573 6.71573 0 15 0H33C41.2843 0 48 6.71573 48 15V33C48 41.2843 41.2843 48 33 48H15C6.71573 48 0 41.2843 0 33V15Z" fill="#30473A"/>
<path fill-rule="evenodd" clip-rule="evenodd" d="M24.1574 9C24.4659 9 24.8804 9.01247 25.0767 9.02806C25.2731 9.04676 25.5691 9.07482 25.7312 9.09041C25.8932 9.106 26.1831 9.14341 26.3701 9.16835C26.557 9.19329 26.8251 9.23694 26.9622 9.26188C27.0993 9.28682 27.3798 9.34294 27.5855 9.38658C27.7911 9.42711 27.9937 9.47699 28.0373 9.49258C28.081 9.51129 28.1776 9.53934 28.2555 9.55805C28.3334 9.57676 28.536 9.63599 28.7074 9.68587C28.8788 9.73887 29.1374 9.82305 29.2839 9.87605C29.4304 9.92593 29.6672 10.0163 29.8137 10.0756C29.9602 10.1317 30.169 10.2159 30.2812 10.2626C30.3934 10.3094 30.7299 10.4684 31.0291 10.6212C31.3283 10.7708 31.6586 10.9423 31.7615 11.0046C31.8643 11.0639 32.0264 11.1605 32.1198 11.2166C32.2102 11.2727 32.4564 11.4317 32.6652 11.5658C32.8709 11.703 33.1389 11.89 33.2573 11.9804C33.3758 12.0708 33.5035 12.1675 33.5378 12.1924C33.5721 12.2174 33.7404 12.3545 33.9118 12.4979C34.0832 12.6382 34.3979 12.9157 34.613 13.1152C34.828 13.3116 35.1646 13.6483 35.3609 13.8635C35.5573 14.0755 35.8315 14.3872 35.9686 14.5524C36.1057 14.7177 36.3239 14.9983 36.4579 15.176C36.5888 15.3506 36.7727 15.6093 36.8661 15.7465C36.9596 15.8837 37.1653 16.2141 37.3243 16.4791C37.4801 16.7441 37.7263 17.1931 37.8665 17.4768C38.0068 17.7605 38.2156 18.2219 38.3277 18.5056C38.4431 18.7893 38.6051 19.2288 38.6924 19.4876C38.7765 19.7432 38.8918 20.1236 38.9448 20.3294C38.9978 20.5351 39.0882 20.9342 39.1474 21.2179C39.2066 21.5016 39.2751 21.9131 39.3032 22.1376C39.3281 22.3589 39.3655 22.6333 39.3842 22.7455C39.4029 22.8577 39.4247 23.3908 39.4341 23.9302C39.4434 24.4945 39.4372 25.0775 39.4185 25.3019C39.3998 25.517 39.3624 25.8818 39.3343 26.1125C39.3063 26.3432 39.2658 26.6518 39.2409 26.7984C39.2159 26.9449 39.1536 27.2598 39.1037 27.4998C39.0508 27.7399 38.9666 28.0828 38.9167 28.2636C38.8669 28.4445 38.7983 28.6814 38.764 28.7936C38.7298 28.9059 38.6519 29.1366 38.5926 29.308C38.5303 29.4795 38.4524 29.6977 38.415 29.7913C38.3776 29.8848 38.3277 30.0033 38.3059 30.0563C38.281 30.1093 38.2343 30.2184 38.2 30.3057C38.1688 30.3899 38.0597 30.6299 37.96 30.8357C37.8603 31.0414 37.7169 31.322 37.6421 31.4592C37.5673 31.5964 37.4738 31.7647 37.4333 31.8333C37.3959 31.9019 37.2931 32.0702 37.209 32.2074C37.1248 32.3446 36.9783 32.5753 36.8817 32.7218C36.7851 32.8683 36.6293 33.0928 36.5327 33.2206C36.4392 33.3485 36.3395 33.4825 36.3114 33.5168C36.2865 33.5511 36.1431 33.7257 35.9936 33.9065C35.844 34.0873 35.6165 34.3523 35.4887 34.4957C35.3578 34.6423 35.1459 34.8667 35.0181 34.9945C34.8903 35.1255 34.6504 35.3531 34.4883 35.4996C34.3263 35.6461 34.0583 35.8768 33.8962 36.014C33.7342 36.1512 33.4661 36.3601 33.3041 36.4816C33.142 36.6001 32.9021 36.7685 32.7743 36.8558C32.6465 36.943 32.4221 37.0896 32.2757 37.18C32.1292 37.2735 31.9266 37.3951 31.8238 37.4543C31.7209 37.5136 31.4561 37.657 31.2317 37.7723C31.0073 37.8877 30.652 38.0623 30.437 38.1558C30.2219 38.2524 29.8823 38.3958 29.6797 38.4738C29.4802 38.5517 29.2964 38.6141 29.2746 38.6141C29.2527 38.6141 29.2216 38.6265 29.206 38.6421C29.1873 38.6577 29.0502 38.7107 28.8944 38.7544C28.7385 38.8011 28.4456 38.8853 28.2399 38.9445C28.0342 39.0007 27.7538 39.0724 27.6166 39.0973C27.4795 39.1254 27.3237 39.1628 27.2738 39.1784C27.224 39.1939 26.9497 39.2407 26.6661 39.2844C26.3825 39.328 25.9338 39.3872 25.6689 39.4153C25.3074 39.4589 24.9427 39.4714 24.2042 39.4683C23.4998 39.4683 23.0947 39.4527 22.7706 39.4184C22.5213 39.3872 22.1286 39.3374 21.898 39.3031C21.6674 39.2688 21.415 39.2282 21.3371 39.2095C21.2591 39.194 21.0566 39.1534 20.8852 39.116C20.7138 39.0786 20.4676 39.0194 20.3398 38.9851C20.212 38.9508 19.944 38.8728 19.7477 38.8105C19.5513 38.7513 19.2709 38.6608 19.1244 38.611C18.9779 38.558 18.7816 38.4831 18.6881 38.4426C18.5946 38.399 18.5073 38.3647 18.4949 38.3647C18.4793 38.3647 18.4107 38.3366 18.3391 38.3054C18.2643 38.2711 18.0586 38.1807 17.8778 38.0997C17.6971 38.0186 17.3761 37.8627 17.1611 37.7474C16.946 37.6351 16.597 37.4387 16.382 37.3109C16.1669 37.1831 15.8366 36.9711 15.6496 36.8433C15.4626 36.7155 15.1665 36.5035 14.9951 36.3725C14.8237 36.2447 14.5433 36.0202 14.3719 35.8737C14.2005 35.7272 13.7922 35.3406 13.465 35.0164C13.1378 34.689 12.7451 34.2744 12.5924 34.0936C12.4397 33.9127 12.2839 33.7226 12.2465 33.6727C12.2091 33.6197 12.0813 33.4513 11.966 33.2923C11.8507 33.1333 11.6949 32.9182 11.6201 32.8091C11.5484 32.7 11.405 32.488 11.3084 32.3321C11.2087 32.1762 11.0279 31.8707 10.9033 31.6462C10.7818 31.4218 10.5854 31.0383 10.4639 30.7889C10.3455 30.5395 10.1647 30.1249 10.0619 29.8692C9.95902 29.6104 9.83124 29.2613 9.77515 29.0898C9.71905 28.9183 9.64738 28.6876 9.6131 28.5754C9.57882 28.4632 9.51649 28.2387 9.47286 28.0766C9.43234 27.9145 9.35443 27.5778 9.30457 27.3284C9.25471 27.079 9.19238 26.7423 9.16745 26.5801C9.14252 26.418 9.09265 25.9878 9.05526 25.6293C8.99916 25.0681 8.99293 24.8436 9.00539 24.0549C9.01474 23.5498 9.04279 22.9326 9.07084 22.6831C9.09577 22.4337 9.13317 22.1251 9.15498 21.9973C9.17368 21.8694 9.22978 21.5452 9.28276 21.2802C9.33262 21.0152 9.43234 20.585 9.5009 20.3294C9.56947 20.0706 9.68477 19.6778 9.75957 19.4564C9.83748 19.232 9.94032 18.9389 9.99018 18.8017C10.04 18.6646 10.118 18.4681 10.1616 18.3653C10.2083 18.2624 10.2582 18.1502 10.2738 18.1159C10.2894 18.0816 10.4047 17.8353 10.5324 17.5703C10.6602 17.3053 10.8378 16.9623 10.9251 16.8065C11.0124 16.6506 11.084 16.5228 11.084 16.5165C11.084 16.5134 11.1744 16.3669 11.2866 16.1892C11.3988 16.0146 11.5577 15.7745 11.6388 15.6592C11.7198 15.5407 11.8756 15.3225 11.9878 15.1728C12.1 15.0232 12.234 14.8486 12.2839 14.7831C12.3337 14.7177 12.502 14.5119 12.6547 14.3311C12.8105 14.1503 13.1658 13.7699 13.4494 13.4862C13.7361 13.2025 14.107 12.8502 14.2784 12.7037C14.4498 12.5572 14.7583 12.3078 14.964 12.1519C15.1697 11.996 15.3535 11.8557 15.3691 11.8401C15.3847 11.8277 15.5841 11.6967 15.8054 11.5471C16.0267 11.4006 16.3321 11.2073 16.4848 11.12C16.6344 11.0327 16.7715 10.961 16.7871 10.961C16.8027 10.961 16.8214 10.9485 16.8276 10.936C16.8307 10.9204 17.0863 10.7833 17.3948 10.6305C17.7033 10.4746 18.0337 10.3156 18.1271 10.2782C18.2206 10.2377 18.417 10.1566 18.5634 10.0974C18.7099 10.0382 18.8907 9.96957 18.9686 9.94463C19.0465 9.91657 19.1805 9.86981 19.2646 9.83863C19.3519 9.80434 19.5607 9.73887 19.7321 9.68587C19.9035 9.63599 20.1497 9.56429 20.2775 9.52687C20.4052 9.48946 20.6733 9.42399 20.8696 9.38346C21.0659 9.33982 21.3402 9.28682 21.4773 9.26188C21.6144 9.23694 21.8824 9.19329 22.0694 9.16835C22.2564 9.14029 22.5525 9.106 22.7239 9.09041C22.8953 9.0717 23.1602 9.04676 23.316 9.03118C23.4718 9.01871 23.8489 9.00312 24.1574 9ZM22.3343 11.5221C21.9666 11.5751 21.658 11.625 21.6487 11.6313C21.6393 11.6375 21.4929 11.6718 21.3215 11.7092C21.1501 11.7466 20.8758 11.8152 20.7138 11.8651C20.5517 11.9118 20.2993 11.9898 20.1528 12.0365C20.0063 12.0833 19.782 12.1644 19.6542 12.2142C19.5264 12.2641 19.3083 12.3514 19.1711 12.4107C19.034 12.4699 18.7754 12.5884 18.5946 12.6756C18.4139 12.7661 18.1116 12.9219 17.9246 13.0279C17.7376 13.1308 17.3979 13.3366 17.1766 13.4831C16.9554 13.6296 16.6375 13.851 16.4754 13.9726C16.3134 14.0973 16.0049 14.3498 15.7898 14.5369C15.5748 14.7239 15.2881 14.9889 15.1478 15.123C15.0076 15.2601 14.7895 15.4908 14.6648 15.6374C14.537 15.7839 14.3282 16.0302 14.2005 16.1861C14.0727 16.3451 13.8826 16.5914 13.7766 16.7316C13.6738 16.8751 13.5211 17.0995 13.4369 17.2273C13.3559 17.3552 13.2032 17.6015 13.1035 17.7729C13.0006 17.9444 12.8074 18.3092 12.6734 18.5835C12.5394 18.8578 12.3805 19.2008 12.3213 19.3473C12.262 19.4938 12.181 19.6965 12.1436 19.7994C12.1062 19.9022 12.0314 20.1267 11.9722 20.2982C11.9161 20.4696 11.8258 20.7783 11.7728 20.9841C11.7198 21.1898 11.6356 21.567 11.5858 21.8258C11.5328 22.0814 11.4705 22.4961 11.4455 22.7455C11.4206 22.9949 11.3832 23.4438 11.3614 23.7431C11.3334 24.1983 11.3365 24.4009 11.377 24.9746C11.405 25.3518 11.4487 25.8226 11.4767 26.019C11.5016 26.2154 11.5577 26.5458 11.6014 26.7516C11.6419 26.9574 11.7198 27.2941 11.7728 27.4998C11.8258 27.7056 11.9317 28.0641 12.0096 28.2948C12.0844 28.5255 12.2122 28.8778 12.2932 29.0742C12.3711 29.2706 12.4958 29.5543 12.5706 29.704C12.6454 29.8567 12.7046 29.9846 12.7046 29.9939C12.7046 30.0033 12.7825 30.1529 12.8822 30.3275C12.9788 30.5052 13.0723 30.6767 13.091 30.711C13.1097 30.7484 13.1876 30.8762 13.2655 31.0009C13.3434 31.1256 13.5024 31.3657 13.6177 31.5309C13.733 31.6961 13.8545 31.8676 13.8826 31.9081C13.9106 31.9486 14.0415 32.1108 14.1693 32.2698C14.2971 32.4256 14.4841 32.6532 14.5838 32.7717C14.6804 32.8902 14.9266 33.1489 15.1292 33.3484C15.3286 33.5449 15.6402 33.8317 15.821 33.9876C16.0017 34.1403 16.2199 34.3243 16.304 34.3928C16.3913 34.4614 16.6001 34.6142 16.7715 34.7358C16.9429 34.8543 17.2016 35.0288 17.348 35.1224C17.4914 35.2159 17.6534 35.3188 17.7064 35.3468C17.7563 35.378 17.9682 35.4934 18.1739 35.6025C18.3796 35.7147 18.6538 35.8519 18.7816 35.9111C18.9094 35.9704 19.1119 36.0608 19.2335 36.1138C19.355 36.1636 19.5077 36.226 19.5763 36.2478C19.6448 36.2696 19.7165 36.2977 19.7321 36.3102C19.7477 36.3195 19.9378 36.3881 20.1528 36.4567C20.3678 36.5253 20.639 36.6126 20.7605 36.6469C20.8821 36.6812 21.1127 36.7404 21.2747 36.7778C21.4368 36.8152 21.6674 36.862 21.7889 36.8869C21.9105 36.9119 22.1691 36.9524 22.3655 36.9805C22.5618 37.0085 22.8142 37.0428 22.9264 37.0584C23.0386 37.0709 23.4593 37.0927 23.8613 37.1052C24.3288 37.1176 24.7745 37.1114 25.0923 37.0896C25.3666 37.0709 25.6969 37.0397 25.8247 37.0179C25.9525 36.9992 26.2485 36.9524 26.4791 36.9119C26.7098 36.8745 27.0463 36.8059 27.2271 36.7653C27.4078 36.7217 27.6322 36.6625 27.7257 36.6344C27.8192 36.6063 28.0529 36.5315 28.2399 36.4723C28.4269 36.4099 28.7448 36.2977 28.9411 36.2198C29.1374 36.1449 29.5114 35.9797 29.767 35.8581C30.0256 35.7334 30.3902 35.5432 30.5772 35.4372C30.7642 35.3281 31.1226 35.1037 31.3719 34.9415C31.6212 34.7763 31.9422 34.5456 32.0887 34.4271C32.2352 34.3118 32.4097 34.1715 32.4751 34.1154C32.5437 34.0593 32.74 33.8878 32.9114 33.7319C33.0859 33.576 33.3726 33.2955 33.5472 33.1084C33.7248 32.9213 34.0302 32.5722 34.2234 32.3321C34.4166 32.0921 34.6753 31.7522 34.7969 31.5745C34.9184 31.4 35.0181 31.241 35.0181 31.2254C35.0181 31.2098 35.0275 31.1911 35.043 31.1848C35.0555 31.1817 35.1116 31.1007 35.1708 31.0071C35.2269 30.9136 35.3048 30.7858 35.3391 30.7265C35.3734 30.6673 35.4887 30.4522 35.5978 30.2496C35.7068 30.05 35.7972 29.8786 35.7972 29.8692C35.7972 29.8599 35.8408 29.7663 35.8938 29.6572C35.9468 29.5512 36.0559 29.2956 36.14 29.0898C36.2211 28.884 36.3395 28.5754 36.3987 28.4039C36.461 28.2325 36.5483 27.9581 36.595 27.796C36.6386 27.6339 36.7166 27.3159 36.7664 27.0945C36.8163 26.8701 36.8786 26.5708 36.9035 26.4243C36.9285 26.2777 36.9721 25.9691 37.0002 25.7384C37.0251 25.5077 37.0594 25.0868 37.0749 24.8031C37.0905 24.5194 37.0968 24.1048 37.0874 23.8834C37.0781 23.659 37.0594 23.3534 37.0438 23.1975C37.0251 23.0417 36.9908 22.7268 36.9628 22.4961C36.9347 22.2654 36.8724 21.8788 36.8225 21.6387C36.7727 21.3987 36.6885 21.0464 36.6355 20.8593C36.5826 20.6723 36.5046 20.4042 36.461 20.267C36.4143 20.1298 36.3332 19.8929 36.274 19.737C36.2179 19.5811 36.1556 19.4284 36.14 19.3941C36.1244 19.3598 36.0808 19.2538 36.0434 19.1603C36.0029 19.0667 35.8751 18.7924 35.7536 18.5523C35.6352 18.3123 35.4638 17.9912 35.3765 17.8353C35.2861 17.6794 35.1365 17.4362 35.0399 17.2897C34.9464 17.1432 34.7906 16.9125 34.694 16.7753C34.6005 16.6381 34.3574 16.3232 34.1549 16.0738C33.9523 15.8275 33.5908 15.4285 33.3508 15.1853C33.1109 14.9453 32.7338 14.5961 32.5094 14.409C32.285 14.2251 31.9235 13.9414 31.6991 13.7855C31.4747 13.6265 31.2099 13.4426 31.107 13.3771C31.0042 13.3116 30.7954 13.1869 30.6396 13.0965C30.4837 13.0061 30.1783 12.844 29.9539 12.7318C29.7296 12.6195 29.4304 12.4792 29.2839 12.4169C29.1374 12.3545 28.9411 12.2735 28.8476 12.2361C28.7541 12.2018 28.5422 12.1238 28.3801 12.0677C28.2181 12.0116 27.9376 11.9212 27.7569 11.8713C27.5761 11.8183 27.2894 11.7466 27.118 11.7092C26.9466 11.6718 26.8001 11.6375 26.7908 11.6313C26.7814 11.625 26.4791 11.5783 26.1207 11.5253C25.7624 11.4723 25.2295 11.4161 24.9365 11.3974C24.6436 11.3818 24.2821 11.3694 24.1262 11.3725C23.9704 11.3725 23.6557 11.385 23.425 11.4006C23.1944 11.413 22.702 11.4691 22.3343 11.5221ZM29.7171 14.8891C29.7451 14.8891 29.8012 14.9359 29.8449 14.992C29.8854 15.0481 29.9913 15.2321 30.0786 15.4035C30.169 15.575 30.2562 15.7714 30.2749 15.84C30.2967 15.9086 30.3123 16.0489 30.3123 16.1518C30.3123 16.2547 30.2967 16.3887 30.278 16.4479C30.2593 16.5103 30.2251 16.6038 30.2001 16.6599C30.1752 16.7161 30.1565 16.7691 30.1565 16.7753C30.1565 16.7846 30.1066 16.8969 30.0474 17.0247C29.9882 17.1556 29.9384 17.2741 29.9384 17.2897C29.9384 17.3084 30.035 17.3832 30.1503 17.4612C30.2656 17.536 30.4526 17.695 30.5648 17.8103C30.6769 17.9288 30.8234 18.1034 30.892 18.2032C30.9574 18.3029 31.0291 18.384 31.0447 18.384C31.0634 18.384 31.1319 18.3559 31.2005 18.3185C31.2691 18.2842 31.4529 18.2063 31.6056 18.1408C31.8082 18.0597 31.9484 18.0223 32.1043 18.013C32.257 18.0036 32.3754 18.0161 32.4938 18.0535C32.5873 18.0847 32.8086 18.1844 32.9862 18.278C33.1607 18.3684 33.3321 18.4681 33.3664 18.4993C33.4007 18.5305 33.4287 18.5741 33.4319 18.5991C33.4319 18.6271 33.4132 18.6646 33.3913 18.6833C33.3602 18.7144 33.3352 18.7144 33.2729 18.6801C33.2293 18.6583 33.1171 18.596 33.0236 18.543C32.9301 18.4869 32.7618 18.3996 32.6496 18.3497C32.5374 18.2967 32.3847 18.2406 32.3068 18.2281C32.2258 18.2094 32.1043 18.2125 32.0108 18.2312C31.9266 18.2468 31.8425 18.2717 31.8238 18.2842C31.8082 18.2967 31.7241 18.3341 31.6368 18.3653C31.5527 18.3964 31.4124 18.4557 31.1693 18.5773L31.294 18.6178C31.3657 18.6427 31.4747 18.7176 31.5527 18.8017C31.6555 18.914 31.6867 18.9732 31.7022 19.0917C31.7147 19.1727 31.7147 19.2881 31.7022 19.3473C31.6929 19.4097 31.6524 19.5063 31.6119 19.5655C31.5714 19.631 31.4779 19.7058 31.3937 19.7464C31.3002 19.7931 31.2286 19.8524 31.1974 19.9178C31.1693 19.9739 31.107 20.0737 31.0603 20.1423C31.0135 20.2109 30.9013 20.32 30.8078 20.3824C30.7143 20.4447 30.5616 20.5133 30.4681 20.532C30.3622 20.5569 30.1783 20.5663 29.9851 20.5569C29.7701 20.5445 29.6236 20.5195 29.5114 20.4759C29.421 20.4385 29.3338 20.4073 29.3151 20.4073C29.2964 20.4073 29.2933 20.4291 29.312 20.4634C29.3275 20.4946 29.3556 20.6224 29.3774 20.7502C29.3992 20.8843 29.4086 21.0869 29.3992 21.2179C29.3899 21.3488 29.3649 21.4953 29.3462 21.5452C29.3182 21.6263 29.3213 21.6481 29.3681 21.6886C29.3992 21.7167 29.6205 21.8632 30.2967 22.2903L30.4837 22.2685C30.5866 22.2592 30.7891 22.2342 30.9356 22.2186C31.0821 22.203 31.3314 22.1874 31.4903 22.1874C31.7178 22.1874 31.7833 22.1968 31.802 22.2342C31.8144 22.2592 31.8113 22.2903 31.7957 22.3028C31.7833 22.3153 31.6056 22.3558 31.4062 22.3963C31.2067 22.4337 30.8484 22.4867 30.1721 22.5678L29.7981 22.4213C29.5924 22.3433 29.3805 22.256 29.3244 22.2311C29.2683 22.2062 29.2216 22.1937 29.2216 22.1999C29.2216 22.2093 29.3026 22.3714 29.58 22.9045L29.8916 23.0011C30.063 23.0541 30.3497 23.1445 30.5305 23.2038C30.7112 23.2599 30.8857 23.3223 30.92 23.3378C30.9543 23.3534 31.0509 23.394 31.1319 23.4314C31.213 23.4657 31.2753 23.5124 31.2691 23.5342C31.2597 23.5592 31.2005 23.5717 31.0883 23.5654C30.9948 23.5623 30.8359 23.5374 30.733 23.5124C30.6302 23.4875 30.2936 23.4064 29.9851 23.3347C29.4335 23.2069 29.4241 23.2007 29.3088 23.076C29.2434 23.0074 29.1904 22.9606 29.1904 22.9731C29.1904 22.9856 29.2153 23.0915 29.2496 23.2069C29.2808 23.3223 29.3275 23.4594 29.3556 23.5093C29.3805 23.5623 29.5332 23.7244 29.6953 23.8678C29.8542 24.0144 30.0724 24.2295 30.1814 24.3448C30.2874 24.4602 30.3747 24.5818 30.3747 24.6161C30.3747 24.6503 30.3653 24.6815 30.3528 24.6815C30.3404 24.6815 30.1814 24.5786 30.0007 24.4508C29.8199 24.323 29.555 24.1141 29.4086 23.9894C29.1904 23.7992 29.125 23.7213 29.0346 23.5405C28.9754 23.4189 28.8383 23.1383 28.7323 22.917C28.5453 22.5335 28.5329 22.5148 28.4549 22.5273C28.4082 22.5366 28.3677 22.5553 28.3615 22.5678C28.3552 22.5803 28.3708 22.68 28.3926 22.786C28.4175 22.892 28.4768 23.1851 28.5204 23.4314C28.5671 23.6808 28.645 24.1235 28.6949 24.4134C28.7448 24.7065 28.8289 25.2115 28.8788 25.5357C28.9318 25.8631 29.0097 26.3744 29.0502 26.6737C29.0938 26.9761 29.1343 27.2411 29.1437 27.266C29.1499 27.2941 29.1842 27.5934 29.2216 27.9363C29.2559 28.2792 29.2995 28.6814 29.3151 28.8248C29.3338 28.9713 29.3618 29.28 29.3774 29.5107C29.393 29.7445 29.4241 30.4241 29.446 31.0227C29.4771 31.8832 29.474 32.3196 29.446 33.0803C29.4241 33.6134 29.393 34.159 29.3774 34.2962C29.3618 34.4334 29.3244 34.636 29.2933 34.7451C29.2621 34.8543 29.2216 34.9571 29.1998 34.9727C29.178 34.9852 29.1281 34.9883 29.0907 34.979C29.0502 34.9665 28.9567 34.901 28.8819 34.8293C28.8071 34.7607 28.6606 34.5893 28.5547 34.4521C28.4487 34.3149 28.2493 34.0281 28.1121 33.813C27.9719 33.601 27.8223 33.3547 27.7724 33.2674C27.7226 33.1832 27.5917 32.9525 27.4826 32.753C27.3704 32.5566 27.1772 32.1794 27.0494 31.9112C26.9217 31.6462 26.8064 31.4 26.7877 31.3657C26.7721 31.3314 26.7253 31.2004 26.6817 31.0695C26.6381 30.9417 26.5664 30.6767 26.5228 30.4771C26.476 30.2807 26.4137 29.9721 26.3825 29.7913C26.3514 29.6136 26.3015 29.2207 26.2735 28.9183C26.2236 28.3821 26.2236 28.3696 26.289 28.0298C26.3264 27.8365 26.395 27.5996 26.4511 27.4842C26.5041 27.3751 26.6131 27.185 26.6942 27.0634C26.7783 26.9449 26.8874 26.761 26.9404 26.6581C26.9902 26.5552 27.0494 26.4087 27.0713 26.3307C27.0931 26.2559 27.1211 26.1156 27.1367 26.019C27.1523 25.9254 27.1928 25.5108 27.2302 25.0993C27.2645 24.6878 27.305 24.2264 27.3237 24.0705C27.3424 23.9177 27.3798 23.5311 27.4141 23.2131C27.4577 22.7798 27.4608 22.627 27.4359 22.599C27.4141 22.5771 27.3486 22.5522 27.2894 22.5429C27.2302 22.5335 27.0713 22.4711 26.9404 22.4026C26.8064 22.334 26.6911 22.2779 26.6817 22.2779C26.6724 22.2779 26.7035 22.3683 26.7471 22.4743C26.8157 22.6333 26.8313 22.7174 26.8313 22.9481C26.8313 23.1633 26.8157 23.2786 26.7627 23.4314C26.7222 23.5436 26.6443 23.7307 26.5851 23.846C26.5259 23.9614 26.4324 24.1297 26.3732 24.2201C26.3171 24.3105 26.208 24.4602 26.1332 24.5537C26.0584 24.6503 25.8309 24.9216 25.6252 25.1616C25.4164 25.4017 24.9833 25.8662 24.656 26.1936C24.3132 26.5365 23.8738 26.9355 23.612 27.1444C23.3627 27.344 23.0916 27.5528 23.0043 27.6089C22.9202 27.6651 22.7644 27.7742 22.6615 27.8459C22.5587 27.9207 22.4652 27.9831 22.4527 27.9831C22.4403 27.9831 22.3218 28.0548 22.1941 28.1389C22.0663 28.2262 21.9541 28.2948 21.9448 28.2948C21.9354 28.2948 21.8513 28.3447 21.7578 28.4039C21.6643 28.4663 21.5801 28.5131 21.5708 28.5131C21.5614 28.5131 21.5022 28.5473 21.4399 28.5879C21.3744 28.6284 21.1875 28.7344 21.0254 28.8279C20.8634 28.9183 20.4271 29.1459 20.0593 29.333C19.6916 29.52 19.0963 29.8037 18.7348 29.9659C18.3765 30.128 18.0742 30.2558 18.0648 30.2464C18.0555 30.2371 18.1271 30.0656 18.2175 29.863C18.311 29.6603 18.4637 29.3361 18.5572 29.1366C18.6476 28.9402 18.8283 28.5723 18.9561 28.3198C19.0839 28.0672 19.3083 27.6401 19.4547 27.3689C19.6043 27.0977 19.81 26.736 19.9128 26.5646C20.0157 26.3931 20.2276 26.0564 20.3834 25.8163C20.5361 25.5763 20.7262 25.2926 20.8041 25.1835C20.8852 25.0775 21.0161 24.8998 21.0971 24.7938C21.1812 24.6878 21.415 24.4196 21.6175 24.1952C21.8232 23.9738 22.1941 23.5935 22.4465 23.3534C22.6989 23.1134 23.0137 22.8234 23.1415 22.705C23.2723 22.5865 23.5622 22.3558 23.7834 22.1874C24.0078 22.0222 24.2789 21.8352 24.3911 21.7759C24.5033 21.7136 24.7059 21.6232 24.843 21.5764C25.0487 21.5047 25.1422 21.4891 25.3728 21.4891C25.6034 21.4922 25.6876 21.5047 25.8496 21.5733C25.9556 21.62 26.0397 21.645 26.0335 21.6325C26.0273 21.62 25.9805 21.5172 25.9244 21.4049C25.8714 21.2958 25.806 21.1243 25.7312 20.8438L25.6003 20.8625C25.5255 20.8718 25.1734 20.9061 24.8119 20.9404C24.4535 20.9778 23.9673 21.0246 23.7367 21.0464C23.5061 21.0713 23.0916 21.1056 22.8173 21.1243C22.5213 21.1462 22.2252 21.1867 22.085 21.2241C21.9572 21.2615 21.7609 21.3363 21.6487 21.3956C21.5365 21.4517 21.3557 21.5577 21.2436 21.6294C21.1314 21.7011 20.9755 21.7977 20.8945 21.8476C20.8135 21.8975 20.6639 21.9599 20.5673 21.991C20.4177 22.0347 20.2775 22.044 19.7633 22.0409C19.2927 22.0378 19.0465 22.0222 18.7504 21.9723C18.5354 21.938 18.2144 21.8788 18.0337 21.8445C17.8529 21.8102 17.6005 21.7479 17.4727 21.7073C17.3449 21.6637 17.105 21.5795 16.9429 21.514C16.7809 21.4517 16.4848 21.3208 16.2885 21.221C16.0921 21.1212 15.8459 20.9965 15.7431 20.9404C15.6402 20.8843 15.4439 20.7752 15.3068 20.6972C15.1697 20.6193 14.9515 20.4915 14.8237 20.4166C14.696 20.3387 14.5339 20.2389 14.4654 20.1922C14.3968 20.1485 14.3345 20.1049 14.3251 20.0955C14.3158 20.0862 14.269 20.0519 14.216 20.0207C14.1662 19.9895 14.0166 19.8835 13.8888 19.79C13.761 19.6934 13.5865 19.5437 13.5055 19.4595C13.4214 19.3723 13.3466 19.2725 13.3372 19.2382C13.3279 19.2039 13.331 19.1603 13.3403 19.1384C13.3497 19.1166 13.4058 19.0792 13.4619 19.0574C13.518 19.0324 13.6676 18.9981 13.7953 18.9794C13.9231 18.9607 14.2192 18.9264 14.4498 18.9077C14.7022 18.8828 15.4096 18.8703 16.2105 18.8703C16.9491 18.8703 17.8467 18.889 18.2051 18.9077C18.5666 18.9296 19.0777 18.967 19.3425 18.9919C19.6074 19.0168 20.1123 19.0698 20.4645 19.1135C20.8166 19.154 21.39 19.232 21.7422 19.2818C22.0943 19.3348 22.6491 19.419 22.9732 19.472C23.3004 19.525 23.7959 19.6061 24.0795 19.656C24.3631 19.7058 24.79 19.7838 25.03 19.8274C25.27 19.8742 25.5224 19.9241 25.591 19.9397C25.6595 19.9552 25.7312 19.9584 25.7468 19.9428C25.7655 19.9303 25.7904 19.8867 25.8029 19.8524C25.8216 19.7931 25.7998 19.7744 25.6003 19.6778C25.4756 19.6217 25.1983 19.4907 24.9833 19.3878C24.6218 19.2164 24.5812 19.1852 24.3911 18.9701C24.2789 18.8454 24.1294 18.6708 24.0608 18.5835C23.9922 18.4993 23.8676 18.331 23.7866 18.2094C23.7086 18.0909 23.6432 17.9756 23.6432 17.9537C23.6432 17.9319 23.6681 17.9132 23.6993 17.9132C23.7273 17.9132 23.9829 18.1502 24.7745 18.9576L25.0674 19.0605C25.2357 19.1197 25.3479 19.1447 25.3354 19.1228C25.3229 19.101 25.2887 19.0667 25.2575 19.0449C25.2263 19.0231 25.1796 18.9638 25.1547 18.9108C25.1297 18.861 25.0861 18.7394 25.0581 18.6396C25.0331 18.5399 24.9552 18.2219 24.8898 17.9288C24.8243 17.6389 24.7651 17.324 24.7589 17.2273C24.7526 17.0933 24.7589 17.0559 24.7963 17.0559C24.8243 17.0559 24.8804 17.1525 24.9396 17.2897C24.9926 17.4206 25.1173 17.7854 25.217 18.1003C25.3136 18.4183 25.4133 18.6989 25.4351 18.7238C25.457 18.7519 25.619 18.8454 25.7904 18.9358C25.9649 19.0262 26.1052 19.0886 26.1052 19.0761C26.1052 19.0636 26.0273 18.8485 25.753 18.147L25.8216 17.6015C25.859 17.3022 25.9182 16.9374 25.9525 16.7909C25.9867 16.6475 26.0304 16.5134 26.046 16.4947C26.0667 16.4739 26.0865 16.4791 26.1052 16.5103C26.1239 16.5384 26.1363 16.6849 26.1332 16.8376C26.1332 16.9935 26.1207 17.2398 26.102 17.3832C26.0865 17.5298 26.0647 17.7417 26.0366 18.0535L26.3295 18.4962C26.4885 18.7394 26.6381 18.9483 26.6599 18.9576C26.6817 18.967 26.7658 18.9607 26.8469 18.942C26.9279 18.9233 27.1211 18.9077 27.2738 18.9108C27.4296 18.9108 27.6291 18.9296 27.7164 18.9514C27.8067 18.9732 27.8815 18.9888 27.8815 18.9888C27.8815 18.9888 27.8535 18.8984 27.8192 18.7861C27.7818 18.677 27.7475 18.4869 27.7351 18.3653C27.7257 18.2374 27.7319 18.066 27.7537 17.9444C27.7756 17.8322 27.8317 17.6794 27.8815 17.6015C27.9314 17.5266 28.0373 17.3988 28.1215 17.3209C28.2025 17.2398 28.3241 17.1619 28.3895 17.1401C28.4799 17.112 28.511 17.0808 28.536 17.0029C28.5516 16.9468 28.6201 16.8501 28.6824 16.7878C28.7479 16.7223 28.8414 16.6568 28.8881 16.6381C28.9349 16.6194 29.0284 16.6038 29.0969 16.6038C29.1655 16.6038 29.2746 16.6256 29.34 16.6537C29.4023 16.6818 29.4958 16.741 29.5426 16.7846C29.5924 16.8314 29.6516 16.9125 29.6766 16.9623C29.7015 17.0153 29.7202 17.0746 29.7202 17.0964C29.7202 17.1182 29.7327 17.1338 29.7451 17.1369C29.7576 17.1369 29.7825 17.0964 29.8044 17.0496C29.823 17.0029 29.8978 16.8221 29.9726 16.6506C30.0755 16.4074 30.1035 16.3014 30.1066 16.1518C30.1066 16.0021 30.0848 15.9148 29.9976 15.7153C29.9352 15.5781 29.8262 15.3724 29.7576 15.257C29.6859 15.1417 29.6236 15.0201 29.6205 14.9889C29.6205 14.9577 29.6298 14.9234 29.6423 14.911C29.6579 14.8985 29.6922 14.8891 29.7171 14.8891Z" fill="#65DA01"/>
</svg>
