<svg width="65" height="63" viewBox="0 0 65 63" fill="none" xmlns="http://www.w3.org/2000/svg">
<rect opacity="0.5" width="65" height="62.7391" rx="14.1304" fill="#1D2D24"/>
<path fill-rule="evenodd" clip-rule="evenodd" d="M15.1962 14.2132C15.0613 14.3479 15 15.1639 15 16.826V19.2427H32H49V16.826C49 15.1639 48.9387 14.3479 48.8038 14.2132C48.5193 13.9289 15.4807 13.9289 15.1962 14.2132ZM36.9782 15.7245C36.1673 16.5345 36.7419 17.9364 37.8846 17.9364C38.5566 17.9364 39.1923 17.3013 39.1923 16.63C39.1923 15.9587 38.5566 15.3236 37.8846 15.3236C37.5662 15.3236 37.2311 15.4717 36.9782 15.7245ZM40.9013 15.7245C40.0904 16.5345 40.6649 17.9364 41.8077 17.9364C42.4797 17.9364 43.1154 17.3013 43.1154 16.63C43.1154 15.9587 42.4797 15.3236 41.8077 15.3236C41.4893 15.3236 41.1542 15.4717 40.9013 15.7245ZM44.8244 15.7245C44.0134 16.5345 44.588 17.9364 45.7308 17.9364C46.8943 17.9364 47.4576 16.5124 46.6059 15.724C46.0438 15.2036 45.3455 15.2038 44.8244 15.7245ZM17.1592 16.1713C16.8966 16.4336 16.9086 16.8727 17.1843 17.1014C17.3453 17.2348 19.7569 17.2744 25.871 17.2438C33.727 17.2046 34.3476 17.181 34.515 16.9158C34.6466 16.7074 34.6466 16.5526 34.515 16.3442C34.3476 16.079 33.7258 16.0554 25.8457 16.0162C19.3793 15.984 17.3097 16.0209 17.1592 16.1713ZM15 34.07C15 44.3685 15.0468 47.6375 15.1962 47.7868C15.4807 48.0711 48.5193 48.0711 48.8038 47.7868C48.9533 47.6375 49 44.3685 49 34.07V20.5491H32H15V34.07ZM30.438 24.2027C29.4714 24.6522 28.5353 25.672 28.2667 26.5678C27.8919 27.8174 27.6254 27.7341 32 27.7341H35.9231L35.9214 27.3667C35.9187 26.7115 35.1671 25.3625 34.4755 24.7711C33.285 23.7533 31.8411 23.55 30.438 24.2027ZM23.0423 28.5832C22.5137 29.1113 22.9676 29.6936 23.9082 29.6936C24.4692 29.6936 24.6771 29.7952 25.1895 30.3194C25.7391 30.8816 25.784 30.9905 25.6314 31.3914C25.538 31.6369 25.4615 32.5278 25.4615 33.3712V34.9047L24.2936 34.9527C23.3939 34.9896 23.0843 35.0664 22.9459 35.2865C22.8151 35.4942 22.8151 35.6503 22.9459 35.858C23.0843 36.0782 23.3939 36.1549 24.2936 36.1918L25.4615 36.2398V37.7733C25.4615 38.6168 25.538 39.5077 25.6314 39.7531C25.7839 40.1535 25.7393 40.2628 25.1972 40.8172C24.7029 41.323 24.4602 41.4439 23.8591 41.4839C23.017 41.5397 22.644 41.9098 22.9457 42.3899C23.076 42.5972 23.3857 42.6893 24.0744 42.7254C25.006 42.7743 25.0375 42.7614 25.7764 42.0342L26.5294 41.2933L27.3309 41.6988C28.0225 42.0486 28.3525 42.1041 29.7392 42.1041H31.3462V35.5723V29.0405L29.7524 29.0421C28.4168 29.0434 28.0227 29.1069 27.3188 29.4343L26.4789 29.8249L25.7728 29.1061C25.1049 28.4263 25.0169 28.3873 24.1525 28.3873C23.6497 28.3873 23.1502 28.4755 23.0423 28.5832ZM38.2112 29.1151L37.4751 29.8535L36.6714 29.4469C35.9772 29.0958 35.6488 29.0405 34.2608 29.0405H32.6538V35.5723V42.1041L34.2476 42.1025C35.5832 42.1012 35.9773 42.0376 36.6812 41.7102L37.5211 41.3196L38.2339 42.0451C38.935 42.7589 38.9625 42.77 39.9107 42.7231C40.6152 42.6884 40.923 42.5987 41.0543 42.3899C41.356 41.9098 40.983 41.5397 40.1409 41.4839C39.5398 41.4439 39.2971 41.323 38.8028 40.8172C38.2607 40.2628 38.2161 40.1535 38.3686 39.7531C38.462 39.5077 38.5385 38.6168 38.5385 37.7733V36.2398L39.7064 36.1918C40.6061 36.1549 40.9157 36.0782 41.0541 35.858C41.1849 35.6503 41.1849 35.4942 41.0541 35.2865C40.9157 35.0664 40.6061 34.9896 39.7064 34.9527L38.5385 34.9047V33.3712C38.5385 32.5278 38.462 31.6369 38.3686 31.3914C38.2161 30.991 38.2607 30.8818 38.8028 30.3274C39.2971 29.8215 39.5398 29.7007 40.1409 29.6606C40.983 29.6048 41.356 29.2348 41.0543 28.7547C40.9227 28.5455 40.6164 28.4565 39.9109 28.4229C38.9626 28.3776 38.9352 28.3887 38.2112 29.1151Z" fill="url(#paint0_linear_5555_29754)"/>
<defs>
<linearGradient id="paint0_linear_5555_29754" x1="35.8099" y1="54.9745" x2="32.088" y2="16.5095" gradientUnits="userSpaceOnUse">
<stop stop-color="#142A01"/>
<stop offset="0.460655" stop-color="#65DA00"/>
<stop offset="1" stop-color="#65DA00"/>
</linearGradient>
</defs>
</svg>
