<svg width="257" height="166" viewBox="0 0 257 166" fill="none" xmlns="http://www.w3.org/2000/svg">
<path opacity="0.5" d="M0 15C0 6.71572 6.71573 0 15 0H242C250.284 0 257 6.71573 257 15V151C257 159.284 250.284 166 242 166H15C6.71573 166 0 159.284 0 151V15Z" fill="#1C2D23"/>
<path d="M175.814 37.6748C176.57 38.5457 177.107 39.5856 177.379 40.7061H177.38L177.076 40.7793C177.205 41.3077 177.271 41.8553 177.271 42.4111V43.6992H177.584V46.2764H177.271V48.8525H177.584V51.4297H177.271V54.0059H177.584V56.583H177.271V59.1602H177.584V61.7363H177.271V64.3135H177.584V66.8906H177.271V69.4668H177.584V72.0439H177.271V74.6201H177.584V77.1973H177.271V79.7744H177.584V82.3506H177.271V84.9277H177.584V87.5039H177.271V90.0811H177.584V92.6582H177.271V95.2344H177.584V97.8115H177.271V99.0996C177.271 99.5228 177.26 99.9456 177.237 100.367L177.55 100.385C177.504 101.242 177.411 102.094 177.274 102.938L176.966 102.889C176.83 103.724 176.651 104.551 176.427 105.366L176.728 105.449C176.501 106.274 176.229 107.087 175.915 107.886L175.625 107.771C175.47 108.164 175.305 108.554 175.129 108.938L174.975 109.275L175.259 109.406L174.95 110.079L174.667 109.949L174.513 110.286C174.341 110.661 174.162 111.033 173.976 111.4L174.252 111.54C173.874 112.285 173.47 113.014 173.035 113.723L172.769 113.56C172.337 114.263 171.876 114.948 171.39 115.613L171.64 115.795C171.147 116.468 170.628 117.12 170.083 117.75L169.85 117.548C169.311 118.171 168.746 118.773 168.157 119.352L168.375 119.574C167.782 120.157 167.162 120.715 166.521 121.25L166.324 121.013C166.008 121.277 165.686 121.534 165.358 121.785L164.433 122.496L164.622 122.744L162.77 124.166L162.58 123.919L160.728 125.341L160.918 125.589L159.065 127.011L158.876 126.764L157.023 128.186L157.213 128.433L155.361 129.854L155.171 129.607L153.319 131.03L153.509 131.277L151.657 132.7L151.467 132.452L150.55 133.155L149.569 133.769L149.734 134.033L147.743 135.277L147.578 135.014L145.587 136.258L145.752 136.522L143.76 137.768L143.595 137.503L141.604 138.747L141.769 139.012L139.777 140.257L139.612 139.992L137.621 141.237L137.786 141.502L135.794 142.746L135.629 142.481L133.638 143.727L133.803 143.991L131.812 145.236L131.646 144.971L130.65 145.594C130.366 145.772 130.071 145.927 129.77 146.062L129.896 146.347C129.255 146.632 128.583 146.824 127.9 146.92L127.857 146.61C127.28 146.691 126.695 146.701 126.115 146.641L125.867 146.61L125.823 146.92C125.141 146.824 124.469 146.633 123.827 146.347L123.955 146.062C123.654 145.927 123.359 145.772 123.074 145.594L122.078 144.971L121.912 145.236L119.921 143.991L120.087 143.727L118.096 142.481L117.93 142.746L115.938 141.502L116.104 141.237L114.112 139.992L113.946 140.257L111.955 139.012L112.121 138.747L110.129 137.503L109.964 137.768L107.972 136.522L108.138 136.258L106.146 135.014L105.98 135.277L103.989 134.033L104.155 133.769L103.174 133.155L102.258 132.452L102.066 132.7L100.215 131.277L100.405 131.03L98.5537 129.607L98.3623 129.854L96.5107 128.433L96.7012 128.186L94.8486 126.764L94.6582 127.011L92.8057 125.589L92.9971 125.341L91.1445 123.919L90.9541 124.166L89.1016 122.744L89.292 122.496L88.3662 121.785L87.8789 121.403C87.7181 121.275 87.5584 121.145 87.4004 121.013L87.2021 121.25C86.5613 120.715 85.942 120.157 85.3486 119.574L85.5674 119.352C84.9787 118.773 84.4139 118.171 83.875 117.548L83.6406 117.75C83.0955 117.12 82.5762 116.468 82.084 115.795L82.335 115.613C81.8483 114.948 81.3879 114.263 80.9561 113.56L80.6885 113.723C80.2533 113.014 79.8492 112.284 79.4717 111.54L79.749 111.4C79.5628 111.033 79.3835 110.661 79.2119 110.286L79.0576 109.949L78.7734 110.079L78.4648 109.406L78.75 109.275L78.5957 108.938C78.4198 108.554 78.2543 108.164 78.0996 107.771L77.8086 107.886C77.4942 107.087 77.2226 106.274 76.9961 105.449L77.2979 105.366C77.0739 104.551 76.8942 103.724 76.7588 102.889L76.4492 102.938C76.3122 102.094 76.2198 101.242 76.1738 100.385L76.4873 100.367C76.4647 99.9456 76.4531 99.5228 76.4531 99.0996V97.9004H76.1406V95.501H76.4531V93.1016H76.1406V90.7021H76.4531V88.3027H76.1406V85.9043H76.4531V83.5049H76.1406V81.1055H76.4531V78.7061H76.1406V76.3066H76.4531V73.9072H76.1406V71.5088H76.4531V69.1094H76.1406V66.71H76.4531V64.3105H76.1406V61.9111H76.4531V59.5117H76.1406V57.1133H76.4531V54.7139H76.1406V52.3145H76.4531V49.915H76.1406V47.5156H76.4531V45.1162H76.1406V42.7178H76.4531V41.5176C76.4531 41.0987 76.5024 40.6855 76.5967 40.2861L76.292 40.2148C76.4935 39.3607 76.891 38.5643 77.4521 37.8896L77.458 37.8828L77.6982 38.084C77.8954 37.8476 78.1132 37.6264 78.3516 37.4248L78.5967 37.2305C78.7084 37.1467 78.8236 37.0668 78.9414 36.9922L78.7734 36.7285C79.0231 36.5703 79.2844 36.431 79.5557 36.3135L79.6807 36.6006C79.7445 36.5729 79.8091 36.5467 79.874 36.5215L80.0713 36.4492L81.2939 36.0293L81.1914 35.7334L81.1904 35.7324L83.6357 34.8916L83.6367 34.8926L83.7383 35.1885L86.1836 34.3477L86.082 34.0518L86.0811 34.0508L88.5264 33.2109L88.6289 33.5078L91.0742 32.667L90.9717 32.3701L93.417 31.5293L93.418 31.5303L93.5195 31.8262L95.9648 30.9854L95.8623 30.6895L98.3066 29.8486L98.3076 29.8496L98.4092 30.1455L100.854 29.3047L100.753 29.0088L100.752 29.0078L103.197 28.167L103.198 28.168L103.3 28.4639L105.745 27.623L105.644 27.3271L105.643 27.3262L108.088 26.4854L108.089 26.4863L108.19 26.7822L110.636 25.9424L110.533 25.6455L112.978 24.8047L112.979 24.8057L113.081 25.1016L115.525 24.2607L115.424 23.9648L115.423 23.9639L117.869 23.124L117.971 23.4199L120.416 22.5801L120.313 22.2832L122.759 21.4424L122.861 21.7393L124.084 21.3184C124.533 21.1641 124.992 21.0478 125.455 20.9697L125.403 20.6611C126.37 20.4983 127.357 20.4954 128.324 20.6523L128.275 20.9619C128.739 21.0372 129.199 21.1503 129.648 21.3018L130.83 21.7002L130.93 21.4033L133.293 22.1992L133.194 22.4961L135.559 23.292L135.657 22.9951L138.021 23.791L137.923 24.0879L140.287 24.8838L140.386 24.5869L142.75 25.3828L142.65 25.6797L145.015 26.4756L145.113 26.1787L147.478 26.9746L147.379 27.2715L149.743 28.0674L149.842 27.7705L152.206 28.5664L152.107 28.8633L154.471 29.6592L154.57 29.3623L156.934 30.1582L156.835 30.4551L159.199 31.251L159.298 30.9541L161.662 31.75L161.563 32.0469L163.928 32.8428L164.026 32.5459L166.391 33.3418L166.291 33.6387L168.655 34.4346L168.754 34.1377L171.118 34.9336L171.02 35.2305L172.201 35.6289C172.374 35.687 172.544 35.7508 172.712 35.8213L172.833 35.5332C173.182 35.6803 173.52 35.8533 173.845 36.0498L173.684 36.3174C173.839 36.4115 173.99 36.5118 174.139 36.6172L174.195 36.6562L174.375 36.4014L174.488 36.4805V36.4814L174.307 36.7363L174.362 36.7754C174.815 37.0974 175.223 37.4692 175.579 37.8799L175.814 37.6748Z" stroke="#40674F" stroke-width="0.62571" stroke-dasharray="2.5 2.5"/>
<path d="M124.604 28.5693C126.065 28.0669 127.653 28.0633 129.118 28.5566L167.192 41.375C167.674 41.5373 168.133 41.7606 168.559 42.04L168.738 42.1641L168.938 42.3047V42.3057C170.38 43.3312 171.237 44.9913 171.237 46.7607V97.4824C171.237 100.417 170.606 103.317 169.386 105.986L168.835 107.192C167.034 111.132 164.296 114.571 160.86 117.209L147.646 127.355L129.863 138.472C128.023 139.622 125.688 139.621 123.848 138.472L106.063 127.355L92.8496 117.209C89.4141 114.571 86.6769 111.132 84.876 107.192L84.3242 105.986C83.1042 103.317 82.4727 100.417 82.4727 97.4824V45.9619C82.4727 44.6792 83.0767 43.4707 84.1025 42.7012C84.442 42.4466 84.8208 42.2459 85.2236 42.1074L124.604 28.5693Z" fill="url(#paint0_linear_157_979)" stroke="#65DA01" stroke-width="2"/>
<path d="M126.37 52.6036C143.048 52.342 156.779 65.6495 157.041 82.3266C157.302 99.0038 143.995 112.735 127.318 112.997C110.641 113.259 96.909 99.9512 96.6474 83.274C96.3858 66.5968 109.693 52.8652 126.37 52.6036ZM127.246 108.447C141.411 108.225 152.713 96.5625 152.491 82.398C152.269 68.2334 140.606 56.9309 126.442 57.1531C112.277 57.3753 100.975 69.0381 101.197 83.2026C101.419 97.3672 113.082 108.67 127.246 108.447Z" fill="url(#paint1_linear_157_979)"/>
<path d="M128.438 54.8379C128.732 54.6739 129.046 54.6132 129.364 54.7266C129.683 54.8399 129.889 55.0857 130.016 55.3984C130.138 55.7008 130.197 56.0871 130.222 56.5381C130.271 57.4409 130.185 58.7276 130.075 60.4004L129.406 70.5449C129.305 72.0851 129.231 73.2085 129.288 74.0762C129.344 74.9344 129.525 75.4947 129.896 75.9346L130.043 76.0918C130.402 76.4398 130.889 76.6658 131.613 76.832C132.451 77.0242 133.559 77.1268 135.08 77.2666L135.475 77.3027C137.978 77.5326 139.893 77.7076 141.28 78.0479C142.671 78.3891 143.623 78.9182 144.086 79.9258C144.548 80.9322 144.334 82.007 143.695 83.2998C143.058 84.5898 141.954 86.1817 140.513 88.2637L128.72 105.296C127.769 106.669 127.037 107.727 126.439 108.399C126.141 108.735 125.854 109 125.57 109.158C125.276 109.322 124.962 109.383 124.644 109.27C124.325 109.156 124.119 108.91 123.992 108.598C123.869 108.295 123.811 107.909 123.786 107.458C123.737 106.555 123.822 105.268 123.933 103.596L124.602 93.4512C124.703 91.911 124.776 90.7876 124.72 89.9199C124.664 89.0618 124.483 88.5014 124.111 88.0615C123.74 87.6223 123.223 87.354 122.395 87.1641C121.557 86.9719 120.449 86.8693 118.928 86.7295L118.533 86.6934C116.03 86.4635 114.114 86.2885 112.728 85.9482C111.337 85.607 110.385 85.0779 109.922 84.0703C109.46 83.0639 109.675 81.9891 110.313 80.6963C110.951 79.4064 112.054 77.8142 113.495 75.7324L125.288 58.7002C126.239 57.3268 126.97 56.2694 127.568 55.5967C127.867 55.2606 128.153 54.9963 128.438 54.8379Z" fill="url(#paint2_linear_157_979)" stroke="#65DA00" stroke-width="0.659531"/>
<circle cx="180.732" cy="38.8208" r="10.3835" transform="rotate(63.0707 180.732 38.8208)" stroke="white" stroke-width="1.63186"/>
<circle cx="162.821" cy="35.3586" r="4.51714" transform="rotate(63.0707 162.821 35.3586)" stroke="white" stroke-width="1.63186"/>
<circle cx="178.696" cy="57.1994" r="4.51714" transform="rotate(63.0707 178.696 57.1994)" stroke="white" stroke-width="1.63186"/>
<defs>
<linearGradient id="paint0_linear_157_979" x1="116.188" y1="-12.4669" x2="42.3247" y2="199.517" gradientUnits="userSpaceOnUse">
<stop stop-color="#4B9F6B"/>
<stop offset="1" stop-color="#1B3926" stop-opacity="0"/>
</linearGradient>
<linearGradient id="paint1_linear_157_979" x1="70.1837" y1="35.762" x2="137.883" y2="124.781" gradientUnits="userSpaceOnUse">
<stop stop-color="#1B3926"/>
<stop offset="1" stop-color="#4B9F6B"/>
</linearGradient>
<linearGradient id="paint2_linear_157_979" x1="129.823" y1="124.393" x2="109.927" y2="64.7828" gradientUnits="userSpaceOnUse">
<stop stop-color="#142A01"/>
<stop offset="0.460655" stop-color="#65DA00"/>
<stop offset="1" stop-color="#65DA00"/>
</linearGradient>
</defs>
</svg>
