<svg width="115" height="111" viewBox="0 0 115 111" fill="none" xmlns="http://www.w3.org/2000/svg">
<rect opacity="0.5" width="115" height="111" rx="25" fill="#1D2D24"/>
<path d="M65.0586 85.9189V91.084H49.9414V86.002L50.0254 85.998V85.9189H65.0586ZM65.0586 78.4355V83.6006H49.9414V78.5186L50.0254 78.5146V78.4355H65.0586ZM57.5 35.0635C62.1602 35.0635 66.3824 36.4698 69.4414 38.7471C72.5004 41.0244 74.4004 44.1771 74.4004 47.667V47.6807L74.3965 47.6934L64.8428 76.4482L64.8242 76.5059H50.1768L50.1572 76.4482L40.6025 47.6934L40.5986 47.6807V47.667C40.5986 44.1771 42.4987 41.0244 45.5576 38.7471C48.6166 36.4698 52.839 35.0635 57.499 35.0635H57.5ZM37.3574 54.6143L37.374 54.6768L38.3535 58.3223L38.375 58.4033L38.2939 58.4248L27.499 61.2979L27.4189 61.3193L27.3975 61.2393L26.418 57.5967L26.3955 57.5166L26.4766 57.4941L37.2715 54.6172L37.2822 54.6143H37.3574ZM77.7275 54.6172L88.5225 57.4941L88.6035 57.5156L88.582 57.5967L87.6035 61.2383L87.582 61.3193L87.501 61.2979L76.7061 58.4248L76.625 58.4033L76.6465 58.3223L77.623 54.6875V54.5889L77.7275 54.6172ZM87.7812 38.4521L89.0781 42L89.1074 42.0781L89.0283 42.1074L78.5254 45.9062L78.4463 45.9346L78.418 45.8564L77.1201 42.3096L77.0918 42.2314L77.1709 42.2021L87.6738 38.4023L87.752 38.374L87.7812 38.4521ZM27.417 38.3975L27.4043 38.4307L37.8291 42.2021L37.9082 42.2305L37.8789 42.3096L36.5771 45.8555L36.5479 45.9336L36.4697 45.9053L25.9717 42.1074L25.8926 42.0781L25.9219 42L27.2188 38.4521L27.2832 38.4746L27.2969 38.3975H27.417ZM40.167 24.29L46.5752 33.3867L46.624 33.4551L46.5547 33.5039L43.4463 35.668L43.3779 35.7158L43.3301 35.6475L36.9199 26.5508L36.8711 26.4814L36.9404 26.4336L40.0508 24.2695L40.1191 24.2217L40.167 24.29ZM74.9277 24.2549L74.9492 24.2695L78.0596 26.4336L78.1289 26.4814L78.0801 26.5508L71.6699 35.6475L71.6221 35.7158L71.5537 35.668L68.4443 33.5039L68.376 33.4561L68.4238 33.3867L74.832 24.29L74.8574 24.2549H74.9277ZM59.4824 20.916V32.1914H55.5186V21H55.6016V20.916H59.4824Z" fill="url(#paint0_linear_5555_29501)" stroke="#65DA00" stroke-width="0.167396"/>
<defs>
<linearGradient id="paint0_linear_5555_29501" x1="64.5596" y1="105.359" x2="56.0638" y2="26.3385" gradientUnits="userSpaceOnUse">
<stop stop-color="#142A01"/>
<stop offset="0.460655" stop-color="#65DA00"/>
<stop offset="1" stop-color="#65DA00"/>
</linearGradient>
</defs>
</svg>
