<svg width="48" height="48" viewBox="0 0 48 48" fill="none" xmlns="http://www.w3.org/2000/svg">
<path opacity="0.5" d="M0 15C0 6.71573 6.71573 0 15 0H33C41.2843 0 48 6.71573 48 15V33C48 41.2843 41.2843 48 33 48H15C6.71573 48 0 41.2843 0 33V15Z" fill="#30473A"/>
<path d="M36 20.3913H31V12.0435C31 11.4174 30.6 11 30 11H12C11.4 11 11 11.4174 11 12.0435V30.8261C11 33.1217 12.8 35 15 35H32C32.1 35 32.2 35 32.3 34.8957C32.5 34.8957 32.7 35 33 35C35.2 35 37 33.1217 37 30.8261V21.4348C37 20.8087 36.6 20.3913 36 20.3913ZM18 22.4783H16C15.4 22.4783 15 22.0609 15 21.4348C15 20.8087 15.4 20.3913 16 20.3913H18C18.6 20.3913 19 20.8087 19 21.4348C19 22.0609 18.6 22.4783 18 22.4783ZM22 18.3043H16C15.4 18.3043 15 17.887 15 17.2609C15 16.6348 15.4 16.2174 16 16.2174H22C22.6 16.2174 23 16.6348 23 17.2609C23 17.887 22.6 18.3043 22 18.3043ZM35 30.8261C35 31.9739 34.1 32.913 33 32.913C32.8 32.913 32.6 32.913 32.4 32.8087C31.8 32.6 31.4 32.0783 31.2 31.5565V31.4522C31 31.2435 31 31.0348 31 30.8261V22.4783H35V30.8261Z" fill="#65DA01"/>
</svg>
