<svg width="65" height="63" viewBox="0 0 65 63" fill="none" xmlns="http://www.w3.org/2000/svg">
<rect opacity="0.5" width="65" height="62.7391" rx="14.1304" fill="#1D2D24"/>
<path fill-rule="evenodd" clip-rule="evenodd" d="M14.5972 12.4388L14.1584 12.8775V18.7305V24.5833L14.5497 24.9746C15.0038 25.4286 15.8254 25.5037 16.3465 25.1389C16.8859 24.7611 16.9774 24.0074 16.9781 19.9322C16.9793 14.5327 16.6702 14.8295 22.2938 14.8295C24.725 14.8295 26.3124 14.769 26.6108 14.6651C27.4941 14.3572 27.7824 13.223 27.161 12.5005L26.8029 12.0841L20.9196 12.0421L15.0362 12L14.5972 12.4388ZM39.5877 12.1742C38.6137 12.4557 38.3134 13.7075 39.0445 14.4383L39.436 14.8295H43.4286C47.7483 14.8295 48.0423 14.8742 48.748 15.6381L49.1192 16.04L49.1934 20.2947C49.2727 24.8421 49.302 25.0165 50.0459 25.3553C50.5983 25.6068 51.0735 25.5427 51.5232 25.1561L51.9398 24.7982L51.9818 18.9497C52.0229 13.2201 52.0174 13.0931 51.7152 12.709C51.5455 12.4934 51.1592 12.2483 50.8568 12.1643C50.1672 11.9728 40.2541 11.9816 39.5877 12.1742ZM30.3398 18.0886C27.5959 18.6762 25.7131 19.7197 23.6594 21.7913C20.4666 25.012 19.177 29.2706 20.0829 33.6019C20.6715 36.4171 21.6995 38.2891 23.7905 40.3541C27.0246 43.5476 31.2785 44.8345 35.6099 43.9293C38.1954 43.3891 40.1976 42.3446 42.0635 40.5626C43.9003 38.8084 45.0912 36.8223 45.8116 34.3126C46.2825 32.6716 46.2776 29.3978 45.8015 27.666C45.128 25.2152 43.8728 23.1507 41.9811 21.3813C38.8146 18.4197 34.4966 17.1984 30.3398 18.0886ZM30.7062 25.9965C30.6679 26.0986 29.8688 28.4395 28.9302 31.1986L27.2238 36.2151L27.9282 36.17L28.6326 36.1247L29.1446 34.5294L29.6565 32.9342H31.5249H33.3932L33.9169 34.5294L34.4407 36.1247L35.1366 36.17C35.5193 36.1948 35.8326 36.167 35.8326 36.1081C35.8326 36.0492 35.0553 33.7082 34.1052 30.906L32.3778 25.811H31.5769C31.0721 25.811 30.7501 25.8796 30.7062 25.9965ZM37.4656 31.005V36.1989H38.1336H38.8016V31.005V25.811H38.1336H37.4656V31.005ZM31.379 27.3784C31.379 27.5059 31.0784 28.5297 30.7109 29.6535C30.3435 30.7773 30.0429 31.7415 30.0429 31.7961C30.0429 31.8507 30.7109 31.8954 31.5274 31.8954C32.3439 31.8954 33.012 31.854 33.012 31.8034C33.012 31.7526 32.7113 30.7779 32.3439 29.6373C31.9765 28.4967 31.6759 27.4697 31.6759 27.355C31.6759 27.2404 31.6091 27.1466 31.5274 27.1466C31.4458 27.1466 31.379 27.2509 31.379 27.3784ZM14.5007 36.8538L14.0842 37.2117L14.0422 43.0929L14 48.9741L14.439 49.4129L14.8778 49.8516H20.7315H26.5851L26.9779 49.4877C27.5147 48.9904 27.5283 48.0664 27.0063 47.5447L26.642 47.1804H22.6222C18.2735 47.1804 17.9823 47.1363 17.2759 46.3718L16.9048 45.9699L16.8306 41.7152C16.7513 37.1697 16.7082 36.908 15.9954 36.637C15.392 36.4077 14.944 36.4727 14.5007 36.8538ZM49.5847 37.0353L49.1934 37.4266L49.1931 41.4502C49.1929 45.9468 49.1465 46.1911 48.1693 46.8436C47.676 47.173 47.5769 47.1804 43.6415 47.181C39.9153 47.1815 39.5831 47.2028 39.1437 47.4707C38.2289 48.0284 38.3943 49.4805 39.4131 49.8356C39.7252 49.9442 41.7168 50 45.2889 50C51.0415 50 51.3379 49.9662 51.7126 49.2662C51.81 49.0844 51.8655 46.8821 51.8655 43.2036V37.4266L51.4742 37.0353C51.1913 36.7526 50.9294 36.6441 50.5295 36.6441C50.1295 36.6441 49.8676 36.7526 49.5847 37.0353Z" fill="url(#paint0_linear_5555_29529)"/>
<defs>
<linearGradient id="paint0_linear_5555_29529" x1="37.2582" y1="57.795" x2="33.0983" y2="14.8047" gradientUnits="userSpaceOnUse">
<stop stop-color="#142A01"/>
<stop offset="0.460655" stop-color="#65DA00"/>
<stop offset="1" stop-color="#65DA00"/>
</linearGradient>
</defs>
</svg>
