<svg width="65" height="63" viewBox="0 0 65 63" fill="none" xmlns="http://www.w3.org/2000/svg">
<rect opacity="0.5" width="65" height="62.7391" rx="14.1304" fill="#1D2D24"/>
<path d="M24.5527 38.5693V41.792H20.7051L19.7627 43.0371C19.334 43.6034 19.1036 43.9324 18.9941 44.1816C18.9406 44.3037 18.9174 44.404 18.9141 44.502C18.9108 44.6008 18.9268 44.7021 18.959 44.8271C19.0442 45.1583 19.1067 45.9155 19.1006 46.5127C19.0865 47.838 18.4706 48.9152 17.3193 49.6309C16.7861 49.9624 16.0424 50.125 15.3057 50.125C14.5688 50.125 13.8244 49.9625 13.291 49.6309C11.5809 48.5673 10.9187 46.2519 11.8408 44.5322C12.5189 43.2679 13.5965 42.5759 15.0898 42.4404L16.2393 42.3359L17.375 40.8193C17.6938 40.3929 18.0265 39.967 18.3057 39.625C18.5827 39.2856 18.8124 39.0222 18.9229 38.9248L18.9912 38.8691C19.1573 38.7464 19.3671 38.6739 19.7451 38.6309C20.1741 38.582 20.8328 38.5693 21.9131 38.5693H24.5527ZM43.6445 14.1328V18.3291C43.6445 19.7068 43.6171 20.7039 43.6611 21.4316C43.7053 22.1619 43.8211 22.5926 44.085 22.8564C44.3489 23.1202 44.7796 23.2361 45.5098 23.2803C46.2374 23.3243 47.234 23.2969 48.6113 23.2969H52.8086V35.3701C52.8086 39.9051 52.7944 42.9174 52.7588 44.8174C52.741 45.7667 52.7182 46.4397 52.6885 46.8867C52.6736 47.11 52.6564 47.2791 52.6377 47.3984C52.6284 47.4579 52.6188 47.5073 52.6074 47.5459C52.5972 47.5803 52.5817 47.6205 52.5547 47.6475C52.542 47.6601 52.5278 47.6676 52.5186 47.6719C52.5082 47.6766 52.497 47.6804 52.4863 47.6836C52.4648 47.6899 52.438 47.6961 52.4082 47.7012C52.3483 47.7114 52.2666 47.7204 52.166 47.7295C51.9639 47.7478 51.6784 47.7647 51.3223 47.7803C50.6095 47.8114 49.6095 47.8377 48.4189 47.8584C46.0374 47.8998 42.8894 47.9209 39.7422 47.9209C36.5952 47.9209 33.4478 47.8998 31.0664 47.8584C29.8758 47.8377 28.8758 47.8114 28.1631 47.7803C27.807 47.7647 27.5215 47.7478 27.3193 47.7295C27.2187 47.7204 27.1371 47.7114 27.0771 47.7012C27.0473 47.6961 27.0205 47.6899 26.999 47.6836C26.9883 47.6804 26.9772 47.6766 26.9668 47.6719C26.9576 47.6676 26.9434 47.6601 26.9307 47.6475C26.9157 47.6325 26.908 47.6147 26.9043 47.6055C26.8998 47.5941 26.8956 47.5816 26.8926 47.5693C26.8866 47.5447 26.881 47.5132 26.876 47.4766C26.8659 47.4027 26.8568 47.2996 26.8477 47.1709C26.8294 46.9131 26.8124 46.5455 26.7969 46.085C26.7657 45.1636 26.7395 43.8658 26.7188 42.3174C26.6772 39.2201 26.6562 35.1182 26.6562 31.0166C26.6563 26.9151 26.6772 22.8131 26.7188 19.7158C26.7395 18.1674 26.7657 16.8696 26.7969 15.9482C26.8124 15.4877 26.8294 15.1201 26.8477 14.8623C26.8568 14.734 26.8659 14.6314 26.876 14.5576C26.881 14.5209 26.8866 14.4886 26.8926 14.4639C26.8956 14.4517 26.8999 14.439 26.9043 14.4277C26.908 14.4184 26.9158 14.4006 26.9307 14.3857L26.9707 14.3564C26.9853 14.3483 27.0007 14.3415 27.0156 14.3359C27.0474 14.3241 27.0866 14.3141 27.1318 14.3047C27.2229 14.2858 27.3482 14.2688 27.5088 14.2539C27.8305 14.2242 28.3056 14.2006 28.9639 14.1826C30.2812 14.1467 32.3395 14.1328 35.3896 14.1328H43.6445ZM44.3672 38.7803C42.8749 38.7593 41.953 38.7589 41.3945 38.79C41.1146 38.8057 40.9309 38.8296 40.8145 38.8604C40.6933 38.8924 40.6709 38.9259 40.666 38.9385C40.6568 38.9628 40.6449 39.0205 40.6357 39.1143C40.6269 39.2051 40.6211 39.3217 40.6172 39.4551C40.6094 39.7216 40.6122 40.054 40.6279 40.3877L40.6816 41.5293H47.9639V38.8311L44.3672 38.7803ZM39.7852 32.6738C36.3639 32.6533 34.2948 32.6517 33.0713 32.6826C32.4594 32.6981 32.0621 32.7214 31.8135 32.7539C31.6891 32.7702 31.6059 32.7881 31.5537 32.8066C31.4967 32.8269 31.4972 32.8407 31.501 32.8311C31.4918 32.855 31.4808 32.913 31.4717 33.0068C31.4629 33.0973 31.4569 33.2128 31.4531 33.3457C31.4455 33.6119 31.4481 33.9445 31.4639 34.2783L31.5176 35.4199H47.9639V32.7227L39.7852 32.6738ZM39.7852 26.5645C36.3639 26.5439 34.2948 26.5424 33.0713 26.5732C32.4594 26.5887 32.0621 26.6121 31.8135 26.6445C31.6891 26.6608 31.6059 26.6787 31.5537 26.6973C31.4966 26.7176 31.4972 26.7315 31.501 26.7217C31.4918 26.7456 31.4808 26.8036 31.4717 26.8975C31.4629 26.9879 31.4569 27.1035 31.4531 27.2363C31.4455 27.5025 31.4481 27.8351 31.4639 28.1689L31.5176 29.3105H47.9639V26.6133L39.7852 26.5645ZM14.7471 11.9336C15.0496 11.9126 15.3809 11.9099 15.667 11.9316C16.9438 12.0287 17.9466 12.6587 18.5381 13.6113C19.1288 14.563 19.3054 15.8302 18.9453 17.1973C18.9131 17.3195 18.8958 17.4188 18.8994 17.5166C18.903 17.6136 18.9272 17.7143 18.9814 17.8369C19.0922 18.0869 19.3247 18.418 19.7549 18.9863L20.7051 20.2422H24.5527V23.4639H21.9131C21.1737 23.4639 20.6285 23.471 20.2031 23.4453C19.7765 23.4195 19.4599 23.3606 19.1797 23.2207C18.8995 23.0808 18.6629 22.8638 18.3877 22.5391C18.1133 22.2153 17.7943 21.7758 17.3535 21.1865L16.2002 19.6455H15.3271C12.7548 19.6455 10.9052 17.1484 11.5879 14.6123C11.7241 14.1063 12.0913 13.5373 12.5352 13.0625C12.9784 12.5884 13.5099 12.1951 13.9844 12.0498C14.1662 11.9941 14.4461 11.9545 14.7471 11.9336ZM35.2031 20.4531C33.7108 20.4321 32.7889 20.4307 32.2305 20.4619C31.9505 20.4776 31.7669 20.5014 31.6504 20.5322C31.5293 20.5643 31.5068 20.5977 31.502 20.6104C31.4927 20.6346 31.4818 20.6924 31.4727 20.7861C31.4638 20.877 31.457 20.9936 31.4531 21.127C31.4454 21.3934 31.4481 21.7259 31.4639 22.0596L31.5176 23.2012H38.7998V20.5029L35.2031 20.4531ZM45.9111 14.8291L48.9688 17.8818L52.0254 20.9346L52.165 21.0732L51.9678 21.0771L49.1758 21.1299C48.2273 21.1479 47.505 21.1439 46.9971 21.1162C46.7433 21.1024 46.5402 21.0829 46.3887 21.0566C46.313 21.0435 46.2482 21.0281 46.1953 21.0107C46.1438 20.9938 46.0968 20.9728 46.0625 20.9443C45.9918 20.8855 45.944 20.7887 45.9082 20.6582C45.8719 20.5258 45.8447 20.3455 45.8242 20.1055C45.7833 19.6245 45.7686 18.887 45.7686 17.7744V14.6865L45.9111 14.8291ZM24.5527 32.6279H17.3447L17.0264 33.167C16.9265 33.3358 16.7469 33.5452 16.541 33.7461C16.3342 33.9479 16.0954 34.1462 15.875 34.292C15.3215 34.6581 14.5714 34.8454 13.8252 34.8574C13.0788 34.8694 12.3244 34.706 11.7637 34.3574C10.286 33.4385 9.59438 31.6158 10.0605 29.8848C10.1969 29.3787 10.5641 28.8105 11.0078 28.3359C11.4513 27.8617 11.9836 27.4686 12.458 27.3242C13.2503 27.0832 14.14 27.1177 14.9375 27.3662C15.7346 27.6146 16.4472 28.0788 16.8799 28.7051L17.3535 29.3916L20.8896 29.3984L24.4697 29.4053L24.5527 29.4062V32.6279Z" fill="url(#paint0_linear_156_978)" stroke="#65DA00" stroke-width="0.167396"/>
<defs>
<linearGradient id="paint0_linear_156_978" x1="36.1501" y1="57.8446" x2="32.4352" y2="14.7249" gradientUnits="userSpaceOnUse">
<stop stop-color="#142A01"/>
<stop offset="0.460655" stop-color="#65DA00"/>
<stop offset="1" stop-color="#65DA00"/>
</linearGradient>
</defs>
</svg>
