<svg width="48" height="48" viewBox="0 0 48 48" fill="none" xmlns="http://www.w3.org/2000/svg">
<path opacity="0.5" d="M0 15C0 6.71573 6.71573 0 15 0H33C41.2843 0 48 6.71573 48 15V33C48 41.2843 41.2843 48 33 48H15C6.71573 48 0 41.2843 0 33V15Z" fill="#30473A"/>
<path fill-rule="evenodd" clip-rule="evenodd" d="M24.0676 10H23.9324C22.7643 9.99996 21.7904 9.99994 21.0172 10.1057C20.201 10.2173 19.4642 10.4629 18.8721 11.0653C18.28 11.6677 18.0386 12.4174 17.9289 13.2477C17.8544 13.8117 17.8333 15.1602 17.8273 16.3164C15.1984 16.4038 13.62 16.716 12.523 17.832C11 19.3816 11 21.8756 11 26.8635C11 31.8513 11 34.3454 12.523 35.8949C14.0461 37.4444 16.4974 37.4444 21.4 37.4444H26.6C31.5026 37.4444 33.954 37.4444 35.4769 35.8949C37 34.3454 37 31.8513 37 26.8635C37 21.8756 37 19.3816 35.4769 17.832C34.38 16.716 32.8016 16.4038 30.1727 16.3164C30.1667 15.1602 30.1456 13.8117 30.0711 13.2477C29.9614 12.4174 29.72 11.6677 29.1278 11.0653C28.5358 10.4629 27.799 10.2173 26.9829 10.1057C26.2096 9.99994 25.2356 9.99996 24.0676 10ZM28.2223 16.285C28.2164 15.1652 28.1977 13.96 28.1385 13.5121C28.0578 12.9017 27.9185 12.6405 27.7491 12.4682C27.5797 12.2958 27.3229 12.154 26.723 12.0719C26.0951 11.9861 25.2532 11.9839 24 11.9839C22.7468 11.9839 21.9049 11.9861 21.277 12.0719C20.6771 12.154 20.4204 12.2958 20.251 12.4682C20.0815 12.6405 19.9422 12.9017 19.8615 13.5121C19.8023 13.96 19.7836 15.1652 19.7777 16.285C20.2865 16.2825 20.8265 16.2825 21.4 16.2825H26.6C27.1736 16.2825 27.7134 16.2825 28.2223 16.285ZM24 20.581C24.5385 20.581 24.975 21.0251 24.975 21.573V21.5864C26.3904 21.9492 27.575 23.0847 27.575 24.659C27.575 25.2069 27.1385 25.651 26.6 25.651C26.0615 25.651 25.625 25.2069 25.625 24.659C25.625 24.1511 25.0715 23.4467 24 23.4467C22.9285 23.4467 22.375 24.1511 22.375 24.659C22.375 25.1671 22.9285 25.8715 24 25.8715C25.8004 25.8715 27.575 27.1409 27.575 29.0679C27.575 30.6422 26.3904 31.7777 24.975 32.1405V32.1539C24.975 32.7018 24.5385 33.1459 24 33.1459C23.4615 33.1459 23.025 32.7018 23.025 32.1539V32.1405C21.6096 31.7777 20.425 30.6422 20.425 29.0679C20.425 28.52 20.8615 28.0759 21.4 28.0759C21.9385 28.0759 22.375 28.52 22.375 29.0679C22.375 29.5758 22.9285 30.2802 24 30.2802C25.0715 30.2802 25.625 29.5758 25.625 29.0679C25.625 28.5599 25.0715 27.8554 24 27.8554C22.1996 27.8554 20.425 26.5861 20.425 24.659C20.425 23.0847 21.6096 21.9492 23.025 21.5864V21.573C23.025 21.0251 23.4615 20.581 24 20.581Z" fill="#65DA01"/>
</svg>
