<svg width="257" height="166" viewBox="0 0 257 166" fill="none" xmlns="http://www.w3.org/2000/svg">
<path opacity="0.5" d="M0 15C0 6.71572 6.71573 0 15 0H242C250.284 0 257 6.71573 257 15V151C257 159.284 250.284 166 242 166H15C6.71573 166 0 159.284 0 151V15Z" fill="#1C2D23"/>
<path d="M175.332 46.3496L177.646 47.6777V47.6787L177.489 47.9502L179.802 49.2783L179.957 49.0068V49.0059L182.27 50.335V50.3359L182.113 50.6074L183.111 51.1807L183.11 52.333H183.423L183.417 55L183.104 54.999L183.099 57.666L183.412 57.667L183.406 60.333H183.094L183.088 62.999H183.4L183.396 65.667L183.083 65.666L183.077 68.333H183.39L183.385 71L183.071 70.999L183.066 73.666L183.379 73.667H183.38L183.374 76.333H183.061L183.056 78.999L183.368 79L183.363 81.667H183.362L183.05 81.666L183.047 82.999V83.001L183.05 84.334L183.362 84.333H183.363L183.368 86.999V87L183.056 87.001L183.061 89.667H183.374L183.38 92.333H183.379L183.066 92.334L183.071 95.001L183.385 95V94.999L183.39 97.666V97.667H183.077L183.083 100.334L183.396 100.333L183.4 103H183.401L183.088 103.001L183.094 105.667H183.406L183.412 108.333L183.099 108.334L183.104 111.001L183.417 111V110.999L183.423 113.667H183.11L183.111 114.818L182.113 115.393L182.27 115.664L179.957 116.993L179.802 116.722L177.489 118.05L177.646 118.321L175.332 119.649L175.178 119.379L172.865 120.707L173.021 120.978L170.708 122.307L170.553 122.036L168.241 123.364L168.396 123.636L166.084 124.964L165.929 124.693L163.616 126.021L163.772 126.293L161.459 127.621L161.305 127.351L158.992 128.679L159.147 128.949L156.835 130.278L156.681 130.008L155.524 130.672L155.523 130.673L154.37 131.342L154.526 131.612L152.22 132.95L152.063 132.68L149.757 134.018L149.913 134.288L147.606 135.626L147.449 135.355L145.143 136.694L145.299 136.964L142.992 138.302L142.836 138.032L140.529 139.37L140.687 139.641L138.38 140.979L138.223 140.708L135.916 142.046L136.073 142.316L133.766 143.654L133.609 143.384L131.303 144.723L131.459 144.992L129.152 146.33L128.996 146.061L128 146.638L127.004 146.061L126.847 146.33L124.54 144.992L124.697 144.723L122.391 143.384L122.233 143.654L119.926 142.316H119.927L120.084 142.046L117.777 140.708L117.619 140.979L115.312 139.641L115.471 139.37L113.164 138.032L113.007 138.302L110.7 136.964L110.857 136.694L108.551 135.355L108.394 135.626H108.393L106.086 134.288H106.087L106.243 134.018L103.937 132.68L103.779 132.95L101.473 131.612L101.63 131.342L100.477 130.673L100.476 130.672L99.3193 130.008L99.1641 130.278L96.8516 128.949L97.0078 128.679L94.6953 127.351L94.54 127.621L92.2266 126.293L92.3838 126.021L90.0713 124.693L89.915 124.964L87.6025 123.636H87.6035L87.7588 123.364L85.4473 122.036L85.291 122.307L82.9785 120.978L83.1348 120.707L80.8223 119.379L80.667 119.649L78.3535 118.321L78.5107 118.05L76.1982 116.722L76.042 116.993L73.7295 115.664H73.7305L73.8867 115.393L72.8877 114.818L72.8896 113.667H72.5771L72.582 110.999L72.583 111L72.8955 111.001L72.9014 108.334L72.5879 108.333L72.5938 105.667H72.9062L72.9121 103.001L72.5986 103L72.6045 100.333L72.917 100.334L72.9229 97.667H72.6104L72.6094 97.666L72.6143 94.999L72.6152 95L72.9287 95.001L72.9336 92.334L72.6211 92.333H72.6201L72.626 89.667H72.9395L72.9443 87.001L72.6318 87L72.6309 86.999L72.6367 84.333H72.6377L72.9502 84.334L72.9531 83.001V82.999L72.9502 81.666L72.6377 81.667H72.6367L72.6309 79L72.9443 78.999L72.9395 76.333H72.626L72.6201 73.667H72.6211L72.9336 73.666L72.9287 70.999L72.6143 71L72.6094 68.333H72.9229L72.917 65.666L72.6045 65.667L72.5986 62.999H72.9121L72.9062 60.333H72.5938L72.5879 57.667L72.9014 57.666L72.8955 54.999L72.583 55H72.582L72.5771 52.333H72.8896L72.8877 51.1807L73.8867 50.6074L73.7305 50.3359L73.7295 50.335L76.042 49.0059L76.043 49.0068L76.1982 49.2783L78.5107 47.9502L78.3545 47.6787L78.3535 47.6777L80.667 46.3496L80.8223 46.6211L83.1348 45.293L82.9785 45.0215L85.291 43.6924L85.4473 43.9639L87.7588 42.6357L87.6035 42.3643L87.6025 42.3633L89.915 41.0352L90.0713 41.3066L92.3838 39.9785L92.2275 39.707L92.2266 39.7061L94.54 38.3779L94.6953 38.6494L97.0078 37.3213L96.8516 37.0498L99.1641 35.7207L99.3193 35.9922L100.476 35.3281L100.477 35.3271L101.63 34.6582L101.474 34.3877L101.473 34.3867L103.779 33.0488L103.78 33.0498L103.937 33.3203L106.243 31.9824L106.087 31.7119L106.086 31.7109L108.393 30.373L108.394 30.374L108.551 30.6445L110.857 29.3057L110.7 29.0352L113.007 27.6973L113.164 27.9678L115.471 26.6299L115.313 26.3594L115.312 26.3584L117.619 25.0205L117.62 25.0215L117.777 25.292L120.084 23.9541L119.927 23.6836L119.926 23.6826L122.233 22.3447L122.391 22.6162L124.697 21.2773L124.54 21.0068L126.847 19.6689L127.004 19.9395L128 19.3613L128.996 19.9395L129.152 19.6689L131.459 21.0068H131.46L131.303 21.2773L133.609 22.6162L133.766 22.3447L136.073 23.6826V23.6836L135.916 23.9541L138.223 25.292L138.38 25.0215V25.0205L140.687 26.3584V26.3594L140.529 26.6299L142.836 27.9678L142.992 27.6973L145.299 29.0352H145.3L145.143 29.3057L147.449 30.6445L147.606 30.374V30.373L149.913 31.7109V31.7119L149.757 31.9824L152.063 33.3203L152.22 33.0498V33.0488L154.526 34.3867V34.3877L154.37 34.6582L155.523 35.3271L155.524 35.3281L156.681 35.9922L156.835 35.7207L159.147 37.0498H159.148L158.992 37.3213L161.305 38.6494L161.459 38.3779L163.772 39.7061V39.707L163.616 39.9785L165.929 41.3066L166.084 41.0352L168.396 42.3633V42.3643L168.241 42.6357L170.553 43.9639L170.708 43.6924L173.021 45.0215H173.021L172.865 45.293L175.178 46.6211L175.332 46.3496Z" stroke="#40674F" stroke-width="0.62571" stroke-dasharray="2.5 2.5"/>
<path d="M152.166 41.1333L152.17 41.1353L176.396 55.0552L176.339 82.9976V83.0024L176.396 110.944L152.17 124.865L152.166 124.867L127.996 138.887L103.827 124.867L103.823 124.865L79.5967 110.944L79.6543 83.0024V82.9976L79.5967 55.0552L103.823 41.1353L103.827 41.1333L127.996 27.1118L152.166 41.1333Z" fill="url(#paint0_linear_5555_29560)" stroke="#65DA01" stroke-width="2"/>
<circle cx="126.607" cy="52.3978" r="11.4602" fill="url(#paint1_linear_5555_29560)" stroke="#65DA00" stroke-width="0.659531"/>
<path d="M150.257 84.3975C150.257 78.1246 147.766 72.1086 143.33 67.6729C138.894 63.2373 132.878 60.7454 126.605 60.7454C120.332 60.7454 114.316 63.2373 109.881 67.6729C105.445 72.1086 102.953 78.1246 102.953 84.3975L126.605 84.3975H150.257Z" fill="url(#paint2_linear_5555_29560)"/>
<circle cx="80.6973" cy="109.438" r="4.50368" fill="url(#paint3_linear_5555_29560)" stroke="#65DA00" stroke-width="0.659531"/>
<circle cx="101.565" cy="91.3509" r="4.50368" fill="url(#paint4_linear_5555_29560)" stroke="#65DA00" stroke-width="0.659531"/>
<circle cx="129.393" cy="91.3509" r="4.50368" fill="url(#paint5_linear_5555_29560)" stroke="#65DA00" stroke-width="0.659531"/>
<circle cx="157.221" cy="89.9598" r="4.50368" fill="url(#paint6_linear_5555_29560)" stroke="#65DA00" stroke-width="0.659531"/>
<circle cx="176.697" cy="74.6554" r="4.50368" fill="url(#paint7_linear_5555_29560)" stroke="#65DA00" stroke-width="0.659531"/>
<rect x="126.609" y="99.9172" width="6.95652" height="43.1304" fill="url(#paint8_linear_5555_29560)"/>
<rect x="98.7812" y="99.9172" width="6.95652" height="43.1304" fill="url(#paint9_linear_5555_29560)"/>
<path d="M84.8672 104.568L95.9976 94.8293" stroke="white" stroke-width="2.78261"/>
<path d="M108.509 91.7208L122.435 91.3541" stroke="white" stroke-width="2.78261"/>
<path d="M136.346 91.3775L150.277 91.3314" stroke="white" stroke-width="2.78261"/>
<path d="M162.775 87.6971L172.058 79.0666" stroke="white" stroke-width="2.78261"/>
<rect x="154.438" y="99.9172" width="6.95652" height="43.1304" fill="url(#paint10_linear_5555_29560)"/>
<defs>
<linearGradient id="paint0_linear_5555_29560" x1="114.588" y1="-14.0301" x2="52.4428" y2="208.3" gradientUnits="userSpaceOnUse">
<stop stop-color="#4B9F6B"/>
<stop offset="1" stop-color="#1B3926" stop-opacity="0"/>
</linearGradient>
<linearGradient id="paint1_linear_5555_29560" x1="128.453" y1="69.8748" x2="122.956" y2="43.7186" gradientUnits="userSpaceOnUse">
<stop stop-color="#142A01"/>
<stop offset="0.460655" stop-color="#65DA00"/>
<stop offset="1" stop-color="#65DA00"/>
</linearGradient>
<linearGradient id="paint2_linear_5555_29560" x1="121" y1="108.003" x2="120.637" y2="64.2396" gradientUnits="userSpaceOnUse">
<stop offset="0.65" stop-color="#65DA00" stop-opacity="0"/>
<stop offset="1" stop-color="#65DA00"/>
</linearGradient>
<linearGradient id="paint3_linear_5555_29560" x1="81.3894" y1="115.992" x2="79.3282" y2="106.183" gradientUnits="userSpaceOnUse">
<stop stop-color="#142A01"/>
<stop offset="0.460655" stop-color="#65DA00"/>
<stop offset="1" stop-color="#65DA00"/>
</linearGradient>
<linearGradient id="paint4_linear_5555_29560" x1="102.257" y1="97.9048" x2="100.195" y2="88.0962" gradientUnits="userSpaceOnUse">
<stop stop-color="#142A01"/>
<stop offset="0.460655" stop-color="#65DA00"/>
<stop offset="1" stop-color="#65DA00"/>
</linearGradient>
<linearGradient id="paint5_linear_5555_29560" x1="130.085" y1="97.9048" x2="128.023" y2="88.0962" gradientUnits="userSpaceOnUse">
<stop stop-color="#142A01"/>
<stop offset="0.460655" stop-color="#65DA00"/>
<stop offset="1" stop-color="#65DA00"/>
</linearGradient>
<linearGradient id="paint6_linear_5555_29560" x1="157.913" y1="96.5137" x2="155.852" y2="86.7051" gradientUnits="userSpaceOnUse">
<stop stop-color="#142A01"/>
<stop offset="0.460655" stop-color="#65DA00"/>
<stop offset="1" stop-color="#65DA00"/>
</linearGradient>
<linearGradient id="paint7_linear_5555_29560" x1="177.389" y1="81.2092" x2="175.328" y2="71.4007" gradientUnits="userSpaceOnUse">
<stop stop-color="#142A01"/>
<stop offset="0.460655" stop-color="#65DA00"/>
<stop offset="1" stop-color="#65DA00"/>
</linearGradient>
<linearGradient id="paint8_linear_5555_29560" x1="130.088" y1="99.9172" x2="130.088" y2="143.048" gradientUnits="userSpaceOnUse">
<stop stop-color="#4B9E6B"/>
<stop offset="1" stop-color="#4C9E6B" stop-opacity="0"/>
</linearGradient>
<linearGradient id="paint9_linear_5555_29560" x1="102.26" y1="99.9172" x2="102.26" y2="143.048" gradientUnits="userSpaceOnUse">
<stop stop-color="#4B9E6B"/>
<stop offset="1" stop-color="#4C9E6B" stop-opacity="0"/>
</linearGradient>
<linearGradient id="paint10_linear_5555_29560" x1="157.916" y1="99.9172" x2="157.916" y2="143.048" gradientUnits="userSpaceOnUse">
<stop stop-color="#4B9E6B"/>
<stop offset="1" stop-color="#4C9E6B" stop-opacity="0"/>
</linearGradient>
</defs>
</svg>
