<svg width="257" height="166" viewBox="0 0 257 166" fill="none" xmlns="http://www.w3.org/2000/svg">
<path opacity="0.5" d="M0 15C0 6.71572 6.71573 0 15 0H242C250.284 0 257 6.71573 257 15V151C257 159.284 250.284 166 242 166H15C6.71573 166 0 159.284 0 151V15Z" fill="#1C2D23"/>
<path d="M128.506 20.2812C136.213 20.2812 143.522 26.8882 148.97 38.3428C154.378 49.7141 157.754 65.5016 157.754 83C157.754 100.498 154.378 116.286 148.97 127.657C143.522 139.112 136.213 145.719 128.506 145.719C120.799 145.719 113.491 139.111 108.043 127.657C102.635 116.286 99.2588 100.498 99.2588 83C99.2588 65.5016 102.635 49.7141 108.043 38.3428C113.491 26.8885 120.799 20.2814 128.506 20.2812Z" fill="url(#paint0_linear_5555_29629)" stroke="#65DA01" stroke-width="2.22028"/>
<path d="M183.007 114.039C179.193 120.736 169.835 123.819 157.186 122.886C144.628 121.959 129.238 117.081 114.032 108.423C98.8254 99.7649 86.7762 89.0197 79.5704 78.6933C72.3119 68.2915 70.1869 58.6705 74.0001 51.9733C77.8134 45.2763 87.1713 42.1943 99.8207 43.1276C112.378 44.0542 127.768 48.9321 142.975 57.5902C158.181 66.2482 170.23 76.9935 177.436 87.3198C184.694 97.7216 186.82 107.342 183.007 114.039Z" stroke="#65DA01" stroke-width="2.22028"/>
<path d="M74.5711 115.012C70.6379 108.385 72.5893 98.7271 79.6594 88.1962C86.6782 77.7418 98.532 66.7814 113.58 57.8509C128.628 48.9206 143.927 43.7663 156.467 42.6139C169.097 41.453 178.509 44.3667 182.443 50.9942C186.376 57.6216 184.424 67.2787 177.354 77.8093C170.335 88.2637 158.481 99.2241 143.433 108.155C128.385 117.085 113.086 122.239 100.547 123.392C87.9161 124.552 78.5043 121.639 74.5711 115.012Z" stroke="#65DA01" stroke-width="2.22028"/>
<path d="M64.7432 81.6404C64.8269 80.7376 64.9942 79.8452 65.2402 78.9646L65.5742 79.0574C65.8098 78.2142 66.1197 77.3809 66.502 76.5593L66.1875 76.4128C66.563 75.6057 67.006 74.8106 67.5137 74.0291L67.8047 74.2175C68.2783 73.4885 68.8095 72.7701 69.3965 72.0642L69.1299 71.8435C69.6973 71.1611 70.3152 70.4909 70.9814 69.8337L70.9814 69.8328L71.2256 70.0798C71.8472 69.4667 72.5117 68.8643 73.2178 68.2742L72.9961 68.0095C73.6772 67.4403 74.3967 66.8841 75.1514 66.3386L75.3535 66.6169C76.0693 66.0996 76.8182 65.5933 77.5986 65.0984L77.4131 64.8054C78.1632 64.3297 78.9428 63.8663 79.749 63.4128L79.9189 63.7126C80.6906 63.2786 81.4878 62.8549 82.3096 62.4421L82.1543 62.1335C82.9522 61.7328 83.7728 61.3423 84.6152 60.9626L84.7588 61.2771C85.5702 60.9114 86.4024 60.5559 87.2539 60.2107L87.124 59.8914C87.9543 59.5547 88.8028 59.2282 89.6689 58.9119L89.7881 59.2351C90.6268 58.9288 91.4822 58.632 92.3535 58.3455L92.2461 58.0193C93.0985 57.7389 93.9658 57.4676 94.8477 57.2068L94.9463 57.5369C95.8045 57.283 96.6764 57.0382 97.5615 56.8035L97.4727 56.4705C98.3416 56.24 99.2229 56.0187 100.116 55.8074L100.196 56.1433C101.069 55.9368 101.954 55.7392 102.849 55.5515L102.777 55.2146C103.658 55.0298 104.55 54.8534 105.451 54.6873L105.515 55.0261C106.398 54.8633 107.291 54.7095 108.192 54.5652L108.138 54.2244C109.028 54.0818 109.927 53.9481 110.835 53.824L110.882 54.1667C111.773 54.0448 112.673 53.9316 113.58 53.8279L113.541 53.4851C114.438 53.3826 115.343 53.2901 116.254 53.2058L116.286 53.5486C117.183 53.4656 118.088 53.3918 118.998 53.3269L118.974 52.9822C119.875 52.918 120.782 52.8622 121.694 52.8162L121.712 53.1619C122.611 53.1165 123.517 53.0799 124.427 53.0525L124.416 52.7078C125.319 52.6806 126.228 52.6622 127.141 52.6531L127.145 52.9978C127.598 52.9933 128.053 52.991 128.509 52.991C128.965 52.991 129.419 52.9933 129.873 52.9978L129.876 52.6531C130.789 52.6622 131.697 52.6806 132.601 52.7078L132.591 53.0525C133.501 53.0799 134.406 53.1165 135.306 53.1619L135.322 52.8162C136.235 52.8622 137.142 52.918 138.043 52.9822L138.019 53.3269C138.929 53.3918 139.834 53.4656 140.731 53.5486L140.763 53.2058C141.674 53.2901 142.579 53.3826 143.476 53.4851L143.437 53.8279C144.345 53.9315 145.244 54.0448 146.136 54.1667L146.182 53.824C147.089 53.9481 147.988 54.0818 148.879 54.2244L148.824 54.5652C149.726 54.7096 150.62 54.8633 151.503 55.0261L151.565 54.6873C152.467 54.8534 153.358 55.0298 154.239 55.2146L154.169 55.5515C155.064 55.7392 155.948 55.9369 156.82 56.1433L156.899 55.8074C157.793 56.0188 158.675 56.24 159.544 56.4705L159.456 56.8035C160.341 57.0381 161.213 57.283 162.071 57.5369L162.169 57.2068C163.051 57.4676 163.918 57.7389 164.771 58.0193L164.664 58.3455C165.535 58.6321 166.391 58.9288 167.229 59.2351L167.348 58.9119C168.214 59.2282 169.062 59.5548 169.893 59.8914L169.764 60.2107C170.615 60.5559 171.447 60.9114 172.259 61.2771L172.4 60.9617C173.243 61.3415 174.064 61.7326 174.862 62.1335L174.708 62.4421C175.53 62.8549 176.327 63.2786 177.099 63.7126L177.267 63.4128C178.073 63.8664 178.853 64.3296 179.604 64.8054L179.419 65.0984C180.199 65.5933 180.948 66.0997 181.664 66.6169L181.865 66.3386C182.62 66.8841 183.339 67.4403 184.021 68.0095L183.799 68.2742C184.505 68.8643 185.17 69.4667 185.792 70.0798L186.034 69.8337C186.701 70.491 187.319 71.1609 187.887 71.8435L187.62 72.0642C188.207 72.77 188.738 73.4886 189.212 74.2175L189.502 74.029C190.01 74.811 190.453 75.6062 190.829 76.4138L190.515 76.5593C190.897 77.381 191.208 78.214 191.443 79.0574L191.776 78.9646C192.022 79.8453 192.19 80.7375 192.273 81.6404L191.929 81.6716C191.97 82.1125 191.99 82.5561 191.99 83.0017C191.99 83.4474 191.97 83.8909 191.929 84.3318L192.272 84.364C192.189 85.2665 192.022 86.1585 191.776 87.0388L191.443 86.9451C191.208 87.7885 190.897 88.6223 190.515 89.4441L190.829 89.5906C190.454 90.3977 190.011 91.1928 189.503 91.9744L189.212 91.7849C188.738 92.5139 188.207 93.2323 187.62 93.9382L187.887 94.1599C187.319 94.8427 186.701 95.5132 186.034 96.1706L185.792 95.9236C185.17 96.5367 184.505 97.1382 183.799 97.7283L184.021 97.9939C183.339 98.5634 182.619 99.1201 181.864 99.6658L181.664 99.3865C180.948 99.9038 180.199 100.41 179.419 100.905L179.604 101.198C178.853 101.674 178.073 102.137 177.267 102.591L177.099 102.29C176.327 102.724 175.53 103.148 174.708 103.56L174.862 103.87C174.064 104.271 173.243 104.662 172.4 105.042L172.259 104.725C171.447 105.091 170.615 105.446 169.764 105.792L169.894 106.112C169.063 106.449 168.214 106.775 167.348 107.092L167.229 106.767C166.391 107.074 165.535 107.37 164.664 107.657L164.771 107.985C163.919 108.266 163.051 108.537 162.169 108.798L162.071 108.467C161.213 108.72 160.341 108.964 159.456 109.199L159.544 109.533C158.675 109.763 157.793 109.985 156.899 110.196L156.82 109.86C155.948 110.067 155.064 110.263 154.169 110.451L154.239 110.79C153.358 110.975 152.467 111.151 151.565 111.317L151.503 110.976C150.62 111.139 149.726 111.293 148.824 111.437L148.879 111.78C147.988 111.923 147.089 112.055 146.182 112.179L146.136 111.837C145.244 111.959 144.345 112.071 143.437 112.175L143.476 112.518C142.578 112.621 141.673 112.713 140.762 112.798L140.731 112.455C139.834 112.538 138.929 112.612 138.019 112.677L138.043 113.022C137.142 113.086 136.235 113.141 135.322 113.187L135.306 112.842C134.406 112.887 133.501 112.924 132.591 112.951L132.601 113.296C131.697 113.323 130.789 113.342 129.876 113.351L129.873 113.005L128.509 113.011C128.053 113.011 127.598 113.009 127.145 113.005L127.141 113.351C126.228 113.342 125.319 113.323 124.416 113.296L124.427 112.951C123.517 112.924 122.611 112.887 121.712 112.842L121.694 113.187C121.255 113.165 120.816 113.141 120.379 113.115L118.974 113.022L118.998 112.677C118.088 112.612 117.183 112.538 116.286 112.455L116.254 112.798C115.343 112.713 114.438 112.621 113.541 112.518L113.58 112.175C112.673 112.071 111.773 111.959 110.882 111.837L110.835 112.179C110.397 112.12 109.962 112.058 109.528 111.994L108.138 111.78L108.192 111.437C107.291 111.293 106.398 111.139 105.515 110.976L105.451 111.317C104.55 111.151 103.658 110.975 102.777 110.79L102.849 110.451C101.954 110.263 101.069 110.067 100.196 109.86L100.116 110.196C99.2229 109.985 98.3416 109.763 97.4727 109.533L97.5615 109.199C96.6765 108.964 95.8045 108.72 94.9463 108.467L94.8477 108.798C93.9655 108.537 93.0978 108.266 92.2451 107.985L92.3535 107.657C91.4821 107.37 90.626 107.074 89.7871 106.767L89.668 107.092C88.8018 106.775 87.9533 106.449 87.123 106.112L87.2539 105.792C86.4023 105.446 85.5703 105.091 84.7588 104.725L84.6152 105.041C83.7728 104.661 82.9522 104.271 82.1543 103.87L82.3096 103.56C81.4878 103.148 80.6906 102.724 79.9189 102.29L79.749 102.591C78.9428 102.137 78.1632 101.674 77.4131 101.198L77.5986 100.905C76.8182 100.41 76.0693 99.9038 75.3535 99.3865L75.1523 99.6658C74.3973 99.1201 73.6775 98.5634 72.9961 97.9939L73.2178 97.7283C72.5118 97.1383 71.8471 96.5366 71.2256 95.9236L70.9814 96.1707C70.315 95.5134 69.6974 94.8425 69.1299 94.1599L69.3965 93.9382C68.8096 93.2324 68.2782 92.5138 67.8047 91.7849L67.5137 91.9744C67.006 91.1928 66.5631 90.3977 66.1875 89.5906L66.502 89.4441C66.1196 88.6224 65.8099 87.7885 65.5742 86.9451L65.2402 87.0388C64.9943 86.1585 64.828 85.2665 64.7441 84.364L65.0889 84.3318C65.0479 83.8909 65.0274 83.4474 65.0273 83.0017C65.0273 82.5561 65.0479 82.1125 65.0889 81.6716L64.7432 81.6404Z" stroke="#40674F" stroke-width="0.694625" stroke-dasharray="2.78 2.78"/>
<path d="M64.7432 81.6404C64.8269 80.7376 64.9942 79.8452 65.2402 78.9646L65.5742 79.0574C65.8098 78.2142 66.1197 77.3809 66.502 76.5593L66.1875 76.4128C66.563 75.6057 67.006 74.8106 67.5137 74.0291L67.8047 74.2175C68.2783 73.4885 68.8095 72.7701 69.3965 72.0642L69.1299 71.8435C69.6973 71.1611 70.3152 70.4909 70.9814 69.8337L70.9814 69.8328L71.2256 70.0798C71.8472 69.4667 72.5117 68.8643 73.2178 68.2742L72.9961 68.0095C73.6772 67.4403 74.3967 66.8841 75.1514 66.3386L75.3535 66.6169C76.0693 66.0996 76.8182 65.5933 77.5986 65.0984L77.4131 64.8054C78.1632 64.3297 78.9428 63.8663 79.749 63.4128L79.9189 63.7126C80.6906 63.2786 81.4878 62.8549 82.3096 62.4421L82.1543 62.1335C82.9522 61.7328 83.7728 61.3423 84.6152 60.9626L84.7588 61.2771C85.5702 60.9114 86.4024 60.5559 87.2539 60.2107L87.124 59.8914C87.9543 59.5547 88.8028 59.2282 89.6689 58.9119L89.7881 59.2351C90.6268 58.9288 91.4822 58.632 92.3535 58.3455L92.2461 58.0193C93.0985 57.7389 93.9658 57.4676 94.8477 57.2068L94.9463 57.5369C95.8045 57.283 96.6764 57.0382 97.5615 56.8035L97.4727 56.4705C98.3416 56.24 99.2229 56.0187 100.116 55.8074L100.196 56.1433C101.069 55.9368 101.954 55.7392 102.849 55.5515L102.777 55.2146C103.658 55.0298 104.55 54.8534 105.451 54.6873L105.515 55.0261C106.398 54.8633 107.291 54.7095 108.192 54.5652L108.138 54.2244C109.028 54.0818 109.927 53.9481 110.835 53.824L110.882 54.1667C111.773 54.0448 112.673 53.9316 113.58 53.8279L113.541 53.4851C114.438 53.3826 115.343 53.2901 116.254 53.2058L116.286 53.5486C117.183 53.4656 118.088 53.3918 118.998 53.3269L118.974 52.9822C119.875 52.918 120.782 52.8622 121.694 52.8162L121.712 53.1619C122.611 53.1165 123.517 53.0799 124.427 53.0525L124.416 52.7078C125.319 52.6806 126.228 52.6622 127.141 52.6531L127.145 52.9978C127.598 52.9933 128.053 52.991 128.509 52.991C128.965 52.991 129.419 52.9933 129.873 52.9978L129.876 52.6531C130.789 52.6622 131.697 52.6806 132.601 52.7078L132.591 53.0525C133.501 53.0799 134.406 53.1165 135.306 53.1619L135.322 52.8162C136.235 52.8622 137.142 52.918 138.043 52.9822L138.019 53.3269C138.929 53.3918 139.834 53.4656 140.731 53.5486L140.763 53.2058C141.674 53.2901 142.579 53.3826 143.476 53.4851L143.437 53.8279C144.345 53.9315 145.244 54.0448 146.136 54.1667L146.182 53.824C147.089 53.9481 147.988 54.0818 148.879 54.2244L148.824 54.5652C149.726 54.7096 150.62 54.8633 151.503 55.0261L151.565 54.6873C152.467 54.8534 153.358 55.0298 154.239 55.2146L154.169 55.5515C155.064 55.7392 155.948 55.9369 156.82 56.1433L156.899 55.8074C157.793 56.0188 158.675 56.24 159.544 56.4705L159.456 56.8035C160.341 57.0381 161.213 57.283 162.071 57.5369L162.169 57.2068C163.051 57.4676 163.918 57.7389 164.771 58.0193L164.664 58.3455C165.535 58.6321 166.391 58.9288 167.229 59.2351L167.348 58.9119C168.214 59.2282 169.062 59.5548 169.893 59.8914L169.764 60.2107C170.615 60.5559 171.447 60.9114 172.259 61.2771L172.4 60.9617C173.243 61.3415 174.064 61.7326 174.862 62.1335L174.708 62.4421C175.53 62.8549 176.327 63.2786 177.099 63.7126L177.267 63.4128C178.073 63.8664 178.853 64.3296 179.604 64.8054L179.419 65.0984C180.199 65.5933 180.948 66.0997 181.664 66.6169L181.865 66.3386C182.62 66.8841 183.339 67.4403 184.021 68.0095L183.799 68.2742C184.505 68.8643 185.17 69.4667 185.792 70.0798L186.034 69.8337C186.701 70.491 187.319 71.1609 187.887 71.8435L187.62 72.0642C188.207 72.77 188.738 73.4886 189.212 74.2175L189.502 74.029C190.01 74.811 190.453 75.6062 190.829 76.4138L190.515 76.5593C190.897 77.381 191.208 78.214 191.443 79.0574L191.776 78.9646C192.022 79.8453 192.19 80.7375 192.273 81.6404L191.929 81.6716C191.97 82.1125 191.99 82.5561 191.99 83.0017C191.99 83.4474 191.97 83.8909 191.929 84.3318L192.272 84.364C192.189 85.2665 192.022 86.1585 191.776 87.0388L191.443 86.9451C191.208 87.7885 190.897 88.6223 190.515 89.4441L190.829 89.5906C190.454 90.3977 190.011 91.1928 189.503 91.9744L189.212 91.7849C188.738 92.5139 188.207 93.2323 187.62 93.9382L187.887 94.1599C187.319 94.8427 186.701 95.5132 186.034 96.1706L185.792 95.9236C185.17 96.5367 184.505 97.1382 183.799 97.7283L184.021 97.9939C183.339 98.5634 182.619 99.1201 181.864 99.6658L181.664 99.3865C180.948 99.9038 180.199 100.41 179.419 100.905L179.604 101.198C178.853 101.674 178.073 102.137 177.267 102.591L177.099 102.29C176.327 102.724 175.53 103.148 174.708 103.56L174.862 103.87C174.064 104.271 173.243 104.662 172.4 105.042L172.259 104.725C171.447 105.091 170.615 105.446 169.764 105.792L169.894 106.112C169.063 106.449 168.214 106.775 167.348 107.092L167.229 106.767C166.391 107.074 165.535 107.37 164.664 107.657L164.771 107.985C163.919 108.266 163.051 108.537 162.169 108.798L162.071 108.467C161.213 108.72 160.341 108.964 159.456 109.199L159.544 109.533C158.675 109.763 157.793 109.985 156.899 110.196L156.82 109.86C155.948 110.067 155.064 110.263 154.169 110.451L154.239 110.79C153.358 110.975 152.467 111.151 151.565 111.317L151.503 110.976C150.62 111.139 149.726 111.293 148.824 111.437L148.879 111.78C147.988 111.923 147.089 112.055 146.182 112.179L146.136 111.837C145.244 111.959 144.345 112.071 143.437 112.175L143.476 112.518C142.578 112.621 141.673 112.713 140.762 112.798L140.731 112.455C139.834 112.538 138.929 112.612 138.019 112.677L138.043 113.022C137.142 113.086 136.235 113.141 135.322 113.187L135.306 112.842C134.406 112.887 133.501 112.924 132.591 112.951L132.601 113.296C131.697 113.323 130.789 113.342 129.876 113.351L129.873 113.005L128.509 113.011C128.053 113.011 127.598 113.009 127.145 113.005L127.141 113.351C126.228 113.342 125.319 113.323 124.416 113.296L124.427 112.951C123.517 112.924 122.611 112.887 121.712 112.842L121.694 113.187C121.255 113.165 120.816 113.141 120.379 113.115L118.974 113.022L118.998 112.677C118.088 112.612 117.183 112.538 116.286 112.455L116.254 112.798C115.343 112.713 114.438 112.621 113.541 112.518L113.58 112.175C112.673 112.071 111.773 111.959 110.882 111.837L110.835 112.179C110.397 112.12 109.962 112.058 109.528 111.994L108.138 111.78L108.192 111.437C107.291 111.293 106.398 111.139 105.515 110.976L105.451 111.317C104.55 111.151 103.658 110.975 102.777 110.79L102.849 110.451C101.954 110.263 101.069 110.067 100.196 109.86L100.116 110.196C99.2229 109.985 98.3416 109.763 97.4727 109.533L97.5615 109.199C96.6765 108.964 95.8045 108.72 94.9463 108.467L94.8477 108.798C93.9655 108.537 93.0978 108.266 92.2451 107.985L92.3535 107.657C91.4821 107.37 90.626 107.074 89.7871 106.767L89.668 107.092C88.8018 106.775 87.9533 106.449 87.123 106.112L87.2539 105.792C86.4023 105.446 85.5703 105.091 84.7588 104.725L84.6152 105.041C83.7728 104.661 82.9522 104.271 82.1543 103.87L82.3096 103.56C81.4878 103.148 80.6906 102.724 79.9189 102.29L79.749 102.591C78.9428 102.137 78.1632 101.674 77.4131 101.198L77.5986 100.905C76.8182 100.41 76.0693 99.9038 75.3535 99.3865L75.1523 99.6658C74.3973 99.1201 73.6775 98.5634 72.9961 97.9939L73.2178 97.7283C72.5118 97.1383 71.8471 96.5366 71.2256 95.9236L70.9814 96.1707C70.315 95.5134 69.6974 94.8425 69.1299 94.1599L69.3965 93.9382C68.8096 93.2324 68.2782 92.5138 67.8047 91.7849L67.5137 91.9744C67.006 91.1928 66.5631 90.3977 66.1875 89.5906L66.502 89.4441C66.1196 88.6224 65.8099 87.7885 65.5742 86.9451L65.2402 87.0388C64.9943 86.1585 64.828 85.2665 64.7441 84.364L65.0889 84.3318C65.0479 83.8909 65.0274 83.4474 65.0273 83.0017C65.0273 82.5561 65.0479 82.1125 65.0889 81.6716L64.7432 81.6404Z" stroke="#40674F" stroke-width="0.694625" stroke-dasharray="2.78 2.78"/>
<circle cx="127.722" cy="84.5608" r="14.6807" fill="url(#paint1_linear_5555_29629)" stroke="#65DA00" stroke-width="1.3389"/>
<circle cx="71.6882" cy="115.701" r="6.22722" fill="white"/>
<circle cx="182.212" cy="48.7543" r="6.22722" fill="white"/>
<circle cx="179.171" cy="37.8827" r="3.17864" fill="white"/>
<circle cx="194.413" cy="48.4377" r="3.17864" fill="white"/>
<defs>
<linearGradient id="paint0_linear_5555_29629" x1="121.37" y1="-25.5723" x2="4.20751" y2="173.784" gradientUnits="userSpaceOnUse">
<stop stop-color="#4B9F6B"/>
<stop offset="1" stop-color="#1B3926" stop-opacity="0"/>
</linearGradient>
<linearGradient id="paint1_linear_5555_29629" x1="130.045" y1="106.561" x2="123.126" y2="73.6352" gradientUnits="userSpaceOnUse">
<stop stop-color="#142A01"/>
<stop offset="0.460655" stop-color="#65DA00"/>
<stop offset="1" stop-color="#65DA00"/>
</linearGradient>
</defs>
</svg>
