<svg width="257" height="166" viewBox="0 0 257 166" fill="none" xmlns="http://www.w3.org/2000/svg">
<path opacity="0.5" d="M0 15C0 6.71572 6.71573 0 15 0H242C250.284 0 257 6.71573 257 15V151C257 159.284 250.284 166 242 166H15C6.71573 166 0 159.284 0 151V15Z" fill="#1C2D23"/>
<rect x="94" y="150" width="65" height="8" rx="4" fill="#294434"/>
<path opacity="0.6" d="M105 135H149C149 139.82 150.829 144.46 154.117 147.983L156 150H98L99.8826 147.983C103.171 144.46 105 139.82 105 135Z" fill="#2C4034"/>
<path opacity="0.6" d="M40 33C40 23.6112 47.6112 16 57 16H192C201.389 16 209 23.6112 209 33V120H40V33Z" fill="#395D48"/>
<path opacity="0.7" d="M209 120C209 126.627 203.627 132 197 132L52 132C45.3726 132 40 126.627 40 120L209 120Z" fill="#466251"/>
<circle cx="126" cy="126" r="4" fill="#D9D9D9"/>
<rect x="49" y="25" width="151" height="87" rx="7" fill="black"/>
<rect x="98" y="36" width="64" height="10" rx="4" fill="url(#paint0_linear_5082_2441)"/>
<rect x="98" y="52" width="87" height="48" rx="4" fill="url(#paint1_linear_5082_2441)"/>
<path opacity="0.5" d="M49 32C49 28.134 52.134 25 56 25H85V112H56C52.134 112 49 108.866 49 105V32Z" fill="#A6A5A5" fill-opacity="0.26"/>
<circle cx="67.5" cy="45.5" r="7.5" fill="#CBF0D8"/>
<rect x="127.736" y="8.73649" width="88.527" height="53.527" rx="6.26351" fill="url(#paint2_linear_5082_2441)" stroke="#65DA00" stroke-width="0.527026"/>
<circle cx="148.633" cy="26.5" r="5.5" fill="#CBF0D8"/>
<circle cx="148.633" cy="46.5" r="5.5" fill="#CBF0D8"/>
<rect x="168" y="23" width="33" height="8" rx="4" fill="#CBF0D8"/>
<rect x="168" y="23" width="17" height="8" rx="4" fill="#E8E8E8"/>
<rect x="168" y="42" width="33" height="8" rx="4" fill="#CBF0D8"/>
<rect x="168" y="42" width="23" height="8" rx="4" fill="#E8E8E8"/>
<defs>
<linearGradient id="paint0_linear_5082_2441" x1="180.777" y1="31.7426" x2="174.432" y2="61.6313" gradientUnits="userSpaceOnUse">
<stop stop-color="#1B3926"/>
<stop offset="1" stop-color="#4B9F6B"/>
</linearGradient>
<linearGradient id="paint1_linear_5082_2441" x1="210.525" y1="31.5644" x2="138.569" y2="127.558" gradientUnits="userSpaceOnUse">
<stop stop-color="#1B3926"/>
<stop offset="1" stop-color="#4B9F6B"/>
</linearGradient>
<linearGradient id="paint2_linear_5082_2441" x1="179.296" y1="77.1103" x2="171.196" y2="13.1111" gradientUnits="userSpaceOnUse">
<stop stop-color="#142A01"/>
<stop offset="0.460655" stop-color="#65DA00"/>
<stop offset="1" stop-color="#65DA00"/>
</linearGradient>
</defs>
</svg>
