<svg width="257" height="166" viewBox="0 0 257 166" fill="none" xmlns="http://www.w3.org/2000/svg">
<path opacity="0.5" d="M0 15C0 6.71572 6.71573 0 15 0H242C250.284 0 257 6.71573 257 15V151C257 159.284 250.284 166 242 166H15C6.71573 166 0 159.284 0 151V15Z" fill="#1C2D23"/>
<mask id="mask0_5122_3127" style="mask-type:alpha" maskUnits="userSpaceOnUse" x="0" y="0" width="257" height="166">
<path d="M0 15C0 6.71572 6.71573 0 15 0H242C250.284 0 257 6.71573 257 15V151C257 159.284 250.284 166 242 166H15C6.71573 166 0 159.284 0 151V15Z" fill="#1C2D23"/>
</mask>
<g mask="url(#mask0_5122_3127)">
<path d="M229 141.001C229 147.076 224.075 152.001 218 152.001H34C27.9249 152.001 23 147.076 23 141.001V135.001H97C97 138.314 99.6863 141.001 103 141.001H148C151.314 141.001 154 138.314 154 135.001H229V141.001Z" fill="#395D48"/>
<path d="M23 135.001H97" stroke="#3F9C66"/>
<path d="M154 135.001H229" stroke="#3F9C66"/>
<path opacity="0.2" d="M25 146.001H227C227 149.314 224.314 152.001 221 152.001H31C27.6863 152.001 25 149.314 25 146.001Z" fill="#797676"/>
<path d="M38 42.0009C38 32.6121 45.6112 25.0009 55 25.0009H200C209.389 25.0009 217 32.6121 217 42.0009V135.001H38V42.0009Z" fill="#395D48"/>
<path d="M47 38.0009C47 35.2395 49.2386 33.0009 52 33.0009H204C206.761 33.0009 209 35.2395 209 38.0009V135.001H47V38.0009Z" fill="black"/>
<rect x="80" y="13.0009" width="95" height="101" rx="4" fill="url(#paint0_linear_5122_3127)"/>
<rect x="92" y="51.0009" width="53" height="5" rx="2.5" fill="#CBF0D8"/>
<rect x="92" y="63.0009" width="41" height="5" rx="2.5" fill="#CBF0D8"/>
<circle cx="102.5" cy="32.5009" r="7.5" fill="#CBF0D8"/>
<rect x="180.445" y="113.369" width="10" height="9" transform="rotate(-47.797 180.445 113.369)" fill="#66DA01"/>
<path d="M198.518 106.453L214.27 120.737C219.287 125.286 219.666 133.042 215.116 138.059C210.566 143.077 202.81 143.456 197.793 138.906L182.042 124.622L198.518 106.453Z" fill="url(#paint1_linear_5122_3127)" stroke="#65DA00" stroke-width="0.527026"/>
<path d="M136.203 66.495C148.544 52.8864 169.581 51.8583 183.189 64.1991C196.798 76.54 197.825 97.5768 185.484 111.185C173.143 124.794 152.108 125.821 138.499 113.48C124.891 101.14 123.862 80.1036 136.203 66.495ZM177.458 70.5135C167.338 61.3363 151.694 62.1007 142.517 72.2206C133.34 82.3407 134.105 97.9838 144.225 107.161C154.345 116.338 169.988 115.574 179.165 105.454C188.342 95.334 187.578 79.6908 177.458 70.5135Z" fill="url(#paint2_linear_5122_3127)" stroke="#65DA00" stroke-width="0.527026"/>
</g>
<defs>
<linearGradient id="paint0_linear_5122_3127" x1="202.872" y1="-29.9991" x2="55.2268" y2="72.2177" gradientUnits="userSpaceOnUse">
<stop stop-color="#1B3926"/>
<stop offset="1" stop-color="#4B9F6B"/>
</linearGradient>
<linearGradient id="paint1_linear_5122_3127" x1="223.227" y1="142.728" x2="188.293" y2="125.625" gradientUnits="userSpaceOnUse">
<stop stop-color="#142A01"/>
<stop offset="0.460655" stop-color="#65DA00"/>
<stop offset="1" stop-color="#65DA00"/>
</linearGradient>
<linearGradient id="paint2_linear_5122_3127" x1="187.727" y1="122.23" x2="161.149" y2="60.9063" gradientUnits="userSpaceOnUse">
<stop stop-color="#142A01"/>
<stop offset="0.460655" stop-color="#65DA00"/>
<stop offset="1" stop-color="#65DA00"/>
</linearGradient>
</defs>
</svg>
