<svg width="645" height="359" viewBox="0 0 645 359" fill="none" xmlns="http://www.w3.org/2000/svg">
<mask id="mask0_5555_29237" style="mask-type:alpha" maskUnits="userSpaceOnUse" x="0" y="0" width="645" height="359">
<path d="M0 15C0 6.71573 6.71573 0 15 0H630C638.284 0 645 6.71573 645 15V344C645 352.284 638.284 359 630 359H15C6.71574 359 0 352.284 0 344V15Z" fill="#1C2D23"/>
</mask>
<g mask="url(#mask0_5555_29237)">
<g clip-path="url(#clip0_5555_29237)">
<path d="M543.675 153.945C544.798 153.945 545.716 154.862 545.716 155.985C545.716 157.117 544.798 158.026 543.675 158.026C542.551 158.026 541.635 157.108 541.635 155.985C541.635 154.862 542.552 153.945 543.675 153.945Z" fill="url(#paint0_linear_5555_29237)" stroke="#65DA00" stroke-width="0.527026"/>
<path d="M562.714 94.4161C563.837 94.4161 564.755 95.3328 564.755 96.4561C564.755 97.5878 563.837 98.4971 562.714 98.4971C561.591 98.4969 560.674 97.5795 560.674 96.4561C560.674 95.3329 561.591 94.4163 562.714 94.4161Z" fill="url(#paint1_linear_5555_29237)" stroke="#65DA00" stroke-width="0.527026"/>
<path d="M520.064 110.292C518.406 110.292 517.062 108.948 517.062 107.291C517.062 105.634 518.406 104.29 520.064 104.29C521.721 104.29 523.065 105.634 523.065 107.291C523.065 108.948 521.721 110.292 520.064 110.292ZM520.064 105.036C518.817 105.036 517.809 106.052 517.809 107.291C517.809 108.53 518.824 109.546 520.064 109.546C521.303 109.546 522.318 108.53 522.318 107.291C522.318 106.052 521.303 105.036 520.064 105.036Z" fill="white"/>
<path d="M575.212 137.888C573.555 137.888 572.211 136.544 572.211 134.886C572.211 133.229 573.555 131.885 575.212 131.885C576.869 131.885 578.213 133.229 578.213 134.886C578.213 136.544 576.869 137.888 575.212 137.888ZM575.212 132.632C573.965 132.632 572.957 133.647 572.957 134.886C572.957 136.126 573.973 137.141 575.212 137.141C576.451 137.141 577.467 136.126 577.467 134.886C577.467 133.647 576.451 132.632 575.212 132.632Z" fill="white"/>
<path d="M173.218 309.554C173.218 310.54 172.419 311.331 171.441 311.331C170.463 311.331 169.664 310.532 169.664 309.554C169.664 308.576 170.463 307.778 171.441 307.778C172.419 307.778 173.218 308.576 173.218 309.554Z" fill="#397AFA"/>
<path d="M190.488 251.811C191.469 251.811 192.265 251.015 192.265 250.034C192.265 249.053 191.469 248.257 190.488 248.257C189.506 248.257 188.711 249.053 188.711 250.034C188.711 251.015 189.506 251.811 190.488 251.811Z" fill="#397AFA"/>
<path d="M147.845 263.87C146.188 263.87 144.844 262.526 144.844 260.869C144.844 259.211 146.188 257.868 147.845 257.868C149.502 257.868 150.846 259.211 150.846 260.869C150.846 262.526 149.502 263.87 147.845 263.87ZM147.845 258.607C146.598 258.607 145.59 259.622 145.59 260.861C145.59 262.101 146.606 263.116 147.845 263.116C149.084 263.116 150.099 262.101 150.099 260.861C150.099 259.622 149.084 258.607 147.845 258.607Z" fill="white"/>
<path d="M323.119 85.8946H153.212C150.631 85.8946 148.539 87.987 148.539 90.568V206.38C148.539 208.961 150.631 211.053 153.212 211.053H323.119C325.7 211.053 327.793 208.961 327.793 206.38V90.568C327.793 87.987 325.7 85.8946 323.119 85.8946Z" fill="white"/>
<path d="M323.119 85.8935H153.212C150.629 85.8935 148.539 87.9839 148.539 90.5669V104.408H327.793V90.5669C327.793 87.9839 325.702 85.8935 323.119 85.8935Z" fill="#D9D9D9"/>
<path d="M327.791 104.791H148.537C148.328 104.791 148.164 104.627 148.164 104.418V90.5772C148.164 87.7926 150.426 85.5305 153.211 85.5305H323.118C325.902 85.5305 328.164 87.7926 328.164 90.5772V104.418C328.164 104.627 328 104.791 327.791 104.791ZM148.911 104.045H327.418V90.5772C327.418 88.2032 325.492 86.2771 323.118 86.2771H153.211C150.837 86.2771 148.911 88.2032 148.911 90.5772V104.045Z" fill="#353148"/>
<path d="M296.989 97.6604C295.377 97.6604 294.07 96.354 294.07 94.7414C294.07 93.1289 295.377 91.8224 296.989 91.8224C298.602 91.8224 299.908 93.1289 299.908 94.7414C299.908 96.354 298.602 97.6604 296.989 97.6604ZM296.989 92.5764C295.795 92.5764 294.817 93.547 294.817 94.7489C294.817 95.9508 295.787 96.9214 296.989 96.9214C298.191 96.9214 299.162 95.9508 299.162 94.7489C299.162 93.547 298.191 92.5764 296.989 92.5764Z" fill="#191919"/>
<path d="M307.364 97.6604C305.752 97.6604 304.445 96.354 304.445 94.7414C304.445 93.1289 305.752 91.8224 307.364 91.8224C308.977 91.8224 310.283 93.1289 310.283 94.7414C310.283 96.354 308.977 97.6604 307.364 97.6604ZM307.364 92.5764C306.17 92.5764 305.192 93.547 305.192 94.7489C305.192 95.9508 306.162 96.9214 307.364 96.9214C308.566 96.9214 309.537 95.9508 309.537 94.7489C309.537 93.547 308.566 92.5764 307.364 92.5764Z" fill="#191919"/>
<path d="M318.06 97.6604C316.447 97.6604 315.141 96.354 315.141 94.7414C315.141 93.1289 316.447 91.8224 318.06 91.8224C319.672 91.8224 320.979 93.1289 320.979 94.7414C320.979 96.354 319.672 97.6604 318.06 97.6604ZM318.06 92.5764C316.865 92.5764 315.887 93.547 315.887 94.7489C315.887 95.9508 316.858 96.9214 318.06 96.9214C319.262 96.9214 320.232 95.9508 320.232 94.7489C320.232 93.547 319.262 92.5764 318.06 92.5764Z" fill="#191919"/>
<path d="M315.745 111.135H160.612C158.509 111.135 156.805 112.839 156.805 114.942V198.705C156.805 200.808 158.509 202.512 160.612 202.512H315.745C317.847 202.512 319.552 200.808 319.552 198.705V114.942C319.552 112.839 317.847 111.135 315.745 111.135Z" fill="white"/>
<path d="M315.751 202.887H160.618C158.311 202.887 156.438 201.013 156.438 198.706V114.944C156.438 112.637 158.311 110.763 160.618 110.763H315.751C318.058 110.763 319.931 112.637 319.931 114.944V198.706C319.931 201.013 318.058 202.887 315.751 202.887ZM160.618 111.509C158.722 111.509 157.184 113.047 157.184 114.944V198.706C157.184 200.602 158.722 202.14 160.618 202.14H315.751C317.647 202.14 319.185 200.602 319.185 198.706V114.944C319.185 113.047 317.647 111.509 315.751 111.509H160.618Z" fill="#353148"/>
<path d="M202.762 194.455C182.77 194.455 166.555 178.247 166.555 158.247C166.555 138.247 182.762 122.039 202.762 122.039C203.218 122.039 202.971 194.447 202.762 194.447V194.455Z" fill="#D9D9D9"/>
<path d="M242.012 158.256C242.012 138.263 225.804 122.048 205.804 122.048C205.573 122.048 205.521 139.719 205.558 158.405C205.558 158.54 242.004 158.405 242.004 158.256H242.012Z" fill="url(#paint2_linear_5555_29237)"/>
<path d="M206.388 188.439C206.075 188.439 205.905 183.84 205.881 174.643C205.873 171.291 205.873 167.939 205.881 165.423C205.886 162.382 206.02 160.861 206.284 160.861C232.973 160.809 233.145 160.981 233.309 161.145C233.376 161.212 233.421 161.317 233.421 161.414C233.421 176.315 221.297 188.439 206.396 188.439H206.388ZM206.642 161.608C206.575 164.572 206.65 184.938 206.739 187.692C220.961 187.506 232.502 175.964 232.674 161.742C230.897 161.63 221.177 161.578 206.642 161.608Z" fill="#121936"/>
<path d="M302.34 140.626H253.217C253.008 140.626 252.844 140.462 252.844 140.253C252.844 140.044 253.008 139.879 253.217 139.879H302.34C302.549 139.879 302.713 140.044 302.713 140.253C302.713 140.462 302.549 140.626 302.34 140.626Z" fill="#121936"/>
<path d="M276.882 151.639H253.209C253 151.639 252.836 151.475 252.836 151.266C252.836 151.057 253 150.893 253.209 150.893H276.882C277.091 150.893 277.256 151.057 277.256 151.266C277.256 151.475 277.091 151.639 276.882 151.639Z" fill="#121936"/>
<path d="M302.263 151.639H280.897C280.688 151.639 280.523 151.475 280.523 151.266C280.523 151.057 280.688 150.893 280.897 150.893H302.263C302.472 150.893 302.636 151.057 302.636 151.266C302.636 151.475 302.472 151.639 302.263 151.639Z" fill="#121936"/>
<path d="M339.842 164.659C338.2 164.622 336.886 164.659 336.886 164.659L249.905 164.562C240.29 164.622 232.354 171.669 230.883 180.859H230.801V181.374C230.689 182.255 230.622 183.159 230.63 184.077L230.674 191.49C230.712 197.246 228.412 202.86 224.075 206.645C221.544 208.855 218.453 210.43 215.057 211.095C214.84 211.139 216.049 211.154 217.214 211.184C218.857 211.221 220.17 211.184 220.17 211.184L307.151 211.281C316.766 211.221 324.702 204.174 326.173 194.984H326.255V194.469C326.367 193.588 326.434 192.685 326.427 191.766L326.359 181.501C327.434 173.17 333.855 166.346 341.992 164.749C342.209 164.704 340.999 164.682 339.835 164.659H339.842Z" fill="#242424"/>
<path d="M361.485 164.553H250.242C263.613 164.553 274.453 175.849 274.453 189.787V294.826C274.453 303.829 281.455 311.123 290.093 311.123H396.304V200.836C397.663 181.858 387.055 164.553 361.485 164.553Z" fill="white"/>
<path d="M396.308 203.165C396.151 203.165 396.024 203.038 396.024 202.882V194.864C396.024 178.507 382.713 165.196 366.357 165.196H249.94C249.783 165.196 249.656 165.069 249.656 164.912C249.656 164.755 249.783 164.629 249.94 164.629H366.357C383.027 164.629 396.584 178.186 396.584 194.856V202.874C396.584 203.031 396.457 203.158 396.301 203.158L396.308 203.165Z" fill="#121936"/>
<path d="M421.486 280.038L305.622 280.179L305.689 291.452C305.749 301.232 298.619 309.593 289.362 311.408C289.138 311.452 290.385 311.475 291.587 311.505C293.289 311.542 294.64 311.505 294.64 311.505L384.495 311.609C384.696 311.609 384.898 311.594 385.1 311.587L401.643 311.609C412.707 311.542 421.621 302.516 421.553 291.452L421.486 280.03V280.038Z" fill="#242424"/>
<path d="M379.882 210.67H294.365C294.156 210.67 293.992 210.506 293.992 210.297C293.992 210.088 294.156 209.924 294.365 209.924H379.882C380.092 209.924 380.256 210.088 380.256 210.297C380.256 210.506 380.092 210.67 379.882 210.67Z" fill="#121936"/>
<path d="M341.188 192.847H296.051C295.641 192.847 295.305 192.511 295.305 192.101C295.305 191.69 295.641 191.354 296.051 191.354H341.188C341.598 191.354 341.934 191.69 341.934 192.101C341.934 192.511 341.598 192.847 341.188 192.847Z" fill="#3E2FD1"/>
<path d="M335.485 246.357H294.365C294.156 246.357 293.992 246.193 293.992 245.984C293.992 245.775 294.156 245.611 294.365 245.611H335.485C335.694 245.611 335.859 245.775 335.859 245.984C335.859 246.193 335.694 246.357 335.485 246.357Z" fill="#121936"/>
<path d="M322.301 227.403H294.365C294.156 227.403 293.992 227.238 293.992 227.029C293.992 226.82 294.156 226.656 294.365 226.656H322.301C322.51 226.656 322.675 226.82 322.675 227.029C322.675 227.238 322.51 227.403 322.301 227.403Z" fill="#121936"/>
<path d="M379.885 227.403H332.061C331.852 227.403 331.688 227.238 331.688 227.029C331.688 226.82 331.852 226.656 332.061 226.656H379.885C380.094 226.656 380.258 226.82 380.258 227.029C380.258 227.238 380.094 227.403 379.885 227.403Z" fill="#121936"/>
<path d="M322.301 266.627H294.365C294.156 266.627 293.992 266.463 293.992 266.254C293.992 266.045 294.156 265.88 294.365 265.88H322.301C322.51 265.88 322.675 266.045 322.675 266.254C322.675 266.463 322.51 266.627 322.301 266.627Z" fill="#121936"/>
<path d="M335.484 266.627H328.623C328.414 266.627 328.25 266.463 328.25 266.254C328.25 266.045 328.414 265.88 328.623 265.88H335.484C335.693 265.88 335.857 266.045 335.857 266.254C335.857 266.463 335.693 266.627 335.484 266.627Z" fill="#121936"/>
<path d="M353.598 240.771H344.625V269.274H353.598V240.771Z" fill="url(#paint3_linear_5555_29237)"/>
<path d="M366.823 269.647H357.85C357.641 269.647 357.477 269.483 357.477 269.274V252.215C357.477 252.006 357.641 251.842 357.85 251.842H366.823C367.032 251.842 367.197 252.006 367.197 252.215V269.274C367.197 269.483 367.032 269.647 366.823 269.647ZM358.231 268.901H366.458V252.589H358.231V268.901Z" fill="#397AFA"/>
<path d="M379.88 237.836H370.906V269.273H379.88V237.836Z" fill="url(#paint4_linear_5555_29237)"/>
<path d="M320.481 149.201L298.645 126.67C298.503 126.52 298.503 126.282 298.652 126.14C298.801 125.998 299.033 125.998 299.182 126.147L320.511 148.148L344.206 125.916L372.291 147.692C372.456 147.819 372.486 148.051 372.359 148.215C372.232 148.379 372 148.409 371.836 148.282L344.259 126.894L320.489 149.193L320.481 149.201Z" fill="#121936"/>
<path d="M298.905 132.318C302.17 132.318 304.818 129.671 304.818 126.406C304.818 123.14 302.17 120.493 298.905 120.493C295.639 120.493 292.992 123.14 292.992 126.406C292.992 129.671 295.639 132.318 298.905 132.318Z" fill="#3300FF"/>
<path d="M350.13 126.406C350.13 129.668 347.487 132.318 344.217 132.318C340.947 132.318 338.305 129.676 338.305 126.406C338.305 123.136 340.947 120.493 344.217 120.493C347.487 120.493 350.13 123.136 350.13 126.406Z" fill="#3300FF"/>
<path d="M326.339 148.945C326.862 145.722 324.673 142.685 321.45 142.162C318.226 141.639 315.189 143.827 314.666 147.051C314.143 150.274 316.332 153.311 319.555 153.834C322.778 154.358 325.815 152.169 326.339 148.945Z" fill="#3300FF"/>
<path d="M377.928 148.712C378.327 145.471 376.023 142.52 372.782 142.121C369.541 141.722 366.59 144.026 366.191 147.267C365.792 150.508 368.096 153.458 371.337 153.858C374.578 154.257 377.529 151.953 377.928 148.712Z" fill="#3300FF"/>
</g>
<path opacity="0.26" d="M314.125 132.583C349.495 101.62 403.256 105.179 434.219 140.549C465.182 175.918 461.607 229.679 426.254 260.642C390.884 291.605 337.123 288.03 306.16 252.678C275.197 217.308 278.772 163.546 314.125 132.583ZM376.634 131.881C368.552 122.652 354.5 121.721 345.271 129.803C336.043 137.884 335.112 151.935 343.193 161.164C351.275 170.393 365.327 171.325 374.556 163.243C383.785 155.161 384.715 141.11 376.634 131.881Z" fill="white" fill-opacity="0.44"/>
<path d="M437.967 252.23L596.004 405.75L566.776 435.351L424.148 267.669L437.967 252.23Z" fill="url(#paint5_linear_5555_29237)"/>
<path d="M345.394 106.578C295.861 120.083 266.656 171.177 280.153 220.703C293.651 270.229 344.745 299.441 394.278 285.936C443.804 272.439 473.017 221.345 459.512 171.811C446.014 122.285 394.92 93.0805 345.394 106.578ZM391.777 276.754C347.328 288.87 301.467 262.659 289.351 218.202C277.227 173.745 303.446 127.885 347.895 115.768C392.352 103.652 438.213 129.87 450.329 174.32C462.445 218.769 436.234 264.63 391.777 276.746V276.754Z" fill="url(#paint6_linear_5555_29237)"/>
<path d="M457.793 66.3531C463.738 45.7127 451.826 24.1603 431.186 18.2145C410.545 12.2686 388.993 24.1809 383.047 44.8213C377.101 65.4617 389.014 87.0141 409.654 92.96C430.294 98.9058 451.847 86.9935 457.793 66.3531Z" fill="#180159"/>
<path d="M420.43 94.7566C398.838 94.7566 381.266 77.1913 381.266 55.5923C381.266 33.9933 398.838 16.428 420.43 16.428C442.022 16.428 459.594 33.9933 459.594 55.5923C459.594 77.1913 442.029 94.7566 420.43 94.7566ZM420.43 16.9644C399.131 16.9644 381.802 34.2937 381.802 55.5923C381.802 76.8909 399.131 94.2202 420.43 94.2202C441.729 94.2202 459.058 76.8909 459.058 55.5923C459.058 34.2937 441.729 16.9644 420.43 16.9644Z" fill="#180159"/>
<path d="M386.647 43.683C391.025 22.5055 411.742 8.88659 432.919 13.2645C454.097 17.6425 467.715 38.3596 463.338 59.537C458.96 80.7145 438.243 94.3333 417.065 89.9554C395.888 85.5775 382.269 64.8605 386.647 43.683Z" fill="url(#paint7_linear_5555_29237)" stroke="#65DA00" stroke-width="0.527026"/>
<path d="M424.992 90.7784C403.401 90.7784 385.828 73.2131 385.828 51.6141C385.828 30.0151 403.401 12.4499 424.992 12.4499C446.584 12.4499 464.157 30.0151 464.157 51.6141C464.157 73.2131 446.591 90.7784 424.992 90.7784ZM424.992 12.9863C403.694 12.9863 386.365 30.3155 386.365 51.6141C386.365 72.9128 403.694 90.242 424.992 90.242C446.291 90.242 463.62 72.9128 463.62 51.6141C463.62 30.3155 446.291 12.9863 424.992 12.9863Z" fill="#180159"/>
<path d="M424.993 82.1722C407.879 82.1722 393.961 68.2472 393.961 51.1397C393.961 34.0321 407.886 20.1072 424.993 20.1072C442.101 20.1072 456.026 34.0321 456.026 51.1397C456.026 68.2472 442.101 82.1722 424.993 82.1722ZM424.993 20.8153C408.279 20.8153 394.676 34.4183 394.676 51.1325C394.676 67.8467 408.279 81.4498 424.993 81.4498C441.708 81.4498 455.311 67.8467 455.311 51.1325C455.311 34.4183 441.708 20.8153 424.993 20.8153Z" fill="#180159"/>
<path d="M423.055 65.1414C418.178 64.7051 413.436 63.1675 409.695 60.5713L414.18 53.9342C417.434 56.0441 420.459 57.1884 423.32 57.6247V53.9342C415.546 52.4395 411.455 50.0221 411.455 44.2648V44.1789C411.455 38.7291 415.367 34.7312 423.227 34.3378V31.8346H427.797V34.4737C431.881 34.8671 435.178 36.1401 438.124 38.0354L433.905 44.7153C432.017 43.3565 429.685 42.4768 427.532 42.0333V45.6379C434.87 47.0898 439.047 49.3713 439.047 55.3503V55.4362C439.047 61.2364 434.52 64.6193 427.625 65.1486V69.4541H423.055V65.1486V65.1414ZM423.406 45.1945V41.6328C421.253 41.6757 420.459 42.3766 420.459 43.2563V43.3422C420.459 44.2648 421.117 44.794 423.406 45.1874V45.1945ZM427.454 54.3348V57.8965C429.478 57.8106 430.264 57.1526 430.264 56.23V56.1442C430.264 55.2216 429.692 54.7353 427.454 54.3419V54.3348Z" fill="black"/>
<path d="M427.613 69.5389H423.043C422.993 69.5389 422.957 69.496 422.957 69.4531V65.2262C417.951 64.7613 413.223 63.1379 409.64 60.649C409.597 60.6204 409.59 60.5631 409.619 60.5274L414.103 53.8903C414.132 53.8474 414.182 53.8403 414.225 53.8617C417.286 55.85 420.232 57.0444 423.222 57.5235V54.0119C416.098 52.6316 411.357 50.4431 411.357 44.2709V44.1851C411.357 38.3634 415.755 34.6586 423.129 34.2581V31.8408C423.129 31.7907 423.172 31.7549 423.215 31.7549H427.785C427.835 31.7549 427.871 31.7979 427.871 31.8408V34.394C431.64 34.7731 435.008 35.9389 438.155 37.9557C438.198 37.9843 438.212 38.0344 438.184 38.0773L433.964 44.7572C433.964 44.7572 433.928 44.793 433.907 44.8002C433.878 44.8002 433.857 44.8002 433.835 44.7859C432.147 43.57 429.945 42.6331 427.606 42.1396V45.5583C434.515 46.9315 439.121 49.1343 439.121 55.3422V55.428C439.121 60.9923 434.851 64.6469 427.699 65.2191V69.4388C427.699 69.4888 427.656 69.5246 427.613 69.5246V69.5389ZM423.136 69.3601H427.527V65.1404C427.527 65.0903 427.563 65.0546 427.613 65.0546C434.715 64.511 438.956 60.9136 438.956 55.4352V55.3493C438.956 49.2415 434.386 47.0816 427.513 45.7299C427.47 45.7228 427.441 45.687 427.441 45.6441V42.0395C427.441 42.0395 427.456 41.9894 427.477 41.968C427.499 41.9537 427.527 41.9465 427.549 41.9465C429.909 42.4257 432.155 43.3626 433.878 44.5856L437.998 38.063C434.872 36.0747 431.532 34.9304 427.785 34.5657C427.742 34.5657 427.706 34.5228 427.706 34.4798V31.9337H423.315V34.3511C423.315 34.4012 423.279 34.4369 423.229 34.4369C415.905 34.8017 411.535 38.4492 411.535 44.1922V44.2781C411.535 49.5419 414.84 52.2239 423.329 53.8546C423.372 53.8617 423.401 53.8975 423.401 53.9404V57.6308C423.401 57.6308 423.386 57.6809 423.372 57.6952C423.351 57.7095 423.329 57.7238 423.3 57.7166C420.268 57.2518 417.293 56.0502 414.203 54.062L409.819 60.5488C413.388 63.002 418.087 64.604 423.064 65.0546C423.107 65.0546 423.143 65.0975 423.143 65.1404V69.3601H423.136ZM427.441 57.9813C427.441 57.9813 427.399 57.9741 427.377 57.9598C427.363 57.9455 427.349 57.9169 427.349 57.8954V54.3338C427.349 54.3338 427.363 54.2837 427.377 54.2622C427.399 54.2479 427.427 54.2336 427.449 54.2408C429.609 54.6198 430.338 55.099 430.338 56.1289V56.2147C430.338 56.9585 429.837 57.8668 427.441 57.9741V57.9813ZM427.527 54.441V57.8025C429.272 57.7095 430.159 57.1802 430.159 56.229V56.1432C430.159 55.3422 429.752 54.8559 427.527 54.4482V54.441ZM423.393 45.2793C423.393 45.2793 423.386 45.2793 423.379 45.2793C421.176 44.9003 420.361 44.371 420.361 43.3483V43.2625C420.361 42.6474 420.754 41.6032 423.393 41.546C423.429 41.5532 423.444 41.5532 423.458 41.5746C423.472 41.5889 423.486 41.6175 423.486 41.639V45.2007C423.486 45.2007 423.472 45.2507 423.458 45.2722C423.444 45.2865 423.422 45.2936 423.401 45.2936L423.393 45.2793ZM423.308 41.7248C421.527 41.7749 420.54 42.3184 420.54 43.2553V43.3412C420.54 44.1279 420.998 44.6643 423.308 45.0791V41.7177V41.7248Z" fill="#180159"/>
<path d="M468.794 140.764C483.48 140.764 495.385 128.859 495.385 114.173C495.385 99.4868 483.48 87.5816 468.794 87.5816C454.108 87.5816 442.203 99.4868 442.203 114.173C442.203 128.859 454.108 140.764 468.794 140.764Z" fill="#180159"/>
<path d="M468.793 141.037C453.981 141.037 441.93 128.986 441.93 114.174C441.93 99.3627 453.981 87.3116 468.793 87.3116C483.604 87.3116 495.655 99.3627 495.655 114.174C495.655 128.986 483.604 141.037 468.793 141.037ZM468.793 87.8551C454.281 87.8551 442.466 99.6631 442.466 114.182C442.466 128.7 454.274 140.508 468.793 140.508C483.311 140.508 495.119 128.7 495.119 114.182C495.119 99.6631 483.311 87.8551 468.793 87.8551Z" fill="#180159"/>
<path d="M447.065 102.89C451.786 88.8303 467.011 81.2595 481.071 85.9801C495.131 90.7009 502.702 105.926 497.981 119.986C493.26 134.045 478.035 141.616 463.975 136.896C449.916 132.175 442.345 116.95 447.065 102.89Z" fill="url(#paint8_linear_5555_29237)" stroke="#65DA00" stroke-width="0.527026"/>
<path d="M472.543 138.323C457.731 138.323 445.68 126.272 445.68 111.46C445.68 96.6487 457.731 84.5976 472.543 84.5976C487.354 84.5976 499.405 96.6487 499.405 111.46C499.405 126.272 487.354 138.323 472.543 138.323ZM472.543 85.1412C458.031 85.1412 446.216 96.9491 446.216 111.468C446.216 125.986 458.024 137.794 472.543 137.794C487.061 137.794 498.869 125.986 498.869 111.468C498.869 96.9491 487.061 85.1412 472.543 85.1412Z" fill="#180159"/>
<path d="M472.093 133.869C460.328 133.869 450.766 124.3 450.766 112.542C450.766 100.784 460.335 91.2147 472.093 91.2147C483.851 91.2147 493.42 100.784 493.42 112.542C493.42 124.3 483.851 133.869 472.093 133.869ZM472.093 91.9227C460.728 91.9227 451.481 101.17 451.481 112.535C451.481 123.899 460.728 133.147 472.093 133.147C483.457 133.147 492.705 123.899 492.705 112.535C492.705 101.17 483.457 91.9227 472.093 91.9227Z" fill="#180159"/>
<path d="M479.029 111.264C477.806 111.057 476.647 111.343 475.732 111.951C475.439 112.144 475.038 111.986 474.96 111.643C474.909 111.429 474.845 111.214 474.766 111.085C474.523 110.67 474.638 110.155 475.045 109.905C476.461 109.025 477.363 107.395 477.169 105.564C476.948 103.49 475.267 101.795 473.186 101.566C470.454 101.266 468.144 103.39 468.144 106.065C468.144 107.688 469.002 109.111 470.289 109.912C470.697 110.163 470.819 110.678 470.568 111.092C470.49 111.221 470.425 111.436 470.375 111.65C470.296 111.994 469.896 112.158 469.603 111.958C468.687 111.35 467.536 111.064 466.306 111.271C464.446 111.593 462.958 113.088 462.644 114.947C462.129 118.023 464.718 120.647 467.786 120.204C469.624 119.932 471.14 118.509 471.527 116.685C471.627 116.199 471.648 115.72 471.605 115.262C471.569 114.926 471.87 114.647 472.199 114.718C472.349 114.747 472.506 114.768 472.664 114.768C472.821 114.768 472.978 114.754 473.129 114.718C473.458 114.654 473.758 114.933 473.722 115.262C473.672 115.72 473.694 116.199 473.801 116.685C474.187 118.509 475.703 119.939 477.541 120.204C480.61 120.655 483.199 118.023 482.684 114.947C482.376 113.088 480.881 111.593 479.022 111.271L479.029 111.264Z" fill="#180159"/>
<path d="M479.029 111.264C477.806 111.056 476.647 111.342 475.732 111.95C475.439 112.144 475.038 111.986 474.96 111.643C474.909 111.428 474.845 111.214 474.766 111.085C474.523 110.67 474.638 110.155 475.045 109.905C476.461 109.025 477.363 107.395 477.169 105.564C476.948 103.49 475.267 101.795 473.186 101.566C470.454 101.265 468.144 103.389 468.144 106.064C468.144 107.688 469.002 109.111 470.289 109.912C470.697 110.162 470.819 110.677 470.568 111.092C470.49 111.221 470.425 111.435 470.375 111.65C470.296 111.993 469.896 112.158 469.603 111.958C468.687 111.35 467.536 111.064 466.306 111.271C464.446 111.593 462.958 113.088 462.644 114.947C462.129 118.022 464.718 120.647 467.786 120.204C469.624 119.932 471.14 118.509 471.527 116.685C471.627 116.199 471.648 115.72 471.605 115.262C471.569 114.926 471.87 114.647 472.199 114.718C472.349 114.747 472.506 114.768 472.664 114.768C472.821 114.768 472.978 114.754 473.129 114.718C473.458 114.654 473.758 114.933 473.722 115.262C473.672 115.72 473.694 116.199 473.801 116.685C474.187 118.509 475.703 119.939 477.541 120.204C480.61 120.654 483.199 118.022 482.684 114.947C482.376 113.088 480.881 111.593 479.022 111.271L479.029 111.264Z" fill="black"/>
<path d="M501.295 59.4261C502.686 50.9123 496.912 42.8829 488.399 41.4917C479.885 40.1006 471.855 45.8746 470.464 54.3884C469.073 62.9021 474.847 70.9316 483.361 72.3227C491.875 73.7139 499.904 67.9398 501.295 59.4261Z" fill="#180159"/>
<path d="M485.892 72.8011C477.131 72.8011 470 65.6706 470 56.9094C470 48.1482 477.131 41.0177 485.892 41.0177C494.653 41.0177 501.783 48.1482 501.783 56.9094C501.783 65.6706 494.653 72.8011 485.892 72.8011ZM485.892 41.5541C477.424 41.5541 470.536 48.4414 470.536 56.9094C470.536 65.3773 477.424 72.2647 485.892 72.2647C494.36 72.2647 501.247 65.3773 501.247 56.9094C501.247 48.4414 494.36 41.5541 485.892 41.5541Z" fill="#180159"/>
<path d="M472.084 52.4321C473.667 43.8042 481.946 38.0941 490.574 39.6776C499.202 41.2612 504.912 49.5387 503.329 58.1666C501.745 66.7946 493.467 72.5058 484.839 70.9223C476.211 69.3388 470.5 61.0602 472.084 52.4321Z" fill="url(#paint9_linear_5555_29237)" stroke="#65DA00" stroke-width="0.527026"/>
<g clip-path="url(#clip1_5555_29237)">
<path d="M484.841 54.1162L487.642 51.3153L490.444 54.1177L492.074 52.4879L487.642 48.0554L483.211 52.4864L484.841 54.1162Z" fill="black"/>
<path d="M483.692 55.2679L482.062 53.6381L480.433 55.268L482.062 56.8978L483.692 55.2679Z" fill="black"/>
<path d="M484.835 56.4186L487.636 59.2195L490.439 56.4172L492.069 58.0461L492.069 58.047L487.636 62.4794L483.205 58.0485L483.203 58.0462L484.835 56.4186Z" fill="black"/>
<path d="M493.222 56.897L494.852 55.2671L493.222 53.6373L491.592 55.2672L493.222 56.897Z" fill="black"/>
<path d="M489.292 55.2681H489.293L487.639 53.6142L486.417 54.8365H486.417L486.276 54.9769L485.987 55.2666L485.984 55.2689L485.987 55.2713L487.639 56.9237L489.293 55.2698L489.294 55.2689L489.292 55.2681Z" fill="black"/>
</g>
<path d="M487.728 71.2034C478.966 71.2034 471.836 64.0729 471.836 55.3117C471.836 46.5505 478.966 39.42 487.728 39.42C496.489 39.42 503.619 46.5505 503.619 55.3117C503.619 64.0729 496.489 71.2034 487.728 71.2034ZM487.728 39.9564C479.26 39.9564 472.372 46.8438 472.372 55.3117C472.372 63.7797 479.26 70.667 487.728 70.667C496.196 70.667 503.083 63.7797 503.083 55.3117C503.083 46.8438 496.196 39.9564 487.728 39.9564Z" fill="#180159"/>
<path d="M487.727 67.8033C480.733 67.8033 475.047 62.1175 475.047 55.1228C475.047 48.1282 480.733 42.4424 487.727 42.4424C494.722 42.4424 500.408 48.1282 500.408 55.1228C500.408 62.1175 494.722 67.8033 487.727 67.8033ZM487.727 43.1576C481.133 43.1576 475.762 48.5216 475.762 55.1228C475.762 61.7241 481.126 67.0881 487.727 67.0881C494.329 67.0881 499.693 61.7241 499.693 55.1228C499.693 48.5216 494.329 43.1576 487.727 43.1576Z" fill="#180159"/>
<path d="M207.516 262.856C210.065 247.378 199.583 232.765 184.105 230.217C168.628 227.668 154.014 238.15 151.466 253.627C148.917 269.105 159.399 283.718 174.877 286.267C190.354 288.815 204.968 278.334 207.516 262.856Z" fill="#180159"/>
<path d="M179.494 286.882C163.709 286.882 150.867 274.041 150.867 258.255C150.867 242.47 163.709 229.628 179.494 229.628C195.279 229.628 208.121 242.47 208.121 258.255C208.121 274.041 195.279 286.882 179.494 286.882ZM179.494 230.084C163.958 230.084 151.322 242.719 151.322 258.255C151.322 273.792 163.958 286.427 179.494 286.427C195.031 286.427 207.666 273.792 207.666 258.255C207.666 242.719 195.031 230.084 179.494 230.084Z" fill="#180159"/>
<path d="M154.477 251.168C156.787 235.506 171.357 224.682 187.019 226.992C202.681 229.302 213.506 243.871 211.196 259.534C208.886 275.196 194.316 286.02 178.654 283.71C162.991 281.4 152.167 266.831 154.477 251.168Z" fill="url(#paint10_linear_5555_29237)" stroke="#65DA00" stroke-width="0.527026"/>
<path d="M182.83 283.974C167.045 283.974 154.203 271.132 154.203 255.347C154.203 239.561 167.045 226.72 182.83 226.72C198.615 226.72 211.457 239.561 211.457 255.347C211.457 271.132 198.615 283.974 182.83 283.974ZM182.83 227.175C167.294 227.175 154.658 239.81 154.658 255.347C154.658 270.883 167.294 283.518 182.83 283.518C198.366 283.518 211.002 270.883 211.002 255.347C211.002 239.81 198.366 227.175 182.83 227.175Z" fill="#180159"/>
<path d="M182.829 277.7C170.309 277.7 160.125 267.516 160.125 254.996C160.125 242.476 170.309 232.292 182.829 232.292C195.349 232.292 205.532 242.476 205.532 254.996C205.532 267.516 195.349 277.7 182.829 277.7ZM182.829 232.899C170.642 232.899 160.732 242.81 160.732 254.996C160.732 267.183 170.642 277.093 182.829 277.093C195.015 277.093 204.926 267.183 204.926 254.996C204.926 242.81 195.015 232.899 182.829 232.899Z" fill="#180159"/>
<path d="M184.814 268.037C184.814 267.412 184.814 265.597 184.814 264.96H181.864C181.864 265.639 181.876 267.472 181.864 268.122L178.757 268.152C178.745 267.503 178.757 265.664 178.757 264.948C178.265 264.948 177.816 264.948 177.361 264.948C176.384 264.948 173.07 264.96 173.07 264.96V261.488L175.862 261.446C175.862 261.446 175.862 253.053 175.868 249.563C175.868 249.454 175.868 247.839 175.868 247.839H173.07V244.459C173.07 244.459 176.894 244.435 178.29 244.435C178.435 244.435 178.575 244.435 178.751 244.435C178.751 243.749 178.751 241.922 178.751 241.285C178.751 241.273 181.876 241.285 181.876 241.285C181.901 241.898 181.882 243.749 181.882 244.41H184.832C184.832 243.749 184.826 241.922 184.832 241.285H187.939C187.951 241.916 187.963 243.646 187.939 244.271C187.927 244.568 188.012 244.684 188.309 244.775C190.185 245.345 191.453 246.571 191.92 248.483C192.46 250.68 191.435 252.834 189.438 253.92C189.383 253.951 189.335 253.981 189.238 254.036C191.92 254.97 193.328 256.791 192.994 259.625C192.649 262.575 190.949 264.371 187.945 264.838C187.945 265.518 187.945 267.363 187.945 268.031L184.814 268.049V268.037ZM180.098 261.531C182.265 261.482 184.389 261.452 186.519 261.385C187.126 261.367 187.678 261.13 188.109 260.693C188.904 259.88 188.989 258.897 188.692 257.871C188.382 256.809 187.557 256.257 186.525 256.178C184.795 256.051 183.054 256.051 181.324 256.008C180.923 255.996 180.517 256.008 180.098 256.008V261.537V261.531ZM180.098 252.543C180.232 252.555 180.341 252.567 180.45 252.567C182.052 252.561 183.654 252.567 185.251 252.537C185.712 252.525 186.191 252.458 186.622 252.3C187.939 251.827 188.497 250.255 187.818 249.029C187.363 248.197 186.598 247.906 185.718 247.882C184.304 247.839 182.884 247.839 181.47 247.827C181.021 247.827 180.565 247.827 180.092 247.827V252.543H180.098Z" fill="black"/>
<path d="M178.747 268.376C178.626 268.376 178.522 268.279 178.522 268.152C178.51 267.672 178.516 266.55 178.522 265.706V265.172H178.262L173.067 265.184C173.006 265.184 172.951 265.16 172.903 265.117C172.86 265.075 172.836 265.014 172.836 264.953V261.482C172.836 261.361 172.933 261.257 173.06 261.251L175.628 261.209V249.551C175.634 249.466 175.634 248.501 175.634 248.052H173.06C172.933 248.052 172.836 247.948 172.836 247.821V244.441C172.836 244.313 172.939 244.216 173.06 244.21C173.06 244.21 176.884 244.186 178.28 244.186H178.51V243.682C178.51 242.85 178.51 241.734 178.51 241.26C178.51 241.107 178.945 241.03 179.815 241.03C181.328 241.03 182.085 241.109 182.085 241.267C182.103 241.728 182.097 242.887 182.097 243.73V244.161H184.591V243.658C184.591 242.838 184.591 241.728 184.591 241.26C184.64 240.854 187.389 240.999 187.941 241.036C188.057 241.042 188.154 241.139 188.154 241.26C188.166 241.886 188.178 243.627 188.154 244.265C188.148 244.453 188.16 244.483 188.366 244.544C190.387 245.157 191.649 246.461 192.135 248.416C192.669 250.594 191.722 252.803 189.762 253.981C192.335 255.037 193.531 256.985 193.215 259.637C192.863 262.635 191.122 264.492 188.166 265.014V265.542C188.166 266.38 188.166 267.521 188.166 268.012C188.166 268.14 188.063 268.237 187.941 268.237L184.81 268.255C184.682 268.255 184.585 268.152 184.585 268.03C184.585 267.569 184.585 266.458 184.585 265.651V265.172H182.091V265.688C182.091 266.519 182.097 267.63 182.091 268.109C182.091 268.231 181.988 268.334 181.866 268.334L178.759 268.364L178.747 268.376ZM178.255 264.717H178.741C178.868 264.717 178.966 264.82 178.966 264.947V265.712C178.966 266.44 178.966 267.375 178.966 267.921L181.624 267.897C181.624 267.351 181.624 266.422 181.624 265.706V264.959C181.624 264.832 181.727 264.729 181.848 264.729H184.798C184.925 264.729 185.022 264.832 185.022 264.959V265.663C185.022 266.355 185.022 267.272 185.022 267.812L187.699 267.794C187.699 267.235 187.699 266.276 187.699 265.548V264.826C187.699 264.711 187.778 264.62 187.893 264.601C190.782 264.152 192.414 262.465 192.754 259.588C193.057 256.985 191.844 255.182 189.149 254.242C189.064 254.211 189.003 254.139 188.997 254.048C188.991 253.957 189.034 253.872 189.107 253.829L189.313 253.708C191.237 252.664 192.19 250.582 191.68 248.525C191.237 246.735 190.078 245.545 188.221 244.981C187.826 244.859 187.674 244.647 187.687 244.252C187.705 243.688 187.699 242.238 187.687 241.497C187.116 241.497 185.593 241.497 185.028 241.497C185.028 242.019 185.028 242.948 185.028 243.664V244.392C185.028 244.519 184.925 244.623 184.804 244.623H181.854C181.727 244.623 181.63 244.519 181.63 244.392V243.73C181.63 243.002 181.642 242.031 181.63 241.491C181.059 241.491 179.518 241.491 178.953 241.491C178.953 242.037 178.953 242.972 178.953 243.688V244.416C178.953 244.544 178.85 244.647 178.729 244.647H178.274C177.084 244.647 174.123 244.671 173.285 244.671V247.596H175.858C175.986 247.596 176.083 247.7 176.083 247.827C176.083 247.827 176.083 249.441 176.083 249.551V261.433C176.077 261.561 175.974 261.658 175.852 261.664L173.285 261.707V264.729L178.255 264.717ZM180.088 261.755C180.028 261.755 179.973 261.731 179.93 261.688C179.888 261.646 179.864 261.585 179.864 261.524V255.996C179.864 255.868 179.967 255.765 180.088 255.765H180.483C180.768 255.765 181.047 255.765 181.32 255.765C181.8 255.777 182.279 255.789 182.765 255.795C184.003 255.82 185.283 255.844 186.539 255.935C187.729 256.026 188.591 256.7 188.906 257.792C189.264 259.012 189.046 260.038 188.263 260.833C187.796 261.312 187.189 261.573 186.515 261.597C184.974 261.646 183.438 261.676 181.885 261.707L180.094 261.743L180.088 261.755ZM180.313 256.226V261.294L181.873 261.264C183.426 261.233 184.962 261.203 186.497 261.154C187.055 261.136 187.547 260.918 187.935 260.529C188.603 259.849 188.773 259 188.463 257.932C188.196 257.021 187.504 256.481 186.497 256.402C185.253 256.311 183.978 256.287 182.746 256.263C182.267 256.251 181.781 256.245 181.302 256.232C181.029 256.226 180.756 256.232 180.477 256.232H180.307L180.313 256.226ZM180.44 252.797C180.361 252.797 180.282 252.791 180.198 252.785L180.07 252.773C179.949 252.767 179.858 252.664 179.858 252.549V247.833C179.858 247.706 179.961 247.602 180.082 247.602H180.531C180.847 247.602 181.156 247.602 181.46 247.602L182.589 247.615C183.632 247.621 184.676 247.633 185.714 247.657C186.807 247.687 187.553 248.1 188.002 248.919C188.366 249.581 188.421 250.358 188.154 251.062C187.893 251.741 187.359 252.275 186.685 252.512C186.266 252.664 185.763 252.749 185.241 252.761C184.045 252.785 182.85 252.791 181.654 252.791H180.434L180.44 252.797ZM180.313 252.336C180.355 252.336 180.392 252.336 180.44 252.336H181.66C182.856 252.336 184.045 252.33 185.241 252.306C185.714 252.294 186.169 252.221 186.539 252.087C187.092 251.893 187.529 251.456 187.735 250.904C187.954 250.327 187.911 249.684 187.614 249.138C187.243 248.464 186.637 248.136 185.708 248.112C184.67 248.082 183.632 248.076 182.589 248.07L181.46 248.058C181.156 248.058 180.847 248.058 180.537 248.058H180.313V252.336Z" fill="black"/>
<path d="M147.971 302.391C149.73 291.681 142.474 281.572 131.764 279.813C121.054 278.053 110.946 285.309 109.186 296.019C107.426 306.729 114.682 316.838 125.392 318.597C136.102 320.357 146.211 313.101 147.971 302.391Z" fill="#180159"/>
<path d="M128.205 319.563C117.195 319.563 108.234 310.603 108.234 299.593C108.234 288.582 117.195 279.622 128.205 279.622C139.216 279.622 148.176 288.582 148.176 299.593C148.176 310.603 139.216 319.563 128.205 319.563ZM128.205 280.02C117.415 280.02 108.638 288.797 108.638 299.587C108.638 310.377 117.415 319.154 128.205 319.154C138.995 319.154 147.772 310.377 147.772 299.587C147.772 288.797 138.995 280.02 128.205 280.02Z" fill="#180159"/>
<path d="M112.001 292.141C114.955 281.546 125.939 275.352 136.534 278.306C147.129 281.261 153.324 292.245 150.369 302.84C147.415 313.435 136.431 319.629 125.836 316.675C115.241 313.721 109.047 302.737 112.001 292.141Z" fill="url(#paint11_linear_5555_29237)" stroke="#65DA00" stroke-width="0.527026"/>
<path d="M131.525 317.344C120.515 317.344 111.555 308.384 111.555 297.374C111.555 286.363 120.515 277.403 131.525 277.403C142.536 277.403 151.496 286.363 151.496 297.374C151.496 308.384 142.536 317.344 131.525 317.344ZM131.525 277.807C120.736 277.807 111.958 286.584 111.958 297.374C111.958 308.164 120.736 316.941 131.525 316.941C142.315 316.941 151.093 308.164 151.093 297.374C151.093 286.584 142.315 277.807 131.525 277.807Z" fill="#180159"/>
<path d="M131.533 312.906C122.968 312.906 116 305.939 116 297.374C116 288.809 122.968 281.841 131.533 281.841C140.098 281.841 147.066 288.809 147.066 297.374C147.066 305.939 140.098 312.906 131.533 312.906ZM131.533 282.368C123.258 282.368 116.527 289.099 116.527 297.374C116.527 305.649 123.258 312.379 131.533 312.379C139.808 312.379 146.538 305.649 146.538 297.374C146.538 289.099 139.808 282.368 131.533 282.368Z" fill="#180159"/>
<path d="M126.176 289.756C126.57 289.558 127.014 289.558 127.358 289.756L131.298 292.076C131.692 292.323 131.889 292.718 131.889 293.113V294.793L130.018 295.879V294.249C130.017 293.805 129.77 293.41 129.426 293.213L127.309 291.929C126.915 291.731 126.472 291.731 126.127 291.929L124.009 293.163C123.615 293.41 123.418 293.805 123.418 294.2V296.669C123.418 297.113 123.664 297.509 124.009 297.706L126.127 298.99C126.521 299.188 126.964 299.188 127.309 298.99L130.018 297.36L131.889 296.323L134.646 294.694C135.04 294.497 135.483 294.497 135.828 294.694L139.817 297.015C140.211 297.262 140.408 297.657 140.408 298.052V302.743C140.408 303.188 140.162 303.583 139.817 303.78L135.828 306.102C135.434 306.299 134.991 306.299 134.646 306.102L130.657 303.78C130.263 303.533 130.066 303.138 130.066 302.743V301.114L131.938 300.027V301.607C131.938 302.052 132.184 302.447 132.528 302.645L134.646 303.879C135.04 304.077 135.483 304.077 135.828 303.879L137.896 302.645C138.29 302.398 138.487 302.003 138.487 301.607V299.139C138.487 298.694 138.241 298.299 137.896 298.102L135.779 296.867C135.385 296.67 134.941 296.67 134.597 296.867L131.889 298.447L130.018 299.533L127.309 301.114C126.915 301.312 126.472 301.312 126.127 301.114L122.138 298.793C121.744 298.546 121.547 298.151 121.547 297.756V293.113C121.547 292.718 121.744 292.324 122.138 292.126L126.176 289.756Z" fill="black"/>
<path d="M126.176 289.756C126.57 289.558 127.014 289.558 127.358 289.756L131.298 292.076C131.692 292.323 131.889 292.718 131.889 293.113V294.793L130.018 295.879V294.249C130.017 293.805 129.77 293.41 129.426 293.213L127.309 291.929C126.915 291.731 126.472 291.731 126.127 291.929L124.009 293.163C123.615 293.41 123.418 293.805 123.418 294.2V296.669C123.418 297.113 123.664 297.509 124.009 297.706L126.127 298.99C126.521 299.188 126.964 299.188 127.309 298.99L130.018 297.36L131.889 296.323L134.646 294.694C135.04 294.497 135.483 294.497 135.828 294.694L139.817 297.015C140.211 297.262 140.408 297.657 140.408 298.052V302.743C140.408 303.188 140.162 303.583 139.817 303.78L135.828 306.102C135.434 306.299 134.991 306.299 134.646 306.102L130.657 303.78C130.263 303.533 130.066 303.138 130.066 302.743V301.114L131.938 300.027V301.607C131.938 302.052 132.184 302.447 132.528 302.645L134.646 303.879C135.04 304.077 135.483 304.077 135.828 303.879L137.896 302.645C138.29 302.398 138.487 302.003 138.487 301.607V299.139C138.487 298.694 138.241 298.299 137.896 298.102L135.779 296.867C135.385 296.67 134.941 296.67 134.597 296.867L131.889 298.447L130.018 299.533L127.309 301.114C126.915 301.312 126.472 301.312 126.127 301.114L122.138 298.793C121.744 298.546 121.547 298.151 121.547 297.756V293.113C121.547 292.718 121.744 292.324 122.138 292.126L126.176 289.756Z" stroke="black"/>
<path d="M183.632 339.098C196.654 339.098 207.21 328.542 207.21 315.521C207.21 302.499 196.654 291.943 183.632 291.943C170.611 291.943 160.055 302.499 160.055 315.521C160.055 328.542 170.611 339.098 183.632 339.098Z" fill="#180159"/>
<path d="M183.63 339.325C170.503 339.325 159.828 328.65 159.828 315.523C159.828 302.396 170.503 291.721 183.63 291.721C196.757 291.721 207.433 302.396 207.433 315.523C207.433 328.65 196.757 339.325 183.63 339.325ZM183.63 292.176C170.758 292.176 160.283 302.651 160.283 315.523C160.283 328.395 170.758 338.87 183.63 338.87C196.502 338.87 206.977 328.395 206.977 315.523C206.977 302.651 196.502 292.176 183.63 292.176Z" fill="#180159"/>
<path d="M163.208 307.602C166.259 294.794 179.117 286.884 191.925 289.936C204.734 292.987 212.643 305.844 209.592 318.653C206.541 331.461 193.684 339.371 180.875 336.32C168.066 333.269 160.156 320.411 163.208 307.602Z" fill="url(#paint12_linear_5555_29237)" stroke="#65DA00" stroke-width="0.527026"/>
<path d="M186.396 336.921C173.269 336.921 162.594 326.246 162.594 313.119C162.594 299.992 173.269 289.316 186.396 289.316C199.523 289.316 210.198 299.992 210.198 313.119C210.198 326.246 199.523 336.921 186.396 336.921ZM186.396 289.766C173.524 289.766 163.049 300.24 163.049 313.113C163.049 325.985 173.524 336.46 186.396 336.46C199.268 336.46 209.743 325.985 209.743 313.113C209.743 300.24 199.268 289.766 186.396 289.766Z" fill="#180159"/>
<path d="M186 332.964C175.58 332.964 167.102 324.486 167.102 314.065C167.102 303.645 175.58 295.167 186 295.167C196.42 295.167 204.899 303.645 204.899 314.065C204.899 324.486 196.42 332.964 186 332.964ZM186 295.78C175.914 295.78 167.708 303.985 167.708 314.071C167.708 324.158 175.914 332.363 186 332.363C196.087 332.363 204.292 324.158 204.292 314.071C204.292 303.985 196.087 295.78 186 295.78Z" fill="#180159"/>
<path d="M185.982 302.452L179.695 312.981C179.67 313.024 179.713 313.072 179.755 313.048L186.043 310.244C186.043 310.244 186.073 310.22 186.073 310.202V302.482C186.073 302.433 186.006 302.415 185.982 302.458V302.452Z" fill="#180159"/>
<path d="M193.07 313.099L186.661 302.442C186.637 302.399 186.57 302.417 186.57 302.466V310.198C186.57 310.198 186.582 310.234 186.601 310.24L193.009 313.165C193.052 313.183 193.094 313.135 193.07 313.099Z" fill="#180159"/>
<path d="M179.59 313.652L179.523 313.682L185.993 317.694C186.023 317.712 186.066 317.694 186.066 317.651V310.836C186.066 310.8 186.029 310.775 185.999 310.794L179.59 313.652Z" fill="#180159"/>
<path d="M186.122 324.723L186.037 319.741C186.037 319.741 186.025 319.71 186.012 319.698L179.919 316.057C179.877 316.033 179.822 316.087 179.853 316.13L186.031 324.754C186.061 324.79 186.122 324.772 186.122 324.723Z" fill="#180159"/>
<path d="M192.787 316.049L186.602 319.751C186.602 319.751 186.578 319.775 186.578 319.793L186.627 324.709C186.627 324.758 186.687 324.776 186.718 324.739L192.853 316.122C192.884 316.079 192.835 316.024 192.787 316.049Z" fill="#180159"/>
<path d="M193.165 313.781L186.653 310.807C186.622 310.795 186.586 310.813 186.586 310.85V313.714L186.604 317.683C186.604 317.72 186.647 317.744 186.677 317.726L193.244 313.811L193.171 313.775L193.165 313.781Z" fill="#180159"/>
<g opacity="0.32">
<path d="M185.77 310.034L180.37 312.441L185.679 303.55V303.6L185.77 303.441V310.034Z" fill="black" stroke="black" stroke-width="0.606889"/>
<path d="M192.383 312.546L186.874 310.03V303.384L192.383 312.546Z" fill="black" stroke="black" stroke-width="0.606889"/>
<path d="M185.763 317.194L180.169 313.725L185.763 311.231V317.194Z" fill="black" stroke="black" stroke-width="0.606889"/>
<path d="M185.735 319.887L185.804 323.917L180.807 316.941L185.735 319.887Z" fill="black" stroke="black" stroke-width="0.606889"/>
<path d="M186.922 323.929L186.883 319.937L191.904 316.93L186.922 323.929Z" fill="black" stroke="black" stroke-width="0.606889"/>
<path d="M192.585 313.851L186.904 317.237L186.89 313.713V311.248L192.585 313.851Z" fill="black" stroke="black" stroke-width="0.606889"/>
</g>
</g>
<defs>
<linearGradient id="paint0_linear_5555_29237" x1="543.97" y1="158.775" x2="543.092" y2="154.6" gradientUnits="userSpaceOnUse">
<stop stop-color="#142A01"/>
<stop offset="0.460655" stop-color="#65DA00"/>
<stop offset="1" stop-color="#65DA00"/>
</linearGradient>
<linearGradient id="paint1_linear_5555_29237" x1="563.009" y1="99.2464" x2="562.131" y2="95.071" gradientUnits="userSpaceOnUse">
<stop stop-color="#142A01"/>
<stop offset="0.460655" stop-color="#65DA00"/>
<stop offset="1" stop-color="#65DA00"/>
</linearGradient>
<linearGradient id="paint2_linear_5555_29237" x1="209.063" y1="124.649" x2="242.992" y2="152.345" gradientUnits="userSpaceOnUse">
<stop stop-color="#52FF00"/>
<stop offset="1" stop-color="#00EEFD"/>
</linearGradient>
<linearGradient id="paint3_linear_5555_29237" x1="345.49" y1="242.807" x2="358.544" y2="246.157" gradientUnits="userSpaceOnUse">
<stop stop-color="#52FF00"/>
<stop offset="1" stop-color="#00EEFD"/>
</linearGradient>
<linearGradient id="paint4_linear_5555_29237" x1="371.772" y1="240.082" x2="384.97" y2="243.153" gradientUnits="userSpaceOnUse">
<stop stop-color="#52FF00"/>
<stop offset="1" stop-color="#00EEFD"/>
</linearGradient>
<linearGradient id="paint5_linear_5555_29237" x1="440.72" y1="265.31" x2="608.812" y2="393.892" gradientUnits="userSpaceOnUse">
<stop stop-color="#52FF00"/>
<stop offset="1" stop-color="#00EEFD"/>
</linearGradient>
<linearGradient id="paint6_linear_5555_29237" x1="294.79" y1="116.566" x2="468.009" y2="257.756" gradientUnits="userSpaceOnUse">
<stop stop-color="#52FF00"/>
<stop offset="1" stop-color="#00EEFD"/>
</linearGradient>
<linearGradient id="paint7_linear_5555_29237" x1="486.102" y1="57.6579" x2="392.71" y2="57.9643" gradientUnits="userSpaceOnUse">
<stop stop-color="#142A01"/>
<stop offset="0.460655" stop-color="#65DA00"/>
<stop offset="1" stop-color="#65DA00"/>
</linearGradient>
<linearGradient id="paint8_linear_5555_29237" x1="513.509" y1="120.548" x2="450.091" y2="113.107" gradientUnits="userSpaceOnUse">
<stop stop-color="#142A01"/>
<stop offset="0.460655" stop-color="#65DA00"/>
<stop offset="1" stop-color="#65DA00"/>
</linearGradient>
<linearGradient id="paint9_linear_5555_29237" x1="512.297" y1="57.1797" x2="474.802" y2="58.1406" gradientUnits="userSpaceOnUse">
<stop stop-color="#142A01"/>
<stop offset="0.460655" stop-color="#65DA00"/>
<stop offset="1" stop-color="#65DA00"/>
</linearGradient>
<linearGradient id="paint10_linear_5555_29237" x1="227.644" y1="257.199" x2="159.567" y2="261.337" gradientUnits="userSpaceOnUse">
<stop stop-color="#142A01"/>
<stop offset="0.460655" stop-color="#65DA00"/>
<stop offset="1" stop-color="#65DA00"/>
</linearGradient>
<linearGradient id="paint11_linear_5555_29237" x1="161.784" y1="302.64" x2="114.692" y2="299.584" gradientUnits="userSpaceOnUse">
<stop stop-color="#142A01"/>
<stop offset="0.460655" stop-color="#65DA00"/>
<stop offset="1" stop-color="#65DA00"/>
</linearGradient>
<linearGradient id="paint12_linear_5555_29237" x1="223.32" y1="317.905" x2="166.723" y2="316.391" gradientUnits="userSpaceOnUse">
<stop stop-color="#142A01"/>
<stop offset="0.460655" stop-color="#65DA00"/>
<stop offset="1" stop-color="#65DA00"/>
</linearGradient>
<clipPath id="clip0_5555_29237">
<rect width="433.386" height="275.834" fill="white" transform="translate(144.836 82.9865)"/>
</clipPath>
<clipPath id="clip1_5555_29237">
<rect width="14.4233" height="14.4233" fill="white" transform="translate(480.492 48.0554)"/>
</clipPath>
</defs>
</svg>
