<svg width="257" height="166" viewBox="0 0 257 166" fill="none" xmlns="http://www.w3.org/2000/svg">
<path opacity="0.5" d="M0 15C0 6.71572 6.71573 0 15 0H242C250.284 0 257 6.71573 257 15V151C257 159.284 250.284 166 242 166H15C6.71573 166 0 159.284 0 151V15Z" fill="#1C2D23"/>
<rect x="41" y="55" width="152" height="97" rx="10" fill="#294434"/>
<rect x="51" y="29" width="129" height="114" rx="6" fill="black"/>
<path d="M51 35C51 31.6863 53.6863 29 57 29H174C177.314 29 180 31.6863 180 35V38H51V35Z" fill="#294434"/>
<rect x="67" y="9" width="129" height="114" rx="4" fill="url(#paint0_linear_5082_2617)"/>
<path d="M67 13C67 10.7909 68.7909 9 71 9H192C194.209 9 196 10.7909 196 13V18H67V13Z" fill="#294434"/>
<path d="M74.5087 68.816C75.4081 66.5147 77.6262 65 80.0971 65H211.584C215.706 65 218.6 69.0597 217.257 72.9559L191.395 147.956C190.56 150.376 188.282 152 185.722 152H50.7867C46.5623 152 43.6607 147.751 45.1983 143.816L74.5087 68.816Z" fill="#364E3F"/>
<rect x="77" y="31" width="55" height="5" rx="2.5" fill="white"/>
<rect x="77" y="47" width="29" height="5" rx="2.5" fill="white"/>
<path d="M179.5 98.7363C189.633 98.7363 198.069 105.996 199.896 115.598C202.517 114.402 205.431 113.736 208.5 113.736C219.967 113.736 229.264 123.033 229.264 134.5C229.264 135.093 229.236 135.681 229.188 136.262C229.236 136.835 229.264 137.414 229.264 138C229.264 149.191 220.191 158.264 209 158.264H160C148.809 158.264 139.736 149.191 139.736 138C139.736 127.209 148.171 118.389 158.808 117.771C159.686 107.113 168.615 98.7363 179.5 98.7363Z" fill="url(#paint1_linear_5082_2617)" stroke="#65DA00" stroke-width="0.527026"/>
<path d="M198.793 129.885L199.788 129.693C200.36 129.584 200.818 129.619 200.864 129.774C200.909 129.924 200.803 130.472 200.63 130.994C200.454 131.516 200.209 132.412 200.08 132.988C199.954 133.564 199.728 134.511 199.58 135.092C199.433 135.673 199.228 136.314 199.127 136.516C199.027 136.72 198.866 136.901 198.77 136.92C198.674 136.94 197.723 136.055 196.659 134.951C195.593 133.848 194.479 132.736 194.183 132.475C193.887 132.217 193.648 131.865 193.649 131.695C193.652 131.514 194.036 131.283 194.574 131.139C195.155 130.983 195.464 130.787 195.418 130.605C195.378 130.446 195.085 129.776 194.768 129.117C194.451 128.458 193.695 127.328 193.087 126.612C192.482 125.895 191.417 124.92 190.726 124.445C190.035 123.97 188.741 123.339 187.849 123.044C186.957 122.749 185.447 122.488 184.492 122.463C183.096 122.426 182.312 122.555 180.483 123.126C178.447 123.761 178.054 123.969 176.708 125.12C175.883 125.827 174.813 127.007 174.332 127.742C173.852 128.479 173.246 129.725 172.981 130.51C172.535 131.834 172.47 131.913 172.081 131.591C171.85 131.401 171.279 130.821 170.812 130.303C170.346 129.785 169.932 129.231 169.894 129.072C169.856 128.912 170.087 128.222 170.406 127.538C170.728 126.853 171.441 125.709 171.995 124.992C172.549 124.275 173.469 123.272 174.044 122.761C174.619 122.25 175.782 121.424 176.631 120.925C177.624 120.341 178.869 119.833 180.127 119.498C181.2 119.213 182.768 118.961 183.608 118.935C184.449 118.912 185.802 118.997 186.615 119.127C187.427 119.256 188.944 119.707 189.982 120.133C191.021 120.556 192.548 121.445 193.374 122.103C194.2 122.761 195.194 123.659 195.583 124.097C195.971 124.534 196.606 125.362 196.989 125.936C197.374 126.51 197.939 127.634 198.793 129.885Z" fill="white"/>
<path d="M195.496 136.987C195.727 137.161 196.312 137.697 196.797 138.177C197.283 138.658 197.718 139.177 197.76 139.335C197.805 139.493 197.57 140.169 197.242 140.838C196.914 141.507 196.245 142.632 195.756 143.335C195.268 144.039 194.239 145.162 193.47 145.831C192.701 146.5 191.417 147.396 190.617 147.822C189.818 148.248 188.361 148.813 187.383 149.075C186.391 149.343 184.789 149.568 183.763 149.582C182.751 149.6 181.28 149.477 180.489 149.312C179.699 149.149 178.383 148.741 177.56 148.405C176.739 148.071 175.452 147.349 174.703 146.806C173.954 146.263 172.992 145.467 172.565 145.04C172.14 144.612 171.323 143.555 170.75 142.694C170.174 141.831 169.487 140.548 168.741 138.553L167.937 138.769C167.494 138.888 167.041 138.871 166.93 138.731C166.818 138.591 167.129 136.959 167.62 135.103C168.113 133.248 168.641 131.692 168.799 131.648C168.957 131.603 169.423 131.946 169.839 132.411C170.252 132.876 171.312 133.949 172.194 134.796C173.076 135.643 173.836 136.464 173.88 136.622C173.929 136.786 173.584 137.061 173.076 137.269C172.372 137.556 172.214 137.726 172.311 138.089C172.379 138.342 172.696 139.06 173.019 139.685C173.339 140.311 174.104 141.399 174.715 142.107C175.325 142.813 176.308 143.714 176.896 144.108C177.486 144.502 178.692 145.077 179.578 145.389C180.465 145.701 181.979 146.002 182.942 146.059C184.451 146.149 185.01 146.064 186.963 145.44C188.614 144.913 189.566 144.469 190.465 143.807C191.143 143.305 192.188 142.259 192.785 141.483C193.382 140.705 194.142 139.305 194.475 138.369C195.023 136.821 195.115 136.697 195.496 136.987Z" fill="white"/>
<defs>
<linearGradient id="paint0_linear_5082_2617" x1="233.847" y1="-39.5346" x2="58.7396" y2="106.31" gradientUnits="userSpaceOnUse">
<stop stop-color="#1B3926"/>
<stop offset="1" stop-color="#4B9F6B"/>
</linearGradient>
<linearGradient id="paint1_linear_5082_2617" x1="220.75" y1="158.349" x2="203.469" y2="98.1977" gradientUnits="userSpaceOnUse">
<stop stop-color="#142A01"/>
<stop offset="0.460655" stop-color="#65DA00"/>
<stop offset="1" stop-color="#65DA00"/>
</linearGradient>
</defs>
</svg>
