<svg width="14" height="13" viewBox="0 0 14 13" fill="none" xmlns="http://www.w3.org/2000/svg">
<path fill-rule="evenodd" clip-rule="evenodd" d="M3.23089 0.000307994C3.27311 -0.00250637 3.32095 0.0143798 3.33784 0.0340804C3.35473 0.053781 3.49826 0.425277 3.65868 0.85869C3.8191 1.2921 3.98796 1.7227 4.0358 1.81557C4.08365 1.91408 4.19904 2.06042 4.30598 2.16737C4.42981 2.2912 4.55927 2.38408 4.69999 2.45444C4.81538 2.51072 4.96173 2.57545 5.02364 2.60078C5.08556 2.6233 5.36418 2.72743 5.64281 2.82875C5.92143 2.93288 6.21694 3.04264 6.29574 3.07078C6.39424 3.10737 6.45053 3.14396 6.45897 3.18054C6.46741 3.2115 6.46741 3.26216 6.45897 3.29312C6.45053 3.3297 6.39143 3.36911 6.28167 3.40851C6.19442 3.44228 5.92987 3.53797 5.69909 3.62521C5.4655 3.70964 5.17562 3.81659 5.05179 3.86162C4.92796 3.90665 4.75628 3.97982 4.67185 4.02767C4.58742 4.0727 4.45233 4.16276 4.37634 4.2303C4.29754 4.29785 4.18496 4.42731 4.12305 4.52018C4.06113 4.61024 3.95137 4.8382 3.8782 5.02395C3.80502 5.2097 3.66149 5.59527 3.55455 5.87952C3.45041 6.16659 3.34628 6.41706 3.32658 6.43676C3.30688 6.45646 3.26467 6.47335 3.23371 6.47335C3.20556 6.47335 3.16335 6.45646 3.14365 6.43676C3.12676 6.41706 2.9973 6.09623 2.8594 5.72754C2.72149 5.35605 2.56952 4.95641 2.52167 4.84102C2.47383 4.72563 2.38095 4.55677 2.31622 4.46671C2.24868 4.37946 2.12766 4.25282 2.04604 4.1909C1.96724 4.12617 1.84341 4.04737 1.77305 4.01078C1.70269 3.97701 1.29179 3.8194 0.858382 3.65898C0.424969 3.49857 0.053473 3.3494 0.0337724 3.32408C0.0140718 3.29875 0 3.2509 0 3.21713C0 3.16928 0.030958 3.13833 0.118203 3.09893C0.185748 3.06797 0.568502 2.92162 0.970957 2.77246C1.37341 2.6233 1.76461 2.46851 1.8406 2.42629C1.9194 2.38408 2.05167 2.28557 2.1361 2.20677C2.22335 2.12515 2.33874 1.98725 2.39221 1.89719C2.44568 1.80432 2.6258 1.3709 2.78904 0.929049C2.95227 0.487193 3.10143 0.0988108 3.12113 0.0622241C3.14083 0.0228229 3.18023 0.000307994 3.23089 0.000307994ZM9.43376 2.87096C9.46753 2.87096 9.51819 2.88785 9.54633 2.90755C9.57448 2.92725 9.68424 3.18336 9.794 3.47887C9.90376 3.77156 10.0107 4.05581 10.0304 4.1121C10.0529 4.16557 10.1542 4.43856 10.2584 4.71719C10.3597 4.99581 10.4694 5.27443 10.5032 5.33635C10.5342 5.39826 10.6073 5.51647 10.6636 5.60371C10.7227 5.68814 10.8241 5.81479 10.8916 5.88515C10.962 5.95832 11.0858 6.06808 11.1702 6.13C11.2547 6.19473 11.4151 6.29042 11.522 6.34389C11.6318 6.39736 11.8344 6.48179 11.9723 6.52964C12.113 6.5803 12.3213 6.65629 12.4367 6.70131C12.5521 6.74353 12.8138 6.83922 13.0136 6.91239C13.2163 6.98557 13.4864 7.08407 13.6187 7.1291C13.751 7.17694 13.8833 7.23886 13.9142 7.267C13.9518 7.30265 13.9686 7.3505 13.9649 7.41054C13.9621 7.46119 13.9424 7.51748 13.9227 7.53718C13.903 7.55688 13.3542 7.77359 12.7041 8.01844C11.9723 8.29143 11.4545 8.50251 11.3391 8.57287C11.2378 8.63478 11.0689 8.76706 10.9648 8.86838C10.8578 8.96688 10.7115 9.13856 10.6411 9.24832C10.5708 9.35526 10.4694 9.55227 10.416 9.68454C10.3653 9.814 10.3034 9.96598 10.2837 10.0223C10.2612 10.0757 10.1036 10.5063 9.92909 10.9792C9.75741 11.4492 9.59418 11.86 9.56885 11.8854C9.54352 11.9163 9.48442 11.936 9.42531 11.936C9.33284 11.936 9.27117 11.8614 9.23513 11.7762C9.19328 11.6774 9.13436 11.531 9.07352 11.3732C8.9722 11.1002 8.83148 10.7202 8.76112 10.5289C8.69358 10.3347 8.61759 10.132 8.59789 10.0786C8.57538 10.0223 8.53035 9.90688 8.49939 9.81682C8.46843 9.72957 8.39526 9.56634 8.34178 9.45939C8.28831 9.34963 8.18418 9.18921 8.111 9.09916C8.03783 9.01191 7.92244 8.88808 7.8549 8.82616C7.78735 8.76425 7.67759 8.677 7.61568 8.63197C7.55095 8.58976 7.42711 8.51658 7.34268 8.47437C7.25825 8.43215 7.03029 8.33928 6.8361 8.26892C6.64191 8.19856 6.40268 8.1085 6.30137 8.07191C6.20005 8.03251 5.92987 7.93401 5.69628 7.84676C5.4655 7.76233 5.20095 7.66383 5.1137 7.63287C5.02083 7.5991 4.93921 7.54844 4.92233 7.51748C4.90826 7.48652 4.89418 7.42742 4.89418 7.39083C4.89418 7.35143 4.92233 7.29796 4.95329 7.26982C4.98424 7.24449 5.33041 7.10377 5.71879 6.95742C6.10999 6.81389 6.52652 6.6591 6.64753 6.61407C6.76574 6.56904 6.96837 6.49305 7.09783 6.44239C7.22448 6.39455 7.4046 6.31012 7.49747 6.25665C7.59035 6.20036 7.74232 6.0906 7.83238 6.0118C7.92244 5.93299 8.06035 5.78665 8.13352 5.68814C8.20951 5.58683 8.30801 5.42922 8.35304 5.33635C8.40088 5.24347 8.5022 4.99018 8.581 4.77347C8.65981 4.55677 8.74424 4.33443 8.76394 4.28096C8.78645 4.22467 8.90184 3.91509 9.02005 3.59144C9.16639 3.1918 9.25927 2.97791 9.3043 2.93569C9.3437 2.90192 9.39998 2.87378 9.43376 2.87096Z" fill="url(#paint0_linear_5032_8361)"/>
<path fill-rule="evenodd" clip-rule="evenodd" d="M2.11118 8.94746C2.13764 8.9457 2.16763 8.95627 2.17822 8.9686C2.1888 8.98094 2.27877 9.21351 2.37933 9.48485C2.47989 9.7562 2.58573 10.0258 2.61573 10.0839C2.64572 10.1456 2.71805 10.2372 2.78508 10.3042C2.86271 10.3817 2.94386 10.4398 3.03206 10.4839C3.10439 10.5191 3.19613 10.5596 3.23494 10.5755C3.27375 10.5896 3.4484 10.6548 3.62305 10.7182C3.7977 10.7834 3.98294 10.8521 4.03234 10.8698C4.09408 10.8927 4.12936 10.9156 4.13466 10.9385C4.13995 10.9578 4.13995 10.9896 4.13466 11.0089C4.12936 11.0319 4.09232 11.0565 4.02351 11.0812C3.96883 11.1023 3.803 11.1622 3.65834 11.2169C3.51191 11.2697 3.33021 11.3367 3.25258 11.3649C3.17496 11.3931 3.06735 11.4389 3.01442 11.4688C2.9615 11.497 2.87682 11.5534 2.82919 11.5957C2.77979 11.638 2.70923 11.719 2.67041 11.7772C2.6316 11.8335 2.5628 11.9763 2.51693 12.0925C2.47107 12.2088 2.38109 12.4502 2.31406 12.6282C2.24878 12.8079 2.18351 12.9647 2.17116 12.977C2.15881 12.9894 2.13235 13 2.11294 13C2.0953 13 2.06884 12.9894 2.05649 12.977C2.04591 12.9647 1.96475 12.7639 1.87831 12.533C1.79187 12.3005 1.6966 12.0503 1.66661 11.978C1.63662 11.9058 1.57841 11.8001 1.53783 11.7437C1.49549 11.6891 1.41963 11.6098 1.36847 11.571C1.31908 11.5305 1.24145 11.4811 1.19735 11.4582C1.15325 11.4371 0.895681 11.3384 0.624003 11.238C0.352324 11.1376 0.119456 11.0442 0.107107 11.0283C0.0947582 11.0125 0.0859375 10.9825 0.0859375 10.9614C0.0859375 10.9314 0.105343 10.912 0.160032 10.8874C0.202371 10.868 0.442295 10.7764 0.694568 10.683C0.946842 10.5896 1.19206 10.4927 1.23969 10.4663C1.28909 10.4398 1.372 10.3782 1.42493 10.3288C1.47961 10.2777 1.55194 10.1914 1.58546 10.135C1.61898 10.0769 1.73189 9.80553 1.83421 9.5289C1.93653 9.25228 2.03003 9.00913 2.04238 8.98622C2.05473 8.96155 2.07942 8.94746 2.11118 8.94746Z" fill="url(#paint1_linear_5032_8361)"/>
<defs>
<linearGradient id="paint0_linear_5032_8361" x1="1.34666" y1="0.852574" x2="12.686" y2="11.6667" gradientUnits="userSpaceOnUse">
<stop stop-color="#52FF00"/>
<stop offset="1" stop-color="#00EEFD"/>
</linearGradient>
<linearGradient id="paint1_linear_5032_8361" x1="0.476732" y1="9.23674" x2="4.25198" y2="12.3139" gradientUnits="userSpaceOnUse">
<stop stop-color="#52FF00"/>
<stop offset="1" stop-color="#00EEFD"/>
</linearGradient>
</defs>
</svg>
