<svg width="87" height="84" viewBox="0 0 87 84" fill="none" xmlns="http://www.w3.org/2000/svg">
<rect opacity="0.5" width="87" height="83.9739" rx="18.913" fill="#1D2D24"/>
<path d="M48.4019 15.9949C49.0746 16.3842 49.0655 17.3586 48.3856 17.7352L44.9503 19.6381C44.6432 19.8082 44.2693 19.8048 43.9653 19.6291L41.9983 18.4921C41.6885 18.313 41.3067 18.3131 40.997 18.4924L21.3749 29.8496C21.3706 29.8521 21.3679 29.8567 21.3679 29.8617C21.3679 29.8667 21.3706 29.8713 21.3749 29.8738L40.9986 41.2346C41.3074 41.4134 41.4976 41.7432 41.4976 42.1001V63.1124C41.4976 63.8828 42.332 64.3639 42.9987 63.9778L61.1283 53.4795C61.4371 53.3007 61.6272 52.971 61.6272 52.6142V40.7551C61.6272 40.3998 61.8157 40.0713 62.1223 39.8919L65.4902 37.9217C66.1568 37.5317 66.9951 38.0125 66.9951 38.7848V55.7087C66.9951 56.0655 66.805 56.3953 66.4962 56.5741L41.9986 70.7569C41.6887 70.9364 41.3065 70.9364 40.9965 70.7569L16.499 56.5741C16.1901 56.3953 16 56.0655 16 55.7087V27.3383C16 26.9815 16.1901 26.6517 16.499 26.4729L40.9967 12.29C41.3065 12.1106 41.6886 12.1106 41.9985 12.2899L48.4019 15.9949ZM59.0211 15.5401C59.1219 15.2872 59.2962 15.0703 59.5216 14.9175C59.7469 14.7647 60.013 14.683 60.2853 14.683C60.5575 14.683 60.8236 14.7647 61.0489 14.9175C61.2743 15.0703 61.4486 15.2872 61.5494 15.5401L62.2284 17.1827C63.3683 19.9598 65.5296 22.1941 68.2673 23.4256L70.1944 24.2845C70.4408 24.3985 70.6494 24.5806 70.7956 24.8094C70.9418 25.0381 71.0195 25.304 71.0195 25.5754C71.0195 25.8469 70.9418 26.1128 70.7956 26.3415C70.6494 26.5703 70.4408 26.7524 70.1944 26.8664L68.1546 27.7736C65.4851 28.9715 63.3612 31.1261 62.2016 33.8125L61.5387 35.3316C61.4355 35.579 61.2614 35.7903 61.0384 35.9389C60.8153 36.0876 60.5533 36.1669 60.2853 36.1669C60.0172 36.1669 59.7552 36.0876 59.5321 35.9389C59.3091 35.7903 59.135 35.579 59.0318 35.3316L58.3716 33.8152C57.2113 31.1268 55.0853 28.9711 52.4132 27.7736L50.3734 26.8664C50.1263 26.7527 49.9169 26.5706 49.7701 26.3415C49.6234 26.1125 49.5454 25.8461 49.5454 25.5741C49.5454 25.3021 49.6234 25.0357 49.7701 24.8067C49.9169 24.5776 50.1263 24.3955 50.3734 24.2818L52.3005 23.4229C55.0387 22.1926 57.201 19.9593 58.3421 17.1827L59.0211 15.5401Z" fill="#65DA01"/>
</svg>
