<svg width="87" height="84" viewBox="0 0 87 84" fill="none" xmlns="http://www.w3.org/2000/svg">
<rect opacity="0.5" width="87" height="83.9739" rx="18.913" fill="#1D2D24"/>
<path d="M19.0703 23.1953H67.9453M55.7266 53.7422H46.5625M31.2891 41.5234L37.3984 47.6328L31.2891 53.7422M16.0156 56.1865V26.8615C16.0156 23.44 16.0156 21.7279 16.6815 20.421C17.2672 19.2715 18.2012 18.3375 19.3507 17.7518C20.6576 17.0859 22.3696 17.0859 25.7912 17.0859H61.2256C64.6472 17.0859 66.3556 17.0859 67.6624 17.7518C68.8119 18.3375 69.7491 19.2715 70.3347 20.421C71 21.7266 71 23.4366 71 26.8515V56.1954C71 59.6102 71 61.3178 70.3347 62.6234C69.7491 63.7729 68.8119 64.71 67.6624 65.2956C66.3569 65.9609 64.6493 65.9609 61.2345 65.9609H25.7813C22.3663 65.9609 20.6563 65.9609 19.3507 65.2956C18.2012 64.71 17.2672 63.7729 16.6815 62.6234C16.0156 61.3166 16.0156 59.6081 16.0156 56.1865Z" stroke="#65DA01" stroke-width="6.10937" stroke-linecap="round" stroke-linejoin="round"/>
</svg>
