<svg width="87" height="84" viewBox="0 0 87 84" fill="none" xmlns="http://www.w3.org/2000/svg">
<rect opacity="0.5" width="87" height="83.9739" rx="18.913" fill="#1D2D24"/>
<path d="M16.7422 63.0816C16.7422 63.5887 17.1533 63.9998 17.6604 63.9998H69.3588C69.8659 63.9998 70.2769 63.5887 70.2769 63.0816V60.7367C70.2769 60.2296 69.8659 59.8185 69.3588 59.8185H21.8416C21.3345 59.8185 20.9235 59.4074 20.9235 58.9003V19.968C20.9235 19.4609 20.5124 19.0498 20.0053 19.0498H17.6604C17.1533 19.0498 16.7422 19.4609 16.7422 19.968V63.0816ZM24.0603 55.7881C24.0605 55.7879 24.0608 55.7877 24.0611 55.7877H69.1366C69.6437 55.7877 70.0547 55.3767 70.0547 54.8696V24.8694C70.0547 24.0709 69.1057 23.653 68.5166 24.1922L60.7576 31.2943C60.5052 31.5253 60.1454 31.5968 59.8239 31.4799L51.9033 28.5995C51.5474 28.4701 51.1486 28.5724 50.899 28.8571L42.1679 38.8171C41.9193 39.1008 41.5224 39.2035 41.1674 39.0761L32.5331 35.9779C32.1929 35.8559 31.8127 35.9448 31.5618 36.205L24.3153 43.725C24.1504 43.8961 24.0582 44.1245 24.0582 44.3621V55.7873C24.0582 55.7883 24.0595 55.7888 24.0603 55.7881Z" fill="#65DA01"/>
</svg>
