<svg width="87" height="84" viewBox="0 0 87 84" fill="none" xmlns="http://www.w3.org/2000/svg">
<rect opacity="0.5" width="87" height="83.9739" rx="18.913" fill="#1D2D24"/>
<path fill-rule="evenodd" clip-rule="evenodd" d="M43.1574 14.5361C43.7195 14.5361 44.4748 14.5589 44.8325 14.5873C45.1903 14.6213 45.7297 14.6725 46.025 14.7009C46.3203 14.7293 46.8484 14.7974 47.1891 14.8429C47.5298 14.8883 48.0181 14.9679 48.268 15.0133C48.5178 15.0587 49.0289 15.161 49.4036 15.2405C49.7784 15.3144 50.1475 15.4053 50.227 15.4337C50.3065 15.4677 50.4826 15.5189 50.6245 15.553C50.7665 15.587 51.1356 15.695 51.4479 15.7859C51.7602 15.8824 52.2315 16.0358 52.4984 16.1324C52.7653 16.2233 53.1968 16.388 53.4637 16.4959C53.7306 16.5982 54.1111 16.7516 54.3155 16.8368C54.5199 16.922 55.1332 17.2117 55.6783 17.49C56.2234 17.7627 56.8253 18.0751 57.0127 18.1887C57.2001 18.2967 57.4954 18.4728 57.6658 18.575C57.8304 18.6773 58.279 18.967 58.6595 19.2113C59.0343 19.4612 59.5226 19.802 59.7384 19.9668C59.9542 20.1315 60.187 20.3076 60.2494 20.353C60.3119 20.3985 60.6185 20.6484 60.9309 20.9097C61.2432 21.1654 61.8167 21.6709 62.2085 22.0345C62.6003 22.3924 63.2136 23.0059 63.5713 23.3978C63.9291 23.7841 64.4288 24.3522 64.6786 24.6532C64.9285 24.9543 65.3259 25.4656 65.5701 25.7894C65.8086 26.1075 66.1436 26.579 66.314 26.8289C66.4843 27.0789 66.8591 27.681 67.1487 28.1638C67.4326 28.6467 67.8812 29.4647 68.1368 29.9816C68.3923 30.4986 68.7728 31.3393 68.9772 31.8562C69.1873 32.3732 69.4826 33.1741 69.6416 33.6456C69.7949 34.1114 70.005 34.8044 70.1015 35.1794C70.198 35.5543 70.3627 36.2814 70.4706 36.7983C70.5785 37.3153 70.7034 38.0651 70.7545 38.4741C70.7999 38.8774 70.8681 39.3773 70.9022 39.5818C70.9362 39.7863 70.976 40.7577 70.993 41.7404C71.0101 42.7686 70.9987 43.8309 70.9646 44.2399C70.9306 44.6318 70.8624 45.2965 70.8113 45.7168C70.7602 46.1372 70.6864 46.6996 70.641 46.9666C70.5955 47.2336 70.482 47.8073 70.3911 48.2447C70.2946 48.6821 70.1413 49.307 70.0504 49.6364C69.9595 49.9659 69.8346 50.3976 69.7722 50.6021C69.7097 50.8066 69.5677 51.227 69.4598 51.5394C69.3463 51.8519 69.2043 52.2495 69.1362 52.4199C69.068 52.5903 68.9772 52.8062 68.9374 52.9028C68.892 52.9993 68.8068 53.1982 68.7444 53.3572C68.6876 53.5106 68.4888 53.948 68.3071 54.3229C68.1254 54.6978 67.8642 55.2091 67.7279 55.459C67.5916 55.709 67.4213 56.0157 67.3475 56.1407C67.2793 56.2657 67.0919 56.5724 66.9386 56.8224C66.7853 57.0723 66.5184 57.4927 66.3424 57.7597C66.1664 58.0267 65.8824 58.4357 65.7064 58.6686C65.536 58.9015 65.3543 59.1457 65.3032 59.2082C65.2578 59.2707 64.9966 59.5888 64.724 59.9183C64.4515 60.2478 64.0369 60.7306 63.8041 60.9919C63.5656 61.2589 63.1795 61.6679 62.9467 61.9008C62.7139 62.1394 62.2766 62.5541 61.9814 62.8211C61.6861 63.088 61.1977 63.5084 60.9025 63.7584C60.6072 64.0083 60.1188 64.3889 59.8236 64.6104C59.5283 64.8263 59.091 65.1331 58.8582 65.2921C58.6254 65.4512 58.2166 65.7182 57.9497 65.8829C57.6828 66.0533 57.3137 66.2749 57.1263 66.3828C56.9389 66.4907 56.4563 66.752 56.0474 66.9622C55.6386 67.1724 54.9912 67.4905 54.5994 67.6609C54.2076 67.837 53.5886 68.0983 53.2195 68.2403C52.8561 68.3824 52.5211 68.496 52.4814 68.496C52.4416 68.496 52.3848 68.5187 52.3564 68.5471C52.3224 68.5755 52.0725 68.6721 51.7886 68.7516C51.5047 68.8368 50.9709 68.9902 50.5961 69.0981C50.2213 69.2004 49.7103 69.331 49.4604 69.3765C49.2106 69.4276 48.9267 69.4957 48.8358 69.5241C48.745 69.5525 48.2453 69.6378 47.7285 69.7173C47.2118 69.7968 46.3941 69.9047 45.9114 69.9559C45.2527 70.0354 44.5883 70.0581 43.2426 70.0524C41.9592 70.0524 41.221 70.024 40.6305 69.9616C40.1762 69.9047 39.4607 69.8139 39.0405 69.7514C38.6203 69.6889 38.1604 69.615 38.0184 69.581C37.8765 69.5525 37.5074 69.4787 37.195 69.4105C36.8827 69.3424 36.4341 69.2344 36.2013 69.1719C35.9685 69.1095 35.4802 68.9675 35.1224 68.8538C34.7647 68.7459 34.2536 68.5812 33.9867 68.4903C33.7198 68.3937 33.3621 68.2574 33.1918 68.1835C33.0214 68.104 32.8624 68.0415 32.8397 68.0415C32.8113 68.0415 32.6864 67.9904 32.5558 67.9336C32.4195 67.8711 32.0447 67.7064 31.7154 67.5587C31.386 67.411 30.8011 67.1269 30.4093 66.9168C30.0175 66.7123 29.3815 66.3544 28.9897 66.1215C28.5979 65.8886 27.996 65.5023 27.6553 65.2694C27.3146 65.0365 26.7751 64.6502 26.4628 64.4116C26.1505 64.1787 25.6394 63.7697 25.3271 63.5027C25.0148 63.2357 24.2709 62.5314 23.6747 61.9406C23.0785 61.3441 22.363 60.5886 22.0848 60.2591C21.8065 59.9296 21.5226 59.5831 21.4545 59.4922C21.3863 59.3957 21.1535 59.0889 20.9434 58.7992C20.7333 58.5095 20.4494 58.1175 20.3131 57.9187C20.1825 57.7199 19.9213 57.3336 19.7452 57.0496C19.5635 56.7656 19.2342 56.2089 19.0071 55.7999C18.7856 55.3909 18.4279 54.6922 18.2064 54.2377C17.9906 53.7833 17.6613 53.0277 17.4739 52.5619C17.2865 52.0904 17.0537 51.4542 16.9515 51.1418C16.8493 50.8294 16.7186 50.409 16.6562 50.2045C16.5937 50 16.4802 49.591 16.4007 49.2956C16.3268 49.0002 16.1849 48.3867 16.094 47.9323C16.0032 47.4778 15.8896 46.8643 15.8442 46.5689C15.7987 46.2735 15.7079 45.4896 15.6397 44.8363C15.5375 43.8138 15.5262 43.4048 15.5489 41.9677C15.5659 41.0474 15.617 39.9226 15.6681 39.4682C15.7136 39.0138 15.7817 38.4514 15.8215 38.2185C15.8555 37.9856 15.9577 37.3948 16.0543 36.9119C16.1451 36.4291 16.3268 35.6452 16.4518 35.1794C16.5767 34.7079 16.7868 33.9921 16.9231 33.5888C17.065 33.1798 17.2524 32.6458 17.3433 32.3959C17.4341 32.1459 17.5761 31.7881 17.6556 31.6006C17.7408 31.4131 17.8316 31.2086 17.86 31.1461C17.8884 31.0837 18.0985 30.6349 18.3313 30.152C18.5641 29.6692 18.8878 29.0443 19.0468 28.7603C19.2058 28.4763 19.3364 28.2434 19.3364 28.232C19.3364 28.2263 19.5011 27.9593 19.7055 27.6356C19.9099 27.3174 20.1995 26.88 20.3472 26.6699C20.4948 26.454 20.7787 26.0563 20.9831 25.7837C21.1876 25.511 21.4317 25.1929 21.5226 25.0736C21.6134 24.9543 21.9201 24.5794 22.1983 24.2499C22.4822 23.9205 23.1296 23.2274 23.6463 22.7105C24.1687 22.1936 24.8445 21.5516 25.1568 21.2847C25.4691 21.0177 26.0313 20.5632 26.406 20.2792C26.7808 19.9952 27.1158 19.7395 27.1442 19.7111C27.1726 19.6884 27.536 19.4498 27.9392 19.1772C28.3424 18.9102 28.8989 18.558 29.1771 18.3989C29.4497 18.2399 29.6995 18.1092 29.7279 18.1092C29.7563 18.1092 29.7904 18.0865 29.8017 18.0638C29.8074 18.0354 30.273 17.7854 30.8352 17.5071C31.3974 17.223 31.9993 16.9333 32.1696 16.8652C32.34 16.7913 32.6977 16.6436 32.9646 16.5357C33.2315 16.4278 33.5609 16.3028 33.7028 16.2573C33.8448 16.2062 34.0889 16.121 34.2423 16.0642C34.4013 16.0017 34.7817 15.8824 35.094 15.7859C35.4063 15.695 35.8549 15.5643 36.0877 15.4962C36.3206 15.428 36.8089 15.3087 37.1666 15.2348C37.5244 15.1553 38.0241 15.0587 38.2739 15.0133C38.5238 14.9679 39.0121 14.8883 39.3528 14.8429C39.6935 14.7918 40.233 14.7293 40.5453 14.7009C40.8576 14.6668 41.3403 14.6213 41.6242 14.5929C41.9081 14.5702 42.5952 14.5418 43.1574 14.5361ZM39.8355 19.1317C39.1655 19.2283 38.6033 19.3192 38.5863 19.3305C38.5692 19.3419 38.3023 19.4044 37.99 19.4726C37.6777 19.5407 37.178 19.6657 36.8827 19.7566C36.5874 19.8418 36.1275 19.9838 35.8606 20.069C35.5937 20.1542 35.1849 20.3019 34.9521 20.3928C34.7192 20.4837 34.3218 20.6428 34.0719 20.7507C33.8221 20.8586 33.3507 21.0745 33.0214 21.2335C32.6921 21.3983 32.1412 21.6823 31.8005 21.8754C31.4598 22.0629 30.8409 22.4378 30.4377 22.7048C30.0345 22.9718 29.4554 23.3751 29.1601 23.5967C28.8648 23.8239 28.3026 24.284 27.9108 24.6248C27.519 24.9657 26.9966 25.4485 26.7411 25.6928C26.4855 25.9427 26.088 26.3631 25.8609 26.6301C25.6281 26.8971 25.2476 27.3458 25.0148 27.6299C24.782 27.9196 24.4356 28.3683 24.2426 28.624C24.0552 28.8853 23.7769 29.2943 23.6236 29.5272C23.476 29.7601 23.1977 30.2089 23.016 30.5213C22.8286 30.8337 22.4766 31.4983 22.2324 31.9982C21.9882 32.4981 21.6986 33.123 21.5907 33.39C21.4828 33.657 21.3352 34.0262 21.2671 34.2137C21.1989 34.4011 21.0626 34.8101 20.9548 35.1226C20.8525 35.435 20.6879 35.9974 20.5913 36.3723C20.4948 36.7472 20.3415 37.4345 20.2506 37.906C20.1541 38.3718 20.0405 39.1274 19.9951 39.5818C19.9497 40.0363 19.8815 40.8543 19.8418 41.3996C19.7907 42.229 19.7964 42.5982 19.8702 43.6434C19.9213 44.3308 20.0008 45.1885 20.0519 45.5464C20.0973 45.9043 20.1995 46.5064 20.279 46.8814C20.3528 47.2563 20.4948 47.8698 20.5913 48.2447C20.6879 48.6196 20.8809 49.2729 21.0229 49.6932C21.1592 50.1136 21.392 50.7555 21.5396 51.1134C21.6816 51.4713 21.9087 51.9882 22.045 52.2609C22.1813 52.5392 22.2892 52.7721 22.2892 52.7892C22.2892 52.8062 22.4311 53.0789 22.6129 53.397C22.7889 53.7208 22.9592 54.0332 22.9933 54.0957C23.0274 54.1639 23.1693 54.3968 23.3113 54.624C23.4533 54.8512 23.7429 55.2886 23.953 55.5897C24.1631 55.8908 24.3845 56.2032 24.4356 56.277C24.4867 56.3509 24.7252 56.6463 24.958 56.936C25.1909 57.22 25.5316 57.6347 25.7133 57.8506C25.8893 58.0664 26.3379 58.5379 26.707 58.9015C27.0704 59.2593 27.6383 59.7819 27.9676 60.066C28.297 60.3443 28.6944 60.6795 28.8478 60.8045C29.0068 60.9294 29.3872 61.2078 29.6995 61.4293C30.0118 61.6452 30.4831 61.9633 30.75 62.1337C31.0112 62.3041 31.3065 62.4916 31.4031 62.5427C31.4939 62.5995 31.88 62.8097 32.2548 63.0085C32.6296 63.213 33.1293 63.463 33.3621 63.5709C33.5949 63.6788 33.964 63.8436 34.1855 63.9401C34.4069 64.031 34.6852 64.1446 34.8101 64.1844C34.935 64.2242 35.0656 64.2753 35.094 64.298C35.1224 64.3151 35.4688 64.44 35.8606 64.565C36.2524 64.69 36.7464 64.849 36.9679 64.9115C37.1894 64.974 37.6096 65.0819 37.9048 65.1501C38.2001 65.2183 38.6203 65.3035 38.8418 65.3489C39.0632 65.3944 39.5346 65.4682 39.8923 65.5193C40.25 65.5705 40.71 65.6329 40.9144 65.6614C41.1188 65.6841 41.8854 65.7238 42.6179 65.7466C43.4697 65.7693 44.2817 65.7579 44.8609 65.7182C45.3606 65.6841 45.9625 65.6273 46.1953 65.5875C46.4282 65.5534 46.9676 65.4682 47.3878 65.3944C47.808 65.3262 48.4213 65.2012 48.7506 65.1274C49.08 65.0478 49.4888 64.9399 49.6592 64.8888C49.8295 64.8377 50.2554 64.7013 50.5961 64.5934C50.9368 64.4798 51.516 64.2753 51.8738 64.1333C52.2315 63.9969 52.9129 63.6959 53.3785 63.4743C53.8499 63.2471 54.5142 62.9006 54.8549 62.7074C55.1956 62.5086 55.8487 62.0996 56.3029 61.8042C56.7572 61.5032 57.3421 61.0828 57.609 60.8669C57.8759 60.6568 58.1939 60.4011 58.3131 60.2989C58.438 60.1966 58.7958 59.8842 59.1081 59.6002C59.4261 59.3161 59.9485 58.8049 60.2665 58.4641C60.5901 58.1232 61.1466 57.487 61.4987 57.0496C61.8508 56.6122 62.3221 55.993 62.5435 55.6692C62.765 55.3511 62.9467 55.0614 62.9467 55.033C62.9467 55.0046 62.9637 54.9705 62.9921 54.9591C63.0148 54.9535 63.117 54.8058 63.2249 54.6353C63.3271 54.4649 63.4691 54.232 63.5316 54.1241C63.594 54.0162 63.8041 53.6242 64.0029 53.255C64.2016 52.8914 64.3663 52.579 64.3663 52.5619C64.3663 52.5449 64.4458 52.3745 64.5423 52.1757C64.6389 51.9825 64.8376 51.5167 64.9909 51.1418C65.1386 50.7669 65.3543 50.2045 65.4622 49.8921C65.5758 49.5796 65.7348 49.0797 65.82 48.7843C65.8995 48.489 66.0414 47.9095 66.1323 47.5062C66.2231 47.0972 66.3367 46.5519 66.3821 46.2849C66.4276 46.0179 66.5071 45.4555 66.5582 45.0352C66.6036 44.6148 66.6661 43.8479 66.6944 43.331C66.7228 42.8141 66.7342 42.0585 66.7172 41.6552C66.7001 41.2462 66.6661 40.6895 66.6377 40.4055C66.6036 40.1215 66.5411 39.5477 66.49 39.1274C66.4389 38.707 66.3254 38.0026 66.2345 37.5652C66.1436 37.1278 65.9903 36.4859 65.8938 36.1451C65.7973 35.8042 65.6553 35.3157 65.5758 35.0657C65.4906 34.8158 65.343 34.3841 65.2351 34.1C65.1329 33.816 65.0193 33.5377 64.9909 33.4752C64.9625 33.4127 64.883 33.2196 64.8149 33.0491C64.7411 32.8787 64.5083 32.3788 64.2868 31.9414C64.071 31.504 63.7587 30.9189 63.5997 30.6349C63.435 30.3509 63.1625 29.9078 62.9864 29.6408C62.8161 29.3738 62.5322 28.9534 62.3561 28.7035C62.1858 28.4536 61.7429 27.8798 61.3738 27.4254C61.0047 26.9766 60.346 26.2495 59.9087 25.8064C59.4715 25.369 58.7844 24.7328 58.3756 24.3919C57.9667 24.0568 57.308 23.5399 56.8992 23.2558C56.4903 22.9661 56.0077 22.631 55.8203 22.5117C55.6329 22.3924 55.2524 22.1652 54.9685 22.0004C54.6846 21.8357 54.1281 21.5403 53.7193 21.3358C53.3104 21.1313 52.7653 20.8757 52.4984 20.762C52.2315 20.6484 51.8738 20.5007 51.7034 20.4326C51.5331 20.3701 51.1469 20.2281 50.8516 20.1258C50.5564 20.0236 50.0453 19.8588 49.716 19.7679C49.3866 19.6714 48.8642 19.5407 48.5519 19.4726C48.2396 19.4044 47.9727 19.3419 47.9557 19.3305C47.9386 19.3192 47.3878 19.234 46.7348 19.1374C46.0818 19.0408 45.1108 18.9386 44.577 18.9045C44.0432 18.8761 43.3845 18.8534 43.1006 18.8591C42.8167 18.8591 42.2432 18.8818 41.823 18.9102C41.4028 18.9329 40.5056 19.0352 39.8355 19.1317ZM53.2877 25.2667C53.3388 25.2667 53.441 25.352 53.5205 25.4542C53.5943 25.5565 53.7874 25.8916 53.9464 26.204C54.1111 26.5165 54.2701 26.8744 54.3041 26.9993C54.3439 27.1243 54.3723 27.3799 54.3723 27.5674C54.3723 27.7548 54.3439 27.9991 54.3098 28.107C54.2757 28.2206 54.2133 28.3911 54.1678 28.4933C54.1224 28.5956 54.0884 28.6921 54.0884 28.7035C54.0884 28.7205 53.9975 28.925 53.8896 29.1579C53.7817 29.3965 53.6909 29.6124 53.6909 29.6408C53.6909 29.6749 53.8669 29.8112 54.077 29.9532C54.2871 30.0896 54.6278 30.3793 54.8322 30.5895C55.0366 30.8053 55.3035 31.1234 55.4285 31.3052C55.5477 31.487 55.6783 31.6347 55.7067 31.6347C55.7408 31.6347 55.8657 31.5836 55.9906 31.5154C56.1155 31.4529 56.4506 31.3109 56.7288 31.1916C57.0979 31.0439 57.3534 30.9757 57.6374 30.9587C57.9156 30.9416 58.1314 30.9644 58.3472 31.0325C58.5175 31.0893 58.9207 31.2711 59.2444 31.4415C59.5623 31.6063 59.8747 31.7881 59.9371 31.8449C59.9996 31.9017 60.0507 31.9812 60.0564 32.0266C60.0564 32.0778 60.0223 32.1459 59.9826 32.18C59.9258 32.2368 59.8803 32.2368 59.7668 32.1743C59.6873 32.1346 59.4829 32.021 59.3125 31.9244C59.1421 31.8221 58.8355 31.6631 58.6311 31.5722C58.4267 31.4756 58.1484 31.3734 58.0065 31.3507C57.8588 31.3166 57.6374 31.3222 57.467 31.3563C57.3137 31.3847 57.1604 31.4302 57.1263 31.4529C57.0979 31.4756 56.9446 31.5438 56.7856 31.6006C56.6323 31.6574 56.3768 31.7653 55.9338 31.9869L56.161 32.0607C56.2916 32.1062 56.4903 32.2425 56.6323 32.3959C56.8197 32.6004 56.8765 32.7083 56.9048 32.9242C56.9276 33.0719 56.9276 33.282 56.9048 33.39C56.8878 33.5036 56.814 33.6797 56.7402 33.7876C56.6664 33.9069 56.496 34.0432 56.3427 34.1171C56.1723 34.2023 56.0417 34.3102 55.9849 34.4295C55.9338 34.5318 55.8203 34.7136 55.7351 34.8385C55.6499 34.9635 55.4455 35.1623 55.2751 35.2759C55.1048 35.3895 54.8265 35.5145 54.6562 35.5486C54.4631 35.594 54.1281 35.6111 53.776 35.594C53.3842 35.5713 53.1173 35.5259 52.9129 35.4463C52.7482 35.3782 52.5892 35.3214 52.5552 35.3214C52.5211 35.3214 52.5154 35.3611 52.5495 35.4236C52.5779 35.4804 52.629 35.7133 52.6687 35.9462C52.7085 36.1905 52.7255 36.5597 52.7085 36.7983C52.6915 37.0369 52.646 37.3039 52.612 37.3948C52.5609 37.5425 52.5665 37.5822 52.6517 37.6561C52.7085 37.7072 53.1117 37.9742 54.3439 38.7524L54.6846 38.7127C54.872 38.6956 55.2411 38.6502 55.508 38.6218C55.7748 38.5934 56.2291 38.565 56.5187 38.565C56.9332 38.565 57.0525 38.582 57.0866 38.6502C57.1093 38.6956 57.1036 38.7524 57.0752 38.7752C57.0525 38.7979 56.7288 38.8717 56.3654 38.9456C56.002 39.0138 55.349 39.1103 54.1167 39.258L53.4353 38.991C53.0606 38.849 52.6744 38.69 52.5722 38.6445C52.47 38.5991 52.3848 38.5763 52.3848 38.5877C52.3848 38.6047 52.5325 38.9001 53.0378 39.8715L53.6057 40.0476C53.918 40.1442 54.4404 40.3089 54.7698 40.4169C55.0991 40.5191 55.4171 40.6327 55.4796 40.6611C55.542 40.6895 55.7181 40.7634 55.8657 40.8315C56.0133 40.894 56.1269 40.9792 56.1155 41.019C56.0985 41.0644 55.9906 41.0872 55.7862 41.0758C55.6158 41.0701 55.3262 41.0247 55.1389 40.9792C54.9515 40.9338 54.3382 40.7861 53.776 40.6554C52.771 40.4225 52.7539 40.4112 52.5438 40.184C52.4246 40.059 52.328 39.9738 52.328 39.9965C52.328 40.0192 52.3735 40.2124 52.4359 40.4225C52.4927 40.6327 52.5779 40.8827 52.629 40.9736C52.6744 41.0701 52.9527 41.3655 53.2479 41.6268C53.5375 41.8938 53.935 42.2858 54.1338 42.4959C54.3268 42.7061 54.4858 42.9277 54.4858 42.9902C54.4858 43.0526 54.4688 43.1094 54.4461 43.1094C54.4234 43.1094 54.1338 42.922 53.8044 42.6891C53.4751 42.4562 52.9924 42.0756 52.7255 41.8484C52.328 41.5018 52.2088 41.3598 52.0441 41.0304C51.9362 40.8088 51.6864 40.2976 51.4933 39.8942C51.1526 39.1955 51.1299 39.1614 50.9879 39.1842C50.9028 39.2012 50.8289 39.2353 50.8176 39.258C50.8062 39.2807 50.8346 39.4625 50.8744 39.6557C50.9198 39.8488 51.0277 40.3828 51.1072 40.8315C51.1924 41.286 51.3343 42.0926 51.4252 42.6209C51.516 43.1549 51.6693 44.0751 51.7602 44.6659C51.8567 45.2624 51.9987 46.194 52.0725 46.7393C52.152 47.2904 52.2258 47.7732 52.2429 47.8187C52.2542 47.8698 52.3167 48.4151 52.3848 49.04C52.4473 49.6648 52.5268 50.3976 52.5552 50.6589C52.5892 50.9259 52.6404 51.4883 52.6687 51.9087C52.6971 52.3347 52.7539 53.5731 52.7937 54.6638C52.8505 56.2316 52.8448 57.0269 52.7937 58.4129C52.7539 59.3843 52.6971 60.3784 52.6687 60.6284C52.6404 60.8783 52.5722 61.2475 52.5154 61.4464C52.4586 61.6452 52.3848 61.8326 52.3451 61.861C52.3053 61.8838 52.2145 61.8894 52.1463 61.8724C52.0725 61.8497 51.9022 61.7304 51.7659 61.5997C51.6296 61.4748 51.3627 61.1623 51.1696 60.9124C50.9766 60.6624 50.6132 60.1398 50.3633 59.7479C50.1078 59.3616 49.8352 58.9128 49.7444 58.7538C49.6535 58.6004 49.415 58.18 49.2163 57.8165C49.0118 57.4586 48.6598 56.7712 48.427 56.2827C48.1941 55.7999 47.984 55.3511 47.95 55.2886C47.9216 55.2261 47.8364 54.9875 47.7569 54.749C47.6774 54.5161 47.5468 54.0332 47.4673 53.6696C47.3821 53.3118 47.2686 52.7494 47.2118 52.4199C47.155 52.0961 47.0641 51.3804 47.013 50.8294C46.9222 49.8523 46.9222 49.8296 47.0414 49.2104C47.1096 48.8582 47.2345 48.4265 47.3367 48.2163C47.4332 48.0175 47.632 47.671 47.7796 47.4494C47.9329 47.2336 48.1317 46.8984 48.2282 46.7109C48.3191 46.5235 48.427 46.2565 48.4667 46.1145C48.5065 45.9781 48.5576 45.7225 48.586 45.5464C48.6143 45.376 48.6882 44.6205 48.7563 43.8706C48.8188 43.1208 48.8926 42.2801 48.9267 41.9961C48.9607 41.7177 49.0289 41.0133 49.0913 40.4339C49.1708 39.6443 49.1765 39.3659 49.1311 39.3148C49.0913 39.2751 48.9721 39.2296 48.8642 39.2126C48.7563 39.1955 48.4667 39.0819 48.2282 38.9569C47.984 38.832 47.7739 38.7297 47.7569 38.7297C47.7399 38.7297 47.7967 38.8945 47.8762 39.0876C48.0011 39.3773 48.0295 39.5307 48.0295 39.951C48.0295 40.343 48.0011 40.5532 47.9045 40.8315C47.8307 41.036 47.6888 41.3769 47.5809 41.5871C47.473 41.7972 47.3026 42.104 47.1947 42.2687C47.0925 42.4335 46.8938 42.7061 46.7575 42.8765C46.6212 43.0526 46.2067 43.5469 45.8319 43.9843C45.4515 44.4217 44.6622 45.2681 44.0659 45.8645C43.4413 46.4894 42.6406 47.2165 42.1637 47.5971C41.7094 47.9607 41.2154 48.3413 41.0564 48.4435C40.9031 48.5458 40.6191 48.7446 40.4317 48.8752C40.2444 49.0116 40.074 49.1252 40.0513 49.1252C40.0286 49.1252 39.8128 49.2558 39.58 49.4092C39.3472 49.5683 39.1427 49.6932 39.1257 49.6932C39.1087 49.6932 38.9554 49.7841 38.785 49.8921C38.6146 50.0057 38.4613 50.0909 38.4443 50.0909C38.4273 50.0909 38.3194 50.1534 38.2058 50.2272C38.0866 50.3011 37.7458 50.4942 37.4506 50.6646C37.1553 50.8294 36.3603 51.244 35.6903 51.5849C35.0202 51.9257 33.9356 52.4426 33.2769 52.738C32.6239 53.0334 32.0731 53.2663 32.0561 53.2493C32.039 53.2322 32.1696 52.9198 32.3343 52.5506C32.5047 52.1813 32.7829 51.5906 32.9533 51.227C33.1179 50.8691 33.4473 50.1988 33.6801 49.7387C33.9129 49.2786 34.3218 48.5003 34.5886 48.0061C34.8612 47.5119 35.236 46.853 35.4234 46.5405C35.6108 46.2281 35.9969 45.6146 36.2808 45.1772C36.5591 44.7398 36.9054 44.2228 37.0474 44.024C37.195 43.8309 37.4335 43.5071 37.5812 43.3139C37.7345 43.1208 38.1604 42.6323 38.5295 42.2233C38.9042 41.82 39.58 41.1269 40.0399 40.6895C40.4999 40.2521 41.0734 39.7238 41.3062 39.508C41.5447 39.2921 42.0728 38.8717 42.476 38.565C42.8848 38.2639 43.3788 37.9231 43.5833 37.8151C43.7877 37.7015 44.1568 37.5368 44.4066 37.4516C44.7814 37.3209 44.9518 37.2925 45.372 37.2925C45.7922 37.2982 45.9455 37.3209 46.2408 37.4459C46.4338 37.5311 46.5872 37.5766 46.5758 37.5538C46.5644 37.5311 46.4793 37.3437 46.3771 37.1392C46.2805 36.9403 46.1613 36.6279 46.025 36.1167L45.7865 36.1507C45.6502 36.1678 45.0086 36.2303 44.3499 36.2928C43.6968 36.3609 42.811 36.4461 42.3908 36.4859C41.9706 36.5313 41.2154 36.5938 40.7157 36.6279C40.1762 36.6677 39.6368 36.7415 39.3812 36.8097C39.1484 36.8779 38.7907 37.0142 38.5863 37.1221C38.3818 37.2244 38.0525 37.4175 37.8481 37.5482C37.6436 37.6788 37.3597 37.8549 37.2121 37.9458C37.0644 38.0367 36.7919 38.1503 36.6158 38.2071C36.3433 38.2866 36.0877 38.3037 35.1508 38.298C34.2934 38.2923 33.8448 38.2639 33.3053 38.173C32.9135 38.1105 32.3286 38.0026 31.9993 37.9401C31.6699 37.8776 31.21 37.764 30.9772 37.6902C30.7444 37.6106 30.3071 37.4573 30.0118 37.338C29.7166 37.2244 29.1771 36.9858 28.8194 36.804C28.4616 36.6222 28.013 36.395 27.8256 36.2928C27.6383 36.1905 27.2805 35.9917 27.0307 35.8497C26.7808 35.7077 26.3833 35.4747 26.1505 35.3384C25.9177 35.1964 25.6224 35.0146 25.4975 34.9294C25.3726 34.8499 25.259 34.7704 25.242 34.7533C25.2249 34.7363 25.1397 34.6738 25.0432 34.617C24.9524 34.5602 24.6798 34.367 24.447 34.1966C24.2142 34.0205 23.8962 33.7479 23.7485 33.5945C23.5952 33.4354 23.4589 33.2536 23.4419 33.1912C23.4249 33.1287 23.4305 33.0491 23.4476 33.0094C23.4646 32.9696 23.5668 32.9014 23.669 32.8617C23.7712 32.8162 24.0438 32.7538 24.2766 32.7197C24.5094 32.6856 25.0489 32.6231 25.4691 32.589C25.929 32.5436 27.2181 32.5208 28.6774 32.5208C30.0232 32.5208 31.6586 32.5549 32.3116 32.589C32.9703 32.6288 33.9016 32.6969 34.3842 32.7424C34.8669 32.7878 35.7868 32.8844 36.4285 32.9639C37.0701 33.0378 38.1149 33.1798 38.7566 33.2707C39.3983 33.3673 40.409 33.5206 40.9996 33.6172C41.5958 33.7138 42.4987 33.8615 43.0154 33.9524C43.5322 34.0432 44.3101 34.1853 44.7473 34.2648C45.1846 34.35 45.6445 34.4409 45.7695 34.4693C45.8944 34.4977 46.025 34.5034 46.0534 34.475C46.0875 34.4522 46.1329 34.3727 46.1556 34.3102C46.1897 34.2023 46.1499 34.1682 45.7865 33.9921C45.5594 33.8899 45.054 33.6513 44.6622 33.4638C44.0035 33.1514 43.9297 33.0946 43.5833 32.7026C43.3788 32.4754 43.1063 32.1573 42.9814 31.9982C42.8564 31.8449 42.6293 31.5381 42.4817 31.3166C42.3397 31.1007 42.2204 30.8905 42.2204 30.8508C42.2204 30.811 42.2659 30.7769 42.3227 30.7769C42.3738 30.7769 42.8394 31.2086 44.2817 32.6799L44.8155 32.8674C45.1221 32.9753 45.3265 33.0207 45.3038 32.981C45.2811 32.9412 45.2187 32.8787 45.1619 32.839C45.1051 32.7992 45.0199 32.6913 44.9745 32.5947C44.9291 32.5038 44.8496 32.2823 44.7984 32.1005C44.753 31.9187 44.6111 31.3393 44.4918 30.8053C44.3726 30.277 44.2647 29.7033 44.2533 29.5272C44.242 29.2829 44.2533 29.2148 44.3215 29.2148C44.3726 29.2148 44.4748 29.3908 44.5827 29.6408C44.6792 29.8794 44.9063 30.544 45.088 31.1177C45.2641 31.6972 45.4458 32.2084 45.4855 32.2539C45.5253 32.305 45.8206 32.4754 46.1329 32.6401C46.4509 32.8049 46.7064 32.9185 46.7064 32.8958C46.7064 32.873 46.5644 32.4811 46.0647 31.203L46.1897 30.2089C46.2578 29.6635 46.3657 28.9989 46.4282 28.7319C46.4906 28.4706 46.5701 28.2263 46.5985 28.1922C46.6364 28.1544 46.6723 28.1638 46.7064 28.2206C46.7405 28.2718 46.7632 28.5388 46.7575 28.8171C46.7575 29.1011 46.7348 29.5499 46.7007 29.8112C46.6723 30.0782 46.6326 30.4645 46.5815 31.0325L47.1152 31.8392C47.4048 32.2823 47.6774 32.6629 47.7172 32.6799C47.7569 32.6969 47.9102 32.6856 48.0579 32.6515C48.2055 32.6174 48.5576 32.589 48.8358 32.5947C49.1197 32.5947 49.4831 32.6288 49.6421 32.6685C49.8068 32.7083 49.9431 32.7367 49.9431 32.7367C49.9431 32.7367 49.892 32.572 49.8295 32.3675C49.7614 32.1687 49.6989 31.8221 49.6762 31.6006C49.6592 31.3677 49.6705 31.0553 49.7103 30.8337C49.75 30.6292 49.8522 30.3509 49.9431 30.2089C50.034 30.0725 50.227 29.8396 50.3803 29.6976C50.528 29.5499 50.7494 29.4079 50.8687 29.3681C51.0334 29.317 51.0901 29.2602 51.1356 29.1182C51.164 29.0159 51.2889 28.8398 51.4025 28.7262C51.5217 28.6069 51.6921 28.4876 51.7772 28.4536C51.8624 28.4195 52.0328 28.3911 52.1577 28.3911C52.2826 28.3911 52.4814 28.4308 52.6006 28.482C52.7142 28.5331 52.8845 28.641 52.9697 28.7205C53.0606 28.8057 53.1684 28.9534 53.2139 29.0443C53.2593 29.1409 53.2934 29.2488 53.2934 29.2886C53.2934 29.3284 53.3161 29.3568 53.3388 29.3624C53.3615 29.3624 53.4069 29.2886 53.4467 29.2034C53.4808 29.1182 53.617 28.7887 53.7533 28.4763C53.9407 28.0332 53.9918 27.8401 53.9975 27.5674C53.9975 27.2947 53.9577 27.1357 53.7987 26.7721C53.6852 26.5222 53.4864 26.1472 53.3615 25.9371C53.2309 25.7269 53.1173 25.5053 53.1117 25.4485C53.1117 25.3917 53.1287 25.3292 53.1514 25.3065C53.1798 25.2838 53.2423 25.2667 53.2877 25.2667Z" fill="#65DA01"/>
</svg>
