<svg width="111" height="111" viewBox="0 0 111 111" fill="none" xmlns="http://www.w3.org/2000/svg">
<rect opacity="0.5" width="111" height="111" rx="25" fill="#1D2D24"/>
<path fill-rule="evenodd" clip-rule="evenodd" d="M55.5576 30.8384C49.3624 30.8384 43.7186 32.8847 40.379 34.5566C40.0772 34.7074 39.7961 34.8556 39.5341 34.9982C39.3515 35.0977 39.1785 35.1948 39.0155 35.289C38.5724 35.5452 38.4581 36.1221 38.7457 36.5455L41.8638 41.1359C41.9669 41.2878 42.1132 41.4052 42.2838 41.4731L43.8105 42.0807C50.7998 45.6069 60.1728 45.6069 67.1634 42.0807L68.9885 41.1336C69.1229 41.0639 69.238 40.962 69.3235 40.837L72.2555 36.5504C72.5462 36.1254 72.4316 35.5427 71.9883 35.2806C71.4932 34.9878 70.9863 34.7151 70.4688 34.4633C67.1456 32.8093 61.6362 30.8384 55.559 30.8384H55.5576ZM46.7223 37.1693C46.1708 37.0661 45.6221 36.9492 45.0767 36.8187C44.2548 36.622 44.1956 35.5557 44.9904 35.2683C47.9169 34.2099 51.6264 33.3071 55.5576 33.3071C57.5383 33.3071 59.4576 33.5364 61.2456 33.8994C62.1978 34.0928 62.1214 35.3911 61.1696 35.5859C59.181 35.9929 57.1687 36.4937 55.2147 37.0582C52.6637 37.7961 49.682 37.7166 46.7223 37.1693ZM68.8665 44.3892C68.7148 44.2244 68.4744 44.184 68.2744 44.2848C60.5856 48.1634 50.387 48.1634 42.6982 44.2848C42.5094 44.1891 42.2816 44.229 42.1402 44.3865C30.7081 57.1188 22.24 80.209 55.5576 80.209C88.8574 80.209 80.2039 56.7123 68.8665 44.3892ZM54.1326 56.4439C54.1326 55.9368 53.7104 55.5114 53.2315 55.678C52.8442 55.8127 52.4884 56.0338 52.193 56.3292C51.6785 56.8436 51.3895 57.5413 51.3895 58.2688C51.3895 58.9963 51.6785 59.694 52.193 60.2084C52.4884 60.5038 52.8442 60.7249 53.2315 60.8596C53.7104 61.0262 54.1326 60.6008 54.1326 60.0937V56.4439ZM57.5596 52.8255C57.1838 52.7783 56.8756 52.4757 56.8756 52.097C56.8756 51.7182 56.5686 51.4112 56.1899 51.4112H54.8184C54.4396 51.4112 54.1326 51.7182 54.1326 52.097C54.1326 52.4757 53.8244 52.7783 53.4486 52.8255C52.2458 52.9766 51.1196 53.5233 50.2533 54.3896C49.2245 55.4184 48.6465 56.8138 48.6465 58.2688C48.6465 59.7238 49.2245 61.1192 50.2533 62.1481C51.0642 62.9589 52.1027 63.4897 53.2187 63.6783C53.7187 63.7627 54.1326 64.166 54.1326 64.6731V68.3228C54.1326 68.8299 53.7102 69.256 53.2312 69.0896C52.4463 68.8168 51.8229 68.1975 51.5445 67.4127C51.4884 67.2382 51.3978 67.0766 51.2781 66.9377C51.1584 66.7987 51.0121 66.6852 50.8477 66.6038C50.6834 66.5224 50.5044 66.4748 50.3214 66.4637C50.1383 66.4527 49.9549 66.4785 49.782 66.5396C49.6091 66.6007 49.4502 66.6958 49.3147 66.8194C49.1792 66.943 49.0699 67.0925 48.9932 67.2591C48.9164 67.4256 48.8739 67.6059 48.8681 67.7892C48.8622 67.9725 48.8932 68.1551 48.9592 68.3262C49.3375 69.3959 50.0382 70.3221 50.9647 70.9772C51.7037 71.4997 52.5575 71.8293 53.4486 71.9412C53.8244 71.9884 54.1326 72.291 54.1326 72.6698C54.1326 73.0485 54.4396 73.3555 54.8184 73.3555H56.1899C56.5686 73.3555 56.8756 73.0485 56.8756 72.6698C56.8756 72.2911 57.1839 71.9885 57.5596 71.9412C58.7624 71.7901 59.8886 71.2435 60.7549 70.3772C61.7837 69.3483 62.3617 67.9529 62.3617 66.4979C62.3617 65.0429 61.7837 63.6475 60.7549 62.6187C59.944 61.8078 58.9055 61.277 57.7896 61.0885C57.2896 61.004 56.8756 60.6008 56.8756 60.0937V56.4439C56.8756 55.9368 57.298 55.5107 57.777 55.6772C58.562 55.9499 59.1853 56.5693 59.4637 57.354C59.5199 57.5286 59.6105 57.6901 59.7301 57.8291C59.8498 57.968 59.9962 58.0815 60.1605 58.163C60.3248 58.2444 60.5038 58.292 60.6868 58.303C60.8699 58.314 61.0533 58.2882 61.2262 58.2272C61.3991 58.1661 61.558 58.0709 61.6935 57.9473C61.829 57.8238 61.9384 57.6743 62.0151 57.5077C62.0918 57.3411 62.1343 57.1609 62.1401 56.9776C62.146 56.7943 62.115 56.6117 62.049 56.4406C61.6707 55.3708 60.9701 54.4447 60.0436 53.7896C59.3045 53.267 58.4508 52.9375 57.5596 52.8255ZM57.7768 63.9071C57.2978 63.7405 56.8756 64.166 56.8756 64.6731V68.3228C56.8756 68.8299 57.2978 69.2553 57.7768 69.0887C58.164 68.954 58.5198 68.733 58.8153 68.4376C59.3297 67.9231 59.6187 67.2254 59.6187 66.4979C59.6187 65.7704 59.3297 65.0727 58.8153 64.5583C58.5198 64.2629 58.164 64.0418 57.7768 63.9071Z" fill="#65DA01"/>
</svg>
