<svg width="111" height="111" viewBox="0 0 111 111" fill="none" xmlns="http://www.w3.org/2000/svg">
<rect opacity="0.5" width="111" height="111" rx="25" fill="#1D2D24"/>
<path d="M64.0052 58.5699C66.4771 58.5699 68.4786 60.574 68.4786 63.0433V74.5566C68.4786 75.743 68.0073 76.8808 67.1684 77.7197C66.3295 78.5587 65.1916 79.03 64.0052 79.03H34.6086C33.4222 79.03 32.2844 78.5587 31.4455 77.7197C30.6065 76.8808 30.1352 75.743 30.1352 74.5566V63.0433C30.1352 60.574 32.1393 58.5699 34.6086 58.5699H64.0052ZM77.558 63.63C78.1448 63.5665 78.7061 63.9952 78.7061 64.5854V77.1026C78.7111 77.5918 78.5288 78.0644 78.1967 78.4236C77.8646 78.7828 77.4077 79.0015 76.9196 79.0348C76.4315 79.0681 75.9491 78.9136 75.5713 78.6028C75.1934 78.2921 74.9486 77.8486 74.8871 77.3633L74.8692 77.1026V64.596C74.8692 64.0112 75.4207 63.5839 76.0028 63.6396C76.5202 63.689 77.0413 63.6858 77.558 63.63ZM76.7889 51.1364C78.0824 51.1364 79.323 51.6503 80.2377 52.5649C81.1523 53.4796 81.6662 54.7202 81.6662 56.0137C81.6662 57.3072 81.1523 58.5478 80.2377 59.4625C79.323 60.3771 78.0824 60.891 76.7889 60.891C75.4954 60.891 74.2548 60.3771 73.3402 59.4625C72.4255 58.5478 71.9116 57.3072 71.9116 56.0137C71.9116 54.7202 72.4255 53.4796 73.3402 52.5649C74.2548 51.6503 75.4954 51.1364 76.7889 51.1364ZM63.995 33C66.4669 33 68.4684 35.0041 68.4684 37.4734V48.9841C68.4684 50.1705 67.9971 51.3083 67.1582 52.1473C66.3192 52.9862 65.1814 53.4575 63.995 53.4575H34.5984C33.412 53.4575 32.2742 52.9862 31.4352 52.1473C30.5963 51.3083 30.125 50.1705 30.125 48.9841V37.4734C30.1251 36.3503 30.5476 35.2684 31.3087 34.4425C32.0697 33.6165 33.1135 33.1071 34.2329 33.0153L34.5984 33H63.995ZM76.7889 33.0077C77.2526 33.0078 77.7005 33.1759 78.0497 33.4809C78.3989 33.786 78.6257 34.2072 78.6882 34.6667L78.7061 34.9248V47.4227C78.7061 48.0125 78.1454 48.4411 77.5589 48.3781C77.0428 48.3228 76.5224 48.3198 76.0058 48.3694C75.4235 48.4253 74.8717 47.998 74.8717 47.4131V34.9248C74.8717 34.4164 75.0737 33.9287 75.4333 33.5692C75.7928 33.2097 76.2804 33.0077 76.7889 33.0077Z" fill="#65DA01"/>
</svg>
