<svg width="111" height="111" viewBox="0 0 111 111" fill="none" xmlns="http://www.w3.org/2000/svg">
<rect opacity="0.5" width="111" height="111" rx="25" fill="#1D2D24"/>
<path d="M28 32.745C28 32.3335 28.3335 32 28.745 32H45.9483C46.0953 32 46.2391 32.0435 46.3615 32.1251L56.8905 39.1444C57.0128 39.226 57.1566 39.2695 57.3037 39.2695H74.507C74.9184 39.2695 75.252 39.6031 75.252 40.0145V45.7941C75.252 46.2055 74.9184 46.5391 74.507 46.5391H42.1767C41.8441 46.5391 41.5517 46.7596 41.4604 47.0794L35.655 67.398C35.5191 67.8739 35.8764 68.3477 36.3713 68.3477H42.3822C42.7148 68.3477 43.0071 68.1272 43.0985 67.8074L46.9438 54.3489C47.0352 54.0291 47.3275 53.8086 47.6601 53.8086H85.1686C85.6636 53.8086 86.0209 54.2823 85.8849 54.7582L79.0411 78.7116C78.9497 79.0315 78.6574 79.252 78.3248 79.252H28.745C28.3335 79.252 28 78.9184 28 78.507V32.745Z" fill="#65DA01"/>
</svg>
