<svg width="207" height="43" viewBox="0 0 207 43" fill="none" xmlns="http://www.w3.org/2000/svg">
<g clip-path="url(#clip0_5576_30929)">
<path d="M29.4589 2.16479C31.0903 2.16479 32.5451 3.0465 33.2066 4.40939L43.8746 26.452L40.3405 33.5411L26.9904 5.73195C26.0642 3.80814 25.3591 2.68536 23.6394 2.16479H29.4589ZM44.4222 2.16479L50.1344 13.7249L55.9824 2.16479H44.4222ZM30.4164 40.5727C28.7851 40.5727 27.3302 39.691 26.6687 38.3281L12.4304 9.25396L15.9646 2.16479L32.8849 37.0055C33.8111 38.9293 34.5163 40.0511 36.2359 40.5727H30.4164ZM11.5592 34.2624L5.84793 22.7023L0 34.2624H11.5592ZM10.6016 22.5669L13.2959 28.0944L16.0538 22.5669H10.6016Z" fill="white"/>
</g>
<path fill-rule="evenodd" clip-rule="evenodd" d="M74.7537 1.57556C73.8909 3.62727 67.2143 20.0295 66.7684 21.1935C66.428 22.0812 66.497 22.1131 68.758 22.1131H71.0999L72.0509 19.6608L73.0016 17.2086H77.4307H81.8599L82.8106 19.6608L83.7616 22.1131H86.1574C88.2672 22.1131 88.5218 22.0277 88.2897 21.3978C88.1446 21.0043 86.148 16.0417 83.8523 10.3697L79.6786 0.0568102L77.5382 0.0498613C75.4502 0.0429133 75.3827 0.0801064 74.7537 1.57556ZM97.4574 11.078V22.1131H99.6954H101.934L102.046 15.1548L102.157 8.19661L104.976 12.732L107.794 17.2674L110.289 13.3676C111.661 11.2227 113.003 9.14032 113.271 8.74019C113.657 8.16269 113.763 9.46769 113.782 15.0629L113.806 22.1131H116.054H118.301V11.078V0.042914H115.873H113.445L110.685 4.73241C109.168 7.31135 107.891 9.38064 107.849 9.33036C107.806 9.28009 106.547 7.16994 105.052 4.64086L102.332 0.042914H99.8945H97.4574V11.078ZM135.505 0.962504C135.313 1.46807 133.386 6.23891 131.224 11.5635C129.062 16.8886 127.293 21.4403 127.293 21.679C127.293 21.9316 128.213 22.1131 129.491 22.1131H131.689L132.611 19.6478L133.533 17.1828L138.016 17.2977L142.499 17.4129L143.4 19.6608L144.301 21.9087L146.628 22.0313C147.907 22.0988 148.954 22.0121 148.954 21.8392C148.954 21.666 146.984 16.6908 144.576 10.7837L140.198 0.042914H138.027C136.151 0.042914 135.808 0.168387 135.505 0.962504ZM157.946 11.0567V22.1131H160.184H162.422L162.534 15.2864L162.646 8.45982L167.556 15.1843L172.466 21.9087L174.402 22.0334L176.338 22.158V11.1005V0.042914H174.1H171.862L171.75 6.65497L171.638 13.267L166.913 6.75715L162.188 0.247267L160.067 0.123839L157.946 0V11.0567ZM187.373 11.078V22.1131H191.849C197.505 22.1131 199.755 21.6202 202.181 19.8492C205.016 17.78 206.328 15.0192 206.35 11.0772C206.365 8.3977 206.209 7.72824 205.112 5.76399C203.613 3.08042 200.977 1.12844 197.986 0.486769C196.847 0.242771 193.993 0.042914 191.644 0.042914H187.373V11.078ZM191.869 11.078V17.6173H194.334C198.81 17.6173 201.084 15.8276 201.544 11.9436C202.067 7.52756 199.099 4.53869 194.192 4.53869H191.869V11.078ZM76.1024 9.20162C75.4841 10.8405 74.9785 12.3008 74.9785 12.4472C74.9785 12.5931 76.082 12.7128 77.4307 12.7128C78.7795 12.7128 79.883 12.5608 79.883 12.3744C79.883 11.9044 77.8288 6.85033 77.497 6.50416C77.3482 6.34926 76.7208 7.56312 76.1024 9.20162ZM137.803 6.43999C137.31 7.23697 135.464 12.4374 135.619 12.5918C135.708 12.6814 136.871 12.6989 138.204 12.6315L140.627 12.5085L139.332 9.28377C138.621 7.51039 137.932 6.23073 137.803 6.43999Z" fill="white"/>
<path fill-rule="evenodd" clip-rule="evenodd" d="M66.7025 34.1757C66.8432 34.5347 67.543 36.4723 68.2578 38.4822C69.4607 41.8646 69.6249 42.1282 70.4661 42.0234C71.2513 41.9258 71.5364 41.4542 72.5623 38.5556C74.4548 33.2095 74.4126 33.444 73.4585 33.586C72.7825 33.687 72.4542 34.2398 71.684 36.5726C71.1641 38.1471 70.6479 39.5259 70.5365 39.6363C70.4251 39.7466 69.8502 38.4166 69.2585 36.6803C68.3164 33.9159 68.075 33.5234 67.3147 33.5234C66.635 33.5234 66.502 33.6647 66.7025 34.1757ZM77.5967 37.7169L77.7004 41.9105L80.54 42.0193C83.3653 42.1278 83.3796 42.1233 83.3796 41.1806C83.3796 40.27 83.2935 40.2331 81.1555 40.2331C79.059 40.2331 78.9384 40.185 79.0487 39.3944C79.1509 38.6637 79.4137 38.5411 81.0896 38.4431C82.7138 38.348 83.0132 38.2172 83.0132 37.6044C83.0132 36.9718 82.7508 36.8782 80.9723 36.8782C79.0659 36.8782 78.9395 36.8231 79.0487 36.0395C79.1528 35.2966 79.4063 35.1881 81.2728 35.089C83.0799 34.9932 83.3796 34.8739 83.3796 34.2503C83.3796 33.5897 83.1103 33.5234 80.4363 33.5234H77.493L77.5967 37.7169ZM87.41 37.8373C87.41 41.745 87.4705 42.1397 88.0512 42.0272C88.5799 41.9243 88.7115 41.4244 88.8005 39.1804L88.9086 36.4581L90.9465 39.2971C93.7945 43.2644 94.1591 43.0888 94.2921 37.6849C94.3958 33.4813 94.3936 33.4686 93.5593 33.589C92.8053 33.6978 92.7049 33.9561 92.5396 36.2073L92.3564 38.7044L90.5596 36.1141C89.4428 34.5037 88.507 33.5234 88.0864 33.5234C87.4679 33.5234 87.41 33.8917 87.41 37.8373ZM97.6692 34.2689C97.6692 34.8467 97.9136 35.0144 98.7545 35.0144H99.8402L99.9453 38.4625C100.042 41.6261 100.111 41.9105 100.784 41.9105C101.456 41.9105 101.525 41.6261 101.622 38.4625L101.727 35.0144H102.813C103.654 35.0144 103.898 34.8467 103.898 34.2689C103.898 33.5819 103.654 33.5234 100.784 33.5234C97.9136 33.5234 97.6692 33.5819 97.6692 34.2689ZM107.196 36.4879C107.196 39.832 107.606 41.0822 108.902 41.6831C110.105 42.2408 111.059 42.2039 112.299 41.5515C113.655 40.8384 113.791 40.3911 113.791 36.6613C113.791 33.772 113.733 33.5234 113.058 33.5234C112.387 33.5234 112.325 33.772 112.325 36.4842C112.325 39.1215 112.236 39.5088 111.511 40.0254C110.463 40.7725 110.276 40.7579 109.394 39.8603C108.792 39.2475 108.661 38.6179 108.661 36.3191C108.661 33.772 108.596 33.5234 107.928 33.5234C107.257 33.5234 107.196 33.772 107.196 36.4879ZM117.901 37.7169C117.998 41.6268 118.054 41.9105 118.737 41.9105C119.335 41.9105 119.504 41.6 119.653 40.2331L119.837 38.5556L121.09 40.3263C121.799 41.3294 122.633 42.0969 123.013 42.0969C123.924 42.0969 123.856 41.531 122.768 40.0799C121.725 38.6895 121.646 38.3693 122.345 38.3693C123.568 38.3693 124.531 35.9508 123.77 34.7908C123.23 33.9681 121.854 33.5234 119.849 33.5234H117.797L117.901 37.7169ZM127.794 37.7169L127.897 41.9105L130.737 42.0193C133.562 42.1278 133.577 42.1233 133.577 41.1806C133.577 40.27 133.49 40.2331 131.353 40.2331C129.256 40.2331 129.135 40.185 129.246 39.3944C129.348 38.6637 129.611 38.5411 131.287 38.4431C132.911 38.348 133.21 38.2172 133.21 37.6044C133.21 36.9718 132.948 36.8782 131.169 36.8782C129.263 36.8782 129.137 36.8231 129.246 36.0395C129.35 35.2966 129.603 35.1881 131.47 35.089C133.277 34.9932 133.577 34.8739 133.577 34.2503C133.577 33.5897 133.307 33.5234 130.633 33.5234H127.69L127.794 37.7169ZM138.14 34.4385C136.5 36.107 137.157 37.7028 139.803 38.4777C140.795 38.7681 141.497 39.208 141.568 39.5834C141.724 40.4034 140.278 40.7702 138.936 40.251C137.815 39.8174 137.241 39.9986 137.241 40.7851C137.241 41.5072 139.622 42.2147 141.101 41.9325C143.203 41.5314 144.202 39.1595 142.81 37.8776C142.447 37.5436 141.499 37.1328 140.703 36.9643C139.614 36.734 139.256 36.4783 139.256 35.9295C139.256 35.0655 140.82 34.7427 141.97 35.3689C142.572 35.6966 142.778 35.6321 143.102 35.0155C143.442 34.3699 143.362 34.2089 142.544 33.8928C140.84 33.2334 139.114 33.4473 138.14 34.4385ZM119.653 36.1327C119.653 37.116 119.78 37.251 120.708 37.251C121.287 37.251 121.967 36.9994 122.218 36.6918C122.865 35.899 122.069 35.0144 120.708 35.0144C119.78 35.0144 119.653 35.1494 119.653 36.1327Z" fill="white"/>
<defs>
<clipPath id="clip0_5576_30929">
<rect width="55.9928" height="38.4184" fill="white" transform="translate(0 2.16479)"/>
</clipPath>
</defs>
</svg>
