<svg width="168" height="68" viewBox="0 0 168 68" fill="none" xmlns="http://www.w3.org/2000/svg">
<g clip-path="url(#clip0_5273_10883)">
<path d="M153.723 45.104H159.369L160.476 47.1628H153.582C152.813 47.1628 152.204 46.8717 151.757 46.2894C151.476 45.9255 151.336 45.52 151.336 45.0728V35.3088H153.723V45.104Z" fill="white"/>
<path d="M145.5 45.5875H140.306L141.586 43.5286H144.783L142.755 37.7108L139.449 47.1628H136.891L140.369 37.2429C140.879 35.8599 141.674 35.1632 142.755 35.1528C143.837 35.1632 144.627 35.8599 145.126 37.2429L148.62 47.1628H146.062L145.5 45.5875Z" fill="white"/>
<path d="M133.123 47.1628H130.721V37.3989C130.721 36.7022 131.023 36.1459 131.626 35.73C132.031 35.4492 132.484 35.3088 132.982 35.3088H136.524V37.3677H133.123V47.1628ZM131.173 35.3088L129.894 37.3677H127.539V35.3088H131.173Z" fill="white"/>
<path d="M122.094 35.3088H124.48V47.1628H122.094V35.3088Z" fill="white"/>
<path d="M111.292 37.3677V47.1628H108.906V37.3989C108.906 36.6918 109.208 36.1303 109.811 35.7144C110.216 35.444 110.663 35.3088 111.152 35.3088H114.381C115.826 35.3088 116.986 35.7404 117.859 36.6034C118.597 37.3417 118.967 38.2516 118.967 39.333V39.7853C118.967 41.1267 118.431 42.1769 117.36 42.936C116.528 43.5183 115.535 43.8094 114.381 43.8094H111.448L112.728 41.7506H114.381C115.358 41.7506 116.018 41.4126 116.361 40.7367C116.497 40.456 116.564 40.1389 116.564 39.7853V39.333C116.564 38.3971 116.144 37.7888 115.301 37.5081C115.02 37.4145 114.714 37.3677 114.381 37.3677H111.292Z" fill="white"/>
<path d="M103.102 45.5875H97.908L99.1873 43.5286H102.385L100.357 37.7108L97.0501 47.1628H94.4922L97.9704 37.2429C98.4801 35.8599 99.2757 35.1632 100.357 35.1528C101.438 35.1632 102.228 35.8599 102.728 37.2429L106.222 47.1628H103.663L103.102 45.5875Z" fill="white"/>
<path d="M84.7694 39.8165V42.6552C84.7694 43.4663 85.0606 44.1162 85.643 44.6049C86.0481 44.9377 86.49 45.104 86.9683 45.104H88.5594C89.2041 45.104 89.7502 44.8857 90.1971 44.4489C90.2594 44.3865 90.3115 44.3293 90.3532 44.2773L92.4274 45.8683C91.845 46.4194 90.946 46.8093 89.7291 47.0381C89.3028 47.1213 88.9129 47.1628 88.5594 47.1628H86.9683C85.6794 47.1628 84.5823 46.7053 83.6772 45.7903C82.8145 44.9168 82.3828 43.8718 82.3828 42.6552V39.8165C82.3828 38.5479 82.8405 37.4717 83.7553 36.5879C84.6598 35.7352 85.7314 35.3088 86.9683 35.3088H88.5594C89.568 35.3088 90.5458 35.5324 91.4921 35.9795C91.8868 36.1771 92.1986 36.385 92.4274 36.6034L90.3532 38.21C89.9894 37.742 89.4851 37.4665 88.8403 37.3833C88.7362 37.3729 88.6429 37.3677 88.5594 37.3677H86.9683C86.2509 37.3677 85.6739 37.6848 85.2374 38.3191C84.925 38.7662 84.7694 39.2654 84.7694 39.8165Z" fill="white"/>
<path d="M156.883 21.7413C156.883 20.7847 157.33 19.9737 158.224 19.3081C159.087 18.6739 160.116 18.3567 161.312 18.3567H162.903C163.87 18.3567 164.806 18.5803 165.71 19.0274C166.085 19.2249 166.387 19.4329 166.616 19.6513L164.525 21.2578C164.182 20.7795 163.714 20.504 163.122 20.4312C163.049 20.4208 162.976 20.4156 162.903 20.4156H161.312C160.532 20.4156 159.945 20.6339 159.55 21.0706C159.373 21.289 159.284 21.5126 159.284 21.7413C159.284 22.1468 159.716 22.4952 160.58 22.7864C160.85 22.88 161.307 23.0099 161.952 23.1763C163.512 23.5818 164.603 23.977 165.227 24.3617C166.246 24.9856 166.761 25.8071 166.771 26.8261C166.771 27.7723 166.314 28.5782 165.399 29.2437C164.494 29.8884 163.423 30.2107 162.186 30.2107H160.595C159.586 30.2107 158.609 29.9872 157.663 29.54C157.267 29.3425 156.955 29.1345 156.727 28.9161L158.786 27.3252C159.149 27.7828 159.659 28.0531 160.314 28.1363C160.418 28.1467 160.512 28.1519 160.595 28.1519H162.186C163.028 28.1519 163.662 27.9283 164.089 27.4812C164.276 27.2732 164.369 27.0549 164.369 26.8261C164.369 26.3685 163.938 25.989 163.075 25.6875C162.95 25.6355 162.196 25.4223 160.813 25.048C159.222 24.6216 158.141 24.107 157.569 23.5038C157.112 23.0047 156.883 22.4172 156.883 21.7413Z" fill="white"/>
<path d="M151.234 18.3567H153.62V30.2107H151.234V18.3567Z" fill="white"/>
<path d="M144.496 20.8043L141.844 28.4782H139.317L136.666 20.8043L135.761 30.2096H133.203L134.295 20.3364C134.399 19.4525 134.815 18.8339 135.542 18.4803C135.845 18.3452 136.161 18.2776 136.494 18.2776C137.212 18.2776 137.758 18.5531 138.132 19.1042C138.226 19.2394 138.303 19.385 138.366 19.5409L140.581 26.0295L142.795 19.5409C143.035 18.8963 143.497 18.4959 144.184 18.3399C144.35 18.2984 144.511 18.2776 144.667 18.2776C145.416 18.2776 146.004 18.5687 146.43 19.151C146.669 19.4941 146.814 19.8893 146.866 20.3364L147.959 30.2096H145.4L144.496 20.8043Z" fill="white"/>
<path d="M123.301 25.3755V28.1519H129.415L130.538 30.2107H123.16C122.401 30.2107 121.793 29.9248 121.336 29.3529C121.044 28.9785 120.898 28.5678 120.898 28.1206V20.4467C120.898 19.7501 121.2 19.1938 121.803 18.7778C122.209 18.4971 122.661 18.3567 123.16 18.3567H130.538L129.415 20.4156H123.301V23.3166H128.931V25.3755H123.301Z" fill="white"/>
<path d="M114.662 30.2107H112.26V20.4467C112.26 19.7501 112.562 19.1938 113.165 18.7778C113.57 18.4971 114.023 18.3567 114.522 18.3567H118.062V20.4156H114.662V30.2107ZM112.712 18.3567L111.433 20.4156H109.078V18.3567H112.712Z" fill="white"/>
<path d="M98.6672 20.4156V30.2107H96.2812V20.4467C96.2812 19.7397 96.5828 19.1782 97.1858 18.7623C97.5914 18.4919 98.0382 18.3567 98.5274 18.3567H101.756C103.201 18.3567 104.361 18.7882 105.234 19.6513C105.972 20.3896 106.342 21.2994 106.342 22.3808V22.8332C106.342 24.1849 105.806 25.2352 104.735 25.9839C104.329 26.2646 103.882 26.4778 103.393 26.6233L106.607 30.2107H103.627L100.664 26.8573H98.8234L100.103 24.7984H101.756C102.733 24.7984 103.393 24.4605 103.736 23.7846C103.872 23.5038 103.939 23.1867 103.939 22.8332V22.3808C103.939 21.445 103.519 20.8367 102.676 20.556C102.395 20.4624 102.089 20.4156 101.756 20.4156H98.6672Z" fill="white"/>
<path d="M90.4848 28.6351H85.2908L86.5701 26.5762H89.7673L87.7398 20.7584L84.4329 30.2104H81.875L85.3532 20.2905C85.863 18.9075 86.6585 18.2108 87.7398 18.2004C88.8211 18.2108 89.6111 18.9075 90.1106 20.2905L93.6045 30.2104H91.046L90.4848 28.6351Z" fill="white"/>
<path fill-rule="evenodd" clip-rule="evenodd" d="M0.0853926 42.4485C0.134373 42.1412 0.311449 41.9642 0.541264 41.7932C3.4535 39.6299 6.36497 37.4643 9.2712 35.2912C9.5319 35.0969 9.80616 34.9522 10.1061 34.8347C18.631 31.5053 27.1568 28.1767 35.6772 24.8353C40.8688 22.7993 46.0355 20.6954 51.4524 19.2996C51.6822 19.2409 51.8999 19.1769 52.1395 19.1965C54.5891 19.3908 57.0395 19.5798 59.4883 19.7772C59.6759 19.7923 59.8756 19.7712 60.0836 19.9022C60.177 20.3821 60.4716 20.8371 60.4807 21.4103C60.2245 21.4103 60.0112 21.4088 59.7988 21.4103C57.1269 21.4389 54.4542 21.4758 51.7816 21.4893C51.1931 21.4924 50.6491 21.6144 50.1051 21.8253C36.9884 26.9135 23.8731 32.004 10.7473 37.0681C9.40458 37.5863 8.1568 38.2273 6.97609 39.0499C4.75553 40.5986 2.49507 42.0893 0.216509 43.6266C-0.0517327 43.2191 -0.0396862 43.2191 0.0853926 42.4485Z" fill="white"/>
<path fill-rule="evenodd" clip-rule="evenodd" d="M1.28041 44.466C2.97577 43.4393 4.67112 42.4119 6.37251 41.3942C7.02879 41.0011 7.65045 40.5439 8.3723 40.2666C22.559 34.8154 36.7472 29.3656 50.9332 23.909C51.2579 23.784 51.5834 23.7162 51.9255 23.6816C53.9027 23.4849 55.8791 23.2824 57.8555 23.0835C58.8945 22.9788 59.9343 22.8793 60.9906 22.7747C61.1553 23.2763 61.3945 23.7208 61.4114 24.2488C59.0686 24.6992 56.7637 25.1278 54.4655 25.5895C53.422 25.7997 52.3474 25.8886 51.3453 26.2705C37.8405 31.4212 24.3372 36.5764 10.8347 41.7355C9.48289 42.2522 8.09271 42.6808 6.79673 43.3248C5.28974 44.0736 3.82118 44.8969 2.33153 45.6802C2.16727 45.7669 2.02186 45.9153 1.76868 45.8844C1.50345 45.5101 1.2239 45.1153 0.960938 44.7432C1.04156 44.5662 1.17493 44.5293 1.28041 44.466Z" fill="white"/>
<path fill-rule="evenodd" clip-rule="evenodd" d="M46.8952 30.2705C48.7466 29.57 50.5805 28.8145 52.4598 28.2013C54.5025 27.5347 56.5889 27.0037 58.6572 26.4161C59.6322 26.1397 60.6087 25.8693 61.6373 25.5815C61.6373 26.1156 61.6373 26.5811 61.6373 27.1445C42.3924 34.3811 23.1528 41.6152 3.88222 48.8615C3.49568 48.3139 3.13551 47.804 2.74219 47.245C4.11052 46.6387 5.38845 46.0014 6.71609 45.496C20.1049 40.4086 33.5012 35.3407 46.8952 30.2705Z" fill="white"/>
<path fill-rule="evenodd" clip-rule="evenodd" d="M59.1167 18.2545C57.4319 17.9796 55.7486 17.6934 54.063 17.4237C53.2907 17.2994 52.5403 17.142 51.7317 17.3906C49.1669 18.1777 46.5801 18.8925 44.0024 19.6413C42.2031 20.1633 40.3608 20.5572 38.6157 21.2404C29.399 24.8493 20.1944 28.4905 10.9852 32.1174C10.7253 32.2199 10.4789 32.3305 10.2588 32.5099C7.44458 34.8042 4.6303 37.0986 1.80698 39.3817C1.38351 39.7237 0.999987 40.1259 0.474051 40.3881C0.41302 39.9979 0.58482 39.6763 0.58482 39.3365C0.58482 38.9418 0.779969 38.6722 1.07232 38.4161C4.40652 35.5093 7.73391 32.5942 11.0561 29.6723C11.319 29.4419 11.6016 29.2799 11.9226 29.1526C17.741 26.8469 23.5565 24.5352 29.3734 22.2272C30.8375 21.6464 32.2721 20.9557 33.7791 20.5286C40.1114 18.7336 46.4664 17.0215 52.8115 15.2717C53.1121 15.1888 53.3902 15.1903 53.6893 15.2686C54.4933 15.4796 55.304 15.6649 56.1103 15.8667C57.0777 16.1093 58.0437 16.3601 59.0089 16.6065C59.1883 17.1691 59.3548 17.6911 59.5176 18.2018C59.3699 18.3148 59.2372 18.2749 59.1167 18.2545Z" fill="white"/>
<path fill-rule="evenodd" clip-rule="evenodd" d="M47.8157 34.5591C49.8283 33.8066 51.8801 33.1505 53.8286 32.2376C56.2963 31.0814 58.7512 29.8972 61.2149 28.7335C61.3718 28.6597 61.5201 28.4834 61.7568 28.6122C61.7568 29.0717 61.7568 29.5395 61.7568 30.032C61.6805 30.0825 61.5976 30.1458 61.5074 30.197C58.9199 31.6832 56.3339 33.1701 53.7434 34.6487C53.5053 34.7851 53.2431 34.8822 52.9847 34.9787C45.8001 37.6421 38.6149 40.3034 31.4296 42.9646C23.4064 45.9355 15.3825 48.9056 7.32546 51.8876C6.65331 51.441 5.97066 50.9875 5.19531 50.4715C5.49746 50.3555 5.68734 50.2802 5.87873 50.2087C19.859 44.9939 33.84 39.7844 47.8157 34.5591Z" fill="white"/>
<path fill-rule="evenodd" clip-rule="evenodd" d="M9.66671 53.0521C11.7645 52.283 13.8622 51.5124 15.9599 50.7419C28.4053 46.1674 40.8499 41.5937 53.2968 37.0237C53.6804 36.8828 54.0345 36.7043 54.3728 36.4761C56.671 34.9251 58.9744 33.3832 61.2777 31.8398C61.4491 31.7253 61.601 31.5716 61.8656 31.5234C61.8656 32.0327 61.8656 32.5147 61.8656 33.0661C59.4219 34.9583 56.9754 36.8519 54.5288 38.7471C54.3238 38.9061 54.091 39.0002 53.8484 39.0891C42.2914 43.3035 30.7366 47.524 19.181 51.7422C16.5846 52.6898 13.9858 53.6336 11.3832 54.5804C10.7201 54.1172 10.0239 53.7315 9.42188 53.2283C9.49943 53.0905 9.58764 53.0815 9.66671 53.0521Z" fill="white"/>
<path fill-rule="evenodd" clip-rule="evenodd" d="M53.2719 13.5798C46.0633 15.4908 38.8509 17.3882 31.6445 19.3045C30.1835 19.6932 28.6886 19.9711 27.2795 20.5315C22.4896 22.4342 17.7072 24.355 12.9195 26.263C12.5367 26.4167 12.2044 26.6216 11.9023 26.9063C8.43395 30.1784 4.95963 33.4445 1.48303 36.7076C1.33384 36.8484 1.21629 37.0436 0.9375 37.1023C1.04148 36.288 1.10327 35.5634 1.76484 34.9149C5.24596 31.5011 8.68563 28.0437 12.105 24.5689C12.8713 23.7916 13.6993 23.2108 14.7264 22.8259C18.3108 21.4829 21.7866 19.8875 25.5412 18.9701C35.0435 16.65 44.5081 14.1801 53.9893 11.7735C54.2108 11.717 54.4353 11.6469 54.6764 11.7501C55.732 12.2005 56.7922 12.6404 57.8471 13.0826C58.0453 13.6905 58.2329 14.2698 58.4567 14.9575C57.0115 14.4799 55.6914 14.0626 54.3863 13.6023C53.9983 13.4668 53.6547 13.4781 53.2719 13.5798Z" fill="white"/>
<path fill-rule="evenodd" clip-rule="evenodd" d="M54.2207 41.0275C54.5085 40.9235 54.7542 40.7857 54.9825 40.5838C57.0998 38.721 59.2224 36.8642 61.3465 35.0097C61.5287 34.8508 61.7007 34.6655 61.9961 34.5518C61.9961 35.1024 61.9961 35.5882 61.9961 36.12C59.8621 38.2103 57.6913 40.3315 55.5318 42.4639C55.2047 42.787 54.8461 43.0093 54.4121 43.1652C43.1557 47.2056 31.9023 51.2558 20.6474 55.3038C18.8873 55.9366 17.1249 56.5648 15.3429 57.202C14.6949 56.7734 14.0581 56.3523 13.3047 55.8559C14.1772 55.5358 14.9292 55.2579 15.682 54.9844C28.5282 50.3294 41.3729 45.6757 54.2207 41.0275Z" fill="white"/>
<path fill-rule="evenodd" clip-rule="evenodd" d="M54.5825 10.2613C52.3499 10.8188 50.1098 11.3483 47.8742 11.8944C38.827 14.103 29.7784 16.3039 20.735 18.5313C18.7126 19.0292 16.6405 19.3621 14.7229 20.2412C14.3853 20.3964 14.1035 20.5862 13.8503 20.8558C10.6427 24.2665 7.42986 27.6727 4.21772 31.0782C3.32559 32.0228 2.43195 32.9651 1.53906 33.9081C1.57373 33.2084 1.49461 32.526 2.00849 31.955C6.01404 27.5078 10.003 23.0455 13.989 18.5818C14.1879 18.3596 14.4132 18.2398 14.689 18.1758C19.8157 16.9751 24.9402 15.7751 30.0662 14.5722C38.2001 12.6635 46.3363 10.7623 54.4642 8.82715C55.2283 8.64491 55.8725 8.6592 56.4821 9.15934C56.5144 9.18574 56.5476 9.21286 56.6117 9.26632C56.8053 9.87568 57.0095 10.516 57.2514 11.276C56.5461 10.9257 55.9561 10.641 55.3759 10.3382C55.113 10.2011 54.8764 10.1875 54.5825 10.2613Z" fill="white"/>
<path fill-rule="evenodd" clip-rule="evenodd" d="M17.8281 58.2161C30.1921 53.796 42.5591 49.3835 54.9269 44.9732C55.2366 44.8632 55.492 44.7066 55.7151 44.4625C57.5196 42.492 59.3318 40.5298 61.1425 38.5653C61.4253 38.2594 61.7074 37.9529 62.0991 37.5288C62.0991 38.197 62.0991 38.6986 62.0991 39.2613C60.1139 41.6333 58.0818 44.0535 56.0639 46.4849C55.8273 46.7697 55.5274 46.8865 55.2057 47.0009C45.0155 50.6113 34.8245 54.2216 24.6343 57.8327C22.8313 58.4722 21.0289 59.114 19.1979 59.7633C18.5597 59.34 17.9298 58.9211 17.2969 58.5008C17.4408 58.2733 17.6578 58.2771 17.8281 58.2161Z" fill="white"/>
<path fill-rule="evenodd" clip-rule="evenodd" d="M55.6094 48.7995C55.9628 48.6745 56.2401 48.4877 56.4699 48.1834C57.64 46.6317 58.8252 45.0921 60.0075 43.5509C60.705 42.6417 61.4067 41.7356 62.1066 40.8279C62.1429 40.8377 62.1798 40.846 62.2168 40.8558C62.2168 41.3582 62.2168 41.8606 62.2168 42.461C60.4852 44.9181 58.6859 47.4603 56.9016 50.0138C56.6447 50.3814 56.3365 50.5983 55.91 50.7475C46.5411 54.0143 37.1775 57.2955 27.8116 60.5727C26.1886 61.1418 24.5618 61.7 22.9494 62.2582C22.3172 61.8374 21.7189 61.439 21.0234 60.9765C21.3045 60.8717 21.4635 60.8112 21.624 60.7543C32.9527 56.7682 44.2799 52.782 55.6094 48.7995Z" fill="white"/>
<path fill-rule="evenodd" clip-rule="evenodd" d="M36.3423 11.7277C29.0244 13.3818 21.7081 15.0443 14.3886 16.6909C14.0752 16.7609 13.8574 16.8898 13.6517 17.13C9.94082 21.4906 6.22308 25.8444 2.50385 30.199C2.33658 30.3948 2.1904 30.62 1.92969 30.7541C1.96887 29.8637 2.2017 29.1376 2.77285 28.4476C6.11308 24.4193 9.42161 20.366 12.6925 16.2819C13.3044 15.5173 13.9456 14.9983 14.9357 14.9305C15.2717 14.9072 15.5995 14.7791 15.9325 14.7076C22.1202 13.366 28.3086 12.029 34.4955 10.683C40.6817 9.33615 46.8656 7.97878 53.0532 6.63577C53.2522 6.59278 53.4534 6.48738 53.6764 6.56644C54.3349 6.79996 54.9958 7.02445 55.7703 7.2918C55.5119 7.37771 55.3793 7.4342 55.2414 7.46508C48.9422 8.88795 42.6408 10.3033 36.3423 11.7277Z" fill="white"/>
<path fill-rule="evenodd" clip-rule="evenodd" d="M51.3159 5.91632C47.81 6.653 44.3025 7.38514 40.7965 8.12031C31.8436 9.99816 22.8906 11.8821 13.9338 13.7411C13.4478 13.842 13.1434 14.062 12.8525 14.4341C9.47917 18.763 6.09302 23.0822 2.70908 27.4036C2.63448 27.4984 2.59003 27.6431 2.38281 27.6039C2.55537 27.0247 2.44761 26.4003 2.85901 25.8571C6.14575 21.5177 9.41439 17.1639 12.6845 12.8123C12.8729 12.5615 13.0861 12.4236 13.4109 12.3589C16.0677 11.8346 18.7192 11.2787 21.3738 10.7424C30.6138 8.8751 39.8554 7.01232 49.0962 5.14574C49.2424 5.11561 49.3818 5.0546 49.534 5.10883C50.1624 5.3333 50.7915 5.55701 51.4441 5.78901C51.3717 5.86359 51.3476 5.90954 51.3159 5.91632Z" fill="white"/>
<path fill-rule="evenodd" clip-rule="evenodd" d="M56.1725 52.5243C56.6352 52.3646 56.9629 52.122 57.2349 51.6972C58.7298 49.3621 60.2579 47.0489 61.7794 44.7312C61.9283 44.5037 62.036 44.2431 62.3612 44.0005C62.3466 44.643 62.5846 45.2261 62.3339 45.684C61.7612 46.7281 61.2072 47.8021 60.4493 48.7234C59.4178 49.9768 58.3041 51.1624 57.2304 52.3812C57.03 52.6094 56.8017 52.7872 56.5342 52.9326C54.288 54.1528 52.0456 55.3821 49.804 56.6107C49.5041 56.7749 49.1937 56.9098 48.8697 57.0219C42.9721 59.0542 37.076 61.0931 31.1792 63.1285C29.6534 63.6552 28.1268 64.1771 26.6086 64.6978C26.0126 64.2486 25.3721 63.9277 24.8047 63.4306C24.9223 63.3743 24.9757 63.3416 25.033 63.3223C35.4116 59.7209 45.7909 56.118 56.1725 52.5243Z" fill="white"/>
<path fill-rule="evenodd" clip-rule="evenodd" d="M2.9952 24.5924C2.94547 24.5713 2.89424 24.5502 2.84375 24.5291C3.00123 23.9695 2.93719 23.3766 3.31242 22.8448C6.25405 18.6824 9.17832 14.5071 12.0981 10.3281C12.3121 10.023 12.5645 9.88288 12.9262 9.81586C16.0095 9.24791 19.089 8.66113 22.1693 8.08186C25.6903 7.41977 29.2121 6.7607 32.7324 6.09782C36.6928 5.35209 40.6546 4.60788 44.6135 3.85538C45.4747 3.69193 46.5334 3.90811 47.3562 4.46928C35.7668 6.73055 24.2029 8.98806 12.6979 11.2335C9.43151 15.7311 6.21409 20.1618 2.9952 24.5924Z" fill="white"/>
<path fill-rule="evenodd" clip-rule="evenodd" d="M3.39844 21.7021C3.41426 20.689 3.84149 19.8408 4.34482 19.065C6.75675 15.3424 9.21611 11.6507 11.6491 7.94171C11.8194 7.68259 12.0304 7.57107 12.3205 7.52064C16.3155 6.82991 20.3106 6.14069 24.3025 5.43788C29.7872 4.47372 35.2748 3.52237 40.7512 2.50774C41.7858 2.31566 42.5973 2.71413 43.4713 3.11938C33.046 5.01606 22.6215 6.912 12.1645 8.81395C9.24929 13.1015 6.32351 17.4017 3.39844 21.7021Z" fill="white"/>
<path fill-rule="evenodd" clip-rule="evenodd" d="M6.71447 14.3136C6.66851 14.285 6.62408 14.257 6.57812 14.2285C7.69023 11.0497 9.66217 8.34257 11.408 5.47718C14.6442 4.95141 17.8872 4.43016 21.128 3.89686C26.4755 3.01706 31.8253 2.15007 37.1645 1.22583C38.1486 1.05559 38.9262 1.42243 39.7565 1.82617C30.3877 3.41703 21.018 5.00866 11.6702 6.59652C10.0057 9.1892 8.35935 11.7518 6.71447 14.3136Z" fill="white"/>
<path fill-rule="evenodd" clip-rule="evenodd" d="M11.1565 4.23335C11.2047 4.21829 11.2635 4.19493 11.3246 4.18364C15.2359 3.42135 19.1488 2.65981 23.0609 1.90053C26.4516 1.24219 29.8461 0.60946 33.2594 0.0738977C34.3211 -0.0925709 35.278 0.0068584 36.314 0.571797C27.8425 1.9171 19.4668 3.2481 11.0857 4.57909C11.0458 4.47213 11.0502 4.35161 11.1565 4.23335Z" fill="white"/>
<path fill-rule="evenodd" clip-rule="evenodd" d="M28.7485 65.7107C32.1106 64.5568 35.4749 63.4089 38.8347 62.2489C39.0675 62.169 39.2875 62.1442 39.61 62.1817C36.9668 63.625 34.4079 65.0169 31.8559 66.4197C31.3284 66.7103 30.7723 66.9022 30.1794 67.056C29.5984 66.6661 29.0235 66.281 28.4531 65.899C28.5367 65.7319 28.6565 65.7422 28.7485 65.7107Z" fill="white"/>
</g>
<defs>
<clipPath id="clip0_5273_10883">
<rect width="167.703" height="67.2023" fill="white"/>
</clipPath>
</defs>
</svg>
