<svg width="142" height="58" viewBox="0 0 142 58" fill="none" xmlns="http://www.w3.org/2000/svg">
<path d="M25.52 18.3523C24.0731 18.706 23.3014 19.1883 22.2082 20.4423C20.1825 22.7574 20.0539 25.8442 21.9188 28.4165C22.4976 29.1882 24.877 32.0821 27.2242 34.8473C31.8544 40.2814 32.8833 41.0209 35.6164 40.9888C38.5425 40.9566 40.9862 38.9952 41.7579 36.1335C42.1759 34.5258 41.9829 33.1753 41.0826 31.5998C40.5682 30.7316 34.1373 22.886 33.9123 22.886C33.8801 22.886 33.9123 23.4648 33.9766 24.1722C34.0409 24.8796 33.9444 25.9085 33.7515 26.4551C33.43 27.3876 33.5264 27.5484 35.9701 30.4744C38.1245 33.0146 38.5425 33.6898 38.5425 34.6544C38.5425 36.1978 37.0955 37.6769 35.5843 37.6769C34.1695 37.6769 33.5264 37.0981 28.5747 31.2782C23.5586 25.3297 23.1085 24.2686 24.9413 22.4037C25.8737 21.4712 27.1921 21.3748 28.5425 22.0822C30.4075 23.0468 30.3753 25.3297 28.4461 27.5805L27.3528 28.8345L28.4139 30.0885C29.057 30.8602 29.6036 31.2461 29.8609 31.0853C30.0538 30.9567 30.8576 29.9921 31.6293 28.9631C33.237 26.7767 33.7193 24.8474 33.1084 22.8539C32.6904 21.4069 31.147 19.5098 29.893 18.8989C28.7676 18.3201 26.7097 18.0629 25.52 18.3523Z" fill="#FF4E9F"/>
<path d="M54.6195 22.9504C53.0118 23.4006 51.7256 24.4295 51.2112 25.6513C50.5359 27.2269 50.6324 27.3877 52.1436 27.3877C53.3333 27.3877 53.5584 27.2912 53.9121 26.423C55.0697 23.8186 60.4072 25.0404 60.4072 27.9021C60.4072 28.6417 60.3429 28.6738 57.6098 28.6738C54.1693 28.6738 52.5295 29.0918 51.3398 30.2815C49.7964 31.8571 50.3109 34.8474 52.3687 35.9085C53.5584 36.5194 56.2915 36.5194 57.4812 35.9085C58.4137 35.4262 60.0857 33.6577 60.0857 33.1754C60.0857 33.0146 59.6034 33.1433 59.0568 33.4969C57.4491 34.4294 54.6838 34.4937 53.8478 33.6256C53.1083 32.9182 53.2047 31.6963 54.0407 31.1175C54.5552 30.7317 55.552 30.6031 57.6098 30.6031H60.4715L60.3751 31.632C60.3429 32.2108 60.3429 33.4648 60.3751 34.3651L60.4072 36.0693H61.8542H63.3011V31.7928C63.3011 29.4777 63.1403 27.0018 62.9796 26.3587C62.1757 23.497 58.2851 21.8893 54.6195 22.9504Z" fill="#FF4E9F"/>
<path d="M78.2208 23.3363C77.3205 23.7543 76.2915 24.526 75.9378 25.0083C73.9764 27.8379 74.1051 31.9214 76.2594 34.3652C77.5455 35.8121 78.896 36.3909 81.0503 36.3909C83.9764 36.3909 86.1307 34.9118 87.031 32.2751L87.3847 31.2462H85.9699C84.7481 31.2462 84.523 31.3748 83.9442 32.3395C82.5616 34.6867 79.1211 34.4938 77.9635 32.0501C77.3205 30.6996 77.2883 28.288 77.9314 27.0662C79.2497 24.4939 82.7224 24.4295 84.0728 26.9376C84.6194 27.9022 84.8124 28.0308 86.0342 28.0308C87.3525 28.0308 87.3525 28.0308 87.0953 27.0983C86.5487 25.1048 85.4233 23.8829 83.4941 23.0469C81.7899 22.3717 80.1179 22.436 78.2208 23.3363Z" fill="#FF4E9F"/>
<path d="M93.2044 22.7577C90.5035 23.7545 89.0244 25.1371 89.0244 26.6805C89.0244 27.2914 89.1852 27.3879 90.407 27.3879C91.6289 27.3879 91.8218 27.2914 92.1433 26.4554C92.9472 24.3011 97.5774 24.6226 98.1883 26.8413C98.3169 27.2271 98.4777 27.7737 98.542 28.0631C98.6706 28.5454 98.2526 28.6098 95.2301 28.7384C92.69 28.8348 91.436 29.0278 90.5035 29.4779C88.1562 30.6033 87.8347 33.5615 89.8282 35.4264C90.5035 36.0695 91.0823 36.2303 92.8186 36.3267C95.3588 36.4554 96.6771 35.8123 97.8025 33.883L98.5099 32.6933L98.6063 34.3653L98.7028 36.0695H99.9889H101.243V31.375C101.243 25.9731 100.954 24.9442 98.96 23.6259C98.0597 23.0149 97.1915 22.7899 95.7124 22.6934C94.5871 22.6291 93.4617 22.6612 93.2044 22.7577ZM98.5099 31.4715C98.1883 32.8219 97.1272 33.7544 95.5517 34.076C92.9794 34.6226 91.018 33.6579 91.4038 32.0502C91.6932 30.9248 92.5613 30.6355 95.9054 30.6355L98.7349 30.6033L98.5099 31.4715Z" fill="#FF4E9F"/>
<path d="M109.121 23.0791C107.835 23.7222 107.481 24.108 106.741 25.6193L106.098 26.9054L106.066 24.8797V22.8862H104.619H103.172V29.4777V36.0693H104.619H106.066V32.4359C106.066 28.2237 106.42 26.7125 107.577 25.78C108.478 25.0726 110.214 24.944 111.243 25.4585C112.497 26.1337 112.818 27.452 112.818 31.8893V36.0693H114.297H115.777L115.648 31.1498C115.552 26.9697 115.455 26.0694 114.876 24.9762C113.783 22.8218 111.211 21.9858 109.121 23.0791Z" fill="#FF4E9F"/>
<path d="M121.082 23.0147C119.635 23.5292 118.702 24.3009 118.091 25.5228C117.32 27.034 117.481 27.3877 119.024 27.3877C120.214 27.3877 120.439 27.2912 120.792 26.4231C121.339 25.2334 123.011 24.6867 124.747 25.1369C126.162 25.5228 126.902 26.2945 127.159 27.6449L127.384 28.6739H124.522C119.506 28.6739 117.32 29.8636 117.32 32.5967C117.32 34.2044 117.931 35.2333 119.249 35.9085C120.342 36.4873 123.172 36.5516 124.169 36.0371C125.198 35.4905 126.644 34.0757 126.644 33.5934C126.644 33.0468 126.452 33.079 125.551 33.6899C124.651 34.2687 121.886 34.3651 120.921 33.8507C119.924 33.304 119.828 32.243 120.696 31.3748C121.403 30.6674 121.757 30.6031 124.394 30.6031C127.513 30.6031 127.738 30.7639 126.934 32.3073C126.644 32.8217 126.644 33.0147 126.934 33.1111C127.127 33.1754 127.288 33.8828 127.288 34.6545V36.0693H128.734H130.181V31.9536C130.181 29.7028 130.021 27.2912 129.828 26.5838C128.927 23.3684 124.812 21.6964 121.082 23.0147Z" fill="#FF4E9F"/>
<path d="M16.7742 26.6482C12.9479 31.1819 12.5299 31.825 12.144 33.497C11.0187 38.513 16.7099 42.6931 21.3723 40.3137C22.4977 39.7349 26.2919 35.7156 26.3562 35.0082C26.3562 34.8796 25.906 34.2365 25.3272 33.5935L24.3305 32.4359L23.1729 33.8507C20.8578 36.6803 19.636 37.677 18.4141 37.677C16.8385 37.677 15.3916 36.2301 15.3916 34.6545C15.3916 33.6899 15.8096 33.0147 17.9639 30.4745C20.4077 27.5485 20.5041 27.3877 20.1826 26.4553C19.9896 25.9086 19.8932 24.8797 19.9575 24.1723C20.0218 23.4649 20.054 22.8861 20.0218 22.8861C19.9896 22.8861 18.5106 24.5903 16.7742 26.6482Z" fill="#FF4E9F"/>
<path d="M65.2303 29.4777V36.0693H66.6773H68.1242V32.2108C68.1242 29.4777 68.2528 28.063 68.5744 27.4199C69.0567 26.4874 70.2785 25.78 71.4361 25.78C73.1724 25.78 73.5904 25.4585 73.5904 24.108V22.7897L72.4007 22.9826C70.8573 23.2399 69.7641 24.0759 68.8638 25.6514L68.1242 26.9054V24.8797V22.8862H66.6773H65.2303V29.4777Z" fill="#FF4E9F"/>
</svg>
