<svg width="102" height="17" viewBox="0 0 102 17" fill="none" xmlns="http://www.w3.org/2000/svg">
<g clip-path="url(#clip0_2272_9929)">
<mask id="mask0_2272_9929" style="mask-type:luminance" maskUnits="userSpaceOnUse" x="0" y="0" width="102" height="17">
<path d="M102 0.0195312H0V16.8447H102V0.0195312Z" fill="white"/>
</mask>
<g mask="url(#mask0_2272_9929)">
<path d="M32.1083 2.28992H29.8072L25.2816 14.189L25.2434 14.297H26.9088L28.0656 11.265H33.8181L34.9749 14.297H36.6594L32.1273 2.34077L32.1083 2.28992ZM28.5677 9.91752L30.9451 3.66288L33.3096 9.91752H28.5677Z" fill="white"/>
<path d="M39.3635 7.25743V5.2234H37.7998V14.2939H39.3825V10.9377C39.3825 9.10078 39.6876 7.99479 40.3614 7.34005C40.8572 6.85698 41.5564 6.6409 42.4908 6.67267H42.9612V5.10901H42.5607C41.0924 5.10901 39.9928 5.85269 39.3635 7.27018V7.25743Z" fill="white"/>
<path d="M50.7852 10.7978C50.6008 12.3869 49.5965 13.2577 47.9629 13.2577C45.9925 13.2577 45.0327 12.1135 45.0327 9.75533C45.0327 7.39714 46.0116 6.25301 48.0202 6.25301C49.5521 6.25301 50.4801 7.05391 50.7025 8.57305L50.7153 8.64297H52.2027V8.56035C52.0374 6.25938 50.4991 4.9436 47.9693 4.9436C45.217 4.9436 43.4373 6.83777 43.4373 9.76171C43.4373 12.6856 45.1725 14.5798 47.9693 14.5798C50.4864 14.5798 52.1899 13.1051 52.3042 10.8168V10.7342H50.7979V10.8041L50.7852 10.7978Z" fill="white"/>
<path d="M58.6313 4.93196C57.0611 4.93196 55.9487 5.69473 55.3067 7.20116V1.65845H53.7241V14.2885H55.3067V10.8052C55.3067 7.805 56.2986 6.28587 58.256 6.28587C59.6799 6.28587 60.3154 7.02317 60.3154 8.6822V14.2821H61.8984V8.51691C61.8984 6.1015 60.8305 4.9256 58.6313 4.9256V4.93196Z" fill="white"/>
<path d="M71.9969 10.0922C72.0351 9.86975 72.0351 9.68543 72.0351 9.45659C72.0351 6.71065 70.3634 4.9436 67.77 4.9436C64.992 4.9436 63.2698 6.78057 63.2698 9.74265C63.2698 12.7047 64.9538 14.5798 67.77 14.5798C71.3359 14.5798 71.9204 12.2089 72.0158 11.4843L72.0285 11.3953H70.573L70.5602 11.4589C70.2614 12.7047 69.3398 13.3403 67.8205 13.3403C65.933 13.3403 64.9538 12.3042 64.8396 10.1685H71.9841L71.9969 10.105V10.0922ZM64.8778 8.929C65.0747 7.07933 66.0284 6.18311 67.7828 6.18311C69.5367 6.18311 70.3889 7.10473 70.4776 8.929H64.8778Z" fill="white"/>
<path d="M75.5953 3.24342H74.6931L74.1525 5.11218L72.3599 5.54443L72.2966 5.55713V6.5042H74.0062V12.1232C74.0062 13.4581 74.3749 14.2844 76.2247 14.2844H78.4049V12.9686H75.5892V6.49788H78.5258V5.2139H75.5892V3.23706L75.5953 3.24342Z" fill="white"/>
<path d="M84.9282 4.93196C83.3584 4.93196 82.2461 5.69473 81.604 7.20116V1.65845H80.021V14.2885H81.604V10.8052C81.604 7.805 82.5955 6.28587 84.5534 6.28587C85.9773 6.28587 86.6127 7.02317 86.6127 8.6822V14.2821H88.1953V8.51691C88.1953 6.1015 87.1273 4.9256 84.9282 4.9256V4.93196Z" fill="white"/>
<path d="M91.6848 5.21423H90.1023V14.2847H91.6848V5.21423Z" fill="white"/>
<path d="M91.8794 2.28992H89.8833V3.92985H91.8794V2.28992Z" fill="white"/>
<path d="M100.491 10.7279V10.7978C100.294 12.3868 99.2965 13.2577 97.6564 13.2577C95.6857 13.2577 94.7259 12.1135 94.7259 9.75535C94.7259 7.39716 95.7051 6.25303 97.7135 6.25303C99.2455 6.25303 100.174 7.05388 100.396 8.57307L100.409 8.64299H101.896V8.56037C101.731 6.25935 100.193 4.9436 97.6564 4.9436C94.9039 4.9436 93.1245 6.8378 93.1245 9.76168C93.1245 12.6856 94.8595 14.5798 97.6564 14.5798C100.174 14.5798 101.877 13.1051 101.991 10.8169V10.7342H100.485L100.491 10.7279Z" fill="white"/>
<path d="M7.70386 0.242003L0.444943 7.47553C0.158908 7.76154 0 8.14929 0 8.55607V10.5583C0 10.9652 0.158908 11.3529 0.444943 11.6389L1.54459 12.7322C1.90054 13.0881 2.49804 13.0055 2.74593 12.5669L9.22937 1.15732C9.51543 0.64881 9.15312 0.0195312 8.56831 0.0195312H8.24415C8.04076 0.0195312 7.85007 0.102164 7.70386 0.242003Z" fill="white"/>
<path d="M19.3019 7.47553L12.043 0.242003C11.9031 0.102164 11.7061 0.0195312 11.5091 0.0195312H11.1849C10.6001 0.0195312 10.2314 0.64881 10.5239 1.15732L17.0073 12.5669C17.2552 13.0055 17.8527 13.0818 18.2086 12.7322L19.3083 11.6389C19.5943 11.3529 19.7532 10.9652 19.7532 10.5583V8.55606C19.7532 8.14929 19.5943 7.76154 19.3083 7.47553H19.3019Z" fill="white"/>
<path d="M5.22541 16.4082C5.51147 16.6943 5.89917 16.8532 6.29962 16.8532H13.4442C13.8446 16.8532 14.2323 16.6943 14.5184 16.4082L16.1837 14.7492C16.6668 14.2725 16.3236 13.4462 15.6434 13.4462H4.10035C3.42022 13.4462 3.08334 14.2661 3.56006 14.7492L5.22541 16.4082Z" fill="white"/>
<path d="M2.25146 13.4371H2.25751L2.25146 13.431V13.4371Z" fill="white"/>
</g>
</g>
<defs>
<clipPath id="clip0_2272_9929">
<rect width="102" height="16.83" fill="white"/>
</clipPath>
</defs>
</svg>
