<svg width="224" height="90" viewBox="0 0 224 90" fill="none" xmlns="http://www.w3.org/2000/svg">
<g clip-path="url(#clip0_2425_1861)">
<path d="M205.283 60.2472H212.824L214.303 62.9967H205.096C204.068 62.9967 203.256 62.6079 202.659 61.8302C202.284 61.3442 202.096 60.8027 202.096 60.2055V47.166H205.283V60.2472Z" fill="white"/>
<path d="M194.305 60.8932H187.369L189.077 58.1436H193.347L190.639 50.374L186.223 62.997H182.807L187.452 49.7492C188.133 47.9023 189.195 46.9718 190.639 46.958C192.083 46.9718 193.139 47.9023 193.806 49.7492L198.472 62.997H195.056L194.305 60.8932Z" fill="white"/>
<path d="M177.787 62.9967H174.579V49.9572C174.579 49.0268 174.982 48.2839 175.787 47.7284C176.329 47.3535 176.933 47.166 177.599 47.166H182.328V49.9156H177.787V62.9967ZM175.183 47.166L173.475 49.9156H170.33V47.166H175.183Z" fill="white"/>
<path d="M163.059 47.166H166.246V62.9967H163.059V47.166Z" fill="white"/>
<path d="M148.623 49.9156V62.9967H145.437V49.9572C145.437 49.0129 145.839 48.2631 146.644 47.7076C147.186 47.3466 147.783 47.166 148.436 47.166H152.747C154.678 47.166 156.226 47.7423 157.392 48.8949C158.379 49.8809 158.872 51.096 158.872 52.5402V53.1442C158.872 54.9356 158.156 56.3381 156.726 57.3519C155.615 58.1295 154.289 58.5183 152.747 58.5183H148.832L150.54 55.7688H152.747C154.053 55.7688 154.934 55.3175 155.393 54.4148C155.574 54.0399 155.664 53.6164 155.664 53.1442V52.5402C155.664 51.2903 155.102 50.478 153.976 50.1031C153.602 49.9781 153.192 49.9156 152.747 49.9156H148.623Z" fill="white"/>
<path d="M137.687 60.8932H130.75L132.459 58.1436H136.728L134.021 50.374L129.605 62.997H126.188L130.833 49.7492C131.514 47.9023 132.577 46.9718 134.021 46.958C135.465 46.9718 136.52 47.9023 137.187 49.7492L141.853 62.997H138.436L137.687 60.8932Z" fill="white"/>
<path d="M113.21 53.1858V56.9769C113.21 58.0601 113.599 58.9279 114.377 59.5807C114.918 60.025 115.508 60.2472 116.147 60.2472H118.272C119.133 60.2472 119.862 59.9556 120.459 59.3723C120.542 59.289 120.611 59.2126 120.667 59.1432L123.437 61.2678C122.659 62.0038 121.459 62.5246 119.834 62.8301C119.264 62.9412 118.744 62.9967 118.272 62.9967H116.147C114.425 62.9967 112.96 62.3857 111.752 61.1637C110.599 59.9972 110.023 58.6016 110.023 56.9769V53.1858C110.023 51.4917 110.634 50.0544 111.856 48.8741C113.064 47.7354 114.495 47.166 116.147 47.166H118.272C119.619 47.166 120.924 47.4646 122.188 48.0617C122.715 48.3255 123.132 48.6033 123.437 48.8949L120.667 51.0404C120.181 50.4155 119.508 50.0475 118.647 49.9364C118.508 49.9225 118.383 49.9156 118.272 49.9156H116.147C115.189 49.9156 114.418 50.3391 113.835 51.1862C113.418 51.7833 113.21 52.4498 113.21 53.1858Z" fill="white"/>
<path d="M209.512 29.0474C209.512 27.7699 210.109 26.6868 211.303 25.7979C212.456 24.9509 213.831 24.5273 215.428 24.5273H217.552C218.844 24.5273 220.094 24.8259 221.302 25.423C221.802 25.6869 222.205 25.9646 222.51 26.2562L219.718 28.4017C219.261 27.7629 218.636 27.395 217.844 27.2978C217.747 27.2839 217.649 27.2769 217.552 27.2769H215.428C214.386 27.2769 213.602 27.5686 213.074 28.1517C212.838 28.4434 212.72 28.742 212.72 29.0474C212.72 29.589 213.296 30.0542 214.449 30.443C214.81 30.568 215.421 30.7416 216.282 30.9638C218.365 31.5054 219.823 32.0331 220.656 32.5468C222.017 33.3801 222.704 34.4771 222.718 35.838C222.718 37.1017 222.108 38.1778 220.885 39.0667C219.677 39.9276 218.247 40.358 216.594 40.358H214.469C213.122 40.358 211.817 40.0595 210.554 39.4623C210.026 39.1985 209.609 38.9208 209.304 38.6292L212.054 36.5045C212.539 37.1156 213.22 37.4766 214.095 37.5877C214.233 37.6016 214.359 37.6086 214.469 37.6086H216.594C217.719 37.6086 218.566 37.31 219.135 36.7129C219.385 36.4351 219.511 36.1435 219.511 35.838C219.511 35.2269 218.934 34.7201 217.782 34.3174C217.615 34.248 216.608 33.9633 214.761 33.4634C212.636 32.894 211.192 32.2067 210.428 31.4012C209.818 30.7347 209.512 29.9501 209.512 29.0474Z" fill="white"/>
<path d="M201.971 24.5273H205.157V40.358H201.971V24.5273Z" fill="white"/>
<path d="M192.971 27.7982L189.43 38.0465H186.055L182.514 27.7982L181.306 40.3587H177.89L179.348 27.1733C179.487 25.9929 180.042 25.1667 181.014 24.6946C181.418 24.5141 181.841 24.4238 182.285 24.4238C183.243 24.4238 183.973 24.7918 184.472 25.5278C184.598 25.7083 184.701 25.9027 184.785 26.111L187.743 34.7762L190.7 26.111C191.02 25.2501 191.638 24.7154 192.554 24.5071C192.777 24.4516 192.992 24.4238 193.2 24.4238C194.2 24.4238 194.985 24.8126 195.554 25.5903C195.873 26.0485 196.068 26.5762 196.137 27.1733L197.596 40.3587H194.179L192.971 27.7982Z" fill="white"/>
<path d="M164.663 33.9008V37.6086H172.828L174.328 40.358H164.475C163.461 40.358 162.649 39.9762 162.038 39.2124C161.649 38.7125 161.455 38.164 161.455 37.5668V27.3186C161.455 26.3882 161.857 25.6452 162.663 25.0898C163.204 24.7148 163.808 24.5273 164.475 24.5273H174.328L172.828 27.2769H164.663V31.1512H172.182V33.9008H164.663Z" fill="white"/>
<path d="M153.122 40.358H149.915V27.3186C149.915 26.3882 150.317 25.6452 151.123 25.0898C151.664 24.7148 152.268 24.5273 152.935 24.5273H157.663V27.2769H153.122V40.358ZM150.519 24.5273L148.81 27.2769H145.665V24.5273H150.519Z" fill="white"/>
<path d="M131.77 27.2769V40.358H128.583V27.3186C128.583 26.3743 128.986 25.6244 129.791 25.069C130.333 24.7079 130.93 24.5273 131.583 24.5273H135.894C137.825 24.5273 139.373 25.1037 140.539 26.2562C141.526 27.2422 142.019 28.4573 142.019 29.9015V30.5055C142.019 32.3108 141.303 33.7134 139.873 34.7132C139.331 35.0881 138.735 35.3728 138.081 35.5672L142.373 40.358H138.394L134.436 35.8797H131.979L133.687 33.1301H135.894C137.2 33.1301 138.081 32.6788 138.54 31.7761C138.721 31.4012 138.811 30.9777 138.811 30.5055V29.9015C138.811 28.6517 138.249 27.8393 137.123 27.4644C136.749 27.3394 136.339 27.2769 135.894 27.2769H131.77Z" fill="white"/>
<path d="M120.834 38.2545H113.898L115.606 35.5049H119.876L117.168 27.7354L112.752 40.3583H109.336L113.981 27.1105C114.662 25.2636 115.724 24.3332 117.168 24.3193C118.612 24.3332 119.667 25.2636 120.334 27.1105L125 40.3583H121.584L120.834 38.2545Z" fill="white"/>
<path fill-rule="evenodd" clip-rule="evenodd" d="M0.114039 56.7018C0.179451 56.2914 0.415931 56.055 0.722843 55.8267C4.61206 52.9376 8.50025 50.0455 12.3814 47.1434C12.7296 46.8839 13.0958 46.6907 13.4964 46.5338C24.8812 42.0875 36.2671 37.6422 47.646 33.1798C54.5792 30.4607 61.4791 27.6511 68.7132 25.7871C69.0201 25.7087 69.3108 25.6232 69.6309 25.6493C72.9023 25.9089 76.1746 26.1613 79.445 26.4249C79.6955 26.445 79.9622 26.4169 80.2399 26.5919C80.3647 27.2327 80.7582 27.8403 80.7702 28.6058C80.4281 28.6058 80.1433 28.6038 79.8596 28.6058C76.2914 28.644 72.7221 28.6933 69.1529 28.7114C68.367 28.7155 67.6405 28.8784 66.914 29.1601C49.3969 35.9552 31.8818 42.7534 14.3527 49.5163C12.5596 50.2084 10.8932 51.0645 9.31638 52.163C6.35087 54.2313 3.33209 56.2221 0.289141 58.2752C-0.0690876 57.7309 -0.0529998 57.7309 0.114039 56.7018Z" fill="white"/>
<path fill-rule="evenodd" clip-rule="evenodd" d="M1.7162 59.3954C3.9803 58.0243 6.2444 56.6522 8.51656 55.2932C9.393 54.7681 10.2232 54.1575 11.1872 53.7873C30.1331 46.5073 49.0811 39.2292 68.0261 31.9422C68.4598 31.7752 68.8944 31.6847 69.3513 31.6384C71.9917 31.3758 74.6312 31.1053 77.2706 30.8397C78.6582 30.6999 80.0469 30.567 81.4575 30.4272C81.6774 31.0972 81.9968 31.6907 82.0195 32.3959C78.8907 32.9974 75.8125 33.5698 72.7434 34.1864C71.3498 34.4671 69.9148 34.5858 68.5765 35.0959C50.5412 41.9745 32.5079 48.8591 14.4757 55.7489C12.6704 56.439 10.8138 57.0114 9.08309 57.8714C7.07054 58.8713 5.10933 59.9709 3.11994 61.017C2.90057 61.1327 2.70638 61.3309 2.36827 61.2896C2.01406 60.7897 1.64073 60.2626 1.28955 59.7656C1.39721 59.5292 1.57533 59.48 1.7162 59.3954Z" fill="white"/>
<path fill-rule="evenodd" clip-rule="evenodd" d="M62.6258 40.4363C65.0982 39.5008 67.5474 38.4919 70.0571 37.673C72.785 36.7827 75.5714 36.0736 78.3336 35.2889C79.6356 34.9197 80.9397 34.5586 82.3134 34.1743C82.3134 34.8875 82.3134 35.5092 82.3134 36.2616C56.6123 45.9258 30.9184 55.5869 5.18312 65.2641C4.66691 64.5328 4.18591 63.8517 3.66064 63.1053C5.48802 62.2956 7.19465 61.4445 8.96768 60.7695C26.848 53.9754 44.7384 47.2073 62.6258 40.4363Z" fill="white"/>
<path fill-rule="evenodd" clip-rule="evenodd" d="M78.9415 24.3905C76.6915 24.0233 74.4435 23.6411 72.1925 23.281C71.161 23.115 70.1589 22.9047 69.0791 23.2367C65.6538 24.2879 62.1993 25.2425 58.7568 26.2424C56.3539 26.9396 53.8936 27.4657 51.5631 28.3781C39.2544 33.1976 26.9619 38.0603 14.6633 42.9039C14.3161 43.0408 13.9871 43.1886 13.6932 43.4281C9.93486 46.4922 6.17646 49.5562 2.406 52.6053C1.84047 53.0619 1.32828 53.5991 0.625912 53.9492C0.544406 53.4281 0.77384 52.9986 0.77384 52.5449C0.77384 52.0178 1.03446 51.6577 1.42489 51.3157C5.87762 47.4337 10.3213 43.5407 14.7579 39.6386C15.109 39.3308 15.4865 39.1146 15.9151 38.9445C23.6854 35.8653 31.4519 32.7781 39.2202 29.6958C41.1754 28.9203 43.0913 27.9978 45.1038 27.4275C53.5605 25.0303 62.0474 22.7438 70.5211 20.407C70.9226 20.2963 71.2939 20.2983 71.6934 20.4029C72.7671 20.6846 73.8498 20.9321 74.9265 21.2017C76.2186 21.5256 77.5086 21.8605 78.7976 22.1895C79.0371 22.941 79.2595 23.6381 79.4769 24.3201C79.2797 24.4709 79.1025 24.4177 78.9415 24.3905Z" fill="white"/>
<path fill-rule="evenodd" clip-rule="evenodd" d="M63.8607 46.1662C66.5485 45.1612 69.2886 44.2851 71.8907 43.0659C75.1863 41.5218 78.4647 39.9403 81.755 38.3862C81.9644 38.2876 82.1625 38.0522 82.4787 38.2242C82.4787 38.8378 82.4787 39.4626 82.4787 40.1204C82.3768 40.1878 82.266 40.2723 82.1456 40.3407C78.6901 42.3254 75.2366 44.3112 71.7771 46.2859C71.4591 46.4679 71.1089 46.5977 70.7637 46.7265C61.169 50.2835 51.5733 53.8375 41.9775 57.3915C31.2628 61.359 20.547 65.3254 9.78713 69.3079C8.8895 68.7114 7.97783 68.1058 6.94238 67.4168C7.3459 67.2619 7.59947 67.1613 7.85507 67.0657C26.5253 60.1015 45.1965 53.1445 63.8607 46.1662Z" fill="white"/>
<path fill-rule="evenodd" clip-rule="evenodd" d="M12.908 70.8618C15.7095 69.8347 18.511 68.8056 21.3124 67.7765C37.9328 61.6674 54.5523 55.5594 71.1748 49.4563C71.687 49.2681 72.1599 49.0298 72.6117 48.7249C75.6809 46.6536 78.757 44.5945 81.8331 42.5333C82.0619 42.3804 82.2649 42.1752 82.6182 42.1108C82.6182 42.7909 82.6182 43.4346 82.6182 44.171C79.3547 46.698 76.0874 49.2269 72.8201 51.7578C72.5463 51.9701 72.2354 52.0959 71.9114 52.2146C56.4774 57.8428 41.0462 63.4792 25.6142 69.1124C22.1466 70.3779 18.676 71.6384 15.2004 72.9028C14.3148 72.2842 13.3851 71.7691 12.5811 71.0971C12.6846 70.9131 12.8024 70.901 12.908 70.8618Z" fill="white"/>
<path fill-rule="evenodd" clip-rule="evenodd" d="M71.1484 18.1478C61.5215 20.6999 51.8896 23.2339 42.2656 25.793C40.3145 26.3121 38.3181 26.6833 36.4364 27.4317C30.0395 29.9727 23.6528 32.5379 17.2589 35.086C16.7478 35.2912 16.304 35.5648 15.9005 35.945C11.2686 40.3148 6.62877 44.6767 1.98586 49.0344C1.78662 49.2225 1.62964 49.483 1.25732 49.5615C1.39619 48.4741 1.47871 47.5063 2.36221 46.6402C7.01116 42.0813 11.6047 37.464 16.1711 32.8235C17.1946 31.7854 18.3004 31.0098 19.672 30.4958C24.4588 28.7022 29.1007 26.5716 34.1149 25.3464C46.8049 22.248 59.4446 18.9495 72.1065 15.7356C72.4023 15.6601 72.7021 15.5666 73.0242 15.7044C74.4339 16.3059 75.8497 16.8934 77.2585 17.4839C77.5231 18.2957 77.7737 19.0693 78.0726 19.9877C76.1426 19.3499 74.3796 18.7926 72.6367 18.178C72.1185 17.9969 71.6597 18.012 71.1484 18.1478Z" fill="white"/>
<path fill-rule="evenodd" clip-rule="evenodd" d="M72.4063 54.8034C72.7907 54.6646 73.1188 54.4805 73.4237 54.2109C76.2513 51.7231 79.0859 49.2435 81.9226 46.7668C82.166 46.5546 82.3956 46.3071 82.7902 46.1553C82.7902 46.8906 82.7902 47.5395 82.7902 48.2496C79.9403 51.0411 77.0412 53.8739 74.1573 56.7217C73.7205 57.1532 73.2415 57.45 72.6619 57.6582C57.6293 63.0541 42.6007 68.4631 27.5702 73.8691C25.2195 74.7141 22.8659 75.553 20.4861 76.4041C19.6207 75.8316 18.7704 75.2693 17.7642 74.6064C18.9294 74.1789 19.9336 73.8077 20.9389 73.4425C38.0947 67.2258 55.2485 61.011 72.4063 54.8034Z" fill="white"/>
<path fill-rule="evenodd" clip-rule="evenodd" d="M72.8937 13.7168C69.9121 14.4612 66.9205 15.1685 63.935 15.8978C51.8527 18.8472 39.7685 21.7865 27.6913 24.7611C24.9905 25.426 22.2232 25.8706 19.6623 27.0446C19.2114 27.2519 18.8352 27.5053 18.497 27.8654C14.2134 32.4204 9.92265 36.9693 5.63294 41.5172C4.44152 42.7786 3.24809 44.037 2.05566 45.2965C2.10196 44.362 1.9963 43.4506 2.68257 42.6881C8.03187 36.749 13.3591 30.7897 18.6822 24.8285C18.9479 24.5318 19.2487 24.3718 19.617 24.2863C26.4636 22.6829 33.3073 21.0803 40.1529 19.4739C51.0155 16.9248 61.8811 14.3858 72.7357 11.8015C73.7561 11.5581 74.6165 11.5772 75.4305 12.2451C75.4737 12.2804 75.5181 12.3166 75.6036 12.388C75.8622 13.2018 76.1349 14.0569 76.4579 15.0718C75.516 14.6041 74.7281 14.2239 73.9533 13.8194C73.6022 13.6364 73.2862 13.6183 72.8937 13.7168Z" fill="white"/>
<path fill-rule="evenodd" clip-rule="evenodd" d="M23.8115 77.7591C40.3233 71.8562 56.8391 65.9634 73.3559 60.0736C73.7695 59.9267 74.1106 59.7175 74.4085 59.3915C76.8184 56.76 79.2385 54.1396 81.6567 51.516C82.0343 51.1076 82.411 50.6982 82.9342 50.1318C82.9342 51.0241 82.9342 51.6941 82.9342 52.4455C80.283 55.6133 77.5692 58.8454 74.8743 62.0925C74.5584 62.4728 74.1579 62.6287 73.7282 62.7816C60.1195 67.6031 46.5097 72.4246 32.901 77.2471C30.4931 78.1012 28.0861 78.9582 25.6408 79.8253C24.7886 79.26 23.9473 78.7007 23.1021 78.1394C23.2942 77.8356 23.584 77.8406 23.8115 77.7591Z" fill="white"/>
<path fill-rule="evenodd" clip-rule="evenodd" d="M74.2638 65.183C74.7357 65.0161 75.106 64.7666 75.4129 64.3602C76.9757 62.2879 78.5584 60.2318 80.1373 58.1736C81.0688 56.9595 82.0059 55.7493 82.9406 54.5371C82.9891 54.5502 83.0384 54.5613 83.0877 54.5744C83.0877 55.2453 83.0877 55.9163 83.0877 56.718C80.7753 59.9995 78.3723 63.3945 75.9895 66.8046C75.6464 67.2956 75.2348 67.5853 74.6652 67.7845C62.1534 72.1472 49.6485 76.5291 37.1406 80.9057C34.9731 81.6657 32.8006 82.4112 30.6472 83.1566C29.8029 82.5947 29.004 82.0627 28.0752 81.445C28.4505 81.3051 28.6628 81.2243 28.8772 81.1483C44.0064 75.825 59.1335 70.5015 74.2638 65.183Z" fill="white"/>
<path fill-rule="evenodd" clip-rule="evenodd" d="M48.5362 15.6741C38.7633 17.8831 28.9926 20.1033 19.2177 22.3022C18.7991 22.3958 18.5083 22.5679 18.2336 22.8888C13.2778 28.7122 8.31281 34.5265 3.34588 40.3419C3.12249 40.6035 2.92727 40.9043 2.5791 41.0833C2.63143 39.8942 2.94237 38.9245 3.70512 38.0031C8.1659 32.6233 12.5844 27.2103 16.9526 21.7561C17.7697 20.735 18.626 20.0419 19.9483 19.9514C20.397 19.9202 20.8348 19.7492 21.2795 19.6536C29.5429 17.862 37.8074 16.0765 46.0699 14.2789C54.3313 12.4802 62.5898 10.6675 70.8532 8.87394C71.1189 8.81653 71.3875 8.67577 71.6854 8.78136C72.5648 9.09321 73.4473 9.39301 74.4818 9.75006C74.1366 9.86479 73.9595 9.94023 73.7754 9.98146C65.363 11.8817 56.9476 13.7719 48.5362 15.6741Z" fill="white"/>
<path fill-rule="evenodd" clip-rule="evenodd" d="M68.529 7.91298C63.8469 8.8968 59.1628 9.87456 54.4806 10.8564C42.5242 13.3642 30.5677 15.8801 18.6062 18.3627C17.9572 18.4975 17.5506 18.7913 17.1622 19.2882C12.6572 25.0694 8.13505 30.8375 3.61589 36.6086C3.51627 36.7353 3.4569 36.9285 3.18018 36.8761C3.41061 36.1026 3.26671 35.2687 3.81613 34.5434C8.20547 28.7482 12.5706 22.9338 16.9378 17.1224C17.1894 16.7874 17.4741 16.6033 17.9078 16.5169C21.456 15.8167 24.997 15.0743 28.5421 14.3581C40.8819 11.8643 53.2238 9.37666 65.5646 6.8839C65.7598 6.84366 65.946 6.76218 66.1493 6.83461C66.9884 7.13438 67.8287 7.43314 68.7001 7.74297C68.6035 7.84257 68.5713 7.90393 68.529 7.91298Z" fill="white"/>
<path fill-rule="evenodd" clip-rule="evenodd" d="M75.0183 70.1582C75.6361 69.945 76.0738 69.621 76.4371 69.0537C78.4335 65.9352 80.4742 62.846 82.5061 59.7507C82.705 59.4469 82.8489 59.0989 83.2831 58.7749C83.2637 59.633 83.5814 60.4116 83.2467 61.0232C82.4818 62.4175 81.742 63.8519 80.7298 65.0822C79.3522 66.7561 77.865 68.3395 76.4311 69.9671C76.1634 70.2719 75.8585 70.5093 75.5013 70.7035C72.5016 72.3331 69.5069 73.9748 66.5133 75.6155C66.1128 75.8347 65.6983 76.0149 65.2655 76.1647C57.3895 78.8788 49.5155 81.6016 41.6405 84.3198C39.6028 85.0233 37.5641 85.7202 35.5365 86.4156C34.7405 85.8156 33.8852 85.3871 33.1274 84.7233C33.2845 84.6481 33.3558 84.6045 33.4323 84.5786C47.2926 79.769 61.1539 74.9576 75.0183 70.1582Z" fill="white"/>
<path fill-rule="evenodd" clip-rule="evenodd" d="M4.00353 32.8545C3.93712 32.8264 3.86869 32.7981 3.80127 32.77C4.01158 32.0226 3.92605 31.2309 4.42717 30.5207C8.35563 24.9619 12.2609 19.3859 16.1602 13.8049C16.446 13.3975 16.7831 13.2104 17.2661 13.1209C21.3837 12.3624 25.4963 11.5788 29.6099 10.8051C34.3122 9.92094 39.0155 9.04078 43.7168 8.15552C49.0057 7.15962 54.2966 6.16574 59.5836 5.1608C60.7337 4.94251 62.1475 5.23122 63.2464 5.98065C47.7691 9.00051 32.3259 12.0154 16.9612 15.014C12.599 21.0205 8.30227 26.9375 4.00353 32.8545Z" fill="white"/>
<path fill-rule="evenodd" clip-rule="evenodd" d="M4.53711 28.9939C4.55824 27.6409 5.1288 26.5082 5.80098 25.4721C9.02204 20.5007 12.3065 15.5705 15.5557 10.6173C15.7831 10.2712 16.0649 10.1223 16.4523 10.0549C21.7875 9.1325 27.1228 8.21207 32.4539 7.27348C39.7785 5.98588 47.1071 4.71537 54.4207 3.36036C55.8023 3.10384 56.886 3.63599 58.0533 4.17719C44.1306 6.71016 30.2089 9.24213 16.244 11.7821C12.3508 17.508 8.44346 23.2509 4.53711 28.9939Z" fill="white"/>
<path fill-rule="evenodd" clip-rule="evenodd" d="M8.96382 19.1291C8.90245 19.0909 8.84311 19.0536 8.78174 19.0155C10.2669 14.7704 12.9004 11.155 15.2319 7.32836C19.5538 6.62621 23.8848 5.9301 28.2127 5.21789C35.3542 4.04294 42.4987 2.8851 49.629 1.6508C50.9432 1.42346 51.9817 1.91336 53.0906 2.45254C40.5787 4.5771 28.0657 6.70267 15.582 8.82321C13.3592 12.2857 11.1605 15.7079 8.96382 19.1291Z" fill="white"/>
<path fill-rule="evenodd" clip-rule="evenodd" d="M14.8955 5.66491C14.96 5.64479 15.0385 5.61361 15.12 5.59852C20.3435 4.5805 25.569 3.56349 30.7935 2.5495C35.3218 1.6703 39.8549 0.825308 44.4134 0.110079C45.8312 -0.112235 47.1092 0.0205503 48.4927 0.77501C37.1793 2.57163 25.9937 4.34913 14.801 6.12664C14.7477 5.98379 14.7536 5.82284 14.8955 5.66491Z" fill="white"/>
<path fill-rule="evenodd" clip-rule="evenodd" d="M38.391 87.7685C42.881 86.2275 47.3739 84.6945 51.8609 83.1454C52.1718 83.0386 52.4656 83.0055 52.8963 83.0556C49.3664 84.9832 45.949 86.842 42.5408 88.7153C41.8365 89.1034 41.0938 89.3597 40.3019 89.5651C39.5261 89.0444 38.7583 88.5302 37.9966 88.02C38.1082 87.7968 38.2682 87.8106 38.391 87.7685Z" fill="white"/>
</g>
<defs>
<clipPath id="clip0_2425_1861">
<rect width="223.963" height="89.7468" fill="white" transform="translate(0 0.0126953)"/>
</clipPath>
</defs>
</svg>
