<svg width="295" height="99" viewBox="0 0 295 99" fill="none" xmlns="http://www.w3.org/2000/svg">
<mask id="mask0_1756_974" style="mask-type:luminance" maskUnits="userSpaceOnUse" x="69" y="27" width="48" height="43">
<path d="M69.5484 61.2962V69.6554H78.3598V61.2962C78.3598 57.3449 81.535 54.1319 85.4396 54.1319V45.2178C76.6766 45.2178 69.5484 52.4311 69.5484 61.2962ZM88.4949 69.6554H97.3063V36.0095H88.4949V69.6554ZM100.362 36.0404C104.266 36.0404 107.441 39.2535 107.441 43.2047V69.6554H116.253V43.2047C116.253 34.3371 109.125 27.1238 100.362 27.1238V36.0404Z" fill="white"/>
</mask>
<g mask="url(#mask0_1756_974)">
<path d="M92.9024 3.49268L137.268 48.3883L92.9024 93.2839L48.5341 48.3883L92.9024 3.49268Z" fill="#8A94A6"/>
</g>
<path d="M131.371 69.734C130.341 69.734 129.426 69.5585 128.63 69.2076C127.834 68.8566 127.207 68.3223 126.745 67.61C126.286 66.8952 126.057 66.0022 126.057 64.9208C126.057 64.0124 126.215 63.2459 126.531 62.6214C126.847 61.9968 127.281 61.4884 127.837 61.0987C128.39 60.709 129.028 60.4122 129.752 60.2109C130.474 60.0096 131.246 59.8728 132.068 59.8005C132.986 59.7154 133.728 59.625 134.289 59.5296C134.85 59.4341 135.258 59.2947 135.516 59.114C135.771 58.9334 135.901 58.6753 135.901 58.3424V58.2882C135.901 57.7411 135.715 57.3204 135.342 57.021C134.97 56.7216 134.468 56.5745 133.838 56.5745C133.157 56.5745 132.611 56.7242 132.195 57.021C131.782 57.3178 131.519 57.7307 131.407 58.2572L126.661 58.0869C126.801 57.0933 127.163 56.2029 127.75 55.4183C128.337 54.6338 129.142 54.017 130.17 53.5653C131.198 53.1137 132.435 52.8892 133.878 52.8892C134.909 52.8892 135.86 53.0105 136.73 53.2556C137.599 53.5008 138.357 53.857 139.002 54.3215C139.647 54.786 140.147 55.3564 140.502 56.03C140.856 56.7036 141.032 57.4752 141.032 58.3398V69.4579H136.192V67.1791H136.067C135.778 67.7339 135.411 68.201 134.967 68.5856C134.521 68.9701 133.998 69.2566 133.399 69.4476C132.797 69.636 132.121 69.734 131.371 69.734ZM132.96 66.3248C133.514 66.3248 134.014 66.2112 134.46 65.9841C134.906 65.757 135.261 65.4448 135.529 65.0421C135.796 64.6421 135.929 64.175 135.929 63.6434V62.0897C135.781 62.1671 135.605 62.2394 135.398 62.3013C135.192 62.3659 134.965 62.4252 134.72 62.482C134.475 62.5388 134.223 62.5878 133.963 62.6317C133.702 62.6756 133.453 62.7143 133.215 62.7504C132.731 62.8278 132.32 62.9491 131.978 63.1117C131.637 63.2743 131.379 63.4859 131.201 63.744C131.022 64.0047 130.933 64.3092 130.933 64.6653C130.933 65.2047 131.124 65.6177 131.507 65.9016C131.887 66.1829 132.371 66.3248 132.96 66.3248Z" fill="#8A94A6"/>
<path d="M142.518 69.4521V53.095H147.517V56.0759H147.685C147.981 54.9971 148.461 54.1944 149.126 53.6628C149.792 53.1337 150.567 52.8679 151.452 52.8679C151.692 52.8679 151.937 52.8834 152.189 52.917C152.442 52.9479 152.677 52.997 152.893 53.0615V57.5856C152.648 57.5005 152.327 57.4334 151.932 57.3843C151.537 57.3353 151.182 57.3095 150.873 57.3095C150.264 57.3095 149.716 57.4463 149.226 57.7198C148.739 57.9934 148.356 58.3728 148.078 58.858C147.8 59.3457 147.663 59.9135 147.663 60.5664V69.447H142.518V69.4521Z" fill="#8A94A6"/>
<path d="M163.901 65.4614C163.789 65.4898 163.623 65.5234 163.401 65.5621C163.179 65.6008 162.97 65.6214 162.776 65.6214C162.503 65.6214 162.269 65.5801 162.072 65.5001C161.876 65.4176 161.726 65.2808 161.626 65.0846C161.524 64.8885 161.473 64.633 161.473 64.313V56.9345H164.388V53.102H161.473V49.1843H156.324V53.102H154.187V56.9345H156.324V64.8885C156.311 65.9957 156.528 66.9144 156.982 67.6474C157.433 68.3777 158.089 68.9171 158.948 69.2604C159.808 69.6036 160.841 69.7481 162.047 69.6914C162.664 69.663 163.195 69.5959 163.641 69.4875C164.087 69.3817 164.431 69.2913 164.679 69.2217L163.901 65.4614Z" fill="#8A94A6"/>
<path d="M171.016 60.1273V69.4569H165.87V47.6492H170.848V56.1039H171.027C171.391 55.0974 171.988 54.3076 172.819 53.7399C173.651 53.1721 174.671 52.8882 175.877 52.8882C177.015 52.8882 178.004 53.1411 178.846 53.6495C179.687 54.1579 180.343 54.8728 180.81 55.7942C181.276 56.7181 181.506 57.7969 181.498 59.0305V69.4569H176.352V60.0551C176.359 59.1466 176.135 58.4369 175.678 57.9259C175.222 57.4149 174.582 57.1594 173.753 57.1594C173.212 57.1594 172.738 57.2781 172.327 57.5156C171.917 57.753 171.598 58.0911 171.368 58.5324C171.141 58.9711 171.024 59.5028 171.016 60.1273Z" fill="#8A94A6"/>
<path d="M198.441 62.5311V61.2303C198.441 59.8883 198.247 58.6986 197.862 57.6585C197.477 56.6184 196.936 55.7436 196.243 55.0338C195.549 54.3241 194.723 53.7873 193.769 53.426C192.815 53.0647 191.762 52.884 190.611 52.884C188.984 52.884 187.569 53.2376 186.37 53.9422C185.171 54.6493 184.241 55.6352 183.583 56.9023C182.922 58.1695 182.593 59.6483 182.593 61.3387C182.593 63.0782 182.922 64.5776 183.578 65.8371C184.233 67.0965 185.174 68.0669 186.398 68.7431C187.622 69.4192 189.079 69.7599 190.769 69.7599C192.18 69.7599 193.422 69.5405 194.493 69.1044C195.567 68.6682 196.434 68.054 197.097 67.2617C197.76 66.4694 198.188 65.5377 198.385 64.4667L193.659 64.3273C193.526 64.6886 193.325 64.9957 193.06 65.2435C192.792 65.4912 192.473 65.6796 192.101 65.8087C191.728 65.9351 191.315 65.9997 190.859 65.9997C190.201 65.9997 189.632 65.8603 189.155 65.5842C188.678 65.308 188.308 64.9183 188.051 64.4176C187.791 63.917 187.661 63.3337 187.661 62.6653V62.5259H198.441V62.5311ZM189.17 57.0314C189.627 56.7733 190.142 56.6443 190.716 56.6443C191.285 56.6443 191.787 56.7656 192.226 57.0107C192.664 57.2559 193.009 57.594 193.261 58.0276C193.514 58.4611 193.644 58.9541 193.651 59.5064H187.671C187.696 58.9799 187.831 58.505 188.084 58.0843C188.352 57.643 188.714 57.292 189.17 57.0314Z" fill="#8A94A6"/>
<path d="M199.602 69.4499V53.0928H204.6V56.0737H204.769C205.065 54.9949 205.544 54.1923 206.21 53.6606C206.875 53.1315 207.651 52.8657 208.536 52.8657C208.775 52.8657 209.02 52.8812 209.273 52.9148C209.525 52.9457 209.76 52.9948 209.977 53.0593V57.5834C209.732 57.4983 209.41 57.4312 209.015 57.3821C208.62 57.3331 208.265 57.3073 207.957 57.3073C207.347 57.3073 206.799 57.4441 206.309 57.7176C205.822 57.9912 205.439 58.3706 205.161 58.8558C204.883 59.3435 204.746 59.9113 204.746 60.5642V69.4448H199.602V69.4499Z" fill="#8A94A6"/>
<path d="M215.78 69.734C214.75 69.734 213.834 69.5585 213.038 69.2076C212.243 68.8566 211.615 68.3223 211.154 67.61C210.695 66.8952 210.465 66.0022 210.465 64.9208C210.465 64.0124 210.623 63.2459 210.939 62.6214C211.256 61.9968 211.689 61.4884 212.245 61.0987C212.799 60.709 213.436 60.4122 214.16 60.2109C214.882 60.0096 215.655 59.8728 216.476 59.8005C217.394 59.7154 218.136 59.625 218.697 59.5296C219.259 59.4341 219.667 59.2947 219.924 59.114C220.179 58.9334 220.309 58.6753 220.309 58.3424V58.2882C220.309 57.7411 220.123 57.3204 219.751 57.021C219.378 56.7216 218.876 56.5745 218.246 56.5745C217.565 56.5745 217.019 56.7242 216.604 57.021C216.191 57.3178 215.928 57.7307 215.816 58.2572L211.069 58.0869C211.21 57.0933 211.572 56.2029 212.158 55.4183C212.745 54.6338 213.551 54.017 214.579 53.5653C215.606 53.1137 216.843 52.8892 218.287 52.8892C219.317 52.8892 220.269 53.0105 221.138 53.2556C222.008 53.5008 222.765 53.857 223.411 54.3215C224.056 54.786 224.556 55.3564 224.91 56.03C225.265 56.7036 225.441 57.4752 225.441 58.3398V69.4579H220.6V67.1791H220.475C220.187 67.7339 219.82 68.201 219.376 68.5856C218.93 68.9701 218.407 69.2566 217.807 69.4476C217.206 69.636 216.53 69.734 215.78 69.734ZM217.369 66.3248C217.922 66.3248 218.422 66.2112 218.868 65.9841C219.315 65.757 219.669 65.4448 219.937 65.0421C220.205 64.6421 220.337 64.175 220.337 63.6434V62.0897C220.189 62.1671 220.013 62.2394 219.807 62.3013C219.6 62.3659 219.373 62.4252 219.129 62.482C218.884 62.5388 218.631 62.5878 218.371 62.6317C218.111 62.6756 217.864 62.7143 217.624 62.7504C217.139 62.8278 216.729 62.9491 216.387 63.1117C216.045 63.2743 215.788 63.4859 215.609 63.744C215.431 64.0047 215.341 64.3092 215.341 64.6653C215.341 65.2047 215.533 65.6177 215.915 65.9016C216.293 66.1829 216.78 66.3248 217.369 66.3248Z" fill="#8A94A6"/>
</svg>
