<svg width="169" height="53" viewBox="0 0 169 53" fill="none" xmlns="http://www.w3.org/2000/svg">
<g clip-path="url(#clip0_1778_1195)">
<mask id="mask0_1778_1195" style="mask-type:luminance" maskUnits="userSpaceOnUse" x="6" y="4" width="48" height="43">
<path d="M6.54834 38.2962V46.6554H15.3598V38.2962C15.3598 34.3449 18.5349 31.1319 22.4395 31.1319V22.2178C13.6765 22.2178 6.54834 29.4311 6.54834 38.2962ZM25.4948 46.6554H34.3063V13.0095H25.4948V46.6554ZM37.3616 13.0404C41.2661 13.0404 44.4413 16.2535 44.4413 20.2047V46.6554H53.2528V20.2047C53.2528 11.3371 46.1245 4.12378 37.3616 4.12378V13.0404Z" fill="white"/>
</mask>
<g mask="url(#mask0_1778_1195)">
<path d="M29.9024 -19.5073L74.2681 25.3883L29.9024 70.2839L-14.4659 25.3883L29.9024 -19.5073Z" fill="url(#paint0_linear_1778_1195)"/>
</g>
<mask id="mask1_1778_1195" style="mask-type:luminance" maskUnits="userSpaceOnUse" x="-249" y="-114" width="491" height="279">
<path d="M241.387 -113.913H-248.279V164.814H241.387V-113.913Z" fill="white"/>
</mask>
<g mask="url(#mask1_1778_1195)">
<path d="M68.3714 46.734C67.3411 46.734 66.4255 46.5585 65.6298 46.2076C64.8341 45.8566 64.2067 45.3223 63.7451 44.61C63.286 43.8952 63.0565 43.0022 63.0565 41.9208C63.0565 41.0124 63.2146 40.2459 63.5309 39.6214C63.8471 38.9968 64.2807 38.4884 64.8367 38.0987C65.3901 37.709 66.0277 37.4122 66.752 37.2109C67.4737 37.0096 68.2465 36.8728 69.0677 36.8005C69.9858 36.7154 70.728 36.625 71.289 36.5296C71.8501 36.4341 72.2582 36.2947 72.5157 36.114C72.7708 35.9334 72.9008 35.6753 72.9008 35.3424V35.2882C72.9008 34.7411 72.7147 34.3204 72.3423 34.021C71.97 33.7216 71.4675 33.5745 70.8376 33.5745C70.1567 33.5745 69.6109 33.7242 69.1952 34.021C68.782 34.3178 68.5193 34.7307 68.4071 35.2572L63.6609 35.0869C63.8012 34.0933 64.1634 33.2029 64.7499 32.4183C65.3365 31.6338 66.1424 31.017 67.1702 30.5653C68.198 30.1137 69.4349 29.8892 70.8784 29.8892C71.9088 29.8892 72.86 30.0105 73.7297 30.2556C74.5994 30.5008 75.3568 30.857 76.0021 31.3215C76.6473 31.786 77.1472 32.3564 77.5017 33.03C77.8562 33.7036 78.0321 34.4752 78.0321 35.3398V46.4579H73.1916V44.1791H73.0666C72.7784 44.7339 72.4112 45.201 71.9674 45.5856C71.5211 45.9701 70.9983 46.2566 70.399 46.4476C69.7971 46.636 69.1212 46.734 68.3714 46.734ZM69.9603 43.3248C70.5137 43.3248 71.0136 43.2112 71.4599 42.9841C71.9062 42.757 72.2607 42.4448 72.5285 42.0421C72.7963 41.6421 72.9289 41.175 72.9289 40.6434V39.0897C72.781 39.1671 72.605 39.2394 72.3984 39.3013C72.1918 39.3659 71.9649 39.4252 71.72 39.482C71.4752 39.5388 71.2227 39.5878 70.9626 39.6317C70.7024 39.6756 70.4525 39.7143 70.2153 39.7504C69.7308 39.8278 69.3202 39.9491 68.9784 40.1117C68.6367 40.2743 68.3791 40.4859 68.2006 40.744C68.022 41.0047 67.9328 41.3092 67.9328 41.6653C67.9328 42.2047 68.1241 42.6177 68.5066 42.9016C68.8866 43.1829 69.3712 43.3248 69.9603 43.3248Z" fill="white"/>
</g>
<mask id="mask2_1778_1195" style="mask-type:luminance" maskUnits="userSpaceOnUse" x="-249" y="-114" width="491" height="279">
<path d="M241.387 -113.913H-248.279V164.814H241.387V-113.913Z" fill="white"/>
</mask>
<g mask="url(#mask2_1778_1195)">
<path d="M79.5185 46.4521V30.095H84.5172V33.0759H84.6855C84.9813 31.9971 85.4608 31.1944 86.1264 30.6628C86.7921 30.1337 87.5674 29.8679 88.4523 29.8679C88.6921 29.8679 88.9369 29.8834 89.1894 29.917C89.4419 29.9479 89.6765 29.997 89.8933 30.0615V34.5856C89.6485 34.5005 89.3271 34.4334 88.9318 34.3843C88.5365 34.3353 88.182 34.3095 87.8734 34.3095C87.2639 34.3095 86.7156 34.4463 86.2259 34.7198C85.7388 34.9934 85.3562 35.3728 85.0782 35.858C84.8002 36.3457 84.6625 36.9135 84.6625 37.5664V46.447H79.5185V46.4521Z" fill="white"/>
</g>
<mask id="mask3_1778_1195" style="mask-type:luminance" maskUnits="userSpaceOnUse" x="-249" y="-114" width="491" height="279">
<path d="M241.387 -113.913H-248.279V164.814H241.387V-113.913Z" fill="white"/>
</mask>
<g mask="url(#mask3_1778_1195)">
<path d="M100.901 42.4614C100.789 42.4898 100.623 42.5234 100.401 42.5621C100.179 42.6008 99.9701 42.6214 99.7763 42.6214C99.5034 42.6214 99.2687 42.5801 99.0724 42.5001C98.876 42.4176 98.7255 42.2808 98.6261 42.0846C98.524 41.8885 98.473 41.633 98.473 41.313V33.9345H101.388V30.102H98.473V26.1843H93.3239V30.102H91.1867V33.9345H93.3239V41.8885C93.3111 42.9957 93.5279 43.9144 93.9819 44.6474C94.4333 45.3777 95.0887 45.9171 95.9482 46.2604C96.8077 46.6036 97.8405 46.7481 99.0469 46.6914C99.664 46.663 100.195 46.5959 100.641 46.4875C101.087 46.3817 101.431 46.2913 101.679 46.2217L100.901 42.4614Z" fill="white"/>
</g>
<mask id="mask4_1778_1195" style="mask-type:luminance" maskUnits="userSpaceOnUse" x="-249" y="-114" width="491" height="279">
<path d="M241.387 -113.913H-248.279V164.814H241.387V-113.913Z" fill="white"/>
</mask>
<g mask="url(#mask4_1778_1195)">
<path d="M108.016 37.1273V46.4569H102.87V24.6492H107.848V33.1039H108.027C108.391 32.0974 108.988 31.3076 109.819 30.7399C110.651 30.1721 111.671 29.8882 112.877 29.8882C114.015 29.8882 115.004 30.1411 115.846 30.6495C116.688 31.1579 117.343 31.8728 117.81 32.7942C118.276 33.7181 118.506 34.7969 118.498 36.0305V46.4569H113.352V37.0551C113.359 36.1466 113.135 35.4369 112.678 34.9259C112.222 34.4149 111.582 34.1594 110.753 34.1594C110.212 34.1594 109.738 34.2781 109.327 34.5156C108.917 34.753 108.598 35.0911 108.368 35.5324C108.141 35.9711 108.024 36.5028 108.016 37.1273Z" fill="white"/>
</g>
<mask id="mask5_1778_1195" style="mask-type:luminance" maskUnits="userSpaceOnUse" x="-249" y="-114" width="491" height="279">
<path d="M241.387 -113.913H-248.279V164.814H241.387V-113.913Z" fill="white"/>
</mask>
<g mask="url(#mask5_1778_1195)">
<path d="M135.441 39.5318V38.2311C135.441 36.8891 135.247 35.6993 134.862 34.6592C134.477 33.6192 133.936 32.7443 133.242 32.0346C132.549 31.3249 131.722 30.788 130.768 30.4267C129.815 30.0654 128.761 29.8848 127.611 29.8848C125.984 29.8848 124.568 30.2383 123.37 30.9429C122.171 31.65 121.24 32.6359 120.582 33.9031C119.922 35.1702 119.593 36.649 119.593 38.3395C119.593 40.0789 119.922 41.5784 120.577 42.8378C121.233 44.0972 122.174 45.0676 123.398 45.7438C124.622 46.42 126.078 46.7606 127.769 46.7606C129.18 46.7606 130.422 46.5412 131.493 46.1051C132.566 45.6689 133.433 45.0547 134.097 44.2624C134.76 43.4701 135.188 42.5384 135.384 41.4674L130.659 41.328C130.526 41.6893 130.325 41.9965 130.059 42.2442C129.792 42.492 129.473 42.6804 129.1 42.8094C128.728 42.9359 128.315 43.0004 127.858 43.0004C127.2 43.0004 126.632 42.861 126.155 42.5849C125.678 42.3087 125.308 41.919 125.051 41.4184C124.79 40.9177 124.66 40.3344 124.66 39.666V39.5266H135.441V39.5318ZM126.17 34.0321C126.627 33.774 127.142 33.645 127.716 33.645C128.284 33.645 128.787 33.7663 129.225 34.0115C129.664 34.2566 130.008 34.5947 130.261 35.0283C130.513 35.4619 130.643 35.9548 130.651 36.5071H124.671C124.696 35.9806 124.831 35.5057 125.084 35.0851C125.351 34.6438 125.714 34.2928 126.17 34.0321Z" fill="white"/>
</g>
<mask id="mask6_1778_1195" style="mask-type:luminance" maskUnits="userSpaceOnUse" x="-249" y="-114" width="491" height="279">
<path d="M241.387 -113.913H-248.279V164.814H241.387V-113.913Z" fill="white"/>
</mask>
<g mask="url(#mask6_1778_1195)">
<path d="M136.601 46.4521V30.095H141.6V33.0759H141.768C142.064 31.9971 142.544 31.1944 143.209 30.6628C143.875 30.1337 144.65 29.8679 145.535 29.8679C145.775 29.8679 146.02 29.8834 146.272 29.917C146.525 29.9479 146.759 29.997 146.976 30.0615V34.5856C146.731 34.5005 146.41 34.4334 146.015 34.3843C145.619 34.3353 145.265 34.3095 144.956 34.3095C144.347 34.3095 143.798 34.4463 143.309 34.7198C142.822 34.9934 142.439 35.3728 142.161 35.858C141.883 36.3457 141.745 36.9135 141.745 37.5664V46.447H136.601V46.4521Z" fill="white"/>
</g>
<mask id="mask7_1778_1195" style="mask-type:luminance" maskUnits="userSpaceOnUse" x="-249" y="-114" width="491" height="279">
<path d="M241.387 -113.913H-248.279V164.814H241.387V-113.913Z" fill="white"/>
</mask>
<g mask="url(#mask7_1778_1195)">
<path d="M152.78 46.734C151.75 46.734 150.834 46.5585 150.038 46.2076C149.243 45.8566 148.615 45.3223 148.154 44.61C147.694 43.8952 147.465 43.0022 147.465 41.9208C147.465 41.0124 147.623 40.2459 147.939 39.6214C148.256 38.9968 148.689 38.4884 149.245 38.0987C149.799 37.709 150.436 37.4122 151.16 37.2109C151.882 37.0096 152.655 36.8728 153.476 36.8005C154.394 36.7154 155.136 36.625 155.697 36.5296C156.259 36.4341 156.667 36.2947 156.924 36.114C157.179 35.9334 157.309 35.6753 157.309 35.3424V35.2882C157.309 34.7411 157.123 34.3204 156.751 34.021C156.378 33.7216 155.876 33.5745 155.246 33.5745C154.565 33.5745 154.019 33.7242 153.604 34.021C153.19 34.3178 152.928 34.7307 152.816 35.2572L148.069 35.0869C148.21 34.0933 148.572 33.2029 149.158 32.4183C149.745 31.6338 150.551 31.017 151.579 30.5653C152.606 30.1137 153.843 29.8892 155.287 29.8892C156.317 29.8892 157.268 30.0105 158.138 30.2556C159.008 30.5008 159.765 30.857 160.411 31.3215C161.056 31.786 161.556 32.3564 161.91 33.03C162.265 33.7036 162.441 34.4752 162.441 35.3398V46.4579H157.6V44.1791H157.475C157.187 44.7339 156.82 45.201 156.376 45.5856C155.93 45.9701 155.407 46.2566 154.807 46.4476C154.206 46.636 153.53 46.734 152.78 46.734ZM154.369 43.3248C154.922 43.3248 155.422 43.2112 155.868 42.9841C156.315 42.757 156.669 42.4448 156.937 42.0421C157.205 41.6421 157.337 41.175 157.337 40.6434V39.0897C157.189 39.1671 157.013 39.2394 156.807 39.3013C156.6 39.3659 156.373 39.4252 156.128 39.482C155.884 39.5388 155.631 39.5878 155.371 39.6317C155.111 39.6756 154.864 39.7143 154.624 39.7504C154.139 39.8278 153.729 39.9491 153.387 40.1117C153.045 40.2743 152.788 40.4859 152.609 40.744C152.43 41.0047 152.341 41.3092 152.341 41.6653C152.341 42.2047 152.532 42.6177 152.915 42.9016C153.292 43.1829 153.78 43.3248 154.369 43.3248Z" fill="white"/>
</g>
</g>
<defs>
<linearGradient id="paint0_linear_1778_1195" x1="21.4726" y1="16.8677" x2="51.4916" y2="46.5323" gradientUnits="userSpaceOnUse">
<stop stop-color="#1DC0CC"/>
<stop offset="0.5" stop-color="#8E15F8"/>
<stop offset="1" stop-color="#E20000"/>
</linearGradient>
<clipPath id="clip0_1778_1195">
<rect width="167.812" height="52.3902" fill="white" transform="translate(0.59375)"/>
</clipPath>
</defs>
</svg>
