<svg width="90" height="25" viewBox="0 0 90 25" fill="none" xmlns="http://www.w3.org/2000/svg">
<mask id="mask0_4044_3788" style="mask-type:luminance" maskUnits="userSpaceOnUse" x="0" y="0" width="27" height="25">
<path d="M0 19.7294V24.5554H5.08704V19.7294C5.08704 17.4483 6.92014 15.5933 9.17433 15.5933V10.447C4.11527 10.447 0 14.6115 0 19.7294ZM10.9382 24.5554H16.0253V5.13089H10.9382V24.5554ZM17.7892 5.14877C20.0434 5.14877 21.8765 7.00376 21.8765 9.28488V24.5554H26.9635V9.28488C26.9635 4.1654 22.8482 0.000976562 17.7892 0.000976562V5.14877Z" fill="white"/>
</mask>
<g mask="url(#mask0_4044_3788)">
<path d="M13.482 -13.6426L39.0953 12.2766L13.482 38.1959L-12.1328 12.2766L13.482 -13.6426Z" fill="#8A94A6"/>
</g>
<path d="M35.6934 24.6009C35.0986 24.6009 34.57 24.4996 34.1106 24.297C33.6512 24.0943 33.289 23.7859 33.0225 23.3747C32.7575 22.962 32.625 22.4464 32.625 21.8221C32.625 21.2977 32.7163 20.8552 32.8989 20.4946C33.0814 20.134 33.3317 19.8405 33.6527 19.6155C33.9722 19.3905 34.3403 19.2192 34.7585 19.103C35.1751 18.9868 35.6213 18.9078 36.0954 18.8661C36.6254 18.8169 37.0539 18.7648 37.3778 18.7096C37.7017 18.6545 37.9373 18.574 38.086 18.4697C38.2333 18.3654 38.3083 18.2165 38.3083 18.0242V17.993C38.3083 17.6771 38.2009 17.4342 37.9859 17.2614C37.7709 17.0886 37.4809 17.0036 37.1172 17.0036C36.7241 17.0036 36.409 17.09 36.169 17.2614C35.9305 17.4327 35.7788 17.6711 35.714 17.9751L32.974 17.8767C33.0549 17.3031 33.264 16.7891 33.6027 16.3361C33.9413 15.8832 34.4066 15.5271 34.9999 15.2663C35.5933 15.0056 36.3074 14.876 37.1408 14.876C37.7356 14.876 38.2848 14.946 38.7869 15.0875C39.2889 15.2291 39.7262 15.4347 40.0987 15.7029C40.4713 15.9711 40.7598 16.3004 40.9645 16.6892C41.1692 17.0781 41.2708 17.5236 41.2708 18.0228V24.4415H38.4762V23.1258H38.4041C38.2377 23.4462 38.0256 23.7159 37.7695 23.9379C37.5118 24.1599 37.21 24.3253 36.8639 24.4355C36.5165 24.5443 36.1263 24.6009 35.6934 24.6009ZM36.6107 22.6327C36.9302 22.6327 37.2188 22.5671 37.4765 22.436C37.7341 22.3049 37.9388 22.1246 38.0934 21.8922C38.248 21.6612 38.3245 21.3915 38.3245 21.0846V20.1877C38.2391 20.2324 38.1375 20.2741 38.0183 20.3098C37.899 20.3471 37.768 20.3814 37.6266 20.4141C37.4853 20.4469 37.3395 20.4752 37.1893 20.5006C37.0392 20.5259 36.8949 20.5482 36.7579 20.5691C36.4782 20.6138 36.2411 20.6838 36.0438 20.7777C35.8465 20.8715 35.6978 20.9937 35.5948 21.1427C35.4917 21.2932 35.4402 21.469 35.4402 21.6746C35.4402 21.986 35.5506 22.2244 35.7715 22.3883C35.9908 22.5507 36.2706 22.6327 36.6107 22.6327Z" fill="#8A94A6"/>
<path d="M42.1289 24.4392V14.9959H45.0148V16.7168H45.1119C45.2827 16.094 45.5595 15.6306 45.9438 15.3237C46.3281 15.0182 46.7757 14.8647 47.2866 14.8647C47.425 14.8647 47.5664 14.8737 47.7121 14.8931C47.8579 14.9109 47.9934 14.9392 48.1185 14.9765V17.5884C47.9772 17.5392 47.7916 17.5005 47.5634 17.4722C47.3352 17.4439 47.1305 17.429 46.9524 17.429C46.6005 17.429 46.2839 17.5079 46.0012 17.6659C45.72 17.8238 45.4992 18.0428 45.3387 18.3229C45.1782 18.6045 45.0987 18.9323 45.0987 19.3093V24.4362H42.1289V24.4392Z" fill="#8A94A6"/>
<path d="M54.4715 22.1344C54.4067 22.1508 54.311 22.1702 54.183 22.1925C54.0549 22.2149 53.9341 22.2268 53.8222 22.2268C53.6647 22.2268 53.5292 22.203 53.4158 22.1568C53.3025 22.1091 53.2156 22.0301 53.1582 21.9169C53.0993 21.8037 53.0698 21.6562 53.0698 21.4714V17.2116H54.7528V14.9991H53.0698V12.7373H50.0971V14.9991H48.8633V17.2116H50.0971V21.8037C50.0898 22.4429 50.2149 22.9733 50.477 23.3964C50.7376 23.8181 51.116 24.1295 51.6122 24.3277C52.1084 24.5258 52.7047 24.6093 53.4011 24.5765C53.7574 24.5601 54.0637 24.5213 54.3214 24.4588C54.579 24.3977 54.7778 24.3455 54.9206 24.3053L54.4715 22.1344Z" fill="#8A94A6"/>
<path d="M58.5806 19.055V24.4412H55.6094V11.8511H58.4834V16.7322H58.5865C58.7971 16.1511 59.1416 15.6952 59.6216 15.3674C60.1016 15.0396 60.6905 14.8757 61.387 14.8757C62.0436 14.8757 62.6149 15.0217 63.1008 15.3152C63.5867 15.6087 63.9651 16.0215 64.2345 16.5534C64.504 17.0868 64.6365 17.7096 64.6321 18.4218V24.4412H61.6608V19.0133C61.6652 18.4888 61.5357 18.0791 61.2721 17.7841C61.0086 17.4891 60.639 17.3416 60.1605 17.3416C59.8483 17.3416 59.5745 17.4101 59.3374 17.5472C59.1004 17.6842 58.9163 17.8794 58.7838 18.1342C58.6528 18.3875 58.585 18.6944 58.5806 19.055Z" fill="#8A94A6"/>
<path d="M74.411 20.4435V19.6925C74.411 18.9178 74.2991 18.2309 74.0768 17.6304C73.8545 17.03 73.5423 16.5249 73.1418 16.1152C72.7414 15.7054 72.2643 15.3955 71.7136 15.1869C71.163 14.9783 70.5549 14.874 69.8908 14.874C68.9515 14.874 68.1343 15.0781 67.4423 15.4849C66.7503 15.8932 66.2129 16.4623 65.833 17.1939C65.4517 17.9254 65.2617 18.7792 65.2617 19.7551C65.2617 20.7593 65.4517 21.625 65.8301 22.3521C66.2084 23.0792 66.7518 23.6394 67.4585 24.0298C68.1652 24.4202 69.006 24.6168 69.9821 24.6168C70.7964 24.6168 71.5134 24.4902 72.1318 24.2384C72.7517 23.9866 73.2523 23.632 73.6351 23.1746C74.0179 22.7171 74.2653 22.1793 74.3786 21.5609L71.6503 21.4805C71.5738 21.6891 71.4574 21.8664 71.3043 22.0094C71.1497 22.1524 70.9657 22.2612 70.7507 22.3357C70.5357 22.4087 70.2972 22.446 70.0337 22.446C69.6538 22.446 69.3255 22.3655 69.0501 22.2061C68.7748 22.0467 68.5613 21.8217 68.4126 21.5326C68.2624 21.2436 68.1873 20.9068 68.1873 20.5209V20.4405H74.411V20.4435ZM69.059 17.2684C69.3225 17.1194 69.6199 17.0449 69.9512 17.0449C70.2796 17.0449 70.5696 17.1149 70.8229 17.2565C71.0761 17.398 71.2749 17.5932 71.4206 17.8435C71.5664 18.0938 71.6415 18.3784 71.6459 18.6972H68.1932C68.2079 18.3933 68.286 18.1191 68.4317 17.8763C68.5863 17.6215 68.7954 17.4189 69.059 17.2684Z" fill="#8A94A6"/>
<path d="M75.082 24.4377V14.9944H77.9679V16.7153H78.0651C78.2358 16.0925 78.5127 15.6291 78.8969 15.3222C79.2812 15.0167 79.7288 14.8633 80.2397 14.8633C80.3781 14.8633 80.5195 14.8722 80.6653 14.8916C80.811 14.9095 80.9465 14.9378 81.0716 14.975V17.5869C80.9303 17.5377 80.7448 17.499 80.5166 17.4707C80.2883 17.4424 80.0837 17.4275 79.9055 17.4275C79.5536 17.4275 79.2371 17.5065 78.9544 17.6644C78.6731 17.8223 78.4523 18.0414 78.2918 18.3215C78.1313 18.6031 78.0518 18.9309 78.0518 19.3078V24.4347H75.082V24.4377Z" fill="#8A94A6"/>
<path d="M84.4239 24.6009C83.829 24.6009 83.3005 24.4996 82.8411 24.297C82.3817 24.0943 82.0195 23.7859 81.753 23.3747C81.488 22.962 81.3555 22.4464 81.3555 21.8221C81.3555 21.2977 81.4468 20.8552 81.6293 20.4946C81.8119 20.134 82.0622 19.8405 82.3832 19.6155C82.7027 19.3905 83.0708 19.2192 83.4889 19.103C83.9056 18.9868 84.3517 18.9078 84.8258 18.8661C85.3559 18.8169 85.7844 18.7648 86.1083 18.7096C86.4322 18.6545 86.6678 18.574 86.8165 18.4697C86.9637 18.3654 87.0388 18.2165 87.0388 18.0242V17.993C87.0388 17.6771 86.9313 17.4342 86.7164 17.2614C86.5014 17.0886 86.2113 17.0036 85.8477 17.0036C85.4545 17.0036 85.1395 17.09 84.8995 17.2614C84.6609 17.4327 84.5093 17.6711 84.4445 17.9751L81.7044 17.8767C81.7854 17.3031 81.9945 16.7891 82.3331 16.3361C82.6718 15.8832 83.137 15.5271 83.7304 15.2663C84.3238 15.0056 85.0379 14.876 85.8712 14.876C86.4661 14.876 87.0153 14.946 87.5173 15.0875C88.0194 15.2291 88.4567 15.4347 88.8292 15.7029C89.2017 15.9711 89.4903 16.3004 89.695 16.6892C89.8996 17.0781 90.0012 17.5236 90.0012 18.0228V24.4415H87.2067V23.1258H87.1345C86.9681 23.4462 86.7561 23.7159 86.4999 23.9379C86.2423 24.1599 85.9404 24.3253 85.5944 24.4355C85.2469 24.5443 84.8568 24.6009 84.4239 24.6009ZM85.3412 22.6327C85.6607 22.6327 85.9493 22.5671 86.2069 22.436C86.4646 22.3049 86.6693 22.1246 86.8239 21.8922C86.9784 21.6612 87.055 21.3915 87.055 21.0846V20.1877C86.9696 20.2324 86.868 20.2741 86.7488 20.3098C86.6295 20.3471 86.4985 20.3814 86.3571 20.4141C86.2158 20.4469 86.07 20.4752 85.9198 20.5006C85.7696 20.5259 85.6268 20.5482 85.4884 20.5691C85.2087 20.6138 84.9716 20.6838 84.7743 20.7777C84.577 20.8715 84.4283 20.9937 84.3252 21.1427C84.2222 21.2932 84.1706 21.469 84.1706 21.6746C84.1706 21.986 84.2811 22.2244 84.5019 22.3883C84.7198 22.5507 85.0011 22.6327 85.3412 22.6327Z" fill="#8A94A6"/>
</svg>
