<svg width="47" height="47" viewBox="0 0 47 47" fill="none" xmlns="http://www.w3.org/2000/svg">
<circle cx="23.5" cy="23.5" r="23.5" fill="black"/>
<mask id="mask0_6174_515" style="mask-type:alpha" maskUnits="userSpaceOnUse" x="0" y="0" width="47" height="47">
<circle cx="23.5" cy="23.5" r="23.5" fill="black"/>
</mask>
<g mask="url(#mask0_6174_515)">
<path d="M19.6315 8.57961C20.188 8.41795 21.1376 8.20669 21.7437 8.11117C22.3498 8.01564 23.6319 7.97339 24.5906 8.01748C25.5494 8.05973 26.9545 8.25262 27.7131 8.44367C28.4698 8.63472 29.5866 9.04071 30.1927 9.34566C30.7988 9.64877 31.7906 10.2697 32.3968 10.7234C33.0029 11.1772 33.9121 12.0296 34.4172 12.6174C34.9921 13.2861 35.1978 13.6315 34.9682 13.5359C34.7661 13.4533 34.228 13.2696 33.7743 13.13C33.3206 12.9885 32.4941 12.8746 31.9376 12.8746C31.3811 12.8764 30.4517 13.0014 29.8713 13.152C29.2908 13.3045 28.299 13.6866 27.6672 14.0025C27.0353 14.3167 25.9829 14.9688 25.3253 15.452C24.6678 15.9333 23.428 17.0612 22.5702 17.9595C21.7125 18.856 20.6215 20.1676 20.1494 20.8731C19.6755 21.5785 18.9592 22.8589 18.5551 23.7168C18.1511 24.5747 17.6055 25.9396 17.3411 26.7479C17.0766 27.5562 16.7313 28.9615 16.5715 29.8709C16.3804 30.9639 16.3162 32.0845 16.3804 33.1775C16.4429 34.2559 16.6229 35.2148 16.8966 35.9331C17.128 36.5393 17.5908 37.3862 17.9233 37.816C18.4817 38.5362 18.4964 38.5876 18.1162 38.4902C17.8884 38.4314 17.1243 38.1173 16.4172 37.7903C15.71 37.4652 14.7182 36.9159 14.2131 36.5724C13.708 36.2288 12.8925 35.573 12.3984 35.1138C11.9062 34.6545 11.1476 33.7837 10.7123 33.1775C10.277 32.5713 9.63411 31.4562 9.2833 30.6975C8.93064 29.9407 8.49534 28.7833 8.3135 28.1257C8.07289 27.2512 7.9884 26.3162 8.00126 24.6353C8.01228 22.8956 8.1133 21.9826 8.41452 20.8694C8.63309 20.0611 9.12167 18.7384 9.50187 17.9301C9.88207 17.1218 10.5543 15.9241 10.997 15.2664C11.4378 14.6088 12.3433 13.5047 13.0064 12.8121C13.6694 12.1177 14.709 11.1992 15.3151 10.7675C15.9213 10.3358 16.9131 9.73327 17.5192 9.42832C18.1253 9.12521 19.0768 8.74311 19.6315 8.57961Z" fill="white"/>
<path d="M23.3527 26.656C23.7659 25.7963 24.181 25.0395 24.2747 24.9733C24.3666 24.9054 25.1159 25.0982 25.9406 25.4014C26.7635 25.7026 28.4717 26.3272 29.7335 26.7883C30.9972 27.2494 32.2168 27.8005 32.4482 28.0136C32.6906 28.2396 32.8633 28.6125 32.8615 28.9064C32.8578 29.1838 32.6447 30.0527 32.3839 30.8353C32.1249 31.6179 31.6143 32.7973 31.2506 33.4531C30.887 34.1089 30.0457 35.1928 29.3808 35.8596C28.4717 36.7726 27.7847 37.2576 26.611 37.816C25.7533 38.2239 24.6366 38.6519 24.1315 38.7676C23.6264 38.8815 22.9247 38.9862 22.5702 38.9991C22.2176 39.0119 21.5141 38.887 21.009 38.7217C20.5039 38.5564 19.7306 38.11 19.2917 37.7297C18.8527 37.3476 18.2906 36.622 18.0427 36.1168C17.7782 35.5785 17.5468 34.7041 17.3759 32.8101L17.9986 32.5364C18.3402 32.3858 19.097 31.91 19.6774 31.4801C20.2578 31.0502 21.1541 30.1391 21.6684 29.4575C22.1808 28.776 22.9394 27.5139 23.3527 26.656Z" fill="white"/>
<path fill-rule="evenodd" clip-rule="evenodd" d="M32.4845 13.9144C33.0411 13.9658 33.908 14.1918 34.4131 14.4159C34.9182 14.6419 35.6823 15.1728 36.1121 15.5971C36.5419 16.0215 37.0892 16.7618 37.3317 17.2413C37.5723 17.7207 37.936 18.6503 38.138 19.3079C38.34 19.9656 38.61 21.3287 38.7368 22.339C38.8709 23.4119 38.9223 24.9789 38.8617 26.105C38.8047 27.1668 38.5788 28.9009 38.3602 29.9627C38.1435 31.0246 37.7578 32.553 37.5043 33.3613C37.2509 34.1696 36.8909 34.9889 36.7035 35.1836C36.5162 35.3765 36.1305 35.5308 35.8476 35.5253C35.5629 35.5198 34.6078 35.1763 32.1172 34.0042L32.6664 32.8561C32.9676 32.2241 33.3809 31.1293 33.5847 30.422C33.7886 29.7147 33.9539 28.9285 33.9539 28.6768C33.9521 28.4251 33.7868 27.9494 33.5866 27.6205C33.2817 27.1264 32.8941 26.9004 31.3366 26.3089C30.3007 25.9158 29.1398 25.4822 28.7541 25.3444C28.1866 25.1424 28.0745 25.0248 28.1627 24.7272C28.2215 24.5251 28.4051 23.4505 28.5705 22.339C28.8111 20.7169 28.8313 20.0281 28.677 18.8487C28.5705 18.0404 28.2876 16.8665 27.6172 15.1011L28.7192 14.629C29.3254 14.3681 30.1941 14.0797 30.6478 13.9879C31.1015 13.896 31.928 13.863 32.4845 13.9144Z" fill="white"/>
</g>
</svg>
