<svg width="220" height="48" viewBox="0 0 220 48" fill="none" xmlns="http://www.w3.org/2000/svg">
<g clip-path="url(#clip0_1405_4946)">
<path fill-rule="evenodd" clip-rule="evenodd" d="M23.3127 0.891602C10.6367 0.891602 0.360352 11.1679 0.360352 23.844C0.360352 36.52 10.6367 46.7963 23.3127 46.7963C35.9887 46.7963 46.265 36.52 46.265 23.844C46.265 11.1679 35.9887 0.891602 23.3127 0.891602ZM21.3597 30.3433L21.3448 30.3706C20.8361 31.2615 20.578 31.7132 20.2206 32.0531C19.831 32.4254 19.3645 32.6958 18.8508 32.8472C18.3818 32.9763 17.8582 32.9763 16.8085 32.9763H12.354C11.4184 32.9763 10.9543 32.9763 10.6739 32.7951C10.3687 32.5966 10.1825 32.2715 10.1602 31.9092C10.1428 31.5767 10.3736 31.1696 10.8376 30.3581L21.8361 10.9744C22.3052 10.1505 22.5409 9.73852 22.8387 9.58714C23.1588 9.42336 23.5435 9.42336 23.8661 9.58714C24.1639 9.73852 24.4022 10.1505 24.8687 10.9744L27.1294 14.9201L27.1418 14.94C27.6481 15.8234 27.9037 16.2701 28.0154 16.7416C28.1395 17.2553 28.1395 17.7963 28.0154 18.31C27.9037 18.784 27.6481 19.2356 27.1344 20.1315L21.3572 30.3433H21.3597ZM36.1377 32.7901C35.8548 32.9763 35.3832 32.9763 34.4403 32.9763H28.0576C27.117 32.9763 26.643 32.9763 26.365 32.7951C26.0598 32.5966 25.8738 32.2641 25.8514 31.9042C25.834 31.5741 26.0673 31.1722 26.5338 30.3656L26.5438 30.3457L29.7302 24.8764C30.1992 24.0698 30.4349 23.6702 30.7278 23.5164C31.0503 23.3526 31.4276 23.3526 31.7477 23.5164C32.0381 23.6652 32.2663 24.0475 32.7155 24.8093L32.7527 24.8714L35.9491 30.3409C35.9639 30.3681 35.9813 30.3929 35.9962 30.4202C36.4404 31.1846 36.6663 31.5741 36.6489 31.8968C36.6315 32.2566 36.4404 32.5891 36.1351 32.7877L36.1377 32.7901Z" fill="#8A94A6"/>
</g>
<g clip-path="url(#clip1_1405_4946)">
<path d="M59.087 17.6254H61.4713L68.1473 33.1097H64.9945L63.5522 29.5646H56.8328L55.4337 33.1097H52.3479L59.087 17.6254ZM62.5866 27.2051L60.2023 20.9066L57.7747 27.2051H62.5905H62.5866ZM77.188 33.1097H79.5723L85.8345 17.6254H82.8591L78.5043 29.3283L74.2795 17.6254H71.107L77.1919 33.1097H77.188ZM95.687 17.6254H98.0713L104.743 33.1097H101.591L100.148 29.5646H93.4289L92.0297 33.1097H88.944L95.687 17.6254ZM99.1866 27.2051L96.8023 20.9066L94.3746 27.2051H99.1905H99.1866ZM110.844 33.1097H120.188V30.6163H113.603V17.6254H110.844V33.1097ZM131.582 17.6254H133.966L140.638 33.1097H137.485L136.043 29.5646H129.323L127.924 33.1097H124.839L131.582 17.6254ZM135.081 27.2051L132.697 20.9066L130.269 27.2051H135.085H135.081ZM146.739 33.1097H149.498V21.2335H149.54L157.202 33.1097H160.702V17.6254H157.943V29.1313H157.899L150.396 17.6254H146.742V33.1097H146.739ZM181.313 19.6815C180.541 18.7913 179.701 18.165 178.795 17.7987C177.904 17.4205 176.934 17.2314 175.886 17.2314C174.688 17.2314 173.589 17.4284 172.583 17.8223C171.591 18.2004 170.732 18.748 170.002 19.4609C169.289 20.1739 168.725 21.0444 168.316 22.0647C167.905 23.0691 167.705 24.1917 167.705 25.4325C167.705 26.6733 167.91 27.7448 168.316 28.7335C168.725 29.7261 169.285 30.5769 170.002 31.2939C170.732 31.995 171.591 32.5425 172.583 32.9325C173.589 33.3106 174.692 33.4997 175.886 33.4997C177.081 33.4997 178.097 33.2791 179.102 32.8419C180.111 32.4046 180.962 31.7035 181.664 30.7424L179.39 29.1234C178.878 29.7812 178.326 30.2618 177.727 30.5651C177.143 30.8566 176.537 31.0024 175.91 31.0024C175.106 31.0024 174.377 30.8566 173.723 30.5651C173.08 30.2737 172.529 29.8718 172.059 29.3637C171.591 28.8517 171.228 28.2489 170.964 27.5478C170.716 26.8467 170.594 26.0825 170.594 25.2513C170.594 24.4793 170.716 23.7585 170.964 23.0849C171.228 22.4152 171.591 21.8323 172.059 21.3359C172.529 20.8239 173.08 20.43 173.723 20.1542C174.381 19.8627 175.11 19.717 175.91 19.717C176.45 19.717 176.982 19.8194 177.506 20.0242C178.046 20.2291 178.602 20.6348 179.169 21.2493L181.313 19.6737V19.6815ZM187.89 33.1097H190.649V26.2873H197.893V33.1097H200.652V17.6254H197.893V23.7939H190.649V17.6254H187.89V33.1097ZM208.486 33.1097H219.143V30.6163H211.241V26.4173H218.355V23.9239H211.241V20.1188H218.749V17.6254H208.486V33.1097Z" fill="#8A94A6"/>
</g>
<defs>
<clipPath id="clip0_1405_4946">
<rect width="46.7886" height="46.7886" fill="white" transform="translate(0.360596 0.893311)"/>
</clipPath>
<clipPath id="clip1_1405_4946">
<rect width="167.102" height="16.3389" fill="white" transform="translate(52.3477 17.2332)"/>
</clipPath>
</defs>
</svg>
