<svg width="319" height="231" viewBox="0 0 319 231" fill="none" xmlns="http://www.w3.org/2000/svg">
<rect x="0.499023" y="0.339355" width="318.286" height="230.661" rx="9.56962" fill="#F9F9F9"/>
<path fill-rule="evenodd" clip-rule="evenodd" d="M46.9049 68C29.8369 68 16 81.8369 16 98.9049C16 115.973 29.8369 129.81 46.9049 129.81C63.973 129.81 77.8098 115.973 77.8098 98.9049C77.8098 81.8369 63.973 68 46.9049 68ZM44.2752 107.656L44.2552 107.693C43.5702 108.892 43.2227 109.501 42.7414 109.958C42.2169 110.46 41.5887 110.824 40.8971 111.028C40.2655 111.201 39.5605 111.201 38.1471 111.201H32.1492C30.8895 111.201 30.2646 111.201 29.887 110.958C29.476 110.69 29.2254 110.252 29.1953 109.765C29.1719 109.317 29.4827 108.769 30.1075 107.676L44.9167 81.5763C45.5484 80.4669 45.8657 79.9122 46.2667 79.7084C46.6977 79.4879 47.2157 79.4879 47.6501 79.7084C48.0511 79.9122 48.3719 80.4669 49.0001 81.5763L52.0441 86.8892L52.0608 86.9159C52.7424 88.1054 53.0866 88.7069 53.237 89.3418C53.4041 90.0334 53.4041 90.7619 53.237 91.4535C53.0866 92.0917 52.7424 92.6998 52.0508 93.9061L44.2719 107.656H44.2752ZM64.1735 110.951C63.7926 111.201 63.1577 111.201 61.888 111.201H53.2938C52.0274 111.201 51.3892 111.201 51.0149 110.958C50.6038 110.69 50.3534 110.242 50.3232 109.758C50.2998 109.313 50.614 108.772 51.2421 107.686L51.2555 107.659L55.5459 100.295C56.1774 99.209 56.4949 98.671 56.8892 98.4639C57.3235 98.2433 57.8315 98.2433 58.2625 98.4639C58.6535 98.6643 58.9608 99.179 59.5656 100.205L59.6157 100.288L63.9196 107.653C63.9396 107.69 63.963 107.723 63.983 107.76C64.5811 108.789 64.8853 109.313 64.8618 109.748C64.8384 110.232 64.5811 110.68 64.1701 110.948L64.1735 110.951Z" fill="#E84142"/>
<g clip-path="url(#clip0_831_21089)">
<path d="M95.0741 90.5304H98.2845L107.274 111.38H103.028L101.086 106.606H92.0388L90.155 111.38H86L95.0741 90.5304ZM99.7863 103.429L96.5758 94.9485L93.307 103.429H99.7915H99.7863ZM119.447 111.38H122.657L131.089 90.5304H127.083L121.219 106.288L115.531 90.5304H111.259L119.452 111.38H119.447ZM144.355 90.5304H147.566L156.55 111.38H152.304L150.362 106.606H141.315L139.431 111.38H135.276L144.355 90.5304ZM149.068 103.429L145.857 94.9485L142.588 103.429H149.073H149.068ZM164.764 111.38H177.346V108.023H168.479V90.5304H164.764V111.38ZM192.687 90.5304H195.897L204.881 111.38H200.636L198.694 106.606H189.646L187.762 111.38H183.607L192.687 90.5304ZM197.399 103.429L194.189 94.9485L190.92 103.429H197.404H197.399ZM213.096 111.38H216.811V95.3887H216.868L227.184 111.38H231.897V90.5304H228.182V106.023H228.123L218.02 90.5304H213.101V111.38H213.096ZM259.65 93.299C258.609 92.1003 257.479 91.257 256.259 90.7638C255.059 90.2546 253.753 90 252.342 90C250.729 90 249.249 90.2652 247.895 90.7956C246.558 91.3047 245.402 92.042 244.42 93.002C243.46 93.962 242.7 95.1341 242.149 96.5078C241.596 97.8603 241.326 99.3719 241.326 101.043C241.326 102.713 241.602 104.156 242.149 105.487C242.7 106.824 243.454 107.969 244.42 108.935C245.402 109.879 246.558 110.616 247.895 111.141C249.249 111.65 250.734 111.905 252.342 111.905C253.95 111.905 255.319 111.608 256.672 111.019C258.031 110.43 259.177 109.486 260.122 108.192L257.06 106.012C256.37 106.898 255.627 107.545 254.821 107.954C254.035 108.346 253.218 108.542 252.374 108.542C251.292 108.542 250.31 108.346 249.429 107.954C248.564 107.561 247.821 107.02 247.189 106.336C246.558 105.646 246.07 104.835 245.715 103.891C245.381 102.947 245.216 101.918 245.216 100.799C245.216 99.7591 245.381 98.7885 245.715 97.8815C246.07 96.9799 246.558 96.1949 247.189 95.5266C247.821 94.8371 248.564 94.3067 249.429 93.9355C250.315 93.543 251.297 93.3467 252.374 93.3467C253.102 93.3467 253.817 93.4846 254.524 93.7604C255.25 94.0362 255.999 94.5825 256.763 95.4099L259.65 93.2884V93.299ZM268.506 111.38H272.221V102.194H281.974V111.38H285.689V90.5304H281.974V98.8362H272.221V90.5304H268.506V111.38ZM296.237 111.38H310.587V108.023H299.947V102.369H309.525V99.0113H299.947V93.8877H310.056V90.5304H296.237V111.38Z" fill="black"/>
</g>
<defs>
<clipPath id="clip0_831_21089">
<rect width="225" height="22" fill="white" transform="translate(86 90)"/>
</clipPath>
</defs>
</svg>
