<svg width="47" height="47" viewBox="0 0 47 47" fill="none" xmlns="http://www.w3.org/2000/svg">
<circle cx="23.5" cy="23.5" r="23.5" fill="#E84142"/>
<path d="M22.9823 9.12549C23.3113 8.95816 23.704 8.95818 24.0331 9.12549C24.339 9.28136 24.5815 9.70286 25.0604 10.5454L27.3759 14.5874L27.3876 14.6079C27.905 15.512 28.1676 15.9705 28.2821 16.4517C28.4091 16.9769 28.409 17.5309 28.2821 18.0562C28.1667 18.5411 27.907 19.0035 27.3817 19.9214L21.4667 30.3774L21.4511 30.4048C20.9302 31.3162 20.6655 31.7778 20.2997 32.1265C19.9014 32.5074 19.4226 32.785 18.8973 32.9409C18.4182 33.0737 17.8813 33.0737 16.8075 33.0737H12.247C11.2887 33.0737 10.8149 33.0739 10.5262 32.8892C10.2145 32.6871 10.024 32.3514 10.0009 31.9819C9.98381 31.6414 10.221 31.226 10.6942 30.395L21.955 10.5454C22.4339 9.70284 22.6764 9.28136 22.9823 9.12549Z" fill="black"/>
<path d="M31.0614 23.3931C31.3905 23.2256 31.7773 23.2256 32.1063 23.3931C32.4042 23.545 32.6368 23.9377 33.0966 24.7153L33.1337 24.7778L36.4071 30.3784C36.423 30.4059 36.4386 30.4329 36.454 30.4595C36.9077 31.2423 37.1395 31.6419 37.1229 31.9712C37.1056 32.3406 36.9092 32.6812 36.5975 32.8833C36.3089 33.0738 35.8241 33.0737 34.8602 33.0737H28.3251C27.361 33.0737 26.8755 33.0739 26.5927 32.8892C26.281 32.6871 26.0904 32.3464 26.0673 31.9771C26.0501 31.6391 26.2891 31.2269 26.7665 30.4028L26.7772 30.3833L30.0389 24.7837C30.5181 23.9582 30.7612 23.5489 31.0614 23.3931Z" fill="black"/>
</svg>
