<svg width="203" height="42" viewBox="0 0 203 42" fill="none" xmlns="http://www.w3.org/2000/svg">
<path d="M55.3342 13.4861H57.5845L63.8811 27.6819H60.9083L59.5457 24.4337H53.2078L51.8865 27.6819H48.9755L55.3342 13.4861ZM58.6373 22.2682L56.3871 16.4937L54.0954 22.2682H58.6373Z" fill="#E84142"/>
<path d="M65.3007 13.4861H68.3592L72.4301 24.2131L76.6274 13.4861H79.4965L73.4637 27.6819H71.1647L65.3007 13.4861Z" fill="#E84142"/>
<path d="M89.1012 13.4861H91.2448L97.2413 27.6819H94.41L93.1126 24.4337H87.076L85.8175 27.6819H83.0455L89.1012 13.4861ZM92.2472 22.2682L90.1042 16.4937L87.9216 22.2682H92.2472Z" fill="#E84142"/>
<path d="M102.92 13.4861H105.433V25.3961H111.437V27.6819H102.92V13.4861Z" fill="#E84142"/>
<path d="M122.054 13.4861H124.305L130.601 27.6819H127.629L126.266 24.4337H119.928L118.606 27.6819H115.696L122.054 13.4861ZM125.358 22.2682L123.107 16.4937L120.816 22.2682H125.358Z" fill="#E84142"/>
<path d="M136.28 13.4861H139.624L146.493 24.0327H146.533V13.4861H149.056V27.6819H145.852L138.843 16.7944H138.803V27.6819H136.28V13.4861Z" fill="#E84142"/>
<path d="M165.938 16.638C165.417 16.0503 164.91 15.6585 164.416 15.4626C163.935 15.2667 163.448 15.1688 162.954 15.1688C162.22 15.1688 161.552 15.3087 160.951 15.5886C160.364 15.8544 159.857 16.2322 159.429 16.722C159.002 17.1977 158.668 17.7574 158.428 18.401C158.201 19.0447 158.088 19.7373 158.088 20.4788C158.088 21.2764 158.201 22.011 158.428 22.6826C158.668 23.3543 159.002 23.9349 159.429 24.4247C159.857 24.9144 160.364 25.2992 160.951 25.5791C161.552 25.8589 162.22 25.9988 162.954 25.9988C163.528 25.9988 164.082 25.8589 164.616 25.5791C165.163 25.2852 165.67 24.8235 166.138 24.1938L168.22 25.7469C167.58 26.6704 166.799 27.3421 165.877 27.7618C164.956 28.1816 163.975 28.3915 162.934 28.3915C161.839 28.3915 160.831 28.2096 159.91 27.8458C159.002 27.468 158.214 26.9433 157.547 26.2717C156.893 25.586 156.378 24.7675 156.005 23.816C155.631 22.8645 155.444 21.8081 155.444 20.6468C155.444 19.4574 155.631 18.38 156.005 17.4146C156.378 16.4351 156.893 15.6025 157.547 14.9169C158.214 14.2313 159.002 13.7066 159.91 13.3428C160.831 12.965 161.839 12.7761 162.934 12.7761C163.895 12.7761 164.783 12.958 165.597 13.3218C166.425 13.6716 167.192 14.2733 167.9 15.1268L165.938 16.638Z" fill="#E84142"/>
<path d="M173.899 13.4861H176.506V19.1403H183.357V13.4861H185.965V27.6819H183.357V21.4261H176.506V27.6819H173.899V13.4861Z" fill="#E84142"/>
<path d="M193.063 13.4861H202.632V15.7719H195.634V19.2606H202.265V21.5464H195.634V25.3961H203V27.6819H193.063V13.4861Z" fill="#E84142"/>
<path fill-rule="evenodd" clip-rule="evenodd" d="M41.1678 20.5839C41.1678 31.9521 31.9521 41.1678 20.5839 41.1678C9.21574 41.1678 0 31.9521 0 20.5839C0 9.21574 9.21574 0 20.5839 0C31.9521 0 41.1678 9.21574 41.1678 20.5839ZM14.7511 28.7749H10.7563C9.91693 28.7749 9.50226 28.7749 9.2494 28.613C8.97637 28.436 8.80947 28.1428 8.78924 27.8191C8.77409 27.5208 8.9814 27.1567 9.39606 26.4285L19.2596 9.04267C19.6793 8.30439 19.8917 7.93528 20.1597 7.79873C20.4479 7.65213 20.7918 7.65213 21.08 7.79873C21.348 7.93528 21.5604 8.30439 21.9801 9.04267L24.0078 12.5823L24.0182 12.6004C24.4715 13.3925 24.7014 13.7941 24.8017 14.2156C24.913 14.6758 24.913 15.1612 24.8017 15.6214C24.7006 16.0462 24.473 16.4507 24.0129 17.2547L18.8318 26.4134L18.8184 26.4369C18.3621 27.2354 18.1308 27.6401 17.8103 27.9456C17.4615 28.2793 17.0418 28.522 16.5816 28.6585C16.1619 28.7749 15.6916 28.7749 14.7511 28.7749ZM24.8392 28.7753H30.5633C31.4078 28.7753 31.8325 28.7753 32.0854 28.6085C32.3584 28.4314 32.5303 28.1331 32.5456 27.8095C32.5602 27.521 32.3573 27.171 31.9599 26.4852C31.9463 26.4618 31.9325 26.438 31.9185 26.4138L29.0514 21.5089L29.0187 21.4537C28.6158 20.7723 28.4124 20.4283 28.1513 20.2953C27.8631 20.1486 27.5243 20.1486 27.2361 20.2953C26.9731 20.4318 26.7607 20.7908 26.341 21.5139L23.484 26.4189L23.4742 26.4358C23.056 27.1577 22.8469 27.5185 22.862 27.8146C22.8823 28.1382 23.0491 28.4365 23.3222 28.6135C23.57 28.7753 23.9947 28.7753 24.8392 28.7753Z" fill="#E84142"/>
</svg>
