<svg width="48" height="48" viewBox="0 0 48 48" fill="none" xmlns="http://www.w3.org/2000/svg">
<path opacity="0.5" d="M0 15C0 6.71573 6.71573 0 15 0H33C41.2843 0 48 6.71573 48 15V33C48 41.2843 41.2843 48 33 48H15C6.71573 48 0 41.2843 0 33V15Z" fill="#30473A"/>
<path fill-rule="evenodd" clip-rule="evenodd" d="M12.1235 35.8765C14.2469 38 17.6646 38 24.5 38C31.3353 38 34.7531 38 36.8765 35.8765C39 33.7531 39 30.3353 39 23.5C39 16.6646 39 13.2469 36.8765 11.1235C34.7531 9 31.3353 9 24.5 9C17.6646 9 14.2469 9 12.1235 11.1235C10 13.2469 10 16.6646 10 23.5C10 30.3353 10 33.7531 12.1235 35.8765ZM20.875 18.7875C18.2724 18.7875 16.1625 20.8974 16.1625 23.5C16.1625 26.1026 18.2724 28.2125 20.875 28.2125C23.4776 28.2125 25.5875 26.1026 25.5875 23.5C25.5875 22.8994 26.0744 22.4125 26.675 22.4125C27.2756 22.4125 27.7625 22.8994 27.7625 23.5C27.7625 27.3039 24.6789 30.3875 20.875 30.3875C17.0711 30.3875 13.9875 27.3039 13.9875 23.5C13.9875 19.6961 17.0711 16.6125 20.875 16.6125C21.4756 16.6125 21.9625 17.0994 21.9625 17.7C21.9625 18.3006 21.4756 18.7875 20.875 18.7875ZM32.8375 23.5C32.8375 26.1026 30.7276 28.2125 28.125 28.2125C27.5244 28.2125 27.0375 28.6994 27.0375 29.3C27.0375 29.9006 27.5244 30.3875 28.125 30.3875C31.9289 30.3875 35.0125 27.3039 35.0125 23.5C35.0125 19.6961 31.9289 16.6125 28.125 16.6125C24.3211 16.6125 21.2375 19.6961 21.2375 23.5C21.2375 24.1006 21.7244 24.5875 22.325 24.5875C22.9256 24.5875 23.4125 24.1006 23.4125 23.5C23.4125 20.8974 25.5224 18.7875 28.125 18.7875C30.7276 18.7875 32.8375 20.8974 32.8375 23.5Z" fill="#65DA01"/>
</svg>
