<svg width="48" height="48" viewBox="0 0 48 48" fill="none" xmlns="http://www.w3.org/2000/svg">
<path opacity="0.5" d="M0 15C0 6.71573 6.71573 0 15 0H33C41.2843 0 48 6.71573 48 15V33C48 41.2843 41.2843 48 33 48H15C6.71573 48 0 41.2843 0 33V15Z" fill="#30473A"/>
<path d="M33.2222 17.5556V13.3889C33.2222 13.0205 33.0759 12.6673 32.8154 12.4068C32.555 12.1463 32.2017 12 31.8333 12H13.7778C13.0411 12 12.3345 12.2927 11.8136 12.8136C11.2927 13.3345 11 14.0411 11 14.7778M11 14.7778C11 15.5145 11.2927 16.221 11.8136 16.742C12.3345 17.2629 13.0411 17.5556 13.7778 17.5556H34.6111C34.9795 17.5556 35.3327 17.7019 35.5932 17.9624C35.8537 18.2228 36 18.5761 36 18.9444V24.5M11 14.7778V34.2222C11 34.9589 11.2927 35.6655 11.8136 36.1864C12.3345 36.7073 13.0411 37 13.7778 37H34.6111C34.9795 37 35.3327 36.8537 35.5932 36.5932C35.8537 36.3327 36 35.9795 36 35.6111V30.0556M36 24.5H31.8333C31.0966 24.5 30.3901 24.7927 29.8691 25.3136C29.3482 25.8345 29.0556 26.5411 29.0556 27.2778C29.0556 28.0145 29.3482 28.721 29.8691 29.242C30.3901 29.7629 31.0966 30.0556 31.8333 30.0556H36M36 24.5C36.3684 24.5 36.7216 24.6463 36.9821 24.9068C37.2426 25.1673 37.3889 25.5205 37.3889 25.8889V28.6667C37.3889 29.035 37.2426 29.3883 36.9821 29.6488C36.7216 29.9092 36.3684 30.0556 36 30.0556" stroke="#78FE05" stroke-width="2.78888" stroke-linecap="round" stroke-linejoin="round"/>
</svg>
