<svg width="190" height="37" viewBox="0 0 190 37" fill="none" xmlns="http://www.w3.org/2000/svg">
<g clip-path="url(#clip0_1756_1069)">
<path fill-rule="evenodd" clip-rule="evenodd" d="M27.0761 3.43856C27.0761 2.51058 26.3238 1.7583 25.3958 1.7583H21.719C20.7911 1.7583 20.0388 2.51058 20.0388 3.43856V7.07911C20.0388 8.0071 20.7911 8.75937 21.719 8.75937H24.0298C24.9578 8.75937 25.7101 9.51165 25.7101 10.4396V33.6828C25.7101 34.6108 26.4624 35.3631 27.3903 35.3631H31.0671C31.995 35.3631 32.7473 34.6108 32.7473 33.6828V10.4393C32.7473 9.51127 31.995 8.75899 31.0671 8.75899H28.7564C27.8283 8.75899 27.0761 8.00672 27.0761 7.07873V3.43856ZM12.9538 3.43867C12.9538 2.51068 12.2016 1.75841 11.2736 1.75841H7.59684C6.66887 1.75841 5.91659 2.51068 5.91659 3.43867V7.07895C5.91659 8.00692 5.16431 8.7592 4.23633 8.7592H1.68025C0.752276 8.7592 0 9.51148 0 10.4395V33.683C0 34.6109 0.752276 35.3632 1.68025 35.3632H5.35703C6.28501 35.3632 7.03728 34.6109 7.03728 33.683V10.4397C7.03728 9.51175 7.78956 8.75947 8.71753 8.75947H11.2736C12.2016 8.75947 12.9538 8.00719 12.9538 7.07922V3.43867ZM19.9416 16.8404C19.9416 15.9124 19.1893 15.1602 18.2613 15.1602H14.5845C13.6565 15.1602 12.9042 15.9124 12.9042 16.8404V27.0819C12.9042 28.01 13.6565 28.7623 14.5845 28.7623H18.2613C19.1893 28.7623 19.9416 28.01 19.9416 27.0819V16.8404Z" fill="#8A94A6"/>
<path d="M46.5479 9.37891H54.8609C58.3824 9.37891 60.2874 11.2318 60.2874 13.8995C60.3135 14.7332 60.0877 15.5555 59.6395 16.2581C59.1913 16.9607 58.5419 17.5112 57.7762 17.8369V17.9237C58.7664 18.2252 59.6306 18.8447 60.2356 19.6869C60.8405 20.5291 61.1528 21.5473 61.1246 22.585C61.1246 25.5669 59.0627 27.912 55.3227 27.912H46.5479V9.37891ZM54.9186 16.9104C56.2463 16.9104 57.1989 15.9261 57.1989 14.4289C57.1989 12.9317 56.2463 11.9473 54.9186 11.9473H49.6447V16.9104H54.9186ZM55.2938 25.3643C56.8814 25.3643 58.036 24.1483 58.036 22.3823C58.036 20.6162 56.8814 19.4292 55.2938 19.4292H49.6447V25.3643H55.2938Z" fill="#8A94A6"/>
<path d="M64.991 11.5788H63.2509V8.78296H68.0424V27.8951H64.9828L64.991 11.5788Z" fill="#8A94A6"/>
<path d="M70.8752 21.0489C70.8752 16.851 73.9678 13.7532 78.2397 13.7532C82.5117 13.7532 85.6291 16.822 85.6291 21.0489C85.6291 25.2758 82.5406 28.3157 78.2397 28.3157C73.9389 28.3157 70.8752 25.2469 70.8752 21.0489ZM77.4316 25.5654H79.0809C80.9571 25.5654 82.6024 23.5677 82.6024 21.0489C82.6024 18.5301 80.953 16.4994 79.0809 16.4994H77.4316C75.5553 16.4994 73.91 18.5674 73.91 21.0489C73.91 23.5305 75.5553 25.5654 77.4316 25.5654Z" fill="#8A94A6"/>
<path d="M87.6175 21.02C87.6175 16.7351 90.5658 13.7532 94.8089 13.7532C98.215 13.7532 100.899 15.5192 101.332 19.1298H98.3593C98.0706 17.3059 96.7717 16.4952 95.4439 16.4952H94.0007C92.1533 16.4952 90.6524 18.5219 90.6524 21.0448C90.6524 23.5677 92.1533 25.6191 94.0007 25.6191H95.4439C96.1817 25.622 96.8938 25.347 97.4391 24.8483C97.9842 24.3497 98.323 23.6638 98.3881 22.9266H101.361C100.949 26.4877 98.2438 28.3405 94.7635 28.3405C90.5328 28.3157 87.6175 25.3048 87.6175 21.02Z" fill="#8A94A6"/>
<path d="M104.099 8.78296H107.13V19.3254H109.328L113.427 14.1432H116.89L111.839 20.5414L117.121 27.8951H113.484L109.068 21.8152H107.13V27.8951H104.099V8.78296Z" fill="#8A94A6"/>
<path d="M118.506 23.7679H121.422C121.566 24.9839 122.316 25.7656 123.895 25.7656H125.805C127.161 25.7656 127.796 25.0708 127.796 24.1443C127.796 23.2179 127.277 22.6678 126.037 22.4899L122.828 22.0763C120.114 21.7579 118.902 20.1367 118.902 18.0231C118.902 15.2438 120.964 13.7383 124.646 13.7383C128.172 13.7383 130.308 15.157 130.42 18.3127H127.504C127.359 17.1256 126.869 16.2861 125.368 16.2861H123.632C122.333 16.2861 121.727 16.9809 121.727 17.8784C121.727 18.7759 122.304 19.3839 123.545 19.5576L126.782 19.9712C129.409 20.2896 130.621 21.7083 130.621 23.9086C130.621 26.7458 128.745 28.3093 124.589 28.3093C120.568 28.3133 118.618 26.7789 118.506 23.7679Z" fill="#8A94A6"/>
<path d="M132.527 21.02C132.527 16.7351 135.471 13.7532 139.719 13.7532C143.125 13.7532 145.81 15.5192 146.242 19.1298H143.269C142.981 17.3059 141.682 16.4952 140.354 16.4952H138.91C137.059 16.4952 135.558 18.5219 135.558 21.0448C135.558 23.5677 137.059 25.6191 138.91 25.6191H140.354C141.092 25.622 141.804 25.347 142.349 24.8483C142.894 24.3497 143.233 23.6638 143.298 22.9266H146.271C145.859 26.4877 143.154 28.3405 139.674 28.3405C135.447 28.3157 132.527 25.3048 132.527 21.02Z" fill="#8A94A6"/>
<path d="M148.196 21.0489C148.196 16.851 151.284 13.7532 155.557 13.7532C159.828 13.7532 162.95 16.822 162.95 21.0489C162.95 25.2758 159.862 28.3157 155.557 28.3157C151.251 28.3157 148.196 25.2469 148.196 21.0489ZM154.748 25.5654H156.398C158.274 25.5654 159.923 23.5677 159.923 21.0489C159.923 18.5301 158.274 16.4994 156.398 16.4994H154.748C152.872 16.4994 151.227 18.5674 151.227 21.0489C151.227 23.5305 152.88 25.5654 154.757 25.5654H154.748Z" fill="#8A94A6"/>
<path d="M165.465 22.8142V14.1619H168.495V22.2972C168.495 24.2949 169.506 25.4819 170.833 25.4819H172.483C173.897 25.4819 175.168 24.1791 175.168 22.2972V14.1619H178.202V27.9138H175.254V26.032C174.429 27.4506 172.973 28.3191 170.751 28.3191C167.428 28.315 165.465 26.3753 165.465 22.8142Z" fill="#8A94A6"/>
<path d="M183.247 24.6936V16.8353H180.591V14.1594H183.247V10.3047H186.307V14.1594H189.886V16.8229H186.307V23.8292C186.307 24.7267 186.595 25.161 187.576 25.161H190.001V27.9113H186.702C184.484 27.9072 183.247 26.7491 183.247 24.6936Z" fill="#8A94A6"/>
</g>
<defs>
<clipPath id="clip0_1756_1069">
<rect width="190" height="35.625" fill="white" transform="translate(0 0.75)"/>
</clipPath>
</defs>
</svg>
