<svg width="198" height="38" viewBox="0 0 198 38" fill="none" xmlns="http://www.w3.org/2000/svg">
<g clip-path="url(#clip0_1778_1312)">
<path fill-rule="evenodd" clip-rule="evenodd" d="M28.2161 2.80276C28.2161 1.83571 27.4322 1.05176 26.465 1.05176H22.6335C21.6665 1.05176 20.8826 1.83571 20.8826 2.80276V6.59661C20.8826 7.56366 21.6665 8.34761 22.6335 8.34761H25.0416C26.0087 8.34761 26.7926 9.13156 26.7926 10.0986V34.3204C26.7926 35.2875 27.5766 36.0715 28.5436 36.0715H32.3752C33.3422 36.0715 34.1262 35.2875 34.1262 34.3204V10.0982C34.1262 9.13117 33.3422 8.34721 32.3752 8.34721H29.9672C29.0001 8.34721 28.2161 7.56327 28.2161 6.59621V2.80276ZM13.4993 2.80288C13.4993 1.83582 12.7153 1.05187 11.7483 1.05187H7.91671C6.94966 1.05187 6.16571 1.83582 6.16571 2.80288V6.59643C6.16571 7.56348 5.38175 8.34743 4.41471 8.34743H1.751C0.783951 8.34743 0 9.13139 0 10.0984V34.3207C0 35.2877 0.783951 36.0716 1.751 36.0716H5.58258C6.54964 36.0716 7.33358 35.2877 7.33358 34.3207V10.0987C7.33358 9.13167 8.11754 8.34772 9.08459 8.34772H11.7483C12.7153 8.34772 13.4993 7.56376 13.4993 6.59672V2.80288ZM20.7812 16.7688C20.7812 15.8019 19.9973 15.0179 19.0301 15.0179H15.1986C14.2315 15.0179 13.4475 15.8019 13.4475 16.7688V27.4417C13.4475 28.4088 14.2315 29.1927 15.1986 29.1927H19.0301C19.9973 29.1927 20.7812 28.4088 20.7812 27.4417V16.7688Z" fill="#2B6CB0"/>
<path d="M48.507 8.99048H57.17C60.8398 8.99048 62.825 10.9214 62.825 13.7014C62.8522 14.5703 62.6168 15.4271 62.1498 16.1593C61.6827 16.8916 61.006 17.4651 60.208 17.8046V17.895C61.24 18.2092 62.1405 18.8549 62.771 19.7325C63.4014 20.6101 63.7268 21.6713 63.6974 22.7526C63.6974 25.8601 61.5487 28.3039 57.6512 28.3039H48.507V8.99048ZM57.2301 16.8391C58.6137 16.8391 59.6065 15.8133 59.6065 14.2531C59.6065 12.6928 58.6137 11.667 57.2301 11.667H51.7341V16.8391H57.2301ZM57.6211 25.649C59.2756 25.649 60.4788 24.3818 60.4788 22.5414C60.4788 20.701 59.2756 19.4639 57.6211 19.4639H51.7341V25.649H57.6211Z" fill="#2B6CB0"/>
<path d="M67.7281 11.2852H65.9147V8.37158H70.908V28.2885H67.7196L67.7281 11.2852Z" fill="#2B6CB0"/>
<path d="M73.8602 21.1535C73.8602 16.7788 77.083 13.5505 81.5348 13.5505C85.9867 13.5505 89.2354 16.7486 89.2354 21.1535C89.2354 25.5584 86.0168 28.7262 81.5348 28.7262C77.053 28.7262 73.8602 25.5282 73.8602 21.1535ZM80.6927 25.8601H82.4115C84.3667 25.8601 86.0813 23.7784 86.0813 21.1535C86.0813 18.5286 84.3624 16.4124 82.4115 16.4124H80.6927C78.7375 16.4124 77.0229 18.5675 77.0229 21.1535C77.0229 23.7395 78.7375 25.8601 80.6927 25.8601Z" fill="#2B6CB0"/>
<path d="M91.3059 21.1233C91.3059 16.658 94.3784 13.5505 98.8001 13.5505C102.35 13.5505 105.147 15.3909 105.598 19.1536H102.5C102.199 17.2529 100.846 16.408 99.4619 16.408H97.9578C96.0327 16.408 94.4686 18.5201 94.4686 21.1492C94.4686 23.7784 96.0327 25.9161 97.9578 25.9161H99.4619C100.231 25.9191 100.973 25.6325 101.541 25.1129C102.109 24.5932 102.462 23.8785 102.53 23.1102H105.628C105.199 26.8212 102.38 28.7521 98.7528 28.7521C94.344 28.7262 91.3059 25.5886 91.3059 21.1233Z" fill="#2B6CB0"/>
<path d="M108.482 8.37158H111.64V19.3579H113.93L118.202 13.9575H121.811L116.547 20.6251L122.052 28.2885H118.262L113.66 21.9526H111.64V28.2885H108.482V8.37158Z" fill="#2B6CB0"/>
<path d="M123.496 23.9871H126.535C126.684 25.2543 127.466 26.0689 129.112 26.0689H131.102C132.515 26.0689 133.178 25.3449 133.178 24.3794C133.178 23.4139 132.637 22.8407 131.344 22.6553L128 22.2243C125.172 21.8925 123.909 20.2029 123.909 18.0004C123.909 15.1041 126.057 13.5352 129.894 13.5352C133.569 13.5352 135.795 15.0136 135.911 18.3021H132.873C132.722 17.0651 132.211 16.1902 130.647 16.1902H128.838C127.484 16.1902 126.853 16.9143 126.853 17.8496C126.853 18.7849 127.454 19.4185 128.747 19.5995L132.121 20.0305C134.858 20.3623 136.122 21.8408 136.122 24.1337C136.122 27.0904 134.166 28.7197 129.835 28.7197C125.645 28.7239 123.612 27.1249 123.496 23.9871Z" fill="#2B6CB0"/>
<path d="M138.107 21.1233C138.107 16.658 141.174 13.5505 145.601 13.5505C149.15 13.5505 151.948 15.3909 152.398 19.1536H149.301C149 17.2529 147.646 16.408 146.263 16.408H144.758C142.829 16.408 141.265 18.5201 141.265 21.1492C141.265 23.7784 142.829 25.9161 144.758 25.9161H146.263C147.031 25.9191 147.774 25.6325 148.342 25.1129C148.91 24.5932 149.263 23.8785 149.331 23.1102H152.429C152 26.8212 149.181 28.7521 145.554 28.7521C141.15 28.7262 138.107 25.5886 138.107 21.1233Z" fill="#2B6CB0"/>
<path d="M154.435 21.1535C154.435 16.7788 157.654 13.5505 162.107 13.5505C166.558 13.5505 169.811 16.7486 169.811 21.1535C169.811 25.5584 166.592 28.7262 162.107 28.7262C157.619 28.7262 154.435 25.5282 154.435 21.1535ZM161.264 25.8601H162.983C164.938 25.8601 166.657 23.7784 166.657 21.1535C166.657 18.5286 164.938 16.4124 162.983 16.4124H161.264C159.309 16.4124 157.595 18.5675 157.595 21.1535C157.595 23.7395 159.317 25.8601 161.272 25.8601H161.264Z" fill="#2B6CB0"/>
<path d="M172.432 22.9942V13.9775H175.59V22.4554C175.59 24.5373 176.643 25.7743 178.026 25.7743H179.745C181.219 25.7743 182.543 24.4166 182.543 22.4554V13.9775H185.705V28.3085H182.634V26.3475C181.774 27.8258 180.256 28.7309 177.941 28.7309C174.477 28.7266 172.432 26.7052 172.432 22.9942Z" fill="#2B6CB0"/>
<path d="M190.961 24.9535V16.7643H188.194V13.9757H190.961V9.95874H194.15V13.9757H197.88V16.7515H194.15V24.0527C194.15 24.988 194.451 25.4406 195.473 25.4406H198V28.3067H194.563C192.251 28.3024 190.961 27.0956 190.961 24.9535Z" fill="#2B6CB0"/>
</g>
<defs>
<clipPath id="clip0_1778_1312">
<rect width="198" height="37.125" fill="white"/>
</clipPath>
</defs>
</svg>
