<svg width="48" height="48" viewBox="0 0 48 48" fill="none" xmlns="http://www.w3.org/2000/svg">
<path opacity="0.5" d="M0 15C0 6.71573 6.71573 0 15 0H33C41.2843 0 48 6.71573 48 15V33C48 41.2843 41.2843 48 33 48H15C6.71573 48 0 41.2843 0 33V15Z" fill="#30473A"/>
<path d="M29.6 18.4H21.2C20.4574 18.4 19.7452 18.695 19.2201 19.2201C18.695 19.7452 18.4 20.4574 18.4 21.2C18.4 21.9426 18.695 22.6548 19.2201 23.1799C19.7452 23.705 20.4574 24 21.2 24H26.8C27.5426 24 28.2548 24.295 28.7799 24.8201C29.305 25.3452 29.6 26.0574 29.6 26.8C29.6 27.5426 29.305 28.2548 28.7799 28.7799C28.2548 29.305 27.5426 29.6 26.8 29.6H18.4M24 32.4V15.6M38 24C38 31.732 31.732 38 24 38C16.268 38 10 31.732 10 24C10 16.268 16.268 10 24 10C31.732 10 38 16.268 38 24Z" stroke="#78FE05" stroke-width="2.78888" stroke-linecap="round" stroke-linejoin="round"/>
</svg>
