<svg width="48" height="48" viewBox="0 0 48 48" fill="none" xmlns="http://www.w3.org/2000/svg">
<path opacity="0.5" d="M0 15C0 6.71573 6.71573 0 15 0H33C41.2843 0 48 6.71573 48 15V33C48 41.2843 41.2843 48 33 48H15C6.71573 48 0 41.2843 0 33V15Z" fill="#30473A"/>
<path d="M25.5294 37.0588H32.2941C33.0118 37.0588 33.7 36.7737 34.2075 36.2663C34.7149 35.7588 35 35.0706 35 34.3529V18.1177M35 18.1177C35.001 17.6889 34.9172 17.2642 34.7532 16.8681C34.5893 16.4719 34.3485 16.1122 34.0448 15.8095L29.1905 10.9552C28.8878 10.6515 28.5281 10.4107 28.1319 10.2468C27.7358 10.0828 27.3111 9.99896 26.8823 10M35 18.1177H28.2353C27.8765 18.1177 27.5323 17.9751 27.2786 17.7214C27.0249 17.4677 26.8823 17.1235 26.8823 16.7647V10M26.8823 10H16.0588C15.3412 10 14.6529 10.2851 14.1455 10.7925C13.638 11.3 13.3529 11.9882 13.3529 12.7059V17.1706M18.3453 29.5892L20.0906 36.1916C20.1276 36.3173 20.1273 36.4511 20.0897 36.5767C20.0521 36.7022 19.9788 36.8142 19.8788 36.8989C19.7787 36.9836 19.6563 37.0374 19.5262 37.0538C19.3962 37.0702 19.2641 37.0484 19.1462 36.9912L16.6528 35.8425C16.4675 35.7522 16.2641 35.7053 16.058 35.7055C15.8519 35.7058 15.6486 35.7531 15.4635 35.8439L12.966 36.9939C12.8481 37.0491 12.7168 37.0691 12.5879 37.0516C12.4589 37.034 12.3377 36.9796 12.2389 36.8949C12.1401 36.8102 12.0678 36.6988 12.0307 36.5741C11.9936 36.4493 11.9933 36.3165 12.0298 36.1916L13.7751 29.5892M20.1176 26.2353C20.1176 28.4769 18.3004 30.2941 16.0588 30.2941C13.8172 30.2941 12 28.4769 12 26.2353C12 23.9937 13.8172 22.1765 16.0588 22.1765C18.3004 22.1765 20.1176 23.9937 20.1176 26.2353Z" stroke="#78FE05" stroke-width="2.78888" stroke-linecap="round" stroke-linejoin="round"/>
</svg>
