<svg width="117" height="31" viewBox="0 0 117 31" fill="none" xmlns="http://www.w3.org/2000/svg">
<path d="M16.3667 15.4092L8.68359 20.2112V29.8151L16.3667 25.0131V15.4092Z" fill="#FFF200"/>
<path d="M8.68315 10.6039L1 15.4059V5.80196L8.68315 1V10.6039Z" fill="#21DFF3"/>
<path d="M16.3662 15.4079L8.68315 20.2098L1 15.4079L8.68315 10.606L16.3662 15.4079Z" fill="#FF0078"/>
<path d="M1 15.4079L8.68315 10.606" stroke="#0C0D13" stroke-width="0.42684" stroke-miterlimit="10"/>
<path d="M8.68359 20.2112L16.3667 15.4092" stroke="#0C0D13" stroke-width="0.42684" stroke-miterlimit="10"/>
<path d="M1 25.0046L8.68315 20.2026V29.8066L1 25.0046Z" fill="#A42EFF"/>
<path d="M15.3632 14.7763L9.18463 10.9134C8.87521 10.7213 8.68315 10.3798 8.68315 10.0063V1L1 5.80196V14.2214C1 14.9577 1.38416 15.6406 2.00307 16.0355L8.18159 19.8984C8.49109 20.0905 8.68315 20.4319 8.68315 20.8054V29.8118L16.3662 25.0098V16.5904C16.3662 15.854 15.9821 15.1711 15.3632 14.7763Z" stroke="#0C0D13" stroke-width="1.38724" stroke-miterlimit="10" stroke-linecap="round" stroke-linejoin="round"/>
<path d="M8.68315 29.8151L1 25.0132L8.20296 20.478" stroke="#0C0D13" stroke-width="1.38724" stroke-miterlimit="10" stroke-linecap="round" stroke-linejoin="round"/>
<path d="M31.9534 15.0821C32.0708 14.9753 32.1669 14.858 32.2629 14.7299C32.3696 14.5698 32.455 14.3885 32.4976 14.2071C32.551 14.0043 32.5723 13.7909 32.5723 13.5775C32.5723 13.236 32.519 12.9158 32.4016 12.6277C32.2842 12.3396 32.1242 12.0942 31.9108 11.8807C31.6333 11.6033 31.3131 11.4006 30.9397 11.2618C30.5769 11.1231 30.1927 11.0591 29.7873 11.0591H25.3907C25.2307 11.0591 25.1133 11.1871 25.1133 11.3365V19.8307C25.1133 19.9908 25.2413 20.1081 25.3907 20.1081H29.9473C30.3848 20.1081 30.801 20.0334 31.1744 19.884C31.5479 19.7346 31.8894 19.5212 32.1775 19.2544C32.455 18.9983 32.6684 18.6995 32.8178 18.3581C32.9672 18.0166 33.0419 17.6325 33.0419 17.227C33.0419 16.6293 32.8818 16.1065 32.5617 15.6583C32.4123 15.4342 32.1988 15.2315 31.9534 15.0821ZM29.9793 18.2621H27.1835V16.2239H30.054C30.2033 16.2239 30.3421 16.2559 30.4808 16.3199C30.6195 16.3839 30.7476 16.4693 30.8329 16.5653C30.9717 16.7254 31.0357 16.9388 31.0357 17.227C31.0357 17.3764 31.0144 17.5151 30.9717 17.6325C30.929 17.7498 30.865 17.8459 30.801 17.9206C30.6942 18.0166 30.5662 18.102 30.4168 18.166C30.2781 18.23 30.1393 18.2621 29.9793 18.2621ZM30.3741 14.143C30.3208 14.2071 30.2568 14.2497 30.1714 14.2924C30.1074 14.3244 30.022 14.3458 29.9366 14.3458H27.1835V12.9158H29.7125C29.9793 12.9158 30.1927 12.9905 30.3528 13.1293C30.4808 13.2466 30.5448 13.4174 30.5448 13.6415C30.5448 13.8443 30.4915 14.0149 30.3741 14.143Z" fill="white"/>
<path d="M36.8144 11.0591H35.3204C35.1604 11.0591 35.043 11.1871 35.043 11.3365V19.8307C35.043 19.9908 35.1711 20.1081 35.3204 20.1081H41.7337C41.8938 20.1081 42.0112 19.9801 42.0112 19.8307V18.4968C42.0112 18.3368 41.8831 18.2193 41.7337 18.2193H37.1025V11.3472C37.1025 11.1871 36.9744 11.0591 36.8144 11.0591Z" fill="white"/>
<path d="M50.793 12.1527C50.3768 11.7366 49.8646 11.4058 49.2884 11.1711C48.7121 10.9363 48.0719 10.8296 47.3783 10.8296C46.6633 10.8296 46.0017 10.9576 45.4041 11.2137C44.8066 11.4698 44.2943 11.8326 43.8675 12.2808C43.462 12.697 43.1526 13.1985 42.9284 13.7427C42.7043 14.2976 42.5977 14.8952 42.5977 15.5248C42.5977 16.1224 42.715 16.7093 42.9391 17.2642C43.1632 17.8084 43.4727 18.2993 43.8569 18.7048C44.273 19.153 44.7959 19.5264 45.3934 19.7932C45.9911 20.0706 46.6633 20.2094 47.3783 20.2094C48.0932 20.2094 48.7442 20.0813 49.3311 19.8359C49.9073 19.5904 50.4195 19.2383 50.857 18.8008C51.2732 18.3846 51.5933 17.8831 51.8067 17.3282C52.0308 16.7733 52.1375 16.1651 52.1375 15.5142C52.1375 14.8632 52.0202 14.2443 51.7854 13.6787C51.5613 13.1025 51.2305 12.5903 50.793 12.1527ZM50.078 15.5035C50.078 15.8983 50.014 16.2718 49.8859 16.5919C49.7579 16.9227 49.5765 17.2001 49.3631 17.4456C49.1176 17.7124 48.8189 17.9151 48.4774 18.0645C47.7945 18.3633 46.9514 18.3526 46.2792 18.0539C45.9483 17.9045 45.6496 17.691 45.4148 17.4243C45.1907 17.1895 45.0093 16.9013 44.8813 16.5705C44.7532 16.2504 44.6785 15.8876 44.6785 15.4928C44.6785 15.098 44.7425 14.7245 44.8813 14.4044C45.02 14.0735 45.1907 13.7855 45.4148 13.5507C45.6603 13.2839 45.959 13.0812 46.3005 12.9317C46.642 12.7823 47.0048 12.7076 47.3889 12.7076C47.7624 12.7076 48.1253 12.7823 48.4667 12.9317C48.8082 13.0812 49.1069 13.2839 49.3524 13.54C49.5765 13.7748 49.7579 14.0522 49.8859 14.383C50.014 14.7245 50.078 15.098 50.078 15.5035Z" fill="white"/>
<path d="M56.146 13.5866C56.3915 13.3411 56.6796 13.1491 57.0104 13.0104C57.736 12.7115 58.6537 12.765 59.326 13.053C59.6141 13.1811 60.233 13.6506 60.4998 13.8534C60.5745 13.9174 60.6812 13.9067 60.7453 13.832L61.7697 12.6796C61.8337 12.6049 61.8337 12.4875 61.7483 12.4235C61.3961 12.146 60.5105 11.4631 60.0622 11.271C59.4967 11.0256 58.8244 10.9082 58.0668 10.9082C57.3732 10.9082 56.7222 11.0256 56.146 11.2603C55.5698 11.4951 55.0576 11.8259 54.6307 12.2527C54.2145 12.6796 53.8731 13.1811 53.649 13.7466C53.4142 14.3122 53.2969 14.9311 53.2969 15.5821C53.2969 16.2544 53.4142 16.8733 53.649 17.4389C53.8837 18.0044 54.2252 18.5166 54.6627 18.9435C55.0896 19.3596 55.6018 19.6904 56.1674 19.9359C56.7329 20.1706 57.3732 20.288 58.0562 20.288C58.8031 20.288 59.4754 20.1706 60.0516 19.9359C60.4998 19.7544 61.3961 19.0395 61.7483 18.7514C61.8337 18.6874 61.8337 18.5699 61.7697 18.4952L60.7453 17.3535C60.6812 17.2788 60.5745 17.2681 60.4998 17.3321C60.233 17.5348 59.6141 18.0044 59.3153 18.1325C58.643 18.4312 57.736 18.4846 56.989 18.1644C56.6475 18.015 56.3487 17.8123 56.1033 17.5562C55.8792 17.3321 55.6978 17.0547 55.5698 16.7239C55.4311 16.3931 55.3671 16.0196 55.3671 15.5928C55.3671 15.1979 55.4418 14.8138 55.5805 14.4723C55.7192 14.1202 55.9113 13.8213 56.146 13.5866Z" fill="white"/>
<path d="M71.7343 11.0591H69.7602C69.6215 11.0591 69.504 11.1231 69.4294 11.2299L67.2205 14.3351H65.8759V11.3365C65.8759 11.1765 65.7479 11.0591 65.5985 11.0591H64.0939C63.9338 11.0591 63.8164 11.1871 63.8164 11.3365V19.8307C63.8164 19.9908 63.9444 20.1081 64.0939 20.1081H65.5985C65.7585 20.1081 65.8759 19.9801 65.8759 19.8307V16.2345H67.2418L69.6641 19.9268C69.7388 20.0441 69.8669 20.1081 70.0056 20.1081H71.9264C72.0331 20.1081 72.0971 19.9908 72.0438 19.8947L69.0025 15.2208L71.841 11.2511C71.9157 11.1871 71.8517 11.0591 71.7343 11.0591Z" fill="white"/>
<path d="M75.7359 13.5866C75.9814 13.3411 76.2696 13.1491 76.5999 13.0104C77.3257 12.7115 78.2432 12.765 78.916 13.053C79.2039 13.1811 79.8229 13.6506 80.0896 13.8534C80.1646 13.9174 80.2715 13.9067 80.3351 13.832L81.3594 12.6796C81.4238 12.6049 81.4238 12.4875 81.3382 12.4235C80.9859 12.146 80.1002 11.4631 79.6525 11.271C79.0865 11.0256 78.4145 10.9082 77.6568 10.9082C76.9628 10.9082 76.312 11.0256 75.7359 11.2603C75.1596 11.4951 74.6475 11.8259 74.2206 12.2527C73.8044 12.6796 73.463 13.1811 73.2389 13.7466C73.0042 14.3122 72.8867 14.9311 72.8867 15.5821C72.8867 16.2544 73.0042 16.8733 73.2389 17.4389C73.4737 18.0044 73.8151 18.5166 74.2527 18.9435C74.6795 19.3596 75.1917 19.6904 75.7573 19.9359C76.3332 20.1706 76.9628 20.288 77.6462 20.288C78.3933 20.288 79.0653 20.1706 79.6419 19.9359C80.0896 19.7544 80.9859 19.0395 81.3382 18.7514C81.4238 18.6874 81.4238 18.5699 81.3594 18.4952L80.3351 17.3535C80.2715 17.2788 80.1646 17.2681 80.0896 17.3321C79.8229 17.5348 79.2039 18.0044 78.9054 18.1325C78.2326 18.4312 77.3257 18.4846 76.5787 18.1644C76.2378 18.015 75.9387 17.8123 75.6933 17.5562C75.4691 17.3321 75.2878 17.0547 75.1596 16.7239C75.0209 16.3931 74.9569 16.0196 74.9569 15.5928C74.9569 15.1979 75.0316 14.8138 75.1703 14.4723C75.3091 14.1202 75.5012 13.8213 75.7359 13.5866Z" fill="white"/>
<path d="M89.2545 14.2539H85.3277V11.2554C85.3277 11.0953 85.1996 10.9673 85.0398 10.9673H83.5457C83.3859 10.9673 83.2578 11.0953 83.2578 11.2554V19.7495C83.2578 19.9096 83.3859 20.0269 83.5457 20.0269H85.0398C85.1996 20.0269 85.3277 19.8989 85.3277 19.7495V16.1533H89.2545V19.7495C89.2545 19.9096 89.3826 20.0269 89.5432 20.0269H91.0365C91.1971 20.0269 91.3252 19.8989 91.3252 19.7495V11.2554C91.3252 11.0953 91.1971 10.9673 91.0365 10.9673H89.5432C89.3826 10.9673 89.2545 11.0953 89.2545 11.2554V14.2539Z" fill="white"/>
<path d="M96.7247 11.3014L92.9039 19.9236C92.8615 20.009 92.9251 20.1157 93.0319 20.1157H94.7609C94.9208 20.1157 95.07 20.0197 95.1344 19.8703L95.7216 18.5578H99.9151L100.513 19.881C100.577 20.0304 100.726 20.1264 100.886 20.1264H102.636C102.732 20.1264 102.796 20.0197 102.764 19.9343L98.9438 11.3121C98.8802 11.1627 98.7302 11.0667 98.5703 11.0667H97.1194C96.9376 11.056 96.7883 11.1521 96.7247 11.3014ZM99.1037 16.6477H96.511L97.7915 13.393L99.1037 16.6477Z" fill="white"/>
<path d="M104.616 20.1188H106.089C106.249 20.1188 106.377 19.9908 106.377 19.8307V11.3472C106.377 11.1871 106.249 11.0591 106.089 11.0591H104.616C104.456 11.0591 104.328 11.1871 104.328 11.3472V19.8414C104.328 20.0014 104.456 20.1188 104.616 20.1188Z" fill="white"/>
<path d="M115.345 17.338C115.505 17.2526 115.644 17.1565 115.782 17.0498C115.986 16.8898 116.177 16.6977 116.337 16.495C116.775 15.9294 116.999 15.2358 116.999 14.4567C116.999 13.9659 116.903 13.5177 116.721 13.1122C116.54 12.7174 116.295 12.3546 115.986 12.0451C115.654 11.725 115.281 11.4796 114.854 11.3088C114.427 11.1381 113.979 11.0527 113.499 11.0527H109.316C109.155 11.0527 109.027 11.1808 109.027 11.3409V19.8349C109.027 19.995 109.155 20.1231 109.316 20.1231H110.81C110.97 20.1231 111.098 19.995 111.098 19.8349V17.8075H113.285L114.544 19.9203C114.619 20.0484 114.748 20.1231 114.897 20.1231H116.86C116.935 20.1231 116.989 20.0377 116.945 19.9737L115.345 17.338ZM111.098 13.0055H113.467C113.691 13.0055 113.904 13.0482 114.107 13.1336C114.299 13.2189 114.448 13.3363 114.588 13.4964C114.822 13.7525 114.939 14.0619 114.939 14.4674C114.939 14.6489 114.907 14.8409 114.844 15.0116C114.779 15.1824 114.683 15.3425 114.544 15.4918C114.438 15.6199 114.299 15.7159 114.129 15.7906C113.947 15.8654 113.755 15.908 113.541 15.908H111.098V13.0055Z" fill="white"/>
</svg>
