<svg width="47" height="47" viewBox="0 0 47 47" fill="none" xmlns="http://www.w3.org/2000/svg">
<circle cx="23.5" cy="23.5" r="23.5" fill="black"/>
<path fill-rule="evenodd" clip-rule="evenodd" d="M32.3241 11.3873C32.3241 10.6222 31.7038 10.002 30.9387 10.002H27.9072C27.1422 10.002 26.5219 10.6222 26.5219 11.3873V14.3889C26.5219 15.1541 27.1422 15.7743 27.9072 15.7743H29.8124C30.5776 15.7743 31.1978 16.3945 31.1978 17.1597V36.3235C31.1978 37.0887 31.8181 37.7089 32.5831 37.7089H35.6147C36.3797 37.7089 37 37.0887 37 36.3235V17.1594C37 16.3942 36.3797 15.774 35.6147 15.774H33.7095C32.9443 15.774 32.3241 15.1537 32.3241 14.3886V11.3873ZM20.6804 11.3874C20.6804 10.6223 20.0601 10.002 19.295 10.002H16.2636C15.4984 10.002 14.8782 10.6223 14.8782 11.3874V14.3888C14.8782 15.1539 14.2579 15.7742 13.4928 15.7742H11.3854C10.6202 15.7742 10 16.3944 10 17.1595V36.3237C10 37.0888 10.6202 37.709 11.3854 37.709H14.4168C15.182 37.709 15.8022 37.0888 15.8022 36.3237V17.1597C15.8022 16.3946 16.4225 15.7744 17.1876 15.7744H19.295C20.0601 15.7744 20.6804 15.1541 20.6804 14.389V11.3874ZM26.4417 22.437C26.4417 21.672 25.8215 21.0517 25.0563 21.0517H22.0249C21.2597 21.0517 20.6394 21.672 20.6394 22.437V30.8812C20.6394 31.6463 21.2597 32.2666 22.0249 32.2666H25.0563C25.8215 32.2666 26.4417 31.6463 26.4417 30.8812V22.437Z" fill="#2B6CB0"/>
</svg>
