<svg width="297" height="52" viewBox="0 0 297 52" fill="none" xmlns="http://www.w3.org/2000/svg">
<path d="M8 52H274.5L297 39.9688V8H278V10.75H253V8H28.5L8 20.375V52Z" fill="#735AA9"/>
<path d="M292 1H271V3.75H248V1H22.2217L21.9834 1.14355L1.4834 13.5186L1 13.8105V47H268.751L268.972 46.8818L291.472 34.8506L292 34.5684V1Z" fill="url(#paint0_linear_4326_343)" stroke="url(#paint1_linear_4326_343)" stroke-width="2"/>
<path d="M32.735 23.795C32.6783 23.829 32.6783 23.863 32.735 23.897C33.9363 24.407 34.537 25.3533 34.537 26.736C34.537 27.7787 34.1913 28.5833 33.5 29.15C32.8087 29.7167 31.9077 30 30.797 30H26.564C26.4507 30 26.394 29.9433 26.394 29.83V18.27C26.394 18.1567 26.4507 18.1 26.564 18.1H30.661C31.8397 18.1 32.752 18.372 33.398 18.916C34.0553 19.4487 34.384 20.2307 34.384 21.262C34.384 22.486 33.8343 23.3303 32.735 23.795ZM28.094 19.511C28.0487 19.511 28.026 19.5337 28.026 19.579V23.166C28.026 23.2113 28.0487 23.234 28.094 23.234H30.661C31.3183 23.234 31.834 23.0697 32.208 22.741C32.5933 22.4123 32.786 21.9647 32.786 21.398C32.786 20.82 32.5933 20.361 32.208 20.021C31.834 19.681 31.3183 19.511 30.661 19.511H28.094ZM30.797 28.572C31.443 28.572 31.953 28.3963 32.327 28.045C32.7123 27.6823 32.905 27.195 32.905 26.583C32.905 25.971 32.7123 25.4893 32.327 25.138C31.9417 24.7753 31.4147 24.594 30.746 24.594H28.094C28.0487 24.594 28.026 24.6167 28.026 24.662V28.504C28.026 28.5493 28.0487 28.572 28.094 28.572H30.797ZM40.3344 30.136C39.4957 30.136 38.7647 29.9263 38.1414 29.507C37.5181 29.0763 37.0817 28.4813 36.8324 27.722C36.6284 27.11 36.5264 26.4187 36.5264 25.648C36.5264 24.8433 36.6227 24.1633 36.8154 23.608C37.0647 22.86 37.5011 22.2763 38.1244 21.857C38.7477 21.4263 39.4901 21.211 40.3514 21.211C41.1674 21.211 41.8757 21.4263 42.4764 21.857C43.0884 22.2763 43.5247 22.8543 43.7854 23.591C43.9894 24.169 44.0914 24.849 44.0914 25.631C44.0914 26.4243 43.9894 27.1213 43.7854 27.722C43.5361 28.4813 43.1054 29.0763 42.4934 29.507C41.8814 29.9263 41.1617 30.136 40.3344 30.136ZM40.3344 28.725C40.7877 28.725 41.1844 28.6003 41.5244 28.351C41.8644 28.0903 42.1081 27.7277 42.2554 27.263C42.3801 26.8323 42.4424 26.2997 42.4424 25.665C42.4424 25.0303 42.3857 24.5033 42.2724 24.084C42.1251 23.6193 41.8814 23.2623 41.5414 23.013C41.2014 22.7523 40.7877 22.622 40.3004 22.622C39.8357 22.622 39.4334 22.7523 39.0934 23.013C38.7534 23.2623 38.5097 23.6193 38.3624 24.084C38.2377 24.4807 38.1754 25.0077 38.1754 25.665C38.1754 26.3223 38.2377 26.855 38.3624 27.263C38.4984 27.7277 38.7364 28.0903 39.0764 28.351C39.4277 28.6003 39.8471 28.725 40.3344 28.725ZM49.7641 30.136C48.9254 30.136 48.1944 29.9263 47.5711 29.507C46.9478 29.0763 46.5114 28.4813 46.2621 27.722C46.0581 27.11 45.9561 26.4187 45.9561 25.648C45.9561 24.8433 46.0524 24.1633 46.2451 23.608C46.4944 22.86 46.9308 22.2763 47.5541 21.857C48.1774 21.4263 48.9198 21.211 49.7811 21.211C50.5971 21.211 51.3054 21.4263 51.9061 21.857C52.5181 22.2763 52.9544 22.8543 53.2151 23.591C53.4191 24.169 53.5211 24.849 53.5211 25.631C53.5211 26.4243 53.4191 27.1213 53.2151 27.722C52.9658 28.4813 52.5351 29.0763 51.9231 29.507C51.3111 29.9263 50.5914 30.136 49.7641 30.136ZM49.7641 28.725C50.2174 28.725 50.6141 28.6003 50.9541 28.351C51.2941 28.0903 51.5378 27.7277 51.6851 27.263C51.8098 26.8323 51.8721 26.2997 51.8721 25.665C51.8721 25.0303 51.8154 24.5033 51.7021 24.084C51.5548 23.6193 51.3111 23.2623 50.9711 23.013C50.6311 22.7523 50.2174 22.622 49.7301 22.622C49.2654 22.622 48.8631 22.7523 48.5231 23.013C48.1831 23.2623 47.9394 23.6193 47.7921 24.084C47.6674 24.4807 47.6051 25.0077 47.6051 25.665C47.6051 26.3223 47.6674 26.855 47.7921 27.263C47.9281 27.7277 48.1661 28.0903 48.5061 28.351C48.8574 28.6003 49.2768 28.725 49.7641 28.725ZM55.8278 30C55.7144 30 55.6578 29.9433 55.6578 29.83V18.27C55.6578 18.1567 55.7144 18.1 55.8278 18.1H57.1198C57.2331 18.1 57.2898 18.1567 57.2898 18.27V24.815C57.2898 24.8377 57.3011 24.8547 57.3238 24.866C57.3464 24.8773 57.3634 24.8717 57.3748 24.849L60.5198 21.432C60.5651 21.3753 60.6331 21.347 60.7238 21.347H62.2368C62.3048 21.347 62.3444 21.3697 62.3558 21.415C62.3784 21.449 62.3671 21.4943 62.3218 21.551L60.1288 24.084C60.1061 24.1293 60.1004 24.1633 60.1118 24.186L62.7128 29.796L62.7298 29.864C62.7298 29.9547 62.6788 30 62.5768 30H61.2168C61.1261 30 61.0638 29.9547 61.0298 29.864L59.0068 25.24C58.9841 25.1833 58.9558 25.1777 58.9218 25.223L57.3238 26.991C57.3011 27.0363 57.2898 27.0647 57.2898 27.076V29.83C57.2898 29.9433 57.2331 30 57.1198 30H55.8278ZM75.8693 19.341C75.8693 19.4543 75.8126 19.511 75.6993 19.511H69.6643C69.619 19.511 69.5963 19.5337 69.5963 19.579V23.234C69.5963 23.2793 69.619 23.302 69.6643 23.302H73.8123C73.9256 23.302 73.9823 23.3587 73.9823 23.472V24.543C73.9823 24.6563 73.9256 24.713 73.8123 24.713H69.6643C69.619 24.713 69.5963 24.7357 69.5963 24.781V28.521C69.5963 28.5663 69.619 28.589 69.6643 28.589H75.6993C75.8126 28.589 75.8693 28.6457 75.8693 28.759V29.83C75.8693 29.9433 75.8126 30 75.6993 30H68.1343C68.021 30 67.9643 29.9433 67.9643 29.83V18.27C67.9643 18.1567 68.021 18.1 68.1343 18.1H75.6993C75.8126 18.1 75.8693 18.1567 75.8693 18.27V19.341ZM81.7795 21.228C82.7088 21.228 83.4455 21.5 83.9895 22.044C84.5335 22.5767 84.8055 23.302 84.8055 24.22V29.83C84.8055 29.9433 84.7488 30 84.6355 30H83.3435C83.2301 30 83.1735 29.9433 83.1735 29.83V24.543C83.1735 23.9763 83.0091 23.5173 82.6805 23.166C82.3518 22.8147 81.9155 22.639 81.3715 22.639C80.8388 22.639 80.4025 22.8147 80.0625 23.166C79.7225 23.5173 79.5525 23.9707 79.5525 24.526V29.83C79.5525 29.9433 79.4958 30 79.3825 30H78.0905C77.9771 30 77.9205 29.9433 77.9205 29.83V21.517C77.9205 21.4037 77.9771 21.347 78.0905 21.347H79.3825C79.4958 21.347 79.5525 21.4037 79.5525 21.517V22.129C79.5525 22.1517 79.5581 22.1687 79.5695 22.18C79.5921 22.1913 79.6091 22.1857 79.6205 22.163C80.1078 21.5397 80.8275 21.228 81.7795 21.228ZM91.4013 22.52C91.4013 22.6333 91.3447 22.69 91.2313 22.69H89.3953C89.35 22.69 89.3273 22.7127 89.3273 22.758V27.263C89.3273 27.739 89.435 28.0847 89.6503 28.3C89.8657 28.504 90.2 28.606 90.6533 28.606H91.1463C91.2597 28.606 91.3163 28.6627 91.3163 28.776V29.83C91.3163 29.9433 91.2597 30 91.1463 30C90.7837 30.0227 90.523 30.034 90.3643 30.034C89.503 30.034 88.8513 29.881 88.4093 29.575C87.9787 29.2577 87.7633 28.6797 87.7633 27.841V22.758C87.7633 22.7127 87.7407 22.69 87.6953 22.69H86.6583C86.545 22.69 86.4883 22.6333 86.4883 22.52V21.517C86.4883 21.4037 86.545 21.347 86.6583 21.347H87.6953C87.7407 21.347 87.7633 21.3243 87.7633 21.279V19.273C87.7633 19.1597 87.82 19.103 87.9333 19.103H89.1573C89.2707 19.103 89.3273 19.1597 89.3273 19.273V21.279C89.3273 21.3243 89.35 21.347 89.3953 21.347H91.2313C91.3447 21.347 91.4013 21.4037 91.4013 21.517V22.52ZM100.215 24.594C100.26 25.0587 100.277 25.58 100.266 26.158C100.266 26.2713 100.209 26.328 100.096 26.328H94.6725C94.6272 26.328 94.6045 26.3507 94.6045 26.396C94.6045 26.7813 94.6385 27.076 94.7065 27.28C94.8312 27.7333 95.0805 28.0903 95.4545 28.351C95.8398 28.6003 96.3215 28.725 96.8995 28.725C97.7382 28.725 98.3842 28.3793 98.8375 27.688C98.8942 27.5747 98.9678 27.5577 99.0585 27.637L100.028 28.283C100.107 28.351 100.124 28.4247 100.079 28.504C99.7612 29.014 99.3078 29.4163 98.7185 29.711C98.1405 30.0057 97.4832 30.153 96.7465 30.153C95.9192 30.153 95.2222 29.9717 94.6555 29.609C94.0888 29.2463 93.6638 28.7307 93.3805 28.062C93.1085 27.3933 92.9725 26.583 92.9725 25.631C92.9725 24.8037 93.0348 24.1747 93.1595 23.744C93.3635 22.962 93.7715 22.3443 94.3835 21.891C94.9955 21.4377 95.7378 21.211 96.6105 21.211C97.7552 21.211 98.6108 21.5 99.1775 22.078C99.7442 22.6447 100.09 23.4833 100.215 24.594ZM96.6105 22.622C96.1232 22.622 95.7208 22.7467 95.4035 22.996C95.0862 23.234 94.8708 23.557 94.7575 23.965C94.6782 24.2143 94.6272 24.5317 94.6045 24.917C94.6045 24.9623 94.6272 24.985 94.6725 24.985H98.5655C98.6108 24.985 98.6335 24.9623 98.6335 24.917C98.6108 24.543 98.5768 24.2653 98.5315 24.084C98.4182 23.642 98.1915 23.2907 97.8515 23.03C97.5228 22.758 97.1092 22.622 96.6105 22.622ZM106.116 21.262C106.478 21.262 106.807 21.3357 107.102 21.483C107.181 21.517 107.209 21.585 107.187 21.687L106.915 22.962C106.903 23.064 106.835 23.098 106.711 23.064C106.518 22.9847 106.291 22.945 106.031 22.945L105.793 22.962C105.26 22.9847 104.818 23.1717 104.467 23.523C104.127 23.863 103.957 24.3107 103.957 24.866V29.83C103.957 29.9433 103.9 30 103.787 30H102.495C102.381 30 102.325 29.9433 102.325 29.83V21.517C102.325 21.4037 102.381 21.347 102.495 21.347H103.787C103.9 21.347 103.957 21.4037 103.957 21.517V22.418C103.957 22.452 103.962 22.4747 103.974 22.486C103.996 22.486 104.013 22.4747 104.025 22.452C104.535 21.6587 105.232 21.262 106.116 21.262ZM115.654 23.523C115.87 24.135 115.977 24.8603 115.977 25.699C115.977 26.4923 115.887 27.178 115.705 27.756C115.467 28.5153 115.076 29.1047 114.532 29.524C113.988 29.932 113.291 30.136 112.441 30.136C112.056 30.136 111.688 30.0623 111.336 29.915C110.996 29.7563 110.702 29.5353 110.452 29.252C110.43 29.2293 110.407 29.2237 110.384 29.235C110.373 29.2463 110.367 29.2633 110.367 29.286V33.077C110.367 33.1903 110.311 33.247 110.197 33.247H108.905C108.792 33.247 108.735 33.1903 108.735 33.077V21.517C108.735 21.4037 108.792 21.347 108.905 21.347H110.197C110.311 21.347 110.367 21.4037 110.367 21.517V22.078C110.367 22.1007 110.373 22.1177 110.384 22.129C110.407 22.1403 110.43 22.1347 110.452 22.112C110.702 21.8287 110.996 21.6077 111.336 21.449C111.676 21.2903 112.045 21.211 112.441 21.211C113.257 21.211 113.932 21.415 114.464 21.823C115.008 22.2197 115.405 22.7863 115.654 23.523ZM113.784 27.909C114.147 27.365 114.328 26.617 114.328 25.665C114.328 24.7923 114.187 24.0897 113.903 23.557C113.575 22.9337 113.036 22.622 112.288 22.622C111.631 22.622 111.132 22.928 110.792 23.54C110.52 24.0273 110.384 24.7413 110.384 25.682C110.384 26.634 110.532 27.3593 110.826 27.858C111.155 28.436 111.637 28.725 112.271 28.725C112.951 28.725 113.456 28.453 113.784 27.909ZM121.904 21.262C122.267 21.262 122.595 21.3357 122.89 21.483C122.969 21.517 122.998 21.585 122.975 21.687L122.703 22.962C122.692 23.064 122.624 23.098 122.499 23.064C122.306 22.9847 122.08 22.945 121.819 22.945L121.581 22.962C121.048 22.9847 120.606 23.1717 120.255 23.523C119.915 23.863 119.745 24.3107 119.745 24.866V29.83C119.745 29.9433 119.688 30 119.575 30H118.283C118.17 30 118.113 29.9433 118.113 29.83V21.517C118.113 21.4037 118.17 21.347 118.283 21.347H119.575C119.688 21.347 119.745 21.4037 119.745 21.517V22.418C119.745 22.452 119.751 22.4747 119.762 22.486C119.785 22.486 119.802 22.4747 119.813 22.452C120.323 21.6587 121.02 21.262 121.904 21.262ZM125.407 19.987C125.09 19.987 124.829 19.885 124.625 19.681C124.421 19.477 124.319 19.2163 124.319 18.899C124.319 18.5817 124.421 18.321 124.625 18.117C124.829 17.913 125.09 17.811 125.407 17.811C125.725 17.811 125.985 17.913 126.189 18.117C126.393 18.321 126.495 18.5817 126.495 18.899C126.495 19.2163 126.393 19.477 126.189 19.681C125.985 19.885 125.725 19.987 125.407 19.987ZM124.727 29.983C124.614 29.983 124.557 29.9263 124.557 29.813V21.517C124.557 21.4037 124.614 21.347 124.727 21.347H126.019C126.133 21.347 126.189 21.4037 126.189 21.517V29.813C126.189 29.9263 126.133 29.983 126.019 29.983H124.727ZM131.797 30.102C131.117 30.102 130.517 30 129.995 29.796C129.485 29.592 129.089 29.3143 128.805 28.963C128.522 28.6003 128.38 28.2037 128.38 27.773V27.586C128.38 27.4727 128.437 27.416 128.55 27.416H129.774C129.888 27.416 129.944 27.4727 129.944 27.586V27.671C129.944 27.9883 130.114 28.266 130.454 28.504C130.806 28.742 131.248 28.861 131.78 28.861C132.29 28.861 132.704 28.7533 133.021 28.538C133.339 28.3113 133.497 28.028 133.497 27.688C133.497 27.3593 133.35 27.1157 133.055 26.957C132.761 26.787 132.285 26.6113 131.627 26.43C130.981 26.2487 130.437 26.0673 129.995 25.886C129.565 25.6933 129.196 25.427 128.89 25.087C128.596 24.7357 128.448 24.288 128.448 23.744C128.448 22.9847 128.743 22.384 129.332 21.942C129.933 21.4887 130.726 21.262 131.712 21.262C132.37 21.262 132.948 21.3697 133.446 21.585C133.956 21.789 134.347 22.078 134.619 22.452C134.891 22.826 135.027 23.2453 135.027 23.71V23.761C135.027 23.8743 134.971 23.931 134.857 23.931H133.667C133.554 23.931 133.497 23.8743 133.497 23.761V23.71C133.497 23.3813 133.333 23.1093 133.004 22.894C132.687 22.6673 132.251 22.554 131.695 22.554C131.197 22.554 130.789 22.6503 130.471 22.843C130.165 23.0357 130.012 23.2963 130.012 23.625C130.012 23.9537 130.16 24.203 130.454 24.373C130.76 24.543 131.248 24.7243 131.916 24.917C132.574 25.0983 133.118 25.2797 133.548 25.461C133.99 25.631 134.364 25.8917 134.67 26.243C134.976 26.583 135.129 27.0307 135.129 27.586C135.129 28.3567 134.823 28.9687 134.211 29.422C133.611 29.8753 132.806 30.102 131.797 30.102ZM144.043 24.594C144.088 25.0587 144.105 25.58 144.094 26.158C144.094 26.2713 144.037 26.328 143.924 26.328H138.501C138.455 26.328 138.433 26.3507 138.433 26.396C138.433 26.7813 138.467 27.076 138.535 27.28C138.659 27.7333 138.909 28.0903 139.283 28.351C139.668 28.6003 140.15 28.725 140.728 28.725C141.566 28.725 142.212 28.3793 142.666 27.688C142.722 27.5747 142.796 27.5577 142.887 27.637L143.856 28.283C143.935 28.351 143.952 28.4247 143.907 28.504C143.589 29.014 143.136 29.4163 142.547 29.711C141.969 30.0057 141.311 30.153 140.575 30.153C139.747 30.153 139.05 29.9717 138.484 29.609C137.917 29.2463 137.492 28.7307 137.209 28.062C136.937 27.3933 136.801 26.583 136.801 25.631C136.801 24.8037 136.863 24.1747 136.988 23.744C137.192 22.962 137.6 22.3443 138.212 21.891C138.824 21.4377 139.566 21.211 140.439 21.211C141.583 21.211 142.439 21.5 143.006 22.078C143.572 22.6447 143.918 23.4833 144.043 24.594ZM140.439 22.622C139.951 22.622 139.549 22.7467 139.232 22.996C138.914 23.234 138.699 23.557 138.586 23.965C138.506 24.2143 138.455 24.5317 138.433 24.917C138.433 24.9623 138.455 24.985 138.501 24.985H142.394C142.439 24.985 142.462 24.9623 142.462 24.917C142.439 24.543 142.405 24.2653 142.36 24.084C142.246 23.642 142.02 23.2907 141.68 23.03C141.351 22.758 140.937 22.622 140.439 22.622ZM153.432 30.136C152.56 30.136 151.8 30 151.154 29.728C150.52 29.456 150.027 29.0707 149.675 28.572C149.335 28.0733 149.165 27.4897 149.165 26.821V26.328C149.165 26.2147 149.222 26.158 149.335 26.158H150.576C150.69 26.158 150.746 26.2147 150.746 26.328V26.736C150.746 27.314 150.996 27.79 151.494 28.164C151.993 28.538 152.679 28.725 153.551 28.725C154.333 28.725 154.923 28.5607 155.319 28.232C155.716 27.9033 155.914 27.4727 155.914 26.94C155.914 26.5887 155.812 26.2883 155.608 26.039C155.404 25.7897 155.104 25.563 154.707 25.359C154.322 25.1437 153.755 24.8887 153.007 24.594C152.18 24.2767 151.523 23.9877 151.035 23.727C150.559 23.4663 150.163 23.1263 149.845 22.707C149.528 22.2763 149.369 21.738 149.369 21.092C149.369 20.1173 149.715 19.3523 150.406 18.797C151.109 18.2417 152.055 17.964 153.245 17.964C154.084 17.964 154.821 18.1057 155.455 18.389C156.09 18.6723 156.577 19.069 156.917 19.579C157.269 20.089 157.444 20.6783 157.444 21.347V21.687C157.444 21.8003 157.388 21.857 157.274 21.857H155.999C155.886 21.857 155.829 21.8003 155.829 21.687V21.432C155.829 20.8427 155.591 20.3553 155.115 19.97C154.651 19.5733 154.005 19.375 153.177 19.375C152.475 19.375 151.931 19.5223 151.545 19.817C151.16 20.1003 150.967 20.514 150.967 21.058C150.967 21.432 151.064 21.738 151.256 21.976C151.449 22.214 151.732 22.4293 152.106 22.622C152.492 22.8033 153.075 23.0413 153.857 23.336C154.662 23.6533 155.314 23.948 155.812 24.22C156.311 24.4807 156.725 24.832 157.053 25.274C157.382 25.7047 157.546 26.243 157.546 26.889C157.546 27.8863 157.178 28.6797 156.441 29.269C155.716 29.847 154.713 30.136 153.432 30.136ZM166.554 24.594C166.6 25.0587 166.617 25.58 166.605 26.158C166.605 26.2713 166.549 26.328 166.435 26.328H161.012C160.967 26.328 160.944 26.3507 160.944 26.396C160.944 26.7813 160.978 27.076 161.046 27.28C161.171 27.7333 161.42 28.0903 161.794 28.351C162.18 28.6003 162.661 28.725 163.239 28.725C164.078 28.725 164.724 28.3793 165.177 27.688C165.234 27.5747 165.308 27.5577 165.398 27.637L166.367 28.283C166.447 28.351 166.464 28.4247 166.418 28.504C166.101 29.014 165.648 29.4163 165.058 29.711C164.48 30.0057 163.823 30.153 163.086 30.153C162.259 30.153 161.562 29.9717 160.995 29.609C160.429 29.2463 160.004 28.7307 159.72 28.062C159.448 27.3933 159.312 26.583 159.312 25.631C159.312 24.8037 159.375 24.1747 159.499 23.744C159.703 22.962 160.111 22.3443 160.723 21.891C161.335 21.4377 162.078 21.211 162.95 21.211C164.095 21.211 164.951 21.5 165.517 22.078C166.084 22.6447 166.43 23.4833 166.554 24.594ZM162.95 22.622C162.463 22.622 162.061 22.7467 161.743 22.996C161.426 23.234 161.211 23.557 161.097 23.965C161.018 24.2143 160.967 24.5317 160.944 24.917C160.944 24.9623 160.967 24.985 161.012 24.985H164.905C164.951 24.985 164.973 24.9623 164.973 24.917C164.951 24.543 164.917 24.2653 164.871 24.084C164.758 23.642 164.531 23.2907 164.191 23.03C163.863 22.758 163.449 22.622 162.95 22.622ZM172.133 30.136C171.271 30.136 170.535 29.9207 169.923 29.49C169.311 29.048 168.891 28.453 168.665 27.705C168.495 27.1837 168.41 26.498 168.41 25.648C168.41 24.866 168.495 24.1803 168.665 23.591C168.891 22.8657 169.311 22.2877 169.923 21.857C170.546 21.4263 171.283 21.211 172.133 21.211C172.983 21.211 173.725 21.4263 174.36 21.857C174.994 22.2877 175.408 22.8317 175.601 23.489C175.669 23.6703 175.714 23.8573 175.737 24.05C175.737 24.1407 175.686 24.1973 175.584 24.22L174.309 24.407H174.275C174.195 24.407 174.139 24.356 174.105 24.254L174.054 23.982C173.963 23.5967 173.742 23.2737 173.391 23.013C173.039 22.7523 172.614 22.622 172.116 22.622C171.628 22.622 171.215 22.7523 170.875 23.013C170.535 23.2737 170.314 23.6193 170.212 24.05C170.11 24.458 170.059 24.9963 170.059 25.665C170.059 26.3223 170.11 26.855 170.212 27.263C170.325 27.7163 170.546 28.0733 170.875 28.334C171.215 28.5947 171.628 28.725 172.116 28.725C172.614 28.725 173.039 28.5947 173.391 28.334C173.753 28.0733 173.98 27.7333 174.071 27.314C174.082 27.3027 174.082 27.2913 174.071 27.28C174.071 27.2573 174.076 27.2403 174.088 27.229V27.161C174.122 27.0703 174.184 27.0363 174.275 27.059L175.55 27.263C175.64 27.2857 175.686 27.331 175.686 27.399V27.467C175.686 27.569 175.657 27.6937 175.601 27.841C175.408 28.5323 174.994 29.0877 174.36 29.507C173.725 29.9263 172.983 30.136 172.133 30.136ZM182.764 21.517C182.764 21.4037 182.821 21.347 182.934 21.347H184.209C184.322 21.347 184.379 21.4037 184.379 21.517V29.83C184.379 29.9433 184.322 30 184.209 30H182.934C182.821 30 182.764 29.9433 182.764 29.83V29.201C182.764 29.1783 182.753 29.167 182.73 29.167C182.719 29.1557 182.702 29.1613 182.679 29.184C182.226 29.8073 181.529 30.119 180.588 30.119C180.033 30.119 179.517 30.0113 179.041 29.796C178.576 29.5807 178.202 29.2633 177.919 28.844C177.636 28.4247 177.494 27.9147 177.494 27.314V21.517C177.494 21.4037 177.551 21.347 177.664 21.347H178.939C179.052 21.347 179.109 21.4037 179.109 21.517V26.804C179.109 27.3933 179.262 27.858 179.568 28.198C179.885 28.538 180.327 28.708 180.894 28.708C181.461 28.708 181.914 28.538 182.254 28.198C182.594 27.8467 182.764 27.382 182.764 26.804V21.517ZM190.551 21.262C190.914 21.262 191.243 21.3357 191.537 21.483C191.617 21.517 191.645 21.585 191.622 21.687L191.35 22.962C191.339 23.064 191.271 23.098 191.146 23.064C190.954 22.9847 190.727 22.945 190.466 22.945L190.228 22.962C189.696 22.9847 189.254 23.1717 188.902 23.523C188.562 23.863 188.392 24.3107 188.392 24.866V29.83C188.392 29.9433 188.336 30 188.222 30H186.93C186.817 30 186.76 29.9433 186.76 29.83V21.517C186.76 21.4037 186.817 21.347 186.93 21.347H188.222C188.336 21.347 188.392 21.4037 188.392 21.517V22.418C188.392 22.452 188.398 22.4747 188.409 22.486C188.432 22.486 188.449 22.4747 188.46 22.452C188.97 21.6587 189.667 21.262 190.551 21.262ZM194.055 19.987C193.738 19.987 193.477 19.885 193.273 19.681C193.069 19.477 192.967 19.2163 192.967 18.899C192.967 18.5817 193.069 18.321 193.273 18.117C193.477 17.913 193.738 17.811 194.055 17.811C194.372 17.811 194.633 17.913 194.837 18.117C195.041 18.321 195.143 18.5817 195.143 18.899C195.143 19.2163 195.041 19.477 194.837 19.681C194.633 19.885 194.372 19.987 194.055 19.987ZM193.375 29.983C193.262 29.983 193.205 29.9263 193.205 29.813V21.517C193.205 21.4037 193.262 21.347 193.375 21.347H194.667C194.78 21.347 194.837 21.4037 194.837 21.517V29.813C194.837 29.9263 194.78 29.983 194.667 29.983H193.375ZM201.669 22.52C201.669 22.6333 201.612 22.69 201.499 22.69H199.663C199.618 22.69 199.595 22.7127 199.595 22.758V27.263C199.595 27.739 199.703 28.0847 199.918 28.3C200.133 28.504 200.468 28.606 200.921 28.606H201.414C201.527 28.606 201.584 28.6627 201.584 28.776V29.83C201.584 29.9433 201.527 30 201.414 30C201.051 30.0227 200.791 30.034 200.632 30.034C199.771 30.034 199.119 29.881 198.677 29.575C198.246 29.2577 198.031 28.6797 198.031 27.841V22.758C198.031 22.7127 198.008 22.69 197.963 22.69H196.926C196.813 22.69 196.756 22.6333 196.756 22.52V21.517C196.756 21.4037 196.813 21.347 196.926 21.347H197.963C198.008 21.347 198.031 21.3243 198.031 21.279V19.273C198.031 19.1597 198.088 19.103 198.201 19.103H199.425C199.538 19.103 199.595 19.1597 199.595 19.273V21.279C199.595 21.3243 199.618 21.347 199.663 21.347H201.499C201.612 21.347 201.669 21.4037 201.669 21.517V22.52ZM203.422 33.383C203.343 33.383 203.303 33.3263 203.303 33.213V32.21C203.303 32.0967 203.36 32.04 203.473 32.04H203.507C203.961 32.0287 204.318 31.972 204.578 31.87C204.839 31.768 205.054 31.5753 205.224 31.292C205.394 31.02 205.559 30.6063 205.717 30.051C205.729 30.0397 205.729 30.0227 205.717 30C205.717 29.966 205.717 29.949 205.717 29.949L202.878 21.534L202.861 21.466C202.861 21.3867 202.912 21.347 203.014 21.347H204.391C204.493 21.347 204.561 21.3923 204.595 21.483L206.516 27.892C206.528 27.9147 206.545 27.926 206.567 27.926C206.59 27.926 206.607 27.9147 206.618 27.892L208.522 21.483C208.556 21.3923 208.624 21.347 208.726 21.347H210.069C210.194 21.347 210.239 21.4093 210.205 21.534L207.111 30.595C206.851 31.377 206.59 31.955 206.329 32.329C206.069 32.7143 205.729 32.9863 205.309 33.145C204.89 33.3037 204.301 33.383 203.541 33.383H203.422ZM222.153 30C222.062 30 222 29.9603 221.966 29.881L219.586 24.798C219.574 24.764 219.552 24.747 219.518 24.747H217.07C217.024 24.747 217.002 24.7697 217.002 24.815V29.83C217.002 29.9433 216.945 30 216.832 30H215.54C215.426 30 215.37 29.9433 215.37 29.83V18.27C215.37 18.1567 215.426 18.1 215.54 18.1H220.113C220.793 18.1 221.388 18.2417 221.898 18.525C222.419 18.8083 222.821 19.205 223.105 19.715C223.388 20.225 223.53 20.8143 223.53 21.483C223.53 22.2763 223.32 22.9507 222.901 23.506C222.493 24.05 221.92 24.4183 221.184 24.611C221.138 24.6337 221.127 24.662 221.15 24.696L223.615 29.796C223.626 29.8187 223.632 29.847 223.632 29.881C223.632 29.9603 223.586 30 223.496 30H222.153ZM217.07 19.511C217.024 19.511 217.002 19.5337 217.002 19.579V23.387C217.002 23.4323 217.024 23.455 217.07 23.455H219.909C220.509 23.455 220.991 23.2793 221.354 22.928C221.716 22.5653 221.898 22.0893 221.898 21.5C221.898 20.8993 221.716 20.4177 221.354 20.055C220.991 19.6923 220.509 19.511 219.909 19.511H217.07ZM232.529 24.594C232.574 25.0587 232.591 25.58 232.58 26.158C232.58 26.2713 232.523 26.328 232.41 26.328H226.987C226.942 26.328 226.919 26.3507 226.919 26.396C226.919 26.7813 226.953 27.076 227.021 27.28C227.146 27.7333 227.395 28.0903 227.769 28.351C228.154 28.6003 228.636 28.725 229.214 28.725C230.053 28.725 230.699 28.3793 231.152 27.688C231.209 27.5747 231.282 27.5577 231.373 27.637L232.342 28.283C232.421 28.351 232.438 28.4247 232.393 28.504C232.076 29.014 231.622 29.4163 231.033 29.711C230.455 30.0057 229.798 30.153 229.061 30.153C228.234 30.153 227.537 29.9717 226.97 29.609C226.403 29.2463 225.978 28.7307 225.695 28.062C225.423 27.3933 225.287 26.583 225.287 25.631C225.287 24.8037 225.349 24.1747 225.474 23.744C225.678 22.962 226.086 22.3443 226.698 21.891C227.31 21.4377 228.052 21.211 228.925 21.211C230.07 21.211 230.925 21.5 231.492 22.078C232.059 22.6447 232.404 23.4833 232.529 24.594ZM228.925 22.622C228.438 22.622 228.035 22.7467 227.718 22.996C227.401 23.234 227.185 23.557 227.072 23.965C226.993 24.2143 226.942 24.5317 226.919 24.917C226.919 24.9623 226.942 24.985 226.987 24.985H230.88C230.925 24.985 230.948 24.9623 230.948 24.917C230.925 24.543 230.891 24.2653 230.846 24.084C230.733 23.642 230.506 23.2907 230.166 23.03C229.837 22.758 229.424 22.622 228.925 22.622ZM236.618 30C236.516 30 236.448 29.9547 236.414 29.864L233.643 21.534L233.626 21.466C233.626 21.3867 233.677 21.347 233.779 21.347H235.207C235.309 21.347 235.377 21.3923 235.411 21.483L237.281 27.637C237.293 27.6597 237.31 27.671 237.332 27.671C237.355 27.671 237.372 27.6597 237.383 27.637L239.236 21.483C239.27 21.3923 239.338 21.347 239.44 21.347L240.868 21.364C240.993 21.364 241.038 21.4263 241.004 21.551L238.25 29.864C238.216 29.9547 238.148 30 238.046 30H236.618ZM243.677 19.987C243.36 19.987 243.099 19.885 242.895 19.681C242.691 19.477 242.589 19.2163 242.589 18.899C242.589 18.5817 242.691 18.321 242.895 18.117C243.099 17.913 243.36 17.811 243.677 17.811C243.994 17.811 244.255 17.913 244.459 18.117C244.663 18.321 244.765 18.5817 244.765 18.899C244.765 19.2163 244.663 19.477 244.459 19.681C244.255 19.885 243.994 19.987 243.677 19.987ZM242.997 29.983C242.884 29.983 242.827 29.9263 242.827 29.813V21.517C242.827 21.4037 242.884 21.347 242.997 21.347H244.289C244.402 21.347 244.459 21.4037 244.459 21.517V29.813C244.459 29.9263 244.402 29.983 244.289 29.983H242.997ZM254.028 24.594C254.073 25.0587 254.09 25.58 254.079 26.158C254.079 26.2713 254.022 26.328 253.909 26.328H248.486C248.441 26.328 248.418 26.3507 248.418 26.396C248.418 26.7813 248.452 27.076 248.52 27.28C248.645 27.7333 248.894 28.0903 249.268 28.351C249.653 28.6003 250.135 28.725 250.713 28.725C251.552 28.725 252.198 28.3793 252.651 27.688C252.708 27.5747 252.781 27.5577 252.872 27.637L253.841 28.283C253.92 28.351 253.937 28.4247 253.892 28.504C253.575 29.014 253.121 29.4163 252.532 29.711C251.954 30.0057 251.297 30.153 250.56 30.153C249.733 30.153 249.036 29.9717 248.469 29.609C247.902 29.2463 247.477 28.7307 247.194 28.062C246.922 27.3933 246.786 26.583 246.786 25.631C246.786 24.8037 246.848 24.1747 246.973 23.744C247.177 22.962 247.585 22.3443 248.197 21.891C248.809 21.4377 249.551 21.211 250.424 21.211C251.569 21.211 252.424 21.5 252.991 22.078C253.558 22.6447 253.903 23.4833 254.028 24.594ZM250.424 22.622C249.937 22.622 249.534 22.7467 249.217 22.996C248.9 23.234 248.684 23.557 248.571 23.965C248.492 24.2143 248.441 24.5317 248.418 24.917C248.418 24.9623 248.441 24.985 248.486 24.985H252.379C252.424 24.985 252.447 24.9623 252.447 24.917C252.424 24.543 252.39 24.2653 252.345 24.084C252.232 23.642 252.005 23.2907 251.665 23.03C251.336 22.758 250.923 22.622 250.424 22.622ZM257.76 30C257.67 30 257.607 29.9547 257.573 29.864L255.125 21.534L255.108 21.483C255.108 21.3923 255.165 21.347 255.278 21.347H256.604C256.706 21.347 256.769 21.398 256.791 21.5L258.406 27.671C258.418 27.6937 258.429 27.705 258.44 27.705C258.463 27.705 258.48 27.6937 258.491 27.671L260.14 21.5C260.163 21.398 260.225 21.347 260.327 21.347H261.5C261.602 21.347 261.665 21.398 261.687 21.5L263.37 27.654C263.382 27.6767 263.393 27.688 263.404 27.688C263.427 27.688 263.444 27.6767 263.455 27.654L265.138 21.5C265.161 21.398 265.223 21.347 265.325 21.347L266.634 21.364C266.691 21.364 266.731 21.381 266.753 21.415C266.787 21.449 266.799 21.4943 266.787 21.551L264.322 29.864C264.288 29.9547 264.226 30 264.135 30H262.809C262.719 30 262.656 29.9547 262.622 29.864L260.956 24.118C260.945 24.0953 260.928 24.084 260.905 24.084C260.894 24.084 260.883 24.0953 260.871 24.118L259.29 29.847C259.268 29.949 259.205 30 259.103 30H257.76Z" fill="#0D0128"/>
<defs>
<linearGradient id="paint0_linear_4326_343" x1="291" y1="24" x2="2" y2="24" gradientUnits="userSpaceOnUse">
<stop stop-color="#AA83FF"/>
<stop offset="1" stop-color="#D0FFCC"/>
</linearGradient>
<linearGradient id="paint1_linear_4326_343" x1="291" y1="24" x2="2" y2="24" gradientUnits="userSpaceOnUse">
<stop stop-color="#C7ADFF"/>
<stop offset="1" stop-color="#776899" stop-opacity="0"/>
</linearGradient>
</defs>
</svg>
