<svg width="297" height="52" viewBox="0 0 297 52" fill="none" xmlns="http://www.w3.org/2000/svg">
<path d="M8 52H274.5L297 39.9688V8H278V10.75H253V8H28.5L8 20.375V52Z" fill="#735AA9"/>
<path d="M292 1H271V3.75H248V1H22.2217L21.9834 1.14355L1.4834 13.5186L1 13.8105V47H268.751L268.972 46.8818L291.472 34.8506L292 34.5684V1Z" fill="url(#paint0_linear_4326_357)" stroke="url(#paint1_linear_4326_357)" stroke-width="2"/>
<path d="M79.735 23.795C79.6783 23.829 79.6783 23.863 79.735 23.897C80.9363 24.407 81.537 25.3533 81.537 26.736C81.537 27.7787 81.1913 28.5833 80.5 29.15C79.8087 29.7167 78.9077 30 77.797 30H73.564C73.4507 30 73.394 29.9433 73.394 29.83V18.27C73.394 18.1567 73.4507 18.1 73.564 18.1H77.661C78.8397 18.1 79.752 18.372 80.398 18.916C81.0553 19.4487 81.384 20.2307 81.384 21.262C81.384 22.486 80.8343 23.3303 79.735 23.795ZM75.094 19.511C75.0487 19.511 75.026 19.5337 75.026 19.579V23.166C75.026 23.2113 75.0487 23.234 75.094 23.234H77.661C78.3183 23.234 78.834 23.0697 79.208 22.741C79.5933 22.4123 79.786 21.9647 79.786 21.398C79.786 20.82 79.5933 20.361 79.208 20.021C78.834 19.681 78.3183 19.511 77.661 19.511H75.094ZM77.797 28.572C78.443 28.572 78.953 28.3963 79.327 28.045C79.7123 27.6823 79.905 27.195 79.905 26.583C79.905 25.971 79.7123 25.4893 79.327 25.138C78.9417 24.7753 78.4147 24.594 77.746 24.594H75.094C75.0487 24.594 75.026 24.6167 75.026 24.662V28.504C75.026 28.5493 75.0487 28.572 75.094 28.572H77.797ZM87.3344 30.136C86.4957 30.136 85.7647 29.9263 85.1414 29.507C84.5181 29.0763 84.0817 28.4813 83.8324 27.722C83.6284 27.11 83.5264 26.4187 83.5264 25.648C83.5264 24.8433 83.6227 24.1633 83.8154 23.608C84.0647 22.86 84.5011 22.2763 85.1244 21.857C85.7477 21.4263 86.4901 21.211 87.3514 21.211C88.1674 21.211 88.8757 21.4263 89.4764 21.857C90.0884 22.2763 90.5247 22.8543 90.7854 23.591C90.9894 24.169 91.0914 24.849 91.0914 25.631C91.0914 26.4243 90.9894 27.1213 90.7854 27.722C90.5361 28.4813 90.1054 29.0763 89.4934 29.507C88.8814 29.9263 88.1617 30.136 87.3344 30.136ZM87.3344 28.725C87.7877 28.725 88.1844 28.6003 88.5244 28.351C88.8644 28.0903 89.1081 27.7277 89.2554 27.263C89.3801 26.8323 89.4424 26.2997 89.4424 25.665C89.4424 25.0303 89.3857 24.5033 89.2724 24.084C89.1251 23.6193 88.8814 23.2623 88.5414 23.013C88.2014 22.7523 87.7877 22.622 87.3004 22.622C86.8357 22.622 86.4334 22.7523 86.0934 23.013C85.7534 23.2623 85.5097 23.6193 85.3624 24.084C85.2377 24.4807 85.1754 25.0077 85.1754 25.665C85.1754 26.3223 85.2377 26.855 85.3624 27.263C85.4984 27.7277 85.7364 28.0903 86.0764 28.351C86.4277 28.6003 86.8471 28.725 87.3344 28.725ZM96.7641 30.136C95.9254 30.136 95.1944 29.9263 94.5711 29.507C93.9478 29.0763 93.5114 28.4813 93.2621 27.722C93.0581 27.11 92.9561 26.4187 92.9561 25.648C92.9561 24.8433 93.0524 24.1633 93.2451 23.608C93.4944 22.86 93.9308 22.2763 94.5541 21.857C95.1774 21.4263 95.9198 21.211 96.7811 21.211C97.5971 21.211 98.3054 21.4263 98.9061 21.857C99.5181 22.2763 99.9544 22.8543 100.215 23.591C100.419 24.169 100.521 24.849 100.521 25.631C100.521 26.4243 100.419 27.1213 100.215 27.722C99.9658 28.4813 99.5351 29.0763 98.9231 29.507C98.3111 29.9263 97.5914 30.136 96.7641 30.136ZM96.7641 28.725C97.2174 28.725 97.6141 28.6003 97.9541 28.351C98.2941 28.0903 98.5378 27.7277 98.6851 27.263C98.8098 26.8323 98.8721 26.2997 98.8721 25.665C98.8721 25.0303 98.8154 24.5033 98.7021 24.084C98.5548 23.6193 98.3111 23.2623 97.9711 23.013C97.6311 22.7523 97.2174 22.622 96.7301 22.622C96.2654 22.622 95.8631 22.7523 95.5231 23.013C95.1831 23.2623 94.9394 23.6193 94.7921 24.084C94.6674 24.4807 94.6051 25.0077 94.6051 25.665C94.6051 26.3223 94.6674 26.855 94.7921 27.263C94.9281 27.7277 95.1661 28.0903 95.5061 28.351C95.8574 28.6003 96.2768 28.725 96.7641 28.725ZM102.828 30C102.714 30 102.658 29.9433 102.658 29.83V18.27C102.658 18.1567 102.714 18.1 102.828 18.1H104.12C104.233 18.1 104.29 18.1567 104.29 18.27V24.815C104.29 24.8377 104.301 24.8547 104.324 24.866C104.346 24.8773 104.363 24.8717 104.375 24.849L107.52 21.432C107.565 21.3753 107.633 21.347 107.724 21.347H109.237C109.305 21.347 109.344 21.3697 109.356 21.415C109.378 21.449 109.367 21.4943 109.322 21.551L107.129 24.084C107.106 24.1293 107.1 24.1633 107.112 24.186L109.713 29.796L109.73 29.864C109.73 29.9547 109.679 30 109.577 30H108.217C108.126 30 108.064 29.9547 108.03 29.864L106.007 25.24C105.984 25.1833 105.956 25.1777 105.922 25.223L104.324 26.991C104.301 27.0363 104.29 27.0647 104.29 27.076V29.83C104.29 29.9433 104.233 30 104.12 30H102.828ZM117.922 21.211C118.614 21.211 119.214 21.3357 119.724 21.585C120.246 21.823 120.642 22.163 120.914 22.605C121.198 23.0357 121.339 23.5287 121.339 24.084V29.83C121.339 29.9433 121.283 30 121.169 30H119.877C119.764 30 119.707 29.9433 119.707 29.83V29.218C119.707 29.1613 119.679 29.15 119.622 29.184C119.328 29.49 118.965 29.728 118.534 29.898C118.115 30.0567 117.645 30.136 117.123 30.136C116.285 30.136 115.588 29.9263 115.032 29.507C114.488 29.0763 114.216 28.4303 114.216 27.569C114.216 26.685 114.522 25.9937 115.134 25.495C115.758 24.985 116.625 24.73 117.735 24.73H119.639C119.685 24.73 119.707 24.7073 119.707 24.662V24.203C119.707 23.7043 119.56 23.319 119.265 23.047C118.982 22.7637 118.546 22.622 117.956 22.622C117.48 22.622 117.089 22.7183 116.783 22.911C116.489 23.0923 116.307 23.3417 116.239 23.659C116.205 23.7723 116.137 23.8233 116.035 23.812L114.658 23.625C114.545 23.6023 114.494 23.557 114.505 23.489C114.596 22.8203 114.953 22.2763 115.576 21.857C116.2 21.4263 116.982 21.211 117.922 21.211ZM117.48 28.759C118.081 28.759 118.602 28.6003 119.044 28.283C119.486 27.9657 119.707 27.5633 119.707 27.076V26.073C119.707 26.0277 119.685 26.005 119.639 26.005H118.041C117.373 26.005 116.84 26.1353 116.443 26.396C116.047 26.6567 115.848 27.0193 115.848 27.484C115.848 27.9033 115.996 28.2207 116.29 28.436C116.596 28.6513 116.993 28.759 117.48 28.759ZM130.975 30.153C130.159 30.153 129.434 29.9943 128.799 29.677C128.176 29.3483 127.688 28.8893 127.337 28.3C126.997 27.6993 126.827 27.0137 126.827 26.243V21.84C126.827 21.0693 126.997 20.395 127.337 19.817C127.688 19.2277 128.176 18.7743 128.799 18.457C129.434 18.1283 130.159 17.964 130.975 17.964C131.791 17.964 132.511 18.1227 133.134 18.44C133.757 18.746 134.239 19.1823 134.579 19.749C134.93 20.3157 135.106 20.973 135.106 21.721V21.738C135.106 21.7947 135.089 21.84 135.055 21.874C135.021 21.908 134.981 21.925 134.936 21.925L133.644 21.993C133.531 21.993 133.474 21.942 133.474 21.84V21.789C133.474 21.0637 133.247 20.48 132.794 20.038C132.341 19.596 131.734 19.375 130.975 19.375C130.216 19.375 129.604 19.596 129.139 20.038C128.686 20.48 128.459 21.0637 128.459 21.789V26.311C128.459 27.0363 128.686 27.62 129.139 28.062C129.604 28.504 130.216 28.725 130.975 28.725C131.734 28.725 132.341 28.504 132.794 28.062C133.247 27.62 133.474 27.0363 133.474 26.311V26.277C133.474 26.175 133.531 26.124 133.644 26.124L134.936 26.192C135.049 26.192 135.106 26.2487 135.106 26.362C135.106 27.11 134.93 27.773 134.579 28.351C134.239 28.9177 133.757 29.3597 133.134 29.677C132.511 29.9943 131.791 30.153 130.975 30.153ZM140.791 30.136C139.953 30.136 139.222 29.9263 138.598 29.507C137.975 29.0763 137.539 28.4813 137.289 27.722C137.085 27.11 136.983 26.4187 136.983 25.648C136.983 24.8433 137.08 24.1633 137.272 23.608C137.522 22.86 137.958 22.2763 138.581 21.857C139.205 21.4263 139.947 21.211 140.808 21.211C141.624 21.211 142.333 21.4263 142.933 21.857C143.545 22.2763 143.982 22.8543 144.242 23.591C144.446 24.169 144.548 24.849 144.548 25.631C144.548 26.4243 144.446 27.1213 144.242 27.722C143.993 28.4813 143.562 29.0763 142.95 29.507C142.338 29.9263 141.619 30.136 140.791 30.136ZM140.791 28.725C141.245 28.725 141.641 28.6003 141.981 28.351C142.321 28.0903 142.565 27.7277 142.712 27.263C142.837 26.8323 142.899 26.2997 142.899 25.665C142.899 25.0303 142.843 24.5033 142.729 24.084C142.582 23.6193 142.338 23.2623 141.998 23.013C141.658 22.7523 141.245 22.622 140.757 22.622C140.293 22.622 139.89 22.7523 139.55 23.013C139.21 23.2623 138.967 23.6193 138.819 24.084C138.695 24.4807 138.632 25.0077 138.632 25.665C138.632 26.3223 138.695 26.855 138.819 27.263C138.955 27.7277 139.193 28.0903 139.533 28.351C139.885 28.6003 140.304 28.725 140.791 28.725ZM150.544 21.228C151.473 21.228 152.21 21.5 152.754 22.044C153.298 22.5767 153.57 23.302 153.57 24.22V29.83C153.57 29.9433 153.513 30 153.4 30H152.108C151.995 30 151.938 29.9433 151.938 29.83V24.543C151.938 23.9763 151.774 23.5173 151.445 23.166C151.116 22.8147 150.68 22.639 150.136 22.639C149.603 22.639 149.167 22.8147 148.827 23.166C148.487 23.5173 148.317 23.9707 148.317 24.526V29.83C148.317 29.9433 148.26 30 148.147 30H146.855C146.742 30 146.685 29.9433 146.685 29.83V21.517C146.685 21.4037 146.742 21.347 146.855 21.347H148.147C148.26 21.347 148.317 21.4037 148.317 21.517V22.129C148.317 22.1517 148.323 22.1687 148.334 22.18C148.357 22.1913 148.374 22.1857 148.385 22.163C148.872 21.5397 149.592 21.228 150.544 21.228ZM158.942 30.102C158.262 30.102 157.661 30 157.14 29.796C156.63 29.592 156.233 29.3143 155.95 28.963C155.667 28.6003 155.525 28.2037 155.525 27.773V27.586C155.525 27.4727 155.582 27.416 155.695 27.416H156.919C157.032 27.416 157.089 27.4727 157.089 27.586V27.671C157.089 27.9883 157.259 28.266 157.599 28.504C157.95 28.742 158.392 28.861 158.925 28.861C159.435 28.861 159.849 28.7533 160.166 28.538C160.483 28.3113 160.642 28.028 160.642 27.688C160.642 27.3593 160.495 27.1157 160.2 26.957C159.905 26.787 159.429 26.6113 158.772 26.43C158.126 26.2487 157.582 26.0673 157.14 25.886C156.709 25.6933 156.341 25.427 156.035 25.087C155.74 24.7357 155.593 24.288 155.593 23.744C155.593 22.9847 155.888 22.384 156.477 21.942C157.078 21.4887 157.871 21.262 158.857 21.262C159.514 21.262 160.092 21.3697 160.591 21.585C161.101 21.789 161.492 22.078 161.764 22.452C162.036 22.826 162.172 23.2453 162.172 23.71V23.761C162.172 23.8743 162.115 23.931 162.002 23.931H160.812C160.699 23.931 160.642 23.8743 160.642 23.761V23.71C160.642 23.3813 160.478 23.1093 160.149 22.894C159.832 22.6673 159.395 22.554 158.84 22.554C158.341 22.554 157.933 22.6503 157.616 22.843C157.31 23.0357 157.157 23.2963 157.157 23.625C157.157 23.9537 157.304 24.203 157.599 24.373C157.905 24.543 158.392 24.7243 159.061 24.917C159.718 25.0983 160.262 25.2797 160.693 25.461C161.135 25.631 161.509 25.8917 161.815 26.243C162.121 26.583 162.274 27.0307 162.274 27.586C162.274 28.3567 161.968 28.9687 161.356 29.422C160.755 29.8753 159.951 30.102 158.942 30.102ZM169.334 21.517C169.334 21.4037 169.391 21.347 169.504 21.347H170.779C170.892 21.347 170.949 21.4037 170.949 21.517V29.83C170.949 29.9433 170.892 30 170.779 30H169.504C169.391 30 169.334 29.9433 169.334 29.83V29.201C169.334 29.1783 169.323 29.167 169.3 29.167C169.289 29.1557 169.272 29.1613 169.249 29.184C168.796 29.8073 168.099 30.119 167.158 30.119C166.603 30.119 166.087 30.0113 165.611 29.796C165.146 29.5807 164.772 29.2633 164.489 28.844C164.206 28.4247 164.064 27.9147 164.064 27.314V21.517C164.064 21.4037 164.121 21.347 164.234 21.347H165.509C165.622 21.347 165.679 21.4037 165.679 21.517V26.804C165.679 27.3933 165.832 27.858 166.138 28.198C166.455 28.538 166.897 28.708 167.464 28.708C168.031 28.708 168.484 28.538 168.824 28.198C169.164 27.8467 169.334 27.382 169.334 26.804V21.517ZM173.501 30C173.387 30 173.331 29.9433 173.331 29.83V18.27C173.331 18.1567 173.387 18.1 173.501 18.1H174.793C174.906 18.1 174.963 18.1567 174.963 18.27V29.83C174.963 29.9433 174.906 30 174.793 30H173.501ZM181.599 22.52C181.599 22.6333 181.542 22.69 181.429 22.69H179.593C179.547 22.69 179.525 22.7127 179.525 22.758V27.263C179.525 27.739 179.632 28.0847 179.848 28.3C180.063 28.504 180.397 28.606 180.851 28.606H181.344C181.457 28.606 181.514 28.6627 181.514 28.776V29.83C181.514 29.9433 181.457 30 181.344 30C180.981 30.0227 180.72 30.034 180.562 30.034C179.7 30.034 179.049 29.881 178.607 29.575C178.176 29.2577 177.961 28.6797 177.961 27.841V22.758C177.961 22.7127 177.938 22.69 177.893 22.69H176.856C176.742 22.69 176.686 22.6333 176.686 22.52V21.517C176.686 21.4037 176.742 21.347 176.856 21.347H177.893C177.938 21.347 177.961 21.3243 177.961 21.279V19.273C177.961 19.1597 178.017 19.103 178.131 19.103H179.355C179.468 19.103 179.525 19.1597 179.525 19.273V21.279C179.525 21.3243 179.547 21.347 179.593 21.347H181.429C181.542 21.347 181.599 21.4037 181.599 21.517V22.52ZM186.769 21.211C187.46 21.211 188.061 21.3357 188.571 21.585C189.092 21.823 189.489 22.163 189.761 22.605C190.044 23.0357 190.186 23.5287 190.186 24.084V29.83C190.186 29.9433 190.129 30 190.016 30H188.724C188.611 30 188.554 29.9433 188.554 29.83V29.218C188.554 29.1613 188.526 29.15 188.469 29.184C188.174 29.49 187.812 29.728 187.381 29.898C186.962 30.0567 186.491 30.136 185.97 30.136C185.131 30.136 184.434 29.9263 183.879 29.507C183.335 29.0763 183.063 28.4303 183.063 27.569C183.063 26.685 183.369 25.9937 183.981 25.495C184.604 24.985 185.471 24.73 186.582 24.73H188.486C188.531 24.73 188.554 24.7073 188.554 24.662V24.203C188.554 23.7043 188.407 23.319 188.112 23.047C187.829 22.7637 187.392 22.622 186.803 22.622C186.327 22.622 185.936 22.7183 185.63 22.911C185.335 23.0923 185.154 23.3417 185.086 23.659C185.052 23.7723 184.984 23.8233 184.882 23.812L183.505 23.625C183.392 23.6023 183.341 23.557 183.352 23.489C183.443 22.8203 183.8 22.2763 184.423 21.857C185.046 21.4263 185.828 21.211 186.769 21.211ZM186.327 28.759C186.928 28.759 187.449 28.6003 187.891 28.283C188.333 27.9657 188.554 27.5633 188.554 27.076V26.073C188.554 26.0277 188.531 26.005 188.486 26.005H186.888C186.219 26.005 185.687 26.1353 185.29 26.396C184.893 26.6567 184.695 27.0193 184.695 27.484C184.695 27.9033 184.842 28.2207 185.137 28.436C185.443 28.6513 185.84 28.759 186.327 28.759ZM196.54 22.52C196.54 22.6333 196.483 22.69 196.37 22.69H194.534C194.489 22.69 194.466 22.7127 194.466 22.758V27.263C194.466 27.739 194.574 28.0847 194.789 28.3C195.004 28.504 195.339 28.606 195.792 28.606H196.285C196.398 28.606 196.455 28.6627 196.455 28.776V29.83C196.455 29.9433 196.398 30 196.285 30C195.922 30.0227 195.662 30.034 195.503 30.034C194.642 30.034 193.99 29.881 193.548 29.575C193.117 29.2577 192.902 28.6797 192.902 27.841V22.758C192.902 22.7127 192.879 22.69 192.834 22.69H191.797C191.684 22.69 191.627 22.6333 191.627 22.52V21.517C191.627 21.4037 191.684 21.347 191.797 21.347H192.834C192.879 21.347 192.902 21.3243 192.902 21.279V19.273C192.902 19.1597 192.959 19.103 193.072 19.103H194.296C194.409 19.103 194.466 19.1597 194.466 19.273V21.279C194.466 21.3243 194.489 21.347 194.534 21.347H196.37C196.483 21.347 196.54 21.4037 196.54 21.517V22.52ZM199.534 19.987C199.217 19.987 198.956 19.885 198.752 19.681C198.548 19.477 198.446 19.2163 198.446 18.899C198.446 18.5817 198.548 18.321 198.752 18.117C198.956 17.913 199.217 17.811 199.534 17.811C199.852 17.811 200.112 17.913 200.316 18.117C200.52 18.321 200.622 18.5817 200.622 18.899C200.622 19.2163 200.52 19.477 200.316 19.681C200.112 19.885 199.852 19.987 199.534 19.987ZM198.854 29.983C198.741 29.983 198.684 29.9263 198.684 29.813V21.517C198.684 21.4037 198.741 21.347 198.854 21.347H200.146C200.26 21.347 200.316 21.4037 200.316 21.517V29.813C200.316 29.9263 200.26 29.983 200.146 29.983H198.854ZM206.417 30.136C205.579 30.136 204.848 29.9263 204.224 29.507C203.601 29.0763 203.165 28.4813 202.915 27.722C202.711 27.11 202.609 26.4187 202.609 25.648C202.609 24.8433 202.706 24.1633 202.898 23.608C203.148 22.86 203.584 22.2763 204.207 21.857C204.831 21.4263 205.573 21.211 206.434 21.211C207.25 21.211 207.959 21.4263 208.559 21.857C209.171 22.2763 209.608 22.8543 209.868 23.591C210.072 24.169 210.174 24.849 210.174 25.631C210.174 26.4243 210.072 27.1213 209.868 27.722C209.619 28.4813 209.188 29.0763 208.576 29.507C207.964 29.9263 207.245 30.136 206.417 30.136ZM206.417 28.725C206.871 28.725 207.267 28.6003 207.607 28.351C207.947 28.0903 208.191 27.7277 208.338 27.263C208.463 26.8323 208.525 26.2997 208.525 25.665C208.525 25.0303 208.469 24.5033 208.355 24.084C208.208 23.6193 207.964 23.2623 207.624 23.013C207.284 22.7523 206.871 22.622 206.383 22.622C205.919 22.622 205.516 22.7523 205.176 23.013C204.836 23.2623 204.593 23.6193 204.445 24.084C204.321 24.4807 204.258 25.0077 204.258 25.665C204.258 26.3223 204.321 26.855 204.445 27.263C204.581 27.7277 204.819 28.0903 205.159 28.351C205.511 28.6003 205.93 28.725 206.417 28.725ZM216.17 21.228C217.099 21.228 217.836 21.5 218.38 22.044C218.924 22.5767 219.196 23.302 219.196 24.22V29.83C219.196 29.9433 219.139 30 219.026 30H217.734C217.621 30 217.564 29.9433 217.564 29.83V24.543C217.564 23.9763 217.4 23.5173 217.071 23.166C216.742 22.8147 216.306 22.639 215.762 22.639C215.229 22.639 214.793 22.8147 214.453 23.166C214.113 23.5173 213.943 23.9707 213.943 24.526V29.83C213.943 29.9433 213.886 30 213.773 30H212.481C212.368 30 212.311 29.9433 212.311 29.83V21.517C212.311 21.4037 212.368 21.347 212.481 21.347H213.773C213.886 21.347 213.943 21.4037 213.943 21.517V22.129C213.943 22.1517 213.949 22.1687 213.96 22.18C213.983 22.1913 214 22.1857 214.011 22.163C214.498 21.5397 215.218 21.228 216.17 21.228Z" fill="#0D0128"/>
<defs>
<linearGradient id="paint0_linear_4326_357" x1="291" y1="24" x2="2" y2="24" gradientUnits="userSpaceOnUse">
<stop stop-color="#AA83FF"/>
<stop offset="1" stop-color="#D0FFCC"/>
</linearGradient>
<linearGradient id="paint1_linear_4326_357" x1="291" y1="24" x2="2" y2="24" gradientUnits="userSpaceOnUse">
<stop stop-color="#C7ADFF"/>
<stop offset="1" stop-color="#776899" stop-opacity="0"/>
</linearGradient>
</defs>
</svg>
