<svg width="297" height="52" viewBox="0 0 297 52" fill="none" xmlns="http://www.w3.org/2000/svg">
<path d="M8 52H274.5L297 39.9688V8H278V10.75H253V8H28.5L8 20.375V52Z" fill="#735AA9"/>
<path d="M292 1H271V3.75H248V1H22.2217L21.9834 1.14355L1.4834 13.5186L1 13.8105V47H268.751L268.972 46.8818L291.472 34.8506L292 34.5684V1Z" fill="url(#paint0_linear_4433_4680)" stroke="url(#paint1_linear_4433_4680)" stroke-width="2"/>
<path d="M32.735 24.795C32.6783 24.829 32.6783 24.863 32.735 24.897C33.9363 25.407 34.537 26.3533 34.537 27.736C34.537 28.7787 34.1913 29.5833 33.5 30.15C32.8087 30.7167 31.9077 31 30.797 31H26.564C26.4507 31 26.394 30.9433 26.394 30.83V19.27C26.394 19.1567 26.4507 19.1 26.564 19.1H30.661C31.8397 19.1 32.752 19.372 33.398 19.916C34.0553 20.4487 34.384 21.2307 34.384 22.262C34.384 23.486 33.8343 24.3303 32.735 24.795ZM28.094 20.511C28.0487 20.511 28.026 20.5337 28.026 20.579V24.166C28.026 24.2113 28.0487 24.234 28.094 24.234H30.661C31.3183 24.234 31.834 24.0697 32.208 23.741C32.5933 23.4123 32.786 22.9647 32.786 22.398C32.786 21.82 32.5933 21.361 32.208 21.021C31.834 20.681 31.3183 20.511 30.661 20.511H28.094ZM30.797 29.572C31.443 29.572 31.953 29.3963 32.327 29.045C32.7123 28.6823 32.905 28.195 32.905 27.583C32.905 26.971 32.7123 26.4893 32.327 26.138C31.9417 25.7753 31.4147 25.594 30.746 25.594H28.094C28.0487 25.594 28.026 25.6167 28.026 25.662V29.504C28.026 29.5493 28.0487 29.572 28.094 29.572H30.797ZM40.3344 31.136C39.4957 31.136 38.7647 30.9263 38.1414 30.507C37.5181 30.0763 37.0817 29.4813 36.8324 28.722C36.6284 28.11 36.5264 27.4187 36.5264 26.648C36.5264 25.8433 36.6227 25.1633 36.8154 24.608C37.0647 23.86 37.5011 23.2763 38.1244 22.857C38.7477 22.4263 39.4901 22.211 40.3514 22.211C41.1674 22.211 41.8757 22.4263 42.4764 22.857C43.0884 23.2763 43.5247 23.8543 43.7854 24.591C43.9894 25.169 44.0914 25.849 44.0914 26.631C44.0914 27.4243 43.9894 28.1213 43.7854 28.722C43.5361 29.4813 43.1054 30.0763 42.4934 30.507C41.8814 30.9263 41.1617 31.136 40.3344 31.136ZM40.3344 29.725C40.7877 29.725 41.1844 29.6003 41.5244 29.351C41.8644 29.0903 42.1081 28.7277 42.2554 28.263C42.3801 27.8323 42.4424 27.2997 42.4424 26.665C42.4424 26.0303 42.3857 25.5033 42.2724 25.084C42.1251 24.6193 41.8814 24.2623 41.5414 24.013C41.2014 23.7523 40.7877 23.622 40.3004 23.622C39.8357 23.622 39.4334 23.7523 39.0934 24.013C38.7534 24.2623 38.5097 24.6193 38.3624 25.084C38.2377 25.4807 38.1754 26.0077 38.1754 26.665C38.1754 27.3223 38.2377 27.855 38.3624 28.263C38.4984 28.7277 38.7364 29.0903 39.0764 29.351C39.4277 29.6003 39.8471 29.725 40.3344 29.725ZM49.7641 31.136C48.9254 31.136 48.1944 30.9263 47.5711 30.507C46.9478 30.0763 46.5114 29.4813 46.2621 28.722C46.0581 28.11 45.9561 27.4187 45.9561 26.648C45.9561 25.8433 46.0524 25.1633 46.2451 24.608C46.4944 23.86 46.9308 23.2763 47.5541 22.857C48.1774 22.4263 48.9198 22.211 49.7811 22.211C50.5971 22.211 51.3054 22.4263 51.9061 22.857C52.5181 23.2763 52.9544 23.8543 53.2151 24.591C53.4191 25.169 53.5211 25.849 53.5211 26.631C53.5211 27.4243 53.4191 28.1213 53.2151 28.722C52.9658 29.4813 52.5351 30.0763 51.9231 30.507C51.3111 30.9263 50.5914 31.136 49.7641 31.136ZM49.7641 29.725C50.2174 29.725 50.6141 29.6003 50.9541 29.351C51.2941 29.0903 51.5378 28.7277 51.6851 28.263C51.8098 27.8323 51.8721 27.2997 51.8721 26.665C51.8721 26.0303 51.8154 25.5033 51.7021 25.084C51.5548 24.6193 51.3111 24.2623 50.9711 24.013C50.6311 23.7523 50.2174 23.622 49.7301 23.622C49.2654 23.622 48.8631 23.7523 48.5231 24.013C48.1831 24.2623 47.9394 24.6193 47.7921 25.084C47.6674 25.4807 47.6051 26.0077 47.6051 26.665C47.6051 27.3223 47.6674 27.855 47.7921 28.263C47.9281 28.7277 48.1661 29.0903 48.5061 29.351C48.8574 29.6003 49.2768 29.725 49.7641 29.725ZM55.8278 31C55.7144 31 55.6578 30.9433 55.6578 30.83V19.27C55.6578 19.1567 55.7144 19.1 55.8278 19.1H57.1198C57.2331 19.1 57.2898 19.1567 57.2898 19.27V25.815C57.2898 25.8377 57.3011 25.8547 57.3238 25.866C57.3464 25.8773 57.3634 25.8717 57.3748 25.849L60.5198 22.432C60.5651 22.3753 60.6331 22.347 60.7238 22.347H62.2368C62.3048 22.347 62.3444 22.3697 62.3558 22.415C62.3784 22.449 62.3671 22.4943 62.3218 22.551L60.1288 25.084C60.1061 25.1293 60.1004 25.1633 60.1118 25.186L62.7128 30.796L62.7298 30.864C62.7298 30.9547 62.6788 31 62.5768 31H61.2168C61.1261 31 61.0638 30.9547 61.0298 30.864L59.0068 26.24C58.9841 26.1833 58.9558 26.1777 58.9218 26.223L57.3238 27.991C57.3011 28.0363 57.2898 28.0647 57.2898 28.076V30.83C57.2898 30.9433 57.2331 31 57.1198 31H55.8278ZM75.8693 20.341C75.8693 20.4543 75.8126 20.511 75.6993 20.511H69.6643C69.619 20.511 69.5963 20.5337 69.5963 20.579V24.234C69.5963 24.2793 69.619 24.302 69.6643 24.302H73.8123C73.9256 24.302 73.9823 24.3587 73.9823 24.472V25.543C73.9823 25.6563 73.9256 25.713 73.8123 25.713H69.6643C69.619 25.713 69.5963 25.7357 69.5963 25.781V29.521C69.5963 29.5663 69.619 29.589 69.6643 29.589H75.6993C75.8126 29.589 75.8693 29.6457 75.8693 29.759V30.83C75.8693 30.9433 75.8126 31 75.6993 31H68.1343C68.021 31 67.9643 30.9433 67.9643 30.83V19.27C67.9643 19.1567 68.021 19.1 68.1343 19.1H75.6993C75.8126 19.1 75.8693 19.1567 75.8693 19.27V20.341ZM81.7795 22.228C82.7088 22.228 83.4455 22.5 83.9895 23.044C84.5335 23.5767 84.8055 24.302 84.8055 25.22V30.83C84.8055 30.9433 84.7488 31 84.6355 31H83.3435C83.2301 31 83.1735 30.9433 83.1735 30.83V25.543C83.1735 24.9763 83.0091 24.5173 82.6805 24.166C82.3518 23.8147 81.9155 23.639 81.3715 23.639C80.8388 23.639 80.4025 23.8147 80.0625 24.166C79.7225 24.5173 79.5525 24.9707 79.5525 25.526V30.83C79.5525 30.9433 79.4958 31 79.3825 31H78.0905C77.9771 31 77.9205 30.9433 77.9205 30.83V22.517C77.9205 22.4037 77.9771 22.347 78.0905 22.347H79.3825C79.4958 22.347 79.5525 22.4037 79.5525 22.517V23.129C79.5525 23.1517 79.5581 23.1687 79.5695 23.18C79.5921 23.1913 79.6091 23.1857 79.6205 23.163C80.1078 22.5397 80.8275 22.228 81.7795 22.228ZM91.4013 23.52C91.4013 23.6333 91.3447 23.69 91.2313 23.69H89.3953C89.35 23.69 89.3273 23.7127 89.3273 23.758V28.263C89.3273 28.739 89.435 29.0847 89.6503 29.3C89.8657 29.504 90.2 29.606 90.6533 29.606H91.1463C91.2597 29.606 91.3163 29.6627 91.3163 29.776V30.83C91.3163 30.9433 91.2597 31 91.1463 31C90.7837 31.0227 90.523 31.034 90.3643 31.034C89.503 31.034 88.8513 30.881 88.4093 30.575C87.9787 30.2577 87.7633 29.6797 87.7633 28.841V23.758C87.7633 23.7127 87.7407 23.69 87.6953 23.69H86.6583C86.545 23.69 86.4883 23.6333 86.4883 23.52V22.517C86.4883 22.4037 86.545 22.347 86.6583 22.347H87.6953C87.7407 22.347 87.7633 22.3243 87.7633 22.279V20.273C87.7633 20.1597 87.82 20.103 87.9333 20.103H89.1573C89.2707 20.103 89.3273 20.1597 89.3273 20.273V22.279C89.3273 22.3243 89.35 22.347 89.3953 22.347H91.2313C91.3447 22.347 91.4013 22.4037 91.4013 22.517V23.52ZM100.215 25.594C100.26 26.0587 100.277 26.58 100.266 27.158C100.266 27.2713 100.209 27.328 100.096 27.328H94.6725C94.6272 27.328 94.6045 27.3507 94.6045 27.396C94.6045 27.7813 94.6385 28.076 94.7065 28.28C94.8312 28.7333 95.0805 29.0903 95.4545 29.351C95.8398 29.6003 96.3215 29.725 96.8995 29.725C97.7382 29.725 98.3842 29.3793 98.8375 28.688C98.8942 28.5747 98.9678 28.5577 99.0585 28.637L100.028 29.283C100.107 29.351 100.124 29.4247 100.079 29.504C99.7612 30.014 99.3078 30.4163 98.7185 30.711C98.1405 31.0057 97.4832 31.153 96.7465 31.153C95.9192 31.153 95.2222 30.9717 94.6555 30.609C94.0888 30.2463 93.6638 29.7307 93.3805 29.062C93.1085 28.3933 92.9725 27.583 92.9725 26.631C92.9725 25.8037 93.0348 25.1747 93.1595 24.744C93.3635 23.962 93.7715 23.3443 94.3835 22.891C94.9955 22.4377 95.7378 22.211 96.6105 22.211C97.7552 22.211 98.6108 22.5 99.1775 23.078C99.7442 23.6447 100.09 24.4833 100.215 25.594ZM96.6105 23.622C96.1232 23.622 95.7208 23.7467 95.4035 23.996C95.0862 24.234 94.8708 24.557 94.7575 24.965C94.6782 25.2143 94.6272 25.5317 94.6045 25.917C94.6045 25.9623 94.6272 25.985 94.6725 25.985H98.5655C98.6108 25.985 98.6335 25.9623 98.6335 25.917C98.6108 25.543 98.5768 25.2653 98.5315 25.084C98.4182 24.642 98.1915 24.2907 97.8515 24.03C97.5228 23.758 97.1092 23.622 96.6105 23.622ZM106.116 22.262C106.478 22.262 106.807 22.3357 107.102 22.483C107.181 22.517 107.209 22.585 107.187 22.687L106.915 23.962C106.903 24.064 106.835 24.098 106.711 24.064C106.518 23.9847 106.291 23.945 106.031 23.945L105.793 23.962C105.26 23.9847 104.818 24.1717 104.467 24.523C104.127 24.863 103.957 25.3107 103.957 25.866V30.83C103.957 30.9433 103.9 31 103.787 31H102.495C102.381 31 102.325 30.9433 102.325 30.83V22.517C102.325 22.4037 102.381 22.347 102.495 22.347H103.787C103.9 22.347 103.957 22.4037 103.957 22.517V23.418C103.957 23.452 103.962 23.4747 103.974 23.486C103.996 23.486 104.013 23.4747 104.025 23.452C104.535 22.6587 105.232 22.262 106.116 22.262ZM115.654 24.523C115.87 25.135 115.977 25.8603 115.977 26.699C115.977 27.4923 115.887 28.178 115.705 28.756C115.467 29.5153 115.076 30.1047 114.532 30.524C113.988 30.932 113.291 31.136 112.441 31.136C112.056 31.136 111.688 31.0623 111.336 30.915C110.996 30.7563 110.702 30.5353 110.452 30.252C110.43 30.2293 110.407 30.2237 110.384 30.235C110.373 30.2463 110.367 30.2633 110.367 30.286V34.077C110.367 34.1903 110.311 34.247 110.197 34.247H108.905C108.792 34.247 108.735 34.1903 108.735 34.077V22.517C108.735 22.4037 108.792 22.347 108.905 22.347H110.197C110.311 22.347 110.367 22.4037 110.367 22.517V23.078C110.367 23.1007 110.373 23.1177 110.384 23.129C110.407 23.1403 110.43 23.1347 110.452 23.112C110.702 22.8287 110.996 22.6077 111.336 22.449C111.676 22.2903 112.045 22.211 112.441 22.211C113.257 22.211 113.932 22.415 114.464 22.823C115.008 23.2197 115.405 23.7863 115.654 24.523ZM113.784 28.909C114.147 28.365 114.328 27.617 114.328 26.665C114.328 25.7923 114.187 25.0897 113.903 24.557C113.575 23.9337 113.036 23.622 112.288 23.622C111.631 23.622 111.132 23.928 110.792 24.54C110.52 25.0273 110.384 25.7413 110.384 26.682C110.384 27.634 110.532 28.3593 110.826 28.858C111.155 29.436 111.637 29.725 112.271 29.725C112.951 29.725 113.456 29.453 113.784 28.909ZM121.904 22.262C122.267 22.262 122.595 22.3357 122.89 22.483C122.969 22.517 122.998 22.585 122.975 22.687L122.703 23.962C122.692 24.064 122.624 24.098 122.499 24.064C122.306 23.9847 122.08 23.945 121.819 23.945L121.581 23.962C121.048 23.9847 120.606 24.1717 120.255 24.523C119.915 24.863 119.745 25.3107 119.745 25.866V30.83C119.745 30.9433 119.688 31 119.575 31H118.283C118.17 31 118.113 30.9433 118.113 30.83V22.517C118.113 22.4037 118.17 22.347 118.283 22.347H119.575C119.688 22.347 119.745 22.4037 119.745 22.517V23.418C119.745 23.452 119.751 23.4747 119.762 23.486C119.785 23.486 119.802 23.4747 119.813 23.452C120.323 22.6587 121.02 22.262 121.904 22.262ZM125.407 20.987C125.09 20.987 124.829 20.885 124.625 20.681C124.421 20.477 124.319 20.2163 124.319 19.899C124.319 19.5817 124.421 19.321 124.625 19.117C124.829 18.913 125.09 18.811 125.407 18.811C125.725 18.811 125.985 18.913 126.189 19.117C126.393 19.321 126.495 19.5817 126.495 19.899C126.495 20.2163 126.393 20.477 126.189 20.681C125.985 20.885 125.725 20.987 125.407 20.987ZM124.727 30.983C124.614 30.983 124.557 30.9263 124.557 30.813V22.517C124.557 22.4037 124.614 22.347 124.727 22.347H126.019C126.133 22.347 126.189 22.4037 126.189 22.517V30.813C126.189 30.9263 126.133 30.983 126.019 30.983H124.727ZM131.797 31.102C131.117 31.102 130.517 31 129.995 30.796C129.485 30.592 129.089 30.3143 128.805 29.963C128.522 29.6003 128.38 29.2037 128.38 28.773V28.586C128.38 28.4727 128.437 28.416 128.55 28.416H129.774C129.888 28.416 129.944 28.4727 129.944 28.586V28.671C129.944 28.9883 130.114 29.266 130.454 29.504C130.806 29.742 131.248 29.861 131.78 29.861C132.29 29.861 132.704 29.7533 133.021 29.538C133.339 29.3113 133.497 29.028 133.497 28.688C133.497 28.3593 133.35 28.1157 133.055 27.957C132.761 27.787 132.285 27.6113 131.627 27.43C130.981 27.2487 130.437 27.0673 129.995 26.886C129.565 26.6933 129.196 26.427 128.89 26.087C128.596 25.7357 128.448 25.288 128.448 24.744C128.448 23.9847 128.743 23.384 129.332 22.942C129.933 22.4887 130.726 22.262 131.712 22.262C132.37 22.262 132.948 22.3697 133.446 22.585C133.956 22.789 134.347 23.078 134.619 23.452C134.891 23.826 135.027 24.2453 135.027 24.71V24.761C135.027 24.8743 134.971 24.931 134.857 24.931H133.667C133.554 24.931 133.497 24.8743 133.497 24.761V24.71C133.497 24.3813 133.333 24.1093 133.004 23.894C132.687 23.6673 132.251 23.554 131.695 23.554C131.197 23.554 130.789 23.6503 130.471 23.843C130.165 24.0357 130.012 24.2963 130.012 24.625C130.012 24.9537 130.16 25.203 130.454 25.373C130.76 25.543 131.248 25.7243 131.916 25.917C132.574 26.0983 133.118 26.2797 133.548 26.461C133.99 26.631 134.364 26.8917 134.67 27.243C134.976 27.583 135.129 28.0307 135.129 28.586C135.129 29.3567 134.823 29.9687 134.211 30.422C133.611 30.8753 132.806 31.102 131.797 31.102ZM144.043 25.594C144.088 26.0587 144.105 26.58 144.094 27.158C144.094 27.2713 144.037 27.328 143.924 27.328H138.501C138.455 27.328 138.433 27.3507 138.433 27.396C138.433 27.7813 138.467 28.076 138.535 28.28C138.659 28.7333 138.909 29.0903 139.283 29.351C139.668 29.6003 140.15 29.725 140.728 29.725C141.566 29.725 142.212 29.3793 142.666 28.688C142.722 28.5747 142.796 28.5577 142.887 28.637L143.856 29.283C143.935 29.351 143.952 29.4247 143.907 29.504C143.589 30.014 143.136 30.4163 142.547 30.711C141.969 31.0057 141.311 31.153 140.575 31.153C139.747 31.153 139.05 30.9717 138.484 30.609C137.917 30.2463 137.492 29.7307 137.209 29.062C136.937 28.3933 136.801 27.583 136.801 26.631C136.801 25.8037 136.863 25.1747 136.988 24.744C137.192 23.962 137.6 23.3443 138.212 22.891C138.824 22.4377 139.566 22.211 140.439 22.211C141.583 22.211 142.439 22.5 143.006 23.078C143.572 23.6447 143.918 24.4833 144.043 25.594ZM140.439 23.622C139.951 23.622 139.549 23.7467 139.232 23.996C138.914 24.234 138.699 24.557 138.586 24.965C138.506 25.2143 138.455 25.5317 138.433 25.917C138.433 25.9623 138.455 25.985 138.501 25.985H142.394C142.439 25.985 142.462 25.9623 142.462 25.917C142.439 25.543 142.405 25.2653 142.36 25.084C142.246 24.642 142.02 24.2907 141.68 24.03C141.351 23.758 140.937 23.622 140.439 23.622ZM153.432 31.136C152.56 31.136 151.8 31 151.154 30.728C150.52 30.456 150.027 30.0707 149.675 29.572C149.335 29.0733 149.165 28.4897 149.165 27.821V27.328C149.165 27.2147 149.222 27.158 149.335 27.158H150.576C150.69 27.158 150.746 27.2147 150.746 27.328V27.736C150.746 28.314 150.996 28.79 151.494 29.164C151.993 29.538 152.679 29.725 153.551 29.725C154.333 29.725 154.923 29.5607 155.319 29.232C155.716 28.9033 155.914 28.4727 155.914 27.94C155.914 27.5887 155.812 27.2883 155.608 27.039C155.404 26.7897 155.104 26.563 154.707 26.359C154.322 26.1437 153.755 25.8887 153.007 25.594C152.18 25.2767 151.523 24.9877 151.035 24.727C150.559 24.4663 150.163 24.1263 149.845 23.707C149.528 23.2763 149.369 22.738 149.369 22.092C149.369 21.1173 149.715 20.3523 150.406 19.797C151.109 19.2417 152.055 18.964 153.245 18.964C154.084 18.964 154.821 19.1057 155.455 19.389C156.09 19.6723 156.577 20.069 156.917 20.579C157.269 21.089 157.444 21.6783 157.444 22.347V22.687C157.444 22.8003 157.388 22.857 157.274 22.857H155.999C155.886 22.857 155.829 22.8003 155.829 22.687V22.432C155.829 21.8427 155.591 21.3553 155.115 20.97C154.651 20.5733 154.005 20.375 153.177 20.375C152.475 20.375 151.931 20.5223 151.545 20.817C151.16 21.1003 150.967 21.514 150.967 22.058C150.967 22.432 151.064 22.738 151.256 22.976C151.449 23.214 151.732 23.4293 152.106 23.622C152.492 23.8033 153.075 24.0413 153.857 24.336C154.662 24.6533 155.314 24.948 155.812 25.22C156.311 25.4807 156.725 25.832 157.053 26.274C157.382 26.7047 157.546 27.243 157.546 27.889C157.546 28.8863 157.178 29.6797 156.441 30.269C155.716 30.847 154.713 31.136 153.432 31.136ZM166.554 25.594C166.6 26.0587 166.617 26.58 166.605 27.158C166.605 27.2713 166.549 27.328 166.435 27.328H161.012C160.967 27.328 160.944 27.3507 160.944 27.396C160.944 27.7813 160.978 28.076 161.046 28.28C161.171 28.7333 161.42 29.0903 161.794 29.351C162.18 29.6003 162.661 29.725 163.239 29.725C164.078 29.725 164.724 29.3793 165.177 28.688C165.234 28.5747 165.308 28.5577 165.398 28.637L166.367 29.283C166.447 29.351 166.464 29.4247 166.418 29.504C166.101 30.014 165.648 30.4163 165.058 30.711C164.48 31.0057 163.823 31.153 163.086 31.153C162.259 31.153 161.562 30.9717 160.995 30.609C160.429 30.2463 160.004 29.7307 159.72 29.062C159.448 28.3933 159.312 27.583 159.312 26.631C159.312 25.8037 159.375 25.1747 159.499 24.744C159.703 23.962 160.111 23.3443 160.723 22.891C161.335 22.4377 162.078 22.211 162.95 22.211C164.095 22.211 164.951 22.5 165.517 23.078C166.084 23.6447 166.43 24.4833 166.554 25.594ZM162.95 23.622C162.463 23.622 162.061 23.7467 161.743 23.996C161.426 24.234 161.211 24.557 161.097 24.965C161.018 25.2143 160.967 25.5317 160.944 25.917C160.944 25.9623 160.967 25.985 161.012 25.985H164.905C164.951 25.985 164.973 25.9623 164.973 25.917C164.951 25.543 164.917 25.2653 164.871 25.084C164.758 24.642 164.531 24.2907 164.191 24.03C163.863 23.758 163.449 23.622 162.95 23.622ZM172.133 31.136C171.271 31.136 170.535 30.9207 169.923 30.49C169.311 30.048 168.891 29.453 168.665 28.705C168.495 28.1837 168.41 27.498 168.41 26.648C168.41 25.866 168.495 25.1803 168.665 24.591C168.891 23.8657 169.311 23.2877 169.923 22.857C170.546 22.4263 171.283 22.211 172.133 22.211C172.983 22.211 173.725 22.4263 174.36 22.857C174.994 23.2877 175.408 23.8317 175.601 24.489C175.669 24.6703 175.714 24.8573 175.737 25.05C175.737 25.1407 175.686 25.1973 175.584 25.22L174.309 25.407H174.275C174.195 25.407 174.139 25.356 174.105 25.254L174.054 24.982C173.963 24.5967 173.742 24.2737 173.391 24.013C173.039 23.7523 172.614 23.622 172.116 23.622C171.628 23.622 171.215 23.7523 170.875 24.013C170.535 24.2737 170.314 24.6193 170.212 25.05C170.11 25.458 170.059 25.9963 170.059 26.665C170.059 27.3223 170.11 27.855 170.212 28.263C170.325 28.7163 170.546 29.0733 170.875 29.334C171.215 29.5947 171.628 29.725 172.116 29.725C172.614 29.725 173.039 29.5947 173.391 29.334C173.753 29.0733 173.98 28.7333 174.071 28.314C174.082 28.3027 174.082 28.2913 174.071 28.28C174.071 28.2573 174.076 28.2403 174.088 28.229V28.161C174.122 28.0703 174.184 28.0363 174.275 28.059L175.55 28.263C175.64 28.2857 175.686 28.331 175.686 28.399V28.467C175.686 28.569 175.657 28.6937 175.601 28.841C175.408 29.5323 174.994 30.0877 174.36 30.507C173.725 30.9263 172.983 31.136 172.133 31.136ZM182.764 22.517C182.764 22.4037 182.821 22.347 182.934 22.347H184.209C184.322 22.347 184.379 22.4037 184.379 22.517V30.83C184.379 30.9433 184.322 31 184.209 31H182.934C182.821 31 182.764 30.9433 182.764 30.83V30.201C182.764 30.1783 182.753 30.167 182.73 30.167C182.719 30.1557 182.702 30.1613 182.679 30.184C182.226 30.8073 181.529 31.119 180.588 31.119C180.033 31.119 179.517 31.0113 179.041 30.796C178.576 30.5807 178.202 30.2633 177.919 29.844C177.636 29.4247 177.494 28.9147 177.494 28.314V22.517C177.494 22.4037 177.551 22.347 177.664 22.347H178.939C179.052 22.347 179.109 22.4037 179.109 22.517V27.804C179.109 28.3933 179.262 28.858 179.568 29.198C179.885 29.538 180.327 29.708 180.894 29.708C181.461 29.708 181.914 29.538 182.254 29.198C182.594 28.8467 182.764 28.382 182.764 27.804V22.517ZM190.551 22.262C190.914 22.262 191.243 22.3357 191.537 22.483C191.617 22.517 191.645 22.585 191.622 22.687L191.35 23.962C191.339 24.064 191.271 24.098 191.146 24.064C190.954 23.9847 190.727 23.945 190.466 23.945L190.228 23.962C189.696 23.9847 189.254 24.1717 188.902 24.523C188.562 24.863 188.392 25.3107 188.392 25.866V30.83C188.392 30.9433 188.336 31 188.222 31H186.93C186.817 31 186.76 30.9433 186.76 30.83V22.517C186.76 22.4037 186.817 22.347 186.93 22.347H188.222C188.336 22.347 188.392 22.4037 188.392 22.517V23.418C188.392 23.452 188.398 23.4747 188.409 23.486C188.432 23.486 188.449 23.4747 188.46 23.452C188.97 22.6587 189.667 22.262 190.551 22.262ZM194.055 20.987C193.738 20.987 193.477 20.885 193.273 20.681C193.069 20.477 192.967 20.2163 192.967 19.899C192.967 19.5817 193.069 19.321 193.273 19.117C193.477 18.913 193.738 18.811 194.055 18.811C194.372 18.811 194.633 18.913 194.837 19.117C195.041 19.321 195.143 19.5817 195.143 19.899C195.143 20.2163 195.041 20.477 194.837 20.681C194.633 20.885 194.372 20.987 194.055 20.987ZM193.375 30.983C193.262 30.983 193.205 30.9263 193.205 30.813V22.517C193.205 22.4037 193.262 22.347 193.375 22.347H194.667C194.78 22.347 194.837 22.4037 194.837 22.517V30.813C194.837 30.9263 194.78 30.983 194.667 30.983H193.375ZM201.669 23.52C201.669 23.6333 201.612 23.69 201.499 23.69H199.663C199.618 23.69 199.595 23.7127 199.595 23.758V28.263C199.595 28.739 199.703 29.0847 199.918 29.3C200.133 29.504 200.468 29.606 200.921 29.606H201.414C201.527 29.606 201.584 29.6627 201.584 29.776V30.83C201.584 30.9433 201.527 31 201.414 31C201.051 31.0227 200.791 31.034 200.632 31.034C199.771 31.034 199.119 30.881 198.677 30.575C198.246 30.2577 198.031 29.6797 198.031 28.841V23.758C198.031 23.7127 198.008 23.69 197.963 23.69H196.926C196.813 23.69 196.756 23.6333 196.756 23.52V22.517C196.756 22.4037 196.813 22.347 196.926 22.347H197.963C198.008 22.347 198.031 22.3243 198.031 22.279V20.273C198.031 20.1597 198.088 20.103 198.201 20.103H199.425C199.538 20.103 199.595 20.1597 199.595 20.273V22.279C199.595 22.3243 199.618 22.347 199.663 22.347H201.499C201.612 22.347 201.669 22.4037 201.669 22.517V23.52ZM203.422 34.383C203.343 34.383 203.303 34.3263 203.303 34.213V33.21C203.303 33.0967 203.36 33.04 203.473 33.04H203.507C203.961 33.0287 204.318 32.972 204.578 32.87C204.839 32.768 205.054 32.5753 205.224 32.292C205.394 32.02 205.559 31.6063 205.717 31.051C205.729 31.0397 205.729 31.0227 205.717 31C205.717 30.966 205.717 30.949 205.717 30.949L202.878 22.534L202.861 22.466C202.861 22.3867 202.912 22.347 203.014 22.347H204.391C204.493 22.347 204.561 22.3923 204.595 22.483L206.516 28.892C206.528 28.9147 206.545 28.926 206.567 28.926C206.59 28.926 206.607 28.9147 206.618 28.892L208.522 22.483C208.556 22.3923 208.624 22.347 208.726 22.347H210.069C210.194 22.347 210.239 22.4093 210.205 22.534L207.111 31.595C206.851 32.377 206.59 32.955 206.329 33.329C206.069 33.7143 205.729 33.9863 205.309 34.145C204.89 34.3037 204.301 34.383 203.541 34.383H203.422ZM222.153 31C222.062 31 222 30.9603 221.966 30.881L219.586 25.798C219.574 25.764 219.552 25.747 219.518 25.747H217.07C217.024 25.747 217.002 25.7697 217.002 25.815V30.83C217.002 30.9433 216.945 31 216.832 31H215.54C215.426 31 215.37 30.9433 215.37 30.83V19.27C215.37 19.1567 215.426 19.1 215.54 19.1H220.113C220.793 19.1 221.388 19.2417 221.898 19.525C222.419 19.8083 222.821 20.205 223.105 20.715C223.388 21.225 223.53 21.8143 223.53 22.483C223.53 23.2763 223.32 23.9507 222.901 24.506C222.493 25.05 221.92 25.4183 221.184 25.611C221.138 25.6337 221.127 25.662 221.15 25.696L223.615 30.796C223.626 30.8187 223.632 30.847 223.632 30.881C223.632 30.9603 223.586 31 223.496 31H222.153ZM217.07 20.511C217.024 20.511 217.002 20.5337 217.002 20.579V24.387C217.002 24.4323 217.024 24.455 217.07 24.455H219.909C220.509 24.455 220.991 24.2793 221.354 23.928C221.716 23.5653 221.898 23.0893 221.898 22.5C221.898 21.8993 221.716 21.4177 221.354 21.055C220.991 20.6923 220.509 20.511 219.909 20.511H217.07ZM232.529 25.594C232.574 26.0587 232.591 26.58 232.58 27.158C232.58 27.2713 232.523 27.328 232.41 27.328H226.987C226.942 27.328 226.919 27.3507 226.919 27.396C226.919 27.7813 226.953 28.076 227.021 28.28C227.146 28.7333 227.395 29.0903 227.769 29.351C228.154 29.6003 228.636 29.725 229.214 29.725C230.053 29.725 230.699 29.3793 231.152 28.688C231.209 28.5747 231.282 28.5577 231.373 28.637L232.342 29.283C232.421 29.351 232.438 29.4247 232.393 29.504C232.076 30.014 231.622 30.4163 231.033 30.711C230.455 31.0057 229.798 31.153 229.061 31.153C228.234 31.153 227.537 30.9717 226.97 30.609C226.403 30.2463 225.978 29.7307 225.695 29.062C225.423 28.3933 225.287 27.583 225.287 26.631C225.287 25.8037 225.349 25.1747 225.474 24.744C225.678 23.962 226.086 23.3443 226.698 22.891C227.31 22.4377 228.052 22.211 228.925 22.211C230.07 22.211 230.925 22.5 231.492 23.078C232.059 23.6447 232.404 24.4833 232.529 25.594ZM228.925 23.622C228.438 23.622 228.035 23.7467 227.718 23.996C227.401 24.234 227.185 24.557 227.072 24.965C226.993 25.2143 226.942 25.5317 226.919 25.917C226.919 25.9623 226.942 25.985 226.987 25.985H230.88C230.925 25.985 230.948 25.9623 230.948 25.917C230.925 25.543 230.891 25.2653 230.846 25.084C230.733 24.642 230.506 24.2907 230.166 24.03C229.837 23.758 229.424 23.622 228.925 23.622ZM236.618 31C236.516 31 236.448 30.9547 236.414 30.864L233.643 22.534L233.626 22.466C233.626 22.3867 233.677 22.347 233.779 22.347H235.207C235.309 22.347 235.377 22.3923 235.411 22.483L237.281 28.637C237.293 28.6597 237.31 28.671 237.332 28.671C237.355 28.671 237.372 28.6597 237.383 28.637L239.236 22.483C239.27 22.3923 239.338 22.347 239.44 22.347L240.868 22.364C240.993 22.364 241.038 22.4263 241.004 22.551L238.25 30.864C238.216 30.9547 238.148 31 238.046 31H236.618ZM243.677 20.987C243.36 20.987 243.099 20.885 242.895 20.681C242.691 20.477 242.589 20.2163 242.589 19.899C242.589 19.5817 242.691 19.321 242.895 19.117C243.099 18.913 243.36 18.811 243.677 18.811C243.994 18.811 244.255 18.913 244.459 19.117C244.663 19.321 244.765 19.5817 244.765 19.899C244.765 20.2163 244.663 20.477 244.459 20.681C244.255 20.885 243.994 20.987 243.677 20.987ZM242.997 30.983C242.884 30.983 242.827 30.9263 242.827 30.813V22.517C242.827 22.4037 242.884 22.347 242.997 22.347H244.289C244.402 22.347 244.459 22.4037 244.459 22.517V30.813C244.459 30.9263 244.402 30.983 244.289 30.983H242.997ZM254.028 25.594C254.073 26.0587 254.09 26.58 254.079 27.158C254.079 27.2713 254.022 27.328 253.909 27.328H248.486C248.441 27.328 248.418 27.3507 248.418 27.396C248.418 27.7813 248.452 28.076 248.52 28.28C248.645 28.7333 248.894 29.0903 249.268 29.351C249.653 29.6003 250.135 29.725 250.713 29.725C251.552 29.725 252.198 29.3793 252.651 28.688C252.708 28.5747 252.781 28.5577 252.872 28.637L253.841 29.283C253.92 29.351 253.937 29.4247 253.892 29.504C253.575 30.014 253.121 30.4163 252.532 30.711C251.954 31.0057 251.297 31.153 250.56 31.153C249.733 31.153 249.036 30.9717 248.469 30.609C247.902 30.2463 247.477 29.7307 247.194 29.062C246.922 28.3933 246.786 27.583 246.786 26.631C246.786 25.8037 246.848 25.1747 246.973 24.744C247.177 23.962 247.585 23.3443 248.197 22.891C248.809 22.4377 249.551 22.211 250.424 22.211C251.569 22.211 252.424 22.5 252.991 23.078C253.558 23.6447 253.903 24.4833 254.028 25.594ZM250.424 23.622C249.937 23.622 249.534 23.7467 249.217 23.996C248.9 24.234 248.684 24.557 248.571 24.965C248.492 25.2143 248.441 25.5317 248.418 25.917C248.418 25.9623 248.441 25.985 248.486 25.985H252.379C252.424 25.985 252.447 25.9623 252.447 25.917C252.424 25.543 252.39 25.2653 252.345 25.084C252.232 24.642 252.005 24.2907 251.665 24.03C251.336 23.758 250.923 23.622 250.424 23.622ZM257.76 31C257.67 31 257.607 30.9547 257.573 30.864L255.125 22.534L255.108 22.483C255.108 22.3923 255.165 22.347 255.278 22.347H256.604C256.706 22.347 256.769 22.398 256.791 22.5L258.406 28.671C258.418 28.6937 258.429 28.705 258.44 28.705C258.463 28.705 258.48 28.6937 258.491 28.671L260.14 22.5C260.163 22.398 260.225 22.347 260.327 22.347H261.5C261.602 22.347 261.665 22.398 261.687 22.5L263.37 28.654C263.382 28.6767 263.393 28.688 263.404 28.688C263.427 28.688 263.444 28.6767 263.455 28.654L265.138 22.5C265.161 22.398 265.223 22.347 265.325 22.347L266.634 22.364C266.691 22.364 266.731 22.381 266.753 22.415C266.787 22.449 266.799 22.4943 266.787 22.551L264.322 30.864C264.288 30.9547 264.226 31 264.135 31H262.809C262.719 31 262.656 30.9547 262.622 30.864L260.956 25.118C260.945 25.0953 260.928 25.084 260.905 25.084C260.894 25.084 260.883 25.0953 260.871 25.118L259.29 30.847C259.268 30.949 259.205 31 259.103 31H257.76Z" fill="#0D0128"/>
<defs>
<linearGradient id="paint0_linear_4433_4680" x1="291" y1="24" x2="2" y2="24" gradientUnits="userSpaceOnUse">
<stop stop-color="#AA83FF"/>
<stop offset="1" stop-color="#D0FFCC"/>
</linearGradient>
<linearGradient id="paint1_linear_4433_4680" x1="291" y1="24" x2="2" y2="24" gradientUnits="userSpaceOnUse">
<stop stop-color="#C7ADFF"/>
<stop offset="1" stop-color="#776899" stop-opacity="0"/>
</linearGradient>
</defs>
</svg>
