<svg width="211" height="44" viewBox="0 0 211 44" fill="none" xmlns="http://www.w3.org/2000/svg">
<path d="M188.374 43.5L210.5 31.6689V0.5H192.5V3.25H166.5V0.5H20.6387L0.5 12.6572V43.5H188.374Z" fill="#C2FFBD" stroke="url(#paint0_linear_4044_4337)"/>
<path d="M37.888 21.795C37.82 21.829 37.82 21.863 37.888 21.897C39.044 22.441 39.622 23.376 39.622 24.702C39.622 25.7787 39.2593 26.6003 38.534 27.167C37.82 27.7223 36.885 28 35.729 28H31.445C31.3883 28 31.3373 27.983 31.292 27.949C31.258 27.9037 31.241 27.8527 31.241 27.796V16.304C31.241 16.2473 31.258 16.202 31.292 16.168C31.3373 16.1227 31.3883 16.1 31.445 16.1H35.593C36.8283 16.1 37.7803 16.3663 38.449 16.899C39.1177 17.4317 39.452 18.2363 39.452 19.313C39.452 20.503 38.9307 21.3303 37.888 21.795ZM33.298 17.8C33.2413 17.8 33.213 17.8283 33.213 17.885V21.03C33.213 21.0867 33.2413 21.115 33.298 21.115H35.593C36.1937 21.115 36.664 20.9733 37.004 20.69C37.3553 20.3953 37.531 19.993 37.531 19.483C37.531 18.9617 37.3553 18.5537 37.004 18.259C36.664 17.953 36.1937 17.8 35.593 17.8H33.298ZM35.729 26.283C36.3183 26.283 36.783 26.1243 37.123 25.807C37.4743 25.4897 37.65 25.059 37.65 24.515C37.65 23.9597 37.4743 23.529 37.123 23.223C36.7717 22.9057 36.2957 22.747 35.695 22.747H33.298C33.2413 22.747 33.213 22.7753 33.213 22.832V26.198C33.213 26.2547 33.2413 26.283 33.298 26.283H35.729ZM45.3182 28.136C44.4229 28.136 43.6522 27.9093 43.0062 27.456C42.3715 27.0027 41.9239 26.3737 41.6632 25.569C41.4705 24.957 41.3742 24.311 41.3742 23.631C41.3742 22.9057 41.4649 22.2597 41.6462 21.693C41.9069 20.8997 42.3602 20.282 43.0062 19.84C43.6522 19.398 44.4285 19.177 45.3352 19.177C46.1965 19.177 46.9389 19.398 47.5622 19.84C48.1969 20.282 48.6445 20.894 48.9052 21.676C49.1092 22.22 49.2112 22.866 49.2112 23.614C49.2112 24.328 49.1149 24.974 48.9222 25.552C48.6615 26.3567 48.2139 26.9913 47.5792 27.456C46.9445 27.9093 46.1909 28.136 45.3182 28.136ZM45.3182 26.436C45.7375 26.436 46.0945 26.317 46.3892 26.079C46.6952 25.841 46.9162 25.5067 47.0522 25.076C47.1655 24.702 47.2222 24.226 47.2222 23.648C47.2222 23.036 47.1655 22.56 47.0522 22.22C46.9275 21.7893 46.7122 21.4607 46.4062 21.234C46.1002 20.996 45.7262 20.877 45.2842 20.877C44.8649 20.877 44.5022 20.996 44.1962 21.234C43.8902 21.4607 43.6692 21.7893 43.5332 22.22C43.4199 22.6167 43.3632 23.0927 43.3632 23.648C43.3632 24.2033 43.4199 24.6793 43.5332 25.076C43.6579 25.5067 43.8732 25.841 44.1792 26.079C44.4965 26.317 44.8762 26.436 45.3182 26.436ZM54.7645 28.136C53.8692 28.136 53.0985 27.9093 52.4525 27.456C51.8178 27.0027 51.3702 26.3737 51.1095 25.569C50.9168 24.957 50.8205 24.311 50.8205 23.631C50.8205 22.9057 50.9112 22.2597 51.0925 21.693C51.3532 20.8997 51.8065 20.282 52.4525 19.84C53.0985 19.398 53.8748 19.177 54.7815 19.177C55.6428 19.177 56.3852 19.398 57.0085 19.84C57.6432 20.282 58.0908 20.894 58.3515 21.676C58.5555 22.22 58.6575 22.866 58.6575 23.614C58.6575 24.328 58.5612 24.974 58.3685 25.552C58.1078 26.3567 57.6602 26.9913 57.0255 27.456C56.3908 27.9093 55.6372 28.136 54.7645 28.136ZM54.7645 26.436C55.1838 26.436 55.5408 26.317 55.8355 26.079C56.1415 25.841 56.3625 25.5067 56.4985 25.076C56.6118 24.702 56.6685 24.226 56.6685 23.648C56.6685 23.036 56.6118 22.56 56.4985 22.22C56.3738 21.7893 56.1585 21.4607 55.8525 21.234C55.5465 20.996 55.1725 20.877 54.7305 20.877C54.3112 20.877 53.9485 20.996 53.6425 21.234C53.3365 21.4607 53.1155 21.7893 52.9795 22.22C52.8662 22.6167 52.8095 23.0927 52.8095 23.648C52.8095 24.2033 52.8662 24.6793 52.9795 25.076C53.1042 25.5067 53.3195 25.841 53.6255 26.079C53.9428 26.317 54.3225 26.436 54.7645 26.436ZM60.7258 28C60.6691 28 60.6181 27.983 60.5728 27.949C60.5388 27.9037 60.5218 27.8527 60.5218 27.796V16.304C60.5218 16.2473 60.5388 16.202 60.5728 16.168C60.6181 16.1227 60.6691 16.1 60.7258 16.1H62.2898C62.3464 16.1 62.3918 16.1227 62.4258 16.168C62.4711 16.202 62.4938 16.2473 62.4938 16.304V22.441C62.4938 22.475 62.5051 22.4977 62.5278 22.509C62.5504 22.5203 62.5731 22.509 62.5958 22.475L65.3498 19.432C65.4291 19.3527 65.5141 19.313 65.6048 19.313H67.4068C67.5201 19.313 67.5768 19.3527 67.5768 19.432C67.5768 19.466 67.5598 19.5113 67.5258 19.568L65.3668 22.152C65.3328 22.186 65.3271 22.2257 65.3498 22.271L67.8998 27.762C67.9224 27.8073 67.9338 27.8413 67.9338 27.864C67.9338 27.9547 67.8714 28 67.7468 28H66.0978C65.9844 28 65.9051 27.949 65.8598 27.847L64.0068 23.529C63.9954 23.5063 63.9728 23.495 63.9388 23.495C63.9161 23.4837 63.8991 23.4893 63.8878 23.512L62.5278 25.076C62.5051 25.1213 62.4938 25.161 62.4938 25.195V27.796C62.4938 27.8527 62.4711 27.9037 62.4258 27.949C62.3918 27.983 62.3464 28 62.2898 28H60.7258ZM76.8359 28.136C75.9519 28.136 75.1813 27.9943 74.5239 27.711C73.8666 27.4277 73.3566 27.031 72.9939 26.521C72.6426 26.011 72.4669 25.4103 72.4669 24.719V24.294C72.4669 24.2373 72.4839 24.192 72.5179 24.158C72.5633 24.1127 72.6143 24.09 72.6709 24.09H74.1839C74.2406 24.09 74.2859 24.1127 74.3199 24.158C74.3653 24.192 74.3879 24.2373 74.3879 24.294V24.617C74.3879 25.1383 74.6203 25.5747 75.0849 25.926C75.5496 26.266 76.1843 26.436 76.9889 26.436C77.6803 26.436 78.2016 26.2887 78.5529 25.994C78.9043 25.6993 79.0799 25.3197 79.0799 24.855C79.0799 24.5377 78.9836 24.2713 78.7909 24.056C78.5983 23.8293 78.3206 23.6253 77.9579 23.444C77.6066 23.2627 77.0739 23.036 76.3599 22.764C75.5553 22.4693 74.9036 22.1917 74.4049 21.931C73.9063 21.6703 73.4869 21.319 73.1469 20.877C72.8183 20.4237 72.6539 19.8627 72.6539 19.194C72.6539 18.1967 73.0166 17.409 73.7419 16.831C74.4673 16.253 75.4363 15.964 76.6489 15.964C77.4989 15.964 78.2469 16.1113 78.8929 16.406C79.5503 16.7007 80.0603 17.1143 80.4229 17.647C80.7856 18.1683 80.9669 18.7747 80.9669 19.466V19.755C80.9669 19.8117 80.9443 19.8627 80.8989 19.908C80.8649 19.942 80.8196 19.959 80.7629 19.959H79.2329C79.1763 19.959 79.1253 19.942 79.0799 19.908C79.0459 19.8627 79.0289 19.8117 79.0289 19.755V19.568C79.0289 19.0353 78.8079 18.5877 78.3659 18.225C77.9353 17.851 77.3346 17.664 76.5639 17.664C75.9406 17.664 75.4533 17.7943 75.1019 18.055C74.7619 18.3157 74.5919 18.684 74.5919 19.16C74.5919 19.5 74.6826 19.7777 74.8639 19.993C75.0453 20.2083 75.3173 20.4067 75.6799 20.588C76.0426 20.758 76.6036 20.979 77.3629 21.251C78.1676 21.557 78.8079 21.8347 79.2839 22.084C79.7713 22.3333 80.1849 22.6847 80.5249 23.138C80.8763 23.58 81.0519 24.1353 81.0519 24.804C81.0519 25.824 80.6723 26.6343 79.9129 27.235C79.1649 27.8357 78.1393 28.136 76.8359 28.136ZM90.1779 22.679C90.2232 22.9623 90.2459 23.2797 90.2459 23.631L90.2289 24.158C90.2289 24.294 90.1609 24.362 90.0249 24.362H84.7039C84.6472 24.362 84.6189 24.3903 84.6189 24.447C84.6529 24.821 84.7039 25.076 84.7719 25.212C85.0439 26.028 85.7069 26.4417 86.7609 26.453C87.5315 26.453 88.1435 26.1357 88.5969 25.501C88.6422 25.433 88.6989 25.399 88.7669 25.399C88.8122 25.399 88.8519 25.416 88.8859 25.45L89.9399 26.317C90.0419 26.3963 90.0589 26.487 89.9909 26.589C89.6395 27.0877 89.1692 27.473 88.5799 27.745C88.0019 28.017 87.3559 28.153 86.6419 28.153C85.7579 28.153 85.0042 27.9547 84.3809 27.558C83.7689 27.1613 83.3212 26.606 83.0379 25.892C82.7772 25.28 82.6469 24.43 82.6469 23.342C82.6469 22.6847 82.7149 22.152 82.8509 21.744C83.0775 20.9507 83.5025 20.3273 84.1259 19.874C84.7605 19.4093 85.5199 19.177 86.4039 19.177C88.6365 19.177 89.8945 20.3443 90.1779 22.679ZM86.4039 20.877C85.9845 20.877 85.6332 20.9847 85.3499 21.2C85.0779 21.404 84.8852 21.693 84.7719 22.067C84.7039 22.2597 84.6585 22.509 84.6359 22.815C84.6132 22.8717 84.6359 22.9 84.7039 22.9H88.1549C88.2115 22.9 88.2399 22.8717 88.2399 22.815C88.2172 22.5317 88.1832 22.3163 88.1379 22.169C88.0359 21.761 87.8319 21.4437 87.5259 21.217C87.2312 20.9903 86.8572 20.877 86.4039 20.877ZM95.6691 28.136C94.7965 28.136 94.0428 27.915 93.4081 27.473C92.7735 27.0197 92.3315 26.4133 92.0821 25.654C91.9008 25.144 91.8101 24.464 91.8101 23.614C91.8101 22.798 91.9008 22.1293 92.0821 21.608C92.3201 20.86 92.7565 20.2707 93.3911 19.84C94.0371 19.398 94.7965 19.177 95.6691 19.177C96.5531 19.177 97.3238 19.398 97.9811 19.84C98.6385 20.282 99.0748 20.8373 99.2901 21.506C99.3468 21.6873 99.3865 21.8687 99.4091 22.05V22.084C99.4091 22.1973 99.3468 22.2653 99.2221 22.288L97.6921 22.509H97.6581C97.5561 22.509 97.4881 22.4523 97.4541 22.339C97.4541 22.2823 97.4485 22.237 97.4371 22.203C97.4145 22.1123 97.3918 22.033 97.3691 21.965C97.2671 21.6477 97.0631 21.387 96.7571 21.183C96.4511 20.979 96.0885 20.877 95.6691 20.877C95.2385 20.877 94.8701 20.9903 94.5641 21.217C94.2695 21.4323 94.0711 21.7327 93.9691 22.118C93.8558 22.4807 93.7991 22.985 93.7991 23.631C93.7991 24.2543 93.8501 24.7587 93.9521 25.144C94.0655 25.5407 94.2695 25.858 94.5641 26.096C94.8588 26.3227 95.2271 26.436 95.6691 26.436C96.0998 26.436 96.4681 26.3283 96.7741 26.113C97.0915 25.8863 97.2955 25.586 97.3861 25.212C97.3975 25.1893 97.4031 25.161 97.4031 25.127C97.4145 25.1157 97.4201 25.0987 97.4201 25.076C97.4541 24.94 97.5335 24.8833 97.6581 24.906L99.1881 25.144C99.2448 25.1553 99.2901 25.1837 99.3241 25.229C99.3695 25.263 99.3865 25.314 99.3751 25.382C99.3411 25.5633 99.3128 25.6937 99.2901 25.773C99.0748 26.4983 98.6385 27.0763 97.9811 27.507C97.3238 27.9263 96.5531 28.136 95.6691 28.136ZM106.213 19.517C106.213 19.4603 106.23 19.415 106.264 19.381C106.31 19.3357 106.361 19.313 106.417 19.313H107.964C108.021 19.313 108.066 19.3357 108.1 19.381C108.146 19.415 108.168 19.4603 108.168 19.517V27.796C108.168 27.8527 108.146 27.9037 108.1 27.949C108.066 27.983 108.021 28 107.964 28H106.417C106.361 28 106.31 27.983 106.264 27.949C106.23 27.9037 106.213 27.8527 106.213 27.796V27.252C106.213 27.218 106.202 27.1953 106.179 27.184C106.157 27.1727 106.134 27.184 106.111 27.218C105.647 27.8187 104.95 28.119 104.02 28.119C103.159 28.119 102.434 27.8697 101.844 27.371C101.266 26.8723 100.977 26.164 100.977 25.246V19.517C100.977 19.4603 100.994 19.415 101.028 19.381C101.074 19.3357 101.125 19.313 101.181 19.313H102.745C102.802 19.313 102.847 19.3357 102.881 19.381C102.927 19.415 102.949 19.4603 102.949 19.517V24.685C102.949 25.2177 103.085 25.6427 103.357 25.96C103.641 26.2773 104.032 26.436 104.53 26.436C105.04 26.436 105.448 26.2773 105.754 25.96C106.06 25.6427 106.213 25.2177 106.213 24.685V19.517ZM114.323 19.211C114.685 19.211 115.003 19.2847 115.275 19.432C115.365 19.4773 115.399 19.5623 115.377 19.687L115.088 21.217C115.076 21.353 114.997 21.3927 114.85 21.336C114.68 21.2793 114.481 21.251 114.255 21.251C114.107 21.251 113.994 21.2567 113.915 21.268C113.439 21.2907 113.042 21.4607 112.725 21.778C112.407 22.084 112.249 22.4863 112.249 22.985V27.796C112.249 27.8527 112.226 27.9037 112.181 27.949C112.147 27.983 112.101 28 112.045 28H110.481C110.424 28 110.373 27.983 110.328 27.949C110.294 27.9037 110.277 27.8527 110.277 27.796V19.517C110.277 19.4603 110.294 19.415 110.328 19.381C110.373 19.3357 110.424 19.313 110.481 19.313H112.045C112.101 19.313 112.147 19.3357 112.181 19.381C112.226 19.415 112.249 19.4603 112.249 19.517V20.282C112.249 20.3273 112.254 20.3557 112.266 20.367C112.288 20.367 112.311 20.35 112.334 20.316C112.81 19.5793 113.473 19.211 114.323 19.211ZM117.79 18.123C117.439 18.123 117.15 18.0097 116.923 17.783C116.697 17.5563 116.583 17.2673 116.583 16.916C116.583 16.5647 116.697 16.2757 116.923 16.049C117.15 15.8223 117.439 15.709 117.79 15.709C118.142 15.709 118.431 15.8223 118.657 16.049C118.884 16.2757 118.997 16.5647 118.997 16.916C118.997 17.2673 118.884 17.5563 118.657 17.783C118.431 18.0097 118.142 18.123 117.79 18.123ZM116.974 28C116.918 28 116.867 27.983 116.821 27.949C116.787 27.9037 116.77 27.8527 116.77 27.796V19.5C116.77 19.4433 116.787 19.398 116.821 19.364C116.867 19.3187 116.918 19.296 116.974 19.296H118.538C118.595 19.296 118.64 19.3187 118.674 19.364C118.72 19.398 118.742 19.4433 118.742 19.5V27.796C118.742 27.8527 118.72 27.9037 118.674 27.949C118.64 27.983 118.595 28 118.538 28H116.974ZM125.608 20.707C125.608 20.7637 125.586 20.8147 125.54 20.86C125.506 20.894 125.461 20.911 125.404 20.911H123.67C123.614 20.911 123.585 20.9393 123.585 20.996V25.093C123.585 25.5237 123.676 25.8353 123.857 26.028C124.05 26.2207 124.35 26.317 124.758 26.317H125.268C125.325 26.317 125.37 26.3397 125.404 26.385C125.45 26.419 125.472 26.4643 125.472 26.521V27.796C125.472 27.9207 125.404 27.9943 125.268 28.017L124.384 28.034C123.489 28.034 122.82 27.881 122.378 27.575C121.936 27.269 121.71 26.691 121.698 25.841V20.996C121.698 20.9393 121.67 20.911 121.613 20.911H120.644C120.588 20.911 120.537 20.894 120.491 20.86C120.457 20.8147 120.44 20.7637 120.44 20.707V19.517C120.44 19.4603 120.457 19.415 120.491 19.381C120.537 19.3357 120.588 19.313 120.644 19.313H121.613C121.67 19.313 121.698 19.2847 121.698 19.228V17.239C121.698 17.1823 121.715 17.137 121.749 17.103C121.795 17.0577 121.846 17.035 121.902 17.035H123.381C123.438 17.035 123.483 17.0577 123.517 17.103C123.563 17.137 123.585 17.1823 123.585 17.239V19.228C123.585 19.2847 123.614 19.313 123.67 19.313H125.404C125.461 19.313 125.506 19.3357 125.54 19.381C125.586 19.415 125.608 19.4603 125.608 19.517V20.707ZM127.19 31.383C127.156 31.383 127.127 31.3603 127.105 31.315C127.082 31.281 127.071 31.2357 127.071 31.179V29.955C127.071 29.8983 127.088 29.8473 127.122 29.802C127.167 29.768 127.218 29.751 127.275 29.751H127.292C127.756 29.7397 128.119 29.6887 128.38 29.598C128.64 29.5187 128.856 29.36 129.026 29.122C129.196 28.884 129.349 28.527 129.485 28.051C129.496 28.0283 129.496 27.9943 129.485 27.949L126.68 19.534C126.668 19.5113 126.663 19.483 126.663 19.449C126.663 19.347 126.719 19.296 126.833 19.296H128.499C128.623 19.296 128.703 19.3527 128.737 19.466L130.437 25.45C130.448 25.484 130.465 25.501 130.488 25.501C130.51 25.501 130.527 25.484 130.539 25.45L132.239 19.466C132.273 19.3527 132.352 19.296 132.477 19.296H134.092C134.16 19.296 134.205 19.3187 134.228 19.364C134.262 19.398 134.267 19.4547 134.245 19.534L131.253 28.476C130.969 29.2807 130.692 29.8813 130.42 30.278C130.148 30.6747 129.774 30.958 129.298 31.128C128.833 31.298 128.17 31.383 127.309 31.383H127.19ZM146.645 28C146.532 28 146.458 27.9433 146.424 27.83L145.863 26.011C145.841 25.9657 145.812 25.943 145.778 25.943H141.29C141.256 25.943 141.228 25.9657 141.205 26.011L140.644 27.83C140.61 27.9433 140.537 28 140.423 28H138.723C138.655 28 138.604 27.983 138.57 27.949C138.536 27.9037 138.531 27.8413 138.553 27.762L142.242 16.27C142.276 16.1567 142.35 16.1 142.463 16.1H144.588C144.702 16.1 144.775 16.1567 144.809 16.27L148.515 27.762C148.527 27.7847 148.532 27.813 148.532 27.847C148.532 27.949 148.47 28 148.345 28H146.645ZM141.732 24.294C141.721 24.362 141.744 24.396 141.8 24.396H145.251C145.319 24.396 145.342 24.362 145.319 24.294L143.568 18.599C143.557 18.5537 143.54 18.531 143.517 18.531C143.495 18.531 143.478 18.5537 143.466 18.599L141.732 24.294ZM155.238 19.517C155.238 19.4603 155.255 19.415 155.289 19.381C155.334 19.3357 155.385 19.313 155.442 19.313H156.989C157.045 19.313 157.091 19.3357 157.125 19.381C157.17 19.415 157.193 19.4603 157.193 19.517V27.796C157.193 27.8527 157.17 27.9037 157.125 27.949C157.091 27.983 157.045 28 156.989 28H155.442C155.385 28 155.334 27.983 155.289 27.949C155.255 27.9037 155.238 27.8527 155.238 27.796V27.252C155.238 27.218 155.226 27.1953 155.204 27.184C155.181 27.1727 155.158 27.184 155.136 27.218C154.671 27.8187 153.974 28.119 153.045 28.119C152.183 28.119 151.458 27.8697 150.869 27.371C150.291 26.8723 150.002 26.164 150.002 25.246V19.517C150.002 19.4603 150.019 19.415 150.053 19.381C150.098 19.3357 150.149 19.313 150.206 19.313H151.77C151.826 19.313 151.872 19.3357 151.906 19.381C151.951 19.415 151.974 19.4603 151.974 19.517V24.685C151.974 25.2177 152.11 25.6427 152.382 25.96C152.665 26.2773 153.056 26.436 153.555 26.436C154.065 26.436 154.473 26.2773 154.779 25.96C155.085 25.6427 155.238 25.2177 155.238 24.685V19.517ZM164.69 16.304C164.69 16.2473 164.707 16.202 164.741 16.168C164.786 16.1227 164.837 16.1 164.894 16.1H166.458C166.515 16.1 166.56 16.1227 166.594 16.168C166.639 16.202 166.662 16.2473 166.662 16.304V27.796C166.662 27.8527 166.639 27.9037 166.594 27.949C166.56 27.983 166.515 28 166.458 28H164.894C164.837 28 164.786 27.983 164.741 27.949C164.707 27.9037 164.69 27.8527 164.69 27.796V27.286C164.69 27.252 164.679 27.2293 164.656 27.218C164.633 27.2067 164.611 27.218 164.588 27.252C164.089 27.8413 163.438 28.136 162.633 28.136C161.828 28.136 161.148 27.9263 160.593 27.507C160.038 27.0877 159.635 26.504 159.386 25.756C159.182 25.1213 159.08 24.413 159.08 23.631C159.08 22.8263 159.176 22.135 159.369 21.557C159.618 20.809 160.021 20.2253 160.576 19.806C161.131 19.3867 161.828 19.177 162.667 19.177C163.449 19.177 164.089 19.4603 164.588 20.027C164.611 20.0497 164.633 20.061 164.656 20.061C164.679 20.0497 164.69 20.027 164.69 19.993V16.304ZM164.282 25.62C164.543 25.1553 164.673 24.498 164.673 23.648C164.673 22.764 164.531 22.0897 164.248 21.625C163.942 21.1263 163.511 20.877 162.956 20.877C162.378 20.877 161.925 21.115 161.596 21.591C161.256 22.0897 161.086 22.781 161.086 23.665C161.086 24.4583 161.222 25.11 161.494 25.62C161.811 26.164 162.293 26.436 162.939 26.436C163.517 26.436 163.965 26.164 164.282 25.62ZM169.919 18.123C169.568 18.123 169.279 18.0097 169.052 17.783C168.825 17.5563 168.712 17.2673 168.712 16.916C168.712 16.5647 168.825 16.2757 169.052 16.049C169.279 15.8223 169.568 15.709 169.919 15.709C170.27 15.709 170.559 15.8223 170.786 16.049C171.013 16.2757 171.126 16.5647 171.126 16.916C171.126 17.2673 171.013 17.5563 170.786 17.783C170.559 18.0097 170.27 18.123 169.919 18.123ZM169.103 28C169.046 28 168.995 27.983 168.95 27.949C168.916 27.9037 168.899 27.8527 168.899 27.796V19.5C168.899 19.4433 168.916 19.398 168.95 19.364C168.995 19.3187 169.046 19.296 169.103 19.296H170.667C170.724 19.296 170.769 19.3187 170.803 19.364C170.848 19.398 170.871 19.4433 170.871 19.5V27.796C170.871 27.8527 170.848 27.9037 170.803 27.949C170.769 27.983 170.724 28 170.667 28H169.103ZM177.737 20.707C177.737 20.7637 177.715 20.8147 177.669 20.86C177.635 20.894 177.59 20.911 177.533 20.911H175.799C175.743 20.911 175.714 20.9393 175.714 20.996V25.093C175.714 25.5237 175.805 25.8353 175.986 26.028C176.179 26.2207 176.479 26.317 176.887 26.317H177.397C177.454 26.317 177.499 26.3397 177.533 26.385C177.579 26.419 177.601 26.4643 177.601 26.521V27.796C177.601 27.9207 177.533 27.9943 177.397 28.017L176.513 28.034C175.618 28.034 174.949 27.881 174.507 27.575C174.065 27.269 173.839 26.691 173.827 25.841V20.996C173.827 20.9393 173.799 20.911 173.742 20.911H172.773C172.717 20.911 172.666 20.894 172.62 20.86C172.586 20.8147 172.569 20.7637 172.569 20.707V19.517C172.569 19.4603 172.586 19.415 172.62 19.381C172.666 19.3357 172.717 19.313 172.773 19.313H173.742C173.799 19.313 173.827 19.2847 173.827 19.228V17.239C173.827 17.1823 173.844 17.137 173.878 17.103C173.924 17.0577 173.975 17.035 174.031 17.035H175.51C175.567 17.035 175.612 17.0577 175.646 17.103C175.692 17.137 175.714 17.1823 175.714 17.239V19.228C175.714 19.2847 175.743 19.313 175.799 19.313H177.533C177.59 19.313 177.635 19.3357 177.669 19.381C177.715 19.415 177.737 19.4603 177.737 19.517V20.707Z" fill="#2B2B2B"/>
<defs>
<linearGradient id="paint0_linear_4044_4337" x1="211" y1="22" x2="0" y2="22" gradientUnits="userSpaceOnUse">
<stop stop-color="white"/>
<stop offset="1" stop-color="white" stop-opacity="0"/>
</linearGradient>
</defs>
</svg>
