<svg width="244" height="52" viewBox="0 0 244 52" fill="none" xmlns="http://www.w3.org/2000/svg">
<path fill-rule="evenodd" clip-rule="evenodd" d="M57.7682 0.845167C56.4442 1.09846 55.2484 2.19238 54.8734 3.49335C54.7607 3.88465 54.7503 5.1019 54.769 15.7947L54.7898 27.6618L54.9704 28.1089C55.3624 29.0793 56.1953 29.909 57.1627 30.2925C57.7977 30.5442 59.2017 30.5442 59.8368 30.2925C60.8041 29.909 61.6371 29.0793 62.0291 28.1089L62.2096 27.6618L62.2304 15.8337C62.2533 2.76722 62.2858 3.67487 61.7605 2.68482C61.2918 1.80147 60.2074 1.02941 59.1688 0.839699C58.6339 0.741992 58.3009 0.743319 57.7682 0.845167ZM0 22.7796V44.1026H3.86457H7.72907L7.75024 42.4851L7.77132 40.8676L8.29993 41.3468C9.73181 42.6446 11.2469 43.567 12.8815 44.136C15.5497 45.0647 18.7674 45.079 21.5566 44.1746C25.5468 42.8807 29.2366 39.2248 30.8126 35.0035C31.5559 33.0128 31.8217 31.3824 31.8248 28.7943C31.8272 26.7766 31.7618 26.069 31.4279 24.4986C30.5101 20.1834 27.791 16.4135 24.0863 14.3203C22.2046 13.2571 20.3043 12.7392 17.9639 12.6517C14.3085 12.5151 11.2486 13.6117 8.45512 16.0595L7.73305 16.6921L7.71314 9.09456L7.69322 1.49702L3.84661 1.47679L0 1.45648V22.7796ZM223.327 1.62113C218.976 1.93518 214.766 3.54178 211.114 6.2815C209.996 7.12049 207.983 9.12003 207.2 10.1697C205.367 12.6242 204.114 15.403 203.503 18.3674C202.835 21.6034 202.852 25.2579 203.551 28.6771C204.789 34.7345 208.883 40.0353 214.47 42.8156C217.52 44.333 220.42 45.0033 224.329 45.0944C230.777 45.2446 235.249 43.7495 240.13 39.8125C240.848 39.2335 242.521 37.7507 242.855 37.3974L243.081 37.1585L242.821 36.862C242.401 36.3823 237.805 31.606 237.764 31.606C237.744 31.606 237.394 31.9135 236.987 32.2894C233.573 35.4405 230.913 36.87 227.594 37.337C224.299 37.8007 221.169 37.3396 218.417 35.9849C213.625 33.6258 210.88 28.9883 210.88 23.2489C210.88 20.081 211.679 17.4518 213.378 15.0282C214.036 14.0899 215.778 12.35 216.738 11.6721C219.159 9.96277 221.923 9.11214 225.056 9.11214C229.498 9.11214 233.331 10.7859 237.095 14.3698L237.809 15.0494L240.531 12.4601C242.029 11.0359 243.265 9.84249 243.279 9.80804C243.319 9.70526 241.126 7.55248 240.325 6.90922C238.093 5.1158 234.955 3.48461 232.041 2.60289C229.144 1.72626 226.304 1.40634 223.327 1.62113ZM146.523 7.66722V13.3297H144.57H142.617V16.6882V20.0467H144.57H146.523V32.0746V44.1026H150.389H154.255V32.0746V20.0467H156.56H158.865L158.844 16.7077L158.824 13.3688L156.539 13.3481L154.255 13.3274V7.66605V2.0047H150.389H146.523V7.66722ZM161.476 2.6881C161.536 2.84244 175.847 43.2554 176.024 43.7707L176.139 44.1026H179.948H183.757L184.076 43.224C186.075 37.7189 198.696 2.6635 198.696 2.61562C198.696 2.58032 196.89 2.55142 194.682 2.55142C190.932 2.55142 190.664 2.5604 190.614 2.6881C190.584 2.76324 188.205 9.34403 185.327 17.312C182.449 25.28 180.067 31.8474 180.034 31.9062C179.993 31.981 179.94 31.9228 179.858 31.7119C179.795 31.5463 177.443 24.9177 174.633 16.9816L169.524 2.55251L165.474 2.55197C161.649 2.55142 161.427 2.559 161.476 2.6881ZM68.994 7.58638C67.5515 7.85029 66.3211 8.97897 65.8893 10.4346C65.7474 10.9124 65.7256 11.939 65.8462 12.4619C66.0757 13.4575 66.5835 14.1291 67.8136 15.0643C71.8969 18.1686 74.2011 22.7145 74.1979 27.6598C74.1929 35.7169 68.1787 42.4446 60.2015 43.3167C51.7215 44.2439 44.0276 38.1847 42.9211 29.708C42.1913 24.1161 44.5505 18.5895 49.1668 15.0773C50.181 14.3056 50.4993 13.9622 50.8421 13.2702C51.1669 12.6142 51.2589 12.2032 51.2565 11.4162C51.253 10.2461 50.8776 9.36972 50.0524 8.60579C49.2657 7.87747 48.4217 7.55006 47.3309 7.55006C46.2445 7.55006 45.5397 7.83061 44.3239 8.747C39.2672 12.5584 36.0311 18.017 35.0567 24.379C34.8548 25.6973 34.7788 28.406 34.9051 29.782C35.3437 34.558 37.0446 38.8232 39.9972 42.5505C40.7271 43.472 42.6305 45.4025 43.5047 46.1081C47.2491 49.1301 51.5795 50.8984 56.3797 51.3657C58.1839 51.5412 60.9765 51.4205 62.778 51.0889C66.6295 50.3801 70.2409 48.7384 73.3494 46.2834C74.3467 45.4958 76.2326 43.6152 77.0244 42.6187C80.0116 38.8595 81.7318 34.5699 82.1723 29.782C82.2988 28.4063 82.2229 25.6981 82.0208 24.379C81.0381 17.9628 77.8144 12.5496 72.6755 8.68671C72.2889 8.39608 71.8145 8.07906 71.6211 7.98213C70.7691 7.55506 69.8896 7.4226 68.994 7.58638ZM100.285 12.5949C96.5698 12.8947 93.7882 13.9996 91.085 16.2495C86.9445 19.6957 84.9656 24.0882 85.1576 29.407C85.2046 30.7092 85.3187 31.6359 85.5584 32.6604C86.2819 35.754 87.9562 38.5387 90.4456 40.7892C93.3751 43.4375 96.6006 44.7307 100.598 44.8597C104.017 44.97 107.154 44.1347 110.043 42.3451C114.245 39.7421 117.005 35.0296 117.393 29.7955C117.653 26.2942 116.726 22.8008 114.736 19.7808C113.153 17.3793 111.074 15.5957 108.315 14.2714C106.566 13.4321 105.133 12.9858 103.443 12.7541C102.544 12.6309 100.88 12.547 100.285 12.5949ZM128.246 12.6777C126.491 12.9438 125.562 13.2138 124.483 13.771C122.447 14.8227 120.762 16.6875 120.077 18.6483C119.38 20.6407 119.472 22.8622 120.327 24.7238C120.71 25.5575 121.369 26.5104 122.092 27.2735C123.444 28.7016 124.891 29.6737 128.043 31.2696C129.293 31.9029 130.615 32.6207 130.98 32.8648C131.78 33.3994 132.563 34.1947 132.795 34.7066C133.204 35.6095 132.917 36.5517 132.025 37.2331C131.335 37.7597 130.843 37.894 129.613 37.8906C128.673 37.888 128.543 37.8689 127.856 37.632C126.375 37.1214 124.835 36.1522 123.758 35.0519C123.458 34.746 123.192 34.4959 123.167 34.4959C123.099 34.4959 118.839 39.4893 118.813 39.5985C118.786 39.7167 119.857 40.9441 120.557 41.5973C121.779 42.7365 123.353 43.6977 124.772 44.1713C127.907 45.2179 132.087 45.0269 134.846 43.711C135.794 43.259 136.614 42.6887 137.384 41.9464C139.139 40.2548 139.98 38.5311 140.199 36.1778C140.479 33.1762 139.368 30.323 137.213 28.5055C135.742 27.2653 134.755 26.6649 131.488 25.0221C128.051 23.2944 127.415 22.8908 127.068 22.2172C126.891 21.8734 126.871 21.2455 127.026 20.8838C127.181 20.5233 127.59 20.1657 128.127 19.9201C128.736 19.6419 129.893 19.5706 130.668 19.7638C131.769 20.0382 133.202 20.9013 134.347 21.9797C134.632 22.2483 134.896 22.4675 134.934 22.4669C134.971 22.4664 136.052 21.3937 137.334 20.0831L139.665 17.7003L139.526 17.4871C139.264 17.0875 137.816 15.6547 137.191 15.1772C135.446 13.8445 133.312 12.9738 131.138 12.7078C130.516 12.6316 128.676 12.6125 128.246 12.6777ZM14.5935 19.7373C13.2745 19.8912 11.8394 20.453 10.8538 21.201C10.1168 21.7604 9.08073 22.8971 8.6389 23.6309C8.162 24.423 7.79397 25.3929 7.56802 26.4532C7.33722 27.5363 7.3159 29.6441 7.52522 30.698C7.93034 32.7382 8.6892 34.1956 10.0174 35.4845C11.656 37.0746 13.4198 37.7762 15.7786 37.7762C18.534 37.7762 20.8314 36.5847 22.4434 34.3193C23.5795 32.7229 24.0872 30.9803 24.0872 28.6771C24.0872 26.3214 23.5706 24.5724 22.4141 23.0124C21.9369 22.3687 20.886 21.3549 20.2829 20.9567C18.7148 19.9211 16.7066 19.4906 14.5935 19.7373ZM99.8557 19.9465C99.3718 20.0138 98.4263 20.2834 97.8706 20.5126C96.1121 21.2377 94.3351 23.07 93.5722 24.9449C92.5583 27.4362 92.6799 30.9343 93.8621 33.2853C94.3466 34.2486 95.3029 35.383 96.2439 36.1107C97.2228 36.8677 98.584 37.4331 99.8861 37.6235C100.909 37.773 102.648 37.6811 103.566 37.429C105.964 36.7705 107.982 34.9461 108.953 32.5597C109.512 31.1874 109.747 29.4353 109.592 27.7995C109.431 26.093 109.017 24.8195 108.234 23.6278C106.925 21.634 105.089 20.3934 102.872 20.0051C102.266 19.899 100.45 19.8637 99.8557 19.9465Z" fill="white"/>
<path fill-rule="evenodd" clip-rule="evenodd" d="M57.7661 0.83296C56.4421 1.08625 55.2463 2.18017 54.8713 3.48115C54.7585 3.87245 54.7482 5.08969 54.7669 15.7825L54.7877 27.6496L54.9683 28.0967C55.3603 29.0671 56.1932 29.8968 57.1605 30.2803C57.7956 30.532 59.1996 30.532 59.8347 30.2803C60.802 29.8968 61.635 29.0671 62.027 28.0967L62.2075 27.6496L62.2283 15.8215C62.2512 2.75502 62.2837 3.66266 61.7584 2.67262C61.2897 1.78926 60.2053 1.01721 59.1666 0.827492C58.6318 0.729785 58.2988 0.731112 57.7661 0.83296ZM223.325 1.60892C218.974 1.92298 214.764 3.52957 211.112 6.26929C209.994 7.10828 207.981 9.10782 207.197 10.1575C205.365 12.612 204.112 15.3908 203.501 18.3552C202.833 21.5912 202.85 25.2457 203.549 28.6649C204.787 34.7223 208.881 40.0231 214.468 42.8033C217.518 44.3207 220.418 44.9911 224.327 45.0822C230.775 45.2324 235.247 43.7373 240.128 39.8003C240.846 39.2213 242.519 37.7385 242.853 37.3852L243.079 37.1463L242.819 36.8498C242.399 36.3701 237.803 31.5938 237.762 31.5938C237.742 31.5938 237.392 31.9013 236.984 32.2772C233.571 35.4283 230.911 36.8578 227.592 37.3248C224.297 37.7885 221.167 37.3274 218.415 35.9727C213.622 33.6136 210.878 28.9761 210.878 23.2367C210.878 20.0688 211.677 17.4396 213.376 15.016C214.034 14.0777 215.776 12.3378 216.736 11.6599C219.157 9.95056 221.921 9.09993 225.054 9.09993C229.496 9.09993 233.329 10.7737 237.093 14.3576L237.807 15.0372L240.529 12.4478C242.027 11.0237 243.263 9.83028 243.277 9.79584C243.317 9.69305 241.124 7.54028 240.323 6.89701C238.091 5.1036 234.953 3.4724 232.039 2.59068C229.141 1.71405 226.302 1.39414 223.325 1.60892ZM161.474 2.6759C161.534 2.83023 175.844 43.2432 176.022 43.7585L176.137 44.0904H179.946H183.755L184.074 43.2118C186.073 37.7067 198.694 2.65129 198.694 2.60342C198.694 2.56811 196.888 2.53921 194.68 2.53921C190.93 2.53921 190.662 2.5482 190.612 2.6759C190.582 2.75103 188.203 9.33182 185.325 17.2998C182.447 25.2678 180.065 31.8352 180.032 31.894C179.991 31.9688 179.938 31.9106 179.856 31.6997C179.792 31.5341 177.441 24.9055 174.631 16.9694L169.522 2.54031L165.472 2.53976C161.646 2.53921 161.425 2.54679 161.474 2.6759ZM68.9919 7.57417C67.5494 7.83809 66.319 8.96676 65.8872 10.4224C65.7453 10.9002 65.7235 11.9268 65.8441 12.4496C66.0736 13.4453 66.5813 14.1168 67.8115 15.0521C71.8947 18.1564 74.199 22.7022 74.1958 27.6475C74.1908 35.7047 68.1766 42.4324 60.1994 43.3045C51.7194 44.2317 44.0254 38.1725 42.919 29.6958C42.1891 24.1039 44.5483 18.5773 49.1647 15.0651C50.1789 14.2934 50.4972 13.95 50.84 13.258C51.1648 12.6019 51.2568 12.191 51.2544 11.404C51.2509 10.2339 50.8755 9.35752 50.0503 8.59358C49.2636 7.86527 48.4196 7.53786 47.3288 7.53786C46.2424 7.53786 45.5376 7.8184 44.3218 8.7348C39.2651 12.5462 36.029 18.0048 35.0546 24.3668C34.8527 25.6851 34.7767 28.3938 34.903 29.7698C35.3416 34.5457 37.0425 38.811 39.9951 42.5383C40.725 43.4598 42.6284 45.3903 43.5026 46.0959C47.247 49.1179 51.5774 50.8862 56.3776 51.3534C58.1818 51.529 60.9744 51.4083 62.7759 51.0767C66.6273 50.3679 70.2388 48.7262 73.3473 46.2712C74.3446 45.4836 76.2305 43.603 77.0223 42.6064C80.0095 38.8473 81.7297 34.5577 82.1702 29.7698C82.2967 28.3941 82.2208 25.6859 82.0187 24.3668C81.036 17.9506 77.8123 12.5374 72.6734 8.6745C72.2868 8.38388 71.8123 8.06685 71.619 7.96993C70.767 7.54285 69.8875 7.41039 68.9919 7.57417Z" fill="#FC9C26"/>
</svg>
