<svg width="155" height="120" viewBox="0 0 155 120" fill="none" xmlns="http://www.w3.org/2000/svg">
<path d="M5.46506 36.8539C5.46506 31.43 5.46506 28.7181 6.53735 26.6538C7.44095 24.9143 8.85929 23.496 10.5988 22.5924C12.6631 21.5201 15.375 21.5201 20.7989 21.5201H111.224C116.648 21.5201 119.36 21.5201 121.424 22.5924C123.163 23.496 124.582 24.9143 125.485 26.6538C126.558 28.7181 126.558 31.43 126.558 36.8539V99.0737H5.46506V36.8539Z" fill="url(#paint0_linear_1756_451)"/>
<rect x="14.9891" y="31.046" width="100.684" height="58.5054" fill="url(#paint1_linear_1756_451)"/>
<path d="M0.022644 99.0729H132C132 101.6 132 102.864 131.871 103.926C130.89 112.005 124.523 118.372 116.444 119.353C115.382 119.482 114.118 119.482 111.591 119.482H20.4315C17.9041 119.482 16.6404 119.482 15.5783 119.353C7.49946 118.372 1.13256 112.005 0.151607 103.926C0.022644 102.864 0.022644 101.6 0.022644 99.0729Z" fill="url(#paint2_linear_1756_451)"/>
<path opacity="0.6" d="M43.5617 99.0729H87.1006C87.1006 104.333 82.8365 108.597 77.5764 108.597H53.0858C47.8258 108.597 43.5617 104.333 43.5617 99.0729Z" fill="#3D3D3D"/>
<rect x="9.54666" y="104.517" width="6.80295" height="9.52413" rx="3.40148" fill="#3783F4"/>
<rect x="20.4315" y="104.517" width="6.80295" height="9.52413" rx="3.40148" fill="#3783F4"/>
<rect x="106.149" y="104.517" width="6.80295" height="9.52413" rx="3.40148" fill="#3783F4"/>
<rect x="117.033" y="104.517" width="6.80295" height="9.52413" rx="3.40148" fill="#3783F4"/>
<g filter="url(#filter0_b_1756_451)">
<path d="M101.925 8.43585C104.444 4.62457 105.703 2.71893 107.5 2.71893C109.297 2.71893 110.556 4.62457 113.075 8.43585L141.786 51.8844C144.803 56.4501 146.312 58.733 145.366 60.4915C144.421 62.25 141.684 62.25 136.212 62.25H78.7881C73.3155 62.25 70.5792 62.25 69.6335 60.4915C68.6878 58.733 70.1964 56.4501 73.2135 51.8844L101.925 8.43585Z" fill="#B9DDFF" fill-opacity="0.6"/>
<path d="M103.177 9.26283C104.463 7.31584 105.338 6 106.1 5.14946C106.843 4.32037 107.232 4.21893 107.5 4.21893C107.767 4.21893 108.156 4.32037 108.9 5.14946C109.662 6 110.536 7.31584 111.823 9.26283L140.535 52.7113C142.071 55.0367 143.126 56.639 143.703 57.8757C144.28 59.1099 144.172 59.5445 144.045 59.781C143.918 60.0175 143.615 60.347 142.267 60.5463C140.917 60.746 138.999 60.75 136.212 60.75H78.7881C76.0009 60.75 74.083 60.746 72.7327 60.5463C71.385 60.347 71.0818 60.0175 70.9546 59.781C70.8274 59.5445 70.7197 59.1099 71.2964 57.8757C71.8743 56.639 72.9283 55.0367 74.465 52.7113L103.177 9.26283Z" stroke="url(#paint3_linear_1756_451)" stroke-width="3"/>
</g>
<path fill-rule="evenodd" clip-rule="evenodd" d="M116.218 40.4065V44.1012C116.218 48.4596 112.916 52.0469 108.678 52.4984V44.1012C108.678 43.6015 108.273 43.1964 107.773 43.1964C107.273 43.1964 106.868 43.6015 106.868 44.1012V52.4984C102.629 52.0469 99.3277 48.4596 99.3277 44.1012V40.4065C99.3277 38.395 100.578 36.6754 102.344 35.9827C102.881 35.7719 103.466 35.6561 104.078 35.6561H111.468C112.08 35.6561 112.665 35.7719 113.202 35.9827C114.968 36.6754 116.218 38.395 116.218 40.4065Z" fill="#506B88"/>
<path d="M116.218 43.7996V41.9899H119.837C120.337 41.9899 120.742 42.3951 120.742 42.8948C120.742 43.3945 120.337 43.7996 119.837 43.7996H116.218Z" fill="#506B88"/>
<path d="M114.405 49.3282C114.779 48.8536 115.105 48.3377 115.372 47.7887L118.434 49.3199C118.881 49.5433 119.062 50.0868 118.839 50.5338C118.615 50.9808 118.071 51.1619 117.625 50.9385L114.405 49.3282Z" fill="#506B88"/>
<path d="M100.176 47.7887C100.443 48.3377 100.768 48.8536 101.143 49.3282L97.923 50.9385C97.476 51.1619 96.9325 50.9808 96.709 50.5338C96.4855 50.0868 96.6666 49.5433 97.1136 49.3199L100.176 47.7887Z" fill="#506B88"/>
<path d="M99.3277 41.9899H95.7084C95.2087 41.9899 94.8036 42.3951 94.8036 42.8948C94.8036 43.3945 95.2087 43.7996 95.7084 43.7996H99.3277V41.9899Z" fill="#506B88"/>
<path d="M114.231 36.543L117.622 34.8471C118.069 34.6236 118.613 34.8047 118.836 35.2517C119.06 35.6986 118.879 36.2422 118.432 36.4657L115.517 37.9232C115.184 37.3818 114.746 36.9122 114.231 36.543Z" fill="#506B88"/>
<path d="M101.314 36.543C100.799 36.9122 100.361 37.3818 100.028 37.9232L97.1136 36.4657C96.6666 36.2422 96.4855 35.6986 96.709 35.2517C96.9325 34.8047 97.476 34.6236 97.923 34.8471L101.314 36.543Z" fill="#506B88"/>
<path d="M113.202 35.9812V35.0515C113.202 32.0531 110.771 29.6225 107.773 29.6225C104.775 29.6225 102.344 32.0531 102.344 35.0515V35.9812C102.881 35.7704 103.466 35.6547 104.078 35.6547H111.468C112.08 35.6547 112.665 35.7704 113.202 35.9812Z" fill="#506B88"/>
<path d="M100.986 27.9152C100.709 28.331 100.821 28.8928 101.237 29.17L104.084 31.0678C104.568 30.6193 105.135 30.2581 105.758 30.009L102.241 27.6643C101.825 27.3871 101.263 27.4994 100.986 27.9152Z" fill="#506B88"/>
<path d="M111.459 31.0679C110.974 30.6194 110.408 30.2581 109.784 30.0091L113.302 27.6643C113.717 27.3871 114.279 27.4994 114.556 27.9152C114.834 28.331 114.721 28.8928 114.305 29.17L111.459 31.0679Z" fill="#506B88"/>
<path fill-rule="evenodd" clip-rule="evenodd" d="M107.773 43.1949C108.273 43.1949 108.678 43.6001 108.678 44.0998V52.5449H106.868V44.0998C106.868 43.6001 107.273 43.1949 107.773 43.1949Z" fill="#506B88"/>
<defs>
<filter id="filter0_b_1756_451" x="56.2387" y="-10.3954" width="102.522" height="85.7598" filterUnits="userSpaceOnUse" color-interpolation-filters="sRGB">
<feFlood flood-opacity="0" result="BackgroundImageFix"/>
<feGaussianBlur in="BackgroundImageFix" stdDeviation="6.55719"/>
<feComposite in2="SourceAlpha" operator="in" result="effect1_backgroundBlur_1756_451"/>
<feBlend mode="normal" in="SourceGraphic" in2="effect1_backgroundBlur_1756_451" result="shape"/>
</filter>
<linearGradient id="paint0_linear_1756_451" x1="40.3956" y1="38.4849" x2="121.044" y2="81.7895" gradientUnits="userSpaceOnUse">
<stop stop-color="#7FC0FB"/>
<stop offset="1" stop-color="#4088F4"/>
</linearGradient>
<linearGradient id="paint1_linear_1756_451" x1="-13.4167" y1="27.7434" x2="107.091" y2="84.4716" gradientUnits="userSpaceOnUse">
<stop stop-color="#4088F4"/>
<stop offset="1" stop-color="#7FC0FB"/>
</linearGradient>
<linearGradient id="paint2_linear_1756_451" x1="38.093" y1="103.537" x2="57.1397" y2="145.894" gradientUnits="userSpaceOnUse">
<stop stop-color="#7FC0FB"/>
<stop offset="1" stop-color="#4088F4"/>
</linearGradient>
<linearGradient id="paint3_linear_1756_451" x1="55.2499" y1="5.92857" x2="111.679" y2="104.571" gradientUnits="userSpaceOnUse">
<stop stop-color="white"/>
<stop offset="0.765625" stop-color="white" stop-opacity="0"/>
</linearGradient>
</defs>
</svg>
