<svg width="47" height="47" viewBox="0 0 47 47" fill="none" xmlns="http://www.w3.org/2000/svg">
<g clip-path="url(#clip0_4753_3379)">
<path d="M23.5003 44.8444C35.2883 44.8444 44.8444 35.2883 44.8444 23.5003C44.8444 11.7123 35.2883 2.15625 23.5003 2.15625C11.7123 2.15625 2.15625 11.7123 2.15625 23.5003C2.15625 35.2883 11.7123 44.8444 23.5003 44.8444Z" fill="white"/>
<path d="M7.25771 7.25771C11.4143 3.10111 17.1568 0.530407 23.4996 0.530407C29.8424 0.530407 35.5849 3.10111 39.7415 7.25771C43.8981 11.4143 46.4688 17.1568 46.4688 23.4996C46.4688 29.8425 43.8981 35.5849 39.7415 39.7415C35.5849 43.8981 29.8424 46.4688 23.4996 46.4688C17.1568 46.4688 11.4143 43.8981 7.25771 39.7415C3.10111 35.5849 0.530402 29.8425 0.530402 23.4996C0.530402 17.1568 3.10111 11.4143 7.25771 7.25771ZM23.4996 0C17.0102 0 11.1354 2.63074 6.88308 6.88309C2.63074 11.1355 0 17.0109 0 23.5004C0 29.9898 2.62998 35.8645 6.88308 40.1169C11.1354 44.3693 17.0109 47 23.4996 47C29.9883 47 35.8638 44.3693 40.1169 40.1169C44.3692 35.8645 47 29.989 47 23.5004C47 17.0117 44.3692 11.1362 40.1169 6.88309C35.8645 2.63074 29.9891 0 23.4996 0Z" fill="white"/>
<path d="M16.561 43.2399L25.6406 31.695L36.2099 33.7352L39.6009 31.3834L35.5457 26.6944V23.5896L35.4806 23.4226L31.3813 18.8319L31.244 18.7516L14.8482 15.4727L14.7238 15.4798L2.74609 19.2257L2.89569 19.7064L14.812 15.9793L31.0641 19.2301L35.0412 23.6842V26.7869L35.1033 26.9517L38.855 31.2895L36.0985 33.2012L25.4347 31.1428L16.165 42.9291L16.561 43.2399Z" fill="#1F211F"/>
<path d="M30.9703 24.9858C31.1062 24.85 31.2941 24.7662 31.5015 24.7662C31.709 24.7662 31.8969 24.85 32.0327 24.9858C32.1686 25.1217 32.2524 25.3096 32.2524 25.517C32.2524 25.7245 32.1686 25.9124 32.0327 26.0482C31.8969 26.1841 31.709 26.2679 31.5015 26.2679C31.2941 26.2679 31.1062 26.1841 30.9703 26.0482C30.8345 25.9124 30.7506 25.7245 30.7506 25.517C30.7506 25.3096 30.8352 25.1217 30.9703 24.9858ZM31.5015 24.2617C31.1553 24.2617 30.8409 24.4018 30.614 24.6296C30.3871 24.8565 30.2461 25.1709 30.2461 25.517C30.2461 25.8632 30.3863 26.1777 30.614 26.4045C30.8409 26.6315 31.1553 26.7724 31.5015 26.7724C31.8477 26.7724 32.1621 26.6322 32.389 26.4045C32.616 26.1777 32.7569 25.8632 32.7569 25.517C32.7569 25.1709 32.6167 24.8565 32.389 24.6296C32.1613 24.4026 31.8477 24.2617 31.5015 24.2617Z" fill="#1F211F"/>
<path d="M6.15249 34.82L25.969 31.6032L15.0066 15.5781L14.5911 15.8614L25.1067 31.2338L6.07227 34.3235L6.15249 34.82Z" fill="#1F211F"/>
<path d="M30.585 25.0356L19.4513 22.3478L6.58754 33.8095L10.2127 20.9479L14.9813 15.8916L14.6148 15.5469L9.8037 20.6479L9.74513 20.7527L5.86914 34.5026L6.27893 34.7584L19.5909 22.8985L30.4671 25.5242L30.585 25.0356Z" fill="#1F211F"/>
<path d="M32.5094 25.2836L35.4068 23.8121L35.1799 23.3633L32.2832 24.8348L32.5094 25.2836Z" fill="#1F211F"/>
<path d="M30.7621 24.7924L14.9243 15.5039L14.6699 15.9368L30.5077 25.2254L30.7621 24.7924ZM36.3691 33.3416L32.2235 26.2553L31.7907 26.5096L35.9361 33.596L36.3691 33.3416Z" fill="#1F211F"/>
<path d="M31.4477 18.9844L31.7078 24.4991L31.2054 24.5228L30.9453 19.0081L31.4477 18.9844Z" fill="#1F211F"/>
<path d="M32.5327 25.5977L35.3724 26.5494L35.2128 27.0257L32.373 26.0739L32.5327 25.5977Z" fill="#1F211F"/>
<path d="M34.6696 32.9477L19.665 22.4176L19.5667 22.3764L2.86594 19.2188L2.77344 19.7131L19.42 22.8606L34.3805 33.359L34.6696 32.9477Z" fill="#1F211F"/>
<path d="M16.6079 43.1321L18.7609 32.5015L10.1908 20.6719L9.7832 20.9675L18.2247 32.6193L16.1158 43.0338L16.6079 43.1321Z" fill="#1F211F"/>
<path d="M12.6485 33.4785L14.9679 42.2637L14.4816 42.3921L12.1621 33.607L12.6485 33.4785Z" fill="#1F211F"/>
<path d="M8.2334 27.5257L2.7956 21.668L2.42773 22.0106L7.86554 27.8682L8.2334 27.5257Z" fill="#1F211F"/>
<path d="M26.4411 14.1542L23.5957 20.9183L23.9224 21.2478L29.8864 18.7804L26.6261 13.7148L26.4411 14.1542ZM24.2953 20.5496L26.7193 14.7888L29.1376 18.5462L24.2953 20.5496Z" fill="#1F211F"/>
</g>
<defs>
<clipPath id="clip0_4753_3379">
<rect width="47" height="47" fill="white"/>
</clipPath>
</defs>
</svg>
