<svg width="113" height="57" viewBox="0 0 113 57" fill="none" xmlns="http://www.w3.org/2000/svg">
<path fill-rule="evenodd" clip-rule="evenodd" d="M56.1289 5.49595C56.1289 10.276 55.995 10.758 54.8049 10.2551C51.2276 8.74181 49.3799 8.9828 47.0738 11.264C41.1616 17.1128 47.4089 26.444 54.6656 22.6031C55.6742 22.0688 56.1289 22.0688 56.1289 22.6031C56.1289 23.029 57.1504 23.3777 58.3988 23.3777H60.6686V11.7774V0.177002H58.3988H56.1289V5.49595ZM63.6951 11.7774V23.3777H65.9649H68.2348V11.7774V0.177002H65.9649H63.6951V11.7774ZM38.3704 1.93951C36.8194 3.06137 37.0607 5.29837 38.8524 6.415C39.7664 6.98379 40.4428 6.92916 41.3114 6.21667C44.0602 3.95947 41.2425 -0.138079 38.3704 1.93951ZM1.65263 12.5258V23.3777H6.91338C9.80668 23.3777 13.0185 22.9975 14.0498 22.532C18.0069 20.7486 18.4699 14.3362 14.7739 12.513C13.3484 11.8103 13.2848 11.5588 14.2185 10.2963C15.7317 8.2501 15.5153 4.90845 13.7585 3.17064C12.5335 1.95897 11.2367 1.67382 6.94894 1.67382H1.65263V12.5258ZM6.94894 7.6611C6.94894 10.1174 8.39937 10.6615 9.96708 8.79345C11.2185 7.30262 10.3908 5.41587 8.48563 5.41587C7.28261 5.41587 6.94894 5.90309 6.94894 7.6611ZM75.0443 10.0732C74.004 10.6053 72.555 12.2466 71.8249 13.7195C69.291 18.8334 72.6965 23.3777 79.0619 23.3777C81.418 23.3777 82.7731 22.9436 83.7499 21.8764C85.5809 19.8744 84.7381 19.2615 80.1515 19.2615C77.7689 19.2615 76.2027 18.909 75.9999 18.326C75.7616 17.6397 77.0017 17.3904 80.6561 17.3904C85.4342 17.3904 85.6369 17.3163 85.6369 15.5613C85.6369 11.1906 79.2897 7.90209 75.0443 10.0732ZM94.1284 10.3232C93.1857 10.9758 92.4465 11.1405 92.4465 10.6974C92.4465 10.2626 91.425 9.90633 90.1766 9.90633H87.9068V16.642V23.3777H90.1766C92.4132 23.3777 92.4465 23.3193 92.4465 19.4111C92.4465 14.9761 93.3249 13.6484 96.259 13.6484C98.6931 13.6484 100.741 10.3427 98.7703 9.595C96.9619 8.9087 95.9375 9.06886 94.1284 10.3232ZM103.616 9.91981C99.9854 12.1254 100.454 15.6683 104.662 17.8208C106.23 18.6223 106.746 19.2622 106.234 19.7689C105.722 20.2748 104.928 20.2351 103.815 19.6461C102.437 18.9164 101.984 18.9988 101.12 20.1379C100.227 21.3151 100.256 21.6377 101.327 22.4422C103.332 23.9488 108.852 23.615 110.605 21.8809C111.438 21.0576 112.118 20.0248 112.118 19.5863C112.118 17.7616 110.311 15.6901 107.707 14.5308L104.931 13.2951L107.703 13.0564C110.154 12.8453 112.102 11.1375 111.064 10.1107C110.275 9.32931 104.817 9.19011 103.616 9.91981ZM19.2924 15.3323C19.8621 22.0949 21.1037 23.3777 27.0832 23.3777C32.953 23.3777 34.1871 21.9475 34.1871 15.1452V9.90633H31.9536C29.742 9.90633 29.717 9.95274 29.4946 14.5839C29.2706 19.233 29.2555 19.2615 26.9992 19.2615C24.743 19.2615 24.7279 19.233 24.5039 14.5839L24.2792 9.90633H21.5569H18.8354L19.2924 15.3323ZM37.2136 16.642V23.3777H39.4834H41.7532V16.642V9.90633H39.4834H37.2136V16.642ZM76.5575 13.2742C75.7487 14.2381 76.0166 14.3968 78.4491 14.3968C80.8816 14.3968 81.1494 14.2381 80.3406 13.2742C79.8223 12.6567 78.9711 12.1516 78.4491 12.1516C77.927 12.1516 77.0758 12.6567 76.5575 13.2742ZM50.1063 14.7351C48.1709 17.0417 51.1179 20.3422 54.102 19.2091C57.1655 18.0468 56.076 13.6484 52.7242 13.6484C51.786 13.6484 50.6079 14.1371 50.1063 14.7351ZM6.94894 16.9668C6.94894 19.944 8.47882 20.5225 11.155 18.5572C13.0707 17.1494 11.8246 14.8735 8.95322 14.5345C7.1154 14.3167 6.94894 14.5188 6.94894 16.9668ZM37.3823 44.8945L37.5919 55.9336L40.6183 55.9725C42.2829 55.9942 44.4362 56.2771 45.4032 56.6019C47.897 57.4394 51.4356 55.7786 52.8271 53.118C54.3252 50.2509 53.6631 46.6121 51.2314 44.3519C49.6924 42.9225 48.8079 42.6987 45.9464 43.0175L42.5099 43.4007V38.6281V33.8555H39.8413H37.1734L37.3823 44.8945ZM0.139404 36.8491C0.139404 38.9162 0.349743 39.0943 2.78756 39.0943H5.43571V47.701V56.3078H8.08386H10.732V47.701V39.0943H13.3802C15.818 39.0943 16.0283 38.9162 16.0283 36.8491V34.6039H8.08386H0.139404V36.8491ZM29.5944 35.7894C28.2673 37.3707 29.5914 39.4685 31.9172 39.4685C34.2431 39.4685 35.5672 37.3707 34.2401 35.7894C33.693 35.1375 32.6474 34.6039 31.9172 34.6039C31.1871 34.6039 30.1415 35.1375 29.5944 35.7894ZM80.1598 47.9046L74.3043 56.682L83.7976 56.8915C89.019 57.0068 97.3667 57.0068 102.348 56.8915L111.404 56.682L107.611 50.7441C105.526 47.478 103.505 44.4949 103.121 44.1147C102.694 43.6926 101.253 45.2425 99.4172 48.1L96.4111 52.776L91.761 45.9348C89.2036 42.1725 86.8649 39.1018 86.563 39.1108C86.2619 39.1198 83.3799 43.0766 80.1598 47.9046ZM16.0283 49.5721V56.3078H18.2982C20.5052 56.3078 20.568 56.209 20.568 52.7087C20.568 48.4135 21.6704 46.7528 24.7294 46.4377C26.4174 46.2641 27.0613 45.7724 27.2414 44.5203C27.4396 43.1395 27.1241 42.8364 25.489 42.8364C24.392 42.8364 22.8363 43.1851 22.0313 43.611C21.0227 44.1454 20.568 44.1454 20.568 43.611C20.568 43.1851 19.5466 42.8364 18.2982 42.8364H16.0283V49.5721ZM29.6474 49.5721V56.3078H31.9172H34.1871V49.5721V42.8364H31.9172H29.6474V49.5721ZM58.1385 43.6843C57.3713 44.1251 56.2606 45.6302 55.6697 47.029C54.1163 50.7052 55.7763 54.427 59.6956 56.0548C62.194 57.0921 62.946 57.1123 65.5783 56.215C68.7447 55.135 69.9266 53.0806 67.8391 52.2881C67.1642 52.0321 65.9127 52.193 65.0577 52.6451C63.9395 53.2378 63.0005 53.2415 61.7082 52.6585C58.5206 51.2223 59.7244 50.3205 64.83 50.3205C69.5952 50.3205 69.748 50.2614 69.748 48.4158C69.748 45.3383 66.6065 42.8326 62.7834 42.8588C60.9962 42.8716 58.9057 43.2428 58.1385 43.6843ZM60.2903 46.5784C60.0111 47.0245 60.9281 47.3268 62.5602 47.3268C64.1922 47.3268 65.1092 47.0245 64.83 46.5784C64.5728 46.1668 63.5513 45.83 62.5602 45.83C61.569 45.83 60.5476 46.1668 60.2903 46.5784ZM43.3951 47.2168C42.8254 47.5828 42.497 48.8027 42.6385 50.0279C42.8496 51.8577 43.2256 52.1915 45.0755 52.1915C47.7729 52.1915 49.3201 50.1828 48.1035 48.2624C47.1562 46.7685 44.8796 46.2626 43.3951 47.2168Z" fill="#8A94A6"/>
</svg>
