<svg width="186" height="52" viewBox="0 0 186 52" fill="none" xmlns="http://www.w3.org/2000/svg">
<g clip-path="url(#clip0_1778_1415)">
<path d="M25.9995 49.6142C39.0416 49.6142 49.6143 39.0415 49.6143 25.9995C49.6143 12.9574 39.0416 2.38477 25.9995 2.38477C12.9575 2.38477 2.38483 12.9574 2.38483 25.9995C2.38483 39.0415 12.9575 49.6142 25.9995 49.6142Z" fill="white"/>
<path d="M8.02981 8.02981C12.6286 3.43101 18.982 0.586833 25.9995 0.586833C33.0172 0.586833 39.3706 3.43101 43.9693 8.02981C48.5681 12.6286 51.4123 18.982 51.4123 25.9996C51.4123 33.0172 48.5681 39.3705 43.9693 43.9694C39.3706 48.5681 33.0172 51.4123 25.9995 51.4123C18.982 51.4123 12.6286 48.5681 8.02981 43.9694C3.43102 39.3705 0.586828 33.0172 0.586828 25.9996C0.586828 18.982 3.43102 12.6286 8.02981 8.02981ZM25.9995 0C18.8197 0 12.3201 2.9106 7.61533 7.61534C2.91061 12.3201 0 18.8205 0 26.0004C0 33.1802 2.90976 39.6799 7.61533 44.3846C12.3201 49.0894 18.8206 52 25.9995 52C33.1786 52 39.6791 49.0894 44.3847 44.3846C49.0894 39.6799 52 33.1794 52 26.0004C52 18.8214 49.0894 12.3209 44.3847 7.61534C39.6799 2.9106 33.1794 0 25.9995 0Z" fill="white"/>
<path d="M18.3221 47.8401L28.3676 35.067L40.0612 37.3243L43.813 34.7223L39.3264 29.5344V26.0993L39.2544 25.9146L34.719 20.8355L34.5671 20.7467L16.427 17.1189L16.2894 17.1268L3.03748 21.2712L3.20299 21.803L16.387 17.6794L34.368 21.2761L38.7683 26.2041V29.6368L38.837 29.8191L42.9877 34.6184L39.9381 36.7334L28.1398 34.4561L17.8839 47.4962L18.3221 47.8401Z" fill="#1F211F"/>
<path d="M34.2652 27.6437C34.4155 27.4934 34.6234 27.4007 34.8529 27.4007C35.0824 27.4007 35.2903 27.4934 35.4406 27.6437C35.5909 27.794 35.6837 28.0019 35.6837 28.2314C35.6837 28.4609 35.5909 28.6688 35.4406 28.8191C35.2903 28.9694 35.0824 29.0622 34.8529 29.0622C34.6234 29.0622 34.4155 28.9694 34.2652 28.8191C34.1149 28.6688 34.0221 28.4609 34.0221 28.2314C34.0221 28.0019 34.1157 27.794 34.2652 27.6437ZM34.8529 26.8425C34.4699 26.8425 34.1221 26.9976 33.8709 27.2495C33.6199 27.5005 33.4639 27.8484 33.4639 28.2314C33.4639 28.6144 33.6191 28.9623 33.8709 29.2133C34.1221 29.4644 34.4699 29.6203 34.8529 29.6203C35.2359 29.6203 35.5838 29.4652 35.8348 29.2133C36.0859 28.9623 36.2418 28.6144 36.2418 28.2314C36.2418 27.8484 36.0867 27.5005 35.8348 27.2495C35.5829 26.9984 35.2359 26.8425 34.8529 26.8425Z" fill="#1F211F"/>
<path d="M6.80696 38.5245L28.7316 34.9654L16.603 17.2356L16.1432 17.549L27.7776 34.5568L6.7182 37.9751L6.80696 38.5245Z" fill="#1F211F"/>
<path d="M33.8387 27.6998L21.5205 24.7261L7.28823 37.4071L11.299 23.1772L16.575 17.5831L16.1695 17.2017L10.8465 22.8454L10.7817 22.9613L6.49341 38.1739L6.94679 38.457L21.6749 25.3353L33.7082 28.2404L33.8387 27.6998Z" fill="#1F211F"/>
<path d="M35.9674 27.9742L39.173 26.3462L38.9219 25.8496L35.7171 27.4776L35.9674 27.9742Z" fill="#1F211F"/>
<path d="M34.0354 27.4294L16.5127 17.1528L16.2312 17.6318L33.7539 27.9085L34.0354 27.4294ZM40.2388 36.8881L35.6522 29.0479L35.1733 29.3294L39.7598 37.1696L40.2388 36.8881Z" fill="#1F211F"/>
<path d="M34.7928 21.0046L35.0805 27.1061L34.5247 27.1323L34.2369 21.0309L34.7928 21.0046Z" fill="#1F211F"/>
<path d="M35.9944 28.3208L39.1362 29.3738L38.9596 29.9007L35.8177 28.8477L35.9944 28.3208Z" fill="#1F211F"/>
<path d="M38.3588 36.4537L21.758 24.8033L21.6493 24.7577L3.1718 21.2642L3.06946 21.8111L21.487 25.2934L38.039 36.9087L38.3588 36.4537Z" fill="#1F211F"/>
<path d="M18.3756 47.72L20.7576 35.9584L11.2759 22.8704L10.8249 23.1974L20.1644 36.0888L17.8311 47.6112L18.3756 47.72Z" fill="#1F211F"/>
<path d="M13.9942 37.0403L16.5604 46.7601L16.0223 46.9021L13.4561 37.1824L13.9942 37.0403Z" fill="#1F211F"/>
<path d="M9.10908 30.4533L3.09279 23.9724L2.68579 24.3515L8.70208 30.8323L9.10908 30.4533Z" fill="#1F211F"/>
<path d="M29.2543 15.6602L26.1063 23.1438L26.4677 23.5084L33.0661 20.7785L29.4591 15.1741L29.2543 15.6602ZM26.8803 22.736L29.5622 16.3623L32.2377 20.5195L26.8803 22.736Z" fill="#1F211F"/>
</g>
<path d="M65.1235 34V31.1668H67.3706V19.7361H65.1235V16.9029H73.9163C74.9585 16.9029 75.8622 17.082 76.6275 17.4402C77.409 17.7821 78.0115 18.2788 78.4349 18.9301C78.8745 19.5651 79.0943 20.3304 79.0943 21.226V21.4702C79.0943 22.2518 78.9478 22.895 78.6547 23.3998C78.3616 23.8883 78.0115 24.2709 77.6044 24.5477C77.2137 24.8082 76.8391 24.9955 76.4809 25.1095V25.5491C76.8391 25.6468 77.2299 25.8341 77.6533 26.1109C78.0766 26.3714 78.4349 26.7541 78.728 27.2588C79.0373 27.7636 79.192 28.4231 79.192 29.2372V29.4815C79.192 30.4259 78.9722 31.24 78.5326 31.9239C78.0929 32.5915 77.4823 33.1044 76.7007 33.4627C75.9354 33.8209 75.0399 34 74.014 34H65.1235ZM70.5946 31.0691H73.6232C74.3234 31.0691 74.8852 30.8981 75.3085 30.5561C75.7482 30.2142 75.968 29.7257 75.968 29.0907V28.8464C75.968 28.2114 75.7563 27.7229 75.333 27.381C74.9096 27.039 74.3397 26.868 73.6232 26.868H70.5946V31.0691ZM70.5946 23.9371H73.5744C74.242 23.9371 74.7875 23.7661 75.2108 23.4242C75.6505 23.0823 75.8703 22.61 75.8703 22.0076V21.7633C75.8703 21.1446 75.6586 20.6724 75.2353 20.3467C74.8119 20.0048 74.2583 19.8338 73.5744 19.8338H70.5946V23.9371ZM87.5223 34.1954C86.5779 34.1954 85.7475 33.9837 85.031 33.5604C84.3308 33.1207 83.7854 32.5182 83.3946 31.7529C83.0038 30.9876 82.8084 30.1084 82.8084 29.1151V21.8855H85.8859V28.8709C85.8859 29.7827 86.1057 30.4666 86.5453 30.9225C87.0013 31.3784 87.6444 31.6064 88.4749 31.6064C89.4193 31.6064 90.152 31.297 90.6731 30.6783C91.1941 30.0432 91.4547 29.164 91.4547 28.0404V21.8855H94.5321V34H91.5035V32.4124H91.0639C90.8685 32.8195 90.5021 33.2184 89.9648 33.6092C89.4274 34 88.6133 34.1954 87.5223 34.1954ZM98.9337 34V21.8855H102.011V34H98.9337ZM100.472 20.4688C99.9188 20.4688 99.4466 20.2897 99.0558 19.9315C98.6813 19.5733 98.4941 19.1011 98.4941 18.5149C98.4941 17.9287 98.6813 17.4565 99.0558 17.0983C99.4466 16.74 99.9188 16.5609 100.472 16.5609C101.042 16.5609 101.515 16.74 101.889 17.0983C102.264 17.4565 102.451 17.9287 102.451 18.5149C102.451 19.1011 102.264 19.5733 101.889 19.9315C101.515 20.2897 101.042 20.4688 100.472 20.4688ZM106.398 34V16.9029H109.476V34H106.398ZM118.748 34.3419C117.787 34.3419 116.884 34.1058 116.037 33.6336C115.207 33.1451 114.539 32.4368 114.034 31.5087C113.529 30.5806 113.277 29.457 113.277 28.1381V27.7473C113.277 26.4284 113.529 25.3049 114.034 24.3768C114.539 23.4486 115.207 22.7485 116.037 22.2762C116.867 21.7878 117.771 21.5435 118.748 21.5435C119.481 21.5435 120.091 21.6331 120.58 21.8122C121.085 21.975 121.492 22.1867 121.801 22.4472C122.111 22.7077 122.347 22.9846 122.509 23.2776H122.949V16.9029H126.027V34H122.998V32.5345H122.558C122.281 32.9905 121.85 33.4057 121.264 33.7802C120.694 34.1547 119.855 34.3419 118.748 34.3419ZM119.676 31.6552C120.621 31.6552 121.41 31.354 122.045 30.7515C122.68 30.1328 122.998 29.2372 122.998 28.0648V27.8206C122.998 26.6482 122.68 25.7608 122.045 25.1583C121.427 24.5396 120.637 24.2302 119.676 24.2302C118.732 24.2302 117.942 24.5396 117.307 25.1583C116.672 25.7608 116.354 26.6482 116.354 27.8206V28.0648C116.354 29.2372 116.672 30.1328 117.307 30.7515C117.942 31.354 118.732 31.6552 119.676 31.6552ZM129.829 34V31.1668H132.076V19.7361H129.829V16.9029H138.622C139.664 16.9029 140.568 17.082 141.333 17.4402C142.115 17.7821 142.717 18.2788 143.141 18.9301C143.58 19.5651 143.8 20.3304 143.8 21.226V21.4702C143.8 22.2518 143.654 22.895 143.361 23.3998C143.067 23.8883 142.717 24.2709 142.31 24.5477C141.919 24.8082 141.545 24.9955 141.187 25.1095V25.5491C141.545 25.6468 141.936 25.8341 142.359 26.1109C142.782 26.3714 143.141 26.7541 143.434 27.2588C143.743 27.7636 143.898 28.4231 143.898 29.2372V29.4815C143.898 30.4259 143.678 31.24 143.238 31.9239C142.799 32.5915 142.188 33.1044 141.407 33.4627C140.641 33.8209 139.746 34 138.72 34H129.829ZM135.3 31.0691H138.329C139.029 31.0691 139.591 30.8981 140.014 30.5561C140.454 30.2142 140.674 29.7257 140.674 29.0907V28.8464C140.674 28.2114 140.462 27.7229 140.039 27.381C139.615 27.039 139.046 26.868 138.329 26.868H135.3V31.0691ZM135.3 23.9371H138.28C138.948 23.9371 139.493 23.7661 139.917 23.4242C140.356 23.0823 140.576 22.61 140.576 22.0076V21.7633C140.576 21.1446 140.364 20.6724 139.941 20.3467C139.518 20.0048 138.964 19.8338 138.28 19.8338H135.3V23.9371ZM153.132 34.3419C151.927 34.3419 150.86 34.0896 149.932 33.5848C149.02 33.0637 148.304 32.3391 147.783 31.411C147.278 30.4666 147.026 29.3593 147.026 28.0893V27.7962C147.026 26.5261 147.278 25.427 147.783 24.4989C148.288 23.5545 148.996 22.8299 149.908 22.3251C150.82 21.804 151.878 21.5435 153.083 21.5435C154.272 21.5435 155.306 21.8122 156.185 22.3495C157.064 22.8706 157.748 23.6033 158.237 24.5477C158.725 25.4759 158.969 26.5587 158.969 27.7962V28.8464H150.152C150.185 29.6769 150.494 30.3526 151.08 30.8737C151.666 31.3947 152.383 31.6552 153.23 31.6552C154.093 31.6552 154.728 31.468 155.135 31.0935C155.542 30.719 155.851 30.3038 156.063 29.8478L158.578 31.1668C158.351 31.5901 158.017 32.0542 157.577 32.559C157.154 33.0474 156.584 33.4708 155.867 33.829C155.151 34.171 154.239 34.3419 153.132 34.3419ZM150.176 26.5505H155.843C155.778 25.8504 155.493 25.2886 154.988 24.8652C154.5 24.4419 153.856 24.2302 153.059 24.2302C152.228 24.2302 151.569 24.4419 151.08 24.8652C150.592 25.2886 150.29 25.8504 150.176 26.5505ZM166.447 34.3419C165.584 34.3419 164.81 34.1954 164.126 33.9023C163.443 33.5929 162.897 33.1533 162.49 32.5834C162.099 31.9972 161.904 31.2889 161.904 30.4584C161.904 29.628 162.099 28.936 162.49 28.3824C162.897 27.8125 163.451 27.3891 164.151 27.1123C164.867 26.8192 165.682 26.6727 166.593 26.6727H169.915V25.9888C169.915 25.4189 169.736 24.9548 169.378 24.5966C169.02 24.2221 168.45 24.0348 167.668 24.0348C166.903 24.0348 166.333 24.2139 165.958 24.5721C165.584 24.9141 165.34 25.3619 165.226 25.9155L162.392 24.9629C162.588 24.3442 162.897 23.7824 163.32 23.2776C163.76 22.7566 164.338 22.3414 165.055 22.032C165.787 21.7063 166.675 21.5435 167.717 21.5435C169.313 21.5435 170.575 21.9424 171.503 22.7403C172.431 23.5382 172.895 24.6943 172.895 26.2086V30.7271C172.895 31.2156 173.123 31.4599 173.579 31.4599H174.556V34H172.504C171.902 34 171.405 33.8535 171.014 33.5604C170.623 33.2673 170.428 32.8765 170.428 32.388V32.3636H169.964C169.899 32.559 169.752 32.8195 169.524 33.1451C169.296 33.4545 168.938 33.7313 168.45 33.9756C167.961 34.2198 167.294 34.3419 166.447 34.3419ZM166.984 31.8506C167.847 31.8506 168.547 31.6145 169.085 31.1423C169.638 30.6538 169.915 30.0107 169.915 29.2128V28.9686H166.813C166.243 28.9686 165.795 29.0907 165.47 29.3349C165.144 29.5792 164.981 29.9211 164.981 30.3608C164.981 30.8004 165.152 31.1586 165.494 31.4354C165.836 31.7122 166.333 31.8506 166.984 31.8506ZM177.783 34V21.8855H180.811V23.2532H181.251C181.43 22.7647 181.723 22.4065 182.13 22.1785C182.554 21.9506 183.042 21.8366 183.596 21.8366H185.061V24.5721H183.547C182.765 24.5721 182.122 24.7838 181.617 25.2072C181.113 25.6143 180.86 26.2493 180.86 27.1123V34H177.783Z" fill="white"/>
<defs>
<clipPath id="clip0_1778_1415">
<rect width="52" height="52" fill="white"/>
</clipPath>
</defs>
</svg>
