<svg width="47" height="47" viewBox="0 0 47 47" fill="none" xmlns="http://www.w3.org/2000/svg">
<path d="M47 23.5C47 10.5213 36.4787 0 23.5 0C10.5213 0 0 10.5213 0 23.5C0 36.4787 10.5213 47 23.5 47C36.4787 47 47 36.4787 47 23.5Z" fill="url(#paint0_linear_4753_3154)"/>
<path fill-rule="evenodd" clip-rule="evenodd" d="M14.4324 9.20916L20.9443 22.0415L22.0935 21.85V6.81506C19.3746 7.00595 16.744 7.86089 14.4324 9.30492V9.20916ZM24.3918 6.81506V21.6585H25.541L32.0529 9.20916C29.7413 7.76512 27.1107 6.91019 24.3918 6.7193V6.81506ZM33.9682 10.6456L28.1266 21.85H28.8927L38.0861 15.7211C37.0578 13.7768 35.6589 12.0526 33.9682 10.6456ZM39.0437 17.9237L32.6275 22.3288C35.0216 22.6161 37.7988 22.9992 40.0971 23.5737C40.1047 21.6494 39.7807 19.7381 39.1395 17.9237H39.0437ZM33.4894 24.7229C31.4525 24.471 29.4087 24.2794 27.3605 24.1483C26.9775 24.1418 26.5944 24.1418 26.2113 24.1483C25.2542 24.1035 24.2955 24.1035 23.3384 24.1483C22.5699 24.1784 21.803 24.2424 21.0401 24.3398C20.3303 24.4644 19.6272 24.6242 18.9333 24.8187L17.5926 25.2017C15.6636 25.7603 13.9147 26.8146 12.5201 28.2596C11.1255 29.7046 10.1339 31.4898 9.6442 33.4374C12.7086 37.651 17.4968 40.4282 23.2427 40.4282C24.8995 40.4143 26.5451 40.1561 28.1266 39.6621C26.6789 38.3644 25.5904 36.7152 24.9664 34.8739C24.6634 33.8807 24.6097 32.8282 24.8101 31.8093C25.0105 30.7904 25.4589 29.8367 26.1156 29.0323C27.3605 27.4043 29.3716 26.1594 31.8614 25.2017L33.4894 24.7229ZM30.6165 38.7044C28.7012 37.0764 27.6478 35.5442 27.2647 34.2035C26.7859 32.7671 27.0732 31.5221 27.9351 30.373C28.8927 29.3196 30.425 28.2662 32.7233 27.5001C34.6386 26.8297 37.0327 26.3509 39.8098 26.2551C38.9479 31.7137 35.4047 36.3103 30.5207 38.7044H30.6165ZM7.92045 30.756C8.87809 28.5535 10.7934 25.6805 14.8154 23.7653L7.2501 18.0194C6.61961 19.8035 6.29582 21.6815 6.29246 23.5737C6.29246 26.1594 6.96281 28.6492 7.92045 30.756ZM8.3035 15.9126L17.4968 22.9034C17.8137 22.8 18.133 22.7042 18.4545 22.6161L12.6129 10.6456C10.8332 12.09 9.36689 13.8822 8.3035 15.9126ZM12.1341 7.96423C15.3787 5.65732 19.2615 4.41882 23.2427 4.42096C27.1807 4.4106 31.0263 5.61442 34.2555 7.86846C37.0476 9.83573 39.2629 12.5139 40.6717 15.6253C41.8087 18.1208 42.3965 20.8314 42.3954 23.5737V25.106C42.1243 28.5792 40.9109 31.9127 38.886 34.7476C36.8611 37.5824 34.1013 39.8113 30.9038 41.1943C28.4825 42.226 25.8745 42.7476 23.2427 42.7265C20.1054 42.7312 17.015 41.9652 14.2431 40.4958C11.4712 39.0264 9.10274 36.8985 7.34586 34.2993C5.21525 31.1288 4.08136 27.3936 4.08989 23.5737C4.08989 20.7008 4.66447 18.1152 5.81364 15.6253C7.23675 12.5489 9.45084 9.90517 12.2298 7.96423H12.1341Z" fill="white"/>
<defs>
<linearGradient id="paint0_linear_4753_3154" x1="5.86111e-05" y1="23.4997" x2="47" y2="23.4997" gradientUnits="userSpaceOnUse">
<stop stop-color="#0085FF"/>
<stop offset="1" stop-color="#B440FC"/>
</linearGradient>
</defs>
</svg>
