<svg width="47" height="47" viewBox="0 0 47 47" fill="none" xmlns="http://www.w3.org/2000/svg">
<circle cx="23.5" cy="23.5" r="23.5" fill="black"/>
<path d="M32.8964 10.5439L28.7344 14.706L32.8964 18.8681L37.0585 14.706L32.8964 10.5439Z" fill="#030206"/>
<path d="M32.8994 10.6479L36.9569 14.7055L32.8994 18.7631L28.8418 14.7055L32.8994 10.6479ZM32.8994 10.439L28.6328 14.7055L32.8994 18.9721L37.1659 14.7055L32.8994 10.439Z" fill="#F3FF97"/>
<path d="M32.4746 10.1519L28.3125 14.3139L32.4746 18.476L36.6366 14.3139L32.4746 10.1519Z" fill="#030206"/>
<path d="M32.4775 10.2563L36.5351 14.3139L32.4775 18.3715L28.4199 14.3139L32.4775 10.2563ZM32.4775 10.0474L28.2109 14.3139L32.4775 18.5805L36.744 14.3139L32.4775 10.0474Z" fill="#F3FF97"/>
<path d="M32.0449 9.77734L27.8828 13.9394L32.0449 18.1015L36.2069 13.9394L32.0449 9.77734Z" fill="#030206"/>
<path d="M32.0478 9.88183L36.1054 13.9394L32.0478 17.997L27.9902 13.9394L32.0478 9.87312V9.88183ZM32.0478 9.67285L27.7812 13.9394L32.0478 18.206L36.3144 13.9394L32.0478 9.67285Z" fill="#F3FF97"/>
<path d="M31.6074 9.4292L27.4453 13.5913L31.6074 17.7533L35.7694 13.5913L31.6074 9.4292Z" fill="#030206"/>
<path d="M31.6025 9.53368L35.6601 13.5913L31.6025 17.6488L27.5449 13.5913L31.6025 9.53368ZM31.6025 9.32471L27.3359 13.5913L31.6025 17.8578L35.869 13.5913L31.6025 9.32471Z" fill="#F3FF97"/>
<path d="M31.1543 9.10693L26.9922 13.269L31.1543 17.4311L35.3163 13.269L31.1543 9.10693Z" fill="#030206"/>
<path d="M31.1494 9.20271L35.2069 13.2603L31.1494 17.3179L27.0918 13.2603L31.1494 9.20271ZM31.1494 9.00244L26.8828 13.269L31.1494 17.5355L35.4159 13.269L31.1494 9.00244Z" fill="#F3FF97"/>
<path d="M30.6777 8.80225L26.5156 12.9643L30.6777 17.1264L34.8398 12.9643L30.6777 8.80225Z" fill="#030206"/>
<path d="M30.6806 8.90681L34.7382 12.9644L30.6806 17.022L26.623 12.9644L30.6806 8.90681ZM30.6806 8.70654L26.4141 12.9731L30.6806 17.2396L34.9472 12.9731L30.6806 8.70654Z" fill="#F3FF97"/>
<path d="M30.2011 8.52393L26.0391 12.686L30.2011 16.8481L34.3632 12.686L30.2011 8.52393Z" fill="#030206"/>
<path d="M30.2041 8.628L34.2616 12.6856L30.2041 16.7432L26.1465 12.6856L30.2041 8.628ZM30.2041 8.42773L25.9375 12.6943L30.2041 16.9608L34.4706 12.6943L30.2041 8.42773Z" fill="#F3FF97"/>
<path d="M29.7168 8.27979L25.5547 12.4419L29.7168 16.6039L33.8788 12.4419L29.7168 8.27979Z" fill="#030206"/>
<path d="M29.7197 8.38427L33.7773 12.4418L29.7197 16.4994L25.6621 12.4418L29.7197 8.38427ZM29.7197 8.17529L25.4531 12.4418L29.7197 16.7084L33.9862 12.4418L29.7197 8.17529Z" fill="#F3FF97"/>
<path d="M29.2168 8.04492L25.0547 12.207L29.2168 16.3691L33.3788 12.207L29.2168 8.04492Z" fill="#030206"/>
<path d="M29.2197 8.1577L33.2773 12.2153L29.2197 16.2729L25.1621 12.2153L29.2197 8.1577ZM29.2197 7.94873L24.9531 12.2153L29.2197 16.4818L33.4862 12.2153L29.2197 7.94873Z" fill="#F3FF97"/>
<path d="M28.7011 7.84473L24.5391 12.0068L28.7011 16.1689L32.8632 12.0068L28.7011 7.84473Z" fill="#030206"/>
<path d="M28.7041 7.9488L32.7616 12.0064L28.7041 16.0727L24.6465 12.0151L28.7041 7.9488ZM28.7041 7.74854L24.4375 12.0151L28.7041 16.2816L32.9706 12.0151L28.7041 7.74854Z" fill="#F3FF97"/>
<path d="M28.2011 7.67041L24.0391 11.8325L28.2011 15.9945L32.3632 11.8325L28.2011 7.67041Z" fill="#030206"/>
<path d="M28.2041 7.77489L32.2616 11.8325L28.2041 15.89L24.1465 11.8325L28.2041 7.77489ZM28.2041 7.56592L23.9375 11.8325L28.2041 16.099L32.4706 11.8325L28.2041 7.56592Z" fill="#F3FF97"/>
<path d="M27.6777 7.51367L23.5156 11.6757L27.6777 15.8378L31.8398 11.6757L27.6777 7.51367Z" fill="#030206"/>
<path d="M27.6806 7.61824L31.7382 11.6758L27.6806 15.7334L23.623 11.6758L27.6806 7.61824ZM27.6806 7.41797L23.4141 11.6845L27.6806 15.9511L31.9472 11.6845L27.6806 7.41797Z" fill="#F3FF97"/>
<path d="M27.1621 7.3916L23 11.5537L27.1621 15.7157L31.3241 11.5537L27.1621 7.3916Z" fill="#030206"/>
<path d="M27.1572 7.48786L31.2148 11.5454L27.1572 15.6117L23.0996 11.5542L27.1572 7.48786ZM27.1572 7.2876L22.8906 11.5542L27.1572 15.8207L31.4237 11.5542L27.1572 7.2876Z" fill="#F3FF97"/>
<path d="M26.6308 7.27881L22.4688 11.4409L26.6308 15.6029L30.7929 11.4409L26.6308 7.27881Z" fill="#030206"/>
<path d="M26.6259 7.38288L30.6835 11.4405L26.6259 15.498L22.5683 11.4405L26.6259 7.38288ZM26.6259 7.18262L22.3594 11.4492L26.6259 15.7157L30.8925 11.4492L26.6259 7.18262Z" fill="#F3FF97"/>
<path d="M26.0996 7.2002L21.9375 11.3623L26.0996 15.5243L30.2616 11.3623L26.0996 7.2002Z" fill="#030206"/>
<path d="M26.0947 7.30468L30.1523 11.3623L26.0947 15.4198L22.0371 11.3623L26.0947 7.30468ZM26.0947 7.0957L21.8281 11.3623L26.0947 15.6288L30.3612 11.3623L26.0947 7.0957Z" fill="#F3FF97"/>
<path d="M25.5683 7.14795L21.4062 11.31L25.5683 15.4721L29.7304 11.31L25.5683 7.14795Z" fill="#030206"/>
<path d="M25.5634 7.24372L29.621 11.3013L25.5634 15.3676L21.5058 11.31L25.5634 7.24372ZM25.5634 7.04346L21.2969 11.31L25.5634 15.5766L29.83 11.31L25.5634 7.04346Z" fill="#F3FF97"/>
<path d="M25.0371 7.11279L20.875 11.2749L25.0371 15.4369L29.1991 11.2749L25.0371 7.11279Z" fill="#030206"/>
<path d="M25.04 7.20906L29.0976 11.2666L25.04 15.3242L20.9824 11.2666L25.04 7.20906ZM25.04 7.00879L20.7734 11.2753L25.04 15.5419L29.3065 11.2753L25.04 7.00879Z" fill="#F3FF97"/>
<path d="M24.498 7.10449L20.3359 11.2666L24.498 15.4286L28.6601 11.2666L24.498 7.10449Z" fill="#030206"/>
<path d="M24.4931 7.20897L28.5507 11.2666L24.4931 15.3241L20.4355 11.2666L24.4931 7.20897ZM24.4931 7L20.2266 11.2666L24.4931 15.5331L28.7597 11.2666L24.4931 7Z" fill="#F3FF97"/>
<path d="M23.9589 7.12158L19.7969 11.2836L23.9589 15.4457L28.121 11.2836L23.9589 7.12158Z" fill="#030206"/>
<path d="M23.9541 7.22655L28.0116 11.2841L23.9541 15.3417L19.8965 11.2841L23.9541 7.22655ZM23.9541 7.01758L19.6875 11.2841L23.9541 15.5507L28.2206 11.2841L23.9541 7.01758Z" fill="#F3FF97"/>
<path d="M23.4277 7.15625L19.2656 11.3183L23.4277 15.4804L27.5898 11.3183L23.4277 7.15625Z" fill="#030206"/>
<path d="M23.4228 7.2613L27.4804 11.3189L23.4228 15.3765L19.3652 11.3189L23.4228 7.2613ZM23.4228 7.06104L19.1562 11.3276L23.4228 15.5941L27.6894 11.3276L23.4228 7.06104Z" fill="#F3FF97"/>
<path d="M22.8886 7.22656L18.7266 11.3886L22.8886 15.5507L27.0507 11.3886L22.8886 7.22656Z" fill="#030206"/>
<path d="M22.8837 7.33056L26.9413 11.3881L22.8837 15.4457L18.8262 11.3881L22.8837 7.33056ZM22.8837 7.12158L18.6172 11.3881L22.8837 15.6547L27.1503 11.3881L22.8837 7.12158Z" fill="#F3FF97"/>
<path d="M22.3652 7.31299L18.2031 11.4751L22.3652 15.6371L26.5273 11.4751L22.3652 7.31299Z" fill="#030206"/>
<path d="M22.3525 7.41796L26.4101 11.4755L22.3525 15.5331L18.2949 11.4755L22.3525 7.41796ZM22.3525 7.20898L18.0859 11.4755L22.3525 15.7421L26.619 11.4755L22.3525 7.20898Z" fill="#F3FF97"/>
<path d="M21.8339 7.42676L17.6719 11.5888L21.8339 15.7509L25.996 11.5888L21.8339 7.42676Z" fill="#030206"/>
<path d="M21.8369 7.53075L25.8944 11.5883L21.8369 15.6459L17.7793 11.5883L21.8369 7.53075ZM21.8369 7.32178L17.5703 11.5883L21.8369 15.8549L26.1034 11.5883L21.8369 7.32178Z" fill="#F3FF97"/>
<path d="M21.3105 7.56592L17.1484 11.728L21.3105 15.89L25.4726 11.728L21.3105 7.56592Z" fill="#030206"/>
<path d="M21.3134 7.6704L25.371 11.728L21.3134 15.7856L17.2558 11.728L21.3134 7.6704ZM21.3134 7.46143L17.0469 11.728L21.3134 15.9945L25.58 11.728L21.3134 7.46143Z" fill="#F3FF97"/>
<path d="M20.8027 7.73096L16.6406 11.893L20.8027 16.0551L24.9648 11.893L20.8027 7.73096Z" fill="#030206"/>
<path d="M20.79 7.82722L24.8476 11.8848L20.79 15.9511L16.7324 11.8935L20.79 7.82722ZM20.79 7.62695L16.5234 11.8935L20.79 16.1601L25.0565 11.8935L20.79 7.62695Z" fill="#F3FF97"/>
<path d="M20.2871 7.91455L16.125 12.0766L20.2871 16.2387L24.4491 12.0766L20.2871 7.91455Z" fill="#030206"/>
<path d="M20.29 8.00984L24.3476 12.0674L20.29 16.125L16.2324 12.0674L20.29 8.00984ZM20.29 7.80957L16.0234 12.0761L20.29 16.3427L24.5565 12.0761L20.29 7.80957Z" fill="#F3FF97"/>
<path d="M19.7793 8.12305L15.6172 12.2851L19.7793 16.4472L23.9413 12.2851L19.7793 8.12305Z" fill="#030206"/>
<path d="M19.7822 8.22761L23.8398 12.2852L19.7822 16.3428L15.7246 12.2852L19.7822 8.22761ZM19.7822 8.02734L15.5156 12.2939L19.7822 16.5604L24.0487 12.2939L19.7822 8.02734Z" fill="#F3FF97"/>
<path d="M19.2871 8.35791L15.125 12.52L19.2871 16.682L23.4491 12.52L19.2871 8.35791Z" fill="#030206"/>
<path d="M19.29 8.46288L23.3563 12.5205L19.2987 16.578L15.2324 12.5205L19.29 8.46288ZM19.29 8.25391L15.0234 12.5205L19.29 16.787L23.5565 12.5205L19.29 8.25391Z" fill="#F3FF97"/>
<path d="M18.8027 8.61914L14.6406 12.7812L18.8027 16.9433L22.9648 12.7812L18.8027 8.61914Z" fill="#030206"/>
<path d="M18.7978 8.7154L22.8554 12.773L18.7978 16.8306L14.7402 12.773L18.7978 8.7154ZM18.7978 8.51514L14.5312 12.7817L18.7978 17.0482L23.0644 12.7817L18.7978 8.51514Z" fill="#F3FF97"/>
<path d="M18.3261 8.89795L14.1641 13.06L18.3261 17.2221L22.4882 13.06L18.3261 8.89795Z" fill="#030206"/>
<path d="M18.3291 9.00251L22.3866 13.0601L18.3291 17.1264L14.2715 13.0688L18.3291 9.00251ZM18.3291 8.80225L14.0625 13.0688L18.3291 17.3354L22.5956 13.0688L18.3291 8.80225Z" fill="#F3FF97"/>
<path d="M17.8652 9.21143L13.7031 13.3735L17.8652 17.5356L22.0273 13.3735L17.8652 9.21143Z" fill="#030206"/>
<path d="M17.8603 9.31591L21.9179 13.3735L17.8603 17.4311L13.8027 13.3735L17.8603 9.31591ZM17.8603 9.10693L13.5938 13.3735L17.8603 17.64L22.1269 13.3735L17.8516 9.10693H17.8603Z" fill="#F3FF97"/>
<path d="M17.4121 9.54248L13.25 13.7045L17.4121 17.8666L21.5741 13.7045L17.4121 9.54248Z" fill="#030206"/>
<path d="M17.4228 9.64696L21.4804 13.7045L17.4228 17.7708L13.3652 13.7132L17.4228 9.64696ZM17.4228 9.43799L13.1562 13.7045L17.4228 17.9711L21.6894 13.7045L17.4228 9.43799Z" fill="#F3FF97"/>
<path d="M16.9668 9.89941L12.8047 14.0615L16.9668 18.2235L21.1288 14.0615L16.9668 9.89941Z" fill="#030206"/>
<path d="M16.9697 10.0039L21.0273 14.0615L16.9697 18.1191L12.9121 14.0615L16.9697 10.0039ZM16.9697 9.79492L12.7031 14.0615L16.9697 18.328L21.2362 14.0615L16.9697 9.79492Z" fill="#F3FF97"/>
<path d="M16.5371 10.2827L12.375 14.4448L16.5371 18.6068L20.6991 14.4448L16.5371 10.2827Z" fill="#030206"/>
<path d="M16.54 10.378L20.5976 14.4356L16.54 18.5019L12.4824 14.4443L16.54 10.378ZM16.54 10.1777L12.2734 14.4443L16.54 18.7108L20.8065 14.4443L16.54 10.1777Z" fill="#F3FF97"/>
<path d="M16.1386 10.6831L11.9766 14.8452L16.1386 19.0072L20.3007 14.8452L16.1386 10.6831Z" fill="#030206"/>
<path d="M16.1337 10.7872L20.1913 14.8448L16.1337 18.9023L12.0762 14.8448L16.1337 10.7872ZM16.1337 10.5869L11.8672 14.8535L16.1337 19.12L20.4003 14.8535L16.1337 10.5869Z" fill="#F3FF97"/>
<path d="M15.7402 11.1011L11.5781 15.2631L15.7402 19.4252L19.9023 15.2631L15.7402 11.1011Z" fill="#030206"/>
<path d="M15.7431 11.2051L19.8007 15.2627L15.7431 19.329L11.6855 15.2714L15.7431 11.2051ZM15.7431 11.0049L11.4766 15.2714L15.7431 19.538L20.0097 15.2714L15.7431 11.0049Z" fill="#F3FF97"/>
<path d="M15.373 11.5449L11.2109 15.707L15.373 19.8691L19.5351 15.707L15.373 11.5449Z" fill="#030206"/>
<path d="M15.3759 11.6494L19.4335 15.707L15.3759 19.7646L11.3183 15.707L15.3759 11.6494ZM15.3759 11.4404L11.1094 15.707L15.3759 19.9735L19.6425 15.707L15.3759 11.4404Z" fill="#F3FF97"/>
<path d="M15.0449 11.9893L10.8828 16.1513L15.0449 20.3134L19.2069 16.1513L15.0449 11.9893Z" fill="#030206"/>
<path d="M15.04 12.0937L19.0976 16.1513L15.04 20.2089L10.9824 16.1513L15.04 12.0937ZM15.04 11.8848L10.7734 16.1513L15.04 20.4179L19.3065 16.1513L15.04 11.8848Z" fill="#F3FF97"/>
<path d="M14.7246 12.4502L10.5625 16.6123L14.7246 20.7743L18.8866 16.6123L14.7246 12.4502Z" fill="#030206"/>
<path d="M14.7275 12.5552L18.7851 16.6127L14.7275 20.6703L10.6699 16.6127L14.7275 12.5552ZM14.7275 12.3462L10.4609 16.6127L14.7275 20.8793L18.994 16.6127L14.7275 12.3462Z" fill="#F3FF97"/>
<path d="M14.4277 12.9209L10.2656 17.083L14.4277 21.245L18.5898 17.083L14.4277 12.9209Z" fill="#030206"/>
<path d="M14.4306 13.0254L18.4882 17.083L14.4306 21.1405L10.373 17.083L14.4306 13.0254ZM14.4306 12.8164L10.1641 17.083L14.4306 21.3495L18.6972 17.083L14.4306 12.8164Z" fill="#F3FF97"/>
<path d="M14.1543 13.4087L9.99219 17.5708L14.1543 21.7328L18.3163 17.5708L14.1543 13.4087Z" fill="#030206"/>
<path d="M14.1572 13.504L18.2148 17.5616L14.1572 21.6191L10.0996 17.5616L14.1572 13.504ZM14.1572 13.3037L9.89062 17.5703L14.1572 21.8368L18.4237 17.5703L14.1572 13.3037Z" fill="#F3FF97"/>
<path d="M13.9121 13.896L9.75 18.0581L13.9121 22.2201L18.0741 18.0581L13.9121 13.896Z" fill="#030206"/>
<path d="M13.9237 14.0005L17.9813 18.0581L13.9237 22.1156L9.85741 18.0581L13.915 14.0005H13.9237ZM13.9237 13.7915L9.64844 18.0668L13.915 22.3333L18.1815 18.0668L13.915 13.8002L13.9237 13.7915Z" fill="#F3FF97"/>
<path d="M13.7089 14.3921L9.54688 18.5542L13.7089 22.7162L17.871 18.5542L13.7089 14.3921Z" fill="#030206"/>
<path d="M13.7041 14.4966L17.7616 18.5542L13.7041 22.6117L9.63777 18.5542L13.7041 14.4966ZM13.7041 14.2876L9.4375 18.5542L13.7041 22.8207L17.9706 18.5542L13.7041 14.2876Z" fill="#F3FF97"/>
<path d="M13.5058 14.897L9.34375 19.059L13.5058 23.2211L17.6679 19.059L13.5058 14.897Z" fill="#030206"/>
<path d="M13.5087 15.0107L17.5663 19.0683L13.5087 23.1259L9.44245 19.0683L13.5087 15.0107ZM13.5087 14.8018L9.24219 19.0683L13.5087 23.3349L17.7753 19.0683L13.5087 14.8018Z" fill="#F3FF97"/>
<path d="M13.3426 15.4199L9.17188 19.582L13.3339 23.7441L17.496 19.582L13.3339 15.4199H13.3426Z" fill="#030206"/>
<path d="M13.3291 15.5152L17.3866 19.5728L13.3291 23.6304L9.27147 19.5728L13.3291 15.5152ZM13.3291 15.3149L9.0625 19.5815L13.3291 23.848L17.5956 19.5815L13.3291 15.3149Z" fill="#F3FF97"/>
<path d="M13.1942 15.9331L9.02344 20.1039L13.1855 24.2659L17.3476 20.1039L13.1855 15.9418L13.1942 15.9331Z" fill="#030206"/>
<path d="M13.1884 16.0381L17.246 20.0957L13.1884 24.1532L9.12214 20.1044L13.1797 16.0468L13.1884 16.0381ZM13.1884 15.8291L8.92188 20.1044L13.1884 24.3709L17.455 20.1044L13.1884 15.8378V15.8291Z" fill="#F3FF97"/>
<path d="M13.0683 16.4648L8.90625 20.6269L13.0683 24.789L17.2304 20.6269L13.0683 16.4648Z" fill="#030206"/>
<path d="M13.0712 16.5688L17.1288 20.6264L13.0712 24.6927L9.01366 20.6264L13.0712 16.5688ZM13.0712 16.3599L8.80469 20.6264L13.0712 24.893L17.3378 20.6264L13.0712 16.3599Z" fill="#F3FF97"/>
<path d="M12.9746 16.9961L8.8125 21.1582L12.9746 25.3202L17.1366 21.1582L12.9746 16.9961Z" fill="#030206"/>
<path d="M12.9775 17.0919L17.0351 21.1494L12.9775 25.207L8.9112 21.1582L12.9688 17.1006L12.9775 17.0919ZM12.9775 16.8916L8.71094 21.1582L12.9775 25.4247L17.244 21.1582L12.9775 16.8916Z" fill="#F3FF97"/>
<path d="M12.9051 17.5181L8.73438 21.6888L12.8964 25.8509L17.0585 21.6888L12.8964 17.5268L12.9051 17.5181Z" fill="#030206"/>
<path d="M12.9081 17.6226L16.9657 21.6802L12.9081 25.7378L8.84179 21.6889L12.8994 17.6313L12.9081 17.6226ZM12.9081 17.4224L8.63281 21.6889L12.8994 25.9555L17.1659 21.6889L12.8994 17.4224H12.9081Z" fill="#F3FF97"/>
<path d="M12.8574 18.0581L8.69531 22.2202L12.8574 26.3822L17.0194 22.2202L12.8574 18.0581Z" fill="#030206"/>
<path d="M12.8525 18.1626L16.9101 22.2202L12.8525 26.2865L8.79491 22.2289L12.8525 18.1626ZM12.8525 17.9536L8.58594 22.2289L12.8525 26.4954L17.119 22.2289L12.8525 17.9623V17.9536Z" fill="#F3FF97"/>
<path d="M12.8261 18.5894L8.66406 22.7601L12.8261 26.9222L16.9882 22.7601L12.8261 18.5981V18.5894Z" fill="#030206"/>
<path d="M12.8291 18.6939L16.8866 22.7515L12.8291 26.8091L8.77147 22.7602L12.8291 18.7026V18.6939ZM12.8291 18.4937L8.5625 22.7602L12.8291 27.0268L17.0956 22.7602L12.8291 18.4937Z" fill="#F3FF97"/>
<path d="M12.8261 19.1294L8.66406 23.3002L12.8261 27.4622L16.9882 23.3002L12.8261 19.1381V19.1294Z" fill="#030206"/>
<path d="M12.8291 19.2334L16.8866 23.291L12.8291 27.3485L8.77147 23.291L12.8291 19.2334ZM12.8291 19.0244L8.5625 23.2997L12.8291 27.5662L17.0956 23.2997L12.8291 19.0331V19.0244Z" fill="#F3FF97"/>
<path d="M12.8505 19.6602L8.67969 23.8309L12.8418 27.993L17.0038 23.8309L12.8418 19.6689L12.8505 19.6602Z" fill="#030206"/>
<path d="M12.8525 19.7647L16.9101 23.8223L12.8525 27.8799L8.79491 23.831L12.8525 19.7734V19.7647ZM12.8525 19.5645L8.58594 23.831L12.8525 28.0976L17.119 23.831L12.8525 19.5645Z" fill="#F3FF97"/>
<path d="M12.8964 20.2002L8.73438 24.3623L12.8964 28.5243L17.0585 24.3623L12.8964 20.2002Z" fill="#030206"/>
<path d="M12.9081 20.3047L16.9657 24.3623L12.9081 28.4198L8.84179 24.3623L12.8994 20.3047H12.9081ZM12.9081 20.0957L8.63281 24.3623L12.8994 28.6288L17.1659 24.3623L12.8994 20.0957H12.9081Z" fill="#F3FF97"/>
<path d="M12.9755 20.7314L8.80469 24.8935L12.9668 29.0556L17.1288 24.8935L12.9668 20.7314H12.9755Z" fill="#030206"/>
<path d="M12.9775 20.8354L17.0351 24.893L12.9775 28.9506L8.9112 24.893L12.9688 20.8354H12.9775ZM12.9775 20.6265L8.71094 24.893L12.9775 29.1596L17.244 24.893L12.9775 20.6265Z" fill="#F3FF97"/>
<path d="M13.0683 21.2622L8.90625 25.4243L13.0683 29.5863L17.2304 25.4243L13.0683 21.2622Z" fill="#030206"/>
<path d="M13.0712 21.3585L17.1288 25.416L13.0712 29.4736L9.01366 25.4248L13.0712 21.3585ZM13.0712 21.1582L8.80469 25.4248L13.0712 29.6913L17.3378 25.4248L13.0712 21.1582Z" fill="#F3FF97"/>
<path d="M13.1933 21.7852L9.03125 25.9559L13.1933 30.118L17.3554 25.9559L13.1933 21.7939V21.7852Z" fill="#030206"/>
<path d="M13.1884 21.8892L17.246 25.9468L13.1884 30.0044L9.12214 25.9468L13.1797 21.8892H13.1884ZM13.1884 21.689L8.92188 25.9555L13.1884 30.2221L17.455 25.9555L13.1884 21.689Z" fill="#F3FF97"/>
<path d="M13.3339 22.3071L9.17188 26.4692L13.3339 30.6313L17.496 26.4692L13.3339 22.3071Z" fill="#030206"/>
<path d="M13.3291 22.4121L17.3866 26.4697L13.3291 30.536L9.27147 26.4784L13.3291 22.4121ZM13.3291 22.2031L9.0625 26.4784L13.3291 30.7449L17.5956 26.4784L13.3291 22.2118V22.2031Z" fill="#F3FF97"/>
<path d="M13.5058 22.8208L9.34375 26.9829L13.5058 31.1449L17.6679 26.9829L13.5058 22.8208Z" fill="#030206"/>
<path d="M13.5087 22.9166L17.5663 26.9742L13.5087 31.0317L9.44245 26.9742L13.5087 22.9079V22.9166ZM13.5087 22.7163L9.24219 26.9829L13.5087 31.2494L17.7753 26.9829L13.5087 22.7163Z" fill="#F3FF97"/>
<path d="M13.7089 23.3262L9.54688 27.4882L13.7089 31.6503L17.871 27.4882L13.7089 23.3262Z" fill="#030206"/>
<path d="M13.7041 23.4307L17.7616 27.4882L13.7041 31.5458L9.63777 27.4882L13.7041 23.4307ZM13.7041 23.2217L9.4375 27.4882L13.7041 31.7548L17.9706 27.4882L13.7041 23.2217Z" fill="#F3FF97"/>
<path d="M13.9277 23.8311L9.76562 27.9931L13.9277 32.1552L18.0898 27.9931L13.9277 23.8311Z" fill="#030206"/>
<path d="M13.9228 23.9268L17.9804 27.9844L13.9228 32.042L9.86522 27.9844L13.9228 23.9268ZM13.9228 23.7266L9.65625 27.9931L13.9228 32.2597L18.1894 27.9931L13.9228 23.7266Z" fill="#F3FF97"/>
<path d="M14.1543 24.3184L9.99219 28.4804L14.1543 32.6425L18.3163 28.4804L14.1543 24.3184Z" fill="#030206"/>
<path d="M14.1572 24.4233L18.2148 28.4809L14.1572 32.5385L10.0996 28.4809L14.1572 24.4233ZM14.1572 24.2144L9.89062 28.4809L14.1572 32.7475L18.4237 28.4809L14.1572 24.2144Z" fill="#F3FF97"/>
<path d="M14.4277 24.7974L10.2656 28.9594L14.4277 33.1215L18.5898 28.9594L14.4277 24.7974Z" fill="#030206"/>
<path d="M14.4306 24.9019L18.4882 28.9595L14.4306 33.0171L10.373 28.9595L14.4306 24.9019ZM14.4306 24.7017L10.1641 28.9682L14.4306 33.2348L18.6972 28.9682L14.4306 24.7017Z" fill="#F3FF97"/>
<path d="M14.7246 25.2764L10.5625 29.4384L14.7246 33.6005L18.8866 29.4384L14.7246 25.2764Z" fill="#030206"/>
<path d="M14.7275 25.3721L18.7851 29.4297L14.7275 33.4873L10.6699 29.4297L14.7275 25.3721ZM14.7275 25.1719L10.4609 29.4384L14.7275 33.705L18.994 29.4384L14.7275 25.1719Z" fill="#F3FF97"/>
<path d="M15.0449 25.729L10.8828 29.8911L15.0449 34.0531L19.2069 29.8911L15.0449 25.729Z" fill="#030206"/>
<path d="M15.04 25.8336L19.0976 29.8911L15.04 33.9574L10.9824 29.8999L15.04 25.8336ZM15.04 25.6333L10.7734 29.8999L15.04 34.1664L19.3065 29.8999L15.04 25.6333Z" fill="#F3FF97"/>
<path d="M15.373 26.1821L11.2109 30.3442L15.373 34.5063L19.5351 30.3442L15.373 26.1821Z" fill="#030206"/>
<path d="M15.3759 26.2866L19.4335 30.3442L15.3759 34.4018L11.3183 30.3442L15.3759 26.2866ZM15.3759 26.0776L11.1094 30.3442L15.3759 34.6107L19.6425 30.3442L15.3759 26.0776Z" fill="#F3FF97"/>
<path d="M15.7402 26.6172L11.5781 30.7793L15.7402 34.9413L19.9023 30.7793L15.7402 26.6172Z" fill="#030206"/>
<path d="M15.7431 26.7217L19.8007 30.7792L15.7431 34.8368L11.6855 30.7792L15.7431 26.7217ZM15.7431 26.5127L11.4766 30.7792L15.7431 35.0458L20.0097 30.7792L15.7431 26.5127Z" fill="#F3FF97"/>
<path d="M16.1308 27.0352L11.9688 31.1972L16.1308 35.3593L20.2929 31.1972L16.1308 27.0352Z" fill="#030206"/>
<path d="M16.1337 27.1397L20.1913 31.1973L16.1337 35.2636L12.0762 31.206L16.1337 27.1397ZM16.1337 26.9395L11.8672 31.206L16.1337 35.4726L20.4003 31.206L16.1337 26.9395Z" fill="#F3FF97"/>
<path d="M16.5371 27.4443L12.375 31.6064L16.5371 35.7685L20.6991 31.6064L16.5371 27.4443Z" fill="#030206"/>
<path d="M16.54 27.5488L20.5976 31.6064L16.54 35.6727L12.4824 31.6151L16.54 27.5488ZM16.54 27.3398L12.2734 31.6064L16.54 35.8729L20.8065 31.6064L16.54 27.3398Z" fill="#F3FF97"/>
<path d="M16.9668 27.8188L12.8047 31.9809L16.9668 36.143L21.1288 31.9809L16.9668 27.8188Z" fill="#030206"/>
<path d="M16.9697 27.9321L21.0273 31.9897L16.9697 36.0473L12.9121 31.9897L16.9697 27.9321ZM16.9697 27.7231L12.7031 31.9897L16.9697 36.2563L21.2362 31.9897L16.9697 27.7231Z" fill="#F3FF97"/>
<path d="M17.4199 28.1758L13.2578 32.3378L17.4199 36.4999L21.5819 32.3378L17.4199 28.1758Z" fill="#030206"/>
<path d="M17.4228 28.2803L21.4804 32.3379L17.4228 36.4042L13.3652 32.3466L17.4228 28.2803ZM17.4228 28.0801L13.1562 32.3466L17.4228 36.6132L21.6894 32.3466L17.4228 28.0801Z" fill="#F3FF97"/>
<path d="M17.8652 28.5156L13.7031 32.6777L17.8652 36.8398L22.0273 32.6777L17.8652 28.5156Z" fill="#030206"/>
<path d="M17.8603 28.6114L21.9179 32.669L17.8603 36.7266L13.8027 32.669L17.8603 28.6114ZM17.8603 28.4111L13.5938 32.6777L17.8603 36.9442L22.1269 32.6777L17.8516 28.4111H17.8603Z" fill="#F3FF97"/>
<path d="M18.3261 28.8203L14.1641 32.9824L18.3261 37.1444L22.4882 32.9824L18.3261 28.8203Z" fill="#030206"/>
<path d="M18.3291 28.9249L22.3866 32.9825L18.3291 37.0487L14.2715 32.9912L18.3291 28.9249ZM18.3291 28.7246L14.0625 32.9912L18.3291 37.2577L22.5956 32.9912L18.3291 28.7246Z" fill="#F3FF97"/>
<path d="M18.8027 29.1079L14.6406 33.27L18.8027 37.432L22.9648 33.27L18.8027 29.1079Z" fill="#030206"/>
<path d="M18.7978 29.2119L22.8554 33.2695L18.7978 37.3271L14.7402 33.2695L18.7978 29.2119ZM18.7978 29.0029L14.5312 33.2695L18.7978 37.536L23.0644 33.2695L18.7978 29.0029Z" fill="#F3FF97"/>
<path d="M19.2871 29.3687L15.125 33.5307L19.2871 37.6928L23.4491 33.5307L19.2871 29.3687Z" fill="#030206"/>
<path d="M19.29 29.4644L23.3563 33.5307L19.2987 37.5883L15.2324 33.5307L19.29 29.4644ZM19.29 29.2642L15.0234 33.5307L19.29 37.7973L23.5565 33.5307L19.2813 29.2642H19.29Z" fill="#F3FF97"/>
<path d="M19.7793 29.5952L15.6172 33.7573L19.7793 37.9193L23.9413 33.7573L19.7793 29.5952Z" fill="#030206"/>
<path d="M19.7822 29.6998L23.8398 33.7574L19.7822 37.8236L15.7246 33.7661L19.7822 29.6998ZM19.7822 29.4995L15.5156 33.7661L19.7822 38.0326L24.0487 33.7661L19.7822 29.4995Z" fill="#F3FF97"/>
<path d="M20.2793 29.8037L16.1172 33.9658L20.2793 38.1278L24.4413 33.9658L20.2793 29.8037Z" fill="#030206"/>
<path d="M20.29 29.9175L24.3476 33.975L20.29 38.0326L16.2324 33.975L20.29 29.9175ZM20.29 29.7085L16.0234 33.975L20.29 38.2416L24.5565 33.975L20.29 29.7085Z" fill="#F3FF97"/>
<path d="M20.8027 29.9956L16.6406 34.1577L20.8027 38.3197L24.9648 34.1577L20.8027 29.9956Z" fill="#030206"/>
<path d="M20.79 30.1001L24.8476 34.1577L20.79 38.224L16.7324 34.1664L20.79 30.1001ZM20.79 29.8911L16.5234 34.1577L20.79 38.4242L25.0565 34.1577L20.79 29.8911Z" fill="#F3FF97"/>
<path d="M21.3105 30.1611L17.1484 34.3232L21.3105 38.4853L25.4726 34.3232L21.3105 30.1611Z" fill="#030206"/>
<path d="M21.3134 30.2569L25.371 34.3145L21.3134 38.3721L17.2558 34.3145L21.3134 30.2569ZM21.3134 30.0566L17.0469 34.3232L21.3134 38.5897L25.58 34.3232L21.3134 30.0566Z" fill="#F3FF97"/>
<path d="M21.8339 30.3003L17.6719 34.4624L21.8339 38.6244L25.996 34.4624L21.8339 30.3003Z" fill="#030206"/>
<path d="M21.8369 30.3961L25.8944 34.4536L21.8369 38.5112L17.7793 34.4536L21.8369 30.3961ZM21.8369 30.1958L17.5703 34.4624L21.8369 38.7289L26.1034 34.4624L21.8369 30.1958Z" fill="#F3FF97"/>
<path d="M22.3574 30.4136L18.1953 34.5756L22.3574 38.7377L26.5194 34.5756L22.3574 30.4136Z" fill="#030206"/>
<path d="M22.3525 30.5093L26.4101 34.5668L22.3525 38.6244L18.2949 34.5668L22.3525 30.5093ZM22.3525 30.3003L18.0859 34.5668L22.3525 38.8334L26.619 34.5668L22.3525 30.3003Z" fill="#F3FF97"/>
<path d="M22.8964 30.5005L18.7344 34.6626L22.8964 38.8246L27.0585 34.6626L22.8964 30.5005Z" fill="#030206"/>
<path d="M22.8837 30.5963L26.9413 34.6538L22.8837 38.7114L18.8262 34.6538L22.8837 30.5963ZM22.8837 30.396L18.6172 34.6625L22.8837 38.9291L27.1503 34.6625L22.8837 30.396Z" fill="#F3FF97"/>
<path d="M23.4277 30.562L19.2656 34.7241L23.4277 38.8861L27.5898 34.7241L23.4277 30.562Z" fill="#030206"/>
<path d="M23.4228 30.666L27.4804 34.7236L23.4228 38.7899L19.3652 34.7323L23.4228 30.666ZM23.4228 30.457L19.1562 34.7236L23.4228 38.9901L27.6894 34.7236L23.4228 30.457Z" fill="#F3FF97"/>
<path d="M23.9589 30.605L19.7969 34.767L23.9589 38.9291L28.121 34.767L23.9589 30.605Z" fill="#030206"/>
<path d="M23.9541 30.7008L28.0116 34.7583L23.9541 38.8159L19.8965 34.7583L23.9541 30.7008ZM23.9541 30.5005L19.6875 34.767L23.9541 39.0336L28.2206 34.767L23.9541 30.5005Z" fill="#F3FF97"/>
<path d="M24.498 30.6226L20.3359 34.7846L24.498 38.9467L28.6601 34.7846L24.498 30.6226Z" fill="#030206"/>
<path d="M24.4931 30.7183L28.5507 34.7759L24.4931 38.8335L20.4355 34.7759L24.4931 30.7096V30.7183ZM24.4931 30.5181L20.2266 34.7846L24.4931 39.0512L28.7597 34.7846L24.4931 30.5181Z" fill="#F3FF97"/>
<path d="M25.0293 30.605L20.8672 34.767L25.0293 38.9291L29.1913 34.767L25.0293 30.605Z" fill="#030206"/>
<path d="M25.04 30.7183L29.0976 34.7758L25.04 38.8421L20.9824 34.7845L25.04 30.7183ZM25.04 30.5093L20.7734 34.7758L25.04 39.0424L29.3065 34.7758L25.04 30.5093Z" fill="#F3FF97"/>
<path d="M25.5683 30.5791L21.4062 34.7412L25.5683 38.9032L29.7304 34.7412L25.5683 30.5791Z" fill="#030206"/>
<path d="M25.5634 30.6836L29.621 34.7412L25.5634 38.7987L21.5058 34.7412L25.5634 30.6836ZM25.5634 30.4746L21.2969 34.7412L25.5634 39.0077L29.83 34.7412L25.5634 30.4746Z" fill="#F3FF97"/>
<path d="M26.0996 30.5269L21.9375 34.6889L26.0996 38.851L30.2616 34.6889L26.0996 30.5269Z" fill="#030206"/>
<path d="M26.0947 30.6226L30.1523 34.6889L26.0947 38.7465L22.0371 34.6889L26.0947 30.6226ZM26.0947 30.4224L21.8281 34.6889L26.0947 38.9555L30.3612 34.6889L26.0947 30.4224Z" fill="#F3FF97"/>
<path d="M26.6308 30.4395L22.4688 34.6015L26.6308 38.7636L30.7929 34.6015L26.6308 30.4395Z" fill="#030206"/>
<path d="M26.6259 30.5444L30.6835 34.602L26.6259 38.6596L22.5683 34.602L26.6259 30.5444ZM26.6259 30.3354L22.3594 34.602L26.6259 38.8686L30.8925 34.602L26.6259 30.3354Z" fill="#F3FF97"/>
<path d="M27.1621 30.3354L23 34.4975L27.1621 38.6596L31.3241 34.4975L27.1621 30.3354Z" fill="#030206"/>
<path d="M27.1572 30.4394L31.2148 34.497L27.1572 38.5546L23.0996 34.497L27.1572 30.4394ZM27.1572 30.2305L22.8906 34.497L27.1572 38.7636L31.4237 34.497L27.1572 30.2305Z" fill="#F3FF97"/>
<path d="M27.6777 30.2046L23.5156 34.3667L27.6777 38.5287L31.8398 34.3667L27.6777 30.2046Z" fill="#030206"/>
<path d="M27.6806 30.3091L31.7382 34.3667L27.6806 38.4242L23.623 34.3667L27.6806 30.3091ZM27.6806 30.1001L23.4141 34.3667L27.6806 38.6332L31.9472 34.3667L27.6806 30.1001Z" fill="#F3FF97"/>
<path d="M28.1933 30.0479L24.0312 34.2099L28.1933 38.372L32.3554 34.2099L28.1933 30.0479Z" fill="#030206"/>
<path d="M28.2041 30.1524L32.2616 34.21L28.2041 38.2676L24.1465 34.21L28.2041 30.1524ZM28.2041 29.9521L23.9375 34.2187L28.2041 38.4853L32.4706 34.2187L28.2041 29.9521Z" fill="#F3FF97"/>
<path d="M28.7011 29.8735L24.5391 34.0356L28.7011 38.1977L32.8632 34.0356L28.7011 29.8735Z" fill="#030206"/>
<path d="M28.7041 29.978L32.7616 34.0356L28.7041 38.1019L24.6465 34.0443L28.7041 29.978ZM28.7041 29.769L24.4375 34.0356L28.7041 38.3021L32.9706 34.0356L28.7041 29.769Z" fill="#F3FF97"/>
<path d="M29.2246 29.6733L25.0625 33.8354L29.2246 37.9975L33.3866 33.8354L29.2246 29.6733Z" fill="#030206"/>
<path d="M29.2197 29.7691L33.2773 33.8267L29.2197 37.8843L25.1621 33.8267L29.2197 29.7691ZM29.2197 29.5688L24.9531 33.8354L29.2197 38.102L33.4862 33.8354L29.2197 29.5688Z" fill="#F3FF97"/>
<path d="M29.7246 29.4473L25.5625 33.6093L29.7246 37.7714L33.8866 33.6093L29.7246 29.4473Z" fill="#030206"/>
<path d="M29.7197 29.543L33.7773 33.6006L29.7197 37.6582L25.6621 33.6006L29.7197 29.543ZM29.7197 29.3428L25.4531 33.6093L29.7197 37.8759L33.9862 33.6093L29.7197 29.3428Z" fill="#F3FF97"/>
<path d="M30.2089 29.1943L26.0469 33.3564L30.2089 37.5185L34.371 33.3564L30.2089 29.1943Z" fill="#030206"/>
<path d="M30.2041 29.2993L34.2616 33.3569L30.2041 37.4145L26.1465 33.3569L30.2041 29.2993ZM30.2041 29.0903L25.9375 33.3569L30.2041 37.6234L34.4706 33.3569L30.2041 29.0903Z" fill="#F3FF97"/>
<path d="M30.6933 28.916L26.5312 33.0781L30.6933 37.2401L34.8554 33.0781L30.6933 28.916Z" fill="#030206"/>
<path d="M30.6806 29.0206L34.7382 33.0782L30.6806 37.1357L26.623 33.0782L30.6806 29.0206ZM30.6806 28.8203L26.4141 33.0869L30.6806 37.3534L34.9472 33.0869L30.6806 28.8203Z" fill="#F3FF97"/>
<path d="M31.1464 28.6201L26.9844 32.7822L31.1464 36.9442L35.3085 32.7822L31.1464 28.6201Z" fill="#030206"/>
<path d="M31.1494 28.7246L35.2069 32.7822L31.1494 36.8398L27.0918 32.7822L31.1494 28.7246ZM31.1494 28.5156L26.8828 32.7822L31.1494 37.0487L35.4159 32.7822L31.1494 28.5156Z" fill="#F3FF97"/>
<path d="M31.5996 28.2979L27.4375 32.4599L31.5996 36.622L35.7616 32.4599L31.5996 28.2979Z" fill="#030206"/>
<path d="M31.6025 28.3936L35.6601 32.4512L31.6025 36.5175L27.5449 32.4599L31.6025 28.3936ZM31.6025 28.1934L27.3359 32.4599L31.6025 36.7265L35.869 32.4599L31.6025 28.1934Z" fill="#F3FF97"/>
<path d="M32.0371 27.9492L27.875 32.1113L32.0371 36.2734L36.1991 32.1113L32.0371 27.9492Z" fill="#030206"/>
<path d="M32.0478 28.0455L36.1054 32.1031L32.0478 36.1606L27.9902 32.1031L32.0478 28.0455ZM32.0478 27.8452L27.7812 32.1118L32.0478 36.3783L36.3144 32.1118L32.0478 27.8452Z" fill="#F3FF97"/>
<path d="M32.4746 27.5752L28.3125 31.7373L32.4746 35.8993L36.6366 31.7373L32.4746 27.5752Z" fill="#030206"/>
<path d="M32.4775 27.6797L36.5351 31.7373L32.4775 35.7948L28.4199 31.7373L32.4775 27.6797ZM32.4775 27.4707L28.2109 31.7373L32.4775 36.0038L36.744 31.7373L32.4775 27.4707Z" fill="#F3FF97"/>
<path d="M32.8964 27.1743L28.7344 31.3364L32.8964 35.4984L37.0585 31.3364L32.8964 27.1743Z" fill="#030206"/>
<path d="M32.8994 27.2793L36.9569 31.3369L32.8994 35.3944L28.8418 31.3369L32.8994 27.2793ZM32.8994 27.0703L28.6328 31.3369L32.8994 35.6034L37.1659 31.3369L32.8994 27.0703Z" fill="#F3FF97"/>
</svg>
