<svg width="98" height="26" viewBox="0 0 98 26" fill="none" xmlns="http://www.w3.org/2000/svg">
<g clip-path="url(#clip0_6420_703)">
<path d="M19.1306 2.78516L15.8594 6.05639L19.1306 9.32761L22.4018 6.05639L19.1306 2.78516Z" fill="#030206"/>
<path d="M19.1268 2.86737L22.3159 6.05648L19.1268 9.24558L15.9377 6.05648L19.1268 2.86737ZM19.1268 2.70312L15.7734 6.05648L19.1268 9.40983L22.4801 6.05648L19.1268 2.70312Z" fill="#8A94A6"/>
<path d="M18.7947 2.47705L15.5234 5.74828L18.7947 9.01951L22.0659 5.74828L18.7947 2.47705Z" fill="#030206"/>
<path d="M18.7987 2.55927L21.9878 5.74837L18.7987 8.93748L15.6096 5.74837L18.7987 2.55927ZM18.7987 2.39502L15.4453 5.74837L18.7987 9.10172L22.152 5.74837L18.7987 2.39502Z" fill="#8A94A6"/>
<path d="M18.4665 2.18311L15.1953 5.45433L18.4665 8.72556L21.7378 5.45433L18.4665 2.18311Z" fill="#030206"/>
<path d="M18.4627 2.26532L21.6518 5.45443L18.4627 8.64353L15.2736 5.45443L18.4627 2.25848V2.26532ZM18.4627 2.10107L15.1094 5.45443L18.4627 8.80778L21.8161 5.45443L18.4627 2.10107Z" fill="#8A94A6"/>
<path d="M18.115 1.90918L14.8438 5.18041L18.115 8.45164L21.3862 5.18041L18.115 1.90918Z" fill="#030206"/>
<path d="M18.1034 1.99139L21.2925 5.1805L18.1034 8.36961L14.9142 5.1805L18.1034 1.99139ZM18.1034 1.82715L14.75 5.1805L18.1034 8.53385L21.4567 5.1805L18.1034 1.82715Z" fill="#8A94A6"/>
<path d="M17.7556 1.65625L14.4844 4.92748L17.7556 8.19871L21.0268 4.92748L17.7556 1.65625Z" fill="#030206"/>
<path d="M17.7518 1.73113L20.9409 4.92024L17.7518 8.10935L14.5627 4.92024L17.7518 1.73113ZM17.7518 1.57373L14.3984 4.92708L17.7518 8.28043L21.1051 4.92708L17.7518 1.57373Z" fill="#8A94A6"/>
<path d="M17.3806 1.4165L14.1094 4.68773L17.3806 7.95896L20.6518 4.68773L17.3806 1.4165Z" fill="#030206"/>
<path d="M17.3924 1.49871L20.5815 4.68782L17.3924 7.87692L14.2033 4.68782L17.3924 1.49871ZM17.3924 1.34131L14.0391 4.69466L17.3924 8.04801L20.7458 4.69466L17.3924 1.34131Z" fill="#8A94A6"/>
<path d="M17.0056 1.19775L13.7344 4.46898L17.0056 7.74021L20.2768 4.46898L17.0056 1.19775Z" fill="#030206"/>
<path d="M17.0174 1.27996L20.2065 4.46907L17.0174 7.65817L13.8283 4.46907L17.0174 1.27996ZM17.0174 1.12256L13.6641 4.47591L17.0174 7.82926L20.3708 4.47591L17.0174 1.12256Z" fill="#8A94A6"/>
<path d="M16.6228 1.00586L13.3516 4.27709L16.6228 7.54832L19.894 4.27709L16.6228 1.00586Z" fill="#030206"/>
<path d="M16.6346 1.08807L19.8237 4.27718L16.6346 7.46629L13.4455 4.27718L16.6346 1.08807ZM16.6346 0.923828L13.2812 4.27718L16.6346 7.63053L19.988 4.27718L16.6346 0.923828Z" fill="#8A94A6"/>
<path d="M16.2322 0.821289L12.9609 4.09252L16.2322 7.36375L19.5034 4.09252L16.2322 0.821289Z" fill="#030206"/>
<path d="M16.2362 0.91034L19.4253 4.09945L16.2362 7.28855L13.0471 4.09945L16.2362 0.91034ZM16.2362 0.746094L12.8828 4.09945L16.2362 7.4528L19.5895 4.09945L16.2362 0.746094Z" fill="#8A94A6"/>
<path d="M15.8337 0.664062L12.5625 3.93529L15.8337 7.20652L19.105 3.93529L15.8337 0.664062Z" fill="#030206"/>
<path d="M15.8377 0.746269L19.0268 3.93538L15.8377 7.13133L12.6486 3.94222L15.8377 0.746269ZM15.8377 0.588867L12.4844 3.94222L15.8377 7.29557L19.1911 3.94222L15.8377 0.588867Z" fill="#8A94A6"/>
<path d="M15.4353 0.526855L12.1641 3.79808L15.4353 7.06931L18.7065 3.79808L15.4353 0.526855Z" fill="#030206"/>
<path d="M15.4393 0.60907L18.6284 3.79818L15.4393 6.98728L12.2502 3.79818L15.4393 0.60907ZM15.4393 0.444824L12.0859 3.79818L15.4393 7.15153L18.7926 3.79818L15.4393 0.444824Z" fill="#8A94A6"/>
<path d="M15.029 0.403809L11.7578 3.67504L15.029 6.94627L18.3003 3.67504L15.029 0.403809Z" fill="#030206"/>
<path d="M15.0252 0.486015L18.2143 3.67512L15.0252 6.86423L11.8361 3.67512L15.0252 0.486015ZM15.0252 0.328613L11.6719 3.68197L15.0252 7.03532L18.3786 3.68197L15.0252 0.328613Z" fill="#8A94A6"/>
<path d="M14.615 0.308105L11.3438 3.57933L14.615 6.85056L17.8862 3.57933L14.615 0.308105Z" fill="#030206"/>
<path d="M14.619 0.383476L17.8081 3.57258L14.619 6.76853L11.4299 3.57943L14.619 0.383476ZM14.619 0.226074L11.2656 3.57943L14.619 6.93278L17.9723 3.57943L14.619 0.226074Z" fill="#8A94A6"/>
<path d="M14.2009 0.219238L10.9297 3.49047L14.2009 6.7617L17.4721 3.49047L14.2009 0.219238Z" fill="#030206"/>
<path d="M14.1971 0.300957L17.3862 3.49006L14.1971 6.67917L11.008 3.49006L14.1971 0.300957ZM14.1971 0.143555L10.8438 3.49691L14.1971 6.85026L17.5505 3.49691L14.1971 0.143555Z" fill="#8A94A6"/>
<path d="M13.7869 0.157227L10.5156 3.42846L13.7869 6.69969L17.0581 3.42846L13.7869 0.157227Z" fill="#030206"/>
<path d="M13.783 0.239441L16.9721 3.42855L13.783 6.61765L10.5939 3.42855L13.783 0.239441ZM13.783 0.0751953L10.4297 3.42855L13.783 6.7819L17.1364 3.42855L13.783 0.0751953Z" fill="#8A94A6"/>
<path d="M13.365 0.116211L10.0938 3.38744L13.365 6.65867L16.6362 3.38744L13.365 0.116211Z" fill="#030206"/>
<path d="M13.369 0.191582L16.5581 3.38069L13.369 6.57664L10.1799 3.38753L13.369 0.191582ZM13.369 0.0341797L10.0156 3.38753L13.369 6.74088L16.7223 3.38753L13.369 0.0341797Z" fill="#8A94A6"/>
<path d="M12.9509 0.0888672L9.67969 3.3601L12.9509 6.63133L16.2221 3.3601L12.9509 0.0888672Z" fill="#030206"/>
<path d="M12.9471 0.164238L16.1362 3.35334L12.9471 6.54245L9.758 3.35334L12.9471 0.164238ZM12.9471 0.00683594L9.59375 3.36019L12.9471 6.71354L16.3005 3.36019L12.9471 0.00683594Z" fill="#8A94A6"/>
<path d="M12.5212 0.0820312L9.25 3.35326L12.5212 6.62449L15.7925 3.35326L12.5212 0.0820312Z" fill="#030206"/>
<path d="M12.5252 0.164246L15.7143 3.35335L12.5252 6.54246L9.33612 3.35335L12.5252 0.164246ZM12.5252 0L9.17188 3.35335L12.5252 6.7067L15.8786 3.35335L12.5252 0Z" fill="#8A94A6"/>
<path d="M12.0994 0.0957031L8.82812 3.36693L12.0994 6.63816L15.3706 3.36693L12.0994 0.0957031Z" fill="#030206"/>
<path d="M12.0955 0.177918L15.2846 3.36702L12.0955 6.55613L8.90643 3.36702L12.0955 0.177918ZM12.0955 0.0136719L8.74219 3.36702L12.0955 6.72038L15.4489 3.36702L12.0955 0.0136719Z" fill="#8A94A6"/>
<path d="M11.6853 0.123047L8.41406 3.39428L11.6853 6.66551L14.9565 3.39428L11.6853 0.123047Z" fill="#030206"/>
<path d="M11.6815 0.205254L14.8706 3.39436L11.6815 6.58347L8.49237 3.39436L11.6815 0.205254ZM11.6815 0.0478516L8.32812 3.4012L11.6815 6.75456L15.0348 3.4012L11.6815 0.0478516Z" fill="#8A94A6"/>
<path d="M11.2556 0.178223L7.98438 3.44945L11.2556 6.72068L14.5268 3.44945L11.2556 0.178223Z" fill="#030206"/>
<path d="M11.2596 0.259949L14.4487 3.44906L11.2596 6.63816L8.0705 3.44906L11.2596 0.259949ZM11.2596 0.0957031L7.90625 3.44906L11.2596 6.80241L14.613 3.44906L11.2596 0.0957031Z" fill="#8A94A6"/>
<path d="M10.8494 0.246582L7.57812 3.51781L10.8494 6.78904L14.1206 3.51781L10.8494 0.246582Z" fill="#030206"/>
<path d="M10.8377 0.328308L14.0268 3.51741L10.8377 6.70652L7.64862 3.51741L10.8377 0.328308ZM10.8377 0.164062L7.48438 3.51741L10.8377 6.87077L14.1911 3.51741L10.8377 0.164062Z" fill="#8A94A6"/>
<path d="M10.4275 0.335449L7.15625 3.60668L10.4275 6.87791L13.6987 3.60668L10.4275 0.335449Z" fill="#030206"/>
<path d="M10.4315 0.417664L13.6206 3.60677L10.4315 6.79588L7.24237 3.60677L10.4315 0.417664ZM10.4315 0.253418L7.07812 3.60677L10.4315 6.96012L13.7848 3.60677L10.4315 0.253418Z" fill="#8A94A6"/>
<path d="M10.0212 0.444824L6.75 3.71605L10.0212 6.98728L13.2925 3.71605L10.0212 0.444824Z" fill="#030206"/>
<path d="M10.0174 0.527039L13.2065 3.71615L10.0174 6.90525L6.82831 3.71615L10.0174 0.527039ZM10.0174 0.362793L6.66406 3.71615L10.0174 7.0695L13.3708 3.71615L10.0174 0.362793Z" fill="#8A94A6"/>
<path d="M9.61498 0.574707L6.34375 3.84594L9.61498 7.11717L12.8862 3.84594L9.61498 0.574707Z" fill="#030206"/>
<path d="M9.61898 0.650078L12.8081 3.83918L9.61898 7.03513L6.42987 3.84603L9.61898 0.650078ZM9.61898 0.492676L6.26562 3.84603L9.61898 7.19938L12.9723 3.84603L9.61898 0.492676Z" fill="#8A94A6"/>
<path d="M9.21654 0.71875L5.94531 3.98998L9.21654 7.26121L12.4878 3.98998L9.21654 0.71875Z" fill="#030206"/>
<path d="M9.22054 0.794121L12.4096 3.98323L9.22054 7.17233L6.03143 3.98323L9.22054 0.794121ZM9.22054 0.636719L5.86719 3.99007L9.22054 7.34342L12.5739 3.99007L9.22054 0.636719Z" fill="#8A94A6"/>
<path d="M8.8181 0.882812L5.54688 4.15404L8.8181 7.42527L12.0893 4.15404L8.8181 0.882812Z" fill="#030206"/>
<path d="M8.8221 0.965019L12.0112 4.15413L8.8221 7.34323L5.633 4.15413L8.8221 0.965019ZM8.8221 0.807617L5.46875 4.16097L8.8221 7.51432L12.1755 4.16097L8.8221 0.807617Z" fill="#8A94A6"/>
<path d="M8.42748 1.06738L5.15625 4.33861L8.42748 7.60984L11.6987 4.33861L8.42748 1.06738Z" fill="#030206"/>
<path d="M8.43148 1.1496L11.6274 4.3387L8.43832 7.52781L5.24237 4.3387L8.43148 1.1496ZM8.43148 0.985352L5.07812 4.3387L8.43148 7.69206L11.7848 4.3387L8.43148 0.985352Z" fill="#8A94A6"/>
<path d="M8.04467 1.27295L4.77344 4.54418L8.04467 7.81541L11.3159 4.54418L8.04467 1.27295Z" fill="#030206"/>
<path d="M8.04866 1.34832L11.2378 4.53743L8.04866 7.72653L4.85956 4.53743L8.04866 1.34832ZM8.04866 1.19092L4.69531 4.54427L8.04866 7.89762L11.402 4.54427L8.04866 1.19092Z" fill="#8A94A6"/>
<path d="M7.67748 1.4917L4.40625 4.76293L7.67748 8.03416L10.9487 4.76293L7.67748 1.4917Z" fill="#030206"/>
<path d="M7.68148 1.57391L10.8706 4.76301L7.68148 7.95896L4.49237 4.76986L7.68148 1.57391ZM7.68148 1.4165L4.32812 4.76986L7.68148 8.12321L11.0348 4.76986L7.68148 1.4165Z" fill="#8A94A6"/>
<path d="M7.31029 1.73828L4.03906 5.00951L7.31029 8.28074L10.5815 5.00951L7.31029 1.73828Z" fill="#030206"/>
<path d="M7.30648 1.8205L10.4956 5.0096L7.30648 8.19871L4.11737 5.0096L7.30648 1.8205ZM7.30648 1.65625L3.95312 5.0096L7.30648 8.36295L10.6598 5.0096L7.29963 1.65625H7.30648Z" fill="#8A94A6"/>
<path d="M6.95092 1.99854L3.67969 5.26976L6.95092 8.54099L10.2221 5.26976L6.95092 1.99854Z" fill="#030206"/>
<path d="M6.96273 2.08026L10.1518 5.26937L6.96273 8.46532L3.77362 5.27621L6.96273 2.08026ZM6.96273 1.91602L3.60938 5.26937L6.96273 8.62272L10.3161 5.26937L6.96273 1.91602Z" fill="#8A94A6"/>
<path d="M6.60717 2.27881L3.33594 5.55004L6.60717 8.82127L9.8784 5.55004L6.60717 2.27881Z" fill="#030206"/>
<path d="M6.61116 2.36102L9.80027 5.55013L6.61116 8.73924L3.42206 5.55013L6.61116 2.36102ZM6.61116 2.19678L3.25781 5.55013L6.61116 8.90348L9.96452 5.55013L6.61116 2.19678Z" fill="#8A94A6"/>
<path d="M6.27123 2.58008L3 5.85131L6.27123 9.12254L9.54246 5.85131L6.27123 2.58008Z" fill="#030206"/>
<path d="M6.27523 2.65545L9.46433 5.84456L6.27523 9.04051L3.08612 5.8514L6.27523 2.65545ZM6.27523 2.49805L2.92188 5.8514L6.27523 9.20475L9.62858 5.8514L6.27523 2.49805Z" fill="#8A94A6"/>
<path d="M5.95092 2.89502L2.67969 6.16625L5.95092 9.43748L9.22215 6.16625L5.95092 2.89502Z" fill="#030206"/>
<path d="M5.95491 2.97674L9.14402 6.16584L5.95491 9.35495L2.76581 6.16584L5.95491 2.97674ZM5.95491 2.81934L2.60156 6.17269L5.95491 9.52604L9.30827 6.17269L5.95491 2.81934Z" fill="#8A94A6"/>
<path d="M5.64623 3.22314L2.375 6.49437L5.64623 9.7656L8.91746 6.49437L5.64623 3.22314Z" fill="#030206"/>
<path d="M5.65023 3.30535L8.83933 6.49446L5.65023 9.69041L2.46112 6.5013L5.65023 3.30535ZM5.65023 3.14795L2.29688 6.5013L5.65023 9.85465L9.00358 6.5013L5.65023 3.14795Z" fill="#8A94A6"/>
<path d="M5.35717 3.57227L2.08594 6.84349L5.35717 10.1147L8.6284 6.84349L5.35717 3.57227Z" fill="#030206"/>
<path d="M5.35335 3.65448L8.54246 6.84359L5.35335 10.0327L2.16425 6.84359L5.35335 3.65448ZM5.35335 3.49023L2 6.84359L5.35335 10.1969L8.7067 6.84359L5.35335 3.49023Z" fill="#8A94A6"/>
<path d="M5.09154 3.92139L1.82031 7.19262L5.09154 10.4638L8.36277 7.19262L5.09154 3.92139Z" fill="#030206"/>
<path d="M5.08773 4.0036L8.27683 7.19271L5.08773 10.3818L1.89862 7.19271L5.08773 4.0036ZM5.08773 3.83936L1.73438 7.19271L5.08773 10.5461L8.44108 7.19271L5.08773 3.83936Z" fill="#8A94A6"/>
<path d="M4.84154 4.28418L1.57031 7.55541L4.84154 10.8266L8.11277 7.55541L4.84154 4.28418Z" fill="#030206"/>
<path d="M4.84554 4.36591L8.03465 7.55501L4.84554 10.7441L1.65643 7.55501L4.84554 4.36591ZM4.84554 4.20166L1.49219 7.55501L4.84554 10.9084L8.19889 7.55501L4.84554 4.20166Z" fill="#8A94A6"/>
<path d="M4.61498 4.65381L1.34375 7.92504L4.61498 11.1963L7.88621 7.92504L4.61498 4.65381Z" fill="#030206"/>
<path d="M4.61116 4.73602L7.80027 7.92513L4.61116 11.1142L1.42206 7.92513L4.61116 4.73602ZM4.61116 4.57178L1.25781 7.92513L4.61116 11.2785L7.96452 7.92513L4.61116 4.57178Z" fill="#8A94A6"/>
<path d="M4.39623 5.03711L1.125 8.30834L4.39623 11.5796L7.66746 8.30834L4.39623 5.03711Z" fill="#030206"/>
<path d="M4.40023 5.11199L7.58933 8.3011L4.40023 11.4902L1.21112 8.3011L4.40023 5.11199ZM4.40023 4.95459L1.04688 8.30794L4.40023 11.6613L7.75358 8.30794L4.40023 4.95459Z" fill="#8A94A6"/>
<path d="M4.20873 5.41992L0.9375 8.69115L4.20873 11.9624L7.47996 8.69115L4.20873 5.41992Z" fill="#030206"/>
<path d="M4.21176 5.50214L7.40086 8.69124L4.21176 11.8803L1.01581 8.69124L4.20491 5.50214H4.21176ZM4.21176 5.33789L0.851562 8.69809L4.20491 12.0514L7.55827 8.69809L4.20491 5.34473L4.21176 5.33789Z" fill="#8A94A6"/>
<path d="M4.04467 5.81006L0.773438 9.08129L4.04467 12.3525L7.3159 9.08129L4.04467 5.81006Z" fill="#030206"/>
<path d="M4.04085 5.89227L7.22996 9.08138L4.04085 12.2705L0.844902 9.08138L4.04085 5.89227ZM4.04085 5.72803L0.6875 9.08138L4.04085 12.4347L7.3942 9.08138L4.04085 5.72803Z" fill="#8A94A6"/>
<path d="M3.88842 6.20703L0.617188 9.47826L3.88842 12.7495L7.15965 9.47826L3.88842 6.20703Z" fill="#030206"/>
<path d="M3.8846 6.29608L7.07371 9.48519L3.8846 12.6743L0.688652 9.48519L3.8846 6.29608ZM3.8846 6.13184L0.53125 9.48519L3.8846 12.8385L7.23795 9.48519L3.8846 6.13184Z" fill="#8A94A6"/>
<path d="M3.75464 6.61768L0.476562 9.8889L3.74779 13.1601L7.01902 9.8889L3.74779 6.61768H3.75464Z" fill="#030206"/>
<path d="M3.75179 6.69305L6.9409 9.88215L3.75179 13.0713L0.562683 9.88215L3.75179 6.69305ZM3.75179 6.53564L0.398438 9.889L3.75179 13.2423L7.10514 9.889L3.75179 6.53564Z" fill="#8A94A6"/>
<path d="M3.63745 7.02148L0.359375 10.2996L3.6306 13.5708L6.90183 10.2996L3.6306 7.02833L3.63745 7.02148Z" fill="#030206"/>
<path d="M3.64241 7.1037L6.83152 10.2928L3.64241 13.4819L0.446465 10.2996L3.63557 7.11054L3.64241 7.1037ZM3.64241 6.93945L0.289062 10.2996L3.64241 13.653L6.99577 10.2996L3.64241 6.9463V6.93945Z" fill="#8A94A6"/>
<path d="M3.54467 7.43896L0.273438 10.7102L3.54467 13.9814L6.8159 10.7102L3.54467 7.43896Z" fill="#030206"/>
<path d="M3.54866 7.52118L6.73777 10.7103L3.54866 13.9062L0.359558 10.7103L3.54866 7.52118ZM3.54866 7.35693L0.195312 10.7103L3.54866 14.0636L6.90202 10.7103L3.54866 7.35693Z" fill="#8A94A6"/>
<path d="M3.47435 7.85645L0.203125 11.1277L3.47435 14.3989L6.74558 11.1277L3.47435 7.85645Z" fill="#030206"/>
<path d="M3.47054 7.93182L6.65965 11.1209L3.47054 14.31L0.27459 11.1278L3.4637 7.93866L3.47054 7.93182ZM3.47054 7.77441L0.117188 11.1278L3.47054 14.4811L6.82389 11.1278L3.47054 7.77441Z" fill="#8A94A6"/>
<path d="M3.4187 8.26709L0.140625 11.5452L3.41185 14.8164L6.68308 11.5452L3.41185 8.27393L3.4187 8.26709Z" fill="#030206"/>
<path d="M3.41488 8.3493L6.60399 11.5384L3.41488 14.7275L0.218933 11.5452L3.40804 8.35614L3.41488 8.3493ZM3.41488 8.19189L0.0546875 11.5452L3.40804 14.8986L6.76139 11.5452L3.40804 8.19189H3.41488Z" fill="#8A94A6"/>
<path d="M3.37279 8.69141L0.101562 11.9626L3.37279 15.2339L6.64402 11.9626L3.37279 8.69141Z" fill="#030206"/>
<path d="M3.37679 8.77362L6.5659 11.9627L3.37679 15.1587L0.187683 11.9696L3.37679 8.77362ZM3.37679 8.60938L0.0234375 11.9696L3.37679 15.3229L6.73014 11.9696L3.37679 8.61622V8.60938Z" fill="#8A94A6"/>
<path d="M3.35717 9.10889L0.0859375 12.387L3.35717 15.6582L6.6284 12.387L3.35717 9.11573V9.10889Z" fill="#030206"/>
<path d="M3.35335 9.19109L6.54246 12.3802L3.35335 15.5693L0.164246 12.387L3.35335 9.19794V9.19109ZM3.35335 9.03369L0 12.387L3.35335 15.7404L6.7067 12.387L3.35335 9.03369Z" fill="#8A94A6"/>
<path d="M3.35717 9.5332L0.0859375 12.8113L3.35717 16.0825L6.6284 12.8113L3.35717 9.54005V9.5332Z" fill="#030206"/>
<path d="M3.35335 9.61493L6.54246 12.804L3.35335 15.9931L0.164246 12.804L3.35335 9.61493ZM3.35335 9.45068L0 12.8109L3.35335 16.1642L6.7067 12.8109L3.35335 9.45753V9.45068Z" fill="#8A94A6"/>
<path d="M3.37182 9.95068L0.09375 13.2288L3.36498 16.5L6.63621 13.2288L3.36498 9.95753L3.37182 9.95068Z" fill="#030206"/>
<path d="M3.37679 10.0329L6.5659 13.222L3.37679 16.4111L0.187683 13.2288L3.37679 10.0397V10.0329ZM3.37679 9.87549L0.0234375 13.2288L3.37679 16.5822L6.73014 13.2288L3.37679 9.87549Z" fill="#8A94A6"/>
<path d="M3.41185 10.375L0.140625 13.6462L3.41185 16.9175L6.68308 13.6462L3.41185 10.375Z" fill="#030206"/>
<path d="M3.41488 10.4572L6.60399 13.6463L3.41488 16.8354L0.218933 13.6463L3.40804 10.4572H3.41488ZM3.41488 10.293L0.0546875 13.6463L3.40804 16.9997L6.76139 13.6463L3.40804 10.293H3.41488Z" fill="#8A94A6"/>
<path d="M3.47339 10.7925L0.195312 14.0637L3.46654 17.3349L6.73777 14.0637L3.46654 10.7925H3.47339Z" fill="#030206"/>
<path d="M3.47054 10.8742L6.65965 14.0633L3.47054 17.2524L0.27459 14.0633L3.4637 10.8742H3.47054ZM3.47054 10.71L0.117188 14.0633L3.47054 17.4167L6.82389 14.0633L3.47054 10.71Z" fill="#8A94A6"/>
<path d="M3.54467 11.21L0.273438 14.4812L3.54467 17.7524L6.8159 14.4812L3.54467 11.21Z" fill="#030206"/>
<path d="M3.54866 11.2848L6.73777 14.4739L3.54866 17.6631L0.359558 14.4808L3.54866 11.2848ZM3.54866 11.1274L0.195312 14.4808L3.54866 17.8341L6.90202 14.4808L3.54866 11.1274Z" fill="#8A94A6"/>
<path d="M3.63842 11.6206L0.367188 14.8987L3.63842 18.1699L6.90965 14.8987L3.63842 11.6274V11.6206Z" fill="#030206"/>
<path d="M3.64241 11.7023L6.83152 14.8914L3.64241 18.0805L0.446465 14.8914L3.63557 11.7023H3.64241ZM3.64241 11.5449L0.289062 14.8983L3.64241 18.2516L6.99577 14.8983L3.64241 11.5449Z" fill="#8A94A6"/>
<path d="M3.74779 12.0308L0.476562 15.302L3.74779 18.5732L7.01902 15.302L3.74779 12.0308Z" fill="#030206"/>
<path d="M3.75179 12.113L6.9409 15.3021L3.75179 18.498L0.562683 15.3089L3.75179 12.113ZM3.75179 11.9487L0.398438 15.3089L3.75179 18.6623L7.10514 15.3089L3.75179 11.9556V11.9487Z" fill="#8A94A6"/>
<path d="M3.88842 12.4346L0.617188 15.7058L3.88842 18.977L7.15965 15.7058L3.88842 12.4346Z" fill="#030206"/>
<path d="M3.8846 12.5099L7.07371 15.699L3.8846 18.8882L0.688652 15.699L3.8846 12.5031V12.5099ZM3.8846 12.3525L0.53125 15.7059L3.8846 19.0592L7.23795 15.7059L3.8846 12.3525Z" fill="#8A94A6"/>
<path d="M4.04467 12.8315L0.773438 16.1028L4.04467 19.374L7.3159 16.1028L4.04467 12.8315Z" fill="#030206"/>
<path d="M4.04085 12.9138L7.22996 16.1029L4.04085 19.292L0.844902 16.1029L4.04085 12.9138ZM4.04085 12.7495L0.6875 16.1029L4.04085 19.4562L7.3942 16.1029L4.04085 12.7495Z" fill="#8A94A6"/>
<path d="M4.21654 13.2285L0.945312 16.4997L4.21654 19.771L7.48777 16.4997L4.21654 13.2285Z" fill="#030206"/>
<path d="M4.21273 13.3039L7.40183 16.493L4.21273 19.6821L1.02362 16.493L4.21273 13.3039ZM4.21273 13.1465L0.859375 16.4998L4.21273 19.8532L7.56608 16.4998L4.21273 13.1465Z" fill="#8A94A6"/>
<path d="M4.39623 13.6118L1.125 16.883L4.39623 20.1543L7.66746 16.883L4.39623 13.6118Z" fill="#030206"/>
<path d="M4.40023 13.694L7.58933 16.8831L4.40023 20.0722L1.21112 16.8831L4.40023 13.694ZM4.40023 13.5298L1.04688 16.8831L4.40023 20.2365L7.75358 16.8831L4.40023 13.5298Z" fill="#8A94A6"/>
<path d="M4.61498 13.9883L1.34375 17.2595L4.61498 20.5307L7.88621 17.2595L4.61498 13.9883Z" fill="#030206"/>
<path d="M4.61116 14.0705L7.80027 17.2596L4.61116 20.4487L1.42206 17.2596L4.61116 14.0705ZM4.61116 13.9131L1.25781 17.2664L4.61116 20.6198L7.96452 17.2664L4.61116 13.9131Z" fill="#8A94A6"/>
<path d="M4.84154 14.3647L1.57031 17.636L4.84154 20.9072L8.11277 17.636L4.84154 14.3647Z" fill="#030206"/>
<path d="M4.84554 14.4401L8.03465 17.6292L4.84554 20.8183L1.65643 17.6292L4.84554 14.4401ZM4.84554 14.2827L1.49219 17.6361L4.84554 20.9894L8.19889 17.6361L4.84554 14.2827Z" fill="#8A94A6"/>
<path d="M5.09154 14.7207L1.82031 17.9919L5.09154 21.2632L8.36277 17.9919L5.09154 14.7207Z" fill="#030206"/>
<path d="M5.08773 14.8024L8.27683 17.9915L5.08773 21.1875L1.89862 17.9984L5.08773 14.8024ZM5.08773 14.645L1.73438 17.9984L5.08773 21.3517L8.44108 17.9984L5.08773 14.645Z" fill="#8A94A6"/>
<path d="M5.35717 15.0767L2.08594 18.3479L5.35717 21.6191L8.6284 18.3479L5.35717 15.0767Z" fill="#030206"/>
<path d="M5.35335 15.1584L8.54246 18.3475L5.35335 21.5366L2.16425 18.3475L5.35335 15.1584ZM5.35335 14.9941L2 18.3475L5.35335 21.7008L8.7067 18.3475L5.35335 14.9941Z" fill="#8A94A6"/>
<path d="M5.64623 15.4185L2.375 18.6897L5.64623 21.9609L8.91746 18.6897L5.64623 15.4185Z" fill="#030206"/>
<path d="M5.65023 15.5007L8.83933 18.6898L5.65023 21.8789L2.46112 18.6898L5.65023 15.5007ZM5.65023 15.3364L2.29688 18.6898L5.65023 22.0431L9.00358 18.6898L5.65023 15.3364Z" fill="#8A94A6"/>
<path d="M5.95092 15.7471L2.67969 19.0183L5.95092 22.2895L9.22215 19.0183L5.95092 15.7471Z" fill="#030206"/>
<path d="M5.95491 15.8293L9.14402 19.0184L5.95491 22.2143L2.76581 19.0252L5.95491 15.8293ZM5.95491 15.6719L2.60156 19.0252L5.95491 22.3786L9.30827 19.0252L5.95491 15.6719Z" fill="#8A94A6"/>
<path d="M6.27123 16.0688L3 19.3401L6.27123 22.6113L9.54246 19.3401L6.27123 16.0688Z" fill="#030206"/>
<path d="M6.27523 16.1506L9.46433 19.3397L6.27523 22.5356L3.08612 19.3465L6.27523 16.1506ZM6.27523 15.9863L2.92188 19.3397L6.27523 22.693L9.62858 19.3397L6.27523 15.9863Z" fill="#8A94A6"/>
<path d="M6.60717 16.3633L3.33594 19.6345L6.60717 22.9057L9.8784 19.6345L6.60717 16.3633Z" fill="#030206"/>
<path d="M6.61116 16.4518L9.80027 19.6409L6.61116 22.8301L3.42206 19.6409L6.61116 16.4518ZM6.61116 16.2876L3.25781 19.6409L6.61116 22.9943L9.96452 19.6409L6.61116 16.2876Z" fill="#8A94A6"/>
<path d="M6.95873 16.6436L3.6875 19.9148L6.95873 23.186L10.23 19.9148L6.95873 16.6436Z" fill="#030206"/>
<path d="M6.96273 16.7258L10.1518 19.9149L6.96273 23.1108L3.77362 19.9217L6.96273 16.7258ZM6.96273 16.5684L3.60938 19.9217L6.96273 23.2751L10.3161 19.9217L6.96273 16.5684Z" fill="#8A94A6"/>
<path d="M7.31029 16.9106L4.03906 20.1819L7.31029 23.4531L10.5815 20.1819L7.31029 16.9106Z" fill="#030206"/>
<path d="M7.30648 16.986L10.4956 20.1751L7.30648 23.3642L4.11737 20.1751L7.30648 16.986ZM7.30648 16.8286L3.95312 20.182L7.30648 23.5353L10.6598 20.182L7.29963 16.8286H7.30648Z" fill="#8A94A6"/>
<path d="M7.67748 17.1499L4.40625 20.4211L7.67748 23.6924L10.9487 20.4211L7.67748 17.1499Z" fill="#030206"/>
<path d="M7.68148 17.2321L10.8706 20.4212L7.68148 23.6172L4.49237 20.4281L7.68148 17.2321ZM7.68148 17.0747L4.32812 20.4281L7.68148 23.7814L11.0348 20.4281L7.68148 17.0747Z" fill="#8A94A6"/>
<path d="M8.04467 17.376L4.77344 20.6472L8.04467 23.9184L11.3159 20.6472L8.04467 17.376Z" fill="#030206"/>
<path d="M8.04866 17.4582L11.2378 20.6473L8.04866 23.8364L4.85956 20.6473L8.04866 17.4582ZM8.04866 17.2939L4.69531 20.6473L8.04866 24.0006L11.402 20.6473L8.04866 17.2939Z" fill="#8A94A6"/>
<path d="M8.42748 17.5811L5.15625 20.8523L8.42748 24.1235L11.6987 20.8523L8.42748 17.5811Z" fill="#030206"/>
<path d="M8.43148 17.6564L11.6274 20.8524L8.43832 24.0415L5.24237 20.8524L8.43148 17.6564ZM8.43148 17.499L5.07812 20.8524L8.43148 24.2057L11.7848 20.8524L8.42463 17.499H8.43148Z" fill="#8A94A6"/>
<path d="M8.8181 17.7593L5.54688 21.0305L8.8181 24.3017L12.0893 21.0305L8.8181 17.7593Z" fill="#030206"/>
<path d="M8.8221 17.841L12.0112 21.0301L8.8221 24.2261L5.633 21.0369L8.8221 17.841ZM8.8221 17.6836L5.46875 21.0369L8.8221 24.3903L12.1755 21.0369L8.8221 17.6836Z" fill="#8A94A6"/>
<path d="M9.20873 17.9233L5.9375 21.1946L9.20873 24.4658L12.48 21.1946L9.20873 17.9233Z" fill="#030206"/>
<path d="M9.22054 18.0124L12.4096 21.2015L9.22054 24.3906L6.03143 21.2015L9.22054 18.0124ZM9.22054 17.8481L5.86719 21.2015L9.22054 24.5548L12.5739 21.2015L9.22054 17.8481Z" fill="#8A94A6"/>
<path d="M9.61498 18.0737L6.34375 21.345L9.61498 24.6162L12.8862 21.345L9.61498 18.0737Z" fill="#030206"/>
<path d="M9.61898 18.1559L12.8081 21.3451L9.61898 24.541L6.42987 21.3519L9.61898 18.1559ZM9.61898 17.9917L6.26562 21.3451L9.61898 24.6984L12.9723 21.3451L9.61898 17.9917Z" fill="#8A94A6"/>
<path d="M10.0212 18.2036L6.75 21.4748L10.0212 24.7461L13.2925 21.4748L10.0212 18.2036Z" fill="#030206"/>
<path d="M10.0174 18.279L13.2065 21.4681L10.0174 24.6572L6.82831 21.4681L10.0174 18.279ZM10.0174 18.1216L6.66406 21.4749L10.0174 24.8283L13.3708 21.4749L10.0174 18.1216Z" fill="#8A94A6"/>
<path d="M10.4275 18.3135L7.15625 21.5847L10.4275 24.8559L13.6987 21.5847L10.4275 18.3135Z" fill="#030206"/>
<path d="M10.4315 18.3888L13.6206 21.578L10.4315 24.7671L7.24237 21.578L10.4315 18.3888ZM10.4315 18.2314L7.07812 21.5848L10.4315 24.9381L13.7848 21.5848L10.4315 18.2314Z" fill="#8A94A6"/>
<path d="M10.8415 18.4023L7.57031 21.6736L10.8415 24.9448L14.1128 21.6736L10.8415 18.4023Z" fill="#030206"/>
<path d="M10.8377 18.4777L14.0268 21.6668L10.8377 24.8559L7.64862 21.6668L10.8377 18.4777ZM10.8377 18.3135L7.48438 21.6668L10.8377 25.0202L14.1911 21.6668L10.8377 18.3135Z" fill="#8A94A6"/>
<path d="M11.2634 18.4707L7.99219 21.7419L11.2634 25.0132L14.5346 21.7419L11.2634 18.4707Z" fill="#030206"/>
<path d="M11.2596 18.5461L14.4487 21.7352L11.2596 24.9243L8.0705 21.7352L11.2596 18.5461ZM11.2596 18.3887L7.90625 21.742L11.2596 25.0954L14.613 21.742L11.2596 18.3887Z" fill="#8A94A6"/>
<path d="M11.6853 18.5186L8.41406 21.7898L11.6853 25.061L14.9565 21.7898L11.6853 18.5186Z" fill="#030206"/>
<path d="M11.6815 18.6008L14.8706 21.7899L11.6815 24.9858L8.49237 21.7967L11.6815 18.6008ZM11.6815 18.4365L8.32812 21.7899L11.6815 25.1432L15.0348 21.7899L11.6815 18.4365Z" fill="#8A94A6"/>
<path d="M12.0994 18.5532L8.82812 21.8245L12.0994 25.0957L15.3706 21.8245L12.0994 18.5532Z" fill="#030206"/>
<path d="M12.0955 18.6281L15.2846 21.8172L12.0955 25.0063L8.90643 21.8172L12.0955 18.6281ZM12.0955 18.4707L8.74219 21.8241L12.0955 25.1774L15.4489 21.8241L12.0955 18.4707Z" fill="#8A94A6"/>
<path d="M12.5212 18.5664L9.25 21.8376L12.5212 25.1089L15.7925 21.8376L12.5212 18.5664Z" fill="#030206"/>
<path d="M12.5252 18.6418L15.7143 21.8309L12.5252 25.02L9.33612 21.8309L12.5252 18.6349V18.6418ZM12.5252 18.4844L9.17188 21.8377L12.5252 25.1911L15.8786 21.8377L12.5252 18.4844Z" fill="#8A94A6"/>
<path d="M12.9431 18.5532L9.67188 21.8245L12.9431 25.0957L16.2143 21.8245L12.9431 18.5532Z" fill="#030206"/>
<path d="M12.9471 18.6418L16.1362 21.8309L12.9471 25.0268L9.758 21.8377L12.9471 18.6418ZM12.9471 18.4775L9.59375 21.8309L12.9471 25.1842L16.3005 21.8309L12.9471 18.4775Z" fill="#8A94A6"/>
<path d="M13.365 18.5322L10.0938 21.8035L13.365 25.0747L16.6362 21.8035L13.365 18.5322Z" fill="#030206"/>
<path d="M13.369 18.6144L16.5581 21.8035L13.369 24.9927L10.1799 21.8035L13.369 18.6144ZM13.369 18.4502L10.0156 21.8035L13.369 25.1569L16.7223 21.8035L13.369 18.4502Z" fill="#8A94A6"/>
<path d="M13.7869 18.4912L10.5156 21.7624L13.7869 25.0337L17.0581 21.7624L13.7869 18.4912Z" fill="#030206"/>
<path d="M13.783 18.5666L16.9721 21.7625L13.783 24.9516L10.5939 21.7625L13.783 18.5666ZM13.783 18.4092L10.4297 21.7625L13.783 25.1159L17.1364 21.7625L13.783 18.4092Z" fill="#8A94A6"/>
<path d="M14.2009 18.4229L10.9297 21.6941L14.2009 24.9653L17.4721 21.6941L14.2009 18.4229Z" fill="#030206"/>
<path d="M14.1971 18.5051L17.3862 21.6942L14.1971 24.8833L11.008 21.6942L14.1971 18.5051ZM14.1971 18.3408L10.8438 21.6942L14.1971 25.0475L17.5505 21.6942L14.1971 18.3408Z" fill="#8A94A6"/>
<path d="M14.615 18.3408L11.3438 21.612L14.615 24.8833L17.8862 21.612L14.615 18.3408Z" fill="#030206"/>
<path d="M14.619 18.423L17.8081 21.6121L14.619 24.8012L11.4299 21.6121L14.619 18.423ZM14.619 18.2588L11.2656 21.6121L14.619 24.9655L17.9723 21.6121L14.619 18.2588Z" fill="#8A94A6"/>
<path d="M15.029 18.2383L11.7578 21.5095L15.029 24.7807L18.3003 21.5095L15.029 18.2383Z" fill="#030206"/>
<path d="M15.0252 18.32L18.2143 21.5091L15.0252 24.6982L11.8361 21.5091L15.0252 18.32ZM15.0252 18.1558L11.6719 21.5091L15.0252 24.8625L18.3786 21.5091L15.0252 18.1558Z" fill="#8A94A6"/>
<path d="M15.4353 18.1147L12.1641 21.386L15.4353 24.6572L18.7065 21.386L15.4353 18.1147Z" fill="#030206"/>
<path d="M15.4393 18.197L18.6284 21.3861L15.4393 24.5752L12.2502 21.3861L15.4393 18.197ZM15.4393 18.0396L12.0859 21.3929L15.4393 24.7463L18.7926 21.3929L15.4393 18.0396Z" fill="#8A94A6"/>
<path d="M15.8337 17.978L12.5625 21.2493L15.8337 24.5205L19.105 21.2493L15.8337 17.978Z" fill="#030206"/>
<path d="M15.8377 18.0602L19.0268 21.2493L15.8377 24.4453L12.6486 21.2562L15.8377 18.0602ZM15.8377 17.896L12.4844 21.2493L15.8377 24.6027L19.1911 21.2493L15.8377 17.896Z" fill="#8A94A6"/>
<path d="M16.24 17.8208L12.9688 21.092L16.24 24.3633L19.5112 21.092L16.24 17.8208Z" fill="#030206"/>
<path d="M16.2362 17.8957L19.4253 21.0848L16.2362 24.2739L13.0471 21.0848L16.2362 17.8957ZM16.2362 17.7383L12.8828 21.0916L16.2362 24.445L19.5895 21.0916L16.2362 17.7383Z" fill="#8A94A6"/>
<path d="M16.6306 17.6426L13.3594 20.9138L16.6306 24.185L19.9018 20.9138L16.6306 17.6426Z" fill="#030206"/>
<path d="M16.6346 17.7179L19.8237 20.9071L16.6346 24.0962L13.4455 20.9071L16.6346 17.7179ZM16.6346 17.5605L13.2812 20.9139L16.6346 24.2673L19.988 20.9139L16.6346 17.5605Z" fill="#8A94A6"/>
<path d="M17.0134 17.4443L13.7422 20.7156L17.0134 23.9868L20.2846 20.7156L17.0134 17.4443Z" fill="#030206"/>
<path d="M17.0174 17.5266L20.2065 20.7157L17.0174 23.9048L13.8283 20.7157L17.0174 17.5266ZM17.0174 17.3623L13.6641 20.7157L17.0174 24.069L20.3708 20.7157L17.0174 17.3623Z" fill="#8A94A6"/>
<path d="M17.3884 17.2251L14.1172 20.4963L17.3884 23.7676L20.6596 20.4963L17.3884 17.2251Z" fill="#030206"/>
<path d="M17.3924 17.3073L20.5815 20.4964L17.3924 23.6855L14.2033 20.4964L17.3924 17.3073ZM17.3924 17.1499L14.0391 20.5033L17.3924 23.8566L20.7458 20.5033L17.3924 17.1499Z" fill="#8A94A6"/>
<path d="M17.7556 16.9927L14.4844 20.2639L17.7556 23.5351L21.0268 20.2639L17.7556 16.9927Z" fill="#030206"/>
<path d="M17.7518 17.0749L20.9409 20.264L17.7518 23.4531L14.5627 20.264L17.7518 17.0749ZM17.7518 16.9106L14.3984 20.264L17.7518 23.6173L21.1051 20.264L17.7518 16.9106Z" fill="#8A94A6"/>
<path d="M18.1072 16.7393L14.8359 20.0105L18.1072 23.2817L21.3784 20.0105L18.1072 16.7393Z" fill="#030206"/>
<path d="M18.1034 16.8146L21.2925 20.0037L18.1034 23.1997L14.9142 20.0106L18.1034 16.8146ZM18.1034 16.6572L14.75 20.0106L18.1034 23.3639L21.4567 20.0106L18.1034 16.6572Z" fill="#8A94A6"/>
<path d="M18.4587 16.4658L15.1875 19.737L18.4587 23.0083L21.73 19.737L18.4587 16.4658Z" fill="#030206"/>
<path d="M18.4627 16.5412L21.6518 19.7303L18.4627 22.9194L15.2736 19.7303L18.4627 16.5412ZM18.4627 16.3838L15.1094 19.7371L18.4627 23.0905L21.8161 19.7371L18.4627 16.3838Z" fill="#8A94A6"/>
<path d="M18.7947 16.1714L15.5234 19.4426L18.7947 22.7138L22.0659 19.4426L18.7947 16.1714Z" fill="#030206"/>
<path d="M18.7987 16.2536L21.9878 19.4427L18.7987 22.6318L15.6096 19.4427L18.7987 16.2536ZM18.7987 16.0894L15.4453 19.4427L18.7987 22.7961L22.152 19.4427L18.7987 16.0894Z" fill="#8A94A6"/>
<path d="M19.1306 15.8564L15.8594 19.1277L19.1306 22.3989L22.4018 19.1277L19.1306 15.8564Z" fill="#030206"/>
<path d="M19.1268 15.9387L22.3159 19.1278L19.1268 22.3169L15.9377 19.1278L19.1268 15.9387ZM19.1268 15.7744L15.7734 19.1278L19.1268 22.4811L22.4801 19.1278L19.1268 15.7744Z" fill="#8A94A6"/>
<path d="M31.4818 17.1842C33.4323 17.1842 34.9721 16.5409 35.8754 15.0353L37.7711 15.9865C36.6419 17.7522 34.452 19.0182 31.4271 19.0182C26.9446 19.0182 24.125 16.5751 24.125 12.599C24.125 8.62284 26.9446 6.17969 31.5161 6.17969C36.0876 6.17969 36.6487 7.45944 37.7574 9.19086L35.8412 10.1626C34.9515 8.67759 33.4323 8.01377 31.4818 8.01377C28.3201 8.01377 26.2123 9.5741 26.2123 12.599C26.2123 15.6238 28.3133 17.1842 31.4818 17.1842Z" fill="#8A94A6"/>
<path d="M44.9456 8.8418C48.21 8.8418 50.2152 10.4158 50.2152 13.3928V16.8351C50.2152 17.5468 50.3383 18.1148 50.6395 18.6692H48.5727C48.3332 18.2517 48.2168 17.7864 48.2168 17.3347V17.3141C47.4846 18.2312 46.0474 19.0114 44.1312 19.0114C42.215 19.0114 39.4297 18.1833 39.4297 15.6854C39.4297 13.1875 42.1124 12.3799 44.1312 12.3799C46.1501 12.3799 47.4846 13.1601 48.2168 14.0771V13.3859C48.2168 11.3466 46.985 10.4295 44.5761 10.4295C42.1671 10.4295 42.0987 10.7443 41.0174 11.3808L40.2988 10.0121C41.4622 9.30032 43.2552 8.83496 44.9525 8.83496L44.9456 8.8418ZM48.2442 15.8496V15.5554C47.4914 14.2414 45.9037 13.8445 44.5008 13.8445C43.0978 13.8445 41.3869 14.1729 41.3869 15.6991C41.3869 17.2252 43.2484 17.5674 44.5008 17.5674C45.7531 17.5674 47.4914 17.1499 48.2442 15.8565V15.8496Z" fill="#8A94A6"/>
<path d="M54.2952 19.0183H52.2969V9.5331H54.2952V11.3672C55.1164 10.019 56.6562 9.18408 58.5724 9.18408C61.4262 9.18408 62.8497 11.0387 62.8497 13.5982V19.0183H60.865V13.7419C60.865 11.8736 59.9275 10.8676 58.0592 10.8676C56.1909 10.8676 55.1027 11.6272 54.2952 13.1876V19.0183Z" fill="#8A94A6"/>
<path d="M71.9448 16.7325L72.4786 18.1355C71.7122 18.6556 70.6651 19.0183 69.5907 19.0183C67.7634 19.0183 66.3057 18.0328 66.3057 16.0619V10.7992H64.4922V9.19093H66.3057V6.99414H68.3041V9.19093H72.3897V10.7992H68.3041V15.7334C68.3041 16.7873 69.1048 17.3074 70.0834 17.3074C71.062 17.3074 71.3837 17.0474 71.9448 16.7394V16.7325Z" fill="#8A94A6"/>
<path d="M79.9479 19.0182C76.3208 19.0182 74.1172 17.061 74.1172 13.9335C74.1172 10.8059 76.3208 8.80762 79.9479 8.80762C83.575 8.80762 85.7786 10.7786 85.7786 13.9335C85.7786 17.0883 83.5887 19.0182 79.9479 19.0182ZM79.9479 17.321C82.1721 17.321 83.8282 16.1987 83.8282 13.9266C83.8282 11.6545 82.1721 10.498 79.9479 10.498C77.7237 10.498 76.0813 11.6203 76.0813 13.9266C76.0813 16.2329 77.7374 17.321 79.9479 17.321Z" fill="#8A94A6"/>
<path d="M89.428 19.0183H87.4297V9.5331H89.428V11.3672C90.2492 10.019 91.789 9.18408 93.7052 9.18408C96.559 9.18408 97.9825 11.0387 97.9825 13.5982V19.0183H95.9978V13.7419C95.9978 11.8736 95.0534 10.8676 93.192 10.8676C91.3305 10.8676 90.2355 11.6272 89.428 13.1876V19.0183Z" fill="#8A94A6"/>
</g>
<defs>
<clipPath id="clip0_6420_703">
<rect width="98" height="25.2528" fill="white"/>
</clipPath>
</defs>
</svg>
