<svg width="84" height="27.88" viewBox="0 0 100 32" fill="none" xmlns="http://www.w3.org/2000/svg">
    <path
        d="M54.8781 4.58131C59.749 1.7302 65.0744 3.1178 68.0531 6.45198C71.1825 9.93361 71.6118 15.1054 69.0624 19.0173C67.5489 21.3094 65.4784 22.795 62.8036 23.4552C60.1287 24.1154 57.5276 23.6467 55.1302 22.3548V28.6997C55.1302 30.2402 54.1714 31.3989 52.7581 31.5001C51.2941 31.6256 50.0568 30.5406 49.982 29.0276C49.9566 28.7239 49.982 28.4213 49.982 28.1186V6.09545C49.968 5.69451 50.019 5.29395 50.1328 4.90923C50.4861 3.975 51.1422 3.39509 52.1273 3.24324C53.0608 3.06718 53.8687 3.39509 54.5248 4.10154C54.6545 4.25232 54.7726 4.4127 54.8781 4.58131V4.58131ZM55.1555 13.3613C55.0047 15.7338 56.9982 18.6355 60.405 18.6355C63.2824 18.6608 65.6303 16.2884 65.6556 13.3866C65.6556 10.4596 63.333 8.08826 60.405 8.11356C57.0994 8.13887 55.0289 10.9394 55.1555 13.3613V13.3613Z"
        fill="black"></path>
    <path
        d="M39.7117 4.40421C39.8889 4.27877 39.8889 4.12691 39.9385 4.00037C40.469 2.89007 41.5797 2.31017 42.7663 2.53685C43.3285 2.64061 43.8391 2.93156 44.2148 3.36234C44.5906 3.79311 44.8094 4.33835 44.8357 4.90929V20.2751C44.8533 20.6782 44.7932 21.081 44.6585 21.4613C44.2545 22.4704 43.4983 23.0503 42.413 23.1262C41.3529 23.1769 40.5417 22.6971 40.0144 21.7893C39.929 21.6342 39.8533 21.4739 39.7877 21.3095C39.6104 21.2589 39.5103 21.4107 39.409 21.4867C33.477 25.7 25.3193 22.7224 23.4073 15.5567C21.9433 10.1064 25.0727 4.3789 30.3729 2.76793C33.477 1.80839 36.427 2.28816 39.1569 4.07959C39.3579 4.15776 39.5451 4.26733 39.7117 4.40421V4.40421ZM28.2275 12.8321C28.2241 13.3171 28.2836 13.8006 28.4047 14.2703C29.3382 17.9291 33.6289 19.4927 36.5569 17.2226C39.1822 15.2034 39.4343 11.2926 37.1073 8.94662C35.8965 7.73619 34.4072 7.17939 32.6911 7.45779C30.0702 7.91115 28.2528 10.1317 28.2275 12.8321Z"
        fill="black"></path>
    <path
        d="M82.8235 8.62412C82.8385 8.64194 82.8572 8.65627 82.8783 8.6661C82.8994 8.67593 82.9224 8.68102 82.9457 8.68102C82.969 8.68102 82.992 8.67593 83.0131 8.6661C83.0342 8.65627 83.0529 8.64194 83.0679 8.62412C83.7085 7.84285 84.3481 7.08358 84.9656 6.34962C85.7482 5.41539 86.5067 4.47896 87.2882 3.54913C87.9949 2.74144 88.8777 2.38822 89.9377 2.66882C90.3245 2.7689 90.6822 2.95876 90.9818 3.22297C91.2813 3.48718 91.5144 3.81829 91.6619 4.18942C91.8095 4.56055 91.8674 4.96124 91.831 5.35895C91.7946 5.75666 91.6649 6.14018 91.4524 6.47837C91.2643 6.76214 91.0534 7.03006 90.8216 7.27945C89.4083 8.99496 87.9949 10.6907 86.5562 12.4018C86.1082 12.9619 86.2502 12.7759 86.7059 13.3921L91.1089 18.6487C92.4706 20.1133 91.8795 22.3251 90.0434 22.9204C89.034 23.2505 87.974 22.9204 87.2673 22.0621C86.0047 20.5479 84.7686 19.0591 83.506 17.5505C83.3805 17.3986 83.2793 17.2721 83.1527 17.1213C82.9006 16.8187 82.8753 16.8187 82.6232 17.1466C81.4872 18.4836 80.3766 19.8459 79.2406 21.1829C78.9885 21.4866 78.7607 21.7892 78.5086 22.0632C77.5498 23.1735 75.9845 23.3495 74.8761 22.4417C73.7401 21.5086 73.6146 19.9185 74.5459 18.7576C76.1111 16.866 77.6753 14.9987 79.2406 13.1313C79.5433 12.7528 79.5433 12.7528 79.2406 12.3996C77.7259 10.5828 76.2124 8.76828 74.6978 6.97464C74.0846 6.24618 73.7544 5.46381 74.012 4.52847C74.1146 4.08838 74.332 3.68331 74.6421 3.35452C74.9522 3.02572 75.3439 2.78494 75.7773 2.65668C76.2108 2.52842 76.6705 2.51727 77.1096 2.62436C77.5488 2.73145 77.9517 2.95296 78.2774 3.26633C78.4282 3.41818 78.5801 3.59644 78.7309 3.77141C79.9043 5.18871 82.26 7.96169 82.8235 8.62412Z"
        fill="#8DBC1A"></path>
    <path
        d="M11.0636 1.93162C13.8155 1.93162 16.1876 2.86585 18.257 4.63197C19.4183 5.64103 19.5691 7.2553 18.5872 8.34029C18.1828 8.79928 17.6268 9.09769 17.0206 9.18111C16.4144 9.26453 15.7984 9.12741 15.285 8.79475C15.0582 8.64289 14.881 8.46463 14.6542 8.31498C12.0025 6.17032 7.88348 6.82615 6.01549 9.65305C3.94607 12.7815 5.66215 17.0961 9.39812 18.0545C11.3663 18.5596 13.1583 18.2064 14.7489 16.9189C15.5557 16.2378 16.465 16.0111 17.449 16.3896C17.8303 16.5312 18.1722 16.7618 18.4463 17.0621C18.7204 17.3624 18.9188 17.7239 19.025 18.1163C19.1311 18.5088 19.142 18.9209 19.0567 19.3184C18.9714 19.7159 18.7923 20.0873 18.5344 20.4017C18.3266 20.6244 18.1061 20.8349 17.8739 21.0322C15.4523 22.9028 12.7004 23.7314 9.64579 23.3287C5.68307 22.7785 2.72974 20.7043 1.01366 17.0961C-1.51037 11.7724 0.710951 4.88176 7.32319 2.56214C8.52079 2.12457 9.78865 1.91085 11.0636 1.93162V1.93162Z"
        fill="black"></path>
    <path d="M95.1881 0.538585H94.3301V0H96.6637V0.538585H95.8057V2.8614H95.1855V0.538585H95.1881Z"
        fill="black"></path>
    <path
        d="M99.4194 2.86417L99.4168 1.14622L98.6286 2.56035H98.3495L97.5639 1.18212V2.86417H96.9824V0H97.4941L98.4968 1.77871L99.484 0H99.9931L100.001 2.86417H99.4194Z"
        fill="black"></path>
</svg>