<svg width="35" height="44" viewBox="0 0 35 44" fill="none" xmlns="http://www.w3.org/2000/svg">
<path d="M17.3618 0.0751953C21.907 0.147019 26.2427 1.99713 29.4399 5.22852C32.6373 8.46004 34.442 12.8154 34.4653 17.3613C34.4653 23.3052 31.4248 28.9682 27.9146 33.5156C24.4035 38.0639 20.4142 41.5055 18.4985 43.0107C18.1625 43.2798 17.7454 43.4267 17.3149 43.4268C16.8845 43.4268 16.4664 43.2807 16.1304 43.0117V43.0107C14.2123 41.5946 10.2018 38.1533 6.66943 33.584C3.13642 29.0139 0.0737305 23.3053 0.0737305 17.3613V17.1797C0.0833966 12.6463 1.88862 8.30132 5.09424 5.0957C8.29985 1.89009 12.6448 0.0848615 17.1782 0.0751953H17.3618ZM16.7476 4.96875C14.5959 5.05926 12.503 5.7126 10.6792 6.86719C8.73374 8.09889 7.17183 9.85142 6.17236 11.9258C5.17294 14.0001 4.77582 16.3135 5.0249 18.6025C5.27041 20.8583 6.13483 23.0011 7.521 24.7959C8.03087 24.0477 8.78918 23.4286 9.65967 22.8887C10.5635 22.328 11.5927 21.8488 12.5942 21.3936L12.6128 21.3848L12.6333 21.3867C12.6718 21.3913 12.7108 21.3882 12.7476 21.376C12.7845 21.3637 12.819 21.3433 12.8472 21.3164L12.856 21.3076L12.8677 21.3018C12.9772 21.2523 13.0961 21.2266 13.2163 21.2266C13.3365 21.2266 13.4554 21.2523 13.5649 21.3018L13.5767 21.3076L13.5347 21.3691L13.5767 21.3086C14.6387 22.0263 15.8945 22.4022 17.1763 22.3877C18.4521 22.3476 19.6955 21.9755 20.7827 21.3066L20.7905 21.3018L20.8745 21.2695C20.96 21.2414 21.0498 21.2266 21.1401 21.2266C21.2543 21.2266 21.3672 21.2502 21.4722 21.2949C21.525 21.2915 21.578 21.2977 21.6284 21.3145C21.6803 21.3317 21.727 21.3605 21.7681 21.3965C22.7691 21.8063 23.7952 22.2845 24.6968 22.8438C25.5664 23.3832 26.323 24.0013 26.8325 24.707C28.2186 22.9177 29.0833 20.7797 29.3276 18.5283C29.5754 16.2449 29.1769 13.9375 28.1763 11.8701C27.1756 9.80267 25.6131 8.05821 23.6685 6.83594C21.7239 5.61382 19.4749 4.96321 17.1782 4.95801L16.7476 4.96875Z" fill="url(#paint0_linear_24597_62)" stroke="#65DA00" stroke-width="0.146984"/>
<path d="M17.1836 9.00098C20.0476 9.00119 22.3573 11.569 22.3574 14.7207C22.3574 17.8725 20.0477 20.4412 17.1836 20.4414C14.3194 20.4414 12.0098 17.8727 12.0098 14.7207C12.0099 11.5688 14.3194 9.00098 17.1836 9.00098Z" fill="url(#paint1_linear_24597_62)" stroke="#65DA00" stroke-width="0.146984"/>
<defs>
<linearGradient id="paint0_linear_24597_62" x1="21.1065" y1="52.2163" x2="15.1719" y2="3.6042" gradientUnits="userSpaceOnUse">
<stop stop-color="#142A01"/>
<stop offset="0.460655" stop-color="#65DA00"/>
<stop offset="1" stop-color="#65DA00"/>
</linearGradient>
<linearGradient id="paint1_linear_24597_62" x1="18.3263" y1="22.6842" x2="16.9604" y2="9.93447" gradientUnits="userSpaceOnUse">
<stop stop-color="#142A01"/>
<stop offset="0.460655" stop-color="#65DA00"/>
<stop offset="1" stop-color="#65DA00"/>
</linearGradient>
</defs>
</svg>
