<svg width="594" height="525" viewBox="0 0 594 525" fill="none" xmlns="http://www.w3.org/2000/svg">
<g filter="url(#filter0_d_24593_36)">
<rect x="5" y="3" width="584" height="515" rx="24" fill="url(#paint0_linear_24593_36)"/>
<rect x="4.5" y="2.5" width="585" height="516" rx="24.5" stroke="#1C3023"/>
<rect x="53" y="313.008" width="99.3762" height="99.3762" rx="3.47469" fill="#262626"/>
<rect x="53" y="108" width="99.3762" height="99.3762" rx="3.47469" fill="#262626"/>
<rect x="442.166" y="313.008" width="99.3762" height="99.3762" rx="3.47469" fill="#262626"/>
<rect x="442.166" y="108" width="99.3762" height="99.3762" rx="3.47469" fill="#262626"/>
<rect x="71.0679" y="330.379" width="24.3229" height="24.3229" fill="#38FF7E"/>
<rect x="110.679" y="330.379" width="24.3229" height="24.3229" fill="white"/>
<rect x="110.679" y="369.992" width="24.3229" height="24.3229" fill="#38FF7E"/>
<rect x="71.0679" y="369.992" width="24.3229" height="24.3229" fill="#38FF7E"/>
<path d="M459.54 330.379H475.523V393.618H459.54V330.379Z" fill="#38FF7E"/>
<rect x="483.863" y="350.535" width="15.9836" height="43.0862" fill="white"/>
<path d="M508.185 371.383H524.169V393.621H508.185V371.383Z" fill="#38FF7E"/>
<path d="M491.857 126.769C502.605 126.928 508.538 134.524 508.538 139.97V151.089H504.368V139.97C504.368 137.152 500.607 131.015 491.684 130.937C482.761 131.015 479 137.152 479 139.97V151.089H474.831V139.97C474.831 134.524 480.763 126.928 491.511 126.769V126.766C491.569 126.766 491.626 126.766 491.683 126.767C491.741 126.766 491.799 126.766 491.857 126.766V126.769Z" fill="white"/>
<path d="M517.216 190.701H465.096V149.699H517.216V190.701ZM491.159 160.815C488.664 160.815 486.641 162.838 486.641 165.333C486.641 167.336 487.945 169.032 489.75 169.624L488.378 178.884H494.286L492.571 169.623C494.373 169.03 495.675 167.334 495.675 165.333C495.675 162.839 493.653 160.816 491.159 160.815Z" fill="#38FF7E"/>
<path fill-rule="evenodd" clip-rule="evenodd" d="M246.545 342.892C246.716 343.235 246.581 343.65 246.236 343.819C235.042 349.313 218.052 354.94 201.305 359.76C184.601 364.567 168.092 368.583 157.721 370.872C157.346 370.955 156.98 370.716 156.897 370.342C156.815 369.967 157.048 369.596 157.423 369.514C167.77 367.23 184.249 363.221 200.921 358.424C217.657 353.607 234.541 348.009 245.615 342.576C245.959 342.407 246.373 342.548 246.545 342.892ZM346.616 342.544C346.787 342.2 347.191 342.054 347.536 342.223C358.239 347.44 389.708 359.583 435.366 368.826C435.742 368.902 435.991 369.27 435.916 369.646C435.84 370.022 435.468 370.266 435.092 370.19C389.333 360.926 357.739 348.745 346.913 343.465C346.568 343.297 346.444 342.887 346.616 342.544ZM461.628 213.98C461.893 214.258 461.884 214.697 461.606 214.961C443.165 232.46 420.091 249.273 404.352 259.846C403.939 260.123 403.941 260.722 404.355 260.998C419.044 270.766 440.994 287.035 461.616 307.162C461.891 307.43 461.896 307.87 461.628 308.145C461.359 308.418 460.918 308.422 460.644 308.154C439.626 287.642 417.222 271.151 402.611 261.509C402.378 261.356 402.082 261.36 401.849 261.514C398.309 263.859 395.22 265.837 392.741 267.371C392.415 267.573 391.987 267.47 391.787 267.142C391.586 266.816 391.687 266.388 392.014 266.186C394.246 264.806 396.975 263.063 400.083 261.015C400.5 260.74 400.498 260.127 400.078 259.855C396.912 257.811 394.195 256.143 392.041 254.89C391.71 254.696 391.595 254.272 391.787 253.939C391.978 253.607 392.402 253.491 392.733 253.684C395.132 255.08 398.22 256.982 401.843 259.343C402.076 259.495 402.373 259.497 402.604 259.342C418.306 248.85 441.894 231.75 460.646 213.955C460.924 213.691 461.363 213.703 461.628 213.98ZM131.88 213.98C132.134 213.693 132.571 213.664 132.858 213.918C140.483 220.65 152.78 231.093 165.553 241.127C174.091 247.833 182.824 254.341 190.508 259.434C190.734 259.583 191.024 259.587 191.254 259.446C194.417 257.514 197.499 255.782 200.444 254.316C200.788 254.145 201.205 254.289 201.373 254.634C201.541 254.979 201.398 255.395 201.055 255.566C198.501 256.837 195.842 258.313 193.111 259.949C192.672 260.212 192.663 260.843 193.094 261.119C195.957 262.952 198.642 264.554 201.081 265.855C201.419 266.036 201.551 266.455 201.374 266.796C201.196 267.136 200.777 267.268 200.438 267.088C197.646 265.598 194.541 263.724 191.226 261.568C191 261.421 190.709 261.417 190.48 261.56C181.678 267.068 172.283 274.061 163.474 281.165C151.1 291.144 139.917 301.312 133.207 307.813C132.931 308.08 132.494 308.072 132.226 307.796C131.959 307.522 131.962 307.084 132.238 306.817C138.975 300.29 150.191 290.093 162.602 280.084C171.067 273.258 180.105 266.503 188.668 261.059C189.094 260.788 189.102 260.168 188.683 259.887C181.203 254.867 172.842 248.62 164.694 242.22C151.896 232.167 139.578 221.706 131.936 214.959C131.649 214.705 131.625 214.268 131.88 213.98ZM436.61 151.783C436.682 152.16 436.431 152.524 436.054 152.597C393.269 160.793 359.895 174.01 347.881 179.902C347.537 180.07 347.135 179.924 346.964 179.581C346.792 179.238 346.915 178.827 347.26 178.658C359.385 172.71 392.884 159.452 435.794 151.231C436.171 151.159 436.538 151.406 436.61 151.783ZM157.245 152.131C157.309 151.752 157.651 151.495 158.029 151.56C176.578 154.788 218.942 164.486 246.257 178.647C246.598 178.824 246.723 179.241 246.545 179.581C246.366 179.921 245.952 180.054 245.611 179.878C218.494 165.821 176.309 156.152 157.795 152.93C157.417 152.865 157.18 152.509 157.245 152.131Z" fill="#575757"/>
<circle cx="220.134" cy="353.662" r="4.5171" fill="url(#paint1_linear_24593_36)"/>
<circle cx="161.063" cy="282.083" r="4.5171" fill="url(#paint2_linear_24593_36)"/>
<circle cx="173.573" cy="247.337" r="4.5171" fill="url(#paint3_linear_24593_36)"/>
<circle cx="184.69" cy="157.689" r="4.5171" fill="url(#paint4_linear_24593_36)"/>
<circle cx="369.543" cy="170.197" r="4.5171" fill="url(#paint5_linear_24593_36)"/>
<circle cx="446.683" cy="227.181" r="4.5171" fill="url(#paint6_linear_24593_36)"/>
<circle cx="430.003" cy="280.693" r="4.5171" fill="url(#paint7_linear_24593_36)"/>
<circle cx="362.596" cy="350.185" r="4.5171" fill="url(#paint8_linear_24593_36)"/>
<circle cx="297.037" cy="262.037" r="91.037" fill="#262626"/>
<path d="M335.582 224.456C335.256 224.292 334.929 224.162 334.636 223.999C332.416 222.987 330.131 222.105 327.846 221.256C327.225 221.06 326.638 220.864 326.018 220.636C323.961 219.95 321.904 219.33 319.782 218.808C318.966 218.612 318.117 218.416 317.269 218.187C315.375 217.73 313.417 217.371 311.491 217.11C310.511 216.947 309.499 216.816 308.553 216.718C306.724 216.49 304.864 216.326 303.003 216.196C301.958 216.131 300.914 216.065 299.804 216.033C298.857 216 297.943 216 296.964 216C296.082 216 295.234 216 294.32 216.033C293.275 216.065 292.165 216.098 291.12 216.196C289.26 216.326 287.399 216.49 285.571 216.718C284.559 216.849 283.579 216.947 282.633 217.11C280.707 217.436 278.748 217.796 276.855 218.187C276.006 218.383 275.19 218.579 274.341 218.808C272.252 219.33 270.162 219.95 268.106 220.636C267.486 220.832 266.898 221.028 266.245 221.256C263.927 222.072 261.675 222.954 259.455 223.966C259.129 224.129 258.802 224.26 258.476 224.423C255.929 225.598 253.416 226.904 251 228.275C251 231.083 251.131 233.793 251.359 236.503C251.392 236.96 251.424 237.352 251.49 237.809C251.718 240.192 252.045 242.542 252.502 244.86C252.632 245.579 252.795 246.264 252.893 247.015C253.285 249.072 253.84 251.096 254.362 253.088C254.591 253.969 254.885 254.916 255.179 255.797C255.733 257.626 256.354 259.389 257.039 261.152C257.431 262.164 257.855 263.176 258.247 264.155C260.434 262.262 262.752 260.499 265.168 258.932C267.518 257.397 269.999 256.059 272.578 254.883C275.092 253.708 277.703 252.729 280.413 251.978C282.339 251.423 284.363 250.933 286.387 250.574C287.17 250.443 287.921 250.345 288.705 250.215C291.251 249.856 293.797 249.66 296.441 249.66C296.605 249.66 296.768 249.66 296.931 249.66C297.127 249.66 297.388 249.66 297.584 249.66C300.228 249.692 302.807 249.888 305.321 250.28C306.104 250.411 306.888 250.508 307.671 250.672C309.695 251.031 311.686 251.521 313.613 252.076C316.322 252.892 318.901 253.871 321.447 255.014C324.026 256.189 326.507 257.56 328.858 259.095C331.273 260.662 333.591 262.425 335.746 264.351C336.203 263.339 336.594 262.294 336.986 261.25C337.639 259.552 338.227 257.756 338.814 256.026C336.496 254.198 334.113 252.5 331.567 250.966C329.151 249.464 326.605 248.158 323.961 247.015C321.415 245.873 318.77 244.926 316.061 244.11C315.082 243.816 314.07 243.555 313.058 243.293C311.36 242.902 309.63 242.51 307.867 242.249C306.365 242.02 304.831 241.792 303.297 241.628C302.056 241.498 300.751 241.432 299.445 241.4C298.596 241.367 297.747 241.367 296.866 241.367C296.05 241.367 295.299 241.367 294.483 241.4C293.177 241.432 291.904 241.53 290.631 241.628C289.096 241.759 287.562 241.955 286.06 242.183C284.33 242.477 282.633 242.836 280.935 243.228C279.923 243.457 278.911 243.75 277.899 244.044C275.19 244.86 272.545 245.84 269.999 246.917C267.355 248.06 264.809 249.398 262.393 250.835C262.393 250.802 262.36 250.704 262.36 250.672C261.577 247.929 260.989 245.122 260.5 242.249C260.5 242.183 260.467 242.118 260.467 242.053C259.977 239.18 259.651 236.274 259.488 233.303C262.132 231.965 264.841 230.789 267.616 229.745C267.649 229.745 267.649 229.712 267.681 229.712C270.391 228.7 273.198 227.851 276.006 227.133H276.038C278.748 226.447 281.49 225.892 284.298 225.468C284.33 225.468 284.428 225.468 284.493 225.435C287.17 225.043 289.88 224.75 292.622 224.619C292.687 224.619 292.818 224.619 292.916 224.619C294.222 224.586 295.56 224.554 296.866 224.554C298.237 224.554 299.673 224.586 300.979 224.619C301.044 224.619 301.175 224.619 301.273 224.619C304.015 224.782 306.724 225.011 309.401 225.435C309.467 225.435 309.532 225.435 309.597 225.468C312.405 225.925 315.147 226.48 317.856 227.165H317.889C320.729 227.884 323.504 228.798 326.213 229.81C326.246 229.81 326.279 229.81 326.279 229.843C329.086 230.887 331.796 232.063 334.407 233.401C337.149 234.772 339.826 236.307 342.405 238.004C342.438 237.547 342.47 237.058 342.536 236.633C342.764 233.956 342.895 231.246 342.895 228.504C340.708 226.97 338.194 225.696 335.582 224.456Z" fill="white"/>
<path d="M318.148 262.554C315.602 261.379 312.958 260.399 310.216 259.681C307.865 259.028 305.384 258.538 302.936 258.277C302.446 258.244 301.957 258.147 301.532 258.114C300.063 257.983 298.594 257.918 297.093 257.918C295.624 257.918 294.22 257.951 292.816 258.081C292.327 258.114 291.869 258.147 291.412 258.244C288.899 258.538 286.483 258.963 284.1 259.616C281.358 260.334 278.681 261.313 276.167 262.489C273.621 263.664 271.205 265.035 268.888 266.602C266.537 268.235 264.317 269.998 262.261 271.989C263.077 273.524 263.958 275.025 264.905 276.527C265.525 277.507 266.113 278.453 266.766 279.4C267.778 280.902 268.79 282.338 269.867 283.775C270.52 284.624 271.173 285.473 271.858 286.289C273.066 287.791 274.339 289.194 275.612 290.631C276.233 291.316 276.853 291.969 277.506 292.622C279.236 290.435 281.358 288.541 283.741 287.007C286.287 285.375 289.16 284.199 292.229 283.579C293.861 283.253 295.493 283.089 297.256 283.089C299.051 283.089 300.749 283.285 302.381 283.612C305.45 284.265 308.29 285.44 310.836 287.105C308.845 289.129 306.755 291.023 304.568 292.851C304.503 292.916 304.405 292.981 304.34 293.047C304.111 293.243 303.85 293.439 303.622 293.602C303.132 293.994 302.642 294.385 302.12 294.777C302.087 294.81 302.022 294.842 301.989 294.875C301.532 295.234 301.075 295.561 300.586 295.92C300.422 296.05 300.227 296.181 300.063 296.279C299.704 296.54 299.345 296.801 298.986 297.03C298.431 297.422 297.876 297.781 297.321 298.172C295.134 296.703 292.979 295.136 290.923 293.471C287.887 294.255 285.324 295.854 282.875 297.65C283.104 297.846 283.088 297.846 283.349 298.042C283.447 298.14 283.545 298.238 283.708 298.368C285.536 299.903 287.43 301.405 289.388 302.808C289.715 303.037 290.041 303.265 290.368 303.494C292.62 305.126 294.971 306.596 297.419 307.999C298.594 307.314 299.769 306.596 300.912 305.877C302.055 305.159 303.197 304.375 304.307 303.592C304.666 303.363 305.025 303.07 305.384 302.808C307.278 301.437 309.139 299.968 310.934 298.434C311.228 298.172 311.522 297.911 311.815 297.65C312.077 297.422 312.338 297.193 312.566 296.964C314.101 295.593 315.602 294.157 317.071 292.688C317.757 292.002 318.41 291.316 319.062 290.598C320.303 289.227 321.543 287.791 322.719 286.387C323.404 285.538 324.09 284.656 324.775 283.742C296.668 265.166 278.159 280.641 278.159 280.641C278.093 280.575 278.028 280.477 277.963 280.412C276.298 278.323 274.731 276.135 273.229 273.883C275.482 272.25 277.963 270.879 280.542 269.802C283.219 268.626 285.993 267.745 288.866 267.157C291.119 266.7 293.436 266.439 295.787 266.341C296.277 266.341 296.766 266.308 297.256 266.308C297.811 266.308 298.333 266.308 298.888 266.341C301.239 266.406 303.556 266.7 305.776 267.19C308.682 267.81 311.456 268.692 314.101 269.867C316.679 271.01 319.128 272.381 321.38 273.981C323.698 275.613 325.82 277.474 327.746 279.531C328.399 278.551 329.052 277.539 329.639 276.527C330.521 275.058 331.37 273.621 332.186 272.12C330.031 270.128 327.844 268.3 325.494 266.7C323.143 265.1 320.695 263.729 318.148 262.554Z" fill="white"/>
<path d="M101.732 157.713C109.177 157.713 115.211 151.701 115.211 144.284C115.211 136.867 109.177 130.855 101.732 130.855C94.2866 130.855 88.2525 136.867 88.2525 144.284C88.2525 151.701 94.2866 157.713 101.732 157.713ZM111.167 161.07H109.409C107.071 162.14 104.47 162.748 101.732 162.748C98.9937 162.748 96.4032 162.14 94.0549 161.07H92.2963C84.4825 161.07 78.1431 167.385 78.1431 175.17V179.534C78.1431 182.314 80.4072 184.57 83.1978 184.57H120.266C123.056 184.57 125.32 182.314 125.32 179.534V175.17C125.32 167.385 118.981 161.07 111.167 161.07Z" fill="#38FF7E"/>
<path d="M137.366 169.134L134.681 166.43C134.236 165.978 133.512 165.978 133.058 166.421L122.936 176.428L118.541 172.021C118.096 171.569 117.372 171.569 116.918 172.011L114.204 174.696C113.75 175.139 113.75 175.86 114.194 176.313L122.086 184.232C122.53 184.684 123.254 184.684 123.708 184.241L137.356 170.751C137.8 170.298 137.81 169.577 137.366 169.134Z" fill="white"/>
</g>
<defs>
<filter id="filter0_d_24593_36" x="0" y="0" width="594" height="525" filterUnits="userSpaceOnUse" color-interpolation-filters="sRGB">
<feFlood flood-opacity="0" result="BackgroundImageFix"/>
<feColorMatrix in="SourceAlpha" type="matrix" values="0 0 0 0 0 0 0 0 0 0 0 0 0 0 0 0 0 0 127 0" result="hardAlpha"/>
<feOffset dy="2"/>
<feGaussianBlur stdDeviation="2"/>
<feComposite in2="hardAlpha" operator="out"/>
<feColorMatrix type="matrix" values="0 0 0 0 0 0 0 0 0 0 0 0 0 0 0 0 0 0 0.25 0"/>
<feBlend mode="normal" in2="BackgroundImageFix" result="effect1_dropShadow_24593_36"/>
<feBlend mode="normal" in="SourceGraphic" in2="effect1_dropShadow_24593_36" result="shape"/>
</filter>
<linearGradient id="paint0_linear_24593_36" x1="417.971" y1="3" x2="295.713" y2="517.694" gradientUnits="userSpaceOnUse">
<stop stop-color="#0D1A12"/>
<stop offset="0.21623" stop-color="#08110C"/>
<stop offset="0.601627" stop-color="#030B06"/>
<stop offset="0.809114" stop-color="#030B06"/>
</linearGradient>
<linearGradient id="paint1_linear_24593_36" x1="220.134" y1="349.145" x2="220.134" y2="358.179" gradientUnits="userSpaceOnUse">
<stop stop-color="white"/>
<stop offset="1" stop-color="#D6D6FF"/>
</linearGradient>
<linearGradient id="paint2_linear_24593_36" x1="161.063" y1="277.566" x2="161.063" y2="286.601" gradientUnits="userSpaceOnUse">
<stop stop-color="white"/>
<stop offset="1" stop-color="#D6D6FF"/>
</linearGradient>
<linearGradient id="paint3_linear_24593_36" x1="173.573" y1="242.82" x2="173.573" y2="251.855" gradientUnits="userSpaceOnUse">
<stop stop-color="white"/>
<stop offset="1" stop-color="#D6D6FF"/>
</linearGradient>
<linearGradient id="paint4_linear_24593_36" x1="184.69" y1="153.172" x2="184.69" y2="162.206" gradientUnits="userSpaceOnUse">
<stop stop-color="white"/>
<stop offset="1" stop-color="#D6D6FF"/>
</linearGradient>
<linearGradient id="paint5_linear_24593_36" x1="369.543" y1="165.68" x2="369.543" y2="174.714" gradientUnits="userSpaceOnUse">
<stop stop-color="white"/>
<stop offset="1" stop-color="#D6D6FF"/>
</linearGradient>
<linearGradient id="paint6_linear_24593_36" x1="446.683" y1="222.664" x2="446.683" y2="231.698" gradientUnits="userSpaceOnUse">
<stop stop-color="white"/>
<stop offset="1" stop-color="#D6D6FF"/>
</linearGradient>
<linearGradient id="paint7_linear_24593_36" x1="430.003" y1="276.176" x2="430.003" y2="285.21" gradientUnits="userSpaceOnUse">
<stop stop-color="white"/>
<stop offset="1" stop-color="#D6D6FF"/>
</linearGradient>
<linearGradient id="paint8_linear_24593_36" x1="362.596" y1="345.668" x2="362.596" y2="354.702" gradientUnits="userSpaceOnUse">
<stop stop-color="white"/>
<stop offset="1" stop-color="#D6D6FF"/>
</linearGradient>
</defs>
</svg>
