<svg width="41" height="37" viewBox="0 0 41 37" fill="none" xmlns="http://www.w3.org/2000/svg">
<path d="M27.375 11.4062C27.1498 11.4062 26.9209 11.5002 26.7275 11.6934V11.6943L18.0527 20.2852L17.998 20.3398L17.9434 20.2852L14.4746 16.8154C14.2813 16.6221 14.0524 16.5284 13.8271 16.5283C13.6018 16.5283 13.3731 16.6221 13.1797 16.8154L13.1777 16.8174L11.7734 18.1387L11.7686 18.1426C11.3983 18.4389 11.389 18.9621 11.7754 19.3486H11.7744L16.6484 24.1396L16.6494 24.1406C17.0463 24.5374 17.5218 24.6963 17.999 24.6963C18.2804 24.6962 18.5177 24.6556 18.7334 24.5674C18.949 24.4792 19.1469 24.3413 19.3477 24.1406L19.3486 24.1396L29.4268 14.2266C29.5737 14.0792 29.6514 13.8532 29.6514 13.6211C29.6513 13.3888 29.5731 13.1629 29.4258 13.0156V13.0146L28.0234 11.6953L28.0215 11.6934C27.8283 11.5003 27.6001 11.4064 27.375 11.4062ZM39.9678 18.4131C39.9675 28.5401 31.0865 36.6641 20.0635 36.6641C16.2501 36.664 12.685 35.6689 9.61719 33.9277L9.6084 33.9229C9.2972 33.6895 8.91253 33.6135 8.52734 33.7676L8.52344 33.7686L2.74121 35.751L2.73926 35.752C1.61252 36.0986 0.556639 35.1429 0.907227 34.0029V34.002L2.72461 28.3018C2.79899 27.9968 2.72412 27.6074 2.56641 27.29L2.27832 26.7744C0.87993 24.1798 0.0781378 21.3647 0.078125 18.3301C0.078125 8.2028 8.95823 0.0791016 19.9814 0.0791016C30.9227 0.079229 39.8017 8.20313 39.9678 18.4111V18.4131Z" fill="url(#paint0_linear_24597_74)" stroke="#65DA00" stroke-width="0.155241"/>
<defs>
<linearGradient id="paint0_linear_24597_74" x1="24.475" y1="44.0593" x2="20.8133" y2="2.78407" gradientUnits="userSpaceOnUse">
<stop stop-color="#142A01"/>
<stop offset="0.460655" stop-color="#65DA00"/>
<stop offset="1" stop-color="#65DA00"/>
</linearGradient>
</defs>
</svg>
