<svg width="48" height="39" viewBox="0 0 48 39" fill="none" xmlns="http://www.w3.org/2000/svg">
<path d="M20.6094 37.9541C20.1426 37.9541 19.6771 37.7729 19.3281 37.4756C18.979 37.1781 18.7423 36.7607 18.7422 36.2871L18.7422 35.3877C18.7423 34.9234 18.9213 34.338 19.1855 33.7969C19.4501 33.2553 19.805 32.7473 20.1641 32.4395L20.165 32.4395L20.2549 32.3496C20.3145 32.2884 20.3999 32.1974 20.5029 32.082C20.709 31.8512 20.985 31.5197 21.2637 31.1172C21.7877 30.3602 22.3174 29.3589 22.4219 28.3066L22.4365 28.0957C22.5343 24.4464 19.3765 21.6787 15.916 21.6787C12.4533 21.6788 9.19902 24.4485 9.29687 27.9961C9.34595 29.0747 9.91028 30.1599 10.4697 30.9805C10.7487 31.3896 11.0243 31.731 11.2305 31.9697C11.3335 32.0891 11.4198 32.1823 11.4795 32.2461C11.509 32.2776 11.532 32.302 11.5479 32.3184C11.5557 32.3265 11.5624 32.3328 11.5664 32.3369C11.5683 32.3388 11.5693 32.3408 11.5703 32.3418L11.5723 32.3428L11.5762 32.3467L11.5762 32.3477C11.8811 32.7036 12.1844 33.2093 12.4111 33.7383C12.6375 34.2666 12.791 34.8256 12.791 35.2881L12.791 36.1865C12.791 36.7474 12.6375 37.2141 12.375 37.5293C12.1109 37.8462 11.7385 38.0071 11.3145 37.9541C8.61815 37.7543 5.72075 37.4547 2.92285 36.9551L2.92383 36.9541C2.5051 36.9007 2.06856 36.6418 1.72558 36.2988C1.38185 35.9551 1.12192 35.5173 1.06933 35.0977L1.06836 35.0967C0.469082 29.7032 0.0703189 24.408 0.0703117 19.0127C0.0703119 14.049 0.333178 8.99694 0.942383 4.02148L1.06934 3.02734C1.12161 2.60996 1.35504 2.17239 1.6875 1.82715C2.01951 1.48246 2.45658 1.22284 2.9248 1.16992C7.3213 0.47049 11.8182 0.0712976 16.3154 0.0712877C20.8128 0.0712879 25.3104 0.470455 29.707 1.16992C30.1269 1.22329 30.5389 1.48426 30.8691 1.82715C31.2006 2.17136 31.4572 2.60633 31.5605 3.01953L31.5625 3.02832L31.7031 4.25976C32.0119 7.12451 32.1866 9.92212 32.3613 12.7178L32.3613 12.7207C32.3614 12.7218 32.3622 12.7234 32.3623 12.7256C32.3625 12.7301 32.3626 12.737 32.3633 12.7461C32.3646 12.7642 32.3664 12.791 32.3701 12.8252C32.3775 12.894 32.3914 12.9927 32.415 13.1104C32.4625 13.3462 32.5506 13.6578 32.7148 13.9619C32.8789 14.2658 33.1178 14.5612 33.4648 14.7686C33.8112 14.9755 34.2707 15.0976 34.8818 15.0488L35.0791 15.0205C35.5351 14.9322 35.9672 14.6875 36.4072 14.3545C36.9116 13.9727 37.4154 13.4842 37.9746 12.9941C39.0881 12.0183 40.4033 11.0547 42.2773 11.0547C43.8006 11.0548 45.1686 11.8173 46.1533 13.1934C47.1372 14.5685 47.7383 16.5558 47.7383 19.0127C47.7383 21.42 47.1373 23.3826 46.1533 24.7451C45.1687 26.1085 43.8005 26.871 42.2773 26.8711C40.3543 26.8711 39.0393 25.933 37.9375 24.9814C37.3842 24.5036 36.8903 24.0279 36.3936 23.6553C35.9602 23.3303 35.5334 23.0909 35.0781 23.0039L34.8818 22.9766C34.2963 22.9278 33.8498 23.0499 33.5078 23.2568C33.165 23.4643 32.9225 23.76 32.752 24.0645C32.5815 24.369 32.4839 24.6809 32.4287 24.917C32.4012 25.0347 32.3839 25.1333 32.374 25.2021C32.3691 25.2363 32.3662 25.2631 32.3643 25.2812C32.3633 25.2901 32.3627 25.2972 32.3623 25.3018C32.3621 25.304 32.3614 25.3065 32.3613 25.3076L32.3154 26.542C32.1856 29.4261 31.9121 32.3005 31.5625 35.0977C31.5102 35.515 31.2768 35.9526 30.9443 36.2979C30.6125 36.6425 30.1751 36.901 29.707 36.9541C26.6091 37.4538 23.7105 37.7543 20.6133 37.9541L20.6094 37.9541Z" fill="url(#paint0_linear_24597_69)" stroke="#65DA00" stroke-width="0.139612"/>
<defs>
<linearGradient id="paint0_linear_24597_69" x1="-9.61009" y1="23.2478" x2="43.8707" y2="16.7329" gradientUnits="userSpaceOnUse">
<stop stop-color="#142A01"/>
<stop offset="0.460655" stop-color="#65DA00"/>
<stop offset="1" stop-color="#65DA00"/>
</linearGradient>
</defs>
</svg>
