<svg width="523" height="299" viewBox="0 0 523 299" fill="none" xmlns="http://www.w3.org/2000/svg">
<rect x="0.5" y="0.5" width="522" height="298" fill="black" stroke="#957BFF"/>
<path d="M6 19.4525C6 11.4706 12.4706 5 20.4525 5H505.547C513.529 5 520 11.4706 520 19.4525V282.547C520 290.529 513.529 297 505.547 297H20.4525C12.4706 297 6 290.529 6 282.547V19.4525Z" fill="#18181B" fill-opacity="0.5"/>
<mask id="mask0_4387_2859" style="mask-type:alpha" maskUnits="userSpaceOnUse" x="4" y="6" width="514" height="291">
<rect x="4" y="6" width="514" height="291" rx="14.4525" fill="white"/>
</mask>
<g mask="url(#mask0_4387_2859)">
<g opacity="0.4">
<circle cx="483.706" cy="260.889" r="151.3" fill="#171511"/>
<circle cx="483.705" cy="260.889" r="113.768" fill="#291E10"/>
<circle cx="483.706" cy="260.889" r="67.6352" fill="#3D270C"/>
</g>
</g>
<path d="M132.265 79.3C130.245 79.3 128.5 78.83 127.03 77.89C125.56 76.95 124.425 75.63 123.625 73.93C122.835 72.23 122.44 70.245 122.44 67.975C122.44 65.695 122.835 63.74 123.625 62.11C124.415 60.47 125.545 59.21 127.015 58.33C128.485 57.45 130.235 57.01 132.265 57.01C133.895 57.01 135.345 57.34 136.615 58C137.895 58.65 138.925 59.54 139.705 60.67C140.495 61.8 140.96 63.075 141.1 64.495H136.51C136.37 63.745 136.115 63.08 135.745 62.5C135.375 61.91 134.89 61.45 134.29 61.12C133.69 60.78 132.97 60.61 132.13 60.61C131.12 60.61 130.25 60.855 129.52 61.345C128.79 61.835 128.23 62.625 127.84 63.715C127.45 64.805 127.255 66.245 127.255 68.035C127.255 70.735 127.685 72.69 128.545 73.9C129.415 75.1 130.61 75.7 132.13 75.7C132.97 75.7 133.69 75.51 134.29 75.13C134.89 74.74 135.375 74.23 135.745 73.6C136.115 72.96 136.37 72.26 136.51 71.5H141.1C140.97 72.53 140.72 73.515 140.35 74.455C139.98 75.385 139.455 76.215 138.775 76.945C138.095 77.675 137.22 78.25 136.15 78.67C135.08 79.09 133.785 79.3 132.265 79.3ZM144.408 79V56.71H148.758V65.725C149.008 65.365 149.323 65.01 149.703 64.66C150.083 64.3 150.558 64 151.128 63.76C151.698 63.52 152.393 63.4 153.213 63.4C154.203 63.4 155.103 63.595 155.913 63.985C156.733 64.365 157.388 64.92 157.878 65.65C158.378 66.38 158.628 67.27 158.628 68.32V79H154.233V68.965C154.233 68.265 153.978 67.73 153.468 67.36C152.968 66.98 152.358 66.79 151.638 66.79C151.168 66.79 150.713 66.875 150.273 67.045C149.833 67.215 149.473 67.475 149.193 67.825C148.923 68.165 148.788 68.59 148.788 69.1V79H144.408ZM166.679 79.3C165.699 79.3 164.809 79.115 164.009 78.745C163.219 78.375 162.594 77.84 162.134 77.14C161.674 76.43 161.444 75.57 161.444 74.56C161.444 72.86 162.079 71.57 163.349 70.69C164.619 69.8 166.624 69.34 169.364 69.31L171.314 69.28V68.35C171.314 67.64 171.104 67.095 170.684 66.715C170.274 66.325 169.629 66.135 168.749 66.145C168.119 66.155 167.514 66.305 166.934 66.595C166.364 66.885 165.969 67.39 165.749 68.11H162.104C162.164 66.99 162.489 66.07 163.079 65.35C163.679 64.62 164.484 64.08 165.494 63.73C166.504 63.37 167.659 63.19 168.959 63.19C170.539 63.19 171.809 63.39 172.769 63.79C173.729 64.18 174.424 64.745 174.854 65.485C175.294 66.215 175.514 67.085 175.514 68.095V79H171.854L171.494 76.33C170.964 77.45 170.299 78.225 169.499 78.655C168.709 79.085 167.769 79.3 166.679 79.3ZM168.164 76.42C168.554 76.42 168.934 76.35 169.304 76.21C169.684 76.06 170.024 75.865 170.324 75.625C170.624 75.375 170.859 75.095 171.029 74.785C171.209 74.475 171.304 74.155 171.314 73.825V71.53L169.739 71.56C169.009 71.57 168.329 71.66 167.699 71.83C167.069 71.99 166.559 72.255 166.169 72.625C165.789 72.995 165.599 73.495 165.599 74.125C165.599 74.845 165.844 75.41 166.334 75.82C166.834 76.22 167.444 76.42 168.164 76.42ZM179.111 79V63.49H183.296V79H179.111ZM179.066 61.27V57.325H183.326V61.27H179.066ZM187.152 79V63.49H191.457V65.68C191.697 65.3 192.007 64.935 192.387 64.585C192.777 64.225 193.267 63.93 193.857 63.7C194.447 63.47 195.147 63.355 195.957 63.355C196.907 63.355 197.792 63.54 198.612 63.91C199.442 64.28 200.112 64.865 200.622 65.665C201.132 66.455 201.387 67.49 201.387 68.77V79H197.007V69.31C197.007 68.47 196.757 67.84 196.257 67.42C195.757 67 195.147 66.79 194.427 66.79C193.947 66.79 193.482 66.875 193.032 67.045C192.592 67.215 192.232 67.47 191.952 67.81C191.672 68.15 191.532 68.57 191.532 69.07V79H187.152ZM209.607 79L202.107 57.31H206.292L212.097 73.915L217.872 57.31H222.072L214.572 79H209.607ZM224.551 79V63.49H228.736V79H224.551ZM224.506 61.27V57.325H228.766V61.27H224.506ZM239.587 84.13C236.827 84.13 234.727 83.78 233.287 83.08C231.857 82.38 231.142 81.46 231.142 80.32C231.142 79.79 231.277 79.345 231.547 78.985C231.827 78.625 232.152 78.34 232.522 78.13C232.902 77.91 233.247 77.745 233.557 77.635C233.877 77.515 234.077 77.435 234.157 77.395C233.997 77.305 233.762 77.175 233.452 77.005C233.152 76.825 232.877 76.585 232.627 76.285C232.377 75.975 232.252 75.575 232.252 75.085C232.252 74.535 232.512 74.025 233.032 73.555C233.562 73.085 234.362 72.76 235.432 72.58C234.412 72.1 233.632 71.45 233.092 70.63C232.562 69.81 232.297 68.97 232.297 68.11C232.297 67.09 232.617 66.215 233.257 65.485C233.897 64.755 234.772 64.2 235.882 63.82C236.992 63.44 238.247 63.25 239.647 63.25C240.707 63.25 241.577 63.365 242.257 63.595C242.947 63.815 243.582 64.105 244.162 64.465C244.392 64.375 244.692 64.26 245.062 64.12C245.442 63.97 245.852 63.81 246.292 63.64C246.742 63.46 247.177 63.285 247.597 63.115C248.017 62.935 248.392 62.775 248.722 62.635L248.692 66.025L246.022 66.46C246.122 66.73 246.202 67.02 246.262 67.33C246.322 67.64 246.352 67.895 246.352 68.095C246.352 68.995 246.087 69.835 245.557 70.615C245.037 71.395 244.257 72.025 243.217 72.505C242.177 72.985 240.882 73.225 239.332 73.225C239.152 73.225 238.902 73.22 238.582 73.21C238.262 73.2 238.002 73.185 237.802 73.165C237.222 73.195 236.817 73.27 236.587 73.39C236.367 73.51 236.257 73.65 236.257 73.81C236.257 74.05 236.482 74.21 236.932 74.29C237.382 74.36 238.062 74.425 238.972 74.485C239.302 74.505 239.752 74.53 240.322 74.56C240.892 74.59 241.517 74.63 242.197 74.68C244.097 74.81 245.512 75.28 246.442 76.09C247.382 76.89 247.852 77.9 247.852 79.12C247.852 80.57 247.162 81.765 245.782 82.705C244.412 83.655 242.347 84.13 239.587 84.13ZM240.292 81.685C241.502 81.685 242.367 81.535 242.887 81.235C243.417 80.935 243.682 80.505 243.682 79.945C243.682 79.475 243.477 79.095 243.067 78.805C242.667 78.505 242.087 78.33 241.327 78.28L237.772 78.04C237.302 78.02 236.892 78.09 236.542 78.25C236.192 78.41 235.917 78.63 235.717 78.91C235.527 79.19 235.432 79.49 235.432 79.81C235.432 80.46 235.827 80.935 236.617 81.235C237.407 81.535 238.632 81.685 240.292 81.685ZM239.467 70.78C240.297 70.78 240.962 70.555 241.462 70.105C241.962 69.645 242.212 69.025 242.212 68.245C242.212 67.435 241.962 66.785 241.462 66.295C240.962 65.805 240.297 65.56 239.467 65.56C238.637 65.56 237.967 65.805 237.457 66.295C236.947 66.785 236.692 67.435 236.692 68.245C236.692 69.015 236.937 69.63 237.427 70.09C237.927 70.55 238.607 70.78 239.467 70.78ZM251.299 79V63.49H255.484V79H251.299ZM251.254 61.27V57.325H255.514V61.27H251.254ZM264.29 79.27C263.15 79.27 262.245 79.135 261.575 78.865C260.905 78.595 260.41 78.24 260.09 77.8C259.77 77.35 259.565 76.855 259.475 76.315C259.385 75.765 259.34 75.21 259.34 74.65V56.71H263.63V74.11C263.63 74.68 263.75 75.145 263.99 75.505C264.24 75.855 264.705 76.07 265.385 76.15L266.12 76.195V78.895C265.82 78.995 265.515 79.08 265.205 79.15C264.895 79.23 264.59 79.27 264.29 79.27Z" fill="white"/>
<rect x="40" y="53" width="68" height="31" fill="white"/>
<path fill-rule="evenodd" clip-rule="evenodd" d="M73.8981 38C98.965 38 100.188 38.034 101.886 38.6454C103.177 39.1209 104.162 39.8342 105.317 41.1249C106.2 42.1099 107.151 43.6044 107.457 44.4535C107.762 45.4725 107.932 47.4426 107.932 54.983L104.943 56.6134C103.313 57.5305 101.207 58.6174 100.29 59.0589C99.3387 59.4665 97.5385 60.2817 96.2138 60.8252C94.8891 61.3686 92.3077 62.2518 90.4396 62.7952C88.5714 63.3387 85.7522 64.018 84.1558 64.3237C82.5594 64.6294 78.7552 64.969 75.6643 65.0709C71.4525 65.2068 69.1429 65.1389 66.3237 64.6973C64.2517 64.3916 61.3646 63.8482 59.8701 63.4406C58.3756 63.0669 55.998 62.3536 54.6054 61.8781C53.2128 61.4366 50.5974 60.3836 48.8312 59.5684C47.0649 58.7532 44.3477 57.3946 40 54.983V50.3976C40 46.6613 40.1359 45.4725 40.6793 44.012C41.0529 42.993 41.9361 41.6683 42.7852 40.8192C43.6004 40.004 44.993 39.0529 45.9441 38.7133C47.5744 38.0679 48.6274 38.034 73.8641 38L73.8981 38ZM99.8821 65.8861C100.358 65.8521 100.426 66.1239 100.358 67.6524C100.29 68.6034 99.9501 70.03 99.6104 70.7433C99.2368 71.4905 98.4216 72.5095 97.7762 72.985C97.0969 73.4945 95.6703 74.038 94.3796 74.3097C92.6813 74.6494 91.5604 74.6494 89.4545 74.3437C87.96 74.1399 85.3447 73.5285 83.6803 72.985C81.982 72.4076 80.5894 72 80.5554 72.034C80.5554 72.1019 81.1668 74.3097 81.9141 76.9251C82.6953 79.5744 83.4086 81.8162 83.5105 81.9181C83.6124 82.02 84.6653 82.3596 85.8881 82.6993C87.1449 83.005 89.4206 83.2767 91.1529 83.2767C92.9191 83.2767 95.1608 83.039 96.4176 82.6993C97.6404 82.3936 99.7802 81.5784 101.173 80.8991C102.735 80.1179 104.535 78.8611 108 75.5325L107.966 86.8432C107.966 97.2028 107.898 98.2558 107.287 99.9201C106.879 100.973 106.064 102.23 105.181 103.079C104.366 103.86 103.177 104.777 102.531 105.117C101.411 105.728 99.984 105.762 74 105.762C48.016 105.762 46.5894 105.728 45.4685 105.117C44.8232 104.777 43.6344 103.86 42.8192 103.079C41.9361 102.23 41.1209 100.973 40.7133 99.9201C40.1019 98.2558 40.034 97.2368 40.034 75.5325L41.8002 77.2987C42.7852 78.2498 44.5175 79.6084 45.6384 80.2877C46.7592 80.967 48.6613 81.8162 49.8841 82.1898C51.1069 82.5634 53.1109 83.005 54.3676 83.1748C55.8961 83.4126 57.6284 83.3786 59.4625 83.1409C61.2288 82.9371 63.3686 82.3596 65.1688 81.6124C66.7652 80.9331 68.9051 80.0839 69.9241 79.7443C70.9431 79.3706 72.6753 79.031 75.6983 78.9291L75.8681 68.7393L81.4725 68.5015C84.5634 68.3656 88.7413 68.026 90.8132 67.7203C92.8512 67.4146 95.6024 66.9051 96.9271 66.5654C98.2518 66.2258 99.5764 65.9201 99.8821 65.8861ZM47.3027 66.1918C47.4046 66.1918 48.7632 66.4296 50.3257 66.7013C51.8541 66.973 54.8771 67.4146 57.017 67.6863C59.1568 67.958 62.4855 68.2637 67.8861 68.5694L67.8521 70.3696C67.8182 71.3207 67.7163 73.1209 67.3766 76.5515L66.3576 75.023C65.8142 74.1738 65.3726 73.4605 65.3387 73.3926C65.3387 73.3586 63.8781 73.5624 62.1119 73.8342C60.3457 74.1059 57.7303 74.3437 56.3377 74.3437C54.9451 74.3437 53.2128 74.1738 52.4995 74.004C51.8202 73.8002 50.6653 73.1549 49.986 72.5774C49.3067 71.966 48.4915 70.8452 48.1518 70.0979C47.8122 69.3507 47.4386 68.1618 47.3027 67.4825C47.2008 66.7692 47.1668 66.1918 47.3027 66.1918Z" fill="#0C0C0E"/>
<path d="M47.982 252.234C46.734 252.234 45.6247 251.991 44.654 251.506C43.7007 251.003 42.9553 250.301 42.418 249.4C41.898 248.481 41.638 247.433 41.638 246.254V239.52C41.638 238.341 41.898 237.31 42.418 236.426C42.9553 235.525 43.7007 234.831 44.654 234.346C45.6247 233.843 46.734 233.592 47.982 233.592C49.23 233.592 50.3307 233.835 51.284 234.32C52.2373 234.788 52.974 235.455 53.494 236.322C54.0313 237.189 54.3 238.194 54.3 239.338V239.364C54.3 239.451 54.274 239.52 54.222 239.572C54.17 239.624 54.1093 239.65 54.04 239.65L52.064 239.754C51.8907 239.754 51.804 239.676 51.804 239.52V239.442C51.804 238.333 51.4573 237.44 50.764 236.764C50.0707 236.088 49.1433 235.75 47.982 235.75C46.8207 235.75 45.8847 236.088 45.174 236.764C44.4807 237.44 44.134 238.333 44.134 239.442V246.358C44.134 247.467 44.4807 248.36 45.174 249.036C45.8847 249.712 46.8207 250.05 47.982 250.05C49.1433 250.05 50.0707 249.712 50.764 249.036C51.4573 248.36 51.804 247.467 51.804 246.358V246.306C51.804 246.15 51.8907 246.072 52.064 246.072L54.04 246.176C54.2133 246.176 54.3 246.263 54.3 246.436C54.3 247.58 54.0313 248.594 53.494 249.478C52.974 250.345 52.2373 251.021 51.284 251.506C50.3307 251.991 49.23 252.234 47.982 252.234ZM62.9956 252.208C61.7129 252.208 60.5949 251.887 59.6416 251.246C58.6882 250.587 58.0209 249.677 57.6396 248.516C57.3276 247.58 57.1716 246.523 57.1716 245.344C57.1716 244.113 57.3189 243.073 57.6136 242.224C57.9949 241.08 58.6622 240.187 59.6156 239.546C60.5689 238.887 61.7042 238.558 63.0216 238.558C64.2696 238.558 65.3529 238.887 66.2716 239.546C67.2076 240.187 67.8749 241.071 68.2736 242.198C68.5856 243.082 68.7416 244.122 68.7416 245.318C68.7416 246.531 68.5856 247.597 68.2736 248.516C67.8922 249.677 67.2336 250.587 66.2976 251.246C65.3616 251.887 64.2609 252.208 62.9956 252.208ZM62.9956 250.05C63.6889 250.05 64.2956 249.859 64.8156 249.478C65.3356 249.079 65.7082 248.525 65.9336 247.814C66.1242 247.155 66.2196 246.341 66.2196 245.37C66.2196 244.399 66.1329 243.593 65.9596 242.952C65.7342 242.241 65.3616 241.695 64.8416 241.314C64.3216 240.915 63.6889 240.716 62.9436 240.716C62.2329 240.716 61.6176 240.915 61.0976 241.314C60.5776 241.695 60.2049 242.241 59.9796 242.952C59.7889 243.559 59.6936 244.365 59.6936 245.37C59.6936 246.375 59.7889 247.19 59.9796 247.814C60.1876 248.525 60.5516 249.079 61.0716 249.478C61.6089 249.859 62.2502 250.05 62.9956 250.05ZM85.7635 238.584C87.0808 238.584 88.1208 238.983 88.8835 239.78C89.6461 240.56 90.0275 241.652 90.0275 243.056V251.74C90.0275 251.913 89.9408 252 89.7675 252H87.8175C87.6441 252 87.5575 251.913 87.5575 251.74V243.576C87.5575 242.709 87.3148 242.025 86.8295 241.522C86.3615 241.002 85.7288 240.742 84.9315 240.742C84.1341 240.742 83.4841 240.993 82.9815 241.496C82.4788 241.999 82.2275 242.675 82.2275 243.524V251.74C82.2275 251.913 82.1408 252 81.9675 252H80.0175C79.8441 252 79.7575 251.913 79.7575 251.74V243.576C79.7575 242.709 79.5148 242.025 79.0295 241.522C78.5615 241.002 77.9288 240.742 77.1315 240.742C76.3341 240.742 75.6928 240.993 75.2075 241.496C74.7395 241.999 74.5055 242.675 74.5055 243.524V251.74C74.5055 251.913 74.4188 252 74.2455 252H72.2695C72.0961 252 72.0095 251.913 72.0095 251.74V239.026C72.0095 238.853 72.0961 238.766 72.2695 238.766H74.2455C74.4188 238.766 74.5055 238.853 74.5055 239.026V239.91C74.5055 239.945 74.5141 239.971 74.5315 239.988C74.5661 240.005 74.6008 239.997 74.6355 239.962C75.3981 239.043 76.5075 238.584 77.9635 238.584C78.8475 238.584 79.6015 238.757 80.2255 239.104C80.8495 239.433 81.3348 239.927 81.6815 240.586C81.7335 240.655 81.7855 240.655 81.8375 240.586C82.2535 239.91 82.7995 239.407 83.4755 239.078C84.1688 238.749 84.9315 238.584 85.7635 238.584ZM94.9979 236.686C94.5126 236.686 94.1139 236.53 93.8019 236.218C93.4899 235.906 93.3339 235.507 93.3339 235.022C93.3339 234.537 93.4899 234.138 93.8019 233.826C94.1139 233.514 94.5126 233.358 94.9979 233.358C95.4833 233.358 95.8819 233.514 96.1939 233.826C96.5059 234.138 96.6619 234.537 96.6619 235.022C96.6619 235.507 96.5059 235.906 96.1939 236.218C95.8819 236.53 95.4833 236.686 94.9979 236.686ZM93.9579 251.974C93.7846 251.974 93.6979 251.887 93.6979 251.714V239.026C93.6979 238.853 93.7846 238.766 93.9579 238.766H95.9339C96.1073 238.766 96.1939 238.853 96.1939 239.026V251.714C96.1939 251.887 96.1073 251.974 95.9339 251.974H93.9579ZM106.019 238.584C107.44 238.584 108.567 239 109.399 239.832C110.231 240.647 110.647 241.756 110.647 243.16V251.74C110.647 251.913 110.56 252 110.387 252H108.411C108.238 252 108.151 251.913 108.151 251.74V243.654C108.151 242.787 107.9 242.085 107.397 241.548C106.894 241.011 106.227 240.742 105.395 240.742C104.58 240.742 103.913 241.011 103.393 241.548C102.873 242.085 102.613 242.779 102.613 243.628V251.74C102.613 251.913 102.526 252 102.353 252H100.377C100.204 252 100.117 251.913 100.117 251.74V239.026C100.117 238.853 100.204 238.766 100.377 238.766H102.353C102.526 238.766 102.613 238.853 102.613 239.026V239.962C102.613 239.997 102.622 240.023 102.639 240.04C102.674 240.057 102.7 240.049 102.717 240.014C103.462 239.061 104.563 238.584 106.019 238.584ZM122.347 239.026C122.347 238.853 122.433 238.766 122.607 238.766H124.583C124.756 238.766 124.843 238.853 124.843 239.026V251.324C124.843 253.421 124.245 254.921 123.049 255.822C121.87 256.723 120.284 257.174 118.291 257.174C118.013 257.174 117.58 257.157 116.991 257.122C116.817 257.105 116.731 257.009 116.731 256.836L116.809 255.042C116.809 254.973 116.835 254.912 116.887 254.86C116.939 254.808 117.008 254.791 117.095 254.808C117.337 254.825 117.693 254.834 118.161 254.834C119.634 254.834 120.7 254.557 121.359 254.002C122.017 253.465 122.347 252.546 122.347 251.246V250.778C122.347 250.743 122.329 250.717 122.295 250.7C122.277 250.683 122.251 250.691 122.217 250.726C121.489 251.575 120.423 252 119.019 252C117.892 252 116.869 251.705 115.951 251.116C115.049 250.527 114.425 249.66 114.079 248.516C113.853 247.753 113.741 246.696 113.741 245.344C113.741 243.905 113.871 242.796 114.131 242.016C114.46 240.976 115.041 240.144 115.873 239.52C116.722 238.879 117.719 238.558 118.863 238.558C120.284 238.558 121.402 238.991 122.217 239.858C122.251 239.893 122.277 239.91 122.295 239.91C122.329 239.893 122.347 239.867 122.347 239.832V239.026ZM122.191 247.762C122.243 247.485 122.277 247.19 122.295 246.878C122.329 246.566 122.347 246.046 122.347 245.318C122.347 244.59 122.329 244.079 122.295 243.784C122.277 243.472 122.234 243.177 122.165 242.9C122.026 242.259 121.714 241.739 121.229 241.34C120.743 240.924 120.137 240.716 119.409 240.716C118.681 240.716 118.074 240.924 117.589 241.34C117.103 241.739 116.757 242.259 116.549 242.9C116.358 243.42 116.263 244.226 116.263 245.318C116.263 246.514 116.349 247.329 116.523 247.762C116.696 248.403 117.034 248.932 117.537 249.348C118.057 249.747 118.681 249.946 119.409 249.946C120.171 249.946 120.787 249.747 121.255 249.348C121.74 248.932 122.052 248.403 122.191 247.762ZM139.459 252.208C138.124 252.208 136.963 252 135.975 251.584C135.004 251.168 134.25 250.579 133.713 249.816C133.193 249.053 132.933 248.161 132.933 247.138V246.384C132.933 246.211 133.02 246.124 133.193 246.124H135.091C135.264 246.124 135.351 246.211 135.351 246.384V247.008C135.351 247.892 135.732 248.62 136.495 249.192C137.258 249.764 138.306 250.05 139.641 250.05C140.837 250.05 141.738 249.799 142.345 249.296C142.952 248.793 143.255 248.135 143.255 247.32C143.255 246.783 143.099 246.323 142.787 245.942C142.475 245.561 142.016 245.214 141.409 244.902C140.82 244.573 139.953 244.183 138.809 243.732C137.544 243.247 136.538 242.805 135.793 242.406C135.065 242.007 134.458 241.487 133.973 240.846C133.488 240.187 133.245 239.364 133.245 238.376C133.245 236.885 133.774 235.715 134.831 234.866C135.906 234.017 137.353 233.592 139.173 233.592C140.456 233.592 141.582 233.809 142.553 234.242C143.524 234.675 144.269 235.282 144.789 236.062C145.326 236.842 145.595 237.743 145.595 238.766V239.286C145.595 239.459 145.508 239.546 145.335 239.546H143.385C143.212 239.546 143.125 239.459 143.125 239.286V238.896C143.125 237.995 142.761 237.249 142.033 236.66C141.322 236.053 140.334 235.75 139.069 235.75C137.994 235.75 137.162 235.975 136.573 236.426C135.984 236.859 135.689 237.492 135.689 238.324C135.689 238.896 135.836 239.364 136.131 239.728C136.426 240.092 136.859 240.421 137.431 240.716C138.02 240.993 138.913 241.357 140.109 241.808C141.34 242.293 142.336 242.744 143.099 243.16C143.862 243.559 144.494 244.096 144.997 244.772C145.5 245.431 145.751 246.254 145.751 247.242C145.751 248.767 145.188 249.981 144.061 250.882C142.952 251.766 141.418 252.208 139.459 252.208ZM154.224 252.208C152.941 252.208 151.823 251.887 150.87 251.246C149.917 250.587 149.249 249.677 148.868 248.516C148.556 247.58 148.4 246.523 148.4 245.344C148.4 244.113 148.547 243.073 148.842 242.224C149.223 241.08 149.891 240.187 150.844 239.546C151.797 238.887 152.933 238.558 154.25 238.558C155.498 238.558 156.581 238.887 157.5 239.546C158.436 240.187 159.103 241.071 159.502 242.198C159.814 243.082 159.97 244.122 159.97 245.318C159.97 246.531 159.814 247.597 159.502 248.516C159.121 249.677 158.462 250.587 157.526 251.246C156.59 251.887 155.489 252.208 154.224 252.208ZM154.224 250.05C154.917 250.05 155.524 249.859 156.044 249.478C156.564 249.079 156.937 248.525 157.162 247.814C157.353 247.155 157.448 246.341 157.448 245.37C157.448 244.399 157.361 243.593 157.188 242.952C156.963 242.241 156.59 241.695 156.07 241.314C155.55 240.915 154.917 240.716 154.172 240.716C153.461 240.716 152.846 240.915 152.326 241.314C151.806 241.695 151.433 242.241 151.208 242.952C151.017 243.559 150.922 244.365 150.922 245.37C150.922 246.375 151.017 247.19 151.208 247.814C151.416 248.525 151.78 249.079 152.3 249.478C152.837 249.859 153.479 250.05 154.224 250.05ZM168.646 252.208C167.363 252.208 166.245 251.887 165.292 251.246C164.339 250.587 163.671 249.677 163.29 248.516C162.978 247.58 162.822 246.523 162.822 245.344C162.822 244.113 162.969 243.073 163.264 242.224C163.645 241.08 164.313 240.187 165.266 239.546C166.219 238.887 167.355 238.558 168.672 238.558C169.92 238.558 171.003 238.887 171.922 239.546C172.858 240.187 173.525 241.071 173.924 242.198C174.236 243.082 174.392 244.122 174.392 245.318C174.392 246.531 174.236 247.597 173.924 248.516C173.543 249.677 172.884 250.587 171.948 251.246C171.012 251.887 169.911 252.208 168.646 252.208ZM168.646 250.05C169.339 250.05 169.946 249.859 170.466 249.478C170.986 249.079 171.359 248.525 171.584 247.814C171.775 247.155 171.87 246.341 171.87 245.37C171.87 244.399 171.783 243.593 171.61 242.952C171.385 242.241 171.012 241.695 170.492 241.314C169.972 240.915 169.339 240.716 168.594 240.716C167.883 240.716 167.268 240.915 166.748 241.314C166.228 241.695 165.855 242.241 165.63 242.952C165.439 243.559 165.344 244.365 165.344 245.37C165.344 246.375 165.439 247.19 165.63 247.814C165.838 248.525 166.202 249.079 166.722 249.478C167.259 249.859 167.901 250.05 168.646 250.05ZM183.562 238.584C184.983 238.584 186.11 239 186.942 239.832C187.774 240.647 188.19 241.756 188.19 243.16V251.74C188.19 251.913 188.103 252 187.93 252H185.954C185.781 252 185.694 251.913 185.694 251.74V243.654C185.694 242.787 185.443 242.085 184.94 241.548C184.437 241.011 183.77 240.742 182.938 240.742C182.123 240.742 181.456 241.011 180.936 241.548C180.416 242.085 180.156 242.779 180.156 243.628V251.74C180.156 251.913 180.069 252 179.896 252H177.92C177.747 252 177.66 251.913 177.66 251.74V239.026C177.66 238.853 177.747 238.766 177.92 238.766H179.896C180.069 238.766 180.156 238.853 180.156 239.026V239.962C180.156 239.997 180.165 240.023 180.182 240.04C180.217 240.057 180.243 240.049 180.26 240.014C181.005 239.061 182.106 238.584 183.562 238.584Z" fill="#8A94A6"/>
</svg>
