<svg width="111" height="15" viewBox="0 0 111 15" fill="none" xmlns="http://www.w3.org/2000/svg">
<g clip-path="url(#clip0_5871_112)">
<mask id="mask0_5871_112" style="mask-type:luminance" maskUnits="userSpaceOnUse" x="-75" y="-869" width="675" height="954">
<path d="M-74.1172 84.5586H599.545V-868.194H-74.1172V84.5586Z" fill="white"/>
</mask>
<g mask="url(#mask0_5871_112)">
<path d="M69.1096 3.83651C68.2065 3.83651 67.4924 4.02437 67.0228 4.49515L66.4773 5.03949H66.3132H65.7972C65.2868 4.23713 64.3882 3.83651 63.0902 3.83651C62.1882 3.83651 61.473 4.02437 61.0034 4.49515L60.4579 5.03949H59.9124L59.6499 4.02437H57.769V13.9164H60.3074V7.86078C60.3074 6.69514 60.9094 6.09309 62.1135 6.09309C63.2418 6.09309 63.7681 6.63856 63.7681 7.86078V13.9164H66.3064V7.82343L66.3268 7.84607C66.3313 6.69062 66.9334 6.09309 68.1318 6.09309C69.2601 6.09309 69.7864 6.63856 69.7864 7.86078V13.9164H72.3247V7.18403C72.3247 4.94556 71.2723 3.83651 69.1096 3.83651ZM85.3855 11.7719H88.1128V6.14967H85.7057V4.02437H89.9371L90.1815 5.03949H90.7451L91.2906 4.49515C91.7421 4.02437 92.4574 3.83651 93.3774 3.83651H94.9765V6.11233H92.4755C91.2725 6.11233 90.6512 6.69514 90.6512 7.76685V11.7719H93.8109V13.9164H85.3855V11.7719ZM78.3668 12.2053C79.6637 12.2053 80.3981 11.5274 80.3981 10.3426V9.7224H78.4607C77.389 9.7224 76.8435 10.1739 76.8435 11.0012C76.8435 11.7345 77.2758 12.2053 78.3668 12.2053ZM74.2678 11.2456C74.2678 9.29009 75.5647 8.25573 77.8213 8.25573H80.3981V7.5224C80.3981 6.30019 79.8527 5.79206 78.7244 5.79206C77.7647 5.79206 77.088 6.16891 77.0133 7.08897H74.7182C74.7941 5.03949 76.2234 3.83651 78.9304 3.83651C81.6385 3.83651 82.9365 5.00215 82.9365 7.40924V13.9164H80.981L80.7365 12.9002H80.191L79.6456 13.4456C79.194 13.8972 78.4799 14.1043 77.5203 14.1043C75.3961 14.1043 74.2678 13.0892 74.2678 11.2456ZM49.9208 9.75974H48.8117V13.9164H46.2734V0.000107765H48.8117V7.50317H49.9593L52.5531 4.02437H55.4502L52.0834 8.63259L55.5622 13.9164H52.5723L49.9208 9.75974ZM34.5265 8.96983C34.5265 5.49103 36.1437 3.83651 39.2275 3.83651C42.0477 3.83651 43.5336 5.22848 43.6094 7.80419H41.1457C41.0326 6.54463 40.3932 5.97992 39.2275 5.97992C37.779 5.97992 37.1396 6.84566 37.1396 8.96983C37.1396 11.0951 37.779 11.9609 39.2275 11.9609C40.4124 11.9609 41.0699 11.3962 41.165 10.0234H43.666C43.5902 12.6931 42.0669 14.1043 39.2275 14.1043C36.1437 14.1043 34.5265 12.4305 34.5265 8.96983ZM29.9228 7.80419C29.8855 6.4507 29.2268 5.71624 27.9107 5.71624C26.6511 5.71624 25.9551 6.37488 25.7299 7.80419H29.9228ZM23.1723 8.96983C23.1723 5.49103 24.8088 3.83651 27.9107 3.83651C31.1269 3.83651 32.6128 5.56686 32.2552 9.40326H25.6734C25.7673 11.3588 26.4633 12.1861 27.9299 12.1861C29.0016 12.1861 29.7157 11.7526 29.8855 10.8699H32.2168C31.9915 12.9194 30.431 14.1043 27.8541 14.1043C24.7895 14.1043 23.1723 12.4305 23.1723 8.96983ZM12.0943 0.000107765H14.6327V3.29104L14.4075 4.90822L14.9337 5.03949L15.4792 4.49515C15.9499 4.02437 16.6074 3.83651 17.4913 3.83651C19.6166 3.83651 20.6317 4.94556 20.6317 7.18403V13.9164H18.0933V7.86078C18.0933 6.63856 17.5671 6.09309 16.4388 6.09309C15.2347 6.09309 14.6327 6.69514 14.6327 7.86078V13.9164H12.0943V0.000107765ZM0 7.42847C0 2.70823 1.52212 0.639509 5.00204 0.639509C8.12322 0.639509 9.62723 2.33251 9.75963 5.86788H7.18279C7.08886 3.91234 6.41212 3.00925 5.00204 3.00925C3.34752 3.00925 2.68888 4.23147 2.68888 7.42847C2.68888 10.7194 3.30904 11.8477 5.00204 11.8477C6.44946 11.8477 7.1081 11.0385 7.22127 8.95172H9.83433C9.68381 12.5244 8.12322 14.2163 5.00204 14.2163C1.52212 14.2163 0 12.1487 0 7.42847Z" fill="white"/>
</g>
<mask id="mask1_5871_112" style="mask-type:luminance" maskUnits="userSpaceOnUse" x="-75" y="-869" width="675" height="954">
<path d="M-74.1172 84.5586H599.545V-868.194H-74.1172V84.5586Z" fill="white"/>
</mask>
<g mask="url(#mask1_5871_112)">
<path d="M107.93 1.30324L102.278 7.41885C102.161 7.53542 101.948 7.53655 101.84 7.43243L98.9346 4.06454L98.9199 4.0487C98.6697 3.79747 98.3257 3.66393 97.9715 3.67977C97.615 3.69675 97.2812 3.86311 97.0526 4.13924C96.8489 4.38594 96.7515 4.70055 96.7776 5.02648C96.8025 5.34108 96.9394 5.63645 97.1714 5.86845L100.509 8.74405L100.599 8.96586L100.519 9.17862L97.1805 12.0531L97.1657 12.0678C96.9247 12.3089 96.7844 12.6427 96.7798 12.9867C96.7742 13.3466 96.9122 13.6759 97.168 13.9136C97.2868 14.0245 97.4226 14.1094 97.5731 14.1671C97.8696 14.2814 98.208 14.2791 98.5023 14.1592C98.6596 14.0958 98.7999 14.003 98.9278 13.874L101.831 10.5083C101.949 10.394 102.156 10.394 102.265 10.4993L105.17 13.8672L105.185 13.883C105.305 14.003 105.446 14.0958 105.602 14.1603C105.754 14.2214 105.914 14.252 106.077 14.252C106.234 14.252 106.387 14.2237 106.532 14.1671C106.682 14.1094 106.819 14.0234 106.937 13.9136C107.192 13.6759 107.331 13.3466 107.325 12.9867C107.32 12.6427 107.18 12.3077 106.931 12.0599L103.596 9.18767L103.505 8.96586L103.588 8.74971L109.698 3.10488C109.921 2.88081 110.058 2.58544 110.083 2.27196C110.109 1.94604 110.01 1.6303 109.808 1.38359C109.579 1.10746 109.244 0.93997 108.89 0.925259L108.832 0.922994C108.501 0.922994 108.175 1.0588 107.93 1.30324Z" fill="#5295D6"/>
</g>
<mask id="mask2_5871_112" style="mask-type:luminance" maskUnits="userSpaceOnUse" x="-75" y="-869" width="675" height="954">
<path d="M-74.1172 84.5586H599.545V-868.194H-74.1172V84.5586Z" fill="white"/>
</mask>
<g mask="url(#mask2_5871_112)">
<path d="M110.083 2.27074C110.109 1.94481 110.01 1.62908 109.808 1.3835C109.579 1.1085 109.244 0.93988 108.89 0.924036L108.832 0.922905C108.501 0.922905 108.175 1.05758 107.93 1.30202L102.278 7.41876C102.161 7.5342 101.948 7.53646 101.84 7.43121L98.9346 4.06332L98.9199 4.04748C98.6697 3.79738 98.3257 3.66271 97.9715 3.67968C97.615 3.69553 97.2812 3.86302 97.0526 4.13915C96.8489 4.38472 96.7515 4.70046 96.7776 5.02639C96.8025 5.33986 96.9394 5.63523 97.1714 5.86723L99.7211 8.06382L100.69 8.899C101.497 9.59386 102.697 9.57349 103.479 8.85034L104.229 8.15775L109.698 3.10366C109.921 2.88072 110.058 2.58422 110.083 2.27074Z" fill="#F0347E"/>
</g>
</g>
<defs>
<clipPath id="clip0_5871_112">
<rect width="110.096" height="14.2517" fill="white"/>
</clipPath>
</defs>
</svg>
