<svg width="198" height="27" viewBox="0 0 198 27" fill="none" xmlns="http://www.w3.org/2000/svg">
<g clip-path="url(#clip0_5555_29277)">
<path d="M195.31 2.84626C195.947 2.87497 196.547 3.17602 196.956 3.67059C197.32 4.11214 197.497 4.67732 197.45 5.26232C197.406 5.82516 197.159 6.35521 196.76 6.75693L185.802 16.882C185.711 16.9745 185.654 17.1179 185.654 17.2678C185.654 17.4157 185.711 17.5578 185.815 17.666L191.796 22.8173C192.244 23.2611 192.497 23.8612 192.505 24.4771C192.514 25.1239 192.266 25.7162 191.807 26.1424C191.596 26.3386 191.35 26.4924 191.081 26.5961C190.818 26.6977 190.544 26.7488 190.264 26.7488C189.973 26.7488 189.684 26.694 189.413 26.5836C189.133 26.4688 188.881 26.3031 188.665 26.0868L188.638 26.0605L183.427 20.0196C183.233 19.8321 182.86 19.8323 182.649 20.0377L177.442 26.073C177.215 26.3025 176.96 26.4702 176.68 26.585C176.153 26.7992 175.546 26.8043 175.013 26.599C174.745 26.4952 174.5 26.3423 174.287 26.1438C173.828 25.7176 173.581 25.1282 173.589 24.4812C173.599 23.8676 173.849 23.2645 174.283 22.834L174.31 22.8076L180.297 17.6507C180.383 17.5602 180.442 17.4178 180.442 17.2678C180.44 17.118 180.383 16.9766 180.28 16.8709L174.291 11.714C173.875 11.2989 173.629 10.7684 173.585 10.2055C173.54 9.62049 173.716 9.05528 174.08 8.61373C174.488 8.11917 175.089 7.81812 175.727 7.78942C176.363 7.75855 176.981 7.9996 177.429 8.44999L177.456 8.47913L182.666 14.52C182.862 14.7076 183.245 14.7025 183.453 14.495L193.591 3.52627C194.031 3.08718 194.612 2.84496 195.206 2.84487C195.239 2.84487 195.276 2.84406 195.31 2.84626Z" fill="white"/>
<path d="M8.9704 2.31885C14.5695 2.31885 17.2651 5.35226 17.5037 11.6931H12.8838C12.716 8.18495 11.5006 6.56673 8.9704 6.56673C6.00322 6.5669 4.82241 8.75987 4.82241 14.4935C4.82248 20.3946 5.93487 22.4189 8.9704 22.419C11.5668 22.419 12.7486 20.969 12.9518 17.2246H17.6397C17.368 23.6316 14.5695 26.6668 8.9704 26.6668C2.73121 26.6667 0.00010883 22.9582 0 14.4935C0 6.02863 2.73108 2.31898 8.9704 2.31885Z" fill="white"/>
<path fill-rule="evenodd" clip-rule="evenodd" d="M50.0688 8.05029C55.838 8.05038 58.4999 11.1532 57.8597 18.0351H46.054C46.222 21.5431 47.4727 23.0269 50.1022 23.0269C52.025 23.0267 53.3056 22.2514 53.6103 20.6663H57.7916C57.3876 24.3423 54.5884 26.4684 49.9675 26.4685C44.47 26.4662 41.5705 23.464 41.5703 17.2579C41.5703 11.0185 44.5049 8.05029 50.0688 8.05029ZM50.0688 11.4225C47.8102 11.4225 46.5608 12.6033 46.1568 15.1667H53.6784C53.6099 12.7381 52.4289 11.4226 50.0688 11.4225Z" fill="white"/>
<path fill-rule="evenodd" clip-rule="evenodd" d="M141.567 8.05322C146.424 8.05324 148.752 10.144 148.752 14.4605V26.1314H145.243L144.803 24.3092H143.826L142.847 25.2876C142.04 26.0956 140.757 26.4685 139.037 26.4687C135.226 26.4664 133.203 24.6447 133.203 21.3395C133.203 17.8316 135.53 15.9775 139.577 15.9773H144.199V14.6617C144.199 12.4694 143.221 11.5588 141.197 11.5587C139.477 11.5587 138.262 12.2345 138.127 13.8859H134.012C134.147 10.2099 136.71 8.05322 141.567 8.05322ZM140.723 18.6084C138.801 18.6085 137.823 19.419 137.823 20.9024C137.823 22.216 138.599 23.0603 140.555 23.0603C142.883 23.0603 144.199 21.8454 144.199 19.7214V18.6084H140.723Z" fill="white"/>
<path d="M70.3616 8.05029C75.4199 8.05034 78.0851 10.5478 78.2219 15.1667H73.8033C73.6002 12.9082 72.455 11.8946 70.3645 11.8944C67.7679 11.8944 66.619 13.4472 66.619 17.2579C66.619 21.0684 67.766 22.6203 70.3645 22.6203C72.488 22.62 73.6694 21.6089 73.8394 19.1454H78.3259C78.1912 23.9342 75.4573 26.4642 70.3659 26.4642C64.8309 26.4665 61.93 23.464 61.9297 17.2579C61.9297 11.0185 64.8309 8.05029 70.3616 8.05029Z" fill="white"/>
<path d="M87.5454 14.6254H89.6035L94.258 8.38613H99.4524L93.4142 16.6502L99.6536 26.127H94.2898L89.5341 18.6749H87.5454V26.1284H82.9922V1.16846H87.5454V14.6254Z" fill="white"/>
<path d="M123.959 8.05029C127.838 8.05032 129.725 10.0398 129.728 14.0537V26.1284H125.176V15.2679C125.176 13.0758 124.228 12.0971 122.206 12.097C120.056 12.097 118.977 13.1684 118.969 15.2416L118.931 15.2014V26.1284H114.379V15.2679C114.379 13.0756 113.435 12.097 111.411 12.097C109.252 12.0971 108.172 13.1773 108.172 15.2679V26.1284H103.617V8.3889H106.988L107.461 10.2096H108.44L109.418 9.23126C110.261 8.38822 111.544 8.05029 113.162 8.05029C115.491 8.05031 117.102 8.7701 118.018 10.2096H119.236L120.215 9.23126C121.058 8.3882 122.341 8.05029 123.959 8.05029Z" fill="white"/>
<path d="M26.2472 7.07055L25.8434 9.97093L26.7884 10.2082L27.7668 9.22988C28.6102 8.38646 29.7918 8.0489 31.3748 8.0489C35.1874 8.04911 37.0062 10.0376 37.0063 14.0509V26.127H32.4545V15.2652C32.4544 13.0732 31.5084 12.0956 29.4861 12.0956C27.3272 12.0957 26.2474 13.1749 26.2472 15.2652V26.127H21.6953V1.16846H26.2472V7.07055Z" fill="white"/>
<path d="M170.344 12.1303H165.858C163.698 12.1304 162.585 13.1757 162.585 15.0987V22.2831H168.251V26.127H153.141V22.2831H158.03V12.1969H153.715V8.3889H161.303L161.742 10.2096H162.753L163.732 9.23126C164.542 8.38789 165.824 8.05029 167.476 8.05029H170.344V12.1303Z" fill="white"/>
</g>
<defs>
<clipPath id="clip0_5555_29277">
<rect width="197.526" height="27" fill="white"/>
</clipPath>
</defs>
</svg>
