<svg width="47" height="47" viewBox="0 0 47 47" fill="none" xmlns="http://www.w3.org/2000/svg">
<circle cx="23.5" cy="23.5" r="23.5" fill="#6C35FD"/>
<path d="M32.9565 11.7411L22.7938 22.7358C22.5843 22.9454 22.2018 22.9474 22.0065 22.7603L16.7837 16.7054L16.7573 16.6769C16.3077 16.2252 15.6892 15.9852 15.0523 16.0136C14.4115 16.0442 13.8113 16.3432 13.4003 16.8397C13.0341 17.2832 12.8591 17.8488 12.9059 18.4348C12.9506 19.0004 13.1968 19.5314 13.6139 19.9485L19.6138 25.1183L19.7766 25.5171L19.6321 25.8996L13.6302 31.0674L13.6037 31.0938C13.1704 31.5272 12.9181 32.1274 12.9099 32.7459C12.8998 33.3929 13.148 33.9849 13.6078 34.4122C13.8214 34.6116 14.0656 34.7642 14.3362 34.8679C14.8692 35.0734 15.4776 35.0693 16.0065 34.8537C16.2894 34.7397 16.5416 34.5729 16.7715 34.341L21.9902 28.2902C22.2038 28.0847 22.5761 28.0847 22.7715 28.2739L27.9942 34.3288L28.0206 34.3572C28.2363 34.5729 28.4906 34.7397 28.7714 34.8557C29.044 34.9656 29.3309 35.0205 29.6239 35.0205C29.9067 35.0205 30.1813 34.9696 30.4417 34.8679C30.7123 34.7642 30.9585 34.6095 31.1701 34.4122C31.6299 33.9849 31.8781 33.3929 31.868 32.7459C31.8598 32.1274 31.6075 31.5251 31.1599 31.0796L25.1641 25.9159L25.0013 25.5171L25.1499 25.1285L36.1344 14.9801C36.5353 14.5773 36.7814 14.0462 36.8262 13.4827C36.873 12.8967 36.696 12.3291 36.3318 11.8855C35.9208 11.3891 35.3186 11.088 34.6818 11.0615L34.578 11.0575C33.9819 11.0575 33.3959 11.3016 32.9565 11.7411Z" fill="white"/>
</svg>
