<svg width="48" height="48" viewBox="0 0 48 48" fill="none" xmlns="http://www.w3.org/2000/svg">
<path opacity="0.5" d="M0 15C0 6.71573 6.71573 0 15 0H33C41.2843 0 48 6.71573 48 15V33C48 41.2843 41.2843 48 33 48H15C6.71573 48 0 41.2843 0 33V15Z" fill="#30473A"/>
<path fill-rule="evenodd" clip-rule="evenodd" d="M24.0015 39.9996C20.9846 39.9996 19.4761 39.9996 18.5388 39.0623C17.6016 38.1251 17.6016 36.6166 17.6016 33.5997C17.6016 30.5827 17.6016 29.0743 18.5388 28.137C19.4761 27.1997 20.9846 27.1997 24.0015 27.1997C27.0184 27.1997 28.5269 27.1997 29.4642 28.137C30.4015 29.0743 30.4015 30.5827 30.4015 33.5997C30.4015 36.6166 30.4015 38.1251 29.4642 39.0623C28.5269 39.9996 27.0184 39.9996 24.0015 39.9996ZM21.9113 30.001C21.4948 29.5845 20.8195 29.5845 20.4029 30.001C19.9863 30.4176 19.9863 31.093 20.4029 31.5094L22.0764 33.183C22.3065 33.4131 22.3065 33.7862 22.0764 34.0163L20.4029 35.6899C19.9863 36.1064 19.9863 36.7817 20.4029 37.1983C20.8195 37.6148 21.4948 37.6148 21.9113 37.1983L23.5849 35.5248C23.815 35.2947 24.188 35.2947 24.4181 35.5248L26.0917 37.1983C26.5082 37.6148 27.1836 37.6148 27.6002 37.1983C28.0167 36.7817 28.0167 36.1064 27.6002 35.6899L25.9266 34.0163C25.6965 33.7862 25.6965 33.4131 25.9266 33.183L27.6002 31.5094C28.0167 31.093 28.0167 30.4176 27.6002 30.001C27.1836 29.5845 26.5082 29.5845 26.0917 30.001L24.4181 31.6746C24.188 31.9047 23.815 31.9047 23.5849 31.6746L21.9113 30.001Z" fill="#65DA01"/>
<path d="M15.0568 33.5998C15.1358 33.5998 15.2 33.5357 15.2 33.4566C15.1998 32.0716 15.1996 30.8017 15.3385 29.7688C15.4915 28.6312 15.8513 27.429 16.8402 26.44C17.829 25.4512 19.0313 25.0914 20.1689 24.9384C21.2018 24.7995 22.4717 24.7997 23.8567 24.7999H24.1431C25.528 24.7997 26.7979 24.7995 27.8309 24.9384C28.9685 25.0914 30.1707 25.4512 31.1597 26.44C32.1484 27.429 32.5083 28.6312 32.6612 29.7688C32.7732 30.602 32.7948 31.5892 32.7989 32.6667C32.8003 33.0417 33.1463 33.3221 33.5057 33.2148C37.2635 32.0926 39.9997 28.6443 39.9997 24.5645C39.9997 20.74 37.5952 17.4704 34.1985 16.1518C33.9861 16.0694 33.8334 15.879 33.7984 15.6539C33.1255 11.3196 29.3359 8 24.7618 8C19.7124 8 15.619 12.0452 15.619 17.0352C15.619 17.7702 15.7078 18.4847 15.8754 19.1687C15.985 19.6161 15.6012 20.0712 15.141 20.0527C15.0468 20.0489 14.9522 20.047 14.8571 20.047C11.07 20.047 8 23.0808 8 26.8234C8 30.5659 11.07 33.5998 14.8571 33.5998H15.0568Z" fill="#65DA01"/>
</svg>
