<svg width="48" height="48" viewBox="0 0 48 48" fill="none" xmlns="http://www.w3.org/2000/svg">
<path opacity="0.5" d="M0 15C0 6.71573 6.71573 0 15 0H33C41.2843 0 48 6.71573 48 15V33C48 41.2843 41.2843 48 33 48H15C6.71573 48 0 41.2843 0 33V15Z" fill="#30473A"/>
<path d="M25.4 19.8C25.4 19.4287 25.2525 19.0726 24.9899 18.8101C24.7274 18.5475 24.3713 18.4 24 18.4H11.4C11.0287 18.4 10.6726 18.5475 10.4101 18.8101C10.1475 19.0726 10 19.4287 10 19.8V38H25.4V19.8ZM15.6 35.2H12.8V32.4H15.6V35.2ZM15.6 29.6H12.8V26.8H15.6V29.6ZM15.6 24H12.8V21.2H15.6V24ZM22.6 35.2H18.4V32.4H22.6V35.2ZM22.6 29.6H18.4V26.8H22.6V29.6ZM22.6 24H18.4V21.2H22.6V24ZM27.5 15.6H15.6V11.4C15.6 11.0287 15.7475 10.6726 16.0101 10.4101C16.2726 10.1475 16.6287 10 17 10H31C31.3713 10 31.7274 10.1475 31.99 10.4101C32.2525 10.6726 32.4 11.0287 32.4 11.4V21.2H28.2V16.3C28.2 16.1143 28.1263 15.9363 27.995 15.805C27.8637 15.6737 27.6857 15.6 27.5 15.6ZM38 25.4V38H34.5V32.4H31.7V38H28.2V25.4C28.2 25.0287 28.3475 24.6726 28.6101 24.4101C28.8726 24.1475 29.2287 24 29.6 24H36.6C36.9713 24 37.3274 24.1475 37.59 24.4101C37.8525 24.6726 38 25.0287 38 25.4Z" fill="#65DA01"/>
</svg>
