<svg width="48" height="48" viewBox="0 0 48 48" fill="none" xmlns="http://www.w3.org/2000/svg">
<path opacity="0.5" d="M0 15C0 6.71573 6.71573 0 15 0H33C41.2843 0 48 6.71573 48 15V33C48 41.2843 41.2843 48 33 48H15C6.71573 48 0 41.2843 0 33V15Z" fill="#30473A"/>
<path fill-rule="evenodd" clip-rule="evenodd" d="M13.6598 10.8384C12.035 12.4632 12.035 15.0783 12.035 20.3085L12.035 24.6151C12.035 25.083 12.5609 25.3727 12.9852 25.1756C13.961 24.7222 15.0487 24.4691 16.1955 24.4691C16.4865 24.4691 16.7738 24.4854 17.0563 24.5171C17.2811 24.5423 17.4976 24.4364 17.6834 24.3075C17.8515 24.1908 18.0557 24.1224 18.2758 24.1224C18.7127 24.1224 19.0868 24.3918 19.2408 24.7735C19.3255 24.9835 19.4479 25.1916 19.6497 25.2942C20.3156 25.633 20.9251 26.0667 21.4604 26.5774C21.9485 27.0432 23.4766 26.6351 23.4766 25.9604L23.4766 9.56034C23.4766 9.36885 23.3213 9.21362 23.1298 9.21362C17.8997 9.21362 15.2845 9.21362 13.6598 10.8384ZM15.8488 14.7611C15.8488 14.1866 16.3145 13.7209 16.889 13.7209L19.6627 13.7209C20.2371 13.7209 20.7028 14.1866 20.7028 14.7611C20.7028 15.3355 20.2371 15.8012 19.6627 15.8012L16.889 15.8012C16.3145 15.8012 15.8488 15.3355 15.8488 14.7611ZM15.8488 18.9216C15.8488 18.3472 16.3145 17.8815 16.889 17.8815L19.6627 17.8815C20.2371 17.8815 20.7028 18.3472 20.7028 18.9216C20.7028 19.4961 20.2371 19.9618 19.6627 19.9618L16.889 19.9618C16.3145 19.9618 15.8488 19.4961 15.8488 18.9216Z" fill="#65DA01"/>
<path fill-rule="evenodd" clip-rule="evenodd" d="M35.3752 10.8384C33.7504 9.21362 31.1353 9.21362 25.9051 9.21362C25.7136 9.21362 25.5584 9.36885 25.5584 9.56034L25.5584 36.6041C25.5584 36.7956 25.7136 36.9508 25.9051 36.9508C31.1353 36.9508 33.7504 36.9508 35.3752 35.326C37 33.7013 37 31.0861 37 25.8559L37 20.3085C37 15.0783 37 12.4632 35.3752 10.8384ZM28.3321 18.9216C28.3321 18.3472 28.7978 17.8815 29.3723 17.8815L32.146 17.8815C32.7204 17.8815 33.1861 18.3472 33.1861 18.9216C33.1861 19.4961 32.7204 19.9618 32.146 19.9618L29.3723 19.9618C28.7978 19.9618 28.3321 19.4961 28.3321 18.9216ZM29.3723 13.7209C28.7978 13.7209 28.3321 14.1866 28.3321 14.7611C28.3321 15.3355 28.7978 15.8012 29.3723 15.8012L32.146 15.8012C32.7204 15.8012 33.1861 15.3355 33.1861 14.7611C33.1861 14.1866 32.7204 13.7209 32.146 13.7209L29.3723 13.7209ZM30.7591 24.1224C31.3336 24.1224 31.7993 24.5881 31.7993 25.1625L31.7993 31.4034C31.7993 31.9778 31.3336 32.4435 30.7591 32.4435C30.1847 32.4435 29.719 31.9778 29.719 31.4034L29.719 25.1625C29.719 24.5881 30.1847 24.1224 30.7591 24.1224Z" fill="#65DA01"/>
<path fill-rule="evenodd" clip-rule="evenodd" d="M17.8082 26.7514C17.9252 26.9698 18.0878 27.1813 18.3199 27.2677C20.1776 27.9587 21.3984 29.9603 21.3984 32.1035C21.3984 33.8748 20.5935 35.4877 19.2976 36.411C18.8298 36.7445 18.1804 36.6354 17.847 36.1677C17.5136 35.6997 17.6226 35.0503 18.0905 34.7169C18.7906 34.218 19.3181 33.2633 19.3181 32.1035C19.3181 30.9562 18.8285 30.0592 18.1674 29.5528C17.9874 29.4149 17.7399 29.5058 17.5675 29.6532C17.1311 30.0268 16.4745 29.9759 16.1009 29.5394L15.4075 28.7294C15.0742 28.3399 15.0742 27.7659 15.4075 27.3765L16.1009 26.5664C16.4745 26.13 17.1311 26.0791 17.5675 26.4526C17.6686 26.5391 17.749 26.6408 17.8082 26.7514ZM16.9879 35.4644C17.3212 35.8537 17.3212 36.4278 16.9879 36.8171L16.2945 37.6272C15.9209 38.0636 15.2644 38.1145 14.8279 37.741C14.7268 37.6545 14.6464 37.5528 14.5872 37.4422C14.4703 37.2238 14.3077 37.0123 14.0755 36.9259C12.2178 36.2349 10.997 34.2333 10.997 32.0901C10.997 30.3189 11.8019 28.7061 13.0978 27.7826C13.5656 27.4492 14.2151 27.5582 14.5485 28.0261C14.8819 28.4939 14.7729 29.1434 14.3049 29.4768C13.6048 29.9756 13.0773 30.9303 13.0773 32.0901C13.0773 33.2374 13.5669 34.1344 14.228 34.6409C14.408 34.7788 14.6557 34.688 14.8279 34.5405C15.2644 34.1668 15.9209 34.2179 16.2945 34.6542L16.9879 35.4644Z" fill="#65DA01"/>
</svg>
