<svg width="48" height="48" viewBox="0 0 48 48" fill="none" xmlns="http://www.w3.org/2000/svg">
<path opacity="0.5" d="M0 15C0 6.71573 6.71573 0 15 0H33C41.2843 0 48 6.71573 48 15V33C48 41.2843 41.2843 48 33 48H15C6.71573 48 0 41.2843 0 33V15Z" fill="#30473A"/>
<path fill-rule="evenodd" clip-rule="evenodd" d="M10.4439 19.2009C9.67188 20.7161 9.67188 22.6995 9.67188 26.6666C9.67188 30.6337 9.67188 32.6172 10.4439 34.1324C11.123 35.4652 12.2066 36.5488 13.5394 37.2278C15.0546 37.9999 17.0382 37.9999 21.0052 37.9999H26.6718C30.6389 37.9999 32.6224 37.9999 34.1376 37.2278C35.4704 36.5488 36.554 35.4652 37.233 34.1324C38.0051 32.6172 38.0051 30.6337 38.0051 26.6666C38.0051 22.6995 38.0051 20.7161 37.233 19.2009C36.554 17.8681 35.4704 16.7844 34.1376 16.1054C32.6224 15.3333 30.6389 15.3333 26.6718 15.3333H21.0052C17.0382 15.3333 15.0546 15.3333 13.5394 16.1054C12.2066 16.7844 11.123 17.8681 10.4439 19.2009ZM28.1728 24.5409C28.5635 24.1032 28.5255 23.4315 28.0878 23.0408C27.65 22.65 26.9784 22.6879 26.5877 23.1257L22.7602 27.4124C22.5259 27.6748 22.1155 27.6748 21.8812 27.4124L21.0895 26.5257C20.6986 26.0879 20.0269 26.0499 19.5892 26.4408C19.1515 26.8315 19.1135 27.5032 19.5043 27.9409L21.5281 30.2076C21.7297 30.4334 22.018 30.5624 22.3207 30.5624C22.6233 30.5624 22.9116 30.4334 23.1132 30.2076L28.1728 24.5409Z" fill="#65DA01"/>
<path d="M35.9275 11.7414C33.8529 9.66675 30.5137 9.66675 23.8356 9.66675C17.1573 9.66675 13.8182 9.66675 11.7436 11.7414C11.0279 12.457 10.5592 13.3232 10.2521 14.4249C10.0973 14.9801 10.8223 15.3484 11.2861 15.0063C11.6902 14.7082 12.12 14.4422 12.5718 14.2121C13.6789 13.648 14.8643 13.4192 16.1769 13.312C17.445 13.2084 19.0053 13.2084 20.9132 13.2084H26.7579C28.6658 13.2084 30.2261 13.2084 31.4942 13.312C32.8069 13.4192 33.9923 13.648 35.0993 14.2121C35.551 14.4422 35.9808 14.7081 36.3849 15.0062C36.8487 15.3483 37.5737 14.9799 37.419 14.4247C37.1119 13.3231 36.6431 12.457 35.9275 11.7414Z" fill="#65DA01"/>
</svg>
