<svg width="90" height="30" viewBox="0 0 90 30" fill="none" xmlns="http://www.w3.org/2000/svg">
<path fill-rule="evenodd" clip-rule="evenodd" d="M33.6769 4.02504C34.6704 4.04174 34.8894 4.07512 35.403 4.27545C35.7314 4.39231 36.2198 4.66777 36.4976 4.8681C36.7755 5.07678 37.1292 5.39397 37.2807 5.5776C37.4239 5.76124 37.5333 5.93653 37.5165 5.97827C37.4997 6.01165 37.0534 6.37058 35.5714 7.51414L35.2346 7.18025C35.0494 6.99661 34.7294 6.75455 34.5189 6.65438C34.2747 6.52918 33.9463 6.4457 33.5927 6.42901C33.2053 6.40397 32.9359 6.43736 32.6664 6.54587C32.4559 6.62934 32.1444 6.82967 31.9591 6.98827C31.7823 7.15521 31.5381 7.48075 31.4118 7.70612C31.2181 8.07339 31.1929 8.21529 31.1929 8.95819C31.1929 9.651 31.2266 9.85967 31.3781 10.1685C31.4792 10.3772 31.6981 10.686 31.8665 10.8613C32.0265 11.0283 32.2875 11.2369 32.4391 11.3121C32.5822 11.3872 32.9948 11.4707 33.34 11.4874C33.8874 11.5208 34.0305 11.5041 34.4347 11.3204C34.6873 11.2036 35.0578 10.9531 35.243 10.7695C35.4367 10.5775 35.6304 10.4189 35.664 10.4189C35.7061 10.4273 36.1693 10.7278 36.6913 11.0867C37.205 11.454 37.6344 11.7879 37.6344 11.8379C37.6344 11.888 37.3565 12.1969 37.0281 12.5308C36.565 12.9898 36.2535 13.2236 35.7819 13.4406C35.4367 13.6075 34.9399 13.7912 34.6873 13.8496C34.4347 13.908 33.8284 13.9581 33.34 13.9498C32.6243 13.9498 32.3212 13.8997 31.7823 13.7244C31.4118 13.6075 30.8813 13.3655 30.6035 13.1818C30.3256 13.0065 29.913 12.656 29.6772 12.4055C29.4499 12.1551 29.1131 11.696 28.9447 11.3788C28.7763 11.0533 28.5742 10.5525 28.5068 10.252C28.431 9.95149 28.3721 9.37554 28.3721 8.95819C28.3721 8.54083 28.431 7.98157 28.4984 7.70612C28.5742 7.43066 28.7173 7.02166 28.8268 6.78794C28.9362 6.56256 29.1973 6.14521 29.3994 5.86975C29.6099 5.5943 30.0056 5.20198 30.2751 5.00165C30.5529 4.80132 30.9824 4.54256 31.235 4.43405C31.4876 4.31719 31.8918 4.17529 32.1191 4.10851C32.4138 4.02504 32.8854 4 33.6769 4.02504ZM43.4444 4C43.9833 4 44.5222 4.04174 44.8337 4.12521C45.1116 4.19198 45.6252 4.39231 45.9705 4.55926C46.4167 4.77628 46.7788 5.03504 47.1998 5.4524C47.5871 5.83637 47.8903 6.23703 48.0839 6.62099C48.2523 6.93818 48.4544 7.50579 48.5386 7.87306C48.6481 8.35719 48.6734 8.73281 48.6397 9.25034C48.6144 9.64265 48.5134 10.2103 48.4207 10.5274C48.3197 10.853 48.0587 11.3538 47.7977 11.7378C47.545 12.0967 47.1325 12.5558 46.8462 12.7812C46.5767 12.9982 46.122 13.2903 45.8441 13.4239C45.5663 13.5574 45.0947 13.7327 44.7916 13.8079C44.438 13.8997 43.9412 13.9498 43.4023 13.9498C42.8802 13.9498 42.3497 13.8913 42.0129 13.7995C41.7098 13.7244 41.2046 13.5241 40.8762 13.3655C40.472 13.1568 40.0847 12.8646 39.6468 12.4306C39.209 11.9965 38.9227 11.6209 38.7459 11.2536C38.6027 10.9531 38.4259 10.4857 38.3501 10.2103C38.2827 9.9348 38.2238 9.39224 38.2238 8.99992C38.2238 8.60761 38.2827 8.0567 38.3501 7.7729C38.4175 7.48075 38.5859 7.03 38.7206 6.77124C38.8553 6.50413 39.1164 6.08678 39.31 5.85306C39.4953 5.61099 39.891 5.23537 40.1857 5.0267C40.472 4.80967 40.9183 4.54256 41.1709 4.43405C41.4235 4.31719 41.8445 4.17529 42.0971 4.11686C42.3497 4.05843 42.956 4 43.4444 4V4ZM41.7772 7.02166C41.6172 7.1719 41.3898 7.4724 41.2719 7.70612C41.0699 8.08174 41.0446 8.21529 41.0446 8.95819C41.0446 9.65934 41.0699 9.85133 41.2383 10.1435C41.3393 10.3438 41.5498 10.636 41.7014 10.8029C41.8445 10.9698 42.1813 11.2036 42.4339 11.3204C42.7876 11.4874 43.0234 11.5374 43.4444 11.5374C43.8233 11.5374 44.118 11.479 44.4127 11.3455C44.6485 11.2453 44.96 11.045 45.1116 10.8947C45.2716 10.7445 45.4905 10.4356 45.6168 10.2103C45.7768 9.89306 45.8357 9.6343 45.8694 9.12513C45.8947 8.57422 45.8694 8.36554 45.7094 7.95653C45.5831 7.631 45.3895 7.32215 45.1368 7.07174C44.8927 6.83802 44.5979 6.63769 44.3285 6.55422C44.0927 6.47075 43.6633 6.41232 43.3602 6.41232C42.9953 6.41232 42.6865 6.47075 42.4339 6.58761C42.2234 6.67942 41.9287 6.87975 41.7772 7.02166ZM50.0964 4.1586H52.8751V13.7578H50.0964V4.1586ZM54.5591 4.1586H57.1273L59.064 6.61265C60.1249 7.96488 61.0259 9.05835 61.068 9.03331C61.1017 9.01662 61.1269 7.90645 61.1269 4.1586H63.8214V13.7578H61.3795L59.4008 11.2119C58.3146 9.80959 57.3799 8.68273 57.3378 8.70777C57.2873 8.73281 57.2536 9.66769 57.2536 13.7578H54.5591V4.1586ZM33.4242 15.4355C33.7695 15.4272 34.2831 15.4689 34.561 15.5107C34.8389 15.5608 35.2935 15.6776 35.5714 15.7611C35.8493 15.8529 36.3713 16.1117 36.7334 16.3454C37.0871 16.5708 37.3818 16.7878 37.3818 16.8295C37.3734 16.8629 37.1628 17.1467 36.8934 17.4639C36.6324 17.7811 36.2787 18.1901 35.824 18.6993L35.3609 18.3904C35.1083 18.2235 34.7126 18.0315 34.4768 17.9647C34.2494 17.8979 33.8284 17.8479 33.5506 17.8479C33.2727 17.8479 32.8769 17.9063 32.6664 17.9731C32.4559 18.0482 32.1275 18.2402 31.9339 18.3988C31.6981 18.5824 31.4792 18.8746 31.3023 19.2418C31.0582 19.7343 31.0245 19.8846 31.0245 20.4772C31.0245 21.0532 31.0666 21.2201 31.2939 21.6875C31.4371 21.988 31.6813 22.3386 31.8328 22.4722C31.9928 22.6057 32.3296 22.806 32.5822 22.9229C32.9948 23.1065 33.1295 23.1232 33.8032 23.0899C34.2663 23.0732 34.6873 23.0064 35.1925 22.7727V21.6041H33.2558V19.6008H37.7186V24.0247L37.3228 24.2918C37.0955 24.4337 36.6576 24.6842 36.3292 24.8344C36.0009 24.9846 35.5125 25.1683 35.2346 25.2351C34.9567 25.3102 34.3336 25.3937 33.8453 25.4187C33.1716 25.4604 32.8011 25.4354 32.2875 25.3185C31.917 25.2434 31.3865 25.0681 31.1087 24.9429C30.8308 24.8177 30.3761 24.5422 30.0982 24.3336C29.8204 24.1249 29.4583 23.7743 29.2899 23.5489C29.1215 23.3319 28.8857 22.9563 28.7678 22.7309C28.65 22.5056 28.49 22.0882 28.4058 21.8127C28.3047 21.4622 28.2542 21.0448 28.2626 20.4355C28.2626 19.726 28.3131 19.4338 28.49 18.8913C28.6079 18.524 28.852 17.9981 29.0373 17.7227C29.2141 17.4472 29.5846 17.0215 29.8541 16.7711C30.1319 16.529 30.6456 16.1868 31.0245 16.0032C31.395 15.8195 31.9423 15.6192 32.2454 15.5608C32.5485 15.494 33.079 15.4355 33.4242 15.4355ZM45.2379 15.6359L49.3301 25.2351L47.924 25.2601C47.1493 25.2684 46.4925 25.2518 46.4588 25.2184C46.4251 25.1766 46.2483 24.7927 45.7515 23.5656H41.9792L41.2972 25.2768H39.8826C38.7964 25.2768 38.4848 25.2518 38.5101 25.1766C38.5269 25.1182 39.4195 22.998 40.4973 20.4772C41.5751 17.948 42.4929 15.8195 42.535 15.736C42.6023 15.6025 42.7371 15.5941 45.2379 15.6359ZM42.855 21.3954C42.8802 21.4204 43.3517 21.4288 43.9159 21.4121L44.9348 21.3954C44.2022 19.4255 43.9496 18.8495 43.8991 18.8495C43.857 18.8495 43.5875 19.4171 43.3096 20.1016C43.0402 20.7944 42.8297 21.3703 42.855 21.3954ZM50.2816 15.5774L53.2371 15.6108C55.7801 15.6442 56.2684 15.6693 56.6642 15.7945C56.9168 15.8779 57.2957 16.0449 57.5062 16.1784C57.7167 16.3036 57.9862 16.5541 58.1125 16.7377C58.2388 16.913 58.3819 17.1884 58.4325 17.347C58.4746 17.5056 58.5167 17.8646 58.5167 18.14C58.5167 18.524 58.4661 18.7494 58.2893 19.0999C58.1293 19.4171 57.9104 19.6675 57.161 20.2268L57.6073 20.4522C57.8515 20.5857 58.2051 20.8445 58.3904 21.0448C58.5756 21.2451 58.7777 21.554 58.8282 21.7376C58.8871 21.9129 58.9377 22.3219 58.9377 22.6475C58.9377 23.0899 58.8871 23.3319 58.7356 23.6491C58.6261 23.8745 58.4072 24.1833 58.2556 24.3336C58.0956 24.4755 57.7588 24.7008 57.5062 24.8261C57.2536 24.9513 56.7568 25.1015 56.4116 25.1599C55.9822 25.2351 54.9128 25.2684 50.2648 25.2768L50.2816 15.5774ZM52.8751 19.4338C55.1064 19.4338 55.2159 19.4171 55.4854 19.2418C55.7127 19.0916 55.7885 18.9831 55.8137 18.7577C55.8222 18.5991 55.8137 18.3821 55.7885 18.2819C55.7632 18.1651 55.6032 18.0315 55.3843 17.9313C55.0896 17.7894 54.8454 17.7644 53.9529 17.7644H52.8751V19.4338ZM52.8751 23.1065C54.9886 23.1065 55.4938 23.0648 55.679 22.9897C55.8306 22.9313 56.0158 22.7894 56.1 22.6808C56.1842 22.5723 56.2516 22.347 56.2516 22.1884C56.2516 21.988 56.1842 21.8294 56.0579 21.7126C55.9569 21.6124 55.7632 21.4872 55.6369 21.4371C55.5106 21.387 54.837 21.3537 54.1381 21.3537H52.8751V23.1065ZM60.2175 15.5774L63.1815 15.6108C66.0023 15.6442 66.1707 15.6526 66.7264 15.8362C67.2148 15.9948 67.4085 16.12 67.7874 16.4956C68.141 16.8546 68.2842 17.0716 68.3684 17.3888C68.4442 17.6559 68.461 17.9981 68.4273 18.3487C68.3936 18.7327 68.3094 18.9914 68.141 19.2669C68.0147 19.4756 67.7116 19.7677 67.0211 20.2268L67.4253 20.3937C67.6442 20.4939 67.9726 20.6942 68.1494 20.8528C68.3347 21.0114 68.5536 21.2952 68.6462 21.4789C68.7473 21.6792 68.8399 22.0465 68.8567 22.397C68.8904 22.7977 68.8567 23.1065 68.7641 23.3987C68.6883 23.6241 68.5031 23.9663 68.3431 24.1499C68.1915 24.3336 67.8547 24.5923 67.6021 24.7259C67.3579 24.8594 66.9622 25.0264 66.7264 25.0932C66.398 25.1933 65.6486 25.2267 60.2007 25.2768L60.2175 15.5774ZM62.8194 19.4255C64.6971 19.4255 65.0929 19.3921 65.3034 19.3003C65.4634 19.2335 65.6318 19.0999 65.6823 19.0081C65.7244 18.9163 65.7665 18.716 65.7665 18.549C65.7665 18.3737 65.6991 18.1984 65.5981 18.0899C65.5055 17.9981 65.2866 17.8896 65.1097 17.8395C64.9413 17.7978 64.3519 17.756 63.8046 17.756H62.8194V19.4255ZM62.8194 23.0982C64.6803 23.0982 65.3623 23.0648 65.5307 23.0147C65.7076 22.973 65.9181 22.8311 66.0191 22.7059C66.1117 22.5807 66.1875 22.3637 66.1875 22.2218C66.1875 22.0882 66.1202 21.8795 66.036 21.771C65.9602 21.6625 65.7665 21.5206 65.6149 21.4538C65.4297 21.387 64.9245 21.3453 64.0825 21.3453H62.8194V23.0982ZM73.4542 15.5858H74.7846C75.7782 15.5858 76.1319 15.6192 76.1571 15.6943C76.174 15.7527 77.0833 17.8896 78.178 20.4522C79.2642 23.0064 80.1652 25.1432 80.1652 25.185C80.1652 25.2434 79.6347 25.2684 77.3444 25.2768L76.6287 23.5156H72.8816L72.1996 25.2267L70.7934 25.2518C70.0187 25.2601 69.3872 25.2434 69.3872 25.21C69.3872 25.1766 70.305 22.998 71.4249 20.3687L73.4542 15.5858ZM73.69 21.387C75.273 21.4204 75.7445 21.4037 75.7614 21.387C75.7698 21.362 75.5761 20.7777 75.3235 20.0932C75.0709 19.4004 74.8267 18.8412 74.7846 18.8412C74.7425 18.8412 74.4815 19.4088 74.2036 20.1099L73.69 21.387ZM81.1756 15.5691L84.0132 15.6108C86.1436 15.6442 86.9519 15.6776 87.2635 15.7694C87.4992 15.8362 87.8781 15.9865 88.1055 16.095C88.3328 16.2035 88.6865 16.4539 88.8801 16.6542C89.0822 16.8462 89.3433 17.2218 89.4696 17.4889C89.6464 17.8562 89.7053 18.1317 89.739 18.6742C89.7643 19.1917 89.7306 19.5256 89.6211 19.8846C89.5453 20.16 89.3938 20.5189 89.2927 20.6775C89.1833 20.8445 88.9475 21.1116 88.7538 21.2869C88.5602 21.4538 88.2823 21.6625 88.1307 21.7376C87.9792 21.8127 87.8445 21.8879 87.836 21.9046C87.8192 21.9213 88.3076 22.6475 88.9054 23.5156C89.5117 24.392 90 25.1432 90 25.185C90 25.2434 89.4443 25.2684 86.9687 25.2684L85.0321 22.347H83.8532V25.2684H81.1588L81.1756 15.5691ZM83.8532 20.2602C85.8994 20.2184 86.2362 20.1767 86.4467 20.0682C86.5983 19.9931 86.8003 19.8094 86.893 19.6592C87.0193 19.4589 87.0614 19.2752 87.0361 18.9998C87.0193 18.6993 86.9519 18.549 86.7582 18.3487C86.6151 18.2068 86.3541 18.0565 86.152 18.0065C85.9499 17.9647 85.3605 17.923 84.8216 17.923H83.8532V20.2602Z" fill="white"/>
<path d="M0.0549372 8.50905C0.113879 8.41723 0.172821 8.27533 0.181241 8.20021C0.181241 8.11674 0.206502 8.18351 0.223343 8.34211C0.240183 8.5007 0.214922 8.67599 0.172821 8.71773C0.122299 8.75947 0.0549372 8.76781 0.0212561 8.73442C-0.0208453 8.70104 0.00441553 8.59252 0.0549372 8.50905Z" fill="#9C6540"/>
<path d="M0.0212561 13.0165C0.0465169 12.8078 0.0970385 12.5073 0.13914 12.3487C0.189661 12.115 0.214922 12.2319 0.248603 12.933C0.273864 13.4172 0.290705 13.8762 0.273864 13.9514C0.257024 14.0348 0.206502 14.1016 0.164401 14.1016C0.113879 14.1016 0.0549372 13.943 0.0296763 13.751C0.00441554 13.5507 -0.00400473 13.2252 0.0212561 13.0165Z" fill="#9C6540"/>
<path d="M5.72137 4.59999C6.0245 4.49148 6.45393 4.37462 6.6897 4.34123C6.91705 4.2995 7.397 4.2828 7.74223 4.29115C8.08747 4.30784 8.39901 4.31619 8.4327 4.32454C8.4748 4.32454 8.50006 4.39131 8.50006 4.45809C8.50006 4.55826 8.41586 4.57495 8.0622 4.54156C7.78434 4.51652 7.42226 4.54991 7.11071 4.62503C6.83284 4.70016 6.45393 4.82536 6.26869 4.91718C6.08344 5.00065 5.74663 5.23437 5.11511 5.79363L5.17405 4.79198L5.72137 4.59999Z" fill="#9C6540"/>
<path d="M1.55334 6.3028C1.8312 6.13586 2.42062 5.8771 2.85848 5.71851C3.29633 5.55991 3.66682 5.42636 3.67524 5.41801C3.69208 5.41801 3.7005 5.68512 3.7005 6.58661L2.87532 6.84537C2.42904 6.98727 1.87331 7.20429 1.65438 7.3295C1.43545 7.44636 1.23337 7.60495 1.19968 7.67173C1.17442 7.73851 0.947076 7.98057 0.222933 8.61495V8.33115C0.231353 8.07239 0.222933 8.06405 0.163991 8.25603C0.105049 8.43132 0.0966288 8.43967 0.0882085 8.29776C0.0797883 8.20595 0.239773 7.81363 0.43344 7.42966C0.635526 7.03735 0.854453 6.69512 0.921815 6.66173C0.989177 6.62834 1.27547 6.4614 1.55334 6.3028Z" fill="#9C6540"/>
<path d="M1.51123 10.4012C1.72174 10.2593 2.26906 9.92545 2.73217 9.65834C3.19529 9.39958 3.59946 9.18256 3.63314 9.18256C3.67524 9.17421 3.7005 9.22429 3.7005 9.27438C3.7005 9.33281 3.59946 9.48305 3.47316 9.59991C3.33843 9.72512 2.9511 10.0006 2.60587 10.2176C2.26064 10.443 1.81436 10.7435 1.61228 10.9021C1.41861 11.0523 1.25863 11.2359 1.25863 11.3027C1.25863 11.3695 1.166 11.5698 1.05654 11.7368C0.938656 11.9121 0.75341 12.3461 0.635526 12.6967C0.517642 13.0556 0.416599 13.4062 0.416599 13.473C0.416599 13.5398 0.374498 13.5982 0.332396 13.5982C0.281875 13.5982 0.248194 13.281 0.239773 12.8219C0.231353 12.2877 0.206092 12.1291 0.163991 12.3044C0.113469 12.5047 0.0966288 12.5214 0.0882085 12.3628C0.0882085 12.2626 0.155571 11.9788 0.248194 11.7368C0.332396 11.5031 0.542903 11.1441 0.711308 10.9438C0.871294 10.7518 1.03128 10.6099 1.06496 10.635C1.10706 10.6517 1.30073 10.5515 1.51123 10.4012Z" fill="#9C6540"/>
<path d="M3.74288 5.4116L4.3744 5.12779C4.71963 4.97755 5.03118 4.84399 5.06486 4.84399C5.10696 4.83564 5.13222 5.04432 5.13222 5.29474C5.13222 5.71209 5.10696 5.77052 4.86277 5.95416C4.71121 6.06267 4.42492 6.22961 4.23125 6.32978C4.02916 6.4216 3.82708 6.50507 3.78498 6.50507C3.73445 6.50507 3.70919 6.2797 3.74288 5.4116Z" fill="#9C6540"/>
<path d="M1.17511 13.3946C1.27615 13.1275 1.42772 12.8353 1.5035 12.7519C1.57928 12.6684 1.64665 12.6016 1.66349 12.6016C1.67191 12.5933 1.68033 13.5281 1.68033 14.68C1.68033 16.6667 1.67191 16.7585 1.53718 16.6249C1.45298 16.5415 1.293 16.1992 1.18353 15.8486C1.04881 15.4146 0.989866 15.0139 0.981445 14.5548C0.981445 14.054 1.03197 13.7619 1.17511 13.3946Z" fill="#9C6540"/>
<path d="M23.8593 14.7385C23.8846 14.6634 23.9183 14.3044 23.9267 13.9455L23.9435 13.3028L23.9688 14.0123C23.9856 14.4797 23.9604 14.7468 23.9014 14.8053C23.8256 14.8637 23.8172 14.847 23.8593 14.7385Z" fill="#9C6540"/>
<path fill-rule="evenodd" clip-rule="evenodd" d="M10.8495 0.116985C10.2312 0.0179583 9.82949 -0.00681718 9.55289 0.00149186C9.27502 0.00983897 8.97189 0.0265332 8.87927 0.0432274C8.81946 0.0540076 8.67889 0.0821908 8.51879 0.114292C8.43095 0.131902 8.33724 0.150692 8.24775 0.168434C7.99514 0.218517 7.54044 0.385459 7.23731 0.535707C6.93419 0.685955 6.56369 0.911327 6.41213 1.04488C6.26056 1.17844 6.14268 1.29529 6.15952 1.30364C6.17636 1.32034 6.47107 1.21182 6.8163 1.07827C7.16153 0.936369 7.67517 0.761079 7.95304 0.685955C8.23091 0.619178 8.7277 0.552401 9.04767 0.552401C9.36764 0.552401 9.8476 0.619178 10.1002 0.685955C10.2265 0.723517 10.3591 0.761079 10.4696 0.792381C10.5802 0.823683 10.6686 0.848724 10.7065 0.861245C10.8104 0.895589 10.8459 0.867757 10.8552 0.67077C10.8704 0.910887 10.927 0.939566 11.2368 1.0792C11.4474 1.17102 11.8263 1.44648 12.0873 1.6802C12.3483 1.92226 12.643 2.28954 12.7525 2.49821C12.862 2.70689 13.0135 3.09921 13.0893 3.37466C13.2156 3.81706 13.2493 3.85879 13.3251 3.70855C13.384 3.61673 13.4261 3.18268 13.4261 2.74863C13.4261 2.09755 13.3924 1.89722 13.2493 1.62177C13.1483 1.43813 12.9125 1.14598 12.7188 0.979038C12.5336 0.803749 12.2304 0.586724 12.0536 0.503253C11.8852 0.419782 11.54 0.286228 11.2958 0.219451L10.8495 0.085897V0.116985ZM14.9166 0.519013C14.8156 0.318682 14.7061 0.160087 14.6808 0.160087C14.6556 0.160087 14.6556 0.435542 14.6893 0.761079C14.7314 1.09496 14.7566 1.41215 14.7566 1.45389C14.7566 1.50397 14.7314 1.8629 14.6977 2.26356C14.6724 2.67257 14.664 2.99811 14.6893 2.99811C14.7145 2.99811 14.8156 2.83951 14.9166 2.64753C15.0682 2.35538 15.1103 2.15505 15.1103 1.5791C15.1103 1.00315 15.0682 0.802815 14.9166 0.519013ZM18.8404 1.83786C18.1584 1.48728 17.9395 1.41215 17.5774 1.41215C17.2995 1.41215 16.9964 1.47893 16.7606 1.58744C16.567 1.68761 16.3986 1.79612 16.407 1.83786C16.4154 1.87959 16.5922 1.85455 16.8196 1.77943C17.0722 1.68761 17.3501 1.65422 17.5942 1.68761C17.8048 1.71265 18.3184 1.8629 18.731 2.02149C19.1436 2.18009 19.5646 2.33868 19.6572 2.37207C19.7751 2.42216 19.8004 2.41381 19.7414 2.34703C19.6909 2.29695 19.2867 2.07158 18.8404 1.83786ZM10.8159 2.70596C9.88128 2.33034 9.64551 2.29695 8.66876 2.27191C7.68359 2.25521 7.43098 2.27191 6.7321 2.45554C6.29424 2.56406 5.46064 2.70596 4.88806 2.76439C4.05445 2.84786 3.83553 2.84786 3.81026 2.77273C3.79342 2.7143 3.70922 2.66422 3.6166 2.66422C3.52398 2.66422 3.44819 2.72265 3.44819 2.78943C3.44819 2.85621 3.47345 2.91464 3.50713 2.92298C3.54924 2.92298 3.65028 2.93968 3.7429 2.95637C3.83553 2.97307 4.13866 3.04819 4.41652 3.12331C4.82912 3.23183 5.35959 3.24852 7.40572 3.23183C9.70445 3.20678 9.92338 3.22348 10.3781 3.37373L10.858 3.54067L10.8159 2.70596ZM18.1416 3.33199C17.6279 3.18174 17.1143 3.08158 16.8364 3.08158C16.5249 3.08158 16.2807 3.14001 16.1039 3.24852C15.9523 3.34034 15.7923 3.49059 15.7418 3.5824C15.6913 3.67422 15.6744 3.74935 15.6997 3.74935C15.7249 3.74935 15.9776 3.69092 16.2638 3.61579C16.6175 3.52397 16.9206 3.49893 17.1732 3.54067C17.3837 3.57406 17.9142 3.70761 18.3521 3.84117C18.9078 4.00811 19.3204 4.08323 19.6993 4.08323C20.0024 4.07488 20.3561 4.0248 20.4824 3.96637L20.7182 3.84951C20.5004 3.81565 20.2913 3.78393 20.0963 3.75436C19.9068 3.72562 19.7307 3.69891 19.573 3.67422C19.253 3.63249 18.6047 3.47389 18.1416 3.33199ZM10.858 5.21009C9.55289 4.91794 8.92137 4.83447 8.6014 4.83447C8.1888 4.83447 7.92778 4.88455 7.61623 5.02646C7.38046 5.13497 7.08575 5.35199 6.95103 5.51059C6.8163 5.66918 6.61421 5.98637 6.49633 6.21175C6.37845 6.44547 6.21846 6.83778 6.12584 7.08819L5.96585 7.54728C6.30266 7.77266 6.39529 7.88117 6.39529 7.9229C6.39529 7.96464 6.11742 8.40704 5.77219 8.89952C5.42696 9.40034 5.02278 10.0681 4.87122 10.3853C4.62703 10.9112 4.61019 11.0197 4.65229 11.4704C4.68597 11.7459 4.7786 12.2551 4.87122 12.5973C4.95542 12.9395 5.15751 13.5238 5.30907 13.8911C5.46906 14.2584 5.64588 14.6006 5.69641 14.659C5.78903 14.7508 5.86481 14.7342 6.11742 14.6089C6.29424 14.5255 6.49633 14.3836 6.56369 14.3084C6.63105 14.225 6.86682 14.008 7.08575 13.8327C7.3131 13.6574 7.54886 13.5155 7.61623 13.5155C7.68359 13.5155 7.75937 13.5656 7.78463 13.624C7.81831 13.6741 7.65833 14.008 7.44782 14.3502C7.11943 14.8844 7.06891 15.0263 7.08575 15.3518C7.11101 15.7024 7.14469 15.7442 7.50676 15.9779C7.72569 16.1198 7.90252 16.2867 7.91094 16.3535C7.91094 16.4203 7.86883 16.5204 7.80989 16.5789C7.72569 16.654 7.74253 16.6874 7.90252 16.7458C8.07934 16.8042 8.09618 16.846 8.04566 17.1298C8.00356 17.4136 8.01198 17.447 8.24775 17.5638C8.39089 17.6306 8.8119 17.7308 9.19082 17.7808C9.57815 17.8309 10.1086 17.8476 10.3697 17.8226L10.858 17.7725C10.8665 16.654 10.8328 16.5371 10.6812 16.3952C10.5802 16.3034 10.3949 16.0697 10.2602 15.8777C10.1002 15.644 9.86444 15.4437 9.59499 15.3101C9.35922 15.1932 9.17398 15.0513 9.17398 15.0013C9.16556 14.9428 9.21608 14.851 9.27502 14.8009C9.33396 14.7425 9.51921 14.6674 9.67919 14.6173C9.90654 14.5589 10.0749 14.5672 10.4118 14.6757L10.8496 14.8093L10.858 5.21009ZM6.87524 10.4855C6.55527 10.2017 6.40371 10.0097 6.42897 9.92621C6.45423 9.85944 6.63948 9.73423 6.83314 9.6591C7.03523 9.58398 7.30468 9.5172 7.44782 9.5172C7.58255 9.50886 7.94462 9.58398 8.24775 9.6758C8.55088 9.76762 8.92137 9.84274 9.06451 9.84274C9.21608 9.84274 9.35922 9.80101 9.38448 9.75927C9.40974 9.71753 9.50237 9.6758 9.59499 9.6758C9.68761 9.6758 9.78024 9.72588 9.8055 9.78431C9.83076 9.83439 9.7634 10.3937 9.65393 11.0113C9.49395 11.988 9.45185 12.1382 9.3087 12.1382C9.19924 12.1382 9.10661 12.013 8.99715 11.7208C8.84559 11.3035 8.84559 11.3035 8.39931 11.2534C8.15512 11.2284 7.81831 11.1449 7.65833 11.0614C7.49834 10.9863 7.14469 10.7275 6.87524 10.4855ZM15.085 4.83447H14.6472V4.83588C14.3577 4.85242 14.1999 4.86895 14.1082 4.88549C14.0681 4.89632 13.954 4.92276 13.7959 4.95942C13.5884 5.00752 13.305 5.07319 13.0135 5.14425C12.2557 5.31954 11.9778 5.35293 11.481 5.30284L10.8664 5.25276V14.8519C11.1611 14.9104 11.5147 14.9354 11.8347 14.9354C12.222 14.9354 12.643 14.8603 13.0556 14.7351C13.6366 14.5514 13.7208 14.5431 14.0492 14.6516C14.3102 14.7351 14.4029 14.8102 14.4029 14.9354C14.4029 15.0439 14.2766 15.1691 14.0492 15.3027C13.8471 15.4112 13.5777 15.6449 13.443 15.8202C13.3167 16.0038 12.9714 16.3628 12.6851 16.6299C12.1883 17.0973 12.1715 17.1224 12.2389 17.4229C12.2725 17.5898 12.3062 17.7317 12.3231 17.74C12.3315 17.7484 12.6851 17.7651 13.0977 17.7734C13.5187 17.7901 14.0324 17.7985 14.2597 17.7901L14.6555 17.7734C14.6555 13.0824 14.6218 11.7719 14.5881 11.8303C14.5544 11.8887 14.4534 11.9305 14.3608 11.9138C14.2092 11.8887 14.1839 11.7886 14.125 11.054C14.0829 10.5949 14.0745 10.1358 14.0997 10.0273C14.1418 9.88541 14.2092 9.84368 14.4029 9.84368H14.6555V8.79093C14.6681 9.58055 14.6963 9.84274 14.7482 9.84274C14.8071 9.84274 15.085 9.76762 15.3629 9.6758C15.6407 9.58398 16.0028 9.50886 16.1628 9.50886C16.3228 9.50886 16.6259 9.59233 16.8364 9.69249C17.0469 9.80101 17.2153 9.92621 17.2153 9.98464C17.2153 10.0431 16.9459 10.3102 16.6259 10.5773C16.2891 10.8611 15.8934 11.1115 15.6997 11.1699C15.5144 11.22 15.2366 11.2618 15.085 11.2618C14.8998 11.2618 14.7903 11.3118 14.7314 11.4287C14.6808 11.5372 14.6556 12.7475 14.664 14.6757L14.6893 17.7475C15.2955 17.6056 15.5229 17.5137 15.5902 17.4637C15.6828 17.3718 15.6744 17.3385 15.5397 17.255C15.4302 17.1799 15.405 17.088 15.4387 16.9628C15.4639 16.8543 15.5734 16.7458 15.6744 16.7208C15.826 16.6874 15.8428 16.654 15.7586 16.5789C15.6997 16.5204 15.6576 16.4203 15.6576 16.3535C15.6576 16.2867 15.8344 16.1365 16.0618 16.0196L16.4575 15.8109C16.4491 14.9762 16.3901 14.8009 16.1375 14.3752C15.8765 13.9412 15.8428 13.8243 15.927 13.7242C15.986 13.649 16.0618 13.5906 16.0954 13.5989C16.1375 13.5989 16.3901 13.8076 16.668 14.058C16.9459 14.3084 17.2827 14.5756 17.4258 14.6423C17.569 14.7091 17.7121 14.7675 17.7627 14.7675C17.8132 14.7675 17.9984 14.4754 18.1752 14.1248C18.3605 13.7659 18.5878 13.1899 18.6805 12.8477C18.7731 12.5055 18.8825 11.9212 18.9078 11.5539C18.9583 10.9112 18.9499 10.8694 18.672 10.3436C18.5205 10.0431 18.1079 9.3753 17.7627 8.84943L17.1311 7.89786C17.5269 7.58902 17.5437 7.53894 17.4848 7.23009C17.4427 7.03811 17.2995 6.63745 17.148 6.33695C17.0048 6.03646 16.7691 5.66918 16.6259 5.51059C16.4912 5.35199 16.1796 5.13497 15.9523 5.02646C15.6828 4.90125 15.3713 4.83447 15.085 4.83447ZM17.4006 5.11827L17.0469 5.06819L17.9311 5.94464C18.5373 6.53728 18.9752 6.88786 19.3204 7.06315C19.5983 7.20505 20.2214 7.39704 20.7097 7.50555C21.1981 7.60571 21.7454 7.74762 21.9307 7.81439C22.1159 7.88117 22.3433 8.00638 22.4359 8.09819C22.5285 8.19001 22.8064 8.41538 23.0422 8.59902C23.3453 8.82439 23.5053 8.89117 23.5305 8.81605C23.5558 8.76596 23.5053 8.5072 23.4127 8.25679C23.32 8.00638 23.1179 7.67249 22.9664 7.52224C22.8064 7.36365 22.579 7.23844 22.4359 7.22175C22.3012 7.20505 21.7707 7.0715 21.2571 6.9296C20.7434 6.77935 20.1035 6.55398 19.8256 6.42042C19.5478 6.28687 19.1099 6.02811 18.8573 5.83613C18.6047 5.64414 18.251 5.41877 18.0742 5.32695C17.9058 5.24348 17.6027 5.14331 17.4006 5.11827ZM21.737 9.58398H21.5097L21.8044 9.79266C21.9644 9.90952 22.3264 10.2601 22.6043 10.5856C22.8822 10.9112 23.1432 11.1449 23.1769 11.1115C23.219 11.0781 23.1937 10.8861 23.1348 10.6858C23.0758 10.4855 22.9243 10.1933 22.7896 10.0347C22.6632 9.88448 22.5369 9.76762 22.4948 9.79266C22.4612 9.8177 22.3349 9.77596 22.2001 9.70919C22.0738 9.64241 21.8717 9.58398 21.737 9.58398ZM20.5161 10.2434C20.3477 10.1098 20.1793 10.0013 20.154 10.0013C20.1287 10.0013 20.154 10.0848 20.2129 10.1933C20.2719 10.2935 20.4908 10.5606 20.7013 10.786C20.9118 11.003 21.2907 11.3452 21.5434 11.5372C21.796 11.7208 22.2675 12.1966 22.5875 12.5889C22.9159 12.9813 23.3032 13.5656 23.4632 13.8827C23.6147 14.2083 23.741 14.5171 23.741 14.5756C23.741 14.6256 23.7747 14.6757 23.8252 14.6757C23.8758 14.6757 23.9179 14.3836 23.9263 13.9913L23.9431 13.2984L24.0442 14.7175C24.0779 13.5822 24.0358 13.3068 23.8926 12.9479C23.7579 12.5889 23.5642 12.3218 23.1348 11.9045C22.8232 11.5873 22.5285 11.3536 22.478 11.3786C22.4275 11.4037 22.0401 11.2117 21.6107 10.9529C21.1897 10.7025 20.6929 10.377 20.5161 10.2434ZM2.95982 11.2951C2.92614 11.2701 2.87561 11.2534 2.85035 11.2534C2.81667 11.2534 2.50512 11.5539 2.14305 11.9212C1.78098 12.2884 1.49469 12.639 1.50311 12.6975C1.51153 12.7642 1.53679 12.7642 1.59573 12.6724C1.64626 12.5889 1.67994 13.2734 1.67994 14.6757C1.67994 16.078 1.64626 16.7625 1.59573 16.679C1.5396 16.5956 1.51153 16.59 1.51153 16.6623C1.51153 16.7124 1.83992 17.3385 2.24409 18.0396C2.64827 18.7324 3.04402 19.5004 3.13664 19.7257L3.29663 20.1431C2.89246 19.7842 2.75773 19.7257 2.73247 19.7675C2.70721 19.8175 2.77457 20.0095 2.87561 20.2099C2.9935 20.4352 3.09454 20.8776 3.1619 21.4786C3.22085 21.9878 3.33031 22.5554 3.39767 22.7557C3.47345 22.9561 3.58292 23.1063 3.6587 23.1063C3.72606 23.1063 3.85237 23.2232 3.92815 23.3567C4.01235 23.4986 4.09655 23.6071 4.12181 23.6071C4.14708 23.6071 4.12181 23.3317 4.06287 23.0061C4.00393 22.6723 3.96183 22.2132 3.95341 21.9794C3.95341 21.7541 3.99551 21.1698 4.05445 20.6856C4.13023 19.9928 4.13023 19.709 4.04603 19.3084C3.98709 19.0329 3.91131 18.6573 3.87763 18.4737C3.84395 18.29 3.62502 17.8059 3.38925 17.3885C3.14506 16.9795 2.86719 16.4119 2.77457 16.1365C2.67353 15.861 2.5388 15.3602 2.47144 15.0346C2.40408 14.7008 2.35356 14.1332 2.35356 13.7826C2.35356 13.4237 2.4125 12.8894 2.48828 12.5889C2.55564 12.2884 2.70721 11.8878 2.82509 11.6958C2.93456 11.4955 3.00192 11.3202 2.95982 11.2951ZM21.636 13.048C21.4592 12.6808 21.1139 12.1716 20.8782 11.9212C20.634 11.6708 20.474 11.5372 20.4992 11.629C20.5329 11.7208 20.634 12.0213 20.7266 12.2968C20.8108 12.5722 20.9287 13.0647 20.9708 13.3819C21.0381 13.816 21.0381 14.1415 20.9624 14.634C20.9034 15.0013 20.7687 15.5689 20.6508 15.8861C20.5329 16.2116 20.2719 16.7542 20.0782 17.0964C19.8761 17.4386 19.5898 17.9645 19.4551 18.265C19.312 18.5655 19.1604 19.0413 19.1099 19.3334C19.051 19.6756 19.051 20.1097 19.1099 20.6272C19.152 21.0446 19.1941 21.6372 19.1857 21.9377C19.1857 22.2382 19.1436 22.7557 19.0846 23.0896C19.0257 23.4151 19.0004 23.6906 19.0257 23.6906C19.051 23.699 19.1857 23.4819 19.3372 23.2148C19.5309 22.8726 19.6656 22.4302 19.8172 21.6873C19.9351 21.1113 20.0866 20.477 20.1624 20.2683C20.1872 20.1916 20.2108 20.1195 20.2307 20.0585C20.2651 19.9534 20.2887 19.8813 20.2887 19.876C20.2887 19.8593 20.1961 19.9094 20.0782 19.9761C19.9182 20.0763 19.8593 20.0763 19.834 20.0012C19.8172 19.9428 19.8846 19.684 19.9856 19.4336C20.0782 19.1832 20.4403 18.5404 20.7687 18.0146C21.1055 17.4887 21.4928 16.8126 21.6276 16.5121C21.7707 16.2116 21.9307 15.7442 21.9812 15.4687C22.0317 15.1932 22.057 14.6924 22.0233 14.3418C21.9812 13.841 21.9054 13.5822 21.636 13.048ZM19.1015 15.4353C19.152 15.1348 19.1773 14.8844 19.1688 14.8677C19.152 14.851 19.0931 14.9428 19.0341 15.0764C18.9752 15.2016 18.6805 15.6023 18.3942 15.9695C18.0995 16.3368 17.7374 16.9044 17.5858 17.2216C17.3332 17.7558 17.308 17.8894 17.2743 18.7658C17.249 19.5421 17.2743 19.8426 17.409 20.31L17.5774 20.8943C17.5016 19.6423 17.5269 19.0663 17.5858 18.7241C17.6448 18.4069 17.7627 17.9728 17.8637 17.7642C17.9563 17.5555 18.1921 17.1799 18.3858 16.9294C18.5878 16.679 18.8068 16.3618 18.8825 16.2199C18.9499 16.0864 19.051 15.7275 19.1015 15.4353ZM4.18076 15.1348L4.04603 14.8844L4.03761 15.2183C4.03761 15.4186 4.13023 15.7525 4.27338 16.053C4.4081 16.3284 4.68597 16.8209 4.89648 17.1381C5.10699 17.4637 5.36801 17.9645 5.47748 18.265C5.63746 18.7157 5.67114 18.9745 5.67114 19.7675C5.67114 20.6356 5.67956 20.694 5.77219 20.3935C5.82271 20.2099 5.89849 19.7758 5.93217 19.4336C5.96585 19.0747 5.94901 18.5655 5.89849 18.2483C5.84797 17.9311 5.69641 17.4637 5.56168 17.2049C5.42696 16.9378 5.09857 16.4203 4.8207 16.053C4.54283 15.6857 4.25654 15.2767 4.18076 15.1348ZM8.99715 18.5738C8.88769 18.4904 8.7698 18.4236 8.73612 18.4319C8.70244 18.4319 8.67718 18.507 8.67718 18.5989C8.67718 18.6907 8.77822 18.9661 8.90453 19.2082L9.1403 19.6423C9.1824 18.7908 9.16556 18.7074 8.99715 18.5738ZM14.8156 18.6239C14.8156 18.5154 14.7819 18.4319 14.7398 18.4319C14.6893 18.4319 14.6556 18.5905 14.6556 18.7908C14.664 19.0663 14.6808 19.108 14.7398 18.9745C14.7735 18.8827 14.8156 18.7241 14.8156 18.6239ZM10.1676 20.8776C10.0665 20.7775 9.95706 20.6856 9.9318 20.6856C9.90654 20.6856 9.89812 20.8192 9.91496 20.9778L9.94022 21.2699C10.6722 21.3032 10.8258 21.31 10.8579 21.197V21.3961C12.9798 21.2959 13.6114 21.2542 13.6198 21.2458C13.6366 21.2375 13.6282 21.0789 13.6114 20.9036L13.5777 20.5697L13.4093 20.8201C13.2493 21.0539 13.2325 21.0622 12.9546 20.962C12.7946 20.9036 12.2725 20.8535 11.7673 20.8535H10.8579V20.9563C10.8491 20.8928 10.835 20.8526 10.8243 20.8526C10.7991 20.8526 10.6812 20.9027 10.5717 20.9611C10.3865 21.0529 10.336 21.0362 10.1676 20.8776ZM9.13188 21.6706L8.83717 21.3534V21.6038C8.83717 21.7457 8.89611 21.9127 8.97189 21.9794C9.03925 22.0462 9.13188 22.1047 9.1824 22.1047C9.2245 22.1047 9.2666 22.1798 9.2666 22.2716C9.2666 22.3718 9.19082 22.4552 9.09819 22.4803C8.98031 22.5137 8.92979 22.5888 8.92979 22.7557C8.92979 22.8809 9.02241 23.1814 9.1403 23.4235C9.30028 23.749 9.40132 23.8742 9.57815 23.9076C9.70445 23.941 10.0497 23.8993 10.336 23.8242L10.8665 23.6906V23.6498C11.9778 23.6748 12.0536 23.6665 11.9273 23.583C11.8178 23.5163 11.7842 23.4244 11.8178 23.3326C11.8684 23.2074 11.9189 23.1991 12.2136 23.2742C12.3988 23.3159 12.803 23.4495 13.1146 23.5663C13.4261 23.6832 13.7798 23.775 13.8977 23.775C14.0071 23.7667 14.1503 23.7416 14.2008 23.7082C14.2597 23.6748 14.3776 23.4745 14.4787 23.2742C14.5713 23.0655 14.6471 22.8067 14.6471 22.7066C14.6555 22.5897 14.5881 22.5062 14.4871 22.4812C14.3945 22.4562 14.3187 22.381 14.3187 22.3143C14.3187 22.2391 14.3945 22.1223 14.4955 22.0388C14.5881 21.9553 14.6471 21.8301 14.6302 21.755C14.5881 21.6298 14.5629 21.6381 14.3608 21.7967C14.1503 21.9637 14.024 21.9804 12.8535 21.9887L12.7033 21.9905C12.0516 21.9983 11.3998 22.006 11.22 22.0138L10.8665 22.0221V22.0212L10.8629 22.0211C9.42657 21.9794 9.41793 21.9792 9.13188 21.6706ZM17.4595 23.8742C17.3669 23.5487 17.2743 23.2733 17.249 23.2733C17.2322 23.2733 17.2153 23.7156 17.2153 24.2499C17.2238 25.0345 17.1817 25.3517 17.0385 25.8191C16.9375 26.1363 16.7859 26.4952 16.6933 26.6121C16.5417 26.7957 16.5165 26.8041 16.3901 26.6956C16.2807 26.5954 16.247 26.4285 16.2554 25.9443L16.2638 25.3183C15.7418 26.0946 15.3797 26.5286 15.1187 26.779C14.664 27.2298 14.6556 27.2465 14.6556 27.7139V28.198C15.1776 27.8725 15.3966 27.789 15.4723 27.8057C15.565 27.8141 15.6155 27.8892 15.6071 27.9894C15.5986 28.0812 15.565 28.2481 15.5313 28.365L15.4639 28.5737C16.0365 28.2481 16.3733 27.9894 16.5922 27.7807C16.8112 27.572 17.1059 27.1547 17.2743 26.8208C17.5353 26.2949 17.5606 26.1614 17.5942 25.36C17.6195 24.6672 17.5858 24.3584 17.4595 23.8742ZM7.32994 24.6255C7.20363 24.2081 7.06049 23.8575 7.02681 23.8575C6.99313 23.8575 6.98471 24.1664 7.00997 24.542C7.03523 25.0846 7.10259 25.335 7.28784 25.6939C7.41414 25.9443 7.61623 26.2782 7.74253 26.4368C7.86041 26.5954 8.37405 27.0378 8.88769 27.4134C9.3929 27.789 9.9739 28.2648 10.176 28.4652C10.4033 28.6905 10.597 28.991 10.698 29.2832L10.858 29.7423C10.8665 28.991 10.7907 28.7823 10.5296 28.2982C10.336 27.956 9.96548 27.4802 9.66235 27.1797C9.37606 26.9042 8.87085 26.4952 8.55088 26.2782C8.22249 26.0612 7.87726 25.7774 7.76779 25.6438C7.65833 25.5103 7.46466 25.0512 7.32994 24.6255ZM6.18478 26.153C6.109 25.9694 6.01638 25.4852 5.99111 25.0679C5.94059 24.3417 5.93217 24.325 5.83113 24.6088C5.77219 24.7674 5.73009 25.143 5.73009 25.4435C5.73009 25.8692 5.78061 26.0612 5.94059 26.3366C6.05848 26.537 6.26056 26.7707 6.40371 26.8625C6.53843 26.9543 6.65632 27.0128 6.65632 26.9877C6.65632 26.9654 6.59595 26.8699 6.5231 26.7547C6.51433 26.7408 6.50538 26.7266 6.49633 26.7123C6.40371 26.5871 6.26898 26.3366 6.18478 26.153ZM11.1442 2.92392L10.8832 2.73193L10.8579 3.53326C11.7084 3.95896 11.961 4.05912 11.961 4.03408C11.961 4.01739 11.8852 3.85879 11.7926 3.6835C11.7 3.50821 11.5737 3.31623 11.5147 3.24111C11.4558 3.17433 11.2958 3.02408 11.1442 2.92392ZM11.1274 16.7885L10.8748 16.5965V17.1891C10.8664 17.7567 10.8748 17.7734 11.0769 17.7734C11.2116 17.7734 11.3211 17.7067 11.38 17.5815C11.4305 17.4813 11.4558 17.306 11.4305 17.1891C11.4053 17.0723 11.2705 16.897 11.1274 16.7885ZM14.6471 18.8753C14.6471 18.6749 14.6134 18.5163 14.5713 18.5163C14.5292 18.5163 14.4702 18.5581 14.4534 18.5998C14.4281 18.6499 14.386 18.9003 14.3523 19.1674L14.3018 19.6432C14.5881 19.301 14.6471 19.1006 14.6471 18.8753ZM14.6555 28.199C14.6555 27.4811 14.6218 27.2808 14.5965 27.2808C14.5629 27.2808 14.285 27.5312 13.9734 27.8401C13.6703 28.1489 13.2998 28.5746 13.1483 28.7833C13.0051 28.9836 12.8956 29.1672 12.9041 29.1756C12.9125 29.1923 13.3167 28.9753 13.7882 28.6998L14.6555 28.199ZM11.0179 29.8267C11.0179 29.6848 10.9842 29.4594 10.9506 29.3258C10.8916 29.0921 10.8832 29.1088 10.8748 29.451C10.8664 29.6514 10.9 29.8768 10.9506 29.9519C11.0095 30.0437 11.0263 30.0103 11.0179 29.8267Z" fill="url(#paint0_linear_2272_9979)"/>
<path d="M15.2618 10.2027C15.3881 10.2861 15.4386 10.2695 15.5818 10.0775V10.0691C15.6744 9.94392 15.7923 9.84375 15.8344 9.84375C15.8765 9.84375 15.9354 9.94392 15.9607 10.0691C16.0028 10.2528 15.9691 10.3446 15.7923 10.4948C15.6323 10.6367 15.4892 10.6785 15.2534 10.6618C15.0008 10.6451 14.9334 10.595 14.8998 10.4364C14.8745 10.3112 14.9082 10.211 14.984 10.1776C15.0513 10.1359 15.1776 10.1526 15.2618 10.2027Z" fill="white"/>
<path d="M7.55728 10.2027C7.54886 10.0691 7.57412 9.93557 7.61622 9.91053C7.65832 9.87714 7.71726 9.8521 7.75936 9.8521C7.79304 9.8521 7.90251 9.95226 7.98671 10.0775C8.11302 10.2695 8.16354 10.2945 8.25616 10.2027C8.32352 10.1526 8.44141 10.1192 8.51719 10.1442C8.60139 10.1693 8.66875 10.2444 8.66875 10.3112C8.66875 10.378 8.65191 10.4948 8.62665 10.5616C8.60139 10.6367 8.48351 10.6868 8.33194 10.6868C8.1888 10.6868 7.96987 10.6284 7.82673 10.5616C7.64148 10.4698 7.57412 10.3696 7.55728 10.2027Z" fill="white"/>
<defs>
<linearGradient id="paint0_linear_2272_9979" x1="1.99999" y1="14.9987" x2="22.4997" y2="14.9987" gradientUnits="userSpaceOnUse">
<stop stop-color="#9C6540"/>
<stop offset="0.445" stop-color="#DFBF96"/>
<stop offset="1" stop-color="#9C6540"/>
</linearGradient>
</defs>
</svg>
