<?xml version="1.0" encoding="UTF-8"?> <svg xmlns="http://www.w3.org/2000/svg" xmlns:xlink="http://www.w3.org/1999/xlink" version="1.1" id="Layer_1" x="0px" y="0px" viewBox="0 0 684 152" style="enable-background:new 0 0 684 152;" xml:space="preserve"> <style type="text/css"> .st0{fill:#FE4350;} .st1{fill:#000000;} </style> <path class="st0" d="M152.1,105.6H51.2V50.9H35.6v62.3c0,4.1,3.5,7.5,7.8,7.5h88.5l-18.3,16H15.5V46.2h19.9H51h65.5 c2,0,3.8-0.7,5.2-1.9l35.6-31.1c2.4-2.1,3.2-5.5,2.1-8.3c-1.2-3-4.1-4.9-7.3-4.9H43.4c-4.3,0-7.8,3.4-7.8,7.5v18.8h15.5V15.1h80.7 l-18.3,16H51.2H35.6H7.8c-4.3,0-7.8,3.4-7.8,7.5v105.6c0,4.1,3.5,7.5,7.8,7.5h108.7c2,0,3.8-0.7,5.2-1.9l35.6-31.1 c2.4-2.1,3.2-5.5,2.1-8.3C158.2,107.6,155.3,105.6,152.1,105.6z"></path> <path class="st1" d="M233.8,34c17,0,35.4,9,38.7,30.2c-7.1,0-13.6,0-20.6,0c-3-8-9.1-11.8-18-11.8c-12.3,0-20.4,9-20.4,22.2 c0,11.8,7.9,22,20.4,22.2c8.9,0,16.2-4.3,18.4-12.9c7.1,0,13.6,0,20.6,0c-3,22.5-21.5,31.4-39.1,31.4c-20.8,0.2-42.1-13.5-42.1-40.6 C191.7,47.5,212.7,34,233.8,34z"></path> <path class="st1" d="M279.1,74.8c0-55.1,84.4-55.1,84.4,0C363.3,130.1,279.1,130.1,279.1,74.8z M341.9,74.8c0-28.6-41.3-28.6-41.3,0 C300.6,103.8,341.9,103.8,341.9,74.8z"></path> <path class="st1" d="M444.9,34.6h7.5v80c-7.1,0-14.4,0-21.5,0V79.1l-17.4,17.8h-2.4l-17.4-17.8v35.5c-7.1,0-14.4,0-21.5,0v-80h7.7 l32.2,34.5L444.9,34.6z"></path> <path class="st1" d="M497.1,114.6h-31V34.8h31C550.7,35.2,550.7,114.4,497.1,114.6z M487.2,96h9.9c26.1,0,26.1-42.5,0-42.5h-9.9V96z "></path> <path class="st1" d="M597.7,53c-12.1,0-18.4,0-30.4,0v11.4h27.9c0,6.1,0,12.2,0,18h-28.1c0,4.7,0,9.2,0,13.9c12.1,0,19.2,0,31.6,0 c0,5.9,0,12.2,0,18c-19.2,0-33.4,0-52.4,0c0-26.7,0-53.3,0-79.6c19,0,32,0,51.4,0C597.7,40.9,597.7,47,597.7,53z"></path> <path class="st1" d="M645.5,89.5l-15.8,25.1h-22.1v-3.1l26.5-39.2l-23.7-34.3v-3.1h21.5l13.4,20.8h0.6l13.8-20.8h21v3.1l-23.5,34.3 l26.7,39.2v3.1h-22.1l-15.8-25.1H645.5z"></path> </svg> 