<svg width="191" height="43" viewBox="0 0 191 43" fill="none" xmlns="http://www.w3.org/2000/svg">
<path fill-rule="evenodd" clip-rule="evenodd" d="M10.3852 1.76588C10.1141 2.47183 9.89262 4.11501 9.89262 5.41737C9.89262 7.42488 10.2131 7.78516 11.9975 7.78516C13.4192 7.78516 14.2395 7.25853 14.526 6.16227C14.9244 4.6392 15.6287 4.5402 26.0135 4.54832L37.0759 4.55724L34.257 6.77978C31.4591 8.98609 31.3261 9.00557 15.9995 9.40804L0.561035 9.81377V26.0426V42.2715L16.966 42.4914L33.3701 42.7105L38.0635 38.5348C44.3651 32.9269 44.9721 32.1146 43.8604 30.7749C43.1764 29.9505 39.6158 29.6941 28.8625 29.6941H14.7613V22.3911V15.0881H12.3002H9.83907L10.0687 24.2169L10.2983 33.3456L23.6279 33.7513L36.9567 34.157L34.0274 36.3885C31.1045 38.6151 31.0696 38.62 17.6557 38.62H4.21253V26.0426V13.4653H18.5321H32.8516L36.1809 10.7356C42.8153 5.29728 44.8041 3.1007 44.2962 1.77562C43.8645 0.650958 41.6549 0.482178 27.3386 0.482178C13.0767 0.482178 10.812 0.653392 10.3852 1.76588ZM62.2136 10.1635C58.1223 11.1421 55.4876 13.4125 54.0375 17.2093C52.8674 20.2741 52.809 21.3241 53.6513 24.1365C55.5233 30.3846 61.8696 33.8641 68.2572 32.1447C71.7197 31.2123 75.6195 27.302 75.6195 24.763C75.6195 22.4025 71.5071 22.6987 69.1279 25.2312C66.7131 27.8018 63.929 27.8148 61.3827 25.2677C58.8437 22.7295 58.8437 19.6184 61.3827 17.0802C63.7984 14.6638 65.8043 14.5607 68.538 16.711C71.0843 18.7137 75.6195 18.9214 75.6195 17.0356C75.6195 15.1815 70.41 10.2195 68.4642 10.2195C67.5635 10.2195 66.3398 10.0751 65.7458 9.89816C65.151 9.72207 63.5622 9.84135 62.2136 10.1635ZM83.9019 10.9863C77.532 13.9473 75.4718 22.947 79.8803 28.5516C84.62 34.5774 95.3464 34.1221 99.2438 27.7304C100.986 24.8741 101.278 18.7056 99.8232 15.5117C97.5763 10.5806 89.6323 8.32315 83.9019 10.9863ZM103.209 21.174V32.1284H106.454H109.7V27.5138V22.8991L112.134 25.2312L114.569 27.5633L117.003 25.2312L119.437 22.8991V27.5138V32.1284H122.683H125.929V21.174C125.929 8.05618 125.432 7.61476 118.846 14.8739L114.602 19.5511L110.326 14.8626C103.705 7.60502 103.209 8.04482 103.209 21.174ZM129.175 21.174V32.1284L135.463 32.1252C140.338 32.1228 142.356 31.7544 144.438 30.4844C150.944 26.5181 150.944 15.8298 144.438 11.8635C142.356 10.5936 140.338 10.2252 135.463 10.2227L129.175 10.2195V21.174ZM151.895 21.174V32.1284H159.198H166.501V29.6941C166.501 27.2841 166.456 27.2598 162.038 27.2598C157.819 27.2598 157.575 27.1494 157.575 25.2312C157.575 23.3381 157.845 23.2026 161.632 23.2026C165.6 23.2026 165.69 23.1482 165.69 20.7682C165.69 18.3883 165.6 18.3339 161.632 18.3339C158.116 18.3339 157.575 18.1173 157.575 16.711C157.575 15.2845 158.116 15.0881 162.038 15.0881C166.456 15.0881 166.501 15.0638 166.501 12.6538V10.2195H159.198H151.895V21.174ZM169.747 10.8987C169.747 11.2727 171.185 13.5862 172.942 16.0408L176.138 20.5029L172.562 25.7075C170.596 28.5694 168.976 31.1847 168.961 31.5199C168.948 31.855 170.375 32.1284 172.135 32.1284C175.021 32.1284 175.531 31.7998 177.333 28.778L179.332 25.4267L181.446 28.778C183.348 31.7909 183.888 32.1284 186.798 32.1284C188.577 32.1284 190.033 31.9345 190.033 31.6976C190.033 31.4598 188.412 28.8502 186.432 25.8982L182.83 20.5305L186.026 15.8249C187.784 13.2372 189.221 10.9173 189.221 10.6698C189.221 10.4223 187.781 10.2195 186.022 10.2195C183.326 10.2195 182.594 10.6033 181.384 12.6538C180.593 13.9927 179.68 15.0881 179.355 15.0881C179.031 15.0881 178.118 13.9927 177.326 12.6538C176.131 10.6309 175.369 10.2195 172.817 10.2195C171.129 10.2195 169.747 10.5254 169.747 10.8987ZM87.2353 15.9126C83.4312 17.4292 82.6612 22.2037 85.726 25.2677C88.278 27.8197 90.5784 27.7921 93.1929 25.1776C97.5414 20.8291 92.9219 13.6462 87.2353 15.9126ZM135.666 21.6811V27.4626L138.293 26.9376C141.87 26.2219 143.131 24.7386 143.131 21.2446C143.131 17.4113 141.796 15.8996 138.407 15.8996H135.666V21.6811Z" fill="#8A94A6"/>
</svg>
