<svg width="29" height="34" viewBox="0 0 29 34" fill="none" xmlns="http://www.w3.org/2000/svg">
<path d="M20.9807 0H7.72973C3.42317 0 0 3.42317 0 7.72973C0 12.0363 3.42317 15.4595 7.72973 15.4595H20.9807C25.2873 15.4595 28.7104 12.0363 28.7104 7.72973C28.7104 3.42317 25.2873 0 20.9807 0ZM20.9807 12.1467C18.5514 12.1467 16.5637 10.1591 16.5637 7.72973C16.5637 5.30039 18.5514 3.31274 20.9807 3.31274C23.41 3.31274 25.3977 5.30039 25.3977 7.72973C25.3977 10.1591 23.41 12.1467 20.9807 12.1467Z" fill="#78FF04"/>
<path d="M20.9807 17.667H7.72973C3.42317 17.667 0 21.0902 0 25.3967C0 29.7033 3.42317 33.1265 7.72973 33.1265H20.9807C25.2873 33.1265 28.7104 29.7033 28.7104 25.3967C28.7104 21.0902 25.2873 17.667 20.9807 17.667ZM7.72973 29.8137C5.30039 29.8137 3.31274 27.8261 3.31274 25.3967C3.31274 22.9674 5.30039 20.9797 7.72973 20.9797C10.1591 20.9797 12.1467 22.9674 12.1467 25.3967C12.1467 27.8261 10.1591 29.8137 7.72973 29.8137Z" fill="#78FF04"/>
</svg>
