<svg width="34" height="34" viewBox="0 0 34 34" fill="none" xmlns="http://www.w3.org/2000/svg">
<path d="M26.2692 4.63672H7.72372C6.01666 4.63672 4.63281 6.02057 4.63281 7.72763V26.2731C4.63281 27.9801 6.01666 29.364 7.72372 29.364H26.2692C27.9762 29.364 29.3601 27.9801 29.3601 26.2731V7.72763C29.3601 6.02057 27.9762 4.63672 26.2692 4.63672Z" stroke="#78FE05" stroke-width="2.8"/>
<path d="M21.6399 12.3633H12.3672V21.636H21.6399V12.3633Z" stroke="#78FE05" stroke-width="2.8"/>
<path d="M12.3672 0V4.63636" stroke="#78FE05" stroke-width="2.8"/>
<path d="M21.6328 0V4.63636" stroke="#78FE05" stroke-width="2.8"/>
<path d="M12.3672 29.3633V33.9996" stroke="#78FE05" stroke-width="2.8"/>
<path d="M21.6328 29.3633V33.9996" stroke="#78FE05" stroke-width="2.8"/>
<path d="M29.3672 12.3633H34.0036" stroke="#78FE05" stroke-width="2.8"/>
<path d="M29.3672 20.0908H34.0036" stroke="#78FE05" stroke-width="2.8"/>
<path d="M0 12.3633H4.63636" stroke="#78FE05" stroke-width="2.8"/>
<path d="M0 20.0908H4.63636" stroke="#78FE05" stroke-width="2.8"/>
</svg>
