<svg width="29" height="32" viewBox="0 0 29 32" fill="none" xmlns="http://www.w3.org/2000/svg">
<path d="M21.258 29.9209H24.2014C24.9597 29.9209 25.6869 29.6197 26.2231 29.0835C26.7593 28.5473 27.0605 27.8201 27.0605 27.0618V9.90733M27.0605 9.90733C27.0612 9.4548 26.9724 9.0066 26.7992 8.58853C26.626 8.17047 26.3718 7.7908 26.0512 7.47139L20.922 2.3422C20.6025 2.02078 20.2225 1.76585 19.8039 1.59213C19.3853 1.41841 18.9364 1.32935 18.4832 1.33008M27.0605 9.90733H19.9128C19.5336 9.90733 19.17 9.75672 18.9019 9.48863C18.6339 9.22053 18.4832 8.85693 18.4832 8.47779V1.33008M18.4832 1.33008H7.04691C6.28864 1.33008 5.56142 1.63131 5.02524 2.16749C4.48906 2.70367 4.18783 3.43089 4.18783 4.18916V9.20971M4.21213 14.9279C3.33779 15.7038 2.63128 16.6503 2.136 17.7092C1.64072 18.7681 1.36712 19.917 1.332 21.0855C1.29688 22.254 1.50098 23.4173 1.93177 24.504C2.36256 25.5907 3.01095 26.5779 3.83712 27.405C4.66329 28.232 5.6498 28.8815 6.73607 29.3134C7.82233 29.7454 8.98544 29.9507 10.1539 29.9168C11.3225 29.8829 12.4717 29.6106 13.5311 29.1164C14.5905 28.6223 15.5378 27.9168 16.3146 27.0432M11.3355 21.3437C10.9564 21.3437 10.5928 21.193 10.3247 20.925C10.0566 20.6569 9.906 20.2933 9.906 19.9141V14.196C9.906 13.4068 10.5493 12.755 11.3284 12.8851C13.0872 13.1808 14.71 14.0174 15.9711 15.2785C17.2322 16.5396 18.0689 18.1625 18.3646 19.9213C18.4947 20.6989 17.8428 21.3437 17.0537 21.3437H11.3355Z" stroke="#78FE05" stroke-width="2.65937" stroke-linecap="round" stroke-linejoin="round"/>
</svg>
