<svg width="31" height="35" viewBox="0 0 31 35" fill="none" xmlns="http://www.w3.org/2000/svg">
<path d="M14.3257 6.35254C10.3742 6.35254 6.78404 7.95828 4.19581 10.5494C1.60574 13.1369 -0.000751819 16.7275 3.14154e-07 20.6783C-0.000820195 24.6305 1.60567 28.2212 4.19581 30.8085C6.78404 33.3983 10.3742 35.0055 14.3257 35.0047C18.2769 35.0055 21.8675 33.3983 24.4557 30.8085C27.0454 28.2212 28.6526 24.6305 28.6511 20.6782C28.6526 16.7275 27.0454 13.1369 24.4557 10.5494C21.8674 7.95828 18.2768 6.35254 14.3257 6.35254ZM14.3257 20.6783V32.2505C11.1259 32.2499 8.2414 30.9576 6.14288 28.8618C4.04634 26.7631 2.75418 23.8781 2.75377 20.6783C2.75418 17.4784 4.04634 14.5943 6.14288 12.4954C8.2414 10.3996 11.1259 9.1074 14.3257 9.10589V20.6783Z" fill="#78FF04"/>
<path d="M18.3668 0H10.2734V3.77715H18.3668V0Z" fill="#78FF04"/>
<path d="M30.3407 9.1414L26.169 4.96973L24.0234 7.11597L28.1952 11.2877L30.3407 9.1414Z" fill="#78FF04"/>
</svg>
