<svg width="35" height="35" viewBox="0 0 35 35" fill="none" xmlns="http://www.w3.org/2000/svg">
<path d="M34.6167 12.5598L30.1707 4.85933L27.604 6.34131L27.2024 6.5732C26.4408 5.8776 25.6069 5.26378 24.7069 4.73698C23.7658 4.18617 22.7787 3.74647 21.7542 3.42068V2.96397V0H12.8624V2.96391V3.42061C11.8379 3.74634 10.851 4.1861 9.90985 4.73692C9.00984 5.26371 8.17583 5.8776 7.41436 6.57314L7.01277 6.34125L4.44589 4.85926L0 12.5597L2.56687 14.0417L2.96248 14.2701C2.73685 15.2977 2.62308 16.3504 2.62308 17.4191C2.62308 18.4877 2.73678 19.5403 2.96248 20.5681L2.56687 20.7965L0 22.2785L4.44589 29.9789L7.01277 28.497L7.41436 28.2651C8.1759 28.9607 9.00991 29.5745 9.90999 30.1013C10.851 30.6521 11.8382 31.0918 12.8625 31.4176V31.8743V34.8382H21.4622C19.8101 33.1457 18.7903 30.8332 18.7903 28.2868C18.7903 27.3547 18.9276 26.4542 19.1818 25.6036C18.5789 25.7415 17.9526 25.8169 17.3084 25.8169C12.6779 25.8169 8.91064 22.0497 8.91064 17.4191C8.91064 12.7886 12.6779 9.02134 17.3084 9.02134C21.9389 9.02134 25.7062 12.7886 25.7062 17.4191C25.7062 18.0633 25.6308 18.6896 25.493 19.2925C26.3434 19.0383 27.2441 18.9011 28.1761 18.9011C29.4698 18.9011 30.7031 19.1642 31.8255 19.6397C31.9366 18.9093 31.9938 18.1683 31.9938 17.4191C31.9938 16.3505 31.8801 15.2978 31.6544 14.27L32.0499 14.0417L34.6167 12.5598Z" fill="#78FF04"/>
<path d="M17.3088 11.9785C14.3126 11.9785 11.875 14.4162 11.875 17.4123C11.875 20.4085 14.3125 22.8462 17.3088 22.8462C20.305 22.8462 22.7426 20.4085 22.7426 17.4123C22.7426 14.4162 20.305 11.9785 17.3088 11.9785Z" fill="#78FF04"/>
<path d="M28.1796 21.8672C24.6386 21.8672 21.7578 24.748 21.7578 28.289C21.7578 31.83 24.6386 34.7108 28.1796 34.7108C31.7206 34.7108 34.6014 31.83 34.6014 28.289C34.6014 24.748 31.7205 21.8672 28.1796 21.8672ZM27.488 31.9655L24.4642 28.9417L26.5601 26.8459L27.4882 27.7739L30.3922 24.8699L32.488 26.9658L27.488 31.9655Z" fill="#78FF04"/>
</svg>
