<svg width="41" height="41" viewBox="0 0 41 41" fill="none" xmlns="http://www.w3.org/2000/svg">
<path d="M17.3184 12.4981C15.9941 11.1738 13.8239 11.1738 12.4997 12.4981C11.8503 13.1475 11.5 14.0019 11.5 14.9161C11.5 15.8218 11.8503 16.6846 12.4997 17.3255C13.1661 17.9919 14.0375 18.3251 14.9091 18.3251C15.7804 18.3251 16.652 17.9919 17.3184 17.3255C17.9677 16.6846 18.318 15.8218 18.318 14.9161C18.318 14.0019 17.9677 13.1475 17.3184 12.4981Z" fill="#78FF04"/>
<path d="M39.3787 31.5418L32.6888 24.8604C32.0224 24.1941 30.9373 24.1941 30.2709 24.8604L29.4934 25.6379L27.2024 23.347C28.9393 20.8166 29.818 17.8686 29.818 14.9155C29.818 11.0964 28.3656 7.26877 25.4607 4.36376C19.6424 -1.45459 10.1758 -1.45459 4.35745 4.36376C-1.45248 10.1822 -1.45248 19.6488 4.35745 25.4586C7.27087 28.372 11.0899 29.8245 14.9092 29.8245C17.8617 29.8245 20.8092 28.9461 23.3434 27.2059L25.633 29.4986L24.8541 30.2775C24.1878 30.9438 24.1878 32.029 24.8541 32.6954L31.544 39.3852C32.6206 40.4617 34.0388 41 35.4571 41C36.8754 41 38.2937 40.4617 39.3787 39.3852C40.4297 38.3343 41.0021 36.9417 41.0021 35.4636C41.002 33.9854 40.4296 32.5927 39.3787 31.5418ZM25.1383 16.8605L22.7529 17.2575C22.5927 17.7957 22.3791 18.313 22.1138 18.8036L23.5197 20.7711L20.7663 23.5228L18.7989 22.1185C18.3082 22.3838 17.7909 22.5975 17.2536 22.7569L16.8548 25.1431H12.9616L12.5645 22.7569C12.0264 22.5975 11.5091 22.3838 11.0184 22.1185L9.05179 23.5228L6.2993 20.7711L7.70343 18.8036C7.43813 18.3122 7.22541 17.7958 7.06517 17.2575L4.67896 16.8605V12.9664L7.06517 12.5694C7.22541 12.0311 7.43813 11.5147 7.70343 11.0232L6.2993 9.05584L9.05179 6.30413L11.0184 7.70836C11.5091 7.44306 12.0263 7.22938 12.5645 7.0701L12.9616 4.68371H16.8548L17.2536 7.07001C17.7908 7.22929 18.3082 7.44297 18.7989 7.70827L20.7663 6.30405L23.5197 9.05576L22.1138 11.0232C22.3791 11.5138 22.5927 12.031 22.7529 12.5694L25.1383 12.9664V16.8605ZM32.086 33.299L30.8778 32.0908L32.086 30.8827L33.2941 32.0908L32.086 33.299ZM34.5032 35.7153L33.2949 34.5072L34.5032 33.2991L35.7112 34.5072L34.5032 35.7153Z" fill="#78FF04"/>
</svg>
