<svg width="30" height="30" viewBox="0 0 30 30" fill="none" xmlns="http://www.w3.org/2000/svg">
<path d="M13.0985 18.3128L12.5892 19.5401M13.0985 18.3128C13.5825 18.5134 14.1008 18.6164 14.6248 18.6164C15.1487 18.6165 15.6674 18.5133 16.1515 18.3128M13.0985 18.3128C12.6145 18.1123 12.1743 17.8182 11.8038 17.4478C11.4334 17.0773 11.1396 16.6375 10.9391 16.1534M16.1515 18.3128C16.6355 18.1124 17.0753 17.8186 17.4458 17.4481C17.8163 17.0777 18.1102 16.6379 18.3107 16.1539M16.1515 18.3128L16.6594 19.5415M18.3107 16.1539C18.5112 15.6699 18.6144 15.1511 18.6145 14.6272C18.6145 14.1033 18.5114 13.5845 18.3109 13.1005M18.3107 16.1539L19.5382 16.6627M18.3109 13.1005C18.1104 12.6164 17.8166 12.1766 17.4462 11.8061C17.0757 11.4357 16.6359 11.1418 16.1519 10.9412M18.3109 13.1005L19.5382 12.5912M16.1519 10.9412C15.6679 10.7407 15.1492 10.6375 14.6252 10.6375C14.1013 10.6374 13.5826 10.7406 13.0985 10.9411M16.1519 10.9412L16.6608 9.71376M13.0985 10.9411L12.5892 9.71376M13.0985 10.9411C12.6145 11.1415 12.1747 11.4354 11.8042 11.8058C11.4337 12.1762 11.1398 12.616 10.9393 13.1M10.9391 16.1534C10.7386 15.6694 10.6355 15.1506 10.6355 14.6267C10.6356 14.1028 10.7388 13.584 10.9393 13.1M10.9391 16.1534L9.7118 16.6627M10.9393 13.1L9.7118 12.5912M4.65234 11.9676H3.9875C3.28219 11.9676 2.60577 11.6874 2.10704 11.1887C1.60831 10.6899 1.32813 10.0135 1.32812 9.3082V3.98945C1.32812 3.28414 1.60831 2.60772 2.10704 2.10899C2.60577 1.61026 3.28219 1.33008 3.9875 1.33008H25.2625C25.9678 1.33008 26.6442 1.61026 27.143 2.10899C27.6417 2.60772 27.9219 3.28414 27.9219 3.98945V9.3082C27.9219 10.0135 27.6417 10.6899 27.143 11.1887C26.6442 11.6874 25.9678 11.9676 25.2625 11.9676H24.5977M4.65234 17.2863H3.9875C3.28219 17.2863 2.60577 17.5665 2.10704 18.0652C1.60831 18.564 1.32813 19.2404 1.32812 19.9457V25.2645C1.32813 25.9698 1.60831 26.6462 2.10704 27.1449C2.60577 27.6436 3.28219 27.9238 3.9875 27.9238H25.2625C25.9678 27.9238 26.6442 27.6436 27.143 27.1449C27.6417 26.6462 27.9219 25.9698 27.9219 25.2645V19.9457C27.9219 19.2404 27.6417 18.564 27.143 18.0652C26.6442 17.5665 25.9678 17.2863 25.2625 17.2863H24.5977M6.64687 22.6051H6.66017M6.64687 6.64883H6.66017" stroke="#78FE05" stroke-width="2.65937" stroke-linecap="round" stroke-linejoin="round"/>
</svg>
