<svg width="34" height="34" viewBox="0 0 34 34" fill="none" xmlns="http://www.w3.org/2000/svg">
<path d="M16.668 0C25.8734 0 33.3359 7.4625 33.3359 16.668C33.3359 25.8734 25.8734 33.3359 16.668 33.3359C14.0017 33.3359 11.4819 32.7098 9.24707 31.5967C8.65319 31.301 7.97393 31.2025 7.33301 31.374L3.62207 32.3662C2.01158 32.7968 0.538994 31.3243 0.969727 29.7139L1.96191 26.0029C2.13335 25.3622 2.03492 24.6836 1.73926 24.0898C0.626104 21.8548 0 19.3343 0 16.668C2.5772e-07 7.4625 7.4625 2.57703e-07 16.668 0ZM9.70898 18.085C8.94962 18.085 8.33403 18.7006 8.33398 19.46C8.33398 20.2193 8.94959 20.8349 9.70898 20.835H19.793C20.5524 20.835 21.168 20.2194 21.168 19.46C21.1679 18.7006 20.5523 18.085 19.793 18.085H9.70898ZM9.70898 11.6689C8.94959 11.669 8.33398 12.2845 8.33398 13.0439C8.33405 13.8033 8.94963 14.4189 9.70898 14.4189H24.377C25.1363 14.4189 25.7519 13.8033 25.752 13.0439C25.752 12.2845 25.1363 11.669 24.377 11.6689H9.70898Z" fill="#65DA01"/>
</svg>
