<svg width="39" height="39" viewBox="0 0 39 39" fill="none" xmlns="http://www.w3.org/2000/svg">
<path fill-rule="evenodd" clip-rule="evenodd" d="M9.61194 0C4.30342 0 0 4.30342 0 9.61194V28.8358C0 34.1443 4.30342 38.4478 9.61194 38.4478H28.8358C34.1443 38.4478 38.4478 34.1443 38.4478 28.8358V9.61194C38.4478 4.30342 34.1443 0 28.8358 0H9.61194ZM21.1463 11.5343C21.1463 10.4726 20.2856 9.61194 19.2239 9.61194C18.1621 9.61194 17.3015 10.4726 17.3015 11.5343V26.9134C17.3015 27.9752 18.1621 28.8358 19.2239 28.8358C20.2856 28.8358 21.1463 27.9752 21.1463 26.9134V11.5343ZM11.5343 15.3791C12.596 15.3791 13.4567 16.2398 13.4567 17.3015V26.9134C13.4567 27.9752 12.596 28.8358 11.5343 28.8358C10.4726 28.8358 9.61194 27.9752 9.61194 26.9134V17.3015C9.61194 16.2398 10.4726 15.3791 11.5343 15.3791ZM26.9134 19.2239C27.9752 19.2239 28.8358 20.0845 28.8358 21.1463V26.9134C28.8358 27.9752 27.9752 28.8358 26.9134 28.8358C25.8517 28.8358 24.991 27.9752 24.991 26.9134V21.1463C24.991 20.0845 25.8517 19.2239 26.9134 19.2239Z" fill="#65DA01"/>
</svg>
