<svg width="35" height="39" viewBox="0 0 35 39" fill="none" xmlns="http://www.w3.org/2000/svg">
<path d="M17.332 0C18.8946 0 20.4036 0.516662 23.4219 1.5498L24.5254 1.92676C30.3151 3.90861 33.2104 4.89977 33.9375 5.93555C34.6645 6.97137 34.6641 10.051 34.6641 16.209V19.2412C34.664 30.0987 26.5007 35.3681 21.3789 37.6055C19.9897 38.2123 19.295 38.5156 17.332 38.5156C15.3691 38.5156 14.6744 38.2122 13.2852 37.6055C8.16335 35.3681 1.57279e-05 30.0987 0 19.2412V16.209C0 10.051 -0.000458428 6.97137 0.726562 5.93555C1.45364 4.89977 4.34891 3.90862 10.1387 1.92676L11.2422 1.5498C14.2604 0.516662 15.7695 1.60289e-10 17.332 0ZM17.332 9.63086C16.6027 9.63086 16.1143 10.5065 15.1387 12.2568L14.8867 12.709C14.6096 13.2061 14.4707 13.455 14.2549 13.6191C14.0386 13.7832 13.7688 13.845 13.2305 13.9668L12.7402 14.0771C10.8457 14.5058 9.89823 14.7205 9.67285 15.4453C9.44766 16.1701 10.0942 16.9251 11.3857 18.4355L11.7197 18.8262C12.0866 19.2552 12.2699 19.47 12.3525 19.7354C12.4351 20.0009 12.4071 20.2876 12.3516 20.8604L12.3018 21.3818C12.1065 23.3969 12.0086 24.4046 12.5986 24.8525C13.1887 25.3005 14.0756 24.8919 15.8496 24.0752L16.3086 23.8643C16.8128 23.6322 17.0649 23.5156 17.332 23.5156C17.5991 23.5156 17.8513 23.6322 18.3555 23.8643L18.8145 24.0752C20.5884 24.8919 21.4754 25.3005 22.0654 24.8525C22.6556 24.4046 22.5576 23.3969 22.3623 21.3818L22.3125 20.8604C22.257 20.2876 22.2289 20.0007 22.3115 19.7354C22.394 19.47 22.5775 19.2552 22.9443 18.8262L23.2793 18.4355C24.5706 16.9253 25.2165 16.1701 24.9912 15.4453C24.7659 14.7205 23.8184 14.5058 21.9238 14.0771L21.4336 13.9668C20.8953 13.845 20.6254 13.7832 20.4092 13.6191C20.1933 13.4551 20.0545 13.2061 19.7773 12.709L19.5254 12.2568C18.5498 10.5065 18.0613 9.63086 17.332 9.63086Z" fill="#65DA01"/>
</svg>
