<svg width="41" height="41" viewBox="0 0 41 41" fill="none" xmlns="http://www.w3.org/2000/svg">
<path d="M20.1667 0C16.1781 0 12.2791 1.18276 8.9627 3.39871C5.6463 5.61466 3.06148 8.76427 1.53511 12.4493C0.00873792 16.1342 -0.390631 20.1891 0.387507 24.1011C1.16564 28.013 3.08634 31.6064 5.90671 34.4268C8.72707 37.2471 12.3204 39.1678 16.2324 39.946C20.1444 40.7241 24.1992 40.3247 27.8842 38.7984C31.5692 37.272 34.7188 34.6872 36.9348 31.3708C39.1507 28.0544 40.3335 24.1553 40.3335 20.1667C40.3335 17.5184 39.8118 14.896 38.7984 12.4493C37.7849 10.0025 36.2994 7.77935 34.4268 5.9067C32.5541 4.03404 30.331 2.54857 27.8842 1.5351C25.4375 0.521628 22.8151 0 20.1667 0ZM16.1334 18.1501C16.6682 18.1501 17.1812 18.3625 17.5594 18.7407C17.9376 19.1189 18.1501 19.6319 18.1501 20.1667C18.1501 20.7016 17.9376 21.2145 17.5594 21.5927C17.1812 21.9709 16.6682 22.1834 16.1334 22.1834H15.9922C16.1615 23.2153 16.6592 24.1651 17.4112 24.8917C18.1633 25.6183 19.1296 26.083 20.1667 26.2167C20.6561 26.203 21.1379 26.0926 21.5844 25.8919C22.0309 25.6911 22.4332 25.404 22.7682 25.0471C22.955 24.859 23.1769 24.7096 23.4213 24.6074C23.6658 24.5051 23.928 24.452 24.193 24.451C24.4579 24.4501 24.7205 24.5014 24.9657 24.6019C25.2108 24.7024 25.4338 24.8503 25.6218 25.037C25.8099 25.2237 25.9593 25.4456 26.0616 25.6901C26.1638 25.9345 26.2169 26.1967 26.2179 26.4617C26.2188 26.7267 26.1675 26.9893 26.067 27.2344C25.9665 27.4796 25.8186 27.7026 25.6319 27.8906C24.921 28.6241 24.0723 29.21 23.1344 29.6149C22.1966 30.0198 21.1881 30.2356 20.1667 30.2501C18.0544 30.1026 16.0627 29.2114 14.5453 27.7345C13.0279 26.2577 12.0829 24.2909 11.8782 22.1834C11.3434 22.1834 10.8304 21.9709 10.4522 21.5927C10.074 21.2145 9.86154 20.7016 9.86154 20.1667C9.86154 19.6319 10.074 19.1189 10.4522 18.7407C10.8304 18.3625 11.3434 18.1501 11.8782 18.1501C12.0829 16.0425 13.0279 14.0757 14.5453 12.5989C16.0627 11.1221 18.0544 10.2308 20.1667 10.0834C21.2632 10.0966 22.3444 10.3426 23.3387 10.8049C24.333 11.2673 25.2177 11.9356 25.9344 12.7655C26.1306 12.958 26.2854 13.1886 26.3893 13.4431C26.4932 13.6976 26.5439 13.9707 26.5384 14.2455C26.5329 14.5203 26.4713 14.7911 26.3573 15.0413C26.2434 15.2914 26.0795 15.5156 25.8757 15.7001C25.6719 15.8846 25.4326 16.0255 25.1724 16.1141C24.9122 16.2028 24.6366 16.2373 24.3626 16.2155C24.0886 16.1938 23.8219 16.1162 23.5789 15.9877C23.336 15.8591 23.1219 15.6822 22.9497 15.4679C22.6037 15.0635 22.1779 14.7348 21.6991 14.5023C21.2202 14.2698 20.6986 14.1385 20.1667 14.1167C19.1296 14.2504 18.1633 14.7151 17.4112 15.4417C16.6592 16.1683 16.1615 17.1181 15.9922 18.1501H16.1334Z" fill="#65DA01"/>
</svg>
