<svg width="48" height="48" viewBox="0 0 48 48" fill="none" xmlns="http://www.w3.org/2000/svg">
<path opacity="0.5" d="M0 15C0 6.71573 6.71573 0 15 0H33C41.2843 0 48 6.71573 48 15V33C48 41.2843 41.2843 48 33 48H15C6.71573 48 0 41.2843 0 33V15Z" fill="#30473A"/>
<path d="M23.6238 11.5742V35.6514M32.9871 18.2623L37 28.9633C35.8423 29.8316 34.4342 30.3009 32.9871 30.3009C31.54 30.3009 30.132 29.8316 28.9743 28.9633L32.9871 18.2623ZM32.9871 18.2623V16.9247M11.5852 16.9247H12.9228C16.6553 16.9247 20.3304 16.0059 23.6238 14.2495C26.9172 16.0059 30.5923 16.9247 34.3248 16.9247H35.6624M14.2604 18.2623L18.2733 28.9633C17.1156 29.8316 15.7075 30.3009 14.2604 30.3009C12.8133 30.3009 11.4052 29.8316 10.2476 28.9633L14.2604 18.2623ZM14.2604 18.2623V16.9247M16.9357 35.6514H30.3119" stroke="#78FE05" stroke-width="2.88889" stroke-linecap="round" stroke-linejoin="round"/>
</svg>
