<svg width="39" height="39" viewBox="0 0 39 39" fill="none" xmlns="http://www.w3.org/2000/svg">
<rect width="39" height="39" rx="4" fill="#78FF04"/>
<rect x="5" y="3" width="5" height="5" fill="#131F18"/>
<rect x="5" y="11" width="5" height="5" fill="#131F18"/>
<rect x="13" y="11" width="5" height="5" fill="#131F18"/>
<rect x="21" y="11" width="5" height="5" fill="#131F18"/>
<rect x="29" y="11" width="5" height="5" fill="#131F18"/>
<rect x="13" y="3" width="13" height="5" fill="#131F18"/>
<rect x="29" y="3" width="5" height="5" fill="#131F18"/>
<circle cx="28.5001" cy="25.4104" r="3.74242" fill="#131F18"/>
<path d="M22 36.4535C22 34.1285 23.2418 31.9806 25.2567 30.8205C27.2644 29.6645 29.7356 29.6645 31.7433 30.8205C33.7582 31.9806 35 34.1285 35 36.4535V38.9986H22V36.4535Z" fill="#131F18"/>
<circle cx="10.5001" cy="25.4104" r="3.74242" fill="#131F18"/>
<path d="M4 36.4535C4 34.1285 5.24183 31.9806 7.25673 30.8205C9.26441 29.6645 11.7356 29.6645 13.7433 30.8205C15.7582 31.9806 17 34.1285 17 36.4535V38.9986H4V36.4535Z" fill="#131F18"/>
<circle cx="19.5002" cy="23.3221" r="4.31818" fill="#131F18"/>
<path d="M12 36.0644C12 33.3818 13.4329 30.9033 15.7578 29.5648C18.0743 28.231 20.9257 28.231 23.2422 29.5648C25.5671 30.9033 27 33.3817 27 36.0644V39.0011H12V36.0644Z" fill="#131F18"/>
</svg>
