<svg width="25" height="31" viewBox="0 0 25 31" fill="none" xmlns="http://www.w3.org/2000/svg">
<path d="M1.42188 25.4805V4.85547C1.42188 3.94379 1.78404 3.06945 2.4287 2.42479C3.07335 1.78013 3.94769 1.41797 4.85938 1.41797H22.0469C22.4115 1.41797 22.7613 1.56283 23.0191 1.8207C23.277 2.07856 23.4219 2.4283 23.4219 2.79297V27.543C23.4219 27.9076 23.277 28.2574 23.0191 28.5152C22.7613 28.7731 22.4115 28.918 22.0469 28.918H4.85938C3.94769 28.918 3.07335 28.5558 2.4287 27.9111C1.78404 27.2665 1.42188 26.3922 1.42188 25.4805ZM1.42188 25.4805C1.42188 24.5688 1.78404 23.6944 2.4287 23.0498C3.07335 22.4051 3.94769 22.043 4.85938 22.043H23.4219M6.92188 13.793H17.9219M6.92188 8.29297H15.1719" stroke="#78FE05" stroke-width="2.83636" stroke-linecap="round" stroke-linejoin="round"/>
</svg>
