<svg width="40" height="40" viewBox="0 0 40 40" fill="none" xmlns="http://www.w3.org/2000/svg">
<path d="M36.3808 30.168H2.66211V33.7173H36.3808V30.168Z" fill="#78FF04"/>
<path d="M37.2681 35.4922H1.77473C1.30406 35.4922 0.852664 35.6792 0.519849 36.012C0.187034 36.3448 6.10352e-05 36.7962 6.10352e-05 37.2669V39.0415H39.0428V37.2669C39.0428 36.7962 38.8558 36.3448 38.523 36.012C38.1902 35.6792 37.7388 35.4922 37.2681 35.4922Z" fill="#78FF04"/>
<path d="M10.648 14.1914H7.09869V28.3888H10.648V14.1914Z" fill="#78FF04"/>
<path d="M21.296 14.1914H17.7467V28.3888H21.296V14.1914Z" fill="#78FF04"/>
<path d="M31.9441 14.1914H28.3947V28.3888H31.9441V14.1914Z" fill="#78FF04"/>
<path d="M38.0666 8.34094L19.5213 0L0.976067 8.34094C0.686941 8.4974 0.444355 8.72757 0.27293 9.00809C0.101505 9.2886 0.00734236 9.60948 0 9.93814V10.648C0 11.1187 0.186973 11.5701 0.519788 11.9029C0.852603 12.2357 1.304 12.4227 1.77467 12.4227H37.268C37.7387 12.4227 38.1901 12.2357 38.5229 11.9029C38.8557 11.5701 39.0427 11.1187 39.0427 10.648V9.93814C39.0354 9.60948 38.9412 9.2886 38.7698 9.00809C38.5983 8.72757 38.3558 8.4974 38.0666 8.34094Z" fill="#78FF04"/>
</svg>
