<svg width="38" height="42" viewBox="0 0 38 42" fill="none" xmlns="http://www.w3.org/2000/svg">
<path d="M35.6168 7.61295L20.8604 0.100612C20.458 -0.0335372 20.0555 -0.0335372 19.6531 0.100612L4.89669 7.61295C4.36009 7.88125 4.0918 8.2837 4.0918 8.8203V12.0399C4.0918 12.8448 4.62839 13.3814 5.43329 13.3814H34.9461C35.751 13.3814 36.2876 12.8448 36.2876 12.0399V8.8203C36.2876 8.2837 36.0193 7.88125 35.6168 7.61295Z" fill="#78FF04"/>
<path d="M37.4946 22.1043C37.2263 21.7019 36.8239 21.4336 36.2873 21.4336C33.336 21.4336 30.5189 22.7751 28.775 25.1898L27.5676 26.7996C26.092 28.5435 23.8114 29.4825 21.5309 29.4825H17.5064C16.7015 29.4825 16.165 28.9459 16.165 28.141C16.165 27.3361 16.7015 26.7996 17.5064 26.7996H20.0553C22.2017 26.7996 24.2139 25.0556 24.2139 22.9092V22.7751C24.2139 22.1043 23.5431 21.4336 22.8724 21.4336H14.6893C9.85995 21.4336 5.96963 23.58 3.82325 27.0679L0.201223 32.7021C-0.0670745 33.1046 -0.0670745 33.6412 0.201223 34.0436L4.22569 40.751C4.35984 41.0193 4.76229 41.2876 5.03059 41.4218C5.16474 41.4218 5.16474 41.4218 5.29889 41.4218C5.56718 41.4218 5.83548 41.2876 6.10378 41.1535C11.2014 37.7998 17.104 36.0558 23.1407 36.0558C27.5676 36.0558 31.5921 33.6412 33.7385 29.7508L37.3605 23.3117C37.6288 23.0434 37.6288 22.5068 37.4946 22.1043Z" fill="#78FF04"/>
<path d="M32.2631 19.414V16.0602C32.2631 15.2553 31.7265 14.7188 30.9216 14.7188H28.2386C27.4337 14.7188 26.8971 15.2553 26.8971 16.0602V23.1701C28.3727 21.4262 30.1167 20.2189 32.2631 19.414Z" fill="#78FF04"/>
<path d="M22.8726 18.7432V16.0602C22.8726 15.2553 22.336 14.7188 21.5311 14.7188H18.8481C18.0432 14.7188 17.5066 15.2553 17.5066 16.0602V18.7432H22.8726Z" fill="#78FF04"/>
<path d="M13.482 18.8774V16.0602C13.482 15.2553 12.9455 14.7188 12.1406 14.7188H9.45758C8.65268 14.7188 8.11609 15.2553 8.11609 16.0602V20.0847C9.72588 19.414 11.604 19.0115 13.482 18.8774Z" fill="#78FF04"/>
</svg>
