<svg width="50" height="32" viewBox="0 0 50 32" fill="none" xmlns="http://www.w3.org/2000/svg">
<path d="M12.4893 19.3398C13.1111 21.5927 14.3156 23.6034 15.9307 25.2002H12.1611V31.501L0 19.3398H12.4893ZM34.0195 19.3398C32.799 22.3983 30.0362 24.6729 26.6904 25.2002H23.7109C20.3652 24.6728 17.6024 22.3983 16.3818 19.3398H34.0195ZM49.376 25.2002H34.4707C36.0858 23.6034 37.2903 21.5927 37.9121 19.3398H49.376V25.2002ZM16.0811 6.2998C14.4257 7.88538 13.1832 9.89814 12.5303 12.1611H0V6.2998H16.0811ZM25.2012 6.3291C29.1462 6.32928 32.5285 8.73616 33.9619 12.1611H16.4404C17.874 8.7362 21.256 6.3291 25.2012 6.3291ZM49.376 12.1611H37.8711C37.2181 9.89813 35.9757 7.88538 34.3203 6.2998H37.2148V0L49.376 12.1611Z" fill="#78FF04"/>
<circle cx="25.2007" cy="15.8147" r="10.5491" fill="#78FF04"/>
<path d="M24.5913 21.5602V20.2014C23.9919 20.1879 23.4556 20.1315 22.9823 20.0324C22.5136 19.9287 22.0854 19.7912 21.6978 19.62V17.8352C22.0809 18.02 22.5384 18.189 23.0702 18.3423C23.602 18.491 24.1091 18.5811 24.5913 18.6127V16.5169C23.8792 16.2375 23.3091 15.9671 22.8809 15.7057C22.4573 15.4398 22.1508 15.1468 21.9615 14.8268C21.7767 14.5023 21.6843 14.1147 21.6843 13.664C21.6843 13.2043 21.806 12.8077 22.0494 12.4742C22.2973 12.1362 22.6398 11.8657 23.077 11.6629C23.5142 11.4601 24.0189 11.3339 24.5913 11.2843V10.25H25.5175V11.2573C26.0403 11.2753 26.5271 11.3362 26.9778 11.4398C27.433 11.539 27.8791 11.6855 28.3163 11.8793L27.6808 13.4612C27.3113 13.308 26.9394 13.1885 26.5654 13.1029C26.1958 13.0173 25.8465 12.9609 25.5175 12.9339V14.9282C26.0178 15.113 26.4933 15.3136 26.944 15.5299C27.3947 15.7462 27.762 16.0212 28.0459 16.3547C28.3298 16.6882 28.4718 17.1254 28.4718 17.6662C28.4718 18.3377 28.2262 18.9011 27.7349 19.3563C27.2482 19.8115 26.509 20.0842 25.5175 20.1743V21.5602H24.5913ZM25.5175 18.5654C25.833 18.5113 26.0651 18.4189 26.2138 18.2882C26.3626 18.153 26.4369 17.9794 26.4369 17.7676C26.4369 17.6414 26.4031 17.5287 26.3355 17.4296C26.2679 17.3304 26.1642 17.238 26.0245 17.1524C25.8893 17.0623 25.7203 16.9721 25.5175 16.882V18.5654ZM24.5913 14.5496V12.9609C24.4065 12.988 24.2488 13.0331 24.1181 13.0961C23.9874 13.1547 23.8882 13.2314 23.8206 13.326C23.753 13.4207 23.7192 13.5333 23.7192 13.664C23.7192 13.7947 23.7485 13.9097 23.8071 14.0088C23.8702 14.108 23.9649 14.2004 24.091 14.286C24.2217 14.3716 24.3885 14.4595 24.5913 14.5496Z" fill="#1E2621"/>
</svg>
