<svg width="25" height="30" viewBox="0 0 25 30" fill="none" xmlns="http://www.w3.org/2000/svg">
<path d="M14.9219 1.41797H4.12187C3.40579 1.41797 2.71903 1.70244 2.21269 2.20878C1.70634 2.71513 1.42188 3.40189 1.42188 4.11797V25.718C1.42188 26.434 1.70634 27.1208 2.21269 27.6272C2.71903 28.1335 3.40579 28.418 4.12187 28.418H20.3219C21.038 28.418 21.7247 28.1335 22.2311 27.6272C22.7374 27.1208 23.0219 26.434 23.0219 25.718V9.51797M14.9219 1.41797C15.3492 1.41728 15.7725 1.50114 16.1673 1.66471C16.5621 1.82829 16.9206 2.06835 17.2223 2.37107L22.0661 7.21487C22.3696 7.5166 22.6103 7.87549 22.7744 8.27079C22.9385 8.66609 23.0226 9.08998 23.0219 9.51797M14.9219 1.41797V8.16797C14.9219 8.52601 15.0641 8.86939 15.3173 9.12256C15.5704 9.37574 15.9138 9.51797 16.2719 9.51797L23.0219 9.51797M6.82187 23.018V20.318M12.2219 23.018V17.618M17.6219 23.018V14.918" stroke="#78FE05" stroke-width="2.83636" stroke-linecap="round" stroke-linejoin="round"/>
</svg>
