<svg width="48" height="48" viewBox="0 0 48 48" fill="none" xmlns="http://www.w3.org/2000/svg">
<path opacity="0.5" d="M0 15C0 6.71573 6.71573 0 15 0H33C41.2843 0 48 6.71573 48 15V33C48 41.2843 41.2843 48 33 48H15C6.71573 48 0 41.2843 0 33V15Z" fill="#30473A"/>
<path d="M32.25 15.25V12.5C32.25 11.7707 31.9603 11.0712 31.4445 10.5555C30.9288 10.0397 30.2293 9.75 29.5 9.75C28.7707 9.75 28.0712 10.0397 27.5555 10.5555C27.0397 11.0712 26.75 11.7707 26.75 12.5V15.25M35 27.625V35.875C35 36.2397 34.8551 36.5894 34.5973 36.8473C34.3394 37.1051 33.9897 37.25 33.625 37.25H16.4375C15.5258 37.25 14.6515 36.8878 14.0068 36.2432C13.3622 35.5985 13 34.7242 13 33.8125M13 33.8125C13 32.9008 13.3622 32.0265 14.0068 31.3818C14.6515 30.7372 15.5258 30.375 16.4375 30.375H35M13 33.8125V13.1875C13 12.2758 13.3622 11.4015 14.0068 10.7568C14.6515 10.1122 15.5258 9.75 16.4375 9.75H21.25M25.375 15.25H33.625C34.3844 15.25 35 15.8656 35 16.625V20.75C35 21.5094 34.3844 22.125 33.625 22.125H25.375C24.6156 22.125 24 21.5094 24 20.75V16.625C24 15.8656 24.6156 15.25 25.375 15.25Z" stroke="#78FE05" stroke-width="2.88889" stroke-linecap="round" stroke-linejoin="round"/>
</svg>
