<svg width="37" height="46" viewBox="0 0 37 46" fill="none" xmlns="http://www.w3.org/2000/svg">
<path d="M2.48454 8.47499L4.77193 6.81143C4.9141 6.70804 5.08537 6.65234 5.26116 6.65234H22.0422C22.5015 6.65234 22.8739 7.02474 22.8739 7.48412V9.14768C22.8739 9.60706 22.5015 9.97946 22.0422 9.97946H2.97377C2.16821 9.97946 1.83305 8.9488 2.48454 8.47499Z" fill="#78FF04"/>
<path d="M4.93563 4.5317L3.98278 2.76212C3.35012 1.58719 4.28883 0.182994 5.61636 0.318457L21.3794 1.92693C22.2284 2.01356 22.8741 2.72853 22.8741 3.5819V3.74301C22.8741 4.66177 22.1293 5.40657 21.2105 5.40657H6.40035C5.78835 5.40657 5.22578 5.07054 4.93563 4.5317Z" fill="#78FF04"/>
<circle cx="13.7244" cy="12.0621" r="7.90191" fill="#78FF04"/>
<path d="M0 35.3835C0 30.4744 2.62205 25.9391 6.87639 23.4896C11.1155 21.049 16.3332 21.049 20.5723 23.4896C24.8267 25.9391 27.4487 30.4744 27.4487 35.3835V40.7573H0V35.3835Z" fill="#78FF04"/>
<path d="M23.2156 19.5459C23.6589 19.5459 24.102 19.6162 24.5281 19.7568L24.7097 19.8213L31.6775 22.4834C33.4432 23.1583 34.5338 24.9289 34.3494 26.8057C34.0183 30.1716 32.8306 34.1637 31.0837 37.3613C30.2091 38.9623 29.1432 40.4588 27.8894 41.5801C26.6365 42.7006 25.0555 43.5653 23.2156 43.5654C21.3755 43.5654 19.7937 42.7006 18.5408 41.5801C17.287 40.4588 16.2211 38.9623 15.3464 37.3613C13.5996 34.1636 12.4118 30.1717 12.0808 26.8057C11.8965 24.9304 12.9881 23.1577 14.7527 22.4834L21.7205 19.8213C22.2018 19.6374 22.709 19.5459 23.2156 19.5459Z" fill="#78FF04" stroke="#1E2621" stroke-width="4.1589"/>
</svg>
