<svg width="26" height="30" viewBox="0 0 26 30" fill="none" xmlns="http://www.w3.org/2000/svg">
<path d="M14.9513 28.4768H21.716C22.4336 28.4768 23.1219 28.1917 23.6293 27.6842C24.1368 27.1768 24.4219 26.4885 24.4219 25.7709V9.53562M24.4219 9.53562C24.4229 9.10689 24.339 8.68219 24.1751 8.28603C24.0112 7.88988 23.7704 7.53012 23.4667 7.2275L18.6123 2.37315C18.3097 2.06945 17.95 1.82867 17.5538 1.66473C17.1576 1.50079 16.7329 1.41693 16.3042 1.41798M24.4219 9.53562H17.6572C17.2983 9.53562 16.9542 9.39308 16.7005 9.13935C16.4468 8.88563 16.3042 8.5415 16.3042 8.18268V1.41798M16.3042 1.41798H5.4807C4.76305 1.41798 4.0748 1.70306 3.56735 2.21051C3.0599 2.71796 2.77482 3.40621 2.77482 4.12386V8.58856M7.76716 21.0072L9.51246 27.6095C9.54947 27.7353 9.54916 27.8691 9.51156 27.9946C9.47395 28.1202 9.40068 28.2321 9.30065 28.3168C9.20061 28.4015 9.07812 28.4554 8.94808 28.4717C8.81803 28.4881 8.68602 28.4664 8.5681 28.4091L6.07464 27.2605C5.8894 27.1701 5.68597 27.1233 5.47986 27.1235C5.27376 27.1237 5.07043 27.171 4.8854 27.2618L2.38787 28.4118C2.27001 28.467 2.13872 28.4871 2.00975 28.4695C1.88079 28.452 1.75962 28.3976 1.66079 28.3129C1.56196 28.2282 1.48966 28.1168 1.45257 27.992C1.41547 27.8673 1.41515 27.7345 1.45164 27.6095L3.19693 21.0072M9.53952 17.6533C9.53952 19.8949 7.72232 21.7121 5.4807 21.7121C3.23907 21.7121 1.42188 19.8949 1.42188 17.6533C1.42188 15.4116 3.23907 13.5944 5.4807 13.5944C7.72232 13.5944 9.53952 15.4116 9.53952 17.6533Z" stroke="#78FE05" stroke-width="2.83636" stroke-linecap="round" stroke-linejoin="round"/>
</svg>
