<svg width="28" height="31" viewBox="0 0 28 31" fill="none" xmlns="http://www.w3.org/2000/svg">
<path d="M18.0885 1.41798H12.533C11.7963 1.41798 11.0897 1.71064 10.5688 2.23157C10.0479 2.7525 9.7552 3.45904 9.7552 4.19575V19.4735C9.7552 20.2102 10.0479 20.9168 10.5688 21.4377C11.0897 21.9586 11.7963 22.2513 12.533 22.2513H23.6441C24.3808 22.2513 25.0873 21.9586 25.6083 21.4377C26.1292 20.9168 26.4219 20.2102 26.4219 19.4735V9.75131M18.0885 1.41798C18.5287 1.4169 18.9646 1.50299 19.3713 1.67129C19.778 1.83959 20.1473 2.08676 20.458 2.39853L25.4413 7.38186C25.7531 7.69252 26.0002 8.06184 26.1685 8.46852C26.3368 8.8752 26.4229 9.31118 26.4219 9.75131M18.0885 1.41798V8.36242C18.0885 8.73077 18.2349 9.08404 18.4953 9.34451C18.7558 9.60498 19.1091 9.75131 19.4774 9.75131H26.4219M4.19965 8.36242C3.46294 8.36242 2.7564 8.65508 2.23547 9.17601C1.71453 9.69694 1.42188 10.4035 1.42188 11.1402V26.418C1.42188 27.1547 1.71453 27.8612 2.23547 28.3821C2.7564 28.9031 3.46294 29.1957 4.19965 29.1957H15.3108C15.7983 29.1957 16.2773 29.0674 16.6996 28.8236C17.1219 28.5798 17.4725 28.2291 17.7163 27.8068" stroke="#78FE05" stroke-width="2.83636" stroke-linecap="round" stroke-linejoin="round"/>
</svg>
