<svg width="48" height="48" viewBox="0 0 48 48" fill="none" xmlns="http://www.w3.org/2000/svg">
<path opacity="0.5" d="M0 15C0 6.71573 6.71573 0 15 0H33C41.2843 0 48 6.71573 48 15V33C48 41.2843 41.2843 48 33 48H15C6.71573 48 0 41.2843 0 33V15Z" fill="#30473A"/>
<path d="M14.2941 20.6527V13.1468C14.2941 12.4604 14.5668 11.8021 15.0522 11.3167C15.5376 10.8313 16.1959 10.5586 16.8824 10.5586H27.2353M27.2353 10.5586C27.6454 10.5576 28.0516 10.6378 28.4305 10.7946C28.8095 10.9514 29.1536 11.1817 29.4431 11.4723L34.0864 16.1155C34.3769 16.405 34.6072 16.7491 34.764 17.1281C34.9208 17.507 35.001 17.9132 35 18.3233M27.2353 10.5586V17.0292C27.2353 17.3724 27.3716 17.7016 27.6143 17.9443C27.857 18.187 28.1862 18.3233 28.5294 18.3233H35M35 18.3233V33.8527C35 34.5392 34.7273 35.1975 34.2419 35.6829C33.7565 36.1683 33.0982 36.441 32.4118 36.441H28.5294M20.7647 29.9704V27.3821C20.7647 26.6957 20.492 26.0374 20.0066 25.552C19.5212 25.0666 18.8629 24.7939 18.1765 24.7939C17.49 24.7939 16.8317 25.0666 16.3463 25.552C15.8609 26.0374 15.5882 26.6957 15.5882 27.3821V29.9704M14.2941 29.9704H22.0588C22.7735 29.9704 23.3529 30.5498 23.3529 31.2645V35.1468C23.3529 35.8616 22.7735 36.441 22.0588 36.441H14.2941C13.5794 36.441 13 35.8616 13 35.1468V31.2645C13 30.5498 13.5794 29.9704 14.2941 29.9704Z" stroke="#78FE05" stroke-width="2.55357" stroke-linecap="round" stroke-linejoin="round"/>
</svg>
