<svg width="43" height="45" viewBox="0 0 43 45" fill="none" xmlns="http://www.w3.org/2000/svg">
<circle cx="31.7618" cy="30.178" r="10.3226" fill="#78FF04"/>
<path d="M15.0869 0C23.4191 4.51608e-05 30.1738 6.75472 30.1738 15.0869C30.1738 15.6591 30.1402 16.2237 30.0781 16.7793C23.5269 17.5944 18.4321 23.1039 18.2666 29.8359C17.2414 30.0559 16.1779 30.1738 15.0869 30.1738C6.75472 30.1738 4.53584e-05 23.4191 0 15.0869C0 6.75469 6.75469 0 15.0869 0Z" fill="#78FF04"/>
<path d="M9.10359 9.16715C8.5866 8.25907 8.11382 7.43435 8.05227 7.33419L7.94037 7.15179L12.4394 7.18089L12.8736 8.13206C13.1125 8.6552 13.3782 9.23429 13.4644 9.41893C13.5506 9.60357 13.7649 10.0691 13.94 10.454C14.1151 10.8384 14.3568 11.3604 14.4777 11.6133C14.5985 11.8662 14.7099 12.0649 14.725 12.0542C14.7401 12.0436 15.2565 10.9352 16.991 7.14844L19.2151 7.15068C20.4381 7.15179 21.4391 7.16578 21.4391 7.18089C21.4391 7.196 21.3345 7.39126 21.2064 7.61451C21.0788 7.83775 20.7727 8.38496 20.5271 8.83144C20.2815 9.27793 19.8104 10.1334 19.4803 10.7338C19.1502 11.3341 18.6869 12.1773 18.4513 12.6081C18.2152 13.039 18.0233 13.3976 18.0244 13.4054C18.0255 13.4133 18.6807 13.4194 20.9356 13.4194V15.5456L20.7957 15.5735C20.719 15.5887 19.7936 15.6004 16.8232 15.5954L16.7952 16.8324H20.9356V18.9586L16.8232 18.9866L16.7952 21.6442H12.7108L12.6828 18.9866L8.45848 18.9586V16.8324L12.6828 16.8045V15.6021L8.48645 15.5735V13.4474L9.98314 13.4334C10.8062 13.4256 11.4798 13.4066 11.4798 13.3915C11.4798 13.3763 11.2191 12.9041 10.9007 12.3424C10.5818 11.7806 10.2584 11.2082 10.1818 11.0695C10.1051 10.9307 9.62002 10.0752 9.10359 9.16715Z" fill="#1E2621"/>
<path d="M30.5894 35.7712V34.2168C30.1892 34.1382 29.8211 34.0025 29.4853 33.8095C29.1494 33.6094 28.8707 33.345 28.6491 33.0162C28.4347 32.6804 28.3025 32.273 28.2525 31.7942H29.9998C30.0641 32.0158 30.1713 32.198 30.3214 32.3409C30.4786 32.4767 30.6644 32.5767 30.8788 32.6411C31.1003 32.6982 31.3326 32.7268 31.5756 32.7268C31.79 32.7268 31.9829 32.7018 32.1544 32.6518C32.326 32.6018 32.4617 32.5267 32.5618 32.4267C32.6618 32.3266 32.7119 32.2016 32.7119 32.0515C32.7119 31.9086 32.669 31.7942 32.5832 31.7085C32.5046 31.6227 32.3974 31.5548 32.2616 31.5048C32.1259 31.4548 31.9794 31.4083 31.8221 31.3654C31.5077 31.2868 31.2326 31.2225 30.9967 31.1725C30.7609 31.1153 30.5465 31.0581 30.3535 31.001C30.1606 30.9438 29.9784 30.8795 29.8068 30.808C29.4066 30.6294 29.0886 30.3935 28.8528 30.1005C28.617 29.8004 28.4991 29.3644 28.4991 28.7927C28.4991 28.3425 28.5991 27.9673 28.7992 27.6672C28.9993 27.3599 29.2637 27.1205 29.5925 26.949C29.9212 26.7703 30.2714 26.6631 30.643 26.6274V25.0838H32.208V26.6488C32.6011 26.6988 32.9513 26.8239 33.2586 27.024C33.5659 27.2241 33.8124 27.4885 33.9982 27.8172C34.184 28.1388 34.2805 28.5212 34.2876 28.9642H32.5939C32.5725 28.7856 32.5046 28.6355 32.3903 28.514C32.2831 28.3925 32.1366 28.2996 31.9508 28.2353C31.765 28.1638 31.5506 28.1281 31.3076 28.1281C31.1289 28.1281 30.9538 28.1496 30.7823 28.1924C30.618 28.2282 30.4822 28.2925 30.375 28.3854C30.2749 28.4783 30.2249 28.6069 30.2249 28.7713C30.2249 28.8928 30.2606 29 30.3321 29.0929C30.4036 29.1858 30.5036 29.2644 30.6323 29.3287C30.7609 29.3859 30.911 29.4395 31.0825 29.4895C31.2611 29.5467 31.4648 29.6003 31.6935 29.6503C31.9222 29.7003 32.1294 29.7503 32.3152 29.8004C32.744 29.9076 33.1192 30.0326 33.4408 30.1756C33.7624 30.3113 34.0125 30.5114 34.1912 30.7759C34.3698 31.0331 34.4592 31.394 34.4592 31.8585C34.4592 32.3588 34.3555 32.7768 34.1483 33.1127C33.9482 33.4486 33.673 33.7094 33.3229 33.8953C32.9798 34.0811 32.5939 34.199 32.1652 34.249V35.7712H30.5894Z" fill="#1E2621"/>
<path d="M35.4317 1.72008C35.9136 1.46686 36.4032 1.20171 36.5189 1.13157C36.6347 1.06213 36.8164 1.00461 36.9223 1.00391C37.0576 1.00391 37.1495 1.06142 37.2316 1.1968C37.3438 1.38269 37.3354 1.4367 37.0198 2.65231C36.7006 3.88054 36.695 3.91772 36.8248 4.02013C36.8977 4.07835 37.1587 4.26704 37.4042 4.441C37.6497 4.61496 38.1835 5.08843 38.5903 5.49317C38.9971 5.8979 39.5064 6.46678 39.7217 6.75577C39.9371 7.04547 40.2626 7.53438 40.4456 7.84302C40.6287 8.15165 40.8651 8.59356 40.9703 8.82504C41.0755 9.05652 41.2439 9.46687 41.3442 9.73692C41.4445 10.007 41.5904 10.4489 41.6697 10.7189C41.7482 10.989 41.8612 11.494 41.9208 11.8413C41.9797 12.1885 42.0477 12.8359 42.0723 13.2792C42.0982 13.7548 42.0814 14.417 42.0316 14.8926C41.9846 15.3366 41.8682 16.031 41.7728 16.4357C41.6774 16.8405 41.502 17.4409 41.3821 17.7685C41.2621 18.0968 41.0131 18.6642 40.8279 19.0311C40.6427 19.398 40.3867 19.8553 40.2584 20.0482C40.0774 20.3204 39.9785 20.4038 39.815 20.4207C39.6825 20.4347 39.559 20.3961 39.4783 20.3154C39.357 20.1941 39.357 20.1527 39.4699 19.3468C39.552 18.7589 39.5758 18.2721 39.5478 17.7334C39.526 17.309 39.4559 16.7093 39.3928 16.4007C39.3289 16.092 39.19 15.587 39.0834 15.2784C38.9775 14.9697 38.772 14.4808 38.6275 14.1911C38.483 13.9021 38.2199 13.4441 38.0432 13.174C37.8657 12.904 37.3873 12.3491 36.9798 11.9416C36.5694 11.5312 35.9879 11.0367 35.6772 10.834C35.3686 10.632 35.095 10.4924 35.069 10.5232C35.0431 10.5534 34.9063 11.036 34.766 11.5958C34.625 12.1555 34.4728 12.6535 34.4272 12.7033C34.3816 12.7538 34.2575 12.7931 34.1516 12.791C34.0456 12.7896 33.9173 12.7489 33.8668 12.7005C33.8163 12.6521 32.6876 10.9939 31.3591 9.01513C28.9517 5.42934 28.944 5.41671 29.0513 5.22732C29.1103 5.1228 29.2996 4.96358 29.4722 4.87379C29.6441 4.78401 30.1477 4.51886 30.5917 4.28458C31.0357 4.05029 32.1082 3.48072 32.9766 3.01916C33.8443 2.55761 34.9491 1.97331 35.4317 1.72008Z" fill="#78FF04"/>
<path d="M4.45789 30.0824C4.49086 29.5269 4.53505 29.2785 4.61642 29.1881C4.67814 29.1186 4.81142 29.0604 4.91173 29.059C5.01203 29.0569 5.13128 29.0962 5.17617 29.1467C5.22177 29.1965 5.34452 29.4735 5.44833 29.7632C5.55285 30.0522 5.75416 30.5257 5.89586 30.8154C6.03825 31.1044 6.3062 31.5779 6.49139 31.8676C6.68148 32.1643 7.15425 32.717 7.57442 33.1351C7.98477 33.5426 8.54172 34.0189 8.81177 34.1936C9.08183 34.3682 9.44448 34.5927 9.61844 34.6923C9.7924 34.7919 10.1789 34.9708 10.4777 35.0893C10.7765 35.2079 11.2661 35.3685 11.565 35.4464C11.8638 35.5249 12.4144 35.6273 12.7883 35.6743C13.1621 35.722 13.4876 35.7445 13.5115 35.7255C13.5346 35.7066 13.4336 35.2107 13.287 34.625C13.0569 33.7061 13.0324 33.5342 13.1081 33.3799C13.1565 33.281 13.2667 33.1814 13.3536 33.1589C13.4694 33.1281 13.8769 33.3133 14.8793 33.8513L14.9295 33.8782C15.6977 34.2898 17.1703 35.079 18.2462 35.6547C19.3461 36.2432 20.4502 36.8352 20.7013 36.9706C20.9524 37.1053 21.1979 37.2519 21.2477 37.2947C21.2982 37.3382 21.3368 37.4525 21.3347 37.5493C21.3319 37.6482 21.0941 38.0684 20.7876 38.5124C20.4895 38.9459 19.4275 40.5087 18.4286 41.9846C17.4291 43.4611 16.5452 44.7405 16.4646 44.8289C16.3832 44.9166 16.2618 44.9874 16.1945 44.9867C16.1272 44.9853 16.0093 44.9454 15.9329 44.897C15.8255 44.8296 15.7273 44.528 15.5029 43.5817C15.3422 42.9063 15.1921 42.3304 15.1683 42.3009C15.1444 42.2721 14.8091 42.1999 14.4234 42.1417C14.0376 42.0828 13.4224 41.9537 13.0555 41.8534C12.6887 41.7538 12.1212 41.5637 11.7929 41.4311C11.4646 41.2985 10.9603 41.0629 10.6706 40.9071C10.3816 40.7514 9.892 40.4561 9.58337 40.2513C9.27473 40.0465 8.75425 39.6452 8.42598 39.3597C8.0977 39.0742 7.59757 38.5734 7.31348 38.2472C7.0301 37.9211 6.60923 37.3704 6.37845 37.0232C6.14768 36.676 5.80607 36.0763 5.61879 35.6905C5.4308 35.3047 5.17968 34.6895 5.05973 34.3226C4.93978 33.9558 4.77985 33.3722 4.7048 33.025C4.62904 32.6778 4.53224 32.0464 4.48946 31.6221C4.44526 31.1865 4.43124 30.5159 4.45789 30.0824Z" fill="#78FF04"/>
</svg>
