<svg width="48" height="48" viewBox="0 0 48 48" fill="none" xmlns="http://www.w3.org/2000/svg">
<path opacity="0.5" d="M0 15C0 6.71573 6.71573 0 15 0H33C41.2843 0 48 6.71573 48 15V33C48 41.2843 41.2843 48 33 48H15C6.71573 48 0 41.2843 0 33V15Z" fill="#30473A"/>
<path d="M22.5 19H28.5C29.2956 19 30.0587 18.6839 30.6213 18.1213C31.1839 17.5587 31.5 16.7956 31.5 16V10M22.5 19C22.5 20.6569 21.1569 22 19.5 22C17.8431 22 16.5 20.6569 16.5 19C16.5 17.3431 17.8431 16 19.5 16C21.1569 16 22.5 17.3431 22.5 19ZM16.5 37V31C16.5 30.2044 16.8161 29.4413 17.3787 28.8787C17.9413 28.3161 18.7044 28 19.5 28H25.5M25.5 28C25.5 29.6569 26.8431 31 28.5 31C30.1569 31 31.5 29.6569 31.5 28C31.5 26.3431 30.1569 25 28.5 25C26.8431 25 25.5 26.3431 25.5 28ZM13.5 10H34.5C36.1569 10 37.5 11.3431 37.5 13V34C37.5 35.6569 36.1569 37 34.5 37H13.5C11.8431 37 10.5 35.6569 10.5 34V13C10.5 11.3431 11.8431 10 13.5 10Z" stroke="#78FE05" stroke-width="2.78571" stroke-linecap="round" stroke-linejoin="round"/>
</svg>
