<svg width="40" height="40" viewBox="0 0 40 40" fill="none" xmlns="http://www.w3.org/2000/svg">
<path d="M14.9079 31.58C13.8273 34.8214 11.2523 37.2027 7.46102 38.4664C5.76052 39.0287 3.98696 39.3393 2.19659 39.3883C1.77623 39.3883 1.37309 39.2213 1.07585 38.9241C0.778613 38.6268 0.611616 38.2237 0.611595 37.8033C0.660668 36.013 0.971265 34.2394 1.53353 32.5389C2.79735 28.7476 5.17852 26.1725 8.41991 25.092C8.61741 25.026 8.82599 24.9996 9.03371 25.0143C9.24143 25.0289 9.44422 25.0844 9.63051 25.1774C9.8168 25.2705 9.98292 25.3993 10.1194 25.5566C10.2559 25.7139 10.36 25.8965 10.4259 26.0941C10.4917 26.2916 10.518 26.5002 10.5032 26.7079C10.4884 26.9156 10.4329 27.1184 10.3397 27.3046C10.2465 27.4909 10.1176 27.6569 9.96019 27.7933C9.80281 27.9296 9.62011 28.0337 9.42253 28.0994C5.52775 29.3976 4.3214 33.625 3.94836 36.0518C6.37384 35.6787 10.6022 34.4725 11.9004 30.5776C11.9661 30.38 12.0701 30.1972 12.2065 30.0398C12.3428 29.8824 12.5089 29.7534 12.6951 29.6602C12.8813 29.567 13.0841 29.5114 13.2919 29.4966C13.4996 29.4818 13.7082 29.508 13.9058 29.5739C14.1034 29.6397 14.286 29.7439 14.4433 29.8804C14.6006 30.0168 14.7295 30.183 14.8226 30.3693C14.9156 30.5556 14.9711 30.7584 14.9857 30.9662C15.0004 31.1739 14.9739 31.3825 14.9079 31.58ZM34.6987 16.5088L32.9214 18.2861V30.4222C32.9225 30.8386 32.8411 31.2512 32.6817 31.6359C32.5224 32.0206 32.2883 32.3699 31.9931 32.6636L25.5853 39.0714C25.1796 39.4772 24.6714 39.7652 24.1148 39.9048C23.5583 40.0444 22.9743 40.0303 22.4251 39.864C21.8759 39.6977 21.3822 39.3855 20.9965 38.9607C20.6108 38.5358 20.3477 38.0142 20.2352 37.4516L18.6687 29.6187L10.3812 21.3312L2.54834 19.7646C1.98573 19.6521 1.4642 19.389 1.03937 19.0034C0.61454 18.6177 0.302337 18.124 0.136052 17.5749C-0.0302326 17.0258 -0.0443647 16.4418 0.0951629 15.8853C0.234691 15.3287 0.522646 14.8205 0.928324 14.4148L7.33603 8.00696C7.62977 7.71172 7.97913 7.47765 8.3639 7.3183C8.74868 7.15894 9.16123 7.07745 9.5777 7.07855H21.7136L23.4909 5.30123C29.1549 -0.362441 34.9669 -0.198176 37.2029 0.135483C37.8742 0.2329 38.4959 0.544641 38.9756 1.02423C39.4552 1.50382 39.767 2.12558 39.8644 2.79681C40.1982 5.03287 40.3627 10.8448 34.6987 16.5088ZM3.16999 16.6562L10.6417 18.1505L18.5437 10.2485H9.5777L3.16999 16.6562ZM29.7514 21.4562L21.8494 29.3583L23.3437 36.8299L29.7514 30.4222L29.7514 21.4562Z" fill="#78FF04"/>
</svg>
