<svg width="48" height="48" viewBox="0 0 48 48" fill="none" xmlns="http://www.w3.org/2000/svg">
<path opacity="0.5" d="M0 15C0 6.71573 6.71573 0 15 0H33C41.2843 0 48 6.71573 48 15V33C48 41.2843 41.2843 48 33 48H15C6.71573 48 0 41.2843 0 33V15Z" fill="#30473A"/>
<path d="M28.1683 28.1683L35.7524 35.7524M28.1683 28.1683V34.2356M28.1683 28.1683H34.2356M20.5841 34.2356V28.1683M20.5841 28.1683H14.5168M20.5841 28.1683L13 35.7524M28.1683 14.5168V20.5841M28.1683 20.5841H34.2356M28.1683 20.5841L35.7524 13M20.5841 14.5168V20.5841M20.5841 20.5841H14.5168M20.5841 20.5841L13 13" stroke="#78FE05" stroke-width="2.65546" stroke-linecap="round" stroke-linejoin="round"/>
</svg>
