<svg width="48" height="48" viewBox="0 0 48 48" fill="none" xmlns="http://www.w3.org/2000/svg">
<path opacity="0.5" d="M0 15C0 6.71573 6.71573 0 15 0H33C41.2843 0 48 6.71573 48 15V33C48 41.2843 41.2843 48 33 48H15C6.71573 48 0 41.2843 0 33V15Z" fill="#30473A"/>
<path d="M21.5 33.0688C20.0381 32.5519 18.7724 31.5946 17.8769 30.3288C16.9815 29.0629 16.5005 27.5506 16.5 26V22.25C16.5 20.9239 17.0268 19.6521 17.9645 18.7145C18.9021 17.7768 20.1739 17.25 21.5 17.25H26.5C27.8196 17.25 29.0857 17.7716 30.0223 18.7012C30.959 19.6308 31.4901 20.8929 31.5 22.2125M26.65 13.35L29 11M35.25 14.75C35.2486 15.9777 34.7955 17.162 33.9772 18.0771C33.1588 18.9923 32.0324 19.5744 30.8125 19.7125M12.75 34.75C12.7485 33.4641 13.2426 32.227 14.1295 31.2959C15.0164 30.3647 16.228 29.8111 17.5125 29.75M12.75 14.75C12.7514 15.9777 13.2045 17.162 14.0228 18.0771C14.8412 18.9923 15.9676 19.5744 17.1875 19.7125M16.5 24.75H11.5M19 11L21.35 13.35M20.25 17.4125V16C20.25 15.0054 20.6451 14.0516 21.3483 13.3483C22.0516 12.6451 23.0054 12.25 24 12.25C24.9946 12.25 25.9484 12.6451 26.6517 13.3483C27.3549 14.0516 27.75 15.0054 27.75 16V17.4125M26.5 27.2538C26.4993 27.0319 26.5577 26.8139 26.6691 26.6221C26.7806 26.4303 26.941 26.2716 27.1341 26.1623C27.3271 26.0529 27.5458 25.997 27.7676 26.0001C27.9894 26.0032 28.2064 26.0653 28.3963 26.18L34.6425 29.9263C34.8285 30.0371 34.9824 30.1943 35.0894 30.3825C35.1963 30.5708 35.2525 30.7835 35.2525 31C35.2525 31.2165 35.1963 31.4292 35.0894 31.6175C34.9824 31.8057 34.8285 31.9629 34.6425 32.0737L28.3963 35.82C28.2063 35.9347 27.9892 35.9968 27.7673 35.9999C27.5453 36.003 27.3266 35.9469 27.1335 35.8374C26.9405 35.728 26.78 35.5691 26.6687 35.3771C26.5573 35.1851 26.4991 34.9669 26.5 34.745V27.2538Z" stroke="#78FE05" stroke-width="2.88889" stroke-linecap="round" stroke-linejoin="round"/>
</svg>
