<svg width="41" height="41" viewBox="0 0 41 41" fill="none" xmlns="http://www.w3.org/2000/svg">
<path d="M23.8369 29.9693L24.4737 31.0062C24.1869 31.2382 23.9325 31.4075 23.7059 31.5203C23.3329 31.7009 22.9345 31.7853 22.5172 31.7853C22.2109 31.7853 21.6945 31.6725 20.9704 31.4323C20.2492 31.1974 19.6761 31.0782 19.2571 31.0782C18.8681 31.0782 18.4987 31.1467 18.1499 31.2789C17.9475 31.3639 17.6825 31.4996 17.3614 31.6979L16.6013 30.6067C17.1802 30.2006 17.6453 29.7562 17.9982 29.2652C18.3511 28.7765 18.527 28.2483 18.527 27.6752C18.527 27.5112 18.4951 27.3193 18.4285 27.0986C18.3889 26.9605 18.3181 26.7728 18.2231 26.5309H16.5275V25.7335H17.7326C17.7326 25.7607 17.6471 25.5966 17.4759 25.2543C17.3024 24.9096 17.1891 24.6523 17.1324 24.4995C17.0817 24.3501 17.0368 24.1778 17.0014 23.9825C16.9672 23.7818 16.9489 23.5735 16.9489 23.3474C16.9489 22.5477 17.2729 21.833 17.9233 21.2033C18.5731 20.5706 19.5032 20.2543 20.7154 20.2543C21.8551 20.2543 22.7155 20.5677 23.3051 21.1873C23.8894 21.8112 24.194 22.6988 24.2046 23.8384H22.787C22.787 23.0641 22.6028 22.4775 22.2446 22.0791C21.8828 21.6748 21.3351 21.4748 20.5991 21.4748C19.8803 21.4748 19.3421 21.666 18.972 22.0402C18.6026 22.4161 18.4208 22.8723 18.4208 23.4064C18.4208 23.6756 18.4774 23.9494 18.5919 24.2315C18.7088 24.5118 18.9514 25.0111 19.3249 25.7341H21.8427V26.5315H19.6708C19.7233 26.7681 19.7605 26.954 19.7841 27.085C19.8077 27.2155 19.8172 27.3571 19.8172 27.4982C19.8172 28.0122 19.6643 28.5145 19.3556 29.0167C19.0499 29.5148 18.5701 30.0129 17.915 30.4975C18.2679 30.3198 18.615 30.18 18.9584 30.0708C19.3019 29.9693 19.6354 29.9156 19.9635 29.9156C20.3318 29.9156 20.8199 30.0053 21.4248 30.1859C22.0309 30.37 22.4293 30.4609 22.6188 30.4609C22.8596 30.4609 23.0791 30.4149 23.2798 30.3198C23.4002 30.2655 23.5861 30.1469 23.8369 29.9693ZM0 13.4371L30.8016 2.09375V8.58812L36.2703 7.74711V13.9907H41V38.9017H0V13.9954V13.4371ZM28.9349 26.0192C28.9349 21.3632 25.1589 17.5831 20.4994 17.5831C15.8399 17.5831 12.0633 21.3638 12.0633 26.0192C12.0633 30.6798 15.8393 34.4576 20.4988 34.4576C25.1583 34.4576 28.9349 30.6804 28.9349 26.0192ZM7.35722 12.2059L29.4236 8.80354V4.07204L7.35722 12.2059ZM4.80881 13.9954H34.8892V9.35595L4.80881 13.9954Z" fill="#78FF04"/>
</svg>
