<svg width="42" height="43" viewBox="0 0 42 43" fill="none" xmlns="http://www.w3.org/2000/svg">
<path d="M41.2072 32.25H34.0408V42.9996H41.2072V32.25Z" fill="#78FF04"/>
<path d="M8.95814 16.125H1.79175V42.9991H8.95814V16.125Z" fill="#78FF04"/>
<path d="M30.4574 25.082H23.291V42.9981H30.4574V25.082Z" fill="#78FF04"/>
<path d="M19.7078 19.7109H12.5414V43.0018H19.7078V19.7109Z" fill="#78FF04"/>
<path d="M12.5323 12.5413H12.5413C12.5586 12.5413 12.5753 12.5392 12.5925 12.5387C12.6327 12.5376 12.6729 12.5365 12.713 12.5327C12.7428 12.5298 12.7719 12.5247 12.8013 12.5204C12.8292 12.5163 12.8574 12.513 12.8851 12.5077C12.9177 12.5014 12.9494 12.4928 12.9813 12.4847C13.0057 12.4785 13.0303 12.4731 13.0545 12.4659C13.0854 12.4567 13.1156 12.4454 13.1458 12.4346C13.1707 12.4257 13.1956 12.4174 13.2202 12.4074C13.2474 12.3962 13.2738 12.3834 13.3004 12.3708C13.3271 12.3584 13.3539 12.3463 13.38 12.3326C13.4033 12.3201 13.4257 12.3063 13.4484 12.2929C13.4761 12.2766 13.504 12.2607 13.531 12.2428C13.552 12.2288 13.572 12.2134 13.5924 12.1985C13.619 12.1792 13.6458 12.1603 13.6716 12.1393C13.6935 12.1214 13.7139 12.102 13.735 12.0832C13.7571 12.0633 13.7797 12.0442 13.8011 12.0232C13.8296 11.9949 13.8561 11.9648 13.8827 11.9346C13.8941 11.9217 13.9064 11.9102 13.9175 11.8969C13.9185 11.8958 13.9191 11.8946 13.9201 11.8936C13.9581 11.8477 13.9941 11.8001 14.0275 11.7506C14.0302 11.7466 14.0322 11.7424 14.0349 11.7384C14.0646 11.6935 14.0928 11.6475 14.1185 11.5999C14.1304 11.5779 14.1399 11.5551 14.1508 11.5328C14.1655 11.5026 14.1811 11.4727 14.1941 11.4416C14.2054 11.4145 14.2143 11.3867 14.2242 11.3591C14.2342 11.3317 14.2451 11.3047 14.2538 11.2767C14.2637 11.2444 14.2708 11.2116 14.2789 11.179C14.2849 11.1548 14.2921 11.1312 14.297 11.1067C14.308 11.0528 14.3159 10.9987 14.3218 10.9443C14.3222 10.9405 14.3232 10.9367 14.3236 10.9328C14.3296 10.8734 14.3325 10.8137 14.3326 10.754C14.3326 10.7526 14.3328 10.7513 14.3328 10.7499V3.58327C14.3328 2.5938 13.5307 1.79169 12.5412 1.79169C11.5518 1.79169 10.7497 2.5938 10.7497 3.58327V6.92456L2.93863 0.415321C2.17851 -0.218152 1.04879 -0.115443 0.415321 0.644674C-0.218152 1.40479 -0.115443 2.53451 0.644674 3.16798L7.5928 8.95809H5.37485C4.38538 8.95809 3.58327 9.7602 3.58327 10.7497C3.58327 11.7391 4.38538 12.5412 5.37485 12.5412H12.5313C12.5316 12.5413 12.5319 12.5413 12.5323 12.5413Z" fill="#78FF04"/>
</svg>
