<svg width="31" height="41" viewBox="0 0 31 41" fill="none" xmlns="http://www.w3.org/2000/svg">
<path fill-rule="evenodd" clip-rule="evenodd" d="M24.3939 0C24.6281 0 24.8516 0.0977261 25.0106 0.269616L30.428 6.12538C30.5716 6.28066 30.6514 6.48441 30.6514 6.69594V39.488C30.6514 39.952 30.2753 40.3281 29.8112 40.3281H0.840169C0.376156 40.3281 0 39.952 0 39.488V0.840168C0 0.376156 0.376157 0 0.840169 0H24.3939ZM4.07777 3.23761C3.61376 3.23761 3.23761 3.61376 3.23761 4.07777V36.2504C3.23761 36.7144 3.61376 37.0905 4.07778 37.0905H26.5728C27.0368 37.0905 27.413 36.7144 27.413 36.2504V9.03674C27.413 8.57273 27.0368 8.19657 26.5728 8.19657H23.7258C23.2617 8.19657 22.8856 7.82042 22.8856 7.3564V4.07777C22.8856 3.61376 22.5094 3.23761 22.0454 3.23761H4.07777Z" fill="#65DA01"/>
<path fill-rule="evenodd" clip-rule="evenodd" d="M24.0106 5.74975C24.0106 6.21377 24.3867 6.58992 24.8507 6.58992H28.2114C28.6754 6.58992 29.0516 6.96608 29.0516 7.43009V37.6762C29.0516 38.1402 28.6754 38.5164 28.2114 38.5164H3.84652C3.3825 38.5164 3.00635 38.1402 3.00635 37.6762V3.22924C3.00635 2.76523 3.3825 2.38908 3.84652 2.38908H23.1704C23.6344 2.38908 24.0106 2.76523 24.0106 3.22925V5.74975ZM16.7887 20.5947C16.3247 20.5947 15.9486 20.9708 15.9486 21.4348V27.7271C15.9486 28.1911 16.3261 28.572 16.7874 28.5222C20.6546 28.1041 23.6651 24.8287 23.6652 20.8506C23.6652 20.7079 23.5469 20.5947 23.4042 20.5947H16.7887ZM14.699 11.7532C10.4373 11.7532 6.98239 15.208 6.98238 19.4698C6.98238 23.4482 9.99293 26.7233 13.8601 27.1413C14.3215 27.1912 14.699 26.8102 14.699 26.3462V20.054C14.699 19.59 15.0751 19.2138 15.5391 19.2138H21.5426C22.0174 19.2138 22.4024 18.819 22.334 18.3492C21.7913 14.6185 18.58 11.7532 14.699 11.7532Z" fill="#65DA01"/>
</svg>
