<svg width="36" height="33" viewBox="0 0 36 33" fill="none" xmlns="http://www.w3.org/2000/svg">
<path d="M19.2996 14.8496H20.5113C20.0629 13.5919 19.0725 12.6015 17.8148 12.1531V13.3648C17.8148 14.1844 17.151 14.8496 16.3299 14.8496C15.5088 14.8496 14.845 14.1844 14.845 13.3648V12.1531C13.5873 12.6015 12.5969 13.5919 12.1484 14.8496H13.3601C14.1812 14.8496 14.845 15.5149 14.845 16.3345C14.845 17.1542 14.1812 17.8194 13.3601 17.8194H12.1484C12.5969 19.0771 13.5873 20.0675 14.845 20.516V19.3043C14.845 18.4846 15.5088 17.8194 16.3299 17.8194C17.151 17.8194 17.8148 18.4846 17.8148 19.3043V20.516C19.0725 20.0675 20.0629 19.0771 20.5113 17.8194H19.2996C18.4785 17.8194 17.8148 17.1542 17.8148 16.3345C17.8148 15.5149 18.4785 14.8496 19.2996 14.8496Z" fill="#65DA01"/>
<path d="M32.6673 0H5.93951C4.30172 0 2.96976 1.33197 2.96976 2.96976V4.45464C1.33197 4.45464 0 5.7866 0 7.42439V10.3942C0 12.0319 1.33197 13.3639 2.96976 13.3639V19.3034C1.33197 19.3034 0 20.6354 0 22.2732V25.2429C0 26.8807 1.33197 28.2127 2.96976 28.2127V29.6976C2.96976 31.3354 4.30172 32.6673 5.93951 32.6673H32.6673C34.3051 32.6673 35.6371 31.3354 35.6371 29.6976V2.96976C35.6371 1.33197 34.3051 0 32.6673 0ZM5.93951 25.2429H4.45464H2.96976V22.2732H4.45464H5.93951V25.2429ZM5.93951 10.3942H4.45464H2.96976V7.42439H4.45464H5.93951V10.3942ZM16.3337 23.7581C12.2399 23.7581 8.90927 20.4275 8.90927 16.3337C8.90927 12.2399 12.2399 8.90927 16.3337 8.90927C20.4274 8.90927 23.7581 12.2399 23.7581 16.3337C23.7581 20.4275 20.4274 23.7581 16.3337 23.7581ZM29.6976 20.7883C30.5187 20.7883 31.1824 21.4535 31.1824 22.2732C31.1824 23.0928 30.5187 23.7581 29.6976 23.7581H28.2127C26.5749 23.7581 25.2429 22.4261 25.2429 20.7883V10.3942C25.2429 8.75636 26.5749 7.42439 28.2127 7.42439H29.6976C30.5187 7.42439 31.1824 8.08962 31.1824 8.90927C31.1824 9.72893 30.5187 10.3942 29.6976 10.3942H28.2127V20.7883H29.6976Z" fill="#65DA01"/>
</svg>
