<svg width="112" height="18" viewBox="0 0 112 18" fill="none" xmlns="http://www.w3.org/2000/svg">
<path d="M19.9993 8.12105L15.8397 0.891336C15.5179 0.346631 14.9237 0 14.2799 0H5.9608C5.31706 0 4.72283 0.346631 4.40096 0.891336L0.241403 8.09629C-0.0804677 8.64099 -0.0804677 9.33425 0.241403 9.87895L4.40096 17.0839C4.72283 17.6534 5.31706 17.9752 5.9608 17.9752H14.2799C14.9237 17.9752 15.5179 17.6286 15.8397 17.0839L19.9993 9.87895C20.3212 9.35901 20.3212 8.66575 19.9993 8.12105ZM10.1204 15.2022V13.9642C14.5275 13.9642 16.7558 8.61623 13.6362 5.49656C10.5165 2.37689 5.1685 4.58047 5.1685 9.01238C5.1685 10.1018 5.51513 11.1417 6.18363 12.0083L7.07496 11.1417C6.65406 10.5227 6.40646 9.77992 6.40646 9.01238C6.40646 5.69464 10.4175 4.03576 12.7696 6.3879C15.1217 8.74003 13.4629 12.751 10.1451 12.751V11.5131C12.3487 11.5131 13.4629 8.83907 11.8783 7.27923C10.3184 5.7194 7.64443 6.83356 7.64443 9.03714C7.64443 9.4828 7.76822 9.90371 7.9663 10.2751L8.88239 9.38377C8.85763 9.28473 8.83287 9.16094 8.83287 9.0619C8.83287 7.92297 10.1946 7.35351 11.0117 8.17056C11.804 8.96286 11.2345 10.3494 10.1204 10.3494C9.99656 10.3494 9.87276 10.3246 9.74897 10.2999L6.55502 13.3453C6.53026 13.37 6.48074 13.3948 6.45598 13.4195C6.45598 13.4195 6.43122 13.4195 6.43122 13.4443C6.40646 13.4691 6.3817 13.469 6.35694 13.4938C6.33219 13.4938 6.33219 13.4938 6.30743 13.5186L6.23315 13.5433C6.20839 13.5433 6.20839 13.5433 6.18363 13.5433C6.15887 13.5433 6.13411 13.5433 6.10935 13.5433C6.08459 13.5433 6.05983 13.5433 6.03507 13.5433C6.01031 13.5433 5.98556 13.5433 5.98556 13.5433L5.91128 13.5186C5.88652 13.5186 5.88652 13.5186 5.86176 13.4938C5.837 13.4938 5.81224 13.4691 5.78748 13.4443C5.76272 13.4443 5.76272 13.4195 5.73796 13.4195C5.7132 13.3948 5.68844 13.37 5.68844 13.37L5.66369 13.3453C0.959422 8.49243 6.28267 0.693262 12.522 3.31775C18.7613 5.94223 16.8796 15.2022 10.1204 15.2022ZM25.0254 3.19395H28.8384C32.5275 3.14443 35.2263 5.54608 35.1767 8.98762C35.2263 12.3549 32.5027 14.9051 28.8384 14.8308H25.0254V3.19395ZM28.8136 12.7015C31.1657 12.7015 32.7256 11.2407 32.7256 9.01238C32.7256 6.75929 31.1905 5.37277 28.8136 5.37277H27.3776V12.7015H28.8136ZM43.892 14.8556H41.7132V14.0138C41.0199 14.707 40.0543 15.1032 39.0392 15.0784C37.1822 15.0784 36.0186 13.989 36.0186 12.4787C36.0186 10.9188 37.2813 9.95323 39.3115 9.95323H41.4904V9.55708C41.5646 8.64099 40.7723 7.89821 39.881 8.02201C38.9649 8.04677 38.1231 8.49243 37.5784 9.23521L36.3404 7.77442C37.2565 6.61073 38.6678 5.94223 40.1534 5.96699C42.3074 5.76891 44.0901 7.55158 43.892 9.70564V14.8556ZM41.5151 11.4883H39.6582C38.8906 11.4883 38.445 11.7854 38.445 12.3549C38.445 12.9491 38.9402 13.2957 39.6829 13.2957C40.6733 13.3453 41.5151 12.553 41.5151 11.5626V11.4883ZM50.7503 15.0536C49.76 15.0784 48.8191 14.707 48.1259 13.989V18H45.749V6.11555H47.9278V7.20495C48.5963 6.33838 49.6362 5.84319 50.7503 5.91747C53.2015 5.94223 55.1327 8.02201 54.9842 10.4732C55.1327 12.9243 53.2015 15.0289 50.7503 15.0536ZM50.3047 8.07153C48.9924 8.04677 47.9525 9.16093 48.1011 10.4732C47.9773 11.7854 48.9924 12.8996 50.3047 12.8996C51.6169 12.8996 52.6568 11.8102 52.5578 10.4979C52.6568 9.18569 51.6169 8.07153 50.3047 8.07153ZM61.3968 15.0536C60.4064 15.0784 59.4656 14.707 58.7971 13.989V18H56.4202V6.11555H58.6238V7.20495C59.2923 6.33838 60.3322 5.86795 61.4216 5.91747C63.8727 5.94223 65.804 8.02201 65.6554 10.4732C65.7792 12.9243 63.848 15.0289 61.3968 15.0536ZM60.9512 8.07153C59.6389 8.04677 58.6238 9.16093 58.7476 10.4732C58.6238 11.7854 59.6389 12.8996 60.9512 12.8996C62.2634 12.8996 63.3033 11.8102 63.2043 10.4979C63.3033 9.18569 62.2634 8.07153 60.9512 8.07153ZM74.2964 14.8556L71.2758 10.7455H69.5426V14.8556H67.1657V3.21871H71.5481C73.9745 3.21871 75.7324 4.72903 75.7324 6.98212C75.7572 8.3934 74.9649 9.68088 73.7022 10.2999L76.9952 14.8556H74.2964ZM69.5179 8.64099H71.5234C72.489 8.74003 73.3308 7.94773 73.2813 6.95736C73.306 5.99175 72.489 5.19945 71.5234 5.29849H69.5426L69.5179 8.64099ZM84.9677 14.8556H82.7888V14.0138C82.0956 14.707 81.13 15.1032 80.1396 15.0784C78.2827 15.0784 77.119 13.989 77.119 12.4787C77.119 10.9188 78.3817 9.95323 80.412 9.95323H82.5908V9.55708C82.665 8.64099 81.8727 7.89821 80.9814 8.02201C80.0653 8.04677 79.2235 8.49243 78.6788 9.23521L77.4408 7.77442C78.3569 6.61073 79.7682 5.94223 81.2538 5.96699C83.4078 5.76891 85.1905 7.55158 84.9924 9.70564V14.8556H84.9677ZM82.5908 11.4883H80.7338C79.9663 11.4883 79.5206 11.7854 79.5206 12.3549C79.5206 12.9491 80.0158 13.2957 80.7833 13.2957C81.7737 13.3453 82.6155 12.553 82.6155 11.5626V11.4883H82.5908ZM95.5399 1.60935V14.8308H93.3611V13.7414C92.6926 14.608 91.6527 15.0784 90.5633 15.0289C88.1121 15.0041 86.1561 12.9243 86.3294 10.4732C86.1809 8.02201 88.1121 5.94223 90.5633 5.91747C91.5536 5.86795 92.4945 6.23934 93.163 6.95736V1.60935H95.5399ZM91.0089 8.07153C89.6967 8.07153 88.6568 9.16093 88.7558 10.4732C88.6568 11.7854 89.6967 12.8996 91.0089 12.8996C92.3212 12.9243 93.3611 11.8102 93.2125 10.4979C93.3363 9.18569 92.2964 8.07153 91.0089 8.07153ZM104.775 14.8556H102.596V14.0138C101.903 14.707 100.937 15.1032 99.947 15.0784C98.0901 15.0784 96.9264 13.989 96.9264 12.4787C96.9264 10.9188 98.1891 9.95323 100.219 9.95323H102.423V9.55708C102.497 8.64099 101.705 7.89821 100.814 8.02201C99.8975 8.04677 99.0557 8.49243 98.4862 9.23521L97.2483 7.77442C98.1644 6.61073 99.5756 5.94223 101.061 5.96699C103.215 5.76891 104.998 7.55158 104.8 9.70564L104.775 14.8556ZM102.423 11.4883H100.566C99.7985 11.4883 99.3528 11.7854 99.3528 12.3549C99.3528 12.9491 99.848 13.2957 100.591 13.2957C101.581 13.3453 102.423 12.553 102.423 11.5626V11.4883ZM112.005 8.22008H111.386C110.049 8.07153 108.935 9.16093 109.034 10.4979V14.8556H106.657V6.1403H108.836V7.18019C109.405 6.43741 110.296 6.01651 111.237 6.04127C111.51 6.04127 111.757 6.06602 112.005 6.1403V8.22008Z" fill="white"/>
</svg>
