<svg width="48" height="48" viewBox="0 0 48 48" fill="none" xmlns="http://www.w3.org/2000/svg">
<rect opacity="0.5" width="48" height="48" rx="15" fill="#30473A"/>
<path d="M38.7395 22.6964V15.6163C38.7395 14.2938 37.7396 12.794 36.4977 12.294L27.5146 8.61688C25.4987 7.79437 23.2246 7.79437 21.2087 8.61688L12.2256 12.294C10.9999 12.794 10 14.2938 10 15.6163V22.6964C10 30.5828 15.7253 37.9693 23.5472 40.1304C24.0794 40.2755 24.66 40.2755 25.1922 40.1304C33.0142 37.9693 38.7395 30.5828 38.7395 22.6964ZM25.5793 25.5187V29.7603C25.5793 30.4215 25.031 30.9699 24.3697 30.9699C23.7085 30.9699 23.1601 30.4215 23.1601 29.7603V25.5187C21.5312 25.0026 20.3379 23.4866 20.3379 21.6964C20.3379 19.4708 22.1441 17.6645 24.3697 17.6645C26.5953 17.6645 28.4016 19.4708 28.4016 21.6964C28.4016 23.5027 27.2082 25.0026 25.5793 25.5187Z" fill="#65DA01"/>
</svg>
