<svg width="43" height="32" viewBox="0 0 43 32" fill="none" xmlns="http://www.w3.org/2000/svg">
<path d="M10.1923 12.3657C10.0736 12.1097 9.81706 11.9458 9.53491 11.9458C9.53435 11.9458 9.53379 11.9458 9.53324 11.9458C9.25041 11.9465 8.99379 12.1116 8.87607 12.3688L5.28468 20.2133C5.11813 20.5771 5.27799 21.0072 5.64186 21.1738C5.73962 21.2185 5.84218 21.2396 5.94307 21.2396C6.21775 21.2396 6.48051 21.0826 6.60236 20.8165L7.5031 18.849H11.5999L12.5133 20.8196C12.6816 21.1827 13.1123 21.3406 13.4754 21.1723C13.8385 21.004 13.9964 20.5732 13.8282 20.2101L10.1923 12.3657ZM8.16662 17.3998L9.53903 14.4023L10.9283 17.3998H8.16662Z" fill="#65DA01"/>
<path d="M18.5639 11.8574H15.0605C14.6603 11.8574 14.3359 12.1818 14.3359 12.582V20.516C14.3359 20.9162 14.6603 21.2406 15.0605 21.2406C15.4608 21.2406 15.7852 20.9162 15.7852 20.516V17.5021H18.5639C20.1201 17.5021 21.3861 16.2361 21.3861 14.6799C21.3862 13.1236 20.1201 11.8574 18.5639 11.8574ZM18.5639 16.0529H15.7852V13.3066H18.5639C19.321 13.3066 19.9368 13.9227 19.9368 14.6798C19.9369 15.437 19.321 16.0529 18.5639 16.0529Z" fill="#65DA01"/>
<path d="M22.6621 11.8574C22.2619 11.8574 21.9375 12.1818 21.9375 12.582V20.516C21.9375 20.9162 22.2619 21.2406 22.6621 21.2406C23.0623 21.2406 23.3867 20.9162 23.3867 20.516V12.582C23.3867 12.1818 23.0622 11.8574 22.6621 11.8574Z" fill="#65DA01"/>
<path d="M41.0594 0H1.30251C0.584259 0 0 0.584482 0 1.30274V30.6947C0 31.4128 0.584259 31.9972 1.30251 31.9972H41.0595C41.7777 31.9972 42.3619 31.4128 42.3619 30.6947V1.30274C42.3618 0.584482 41.7777 0 41.0594 0ZM31.3198 23.7205C31.8952 22.3614 33.2208 21.4831 34.697 21.4831C35.1887 21.4831 35.6692 21.581 36.1254 21.7741C37.9866 22.5625 38.8598 24.718 38.0719 26.5794C37.4959 27.9384 36.1703 28.8165 34.6948 28.8165H34.6947C34.2029 28.8165 33.7225 28.7186 33.2666 28.5254C32.3649 28.1437 31.6657 27.4337 31.298 26.5261C30.9303 25.6185 30.938 24.6221 31.3198 23.7205ZM35.7699 3.71045C36.5328 3.71045 37.1508 4.32882 37.1508 5.09133C37.1508 5.85407 36.5328 6.47222 35.7699 6.47222C35.0075 6.47222 34.3892 5.85407 34.3892 5.09133C34.3892 4.32882 35.0075 3.71045 35.7699 3.71045ZM31.6281 3.71045C32.3905 3.71045 33.0089 4.32882 33.0089 5.09133C33.0089 5.85407 32.3905 6.47222 31.6281 6.47222C30.8657 6.47222 30.2472 5.85407 30.2472 5.09133C30.2472 4.32882 30.8657 3.71045 31.6281 3.71045ZM27.4862 3.71045C28.2486 3.71045 28.8665 4.32882 28.8665 5.09133C28.8665 5.85407 28.2486 6.47222 27.4862 6.47222C26.7233 6.47222 26.1054 5.85407 26.1054 5.09133C26.1055 4.32882 26.7234 3.71045 27.4862 3.71045ZM2.37115 29.8231V10.5834H39.9907V18.083C39.8193 17.8376 39.5808 17.6349 39.2854 17.5097L36.9873 16.5369C36.7828 16.4502 36.5669 16.4063 36.3459 16.4063C35.6819 16.4063 35.0858 16.8009 34.8272 17.4118L34.6875 17.7417C33.6589 17.7561 32.6384 17.9931 31.7079 18.4321L31.4375 18.1972C31.3066 18.0837 31.1589 17.992 30.9992 17.9244C30.7939 17.8376 30.5775 17.7935 30.3558 17.7935C29.8791 17.7935 29.426 18.0006 29.1124 18.3619L27.4769 20.2476C27.1889 20.5805 27.0471 21.005 27.0777 21.4443C27.1094 21.8837 27.31 22.2843 27.6422 22.5719L27.9116 22.8058C27.6045 23.7923 27.5144 24.8324 27.648 25.8541L27.3415 26.0385C26.5633 26.5067 26.3113 27.5214 26.7798 28.3007L27.763 29.9334H2.48151C2.42064 29.9334 2.37115 29.8839 2.37115 29.8231Z" fill="#65DA01"/>
</svg>
