<svg width="36" height="38" viewBox="0 0 36 38" fill="none" xmlns="http://www.w3.org/2000/svg">
<path fill-rule="evenodd" clip-rule="evenodd" d="M18.0936 2.10766e-06H17.9064C16.2891 -5.28321e-05 14.9405 -8.93983e-05 13.8699 0.146343C12.7399 0.300926 11.7197 0.640948 10.8998 1.47506C10.08 2.30917 9.74578 3.34717 9.59384 4.49686C9.49066 5.27768 9.46147 7.14486 9.45322 8.74579C5.81317 8.86675 3.62765 9.29907 2.10883 10.8443C2.14577e-07 12.9899 0 16.4431 0 23.3494C0 30.2557 2.14577e-07 33.709 2.10883 35.8544C4.21765 38 7.61177 38 14.4 38H21.6C28.3882 38 31.7824 38 33.8911 35.8544C36 33.709 36 30.2557 36 23.3494C36 16.4431 36 12.9899 33.8911 10.8443C32.3723 9.29907 30.1869 8.86675 26.5468 8.74579C26.5385 7.14486 26.5093 5.27768 26.4062 4.49686C26.2543 3.34717 25.92 2.30917 25.1001 1.47506C24.2804 0.640948 23.2601 0.300926 22.1301 0.146343C21.0595 -8.93983e-05 19.7109 -5.28321e-05 18.0936 2.10766e-06ZM23.8462 8.70224C23.8381 7.15175 23.8122 5.48312 23.7303 4.8629C23.6185 4.0178 23.4256 3.65613 23.191 3.41747C22.9565 3.17882 22.601 2.98246 21.7703 2.86885C20.9009 2.74992 19.7352 2.74699 18 2.74699C16.2648 2.74699 15.0991 2.74992 14.2297 2.86885C13.3991 2.98246 13.0436 3.17882 12.809 3.41747C12.5744 3.65613 12.3814 4.0178 12.2698 4.8629C12.1878 5.48312 12.1619 7.15175 12.1537 8.70224C12.8583 8.6988 13.6059 8.6988 14.4 8.6988H21.6C22.3942 8.6988 23.1417 8.6988 23.8462 8.70224ZM18 14.6506C18.7456 14.6506 19.35 15.2655 19.35 16.0241V16.0428C21.3098 16.5451 22.95 18.1173 22.95 20.2971C22.95 21.0557 22.3456 21.6706 21.6 21.6706C20.8544 21.6706 20.25 21.0557 20.25 20.2971C20.25 19.5939 19.4836 18.6185 18 18.6185C16.5164 18.6185 15.75 19.5939 15.75 20.2971C15.75 21.0005 16.5164 21.9759 18 21.9759C20.4928 21.9759 22.95 23.7336 22.95 26.4017C22.95 28.5815 21.3098 30.1537 19.35 30.656V30.6747C19.35 31.4332 18.7456 32.0482 18 32.0482C17.2544 32.0482 16.65 31.4332 16.65 30.6747V30.656C14.6902 30.1537 13.05 28.5815 13.05 26.4017C13.05 25.6431 13.6544 25.0282 14.4 25.0282C15.1456 25.0282 15.75 25.6431 15.75 26.4017C15.75 27.1049 16.5164 28.0803 18 28.0803C19.4836 28.0803 20.25 27.1049 20.25 26.4017C20.25 25.6983 19.4836 24.7229 18 24.7229C15.5072 24.7229 13.05 22.9654 13.05 20.2971C13.05 18.1173 14.6902 16.5451 16.65 16.0428V16.0241C16.65 15.2655 17.2544 14.6506 18 14.6506Z" fill="#65DA01"/>
</svg>
