<svg width="107" height="28" viewBox="0 0 107 28" fill="none" xmlns="http://www.w3.org/2000/svg">
<path fill-rule="evenodd" clip-rule="evenodd" d="M71.4546 17.7196C70.3169 17.9632 69.6618 18.4824 69.1428 19.5519C68.5634 20.7464 68.553 21.0674 69.0528 22.3167C69.6776 23.878 71.5254 24.7381 73.2552 24.2723C74.6658 23.8926 74.8876 23.4876 74.2499 22.456C73.7931 21.7167 73.656 21.6366 73.2328 21.863C72.6163 22.1932 71.6773 21.9697 71.4759 21.4449C71.3913 21.2246 71.4983 20.7762 71.7132 20.4479C72.0905 19.8719 72.3004 19.8392 73.4905 20.1699C73.6771 20.2218 74.0449 19.9025 74.3125 19.4566C74.725 18.7687 74.7468 18.6001 74.4601 18.3167C73.9983 17.8605 72.3375 17.5306 71.4546 17.7196ZM34.9387 20.9681V24.2672H37.3371L37.4119 23.2394C37.472 22.4077 37.5788 22.2073 37.9716 22.1891C39.3405 22.1255 39.6171 22.0372 40.1662 21.4879C41.0035 20.6508 40.9894 19.2278 40.1361 18.4256C39.5827 17.9054 39.2469 17.8278 37.2245 17.7533L34.9387 17.6693V20.9681ZM41.2471 20.9917V24.2672H43.6455L43.7333 23.236L43.8212 22.2048L44.2693 23.236L44.7175 24.2672H46.1366C46.9169 24.2672 47.5555 24.2068 47.5555 24.133C47.5555 24.0593 47.2825 23.597 46.9489 23.1062C46.3113 22.1677 46.1786 21.4854 46.585 21.2343C46.8526 21.0688 46.9147 19.4384 46.6769 18.8189C46.395 18.0842 45.2347 17.7162 43.2003 17.7162H41.2471V20.9917ZM49.0838 18.1917C46.9647 19.4837 47.0909 22.7757 49.3039 23.9341C50.3227 24.4674 52.0614 24.4705 53.0732 23.9409C55.2682 22.7915 55.3772 19.5116 53.2636 18.2053C52.2028 17.5497 50.1475 17.5429 49.0838 18.1917ZM55.077 18.808C55.077 19.894 55.0817 19.8998 55.9263 19.8998H56.7755V24.2672H59.2018V19.8998H60.051C60.8956 19.8998 60.9002 19.894 60.9002 18.808V17.7162H55.077V18.808ZM62.6711 18.1917C60.552 19.4837 60.6782 22.7757 62.8912 23.9341C64.0255 24.5278 65.7147 24.4802 66.7752 23.8249C68.8492 22.5431 68.9293 19.4328 66.9198 18.2077C65.8401 17.5495 63.7373 17.5415 62.6711 18.1917ZM76.4038 18.2701C74.766 19.3702 74.5479 21.8639 75.9653 23.2814C77.4971 24.8134 79.935 24.7478 81.4573 23.1341C82.1112 22.4407 82.2517 22.0993 82.2517 21.205C82.2517 18.9752 80.9315 17.7186 78.5874 17.7171C77.5735 17.7164 77.0186 17.8569 76.4038 18.2701ZM82.7369 20.9917V24.2672H87.8321V22.0835H85.4058V17.7162H82.7369V20.9917ZM37.365 19.8998C37.365 20.2652 37.4917 20.3963 37.7896 20.339C38.0233 20.2939 38.2142 20.0964 38.2142 19.8998C38.2142 19.7033 38.0233 19.5058 37.7896 19.4607C37.4917 19.4034 37.365 19.5344 37.365 19.8998ZM43.6734 19.8797C43.6734 20.1777 43.8302 20.3851 44.0551 20.3851C44.2812 20.3851 44.4049 20.2201 44.3584 19.9806C44.2404 19.3719 43.6734 19.2884 43.6734 19.8797ZM50.5156 20.191C50.3555 20.3511 50.2244 20.7114 50.2244 20.9917C50.2244 22.1068 51.5058 22.4894 51.9529 21.5075C52.4523 20.4118 51.3262 19.3804 50.5156 20.191ZM64.0655 20.2504C63.3752 21.0819 64.3271 22.4877 65.2069 21.9362C66.0726 21.3935 65.7613 19.8998 64.7823 19.8998C64.5481 19.8998 64.2254 20.0576 64.0655 20.2504ZM77.8316 20.5253C77.6291 20.9696 77.6206 21.2683 77.8021 21.5565C78.3521 22.4298 79.5827 22.0525 79.5827 21.0106C79.5827 19.8462 78.3026 19.4915 77.8316 20.5253Z" fill="white"/>
<path d="M22.6626 16.4759V13.2004V9.92493H26.0594C28.607 9.92493 29.4562 9.99772 29.4562 10.2161C29.4562 10.3859 28.8739 11.8417 26.9086 16.3546L22.6626 16.4759Z" fill="#F72585"/>
<path d="M11.9142 11.4293C12.4237 10.9926 13.3457 10.4831 13.9523 10.289C14.5589 10.1191 15.2868 9.9493 15.5779 9.9493C16.1117 9.92503 16.136 9.99782 16.136 12.1087C16.136 14.0255 16.0874 14.2924 15.6992 14.2924C15.4809 14.2924 15.0441 14.5107 14.7287 14.7776C14.4375 15.0445 14.1464 15.5298 14.0736 15.8695C13.9523 16.4518 13.9038 16.4761 9.46362 16.4761L9.65773 15.3357C9.75478 14.6806 10.0945 13.7343 10.4099 13.2005C10.7253 12.6668 11.4047 11.8661 11.9142 11.4293Z" fill="#4361EE"/>
<path d="M16.1118 5.68247L19.0962 4.42079C20.7218 3.74143 22.2018 3.15912 22.3717 3.15912C22.6143 3.13485 22.6628 4.54211 22.5415 16.3582L20.4306 16.4067C18.3925 16.4795 18.2955 16.4553 18.1499 15.9215C18.0529 15.6303 17.7617 15.1451 17.4705 14.8296C17.2037 14.5385 16.7669 14.2959 16.5486 14.2959C16.1361 14.2959 16.1118 13.9319 16.1118 5.68247Z" fill="#3A0CA3"/>
<path d="M10.1672 19.2669C9.99732 18.8545 9.75469 18.078 9.65763 17.52L9.48779 16.4767H11.6957C13.9037 16.4767 13.9279 16.4767 14.2433 17.156C14.3889 17.52 14.8985 17.981 16.1116 18.539V22.7851H15.2139C14.7043 22.7851 13.8551 22.5667 13.3214 22.3483C12.7876 22.1057 11.9384 21.4749 11.4288 20.9411C10.9193 20.4316 10.3613 19.6794 10.1672 19.2669Z" fill="#4CC9F0"/>
<path d="M17.8102 17.4036C18.2712 16.6271 18.3198 16.6029 20.4064 16.4816C21.7166 16.4088 22.5658 16.4573 22.6143 16.6029C22.6628 16.7242 22.5173 17.5006 22.2989 18.3013C21.9592 19.4659 21.6195 19.9997 20.6247 20.9702C19.8726 21.7224 18.9991 22.3047 18.4168 22.4988C17.883 22.6444 17.1551 22.79 16.1118 22.79V20.6063C16.1118 18.4711 16.1361 18.4226 16.7184 18.3013C17.0581 18.2285 17.5433 17.8403 17.8102 17.4036Z" fill="#7209B7"/>
<path fill-rule="evenodd" clip-rule="evenodd" d="M34.6958 9.83528V15.2945L39.4878 15.2838C44.4731 15.2726 45.5967 15.0967 46.6257 14.1655C47.6503 13.2384 47.9058 12.3783 47.9126 9.83528C47.9184 7.70208 47.8478 7.28451 47.3286 6.3778C46.2892 4.56317 45.5778 4.3761 39.7144 4.3761H34.6958V9.83528ZM49.4963 9.83528V15.2945H62.3358L61.8981 14.2633L61.4604 13.2321L57.0554 13.1659L52.6504 13.0999V10.6966L56.5932 10.6299L60.5359 10.5632L60.6099 9.41068L60.6839 8.25818H52.6504V6.55977H61.3851V4.3761H49.4963V9.83528ZM37.85 9.83528V13.1108H40.8829C43.5198 13.1108 43.975 13.0516 44.3685 12.658C45.2978 11.7288 45.3019 7.94592 44.3746 7.01859C43.9735 6.61752 43.5341 6.55977 40.8829 6.55977H37.85V9.83528Z" fill="#3A0CA3"/>
<path fill-rule="evenodd" clip-rule="evenodd" d="M74.7709 3.88233L73.2346 4.40229L71.3991 8.58548C70.3898 10.8863 69.4981 12.7058 69.4175 12.6289C69.337 12.552 68.4999 10.7209 67.5573 8.55976L65.8436 4.63085L64.1906 4.5583C62.8738 4.5008 62.5635 4.55321 62.6647 4.81695C62.7345 4.99892 63.8128 7.46307 65.0609 10.2926L67.3299 15.4374L69.5 15.3721L71.6704 15.3066L74.0457 9.3784C75.352 6.11793 76.3954 3.43056 76.3641 3.40629C76.3328 3.38203 75.616 3.59627 74.7709 3.88233ZM80.7959 4.37075C77.7024 5.22917 76.186 7.08287 76.186 10.0056C76.186 11.7118 76.8568 13.2044 78.0746 14.2082C81.2356 16.8138 87.1036 16.1626 89.2152 12.9718C89.9894 11.802 90.2522 9.47909 89.7742 8.03083C88.7867 5.03847 84.5756 3.32161 80.7959 4.37075ZM82.1013 6.69927C79.6801 7.03726 78.4948 9.14838 79.4469 11.4269C79.9785 12.6993 81.0718 13.2425 83.1009 13.2425C85.6527 13.2425 86.6455 12.5226 86.9466 10.454C87.33 7.8212 85.3047 6.25186 82.1013 6.69927Z" fill="#4361EE"/>
</svg>
