<svg width="31" height="30" viewBox="0 0 31 30" fill="none" xmlns="http://www.w3.org/2000/svg">
<path d="M23.6361 8.42375C22.212 7.75862 20.6893 7.27524 19.0973 7C18.9018 7.35285 18.6734 7.82744 18.5159 8.20498C16.8236 7.95093 15.1469 7.95093 13.4857 8.20498C13.3283 7.82744 13.0947 7.35285 12.8974 7C11.3037 7.27524 9.77928 7.7604 8.35518 8.42727C5.48276 12.7602 4.70409 16.9855 5.09342 21.1508C6.99856 22.571 8.84487 23.4337 10.66 23.9983C11.1082 23.3825 11.5079 22.728 11.8522 22.0382C11.1964 21.7895 10.5683 21.4825 9.97482 21.1261C10.1323 21.0097 10.2863 20.8879 10.4351 20.7627C14.055 22.4528 17.9882 22.4528 21.5648 20.7627C21.7154 20.8879 21.8694 21.0097 22.0251 21.1261C21.4299 21.4842 20.8 21.7912 20.1442 22.04C20.4885 22.728 20.8865 23.3843 21.3364 24C23.1533 23.4355 25.0014 22.5728 26.9065 21.1508C27.3633 16.3221 26.1261 12.1356 23.6361 8.42375ZM12.3454 18.5892C11.2587 18.5892 10.3676 17.5765 10.3676 16.3433C10.3676 15.1101 11.2397 14.0957 12.3454 14.0957C13.4511 14.0957 14.3423 15.1083 14.3232 16.3433C14.325 17.5765 13.4511 18.5892 12.3454 18.5892ZM19.6545 18.5892C18.5678 18.5892 17.6767 17.5765 17.6767 16.3433C17.6767 15.1101 18.5488 14.0957 19.6545 14.0957C20.7602 14.0957 21.6514 15.1083 21.6323 16.3433C21.6323 17.5765 20.7602 18.5892 19.6545 18.5892Z" fill="#323B4B"/>
</svg>
