<svg width="26" height="26" viewBox="0 0 26 26" fill="none" xmlns="http://www.w3.org/2000/svg">
<path d="M20.6361 6.42375C19.212 5.75862 17.6893 5.27524 16.0973 5C15.9018 5.35285 15.6734 5.82744 15.5159 6.20498C13.8236 5.95093 12.1469 5.95093 10.4857 6.20498C10.3283 5.82744 10.0947 5.35285 9.89741 5C8.30374 5.27524 6.77928 5.7604 5.35518 6.42727C2.48276 10.7602 1.70409 14.9855 2.09342 19.1508C3.99856 20.571 5.84487 21.4337 7.66003 21.9983C8.1082 21.3825 8.50791 20.728 8.85224 20.0382C8.19644 19.7895 7.56832 19.4825 6.97482 19.1261C7.13227 19.0097 7.28628 18.8879 7.43508 18.7627C11.055 20.4528 14.9882 20.4528 18.5648 18.7627C18.7154 18.8879 18.8694 19.0097 19.0251 19.1261C18.4299 19.4842 17.8 19.7912 17.1442 20.04C17.4885 20.728 17.8865 21.3843 18.3364 22C20.1533 21.4355 22.0014 20.5728 23.9065 19.1508C24.3633 14.3221 23.1261 10.1356 20.6361 6.42375ZM9.34541 16.5892C8.25874 16.5892 7.36759 15.5765 7.36759 14.3433C7.36759 13.1101 8.23972 12.0957 9.34541 12.0957C10.4511 12.0957 11.3423 13.1083 11.3232 14.3433C11.325 15.5765 10.4511 16.5892 9.34541 16.5892ZM16.6545 16.5892C15.5678 16.5892 14.6767 15.5765 14.6767 14.3433C14.6767 13.1101 15.5488 12.0957 16.6545 12.0957C17.7602 12.0957 18.6514 13.1083 18.6323 14.3433C18.6323 15.5765 17.7602 16.5892 16.6545 16.5892Z" fill="#979797"/>
</svg>
