<svg width="254" height="69" viewBox="0 0 254 69" fill="none" xmlns="http://www.w3.org/2000/svg">
<g clip-path="url(#clip0_2425_1859)">
<path fill-rule="evenodd" clip-rule="evenodd" d="M62.0298 9.75998C62.4788 10.3593 62.6286 10.9587 62.6286 11.7078C62.6286 15.004 62.4788 18.3003 62.0298 21.5965C62.0298 21.8961 61.8799 22.3456 61.73 22.7951L31.1649 14.1051L0.749629 22.7951C0.749629 22.3456 0.599803 22.0459 0.599803 21.5965C0.150317 18.3003 0.000488281 15.004 0.000488281 11.7078C0.000488281 10.9587 0.150317 10.3593 0.599803 9.75998C1.04929 9.1607 1.64861 8.86103 2.39775 8.56136C5.69398 7.66241 31.1649 0.320801 31.3147 0.320801C31.4645 0.320801 57.0852 7.66241 60.2316 8.56136C60.9807 8.71123 61.5802 9.01084 62.0298 9.75998ZM1.49878 26.9903C2.39775 31.3353 3.74621 35.5305 5.54415 39.7257L31.3147 32.3841L57.0852 39.7257C58.8831 35.5305 60.2316 31.3353 61.1306 26.9903L31.3147 18.4501L1.49878 26.9903ZM7.4919 43.6213C7.64177 43.921 7.64177 44.0708 7.79157 44.2206C9.73934 47.8165 11.9868 51.2626 14.6837 54.409C15.283 55.1581 15.283 55.1581 15.283 55.1581L31.4645 50.6632L47.646 55.1581C47.646 55.1581 47.646 55.1581 48.2453 54.409C50.7924 51.2626 53.1897 47.8165 55.1375 44.2206C55.2873 44.0708 55.2873 43.7711 55.4371 43.6213L31.6144 36.7292L7.4919 43.6213ZM222.796 32.534H206.615V24.8927H220.848V20.3979H206.615V13.0562H222.646V8.56136H201.67V36.879H222.796V32.534ZM233.584 37.0288H228.639V8.71123H241.224C247.667 8.71123 251.713 12.1573 251.713 17.7009C251.713 22.3456 248.866 25.1923 244.97 26.2412L252.612 36.879H246.768L239.876 26.9903H233.733V37.0288H233.584ZM233.584 22.7951H240.775C244.371 22.7951 246.618 20.9971 246.618 18.0006C246.618 14.8542 244.371 13.206 240.775 13.206H233.584V22.7951ZM145.335 37.0288H140.24L152.676 8.56136H157.321L169.757 37.0288H164.513L161.666 30.1367H148.331L145.335 37.0288ZM150.129 25.7917H159.868L154.924 14.4047L150.129 25.7917ZM18.2796 58.6042C18.4294 58.9038 18.5792 59.0537 18.729 59.2035C19.1786 59.653 19.4782 59.9526 19.9277 60.4021C22.9243 63.2487 26.2205 65.7958 29.8164 68.0432C30.2659 68.3429 30.8652 68.4928 31.3147 68.4928C31.7642 68.4928 32.3635 68.3429 32.813 68.0432C36.4088 65.7958 39.7051 63.3985 42.7017 60.4021C43.1512 59.9526 43.4508 59.653 43.9003 59.2035C44.0501 59.0537 44.1999 58.9038 44.3498 58.6042C44.3498 58.6042 31.6144 55.0083 31.3147 55.0083C31.015 54.8584 18.2796 58.6042 18.2796 58.6042ZM92.5945 37.0288H82.1063V8.71123H92.5945C101.435 8.71123 107.577 14.8542 107.577 22.7951C107.577 30.736 101.435 37.0288 92.5945 37.0288ZM86.9008 32.534H92.4446C98.4381 32.534 102.184 28.4886 102.184 22.945C102.184 17.4013 98.2882 13.3559 92.4446 13.3559H86.9008V32.534ZM194.478 47.6667L203.018 66.3953H200.771L198.524 61.4509H188.335L186.088 66.3953H183.99L192.53 47.6667H194.478ZM197.774 59.653L193.579 50.0639L189.384 59.653H197.774ZM178.147 66.3953H180.244V47.8165H178.147V66.3953ZM203.018 49.7643H209.311V66.5451H211.409V49.7643H217.702V47.8165H203.018V49.7643ZM89.8975 47.6667L98.4381 66.3953H96.1907L93.9433 61.4509H83.7549L81.5075 66.3953H79.41L87.9499 47.6667H89.8975ZM93.0441 59.653L88.8491 50.0639L84.6535 59.653H93.0441ZM179.645 37.0288H174.701V8.71123H185.788C192.38 8.71123 196.576 12.4569 196.576 18.1504C196.576 24.5931 191.482 27.8893 185.338 27.8893H179.795V37.0288H179.645ZM179.645 23.3944H185.488C189.234 23.3944 191.632 21.2968 191.632 18.3003C191.632 15.004 189.234 13.206 185.488 13.206H179.645V23.3944ZM223.695 58.0048H233.883V56.0571H223.695V49.6145H235.082V47.6667H221.597V66.3953H235.232V64.4476H223.695V58.0048ZM246.169 56.0571C242.124 55.1581 241.075 54.2592 241.075 52.4612C241.075 50.8131 242.573 49.4646 245.12 49.4646C247.068 49.4646 248.716 50.0639 250.514 51.5622L251.713 49.9141C249.765 48.4158 247.817 47.6667 245.12 47.6667C241.524 47.6667 238.977 49.7643 238.977 52.7609C238.977 55.9073 240.925 57.2557 245.27 58.1547C249.166 59.0536 250.065 59.9526 250.065 61.7506C250.065 63.6983 248.416 64.8972 245.87 64.8972C243.323 64.8972 241.374 63.998 239.427 62.2002L238.078 63.6983C240.326 65.6459 242.723 66.695 245.72 66.695C249.465 66.695 252.162 64.5975 252.162 61.4509C252.162 58.6042 250.364 56.9561 246.169 56.0571ZM125.108 56.0571C121.062 55.1581 120.013 54.2592 120.013 52.4612C120.013 50.8131 121.511 49.4646 124.058 49.4646C126.007 49.4646 127.655 50.0639 129.452 51.5622L130.651 49.9141C128.703 48.4158 126.755 47.6667 124.058 47.6667C120.463 47.6667 117.916 49.7643 117.916 52.7609C117.916 55.9073 119.863 57.2557 124.208 58.1547C128.104 59.0536 129.003 59.9526 129.003 61.7506C129.003 63.6983 127.355 64.8972 124.808 64.8972C122.261 64.8972 120.313 63.998 118.365 62.2002L117.017 63.6983C119.264 65.6459 121.661 66.695 124.658 66.695C128.404 66.695 131.1 64.5975 131.1 61.4509C131.25 58.6042 129.303 56.9561 125.108 56.0571ZM166.76 64.8972C162.715 64.8972 159.568 61.4509 159.568 57.1059C159.568 52.7609 162.715 49.4646 166.76 49.4646C169.307 49.4646 171.105 50.5134 172.603 52.0117L174.102 50.5134C172.304 48.7155 170.206 47.5168 166.76 47.5168C161.216 47.5168 157.321 51.8619 157.321 57.2557C157.321 62.6498 161.366 66.8449 166.61 66.8449C170.056 66.8449 172.154 65.4961 174.102 63.5484L172.753 62.2002C171.105 63.8481 169.307 64.8972 166.76 64.8972ZM108.327 56.0571C104.281 55.1581 103.233 54.2592 103.233 52.4612C103.233 50.8131 104.731 49.4646 107.278 49.4646C109.225 49.4646 110.874 50.0639 112.672 51.5622L113.87 49.9141C111.922 48.4158 109.975 47.6667 107.278 47.6667C103.682 47.6667 101.135 49.7643 101.135 52.7609C101.135 55.9073 103.083 57.2557 107.428 58.1547C111.324 59.0536 112.222 59.9526 112.222 61.7506C112.222 63.6983 110.574 64.8972 108.027 64.8972C105.48 64.8972 103.532 63.998 101.584 62.2002L100.236 63.6983C102.483 65.6459 104.881 66.695 107.877 66.695C111.623 66.695 114.32 64.5975 114.32 61.4509C114.469 58.6042 112.522 56.9561 108.327 56.0571ZM153.725 57.1059C153.725 62.3501 149.829 66.8449 144.136 66.8449C138.442 66.8449 134.697 62.3501 134.697 57.2557C134.697 52.0117 138.592 47.5168 144.285 47.5168C149.979 47.5168 153.725 51.8619 153.725 57.1059ZM151.627 57.1059C151.627 52.9107 148.481 49.3148 144.285 49.3148C140.09 49.3148 136.944 52.7609 136.944 57.1059C136.944 61.4509 140.09 64.8972 144.285 64.8972C148.481 64.8972 151.627 61.4509 151.627 57.1059ZM137.543 37.0288H131.7L124.808 27.1401H118.665V37.0288H113.721V8.71123H126.306C132.749 8.71123 136.794 12.1573 136.794 17.7009C136.794 22.3456 133.947 25.1923 130.052 26.2412L137.543 37.0288ZM125.857 22.7951C129.452 22.7951 131.7 20.9971 131.7 18.0006C131.7 14.8542 129.452 13.206 125.857 13.206H118.665V22.6453H125.857V22.7951Z" fill="white"/>
</g>
<defs>
<clipPath id="clip0_2425_1859">
<rect width="253.012" height="68.5621" fill="white" transform="translate(0 0.320801)"/>
</clipPath>
</defs>
</svg>
