<svg width="80" height="25" viewBox="0 0 80 25" fill="none" xmlns="http://www.w3.org/2000/svg">
<path d="M41.0667 14.2182C41.1725 14.8956 41.4937 15.4601 42.03 15.9118C42.5733 16.3564 43.3001 16.5787 44.2105 16.5787C44.9232 16.5787 45.5407 16.4693 46.0629 16.2505C46.5922 16.0247 47.0474 15.7284 47.4284 15.3613L48.5504 16.9068C47.9153 17.5419 47.2413 17.9759 46.5287 18.2088C45.823 18.4417 45.0502 18.5581 44.2105 18.5581C43.4484 18.5581 42.7391 18.4311 42.0828 18.1771C41.4266 17.923 40.8585 17.5701 40.3787 17.1186C39.8987 16.6599 39.5213 16.1164 39.2461 15.4884C38.9779 14.8603 38.8438 14.1617 38.8438 13.3925C38.8438 12.6445 38.9673 11.9564 39.2143 11.3284C39.4683 10.6933 39.8212 10.1464 40.2728 9.68774C40.7315 9.222 41.2784 8.86209 41.9135 8.60801C42.5487 8.3469 43.2508 8.21635 44.02 8.21635C44.8174 8.21635 45.5407 8.35394 46.19 8.62922C46.8391 8.89737 47.3931 9.28903 47.8518 9.80412C48.3175 10.3193 48.681 10.9509 48.9421 11.6989C49.2032 12.4399 49.3338 13.2796 49.3338 14.2182H41.0667ZM46.8568 12.2917C46.7438 11.6565 46.4157 11.1485 45.8724 10.7674C45.329 10.3793 44.7115 10.1852 44.02 10.1852C43.3284 10.1852 42.7074 10.3793 42.157 10.7674C41.6065 11.1485 41.2749 11.6565 41.162 12.2917H46.8568ZM57.2375 18.3147H50.6112V16.3458H52.7705V6.48042H50.6112V4.50098H54.9616V16.3458H57.2375V18.3147ZM68.2059 15.3613C68.2059 16.0036 68.0612 16.5258 67.7719 16.928C67.4825 17.3302 67.1086 17.6549 66.6499 17.9018C66.1982 18.1488 65.6901 18.3182 65.1256 18.41C64.5681 18.5088 64.0212 18.5581 63.4849 18.5581C62.5887 18.5581 61.696 18.4276 60.8068 18.1664C59.9176 17.9053 59.1485 17.5631 58.4992 17.1397L59.4096 15.3402C60.1858 15.7918 60.895 16.1129 61.5372 16.3035C62.1864 16.4869 62.8356 16.5787 63.4849 16.5787C64.367 16.5787 65.0091 16.4869 65.4113 16.3035C65.8136 16.1129 66.0148 15.8518 66.0148 15.5201C66.0148 15.3578 65.9583 15.2238 65.8453 15.1179C65.7325 15.0121 65.5454 14.9168 65.2843 14.8321C65.0233 14.7404 64.6775 14.6522 64.247 14.5675C63.8236 14.4758 63.2943 14.3805 62.6592 14.2817C62.1512 14.197 61.6677 14.0947 61.209 13.9747C60.7575 13.8477 60.3587 13.6713 60.0129 13.4454C59.6672 13.2197 59.3884 12.9338 59.1767 12.5881C58.9721 12.2423 58.8697 11.8083 58.8697 11.2861C58.8697 10.7568 59.0037 10.2981 59.272 9.91005C59.5472 9.51487 59.9036 9.19024 60.3411 8.93616C60.7856 8.68209 61.2831 8.49866 61.8336 8.3857C62.384 8.27283 62.9344 8.21635 63.4849 8.21635C64.2611 8.21635 65.0126 8.31866 65.7395 8.52338C66.4734 8.72098 67.1156 9.00672 67.666 9.38079L66.798 11.0744C66.2476 10.7286 65.7112 10.4957 65.1891 10.3758C64.6739 10.2488 64.1059 10.1852 63.4849 10.1852C63.2237 10.1852 62.9521 10.1993 62.6698 10.2276C62.3875 10.2558 62.1264 10.3123 61.8865 10.3969C61.6465 10.4746 61.4454 10.5839 61.2831 10.725C61.1279 10.8591 61.0502 11.025 61.0502 11.2226C61.0502 11.4837 61.2796 11.6989 61.7383 11.8683C62.204 12.0306 62.9944 12.1929 64.1094 12.3552C64.7162 12.4399 65.2702 12.5492 65.7712 12.6833C66.2723 12.8103 66.7027 12.9868 67.0626 13.2126C67.4225 13.4313 67.7013 13.7172 67.8988 14.07C68.1036 14.4158 68.2059 14.8463 68.2059 15.3613ZM69.7466 15.4778C69.7466 14.8991 69.9019 14.3946 70.2124 13.9641C70.5229 13.5266 70.9287 13.1632 71.4297 12.8738C71.9377 12.5845 72.5164 12.3693 73.1657 12.2282C73.8219 12.08 74.4888 12.0059 75.1662 12.0059C75.5402 12.0059 75.8613 12.0129 76.1295 12.0271C76.3976 12.0412 76.6694 12.0624 76.9446 12.0905V11.6989C76.9446 11.1838 76.7435 10.7991 76.3413 10.5451C75.9461 10.2911 75.4238 10.164 74.7746 10.164C74.1818 10.164 73.5785 10.2488 72.9646 10.4181C72.3506 10.5804 71.7684 10.8203 71.218 11.1379L70.3288 9.42311C70.978 9.04912 71.6731 8.75625 72.4141 8.5445C73.1622 8.32579 73.9489 8.21635 74.7746 8.21635C75.3109 8.21635 75.8366 8.27635 76.3518 8.39635C76.874 8.51625 77.3398 8.71385 77.749 8.98912C78.1654 9.26431 78.4971 9.62422 78.744 10.0688C78.9911 10.5063 79.1146 11.0497 79.1146 11.6989V18.3147H76.9446V16.8645C76.5987 17.4008 76.0872 17.8172 75.4097 18.1136C74.7393 18.41 74.016 18.5581 73.2398 18.5581C72.7599 18.5581 72.3048 18.4911 71.8743 18.357C71.4509 18.23 71.0839 18.0359 70.7734 17.7748C70.4629 17.5138 70.2124 17.1926 70.0219 16.8115C69.8384 16.4235 69.7466 15.9788 69.7466 15.4778ZM73.8008 16.5999C74.2312 16.5999 74.6335 16.5469 75.0075 16.4411C75.3886 16.3282 75.7238 16.1764 76.0131 15.9859C76.3024 15.7883 76.5282 15.5519 76.6905 15.2767C76.8599 15.0015 76.9446 14.698 76.9446 14.3663V13.9959C76.5987 13.9394 76.2742 13.9076 75.9707 13.9006C75.6673 13.8936 75.3991 13.89 75.1662 13.89C74.0937 13.89 73.2821 14.0312 72.7316 14.3135C72.1883 14.5957 71.9166 14.9451 71.9166 15.3613C71.9166 16.187 72.5447 16.5999 73.8008 16.5999Z" fill="#8A94A6"/>
<path d="M33.3384 13.0852C33.3384 15.2482 32.4374 17.2169 30.9917 18.3272C31.031 18.1749 31.0654 18.0205 31.0987 17.8624V17.8585C31.1144 17.7813 31.1281 17.7022 31.1419 17.6231C31.1556 17.5421 31.1694 17.461 31.1812 17.38C31.193 17.2989 31.2047 17.2159 31.2145 17.1329C31.2243 17.0655 31.2322 17 31.2381 16.9308C31.2479 16.8477 31.2557 16.7648 31.2617 16.6778C31.2715 16.5753 31.2773 16.4699 31.2832 16.3634C31.2892 16.2423 31.295 16.13 31.299 16.0206C31.3029 15.9142 31.3048 15.8107 31.3048 15.714V15.548C31.3088 15.1838 31.3127 14.6125 31.2813 13.8976C31.2774 13.8303 31.2754 13.761 31.2715 13.6897C31.2676 13.6184 31.2636 13.5471 31.2597 13.4738C31.2518 13.3469 31.244 13.217 31.2322 13.0842C31.2283 13.0344 31.2243 12.9856 31.2205 12.9338C31.2106 12.8186 31.2008 12.7004 31.189 12.5794C31.1635 12.3187 31.133 12.0491 31.0958 11.7738C31.0722 11.6019 31.0467 11.4271 31.0182 11.2493C30.977 10.9778 30.9269 10.7035 30.8701 10.4222C30.8505 10.3294 30.8308 10.2347 30.8102 10.139C30.7886 10.0385 30.767 9.93495 30.7425 9.83431C30.7229 9.75523 30.7032 9.67421 30.6836 9.5931C30.66 9.48866 30.6316 9.38319 30.6021 9.27866C30.5766 9.18199 30.5511 9.0844 30.5226 8.98773C30.4892 8.86273 30.4509 8.73671 30.4097 8.60977C30.3901 8.54042 30.3685 8.47116 30.344 8.40181C30.3126 8.30319 30.2802 8.20551 30.2468 8.1069C30.2134 8.01023 30.1771 7.9106 30.1418 7.81199C30.0741 7.62153 30.0015 7.43208 29.9219 7.24171C29.92 7.23579 29.918 7.22995 29.9141 7.22412C31.931 8.02977 33.3365 10.3822 33.3365 13.0852H33.3384Z" fill="#8A94A6"/>
<path d="M3.68047 7.13184C3.63141 7.23822 3.58135 7.34563 3.53424 7.45211C3.43707 7.666 3.3458 7.8798 3.26531 8.09369C3.22802 8.18647 3.19171 8.27924 3.15638 8.37295C3.1446 8.40035 3.13479 8.43063 3.12497 8.45795C3.0916 8.54878 3.05725 8.64156 3.02584 8.73332C2.98855 8.8398 2.95223 8.94721 2.9169 9.0536C2.80992 9.37193 2.71472 9.68637 2.6313 9.99989C2.60185 10.1024 2.57339 10.2079 2.54787 10.3104C2.52235 10.4129 2.49683 10.5165 2.4723 10.617C2.44678 10.7196 2.42322 10.8211 2.40065 10.9217C2.36924 11.0565 2.34079 11.1903 2.31527 11.323C2.30742 11.3524 2.30153 11.3827 2.2976 11.4119C2.27012 11.5447 2.24656 11.6766 2.22203 11.8074C2.18866 11.9998 2.15627 12.1892 2.12879 12.3738C2.02966 13.0213 1.96881 13.6189 1.93053 14.1453C1.91876 14.28 1.91091 14.4099 1.90502 14.5368C1.90306 14.5504 1.90306 14.5642 1.90306 14.5788C1.89913 14.6364 1.89717 14.6911 1.8952 14.7448C1.89128 14.8337 1.88735 14.9186 1.88539 14.9997C1.88146 15.1325 1.87754 15.2565 1.87754 15.3717C1.87361 15.4909 1.87361 15.5992 1.87361 15.6979C1.87361 15.7966 1.87361 15.902 1.8795 16.0123C1.88146 16.066 1.88343 16.1227 1.88539 16.1803C1.88539 16.2399 1.89128 16.2994 1.89324 16.3619C1.90109 16.5104 1.91287 16.6568 1.9266 16.8014C1.93053 16.8443 1.93445 16.8883 1.94034 16.9322C1.94819 17.0172 1.95801 17.1002 1.96979 17.1812C1.99334 17.3697 2.02082 17.5553 2.05714 17.7349C2.07088 17.8081 2.08462 17.8794 2.10032 17.9507C2.11406 18.022 2.12977 18.0933 2.14744 18.1627C0.822463 17.025 0 15.1237 0 13.0857C0 10.2684 1.54481 7.83008 3.68047 7.13184Z" fill="#8A94A6"/>
<path d="M16.7246 24.9981C16.6882 24.9981 16.6588 24.9981 16.6382 24.9981H16.5499C16.4478 24.9981 15.9178 25.001 15.1179 24.9482C14.319 24.8956 13.0804 24.7764 11.7142 24.5049C9.31553 24.0283 6.05414 22.9806 4.14225 20.6974C3.61914 20.1252 3.2236 19.4905 2.96842 18.8108L2.96352 18.7971C2.90954 18.6545 2.86046 18.5071 2.81531 18.3469C2.70736 17.9582 2.6259 17.5599 2.56799 17.1263C2.5356 16.8773 2.51106 16.6175 2.49438 16.3324C2.48162 16.0794 2.47671 15.8842 2.47671 15.6956C2.47279 14.7641 2.54345 12.8794 3.06068 10.7261C3.11074 10.5231 3.16472 10.3081 3.22556 10.0914L3.22851 10.0817C3.3826 9.52602 3.56123 8.98306 3.76046 8.46546C3.85468 8.22333 3.94203 8.00944 4.02939 7.80926C4.11869 7.60806 4.2139 7.40204 4.33069 7.15889L4.37486 7.07194C4.41608 6.99 4.45632 6.91185 4.49852 6.83083L4.50244 6.82296C6.88543 2.29581 11.0871 0 16.9905 0C19.931 0 22.4465 0.581028 24.4673 1.72649C26.4852 2.87098 28.0438 4.59748 29.1008 6.85815L29.1077 6.8738C29.4512 7.60713 29.7476 8.42157 29.989 9.29361C30.7359 12.0161 30.7163 14.5736 30.7084 15.5375V15.7094C30.7065 15.9232 30.6996 16.1194 30.6868 16.3284V16.3353C30.676 16.5179 30.6623 16.6956 30.6456 16.8636C30.5897 17.3919 30.4993 17.8743 30.3698 18.342L30.3443 18.428C30.3354 18.4661 30.3217 18.51 30.3051 18.5549C30.2884 18.6106 30.2667 18.6751 30.2383 18.7503L30.2255 18.7864C30.2118 18.8206 30.2059 18.8352 30.202 18.8459C30.1941 18.8674 30.1892 18.882 30.1775 18.9104L30.1755 18.9143C29.9223 19.5519 29.5376 20.1555 29.033 20.7072C27.124 22.9874 23.8657 24.0322 21.469 24.5079C20.1038 24.7783 18.8661 24.8975 18.0672 24.9502C17.4047 24.9931 16.9356 25 16.7246 25V24.9981ZM16.65 24.2246C16.754 24.2256 17.2565 24.2266 18.0152 24.1768C18.7905 24.126 19.9918 24.0107 21.3158 23.7481C23.5899 23.2969 26.6707 22.3175 28.4344 20.2121L28.4569 20.1867C28.8996 19.7044 29.2342 19.179 29.4531 18.6272L29.4571 18.6184C29.4649 18.5998 29.4669 18.594 29.4708 18.5843C29.4787 18.5618 29.4865 18.5432 29.4983 18.513C29.5013 18.5042 29.5062 18.4915 29.5111 18.4778C29.5287 18.4299 29.5474 18.3792 29.5611 18.3313L29.5788 18.2806C29.5827 18.2707 29.5856 18.263 29.5866 18.2561L29.6112 18.1682C29.614 18.1584 29.618 18.1448 29.6219 18.1311C29.7397 17.7073 29.8212 17.2669 29.8722 16.7845C29.8879 16.6273 29.9016 16.4594 29.9105 16.2874V16.2747C29.9223 16.0863 29.9291 15.9027 29.9311 15.7055V15.5365C29.939 14.5991 29.9586 12.1187 29.2391 9.49861C29.0115 8.67639 28.7337 7.90981 28.4127 7.22139L28.4029 7.19991C27.4146 5.07988 25.9611 3.4647 24.0826 2.39932C22.1805 1.32124 19.7936 0.77438 16.9905 0.77438C11.3963 0.77438 7.42423 2.9325 5.18653 7.19019L5.18162 7.19898C5.14236 7.27315 5.10604 7.34537 5.06678 7.42157L5.02556 7.50167C4.91565 7.72917 4.82437 7.92741 4.73898 8.1188C4.65654 8.30731 4.57213 8.51241 4.48282 8.74278C4.29242 9.23889 4.11967 9.76231 3.97148 10.2974L3.96854 10.3072C3.91161 10.5113 3.86057 10.7173 3.81248 10.9088C3.31488 12.98 3.24716 14.7953 3.2501 15.6928C3.2501 15.8715 3.25501 16.055 3.26678 16.2914C3.28249 16.555 3.30408 16.7962 3.33451 17.0247C3.38751 17.4221 3.4621 17.7864 3.56025 18.139C3.59951 18.2776 3.64171 18.4056 3.68881 18.5286L3.69176 18.5374C3.91259 19.1252 4.2561 19.6769 4.71346 20.1769L4.73015 20.1955C6.50367 22.3126 9.58738 23.295 11.8634 23.7471C13.1884 24.0107 14.3906 24.126 15.166 24.1778C15.9266 24.2276 16.4291 24.2266 16.5322 24.2256H16.648L16.65 24.2246ZM29.7122 18.5891L29.8664 18.635L29.6091 18.5491L29.7122 18.5891Z" fill="#8A94A6"/>
<path d="M2.56101 17.1253C2.61695 17.5531 2.69743 17.9563 2.80637 18.346H2.80833C2.6994 17.9563 2.61794 17.5531 2.56101 17.1253ZM2.54727 13.8725C2.55119 13.8335 2.55512 13.7954 2.55905 13.7534C2.56297 13.7016 2.56886 13.6489 2.57279 13.5972C2.56297 13.6919 2.55512 13.7827 2.54727 13.8725ZM2.47464 15.2221C2.48053 14.9389 2.49427 14.6069 2.51979 14.2368C2.49034 14.6323 2.47856 14.9848 2.47268 15.2817V15.3314C2.46875 15.4643 2.46875 15.5863 2.46875 15.6957C2.46875 15.89 2.47464 16.0893 2.48838 16.3314C2.4766 16.0902 2.47071 15.89 2.47071 15.6957C2.47071 15.6069 2.47071 15.5122 2.47268 15.4067C2.47268 15.3471 2.47464 15.2856 2.47464 15.2221ZM2.47268 15.2817V15.4067C2.47268 15.3471 2.47464 15.2856 2.47464 15.2221C2.47464 15.2416 2.47464 15.2622 2.47268 15.2817Z" fill="#8A94A6"/>
<path d="M27.4341 12.4522C27.3458 12.0363 26.9532 11.758 26.5292 11.8127H26.5213C25.2494 11.9182 24.0834 11.9298 23.0136 11.8244C21.9222 11.6642 20.5815 10.9758 19.4107 10.2453C17.7216 9.19558 15.5898 9.19558 13.9008 10.2453C12.7298 10.9738 11.3892 11.6622 10.2978 11.8224C9.229 11.9279 8.06299 11.9161 6.794 11.8107H6.78613C6.3641 11.7531 5.96956 12.0324 5.88021 12.4503C5.55342 13.9913 5.22267 15.5372 5.2266 17.0263C5.2266 17.1953 5.23249 17.3613 5.2423 17.5272C5.27469 18.0693 5.35418 18.6034 5.50435 19.1259C5.71826 19.8641 6.104 20.494 6.61141 21.0301C9.57641 24.4625 16.3191 24.4294 16.6577 24.4118C16.9962 24.4294 23.7389 24.4625 26.7039 21.0301C27.2084 20.494 27.5971 19.8641 27.8109 19.1259C27.9611 18.6034 28.0407 18.0673 28.0721 17.5253C28.0819 17.3633 28.0877 17.2011 28.0877 17.039C28.0936 15.5469 27.7629 13.9972 27.4341 12.4522ZM10.3243 17.7812C9.46058 17.7812 8.75984 17.082 8.75984 16.2178C8.75984 15.3535 9.46058 14.6544 10.3243 14.6544C11.188 14.6544 11.8887 15.3526 11.8887 16.2178C11.8887 17.083 11.188 17.7812 10.3243 17.7812ZM16.4309 21.9714C14.2285 21.9099 14.5456 19.4491 14.5456 19.4491L18.6137 19.4393C18.6137 19.4393 18.9101 22.0388 16.4309 21.9714ZM22.9135 17.7812C22.0498 17.7812 21.349 17.082 21.349 16.2178C21.349 15.3535 22.0498 14.6544 22.9135 14.6544C23.7772 14.6544 24.4779 15.3526 24.4779 16.2178C24.4779 17.083 23.7772 17.7812 22.9135 17.7812Z" fill="#8A94A6"/>
<path d="M17.649 5.47163C17.649 6.09174 17.1435 6.59461 16.5203 6.59461C15.897 6.59461 15.3906 6.09174 15.3906 5.47163C15.3906 4.85154 15.8961 4.34766 16.5203 4.34766C17.1445 4.34766 17.649 4.85056 17.649 5.47163Z" fill="#8A94A6"/>
<path d="M16.5189 2.66211C14.9594 2.66211 13.6953 3.91987 13.6953 5.47156C13.6953 7.02325 14.9594 8.28001 16.5189 8.28001C18.0785 8.28001 19.3416 7.02232 19.3416 5.47156C19.3416 3.92084 18.0775 2.66211 16.5189 2.66211ZM16.5189 7.43732C15.4275 7.43732 14.5423 6.55741 14.5423 5.47156C14.5423 4.38567 15.4275 3.50485 16.5189 3.50485C17.6103 3.50485 18.4947 4.38567 18.4947 5.47156C18.4947 6.55741 17.6103 7.43732 16.5189 7.43732Z" fill="#8A94A6"/>
<path d="M17.649 5.47163C17.649 6.09174 17.1435 6.59461 16.5203 6.59461C15.897 6.59461 15.3906 6.09174 15.3906 5.47163C15.3906 4.85154 15.8961 4.34766 16.5203 4.34766C17.1445 4.34766 17.649 4.85056 17.649 5.47163Z" fill="#8A94A6"/>
</svg>
