<svg width="48" height="48" viewBox="0 0 48 48" fill="none" xmlns="http://www.w3.org/2000/svg">
<path opacity="0.5" d="M0 15C0 6.71573 6.71573 0 15 0H33C41.2843 0 48 6.71573 48 15V33C48 41.2843 41.2843 48 33 48H15C6.71573 48 0 41.2843 0 33V15Z" fill="#30473A"/>
<path d="M16.125 18.5469V19.9336M21.6719 18.5469V19.9336M27.2188 18.5469V19.9336M32.7656 18.5469V19.9336M28.6055 35.1875L32.7656 31.0273H35.5391C36.2746 31.0273 36.9801 30.7351 37.5002 30.215C38.0203 29.6949 38.3125 28.9895 38.3125 28.2539V15.7734C38.3125 15.0379 38.0203 14.3324 37.5002 13.8123C36.9801 13.2922 36.2746 13 35.5391 13H13.3516C12.616 13 11.9106 13.2922 11.3904 13.8123C10.8703 14.3324 10.5781 15.0379 10.5781 15.7734V28.2539C10.5781 28.9895 10.8703 29.6949 11.3904 30.215C11.9106 30.7351 12.616 31.0273 13.3516 31.0273H16.125L20.2852 35.1875H28.6055Z" stroke="#78FE05" stroke-width="2.88889" stroke-linecap="round" stroke-linejoin="round"/>
</svg>
