<svg width="48" height="48" viewBox="0 0 48 48" fill="none" xmlns="http://www.w3.org/2000/svg">
<path opacity="0.5" d="M0 15C0 6.71573 6.71573 0 15 0H33C41.2843 0 48 6.71573 48 15V33C48 41.2843 41.2843 48 33 48H15C6.71573 48 0 41.2843 0 33V15Z" fill="#30473A"/>
<path fill-rule="evenodd" clip-rule="evenodd" d="M23.9922 8.00293C24.3178 8.00293 24.7552 8.01609 24.9624 8.03254C25.1696 8.05228 25.4821 8.08189 25.6531 8.09834C25.8241 8.11479 26.13 8.15427 26.3273 8.1806C26.5246 8.20692 26.8075 8.25298 26.9522 8.2793C27.0969 8.30562 27.3929 8.36484 27.6099 8.4109C27.827 8.45367 28.0408 8.50632 28.0868 8.52277C28.1329 8.54251 28.2348 8.57212 28.317 8.59186C28.3993 8.6116 28.613 8.67411 28.7939 8.72675C28.9748 8.78268 29.2478 8.87152 29.4024 8.92745C29.5569 8.98009 29.8069 9.0755 29.9615 9.13802C30.1161 9.19724 30.3364 9.28607 30.4548 9.33542C30.5732 9.38477 30.9284 9.55257 31.2441 9.71378C31.5599 9.87171 31.9085 10.0527 32.017 10.1185C32.1255 10.181 32.2966 10.283 32.3952 10.3422C32.4906 10.4014 32.7504 10.5692 32.9708 10.7107C33.1878 10.8555 33.4707 11.0529 33.5957 11.1483C33.7206 11.2437 33.8555 11.3457 33.8917 11.372C33.9278 11.3983 34.1054 11.5431 34.2863 11.6944C34.4672 11.8425 34.7994 12.1353 35.0263 12.3459C35.2532 12.5531 35.6084 12.9085 35.8156 13.1355C36.0228 13.3592 36.3123 13.6882 36.457 13.8626C36.6017 14.037 36.8319 14.3331 36.9733 14.5206C37.1114 14.7049 37.3055 14.978 37.4042 15.1227C37.5028 15.2675 37.7199 15.6162 37.8876 15.8959C38.0521 16.1755 38.3119 16.6493 38.4599 16.9487C38.6079 17.2481 38.8282 17.7351 38.9466 18.0345C39.0683 18.3339 39.2393 18.7978 39.3314 19.0708C39.4202 19.3406 39.5419 19.742 39.5978 19.9592C39.6537 20.1763 39.7491 20.5974 39.8116 20.8968C39.8741 21.1962 39.9464 21.6305 39.976 21.8674C40.0024 22.101 40.0418 22.3906 40.0615 22.509C40.0813 22.6274 40.1043 23.1901 40.1142 23.7592C40.124 24.3547 40.1175 24.97 40.0977 25.2069C40.078 25.4339 40.0385 25.8188 40.0089 26.0623C39.9793 26.3058 39.9366 26.6315 39.9103 26.7861C39.884 26.9408 39.8182 27.2731 39.7656 27.5264C39.7096 27.7797 39.6208 28.1417 39.5682 28.3325C39.5156 28.5233 39.4432 28.7734 39.4071 28.8918C39.3709 29.0102 39.2887 29.2537 39.2262 29.4347C39.1604 29.6156 39.0782 29.8459 39.0387 29.9446C38.9992 30.0433 38.9466 30.1684 38.9236 30.2243C38.8973 30.2802 38.848 30.3954 38.8118 30.4875C38.7789 30.5763 38.6638 30.8297 38.5585 31.0468C38.4533 31.264 38.302 31.5601 38.2231 31.7048C38.1441 31.8496 38.0455 32.0273 38.0027 32.0997C37.9633 32.172 37.8547 32.3497 37.7659 32.4945C37.6771 32.6392 37.5226 32.8827 37.4206 33.0373C37.3186 33.192 37.1542 33.4289 37.0522 33.5638C36.9536 33.6986 36.8483 33.8401 36.8187 33.8763C36.7924 33.9125 36.6411 34.0968 36.4833 34.2876C36.3254 34.4784 36.0853 34.7581 35.9505 34.9094C35.8123 35.064 35.5887 35.3009 35.4539 35.4358C35.319 35.574 35.0658 35.8142 34.8948 35.9688C34.7237 36.1235 34.4409 36.3669 34.2699 36.5117C34.0989 36.6564 33.816 36.8769 33.645 37.0052C33.474 37.1302 33.2207 37.3079 33.0859 37.4C32.951 37.4921 32.7142 37.6468 32.5597 37.7422C32.4051 37.8409 32.1913 37.9692 32.0828 38.0317C31.9743 38.0942 31.6947 38.2456 31.4579 38.3673C31.2211 38.489 30.8462 38.6733 30.6192 38.772C30.3923 38.874 30.0338 39.0253 29.8201 39.1076C29.6096 39.1898 29.4155 39.2556 29.3925 39.2556C29.3695 39.2556 29.3366 39.2688 29.3201 39.2852C29.3004 39.3017 29.1557 39.3576 28.9913 39.4037C28.8268 39.453 28.5177 39.5419 28.3006 39.6044C28.0835 39.6636 27.7875 39.7393 27.6428 39.7656C27.4981 39.7952 27.3337 39.8347 27.2811 39.8511C27.2284 39.8676 26.939 39.9169 26.6397 39.963C26.3404 40.0091 25.8668 40.0716 25.5873 40.1012C25.2058 40.1473 24.821 40.1604 24.0415 40.1571C23.2983 40.1571 22.8707 40.1407 22.5287 40.1045C22.2656 40.0716 21.8512 40.0189 21.6078 39.9827C21.3644 39.9466 21.098 39.9038 21.0158 39.884C20.9336 39.8676 20.7198 39.8248 20.5389 39.7853C20.358 39.7459 20.0982 39.6833 19.9634 39.6472C19.8285 39.611 19.5457 39.5287 19.3385 39.4629C19.1313 39.4004 18.8353 39.305 18.6807 39.2523C18.5261 39.1964 18.3189 39.1174 18.2203 39.0747C18.1216 39.0286 18.0295 38.9924 18.0164 38.9924C17.9999 38.9924 17.9276 38.9628 17.8519 38.9299C17.773 38.8937 17.5559 38.7983 17.3652 38.7128C17.1744 38.6272 16.8357 38.4627 16.6087 38.341C16.3818 38.2225 16.0134 38.0153 15.7865 37.8804C15.5596 37.7455 15.211 37.5217 15.0136 37.3869C14.8163 37.252 14.5039 37.0282 14.323 36.89C14.1421 36.7552 13.8461 36.5183 13.6652 36.3636C13.4843 36.209 13.0535 35.801 12.7081 35.4589C12.3628 35.1134 11.9484 34.6758 11.7873 34.485C11.6261 34.2942 11.4617 34.0935 11.4222 34.0408C11.3827 33.9849 11.2479 33.8072 11.1262 33.6394C11.0045 33.4716 10.8401 33.2446 10.7611 33.1295C10.6855 33.0143 10.5342 32.7906 10.4323 32.6261C10.327 32.4616 10.1363 32.1391 10.0047 31.9022C9.87643 31.6654 9.66924 31.2607 9.54097 30.9975C9.41599 30.7343 9.22524 30.2967 9.11671 30.0269C9.00818 29.7538 8.87333 29.3853 8.81413 29.2044C8.75493 29.0234 8.67929 28.7799 8.64311 28.6615C8.60694 28.5431 8.54116 28.3062 8.49512 28.1351C8.45236 27.964 8.37014 27.6087 8.31752 27.3455C8.2649 27.0822 8.19912 26.7269 8.17281 26.5558C8.1465 26.3847 8.09387 25.9307 8.05441 25.5523C7.99521 24.9601 7.98863 24.7232 8.00179 23.8908C8.01165 23.3578 8.04125 22.7064 8.07085 22.4432C8.09716 22.18 8.13663 21.8543 8.15965 21.7194C8.17939 21.5845 8.23858 21.2423 8.2945 20.9627C8.34712 20.683 8.45236 20.229 8.52471 19.9592C8.59707 19.6861 8.71876 19.2715 8.79769 19.0379C8.87991 18.8011 8.98844 18.4918 9.04107 18.347C9.09369 18.2023 9.17591 17.995 9.22195 17.8864C9.27129 17.7778 9.32391 17.6594 9.34035 17.6232C9.3568 17.587 9.47848 17.3271 9.61333 17.0474C9.74817 16.7678 9.93563 16.4059 10.0277 16.2414C10.1198 16.0768 10.1955 15.942 10.1955 15.9354C10.1955 15.9321 10.2908 15.7774 10.4092 15.5899C10.5276 15.4057 10.6954 15.1523 10.7809 15.0306C10.8664 14.9056 11.0308 14.6753 11.1492 14.5173C11.2676 14.3594 11.409 14.1752 11.4617 14.1061C11.5143 14.037 11.6919 13.8198 11.853 13.629C12.0175 13.4382 12.3924 13.0368 12.6917 12.7374C12.9943 12.438 13.3856 12.0662 13.5665 11.9116C13.7474 11.7569 14.073 11.4937 14.2901 11.3292C14.5071 11.1647 14.7012 11.0167 14.7176 11.0002C14.7341 10.9871 14.9446 10.8489 15.1781 10.6909C15.4116 10.5363 15.7339 10.3323 15.895 10.2402C16.0529 10.1481 16.1976 10.0724 16.2141 10.0724C16.2305 10.0724 16.2502 10.0592 16.2568 10.0461C16.2601 10.0296 16.5298 9.88487 16.8554 9.72365C17.181 9.55915 17.5296 9.39135 17.6283 9.35187C17.7269 9.3091 17.9341 9.22356 18.0887 9.16105C18.2433 9.09853 18.434 9.02615 18.5163 8.99983C18.5985 8.97022 18.7399 8.92087 18.8287 8.88797C18.9208 8.85178 19.1411 8.78268 19.322 8.72675C19.5029 8.67411 19.7627 8.59844 19.8976 8.55896C20.0324 8.51948 20.3153 8.45038 20.5225 8.40761C20.7297 8.36155 21.0191 8.30562 21.1638 8.2793C21.3085 8.25298 21.5913 8.20692 21.7887 8.1806C21.986 8.15098 22.2984 8.11479 22.4793 8.09834C22.6602 8.0786 22.9398 8.05228 23.1042 8.03583C23.2687 8.02267 23.6666 8.00622 23.9922 8.00293ZM22.0682 10.6646C21.6801 10.7206 21.3545 10.7732 21.3447 10.7798C21.3348 10.7864 21.1802 10.8225 20.9993 10.862C20.8185 10.9015 20.529 10.9739 20.358 11.0265C20.187 11.0759 19.9206 11.1581 19.766 11.2075C19.6114 11.2568 19.3746 11.3424 19.2398 11.395C19.105 11.4477 18.8747 11.5398 18.73 11.6023C18.5853 11.6648 18.3123 11.7898 18.1216 11.882C17.9308 11.9774 17.6118 12.1419 17.4145 12.2537C17.2172 12.3623 16.8587 12.5795 16.6252 12.7341C16.3917 12.8887 16.0562 13.1223 15.8852 13.2506C15.7142 13.3823 15.3886 13.6487 15.1616 13.8462C14.9347 14.0436 14.6321 14.3232 14.4841 14.4647C14.3361 14.6095 14.1059 14.8529 13.9743 15.0076C13.8395 15.1622 13.6192 15.4221 13.4843 15.5866C13.3495 15.7544 13.1488 16.0143 13.037 16.1624C12.9285 16.3137 12.7673 16.5506 12.6785 16.6855C12.593 16.8204 12.4319 17.0803 12.3266 17.2613C12.2181 17.4422 12.0142 17.8272 11.8728 18.1167C11.7313 18.4062 11.5636 18.7682 11.5011 18.9228C11.4386 19.0774 11.3531 19.2913 11.3137 19.3999C11.2742 19.5084 11.1953 19.7453 11.1328 19.9263C11.0736 20.1072 10.9782 20.4329 10.9223 20.6501C10.8664 20.8672 10.7776 21.2653 10.725 21.5384C10.669 21.8082 10.6033 22.2458 10.577 22.509C10.5507 22.7722 10.5112 23.246 10.4882 23.5618C10.4586 24.0422 10.4619 24.256 10.5046 24.8614C10.5342 25.2595 10.5802 25.7563 10.6098 25.9636C10.6362 26.1709 10.6954 26.5196 10.7414 26.7368C10.7842 26.9539 10.8664 27.3093 10.9223 27.5264C10.9782 27.7436 11.09 28.1219 11.1722 28.3654C11.2512 28.6089 11.386 28.9806 11.4715 29.1879C11.5538 29.3952 11.6853 29.6946 11.7642 29.8525C11.8432 30.0137 11.9057 30.1486 11.9057 30.1585C11.9057 30.1684 11.9879 30.3263 12.0931 30.5105C12.1951 30.6981 12.2937 30.879 12.3135 30.9152C12.3332 30.9547 12.4154 31.0896 12.4977 31.2212C12.5799 31.3528 12.7476 31.6061 12.8693 31.7805C12.991 31.9549 13.1192 32.1358 13.1488 32.1786C13.1784 32.2214 13.3166 32.3925 13.4514 32.5603C13.5863 32.7248 13.7836 32.965 13.8888 33.09C13.9908 33.215 14.2506 33.4881 14.4644 33.6986C14.6749 33.9059 15.0038 34.2086 15.1945 34.3731C15.3853 34.5343 15.6155 34.7285 15.7043 34.8008C15.7964 34.8732 16.0167 35.0344 16.1976 35.1627C16.3785 35.2878 16.6515 35.472 16.8061 35.5707C16.9573 35.6694 17.1284 35.778 17.1843 35.8076C17.2369 35.8405 17.4605 35.9622 17.6776 36.0774C17.8947 36.1958 18.1841 36.3406 18.3189 36.4031C18.4538 36.4656 18.6675 36.561 18.7958 36.617C18.9241 36.6696 19.0852 36.7354 19.1576 36.7584C19.2299 36.7815 19.3056 36.8111 19.322 36.8242C19.3385 36.8341 19.5391 36.9065 19.766 36.9789C19.993 37.0513 20.2791 37.1434 20.4074 37.1796C20.5356 37.2158 20.779 37.2783 20.95 37.3178C21.121 37.3572 21.3644 37.4066 21.4927 37.4329C21.6209 37.4592 21.8939 37.502 22.1011 37.5316C22.3083 37.5612 22.5747 37.5974 22.6931 37.6139C22.8115 37.627 23.2555 37.6501 23.6798 37.6632C24.1731 37.6764 24.6434 37.6698 24.9789 37.6468C25.2683 37.627 25.6169 37.5941 25.7517 37.5711C25.8866 37.5514 26.199 37.502 26.4424 37.4592C26.6858 37.4198 27.041 37.3474 27.2317 37.3046C27.4225 37.2585 27.6593 37.196 27.7579 37.1664C27.8566 37.1368 28.1033 37.0578 28.3006 36.9953C28.4979 36.9295 28.8334 36.8111 29.0406 36.7288C29.2478 36.6499 29.6425 36.4755 29.9121 36.3472C30.1851 36.2156 30.5699 36.0149 30.7672 35.903C30.9646 35.7879 31.3428 35.551 31.6059 35.3799C31.869 35.2055 32.2078 34.962 32.3623 34.837C32.5169 34.7153 32.7011 34.5672 32.7702 34.508C32.8425 34.4488 33.0497 34.2678 33.2306 34.1033C33.4148 33.9388 33.7173 33.6427 33.9015 33.4453C34.089 33.2479 34.4113 32.8794 34.6152 32.6261C34.8191 32.3727 35.0921 32.0141 35.2204 31.8266C35.3486 31.6423 35.4539 31.4745 35.4539 31.4581C35.4539 31.4416 35.4637 31.4219 35.4802 31.4153C35.4933 31.412 35.5525 31.3265 35.615 31.2278C35.6742 31.1291 35.7564 30.9942 35.7926 30.9317C35.8288 30.8692 35.9505 30.6421 36.0656 30.4283C36.1807 30.2177 36.2761 30.0368 36.2761 30.0269C36.2761 30.017 36.3221 29.9183 36.378 29.8032C36.4339 29.6913 36.5491 29.4215 36.6379 29.2044C36.7234 28.9872 36.8483 28.6615 36.9108 28.4805C36.9766 28.2996 37.0687 28.0101 37.118 27.839C37.1641 27.6679 37.2463 27.3323 37.2989 27.0987C37.3515 26.8618 37.4173 26.546 37.4436 26.3913C37.4699 26.2367 37.516 25.911 37.5456 25.6675C37.5719 25.424 37.6081 24.9799 37.6245 24.6805C37.641 24.3811 37.6475 23.9435 37.6377 23.7099C37.6278 23.473 37.6081 23.1506 37.5916 22.9861C37.5719 22.8216 37.5357 22.4893 37.5061 22.2458C37.4765 22.0023 37.4107 21.5944 37.3581 21.341C37.3055 21.0877 37.2167 20.7159 37.1608 20.5185C37.1049 20.3211 37.0226 20.0381 36.9766 19.8934C36.9273 19.7486 36.8418 19.4986 36.7793 19.334C36.7201 19.1695 36.6543 19.0083 36.6379 18.9721C36.6214 18.9359 36.5754 18.8241 36.5359 18.7254C36.4931 18.6267 36.3583 18.3371 36.23 18.0838C36.1051 17.8305 35.9242 17.4916 35.8321 17.3271C35.7367 17.1626 35.5788 16.906 35.4769 16.7513C35.3782 16.5967 35.2138 16.3532 35.1118 16.2085C35.0132 16.0637 34.7566 15.7314 34.5428 15.4682C34.3291 15.2083 33.9476 14.7871 33.6943 14.5305C33.4411 14.2772 33.0431 13.9087 32.8063 13.7113C32.5695 13.5171 32.188 13.2177 31.9512 13.0532C31.7144 12.8854 31.4349 12.6913 31.3263 12.6222C31.2178 12.5531 30.9975 12.4215 30.833 12.3261C30.6686 12.2307 30.3463 12.0596 30.1095 11.9412C29.8727 11.8227 29.5569 11.6747 29.4024 11.6089C29.2478 11.5431 29.0406 11.4575 28.9419 11.4181C28.8433 11.3819 28.6196 11.2996 28.4486 11.2404C28.2776 11.1812 27.9816 11.0858 27.7908 11.0331C27.6001 10.9772 27.2975 10.9015 27.1166 10.862C26.9357 10.8225 26.7812 10.7864 26.7713 10.7798C26.7614 10.7732 26.4424 10.7238 26.0642 10.6679C25.686 10.612 25.1236 10.5528 24.8144 10.533C24.5053 10.5166 24.1238 10.5034 23.9593 10.5067C23.7949 10.5067 23.4627 10.5199 23.2193 10.5363C22.9759 10.5495 22.4563 10.6087 22.0682 10.6646ZM29.8595 14.2179C29.8891 14.2179 29.9483 14.2673 29.9944 14.3265C30.0371 14.3857 30.1489 14.5798 30.241 14.7608C30.3364 14.9418 30.4285 15.149 30.4482 15.2214C30.4712 15.2938 30.4877 15.4419 30.4877 15.5504C30.4877 15.659 30.4712 15.8005 30.4515 15.863C30.4318 15.9288 30.3956 16.0275 30.3693 16.0867C30.343 16.1459 30.3232 16.2019 30.3232 16.2085C30.3232 16.2183 30.2706 16.3368 30.2081 16.4717C30.1457 16.6098 30.093 16.7349 30.093 16.7513C30.093 16.7711 30.195 16.85 30.3167 16.9323C30.4384 17.0112 30.6357 17.179 30.7541 17.3008C30.8725 17.4258 31.0271 17.61 31.0994 17.7153C31.1685 17.8206 31.2441 17.9061 31.2606 17.9061C31.2803 17.9061 31.3527 17.8765 31.425 17.8371C31.4974 17.8009 31.6914 17.7186 31.8526 17.6495C32.0663 17.564 32.2143 17.5245 32.3788 17.5146C32.5399 17.5048 32.6649 17.5179 32.7899 17.5574C32.8886 17.5903 33.1221 17.6956 33.3095 17.7943C33.4937 17.8897 33.6746 17.995 33.7108 18.0279C33.7469 18.0608 33.7765 18.1068 33.7798 18.1332C33.7798 18.1628 33.7601 18.2023 33.7371 18.222C33.7042 18.2549 33.6779 18.2549 33.6121 18.2187C33.5661 18.1957 33.4477 18.1299 33.349 18.0739C33.2503 18.0147 33.0727 17.9226 32.9543 17.87C32.8359 17.814 32.6748 17.7548 32.5926 17.7416C32.507 17.7219 32.3788 17.7252 32.2801 17.7449C32.1913 17.7614 32.1025 17.7877 32.0828 17.8009C32.0663 17.814 31.9775 17.8535 31.8855 17.8864C31.7967 17.9193 31.6487 17.9818 31.3921 18.1101L31.5237 18.1529C31.5993 18.1792 31.7144 18.2582 31.7967 18.347C31.9052 18.4655 31.9381 18.528 31.9545 18.653C31.9677 18.7385 31.9677 18.8603 31.9545 18.9228C31.9447 18.9886 31.9019 19.0906 31.8591 19.1531C31.8164 19.2222 31.7177 19.3011 31.6289 19.3439C31.5303 19.3933 31.4546 19.4558 31.4217 19.5249C31.3921 19.5841 31.3264 19.6894 31.277 19.7618C31.2277 19.8341 31.1093 19.9493 31.0106 20.0151C30.912 20.0809 30.7508 20.1533 30.6521 20.173C30.5403 20.1993 30.3463 20.2092 30.1424 20.1993C29.9154 20.1862 29.7609 20.1599 29.6425 20.1138C29.5471 20.0743 29.455 20.0414 29.4353 20.0414C29.4155 20.0414 29.4122 20.0645 29.432 20.1006C29.4484 20.1335 29.478 20.2684 29.501 20.4033C29.5241 20.5448 29.5339 20.7587 29.5241 20.8968C29.5142 21.035 29.4879 21.1897 29.4681 21.2423C29.4385 21.3279 29.4418 21.3509 29.4912 21.3937C29.5241 21.4233 29.7576 21.5779 30.4712 22.0286L30.6686 22.0056C30.7771 21.9957 30.9909 21.9694 31.1455 21.953C31.3 21.9365 31.5631 21.9201 31.7309 21.9201C31.971 21.9201 32.04 21.9299 32.0598 21.9694C32.0729 21.9957 32.0696 22.0286 32.0532 22.0418C32.04 22.055 31.8526 22.0977 31.6421 22.1405C31.4316 22.18 31.0534 22.2359 30.3397 22.3215L29.945 22.1668C29.728 22.0846 29.5043 21.9925 29.4451 21.9661C29.3859 21.9398 29.3366 21.9267 29.3366 21.9332C29.3366 21.9431 29.4221 22.1142 29.7148 22.6768L30.0437 22.7788C30.2246 22.8347 30.5272 22.9301 30.7179 22.9926C30.9087 23.0519 31.0928 23.1177 31.129 23.1341C31.1652 23.1506 31.2672 23.1933 31.3527 23.2328C31.4382 23.269 31.5039 23.3184 31.4974 23.3414C31.4875 23.3677 31.425 23.3809 31.3066 23.3743C31.208 23.371 31.0402 23.3447 30.9317 23.3184C30.8232 23.292 30.468 23.2065 30.1424 23.1308C29.5602 22.9959 29.5504 22.9894 29.4287 22.8578C29.3596 22.7854 29.3037 22.736 29.3037 22.7492C29.3037 22.7623 29.33 22.8742 29.3662 22.9959C29.3991 23.1177 29.4484 23.2624 29.478 23.3151C29.5043 23.371 29.6655 23.5421 29.8365 23.6934C30.0042 23.8481 30.2344 24.0751 30.3496 24.1968C30.4614 24.3186 30.5535 24.4469 30.5535 24.4831C30.5535 24.5193 30.5436 24.5522 30.5304 24.5522C30.5173 24.5522 30.3496 24.4436 30.1588 24.3087C29.9681 24.1738 29.6885 23.9534 29.5339 23.8218C29.3037 23.6211 29.2346 23.5388 29.1393 23.348C29.0768 23.2197 28.9321 22.9236 28.8202 22.69C28.6229 22.2853 28.6098 22.2655 28.5275 22.2787C28.4782 22.2886 28.4354 22.3083 28.4289 22.3215C28.4223 22.3346 28.4387 22.4399 28.4618 22.5518C28.4881 22.6636 28.5506 22.9729 28.5966 23.2328C28.6459 23.496 28.7282 23.9632 28.7808 24.2692C28.8334 24.5785 28.9222 25.1115 28.9748 25.4536C29.0307 25.7991 29.113 26.3387 29.1557 26.6545C29.2018 26.9737 29.2445 27.2533 29.2544 27.2797C29.2609 27.3093 29.2971 27.6251 29.3366 27.987C29.3728 28.3489 29.4188 28.7734 29.4353 28.9247C29.455 29.0793 29.4846 29.4051 29.501 29.6485C29.5175 29.8953 29.5504 30.6125 29.5734 31.2442C29.6063 32.1523 29.603 32.6129 29.5734 33.4157C29.5504 33.9783 29.5175 34.5541 29.501 34.6988C29.4846 34.8436 29.4451 35.0575 29.4122 35.1726C29.3793 35.2878 29.3366 35.3963 29.3136 35.4128C29.2905 35.426 29.2379 35.4292 29.1985 35.4194C29.1557 35.4062 29.057 35.3371 28.9781 35.2614C28.8992 35.1891 28.7446 35.0081 28.6328 34.8633C28.521 34.7186 28.3105 34.4159 28.1658 34.1889C28.0178 33.9651 27.8599 33.7052 27.8073 33.6131C27.7547 33.5243 27.6165 33.2808 27.5014 33.0702C27.383 32.863 27.1791 32.4649 27.0443 32.1819C26.9094 31.9023 26.7877 31.6423 26.768 31.6061C26.7516 31.5699 26.7022 31.4318 26.6562 31.2936C26.6101 31.1587 26.5345 30.879 26.4884 30.6685C26.4391 30.4612 26.3733 30.1355 26.3404 29.9446C26.3076 29.7571 26.2549 29.3425 26.2253 29.0234C26.1727 28.4575 26.1727 28.4444 26.2418 28.0857C26.2812 27.8817 26.3536 27.6317 26.4128 27.51C26.4687 27.3948 26.5838 27.1941 26.6693 27.0658C26.7581 26.9408 26.8732 26.7467 26.9292 26.6381C26.9818 26.5295 27.0443 26.3749 27.0673 26.2926C27.0903 26.2137 27.1199 26.0656 27.1363 25.9636C27.1528 25.8649 27.1955 25.4273 27.235 24.993C27.2712 24.5587 27.3139 24.0718 27.3337 23.9073C27.3534 23.7461 27.3929 23.3381 27.4291 23.0025C27.4751 22.5452 27.4784 22.384 27.4521 22.3544C27.4291 22.3313 27.36 22.305 27.2975 22.2951C27.235 22.2853 27.0673 22.2195 26.9292 22.1471C26.7877 22.0747 26.666 22.0155 26.6562 22.0155C26.6463 22.0155 26.6792 22.1109 26.7252 22.2228C26.7976 22.3906 26.814 22.4794 26.814 22.7229C26.814 22.9499 26.7976 23.0716 26.7417 23.2328C26.6989 23.3513 26.6167 23.5487 26.5542 23.6704C26.4917 23.7921 26.3931 23.9698 26.3306 24.0652C26.2714 24.1606 26.1563 24.3186 26.0773 24.4173C25.9984 24.5193 25.7583 24.8055 25.5413 25.0588C25.3209 25.3122 24.8637 25.8024 24.5184 26.1479C24.1566 26.5098 23.6929 26.9309 23.4167 27.1513C23.1535 27.3619 22.8674 27.5823 22.7753 27.6416C22.6865 27.7008 22.5221 27.8159 22.4136 27.8916C22.305 27.9706 22.2064 28.0364 22.1932 28.0364C22.18 28.0364 22.0551 28.1121 21.9202 28.2009C21.7854 28.293 21.667 28.3654 21.6571 28.3654C21.6472 28.3654 21.5584 28.418 21.4598 28.4805C21.3611 28.5463 21.2723 28.5957 21.2625 28.5957C21.2526 28.5957 21.1901 28.6319 21.1243 28.6747C21.0553 28.7174 20.8579 28.8293 20.6869 28.928C20.5159 29.0234 20.0554 29.2636 19.6674 29.461C19.2793 29.6584 18.6511 29.9578 18.2696 30.1289C17.8914 30.3 17.5724 30.4349 17.5625 30.425C17.5526 30.4151 17.6283 30.2342 17.7236 30.0203C17.8223 29.8065 17.9835 29.4643 18.0821 29.2537C18.1775 29.0464 18.3683 28.6582 18.5031 28.3917C18.6379 28.1252 18.8747 27.6745 19.0293 27.3882C19.1872 27.102 19.4042 26.7203 19.5128 26.5394C19.6213 26.3584 19.845 26.0031 20.0094 25.7498C20.1706 25.4964 20.3712 25.197 20.4534 25.0819C20.5389 24.97 20.677 24.7825 20.7625 24.6706C20.8513 24.5587 21.098 24.2758 21.3118 24.0389C21.5288 23.8053 21.9202 23.4039 22.1866 23.1506C22.453 22.8972 22.7852 22.5913 22.92 22.4662C23.0582 22.3412 23.364 22.0977 23.5975 21.9201C23.8343 21.7457 24.1205 21.5483 24.2389 21.4858C24.3573 21.42 24.571 21.3246 24.7158 21.2752C24.9328 21.1995 25.0315 21.1831 25.2749 21.1831C25.5182 21.1864 25.607 21.1995 25.7781 21.2719C25.8899 21.3213 25.9787 21.3476 25.9721 21.3344C25.9655 21.3213 25.9162 21.2127 25.857 21.0943C25.8011 20.9791 25.732 20.7981 25.6531 20.502L25.5149 20.5218C25.436 20.5316 25.0644 20.5678 24.6829 20.604C24.3046 20.6435 23.7916 20.6929 23.5482 20.7159C23.3048 20.7422 22.8674 20.7784 22.578 20.7981C22.2656 20.8212 21.9531 20.8639 21.8051 20.9034C21.6703 20.9429 21.4631 21.0219 21.3447 21.0844C21.2263 21.1436 21.0355 21.2555 20.9171 21.3311C20.7987 21.4068 20.6343 21.5088 20.5488 21.5615C20.4633 21.6141 20.3054 21.6799 20.2034 21.7128C20.0456 21.7589 19.8976 21.7687 19.3549 21.7654C18.8583 21.7621 18.5985 21.7457 18.286 21.6931C18.0591 21.6569 17.7204 21.5944 17.5296 21.5582C17.3388 21.522 17.0725 21.4562 16.9376 21.4134C16.8028 21.3673 16.5495 21.2785 16.3785 21.2094C16.2075 21.1436 15.895 21.0054 15.6878 20.9001C15.4806 20.7949 15.2208 20.6633 15.1123 20.604C15.0038 20.5448 14.7966 20.4297 14.6519 20.3474C14.5071 20.2652 14.2769 20.1303 14.1421 20.0513C14.0072 19.969 13.8362 19.8638 13.7639 19.8144C13.6915 19.7683 13.6257 19.7223 13.6159 19.7124C13.606 19.7025 13.5567 19.6664 13.5008 19.6335C13.4481 19.6005 13.2903 19.4887 13.1554 19.39C13.0206 19.288 12.8364 19.1301 12.7509 19.0412C12.6621 18.9491 12.5832 18.8438 12.5733 18.8076C12.5634 18.7714 12.5667 18.7254 12.5766 18.7024C12.5865 18.6793 12.6457 18.6398 12.7049 18.6168C12.764 18.5905 12.9219 18.5543 13.0568 18.5346C13.1916 18.5148 13.504 18.4786 13.7474 18.4589C14.0138 18.4326 14.7604 18.4194 15.6056 18.4194C16.3851 18.4194 17.3323 18.4391 17.7105 18.4589C18.092 18.4819 18.6314 18.5214 18.9109 18.5477C19.1905 18.574 19.7233 18.63 20.0949 18.676C20.4665 18.7188 21.0717 18.8011 21.4433 18.8537C21.815 18.9096 22.4004 18.9985 22.7424 19.0544C23.0878 19.1103 23.6107 19.1959 23.91 19.2485C24.2093 19.3011 24.6598 19.3834 24.9131 19.4295C25.1663 19.4788 25.4327 19.5315 25.5051 19.5479C25.5774 19.5644 25.6531 19.5676 25.6695 19.5512C25.6893 19.538 25.7156 19.492 25.7287 19.4558C25.7485 19.3933 25.7254 19.3735 25.5149 19.2715C25.3834 19.2123 25.0907 19.0741 24.8637 18.9656C24.4822 18.7846 24.4395 18.7517 24.2389 18.5247C24.1205 18.3931 23.9626 18.2088 23.8902 18.1167C23.8179 18.0279 23.6863 17.8502 23.6008 17.7219C23.5186 17.5969 23.4495 17.4751 23.4495 17.4521C23.4495 17.4291 23.4759 17.4093 23.5087 17.4093C23.5383 17.4093 23.808 17.6594 24.6434 18.5115L24.9525 18.6201C25.1301 18.6826 25.2485 18.7089 25.2354 18.6859C25.2222 18.6629 25.1861 18.6267 25.1532 18.6036C25.1203 18.5806 25.0709 18.5181 25.0446 18.4622C25.0183 18.4095 24.9723 18.2812 24.9427 18.1759C24.9164 18.0707 24.8341 17.7351 24.7651 17.4258C24.696 17.1198 24.6335 16.7875 24.627 16.6855C24.6204 16.544 24.627 16.5046 24.6664 16.5046C24.696 16.5046 24.7552 16.6066 24.8177 16.7513C24.8736 16.8895 25.0052 17.2744 25.1104 17.6067C25.2124 17.9423 25.3176 18.2384 25.3406 18.2648C25.3637 18.2944 25.5347 18.3931 25.7156 18.4885C25.8997 18.5839 26.0477 18.6497 26.0477 18.6365C26.0477 18.6234 25.9655 18.3964 25.6761 17.6561L25.7485 17.0803C25.7879 16.7645 25.8504 16.3795 25.8866 16.2249C25.9228 16.0736 25.9688 15.9321 25.9852 15.9123C26.0072 15.8904 26.028 15.8959 26.0477 15.9288C26.0675 15.9584 26.0806 16.113 26.0773 16.2743C26.0773 16.4388 26.0642 16.6987 26.0444 16.85C26.028 17.0047 26.005 17.2284 25.9754 17.5574L26.2845 18.0246C26.4523 18.2812 26.6101 18.5017 26.6332 18.5115C26.6562 18.5214 26.745 18.5148 26.8305 18.4951C26.916 18.4753 27.1199 18.4589 27.2811 18.4622C27.4455 18.4622 27.656 18.4819 27.7481 18.5049C27.8435 18.528 27.9224 18.5444 27.9224 18.5444C27.9224 18.5444 27.8928 18.449 27.8566 18.3306C27.8171 18.2154 27.781 18.0147 27.7678 17.8864C27.7579 17.7515 27.7645 17.5706 27.7875 17.4422C27.8106 17.3238 27.8698 17.1626 27.9224 17.0803C27.975 17.0014 28.0868 16.8665 28.1756 16.7842C28.2611 16.6987 28.3894 16.6164 28.4585 16.5934C28.5538 16.5638 28.5867 16.5309 28.613 16.4486C28.6295 16.3894 28.7018 16.2874 28.7676 16.2216C28.8367 16.1525 28.9354 16.0834 28.9847 16.0637C29.034 16.0439 29.1327 16.0275 29.205 16.0275C29.2774 16.0275 29.3925 16.0505 29.4616 16.0801C29.5273 16.1097 29.626 16.1723 29.6753 16.2183C29.728 16.2677 29.7905 16.3532 29.8168 16.4059C29.8431 16.4618 29.8628 16.5243 29.8628 16.5473C29.8628 16.5704 29.876 16.5868 29.8891 16.5901C29.9023 16.5901 29.9286 16.5473 29.9516 16.498C29.9713 16.4486 30.0503 16.2578 30.1292 16.0768C30.2377 15.8202 30.2673 15.7084 30.2706 15.5504C30.2706 15.3925 30.2476 15.3004 30.1555 15.0898C30.0897 14.9451 29.9746 14.7279 29.9023 14.6062C29.8266 14.4844 29.7609 14.3561 29.7576 14.3232C29.7576 14.2903 29.7674 14.2541 29.7806 14.241C29.797 14.2278 29.8332 14.2179 29.8595 14.2179Z" fill="#65DA01"/>
</svg>
