<svg width="48" height="48" viewBox="0 0 48 48" fill="none" xmlns="http://www.w3.org/2000/svg">
<path opacity="0.5" d="M0 15C0 6.71573 6.71573 0 15 0H33C41.2843 0 48 6.71573 48 15V33C48 41.2843 41.2843 48 33 48H15C6.71573 48 0 41.2843 0 33V15Z" fill="#30473A"/>
<path d="M27.0811 10.8984H16.5225C15.8224 10.8984 15.151 11.1765 14.6559 11.6716C14.1609 12.1666 13.8828 12.838 13.8828 13.5381V34.6553C13.8828 35.3554 14.1609 36.0268 14.6559 36.5218C15.151 37.0168 15.8224 37.2949 16.5225 37.2949H32.3603C33.0604 37.2949 33.7318 37.0168 34.2269 36.5218C34.7219 36.0268 35 35.3554 35 34.6553V18.8174M27.0811 10.8984C27.4988 10.8978 27.9127 10.9797 28.2986 11.1397C28.6846 11.2996 29.0351 11.5343 29.33 11.8302L34.0656 16.5658C34.3623 16.8608 34.5977 17.2116 34.7581 17.5981C34.9184 17.9845 35.0007 18.399 35 18.8174M27.0811 10.8984V17.4976C27.0811 17.8476 27.2201 18.1833 27.4676 18.4308C27.7151 18.6783 28.0508 18.8174 28.4009 18.8174L35 18.8174M19.1621 32.0156V30.6958M24.4414 32.0156V24.0967M29.7207 32.0156V28.0562" stroke="#78FE05" stroke-width="2.63895" stroke-linecap="round" stroke-linejoin="round"/>
</svg>
