<svg width="48" height="48" viewBox="0 0 48 48" fill="none" xmlns="http://www.w3.org/2000/svg">
<path opacity="0.5" d="M0 15C0 6.71573 6.71573 0 15 0H33C41.2843 0 48 6.71573 48 15V33C48 41.2843 41.2843 48 33 48H15C6.71573 48 0 41.2843 0 33V15Z" fill="#30473A"/>
<path d="M20.112 18.2222H30.2231M18.6675 24H27.3342M23.0009 29.7778H30.2231M14.3342 11H34.5564C36.1519 11 37.4453 12.2934 37.4453 13.8889V34.1111C37.4453 35.7066 36.1519 37 34.5564 37H14.3342C12.7387 37 11.4453 35.7066 11.4453 34.1111V13.8889C11.4453 12.2934 12.7387 11 14.3342 11Z" stroke="#78FE05" stroke-width="2.88889" stroke-linecap="round" stroke-linejoin="round"/>
</svg>
