<svg width="48" height="48" viewBox="0 0 48 48" fill="none" xmlns="http://www.w3.org/2000/svg">
<path opacity="0.5" d="M0 15C0 6.71573 6.71573 0 15 0H33C41.2843 0 48 6.71573 48 15V33C48 41.2843 41.2843 48 33 48H15C6.71573 48 0 41.2843 0 33V15Z" fill="#30473A"/>
<path d="M16.3766 21.7492H13.6883C12.9753 21.7492 12.2915 21.466 11.7874 20.9618C11.2832 20.4577 11 19.7739 11 19.0609V13.6844C11 12.9714 11.2832 12.2876 11.7874 11.7835C12.2915 11.2793 12.9753 10.9961 13.6883 10.9961H35.1945C35.9075 10.9961 36.5913 11.2793 37.0954 11.7835C37.5996 12.2876 37.8828 12.9714 37.8828 13.6844V19.0609C37.8828 19.7739 37.5996 20.4577 37.0954 20.9618C36.5913 21.466 35.9075 21.7492 35.1945 21.7492H32.5063M16.3766 27.1258H13.6883C12.9753 27.1258 12.2915 27.409 11.7874 27.9132C11.2832 28.4173 11 29.1011 11 29.8141V35.1906C11 35.9036 11.2832 36.5874 11.7874 37.0915C12.2915 37.5957 12.9753 37.8789 13.6883 37.8789H35.1945C35.9075 37.8789 36.5913 37.5957 37.0954 37.0915C37.5996 36.5874 37.8828 35.9036 37.8828 35.1906V29.8141C37.8828 29.1011 37.5996 28.4173 37.0954 27.9132C36.5913 27.409 35.9075 27.1258 35.1945 27.1258H32.5063M16.3766 16.3727H16.39M16.3766 32.5023H16.39M25.7855 16.3727L20.409 24.4375H28.4738L23.0973 32.5023" stroke="#78FE05" stroke-width="2.88889" stroke-linecap="round" stroke-linejoin="round"/>
</svg>
