<svg width="48" height="48" viewBox="0 0 48 48" fill="none" xmlns="http://www.w3.org/2000/svg">
<path opacity="0.5" d="M0 15C0 6.71573 6.71573 0 15 0H33C41.2843 0 48 6.71573 48 15V33C48 41.2843 41.2843 48 33 48H15C6.71573 48 0 41.2843 0 33V15Z" fill="#30473A"/>
<path d="M23.5586 31.8492H23.5722M16.731 10.001H30.3862C31.8945 10.001 33.1172 11.2237 33.1172 12.732V34.5802C33.1172 36.0885 31.8945 37.3112 30.3862 37.3112H16.731C15.2227 37.3112 14 36.0885 14 34.5802V12.732C14 11.2237 15.2227 10.001 16.731 10.001Z" stroke="#78FE05" stroke-width="2.88889" stroke-linecap="round" stroke-linejoin="round"/>
</svg>
