<svg width="257" height="166" viewBox="0 0 257 166" fill="none" xmlns="http://www.w3.org/2000/svg">
<path opacity="0.5" d="M0 15C0 6.71572 6.71573 0 15 0H242C250.284 0 257 6.71573 257 15V151C257 159.284 250.284 166 242 166H15C6.71573 166 0 159.284 0 151V15Z" fill="#1C2D23"/>
<mask id="mask0_5547_27904" style="mask-type:alpha" maskUnits="userSpaceOnUse" x="0" y="0" width="257" height="166">
<path d="M0 15C0 6.71572 6.71573 0 15 0H242C250.284 0 257 6.71573 257 15V151C257 159.284 250.284 166 242 166H15C6.71573 166 0 159.284 0 151V15Z" fill="#1C2D23"/>
</mask>
<g mask="url(#mask0_5547_27904)">
<path fill-rule="evenodd" clip-rule="evenodd" d="M62.9405 55.8452C63.4889 55.8452 64.2256 55.8674 64.5746 55.8951C64.9235 55.9283 65.4497 55.9782 65.7378 56.0059C66.0258 56.0336 66.5409 56.1001 66.8733 56.1444C67.2056 56.1888 67.682 56.2663 67.9257 56.3107C68.1694 56.355 68.6679 56.4547 69.0335 56.5323C69.3991 56.6044 69.7591 56.693 69.8367 56.7207C69.9142 56.754 70.0859 56.8038 70.2244 56.8371C70.3629 56.8703 70.7229 56.9756 71.0276 57.0643C71.3322 57.1585 71.792 57.3081 72.0523 57.4023C72.3126 57.4909 72.7336 57.6516 72.9939 57.7569C73.2543 57.8567 73.6254 58.0063 73.8248 58.0894C74.0242 58.1725 74.6224 58.4551 75.1542 58.7266C75.6859 58.9926 76.2731 59.2974 76.4559 59.4082C76.6386 59.5135 76.9267 59.6852 77.0929 59.785C77.2535 59.8847 77.6911 60.1673 78.0622 60.4056C78.4278 60.6494 78.9041 60.9819 79.1146 61.1426C79.3251 61.3033 79.5522 61.475 79.6131 61.5194C79.6741 61.5637 79.9732 61.8075 80.2778 62.0624C80.5825 62.3118 81.1419 62.8049 81.5241 63.1596C81.9063 63.5087 82.5045 64.1071 82.8535 64.4894C83.2024 64.8662 83.6899 65.4204 83.9336 65.714C84.1773 66.0077 84.5651 66.5064 84.8032 66.8223C85.0359 67.1326 85.3627 67.5925 85.5289 67.8363C85.695 68.0801 86.0606 68.6675 86.3431 69.1385C86.62 69.6095 87.0576 70.4074 87.3069 70.9117C87.5562 71.4159 87.9273 72.236 88.1267 72.7402C88.3316 73.2445 88.6197 74.0258 88.7747 74.4857C88.9243 74.9401 89.1292 75.6161 89.2234 75.9818C89.3176 76.3475 89.4782 77.0568 89.5835 77.5611C89.6887 78.0653 89.8106 78.7967 89.8604 79.1957C89.9047 79.5891 89.9712 80.0768 90.0044 80.2762C90.0377 80.4757 90.0764 81.4233 90.093 82.3819C90.1097 83.3848 90.0986 84.421 90.0653 84.82C90.0321 85.2023 89.9656 85.8507 89.9158 86.2607C89.8659 86.6708 89.7939 87.2193 89.7496 87.4798C89.7053 87.7402 89.5945 88.2999 89.5059 88.7265C89.4117 89.1532 89.2622 89.7627 89.1736 90.0841C89.0849 90.4055 88.9631 90.8266 88.9021 91.0261C88.8412 91.2256 88.7027 91.6356 88.5975 91.9404C88.4867 92.2452 88.3482 92.6331 88.2818 92.7993C88.2153 92.9655 88.1267 93.1761 88.0879 93.2703C88.0436 93.3645 87.9605 93.5584 87.8996 93.7136C87.8442 93.8632 87.6503 94.2899 87.4731 94.6556C87.2958 95.0213 87.041 95.52 86.9081 95.7638C86.7751 96.0076 86.609 96.3068 86.537 96.4288C86.4705 96.5507 86.2877 96.8499 86.1381 97.0937C85.9886 97.3375 85.7283 97.7476 85.5565 98.008C85.3848 98.2684 85.1079 98.6674 84.9362 98.8946C84.77 99.1218 84.5927 99.36 84.5429 99.421C84.4986 99.4819 84.2438 99.7922 83.9779 100.114C83.712 100.435 83.3077 100.906 83.0806 101.161C82.8479 101.421 82.4713 101.82 82.2442 102.048C82.0171 102.28 81.5906 102.685 81.3025 102.945C81.0145 103.206 80.5382 103.616 80.2501 103.859C79.9621 104.103 79.4857 104.475 79.1977 104.691C78.9097 104.901 78.4832 105.2 78.2561 105.356C78.029 105.511 77.6301 105.771 77.3698 105.932C77.1095 106.098 76.7494 106.314 76.5666 106.419C76.3839 106.525 75.913 106.78 75.5142 106.985C75.1154 107.19 74.4839 107.5 74.1018 107.666C73.7196 107.838 73.1158 108.093 72.7558 108.231C72.4013 108.37 72.0745 108.481 72.0357 108.481C71.9969 108.481 71.9415 108.503 71.9138 108.531C71.8806 108.558 71.6369 108.653 71.3599 108.73C71.083 108.813 70.5623 108.963 70.1967 109.068C69.8311 109.168 69.3326 109.295 69.0889 109.34C68.8452 109.39 68.5682 109.456 68.4796 109.484C68.391 109.511 67.9035 109.595 67.3995 109.672C66.8954 109.75 66.0978 109.855 65.627 109.905C64.9844 109.982 64.3364 110.005 63.0236 109.999C61.7718 109.999 61.0517 109.971 60.4756 109.91C60.0325 109.855 59.3346 109.766 58.9247 109.705C58.5148 109.644 58.0662 109.572 57.9277 109.539C57.7892 109.511 57.4292 109.439 57.1245 109.373C56.8199 109.306 56.3823 109.201 56.1552 109.14C55.9281 109.079 55.4517 108.941 55.1028 108.83C54.7538 108.725 54.2553 108.564 53.9949 108.475C53.7346 108.381 53.3856 108.248 53.2195 108.176C53.0533 108.098 52.8982 108.038 52.876 108.038C52.8484 108.038 52.7265 107.988 52.5991 107.932C52.4662 107.871 52.1006 107.711 51.7793 107.567C51.458 107.422 50.8875 107.145 50.5053 106.94C50.1231 106.741 49.5028 106.392 49.1206 106.165C48.7384 105.937 48.1512 105.561 47.8189 105.333C47.4865 105.106 46.9603 104.729 46.6557 104.497C46.351 104.27 45.8525 103.871 45.5479 103.61C45.2432 103.35 44.5176 102.663 43.936 102.086C43.3544 101.504 42.6565 100.767 42.3851 100.446C42.1136 100.125 41.8367 99.7867 41.7702 99.698C41.7037 99.6038 41.4766 99.3046 41.2717 99.022C41.0668 98.7394 40.7898 98.3571 40.6569 98.1631C40.5295 97.9692 40.2747 97.5924 40.103 97.3153C39.9257 97.0383 39.6044 96.4952 39.3829 96.0963C39.1669 95.6973 38.8179 95.0158 38.6019 94.5725C38.3914 94.1292 38.0701 93.3922 37.8873 92.9378C37.7045 92.4779 37.4774 91.8573 37.3777 91.5525C37.278 91.2478 37.1506 90.8377 37.0897 90.6382C37.0288 90.4388 36.918 90.0398 36.8404 89.7516C36.7684 89.4635 36.63 88.8651 36.5413 88.4218C36.4527 87.9785 36.3419 87.38 36.2976 87.0919C36.2533 86.8037 36.1647 86.0391 36.0982 85.4018C35.9985 84.4044 35.9874 84.0054 36.0096 82.6035C36.0262 81.7059 36.0761 80.6087 36.1259 80.1654C36.1702 79.7221 36.2367 79.1735 36.2755 78.9464C36.3087 78.7192 36.4084 78.1429 36.5026 77.6719C36.5912 77.2009 36.7684 76.4362 36.8903 75.9818C37.0122 75.5219 37.2171 74.8237 37.35 74.4303C37.4885 74.0313 37.6713 73.5105 37.7599 73.2667C37.8486 73.0228 37.987 72.6738 38.0646 72.4909C38.1477 72.308 38.2363 72.1086 38.264 72.0476C38.2917 71.9866 38.4966 71.5489 38.7237 71.0779C38.9508 70.6069 39.2666 69.9974 39.4217 69.7203C39.5767 69.4432 39.7041 69.2161 39.7041 69.205C39.7041 69.1994 39.8648 68.939 40.0642 68.6232C40.2636 68.3128 40.5461 67.8862 40.6901 67.6812C40.8341 67.4706 41.1111 67.0827 41.3105 66.8167C41.5099 66.5508 41.7481 66.2405 41.8367 66.1241C41.9253 66.0077 42.2244 65.642 42.4958 65.3206C42.7728 64.9992 43.4042 64.3232 43.9083 63.819C44.4179 63.3147 45.077 62.6886 45.3817 62.4281C45.6863 62.1677 46.2347 61.7244 46.6003 61.4473C46.9659 61.1703 47.2927 60.9209 47.3204 60.8932C47.3481 60.8711 47.7026 60.6383 48.0958 60.3724C48.4891 60.1119 49.0319 59.7684 49.3034 59.6132C49.5692 59.4581 49.8129 59.3306 49.8406 59.3306C49.8683 59.3306 49.9016 59.3084 49.9126 59.2863C49.9182 59.2586 50.3724 59.0148 50.9208 58.7432C51.4691 58.4662 52.0563 58.1836 52.2224 58.1171C52.3886 58.0451 52.7376 57.901 52.9979 57.7957C53.2582 57.6904 53.5795 57.5685 53.718 57.5242C53.8565 57.4743 54.0946 57.3912 54.2442 57.3358C54.3993 57.2748 54.7704 57.1585 55.0751 57.0643C55.3797 56.9756 55.8173 56.8482 56.0444 56.7817C56.2715 56.7152 56.7479 56.5988 57.0968 56.5268C57.4458 56.4492 57.9332 56.355 58.1769 56.3107C58.4207 56.2663 58.897 56.1888 59.2294 56.1444C59.5617 56.0946 60.0879 56.0336 60.3926 56.0059C60.6972 55.9727 61.168 55.9283 61.445 55.9006C61.7219 55.8785 62.3922 55.8508 62.9405 55.8452ZM59.7002 60.328C59.0466 60.4222 58.4982 60.5109 58.4816 60.522C58.465 60.533 58.2046 60.594 57.9 60.6605C57.5953 60.727 57.1079 60.8489 56.8199 60.9376C56.5318 61.0207 56.0832 61.1592 55.8228 61.2423C55.5625 61.3254 55.1637 61.4695 54.9366 61.5582C54.7095 61.6468 54.3217 61.802 54.078 61.9073C53.8343 62.0125 53.3746 62.2231 53.0533 62.3783C52.732 62.5389 52.1947 62.816 51.8624 63.0044C51.5301 63.1873 50.9263 63.553 50.533 63.8134C50.1397 64.0739 49.5748 64.4673 49.2867 64.6834C48.9987 64.905 48.4503 65.3539 48.0681 65.6863C47.6859 66.0188 47.1763 66.4898 46.9271 66.7281C46.6778 66.9719 46.2901 67.3819 46.0685 67.6424C45.8414 67.9028 45.4703 68.3406 45.2432 68.6176C45.0161 68.9002 44.6782 69.338 44.4899 69.5873C44.3071 69.8422 44.0357 70.2412 43.8861 70.4684C43.7421 70.6956 43.4707 71.1333 43.2935 71.4381C43.1107 71.7428 42.7673 72.3912 42.5291 72.8788C42.2909 73.3664 42.0084 73.9759 41.9032 74.2364C41.7979 74.4968 41.6539 74.857 41.5874 75.0398C41.521 75.2227 41.388 75.6217 41.2828 75.9264C41.1831 76.2312 41.0224 76.7798 40.9283 77.1455C40.8341 77.5112 40.6846 78.1817 40.5959 78.6416C40.5018 79.096 40.391 79.8329 40.3467 80.2762C40.3024 80.7195 40.2359 81.5175 40.1971 82.0494C40.1473 82.8584 40.1528 83.2186 40.2248 84.2382C40.2747 84.9087 40.3522 85.7454 40.4021 86.0945C40.4464 86.4436 40.5461 87.0309 40.6236 87.3966C40.6956 87.7624 40.8341 88.3608 40.9283 88.7265C41.0224 89.0922 41.2108 89.7295 41.3492 90.1395C41.4822 90.5496 41.7093 91.1757 41.8533 91.5248C41.9918 91.8739 42.2133 92.3782 42.3463 92.6441C42.4792 92.9157 42.5845 93.1428 42.5845 93.1595C42.5845 93.1761 42.7229 93.4421 42.9002 93.7524C43.0719 94.0682 43.2381 94.373 43.2713 94.4339C43.3045 94.5004 43.443 94.7276 43.5815 94.9493C43.72 95.1709 44.0025 95.5976 44.2074 95.8913C44.4124 96.1849 44.6284 96.4897 44.6782 96.5617C44.7281 96.6338 44.9607 96.9219 45.1878 97.2045C45.4149 97.4816 45.7473 97.8861 45.9245 98.0966C46.0962 98.3072 46.5338 98.7671 46.8939 99.1218C47.2484 99.4709 47.8023 99.9806 48.1235 100.258C48.4448 100.529 48.8325 100.856 48.9821 100.978C49.1372 101.1 49.5083 101.371 49.8129 101.588C50.1176 101.798 50.5773 102.108 50.8377 102.275C51.0925 102.441 51.3805 102.624 51.4747 102.674C51.5633 102.729 51.9399 102.934 52.3055 103.128C52.6711 103.328 53.1585 103.571 53.3856 103.677C53.6127 103.782 53.9728 103.943 54.1888 104.037C54.4048 104.125 54.6762 104.236 54.7981 104.275C54.92 104.314 55.0474 104.364 55.0751 104.386C55.1028 104.403 55.4406 104.524 55.8228 104.646C56.205 104.768 56.6869 104.923 56.903 104.984C57.119 105.045 57.5289 105.151 57.8169 105.217C58.1049 105.284 58.5148 105.367 58.7308 105.411C58.9469 105.455 59.4066 105.527 59.7556 105.577C60.1045 105.627 60.5532 105.688 60.7526 105.716C60.952 105.738 61.6998 105.777 62.4143 105.799C63.2452 105.821 64.0373 105.81 64.6023 105.771C65.0897 105.738 65.6768 105.683 65.9039 105.644C66.131 105.61 66.6572 105.527 67.0671 105.455C67.477 105.389 68.0752 105.267 68.3965 105.195C68.7178 105.117 69.1166 105.012 69.2828 104.962C69.4489 104.912 69.8644 104.779 70.1967 104.674C70.5291 104.563 71.094 104.364 71.443 104.225C71.792 104.092 72.4566 103.799 72.9109 103.582C73.3706 103.361 74.0187 103.023 74.351 102.834C74.6834 102.64 75.3203 102.241 75.7635 101.953C76.2066 101.66 76.7771 101.25 77.0375 101.039C77.2978 100.834 77.608 100.585 77.7243 100.485C77.8462 100.385 78.1951 100.08 78.4998 99.8033C78.81 99.5263 79.3196 99.0276 79.6297 98.6951C79.9455 98.3626 80.4883 97.742 80.8317 97.3153C81.1751 96.8887 81.6349 96.2847 81.8509 95.9688C82.0669 95.6585 82.2442 95.3759 82.2442 95.3482C82.2442 95.3205 82.2608 95.2873 82.2885 95.2762C82.3106 95.2706 82.4104 95.1266 82.5156 94.9603C82.6153 94.7941 82.7538 94.5669 82.8147 94.4616C82.8756 94.3564 83.0806 93.974 83.2744 93.6138C83.4683 93.2592 83.629 92.9544 83.629 92.9378C83.629 92.9212 83.7065 92.755 83.8007 92.561C83.8948 92.3726 84.0887 91.9182 84.2382 91.5525C84.3823 91.1868 84.5927 90.6382 84.698 90.3335C84.8088 90.0287 84.9639 89.5411 85.047 89.2529C85.1245 88.9648 85.263 88.3996 85.3516 88.0062C85.4402 87.6072 85.551 87.0753 85.5953 86.8148C85.6396 86.5544 85.7172 86.0058 85.767 85.5958C85.8113 85.1857 85.8723 84.4377 85.9 83.9334C85.9277 83.4292 85.9387 82.6922 85.9221 82.2988C85.9055 81.8998 85.8723 81.3568 85.8446 81.0797C85.8113 80.8027 85.7504 80.243 85.7006 79.8329C85.6507 79.4229 85.5399 78.7358 85.4513 78.3091C85.3627 77.8825 85.2131 77.2563 85.119 76.9238C85.0248 76.5914 84.8863 76.1148 84.8088 75.871C84.7257 75.6272 84.5817 75.2061 84.4764 74.929C84.3767 74.6519 84.2659 74.3804 84.2382 74.3195C84.2106 74.2585 84.133 74.0701 84.0665 73.9039C83.9945 73.7377 83.7674 73.25 83.5514 72.8234C83.3409 72.3967 83.0363 71.826 82.8812 71.5489C82.7205 71.2718 82.4547 70.8396 82.283 70.5792C82.1168 70.3188 81.8398 69.9087 81.6681 69.6649C81.5019 69.4211 81.0699 68.8614 80.7099 68.4181C80.3498 67.9804 79.7073 67.2711 79.2808 66.8389C78.8543 66.4122 78.184 65.7916 77.7852 65.4591C77.3864 65.1322 76.7439 64.628 76.3451 64.3509C75.9463 64.0683 75.4754 63.7414 75.2927 63.625C75.1099 63.5087 74.7387 63.287 74.4618 63.1263C74.1848 62.9656 73.642 62.6775 73.2432 62.478C72.8444 62.2785 72.3126 62.0292 72.0523 61.9183C71.792 61.8075 71.443 61.6634 71.2768 61.597C71.1107 61.536 70.734 61.3975 70.446 61.2977C70.1579 61.198 69.6594 61.0373 69.3382 60.9486C69.0169 60.8544 68.5073 60.727 68.2026 60.6605C67.898 60.594 67.6377 60.533 67.621 60.522C67.6044 60.5109 67.0671 60.4278 66.4301 60.3336C65.7932 60.2394 64.846 60.1396 64.3253 60.1064C63.8046 60.0787 63.1621 60.0565 62.8851 60.062C62.6082 60.062 62.0487 60.0842 61.6389 60.1119C61.229 60.1341 60.3538 60.2338 59.7002 60.328ZM72.8222 66.3125C72.8721 66.3125 72.9718 66.3956 73.0493 66.4953C73.1213 66.5951 73.3097 66.922 73.4648 67.2268C73.6254 67.5315 73.7805 67.8806 73.8137 68.0025C73.8525 68.1244 73.8802 68.3738 73.8802 68.5567C73.8802 68.7395 73.8525 68.9778 73.8193 69.0831C73.786 69.1939 73.7251 69.3601 73.6808 69.4599C73.6365 69.5596 73.6032 69.6538 73.6032 69.6649C73.6032 69.6815 73.5146 69.881 73.4094 70.1082C73.3041 70.3409 73.2155 70.5515 73.2155 70.5792C73.2155 70.6124 73.3872 70.7454 73.5922 70.884C73.7971 71.0169 74.1294 71.2995 74.3289 71.5046C74.5283 71.7151 74.7886 72.0254 74.9105 72.2028C75.0268 72.3801 75.1542 72.5241 75.1819 72.5241C75.2151 72.5241 75.337 72.4743 75.4588 72.4078C75.5807 72.3468 75.9075 72.2083 76.1789 72.0919C76.5389 71.9479 76.7882 71.8814 77.0652 71.8647C77.3366 71.8481 77.5471 71.8703 77.7575 71.9368C77.9237 71.9922 78.317 72.1695 78.6327 72.3357C78.9429 72.4964 79.2476 72.6738 79.3085 72.7292C79.3694 72.7846 79.4193 72.8622 79.4248 72.9065C79.4248 72.9564 79.3916 73.0228 79.3528 73.0561C79.2974 73.1115 79.2531 73.1115 79.1423 73.0506C79.0648 73.0118 78.8654 72.9009 78.6992 72.8067C78.533 72.707 78.2339 72.5518 78.0345 72.4632C77.8351 72.369 77.5637 72.2692 77.4252 72.2471C77.2812 72.2138 77.0652 72.2194 76.899 72.2526C76.7494 72.2803 76.5999 72.3247 76.5666 72.3468C76.5389 72.369 76.3894 72.4355 76.2343 72.4909C76.0847 72.5463 75.8355 72.6516 75.4034 72.8677L75.625 72.9397C75.7524 72.9841 75.9463 73.117 76.0847 73.2667C76.2675 73.4661 76.3229 73.5714 76.3506 73.782C76.3728 73.9261 76.3728 74.1311 76.3506 74.2364C76.334 74.3472 76.262 74.519 76.19 74.6242C76.118 74.7406 75.9518 74.8736 75.8022 74.9456C75.6361 75.0288 75.5087 75.134 75.4533 75.2504C75.4034 75.3501 75.2927 75.5275 75.2096 75.6494C75.1265 75.7713 74.9271 75.9652 74.7609 76.076C74.5947 76.1869 74.3233 76.3088 74.1571 76.342C73.9688 76.3863 73.642 76.403 73.2986 76.3863C72.9164 76.3642 72.6561 76.3198 72.4566 76.2423C72.296 76.1758 72.1409 76.1204 72.1077 76.1204C72.0745 76.1204 72.0689 76.1591 72.1022 76.2201C72.1298 76.2755 72.1797 76.5027 72.2185 76.7299C72.2572 76.9682 72.2739 77.3283 72.2572 77.5611C72.2406 77.7938 72.1963 78.0542 72.1631 78.1429C72.1132 78.287 72.1188 78.3257 72.2019 78.3978C72.2572 78.4477 72.6505 78.7081 73.8525 79.4672L74.1848 79.4284C74.3676 79.4118 74.7277 79.3675 74.988 79.3398C75.2483 79.3121 75.6915 79.2844 75.974 79.2844C76.3783 79.2844 76.4946 79.301 76.5279 79.3675C76.55 79.4118 76.5445 79.4672 76.5168 79.4894C76.4946 79.5116 76.1789 79.5836 75.8244 79.6556C75.4699 79.7221 74.8329 79.8163 73.6309 79.9604L72.9662 79.7C72.6007 79.5614 72.224 79.4063 72.1243 79.3619C72.0246 79.3176 71.9415 79.2955 71.9415 79.3065C71.9415 79.3232 72.0855 79.6113 72.5785 80.5588L73.1324 80.7306C73.4371 80.8248 73.9467 80.9855 74.2679 81.0908C74.5892 81.1905 74.8994 81.3014 74.9603 81.3291C75.0212 81.3568 75.193 81.4288 75.337 81.4953C75.481 81.5562 75.5918 81.6394 75.5807 81.6782C75.5641 81.7225 75.4588 81.7446 75.2594 81.7336C75.0933 81.728 74.8108 81.6837 74.628 81.6394C74.4452 81.595 73.847 81.451 73.2986 81.3235C72.3182 81.0963 72.3016 81.0852 72.0966 80.8636C71.9803 80.7417 71.8861 80.6586 71.8861 80.6807C71.8861 80.7029 71.9304 80.8913 71.9914 81.0963C72.0468 81.3014 72.1298 81.5452 72.1797 81.6338C72.224 81.728 72.4954 82.0162 72.7835 82.2711C73.0659 82.5315 73.4537 82.9138 73.6475 83.1189C73.8359 83.3239 73.991 83.54 73.991 83.6009C73.991 83.6619 73.9744 83.7173 73.9522 83.7173C73.93 83.7173 73.6476 83.5344 73.3263 83.3073C73.005 83.0801 72.5342 82.7088 72.2739 82.4872C71.8861 82.1492 71.7698 82.0106 71.6092 81.6892C71.5039 81.4731 71.2602 80.9744 71.0719 80.581C70.7395 79.8994 70.7174 79.8662 70.5789 79.8884C70.4958 79.905 70.4238 79.9382 70.4127 79.9604C70.4017 79.9826 70.4294 80.1599 70.4681 80.3483C70.5124 80.5367 70.6177 81.0575 70.6952 81.4953C70.7783 81.9386 70.9168 82.7254 71.0054 83.2408C71.094 83.7616 71.2436 84.6593 71.3322 85.2356C71.4264 85.8174 71.5649 86.7262 71.6369 87.2581C71.7144 87.7956 71.7864 88.2666 71.803 88.3109C71.8141 88.3608 71.875 88.8928 71.9415 89.5023C72.0024 90.1118 72.08 90.8266 72.1077 91.0815C72.1409 91.342 72.1908 91.8905 72.2185 92.3006C72.2462 92.7162 72.3016 93.9241 72.3403 94.988C72.3957 96.5174 72.3902 97.2932 72.3403 98.6452C72.3016 99.5928 72.2462 100.562 72.2185 100.806C72.1908 101.05 72.1243 101.41 72.0689 101.604C72.0135 101.798 71.9415 101.981 71.9027 102.009C71.864 102.031 71.7753 102.036 71.7089 102.02C71.6369 101.998 71.4707 101.881 71.3378 101.754C71.2048 101.632 70.9445 101.327 70.7562 101.083C70.5678 100.84 70.2133 100.33 69.9696 99.9474C69.7204 99.5706 69.4545 99.1328 69.3659 98.9777C69.2772 98.8281 69.0446 98.418 68.8507 98.0634C68.6513 97.7143 68.3079 97.0438 68.0808 96.5673C67.8537 96.0963 67.6487 95.6585 67.6155 95.5976C67.5878 95.5366 67.5047 95.3039 67.4272 95.0712C67.3496 94.844 67.2222 94.373 67.1447 94.0183C67.0616 93.6693 66.9508 93.1207 66.8954 92.7993C66.84 92.4834 66.7514 91.7853 66.7016 91.2478C66.6129 90.2947 66.6129 90.2725 66.7293 89.6685C66.7957 89.325 66.9176 88.9038 67.0173 88.6988C67.1114 88.5049 67.3053 88.1669 67.4493 87.9508C67.5989 87.7402 67.7928 87.4133 67.8869 87.2304C67.9755 87.0476 68.0808 86.7871 68.1196 86.6486C68.1583 86.5156 68.2082 86.2662 68.2359 86.0945C68.2636 85.9282 68.3356 85.1913 68.4021 84.4598C68.463 83.7284 68.535 82.9083 68.5682 82.6312C68.6015 82.3597 68.6679 81.6726 68.7289 81.1074C68.8064 80.3372 68.8119 80.0657 68.7676 80.0158C68.7289 79.977 68.6125 79.9327 68.5073 79.9161C68.4021 79.8994 68.1196 79.7886 67.8869 79.6667C67.6487 79.5448 67.4438 79.4451 67.4272 79.4451C67.4106 79.4451 67.4659 79.6058 67.5435 79.7942C67.6654 80.0768 67.6931 80.2264 67.6931 80.6364C67.6931 81.0188 67.6654 81.2238 67.5712 81.4953C67.4992 81.6948 67.3607 82.0273 67.2555 82.2323C67.1502 82.4373 66.9841 82.7365 66.8788 82.8972C66.7791 83.0579 66.5852 83.3239 66.4523 83.4901C66.3194 83.6619 65.915 84.144 65.5494 84.5706C65.1783 84.9973 64.4084 85.823 63.8268 86.4048C63.2175 87.0143 62.4365 87.7236 61.9712 88.0948C61.5281 88.4495 61.0462 88.8207 60.8911 88.9205C60.7415 89.0202 60.4646 89.2141 60.2818 89.3416C60.099 89.4746 59.9328 89.5854 59.9107 89.5854C59.8885 89.5854 59.678 89.7129 59.4509 89.8625C59.2238 90.0176 59.0244 90.1395 59.0078 90.1395C58.9912 90.1395 58.8416 90.2282 58.6755 90.3335C58.5093 90.4443 58.3597 90.5274 58.3431 90.5274C58.3265 90.5274 58.2212 90.5884 58.1105 90.6604C57.9941 90.7324 57.6618 90.9208 57.3738 91.0871C57.0857 91.2478 56.3103 91.6523 55.6567 91.9847C55.0031 92.3172 53.9451 92.8214 53.3026 93.1096C52.6656 93.3977 52.1283 93.6249 52.1117 93.6083C52.095 93.5917 52.2224 93.2869 52.3831 92.9267C52.5492 92.5666 52.8207 91.9903 52.9868 91.6356C53.1475 91.2865 53.4687 90.6327 53.6958 90.1839C53.9229 89.735 54.3217 88.9759 54.5821 88.4938C54.848 88.0117 55.2135 87.3689 55.3963 87.0642C55.5791 86.7594 55.9558 86.161 56.2327 85.7343C56.5041 85.3076 56.842 84.8034 56.9805 84.6094C57.1245 84.421 57.3572 84.1052 57.5012 83.9168C57.6507 83.7284 58.0662 83.2518 58.4262 82.8529C58.7918 82.4595 59.4509 81.7834 59.8996 81.3568C60.3483 80.9301 60.9077 80.4148 61.1348 80.2042C61.3674 79.9936 61.8826 79.5836 62.2758 79.2844C62.6747 78.9907 63.1566 78.6582 63.356 78.5529C63.5554 78.4421 63.9154 78.2814 64.1591 78.1983C64.5247 78.0709 64.6909 78.0431 65.1008 78.0431C65.5107 78.0487 65.6602 78.0709 65.9482 78.1928C66.1366 78.2759 66.2861 78.3202 66.2751 78.298C66.264 78.2759 66.1809 78.093 66.0812 77.8935C65.987 77.6996 65.8707 77.3948 65.7378 76.8961L65.5051 76.9294C65.3722 76.946 64.7463 77.0069 64.1037 77.0679C63.4667 77.1344 62.6027 77.2175 62.1928 77.2563C61.7829 77.3006 61.0462 77.3616 60.5587 77.3948C60.0325 77.4336 59.5063 77.5057 59.2571 77.5721C59.03 77.6386 58.681 77.7716 58.4816 77.8769C58.2822 77.9767 57.9609 78.1651 57.7615 78.2925C57.5621 78.4199 57.2851 78.5917 57.1411 78.6804C56.9971 78.769 56.7312 78.8799 56.5595 78.9353C56.2937 79.0129 56.0444 79.0295 55.1304 79.0239C54.2941 79.0184 53.8565 78.9907 53.3303 78.902C52.9481 78.8411 52.3775 78.7358 52.0563 78.6748C51.735 78.6139 51.2863 78.5031 51.0592 78.431C50.8321 78.3535 50.4056 78.2038 50.1176 78.0875C49.8296 77.9767 49.3034 77.7439 48.9544 77.5666C48.6054 77.3893 48.1678 77.1676 47.9851 77.0679C47.8023 76.9682 47.4533 76.7742 47.2096 76.6357C46.9659 76.4972 46.5781 76.27 46.351 76.137C46.1239 75.9985 45.8359 75.8211 45.714 75.738C45.5922 75.6604 45.4814 75.5829 45.4648 75.5662C45.4482 75.5496 45.3651 75.4887 45.2709 75.4333C45.1823 75.3778 44.9164 75.1894 44.6893 75.0232C44.4622 74.8514 44.152 74.5855 44.008 74.4358C43.8584 74.2807 43.7255 74.1034 43.7089 74.0424C43.6923 73.9815 43.6978 73.9039 43.7144 73.8651C43.731 73.8263 43.8308 73.7598 43.9305 73.721C44.0302 73.6767 44.296 73.6158 44.5231 73.5825C44.7502 73.5493 45.2764 73.4883 45.6863 73.4551C46.135 73.4107 47.3924 73.3886 48.8159 73.3886C50.1287 73.3886 51.7239 73.4218 52.3609 73.4551C53.0034 73.4938 53.9119 73.5603 54.3827 73.6047C54.8535 73.649 55.7508 73.7432 56.3767 73.8208C57.0027 73.8928 58.0218 74.0313 58.6478 74.12C59.2737 74.2142 60.2596 74.3638 60.8357 74.458C61.4173 74.5522 62.298 74.6963 62.8021 74.7849C63.3061 74.8736 64.065 75.0121 64.4915 75.0897C64.918 75.1728 65.3666 75.2615 65.4885 75.2892C65.6104 75.3169 65.7378 75.3224 65.7655 75.2947C65.7987 75.2726 65.843 75.195 65.8652 75.134C65.8984 75.0287 65.8596 74.9955 65.5051 74.8237C65.2836 74.724 64.7906 74.4913 64.4084 74.3084C63.7659 74.0036 63.6938 73.9482 63.356 73.5659C63.1566 73.3442 62.8907 73.0339 62.7688 72.8788C62.647 72.7292 62.4254 72.4299 62.2814 72.2138C62.1429 72.0033 62.0266 71.7982 62.0266 71.7595C62.0266 71.7207 62.0709 71.6874 62.1263 71.6874C62.1761 71.6874 62.6303 72.1086 64.0373 73.5437L64.5579 73.7266C64.8571 73.8319 65.0565 73.8762 65.0343 73.8374C65.0121 73.7986 64.9512 73.7377 64.8958 73.6989C64.8404 73.6601 64.7573 73.5548 64.713 73.4606C64.6687 73.3719 64.5912 73.1558 64.5413 72.9785C64.497 72.8012 64.3585 72.236 64.2422 71.7151C64.1259 71.1998 64.0207 70.6401 64.0096 70.4684C63.9985 70.2301 64.0096 70.1636 64.076 70.1636C64.1259 70.1636 64.2256 70.3354 64.3308 70.5792C64.425 70.8119 64.6466 71.4602 64.8238 72.0199C64.9955 72.5851 65.1728 73.0838 65.2116 73.1281C65.2503 73.178 65.5384 73.3442 65.843 73.5049C66.1532 73.6656 66.4025 73.7764 66.4025 73.7543C66.4025 73.7321 66.264 73.3498 65.7765 72.103L65.8984 71.1333C65.9649 70.6014 66.0701 69.953 66.131 69.6926C66.192 69.4377 66.2695 69.1994 66.2972 69.1662C66.3341 69.1292 66.3692 69.1385 66.4025 69.1939C66.4357 69.2438 66.4578 69.5042 66.4523 69.7757C66.4523 70.0528 66.4301 70.4905 66.3969 70.7454C66.3692 71.0059 66.3304 71.3827 66.2806 71.9368L66.8013 72.7236C67.0838 73.1558 67.3496 73.5271 67.3884 73.5437C67.4272 73.5603 67.5767 73.5493 67.7207 73.516C67.8648 73.4828 68.2082 73.4551 68.4796 73.4606C68.7566 73.4606 69.1111 73.4938 69.2661 73.5326C69.4268 73.5714 69.5597 73.5991 69.5597 73.5991C69.5597 73.5991 69.5099 73.4384 69.4489 73.239C69.3825 73.045 69.3215 72.707 69.2994 72.4909C69.2828 72.2637 69.2938 71.9589 69.3326 71.7428C69.3714 71.5434 69.4711 71.2718 69.5597 71.1333C69.6483 71.0003 69.8367 70.7731 69.9862 70.6346C70.1302 70.4905 70.3463 70.352 70.4626 70.3132C70.6232 70.2633 70.6786 70.2079 70.7229 70.0694C70.7506 69.9697 70.8725 69.7979 70.9833 69.6871C71.0996 69.5707 71.2658 69.4543 71.3488 69.4211C71.4319 69.3878 71.5981 69.3601 71.72 69.3601C71.8418 69.3601 72.0357 69.3989 72.152 69.4488C72.2628 69.4987 72.429 69.6039 72.512 69.6815C72.6007 69.7646 72.7059 69.9087 72.7502 69.9974C72.7945 70.0916 72.8278 70.1968 72.8278 70.2356C72.8278 70.2744 72.8499 70.3021 72.8721 70.3077C72.8942 70.3077 72.9386 70.2356 72.9773 70.1525C73.0106 70.0694 73.1435 69.748 73.2764 69.4432C73.4592 69.011 73.5091 68.8226 73.5146 68.5567C73.5146 68.2907 73.4758 68.1355 73.3207 67.7809C73.21 67.5371 73.0161 67.1714 72.8942 66.9663C72.7668 66.7613 72.6561 66.5452 72.6505 66.4898C72.6505 66.4344 72.6671 66.3734 72.6893 66.3513C72.717 66.3291 72.7779 66.3125 72.8222 66.3125Z" fill="white"/>
<path fill-rule="evenodd" clip-rule="evenodd" d="M111.075 70.622C113.086 70.6331 113.302 70.6441 114.177 70.7771C114.698 70.8547 115.23 70.9434 115.368 70.9766C115.506 71.0043 115.767 71.0653 115.95 71.1096C116.132 71.1595 116.443 71.2537 116.642 71.3312C116.841 71.4033 117.185 71.5529 117.406 71.6637C117.628 71.7745 117.938 71.9574 118.099 72.0738C118.259 72.1846 118.448 72.3287 118.52 72.3896C118.592 72.4506 118.786 72.6778 118.941 72.8939C119.101 73.1044 119.312 73.4424 119.4 73.6419C119.495 73.8414 119.633 74.2514 119.711 74.5562C119.816 74.9663 119.871 75.3597 119.91 76.08C119.938 76.612 119.965 79.5654 119.965 82.6463C119.965 85.7217 119.943 88.664 119.916 89.1849C119.877 89.8831 119.827 90.2765 119.716 90.7087C119.639 91.0301 119.5 91.4457 119.412 91.6341C119.317 91.828 119.151 92.1106 119.029 92.2713C118.913 92.432 118.669 92.7035 118.492 92.8753C118.315 93.0471 118.077 93.241 117.971 93.3186C117.866 93.3906 117.606 93.5347 117.39 93.6345C117.179 93.7397 116.764 93.906 116.476 94.0057C116.188 94.1055 115.761 94.2274 115.534 94.2717C115.307 94.3216 115.08 94.3714 115.036 94.3881C114.991 94.4047 114.604 94.4546 114.177 94.4989C113.751 94.5432 112.765 94.6208 111.989 94.6707C110.693 94.7538 110.471 94.7538 109.247 94.6707C108.516 94.6208 107.63 94.5488 107.281 94.4989C106.932 94.4546 106.544 94.3991 106.422 94.3659C106.301 94.3382 106.001 94.2717 105.758 94.2218C105.514 94.172 105.104 94.0556 104.844 93.9669C104.583 93.8727 104.223 93.7231 104.041 93.6289C103.858 93.5292 103.586 93.3629 103.431 93.2521C103.282 93.1358 102.999 92.8864 102.811 92.6925C102.623 92.4985 102.379 92.1938 102.274 92.0109C102.163 91.828 102.013 91.5011 101.936 91.2905C101.858 91.0744 101.759 90.6921 101.714 90.4317C101.67 90.1712 101.603 89.6836 101.57 89.3511C101.537 88.9577 101.526 86.3866 101.559 75.4982L101.698 74.861C101.775 74.5119 101.919 74.0353 102.019 73.8081C102.113 73.581 102.279 73.2651 102.384 73.1155C102.484 72.9603 102.689 72.711 102.833 72.5614C102.983 72.4062 103.204 72.2068 103.321 72.1181C103.442 72.0294 103.692 71.8687 103.874 71.769C104.057 71.6637 104.417 71.4975 104.678 71.3977C104.938 71.298 105.387 71.1539 105.675 71.0764C105.963 70.9988 106.461 70.8935 106.782 70.8492C107.104 70.8048 107.575 70.7383 107.835 70.7051C108.095 70.6718 108.444 70.6386 108.61 70.6275C108.777 70.6164 109.89 70.6164 111.075 70.622ZM108.112 73.0324C107.331 73.1488 106.821 73.2485 106.478 73.3704C106.206 73.4646 105.968 73.5588 105.952 73.5754C105.935 73.5976 105.852 73.653 105.758 73.6973C105.669 73.7417 105.459 73.919 105.287 74.0852C105.104 74.2681 104.916 74.5285 104.811 74.7501C104.716 74.9496 104.589 75.3098 104.534 75.5536C104.434 75.9747 104.428 76.3349 104.428 82.6463V89.2957C104.628 90.0659 104.766 90.4427 104.86 90.6256C104.96 90.8085 105.148 91.0689 105.287 91.2074C105.425 91.346 105.725 91.5565 105.952 91.6673C106.179 91.7837 106.578 91.9278 106.838 91.9887C107.098 92.0497 107.458 92.1328 107.641 92.1771C107.824 92.2159 108.322 92.2935 108.749 92.3489C109.253 92.4099 109.934 92.4431 110.688 92.4431C111.33 92.4431 112.128 92.4154 112.46 92.3766C112.798 92.3378 113.219 92.2824 113.402 92.2547C113.584 92.227 113.834 92.1771 113.956 92.1494C114.077 92.1217 114.404 92.0441 114.676 91.9777C114.953 91.9112 115.346 91.7726 115.551 91.6729C115.756 91.5676 116.038 91.3792 116.177 91.2462C116.315 91.1188 116.504 90.875 116.598 90.7087C116.692 90.5425 116.814 90.2544 116.869 90.0715C116.924 89.8886 116.997 89.4897 117.03 89.1849C117.063 88.858 117.085 86.3921 117.08 83.2004C117.08 80.2137 117.057 77.2714 117.035 76.6619C116.991 75.6755 116.969 75.5037 116.841 75.138C116.764 74.9108 116.625 74.6116 116.537 74.4731C116.443 74.3346 116.288 74.1406 116.188 74.0464C116.088 73.9467 115.855 73.7804 115.673 73.6696C115.49 73.5588 115.141 73.4147 114.897 73.3427C114.653 73.2707 114.393 73.1931 114.316 73.1765C114.238 73.1598 113.74 73.0823 113.208 73.0047C112.466 72.8939 111.961 72.8551 111.048 72.8384C110.394 72.8329 109.718 72.8329 109.552 72.844C109.386 72.8606 108.738 72.9437 108.112 73.0324ZM165.69 70.6054C166.638 70.5998 167.657 70.622 167.961 70.6441C168.266 70.6718 168.765 70.7217 169.069 70.755C169.374 70.7938 169.85 70.8602 170.122 70.9046C170.399 70.9489 170.869 71.0597 171.174 71.1539C171.479 71.2426 171.778 71.3368 171.839 71.3645C171.9 71.3867 172.193 71.5307 172.492 71.6803C172.792 71.83 173.163 72.0627 173.329 72.2012C173.489 72.3397 173.75 72.6002 173.905 72.783C174.06 72.9659 174.265 73.2651 174.354 73.448C174.442 73.6308 174.57 73.9411 174.636 74.1406C174.703 74.3401 174.797 74.7224 174.847 74.9995C174.924 75.4373 174.935 76.6064 174.968 94.4767H172.088V85.7217H159.625V94.4767H156.745L156.778 75.3874L156.922 74.7501C157.005 74.4011 157.133 73.9578 157.21 73.7638C157.293 73.5754 157.448 73.2762 157.565 73.1044C157.675 72.9271 157.886 72.6611 158.024 72.506C158.168 72.3508 158.468 72.1015 158.689 71.9519C158.916 71.8022 159.321 71.5806 159.586 71.4698C159.852 71.3534 160.273 71.2038 160.528 71.1428C160.777 71.0764 161.159 70.9932 161.37 70.9544C161.586 70.9157 162.068 70.8381 162.45 70.7882C162.832 70.7328 163.331 70.6718 163.558 70.6497C163.785 70.6275 164.749 70.6054 165.69 70.6054ZM163.392 72.9936C163.043 73.0435 162.616 73.11 162.45 73.1432C162.284 73.1709 161.913 73.2762 161.63 73.3759C161.348 73.4757 161.121 73.5754 161.121 73.5976C161.121 73.6198 161.093 73.6419 161.054 73.6419C161.015 73.6419 160.86 73.7417 160.705 73.858C160.556 73.9744 160.329 74.2182 160.201 74.3955C160.074 74.5728 159.935 74.8443 159.886 74.9995C159.836 75.1491 159.758 75.476 159.708 75.7199C159.642 76.0856 159.625 76.7671 159.625 79.6929V83.2281H172.088C172.055 76.1687 172.044 75.6755 171.961 75.3708C171.911 75.1824 171.794 74.8831 171.706 74.7058C171.623 74.534 171.44 74.2681 171.307 74.124C171.174 73.9799 170.914 73.7749 170.731 73.6696C170.548 73.5588 170.16 73.3981 169.872 73.3039C169.584 73.2097 169.097 73.1044 168.792 73.0601C168.488 73.0213 167.978 72.9604 167.657 72.9271C167.336 72.8939 166.676 72.8606 166.189 72.844C165.702 72.8329 165.015 72.8384 164.666 72.8661C164.317 72.8883 163.741 72.9437 163.392 72.9936ZM189.121 70.6275C189.791 70.6386 190.6 70.6774 190.921 70.7106C191.242 70.7383 191.802 70.7993 192.167 70.8492C192.533 70.8935 193.131 71.0043 193.497 71.0985C193.862 71.1927 194.361 71.3479 194.604 71.4476C194.848 71.5474 195.236 71.7358 195.463 71.8632C195.718 72.0128 196.05 72.2788 196.321 72.5558C196.648 72.8828 196.82 73.1155 196.97 73.4203C197.08 73.6475 197.235 74.0353 197.313 74.2791C197.385 74.523 197.474 74.9108 197.512 75.138C197.546 75.3652 197.59 76.0689 197.651 77.8532L194.771 77.8255L194.737 76.8281C194.715 76.2463 194.66 75.6755 194.61 75.4539C194.56 75.2489 194.449 74.9385 194.361 74.7612C194.278 74.5895 194.084 74.3124 193.934 74.1462C193.785 73.9855 193.513 73.7638 193.33 73.6641C193.148 73.5643 192.799 73.4313 192.555 73.3649C192.311 73.2984 191.94 73.2097 191.724 73.1654C191.514 73.121 190.987 73.0324 190.561 72.9659C189.963 72.8772 189.514 72.8495 188.594 72.8495C187.941 72.8495 187.215 72.8772 186.988 72.9105C186.761 72.9493 186.285 73.0158 185.936 73.0601C185.587 73.11 185.038 73.2097 184.717 73.2928C184.396 73.3704 183.969 73.52 183.764 73.6197C183.548 73.725 183.26 73.9356 183.1 74.1018C182.939 74.2625 182.734 74.5396 182.646 74.7224C182.562 74.9053 182.441 75.2766 182.385 75.5536C182.302 75.9526 182.28 76.2851 182.28 77.2548C182.28 78.0915 182.302 78.5514 182.358 78.7509C182.396 78.9116 182.479 79.1554 182.54 79.2939C182.596 79.4324 182.756 79.6652 182.895 79.8092C183.028 79.9589 183.288 80.1583 183.471 80.2581C183.654 80.3578 184.014 80.4963 184.274 80.5628C184.534 80.6238 185.133 80.7402 185.603 80.8122C186.074 80.8898 186.911 81.0283 187.459 81.1225C188.007 81.2167 188.855 81.3552 189.342 81.4273C189.83 81.4993 190.688 81.6323 191.253 81.7265C191.818 81.8151 192.616 81.9648 193.026 82.059C193.436 82.1476 193.923 82.264 194.106 82.3138C194.289 82.3637 194.638 82.4912 194.881 82.602C195.125 82.7128 195.474 82.9012 195.657 83.0231C195.84 83.145 196.139 83.3999 196.321 83.5828C196.51 83.7712 196.754 84.0704 196.875 84.2533C196.992 84.4361 197.158 84.7464 197.241 84.9459C197.319 85.1454 197.435 85.5056 197.49 85.7494C197.584 86.1373 197.595 86.4088 197.59 87.9658C197.59 89.3345 197.568 89.8665 197.496 90.2931C197.446 90.5979 197.33 91.0578 197.235 91.3183C197.141 91.5898 196.931 91.9887 196.748 92.2547C196.576 92.5151 196.31 92.831 196.155 92.964C196.006 93.0914 195.74 93.2854 195.574 93.3962C195.408 93.5015 195.131 93.6566 194.964 93.7397C194.798 93.8173 194.46 93.9503 194.217 94.0334C193.973 94.1165 193.513 94.2495 193.192 94.3271C192.871 94.4047 192.25 94.51 191.807 94.5543C191.364 94.5986 190.666 94.6651 190.256 94.6928C189.846 94.7261 188.993 94.7538 188.362 94.7538C187.73 94.7538 186.983 94.7316 186.7 94.6984C186.418 94.6707 185.897 94.6208 185.548 94.5875C185.199 94.5543 184.761 94.4989 184.579 94.4712C184.396 94.4379 183.986 94.3548 183.665 94.2772C183.343 94.1997 182.911 94.0722 182.695 93.9946C182.485 93.9171 182.136 93.7675 181.92 93.6622C181.709 93.5624 181.36 93.3463 181.15 93.1856C180.934 93.0249 180.629 92.7368 180.469 92.5373C180.303 92.3378 180.109 92.0386 180.031 91.8724C179.954 91.7061 179.854 91.49 179.815 91.4014C179.776 91.3072 179.726 91.1853 179.71 91.1243C179.688 91.0634 179.621 90.7752 179.555 90.4871C179.461 90.0382 179.438 89.7113 179.4 86.4974H182.28V87.8661C182.28 89.0297 182.297 89.3179 182.391 89.7667C182.452 90.0549 182.579 90.4427 182.673 90.6256C182.767 90.8085 182.972 91.0911 183.133 91.2518C183.294 91.4235 183.571 91.623 183.775 91.7283C183.975 91.828 184.324 91.9555 184.551 92.0054C184.778 92.0552 185.055 92.1217 185.16 92.1494C185.266 92.1771 185.603 92.2381 185.908 92.2824C186.213 92.3267 186.938 92.4043 187.514 92.4542C188.473 92.5318 188.661 92.5318 189.592 92.4542C190.157 92.4099 190.893 92.3212 191.226 92.2658C191.563 92.2048 192.062 92.1051 192.333 92.0386C192.61 91.9777 192.981 91.8502 193.164 91.7671C193.347 91.6784 193.596 91.5288 193.718 91.4291C193.84 91.3293 194.034 91.1243 194.15 90.9636C194.267 90.8085 194.416 90.5425 194.477 90.3763C194.538 90.21 194.627 89.8221 194.671 89.5174C194.715 89.2126 194.754 88.5754 194.754 88.1044C194.754 87.5613 194.721 87.0737 194.665 86.7745C194.615 86.4919 194.51 86.165 194.405 85.971C194.311 85.7882 194.106 85.5111 193.945 85.3504C193.79 85.1953 193.502 84.9792 193.303 84.8739C193.103 84.763 192.721 84.6245 192.444 84.5525C192.173 84.486 191.586 84.3696 191.142 84.2976C190.699 84.2256 189.929 84.1036 189.425 84.0316C188.921 83.954 188.312 83.8543 188.068 83.81C187.825 83.7656 187.287 83.677 186.877 83.6105C186.467 83.5495 185.731 83.4387 185.243 83.3667C184.756 83.2891 184.069 83.1672 183.72 83.0841C183.371 83.0065 182.884 82.8735 182.64 82.7848C182.396 82.7017 182.058 82.5632 181.892 82.4801C181.726 82.397 181.499 82.2584 181.394 82.1809C181.288 82.1033 181.078 81.937 180.923 81.8096C180.773 81.6877 180.507 81.3996 180.336 81.1724C180.17 80.9452 179.948 80.585 179.854 80.3744C179.76 80.1583 179.621 79.7871 179.555 79.5433C179.433 79.1221 179.427 79.0058 179.427 77.2991C179.427 75.7753 179.444 75.4206 179.533 74.9995C179.588 74.7224 179.666 74.39 179.704 74.2514C179.743 74.1129 179.843 73.8525 179.926 73.6696C180.009 73.4868 180.208 73.1598 180.369 72.9493C180.53 72.7332 180.834 72.4229 181.045 72.2511C181.25 72.0793 181.599 71.8466 181.809 71.7302C182.025 71.6138 182.358 71.4642 182.557 71.3867C182.756 71.3146 183.205 71.1816 183.554 71.093C183.903 71.0043 184.379 70.9046 184.606 70.8769C184.833 70.8436 185.282 70.7882 185.603 70.755C185.925 70.7217 186.573 70.6718 187.044 70.6497C187.514 70.622 188.45 70.6164 189.121 70.6275ZM124.452 70.8159H127.332L127.36 89.462L127.504 89.9884C127.587 90.2765 127.709 90.6256 127.776 90.7641C127.848 90.9027 128.03 91.1465 128.185 91.3072C128.341 91.4679 128.579 91.6729 128.717 91.7615C128.856 91.8447 129.177 91.9832 129.437 92.0552C129.698 92.1328 130.185 92.2381 130.517 92.288C130.894 92.3434 131.487 92.3822 132.068 92.3822C132.589 92.3822 133.22 92.3545 133.481 92.3212C133.741 92.2824 134.162 92.1993 134.422 92.1383C134.683 92.0719 135.043 91.9499 135.226 91.8613C135.408 91.7671 135.669 91.6064 135.802 91.4956C135.94 91.3792 136.14 91.152 136.25 90.9858C136.367 90.8195 136.505 90.5203 136.572 90.3208C136.633 90.1214 136.716 89.8498 136.754 89.7113C136.81 89.5118 136.832 87.6112 136.86 70.8159H139.745L139.768 89.5174L139.895 89.9607C139.967 90.2045 140.089 90.5425 140.172 90.7087C140.25 90.875 140.443 91.1465 140.598 91.3072C140.748 91.4679 140.986 91.6673 141.125 91.7394C141.263 91.817 141.634 91.9555 141.956 92.0497C142.277 92.1383 142.748 92.2547 143.008 92.3046C143.324 92.36 143.817 92.3877 144.476 92.3932C145.024 92.3932 145.661 92.36 145.888 92.3267C146.115 92.288 146.581 92.1771 146.913 92.0829C147.251 91.9887 147.661 91.8447 147.827 91.756C147.993 91.6729 148.248 91.4845 148.392 91.3349C148.536 91.1908 148.724 90.9193 148.818 90.7364C148.907 90.5536 149.023 90.2156 149.073 89.9884C149.123 89.7612 149.184 89.3733 149.212 89.1295C149.239 88.8857 149.262 84.6633 149.267 70.8159H152.092V80.247C152.092 88.0157 152.075 89.7667 152.014 90.1546C151.97 90.415 151.898 90.7974 151.843 91.0135C151.793 91.2241 151.621 91.6618 151.466 91.9777C151.239 92.4376 151.101 92.6371 150.79 92.9474C150.58 93.1635 150.353 93.3796 150.292 93.4239C150.231 93.4682 150.059 93.5791 149.904 93.6677C149.755 93.7564 149.455 93.9004 149.239 93.9891C149.029 94.0778 148.553 94.2218 148.187 94.3105C147.821 94.3991 147.334 94.4933 147.107 94.5266C146.88 94.5598 146.348 94.6263 145.933 94.6707C145.512 94.715 144.98 94.7538 144.753 94.7538C144.526 94.7538 143.922 94.7039 143.412 94.643C142.903 94.582 142.321 94.4989 142.122 94.449C141.922 94.4047 141.601 94.3216 141.402 94.2606C141.202 94.1997 140.892 94.0888 140.709 94.0057C140.526 93.9226 140.216 93.7619 140.017 93.6455C139.817 93.5292 139.502 93.2965 139.313 93.1358C139.125 92.9751 138.854 92.7036 138.71 92.5373C138.571 92.3711 138.422 92.1827 138.377 92.1217C138.305 92.0109 138.3 92.0164 138.178 92.1771C138.111 92.2658 137.868 92.5373 137.641 92.7756C137.408 93.0139 137.02 93.3463 136.777 93.507C136.533 93.6677 136.162 93.8838 135.946 93.978C135.735 94.0722 135.32 94.2274 135.032 94.316C134.744 94.4047 134.234 94.521 133.896 94.5709C133.442 94.643 132.921 94.6651 131.819 94.6651C130.722 94.6651 130.179 94.643 129.659 94.5654C129.277 94.5155 128.695 94.3991 128.357 94.3105C128.025 94.2163 127.587 94.0778 127.388 94.0002C127.188 93.9171 126.856 93.7508 126.64 93.6234C126.43 93.5015 126.064 93.2078 125.837 92.9806C125.499 92.6426 125.366 92.4542 125.128 91.9832C124.951 91.623 124.79 91.1908 124.701 90.8473C124.624 90.5203 124.541 89.9717 124.513 89.5174C124.474 89.0408 124.452 85.2895 124.452 79.776V70.8159ZM202.11 70.8436L207.887 70.8602C211.061 70.8658 213.974 70.899 214.351 70.9267C214.733 70.9544 215.343 71.0486 215.708 71.1262C216.074 71.2093 216.561 71.3479 216.788 71.4365C217.021 71.5252 217.331 71.6637 217.481 71.7468C217.636 71.8244 217.896 71.9796 218.062 72.0848C218.234 72.1901 218.489 72.3785 218.633 72.506C218.777 72.6279 219.021 72.8772 219.165 73.0601C219.314 73.243 219.519 73.5422 219.619 73.725C219.719 73.9079 219.857 74.2071 219.929 74.39C220.001 74.5728 220.095 74.9108 220.139 75.138C220.178 75.3708 220.25 75.9526 220.289 76.4402C220.333 76.9555 220.361 78.1303 220.361 79.2385C220.361 80.2969 220.333 81.5325 220.295 82.0091C220.256 82.4856 220.184 83.0674 220.139 83.3113C220.095 83.5551 219.984 83.954 219.885 84.1978C219.791 84.4417 219.602 84.8074 219.475 85.0013C219.347 85.2008 219.148 85.4889 219.026 85.6386C218.904 85.7937 218.622 86.0597 218.395 86.2315C218.168 86.4032 217.763 86.6637 217.497 86.8022C217.231 86.9407 216.755 87.1291 216.445 87.2178C216.129 87.3064 215.642 87.4173 215.348 87.4671C215.06 87.5115 214.501 87.5724 214.102 87.6057C213.692 87.6389 211.587 87.6611 205.046 87.6611V94.4767H202.11V70.8436ZM205.046 85.3892C212.894 85.3892 213.637 85.3781 214.13 85.3005C214.495 85.2451 214.905 85.1398 215.226 85.0124C215.537 84.8905 215.891 84.6966 216.113 84.5303C216.318 84.3807 216.589 84.1036 216.722 83.9208C216.855 83.7379 217.027 83.4442 217.099 83.2725C217.171 83.0952 217.27 82.6962 217.315 82.3859C217.364 82.07 217.425 81.6544 217.453 81.455C217.481 81.261 217.52 80.6238 217.542 80.042C217.558 79.4657 217.547 78.5902 217.514 78.1026C217.486 77.6149 217.431 76.9445 217.398 76.6064C217.364 76.274 217.298 75.8473 217.254 75.6644C217.204 75.4816 217.104 75.2101 217.021 75.0549C216.938 74.9053 216.855 74.7557 216.833 74.7224C216.816 74.6947 216.689 74.5451 216.556 74.4011C216.428 74.2514 216.196 74.0464 216.041 73.9467C215.891 73.8469 215.614 73.6918 215.431 73.6087C215.248 73.5256 214.877 73.3981 214.6 73.3205L214.102 73.182L205.051 73.1377L205.046 85.3892Z" fill="white"/>
</g>
</svg>
