<svg width="257" height="166" viewBox="0 0 257 166" fill="none" xmlns="http://www.w3.org/2000/svg">
<path opacity="0.5" d="M0 15C0 6.71572 6.71573 0 15 0H242C250.284 0 257 6.71573 257 15V151C257 159.284 250.284 166 242 166H15C6.71573 166 0 159.284 0 151V15Z" fill="#1C2D23"/>
<mask id="mask0_5122_3132" style="mask-type:alpha" maskUnits="userSpaceOnUse" x="0" y="0" width="257" height="166">
<path d="M0 15C0 6.71572 6.71573 0 15 0H242C250.284 0 257 6.71573 257 15V151C257 159.284 250.284 166 242 166H15C6.71573 166 0 159.284 0 151V15Z" fill="#1C2D23"/>
</mask>
<g mask="url(#mask0_5122_3132)">
<path d="M54.9636 55.2202C55.5379 54.9069 56.459 54.5228 57.0147 54.3662C57.5666 54.2133 58.6481 54.0679 59.4163 54.0529C60.1845 54.0343 61.6128 54.2953 62.5861 54.631C63.5594 54.9666 65.0138 55.6789 65.8156 56.2159C66.6211 56.7492 73.2479 63.5587 80.546 71.3453C87.8478 79.1282 94.0719 85.8184 94.3777 86.2137C94.896 86.8738 94.9855 86.8812 95.5897 86.3218C96.1901 85.7662 96.2423 84.4833 96.2423 54.0194H104.737L104.685 71.8264C104.633 89.171 104.614 89.6707 103.846 91.1251C103.414 91.9455 102.321 93.247 101.422 94.0189C100.277 94.9997 99.1697 95.5554 97.734 95.8574C96.1379 96.1968 95.31 96.1894 94.0047 95.8276C93.0836 95.5703 91.5696 95.037 90.6485 94.6417C89.4365 94.1196 88.0753 92.9114 85.7371 90.286C83.9582 88.2871 77.7454 81.4478 71.9278 75.0894C63.5221 65.9007 61.1615 63.5289 59.5095 63.5289L59.323 96.1595H50L50.0075 78.7254C50.0149 62.701 50.0709 61.172 50.6936 59.7997C51.0628 58.9792 51.9429 57.7411 52.6403 57.0475C53.3414 56.3539 54.3856 55.5297 54.9636 55.2202Z" fill="#F4F4F4"/>
<path d="M110.518 70.8493C110.477 62.1565 110.514 54.8137 110.603 54.534C110.73 54.1387 111.715 54.0194 118.991 54.0194V69.6821C118.991 84.8488 119.013 85.3672 119.736 86.0906C120.464 86.8178 120.982 86.8365 141.832 86.8402C160.243 86.8402 163.297 86.7656 164.021 86.2808C164.483 85.9713 165.028 85.1285 165.233 84.4125C165.471 83.5734 165.479 82.6747 165.251 81.8953C165.058 81.2277 164.614 80.4297 164.263 80.1239C163.726 79.654 161.164 79.5347 147.929 79.378C132.546 79.1953 132.196 79.1729 130.644 78.3525C129.772 77.8901 128.455 76.969 127.721 76.3014C126.986 75.6339 125.934 74.1683 125.39 73.0384C124.51 71.2148 124.398 70.5473 124.398 67.0642C124.398 63.4021 124.48 62.977 125.61 60.6313C126.348 59.106 127.37 57.6815 128.22 56.9916C128.989 56.3725 130.376 55.4924 132.975 54.2058L206.948 54.0007L207 63.3424H189.1V96.1595H180.523V63.3424L135.459 63.5289L134.485 64.4612C133.736 65.1847 133.516 65.7515 133.523 66.9784C133.531 68.1121 133.792 68.8542 135.332 70.6144L150.935 70.8008C165.266 70.9724 166.646 71.0432 167.843 71.6847C168.563 72.0725 169.861 72.9526 170.733 73.6425C171.79 74.4828 172.722 75.7396 173.53 77.4127C174.63 79.6876 174.742 80.2358 174.724 83.2863C174.712 86.0645 174.545 87.008 173.773 88.7011C173.254 89.831 172.173 91.4794 171.364 92.3669C170.554 93.2582 168.969 94.4329 165.792 95.9731H119.55L117.536 95.0408C116.414 94.5224 114.855 93.3663 114.012 92.4303C113.18 91.5092 112.073 89.831 110.6 86.65L110.518 70.8493Z" fill="#F4F4F4"/>
<path d="M50.4438 107.444C50.7048 106.777 51.171 106.072 51.4842 105.87C51.7938 105.669 52.5955 105.501 53.2631 105.494C53.9306 105.486 54.8107 105.65 55.2209 105.855C55.6311 106.061 55.8847 106.396 55.7803 106.601C55.6684 106.829 55.027 106.866 54.1432 106.695C53.0691 106.486 52.5321 106.56 52.0772 106.974C51.7378 107.28 51.4619 108.037 51.4693 108.652C51.473 109.268 51.6931 109.984 51.9504 110.245C52.2114 110.502 52.8864 110.715 53.4495 110.711C54.0126 110.707 54.5608 110.536 54.6615 110.331C54.7771 110.096 55.068 110.129 55.4409 110.424C55.9779 110.845 55.9705 110.935 55.3477 111.364C54.971 111.621 54.1581 111.833 53.5428 111.83C52.9274 111.83 52.0473 111.576 51.5849 111.267C51.1225 110.957 50.5743 110.241 50.3617 109.678C50.082 108.936 50.1044 108.32 50.4438 107.444Z" fill="#F4F4F4"/>
<path d="M58.4019 107.627C57.6785 106.654 57.0855 105.77 57.0855 105.669C57.0855 105.565 57.3801 105.486 57.7381 105.486C58.0961 105.49 58.7823 106.12 60.1323 108.279L61.1243 106.87C61.6724 106.094 62.3288 105.464 62.5861 105.471C62.8434 105.479 63.0523 105.565 63.0523 105.669C63.0523 105.77 62.5488 106.609 61.9335 107.534C61.2249 108.6 60.8147 109.689 60.8147 110.517C60.8147 111.427 60.6469 111.822 60.2553 111.822C59.8712 111.822 59.6997 111.446 59.7071 110.61C59.7146 109.794 59.2895 108.82 58.4019 107.627Z" fill="#F4F4F4"/>
<path d="M64.9169 111.822V108.652V105.483H66.9679C68.6871 105.483 69.1085 105.621 69.5635 106.322C69.9401 106.903 69.9961 107.358 69.7499 107.813C69.5187 108.235 69.5224 108.533 69.7648 108.652C69.97 108.753 70.1378 109.342 70.1378 109.958C70.1378 110.804 69.9103 111.166 69.2055 111.449C68.6946 111.654 67.5199 111.822 64.9169 111.822Z" fill="#F4F4F4"/>
<path d="M72.0024 111.822V108.652V105.483H74.4264C76.332 105.483 76.8504 105.602 76.8504 106.042C76.8504 106.463 76.3954 106.601 74.9857 106.601C73.371 106.601 73.1211 106.702 73.1211 107.347C73.1211 107.981 73.371 108.093 74.7993 108.093C76.0411 108.093 76.4774 108.238 76.4774 108.652C76.4774 109.066 76.0411 109.212 74.7993 109.212C73.371 109.212 73.1211 109.324 73.1211 109.958C73.1211 110.603 73.371 110.703 74.9857 110.703C76.3954 110.703 76.8504 110.841 76.8504 111.263C76.8504 111.703 76.332 111.822 72.0024 111.822Z" fill="#F4F4F4"/>
<path d="M79.2743 111.822C78.8194 111.822 78.715 111.222 78.715 108.652V105.483L80.6728 105.494C82.0116 105.497 82.8395 105.706 83.2944 106.146C83.6599 106.497 83.962 107.038 83.9657 107.347C83.9657 107.653 83.7084 108.115 83.3914 108.373C82.8768 108.79 82.8954 108.966 83.5629 110.051C83.9694 110.718 84.3051 111.39 84.3088 111.543C84.3088 111.695 84.0589 111.822 83.7494 111.822C83.4436 111.822 82.8544 111.233 82.4442 110.517C81.9034 109.574 81.441 109.212 80.766 109.212C79.9493 109.212 79.8337 109.372 79.8337 110.517C79.8337 111.427 79.6659 111.822 79.2743 111.822Z" fill="#F4F4F4"/>
<path d="M85.8639 107.347C85.7856 106.762 85.9907 106.24 86.4121 105.949C86.785 105.691 87.6353 105.483 88.3065 105.483C88.9815 105.483 89.7833 105.565 90.0891 105.669C90.3986 105.77 90.6485 106.105 90.6485 106.415C90.6485 106.829 90.3837 106.918 89.6229 106.758C89.0598 106.639 88.5153 106.534 88.4109 106.527C88.3102 106.519 87.9299 106.534 87.5719 106.557C87.2138 106.583 86.9603 106.792 87.0125 107.023C87.0647 107.258 87.777 107.687 88.5974 107.977C89.4178 108.268 90.3054 108.708 90.5701 108.951C90.8386 109.197 91.0438 109.648 91.0288 109.958C91.0139 110.263 90.7119 110.815 90.3576 111.181C89.9809 111.572 89.1791 111.845 88.4109 111.841C87.6949 111.837 86.785 111.621 86.3971 111.364C86.0056 111.102 85.7967 110.681 85.931 110.424C86.1063 110.088 86.3822 110.062 86.9192 110.331C87.3295 110.536 88.1275 110.662 88.6906 110.61C89.2537 110.558 89.7162 110.293 89.7162 110.017C89.7162 109.741 88.8771 109.238 87.8515 108.899C86.3524 108.399 85.9646 108.097 85.8639 107.347Z" fill="#F4F4F4"/>
<path d="M92.5765 109.063C92.5093 107.646 92.5466 106.262 92.6622 105.986C92.8039 105.635 93.6095 105.483 95.3025 105.483C97.2156 105.483 97.734 105.602 97.734 106.042C97.734 106.463 97.279 106.601 95.8694 106.601C94.2546 106.601 94.0047 106.702 94.0047 107.347C94.0047 107.981 94.2546 108.093 95.6829 108.093C96.9247 108.093 97.361 108.238 97.361 108.652C97.361 109.066 96.9247 109.212 95.6829 109.212C94.2546 109.212 94.0047 109.324 94.0047 109.958C94.0047 110.603 94.2546 110.703 95.8694 110.703C97.279 110.703 97.734 110.841 97.734 111.263C97.734 111.714 97.2454 111.804 92.6995 111.636L92.5765 109.063Z" fill="#F4F4F4"/>
<path d="M99.2443 108.634C99.2542 107.754 99.5588 107.008 100.158 106.396C100.788 105.755 101.478 105.479 102.47 105.468C103.249 105.456 104.096 105.665 104.35 105.934C104.607 106.199 104.689 106.53 104.536 106.672C104.383 106.814 103.589 106.836 102.768 106.721C101.575 106.549 101.183 106.646 100.803 107.205C100.546 107.593 100.333 108.283 100.337 108.746C100.341 109.208 100.598 109.835 100.904 110.144C101.213 110.45 101.967 110.703 102.582 110.703C103.197 110.703 103.801 110.495 103.928 110.237C104.103 109.868 104.241 109.876 104.581 110.263C104.909 110.64 104.834 110.879 104.26 111.293C103.85 111.591 102.97 111.833 102.302 111.83C101.512 111.826 100.766 111.498 100.158 110.89C99.5016 110.234 99.2294 109.562 99.2443 108.634Z" fill="#F4F4F4"/>
<path d="M107.43 111.125C106.639 110.502 106.475 110.021 106.36 107.936C106.24 105.863 106.311 105.483 106.826 105.483C107.292 105.483 107.43 105.859 107.43 107.161C107.43 108.082 107.598 109.257 107.803 109.771C108.086 110.476 108.448 110.703 109.295 110.703C110.04 110.703 110.538 110.455 110.786 109.958C110.991 109.547 111.159 108.373 111.159 107.347C111.159 105.938 111.297 105.483 111.719 105.483C112.155 105.483 112.278 105.979 112.278 107.72C112.278 109.592 112.129 110.111 111.364 110.89C110.831 111.431 110.007 111.83 109.406 111.837C108.832 111.848 107.945 111.524 107.43 111.125Z" fill="#F4F4F4"/>
<path d="M114.702 111.822C114.247 111.822 114.143 111.222 114.143 108.652V105.483L116.1 105.494C117.439 105.497 118.267 105.706 118.722 106.146C119.087 106.497 119.39 107.038 119.393 107.347C119.393 107.653 119.136 108.115 118.819 108.373C118.304 108.79 118.323 108.966 118.991 110.051C119.397 110.718 119.733 111.39 119.736 111.543C119.736 111.695 119.486 111.822 119.177 111.822C118.871 111.822 118.282 111.233 117.872 110.517C117.331 109.574 116.869 109.212 116.194 109.212C115.377 109.212 115.261 109.372 115.261 110.517C115.261 111.427 115.093 111.822 114.702 111.822Z" fill="#F4F4F4"/>
<path d="M121.787 111.822C121.332 111.822 121.228 111.222 121.228 108.652C121.228 106.083 121.332 105.483 121.787 105.483C122.242 105.483 122.347 106.083 122.347 108.652C122.347 111.222 122.242 111.822 121.787 111.822Z" fill="#F4F4F4"/>
<path d="M124.957 106.601C124.211 106.601 123.838 106.415 123.838 106.042C123.838 105.594 124.398 105.483 126.635 105.483C128.69 105.483 129.399 105.606 129.309 105.949C129.242 106.206 128.739 106.456 128.19 106.508C127.213 106.598 127.195 106.654 127.195 109.212C127.195 111.285 127.079 111.822 126.635 111.822C126.192 111.822 126.076 111.285 126.076 106.601H124.957Z" fill="#F4F4F4"/>
<path d="M132.695 110.472C132.639 109.659 132.102 108.406 131.334 107.302C130.215 105.703 130.148 105.483 130.771 105.471C131.174 105.464 131.89 106.038 133.348 108.115L134.28 106.799C134.795 106.079 135.507 105.486 135.865 105.486C136.272 105.483 136.425 105.658 136.268 105.949C136.13 106.206 135.544 107.045 134.963 107.813C134.273 108.731 133.907 109.663 133.907 110.517C133.907 111.427 133.74 111.822 133.348 111.822C132.971 111.822 132.759 111.382 132.695 110.472Z" fill="#F4F4F4"/>
<path d="M141.552 111.822C141.097 111.822 140.993 111.222 140.993 108.652V105.483H143.417C145.322 105.483 145.841 105.602 145.841 106.042C145.841 106.463 145.386 106.601 143.976 106.601C142.361 106.601 142.112 106.702 142.112 107.347C142.112 107.981 142.361 108.093 143.79 108.093C145.032 108.093 145.468 108.238 145.468 108.652C145.468 109.066 145.032 109.212 143.79 109.212C142.119 109.212 142.112 109.219 142.112 110.517C142.112 111.427 141.944 111.822 141.552 111.822Z" fill="#F4F4F4"/>
<path d="M147.892 111.822C147.437 111.822 147.333 111.222 147.333 108.652V105.483L149.29 105.494C150.629 105.497 151.457 105.706 151.912 106.146C152.277 106.497 152.572 106.997 152.565 107.254C152.557 107.511 152.345 108.041 152.087 108.429C151.703 109.014 151.733 109.305 152.274 110.107C152.632 110.64 152.926 111.244 152.926 111.449C152.926 111.654 152.718 111.815 152.46 111.807C152.203 111.8 151.655 111.255 151.244 110.595C150.737 109.79 150.159 109.368 149.473 109.305C148.537 109.219 148.451 109.32 148.451 110.517C148.451 111.427 148.283 111.822 147.892 111.822Z" fill="#F4F4F4"/>
<path d="M154.045 111.636C154.045 111.531 154.649 110.107 155.391 108.466C156.137 106.814 156.969 105.483 157.256 105.483C157.539 105.483 158.438 106.866 159.247 108.559C160.227 110.613 160.569 111.687 160.273 111.781C160.027 111.863 159.576 111.561 159.266 111.114C158.833 110.483 158.345 110.301 157.122 110.312C155.854 110.327 155.5 110.48 155.35 111.076C155.25 111.487 154.914 111.822 154.605 111.822C154.299 111.822 154.045 111.736 154.045 111.636Z" fill="#F4F4F4"/>
<path d="M162.809 111.822C162.354 111.822 162.249 111.222 162.249 108.652C162.249 106.788 162.402 105.483 162.622 105.483C162.827 105.483 163.223 105.859 163.499 106.322C163.775 106.784 164.319 107.705 165.419 109.581L166.538 107.653C167.153 106.598 167.866 105.673 168.123 105.606C168.47 105.516 168.589 106.299 168.589 108.652C168.589 111.222 168.485 111.822 168.03 111.822C167.612 111.822 167.47 111.375 167.463 108.279L166.534 109.864C166.023 110.737 165.438 111.364 165.233 111.263C165.028 111.158 164.532 110.446 163.402 108.279L163.383 110.051C163.372 111.371 163.226 111.822 162.809 111.822Z" fill="#F4F4F4"/>
<path d="M170.454 111.822V108.652V105.483H173.064C175.138 105.483 175.675 105.598 175.675 106.042C175.675 106.463 175.22 106.601 173.81 106.601C172.195 106.601 171.945 106.702 171.945 107.347C171.945 107.981 172.195 108.093 173.624 108.093C174.865 108.093 175.302 108.238 175.302 108.652C175.302 109.066 174.865 109.212 173.624 109.212C172.195 109.212 171.945 109.324 171.945 109.958C171.945 110.603 172.195 110.703 173.81 110.703C175.22 110.703 175.675 110.841 175.675 111.263C175.675 111.707 175.138 111.822 170.454 111.822Z" fill="#F4F4F4"/>
<path d="M177.893 109.119C177.472 107.631 177.058 106.206 176.976 105.949C176.89 105.684 177.144 105.483 177.558 105.483C177.99 105.483 178.296 105.747 178.315 106.135C178.33 106.493 178.55 107.459 179.27 109.771L179.896 107.627C180.284 106.307 180.702 105.531 180.989 105.609C181.246 105.68 181.723 106.642 182.644 109.771L183.092 108.093C183.342 107.168 183.618 106.206 183.711 105.949C183.804 105.691 184.132 105.483 184.438 105.483C184.86 105.483 184.938 105.732 184.748 106.508C184.61 107.071 184.222 108.455 183.886 109.585C183.487 110.923 183.055 111.669 182.644 111.729C182.186 111.796 181.887 111.367 181.548 110.152C181.291 109.23 181 108.574 180.895 108.69C180.795 108.805 180.534 109.514 180.325 110.267C180.094 111.084 179.68 111.673 179.299 111.729C178.8 111.8 178.49 111.226 177.893 109.119Z" fill="#F4F4F4"/>
<path d="M186.262 107.813C186.389 107.146 186.866 106.348 187.328 106.038C187.791 105.729 188.798 105.479 189.566 105.479C190.659 105.483 191.132 105.706 191.721 106.508C192.139 107.071 192.475 108.078 192.467 108.746C192.46 109.518 192.124 110.297 191.542 110.89C190.961 111.479 190.207 111.822 189.491 111.822C188.865 111.822 188.078 111.695 187.742 111.543C187.407 111.39 186.885 110.759 186.583 110.144C186.251 109.458 186.124 108.555 186.262 107.813Z" fill="#F4F4F4"/>
<path d="M194.787 111.699C194.44 111.792 194.321 111.006 194.321 108.652V105.483H196.185C197.554 105.483 198.248 105.68 198.796 106.228C199.206 106.639 199.545 107.101 199.549 107.254C199.553 107.407 199.322 107.869 199.034 108.279C198.583 108.928 198.606 109.167 199.213 110.144C199.598 110.759 199.911 111.39 199.914 111.543C199.914 111.695 199.665 111.822 199.355 111.822C199.049 111.822 198.568 111.36 198.289 110.797C198.009 110.234 197.505 109.644 197.17 109.491C196.834 109.339 196.308 109.212 195.999 109.212C195.637 109.212 195.406 109.633 195.346 110.394C195.294 111.047 195.044 111.632 194.787 111.699Z" fill="#F4F4F4"/>
<path d="M201.966 111.822C201.511 111.822 201.406 111.222 201.406 108.652C201.406 106.083 201.511 105.483 201.966 105.483C202.376 105.483 202.525 105.904 202.514 108.652L204.14 107.067C205.031 106.195 206.083 105.483 206.47 105.483C207.026 105.483 206.84 105.818 204.024 108.652L205.605 110.241C206.903 111.546 207.052 111.83 206.441 111.822C206.03 111.818 204.979 111.102 202.514 108.652L202.521 110.237C202.525 111.401 202.376 111.822 201.966 111.822Z" fill="#F4F4F4"/>
<path d="M67.2473 107.999C66.2554 108.077 66.0391 107.958 66.0391 107.346C66.0391 106.742 66.2889 106.6 67.3443 106.6C68.3773 106.6 68.6309 106.738 68.5526 107.253C68.4892 107.696 68.0678 107.935 67.2473 107.999Z" fill="#303034"/>
<path d="M80.7695 108.386C80.3257 108.323 79.9751 107.939 79.9006 107.439C79.7924 106.701 79.9416 106.6 81.1126 106.6C81.8472 106.6 82.5558 106.809 82.69 107.066C82.8243 107.324 82.6154 107.749 82.2239 108.013C81.836 108.278 81.1797 108.446 80.7695 108.386Z" fill="#303034"/>
<path d="M116.57 108.185C115.66 108.26 115.429 108.122 115.328 107.439C115.22 106.701 115.369 106.6 116.54 106.6C117.275 106.6 117.976 106.809 118.103 107.066C118.226 107.324 118.185 107.659 118.009 107.812C117.834 107.965 117.185 108.133 116.57 108.185Z" fill="#303034"/>
<path d="M149.76 108.151C148.839 108.256 148.619 108.129 148.518 107.439C148.41 106.701 148.559 106.6 149.73 106.6C150.465 106.6 151.166 106.809 151.293 107.066C151.416 107.324 151.375 107.644 151.199 107.779C151.024 107.917 150.375 108.084 149.76 108.151Z" fill="#303034"/>
<path d="M187.749 109.583C187.436 108.931 187.414 108.345 187.675 107.626C187.977 106.779 188.264 106.6 189.319 106.6C190.319 106.6 190.696 106.809 191.061 107.555C191.397 108.245 191.423 108.785 191.147 109.513C190.834 110.333 190.531 110.516 189.48 110.516C188.473 110.516 188.096 110.311 187.749 109.583Z" fill="#303034"/>
<path d="M195.909 108.461C195.652 108.461 195.443 108.047 195.443 107.532C195.443 106.716 195.603 106.6 196.748 106.6C197.803 106.6 198.053 106.742 198.053 107.346C198.053 107.816 197.744 108.159 197.214 108.275C196.752 108.371 196.166 108.457 195.909 108.461Z" fill="#303034"/>
<path d="M157.218 109.211C156.346 109.211 156.316 109.151 156.752 108.248C157.192 107.346 157.245 107.327 157.692 107.969C157.949 108.345 158.162 108.778 158.158 108.931C158.154 109.084 157.733 109.211 157.218 109.211Z" fill="#303034"/>
<path d="M67.4338 110.609C66.2554 110.687 66.0391 110.587 66.0391 109.956C66.0391 109.334 66.2889 109.211 67.5307 109.211C68.739 109.211 69.0038 109.334 68.9255 109.863C68.8583 110.329 68.4332 110.542 67.4338 110.609Z" fill="#303034"/>
</g>
</svg>
