<svg width="257" height="166" viewBox="0 0 257 166" fill="none" xmlns="http://www.w3.org/2000/svg">
<path opacity="0.5" d="M0 15C0 6.71572 6.71573 0 15 0H242C250.284 0 257 6.71573 257 15V151C257 159.284 250.284 166 242 166H15C6.71573 166 0 159.284 0 151V15Z" fill="#1C2D23"/>
<mask id="mask0_5122_3130" style="mask-type:alpha" maskUnits="userSpaceOnUse" x="0" y="0" width="257" height="166">
<path d="M0 15C0 6.71572 6.71573 0 15 0H242C250.284 0 257 6.71573 257 15V151C257 159.284 250.284 166 242 166H15C6.71573 166 0 159.284 0 151V15Z" fill="#1C2D23"/>
</mask>
<g mask="url(#mask0_5122_3130)">
<path fill-rule="evenodd" clip-rule="evenodd" d="M123.033 20.1656C110.446 21.1966 98.6685 27.4848 91.0494 37.2421C89.8719 38.7499 88.9088 40.0738 88.9088 40.1844C88.9088 40.2948 89.2686 40.3852 89.7086 40.3852C90.295 40.3852 90.9589 39.819 92.198 38.2619C94.216 35.7257 99.0491 31.1086 99.6859 31.1086C100.165 31.1086 104.149 33.3486 104.149 33.6183C104.149 33.7054 103.276 34.9283 102.208 36.3357C101.141 37.743 100.092 39.23 99.8774 39.6398C99.5226 40.3176 99.562 40.3852 100.312 40.3852C100.952 40.3852 101.576 39.8087 103.097 37.8113C104.174 36.3956 105.286 35.0472 105.566 34.8143C106.052 34.4104 107.384 34.7686 113.353 36.9072C113.675 37.0225 113.615 37.3763 113.104 38.3775C112.244 40.0645 112.258 40.3852 113.194 40.3852C113.771 40.3852 114.136 40.0161 114.696 38.8612C115.372 37.471 115.515 37.3574 116.336 37.5665C117.246 37.7977 124.366 38.6992 125.435 38.7184C125.83 38.7254 126.015 38.9931 126.015 39.557C126.015 40.6957 127.571 40.7709 127.731 39.6398C127.824 38.9871 128.106 38.8612 129.991 38.629C131.175 38.4829 133.486 38.1529 135.126 37.8955C138.401 37.3813 138.195 37.309 139.335 39.3665C139.679 39.9883 140.164 40.3852 140.577 40.3852C141.387 40.3852 141.409 40.1712 140.758 38.6141C140.485 37.9601 140.261 37.2981 140.261 37.1434C140.261 36.9887 141.118 36.5944 142.166 36.2671C143.214 35.9401 144.931 35.3262 145.982 34.9024L147.892 34.1325L149.582 36.163C150.512 37.2799 151.59 38.685 151.979 39.2853C152.494 40.0811 152.932 40.3783 153.597 40.3812C154.098 40.3832 154.508 40.2964 154.508 40.1878C154.508 39.9078 153.33 38.2569 151.286 35.6727L149.524 33.445L150.773 32.6581C151.461 32.2251 152.502 31.6238 153.088 31.3217L154.153 30.7723L156.456 32.7539C158.519 34.5294 161.549 37.8143 162.89 39.7289C163.234 40.2199 163.66 40.4028 164.284 40.3276L165.184 40.2196L163.601 38.0661C161.314 34.9531 156.733 30.5759 153.323 28.2445C144.24 22.0351 133.895 19.2757 123.033 20.1656ZM123.696 21.6849C123.241 21.7621 121.638 21.9911 120.134 22.1941C118.631 22.3972 117.401 22.6696 117.401 22.7991C117.401 23.2093 119.809 24.4003 121.874 25.0116C124.233 25.7103 129.104 25.7911 131.316 25.1686C133.216 24.6336 136.286 23.193 136.286 22.8359C136.286 22.1809 126.208 21.2595 123.696 21.6849ZM138.391 23.6963C137.991 24.0196 137.909 24.2492 138.158 24.3543C139.175 24.785 144.453 28.6934 146.191 30.3022L148.152 32.1178L150.165 31.0334C151.272 30.4371 152.18 29.8354 152.183 29.6966C152.199 28.9588 146.033 25.6788 141.869 24.2105C139.286 23.2994 138.944 23.2487 138.391 23.6963ZM111.601 24.2797C107.902 25.7193 101.498 29.2145 101.498 29.7943C101.498 29.9308 102.45 30.5355 103.612 31.1384L105.726 32.2341L107.974 30.1743C109.21 29.0416 111.467 27.2688 112.99 26.2344C114.512 25.2004 115.706 24.1969 115.643 24.0044C115.435 23.3693 113.623 23.4929 111.601 24.2797ZM134.712 25.7232C134.12 26.0181 133.635 26.362 133.635 26.4879C133.635 26.6135 134.918 28.6364 136.485 30.9831C138.832 34.4962 139.46 35.2294 140.04 35.1333C141.669 34.864 146.247 32.9964 146.131 32.6482C145.828 31.7391 136.638 25.0205 135.896 25.1663C135.837 25.1779 135.304 25.4287 134.712 25.7232ZM115.579 26.5532C113.591 27.7899 108.858 31.4234 108.028 32.3507C107.447 32.9987 107.466 33.0262 108.856 33.5848C111.146 34.5049 114.184 35.3954 114.457 35.2268C114.596 35.141 115.405 33.9184 116.255 32.5101C117.104 31.1013 118.394 29.1549 119.121 28.1842C119.848 27.2138 120.392 26.3868 120.33 26.3464C119.79 25.9952 118.253 25.481 117.8 25.4996C117.489 25.5122 116.49 25.9863 115.579 26.5532ZM121.237 28.2402C119.678 30.1442 116.385 35.4434 116.573 35.7466C116.842 36.1819 124.782 37.1431 125.601 36.8392C125.905 36.7266 126.015 35.4637 126.015 32.09V27.4944L124.773 27.2953C124.09 27.1859 123.268 27.0438 122.948 26.9792C122.58 26.9053 121.949 27.3705 121.237 28.2402ZM128.782 27.3622C128.391 27.4387 127.983 27.8287 127.876 28.2282C127.618 29.189 127.616 35.5471 127.873 36.2167C128.029 36.6236 128.566 36.7382 130.275 36.7286C132.334 36.7173 136.76 36.0451 137.116 35.6903C137.346 35.4593 134.772 31.261 133.037 29.038C131.495 27.0634 131.102 26.9086 128.782 27.3622ZM111.362 44.8761C107.244 45.8743 104.113 48.1534 102.585 51.265C101.765 52.9361 101.664 53.5013 101.664 56.4536C101.664 60.4939 102.277 61.9874 104.986 64.5498C107.378 66.8116 109.535 67.7605 118.229 70.3751C125.607 72.5936 127.009 73.1694 127.009 73.9801C127.009 74.7756 126.154 75.1731 123.824 75.462C118.385 76.1356 112.493 74.0159 110.403 70.6339L109.727 69.5402H105.778H101.83V76.829V84.1177H106.094H110.359L110.571 82.7925C110.688 82.0636 110.86 81.4673 110.954 81.4673C111.048 81.4673 112.016 81.9169 113.104 82.4665C116.009 83.9325 119.936 84.7754 123.875 84.778C133.166 84.7847 138.877 80.4048 139.207 73.019C139.359 69.6118 138.573 67.395 136.326 64.887C133.785 62.0507 132.047 61.2211 123.53 58.7784C119.339 57.5764 115.65 56.5142 115.333 56.4185C114.47 56.1587 113.757 55.3315 113.757 54.591C113.757 53.5129 115.787 52.8699 118.377 53.1273C122.955 53.5825 125.959 54.8322 128.558 57.363L130.273 59.0328L134.12 58.8632C136.235 58.7698 138.054 58.6061 138.161 58.4991C138.268 58.3921 138.246 55.3908 138.113 51.8296L137.87 45.3548H133.765H129.66V46.3487C129.66 46.8954 129.531 47.3427 129.374 47.3427C129.217 47.3427 128.096 46.8928 126.884 46.3431C125.672 45.7935 123.628 45.1226 122.344 44.8522C119.467 44.2469 113.908 44.2592 111.362 44.8761ZM154.898 45.0053C153.564 45.333 151.231 46.2162 149.714 46.968C143.45 50.072 140.538 55.7393 140.5 64.9019C140.458 74.7669 144.627 80.7066 153.679 83.6801C157.506 84.9367 163.95 85.1342 168.402 84.1307C178.268 81.9069 183 75.513 183 64.405C183 53.2489 178.357 47.2907 167.789 44.887C164.599 44.1615 158.091 44.2211 154.898 45.0053ZM74 49.4962V54.3001H76.8161H79.6322V64.405V74.5098H76.8161H74V79.3138V84.1177H86.7553H99.5106V79.3138V74.5098H96.5239H93.5375L93.625 64.4878L93.7128 54.4658L96.6117 54.37L99.5106 54.2743V49.4832V44.6922H86.7553H74V49.4962ZM159.385 54.4293C157.374 54.9826 156.322 55.9739 155.879 57.7318C154.835 61.8798 155.2 70.5915 156.507 72.7062C157.82 74.8312 162.501 75.688 165.294 74.3147C167.72 73.1217 167.926 72.3444 167.926 64.3463C167.926 57.7802 167.882 57.2706 167.241 56.395C165.859 54.5039 162.326 53.6199 159.385 54.4293ZM89.1086 88.3694C88.8349 88.812 92.8653 93.6733 95.747 96.3761C102.179 102.409 110.684 106.648 119.389 108.158C124.179 108.99 133.616 108.676 138.108 107.535C145.99 105.534 153.105 101.645 158.772 96.2366C161.017 94.0947 165.109 89.0724 165.109 88.4599C165.109 88.2584 164.771 88.0934 164.356 88.0934C163.817 88.0934 163.191 88.658 162.158 90.0766C160.649 92.1496 155.099 97.7013 154.537 97.7013C154.292 97.7013 150.535 95.6655 149.941 95.2112C149.89 95.1718 150.896 93.7432 152.178 92.0367C153.459 90.3301 154.508 88.7448 154.508 88.5139C154.508 88.2826 154.156 88.0934 153.726 88.0934C153.152 88.0934 152.637 88.5546 151.783 89.8328C151.144 90.7893 150.037 92.2262 149.322 93.0256C148.039 94.4621 148.012 94.4731 147.042 93.9818C146.501 93.7084 144.829 93.0796 143.326 92.584C141.823 92.0887 140.598 91.5092 140.604 91.2965C140.611 91.0838 140.829 90.5368 141.09 90.0813C141.777 88.8786 141.71 88.0934 140.92 88.0934C140.456 88.0934 140.028 88.5559 139.513 89.6161L138.773 91.1388L137.115 90.8969C136.204 90.7641 133.824 90.4871 131.827 90.282C128.364 89.9262 128.188 89.8709 128.004 89.084C127.884 88.5748 127.539 88.2197 127.102 88.1564C126.543 88.0752 126.372 88.2475 126.288 88.979L126.181 89.904L122.371 90.293C120.275 90.507 117.947 90.7863 117.197 90.9138C115.85 91.1428 115.823 91.1279 115.039 89.7023C114.529 88.7766 113.978 88.221 113.503 88.1531C112.599 88.0239 112.586 88.2876 113.399 90.1843L114.034 91.6676L110.032 93.064L106.029 94.4608L105.402 93.6793C105.058 93.2492 103.946 91.8167 102.931 90.4954C101.799 89.0204 100.847 88.0934 100.464 88.0934C99.4152 88.0934 99.7535 88.9432 101.976 91.8892C103.149 93.445 104.185 94.8412 104.278 94.9912C104.371 95.1413 103.475 95.8324 102.288 96.5268C100.351 97.6602 100.048 97.7461 99.335 97.3647C98.2109 96.7631 94.0653 92.6174 92.1344 90.1641C90.6329 88.2561 89.5688 87.625 89.1086 88.3694ZM121.046 92.0602C118.259 92.42 116.739 92.7403 116.739 92.9673C116.739 93.3069 119.754 98.0714 121.15 99.9377C122.509 101.755 122.76 101.852 125.104 101.464L126.347 101.259V96.4984V91.7378L124.607 91.7812C123.651 91.8051 122.048 91.9306 121.046 92.0602ZM128.003 96.4497V101.259L129.245 101.464C131.874 101.899 132.033 101.824 133.801 99.3171C135.437 96.9967 137.599 93.4218 137.607 93.0233C137.613 92.7075 134.126 92.1016 130.902 91.8587L128.003 91.6401V96.4497ZM111.154 94.3737C109.631 94.8945 108.226 95.4793 108.032 95.6734C107.486 96.2197 111.838 99.9108 115.691 102.169C117.955 103.496 118.006 103.505 119.575 102.85L120.733 102.366L118.621 99.288C117.459 97.5953 116.16 95.5767 115.734 94.8024C115.309 94.0281 114.727 93.4016 114.441 93.4106C114.156 93.4195 112.676 93.8529 111.154 94.3737ZM139.11 94.0301C138.999 94.3797 137.796 96.3493 136.437 98.4067C135.078 100.464 133.967 102.242 133.967 102.356C133.967 102.471 134.532 102.751 135.223 102.979C136.416 103.373 136.581 103.334 138.529 102.192C140.652 100.948 144.941 97.655 146.004 96.453C146.596 95.7837 146.593 95.7562 145.88 95.3746C144.794 94.7934 140.565 93.3943 139.894 93.3943C139.574 93.3943 139.221 93.6806 139.11 94.0301ZM103.569 97.752C102.613 98.306 101.83 98.8785 101.83 99.0239C101.83 99.772 108.853 103.474 112.521 104.658C114.53 105.307 116.076 105.327 116.076 104.703C116.076 104.569 114.92 103.698 113.508 102.766C112.096 101.834 109.79 100.089 108.385 98.8894C106.979 97.6891 105.711 96.7157 105.569 96.726C105.425 96.7362 104.526 97.1981 103.569 97.752ZM146.888 97.9091C145.509 99.3131 142.815 101.422 140.164 103.173C138.419 104.325 138.292 104.488 138.765 104.961C139.239 105.434 139.53 105.398 141.974 104.555C146.608 102.957 152.675 99.6749 152.428 98.9007C152.28 98.4372 149.217 96.722 148.544 96.7256C148.271 96.7273 147.525 97.2597 146.888 97.9091ZM123.167 103.495C121.06 103.953 117.733 105.456 117.733 105.949C117.733 106.451 123.069 107.103 127.175 107.103C131.628 107.103 136.711 106.433 136.524 105.871C136.32 105.257 133.398 103.982 131.062 103.486C128.341 102.91 125.842 102.912 123.167 103.495ZM91.7349 125.397C89.2988 126.288 87.4269 128.741 87.2016 131.336L87.0873 132.654L89.6546 132.751L92.2219 132.848V131.84C92.2219 130.722 93.2188 129.507 94.1358 129.507C95.3759 129.507 96.1976 130.464 96.1976 131.907C96.1976 133.795 95.4369 134.761 91.0424 138.452L87.2954 141.6L87.2738 143.67L87.2523 145.741H94.541H101.83V143.587V141.434H98.3511C96.4378 141.434 94.8723 141.348 94.8723 141.242C94.8723 141.137 96.0886 139.907 97.5755 138.509C99.0909 137.084 100.543 135.385 100.881 134.642C101.694 132.854 101.676 130.08 100.841 128.369C99.4053 125.429 95.3037 124.09 91.7349 125.397ZM125.88 125.369C123.897 126.126 122.517 127.341 121.659 129.084C120.953 130.517 120.88 131.104 120.88 135.305C120.88 138.33 121.034 140.378 121.323 141.194C122.795 145.356 128.049 147.305 132.208 145.233C135.47 143.607 136.454 140.937 136.22 134.343C136.072 130.157 135.722 128.939 134.176 127.238C132.397 125.281 128.444 124.39 125.88 125.369ZM143.572 125.178C140.959 125.973 138.869 127.96 138.258 130.228C138.032 131.066 137.928 133.487 137.995 136.306C138.105 140.848 138.138 141.04 139.107 142.606C141.716 146.824 148.359 147.325 151.479 143.539C152.88 141.84 153.183 140.36 153.175 135.266C153.167 130.102 152.821 128.856 150.866 126.954C149.092 125.229 145.934 124.46 143.572 125.178ZM104.812 127.519V129.838H108.622C110.717 129.838 112.432 129.892 112.432 129.957C112.432 130.091 110.659 133.936 108.287 138.949C107.425 140.771 106.367 143.045 105.936 144.001L105.151 145.741L108.046 145.74L110.941 145.74L114.506 137.54C117.791 129.986 118.071 129.178 118.068 127.27L118.064 125.2H111.438H104.812V127.519ZM156.963 125.653C156.867 125.903 156.835 126.909 156.891 127.89L156.992 129.672L158.815 129.838C159.817 129.929 160.6 130.115 160.554 130.252C160.508 130.389 160.471 133.93 160.471 138.121V145.741H162.956H165.441V135.47V125.2H161.289C158.08 125.2 157.098 125.303 156.963 125.653ZM127.009 130.169C126.411 130.768 126.347 131.274 126.347 135.396C126.347 138.992 126.456 140.118 126.862 140.697C127.547 141.676 129.319 141.696 130.188 140.736C130.745 140.121 130.819 139.497 130.819 135.406C130.819 130.937 130.792 130.751 130.037 130.14C129.027 129.323 127.844 129.334 127.009 130.169ZM144.057 130.32C143.279 131.097 143.243 131.317 143.243 135.311C143.243 140.447 143.624 141.418 145.645 141.429C146.146 141.432 146.854 141.136 147.219 140.771C147.815 140.175 147.881 139.667 147.881 135.681C147.881 131.703 147.812 131.164 147.195 130.38C146.326 129.275 145.124 129.252 144.057 130.32Z" fill="white"/>
</g>
</svg>
