<svg width="47" height="47" viewBox="0 0 47 47" fill="none" xmlns="http://www.w3.org/2000/svg">
<circle cx="23.5" cy="23.5" r="23.5" fill="black"/>
<path d="M13.1852 22.4026C13.1852 22.2096 13.2234 22.0186 13.2974 21.8404C13.3715 21.6622 13.48 21.5004 13.6168 21.3643C13.7536 21.2282 13.9159 21.1204 14.0944 21.0472C14.273 20.974 14.4642 20.9368 14.6572 20.9377L17.0977 20.9457C17.4868 20.9457 17.86 21.1002 18.1351 21.3754C18.4103 21.6505 18.5649 22.0237 18.5649 22.4128V31.6408C18.8396 31.5592 19.1925 31.4723 19.5786 31.3814C19.8468 31.3184 20.0858 31.1666 20.2569 30.9507C20.428 30.7347 20.521 30.4673 20.521 30.1918V18.7449C20.521 18.3558 20.6755 17.9826 20.9507 17.7074C21.2258 17.4322 21.599 17.2776 21.9881 17.2775H24.4335C24.8226 17.2776 25.1958 17.4322 25.4709 17.7074C25.7461 17.9826 25.9006 18.3558 25.9006 18.7449V29.3687C25.9006 29.3687 26.5129 29.121 27.1092 28.8693C27.3308 28.7756 27.5198 28.6187 27.6528 28.4183C27.7858 28.2179 27.8568 27.9827 27.857 27.7422V15.077C27.857 14.688 28.0116 14.3148 28.2866 14.0397C28.5617 13.7645 28.9348 13.61 29.3239 13.6099H31.7693C32.1584 13.6099 32.5315 13.7644 32.8067 14.0396C33.0818 14.3147 33.2364 14.6879 33.2364 15.077V25.5065C35.3565 23.97 37.5049 22.1222 39.2099 19.9001C39.4573 19.5776 39.621 19.1988 39.6863 18.7977C39.7517 18.3966 39.7167 17.9855 39.5846 17.6011C38.7953 15.3304 37.541 13.2495 35.9014 11.4914C34.2618 9.73342 32.2732 8.33703 30.063 7.39164C27.8528 6.44625 25.4696 5.97267 23.0658 6.00122C20.662 6.02976 18.2907 6.55981 16.1036 7.55742C13.9164 8.55503 11.9616 9.99825 10.3643 11.7947C8.76691 13.5912 7.56217 15.7013 6.82714 17.9901C6.09211 20.2789 5.84299 22.6959 6.0957 25.0865C6.34842 27.4771 7.09742 29.7886 8.29476 31.8732C8.50334 32.2327 8.81021 32.5254 9.1793 32.7166C9.54839 32.9078 9.96439 32.9898 10.3785 32.9528C10.841 32.9122 11.4169 32.8545 12.1016 32.7741C12.3997 32.7403 12.6748 32.5979 12.8747 32.3743C13.0746 32.1506 13.1852 31.8612 13.1855 31.5612L13.1852 22.4026Z" fill="white"/>
<path d="M13.1328 37.2049C15.7104 39.0801 18.7565 40.2057 21.9341 40.4571C25.1117 40.7083 28.2969 40.0759 31.1373 38.6292C33.9777 37.1825 36.3624 34.9783 38.0278 32.2605C39.693 29.5425 40.574 26.4169 40.5732 23.2293C40.5732 22.8316 40.5547 22.4381 40.5283 22.0469C34.2156 31.4618 22.5599 35.8633 13.1334 37.2035" fill="#979695"/>
</svg>
