<svg width="297" height="52" viewBox="0 0 297 52" fill="none" xmlns="http://www.w3.org/2000/svg">
<path d="M8 52H274.5L297 39.9688V8H278V10.75H253V8H28.5L8 20.375V52Z" fill="#735AA9"/>
<path d="M292 1H271V3.75H248V1H22.2217L21.9834 1.14355L1.4834 13.5186L1 13.8105V47H268.751L268.972 46.8818L291.472 34.8506L292 34.5684V1Z" fill="url(#paint0_linear_4357_2381)" stroke="url(#paint1_linear_4357_2381)" stroke-width="2"/>
<path d="M75.299 19.341C75.299 19.4543 75.2423 19.511 75.129 19.511H69.094C69.0487 19.511 69.026 19.5337 69.026 19.579V23.234C69.026 23.2793 69.0487 23.302 69.094 23.302H73.242C73.3553 23.302 73.412 23.3587 73.412 23.472V24.543C73.412 24.6563 73.3553 24.713 73.242 24.713H69.094C69.0487 24.713 69.026 24.7357 69.026 24.781V28.521C69.026 28.5663 69.0487 28.589 69.094 28.589H75.129C75.2423 28.589 75.299 28.6457 75.299 28.759V29.83C75.299 29.9433 75.2423 30 75.129 30H67.564C67.4507 30 67.394 29.9433 67.394 29.83V18.27C67.394 18.1567 67.4507 18.1 67.564 18.1H75.129C75.2423 18.1 75.299 18.1567 75.299 18.27V19.341ZM76.7382 30C76.6702 30 76.6248 29.983 76.6022 29.949C76.5795 29.9037 76.5852 29.8527 76.6192 29.796L79.4412 25.733C79.4638 25.699 79.4638 25.665 79.4412 25.631L76.6192 21.551L76.5852 21.466C76.5852 21.3867 76.6362 21.347 76.7382 21.347H78.1152C78.2058 21.347 78.2738 21.381 78.3192 21.449L80.3082 24.356C80.3195 24.3673 80.3365 24.373 80.3592 24.373C80.3818 24.373 80.3988 24.3673 80.4102 24.356L82.3822 21.449C82.4275 21.381 82.4955 21.347 82.5862 21.347H84.0652C84.1332 21.347 84.1785 21.3697 84.2012 21.415C84.2238 21.449 84.2182 21.4943 84.1842 21.551L81.3622 25.631C81.3508 25.665 81.3508 25.699 81.3622 25.733L84.1842 29.796L84.2182 29.881C84.2182 29.9603 84.1672 30 84.0652 30H82.6712C82.5805 30 82.5125 29.966 82.4672 29.898L80.4952 26.991C80.4838 26.9683 80.4668 26.957 80.4442 26.957C80.4215 26.957 80.4045 26.9683 80.3932 26.991L78.4042 29.898C78.3588 29.966 78.2908 30 78.2002 30H76.7382ZM92.8546 23.523C93.0699 24.135 93.1776 24.8603 93.1776 25.699C93.1776 26.4923 93.0869 27.178 92.9056 27.756C92.6676 28.5153 92.2766 29.1047 91.7326 29.524C91.1886 29.932 90.4916 30.136 89.6416 30.136C89.2562 30.136 88.8879 30.0623 88.5366 29.915C88.1966 29.7563 87.9019 29.5353 87.6526 29.252C87.6299 29.2293 87.6072 29.2237 87.5846 29.235C87.5732 29.2463 87.5676 29.2633 87.5676 29.286V33.077C87.5676 33.1903 87.5109 33.247 87.3976 33.247H86.1056C85.9922 33.247 85.9356 33.1903 85.9356 33.077V21.517C85.9356 21.4037 85.9922 21.347 86.1056 21.347H87.3976C87.5109 21.347 87.5676 21.4037 87.5676 21.517V22.078C87.5676 22.1007 87.5732 22.1177 87.5846 22.129C87.6072 22.1403 87.6299 22.1347 87.6526 22.112C87.9019 21.8287 88.1966 21.6077 88.5366 21.449C88.8766 21.2903 89.2449 21.211 89.6416 21.211C90.4576 21.211 91.1319 21.415 91.6646 21.823C92.2086 22.2197 92.6052 22.7863 92.8546 23.523ZM90.9846 27.909C91.3472 27.365 91.5286 26.617 91.5286 25.665C91.5286 24.7923 91.3869 24.0897 91.1036 23.557C90.7749 22.9337 90.2366 22.622 89.4886 22.622C88.8312 22.622 88.3326 22.928 87.9926 23.54C87.7206 24.0273 87.5846 24.7413 87.5846 25.682C87.5846 26.634 87.7319 27.3593 88.0266 27.858C88.3552 28.436 88.8369 28.725 89.4716 28.725C90.1516 28.725 90.6559 28.453 90.9846 27.909ZM95.483 30C95.3697 30 95.313 29.9433 95.313 29.83V18.27C95.313 18.1567 95.3697 18.1 95.483 18.1H96.775C96.8884 18.1 96.945 18.1567 96.945 18.27V29.83C96.945 29.9433 96.8884 30 96.775 30H95.483ZM102.85 30.136C102.011 30.136 101.28 29.9263 100.657 29.507C100.034 29.0763 99.5974 28.4813 99.348 27.722C99.144 27.11 99.042 26.4187 99.042 25.648C99.042 24.8433 99.1384 24.1633 99.331 23.608C99.5804 22.86 100.017 22.2763 100.64 21.857C101.263 21.4263 102.006 21.211 102.867 21.211C103.683 21.211 104.391 21.4263 104.992 21.857C105.604 22.2763 106.04 22.8543 106.301 23.591C106.505 24.169 106.607 24.849 106.607 25.631C106.607 26.4243 106.505 27.1213 106.301 27.722C106.052 28.4813 105.621 29.0763 105.009 29.507C104.397 29.9263 103.677 30.136 102.85 30.136ZM102.85 28.725C103.303 28.725 103.7 28.6003 104.04 28.351C104.38 28.0903 104.624 27.7277 104.771 27.263C104.896 26.8323 104.958 26.2997 104.958 25.665C104.958 25.0303 104.901 24.5033 104.788 24.084C104.641 23.6193 104.397 23.2623 104.057 23.013C103.717 22.7523 103.303 22.622 102.816 22.622C102.351 22.622 101.949 22.7523 101.609 23.013C101.269 23.2623 101.025 23.6193 100.878 24.084C100.753 24.4807 100.691 25.0077 100.691 25.665C100.691 26.3223 100.753 26.855 100.878 27.263C101.014 27.7277 101.252 28.0903 101.592 28.351C101.943 28.6003 102.363 28.725 102.85 28.725ZM112.535 21.262C112.897 21.262 113.226 21.3357 113.521 21.483C113.6 21.517 113.628 21.585 113.606 21.687L113.334 22.962C113.322 23.064 113.254 23.098 113.13 23.064C112.937 22.9847 112.71 22.945 112.45 22.945L112.212 22.962C111.679 22.9847 111.237 23.1717 110.886 23.523C110.546 23.863 110.376 24.3107 110.376 24.866V29.83C110.376 29.9433 110.319 30 110.206 30H108.914C108.8 30 108.744 29.9433 108.744 29.83V21.517C108.744 21.4037 108.8 21.347 108.914 21.347H110.206C110.319 21.347 110.376 21.4037 110.376 21.517V22.418C110.376 22.452 110.381 22.4747 110.393 22.486C110.415 22.486 110.432 22.4747 110.444 22.452C110.954 21.6587 111.651 21.262 112.535 21.262ZM121.923 24.594C121.969 25.0587 121.986 25.58 121.974 26.158C121.974 26.2713 121.918 26.328 121.804 26.328H116.381C116.336 26.328 116.313 26.3507 116.313 26.396C116.313 26.7813 116.347 27.076 116.415 27.28C116.54 27.7333 116.789 28.0903 117.163 28.351C117.549 28.6003 118.03 28.725 118.608 28.725C119.447 28.725 120.093 28.3793 120.546 27.688C120.603 27.5747 120.677 27.5577 120.767 27.637L121.736 28.283C121.816 28.351 121.833 28.4247 121.787 28.504C121.47 29.014 121.017 29.4163 120.427 29.711C119.849 30.0057 119.192 30.153 118.455 30.153C117.628 30.153 116.931 29.9717 116.364 29.609C115.798 29.2463 115.373 28.7307 115.089 28.062C114.817 27.3933 114.681 26.583 114.681 25.631C114.681 24.8037 114.744 24.1747 114.868 23.744C115.072 22.962 115.48 22.3443 116.092 21.891C116.704 21.4377 117.447 21.211 118.319 21.211C119.464 21.211 120.32 21.5 120.886 22.078C121.453 22.6447 121.799 23.4833 121.923 24.594ZM118.319 22.622C117.832 22.622 117.43 22.7467 117.112 22.996C116.795 23.234 116.58 23.557 116.466 23.965C116.387 24.2143 116.336 24.5317 116.313 24.917C116.313 24.9623 116.336 24.985 116.381 24.985H120.274C120.32 24.985 120.342 24.9623 120.342 24.917C120.32 24.543 120.286 24.2653 120.24 24.084C120.127 23.642 119.9 23.2907 119.56 23.03C119.232 22.758 118.818 22.622 118.319 22.622ZM131.517 30.153C130.69 30.153 129.959 29.983 129.324 29.643C128.689 29.303 128.196 28.827 127.845 28.215C127.494 27.5917 127.318 26.8777 127.318 26.073V22.027C127.318 21.2223 127.494 20.514 127.845 19.902C128.196 19.29 128.689 18.814 129.324 18.474C129.959 18.134 130.69 17.964 131.517 17.964C132.356 17.964 133.092 18.134 133.727 18.474C134.362 18.814 134.855 19.29 135.206 19.902C135.557 20.514 135.733 21.2223 135.733 22.027V26.073C135.733 26.8777 135.557 27.5917 135.206 28.215C134.855 28.827 134.362 29.303 133.727 29.643C133.092 29.983 132.356 30.153 131.517 30.153ZM131.517 28.742C132.288 28.742 132.911 28.504 133.387 28.028C133.863 27.552 134.101 26.923 134.101 26.141V22.01C134.101 21.2167 133.863 20.582 133.387 20.106C132.911 19.6187 132.288 19.375 131.517 19.375C130.746 19.375 130.123 19.6187 129.647 20.106C129.182 20.582 128.95 21.2167 128.95 22.01V26.141C128.95 26.923 129.182 27.552 129.647 28.028C130.123 28.504 130.746 28.742 131.517 28.742ZM143.163 21.517C143.163 21.4037 143.22 21.347 143.333 21.347H144.608C144.722 21.347 144.778 21.4037 144.778 21.517V29.83C144.778 29.9433 144.722 30 144.608 30H143.333C143.22 30 143.163 29.9433 143.163 29.83V29.201C143.163 29.1783 143.152 29.167 143.129 29.167C143.118 29.1557 143.101 29.1613 143.078 29.184C142.625 29.8073 141.928 30.119 140.987 30.119C140.432 30.119 139.916 30.0113 139.44 29.796C138.976 29.5807 138.602 29.2633 138.318 28.844C138.035 28.4247 137.893 27.9147 137.893 27.314V21.517C137.893 21.4037 137.95 21.347 138.063 21.347H139.338C139.452 21.347 139.508 21.4037 139.508 21.517V26.804C139.508 27.3933 139.661 27.858 139.967 28.198C140.285 28.538 140.727 28.708 141.293 28.708C141.86 28.708 142.313 28.538 142.653 28.198C142.993 27.8467 143.163 27.382 143.163 26.804V21.517ZM150.951 21.262C151.313 21.262 151.642 21.3357 151.937 21.483C152.016 21.517 152.044 21.585 152.022 21.687L151.75 22.962C151.738 23.064 151.67 23.098 151.546 23.064C151.353 22.9847 151.126 22.945 150.866 22.945L150.628 22.962C150.095 22.9847 149.653 23.1717 149.302 23.523C148.962 23.863 148.792 24.3107 148.792 24.866V29.83C148.792 29.9433 148.735 30 148.622 30H147.33C147.216 30 147.16 29.9433 147.16 29.83V21.517C147.16 21.4037 147.216 21.347 147.33 21.347H148.622C148.735 21.347 148.792 21.4037 148.792 21.517V22.418C148.792 22.452 148.797 22.4747 148.809 22.486C148.831 22.486 148.848 22.4747 148.86 22.452C149.37 21.6587 150.067 21.262 150.951 21.262ZM160.748 30.136C159.875 30.136 159.116 30 158.47 29.728C157.835 29.456 157.342 29.0707 156.991 28.572C156.651 28.0733 156.481 27.4897 156.481 26.821V26.328C156.481 26.2147 156.537 26.158 156.651 26.158H157.892C158.005 26.158 158.062 26.2147 158.062 26.328V26.736C158.062 27.314 158.311 27.79 158.81 28.164C159.308 28.538 159.994 28.725 160.867 28.725C161.649 28.725 162.238 28.5607 162.635 28.232C163.031 27.9033 163.23 27.4727 163.23 26.94C163.23 26.5887 163.128 26.2883 162.924 26.039C162.72 25.7897 162.419 25.563 162.023 25.359C161.637 25.1437 161.071 24.8887 160.323 24.594C159.495 24.2767 158.838 23.9877 158.351 23.727C157.875 23.4663 157.478 23.1263 157.161 22.707C156.843 22.2763 156.685 21.738 156.685 21.092C156.685 20.1173 157.03 19.3523 157.722 18.797C158.424 18.2417 159.371 17.964 160.561 17.964C161.399 17.964 162.136 18.1057 162.771 18.389C163.405 18.6723 163.893 19.069 164.233 19.579C164.584 20.089 164.76 20.6783 164.76 21.347V21.687C164.76 21.8003 164.703 21.857 164.59 21.857H163.315C163.201 21.857 163.145 21.8003 163.145 21.687V21.432C163.145 20.8427 162.907 20.3553 162.431 19.97C161.966 19.5733 161.32 19.375 160.493 19.375C159.79 19.375 159.246 19.5223 158.861 19.817C158.475 20.1003 158.283 20.514 158.283 21.058C158.283 21.432 158.379 21.738 158.572 21.976C158.764 22.214 159.048 22.4293 159.422 22.622C159.807 22.8033 160.391 23.0413 161.173 23.336C161.977 23.6533 162.629 23.948 163.128 24.22C163.626 24.4807 164.04 24.832 164.369 25.274C164.697 25.7047 164.862 26.243 164.862 26.889C164.862 27.8863 164.493 28.6797 163.757 29.269C163.031 29.847 162.028 30.136 160.748 30.136ZM170.402 30.136C169.563 30.136 168.832 29.9263 168.209 29.507C167.585 29.0763 167.149 28.4813 166.9 27.722C166.696 27.11 166.594 26.4187 166.594 25.648C166.594 24.8433 166.69 24.1633 166.883 23.608C167.132 22.86 167.568 22.2763 168.192 21.857C168.815 21.4263 169.557 21.211 170.419 21.211C171.235 21.211 171.943 21.4263 172.544 21.857C173.156 22.2763 173.592 22.8543 173.853 23.591C174.057 24.169 174.159 24.849 174.159 25.631C174.159 26.4243 174.057 27.1213 173.853 27.722C173.603 28.4813 173.173 29.0763 172.561 29.507C171.949 29.9263 171.229 30.136 170.402 30.136ZM170.402 28.725C170.855 28.725 171.252 28.6003 171.592 28.351C171.932 28.0903 172.175 27.7277 172.323 27.263C172.447 26.8323 172.51 26.2997 172.51 25.665C172.51 25.0303 172.453 24.5033 172.34 24.084C172.192 23.6193 171.949 23.2623 171.609 23.013C171.269 22.7523 170.855 22.622 170.368 22.622C169.903 22.622 169.501 22.7523 169.161 23.013C168.821 23.2623 168.577 23.6193 168.43 24.084C168.305 24.4807 168.243 25.0077 168.243 25.665C168.243 26.3223 168.305 26.855 168.43 27.263C168.566 27.7277 168.804 28.0903 169.144 28.351C169.495 28.6003 169.914 28.725 170.402 28.725ZM176.465 30C176.352 30 176.295 29.9433 176.295 29.83V18.27C176.295 18.1567 176.352 18.1 176.465 18.1H177.757C177.871 18.1 177.927 18.1567 177.927 18.27V29.83C177.927 29.9433 177.871 30 177.757 30H176.465ZM185.447 21.517C185.447 21.4037 185.504 21.347 185.617 21.347H186.892C187.006 21.347 187.062 21.4037 187.062 21.517V29.83C187.062 29.9433 187.006 30 186.892 30H185.617C185.504 30 185.447 29.9433 185.447 29.83V29.201C185.447 29.1783 185.436 29.167 185.413 29.167C185.402 29.1557 185.385 29.1613 185.362 29.184C184.909 29.8073 184.212 30.119 183.271 30.119C182.716 30.119 182.2 30.0113 181.724 29.796C181.26 29.5807 180.886 29.2633 180.602 28.844C180.319 28.4247 180.177 27.9147 180.177 27.314V21.517C180.177 21.4037 180.234 21.347 180.347 21.347H181.622C181.736 21.347 181.792 21.4037 181.792 21.517V26.804C181.792 27.3933 181.945 27.858 182.251 28.198C182.569 28.538 183.011 28.708 183.577 28.708C184.144 28.708 184.597 28.538 184.937 28.198C185.277 27.8467 185.447 27.382 185.447 26.804V21.517ZM193.711 22.52C193.711 22.6333 193.654 22.69 193.541 22.69H191.705C191.66 22.69 191.637 22.7127 191.637 22.758V27.263C191.637 27.739 191.745 28.0847 191.96 28.3C192.175 28.504 192.51 28.606 192.963 28.606H193.456C193.569 28.606 193.626 28.6627 193.626 28.776V29.83C193.626 29.9433 193.569 30 193.456 30C193.093 30.0227 192.833 30.034 192.674 30.034C191.813 30.034 191.161 29.881 190.719 29.575C190.288 29.2577 190.073 28.6797 190.073 27.841V22.758C190.073 22.7127 190.05 22.69 190.005 22.69H188.968C188.855 22.69 188.798 22.6333 188.798 22.52V21.517C188.798 21.4037 188.855 21.347 188.968 21.347H190.005C190.05 21.347 190.073 21.3243 190.073 21.279V19.273C190.073 19.1597 190.13 19.103 190.243 19.103H191.467C191.58 19.103 191.637 19.1597 191.637 19.273V21.279C191.637 21.3243 191.66 21.347 191.705 21.347H193.541C193.654 21.347 193.711 21.4037 193.711 21.517V22.52ZM196.705 19.987C196.388 19.987 196.127 19.885 195.923 19.681C195.719 19.477 195.617 19.2163 195.617 18.899C195.617 18.5817 195.719 18.321 195.923 18.117C196.127 17.913 196.388 17.811 196.705 17.811C197.023 17.811 197.283 17.913 197.487 18.117C197.691 18.321 197.793 18.5817 197.793 18.899C197.793 19.2163 197.691 19.477 197.487 19.681C197.283 19.885 197.023 19.987 196.705 19.987ZM196.025 29.983C195.912 29.983 195.855 29.9263 195.855 29.813V21.517C195.855 21.4037 195.912 21.347 196.025 21.347H197.317C197.431 21.347 197.487 21.4037 197.487 21.517V29.813C197.487 29.9263 197.431 29.983 197.317 29.983H196.025ZM203.588 30.136C202.75 30.136 202.019 29.9263 201.395 29.507C200.772 29.0763 200.336 28.4813 200.086 27.722C199.882 27.11 199.78 26.4187 199.78 25.648C199.78 24.8433 199.877 24.1633 200.069 23.608C200.319 22.86 200.755 22.2763 201.378 21.857C202.002 21.4263 202.744 21.211 203.605 21.211C204.421 21.211 205.13 21.4263 205.73 21.857C206.342 22.2763 206.779 22.8543 207.039 23.591C207.243 24.169 207.345 24.849 207.345 25.631C207.345 26.4243 207.243 27.1213 207.039 27.722C206.79 28.4813 206.359 29.0763 205.747 29.507C205.135 29.9263 204.416 30.136 203.588 30.136ZM203.588 28.725C204.042 28.725 204.438 28.6003 204.778 28.351C205.118 28.0903 205.362 27.7277 205.509 27.263C205.634 26.8323 205.696 26.2997 205.696 25.665C205.696 25.0303 205.64 24.5033 205.526 24.084C205.379 23.6193 205.135 23.2623 204.795 23.013C204.455 22.7523 204.042 22.622 203.554 22.622C203.09 22.622 202.687 22.7523 202.347 23.013C202.007 23.2623 201.764 23.6193 201.616 24.084C201.492 24.4807 201.429 25.0077 201.429 25.665C201.429 26.3223 201.492 26.855 201.616 27.263C201.752 27.7277 201.99 28.0903 202.33 28.351C202.682 28.6003 203.101 28.725 203.588 28.725ZM213.341 21.228C214.27 21.228 215.007 21.5 215.551 22.044C216.095 22.5767 216.367 23.302 216.367 24.22V29.83C216.367 29.9433 216.31 30 216.197 30H214.905C214.792 30 214.735 29.9433 214.735 29.83V24.543C214.735 23.9763 214.571 23.5173 214.242 23.166C213.913 22.8147 213.477 22.639 212.933 22.639C212.4 22.639 211.964 22.8147 211.624 23.166C211.284 23.5173 211.114 23.9707 211.114 24.526V29.83C211.114 29.9433 211.057 30 210.944 30H209.652C209.539 30 209.482 29.9433 209.482 29.83V21.517C209.482 21.4037 209.539 21.347 209.652 21.347H210.944C211.057 21.347 211.114 21.4037 211.114 21.517V22.129C211.114 22.1517 211.12 22.1687 211.131 22.18C211.154 22.1913 211.171 22.1857 211.182 22.163C211.669 21.5397 212.389 21.228 213.341 21.228ZM221.739 30.102C221.059 30.102 220.458 30 219.937 29.796C219.427 29.592 219.03 29.3143 218.747 28.963C218.464 28.6003 218.322 28.2037 218.322 27.773V27.586C218.322 27.4727 218.379 27.416 218.492 27.416H219.716C219.829 27.416 219.886 27.4727 219.886 27.586V27.671C219.886 27.9883 220.056 28.266 220.396 28.504C220.747 28.742 221.189 28.861 221.722 28.861C222.232 28.861 222.646 28.7533 222.963 28.538C223.28 28.3113 223.439 28.028 223.439 27.688C223.439 27.3593 223.292 27.1157 222.997 26.957C222.702 26.787 222.226 26.6113 221.569 26.43C220.923 26.2487 220.379 26.0673 219.937 25.886C219.506 25.6933 219.138 25.427 218.832 25.087C218.537 24.7357 218.39 24.288 218.39 23.744C218.39 22.9847 218.685 22.384 219.274 21.942C219.875 21.4887 220.668 21.262 221.654 21.262C222.311 21.262 222.889 21.3697 223.388 21.585C223.898 21.789 224.289 22.078 224.561 22.452C224.833 22.826 224.969 23.2453 224.969 23.71V23.761C224.969 23.8743 224.912 23.931 224.799 23.931H223.609C223.496 23.931 223.439 23.8743 223.439 23.761V23.71C223.439 23.3813 223.275 23.1093 222.946 22.894C222.629 22.6673 222.192 22.554 221.637 22.554C221.138 22.554 220.73 22.6503 220.413 22.843C220.107 23.0357 219.954 23.2963 219.954 23.625C219.954 23.9537 220.101 24.203 220.396 24.373C220.702 24.543 221.189 24.7243 221.858 24.917C222.515 25.0983 223.059 25.2797 223.49 25.461C223.932 25.631 224.306 25.8917 224.612 26.243C224.918 26.583 225.071 27.0307 225.071 27.586C225.071 28.3567 224.765 28.9687 224.153 29.422C223.552 29.8753 222.748 30.102 221.739 30.102Z" fill="#0D0128"/>
<defs>
<linearGradient id="paint0_linear_4357_2381" x1="291" y1="24" x2="2" y2="24" gradientUnits="userSpaceOnUse">
<stop stop-color="#AA83FF"/>
<stop offset="1" stop-color="#D0FFCC"/>
</linearGradient>
<linearGradient id="paint1_linear_4357_2381" x1="291" y1="24" x2="2" y2="24" gradientUnits="userSpaceOnUse">
<stop stop-color="#C7ADFF"/>
<stop offset="1" stop-color="#776899" stop-opacity="0"/>
</linearGradient>
</defs>
</svg>
