<svg width="29" height="29" viewBox="0 0 29 29" fill="none" xmlns="http://www.w3.org/2000/svg">
<path d="M26.6927 2.53569C26.5896 2.48674 26.4866 2.44758 26.3939 2.39863C25.6934 2.09513 24.9722 1.83079 24.2511 1.57624C24.0553 1.5175 23.8699 1.45875 23.6742 1.39022C23.0251 1.18463 22.3761 0.998609 21.7065 0.841964C21.4489 0.783222 21.181 0.724481 20.9132 0.655949C20.3157 0.518884 19.6976 0.411192 19.0897 0.33287C18.7807 0.283918 18.4613 0.244756 18.1625 0.215385C17.5856 0.146853 16.9984 0.0979007 16.4112 0.0587395C16.0815 0.0391588 15.7519 0.0195782 15.4016 0.00978792C15.1028 -2.39036e-06 14.8144 0 14.5053 0C14.2272 0 13.9593 -2.39036e-06 13.6708 0.00978792C13.3412 0.0195782 12.9909 0.0293685 12.6612 0.0587395C12.074 0.0979007 11.4868 0.146853 10.9099 0.215385C10.5905 0.254546 10.2815 0.283918 9.98271 0.33287C9.37488 0.430773 8.75676 0.538465 8.15924 0.655949C7.89138 0.714691 7.63383 0.773432 7.36598 0.841964C6.70665 0.998609 6.04732 1.18463 5.39829 1.39022C5.20255 1.44896 5.01711 1.5077 4.81107 1.57624C4.07962 1.82099 3.36878 2.08533 2.66824 2.38883C2.56522 2.43779 2.4622 2.47695 2.35918 2.5259C1.55561 2.87835 0.762353 3.26996 0 3.68115C0 4.52312 0.041212 5.33572 0.113327 6.14831C0.123629 6.28538 0.133927 6.40286 0.154531 6.53992C0.226645 7.25462 0.32967 7.95952 0.473899 8.65463C0.515107 8.87002 0.566619 9.07561 0.597525 9.30079C0.72115 9.91758 0.896285 10.5246 1.06112 11.1218C1.13323 11.3861 1.22595 11.67 1.31867 11.9344C1.4938 12.4826 1.68954 13.0113 1.90588 13.54C2.02951 13.8435 2.16344 14.147 2.28706 14.4407C2.9773 13.8729 3.70875 13.3442 4.4711 12.8743C5.21285 12.4141 5.99581 12.0127 6.80967 11.6603C7.60293 11.3078 8.42709 11.0141 9.28217 10.7889C9.88999 10.6225 10.5287 10.4756 11.1674 10.3679C11.4147 10.3288 11.6516 10.2994 11.8989 10.2602C12.7024 10.1525 13.506 10.0938 14.3405 10.0938C14.392 10.0938 14.4435 10.0938 14.495 10.0938C14.5568 10.0938 14.6392 10.0938 14.7011 10.0938C15.5355 10.1036 16.3494 10.1623 17.1426 10.2798C17.3899 10.319 17.6371 10.3484 17.8844 10.3973C18.5231 10.505 19.1515 10.6519 19.7594 10.8183C20.6144 11.063 21.4283 11.3568 22.2319 11.6994C23.0457 12.0519 23.8287 12.4631 24.5704 12.9232C25.3328 13.3931 26.0642 13.9218 26.7442 14.4994C26.8884 14.1959 27.012 13.8827 27.1356 13.5694C27.3417 13.0603 27.5271 12.5218 27.7126 12.0029C26.9811 11.4547 26.2291 10.9456 25.4255 10.4854C24.6632 10.0351 23.8596 9.64345 23.0251 9.30079C22.2216 8.95813 21.3871 8.67421 20.532 8.42945C20.223 8.34134 19.9036 8.26302 19.5842 8.18469C19.0485 8.06721 18.5025 7.94973 17.9462 7.87141C17.4723 7.80287 16.9881 7.73434 16.5039 7.68539C16.1124 7.64623 15.7004 7.62665 15.2883 7.61686C15.0204 7.60707 14.7526 7.60707 14.4744 7.60707C14.2169 7.60707 13.9799 7.60707 13.7224 7.61686C13.3103 7.62665 12.9085 7.65602 12.5067 7.68539C12.0225 7.72455 11.5383 7.78329 11.0644 7.85182C10.5184 7.93994 9.9827 8.04763 9.447 8.16512C9.12763 8.23365 8.80827 8.32176 8.48891 8.40987C7.63383 8.65463 6.79937 8.94834 5.9958 9.27142C5.16134 9.61408 4.35778 10.0155 3.59542 10.4463C3.59542 10.4365 3.58512 10.4071 3.58512 10.3973C3.33787 9.57492 3.15244 8.73295 2.99791 7.87141C2.99791 7.85183 2.9876 7.83224 2.9876 7.81266C2.83307 6.95112 2.73005 6.07978 2.67854 5.18886C3.513 4.78746 4.36808 4.43501 5.24375 4.12172C5.25406 4.12172 5.25406 4.11193 5.26436 4.11193C6.11943 3.80843 7.00541 3.55388 7.89139 3.33849H7.90169C8.75676 3.1329 9.62213 2.96646 10.5081 2.83919C10.5184 2.83919 10.5493 2.83919 10.5699 2.8294C11.4147 2.71191 12.2698 2.6238 13.1351 2.58464C13.1557 2.58464 13.1969 2.58464 13.2279 2.58464C13.6399 2.57485 14.0623 2.56506 14.4744 2.56506C14.9071 2.56506 15.3604 2.57485 15.7725 2.58464C15.7931 2.58464 15.8343 2.58464 15.8652 2.58464C16.7306 2.63359 17.5856 2.70212 18.4304 2.8294C18.451 2.8294 18.4716 2.8294 18.4922 2.83919C19.3782 2.97625 20.2436 3.14269 21.0986 3.34828H21.1089C22.0052 3.56367 22.8809 3.8378 23.736 4.1413C23.7463 4.1413 23.7566 4.1413 23.7566 4.15109C24.6425 4.46438 25.4976 4.81683 26.3218 5.21823C27.1872 5.62943 28.0319 6.08957 28.8458 6.59867C28.8561 6.4616 28.8664 6.31475 28.887 6.18747C28.9591 5.38467 29.0003 4.57207 29.0003 3.74969C28.3101 3.28954 27.5168 2.90772 26.6927 2.53569Z" fill="black"/>
<path d="M21.6284 14C20.8188 13.6371 19.978 13.3346 19.1061 13.1128C18.3588 12.9112 17.5699 12.7599 16.7914 12.6793C16.6357 12.6692 16.48 12.6389 16.3451 12.6289C15.878 12.5885 15.4109 12.5684 14.9334 12.5684C14.4663 12.5684 14.02 12.5784 13.5737 12.6188C13.418 12.6289 13.2727 12.6389 13.1273 12.6692C12.3281 12.7599 11.56 12.891 10.8023 13.0926C9.93035 13.3144 9.07921 13.6169 8.27996 13.9799C7.47034 14.3428 6.70223 14.7663 5.96526 15.2502C5.21792 15.7543 4.51208 16.2988 3.85815 16.9138C4.11765 17.3876 4.39791 17.8514 4.69892 18.3152C4.89614 18.6177 5.08298 18.9101 5.29057 19.2024C5.61235 19.6662 5.93412 20.1098 6.27666 20.5534C6.48425 20.8156 6.69185 21.0777 6.90982 21.3298C7.29388 21.7936 7.69869 22.2271 8.1035 22.6707C8.30072 22.8824 8.49794 23.0841 8.70553 23.2857C9.25566 22.6102 9.93035 22.0254 10.6881 21.5516C11.4977 21.0475 12.4111 20.6845 13.3868 20.493C13.9058 20.3921 14.4248 20.3417 14.9853 20.3417C15.5562 20.3417 16.096 20.4022 16.615 20.503C17.5907 20.7047 18.4937 21.0676 19.3033 21.5818C18.6702 22.2069 18.0059 22.7917 17.3104 23.3563C17.2896 23.3765 17.2585 23.3966 17.2377 23.4168C17.1651 23.4773 17.082 23.5378 17.0094 23.5882C16.8537 23.7092 16.698 23.8302 16.5319 23.9511C16.5215 23.9612 16.5008 23.9713 16.4904 23.9814C16.3451 24.0923 16.1998 24.1931 16.0441 24.304C15.9922 24.3444 15.9299 24.3847 15.878 24.4149C15.7638 24.4956 15.6496 24.5762 15.5355 24.6468C15.359 24.7678 15.1825 24.8787 15.0061 24.9997C14.3106 24.546 13.6256 24.062 12.9716 23.5479C12.0063 23.7898 11.1913 24.2839 10.4128 24.8384C10.4854 24.8989 10.4805 24.8989 10.5635 24.9594C10.5947 24.9896 10.6258 25.0199 10.6777 25.0602C11.259 25.534 11.861 25.9978 12.4838 26.4314C12.5876 26.5019 12.6914 26.5725 12.7952 26.6431C13.5114 27.1472 14.2587 27.6009 15.0372 28.0344C15.4109 27.8227 15.7846 27.6009 16.1479 27.3791C16.5112 27.1573 16.8745 26.9153 17.2274 26.6733C17.3415 26.6028 17.4557 26.512 17.5699 26.4314C18.1719 26.0079 18.7636 25.5542 19.3345 25.0804C19.4279 24.9997 19.5213 24.919 19.6147 24.8384C19.6978 24.7678 19.7808 24.6972 19.8535 24.6267C20.3413 24.2032 20.8188 23.7596 21.2859 23.3059C21.5039 23.0942 21.7114 22.8824 21.919 22.6606C22.3135 22.2372 22.7079 21.7936 23.0816 21.36C23.2996 21.0979 23.5175 20.8257 23.7355 20.5434C14.7985 14.8066 8.91313 19.5856 8.91313 19.5856C8.89237 19.5654 8.87161 19.5351 8.85085 19.515C8.32148 18.8697 7.82325 18.1942 7.34578 17.4985C8.06199 16.9944 8.85085 16.571 9.67085 16.2383C10.522 15.8753 11.4043 15.6031 12.3177 15.4216C13.0339 15.2805 13.7709 15.1998 14.5182 15.1696C14.6739 15.1696 14.8296 15.1595 14.9853 15.1595C15.1618 15.1595 15.3279 15.1595 15.5043 15.1696C16.2517 15.1897 16.9886 15.2805 17.6945 15.4317C18.6183 15.6233 19.5005 15.8955 20.3413 16.2584C21.1613 16.6113 21.9398 17.0348 22.656 17.5288C23.393 18.0329 24.0677 18.6076 24.6801 19.2428C24.8877 18.9403 25.0953 18.6278 25.2821 18.3152C25.5624 17.8615 25.8322 17.4179 26.0917 16.9541C25.4067 16.3391 24.7112 15.7745 23.9639 15.2805C23.2165 14.7864 22.438 14.363 21.6284 14Z" fill="black"/>
</svg>
