<svg width="29" height="29" viewBox="0 0 29 29" fill="none" xmlns="http://www.w3.org/2000/svg">
<path d="M14.0488 4.11353H1.30273V7.97166H14.0488V4.11353Z" fill="#242424"/>
<path d="M1.30273 11.5708V21.5422H5.20497V14.8426H16.3897V11.5708H1.30273Z" fill="#242424"/>
<path d="M16.3436 14.8663C16.8731 12.7244 18.8063 11.1375 21.1112 11.1375C22.5757 11.1375 23.89 11.7772 24.7896 12.794L27.7035 9.71997C26.0366 7.85412 23.6122 6.67847 20.9128 6.67847C16.1945 6.67847 12.3149 10.2681 11.855 14.8657H16.3436V14.8663Z" fill="#242424"/>
<path d="M24.8207 19.2746C23.9193 20.3093 22.594 20.963 21.1145 20.963C19.1326 20.963 17.4251 19.7891 16.6485 18.0984H12.1094C13.1337 22.0047 16.6879 24.8873 20.9155 24.8873C23.5412 24.8873 25.907 23.7754 27.5687 21.9966L24.8207 19.2746Z" fill="#242424"/>
</svg>
