<svg width="48" height="48" viewBox="0 0 48 48" fill="none" xmlns="http://www.w3.org/2000/svg">
<path fill-rule="evenodd" clip-rule="evenodd" d="M16.125 18.759C16.125 14.567 19.6508 11.1687 24 11.1687C27.6679 11.1687 30.7527 13.5866 31.6269 16.8606C31.7819 17.4406 32.3952 17.7897 32.9968 17.6405C33.5986 17.4912 33.9608 16.9 33.806 16.3201C32.682 12.1112 28.7194 9 24 9C18.4081 9 13.875 13.3693 13.875 18.759V21.7295C12.2029 21.85 11.114 22.1537 10.318 22.921C9 24.1914 9 26.236 9 30.3253C9 34.4146 9 36.4592 10.318 37.7296C11.636 39 13.7574 39 18 39H30C34.2426 39 36.3639 39 37.6819 37.7296C39 36.4592 39 34.4146 39 30.3253C39 26.236 39 24.1914 37.6819 22.921C36.3639 21.6506 34.2426 21.6506 30 21.6506H18C17.3227 21.6506 16.6995 21.6506 16.125 21.6558V18.759ZM18 31.7711C18.8284 31.7711 19.5 31.1238 19.5 30.3253C19.5 29.5268 18.8284 28.8795 18 28.8795C17.1716 28.8795 16.5 29.5268 16.5 30.3253C16.5 31.1238 17.1716 31.7711 18 31.7711ZM24 31.7711C24.8285 31.7711 25.5 31.1238 25.5 30.3253C25.5 29.5268 24.8285 28.8795 24 28.8795C23.1715 28.8795 22.5 29.5268 22.5 30.3253C22.5 31.1238 23.1715 31.7711 24 31.7711ZM31.5 30.3253C31.5 31.1238 30.8284 31.7711 30 31.7711C29.1716 31.7711 28.5 31.1238 28.5 30.3253C28.5 29.5268 29.1716 28.8795 30 28.8795C30.8284 28.8795 31.5 29.5268 31.5 30.3253Z" fill="#65DA01"/>
</svg>
