<svg width="48" height="48" viewBox="0 0 48 48" fill="none" xmlns="http://www.w3.org/2000/svg">
<path d="M39.9088 9.75359L38.246 8.09023C38.1832 8.02746 38.1048 8 38.0224 8C37.9401 8 37.8616 8.03138 37.7989 8.09023L34.8144 11.0756C33.517 10.1963 31.9852 9.72749 30.418 9.73005C28.4101 9.73005 26.4021 10.495 24.8687 12.0289L20.8723 16.0265C20.8139 16.0855 20.7812 16.1651 20.7812 16.2481C20.7812 16.3311 20.8139 16.4108 20.8723 16.4698L31.5279 27.1286C31.5907 27.1914 31.6691 27.2188 31.7514 27.2188C31.8299 27.2188 31.9122 27.1874 31.975 27.1286L35.9713 23.1311C38.6734 20.4242 38.9911 16.2383 36.9243 13.1862L39.9088 10.2008C40.0304 10.0753 40.0304 9.8752 39.9088 9.75359ZM26.6217 25.3632C26.5627 25.3048 26.4831 25.2721 26.4001 25.2721C26.3171 25.2721 26.2375 25.3048 26.1785 25.3632L23.5666 27.976L20.0252 24.4335L22.6411 21.8168C22.7626 21.6952 22.7626 21.4952 22.6411 21.3735L21.2135 19.9456C21.1546 19.8872 21.0749 19.8544 20.9919 19.8544C20.909 19.8544 20.8293 19.8872 20.7704 19.9456L18.1545 22.5622L16.4681 20.8753C16.4389 20.846 16.404 20.8229 16.3656 20.8074C16.3271 20.7919 16.286 20.7843 16.2446 20.7851C16.1662 20.7851 16.0838 20.8165 16.0211 20.8753L12.0286 24.8729C9.32651 27.5758 9.00885 31.7656 11.0756 34.8177L8.09114 37.8031C8.03275 37.8621 8 37.9418 8 38.0248C8 38.1078 8.03275 38.1874 8.09114 38.2464L9.75399 39.9098C9.81674 39.9725 9.89518 40 9.97754 40C10.0599 40 10.1383 39.9686 10.2011 39.9098L13.1856 36.9244C14.5072 37.8227 16.0446 38.27 17.5819 38.27C19.5899 38.27 21.5979 37.505 23.1313 35.9711L27.1276 31.9735C27.2492 31.8519 27.2492 31.6518 27.1276 31.5302L25.4412 29.8433L28.0571 27.2267C28.1787 27.1051 28.1787 26.905 28.0571 26.7834L26.6217 25.3632Z" fill="#65DA01"/>
</svg>
