<svg width="48" height="48" viewBox="0 0 48 48" fill="none" xmlns="http://www.w3.org/2000/svg">
<path d="M37.9072 18.2104C39.6889 18.2104 41.1572 19.6779 41.1562 21.4604V36.7593C41.1562 38.5404 39.6889 40.0083 37.9072 40.0083H13.8027C12.0217 40.0081 10.5547 38.5417 10.5547 36.7593V21.4595C10.5547 19.6784 12.0213 18.2107 13.8027 18.2104H37.9072ZM12.7568 32.8833V36.7603C12.7568 37.2846 13.1751 37.8079 13.8037 37.8081H37.9082C38.4321 37.8081 38.9559 37.3903 38.9561 36.7612L39.0615 36.7603V32.8833H12.7568ZM32.5576 8.14209C34.2344 7.6183 36.1208 8.66675 36.54 10.4487L38.1123 16.5259H37.9023V16.4224H13.9033C11.1788 16.4226 8.97777 18.6236 8.97754 21.3472V25.854L6.98633 18.3081C6.4626 16.6315 7.51069 14.745 9.29199 14.3257L32.5576 8.14209ZM13.8027 20.4126C13.2793 20.4128 12.7559 20.8313 12.7559 21.4604V25.3374H38.9561L38.9551 21.4604C38.9551 20.9364 38.5365 20.4126 37.9072 20.4126H13.8027Z" fill="url(#paint0_linear_5447_20838)"/>
<defs>
<linearGradient id="paint0_linear_5447_20838" x1="29.189" y1="58.3973" x2="24.0799" y2="5.78449" gradientUnits="userSpaceOnUse">
<stop stop-color="#142A01"/>
<stop offset="0.460655" stop-color="#65DA00"/>
<stop offset="1" stop-color="#65DA00"/>
</linearGradient>
</defs>
</svg>
