<svg width="48" height="48" viewBox="0 0 48 48" fill="none" xmlns="http://www.w3.org/2000/svg">
<path d="M9 11.1429C9 10.5745 9.22576 10.0295 9.62763 9.62763C10.0295 9.22576 10.5745 9 11.1429 9H15.4286C15.9969 9 16.5419 9.22576 16.9438 9.62763C17.3457 10.0295 17.5714 10.5745 17.5714 11.1429V15.4286C17.5714 15.9969 17.3457 16.5419 16.9438 16.9438C16.5419 17.3457 15.9969 17.5714 15.4286 17.5714H11.1429C10.5745 17.5714 10.0295 17.3457 9.62763 16.9438C9.22576 16.5419 9 15.9969 9 15.4286V11.1429ZM19.7143 11.1429C19.7143 10.5745 19.9401 10.0295 20.3419 9.62763C20.7438 9.22576 21.2888 9 21.8571 9H26.1429C26.7112 9 27.2562 9.22576 27.6581 9.62763C28.0599 10.0295 28.2857 10.5745 28.2857 11.1429V15.4286C28.2857 15.9969 28.0599 16.5419 27.6581 16.9438C27.2562 17.3457 26.7112 17.5714 26.1429 17.5714H21.8571C21.2888 17.5714 20.7438 17.3457 20.3419 16.9438C19.9401 16.5419 19.7143 15.9969 19.7143 15.4286V11.1429ZM30.4286 11.1429C30.4286 10.5745 30.6543 10.0295 31.0562 9.62763C31.4581 9.22576 32.0031 9 32.5714 9H36.8571C37.4255 9 37.9705 9.22576 38.3724 9.62763C38.7742 10.0295 39 10.5745 39 11.1429V15.4286C39 15.9969 38.7742 16.5419 38.3724 16.9438C37.9705 17.3457 37.4255 17.5714 36.8571 17.5714H32.5714C32.0031 17.5714 31.4581 17.3457 31.0562 16.9438C30.6543 16.5419 30.4286 15.9969 30.4286 15.4286V11.1429ZM9 21.8571C9 21.2888 9.22576 20.7438 9.62763 20.3419C10.0295 19.9401 10.5745 19.7143 11.1429 19.7143H15.4286C15.9969 19.7143 16.5419 19.9401 16.9438 20.3419C17.3457 20.7438 17.5714 21.2888 17.5714 21.8571V26.1429C17.5714 26.7112 17.3457 27.2562 16.9438 27.6581C16.5419 28.0599 15.9969 28.2857 15.4286 28.2857H11.1429C10.5745 28.2857 10.0295 28.0599 9.62763 27.6581C9.22576 27.2562 9 26.7112 9 26.1429V21.8571ZM30.4286 21.8571C30.4286 21.2888 30.6543 20.7438 31.0562 20.3419C31.4581 19.9401 32.0031 19.7143 32.5714 19.7143H36.8571C37.4255 19.7143 37.9705 19.9401 38.3724 20.3419C38.7742 20.7438 39 21.2888 39 21.8571V26.1429C39 26.7112 38.7742 27.2562 38.3724 27.6581C37.9705 28.0599 37.4255 28.2857 36.8571 28.2857H32.5714C32.0031 28.2857 31.4581 28.0599 31.0562 27.6581C30.6543 27.2562 30.4286 26.7112 30.4286 26.1429V21.8571ZM9 32.5714C9 32.0031 9.22576 31.4581 9.62763 31.0562C10.0295 30.6543 10.5745 30.4286 11.1429 30.4286H15.4286C15.9969 30.4286 16.5419 30.6543 16.9438 31.0562C17.3457 31.4581 17.5714 32.0031 17.5714 32.5714V36.8571C17.5714 37.4255 17.3457 37.9705 16.9438 38.3724C16.5419 38.7742 15.9969 39 15.4286 39H11.1429C10.5745 39 10.0295 38.7742 9.62763 38.3724C9.22576 37.9705 9 37.4255 9 36.8571V32.5714ZM19.7143 32.5714C19.7143 32.0031 19.9401 31.4581 20.3419 31.0562C20.7438 30.6543 21.2888 30.4286 21.8571 30.4286H26.1429C26.7112 30.4286 27.2562 30.6543 27.6581 31.0562C28.0599 31.4581 28.2857 32.0031 28.2857 32.5714V36.8571C28.2857 37.4255 28.0599 37.9705 27.6581 38.3724C27.2562 38.7742 26.7112 39 26.1429 39H21.8571C21.2888 39 20.7438 38.7742 20.3419 38.3724C19.9401 37.9705 19.7143 37.4255 19.7143 36.8571V32.5714Z" fill="#65DA01"/>
</svg>
