<svg width="48" height="48" viewBox="0 0 48 48" fill="none" xmlns="http://www.w3.org/2000/svg">
<path fill-rule="evenodd" clip-rule="evenodd" d="M22.293 25.3567C22.293 26.2986 23.0565 27.0621 23.9984 27.0621C24.9403 27.0621 25.7038 26.2986 25.7038 25.3567V20.2405C25.7038 19.2986 24.9403 18.5351 23.9984 18.5351C23.0565 18.5351 22.293 19.2986 22.293 20.2405V25.3567ZM25.7038 30.4538C25.7038 29.5119 24.9403 28.7484 23.9984 28.7484C23.0565 28.7484 22.293 29.5119 22.293 30.4538V30.4729C22.293 31.4148 23.0565 32.1783 23.9984 32.1783C24.9403 32.1783 25.7038 31.4148 25.7038 30.4729V30.4538ZM19.5257 11.136C21.4751 7.62721 26.5212 7.62721 28.4705 11.136L39.7279 31.3991C41.6222 34.8093 39.1564 38.9999 35.2554 38.9999H12.7408C8.83973 38.9999 6.37388 34.8093 8.26838 31.3991L19.5257 11.136Z" fill="url(#paint0_linear_5447_20857)"/>
<defs>
<linearGradient id="paint0_linear_5447_20857" x1="28.9503" y1="56.5233" x2="24.0921" y2="6.3841" gradientUnits="userSpaceOnUse">
<stop stop-color="#142A01"/>
<stop offset="0.460655" stop-color="#65DA00"/>
<stop offset="1" stop-color="#65DA00"/>
</linearGradient>
</defs>
</svg>
