<svg width="31" height="33" viewBox="0 0 31 33" fill="none" xmlns="http://www.w3.org/2000/svg">
<path d="M7.46073 6.15269C7.43392 5.55237 7.52743 4.95274 7.73575 4.38908C7.94407 3.82541 8.26301 3.3091 8.67379 2.8705C9.08457 2.4319 9.57892 2.07988 10.1277 1.83512C10.6766 1.59037 11.2688 1.45784 11.8696 1.44531C12.4704 1.43279 13.0676 1.54053 13.6262 1.7622C14.1847 1.98387 14.6933 2.315 15.122 2.7361C15.5507 3.1572 15.8909 3.65977 16.1225 4.21426C16.3541 4.76876 16.4725 5.36397 16.4708 5.96489V25.4964M7.46073 6.15269C6.57761 6.37977 5.75773 6.80482 5.06321 7.39567C4.36868 7.98651 3.81771 8.72766 3.45203 9.56297C3.08634 10.3983 2.91553 11.3059 2.95254 12.2169C2.98954 13.128 3.23339 14.0188 3.66561 14.8217M7.46073 6.15269C7.49044 6.87947 7.6956 7.58825 8.0587 8.21853M3.66561 14.8217C2.90565 15.4391 2.30805 16.2328 1.92481 17.1338C1.54156 18.0348 1.38426 19.0158 1.4666 19.9915C1.54894 20.9672 1.86843 21.9079 2.39727 22.732C2.9261 23.556 3.64827 24.2384 4.50095 24.7197M3.66561 14.8217C3.94046 14.5978 4.23458 14.4002 4.54452 14.2282M4.50095 24.7197C4.39566 25.5343 4.4585 26.3619 4.68558 27.1514C4.91267 27.9408 5.29919 28.6753 5.82126 29.3095C6.34334 29.9437 6.98989 30.4641 7.72098 30.8387C8.45207 31.2132 9.25219 31.4339 10.0719 31.4871C10.8916 31.5403 11.7136 31.4249 12.4869 31.1479C13.2603 30.871 13.9687 30.4385 14.5683 29.8771C15.168 29.3157 15.6462 28.6373 15.9734 27.8839C16.3006 27.1304 16.4699 26.3179 16.4708 25.4964M4.50095 24.7197C5.40281 25.2283 6.4208 25.4969 7.45622 25.4964M16.4708 25.4964H25.4853C26.2823 25.4964 27.0465 25.813 27.6101 26.3765C28.1736 26.94 28.4902 27.7043 28.4902 28.5013V30.0037M11.9635 17.9843C13.2249 17.5406 14.3263 16.7328 15.1286 15.663C15.9309 14.5933 16.398 13.3097 16.4708 11.9746M16.4708 17.9843H22.4805M16.4708 10.4722H28.4902M22.4805 10.4722V5.96489C22.4805 5.16795 22.7971 4.40366 23.3606 3.84014C23.9241 3.27662 24.6884 2.96004 25.4853 2.96004M23.2317 17.9843C23.2317 18.3992 22.8954 18.7355 22.4805 18.7355C22.0656 18.7355 21.7293 18.3992 21.7293 17.9843C21.7293 17.5694 22.0656 17.2331 22.4805 17.2331C22.8954 17.2331 23.2317 17.5694 23.2317 17.9843ZM26.2365 2.96004C26.2365 3.37492 25.9002 3.71125 25.4853 3.71125C25.0704 3.71125 24.7341 3.37492 24.7341 2.96004C24.7341 2.54516 25.0704 2.20883 25.4853 2.20883C25.9002 2.20883 26.2365 2.54516 26.2365 2.96004ZM29.2414 30.0037C29.2414 30.4186 28.9051 30.7549 28.4902 30.7549C28.0753 30.7549 27.739 30.4186 27.739 30.0037C27.739 29.5888 28.0753 29.2525 28.4902 29.2525C28.9051 29.2525 29.2414 29.5888 29.2414 30.0037ZM29.2414 10.4722C29.2414 10.887 28.9051 11.2234 28.4902 11.2234C28.0753 11.2234 27.739 10.887 27.739 10.4722C27.739 10.0573 28.0753 9.72095 28.4902 9.72095C28.9051 9.72095 29.2414 10.0573 29.2414 10.4722Z" stroke="#78FE05" stroke-width="2.88889" stroke-linecap="round" stroke-linejoin="round"/>
</svg>
