<svg width="31" height="31" viewBox="0 0 31 31" fill="none" xmlns="http://www.w3.org/2000/svg">
<path d="M29.2422 15.3428H25.7954C25.188 15.3415 24.5969 15.5392 24.1124 15.9056C23.628 16.2721 23.277 16.7871 23.113 17.3719L19.8468 28.991C19.8258 29.0632 19.7819 29.1266 19.7218 29.1717C19.6616 29.2168 19.5885 29.2412 19.5133 29.2412C19.4381 29.2412 19.3649 29.2168 19.3048 29.1717C19.2447 29.1266 19.2008 29.0632 19.1797 28.991L11.5078 1.69451C11.4867 1.62233 11.4428 1.55894 11.3827 1.51383C11.3226 1.46872 11.2494 1.44434 11.1742 1.44434C11.099 1.44434 11.0259 1.46872 10.9657 1.51383C10.9056 1.55894 10.8617 1.62233 10.8407 1.69451L7.57452 13.3136C7.41117 13.8962 7.0622 14.4095 6.5806 14.7757C6.09899 15.142 5.51105 15.341 4.90602 15.3428H1.44531" stroke="#78FE05" stroke-width="2.88889" stroke-linecap="round" stroke-linejoin="round"/>
</svg>
