<svg width="33" height="34" viewBox="0 0 33 34" fill="none" xmlns="http://www.w3.org/2000/svg">
<path d="M8.89514 21.586L1.83881 9.39638C1.53453 8.87044 1.39144 8.26673 1.42728 7.66018C1.46312 7.05363 1.67632 6.47096 2.04042 5.98452L4.53727 2.66572C4.82619 2.28051 5.20082 1.96785 5.63151 1.7525C6.06219 1.53716 6.5371 1.42505 7.01862 1.42505H25.6287C26.1102 1.42505 26.5852 1.53716 27.0158 1.7525C27.4465 1.96785 27.8212 2.28051 28.1101 2.66572L30.5914 5.98452C30.9579 6.4694 31.1739 7.05126 31.2125 7.65784C31.2511 8.26441 31.1106 8.86896 30.8085 9.39638L23.7522 21.586M14.7728 16.9335L5.65388 1.73522M17.8745 16.9335L26.9935 1.73522M10.1203 9.17926H22.527M16.3237 26.2385V23.1368H15.5483M24.0779 24.6877C24.0779 28.9702 20.6062 32.4419 16.3237 32.4419C12.0411 32.4419 8.56946 28.9702 8.56946 24.6877C8.56946 20.4051 12.0411 16.9335 16.3237 16.9335C20.6062 16.9335 24.0779 20.4051 24.0779 24.6877Z" stroke="#78FE05" stroke-width="2.85003" stroke-linecap="round" stroke-linejoin="round"/>
</svg>
