<svg width="27" height="31" viewBox="0 0 27 31" fill="none" xmlns="http://www.w3.org/2000/svg">
<path d="M11.3853 29.4443H4.24531C3.50271 29.4443 2.79051 29.1493 2.26541 28.6242C1.74031 28.0991 1.44531 27.3869 1.44531 26.6443V4.24434C1.44531 3.50174 1.74031 2.78955 2.26541 2.26445C2.79051 1.73934 3.50271 1.44435 4.24531 1.44435H15.4453M15.4453 1.44435C15.889 1.44326 16.3284 1.53004 16.7384 1.69968C17.1483 1.86933 17.5206 2.11847 17.8337 2.43275L22.8583 7.45594C23.1723 7.7692 23.4212 8.14153 23.5906 8.55146C23.76 8.96138 23.8466 9.40079 23.8453 9.84434M15.4453 1.44435V8.44434C15.4453 8.81565 15.5928 9.17174 15.8554 9.43429C16.1179 9.69684 16.474 9.84434 16.8453 9.84434H23.8453M23.8453 9.84434V14.3943M25.2453 29.4443L21.2133 25.4123M22.4453 22.4443C22.4453 24.7639 20.5649 26.6443 18.2453 26.6443C15.9257 26.6443 14.0453 24.7639 14.0453 22.4443C14.0453 20.1247 15.9257 18.2443 18.2453 18.2443C20.5649 18.2443 22.4453 20.1247 22.4453 22.4443Z" stroke="#78FE05" stroke-width="2.88889" stroke-linecap="round" stroke-linejoin="round"/>
</svg>
