<svg width="32" height="29" viewBox="0 0 32 29" fill="none" xmlns="http://www.w3.org/2000/svg">
<path d="M21.6724 27.4506V24.561C21.6724 23.0283 21.0635 21.5583 19.9797 20.4745C18.8959 19.3907 17.426 18.7818 15.8932 18.7818H7.22448C5.69175 18.7818 4.2218 19.3907 3.13799 20.4745C2.05419 21.5583 1.44531 23.0283 1.44531 24.561V27.4506M21.6724 1.62927C22.9117 1.95055 24.0092 2.67424 24.7927 3.68674C25.5762 4.69925 26.0013 5.94326 26.0013 7.2235C26.0013 8.50375 25.5762 9.74776 24.7927 10.7603C24.0092 11.7728 22.9117 12.4965 21.6724 12.8177M30.3411 27.4506V24.561C30.3402 23.2805 29.914 22.0366 29.1295 21.0246C28.345 20.0126 27.2466 19.2898 26.0068 18.9697M17.338 7.2235C17.338 10.4152 14.7506 13.0027 11.5589 13.0027C8.36711 13.0027 5.77969 10.4152 5.77969 7.2235C5.77969 4.03176 8.36711 1.44434 11.5589 1.44434C14.7506 1.44434 17.338 4.03176 17.338 7.2235Z" stroke="#78FE05" stroke-width="2.88889" stroke-linecap="round" stroke-linejoin="round"/>
</svg>
