<svg width="29" height="29" viewBox="0 0 29 29" fill="none" xmlns="http://www.w3.org/2000/svg">
<path d="M17.3342 1.44434C17.7173 1.44434 18.0847 1.59652 18.3556 1.8674C18.6265 2.13829 18.7786 2.50569 18.7786 2.88878V10.111C18.7786 10.4941 18.6265 10.8615 18.3556 11.1324C18.0847 11.4033 17.7173 11.5554 17.3342 11.5554M24.5564 1.44434C24.9395 1.44434 25.3069 1.59652 25.5778 1.8674C25.8487 2.13829 26.0009 2.50569 26.0009 2.88878V10.111C26.0009 10.4941 25.8487 10.8615 25.5778 11.1324C25.3069 11.4033 24.9395 11.5554 24.5564 11.5554M7.22309 18.7777L11.5564 23.111M11.5564 23.111L7.22309 27.4443M11.5564 23.111H4.3342C3.56802 23.111 2.83322 22.8066 2.29145 22.2649C1.74968 21.7231 1.44531 20.9883 1.44531 20.2221V17.3332M18.7786 17.3332H26.0009C26.7986 17.3332 27.4453 17.9799 27.4453 18.7777V25.9999C27.4453 26.7976 26.7986 27.4443 26.0009 27.4443H18.7786C17.9809 27.4443 17.3342 26.7976 17.3342 25.9999V18.7777C17.3342 17.9799 17.9809 17.3332 18.7786 17.3332ZM2.88976 1.44434H10.112C10.9097 1.44434 11.5564 2.09104 11.5564 2.88878V10.111C11.5564 10.9087 10.9097 11.5554 10.112 11.5554H2.88976C2.09201 11.5554 1.44531 10.9087 1.44531 10.111V2.88878C1.44531 2.09104 2.09201 1.44434 2.88976 1.44434Z" stroke="#78FE05" stroke-width="2.88889" stroke-linecap="round" stroke-linejoin="round"/>
</svg>
