<svg width="48" height="48" viewBox="0 0 48 48" fill="none" xmlns="http://www.w3.org/2000/svg">
<path fill-rule="evenodd" clip-rule="evenodd" d="M29.4385 6.88281C30.1034 6.88284 30.7407 7.1471 31.2109 7.61719L37.2646 13.6709C37.7348 14.1411 37.9989 14.7785 37.999 15.4434V37.4922C37.999 38.8769 36.8769 39.9998 35.4922 40H13.4141C12.0292 40 10.9062 38.877 10.9062 37.4922V9.39062C10.9062 8.0058 12.0292 6.88281 13.4141 6.88281H29.4385ZM15.4258 20.4258V22.0029C15.4259 23.201 15.9018 24.35 16.749 25.1973C17.2308 25.679 17.81 26.0412 18.4404 26.2637C18.4386 26.3227 18.4376 26.382 18.4375 26.4414H15.418V29.4541H18.4375V29.4775C18.4375 29.536 18.4388 29.5943 18.4404 29.6523C17.8119 29.8759 17.2345 30.2382 16.7539 30.7188C15.9094 31.5632 15.432 32.7071 15.4258 33.9014V35.4854H18.4375V33.917C18.4396 33.5161 18.6003 33.1321 18.8838 32.8486C19.0025 32.73 19.1384 32.6325 19.2861 32.5596C20.3365 34.3169 22.258 35.4941 24.4541 35.4941H24.4697C26.6634 35.4941 28.5826 34.3195 29.6338 32.5654C29.777 32.6376 29.9089 32.7332 30.0244 32.8486C30.3072 33.1315 30.4679 33.5142 30.4707 33.9141V35.4854H33.4824V33.9014C33.4762 32.7071 32.9988 31.5632 32.1543 30.7188C31.6776 30.2421 31.106 29.8822 30.4834 29.6582C30.4852 29.5982 30.4863 29.538 30.4863 29.4775V29.4541H33.4902V26.4414H30.4863C30.4862 26.38 30.4843 26.3188 30.4824 26.2578C31.107 26.0349 31.6813 25.6751 32.1592 25.1973C33.0064 24.35 33.4823 23.2011 33.4824 22.0029V20.4258H30.4707V22.0029C30.4706 22.4022 30.3116 22.785 30.0293 23.0674C29.9114 23.1853 29.7757 23.2813 29.6289 23.3535C28.5767 21.604 26.66 20.4336 24.4697 20.4336H24.4541C22.2613 20.4336 20.3425 21.6065 19.291 23.3594C19.1396 23.2865 18.9999 23.1884 18.8789 23.0674C18.5966 22.785 18.4376 22.4022 18.4375 22.0029V20.4258H15.4258Z" fill="#65DA01"/>
</svg>
