<svg width="48" height="48" viewBox="0 0 48 48" fill="none" xmlns="http://www.w3.org/2000/svg">
<path fill-rule="evenodd" clip-rule="evenodd" d="M7 34.625L13.375 36.75L19.75 30.375H28.25L34.625 36.75L41 34.625L39.402 17.0479C39.1036 13.7642 36.3505 11.25 33.0534 11.25H14.9467C11.6496 11.25 8.89643 13.7642 8.59792 17.0478L7 34.625ZM32.5 19.75C33.6736 19.75 34.625 18.7986 34.625 17.625C34.625 16.4514 33.6736 15.5 32.5 15.5C31.3264 15.5 30.375 16.4514 30.375 17.625C30.375 18.7986 31.3264 19.75 32.5 19.75ZM32.5 24C32.5 25.1736 31.5486 26.125 30.375 26.125C29.2014 26.125 28.25 25.1736 28.25 24C28.25 22.8264 29.2014 21.875 30.375 21.875C31.5486 21.875 32.5 22.8264 32.5 24ZM17.625 24C19.9722 24 21.875 22.0972 21.875 19.75C21.875 17.4028 19.9722 15.5 17.625 15.5C15.2778 15.5 13.375 17.4028 13.375 19.75C13.375 22.0972 15.2778 24 17.625 24Z" fill="#65DA01"/>
</svg>
