<svg width="33" height="24" viewBox="0 0 33 24" fill="none" xmlns="http://www.w3.org/2000/svg">
<path d="M7.40469 10.3834H13.3641M10.3844 7.40371V13.3631M20.8133 11.8732H20.8282M25.2828 8.89355H25.2977M24.2697 1.44434H8.41778C6.94325 1.44468 5.52121 1.99167 4.42654 2.97957C3.33187 3.96746 2.64232 5.32611 2.49118 6.79288C2.48224 6.87035 2.47628 6.94335 2.46586 7.01933C2.34518 8.02349 1.44531 15.5323 1.44531 17.8326C1.44531 19.018 1.91621 20.1549 2.75441 20.9931C3.59261 21.8313 4.72945 22.3021 5.91484 22.3021C7.40469 22.3021 8.14961 21.5572 8.89453 20.8123L11.0012 18.7057C11.5598 18.1468 12.3176 17.8328 13.1078 17.8326H19.5797C20.3699 17.8328 21.1277 18.1468 21.6863 18.7057L23.793 20.8123C24.5379 21.5572 25.2828 22.3021 26.7727 22.3021C27.958 22.3021 29.0949 21.8313 29.9331 20.9931C30.7713 20.1549 31.2422 19.018 31.2422 17.8326C31.2422 15.5308 30.3423 8.02349 30.2216 7.01933C30.2112 6.94484 30.2053 6.87035 30.1963 6.79436C30.0455 5.32733 29.3561 3.96832 28.2614 2.98012C27.1667 1.99191 25.7445 1.44472 24.2697 1.44434Z" stroke="#78FE05" stroke-width="2.88889" stroke-linecap="round" stroke-linejoin="round"/>
</svg>
