<svg width="34" height="34" viewBox="0 0 34 34" fill="none" xmlns="http://www.w3.org/2000/svg">
<path d="M15.5239 10.1798C15.6266 9.86461 15.8274 9.59046 16.097 9.39739C16.3665 9.20433 16.6907 9.10245 17.0223 9.10661C17.3538 9.11078 17.6754 9.22078 17.94 9.42056C18.2046 9.62035 18.3984 9.89946 18.4933 10.2172L19.6396 12.4757C19.7512 12.6953 19.9133 12.8852 20.1126 13.0299C20.3119 13.1746 20.5427 13.2698 20.786 13.3079L23.3276 13.7061C23.6549 13.7074 23.9735 13.8119 24.2379 14.0047C24.5024 14.1975 24.6993 14.4688 24.8006 14.78C24.9019 15.0912 24.9025 15.4264 24.8023 15.738C24.702 16.0496 24.5061 16.3216 24.2423 16.5153L22.4193 18.3321C22.2447 18.5058 22.1139 18.7186 22.0377 18.9527C21.9614 19.1869 21.9419 19.4359 21.9806 19.6791L22.3835 22.1881C22.4943 22.5025 22.5012 22.8443 22.403 23.163C22.3049 23.4816 22.1069 23.7603 21.8384 23.9579C21.5698 24.1555 21.2449 24.2616 20.9115 24.2606C20.578 24.2595 20.2538 24.1513 19.9865 23.952L17.7077 22.7854C17.4882 22.6729 17.2451 22.6142 16.9984 22.6142C16.7518 22.6142 16.5087 22.6729 16.2892 22.7854L14.0104 23.952C13.7431 24.1497 13.4196 24.2565 13.0871 24.2569C12.7547 24.2573 12.4309 24.1511 12.1632 23.9541C11.8955 23.757 11.698 23.4793 11.5996 23.1618C11.5012 22.8442 11.5071 22.5035 11.6165 22.1896L12.0178 19.6807C12.0568 19.4372 12.0374 19.1879 11.9611 18.9535C11.8849 18.719 11.754 18.506 11.5792 18.3321L9.78107 16.5402C9.50833 16.3512 9.30316 16.08 9.19553 15.7661C9.08789 15.4523 9.08345 15.1122 9.18283 14.7957C9.28221 14.4791 9.48022 14.2026 9.74792 14.0066C10.0156 13.8105 10.339 13.7053 10.6708 13.7061L13.2109 13.3079C13.4542 13.2698 13.685 13.1746 13.8843 13.0299C14.0836 12.8852 14.2457 12.6953 14.3573 12.4757L15.5239 10.1798Z" stroke="#78FE05" stroke-width="2.88889" stroke-linecap="round" stroke-linejoin="round"/>
<path d="M17 32.5537C25.5906 32.5537 32.5547 25.5896 32.5547 16.999C32.5547 8.40841 25.5906 1.44434 17 1.44434C8.40938 1.44434 1.44531 8.40841 1.44531 16.999C1.44531 25.5896 8.40938 32.5537 17 32.5537Z" stroke="#78FE05" stroke-width="2.88889" stroke-linecap="round" stroke-linejoin="round"/>
</svg>
