<svg width="48" height="48" viewBox="0 0 48 48" fill="none" xmlns="http://www.w3.org/2000/svg">
<path fill-rule="evenodd" clip-rule="evenodd" d="M20.6583 10.284C20.7404 10.1418 20.8585 10.0238 21.0006 9.94169C21.1428 9.85961 21.3041 9.81641 21.4682 9.81641C21.6324 9.81641 21.7936 9.85961 21.9358 9.94169C22.078 10.0238 22.196 10.1418 22.2781 10.284L26.9728 18.423C26.5041 19.5962 26.3075 20.8604 26.3978 22.1205C26.4881 23.3806 26.863 24.6038 27.4942 25.6981C28.1254 26.7925 28.9965 27.7294 30.042 28.4386C31.0876 29.1477 32.2803 29.6106 33.5305 29.7923L36.3033 34.6011C36.3855 34.7433 36.4287 34.9047 36.4286 35.0689C36.4286 35.2332 36.3853 35.3945 36.3031 35.5367C36.2209 35.6789 36.1027 35.7969 35.9604 35.879C35.8181 35.961 35.6568 36.0041 35.4925 36.0039H7.44299C7.27883 36.0039 7.11756 35.9607 6.9754 35.8786C6.83323 35.7965 6.71518 35.6785 6.6331 35.5363C6.55102 35.3941 6.50781 35.2329 6.50781 35.0687C6.50781 34.9045 6.55103 34.7433 6.63311 34.6011L20.6583 10.284ZM20.2983 30.9052V28.5672H22.6382V30.9052H20.2983ZM21.4682 19.2105C20.8229 19.2105 20.2992 19.7342 20.2992 20.3795V25.5231C20.2992 25.8334 20.4225 26.131 20.6419 26.3504C20.8613 26.5698 21.1589 26.693 21.4692 26.693C21.7794 26.693 22.077 26.5698 22.2964 26.3504C22.5158 26.131 22.6391 25.8334 22.6391 25.5231V20.3795C22.6391 19.7342 22.1144 19.2105 21.4682 19.2105Z" fill="#65DA01"/>
<path fill-rule="evenodd" clip-rule="evenodd" d="M28.25 21.4741C28.2519 21.2184 28.2684 20.9675 28.2996 20.7212C28.4198 19.7533 28.7569 18.8249 29.2856 18.0052C29.8143 17.1855 30.5211 16.4957 31.3534 15.987C32.1856 15.4783 33.1219 15.1639 34.0925 15.0671C35.0631 14.9704 36.043 15.0938 36.9593 15.4282C37.8756 15.7627 38.7047 16.2994 39.3848 16.9986C40.0649 17.6978 40.5785 18.5414 40.8875 19.4666C41.1964 20.3918 41.2927 21.3748 41.1691 22.3423C41.0456 23.3099 40.7054 24.2371 40.1738 25.055L43.9184 28.7995L42.5081 30.2107L38.8402 26.5429C37.6832 27.4928 36.2318 28.0109 34.7347 28.0083C33.8666 28.0098 33.0072 27.8361 32.2078 27.4977C31.414 27.1606 30.6951 26.6691 30.0929 26.0518C29.4907 25.4345 29.0172 24.7037 28.6998 23.9018C28.4014 23.1449 28.2487 22.3383 28.25 21.5246V21.4741ZM34.7338 26.0135C35.3233 26.0135 35.907 25.8974 36.4516 25.6718C36.9963 25.4462 37.4911 25.1156 37.908 24.6987C38.3248 24.2819 38.6554 23.787 38.881 23.2424C39.1066 22.6978 39.2227 22.1141 39.2227 21.5246C39.2227 20.9351 39.1066 20.3513 38.881 19.8067C38.6554 19.2621 38.3248 18.7672 37.908 18.3504C37.4911 17.9335 36.9963 17.6029 36.4516 17.3773C35.907 17.1517 35.3233 17.0356 34.7338 17.0356C33.5432 17.0356 32.4014 17.5085 31.5596 18.3504C30.7177 19.1922 30.2448 20.334 30.2448 21.5246C30.2448 22.7151 30.7177 23.8569 31.5596 24.6987C32.4014 25.5406 33.5432 26.0135 34.7338 26.0135Z" fill="#65DA01"/>
</svg>
