<svg width="48" height="48" viewBox="0 0 48 48" fill="none" xmlns="http://www.w3.org/2000/svg">
<path d="M24.0118 7C28.4653 7 32.0859 10.6206 32.0859 15.0741C32.0859 19.4427 28.6693 22.9783 24.2158 23.1313C24.0798 23.1143 23.9438 23.1143 23.8418 23.1313C23.8078 23.1313 23.7908 23.1313 23.7568 23.1313C23.7398 23.1313 23.7398 23.1313 23.7228 23.1313C19.3713 22.9783 15.9547 19.4427 15.9377 15.0741C15.9377 10.6206 19.5583 7 24.0118 7Z" fill="#65DA01"/>
<path d="M15.3748 27.651C20.1173 24.4894 27.8514 24.4894 32.6279 27.651C34.7867 29.0959 35.9766 31.0507 35.9766 33.1414C35.9766 35.2322 34.7867 37.17 32.6449 38.5979C30.2652 40.1957 27.1376 40.9946 24.0099 40.9946C20.8823 40.9946 17.7546 40.1957 15.3748 38.5979C13.2331 37.153 12.0432 35.2152 12.0432 33.1074C12.0602 31.0167 13.2331 29.0789 15.3748 27.651ZM20.7123 34.6373C20.2193 35.1302 20.2193 35.9461 20.7123 36.4391C20.9672 36.6941 21.2902 36.813 21.6132 36.813C21.9361 36.813 22.2591 36.6941 22.5141 36.4391L24.0099 34.9432L25.5058 36.4391C25.7607 36.6941 26.0837 36.813 26.4067 36.813C26.7296 36.813 27.0526 36.6941 27.3076 36.4391C27.8004 35.9461 27.8004 35.1302 27.3076 34.6373L25.8117 33.1414L27.3076 31.6456C27.8004 31.1527 27.8004 30.3367 27.3076 29.8438C26.8146 29.3508 25.9987 29.3508 25.5058 29.8438L24.0099 31.3396L22.5141 29.8438C22.0211 29.3508 21.2052 29.3508 20.7123 29.8438C20.2193 30.3367 20.2193 31.1527 20.7123 31.6456L22.2081 33.1414L20.7123 34.6373Z" fill="#65DA01"/>
</svg>
