<svg width="48" height="48" viewBox="0 0 48 48" fill="none" xmlns="http://www.w3.org/2000/svg">
<path d="M18.9626 23.9987C19.8553 23.9987 20.7114 23.6441 21.3426 23.0129C21.9739 22.3817 22.3285 21.5255 22.3285 20.6328C22.3285 19.7401 21.9739 18.884 21.3426 18.2528C20.7114 17.6216 19.8553 17.2669 18.9626 17.2669C18.0699 17.2669 17.2138 17.6216 16.5825 18.2528C15.9513 18.884 15.5967 19.7401 15.5967 20.6328C15.5967 21.5255 15.9513 22.3817 16.5825 23.0129C17.2138 23.6441 18.0699 23.9987 18.9626 23.9987ZM24.0114 5.48633L39.9994 14.7425V33.2549L24.0114 42.5111L8.02344 33.2549V14.7425L24.0114 5.48633ZM11.3893 16.683V31.3145L15.3813 33.6252L28.9677 23.6621L36.6335 28.2633V16.6846L24.0114 9.37393L11.3893 16.683Z" fill="#65DA01"/>
</svg>
