<svg width="125" height="43" viewBox="0 0 125 43" fill="none" xmlns="http://www.w3.org/2000/svg">
<g clip-path="url(#clip0_1778_1363)">
<path fill-rule="evenodd" clip-rule="evenodd" d="M8.51978 2.04031L8.51871 4.08159L6.8335 4.7735C1.92732 6.78851 -0.866934 12.317 0.525754 17.2544C1.29434 19.9798 2.63698 21.9146 4.74216 23.3311C9.07075 26.2436 14.5854 25.7547 18.2022 22.1379C20.0901 20.25 20.8147 18.896 21.2964 16.3556C22.1847 11.6716 19.3688 6.64403 14.8052 4.76675L13.1388 4.08159L13.1377 2.04031L13.1363 -0.000976562H10.8287H8.5212L8.51978 2.04031ZM25.2065 5.67912V7.80916H27.3365H29.4666V5.67912V3.54908H27.3365H25.2065V5.67912ZM33.4426 12.185C33.547 20.6444 33.5665 20.8464 34.4047 22.0683C35.8748 24.2122 37.397 25.0014 40.351 25.1505L42.9568 25.2822V23.1571V21.0324L40.9861 20.8688C38.1649 20.6348 37.8092 20.1552 37.8092 16.5835V13.6668L40.028 13.561L42.2468 13.4555V11.3592V9.26291L40.028 9.15747L37.8092 9.05168L37.7055 6.30038L37.6019 3.54908H35.469H33.3365L33.4426 12.185ZM79.139 3.93107C75.8328 4.44334 72.8668 6.56877 71.1606 9.64844L70.1147 11.5367L70.009 23.8732L69.9032 36.2096H72.2143H74.5253L74.6276 24.165C74.7259 12.5833 74.7582 12.0817 75.4725 11.1185C78.0126 7.692 82.2304 7.22872 85.0665 10.0645C87.6219 12.6202 87.8608 15.8685 85.6835 18.4558C84.3221 20.0739 83.0522 20.5894 80.4277 20.5894H78.1024V22.9413V25.2936L81.0354 25.1395C83.42 25.0145 84.3235 24.7923 85.8657 23.9531C89.5524 21.9466 91.5926 18.5981 91.5926 14.5543C91.5926 11.7732 90.7367 9.53839 88.8807 7.47403C86.3016 4.60594 82.8609 3.35419 79.139 3.93107ZM95.1427 5.67912V7.84288L97.3615 7.73745L99.5803 7.63165V5.67912V3.72659L97.3615 3.6208L95.1427 3.51536V5.67912ZM112.155 3.93107C110.02 4.26158 107.853 5.39441 106.21 7.03702C104.211 9.03641 103.528 10.7333 103.372 14.0896C103.255 16.6059 103.354 17.2516 104.111 18.8822C105.959 22.8657 109.194 24.9428 113.869 25.1484L116.798 25.2772V22.9335V20.5894H114.433C112.554 20.5894 111.758 20.408 110.562 19.7068C107.779 18.0759 106.784 14.3608 108.378 11.5474C110.932 7.03702 117.236 7.12506 119.549 11.7036C120.283 13.1563 120.348 13.769 120.348 19.2446V25.2045H122.684H125.02L124.902 18.7256C124.792 12.6099 124.734 12.136 123.859 10.2704C121.708 5.68409 117.066 3.16994 112.155 3.93107ZM53.2537 4.47316C49.3785 5.88502 46.5108 9.09783 45.7518 12.8783C45.4106 14.5766 45.4404 15.319 45.9293 17.3102C48.0266 25.8502 58.1684 28.7226 64.3399 22.5238C67.1441 19.7075 68.1949 15.199 66.9332 11.3993C66.1774 9.1241 63.6416 6.27376 61.3319 5.1033C59.0279 3.93604 55.4867 3.65949 53.2537 4.47316ZM7.9894 9.0783C6.35957 9.92819 5.75961 10.5977 5.11492 12.2861C2.6494 18.7419 10.5738 23.7837 15.332 18.787C16.7538 17.2935 17.3197 15.21 16.8653 13.1406C16.5752 11.82 14.8684 9.76382 13.4561 9.03357C12.1497 8.358 9.32706 8.38107 7.9894 9.0783ZM53.5175 9.25368C48.9898 11.6439 49.0533 18.2662 53.6265 20.5993C57.4808 22.5657 61.9311 20.3164 62.9791 15.8724C63.5219 13.5702 61.4874 10.0223 59.0379 8.99878C57.4173 8.32178 55.0781 8.42971 53.5175 9.25368ZM25.2065 18.6368V25.2045H27.3365H29.4666V18.6368V12.0692H27.3365H25.2065V18.6368ZM95.1427 18.8143V25.5932L97.3615 25.4877L99.5803 25.382V18.8143V12.2467L97.3615 12.1409L95.1427 12.0355V18.8143ZM0.193824 29.0208C0.801239 32.6138 3.69667 36.2388 6.95314 37.4823L8.5212 38.0812V40.163V42.2447H10.8287H13.1363V40.163V38.0812L14.7043 37.4823C17.9608 36.2388 20.8562 32.6138 21.4637 29.0208L21.6887 27.6895H19.4046H17.1205L16.8859 28.9395C16.414 31.4543 13.5399 33.7246 10.8287 33.7246C8.11756 33.7246 5.24343 31.4543 4.77163 28.9395L4.53697 27.6895H2.25286H-0.03125L0.193824 29.0208Z" fill="white"/>
</g>
<defs>
<clipPath id="clip0_1778_1363">
<rect width="124.962" height="42.2457" fill="white"/>
</clipPath>
</defs>
</svg>
