<svg width="126" height="43" viewBox="0 0 126 43" fill="none" xmlns="http://www.w3.org/2000/svg">
<g clip-path="url(#clip0_1405_4922)">
<path fill-rule="evenodd" clip-rule="evenodd" d="M9.16773 2.37039L9.16666 4.41167L7.48145 5.10358C2.57527 7.11859 -0.218985 12.6471 1.1737 17.5845C1.94229 20.3099 3.28492 22.2447 5.39011 23.6612C9.7187 26.5736 15.2334 26.0848 18.8502 22.468C20.7381 20.5801 21.4627 19.2261 21.9444 16.6856C22.8326 12.0017 20.0167 6.9741 15.4531 5.09683L13.7867 4.41167L13.7856 2.37039L13.7842 0.329102H11.4767H9.16915L9.16773 2.37039ZM25.8544 6.0092V8.13923H27.9845H30.1145V6.0092V3.87916H27.9845H25.8544V6.0092ZM34.0906 12.515C34.1949 20.9745 34.2145 21.1765 35.0526 22.3984C36.5227 24.5423 38.045 25.3315 40.999 25.4806L43.6047 25.6123V23.4872V21.3625L41.6341 21.1988C38.8129 20.9649 38.4571 20.4853 38.4571 16.9136V13.9968L40.6759 13.891L42.8947 13.7856V11.6893V9.59298L40.6759 9.48755L38.4571 9.38176L38.3535 6.63046L38.2498 3.87916H36.1169H33.9844L34.0906 12.515ZM79.7869 4.26115C76.4808 4.77342 73.5147 6.89884 71.8085 9.97852L70.7627 11.8668L70.6569 24.2033L70.5511 36.5397H72.8622H75.1733L75.2755 24.4951C75.3739 12.9134 75.4062 12.4117 76.1204 11.4486C78.6605 8.02208 82.8783 7.5588 85.7145 10.3946C88.2698 12.9503 88.5087 16.1986 86.3315 18.7859C84.97 20.404 83.7002 20.9195 81.0756 20.9195H78.7503V23.2714V25.6236L81.6834 25.4696C84.068 25.3446 84.9715 25.1224 86.5136 24.2831C90.2003 22.2766 92.2406 18.9282 92.2406 14.8843C92.2406 12.1032 91.3846 9.86847 89.5287 7.80411C86.9496 4.93601 83.5088 3.68426 79.7869 4.26115ZM95.7906 6.0092V8.17296L98.0094 8.06752L100.228 7.96173V6.0092V4.05666L98.0094 3.95087L95.7906 3.84544V6.0092ZM112.803 4.26115C110.668 4.59166 108.501 5.72448 106.858 7.3671C104.859 9.36649 104.176 11.0634 104.02 14.4196C103.903 16.9359 104.002 17.5817 104.759 19.2122C106.607 23.1958 109.842 25.2729 114.517 25.4784L117.446 25.6073V23.2636V20.9195H115.081C113.202 20.9195 112.406 20.738 111.21 20.0369C108.427 18.406 107.432 14.6909 109.026 11.8774C111.58 7.3671 117.884 7.45514 120.197 12.0337C120.931 13.4863 120.996 14.0991 120.996 19.5747V25.5345H123.332H125.668L125.55 19.0557C125.44 12.94 125.382 12.466 124.507 10.6005C122.356 6.01417 117.714 3.50002 112.803 4.26115ZM53.9017 4.80324C50.0264 6.2151 47.1587 9.42791 46.3997 13.2084C46.0585 14.9067 46.0884 15.649 46.5772 17.6403C48.6746 26.1803 58.8164 29.0526 64.9878 22.8539C67.792 20.0376 68.8428 15.529 67.5811 11.7294C66.8253 9.45418 64.2895 6.60383 61.9798 5.43338C59.6759 4.26612 56.1347 3.98957 53.9017 4.80324ZM8.63735 9.40838C7.00752 10.2583 6.40756 10.9278 5.76287 12.6162C3.29735 19.072 11.2218 24.1138 15.9799 19.1171C17.4017 17.6236 17.9676 15.54 17.5132 13.4707C17.2232 12.1501 15.5163 10.0939 14.1041 9.36365C12.7977 8.68807 9.97501 8.71115 8.63735 9.40838ZM54.1655 9.58375C49.6377 11.974 49.7013 18.5963 54.2744 20.9294C58.1287 22.8958 62.5791 20.6465 63.6271 16.2025C64.1699 13.9003 62.1353 10.3523 59.6858 9.32886C58.0652 8.65186 55.7261 8.75978 54.1655 9.58375ZM25.8544 18.9669V25.5345H27.9845H30.1145V18.9669V12.3993H27.9845H25.8544V18.9669ZM95.7906 19.1444V25.9233L98.0094 25.8178L100.228 25.712V19.1444V12.5768L98.0094 12.471L95.7906 12.3656V19.1444ZM0.841773 29.3508C1.44919 32.9439 4.34462 36.5688 7.60109 37.8124L9.16915 38.4113V40.4931V42.5748H11.4767H13.7842V40.4931V38.4113L15.3523 37.8124C18.6088 36.5688 21.5042 32.9439 22.1116 29.3508L22.3367 28.0196H20.0526H17.7685L17.5338 29.2696C17.062 31.7844 14.1879 34.0547 11.4767 34.0547C8.76551 34.0547 5.89138 31.7844 5.41958 29.2696L5.18492 28.0196H2.90081H0.616699L0.841773 29.3508Z" fill="#8A94A6"/>
</g>
<defs>
<clipPath id="clip0_1405_4922">
<rect width="124.962" height="42.2457" fill="white" transform="translate(0.647949 0.330078)"/>
</clipPath>
</defs>
</svg>
