<svg width="125" height="43" viewBox="0 0 125 43" fill="none" xmlns="http://www.w3.org/2000/svg">
<g clip-path="url(#clip0_1756_1117)">
<path fill-rule="evenodd" clip-rule="evenodd" d="M8.51973 2.04031L8.51867 4.08159L6.83346 4.7735C1.92727 6.78851 -0.86698 12.317 0.525709 17.2544C1.2943 19.9798 2.63693 21.9146 4.74212 23.3311C9.0707 26.2436 14.5854 25.7547 18.2022 22.1379C20.0901 20.25 20.8147 18.896 21.2964 16.3556C22.1846 11.6716 19.3687 6.64403 14.8051 4.76675L13.1387 4.08159L13.1377 2.04031L13.1362 -0.000976562H10.8287H8.52115L8.51973 2.04031ZM25.2064 5.67912V7.80916H27.3365H29.4665V5.67912V3.54908H27.3365H25.2064V5.67912ZM33.4426 12.185C33.547 20.6444 33.5665 20.8464 34.4046 22.0683C35.8747 24.2122 37.397 25.0014 40.351 25.1505L42.9567 25.2822V23.1571V21.0324L40.9861 20.8688C38.1649 20.6348 37.8092 20.1552 37.8092 16.5835V13.6668L40.0279 13.561L42.2467 13.4555V11.3592V9.26291L40.0279 9.15747L37.8092 9.05168L37.7055 6.30038L37.6018 3.54908H35.469H33.3364L33.4426 12.185ZM79.139 3.93107C75.8328 4.44334 72.8667 6.56877 71.1606 9.64844L70.1147 11.5367L70.0089 23.8732L69.9031 36.2096H72.2142H74.5253L74.6275 24.165C74.7259 12.5833 74.7582 12.0817 75.4725 11.1185C78.0125 7.692 82.2304 7.22872 85.0665 10.0645C87.6218 12.6202 87.8607 15.8685 85.6835 18.4558C84.322 20.0739 83.0522 20.5894 80.4276 20.5894H78.1023V22.9413V25.2936L81.0354 25.1395C83.42 25.0145 84.3235 24.7923 85.8656 23.9531C89.5523 21.9466 91.5926 18.5981 91.5926 14.5543C91.5926 11.7732 90.7366 9.53839 88.8807 7.47403C86.3016 4.60594 82.8608 3.35419 79.139 3.93107ZM95.1426 5.67912V7.84288L97.3614 7.73745L99.5802 7.63165V5.67912V3.72659L97.3614 3.6208L95.1426 3.51536V5.67912ZM112.155 3.93107C110.02 4.26158 107.853 5.39441 106.21 7.03702C104.211 9.03641 103.528 10.7333 103.372 14.0896C103.255 16.6059 103.354 17.2516 104.111 18.8822C105.959 22.8657 109.194 24.9428 113.869 25.1484L116.798 25.2772V22.9335V20.5894H114.433C112.554 20.5894 111.758 20.408 110.562 19.7068C107.779 18.0759 106.784 14.3608 108.378 11.5474C110.932 7.03702 117.236 7.12506 119.549 11.7036C120.283 13.1563 120.348 13.769 120.348 19.2446V25.2045H122.684H125.02L124.902 18.7256C124.792 12.6099 124.734 12.136 123.859 10.2704C121.708 5.68409 117.066 3.16994 112.155 3.93107ZM53.2537 4.47316C49.3784 5.88502 46.5107 9.09783 45.7517 12.8783C45.4105 14.5766 45.4404 15.319 45.9292 17.3102C48.0266 25.8502 58.1684 28.7226 64.3398 22.5238C67.144 19.7075 68.1948 15.199 66.9331 11.3993C66.1773 9.1241 63.6415 6.27376 61.3319 5.1033C59.0279 3.93604 55.4867 3.65949 53.2537 4.47316ZM7.98936 9.0783C6.35952 9.92819 5.75956 10.5977 5.11487 12.2861C2.64935 18.7419 10.5738 23.7837 15.3319 18.787C16.7537 17.2935 17.3196 15.21 16.8652 13.1406C16.5752 11.82 14.8683 9.76382 13.4561 9.03357C12.1497 8.358 9.32702 8.38107 7.98936 9.0783ZM53.5175 9.25368C48.9897 11.6439 49.0533 18.2662 53.6264 20.5993C57.4807 22.5657 61.9311 20.3164 62.9791 15.8724C63.5219 13.5702 61.4873 10.0223 59.0378 8.99878C57.4172 8.32178 55.0781 8.42971 53.5175 9.25368ZM25.2064 18.6368V25.2045H27.3365H29.4665V18.6368V12.0692H27.3365H25.2064V18.6368ZM95.1426 18.8143V25.5932L97.3614 25.4877L99.5802 25.382V18.8143V12.2467L97.3614 12.1409L95.1426 12.0355V18.8143ZM0.193778 29.0208C0.801193 32.6138 3.69662 36.2388 6.95309 37.4823L8.52115 38.0812V40.163V42.2447H10.8287H13.1362V40.163V38.0812L14.7043 37.4823C17.9608 36.2388 20.8562 32.6138 21.4636 29.0208L21.6887 27.6895H19.4046H17.1205L16.8858 28.9395C16.414 31.4543 13.5399 33.7246 10.8287 33.7246C8.11751 33.7246 5.24338 31.4543 4.77158 28.9395L4.53692 27.6895H2.25281H-0.0312958L0.193778 29.0208Z" fill="#8A94A6"/>
</g>
<defs>
<clipPath id="clip0_1756_1117">
<rect width="124.962" height="42.2457" fill="white"/>
</clipPath>
</defs>
</svg>
