<svg width="47" height="47" viewBox="0 0 47 47" fill="none" xmlns="http://www.w3.org/2000/svg">
<circle cx="23.5" cy="23.5" r="23.5" fill="black"/>
<path fill-rule="evenodd" clip-rule="evenodd" d="M21.4094 9.53003L21.4086 11.0601L20.1454 11.5787C16.468 13.089 14.3736 17.2328 15.4175 20.9337C15.9936 22.9764 16.9999 24.4266 18.5779 25.4883C21.8223 27.6714 25.9558 27.305 28.6667 24.594C30.0818 23.1789 30.6249 22.1641 30.986 20.2599C31.6518 16.7491 29.5411 12.9807 26.1205 11.5736L24.8715 11.0601L24.8707 9.53003L24.8696 8H23.14H21.4104L21.4094 9.53003ZM21.0118 14.8053C19.7902 15.4423 19.3405 15.9442 18.8573 17.2097C17.0093 22.0486 22.949 25.8276 26.5154 22.0824C27.5811 20.9629 28.0052 19.4012 27.6646 17.8502C27.4472 16.8603 26.1679 15.3191 25.1094 14.7718C24.1301 14.2654 22.0144 14.2827 21.0118 14.8053ZM15.1687 29.753C15.624 32.4461 17.7942 35.1632 20.2351 36.0953L21.4104 36.5442V38.1046V39.6649H23.14H24.8696V38.1046V36.5442L26.0449 36.0953C28.4858 35.1632 30.656 32.4461 31.1113 29.753L31.28 28.7552H29.568H27.856L27.6801 29.6921C27.3264 31.5771 25.1722 33.2787 23.14 33.2787C21.1079 33.2787 18.9536 31.5771 18.6 29.6921L18.4241 28.7552H16.712H15L15.1687 29.753Z" fill="white"/>
</svg>
