<svg width="203" height="22" viewBox="0 0 203 22" fill="none" xmlns="http://www.w3.org/2000/svg">
<path d="M80.5791 21.2402H91.8836V0.206916H80.5791V21.2402ZM72.0821 0.202687H78.7837V2.91803H72.5864C71.564 2.91803 70.7265 3.21409 70.0752 3.80411C69.4228 4.39518 69.0971 5.1713 69.0971 6.13351C69.0971 7.11581 69.4228 7.9025 70.0752 8.49251C70.7265 9.08359 71.564 9.37859 72.5864 9.37859H78.7837V21.2392H65.2546V18.5186H72.3464C73.4493 18.5186 74.347 18.2077 75.0385 17.587C75.73 16.9663 76.0758 16.1743 76.0758 15.2132C76.0758 14.252 75.73 13.4706 75.0385 12.869C74.347 12.2684 73.4493 11.9671 72.3464 11.9671L71.4466 11.9829C68.5526 11.9829 66.202 9.64822 66.184 6.75736L66.1798 6.12293V6.09967C66.1798 2.84295 68.8222 0.202687 72.0821 0.202687ZM100.15 0.202687H106.643V2.91803H100.654C99.632 2.91803 98.7946 3.21409 98.1432 3.80411C97.4908 4.39518 97.1651 5.1713 97.1651 6.13351C97.1651 7.11581 97.4908 7.9025 98.1432 8.49251C98.7946 9.08359 99.632 9.37859 100.654 9.37859H106.643V15.2291C106.643 18.5492 103.95 21.2402 100.628 21.2402H100.207H93.7371V18.5196H100.207C101.31 18.5196 102.208 18.2087 102.899 17.5881C103.591 16.9674 103.937 16.1754 103.937 15.2143C103.937 14.2531 103.591 13.4717 102.899 12.87C102.208 12.2695 101.31 11.984 100.207 11.984H99.5157H94.2859L94.2489 6.12293V6.09967C94.2478 2.84295 96.8902 0.202687 100.15 0.202687ZM11.4627 0.202687H19.043V2.91803H11.6731C10.289 2.91803 9.01066 3.26379 7.83804 3.95531C6.66541 4.64684 5.73703 5.58896 5.05608 6.78062C4.37407 7.97228 4.0336 9.26968 4.0336 10.6718C4.0336 12.0749 4.37407 13.4907 5.05608 14.6729C5.73703 15.855 6.66541 16.7919 7.83804 17.4823C9.01172 18.1738 10.2901 18.5196 11.6731 18.5196H16.1543V11.984H8.87638V9.33841H19.043V21.2392H11.5833H11.4701C5.6535 21.2445 0.935486 16.5339 0.935486 10.7215C0.935486 4.91224 5.64927 0.202687 11.4627 0.202687ZM41.1232 9.96861V21.2476H38.4406V10.0035C38.4406 6.09016 35.2653 2.91697 31.3488 2.91697C27.4323 2.91697 24.257 6.0891 24.257 10.0035V21.2476H21.5501V0.214318H31.3625C36.753 0.214318 41.1232 4.58128 41.1232 9.96861ZM89.884 6.55011C89.884 8.56759 88.2494 10.2023 86.2319 10.2023C84.2144 10.2023 82.5797 8.56759 82.5797 6.55011C82.5797 4.53264 84.2144 2.89794 86.2319 2.89794C88.2483 2.899 89.884 4.5337 89.884 6.55011ZM113.951 10.7045V10.7289C113.951 16.5381 118.665 21.2402 124.478 21.2402H128.927V18.5196H124.549C120.18 18.5196 116.649 14.934 116.744 10.5481C116.834 6.2826 120.423 2.91803 124.693 2.91803H128.927V0.214318H124.449C118.651 0.214318 113.951 4.91118 113.951 10.7045ZM193.238 0.214318H183.426V21.2392H186.133V10.0035C186.133 6.09016 189.308 2.91697 193.225 2.91697C197.141 2.91697 200.316 6.0891 200.316 10.0035V21.2392H203V9.96861C203 4.58128 198.63 0.214318 193.238 0.214318ZM144.262 7.26596C144.262 7.84751 144.056 8.33814 143.645 8.73782C143.234 9.13857 142.748 9.33841 142.187 9.33841H135.933C135.351 9.33841 134.86 9.13857 134.459 8.73782C134.058 8.33708 133.857 7.84646 133.857 7.26596V0.214318H131.15V21.2392H133.857V14.0564C133.857 13.4759 134.057 12.9853 134.459 12.5846C134.86 12.1838 135.351 11.984 135.933 11.984H142.187C142.749 11.984 143.235 12.1849 143.645 12.5846C144.056 12.9853 144.262 13.4759 144.262 14.0564V21.2392H146.938V0.214318H144.262V7.26596ZM169.898 0.214318V21.2392H181.202V0.214318H169.898ZM175.551 10.2023C173.533 10.2023 171.898 8.56759 171.898 6.55011C171.898 4.53264 173.533 2.89794 175.551 2.89794C177.568 2.89794 179.203 4.53264 179.203 6.55011C179.202 8.56759 177.567 10.2023 175.551 10.2023ZM159.991 1.33302C159.634 0.541047 159.128 0.144531 158.474 0.144531C157.819 0.144531 157.314 0.541047 156.957 1.33302L147.942 21.2392H168.914L159.991 1.33302ZM158.474 17.7932C156.456 17.7932 154.822 16.1585 154.822 14.141C154.822 12.1235 156.456 10.4888 158.474 10.4888C160.491 10.4888 162.126 12.1235 162.126 14.141C162.126 16.1585 160.49 17.7932 158.474 17.7932ZM63.0457 5.36691C62.0804 3.74278 60.7777 2.46653 59.1408 1.5371C57.503 0.609776 55.7192 0.144531 53.7884 0.144531C51.9158 0.144531 50.1468 0.609776 48.4804 1.5371C46.8129 2.46547 45.5113 3.74278 44.5755 5.36691C43.6387 6.9921 43.1713 8.76109 43.1713 10.6771C43.1713 12.592 43.6387 14.3631 44.5755 15.9861C45.5102 17.6113 46.8129 18.9024 48.4804 19.8593C50.1479 20.8173 51.9158 21.2952 53.7884 21.2952C55.7181 21.2952 57.5019 20.8162 59.1408 19.8593C60.7777 18.9013 62.0804 17.6113 63.0457 15.9861C64.0111 14.362 64.4933 12.5909 64.4933 10.6771C64.4933 8.76109 64.0111 6.9921 63.0457 5.36691ZM53.8328 14.3874C51.8101 14.3874 50.1711 12.7474 50.1711 10.7236C50.1711 8.69976 51.8111 7.05977 53.8328 7.05977C55.8556 7.05977 57.4945 8.69976 57.4945 10.7236C57.4956 12.7474 55.8556 14.3874 53.8328 14.3874Z" fill="#133629"/>
</svg>
