<svg width="47" height="47" viewBox="0 0 47 47" fill="none" xmlns="http://www.w3.org/2000/svg">
<path d="M23.5 47C36.4787 47 47 36.4787 47 23.5C47 10.5213 36.4787 0 23.5 0C10.5213 0 0 10.5213 0 23.5C0 36.4787 10.5213 47 23.5 47Z" fill="white"/>
<path d="M5.57896 12.6191C6.69444 13.7346 7.80992 14.8305 8.94497 15.9656C7.43809 17.903 6.851 20.0948 7.35981 22.5215C7.6925 24.1849 8.55357 25.5939 9.82561 26.7094C12.3893 28.96 16.4598 29.5471 19.8845 26.8856C21.0978 28.1185 22.3307 29.3318 23.5636 30.5843C24.8357 29.2926 26.0686 28.0597 27.3015 26.8464C31.098 29.7623 35.423 28.823 37.8692 26.318C40.4328 23.6957 41.0395 19.449 38.378 16.0243C39.4935 14.9088 40.609 13.7933 41.7049 12.6778C46.0102 19.2533 46.3821 30.643 38.3584 38.5687C30.6675 46.1814 17.8884 46.5532 9.72777 39.332C1.21489 31.8172 0.862628 20.0557 5.57896 12.6191Z" fill="#3E6957"/>
<path d="M6.98828 10.584C15.1098 -0.335941 32.1355 -0.355509 40.3157 10.6623C34.7579 16.2201 29.2001 21.778 23.6814 27.2967C18.1431 21.7388 12.5853 16.1614 6.98828 10.584ZM23.6618 23.4218C27.9671 19.1556 32.2725 14.8698 36.5974 10.584C29.5523 3.18663 17.2429 3.53889 10.7457 10.5058C15.0315 14.7915 19.3368 19.0969 23.6618 23.4218Z" fill="#3E6957"/>
<path d="M36.6948 17.6494C38.3582 19.763 38.1234 22.9333 36.1468 24.8707C34.1898 26.769 31.0391 26.9451 29.043 25.3012C31.587 22.7376 34.1507 20.1935 36.6948 17.6494Z" fill="#3E6957"/>
<path d="M18.1994 25.3002C16.1641 26.9441 12.9938 26.7288 11.0564 24.7914C9.11899 22.8344 8.90373 19.6837 10.5476 17.668C13.0917 20.1925 15.6358 22.7366 18.1994 25.3002Z" fill="#3E6957"/>
</svg>
