<svg width="47" height="47" viewBox="0 0 47 47" fill="none" xmlns="http://www.w3.org/2000/svg">
<circle cx="23.5" cy="23.5" r="23.5" fill="black"/>
<mask id="mask0_6174_546" style="mask-type:alpha" maskUnits="userSpaceOnUse" x="0" y="0" width="47" height="47">
<circle cx="23.5" cy="23.5" r="23.5" fill="black"/>
</mask>
<g mask="url(#mask0_6174_546)">
<path d="M32.4069 39.4228C33.3646 38.4233 33.9903 37.0671 34.169 35.6033C34.2021 35.3313 34.2942 34.583 34.4237 33.5348C36.4338 17.2307 36.4338 17.0487 36.4338 16.797C36.4338 16.7351 36.4327 16.6709 36.4305 16.6068C36.3787 14.9972 35.6388 13.4699 34.4011 12.4151C33.144 11.3438 31.4812 10.8439 29.8384 11.0429L11.1047 13.3174C8.74451 13.6042 6.76745 15.3152 6.18469 17.5755C6.0623 18.0497 6 18.5398 6 19.0321C6 19.0946 6.0011 19.1587 6.00331 19.2251C6.07222 21.3187 7.30499 23.2096 9.2203 24.1596C11.3771 25.17 15.7254 26.3377 18.309 28.9068C20.8925 31.4757 22.0602 35.7941 23.0763 37.9382L23.0834 37.9518C24.0428 39.8744 25.9558 41.1134 28.0774 41.1848C28.1447 41.1869 28.2119 41.1881 28.2786 41.1881C29.8493 41.1881 31.3154 40.5609 32.4064 39.4216L32.4069 39.4228Z" fill="url(#paint0_linear_6174_546)"/>
<path opacity="0.4" d="M24.5312 35.355C24.5312 37.4136 26.2162 39.0846 28.2792 39.0846C30.3423 39.0846 32.0332 37.4076 32.0332 35.355C32.0332 33.3025 30.3483 31.6255 28.2792 31.6255C26.2106 31.6255 24.5312 33.3025 24.5312 35.355Z" fill="white"/>
<path opacity="0.4" d="M26.7812 16.8331C26.7812 18.8917 28.4661 20.5627 30.5291 20.5627C32.5922 20.5627 34.2831 18.8856 34.2831 16.8331C34.2831 14.7805 32.5983 13.1035 30.5291 13.1035C28.4606 13.1035 26.7812 14.7805 26.7812 16.8331Z" fill="white"/>
<path opacity="0.4" d="M8.15625 19.0679C8.15625 21.1265 9.8411 22.7975 11.9102 22.7975C13.9794 22.7975 15.6582 21.1205 15.6582 19.0679C15.6582 17.0154 13.9733 15.3384 11.9102 15.3384C9.84717 15.3384 8.15625 17.0154 8.15625 19.0679Z" fill="white"/>
</g>
<defs>
<linearGradient id="paint0_linear_6174_546" x1="12.4333" y1="31.2492" x2="31.8388" y2="8.46885" gradientUnits="userSpaceOnUse">
<stop stop-color="#9B8564"/>
<stop offset="1" stop-color="#DBD5C7"/>
</linearGradient>
</defs>
</svg>
