<svg width="187" height="33" viewBox="0 0 187 33" fill="none" xmlns="http://www.w3.org/2000/svg">
<path d="M52.4394 26.7735C51.2182 26.7735 50.0702 26.5537 48.9955 26.1141C47.9371 25.6582 47.0009 25.0231 46.1867 24.209C45.3888 23.3948 44.762 22.4585 44.306 21.4002C43.8664 20.3255 43.6466 19.1694 43.6466 17.9319C43.6466 16.6781 43.8745 15.522 44.3305 14.4636C44.7864 13.3889 45.4214 12.4526 46.2356 11.6548C47.0497 10.8406 48.0023 10.2137 49.0932 9.7741C50.1842 9.31817 51.3647 9.09021 52.6348 9.09021C54.0514 9.09021 55.354 9.35888 56.5427 9.89622C57.7314 10.4173 58.7165 11.1582 59.4981 12.1188L57.251 14.3659C56.7137 13.6657 56.0461 13.1284 55.2482 12.7539C54.4503 12.3794 53.5711 12.1921 52.6104 12.1921C51.5194 12.1921 50.5506 12.4364 49.7038 12.9249C48.8734 13.3971 48.2221 14.0647 47.7499 14.9277C47.2777 15.7744 47.0416 16.7676 47.0416 17.9075C47.0416 19.0473 47.2695 20.0568 47.7255 20.9361C48.1977 21.7991 48.8327 22.4748 49.6306 22.9633C50.4447 23.4518 51.3728 23.6961 52.415 23.6961C53.4896 23.6961 54.4096 23.5007 55.1749 23.1099C55.9402 22.7028 56.5264 22.1166 56.9335 21.3513C57.3406 20.5697 57.5441 19.6172 57.5441 18.4936L59.7179 19.9835L52.2196 19.9103V17.0282H60.9635V17.4922C60.9635 19.5439 60.5972 21.2617 59.8644 22.6458C59.1317 24.0136 58.1221 25.0475 56.8358 25.7477C55.5657 26.4316 54.1002 26.7735 52.4394 26.7735ZM69.178 26.7735C68.1359 26.7735 67.2077 26.5537 66.3936 26.1141C65.5957 25.6744 64.9688 25.0638 64.5129 24.2822C64.057 23.5007 63.829 22.597 63.829 21.5711V14.7323H67.0531V21.4979C67.0531 21.9863 67.1345 22.4097 67.2973 22.7679C67.4601 23.1099 67.7044 23.3704 68.03 23.5495C68.3557 23.7286 68.7383 23.8182 69.178 23.8182C69.8456 23.8182 70.3666 23.6146 70.7411 23.2076C71.1157 22.8005 71.3029 22.2306 71.3029 21.4979V14.7323H74.5025V21.5711C74.5025 22.6132 74.2746 23.5251 73.8186 24.3067C73.379 25.0883 72.7521 25.6989 71.9379 26.1385C71.1401 26.5619 70.2201 26.7735 69.178 26.7735ZM78.0275 26.5293V14.7323H81.2515V26.5293H78.0275ZM79.6395 12.8272C79.1184 12.8272 78.6869 12.6562 78.345 12.3142C78.003 11.956 77.8321 11.5164 77.8321 10.9953C77.8321 10.4905 78.003 10.059 78.345 9.70082C78.6869 9.3426 79.1184 9.16348 79.6395 9.16348C80.1768 9.16348 80.6083 9.3426 80.934 9.70082C81.2759 10.059 81.4469 10.4905 81.4469 10.9953C81.4469 11.5164 81.2759 11.956 80.934 12.3142C80.6083 12.6562 80.1768 12.8272 79.6395 12.8272ZM85.0629 26.5293V8.87039H88.2625V26.5293H85.0629ZM97.057 26.7735C95.966 26.7735 94.9891 26.5049 94.1261 25.9675C93.2631 25.4302 92.5792 24.6975 92.0744 23.7693C91.5859 22.8412 91.3417 21.7991 91.3417 20.643C91.3417 19.4706 91.5859 18.4204 92.0744 17.4922C92.5792 16.5641 93.2549 15.8314 94.1016 15.294C94.9646 14.7567 95.9498 14.488 97.057 14.488C97.9037 14.488 98.6609 14.659 99.3285 15.0009C100.012 15.3429 100.558 15.8232 100.965 16.442C101.388 17.0445 101.616 17.7283 101.649 18.4936V22.6947C101.616 23.46 101.396 24.152 100.989 24.7707C100.582 25.3895 100.037 25.878 99.3529 26.2362C98.669 26.5944 97.9037 26.7735 97.057 26.7735ZM97.5943 23.8182C98.1968 23.8182 98.7179 23.6879 99.1575 23.4274C99.6134 23.1506 99.9635 22.7761 100.208 22.3039C100.468 21.8154 100.599 21.2536 100.599 20.6186C100.599 19.9998 100.468 19.4543 100.208 18.9821C99.9635 18.4936 99.6134 18.1191 99.1575 17.8586C98.7179 17.5818 98.205 17.4434 97.6188 17.4434C97.0163 17.4434 96.4871 17.5818 96.0312 17.8586C95.5915 18.1354 95.2415 18.5099 94.9809 18.9821C94.7367 19.4543 94.6146 19.9998 94.6146 20.6186C94.6146 21.2536 94.7367 21.8154 94.9809 22.3039C95.2415 22.7761 95.5997 23.1506 96.0556 23.4274C96.5115 23.6879 97.0244 23.8182 97.5943 23.8182ZM103.603 26.5293H100.428V23.3541L100.941 20.472L100.403 17.6388V8.87039H103.603V26.5293ZM111.538 26.5293L118.45 9.35888H121.161L128.049 26.5293H124.507L119.183 12.4364H120.404L115.006 26.5293H111.538ZM115.202 23.3297V20.5453H124.434V23.3297H115.202ZM135.505 26.7735C134.463 26.7735 133.535 26.5537 132.72 26.1141C131.923 25.6744 131.296 25.0638 130.84 24.2822C130.384 23.5007 130.156 22.597 130.156 21.5711V14.7323H133.38V21.4979C133.38 21.9863 133.461 22.4097 133.624 22.7679C133.787 23.1099 134.031 23.3704 134.357 23.5495C134.682 23.7286 135.065 23.8182 135.505 23.8182C136.172 23.8182 136.693 23.6146 137.068 23.2076C137.442 22.8005 137.63 22.2306 137.63 21.4979V14.7323H140.829V21.5711C140.829 22.6132 140.601 23.5251 140.145 24.3067C139.706 25.0883 139.079 25.6989 138.265 26.1385C137.467 26.5619 136.547 26.7735 135.505 26.7735ZM149.337 26.7735C148.246 26.7735 147.269 26.5049 146.406 25.9675C145.543 25.4302 144.859 24.6975 144.354 23.7693C143.866 22.8412 143.622 21.7991 143.622 20.643C143.622 19.4706 143.866 18.4204 144.354 17.4922C144.859 16.5641 145.535 15.8314 146.382 15.294C147.245 14.7567 148.23 14.488 149.337 14.488C150.184 14.488 150.941 14.659 151.608 15.0009C152.292 15.3429 152.838 15.8232 153.245 16.442C153.668 17.0445 153.896 17.7283 153.929 18.4936V22.6947C153.896 23.46 153.676 24.152 153.269 24.7707C152.862 25.3895 152.317 25.878 151.633 26.2362C150.949 26.5944 150.184 26.7735 149.337 26.7735ZM149.874 23.8182C150.477 23.8182 150.998 23.6879 151.437 23.4274C151.893 23.1506 152.243 22.7761 152.488 22.3039C152.748 21.8154 152.878 21.2536 152.878 20.6186C152.878 19.9998 152.748 19.4543 152.488 18.9821C152.243 18.4936 151.893 18.1191 151.437 17.8586C150.998 17.5818 150.485 17.4434 149.899 17.4434C149.296 17.4434 148.767 17.5818 148.311 17.8586C147.871 18.1354 147.521 18.5099 147.261 18.9821C147.017 19.4543 146.894 19.9998 146.894 20.6186C146.894 21.2536 147.017 21.8154 147.261 22.3039C147.521 22.7761 147.88 23.1506 148.335 23.4274C148.791 23.6879 149.304 23.8182 149.874 23.8182ZM155.883 26.5293H152.707V23.3541L153.22 20.472L152.683 17.6388V8.87039H155.883V26.5293ZM159.69 26.5293V14.7323H162.914V26.5293H159.69ZM161.302 12.8272C160.781 12.8272 160.35 12.6562 160.008 12.3142C159.666 11.956 159.495 11.5164 159.495 10.9953C159.495 10.4905 159.666 10.059 160.008 9.70082C160.35 9.3426 160.781 9.16348 161.302 9.16348C161.84 9.16348 162.271 9.3426 162.597 9.70082C162.939 10.059 163.11 10.4905 163.11 10.9953C163.11 11.5164 162.939 11.956 162.597 12.3142C162.271 12.6562 161.84 12.8272 161.302 12.8272ZM168.46 26.5293V9.82295H171.659V26.5293H168.46ZM165.7 17.5411V14.7323H174.419V17.5411H165.7ZM181.012 26.798C180.344 26.798 179.685 26.7084 179.033 26.5293C178.398 26.3502 177.812 26.1059 177.275 25.7966C176.737 25.4709 176.273 25.0801 175.882 24.6242L177.788 22.6947C178.195 23.1506 178.667 23.4925 179.204 23.7205C179.742 23.9484 180.336 24.0624 180.987 24.0624C181.508 24.0624 181.899 23.9891 182.16 23.8426C182.436 23.6961 182.575 23.4762 182.575 23.1831C182.575 22.8575 182.428 22.6051 182.135 22.426C181.858 22.2469 181.492 22.1003 181.036 21.9863C180.58 21.8561 180.1 21.7177 179.595 21.5711C179.107 21.4083 178.634 21.2048 178.178 20.9605C177.722 20.7 177.348 20.3499 177.055 19.9103C176.778 19.4543 176.64 18.8681 176.64 18.1517C176.64 17.4027 176.819 16.7514 177.177 16.1977C177.551 15.6441 178.081 15.2126 178.765 14.9032C179.448 14.5939 180.254 14.4392 181.183 14.4392C182.16 14.4392 183.039 14.6101 183.82 14.9521C184.618 15.294 185.278 15.8069 185.799 16.4908L183.869 18.4204C183.511 17.9807 183.104 17.6632 182.648 17.4678C182.208 17.2724 181.728 17.1747 181.207 17.1747C180.735 17.1747 180.368 17.248 180.108 17.3945C179.864 17.5411 179.742 17.7446 179.742 18.0051C179.742 18.2982 179.88 18.5262 180.157 18.689C180.45 18.8519 180.824 18.9984 181.28 19.1287C181.736 19.2427 182.208 19.3811 182.697 19.5439C183.202 19.6904 183.674 19.9021 184.114 20.1789C184.569 20.4557 184.936 20.8221 185.213 21.278C185.506 21.734 185.652 22.3201 185.652 23.0366C185.652 24.1927 185.237 25.1127 184.407 25.7966C183.576 26.4642 182.445 26.798 181.012 26.798Z" fill="#8A94A6"/>
<path fill-rule="evenodd" clip-rule="evenodd" d="M16.4916 0.0012207C7.29138 0.550996 0 8.18632 0 17.5246C0 24.1969 3.72239 29.9998 9.20377 32.9699L16.4916 0.0012207ZM25.9083 32.9688C31.0727 30.1697 34.6752 24.8558 35.0735 18.6695H22.898L25.9083 32.9688ZM34.6942 13.7083H21.7531L18.6697 0.00434483C26.5555 0.498417 33.0295 6.19888 34.6942 13.7083Z" fill="#8A94A6"/>
</svg>
