<svg width="205" height="56" viewBox="0 0 205 56" fill="none" xmlns="http://www.w3.org/2000/svg">
<g clip-path="url(#clip0_3736_692)">
<mask id="mask0_3736_692" style="mask-type:luminance" maskUnits="userSpaceOnUse" x="0" y="0" width="204" height="56">
<path d="M203.6 0H0.650391V55.4288H203.6V0Z" fill="white"/>
</mask>
<g mask="url(#mask0_3736_692)">
<path d="M54.4548 18.874L53.998 19.3306L55.2229 20.5555L55.6795 20.0989L54.4548 18.874Z" fill="#050505"/>
<path d="M54.4397 18.9404L54.0273 19.3528L55.2522 20.5777L55.6646 20.1653L54.4397 18.9404Z" fill="#050505"/>
<g clip-path="url(#clip1_3736_692)">
<path d="M46.8388 22.5181C43.9576 22.5181 41.4199 24.5793 39.9102 27.7145C41.4199 30.8497 43.9576 32.911 46.8388 32.911C49.7198 32.911 52.2575 30.8497 53.7674 27.7145C52.2575 24.5793 49.7198 22.5181 46.8388 22.5181ZM46.8388 31.1788C44.9247 31.1788 43.3745 29.6285 43.3745 27.7145C43.3745 25.8004 44.9247 24.2502 46.8388 24.2502C48.7527 24.2502 50.3031 25.8004 50.3031 27.7145C50.3031 29.6285 48.7527 31.1788 46.8388 31.1788Z" fill="#B291FF"/>
<path d="M37.6012 18.4766L35.8691 20.2087H38.32H39.0447H54.3453V36.234L36.8823 53.697H20.8571V38.9737V37.6717V35.2206L19.125 36.9528V55.4291H37.6012L56.0774 36.9528V18.4766H37.6012Z" fill="url(#paint0_linear_3736_692)"/>
<path d="M38.0002 35.3286L19.3789 53.9499L20.6037 55.1748L39.225 36.5535L38.0002 35.3286Z" fill="url(#paint1_linear_3736_692)"/>
<path d="M54.3458 20.2087V35.2206H39.3337V20.2087H54.3458ZM56.0779 18.4766H37.6016V36.9528H56.0779V18.4766Z" fill="#B291FF"/>
<path d="M19.1266 18.4762L37.603 0H19.1266L0.650391 18.4762H19.1266Z" fill="url(#paint2_linear_3736_692)"/>
<path d="M0.650391 18.4766V36.9528H19.1266V18.4766H0.650391ZM9.88853 32.9112C7.00738 32.9112 4.46978 30.8499 2.95993 27.7147C4.46978 24.5795 7.00738 22.5183 9.88853 22.5183C12.7697 22.5183 15.3073 24.5795 16.8172 27.7147C15.3073 30.8499 12.7697 32.9112 9.88853 32.9112Z" fill="#80C6FF"/>
<path d="M19.125 18.4762V36.3751V36.9526H20.8571L37.6012 20.2084V18.4762V0L19.125 18.4762Z" fill="url(#paint3_linear_3736_692)"/>
<path d="M9.88617 31.1786C11.7995 31.1786 13.3505 29.6276 13.3505 27.7143C13.3505 25.801 11.7995 24.25 9.88617 24.25C7.9729 24.25 6.42188 25.801 6.42188 27.7143C6.42188 29.6276 7.9729 31.1786 9.88617 31.1786Z" fill="#80C6FF"/>
</g>
<path d="M80.6171 26.9059H72.5338V20.5547H69.9355V26.9059V29.2154V35.5666H72.5338V29.2154H80.6171V35.5666H83.2153V29.2154V26.9059V20.5547H80.6171V26.9059Z" fill="#B291FF"/>
<path d="M175.595 23.7305C171.842 23.7305 169.82 26.4441 169.82 29.793C169.82 33.1419 171.842 35.8555 175.595 35.8555C179.347 35.8555 181.369 33.1419 181.369 29.793C181.369 26.4441 179.347 23.7305 175.595 23.7305ZM175.595 33.5459C172.468 33.5459 172.419 30.9218 172.419 29.793C172.419 28.6642 172.468 26.04 175.595 26.04C178.721 26.04 178.771 28.6642 178.771 29.793C178.771 30.9218 178.721 33.5459 175.595 33.5459Z" fill="#B291FF"/>
<path d="M188.585 23.7305C184.832 23.7305 182.811 26.4441 182.811 29.793C182.811 33.1419 184.832 35.8555 188.585 35.8555C192.337 35.8555 194.359 33.1419 194.359 29.793C194.359 26.4441 192.337 23.7305 188.585 23.7305ZM188.585 33.5459C185.459 33.5459 185.409 30.9218 185.409 29.793C185.409 28.6642 185.459 26.04 188.585 26.04C191.711 26.04 191.761 28.6642 191.761 29.793C191.761 30.9218 191.711 33.5459 188.585 33.5459Z" fill="#B291FF"/>
<path d="M103.424 26.04C105.711 26.04 106.352 27.4431 106.531 28.6383H109.111C108.693 25.8437 106.733 23.7305 103.424 23.7305C99.6712 23.7305 97.6504 26.4441 97.6504 29.793C97.6504 33.1419 99.6712 35.8555 103.424 35.8555C106.617 35.8555 108.551 33.8867 109.059 31.2365H106.479C106.239 32.3566 105.529 33.5459 103.424 33.5459C100.298 33.5459 100.249 30.9218 100.249 29.793C100.249 28.6642 100.298 26.04 103.424 26.04Z" fill="#B291FF"/>
<path d="M122.187 24.3077H118.576L113.815 29.2385V19.3999H111.217V35.5667H113.815V32.977L115.87 30.8494L119.052 35.5667H122.187L117.715 28.9382L122.187 24.3077Z" fill="#B291FF"/>
<path d="M127.961 23.7305C124.208 23.7305 122.188 26.4441 122.188 29.793C122.188 33.1419 124.208 35.8555 127.961 35.8555C131.154 35.8555 133.088 33.8867 133.597 31.2365H131.016C130.776 32.3566 130.066 33.5459 127.961 33.5459C125.487 33.5459 124.942 31.9033 124.82 30.6591H133.683C133.715 30.3761 133.735 30.0875 133.735 29.793C133.735 26.4441 131.714 23.7305 127.961 23.7305ZM124.855 28.6383C125.034 27.4431 125.675 26.04 127.961 26.04C130.248 26.04 130.889 27.4431 131.068 28.6383H124.858H124.855Z" fill="#B291FF"/>
<path d="M155.963 20.5547H148.168V35.5666H150.766V30.0815H155.963C158.51 30.0815 160.583 27.9451 160.583 25.3181C160.583 22.6911 158.51 20.5547 155.963 20.5547ZM155.963 27.7719H150.766V22.8643H155.963C157.274 22.8643 158.342 23.9641 158.342 25.3181C158.342 26.6721 157.274 27.7719 155.963 27.7719Z" fill="#B291FF"/>
<path d="M164.624 26.6173V26.0398L164.047 24.3077H162.025V35.5667H164.624V29.2155C164.624 28.0608 166.068 26.6173 168.071 26.6173H168.954V24.019H168.071C166.068 24.019 164.624 25.4625 164.624 26.6173Z" fill="#B291FF"/>
<path d="M141.502 24.019C139.97 24.019 138.604 24.7263 137.709 25.832L137.2 24.3077H135.18V35.5667H137.778V29.1923C137.778 27.4516 139.19 26.0398 140.93 26.0398C142.059 26.0398 142.974 26.955 142.974 28.0809V35.5667H145.572V28.0608C145.558 25.8263 143.742 24.019 141.502 24.019Z" fill="#B291FF"/>
<path d="M201.717 21.4207H203.599V19.3999H200.894C198.879 19.3999 197.248 21.031 197.248 23.046V24.0189H195.516V26.0399H197.248V35.5667H199.846V26.0399H203.31V24.0189H199.846V23.2914C199.846 22.2579 200.683 21.4207 201.717 21.4207Z" fill="#B291FF"/>
<path d="M95.5714 33.0472V27.6977C95.5714 25.1804 93.8305 23.4424 90.678 23.4424C87.5255 23.4424 85.4527 25.1804 85.2102 27.6776H87.8344C87.9875 26.4505 89.0902 25.6047 90.6348 25.6047C92.1793 25.6047 93.0164 26.3611 93.0366 27.5217C93.0135 28.457 91.7144 28.5234 89.9505 28.7254C87.6814 28.994 84.9677 29.5713 84.9475 32.337C84.9243 34.5426 86.6884 35.859 89.3789 35.859C91.3623 35.859 92.6411 35.1027 93.3253 33.8295C93.3484 33.9623 93.3918 34.1182 93.435 34.2308C93.6343 35.1229 94.3618 35.6136 95.5511 35.6136H96.7868V33.564H96.1487C95.7532 33.564 95.5771 33.3849 95.5771 33.05L95.5714 33.0472ZM93.0366 31.2341C93.0366 32.8133 91.6914 33.8382 89.9073 33.8382C88.3859 33.8382 87.5718 33.2378 87.5718 32.2129C87.5718 30.9657 88.7843 30.7665 90.2393 30.5876C91.4748 30.4317 92.5978 30.2758 93.0395 29.5857V31.2312L93.0366 31.2341Z" fill="#B291FF"/>
</g>
</g>
<defs>
<linearGradient id="paint0_linear_3736_692" x1="20.3403" y1="54.7593" x2="30.8429" y2="43.9248" gradientUnits="userSpaceOnUse">
<stop stop-color="#80C6FF"/>
<stop offset="1" stop-color="#B291FF"/>
</linearGradient>
<linearGradient id="paint1_linear_3736_692" x1="19.3797" y1="45.2513" x2="39.2245" y2="45.2513" gradientUnits="userSpaceOnUse">
<stop stop-color="#80C6FF"/>
<stop offset="1" stop-color="#B291FF"/>
</linearGradient>
<linearGradient id="paint2_linear_3736_692" x1="7.33071" y1="21.3661" x2="29.7996" y2="-1.73503" gradientUnits="userSpaceOnUse">
<stop stop-color="#A8FBFF"/>
<stop offset="1" stop-color="#B291FF"/>
</linearGradient>
<linearGradient id="paint3_linear_3736_692" x1="24.1395" y1="23.5284" x2="37.2519" y2="10.5142" gradientUnits="userSpaceOnUse">
<stop offset="0.02" stop-color="#B291FF"/>
<stop offset="1" stop-color="#80C6FF"/>
</linearGradient>
<clipPath id="clip0_3736_692">
<rect width="203.701" height="55.4288" fill="white" transform="translate(0.650391)"/>
</clipPath>
<clipPath id="clip1_3736_692">
<rect width="55.4288" height="55.4288" fill="white" transform="translate(0.650391)"/>
</clipPath>
</defs>
</svg>
