<svg width="128" height="37" viewBox="0 0 128 37" fill="none" xmlns="http://www.w3.org/2000/svg">
<path d="M123.094 0.0209961V7.67964L115.328 0.0209961H111.403V15.189H116.224V7.42364L124.032 15.189H127.894V0.0209961H123.094Z" fill="white"/>
<path d="M48.8108 15.189H61.5467V10.965H48.8108V4.30898H61.5681V0.0209961H48.8108H44.5441H44.0321V15.189H44.5441H48.8108Z" fill="white"/>
<path d="M93.8664 15.189H105.621V11.3703H93.8664V9.27963H105.621V5.88764H93.8664V3.83965H105.621V0.0209961H93.8664H89.4931H89.1091V15.189H89.5785H93.8664Z" fill="white"/>
<path d="M26.9868 11.7757H34.0695V15.2104H38.8055V-0.000244141H22.2509V15.1677H27.0082V11.7757H26.9868ZM26.9868 4.22374H34.0695V7.5944H26.9868V4.22374Z" fill="white"/>
<path d="M4.75756 9.79163H11.7122V15.189H16.4909V0.0209961H11.7122V5.31164H4.75756V0.0209961H0.000244141V15.189H4.75756V9.79163Z" fill="white"/>
<path d="M71.4025 10.453H78.7624L83.4984 5.95164H83.5198V0.0209961H78.7624V5.95164H71.4025V0.0209961H66.6451V15.189H71.4025V10.453Z" fill="white"/>
<path d="M83.5414 10.4519H78.7841V15.1879H83.5414V10.4519Z" fill="white"/>
<path d="M15.8295 20.8828H0.000244141V36.0508H4.75756V32.6161H16.5335V20.8828H15.8295ZM11.7975 28.4561H4.75756V25.0855H11.8402L11.7975 28.4561Z" fill="white"/>
<path d="M34.3899 31.7656V36.0749H38.8059V31.7656H34.3899Z" fill="white"/>
<path d="M38.7842 20.8828H22.2722V36.0721H27.0509V31.7628H34.4108L38.8268 27.2615L38.7842 20.8828ZM34.0695 27.9228H26.9869V24.6161H34.0695V27.9228Z" fill="white"/>
<path d="M105.621 20.8828H93.8665H90.1545H89.1305V27.4961V31.7201V36.0508H93.8665V31.7201H105.621V27.4961H93.8665V25.0855H105.621V20.8828Z" fill="white"/>
<path d="M56.8107 20.8828H44.0321V36.0508H61.5681V20.8828H56.8107ZM56.8107 31.7415H48.8108V25.0855H56.8107V31.7415Z" fill="white"/>
<path d="M83.5624 20.8828H66.6238V36.0508H83.5624V25.1495V20.8828ZM78.8051 31.7415H71.3811V25.0855H78.8051V31.7415Z" fill="white"/>
<path d="M120.229 32.1282C122.241 31.8017 123.607 29.9059 123.28 27.8939C122.954 25.8819 121.058 24.5156 119.046 24.8421C117.034 25.1686 115.668 27.0644 115.994 29.0764C116.321 31.0884 118.217 32.4547 120.229 32.1282Z" fill="#F13F2D"/>
<path d="M127.446 25.919V26.0044L128 25.8337V25.7484C127.147 23.1884 125.184 21.1617 122.646 20.2444H122.56L122.368 20.7991H122.454C124.822 21.6524 126.656 23.551 127.446 25.919Z" fill="white"/>
<path d="M127.382 31.2313C126.528 33.578 124.672 35.434 122.304 36.266H122.219L122.411 36.8206H122.496C125.035 35.946 127.019 33.962 127.936 31.4233V31.338L127.382 31.146V31.2313Z" fill="white"/>
<path d="M111.85 31.0824V30.9971L111.295 31.1891V31.2744C112.17 33.8771 114.197 35.9251 116.799 36.821H116.885L117.077 36.2664H116.991C114.581 35.4344 112.682 33.5144 111.85 31.0824Z" fill="white"/>
<path d="M111.893 25.7913C112.746 23.3594 114.688 21.4607 117.141 20.6714H117.226L117.056 20.1167H116.97C114.346 20.97 112.256 23.018 111.339 25.6207V25.706L111.893 25.898V25.7913Z" fill="white"/>
</svg>
