<svg width="142" height="42" viewBox="0 0 142 42" fill="none" xmlns="http://www.w3.org/2000/svg">
<g clip-path="url(#clip0_1405_4927)">
<path d="M135.866 0.354492V8.92659L127.3 0.354492H122.971V17.3316H128.289V8.64006L136.901 17.3316H141.161V0.354492H135.866Z" fill="#8A94A6"/>
<path d="M53.9273 17.3316H67.9757V12.6038H53.9273V5.15392H67.9996V0.354492H53.9273H49.221H48.6562V17.3316H49.221H53.9273Z" fill="#8A94A6"/>
<path d="M103.627 17.3316H116.593V13.0575H103.627V10.7174H116.593V6.92086H103.627V4.62861H116.593V0.354492H103.627H98.803H98.3794V17.3316H98.8975H103.627Z" fill="#8A94A6"/>
<path d="M29.8549 13.5096H37.6675V17.354H42.8915V0.329102H24.6309V17.3062H29.8784V13.5096H29.8549ZM29.8549 5.0569H37.6675V8.82961H29.8549V5.0569Z" fill="#8A94A6"/>
<path d="M5.33451 11.2905H13.0059V17.3316H18.277V0.354492H13.0059V6.27617H5.33451V0.354492H0.0869141V17.3316H5.33451V11.2905Z" fill="#8A94A6"/>
<path d="M78.8475 12.0307H86.966L92.19 6.99249H92.214V0.354492H86.966V6.99249H78.8475V0.354492H73.6001V17.3316H78.8475V12.0307Z" fill="#8A94A6"/>
<path d="M92.2371 12.0286H86.9897V17.3294H92.2371V12.0286Z" fill="#8A94A6"/>
<path d="M17.5475 23.7056H0.0869141V40.6827H5.33451V36.8383H18.3241V23.7056H17.5475ZM13.1 32.1822H5.33451V28.4094H13.1471L13.1 32.1822Z" fill="#8A94A6"/>
<path d="M38.0203 35.8835V40.7069H42.8914V35.8835H38.0203Z" fill="#8A94A6"/>
<path d="M42.8674 23.7056H24.6538V40.7065H29.925V35.8832H38.0434L42.9145 30.845L42.8674 23.7056ZM37.6669 31.5852H29.8544V27.8842H37.6669V31.5852Z" fill="#8A94A6"/>
<path d="M116.593 23.7056H103.627H99.5326H98.4031V31.1077V35.8354V40.6827H103.627V35.8354H116.593V31.1077H103.627V28.4094H116.593V23.7056Z" fill="#8A94A6"/>
<path d="M62.7518 23.7056H48.6562V40.6827H67.9996V23.7056H62.7518ZM62.7518 35.8594H53.9273V28.4094H62.7518V35.8594Z" fill="#8A94A6"/>
<path d="M92.261 23.7056H73.5771V40.6827H92.261V28.4811V23.7056ZM87.0136 35.8594H78.8245V28.4094H87.0136V35.8594Z" fill="#8A94A6"/>
<path d="M132.706 36.2889C134.925 35.9235 136.432 33.8016 136.072 31.5496C135.712 29.2977 133.62 27.7683 131.401 28.1338C129.182 28.4993 127.675 30.6211 128.035 32.8732C128.395 35.1251 130.487 36.6545 132.706 36.2889Z" fill="#8A94A6"/>
<path d="M140.667 29.3439V29.4394L141.279 29.2484V29.1529C140.337 26.2876 138.172 24.0192 135.372 22.9924H135.278L135.066 23.6133H135.16C137.772 24.5684 139.796 26.6935 140.667 29.3439Z" fill="#8A94A6"/>
<path d="M140.595 35.2881C139.654 37.9147 137.607 39.9921 134.995 40.9233H134.901L135.112 41.5441H135.206C138.007 40.5651 140.195 38.3445 141.207 35.5031V35.4075L140.595 35.1926V35.2881Z" fill="#8A94A6"/>
<path d="M123.464 35.1201V35.0247L122.853 35.2396V35.335C123.817 38.2482 126.053 40.5404 128.924 41.5433H129.018L129.229 40.9224H129.136C126.476 39.9912 124.382 37.8422 123.464 35.1201Z" fill="#8A94A6"/>
<path d="M123.512 29.195C124.453 26.4729 126.594 24.3478 129.3 23.4644H129.395L129.206 22.8435H129.113C126.218 23.7987 123.912 26.0909 122.9 29.004V29.0995L123.512 29.3144V29.195Z" fill="#8A94A6"/>
</g>
<defs>
<clipPath id="clip0_1405_4927">
<rect width="141.191" height="41.5729" fill="white" transform="translate(0.0869141 0.330078)"/>
</clipPath>
</defs>
</svg>
