<svg width="81" height="24" viewBox="0 0 81 24" fill="none" xmlns="http://www.w3.org/2000/svg">
<path d="M13.5037 0.165273L12.0941 8.45267H11.0171L9.60668 0.165273C9.6025 0.139312 9.59315 0.114456 9.57918 0.0921785C9.56521 0.0699013 9.54691 0.0506578 9.52536 0.03559C9.50381 0.0205222 9.47946 0.00993743 9.45374 0.00446416C9.42802 -0.00100911 9.40147 -0.00125939 9.37565 0.00372823C3.93786 1.03118 0 5.80456 0 11.5541C0 17.3037 3.93786 22.0771 9.3852 23.1046C9.41108 23.1097 9.43773 23.1095 9.46355 23.1041C9.48937 23.0987 9.51383 23.0881 9.53547 23.0731C9.55712 23.058 9.5755 23.0387 9.58953 23.0164C9.60355 22.994 9.61293 22.9691 9.6171 22.943L11.0267 14.6556H12.1037L13.5141 22.943C13.5341 23.0542 13.6349 23.1245 13.7452 23.1046C19.1934 22.0875 23.1304 17.3037 23.1304 11.5541C23.1304 5.80456 19.183 1.03118 13.7356 0.00372823C13.7097 -0.00138893 13.6831 -0.00123699 13.6573 0.00417509C13.6314 0.00958717 13.607 0.0201483 13.5853 0.0352274C13.5637 0.0503065 13.5453 0.0695942 13.5313 0.0919381C13.5173 0.114282 13.5079 0.139224 13.5037 0.165273Z" fill="#8A94A6"/>
<path d="M39.5206 7.1842C38.8753 6.81161 38.131 6.63096 37.2746 6.63096C36.4183 6.63096 35.5628 6.84201 34.9383 7.25455C34.3139 7.66797 33.87 8.24206 33.5886 8.9664H33.4479V2.67312H30.125V19.1072H33.5383V11.9776C33.5383 11.4443 33.6494 10.9909 33.8509 10.6183C34.0524 10.2449 34.3338 9.95391 34.6865 9.75241C35.0391 9.55091 35.4516 9.45972 35.9154 9.45972C36.6102 9.45972 37.1539 9.67164 37.5361 10.0937C37.9182 10.5176 38.1102 11.1116 38.1102 11.8673V19.1072H41.5234V11.2628C41.5234 10.2961 41.3523 9.47014 41.0006 8.77533C40.6703 8.10802 40.1523 7.5517 39.5102 7.17465L39.5198 7.1842H39.5206ZM53.3865 8.18126C52.8647 7.66212 52.2357 7.26342 51.5435 7.0131C50.8147 6.74685 50.0439 6.61387 49.268 6.62053C48.059 6.62053 47.0012 6.89238 46.1057 7.42565C45.2094 7.95979 44.5146 8.70498 44.0213 9.66121C43.528 10.6183 43.2865 11.7361 43.2865 12.9946C43.2865 14.2539 43.528 15.4212 44.0213 16.3679C44.4917 17.2907 45.2237 18.0544 46.1257 18.5635C47.042 19.0759 48.1294 19.3382 49.3983 19.3382C50.6672 19.3382 51.3116 19.1776 52.0872 18.8649C52.8628 18.5531 53.4968 18.1093 54.0006 17.5465C54.4939 16.982 54.8256 16.3175 54.9872 15.5619L51.8258 15.3509C51.7042 15.6635 51.5331 15.9241 51.3116 16.136C51.0803 16.3526 50.8055 16.5175 50.5056 16.6198C50.1938 16.7301 49.8412 16.7805 49.4591 16.7805C48.885 16.7805 48.3908 16.6597 47.9783 16.4183C47.5643 16.1755 47.2287 15.8188 47.0116 15.3908C46.7806 14.9479 46.6694 14.4242 46.6694 13.8101H55.0575V12.8747C55.0575 11.8273 54.9064 10.911 54.6146 10.1259C54.3228 9.33986 53.9094 8.68587 53.3865 8.17171V8.18126ZM46.6694 11.7057C46.6894 11.2628 46.7997 10.8598 47.0116 10.4872C47.2317 10.0895 47.5556 9.75899 47.9487 9.53094C48.3508 9.28862 48.8042 9.17832 49.3279 9.17832C49.8516 9.17832 50.2642 9.28862 50.6368 9.49967C51.0102 9.72201 51.3116 10.0138 51.5227 10.3968C51.7346 10.779 51.8458 11.2124 51.8458 11.7057H46.6694ZM78.7116 5.20051C79.2154 5.20051 79.6583 5.02941 80.0109 4.68721C80.3731 4.34502 80.5546 3.94203 80.5546 3.45826C80.5546 2.97537 80.3722 2.5828 80.0109 2.23973C79.6628 1.90353 79.1955 1.71924 78.7116 1.72731C78.2079 1.72731 77.7649 1.89753 77.4123 2.23973C77.0501 2.5828 76.8686 2.98492 76.8686 3.45826C76.8686 3.9316 77.0501 4.34415 77.4123 4.68721C77.7754 5.02941 78.2079 5.20051 78.7116 5.20051ZM70.8672 6.62053C69.9613 6.62053 69.1857 6.83158 68.5213 7.25455C67.856 7.67752 67.4035 8.24119 67.1517 8.95685H67.0205C66.819 8.24119 66.4264 7.66797 65.8324 7.25455C65.2383 6.83158 64.5235 6.62053 63.6776 6.62053C62.8316 6.62053 62.1264 6.83158 61.5228 7.245C60.9287 7.65754 60.4953 8.23163 60.2435 8.95598H60.1028V6.78121H56.8502V19.1072H60.2634V11.7057C60.2634 11.2523 60.3546 10.8493 60.5257 10.5176C60.6968 10.1754 60.9383 9.91308 61.2405 9.72201C61.5428 9.53094 61.885 9.43974 62.268 9.43974C62.8316 9.43974 63.2841 9.62126 63.6272 9.97388C63.9694 10.3361 64.1405 10.8094 64.1405 11.4139V19.0968H67.4539V11.5754C67.4539 10.9301 67.625 10.4168 67.9767 10.0243C68.3294 9.63168 68.8131 9.43019 69.4272 9.43019C70.0412 9.43019 70.4242 9.60129 70.7864 9.94348C71.1494 10.2857 71.3301 10.7998 71.3301 11.4842V19.0968H74.7434V10.8094C74.7434 9.47014 74.3812 8.44268 73.6664 7.70879C72.9516 6.97315 72.0154 6.61011 70.8672 6.61011V6.62053ZM76.9902 19.1072H80.4035V6.78121H76.9902V19.1072Z" fill="#8A94A6"/>
</svg>
