<svg width="81" height="24" viewBox="0 0 81 24" fill="none" xmlns="http://www.w3.org/2000/svg">
<mask id="mask0_6145_461" style="mask-type:luminance" maskUnits="userSpaceOnUse" x="0" y="0" width="81" height="24">
<path d="M0 0H80.5585V23.1608H0V0Z" fill="white"/>
</mask>
<g mask="url(#mask0_6145_461)">
<path d="M13.5037 0.190663L12.0941 8.47806H11.0171L9.60668 0.190663C9.6025 0.164703 9.59315 0.139846 9.57918 0.117569C9.56521 0.095292 9.54691 0.0760484 9.52536 0.0609806C9.50381 0.0459128 9.47946 0.0353281 9.45374 0.0298548C9.42802 0.0243815 9.40147 0.0241312 9.37565 0.0291189C3.93786 1.05658 0 5.82995 0 11.5795C0 17.3291 3.93786 22.1025 9.3852 23.13C9.41108 23.1351 9.43773 23.1349 9.46355 23.1295C9.48937 23.1241 9.51383 23.1135 9.53547 23.0985C9.55712 23.0834 9.5755 23.0641 9.58953 23.0417C9.60355 23.0194 9.61293 22.9945 9.6171 22.9684L11.0267 14.681H12.1037L13.5141 22.9684C13.5341 23.0796 13.6349 23.1499 13.7452 23.13C19.1934 22.1129 23.1304 17.3291 23.1304 11.5795C23.1304 5.82995 19.183 1.05658 13.7356 0.0291189C13.7097 0.0240017 13.6831 0.0241536 13.6573 0.0295657C13.6314 0.0349778 13.607 0.0455389 13.5853 0.0606181C13.5637 0.0756972 13.5453 0.0949849 13.5313 0.117329C13.5173 0.139673 13.5079 0.164614 13.5037 0.190663Z" fill="#FF6A00"/>
<path d="M39.5206 7.20959C38.8753 6.837 38.131 6.65635 37.2746 6.65635C36.4183 6.65635 35.5628 6.8674 34.9383 7.27994C34.3139 7.69336 33.87 8.26745 33.5886 8.99179H33.4479V2.69851H30.125V19.1326H33.5383V12.0029C33.5383 11.4697 33.6494 11.0163 33.8509 10.6437C34.0524 10.2702 34.3338 9.9793 34.6865 9.7778C35.0391 9.5763 35.4516 9.48511 35.9154 9.48511C36.6102 9.48511 37.1539 9.69703 37.5361 10.1191C37.9182 10.543 38.1102 11.137 38.1102 11.8926V19.1326H41.5234V11.2882C41.5234 10.3215 41.3523 9.49553 41.0006 8.80072C40.6703 8.13341 40.1523 7.57709 39.5102 7.20004L39.5198 7.20959H39.5206ZM53.3865 8.20665C52.8647 7.68751 52.2357 7.28881 51.5435 7.03849C50.8147 6.77224 50.0439 6.63926 49.268 6.64593C48.059 6.64593 47.0012 6.91777 46.1057 7.45104C45.2094 7.98518 44.5146 8.73037 44.0213 9.6866C43.528 10.6437 43.2865 11.7615 43.2865 13.02C43.2865 14.2793 43.528 15.4466 44.0213 16.3933C44.4917 17.3161 45.2237 18.0798 46.1257 18.5889C47.042 19.1013 48.1294 19.3636 49.3983 19.3636C50.6672 19.3636 51.3116 19.203 52.0872 18.8903C52.8628 18.5785 53.4968 18.1347 54.0006 17.5719C54.4939 17.0073 54.8256 16.3429 54.9872 15.5873L51.8258 15.3763C51.7042 15.6889 51.5331 15.9495 51.3116 16.1614C51.0803 16.378 50.8055 16.5429 50.5056 16.6452C50.1938 16.7555 49.8412 16.8058 49.4591 16.8058C48.885 16.8058 48.3908 16.6851 47.9783 16.4437C47.5643 16.2009 47.2287 15.8442 47.0116 15.4162C46.7806 14.9733 46.6694 14.4496 46.6694 13.8355H55.0575V12.9001C55.0575 11.8527 54.9064 10.9364 54.6146 10.1513C54.3228 9.36525 53.9094 8.71126 53.3865 8.1971V8.20665ZM46.6694 11.7311C46.6894 11.2882 46.7997 10.8852 47.0116 10.5126C47.2317 10.1149 47.5556 9.78438 47.9487 9.55633C48.3508 9.31401 48.8042 9.20371 49.3279 9.20371C49.8516 9.20371 50.2642 9.31401 50.6368 9.52506C51.0102 9.7474 51.3116 10.0392 51.5227 10.4222C51.7346 10.8044 51.8458 11.2378 51.8458 11.7311H46.6694ZM78.7116 5.2259C79.2154 5.2259 79.6583 5.0548 80.0109 4.7126C80.3731 4.37041 80.5546 3.96742 80.5546 3.48365C80.5546 3.00076 80.3722 2.60819 80.0109 2.26512C79.6628 1.92893 79.1955 1.74463 78.7116 1.7527C78.2079 1.7527 77.7649 1.92293 77.4123 2.26512C77.0501 2.60819 76.8686 3.01031 76.8686 3.48365C76.8686 3.95699 77.0501 4.36954 77.4123 4.7126C77.7754 5.0548 78.2079 5.2259 78.7116 5.2259ZM70.8672 6.64593C69.9613 6.64593 69.1857 6.85697 68.5213 7.27994C67.856 7.70291 67.4035 8.26658 67.1517 8.98224H67.0205C66.819 8.26658 66.4264 7.69336 65.8324 7.27994C65.2383 6.85697 64.5235 6.64593 63.6776 6.64593C62.8316 6.64593 62.1264 6.85697 61.5228 7.27039C60.9287 7.68294 60.4953 8.25703 60.2435 8.98137H60.1028V6.8066H56.8502V19.1326H60.2634V11.7311C60.2634 11.2777 60.3546 10.8747 60.5257 10.543C60.6968 10.2008 60.9383 9.93848 61.2405 9.7474C61.5428 9.55633 61.885 9.46513 62.268 9.46513C62.8316 9.46513 63.2841 9.64665 63.6272 9.99927C63.9694 10.3614 64.1405 10.8348 64.1405 11.4393V19.1222H67.4539V11.6008C67.4539 10.9555 67.625 10.4422 67.9767 10.0496C68.3294 9.65708 68.8131 9.45558 69.4272 9.45558C70.0412 9.45558 70.4242 9.62668 70.7864 9.96887C71.1494 10.3111 71.3301 10.8252 71.3301 11.5096V19.1222H74.7434V10.8348C74.7434 9.49553 74.3812 8.46807 73.6664 7.73418C72.9516 6.99854 72.0154 6.6355 70.8672 6.6355V6.64593ZM76.9902 19.1326H80.4035V6.8066H76.9902V19.1326Z" fill="white"/>
</g>
</svg>
