<svg width="47" height="47" viewBox="0 0 47 47" fill="none" xmlns="http://www.w3.org/2000/svg">
<circle cx="23.5" cy="23.5" r="23.5" fill="black"/>
<path d="M25.9613 7.24079L23.9076 19.3151H22.3385L20.2835 7.24079C20.2774 7.20297 20.2638 7.16676 20.2435 7.1343C20.2231 7.10184 20.1964 7.07381 20.165 7.05185C20.1336 7.0299 20.0982 7.01448 20.0607 7.0065C20.0232 6.99853 19.9845 6.99817 19.9469 7.00543C12.0244 8.50238 6.28711 15.4569 6.28711 23.8338C6.28711 32.2106 12.0244 39.1651 19.9608 40.6621C19.9985 40.6696 20.0374 40.6693 20.075 40.6614C20.1126 40.6536 20.1482 40.6382 20.1798 40.6162C20.2113 40.5942 20.2381 40.5661 20.2585 40.5336C20.279 40.501 20.2926 40.4647 20.2987 40.4267L22.3524 28.3524H23.9215L25.9765 40.4267C26.0056 40.5887 26.1524 40.6912 26.3131 40.6621C34.2508 39.1803 39.9868 32.2106 39.9868 23.8338C39.9868 15.4569 34.2356 8.50238 26.2991 7.00543C26.2614 6.99798 26.2226 6.9982 26.185 7.00608C26.1474 7.01397 26.1117 7.02935 26.0802 7.05132C26.0487 7.07329 26.0219 7.1014 26.0014 7.13395C25.981 7.1665 25.9674 7.20284 25.9613 7.24079Z" fill="#FF6A00"/>
</svg>
