<svg width="289" height="44" viewBox="0 0 289 44" fill="none" xmlns="http://www.w3.org/2000/svg">
<path d="M266.465 43.8496L288.85 31.8799V0.150391H270.15V2.90039H244.85V0.150391H20.54L0.150391 12.459V43.8496H266.465Z" fill="#C2FFBD" fill-opacity="0.1" stroke="#C2FFBD" stroke-width="0.3"/>
<path d="M57.177 28C57.0863 28 57.024 27.9603 56.99 27.881L54.61 22.798C54.5987 22.764 54.576 22.747 54.542 22.747H52.094C52.0487 22.747 52.026 22.7697 52.026 22.815V27.83C52.026 27.9433 51.9693 28 51.856 28H50.564C50.4507 28 50.394 27.9433 50.394 27.83V16.27C50.394 16.1567 50.4507 16.1 50.564 16.1H55.137C55.817 16.1 56.412 16.2417 56.922 16.525C57.4433 16.8083 57.8457 17.205 58.129 17.715C58.4123 18.225 58.554 18.8143 58.554 19.483C58.554 20.2763 58.3443 20.9507 57.925 21.506C57.517 22.05 56.9447 22.4183 56.208 22.611C56.1627 22.6337 56.1513 22.662 56.174 22.696L58.639 27.796C58.6503 27.8187 58.656 27.847 58.656 27.881C58.656 27.9603 58.6107 28 58.52 28H57.177ZM52.094 17.511C52.0487 17.511 52.026 17.5337 52.026 17.579V21.387C52.026 21.4323 52.0487 21.455 52.094 21.455H54.933C55.5337 21.455 56.0153 21.2793 56.378 20.928C56.7407 20.5653 56.922 20.0893 56.922 19.5C56.922 18.8993 56.7407 18.4177 56.378 18.055C56.0153 17.6923 55.5337 17.511 54.933 17.511H52.094ZM65.7668 19.517C65.7668 19.4037 65.8234 19.347 65.9368 19.347H67.2118C67.3251 19.347 67.3818 19.4037 67.3818 19.517V27.83C67.3818 27.9433 67.3251 28 67.2118 28H65.9368C65.8234 28 65.7668 27.9433 65.7668 27.83V27.201C65.7668 27.1783 65.7554 27.167 65.7328 27.167C65.7214 27.1557 65.7044 27.1613 65.6818 27.184C65.2284 27.8073 64.5314 28.119 63.5908 28.119C63.0354 28.119 62.5198 28.0113 62.0438 27.796C61.5791 27.5807 61.2051 27.2633 60.9218 26.844C60.6384 26.4247 60.4968 25.9147 60.4968 25.314V19.517C60.4968 19.4037 60.5534 19.347 60.6668 19.347H61.9418C62.0551 19.347 62.1118 19.4037 62.1118 19.517V24.804C62.1118 25.3933 62.2648 25.858 62.5708 26.198C62.8881 26.538 63.3301 26.708 63.8968 26.708C64.4634 26.708 64.9168 26.538 65.2568 26.198C65.5968 25.8467 65.7668 25.382 65.7668 24.804V19.517ZM73.6222 19.228C74.5516 19.228 75.2882 19.5 75.8322 20.044C76.3762 20.5767 76.6482 21.302 76.6482 22.22V27.83C76.6482 27.9433 76.5916 28 76.4782 28H75.1862C75.0729 28 75.0162 27.9433 75.0162 27.83V22.543C75.0162 21.9763 74.8519 21.5173 74.5232 21.166C74.1946 20.8147 73.7582 20.639 73.2142 20.639C72.6816 20.639 72.2452 20.8147 71.9052 21.166C71.5652 21.5173 71.3952 21.9707 71.3952 22.526V27.83C71.3952 27.9433 71.3386 28 71.2252 28H69.9332C69.8199 28 69.7632 27.9433 69.7632 27.83V19.517C69.7632 19.4037 69.8199 19.347 69.9332 19.347H71.2252C71.3386 19.347 71.3952 19.4037 71.3952 19.517V20.129C71.3952 20.1517 71.4009 20.1687 71.4122 20.18C71.4349 20.1913 71.4519 20.1857 71.4632 20.163C71.9506 19.5397 72.6702 19.228 73.6222 19.228ZM90.4724 17.341C90.4724 17.4543 90.4158 17.511 90.3024 17.511H84.2844C84.2391 17.511 84.2164 17.5337 84.2164 17.579V21.234C84.2164 21.2793 84.2391 21.302 84.2844 21.302H88.4154C88.5288 21.302 88.5854 21.3587 88.5854 21.472V22.543C88.5854 22.6563 88.5288 22.713 88.4154 22.713H84.2844C84.2391 22.713 84.2164 22.7357 84.2164 22.781V27.83C84.2164 27.9433 84.1598 28 84.0464 28H82.7544C82.6411 28 82.5844 27.9433 82.5844 27.83V16.27C82.5844 16.1567 82.6411 16.1 82.7544 16.1H90.3024C90.4158 16.1 90.4724 16.1567 90.4724 16.27V17.341ZM95.4849 19.262C95.8476 19.262 96.1762 19.3357 96.4709 19.483C96.5502 19.517 96.5786 19.585 96.5559 19.687L96.2839 20.962C96.2726 21.064 96.2046 21.098 96.0799 21.064C95.8872 20.9847 95.6606 20.945 95.3999 20.945L95.1619 20.962C94.6292 20.9847 94.1872 21.1717 93.8359 21.523C93.4959 21.863 93.3259 22.3107 93.3259 22.866V27.83C93.3259 27.9433 93.2692 28 93.1559 28H91.8639C91.7506 28 91.6939 27.9433 91.6939 27.83V19.517C91.6939 19.4037 91.7506 19.347 91.8639 19.347H93.1559C93.2692 19.347 93.3259 19.4037 93.3259 19.517V20.418C93.3259 20.452 93.3316 20.4747 93.3429 20.486C93.3656 20.486 93.3826 20.4747 93.3939 20.452C93.9039 19.6587 94.6009 19.262 95.4849 19.262ZM104.874 22.594C104.919 23.0587 104.936 23.58 104.925 24.158C104.925 24.2713 104.868 24.328 104.755 24.328H99.3317C99.2864 24.328 99.2637 24.3507 99.2637 24.396C99.2637 24.7813 99.2977 25.076 99.3657 25.28C99.4904 25.7333 99.7397 26.0903 100.114 26.351C100.499 26.6003 100.981 26.725 101.559 26.725C102.397 26.725 103.043 26.3793 103.497 25.688C103.553 25.5747 103.627 25.5577 103.718 25.637L104.687 26.283C104.766 26.351 104.783 26.4247 104.738 26.504C104.42 27.014 103.967 27.4163 103.378 27.711C102.8 28.0057 102.142 28.153 101.406 28.153C100.578 28.153 99.8814 27.9717 99.3147 27.609C98.748 27.2463 98.323 26.7307 98.0397 26.062C97.7677 25.3933 97.6317 24.583 97.6317 23.631C97.6317 22.8037 97.694 22.1747 97.8187 21.744C98.0227 20.962 98.4307 20.3443 99.0427 19.891C99.6547 19.4377 100.397 19.211 101.27 19.211C102.414 19.211 103.27 19.5 103.837 20.078C104.403 20.6447 104.749 21.4833 104.874 22.594ZM101.27 20.622C100.782 20.622 100.38 20.7467 100.063 20.996C99.7454 21.234 99.53 21.557 99.4167 21.965C99.3374 22.2143 99.2864 22.5317 99.2637 22.917C99.2637 22.9623 99.2864 22.985 99.3317 22.985H103.225C103.27 22.985 103.293 22.9623 103.293 22.917C103.27 22.543 103.236 22.2653 103.191 22.084C103.077 21.642 102.851 21.2907 102.511 21.03C102.182 20.758 101.768 20.622 101.27 20.622ZM113.988 22.594C114.033 23.0587 114.05 23.58 114.039 24.158C114.039 24.2713 113.982 24.328 113.869 24.328H108.446C108.401 24.328 108.378 24.3507 108.378 24.396C108.378 24.7813 108.412 25.076 108.48 25.28C108.605 25.7333 108.854 26.0903 109.228 26.351C109.613 26.6003 110.095 26.725 110.673 26.725C111.512 26.725 112.158 26.3793 112.611 25.688C112.668 25.5747 112.741 25.5577 112.832 25.637L113.801 26.283C113.88 26.351 113.897 26.4247 113.852 26.504C113.535 27.014 113.081 27.4163 112.492 27.711C111.914 28.0057 111.257 28.153 110.52 28.153C109.693 28.153 108.996 27.9717 108.429 27.609C107.862 27.2463 107.437 26.7307 107.154 26.062C106.882 25.3933 106.746 24.583 106.746 23.631C106.746 22.8037 106.808 22.1747 106.933 21.744C107.137 20.962 107.545 20.3443 108.157 19.891C108.769 19.4377 109.511 19.211 110.384 19.211C111.529 19.211 112.384 19.5 112.951 20.078C113.518 20.6447 113.863 21.4833 113.988 22.594ZM110.384 20.622C109.897 20.622 109.494 20.7467 109.177 20.996C108.86 21.234 108.644 21.557 108.531 21.965C108.452 22.2143 108.401 22.5317 108.378 22.917C108.378 22.9623 108.401 22.985 108.446 22.985H112.339C112.384 22.985 112.407 22.9623 112.407 22.917C112.384 22.543 112.35 22.2653 112.305 22.084C112.192 21.642 111.965 21.2907 111.625 21.03C111.296 20.758 110.883 20.622 110.384 20.622Z" fill="white"/>
<path d="M126.931 28C126.829 28 126.761 27.9547 126.727 27.864L126.115 25.875C126.103 25.841 126.081 25.824 126.047 25.824H121.27C121.236 25.824 121.213 25.841 121.202 25.875L120.59 27.864C120.556 27.9547 120.488 28 120.386 28H119.009C118.884 28 118.839 27.9377 118.873 27.813L122.596 16.236C122.63 16.1453 122.698 16.1 122.8 16.1H124.5C124.602 16.1 124.67 16.1453 124.704 16.236L128.461 27.813L128.478 27.881C128.478 27.9603 128.427 28 128.325 28H126.931ZM121.627 24.447C121.615 24.4697 121.615 24.4923 121.627 24.515C121.649 24.5263 121.672 24.532 121.695 24.532H125.605C125.627 24.532 125.644 24.5263 125.656 24.515C125.678 24.4923 125.684 24.4697 125.673 24.447L123.701 18.14C123.689 18.1173 123.672 18.106 123.65 18.106C123.627 18.106 123.61 18.1173 123.599 18.14L121.627 24.447ZM130.584 28C130.47 28 130.414 27.9433 130.414 27.83V16.27C130.414 16.1567 130.47 16.1 130.584 16.1H131.876C131.989 16.1 132.046 16.1567 132.046 16.27V27.83C132.046 27.9433 131.989 28 131.876 28H130.584ZM141.786 15.964C142.591 15.964 143.299 16.134 143.911 16.474C144.523 16.8027 144.999 17.2673 145.339 17.868C145.679 18.4687 145.849 19.1657 145.849 19.959V24.243C145.849 25.263 145.56 26.113 144.982 26.793C144.415 27.473 143.645 27.8923 142.67 28.051C142.625 28.0623 142.602 28.0907 142.602 28.136V29.683C142.602 29.7963 142.545 29.853 142.432 29.853H141.14C141.027 29.853 140.97 29.7963 140.97 29.683V28.136C140.97 28.0907 140.947 28.0623 140.902 28.051C139.927 27.8923 139.151 27.473 138.573 26.793C138.006 26.113 137.723 25.263 137.723 24.243V19.959C137.723 19.1657 137.893 18.4687 138.233 17.868C138.573 17.2673 139.049 16.8027 139.661 16.474C140.273 16.134 140.981 15.964 141.786 15.964ZM144.217 19.874C144.217 19.126 143.99 18.5253 143.537 18.072C143.095 17.6073 142.511 17.375 141.786 17.375C141.061 17.375 140.471 17.6073 140.018 18.072C139.576 18.5253 139.355 19.126 139.355 19.874V24.226C139.355 24.974 139.576 25.5803 140.018 26.045C140.471 26.4983 141.061 26.725 141.786 26.725C142.511 26.725 143.095 26.4983 143.537 26.045C143.99 25.5803 144.217 24.974 144.217 24.226V19.874ZM153.074 19.517C153.074 19.4037 153.131 19.347 153.244 19.347H154.519C154.633 19.347 154.689 19.4037 154.689 19.517V27.83C154.689 27.9433 154.633 28 154.519 28H153.244C153.131 28 153.074 27.9433 153.074 27.83V27.201C153.074 27.1783 153.063 27.167 153.04 27.167C153.029 27.1557 153.012 27.1613 152.989 27.184C152.536 27.8073 151.839 28.119 150.898 28.119C150.343 28.119 149.827 28.0113 149.351 27.796C148.887 27.5807 148.513 27.2633 148.229 26.844C147.946 26.4247 147.804 25.9147 147.804 25.314V19.517C147.804 19.4037 147.861 19.347 147.974 19.347H149.249C149.363 19.347 149.419 19.4037 149.419 19.517V24.804C149.419 25.3933 149.572 25.858 149.878 26.198C150.196 26.538 150.638 26.708 151.204 26.708C151.771 26.708 152.224 26.538 152.564 26.198C152.904 25.8467 153.074 25.382 153.074 24.804V19.517ZM158.057 17.987C157.74 17.987 157.479 17.885 157.275 17.681C157.071 17.477 156.969 17.2163 156.969 16.899C156.969 16.5817 157.071 16.321 157.275 16.117C157.479 15.913 157.74 15.811 158.057 15.811C158.374 15.811 158.635 15.913 158.839 16.117C159.043 16.321 159.145 16.5817 159.145 16.899C159.145 17.2163 159.043 17.477 158.839 17.681C158.635 17.885 158.374 17.987 158.057 17.987ZM157.377 27.983C157.264 27.983 157.207 27.9263 157.207 27.813V19.517C157.207 19.4037 157.264 19.347 157.377 19.347H158.669C158.782 19.347 158.839 19.4037 158.839 19.517V27.813C158.839 27.9263 158.782 27.983 158.669 27.983H157.377ZM164.872 28.136C164.011 28.136 163.274 27.9207 162.662 27.49C162.05 27.048 161.631 26.453 161.404 25.705C161.234 25.1837 161.149 24.498 161.149 23.648C161.149 22.866 161.234 22.1803 161.404 21.591C161.631 20.8657 162.05 20.2877 162.662 19.857C163.285 19.4263 164.022 19.211 164.872 19.211C165.722 19.211 166.464 19.4263 167.099 19.857C167.734 20.2877 168.147 20.8317 168.34 21.489C168.408 21.6703 168.453 21.8573 168.476 22.05C168.476 22.1407 168.425 22.1973 168.323 22.22L167.048 22.407H167.014C166.935 22.407 166.878 22.356 166.844 22.254L166.793 21.982C166.702 21.5967 166.481 21.2737 166.13 21.013C165.779 20.7523 165.354 20.622 164.855 20.622C164.368 20.622 163.954 20.7523 163.614 21.013C163.274 21.2737 163.053 21.6193 162.951 22.05C162.849 22.458 162.798 22.9963 162.798 23.665C162.798 24.3223 162.849 24.855 162.951 25.263C163.064 25.7163 163.285 26.0733 163.614 26.334C163.954 26.5947 164.368 26.725 164.855 26.725C165.354 26.725 165.779 26.5947 166.13 26.334C166.493 26.0733 166.719 25.7333 166.81 25.314C166.821 25.3027 166.821 25.2913 166.81 25.28C166.81 25.2573 166.816 25.2403 166.827 25.229V25.161C166.861 25.0703 166.923 25.0363 167.014 25.059L168.289 25.263C168.38 25.2857 168.425 25.331 168.425 25.399V25.467C168.425 25.569 168.397 25.6937 168.34 25.841C168.147 26.5323 167.734 27.0877 167.099 27.507C166.464 27.9263 165.722 28.136 164.872 28.136ZM170.522 28C170.409 28 170.352 27.9433 170.352 27.83V16.27C170.352 16.1567 170.409 16.1 170.522 16.1H171.814C171.927 16.1 171.984 16.1567 171.984 16.27V22.815C171.984 22.8377 171.995 22.8547 172.018 22.866C172.041 22.8773 172.058 22.8717 172.069 22.849L175.214 19.432C175.259 19.3753 175.327 19.347 175.418 19.347H176.931C176.999 19.347 177.039 19.3697 177.05 19.415C177.073 19.449 177.061 19.4943 177.016 19.551L174.823 22.084C174.8 22.1293 174.795 22.1633 174.806 22.186L177.407 27.796L177.424 27.864C177.424 27.9547 177.373 28 177.271 28H175.911C175.82 28 175.758 27.9547 175.724 27.864L173.701 23.24C173.678 23.1833 173.65 23.1777 173.616 23.223L172.018 24.991C171.995 25.0363 171.984 25.0647 171.984 25.076V27.83C171.984 27.9433 171.927 28 171.814 28H170.522ZM182.927 28.136C182.055 28.136 181.295 28 180.649 27.728C180.015 27.456 179.522 27.0707 179.17 26.572C178.83 26.0733 178.66 25.4897 178.66 24.821V24.328C178.66 24.2147 178.717 24.158 178.83 24.158H180.071C180.185 24.158 180.241 24.2147 180.241 24.328V24.736C180.241 25.314 180.491 25.79 180.989 26.164C181.488 26.538 182.174 26.725 183.046 26.725C183.828 26.725 184.418 26.5607 184.814 26.232C185.211 25.9033 185.409 25.4727 185.409 24.94C185.409 24.5887 185.307 24.2883 185.103 24.039C184.899 23.7897 184.599 23.563 184.202 23.359C183.817 23.1437 183.25 22.8887 182.502 22.594C181.675 22.2767 181.018 21.9877 180.53 21.727C180.054 21.4663 179.658 21.1263 179.34 20.707C179.023 20.2763 178.864 19.738 178.864 19.092C178.864 18.1173 179.21 17.3523 179.901 16.797C180.604 16.2417 181.55 15.964 182.74 15.964C183.579 15.964 184.316 16.1057 184.95 16.389C185.585 16.6723 186.072 17.069 186.412 17.579C186.764 18.089 186.939 18.6783 186.939 19.347V19.687C186.939 19.8003 186.883 19.857 186.769 19.857H185.494C185.381 19.857 185.324 19.8003 185.324 19.687V19.432C185.324 18.8427 185.086 18.3553 184.61 17.97C184.146 17.5733 183.5 17.375 182.672 17.375C181.97 17.375 181.426 17.5223 181.04 17.817C180.655 18.1003 180.462 18.514 180.462 19.058C180.462 19.432 180.559 19.738 180.751 19.976C180.944 20.214 181.227 20.4293 181.601 20.622C181.987 20.8033 182.57 21.0413 183.352 21.336C184.157 21.6533 184.809 21.948 185.307 22.22C185.806 22.4807 186.22 22.832 186.548 23.274C186.877 23.7047 187.041 24.243 187.041 24.889C187.041 25.8863 186.673 26.6797 185.936 27.269C185.211 27.847 184.208 28.136 182.927 28.136ZM192.513 28.136C191.652 28.136 190.915 27.9207 190.303 27.49C189.691 27.048 189.272 26.453 189.045 25.705C188.875 25.1837 188.79 24.498 188.79 23.648C188.79 22.866 188.875 22.1803 189.045 21.591C189.272 20.8657 189.691 20.2877 190.303 19.857C190.927 19.4263 191.663 19.211 192.513 19.211C193.363 19.211 194.106 19.4263 194.74 19.857C195.375 20.2877 195.789 20.8317 195.981 21.489C196.049 21.6703 196.095 21.8573 196.117 22.05C196.117 22.1407 196.066 22.1973 195.964 22.22L194.689 22.407H194.655C194.576 22.407 194.519 22.356 194.485 22.254L194.434 21.982C194.344 21.5967 194.123 21.2737 193.771 21.013C193.42 20.7523 192.995 20.622 192.496 20.622C192.009 20.622 191.595 20.7523 191.255 21.013C190.915 21.2737 190.694 21.6193 190.592 22.05C190.49 22.458 190.439 22.9963 190.439 23.665C190.439 24.3223 190.49 24.855 190.592 25.263C190.706 25.7163 190.927 26.0733 191.255 26.334C191.595 26.5947 192.009 26.725 192.496 26.725C192.995 26.725 193.42 26.5947 193.771 26.334C194.134 26.0733 194.361 25.7333 194.451 25.314C194.463 25.3027 194.463 25.2913 194.451 25.28C194.451 25.2573 194.457 25.2403 194.468 25.229V25.161C194.502 25.0703 194.565 25.0363 194.655 25.059L195.93 25.263C196.021 25.2857 196.066 25.331 196.066 25.399V25.467C196.066 25.569 196.038 25.6937 195.981 25.841C195.789 26.5323 195.375 27.0877 194.74 27.507C194.106 27.9263 193.363 28.136 192.513 28.136ZM201.156 19.211C201.847 19.211 202.448 19.3357 202.958 19.585C203.479 19.823 203.876 20.163 204.148 20.605C204.431 21.0357 204.573 21.5287 204.573 22.084V27.83C204.573 27.9433 204.516 28 204.403 28H203.111C202.997 28 202.941 27.9433 202.941 27.83V27.218C202.941 27.1613 202.912 27.15 202.856 27.184C202.561 27.49 202.198 27.728 201.768 27.898C201.348 28.0567 200.878 28.136 200.357 28.136C199.518 28.136 198.821 27.9263 198.266 27.507C197.722 27.0763 197.45 26.4303 197.45 25.569C197.45 24.685 197.756 23.9937 198.368 23.495C198.991 22.985 199.858 22.73 200.969 22.73H202.873C202.918 22.73 202.941 22.7073 202.941 22.662V22.203C202.941 21.7043 202.793 21.319 202.499 21.047C202.215 20.7637 201.779 20.622 201.19 20.622C200.714 20.622 200.323 20.7183 200.017 20.911C199.722 21.0923 199.541 21.3417 199.473 21.659C199.439 21.7723 199.371 21.8233 199.269 21.812L197.892 21.625C197.778 21.6023 197.727 21.557 197.739 21.489C197.829 20.8203 198.186 20.2763 198.81 19.857C199.433 19.4263 200.215 19.211 201.156 19.211ZM200.714 26.759C201.314 26.759 201.836 26.6003 202.278 26.283C202.72 25.9657 202.941 25.5633 202.941 25.076V24.073C202.941 24.0277 202.918 24.005 202.873 24.005H201.275C200.606 24.005 200.073 24.1353 199.677 24.396C199.28 24.6567 199.082 25.0193 199.082 25.484C199.082 25.9033 199.229 26.2207 199.524 26.436C199.83 26.6513 200.226 26.759 200.714 26.759ZM210.635 19.228C211.564 19.228 212.301 19.5 212.845 20.044C213.389 20.5767 213.661 21.302 213.661 22.22V27.83C213.661 27.9433 213.604 28 213.491 28H212.199C212.086 28 212.029 27.9433 212.029 27.83V22.543C212.029 21.9763 211.865 21.5173 211.536 21.166C211.207 20.8147 210.771 20.639 210.227 20.639C209.694 20.639 209.258 20.8147 208.918 21.166C208.578 21.5173 208.408 21.9707 208.408 22.526V27.83C208.408 27.9433 208.351 28 208.238 28H206.946C206.833 28 206.776 27.9433 206.776 27.83V19.517C206.776 19.4037 206.833 19.347 206.946 19.347H208.238C208.351 19.347 208.408 19.4037 208.408 19.517V20.129C208.408 20.1517 208.414 20.1687 208.425 20.18C208.448 20.1913 208.465 20.1857 208.476 20.163C208.963 19.5397 209.683 19.228 210.635 19.228Z" fill="#C2FFBD"/>
<path d="M244.562 16.25L251.312 23L244.562 29.75" stroke="#C2FFBD" stroke-miterlimit="10" stroke-linecap="square"/>
<path opacity="0.5" d="M233 16.25L239.75 23L233 29.75" stroke="#C2FFBD" stroke-miterlimit="10" stroke-linecap="square"/>
</svg>
