<svg width="290" height="44" viewBox="0 0 290 44" fill="none" xmlns="http://www.w3.org/2000/svg">
<path d="M266.52 43.8496L288.904 31.8799V0.150391H270.205V2.90039H244.904V0.150391H20.5947L0.205078 12.459V43.8496H266.52Z" fill="#C2FFBD" fill-opacity="0.1" stroke="#C2FFBD" stroke-width="0.3"/>
<path d="M57.2317 28C57.141 28 57.0787 27.9603 57.0447 27.881L54.6647 22.798C54.6534 22.764 54.6307 22.747 54.5967 22.747H52.1487C52.1034 22.747 52.0807 22.7697 52.0807 22.815V27.83C52.0807 27.9433 52.024 28 51.9107 28H50.6187C50.5054 28 50.4487 27.9433 50.4487 27.83V16.27C50.4487 16.1567 50.5054 16.1 50.6187 16.1H55.1917C55.8717 16.1 56.4667 16.2417 56.9767 16.525C57.498 16.8083 57.9004 17.205 58.1837 17.715C58.467 18.225 58.6087 18.8143 58.6087 19.483C58.6087 20.2763 58.399 20.9507 57.9797 21.506C57.5717 22.05 56.9994 22.4183 56.2627 22.611C56.2174 22.6337 56.206 22.662 56.2287 22.696L58.6937 27.796C58.705 27.8187 58.7107 27.847 58.7107 27.881C58.7107 27.9603 58.6654 28 58.5747 28H57.2317ZM52.1487 17.511C52.1034 17.511 52.0807 17.5337 52.0807 17.579V21.387C52.0807 21.4323 52.1034 21.455 52.1487 21.455H54.9877C55.5884 21.455 56.07 21.2793 56.4327 20.928C56.7954 20.5653 56.9767 20.0893 56.9767 19.5C56.9767 18.8993 56.7954 18.4177 56.4327 18.055C56.07 17.6923 55.5884 17.511 54.9877 17.511H52.1487ZM65.8215 19.517C65.8215 19.4037 65.8781 19.347 65.9915 19.347H67.2665C67.3798 19.347 67.4365 19.4037 67.4365 19.517V27.83C67.4365 27.9433 67.3798 28 67.2665 28H65.9915C65.8781 28 65.8215 27.9433 65.8215 27.83V27.201C65.8215 27.1783 65.8101 27.167 65.7875 27.167C65.7761 27.1557 65.7591 27.1613 65.7365 27.184C65.2831 27.8073 64.5861 28.119 63.6455 28.119C63.0901 28.119 62.5745 28.0113 62.0985 27.796C61.6338 27.5807 61.2598 27.2633 60.9765 26.844C60.6931 26.4247 60.5515 25.9147 60.5515 25.314V19.517C60.5515 19.4037 60.6081 19.347 60.7215 19.347H61.9965C62.1098 19.347 62.1665 19.4037 62.1665 19.517V24.804C62.1665 25.3933 62.3195 25.858 62.6255 26.198C62.9428 26.538 63.3848 26.708 63.9515 26.708C64.5181 26.708 64.9715 26.538 65.3115 26.198C65.6515 25.8467 65.8215 25.382 65.8215 24.804V19.517ZM73.6769 19.228C74.6063 19.228 75.3429 19.5 75.8869 20.044C76.4309 20.5767 76.7029 21.302 76.7029 22.22V27.83C76.7029 27.9433 76.6463 28 76.5329 28H75.2409C75.1276 28 75.0709 27.9433 75.0709 27.83V22.543C75.0709 21.9763 74.9066 21.5173 74.5779 21.166C74.2493 20.8147 73.8129 20.639 73.2689 20.639C72.7363 20.639 72.2999 20.8147 71.9599 21.166C71.6199 21.5173 71.4499 21.9707 71.4499 22.526V27.83C71.4499 27.9433 71.3933 28 71.2799 28H69.9879C69.8746 28 69.8179 27.9433 69.8179 27.83V19.517C69.8179 19.4037 69.8746 19.347 69.9879 19.347H71.2799C71.3933 19.347 71.4499 19.4037 71.4499 19.517V20.129C71.4499 20.1517 71.4556 20.1687 71.4669 20.18C71.4896 20.1913 71.5066 20.1857 71.5179 20.163C72.0053 19.5397 72.7249 19.228 73.6769 19.228ZM90.5271 17.341C90.5271 17.4543 90.4705 17.511 90.3571 17.511H84.3391C84.2938 17.511 84.2711 17.5337 84.2711 17.579V21.234C84.2711 21.2793 84.2938 21.302 84.3391 21.302H88.4701C88.5835 21.302 88.6401 21.3587 88.6401 21.472V22.543C88.6401 22.6563 88.5835 22.713 88.4701 22.713H84.3391C84.2938 22.713 84.2711 22.7357 84.2711 22.781V27.83C84.2711 27.9433 84.2145 28 84.1011 28H82.8091C82.6958 28 82.6391 27.9433 82.6391 27.83V16.27C82.6391 16.1567 82.6958 16.1 82.8091 16.1H90.3571C90.4705 16.1 90.5271 16.1567 90.5271 16.27V17.341ZM95.5396 19.262C95.9023 19.262 96.2309 19.3357 96.5256 19.483C96.6049 19.517 96.6333 19.585 96.6106 19.687L96.3386 20.962C96.3273 21.064 96.2593 21.098 96.1346 21.064C95.9419 20.9847 95.7153 20.945 95.4546 20.945L95.2166 20.962C94.6839 20.9847 94.2419 21.1717 93.8906 21.523C93.5506 21.863 93.3806 22.3107 93.3806 22.866V27.83C93.3806 27.9433 93.3239 28 93.2106 28H91.9186C91.8053 28 91.7486 27.9433 91.7486 27.83V19.517C91.7486 19.4037 91.8053 19.347 91.9186 19.347H93.2106C93.3239 19.347 93.3806 19.4037 93.3806 19.517V20.418C93.3806 20.452 93.3863 20.4747 93.3976 20.486C93.4203 20.486 93.4373 20.4747 93.4486 20.452C93.9586 19.6587 94.6556 19.262 95.5396 19.262ZM104.928 22.594C104.974 23.0587 104.991 23.58 104.979 24.158C104.979 24.2713 104.923 24.328 104.809 24.328H99.3864C99.341 24.328 99.3184 24.3507 99.3184 24.396C99.3184 24.7813 99.3524 25.076 99.4204 25.28C99.545 25.7333 99.7944 26.0903 100.168 26.351C100.554 26.6003 101.035 26.725 101.613 26.725C102.452 26.725 103.098 26.3793 103.551 25.688C103.608 25.5747 103.682 25.5577 103.772 25.637L104.741 26.283C104.821 26.351 104.838 26.4247 104.792 26.504C104.475 27.014 104.022 27.4163 103.432 27.711C102.854 28.0057 102.197 28.153 101.46 28.153C100.633 28.153 99.936 27.9717 99.3694 27.609C98.8027 27.2463 98.3777 26.7307 98.0944 26.062C97.8224 25.3933 97.6864 24.583 97.6864 23.631C97.6864 22.8037 97.7487 22.1747 97.8734 21.744C98.0774 20.962 98.4854 20.3443 99.0974 19.891C99.7094 19.4377 100.452 19.211 101.324 19.211C102.469 19.211 103.325 19.5 103.891 20.078C104.458 20.6447 104.804 21.4833 104.928 22.594ZM101.324 20.622C100.837 20.622 100.435 20.7467 100.117 20.996C99.8 21.234 99.5847 21.557 99.4714 21.965C99.392 22.2143 99.341 22.5317 99.3184 22.917C99.3184 22.9623 99.341 22.985 99.3864 22.985H103.279C103.325 22.985 103.347 22.9623 103.347 22.917C103.325 22.543 103.291 22.2653 103.245 22.084C103.132 21.642 102.905 21.2907 102.565 21.03C102.237 20.758 101.823 20.622 101.324 20.622ZM114.043 22.594C114.088 23.0587 114.105 23.58 114.094 24.158C114.094 24.2713 114.037 24.328 113.924 24.328H108.501C108.455 24.328 108.433 24.3507 108.433 24.396C108.433 24.7813 108.467 25.076 108.535 25.28C108.659 25.7333 108.909 26.0903 109.283 26.351C109.668 26.6003 110.15 26.725 110.728 26.725C111.566 26.725 112.212 26.3793 112.666 25.688C112.722 25.5747 112.796 25.5577 112.887 25.637L113.856 26.283C113.935 26.351 113.952 26.4247 113.907 26.504C113.589 27.014 113.136 27.4163 112.547 27.711C111.969 28.0057 111.311 28.153 110.575 28.153C109.747 28.153 109.05 27.9717 108.484 27.609C107.917 27.2463 107.492 26.7307 107.209 26.062C106.937 25.3933 106.801 24.583 106.801 23.631C106.801 22.8037 106.863 22.1747 106.988 21.744C107.192 20.962 107.6 20.3443 108.212 19.891C108.824 19.4377 109.566 19.211 110.439 19.211C111.583 19.211 112.439 19.5 113.006 20.078C113.572 20.6447 113.918 21.4833 114.043 22.594ZM110.439 20.622C109.951 20.622 109.549 20.7467 109.232 20.996C108.914 21.234 108.699 21.557 108.586 21.965C108.506 22.2143 108.455 22.5317 108.433 22.917C108.433 22.9623 108.455 22.985 108.501 22.985H112.394C112.439 22.985 112.462 22.9623 112.462 22.917C112.439 22.543 112.405 22.2653 112.36 22.084C112.246 21.642 112.02 21.2907 111.68 21.03C111.351 20.758 110.937 20.622 110.439 20.622Z" fill="white"/>
<path d="M126.985 28C126.883 28 126.815 27.9547 126.781 27.864L126.169 25.875C126.158 25.841 126.135 25.824 126.101 25.824H121.324C121.29 25.824 121.268 25.841 121.256 25.875L120.644 27.864C120.61 27.9547 120.542 28 120.44 28H119.063C118.939 28 118.893 27.9377 118.927 27.813L122.65 16.236C122.684 16.1453 122.752 16.1 122.854 16.1H124.554C124.656 16.1 124.724 16.1453 124.758 16.236L128.515 27.813L128.532 27.881C128.532 27.9603 128.481 28 128.379 28H126.985ZM121.681 24.447C121.67 24.4697 121.67 24.4923 121.681 24.515C121.704 24.5263 121.727 24.532 121.749 24.532H125.659C125.682 24.532 125.699 24.5263 125.71 24.515C125.733 24.4923 125.739 24.4697 125.727 24.447L123.755 18.14C123.744 18.1173 123.727 18.106 123.704 18.106C123.682 18.106 123.665 18.1173 123.653 18.14L121.681 24.447ZM130.638 28C130.525 28 130.468 27.9433 130.468 27.83V16.27C130.468 16.1567 130.525 16.1 130.638 16.1H131.93C132.044 16.1 132.1 16.1567 132.1 16.27V27.83C132.1 27.9433 132.044 28 131.93 28H130.638ZM141.841 15.964C142.645 15.964 143.354 16.134 143.966 16.474C144.578 16.8027 145.054 17.2673 145.394 17.868C145.734 18.4687 145.904 19.1657 145.904 19.959V24.243C145.904 25.263 145.615 26.113 145.037 26.793C144.47 27.473 143.699 27.8923 142.725 28.051C142.679 28.0623 142.657 28.0907 142.657 28.136V29.683C142.657 29.7963 142.6 29.853 142.487 29.853H141.195C141.081 29.853 141.025 29.7963 141.025 29.683V28.136C141.025 28.0907 141.002 28.0623 140.957 28.051C139.982 27.8923 139.206 27.473 138.628 26.793C138.061 26.113 137.778 25.263 137.778 24.243V19.959C137.778 19.1657 137.948 18.4687 138.288 17.868C138.628 17.2673 139.104 16.8027 139.716 16.474C140.328 16.134 141.036 15.964 141.841 15.964ZM144.272 19.874C144.272 19.126 144.045 18.5253 143.592 18.072C143.15 17.6073 142.566 17.375 141.841 17.375C141.115 17.375 140.526 17.6073 140.073 18.072C139.631 18.5253 139.41 19.126 139.41 19.874V24.226C139.41 24.974 139.631 25.5803 140.073 26.045C140.526 26.4983 141.115 26.725 141.841 26.725C142.566 26.725 143.15 26.4983 143.592 26.045C144.045 25.5803 144.272 24.974 144.272 24.226V19.874ZM153.129 19.517C153.129 19.4037 153.186 19.347 153.299 19.347H154.574C154.687 19.347 154.744 19.4037 154.744 19.517V27.83C154.744 27.9433 154.687 28 154.574 28H153.299C153.186 28 153.129 27.9433 153.129 27.83V27.201C153.129 27.1783 153.118 27.167 153.095 27.167C153.084 27.1557 153.067 27.1613 153.044 27.184C152.591 27.8073 151.894 28.119 150.953 28.119C150.398 28.119 149.882 28.0113 149.406 27.796C148.941 27.5807 148.567 27.2633 148.284 26.844C148.001 26.4247 147.859 25.9147 147.859 25.314V19.517C147.859 19.4037 147.916 19.347 148.029 19.347H149.304C149.417 19.347 149.474 19.4037 149.474 19.517V24.804C149.474 25.3933 149.627 25.858 149.933 26.198C150.25 26.538 150.692 26.708 151.259 26.708C151.826 26.708 152.279 26.538 152.619 26.198C152.959 25.8467 153.129 25.382 153.129 24.804V19.517ZM158.112 17.987C157.794 17.987 157.534 17.885 157.33 17.681C157.126 17.477 157.024 17.2163 157.024 16.899C157.024 16.5817 157.126 16.321 157.33 16.117C157.534 15.913 157.794 15.811 158.112 15.811C158.429 15.811 158.69 15.913 158.894 16.117C159.098 16.321 159.2 16.5817 159.2 16.899C159.2 17.2163 159.098 17.477 158.894 17.681C158.69 17.885 158.429 17.987 158.112 17.987ZM157.432 27.983C157.318 27.983 157.262 27.9263 157.262 27.813V19.517C157.262 19.4037 157.318 19.347 157.432 19.347H158.724C158.837 19.347 158.894 19.4037 158.894 19.517V27.813C158.894 27.9263 158.837 27.983 158.724 27.983H157.432ZM164.927 28.136C164.065 28.136 163.329 27.9207 162.717 27.49C162.105 27.048 161.685 26.453 161.459 25.705C161.289 25.1837 161.204 24.498 161.204 23.648C161.204 22.866 161.289 22.1803 161.459 21.591C161.685 20.8657 162.105 20.2877 162.717 19.857C163.34 19.4263 164.077 19.211 164.927 19.211C165.777 19.211 166.519 19.4263 167.154 19.857C167.788 20.2877 168.202 20.8317 168.395 21.489C168.463 21.6703 168.508 21.8573 168.531 22.05C168.531 22.1407 168.48 22.1973 168.378 22.22L167.103 22.407H167.069C166.989 22.407 166.933 22.356 166.899 22.254L166.848 21.982C166.757 21.5967 166.536 21.2737 166.185 21.013C165.833 20.7523 165.408 20.622 164.91 20.622C164.422 20.622 164.009 20.7523 163.669 21.013C163.329 21.2737 163.108 21.6193 163.006 22.05C162.904 22.458 162.853 22.9963 162.853 23.665C162.853 24.3223 162.904 24.855 163.006 25.263C163.119 25.7163 163.34 26.0733 163.669 26.334C164.009 26.5947 164.422 26.725 164.91 26.725C165.408 26.725 165.833 26.5947 166.185 26.334C166.547 26.0733 166.774 25.7333 166.865 25.314C166.876 25.3027 166.876 25.2913 166.865 25.28C166.865 25.2573 166.87 25.2403 166.882 25.229V25.161C166.916 25.0703 166.978 25.0363 167.069 25.059L168.344 25.263C168.434 25.2857 168.48 25.331 168.48 25.399V25.467C168.48 25.569 168.451 25.6937 168.395 25.841C168.202 26.5323 167.788 27.0877 167.154 27.507C166.519 27.9263 165.777 28.136 164.927 28.136ZM170.577 28C170.463 28 170.407 27.9433 170.407 27.83V16.27C170.407 16.1567 170.463 16.1 170.577 16.1H171.869C171.982 16.1 172.039 16.1567 172.039 16.27V22.815C172.039 22.8377 172.05 22.8547 172.073 22.866C172.095 22.8773 172.112 22.8717 172.124 22.849L175.269 19.432C175.314 19.3753 175.382 19.347 175.473 19.347H176.986C177.054 19.347 177.093 19.3697 177.105 19.415C177.127 19.449 177.116 19.4943 177.071 19.551L174.878 22.084C174.855 22.1293 174.849 22.1633 174.861 22.186L177.462 27.796L177.479 27.864C177.479 27.9547 177.428 28 177.326 28H175.966C175.875 28 175.813 27.9547 175.779 27.864L173.756 23.24C173.733 23.1833 173.705 23.1777 173.671 23.223L172.073 24.991C172.05 25.0363 172.039 25.0647 172.039 25.076V27.83C172.039 27.9433 171.982 28 171.869 28H170.577ZM182.982 28.136C182.109 28.136 181.35 28 180.704 27.728C180.069 27.456 179.576 27.0707 179.225 26.572C178.885 26.0733 178.715 25.4897 178.715 24.821V24.328C178.715 24.2147 178.772 24.158 178.885 24.158H180.126C180.239 24.158 180.296 24.2147 180.296 24.328V24.736C180.296 25.314 180.545 25.79 181.044 26.164C181.543 26.538 182.228 26.725 183.101 26.725C183.883 26.725 184.472 26.5607 184.869 26.232C185.266 25.9033 185.464 25.4727 185.464 24.94C185.464 24.5887 185.362 24.2883 185.158 24.039C184.954 23.7897 184.654 23.563 184.257 23.359C183.872 23.1437 183.305 22.8887 182.557 22.594C181.73 22.2767 181.072 21.9877 180.585 21.727C180.109 21.4663 179.712 21.1263 179.395 20.707C179.078 20.2763 178.919 19.738 178.919 19.092C178.919 18.1173 179.265 17.3523 179.956 16.797C180.659 16.2417 181.605 15.964 182.795 15.964C183.634 15.964 184.37 16.1057 185.005 16.389C185.64 16.6723 186.127 17.069 186.467 17.579C186.818 18.089 186.994 18.6783 186.994 19.347V19.687C186.994 19.8003 186.937 19.857 186.824 19.857H185.549C185.436 19.857 185.379 19.8003 185.379 19.687V19.432C185.379 18.8427 185.141 18.3553 184.665 17.97C184.2 17.5733 183.554 17.375 182.727 17.375C182.024 17.375 181.48 17.5223 181.095 17.817C180.71 18.1003 180.517 18.514 180.517 19.058C180.517 19.432 180.613 19.738 180.806 19.976C180.999 20.214 181.282 20.4293 181.656 20.622C182.041 20.8033 182.625 21.0413 183.407 21.336C184.212 21.6533 184.863 21.948 185.362 22.22C185.861 22.4807 186.274 22.832 186.603 23.274C186.932 23.7047 187.096 24.243 187.096 24.889C187.096 25.8863 186.728 26.6797 185.991 27.269C185.266 27.847 184.263 28.136 182.982 28.136ZM192.568 28.136C191.707 28.136 190.97 27.9207 190.358 27.49C189.746 27.048 189.327 26.453 189.1 25.705C188.93 25.1837 188.845 24.498 188.845 23.648C188.845 22.866 188.93 22.1803 189.1 21.591C189.327 20.8657 189.746 20.2877 190.358 19.857C190.981 19.4263 191.718 19.211 192.568 19.211C193.418 19.211 194.16 19.4263 194.795 19.857C195.43 20.2877 195.843 20.8317 196.036 21.489C196.104 21.6703 196.149 21.8573 196.172 22.05C196.172 22.1407 196.121 22.1973 196.019 22.22L194.744 22.407H194.71C194.631 22.407 194.574 22.356 194.54 22.254L194.489 21.982C194.398 21.5967 194.177 21.2737 193.826 21.013C193.475 20.7523 193.05 20.622 192.551 20.622C192.064 20.622 191.65 20.7523 191.31 21.013C190.97 21.2737 190.749 21.6193 190.647 22.05C190.545 22.458 190.494 22.9963 190.494 23.665C190.494 24.3223 190.545 24.855 190.647 25.263C190.76 25.7163 190.981 26.0733 191.31 26.334C191.65 26.5947 192.064 26.725 192.551 26.725C193.05 26.725 193.475 26.5947 193.826 26.334C194.189 26.0733 194.415 25.7333 194.506 25.314C194.517 25.3027 194.517 25.2913 194.506 25.28C194.506 25.2573 194.512 25.2403 194.523 25.229V25.161C194.557 25.0703 194.619 25.0363 194.71 25.059L195.985 25.263C196.076 25.2857 196.121 25.331 196.121 25.399V25.467C196.121 25.569 196.093 25.6937 196.036 25.841C195.843 26.5323 195.43 27.0877 194.795 27.507C194.16 27.9263 193.418 28.136 192.568 28.136ZM201.21 19.211C201.902 19.211 202.502 19.3357 203.012 19.585C203.534 19.823 203.93 20.163 204.202 20.605C204.486 21.0357 204.627 21.5287 204.627 22.084V27.83C204.627 27.9433 204.571 28 204.457 28H203.165C203.052 28 202.995 27.9433 202.995 27.83V27.218C202.995 27.1613 202.967 27.15 202.91 27.184C202.616 27.49 202.253 27.728 201.822 27.898C201.403 28.0567 200.933 28.136 200.411 28.136C199.573 28.136 198.876 27.9263 198.32 27.507C197.776 27.0763 197.504 26.4303 197.504 25.569C197.504 24.685 197.81 23.9937 198.422 23.495C199.046 22.985 199.913 22.73 201.023 22.73H202.927C202.973 22.73 202.995 22.7073 202.995 22.662V22.203C202.995 21.7043 202.848 21.319 202.553 21.047C202.27 20.7637 201.834 20.622 201.244 20.622C200.768 20.622 200.377 20.7183 200.071 20.911C199.777 21.0923 199.595 21.3417 199.527 21.659C199.493 21.7723 199.425 21.8233 199.323 21.812L197.946 21.625C197.833 21.6023 197.782 21.557 197.793 21.489C197.884 20.8203 198.241 20.2763 198.864 19.857C199.488 19.4263 200.27 19.211 201.21 19.211ZM200.768 26.759C201.369 26.759 201.89 26.6003 202.332 26.283C202.774 25.9657 202.995 25.5633 202.995 25.076V24.073C202.995 24.0277 202.973 24.005 202.927 24.005H201.329C200.661 24.005 200.128 24.1353 199.731 24.396C199.335 24.6567 199.136 25.0193 199.136 25.484C199.136 25.9033 199.284 26.2207 199.578 26.436C199.884 26.6513 200.281 26.759 200.768 26.759ZM210.69 19.228C211.619 19.228 212.356 19.5 212.9 20.044C213.444 20.5767 213.716 21.302 213.716 22.22V27.83C213.716 27.9433 213.659 28 213.546 28H212.254C212.14 28 212.084 27.9433 212.084 27.83V22.543C212.084 21.9763 211.919 21.5173 211.591 21.166C211.262 20.8147 210.826 20.639 210.282 20.639C209.749 20.639 209.313 20.8147 208.973 21.166C208.633 21.5173 208.463 21.9707 208.463 22.526V27.83C208.463 27.9433 208.406 28 208.293 28H207.001C206.887 28 206.831 27.9433 206.831 27.83V19.517C206.831 19.4037 206.887 19.347 207.001 19.347H208.293C208.406 19.347 208.463 19.4037 208.463 19.517V20.129C208.463 20.1517 208.468 20.1687 208.48 20.18C208.502 20.1913 208.519 20.1857 208.531 20.163C209.018 19.5397 209.738 19.228 210.69 19.228Z" fill="#C2FFBD"/>
</svg>
