<svg width="297" height="52" viewBox="0 0 297 52" fill="none" xmlns="http://www.w3.org/2000/svg">
<path d="M8 52H274.5L297 39.9688V8H278V10.75H253V8H28.5L8 20.375V52Z" fill="#735AA9"/>
<path d="M292 1H271V3.75H248V1H22.2217L21.9834 1.14355L1.4834 13.5186L1 13.8105V47H268.751L268.972 46.8818L291.472 34.8506L292 34.5684V1Z" fill="url(#paint0_linear_1_2)" stroke="url(#paint1_linear_1_2)" stroke-width="2"/>
<path d="M40.177 30C40.0863 30 40.024 29.9603 39.99 29.881L37.61 24.798C37.5987 24.764 37.576 24.747 37.542 24.747H35.094C35.0487 24.747 35.026 24.7697 35.026 24.815V29.83C35.026 29.9433 34.9693 30 34.856 30H33.564C33.4507 30 33.394 29.9433 33.394 29.83V18.27C33.394 18.1567 33.4507 18.1 33.564 18.1H38.137C38.817 18.1 39.412 18.2417 39.922 18.525C40.4433 18.8083 40.8457 19.205 41.129 19.715C41.4123 20.225 41.554 20.8143 41.554 21.483C41.554 22.2763 41.3443 22.9507 40.925 23.506C40.517 24.05 39.9447 24.4183 39.208 24.611C39.1627 24.6337 39.1513 24.662 39.174 24.696L41.639 29.796C41.6503 29.8187 41.656 29.847 41.656 29.881C41.656 29.9603 41.6107 30 41.52 30H40.177ZM35.094 19.511C35.0487 19.511 35.026 19.5337 35.026 19.579V23.387C35.026 23.4323 35.0487 23.455 35.094 23.455H37.933C38.5337 23.455 39.0153 23.2793 39.378 22.928C39.7407 22.5653 39.922 22.0893 39.922 21.5C39.922 20.8993 39.7407 20.4177 39.378 20.055C39.0153 19.6923 38.5337 19.511 37.933 19.511H35.094ZM50.5534 24.594C50.5987 25.0587 50.6157 25.58 50.6044 26.158C50.6044 26.2713 50.5477 26.328 50.4344 26.328H45.0114C44.966 26.328 44.9434 26.3507 44.9434 26.396C44.9434 26.7813 44.9774 27.076 45.0454 27.28C45.17 27.7333 45.4194 28.0903 45.7934 28.351C46.1787 28.6003 46.6604 28.725 47.2384 28.725C48.077 28.725 48.723 28.3793 49.1764 27.688C49.233 27.5747 49.3067 27.5577 49.3974 27.637L50.3664 28.283C50.4457 28.351 50.4627 28.4247 50.4174 28.504C50.1 29.014 49.6467 29.4163 49.0574 29.711C48.4794 30.0057 47.822 30.153 47.0854 30.153C46.258 30.153 45.561 29.9717 44.9944 29.609C44.4277 29.2463 44.0027 28.7307 43.7194 28.062C43.4474 27.3933 43.3114 26.583 43.3114 25.631C43.3114 24.8037 43.3737 24.1747 43.4984 23.744C43.7024 22.962 44.1104 22.3443 44.7224 21.891C45.3344 21.4377 46.0767 21.211 46.9494 21.211C48.094 21.211 48.9497 21.5 49.5164 22.078C50.083 22.6447 50.4287 23.4833 50.5534 24.594ZM46.9494 22.622C46.462 22.622 46.0597 22.7467 45.7424 22.996C45.425 23.234 45.2097 23.557 45.0964 23.965C45.017 24.2143 44.966 24.5317 44.9434 24.917C44.9434 24.9623 44.966 24.985 45.0114 24.985H48.9044C48.9497 24.985 48.9724 24.9623 48.9724 24.917C48.9497 24.543 48.9157 24.2653 48.8704 24.084C48.757 23.642 48.5304 23.2907 48.1904 23.03C47.8617 22.758 47.448 22.622 46.9494 22.622ZM58.0356 21.517C58.0356 21.4037 58.0923 21.347 58.2056 21.347H59.4976C59.611 21.347 59.6676 21.4037 59.6676 21.517V33.077C59.6676 33.1903 59.611 33.247 59.4976 33.247H58.2056C58.0923 33.247 58.0356 33.1903 58.0356 33.077V29.286C58.0356 29.2633 58.0243 29.2463 58.0016 29.235C57.9903 29.2237 57.9733 29.2293 57.9506 29.252C57.7013 29.5353 57.401 29.7563 57.0496 29.915C56.7096 30.0623 56.347 30.136 55.9616 30.136C55.1116 30.136 54.4146 29.932 53.8706 29.524C53.3266 29.1047 52.9356 28.5153 52.6976 27.756C52.5163 27.178 52.4256 26.4923 52.4256 25.699C52.4256 24.8603 52.5333 24.135 52.7486 23.523C52.998 22.7863 53.389 22.2197 53.9216 21.823C54.4656 21.415 55.1456 21.211 55.9616 21.211C56.3583 21.211 56.7266 21.2903 57.0666 21.449C57.4066 21.6077 57.7013 21.8287 57.9506 22.112C57.9733 22.1347 57.9903 22.1403 58.0016 22.129C58.0243 22.1177 58.0356 22.1007 58.0356 22.078V21.517ZM57.5766 27.858C57.86 27.3707 58.0016 26.6453 58.0016 25.682C58.0016 24.73 57.8713 24.016 57.6106 23.54C57.2706 22.928 56.772 22.622 56.1146 22.622C55.3666 22.622 54.8283 22.9337 54.4996 23.557C54.2163 24.0897 54.0746 24.7923 54.0746 25.665C54.0746 26.617 54.256 27.365 54.6186 27.909C54.9473 28.453 55.4516 28.725 56.1316 28.725C56.7663 28.725 57.248 28.436 57.5766 27.858ZM67.2941 21.517C67.2941 21.4037 67.3508 21.347 67.4641 21.347H68.7391C68.8525 21.347 68.9091 21.4037 68.9091 21.517V29.83C68.9091 29.9433 68.8525 30 68.7391 30H67.4641C67.3508 30 67.2941 29.9433 67.2941 29.83V29.201C67.2941 29.1783 67.2828 29.167 67.2601 29.167C67.2488 29.1557 67.2318 29.1613 67.2091 29.184C66.7558 29.8073 66.0588 30.119 65.1181 30.119C64.5628 30.119 64.0471 30.0113 63.5711 29.796C63.1065 29.5807 62.7325 29.2633 62.4491 28.844C62.1658 28.4247 62.0241 27.9147 62.0241 27.314V21.517C62.0241 21.4037 62.0808 21.347 62.1941 21.347H63.4691C63.5825 21.347 63.6391 21.4037 63.6391 21.517V26.804C63.6391 27.3933 63.7921 27.858 64.0981 28.198C64.4155 28.538 64.8575 28.708 65.4241 28.708C65.9908 28.708 66.4441 28.538 66.7841 28.198C67.1241 27.8467 67.2941 27.382 67.2941 26.804V21.517ZM78.2946 24.594C78.3399 25.0587 78.3569 25.58 78.3456 26.158C78.3456 26.2713 78.2889 26.328 78.1756 26.328H72.7526C72.7073 26.328 72.6846 26.3507 72.6846 26.396C72.6846 26.7813 72.7186 27.076 72.7866 27.28C72.9113 27.7333 73.1606 28.0903 73.5346 28.351C73.9199 28.6003 74.4016 28.725 74.9796 28.725C75.8183 28.725 76.4643 28.3793 76.9176 27.688C76.9743 27.5747 77.0479 27.5577 77.1386 27.637L78.1076 28.283C78.1869 28.351 78.2039 28.4247 78.1586 28.504C77.8413 29.014 77.3879 29.4163 76.7986 29.711C76.2206 30.0057 75.5633 30.153 74.8266 30.153C73.9993 30.153 73.3023 29.9717 72.7356 29.609C72.1689 29.2463 71.7439 28.7307 71.4606 28.062C71.1886 27.3933 71.0526 26.583 71.0526 25.631C71.0526 24.8037 71.1149 24.1747 71.2396 23.744C71.4436 22.962 71.8516 22.3443 72.4636 21.891C73.0756 21.4377 73.8179 21.211 74.6906 21.211C75.8353 21.211 76.6909 21.5 77.2576 22.078C77.8243 22.6447 78.1699 23.4833 78.2946 24.594ZM74.6906 22.622C74.2033 22.622 73.8009 22.7467 73.4836 22.996C73.1663 23.234 72.9509 23.557 72.8376 23.965C72.7583 24.2143 72.7073 24.5317 72.6846 24.917C72.6846 24.9623 72.7073 24.985 72.7526 24.985H76.6456C76.6909 24.985 76.7136 24.9623 76.7136 24.917C76.6909 24.543 76.6569 24.2653 76.6116 24.084C76.4983 23.642 76.2716 23.2907 75.9316 23.03C75.6029 22.758 75.1893 22.622 74.6906 22.622ZM83.315 30.102C82.635 30.102 82.0344 30 81.513 29.796C81.003 29.592 80.6064 29.3143 80.323 28.963C80.0397 28.6003 79.898 28.2037 79.898 27.773V27.586C79.898 27.4727 79.9547 27.416 80.068 27.416H81.292C81.4054 27.416 81.462 27.4727 81.462 27.586V27.671C81.462 27.9883 81.632 28.266 81.972 28.504C82.3234 28.742 82.7654 28.861 83.298 28.861C83.808 28.861 84.2217 28.7533 84.539 28.538C84.8564 28.3113 85.015 28.028 85.015 27.688C85.015 27.3593 84.8677 27.1157 84.573 26.957C84.2784 26.787 83.8024 26.6113 83.145 26.43C82.499 26.2487 81.955 26.0673 81.513 25.886C81.0824 25.6933 80.714 25.427 80.408 25.087C80.1134 24.7357 79.966 24.288 79.966 23.744C79.966 22.9847 80.2607 22.384 80.85 21.942C81.4507 21.4887 82.244 21.262 83.23 21.262C83.8874 21.262 84.4654 21.3697 84.964 21.585C85.474 21.789 85.865 22.078 86.137 22.452C86.409 22.826 86.545 23.2453 86.545 23.71V23.761C86.545 23.8743 86.4884 23.931 86.375 23.931H85.185C85.0717 23.931 85.015 23.8743 85.015 23.761V23.71C85.015 23.3813 84.8507 23.1093 84.522 22.894C84.2047 22.6673 83.7684 22.554 83.213 22.554C82.7144 22.554 82.3064 22.6503 81.989 22.843C81.683 23.0357 81.53 23.2963 81.53 23.625C81.53 23.9537 81.6774 24.203 81.972 24.373C82.278 24.543 82.7654 24.7243 83.434 24.917C84.0914 25.0983 84.6354 25.2797 85.066 25.461C85.508 25.631 85.882 25.8917 86.188 26.243C86.494 26.583 86.647 27.0307 86.647 27.586C86.647 28.3567 86.341 28.9687 85.729 29.422C85.1284 29.8753 84.3237 30.102 83.315 30.102ZM92.8066 22.52C92.8066 22.6333 92.7499 22.69 92.6366 22.69H90.8006C90.7553 22.69 90.7326 22.7127 90.7326 22.758V27.263C90.7326 27.739 90.8403 28.0847 91.0556 28.3C91.2709 28.504 91.6053 28.606 92.0586 28.606H92.5516C92.6649 28.606 92.7216 28.6627 92.7216 28.776V29.83C92.7216 29.9433 92.6649 30 92.5516 30C92.1889 30.0227 91.9283 30.034 91.7696 30.034C90.9083 30.034 90.2566 29.881 89.8146 29.575C89.3839 29.2577 89.1686 28.6797 89.1686 27.841V22.758C89.1686 22.7127 89.1459 22.69 89.1006 22.69H88.0636C87.9503 22.69 87.8936 22.6333 87.8936 22.52V21.517C87.8936 21.4037 87.9503 21.347 88.0636 21.347H89.1006C89.1459 21.347 89.1686 21.3243 89.1686 21.279V19.273C89.1686 19.1597 89.2253 19.103 89.3386 19.103H90.5626C90.6759 19.103 90.7326 19.1597 90.7326 19.273V21.279C90.7326 21.3243 90.7553 21.347 90.8006 21.347H92.6366C92.7499 21.347 92.8066 21.4037 92.8066 21.517V22.52ZM102.094 30.136C101.222 30.136 100.462 30 99.8163 29.728C99.1817 29.456 98.6887 29.0707 98.3373 28.572C97.9973 28.0733 97.8273 27.4897 97.8273 26.821V26.328C97.8273 26.2147 97.884 26.158 97.9973 26.158H99.2383C99.3517 26.158 99.4083 26.2147 99.4083 26.328V26.736C99.4083 27.314 99.6577 27.79 100.156 28.164C100.655 28.538 101.341 28.725 102.213 28.725C102.995 28.725 103.585 28.5607 103.981 28.232C104.378 27.9033 104.576 27.4727 104.576 26.94C104.576 26.5887 104.474 26.2883 104.27 26.039C104.066 25.7897 103.766 25.563 103.369 25.359C102.984 25.1437 102.417 24.8887 101.669 24.594C100.842 24.2767 100.185 23.9877 99.6973 23.727C99.2213 23.4663 98.8247 23.1263 98.5073 22.707C98.19 22.2763 98.0313 21.738 98.0313 21.092C98.0313 20.1173 98.377 19.3523 99.0683 18.797C99.771 18.2417 100.717 17.964 101.907 17.964C102.746 17.964 103.483 18.1057 104.117 18.389C104.752 18.6723 105.239 19.069 105.579 19.579C105.931 20.089 106.106 20.6783 106.106 21.347V21.687C106.106 21.8003 106.05 21.857 105.936 21.857H104.661C104.548 21.857 104.491 21.8003 104.491 21.687V21.432C104.491 20.8427 104.253 20.3553 103.777 19.97C103.313 19.5733 102.667 19.375 101.839 19.375C101.137 19.375 100.593 19.5223 100.207 19.817C99.822 20.1003 99.6293 20.514 99.6293 21.058C99.6293 21.432 99.7257 21.738 99.9183 21.976C100.111 22.214 100.394 22.4293 100.768 22.622C101.154 22.8033 101.737 23.0413 102.519 23.336C103.324 23.6533 103.976 23.948 104.474 24.22C104.973 24.4807 105.387 24.832 105.715 25.274C106.044 25.7047 106.208 26.243 106.208 26.889C106.208 27.8863 105.84 28.6797 105.103 29.269C104.378 29.847 103.375 30.136 102.094 30.136ZM115.216 24.594C115.262 25.0587 115.279 25.58 115.267 26.158C115.267 26.2713 115.211 26.328 115.097 26.328H109.674C109.629 26.328 109.606 26.3507 109.606 26.396C109.606 26.7813 109.64 27.076 109.708 27.28C109.833 27.7333 110.082 28.0903 110.456 28.351C110.842 28.6003 111.323 28.725 111.901 28.725C112.74 28.725 113.386 28.3793 113.839 27.688C113.896 27.5747 113.97 27.5577 114.06 27.637L115.029 28.283C115.109 28.351 115.126 28.4247 115.08 28.504C114.763 29.014 114.31 29.4163 113.72 29.711C113.142 30.0057 112.485 30.153 111.748 30.153C110.921 30.153 110.224 29.9717 109.657 29.609C109.091 29.2463 108.666 28.7307 108.382 28.062C108.11 27.3933 107.974 26.583 107.974 25.631C107.974 24.8037 108.037 24.1747 108.161 23.744C108.365 22.962 108.773 22.3443 109.385 21.891C109.997 21.4377 110.74 21.211 111.612 21.211C112.757 21.211 113.613 21.5 114.179 22.078C114.746 22.6447 115.092 23.4833 115.216 24.594ZM111.612 22.622C111.125 22.622 110.723 22.7467 110.405 22.996C110.088 23.234 109.873 23.557 109.759 23.965C109.68 24.2143 109.629 24.5317 109.606 24.917C109.606 24.9623 109.629 24.985 109.674 24.985H113.567C113.613 24.985 113.635 24.9623 113.635 24.917C113.613 24.543 113.579 24.2653 113.533 24.084C113.42 23.642 113.193 23.2907 112.853 23.03C112.525 22.758 112.111 22.622 111.612 22.622ZM120.795 30.136C119.933 30.136 119.197 29.9207 118.585 29.49C117.973 29.048 117.553 28.453 117.327 27.705C117.157 27.1837 117.072 26.498 117.072 25.648C117.072 24.866 117.157 24.1803 117.327 23.591C117.553 22.8657 117.973 22.2877 118.585 21.857C119.208 21.4263 119.945 21.211 120.795 21.211C121.645 21.211 122.387 21.4263 123.022 21.857C123.656 22.2877 124.07 22.8317 124.263 23.489C124.331 23.6703 124.376 23.8573 124.399 24.05C124.399 24.1407 124.348 24.1973 124.246 24.22L122.971 24.407H122.937C122.857 24.407 122.801 24.356 122.767 24.254L122.716 23.982C122.625 23.5967 122.404 23.2737 122.053 23.013C121.701 22.7523 121.276 22.622 120.778 22.622C120.29 22.622 119.877 22.7523 119.537 23.013C119.197 23.2737 118.976 23.6193 118.874 24.05C118.772 24.458 118.721 24.9963 118.721 25.665C118.721 26.3223 118.772 26.855 118.874 27.263C118.987 27.7163 119.208 28.0733 119.537 28.334C119.877 28.5947 120.29 28.725 120.778 28.725C121.276 28.725 121.701 28.5947 122.053 28.334C122.415 28.0733 122.642 27.7333 122.733 27.314C122.744 27.3027 122.744 27.2913 122.733 27.28C122.733 27.2573 122.738 27.2403 122.75 27.229V27.161C122.784 27.0703 122.846 27.0363 122.937 27.059L124.212 27.263C124.302 27.2857 124.348 27.331 124.348 27.399V27.467C124.348 27.569 124.319 27.6937 124.263 27.841C124.07 28.5323 123.656 29.0877 123.022 29.507C122.387 29.9263 121.645 30.136 120.795 30.136ZM131.426 21.517C131.426 21.4037 131.483 21.347 131.596 21.347H132.871C132.984 21.347 133.041 21.4037 133.041 21.517V29.83C133.041 29.9433 132.984 30 132.871 30H131.596C131.483 30 131.426 29.9433 131.426 29.83V29.201C131.426 29.1783 131.415 29.167 131.392 29.167C131.381 29.1557 131.364 29.1613 131.341 29.184C130.888 29.8073 130.191 30.119 129.25 30.119C128.695 30.119 128.179 30.0113 127.703 29.796C127.238 29.5807 126.864 29.2633 126.581 28.844C126.298 28.4247 126.156 27.9147 126.156 27.314V21.517C126.156 21.4037 126.213 21.347 126.326 21.347H127.601C127.714 21.347 127.771 21.4037 127.771 21.517V26.804C127.771 27.3933 127.924 27.858 128.23 28.198C128.547 28.538 128.989 28.708 129.556 28.708C130.123 28.708 130.576 28.538 130.916 28.198C131.256 27.8467 131.426 27.382 131.426 26.804V21.517ZM139.213 21.262C139.576 21.262 139.905 21.3357 140.199 21.483C140.279 21.517 140.307 21.585 140.284 21.687L140.012 22.962C140.001 23.064 139.933 23.098 139.808 23.064C139.616 22.9847 139.389 22.945 139.128 22.945L138.89 22.962C138.358 22.9847 137.916 23.1717 137.564 23.523C137.224 23.863 137.054 24.3107 137.054 24.866V29.83C137.054 29.9433 136.998 30 136.884 30H135.592C135.479 30 135.422 29.9433 135.422 29.83V21.517C135.422 21.4037 135.479 21.347 135.592 21.347H136.884C136.998 21.347 137.054 21.4037 137.054 21.517V22.418C137.054 22.452 137.06 22.4747 137.071 22.486C137.094 22.486 137.111 22.4747 137.122 22.452C137.632 21.6587 138.329 21.262 139.213 21.262ZM142.717 19.987C142.4 19.987 142.139 19.885 141.935 19.681C141.731 19.477 141.629 19.2163 141.629 18.899C141.629 18.5817 141.731 18.321 141.935 18.117C142.139 17.913 142.4 17.811 142.717 17.811C143.034 17.811 143.295 17.913 143.499 18.117C143.703 18.321 143.805 18.5817 143.805 18.899C143.805 19.2163 143.703 19.477 143.499 19.681C143.295 19.885 143.034 19.987 142.717 19.987ZM142.037 29.983C141.924 29.983 141.867 29.9263 141.867 29.813V21.517C141.867 21.4037 141.924 21.347 142.037 21.347H143.329C143.442 21.347 143.499 21.4037 143.499 21.517V29.813C143.499 29.9263 143.442 29.983 143.329 29.983H142.037ZM150.331 22.52C150.331 22.6333 150.274 22.69 150.161 22.69H148.325C148.28 22.69 148.257 22.7127 148.257 22.758V27.263C148.257 27.739 148.365 28.0847 148.58 28.3C148.795 28.504 149.13 28.606 149.583 28.606H150.076C150.189 28.606 150.246 28.6627 150.246 28.776V29.83C150.246 29.9433 150.189 30 150.076 30C149.713 30.0227 149.453 30.034 149.294 30.034C148.433 30.034 147.781 29.881 147.339 29.575C146.908 29.2577 146.693 28.6797 146.693 27.841V22.758C146.693 22.7127 146.67 22.69 146.625 22.69H145.588C145.475 22.69 145.418 22.6333 145.418 22.52V21.517C145.418 21.4037 145.475 21.347 145.588 21.347H146.625C146.67 21.347 146.693 21.3243 146.693 21.279V19.273C146.693 19.1597 146.75 19.103 146.863 19.103H148.087C148.2 19.103 148.257 19.1597 148.257 19.273V21.279C148.257 21.3243 148.28 21.347 148.325 21.347H150.161C150.274 21.347 150.331 21.4037 150.331 21.517V22.52ZM152.084 33.383C152.005 33.383 151.965 33.3263 151.965 33.213V32.21C151.965 32.0967 152.022 32.04 152.135 32.04H152.169C152.623 32.0287 152.98 31.972 153.24 31.87C153.501 31.768 153.716 31.5753 153.886 31.292C154.056 31.02 154.221 30.6063 154.379 30.051C154.391 30.0397 154.391 30.0227 154.379 30C154.379 29.966 154.379 29.949 154.379 29.949L151.54 21.534L151.523 21.466C151.523 21.3867 151.574 21.347 151.676 21.347H153.053C153.155 21.347 153.223 21.3923 153.257 21.483L155.178 27.892C155.19 27.9147 155.207 27.926 155.229 27.926C155.252 27.926 155.269 27.9147 155.28 27.892L157.184 21.483C157.218 21.3923 157.286 21.347 157.388 21.347H158.731C158.856 21.347 158.901 21.4093 158.867 21.534L155.773 30.595C155.513 31.377 155.252 31.955 154.991 32.329C154.731 32.7143 154.391 32.9863 153.971 33.145C153.552 33.3037 152.963 33.383 152.203 33.383H152.084ZM167.857 30.153C167.041 30.153 166.315 29.9943 165.681 29.677C165.057 29.3483 164.57 28.8893 164.219 28.3C163.879 27.6993 163.709 27.0137 163.709 26.243V21.84C163.709 21.0693 163.879 20.395 164.219 19.817C164.57 19.2277 165.057 18.7743 165.681 18.457C166.315 18.1283 167.041 17.964 167.857 17.964C168.673 17.964 169.392 18.1227 170.016 18.44C170.639 18.746 171.121 19.1823 171.461 19.749C171.812 20.3157 171.988 20.973 171.988 21.721V21.738C171.988 21.7947 171.971 21.84 171.937 21.874C171.903 21.908 171.863 21.925 171.818 21.925L170.526 21.993C170.412 21.993 170.356 21.942 170.356 21.84V21.789C170.356 21.0637 170.129 20.48 169.676 20.038C169.222 19.596 168.616 19.375 167.857 19.375C167.097 19.375 166.485 19.596 166.021 20.038C165.567 20.48 165.341 21.0637 165.341 21.789V26.311C165.341 27.0363 165.567 27.62 166.021 28.062C166.485 28.504 167.097 28.725 167.857 28.725C168.616 28.725 169.222 28.504 169.676 28.062C170.129 27.62 170.356 27.0363 170.356 26.311V26.277C170.356 26.175 170.412 26.124 170.526 26.124L171.818 26.192C171.931 26.192 171.988 26.2487 171.988 26.362C171.988 27.11 171.812 27.773 171.461 28.351C171.121 28.9177 170.639 29.3597 170.016 29.677C169.392 29.9943 168.673 30.153 167.857 30.153ZM177.673 30.136C176.835 30.136 176.104 29.9263 175.48 29.507C174.857 29.0763 174.421 28.4813 174.171 27.722C173.967 27.11 173.865 26.4187 173.865 25.648C173.865 24.8433 173.962 24.1633 174.154 23.608C174.404 22.86 174.84 22.2763 175.463 21.857C176.087 21.4263 176.829 21.211 177.69 21.211C178.506 21.211 179.215 21.4263 179.815 21.857C180.427 22.2763 180.864 22.8543 181.124 23.591C181.328 24.169 181.43 24.849 181.43 25.631C181.43 26.4243 181.328 27.1213 181.124 27.722C180.875 28.4813 180.444 29.0763 179.832 29.507C179.22 29.9263 178.501 30.136 177.673 30.136ZM177.673 28.725C178.127 28.725 178.523 28.6003 178.863 28.351C179.203 28.0903 179.447 27.7277 179.594 27.263C179.719 26.8323 179.781 26.2997 179.781 25.665C179.781 25.0303 179.725 24.5033 179.611 24.084C179.464 23.6193 179.22 23.2623 178.88 23.013C178.54 22.7523 178.127 22.622 177.639 22.622C177.175 22.622 176.772 22.7523 176.432 23.013C176.092 23.2623 175.849 23.6193 175.701 24.084C175.577 24.4807 175.514 25.0077 175.514 25.665C175.514 26.3223 175.577 26.855 175.701 27.263C175.837 27.7277 176.075 28.0903 176.415 28.351C176.767 28.6003 177.186 28.725 177.673 28.725ZM187.426 21.228C188.355 21.228 189.092 21.5 189.636 22.044C190.18 22.5767 190.452 23.302 190.452 24.22V29.83C190.452 29.9433 190.395 30 190.282 30H188.99C188.877 30 188.82 29.9433 188.82 29.83V24.543C188.82 23.9763 188.656 23.5173 188.327 23.166C187.998 22.8147 187.562 22.639 187.018 22.639C186.485 22.639 186.049 22.8147 185.709 23.166C185.369 23.5173 185.199 23.9707 185.199 24.526V29.83C185.199 29.9433 185.142 30 185.029 30H183.737C183.624 30 183.567 29.9433 183.567 29.83V21.517C183.567 21.4037 183.624 21.347 183.737 21.347H185.029C185.142 21.347 185.199 21.4037 185.199 21.517V22.129C185.199 22.1517 185.205 22.1687 185.216 22.18C185.239 22.1913 185.256 22.1857 185.267 22.163C185.754 21.5397 186.474 21.228 187.426 21.228ZM195.824 30.102C195.144 30.102 194.543 30 194.022 29.796C193.512 29.592 193.115 29.3143 192.832 28.963C192.548 28.6003 192.407 28.2037 192.407 27.773V27.586C192.407 27.4727 192.463 27.416 192.577 27.416H193.801C193.914 27.416 193.971 27.4727 193.971 27.586V27.671C193.971 27.9883 194.141 28.266 194.481 28.504C194.832 28.742 195.274 28.861 195.807 28.861C196.317 28.861 196.73 28.7533 197.048 28.538C197.365 28.3113 197.524 28.028 197.524 27.688C197.524 27.3593 197.376 27.1157 197.082 26.957C196.787 26.787 196.311 26.6113 195.654 26.43C195.008 26.2487 194.464 26.0673 194.022 25.886C193.591 25.6933 193.223 25.427 192.917 25.087C192.622 24.7357 192.475 24.288 192.475 23.744C192.475 22.9847 192.769 22.384 193.359 21.942C193.959 21.4887 194.753 21.262 195.739 21.262C196.396 21.262 196.974 21.3697 197.473 21.585C197.983 21.789 198.374 22.078 198.646 22.452C198.918 22.826 199.054 23.2453 199.054 23.71V23.761C199.054 23.8743 198.997 23.931 198.884 23.931H197.694C197.58 23.931 197.524 23.8743 197.524 23.761V23.71C197.524 23.3813 197.359 23.1093 197.031 22.894C196.713 22.6673 196.277 22.554 195.722 22.554C195.223 22.554 194.815 22.6503 194.498 22.843C194.192 23.0357 194.039 23.2963 194.039 23.625C194.039 23.9537 194.186 24.203 194.481 24.373C194.787 24.543 195.274 24.7243 195.943 24.917C196.6 25.0983 197.144 25.2797 197.575 25.461C198.017 25.631 198.391 25.8917 198.697 26.243C199.003 26.583 199.156 27.0307 199.156 27.586C199.156 28.3567 198.85 28.9687 198.238 29.422C197.637 29.8753 196.832 30.102 195.824 30.102ZM206.216 21.517C206.216 21.4037 206.273 21.347 206.386 21.347H207.661C207.774 21.347 207.831 21.4037 207.831 21.517V29.83C207.831 29.9433 207.774 30 207.661 30H206.386C206.273 30 206.216 29.9433 206.216 29.83V29.201C206.216 29.1783 206.205 29.167 206.182 29.167C206.171 29.1557 206.154 29.1613 206.131 29.184C205.678 29.8073 204.981 30.119 204.04 30.119C203.485 30.119 202.969 30.0113 202.493 29.796C202.028 29.5807 201.654 29.2633 201.371 28.844C201.088 28.4247 200.946 27.9147 200.946 27.314V21.517C200.946 21.4037 201.003 21.347 201.116 21.347H202.391C202.504 21.347 202.561 21.4037 202.561 21.517V26.804C202.561 27.3933 202.714 27.858 203.02 28.198C203.337 28.538 203.779 28.708 204.346 28.708C204.913 28.708 205.366 28.538 205.706 28.198C206.046 27.8467 206.216 27.382 206.216 26.804V21.517ZM210.382 30C210.269 30 210.212 29.9433 210.212 29.83V18.27C210.212 18.1567 210.269 18.1 210.382 18.1H211.674C211.788 18.1 211.844 18.1567 211.844 18.27V29.83C211.844 29.9433 211.788 30 211.674 30H210.382ZM218.48 22.52C218.48 22.6333 218.424 22.69 218.31 22.69H216.474C216.429 22.69 216.406 22.7127 216.406 22.758V27.263C216.406 27.739 216.514 28.0847 216.729 28.3C216.945 28.504 217.279 28.606 217.732 28.606H218.225C218.339 28.606 218.395 28.6627 218.395 28.776V29.83C218.395 29.9433 218.339 30 218.225 30C217.863 30.0227 217.602 30.034 217.443 30.034C216.582 30.034 215.93 29.881 215.488 29.575C215.058 29.2577 214.842 28.6797 214.842 27.841V22.758C214.842 22.7127 214.82 22.69 214.774 22.69H213.737C213.624 22.69 213.567 22.6333 213.567 22.52V21.517C213.567 21.4037 213.624 21.347 213.737 21.347H214.774C214.82 21.347 214.842 21.3243 214.842 21.279V19.273C214.842 19.1597 214.899 19.103 215.012 19.103H216.236C216.35 19.103 216.406 19.1597 216.406 19.273V21.279C216.406 21.3243 216.429 21.347 216.474 21.347H218.31C218.424 21.347 218.48 21.4037 218.48 21.517V22.52ZM223.651 21.211C224.342 21.211 224.943 21.3357 225.453 21.585C225.974 21.823 226.371 22.163 226.643 22.605C226.926 23.0357 227.068 23.5287 227.068 24.084V29.83C227.068 29.9433 227.011 30 226.898 30H225.606C225.492 30 225.436 29.9433 225.436 29.83V29.218C225.436 29.1613 225.407 29.15 225.351 29.184C225.056 29.49 224.693 29.728 224.263 29.898C223.843 30.0567 223.373 30.136 222.852 30.136C222.013 30.136 221.316 29.9263 220.761 29.507C220.217 29.0763 219.945 28.4303 219.945 27.569C219.945 26.685 220.251 25.9937 220.863 25.495C221.486 24.985 222.353 24.73 223.464 24.73H225.368C225.413 24.73 225.436 24.7073 225.436 24.662V24.203C225.436 23.7043 225.288 23.319 224.994 23.047C224.71 22.7637 224.274 22.622 223.685 22.622C223.209 22.622 222.818 22.7183 222.512 22.911C222.217 23.0923 222.036 23.3417 221.968 23.659C221.934 23.7723 221.866 23.8233 221.764 23.812L220.387 23.625C220.273 23.6023 220.222 23.557 220.234 23.489C220.324 22.8203 220.681 22.2763 221.305 21.857C221.928 21.4263 222.71 21.211 223.651 21.211ZM223.209 28.759C223.809 28.759 224.331 28.6003 224.773 28.283C225.215 27.9657 225.436 27.5633 225.436 27.076V26.073C225.436 26.0277 225.413 26.005 225.368 26.005H223.77C223.101 26.005 222.568 26.1353 222.172 26.396C221.775 26.6567 221.577 27.0193 221.577 27.484C221.577 27.9033 221.724 28.2207 222.019 28.436C222.325 28.6513 222.721 28.759 223.209 28.759ZM233.422 22.52C233.422 22.6333 233.365 22.69 233.252 22.69H231.416C231.371 22.69 231.348 22.7127 231.348 22.758V27.263C231.348 27.739 231.456 28.0847 231.671 28.3C231.886 28.504 232.221 28.606 232.674 28.606H233.167C233.28 28.606 233.337 28.6627 233.337 28.776V29.83C233.337 29.9433 233.28 30 233.167 30C232.804 30.0227 232.544 30.034 232.385 30.034C231.524 30.034 230.872 29.881 230.43 29.575C229.999 29.2577 229.784 28.6797 229.784 27.841V22.758C229.784 22.7127 229.761 22.69 229.716 22.69H228.679C228.566 22.69 228.509 22.6333 228.509 22.52V21.517C228.509 21.4037 228.566 21.347 228.679 21.347H229.716C229.761 21.347 229.784 21.3243 229.784 21.279V19.273C229.784 19.1597 229.841 19.103 229.954 19.103H231.178C231.291 19.103 231.348 19.1597 231.348 19.273V21.279C231.348 21.3243 231.371 21.347 231.416 21.347H233.252C233.365 21.347 233.422 21.4037 233.422 21.517V22.52ZM236.416 19.987C236.099 19.987 235.838 19.885 235.634 19.681C235.43 19.477 235.328 19.2163 235.328 18.899C235.328 18.5817 235.43 18.321 235.634 18.117C235.838 17.913 236.099 17.811 236.416 17.811C236.734 17.811 236.994 17.913 237.198 18.117C237.402 18.321 237.504 18.5817 237.504 18.899C237.504 19.2163 237.402 19.477 237.198 19.681C236.994 19.885 236.734 19.987 236.416 19.987ZM235.736 29.983C235.623 29.983 235.566 29.9263 235.566 29.813V21.517C235.566 21.4037 235.623 21.347 235.736 21.347H237.028C237.142 21.347 237.198 21.4037 237.198 21.517V29.813C237.198 29.9263 237.142 29.983 237.028 29.983H235.736ZM243.299 30.136C242.461 30.136 241.73 29.9263 241.106 29.507C240.483 29.0763 240.047 28.4813 239.797 27.722C239.593 27.11 239.491 26.4187 239.491 25.648C239.491 24.8433 239.588 24.1633 239.78 23.608C240.03 22.86 240.466 22.2763 241.089 21.857C241.713 21.4263 242.455 21.211 243.316 21.211C244.132 21.211 244.841 21.4263 245.441 21.857C246.053 22.2763 246.49 22.8543 246.75 23.591C246.954 24.169 247.056 24.849 247.056 25.631C247.056 26.4243 246.954 27.1213 246.75 27.722C246.501 28.4813 246.07 29.0763 245.458 29.507C244.846 29.9263 244.127 30.136 243.299 30.136ZM243.299 28.725C243.753 28.725 244.149 28.6003 244.489 28.351C244.829 28.0903 245.073 27.7277 245.22 27.263C245.345 26.8323 245.407 26.2997 245.407 25.665C245.407 25.0303 245.351 24.5033 245.237 24.084C245.09 23.6193 244.846 23.2623 244.506 23.013C244.166 22.7523 243.753 22.622 243.265 22.622C242.801 22.622 242.398 22.7523 242.058 23.013C241.718 23.2623 241.475 23.6193 241.327 24.084C241.203 24.4807 241.14 25.0077 241.14 25.665C241.14 26.3223 241.203 26.855 241.327 27.263C241.463 27.7277 241.701 28.0903 242.041 28.351C242.393 28.6003 242.812 28.725 243.299 28.725ZM253.052 21.228C253.981 21.228 254.718 21.5 255.262 22.044C255.806 22.5767 256.078 23.302 256.078 24.22V29.83C256.078 29.9433 256.021 30 255.908 30H254.616C254.503 30 254.446 29.9433 254.446 29.83V24.543C254.446 23.9763 254.282 23.5173 253.953 23.166C253.624 22.8147 253.188 22.639 252.644 22.639C252.111 22.639 251.675 22.8147 251.335 23.166C250.995 23.5173 250.825 23.9707 250.825 24.526V29.83C250.825 29.9433 250.768 30 250.655 30H249.363C249.25 30 249.193 29.9433 249.193 29.83V21.517C249.193 21.4037 249.25 21.347 249.363 21.347H250.655C250.768 21.347 250.825 21.4037 250.825 21.517V22.129C250.825 22.1517 250.831 22.1687 250.842 22.18C250.865 22.1913 250.882 22.1857 250.893 22.163C251.38 21.5397 252.1 21.228 253.052 21.228Z" fill="#0D0128"/>
<defs>
<linearGradient id="paint0_linear_1_2" x1="291" y1="24" x2="2" y2="24" gradientUnits="userSpaceOnUse">
<stop stop-color="#AA83FF"/>
<stop offset="1" stop-color="#D0FFCC"/>
</linearGradient>
<linearGradient id="paint1_linear_1_2" x1="291" y1="24" x2="2" y2="24" gradientUnits="userSpaceOnUse">
<stop stop-color="#C7ADFF"/>
<stop offset="1" stop-color="#776899" stop-opacity="0"/>
</linearGradient>
</defs>
</svg>
