<svg width="47" height="47" viewBox="0 0 47 47" fill="none" xmlns="http://www.w3.org/2000/svg">
<circle cx="23.5" cy="23.5" r="23.5" fill="black"/>
<path d="M41.0013 23.7377C41.0013 26.0085 40.0553 28.0753 38.5376 29.2409C38.5789 29.081 38.6149 28.919 38.6499 28.7529V28.7488C38.6664 28.6679 38.6808 28.5848 38.6953 28.5017C38.7097 28.4167 38.7242 28.3315 38.7365 28.2465C38.7489 28.1614 38.7612 28.0742 38.7715 27.9871C38.7818 27.9164 38.7901 27.8476 38.7963 27.7749C38.8065 27.6877 38.8148 27.6006 38.821 27.5093C38.8313 27.4017 38.8374 27.291 38.8437 27.1792C38.8499 27.0521 38.856 26.9342 38.8602 26.8194C38.8643 26.7077 38.8663 26.599 38.8663 26.4975V26.3232C38.8705 25.9408 38.8746 25.341 38.8416 24.5906C38.8375 24.5199 38.8354 24.4471 38.8313 24.3723C38.8272 24.2974 38.823 24.2226 38.819 24.1457C38.8107 24.0124 38.8024 23.876 38.7901 23.7366C38.786 23.6843 38.7818 23.6331 38.7777 23.5788C38.7674 23.4577 38.7571 23.3337 38.7447 23.2067C38.718 22.9329 38.686 22.65 38.6469 22.3609C38.6221 22.1804 38.5954 21.9969 38.5654 21.8103C38.5222 21.5253 38.4696 21.2372 38.4099 20.9419C38.3893 20.8445 38.3687 20.7451 38.347 20.6447C38.3244 20.5391 38.3017 20.4304 38.276 20.3247C38.2554 20.2417 38.2347 20.1567 38.2141 20.0715C38.1894 19.9619 38.1595 19.8512 38.1286 19.7414C38.1018 19.6399 38.075 19.5375 38.0451 19.436C38.0101 19.3048 37.9699 19.1725 37.9266 19.0392C37.906 18.9664 37.8833 18.8937 37.8576 18.8209C37.8246 18.7173 37.7906 18.6148 37.7556 18.5112C37.7205 18.4098 37.6824 18.3052 37.6454 18.2016C37.5742 18.0017 37.498 17.8028 37.4145 17.6029C37.4125 17.5967 37.4104 17.5906 37.4062 17.5845C39.5237 18.4303 40.9992 20.8999 40.9992 23.7377H41.0013Z" fill="white"/>
<path d="M9.86391 17.4873C9.8124 17.599 9.75985 17.7118 9.71039 17.8235C9.60838 18.0481 9.51255 18.2725 9.42806 18.4971C9.3889 18.5945 9.35079 18.6919 9.31369 18.7903C9.30133 18.819 9.29102 18.8508 9.28072 18.8795C9.24569 18.9749 9.20962 19.0723 9.17665 19.1686C9.1375 19.2804 9.09937 19.3932 9.06228 19.5048C8.94996 19.839 8.85002 20.1692 8.76244 20.4983C8.73153 20.6059 8.70165 20.7166 8.67486 20.8243C8.64807 20.9319 8.62128 21.0406 8.59552 21.1462C8.56873 21.2539 8.544 21.3604 8.5203 21.4661C8.48732 21.6075 8.45745 21.748 8.43066 21.8874C8.42242 21.9182 8.41624 21.95 8.41211 21.9807C8.38326 22.1201 8.35853 22.2585 8.33277 22.3959C8.29774 22.5979 8.26374 22.7968 8.23489 22.9905C8.13082 23.6703 8.06693 24.2977 8.02675 24.8503C8.01439 24.9917 8.00615 25.1281 7.99996 25.2614C7.9979 25.2757 7.9979 25.29 7.9979 25.3054C7.99378 25.3659 7.99172 25.4233 7.98966 25.4797C7.98554 25.573 7.98142 25.6622 7.97936 25.7473C7.97524 25.8867 7.97111 26.0169 7.97111 26.1379C7.96699 26.263 7.96699 26.3767 7.96699 26.4803C7.96699 26.5839 7.96699 26.6946 7.97317 26.8104C7.97524 26.8668 7.9773 26.9262 7.97936 26.9867C7.97936 27.0493 7.98554 27.1118 7.9876 27.1774C7.99584 27.3333 8.00821 27.487 8.02262 27.6388C8.02675 27.6839 8.03087 27.7301 8.03705 27.7761C8.04529 27.8654 8.0556 27.9525 8.06796 28.0375C8.09269 28.2354 8.12154 28.4302 8.15967 28.6188C8.17409 28.6957 8.18852 28.7706 8.205 28.8454C8.21943 28.9203 8.23592 28.9951 8.25446 29.0679C6.86345 27.8735 6 25.8775 6 23.7379C6 20.7802 7.62181 18.2203 9.86391 17.4873Z" fill="white"/>
<path d="M23.5519 36.244C23.5137 36.244 23.4828 36.244 23.4612 36.244H23.3685C23.2614 36.244 22.7049 36.2471 21.8652 36.1917C21.0265 36.1364 19.7261 36.0112 18.2918 35.7262C15.7736 35.2259 12.3496 34.1259 10.3425 31.729C9.79327 31.1282 9.37802 30.4619 9.11013 29.7484L9.10497 29.734C9.0483 29.5843 8.99678 29.4295 8.94938 29.2614C8.83605 28.8533 8.75053 28.4351 8.68973 27.9799C8.65573 27.7185 8.62997 27.4457 8.61245 27.1464C8.59906 26.8808 8.59391 26.6758 8.59391 26.4779C8.58978 25.4999 8.66397 23.5213 9.20698 21.2607C9.25953 21.0475 9.31621 20.8219 9.38008 20.5943L9.38317 20.5841C9.54494 20.0008 9.73248 19.4308 9.94164 18.8874C10.0406 18.6332 10.1323 18.4086 10.224 18.1985C10.3177 17.9872 10.4177 17.771 10.5403 17.5157L10.5867 17.4244C10.6299 17.3384 10.6722 17.2563 10.7165 17.1713L10.7206 17.163C13.2224 12.4102 17.6334 10 23.8311 10C26.9181 10 29.5589 10.61 31.6805 11.8125C33.7989 13.0141 35.4352 14.8266 36.5449 17.2L36.5521 17.2164C36.9128 17.9863 37.2239 18.8413 37.4775 19.7568C38.2615 22.615 38.2409 25.3 38.2327 26.3119V26.4923C38.2306 26.7169 38.2234 26.9228 38.21 27.1422V27.1494C38.1986 27.3411 38.1842 27.5278 38.1667 27.7041C38.108 28.2588 38.0132 28.7651 37.8772 29.2562L37.8504 29.3464C37.8411 29.3865 37.8267 29.4325 37.8092 29.4797C37.7917 29.5381 37.769 29.6059 37.7391 29.6848L37.7257 29.7227C37.7113 29.7586 37.7051 29.7739 37.701 29.7852C37.6928 29.8078 37.6876 29.8231 37.6753 29.8529L37.6732 29.8569C37.4074 30.5264 37.0035 31.16 36.4738 31.7393C34.4697 34.1331 31.0489 35.23 28.5327 35.7293C27.0995 36.0133 25.8001 36.1384 24.9614 36.1937C24.2659 36.2388 23.7734 36.246 23.5519 36.246V36.244ZM23.4736 35.432C23.5828 35.4331 24.1104 35.434 24.9068 35.3817C25.7208 35.3285 26.982 35.2074 28.3719 34.9317C30.7594 34.4581 33.9937 33.4298 35.8453 31.2195L35.869 31.1928C36.3337 30.6864 36.685 30.1349 36.9148 29.5556L36.919 29.5464C36.9272 29.5268 36.9293 29.5207 36.9334 29.5105C36.9416 29.4869 36.9499 29.4674 36.9623 29.4356C36.9654 29.4264 36.9705 29.4131 36.9757 29.3987C36.9941 29.3485 37.0138 29.2952 37.0282 29.2449L37.0467 29.1917C37.0508 29.1814 37.0539 29.1732 37.055 29.166L37.0808 29.0737C37.0838 29.0634 37.0879 29.0492 37.092 29.0348C37.2157 28.5898 37.3012 28.1275 37.3548 27.6211C37.3713 27.456 37.3857 27.2797 37.395 27.0992V27.0859C37.4074 26.888 37.4146 26.6953 37.4166 26.4882V26.3108C37.4249 25.3267 37.4455 22.7227 36.6902 19.972C36.4511 19.1088 36.1595 18.304 35.8226 17.5813L35.8123 17.5588C34.7747 15.3331 33.2487 13.6374 31.2766 12.5189C29.2798 11.3871 26.7738 10.813 23.8311 10.813C17.958 10.813 13.788 13.0787 11.4388 17.5485L11.4336 17.5578C11.3924 17.6356 11.3543 17.7115 11.3131 17.7915L11.2698 17.8755C11.1544 18.1144 11.0586 18.3225 10.9689 18.5234C10.8824 18.7214 10.7938 18.9367 10.7 19.1785C10.5001 19.6994 10.3188 20.2489 10.1632 20.8106L10.1601 20.8209C10.1003 21.0352 10.0467 21.2515 9.99625 21.4525C9.47385 23.6269 9.40275 25.5327 9.40584 26.4749C9.40584 26.6625 9.41099 26.8552 9.42336 27.1034C9.43984 27.3801 9.46251 27.6333 9.49445 27.8732C9.5501 28.2904 9.62841 28.6729 9.73145 29.043C9.77266 29.1885 9.81697 29.3229 9.86642 29.4521L9.86951 29.4613C10.1013 30.0784 10.462 30.6576 10.9421 31.1826L10.9597 31.202C12.8216 33.4247 16.059 34.456 18.4484 34.9307C19.8395 35.2074 21.1016 35.3285 21.9156 35.3828C22.7142 35.4351 23.2417 35.434 23.3499 35.4331H23.4715L23.4736 35.432ZM37.1868 29.5156L37.3487 29.5638L37.0786 29.4736L37.1868 29.5156Z" fill="white"/>
<path d="M34.7987 23.0727C34.706 22.636 34.2938 22.3438 33.8487 22.4013H33.8405C32.5051 22.512 31.281 22.5242 30.158 22.4135C29.0122 22.2453 27.6046 21.5226 26.3754 20.7557C24.6022 19.6537 22.3642 19.6537 20.5909 20.7557C19.3616 21.5206 17.9541 22.2433 16.8084 22.4115C15.6863 22.5222 14.4622 22.5098 13.1299 22.3991H13.1217C12.6786 22.3387 12.2644 22.6319 12.1706 23.0706C11.8275 24.6884 11.4803 26.3113 11.4844 27.8747C11.4844 28.0521 11.4906 28.2264 11.5009 28.4006C11.5349 28.9697 11.6184 29.5304 11.776 30.0789C12.0006 30.8539 12.4055 31.5152 12.9382 32.0781C16.051 35.6815 23.1298 35.6467 23.4852 35.6283C23.8406 35.6467 30.9194 35.6815 34.0322 32.0781C34.5617 31.5152 34.9698 30.8539 35.1944 30.0789C35.352 29.5304 35.4355 28.9676 35.4685 28.3986C35.4788 28.2285 35.4849 28.0582 35.4849 27.888C35.4911 26.3215 35.1439 24.6946 34.7987 23.0727ZM16.8362 28.6672C15.9294 28.6672 15.1937 27.9331 15.1937 27.0259C15.1937 26.1186 15.9294 25.3846 16.8362 25.3846C17.7429 25.3846 18.4786 26.1176 18.4786 27.0259C18.4786 27.9342 17.7429 28.6672 16.8362 28.6672ZM23.2472 33.0663C20.935 33.0017 21.2678 30.4182 21.2678 30.4182L25.5388 30.4079C25.5388 30.4079 25.8499 33.137 23.2472 33.0663ZM30.0528 28.6672C29.1461 28.6672 28.4104 27.9331 28.4104 27.0259C28.4104 26.1186 29.1461 25.3846 30.0528 25.3846C30.9595 25.3846 31.6952 26.1176 31.6952 27.0259C31.6952 27.9342 30.9595 28.6672 30.0528 28.6672Z" fill="white"/>
<path d="M23.3472 12.7949C21.7099 12.7949 20.3828 14.1154 20.3828 15.7444C20.3828 17.3734 21.7099 18.6928 23.3472 18.6928C24.9844 18.6928 26.3105 17.3724 26.3105 15.7444C26.3105 14.1164 24.9834 12.7949 23.3472 12.7949ZM23.3472 17.8081C22.2014 17.8081 21.272 16.8844 21.272 15.7444C21.272 14.6044 22.2014 13.6797 23.3472 13.6797C24.4929 13.6797 25.4214 14.6044 25.4214 15.7444C25.4214 16.8844 24.4929 17.8081 23.3472 17.8081Z" fill="white"/>
<path d="M24.5271 15.7444C24.5271 16.3955 23.9965 16.9234 23.3422 16.9234C22.6879 16.9234 22.1562 16.3955 22.1562 15.7444C22.1562 15.0934 22.6869 14.5645 23.3422 14.5645C23.9976 14.5645 24.5271 15.0924 24.5271 15.7444Z" fill="white"/>
</svg>
