<svg width="187" height="42" viewBox="0 0 187 42" fill="none" xmlns="http://www.w3.org/2000/svg">
<path fill-rule="evenodd" clip-rule="evenodd" d="M10.4146 17.8577L23.3182 30.9929L36.084 17.998L46.5509 28.6527L34.3897 41.0322L31.2612 37.9324L40.3772 28.6527L36.084 24.2824L23.3182 37.2774L10.4146 24.1422L6.17365 28.4593L15.4283 37.8801L12.2998 40.9799L0 28.4593L10.4146 17.8577Z" fill="#8A94A6"/>
<path fill-rule="evenodd" clip-rule="evenodd" d="M36.1364 24.1419L23.2328 11.0068L10.4671 24.0017L0.000167847 13.3469L12.1613 0.967529L15.2898 4.06734L6.17381 13.3469L10.4671 17.7173L23.2328 4.72234L36.1364 17.8575L40.3774 13.5403L31.1227 4.1196L34.2512 1.01979L46.551 13.5403L36.1364 24.1419Z" fill="#8A94A6"/>
<path fill-rule="evenodd" clip-rule="evenodd" d="M21.3066 40.7237V32.448H25.5203V40.7237H21.3066Z" fill="#8A94A6"/>
<path fill-rule="evenodd" clip-rule="evenodd" d="M21.3066 9.55178V1.27612H25.5203V9.55178H21.3066Z" fill="#8A94A6"/>
<path d="M60.7498 10.738H56.551V31.8786H60.7498V10.738Z" fill="#8A94A6"/>
<path d="M82.048 16.3167C80.1394 16.3167 78.319 17.1389 77.4088 18.93C76.4692 17.1389 74.7075 16.3167 72.6521 16.3167C70.8023 16.3167 69.393 17.0214 68.6589 18.284L68.2185 16.6103H64.4014V31.8785H68.5121V23.3342C68.5121 21.0734 69.6866 19.9869 71.4189 19.9869C73.0632 19.9869 74.179 21.0147 74.179 23.5104V31.8785H78.1428V23.4223C78.2015 21.044 79.4347 19.9869 81.0496 19.9869C82.7233 19.9869 83.8097 21.0146 83.8097 23.3048V31.9079H87.9497V22.4827C87.9497 18.2545 85.1016 16.3167 82.048 16.3167Z" fill="#8A94A6"/>
<path d="M108.858 16.3167C106.949 16.3167 105.129 17.1389 104.219 18.93C103.279 17.1389 101.517 16.3167 99.4621 16.3167C97.6123 16.3167 96.2029 17.0214 95.4689 18.284L95.0284 16.6103H91.2114V31.8785H95.3221V23.3342C95.3221 21.0734 96.4965 19.9869 98.2289 19.9869C99.8732 19.9869 100.989 21.0147 100.989 23.5104V31.8785H104.953V23.4223C105.011 21.044 106.245 19.9869 107.86 19.9869C109.533 19.9869 110.62 21.0146 110.62 23.3048V31.9079H114.76V22.4827C114.76 18.2545 111.912 16.3167 108.858 16.3167Z" fill="#8A94A6"/>
<path d="M128.034 16.6104V24.9785C128.034 27.2394 126.977 28.59 124.951 28.6194C123.013 28.6781 121.78 27.533 121.78 25.1547V16.6104H117.875V25.6832C117.875 29.5883 120.135 32.1722 124.041 32.1722C125.861 32.1722 127.182 31.35 127.975 30.2049L128.181 31.8786H131.939V16.6104H128.034Z" fill="#8A94A6"/>
<path d="M144.002 16.3167C141.712 16.3167 140.185 17.1681 139.392 18.4307L139.157 16.6103H135.34V31.8785H139.451V23.804C139.451 21.3376 140.625 19.8402 142.798 19.8402C144.795 19.8402 145.999 21.1321 145.999 23.6572V31.8785H150.139V22.8057C150.139 18.9006 147.907 16.3167 144.002 16.3167Z" fill="#8A94A6"/>
<path d="M168.116 24.0096C168.116 19.341 165.091 16.3167 160.54 16.3167C155.989 16.3167 152.936 19.4877 152.936 24.2444C152.936 29.0304 155.989 32.2015 160.57 32.2015C164.416 32.2015 167.323 30.058 167.998 26.8869H163.858C163.389 28.2083 162.185 28.8836 160.687 28.8836C158.72 28.8836 157.134 27.6211 157.076 25.3602H168.116V24.0096ZM160.54 19.5172C162.331 19.5172 163.829 20.5448 164.005 22.6588H157.105C157.281 20.5448 158.779 19.5172 160.54 19.5172Z" fill="#8A94A6"/>
<path d="M169.721 16.6103V20.1924H172.07V31.8785H176.21V20.1924H179.704V16.6103H176.21V15.0541C176.21 13.9677 176.503 13.1456 178.177 13.1456H179.704V9.79834H177.267C173.42 9.79834 172.07 11.6775 172.07 14.643V16.6103H169.721Z" fill="#8A94A6"/>
<path d="M182.419 14.2613H186.588L186.647 9.79834H182.478L182.419 14.2613ZM182.478 31.8785H186.588V16.6103H182.478V31.8785Z" fill="#8A94A6"/>
</svg>
