<svg width="43" height="43" viewBox="0 0 43 43" fill="none" xmlns="http://www.w3.org/2000/svg">
<path d="M42.0243 17.7077L38.4838 16.5763C38.1214 15.3227 37.6212 14.116 36.9904 12.9724L38.6941 9.6682C38.9736 9.126 38.8708 8.46539 38.4393 8.03413L34.9654 4.56015C34.5343 4.12881 33.8734 4.02584 33.3314 4.30534L30.0271 6.00912C28.8836 5.37831 27.6767 4.87819 26.4233 4.51572L25.2919 0.975218C25.1063 0.394219 24.5664 0 23.9563 0H19.0433C18.4333 0 17.8933 0.394303 17.7077 0.975386L16.5763 4.5158C15.3228 4.87828 14.1161 5.3784 12.9725 6.0092L9.66812 4.30542C9.12584 4.02576 8.46522 4.12897 8.03413 4.56023L4.56023 8.03421C4.12889 8.46556 4.02593 9.12609 4.30542 9.66829L6.0092 12.9725C5.3784 14.116 4.87819 15.3228 4.51572 16.5764L0.975219 17.7078C0.394387 17.8934 0 18.4334 0 19.0433V23.9563C0 24.5662 0.394387 25.1063 0.975387 25.2919L4.5158 26.4233C4.87828 27.6768 5.37848 28.8836 6.00928 30.0272L4.30551 33.3314C4.02601 33.8736 4.12889 34.5342 4.56031 34.9654L8.03421 38.4394C8.46539 38.8708 9.12634 38.9737 9.6682 38.6942L12.9725 36.9904C14.1161 37.6212 15.3229 38.1214 16.5764 38.4838L17.7078 42.0243C17.8935 42.6053 18.4335 42.9996 19.0434 42.9996H23.9565C24.5665 42.9996 25.1065 42.6053 25.2921 42.0243L26.4235 38.4838C27.677 38.1214 28.8838 37.6212 30.0274 36.9904L33.3317 38.6942C33.874 38.9738 34.5345 38.8706 34.9657 38.4394L38.4396 34.9654C38.8709 34.5341 38.9739 33.8736 38.6944 33.3314L36.9906 30.0272C37.6214 28.8837 38.1216 27.6768 38.4841 26.4233L42.0245 25.2919C42.6055 25.1062 42.9998 24.5662 42.9998 23.9563V19.0433C42.9996 18.4334 42.6053 17.8934 42.0243 17.7077ZM21.4998 33.754C14.7429 33.754 9.24568 28.2567 9.24568 21.4998C9.24568 14.7429 14.7429 9.24568 21.4998 9.24568C28.2567 9.24568 33.754 14.7428 33.754 21.4998C33.754 28.2568 28.2567 33.754 21.4998 33.754Z" fill="#78FF04"/>
<path d="M24.7929 22.8024L22.9059 20.9154V15.8309C22.9059 15.0566 22.2782 14.4287 21.5038 14.4287C20.7294 14.4287 20.1016 15.0565 20.1016 15.8309V21.4962C20.1016 21.8682 20.2493 22.2247 20.5123 22.4877L22.8099 24.7853C23.3574 25.3328 24.2452 25.3329 24.7928 24.7853C25.3404 24.2378 25.3405 23.35 24.7929 22.8024Z" fill="#78FF04"/>
</svg>
