<svg width="26" height="31" viewBox="0 0 26 31" fill="none" xmlns="http://www.w3.org/2000/svg">
<path d="M9.82933 1.42871H15.4291M12.6292 18.228V12.6282M1.42969 16.8281C1.77248 14.1065 3.10214 11.6054 5.16648 9.79915C7.23082 7.99286 9.88627 7.00697 12.6292 7.02847C14.4408 7.0304 16.2249 7.47176 17.8284 8.31468C19.432 9.15761 20.8071 10.377 21.8358 11.8681C22.8646 13.3593 23.5163 15.0777 23.7349 16.876C23.9536 18.6744 23.7328 20.4989 23.0914 22.1932C22.45 23.8874 21.4072 25.4008 20.0524 26.6035C18.6976 27.8061 17.0713 28.6622 15.313 29.0983C13.5547 29.5343 11.7168 29.5373 9.95705 29.107C8.19731 28.6767 6.56822 27.8259 5.20953 26.6276L1.42969 23.2678M8.42939 22.4278H1.42969V29.4275" stroke="#78FE05" stroke-width="2.85723" stroke-linecap="round" stroke-linejoin="round"/>
</svg>
