<svg width="32" height="29" viewBox="0 0 32 29" fill="none" xmlns="http://www.w3.org/2000/svg">
<path d="M18.3313 12.8679C18.3313 13.6105 18.0363 14.3227 17.5112 14.8478C16.986 15.3729 16.2739 15.6679 15.5313 15.6679C14.7886 15.6679 14.0765 15.3729 13.5514 14.8478C13.0263 14.3227 12.7313 13.6105 12.7313 12.8679C12.7313 11.3826 13.3213 9.95826 14.3715 8.90806C15.4217 7.85786 16.846 7.26786 18.3313 7.26786C19.8165 7.26786 21.2408 7.85786 22.291 8.90806C23.3412 9.95826 23.9312 11.3826 23.9312 12.8679C23.9312 15.0957 23.0463 17.2322 21.4709 18.8075C19.8956 20.3828 17.7591 21.2678 15.5313 21.2678C13.3034 21.2678 11.1669 20.3828 9.59156 18.8075C8.01626 17.2322 7.13126 15.0957 7.13126 12.8679C7.13126 9.89743 8.31126 7.04867 10.4117 4.94827C12.5121 2.84786 15.3608 1.66787 18.3313 1.66787C21.3017 1.66787 24.1504 2.84786 26.2508 4.94827C28.3512 7.04867 29.5312 9.89743 29.5312 12.8679C29.5312 16.5809 28.0562 20.1418 25.4307 22.7673C22.8052 25.3928 19.2443 26.8678 15.5313 26.8678C11.8182 26.8678 8.25727 25.3928 5.63177 22.7673C3.00626 20.1418 1.53127 16.5809 1.53127 12.8679C1.52611 9.21889 2.71608 5.66864 4.91926 2.75987C5.13378 2.4435 5.4108 2.1744 5.73326 1.96915C6.05572 1.7639 6.41679 1.62685 6.79422 1.56644C7.17166 1.50603 7.55746 1.52354 7.92787 1.61789C8.29829 1.71223 8.64546 1.88142 8.948 2.11503C9.25055 2.34864 9.50206 2.64173 9.68704 2.97622C9.87202 3.31072 9.98655 3.67955 10.0236 4.05999C10.0606 4.44044 10.0194 4.82443 9.90235 5.18832C9.78534 5.55221 9.59507 5.88829 9.34326 6.17586" stroke="#78FE05" stroke-width="3.06316" stroke-linecap="round" stroke-linejoin="round"/>
</svg>
