<svg width="28" height="28" viewBox="0 0 28 28" fill="none" xmlns="http://www.w3.org/2000/svg">
<path d="M10.8646 10.1979L8.19792 13.5313L10.8646 16.8646M16.1979 25.5313H17.5313M16.1979 10.1979L18.8646 13.5313L16.1979 16.8646M4.19792 25.5313C3.49067 25.5313 2.8124 25.2503 2.3123 24.7502C1.8122 24.2501 1.53125 23.5718 1.53125 22.8646V4.19792C1.53125 3.49067 1.8122 2.8124 2.3123 2.3123C2.8124 1.8122 3.49067 1.53125 4.19792 1.53125H22.8646C23.5718 1.53125 24.2501 1.8122 24.7502 2.3123C25.2503 2.8124 25.5313 3.49067 25.5313 4.19792V22.8646C25.5313 23.5718 25.2503 24.2501 24.7502 24.7502C24.2501 25.2503 23.5718 25.5313 22.8646 25.5313M9.53125 25.5313H10.8646" stroke="#78FE05" stroke-width="3.06316" stroke-linecap="round" stroke-linejoin="round"/>
</svg>
