<svg width="32" height="30" viewBox="0 0 32 30" fill="none" xmlns="http://www.w3.org/2000/svg">
<path d="M1.53125 26.7312C1.53141 24.9686 1.9476 23.2309 2.74597 21.6594C3.54434 20.0879 4.70234 18.7271 6.1258 17.6875C7.54927 16.6479 9.19799 15.959 10.9379 15.6768C12.6778 15.3946 14.4598 15.527 16.1388 16.0632M29.5312 28.1312L26.8713 25.4713M19.7312 8.53125C19.7312 12.3972 16.5972 15.5312 12.7312 15.5312C8.86526 15.5312 5.73125 12.3972 5.73125 8.53125C5.73125 4.66526 8.86526 1.53125 12.7312 1.53125C16.5972 1.53125 19.7312 4.66526 19.7312 8.53125ZM28.1312 22.5312C28.1312 24.8508 26.2508 26.7312 23.9312 26.7312C21.6117 26.7312 19.7312 24.8508 19.7312 22.5312C19.7312 20.2117 21.6117 18.3312 23.9312 18.3312C26.2508 18.3312 28.1312 20.2117 28.1312 22.5312Z" stroke="#78FE05" stroke-width="3.06316" stroke-linecap="round" stroke-linejoin="round"/>
</svg>
