<svg width="25" height="31" viewBox="0 0 25 31" fill="none" xmlns="http://www.w3.org/2000/svg">
<path d="M15.1748 1.42872H4.17871C3.44962 1.42872 2.7504 1.71834 2.23486 2.23389C1.71932 2.74943 1.42969 3.44865 1.42969 4.17774V26.1699C1.42969 26.899 1.71932 27.5982 2.23486 28.1138C2.7504 28.6293 3.44962 28.9189 4.17871 28.9189H20.6728C21.4019 28.9189 22.1012 28.6293 22.6167 28.1138C23.1322 27.5982 23.4219 26.899 23.4219 26.1699V9.67578M15.1748 1.42872C15.6099 1.42801 16.0409 1.51339 16.4428 1.67993C16.8448 1.84648 17.2099 2.0909 17.517 2.39912L22.4487 7.33087C22.7578 7.63808 23.0029 8.00348 23.1699 8.40596C23.3369 8.80844 23.4226 9.24002 23.4219 9.67578M15.1748 1.42872V8.30127C15.1748 8.66581 15.3196 9.01543 15.5774 9.2732C15.8352 9.53097 16.1848 9.67578 16.5493 9.67578L23.4219 9.67578M6.92773 15.1738H17.9238M9.67675 13.7993V16.5483M6.92773 22.0464H17.9238M15.1748 20.6719V23.4209" stroke="#78FE05" stroke-width="2.85723" stroke-linecap="round" stroke-linejoin="round"/>
</svg>
