<svg width="39" height="39" viewBox="0 0 39 39" fill="none" xmlns="http://www.w3.org/2000/svg">
<path d="M38.9918 3.45626L35.5265 6.92151L32.0703 3.45626L35.5356 0L38.9918 3.45626Z" fill="#78FF04"/>
<path fill-rule="evenodd" clip-rule="evenodd" d="M28.6074 13.8404L32.0676 10.3802L35.5189 13.8405L38.9835 10.3757L35.5277 6.91992L32.0676 10.3712L28.6162 6.91992L25.1516 10.3846L21.9925 7.2255L18.9207 10.2973C17.5729 9.88877 16.1429 9.66911 14.6617 9.66911C6.56426 9.66911 0 16.2334 0 24.3308C0 32.4282 6.56426 38.9925 14.6617 38.9925C22.7591 38.9925 29.3234 32.4282 29.3234 24.3308C29.3234 22.8496 29.1037 21.4196 28.6951 20.0718L31.767 17L28.6074 13.8404ZM14.6617 19.4436C11.9625 19.4436 9.77446 21.6317 9.77446 24.3308H4.88723C4.88723 18.9325 9.2634 14.5563 14.6617 14.5563V19.4436Z" fill="#78FF04"/>
<path d="M28.6215 0L32.0775 3.45626L28.6125 6.92151L25.1562 3.45626L28.6215 0Z" fill="#78FF04"/>
</svg>
