<svg width="120" height="20" viewBox="0 0 120 20" fill="none" xmlns="http://www.w3.org/2000/svg">
<path d="M16.3624 4.12722H19.6703C19.6842 4.12722 19.6975 4.13274 19.7074 4.14256C19.7172 4.15239 19.7227 4.16571 19.7227 4.1796V19.8685C19.7227 19.8824 19.7172 19.8957 19.7074 19.9055C19.6975 19.9153 19.6842 19.9209 19.6703 19.9209H18.8925C18.8855 19.9209 18.8785 19.9196 18.8719 19.9169C18.8653 19.9141 18.8594 19.9101 18.8545 19.905L6.92114 7.97327C6.91608 7.96833 6.91201 7.9624 6.90928 7.9558C6.90654 7.94927 6.90521 7.94227 6.90528 7.93513V4.10023C6.90528 4.08634 6.91081 4.07302 6.92061 4.06319C6.93041 4.05337 6.94374 4.04785 6.95768 4.04785H7.77668C7.78381 4.04778 7.79081 4.04915 7.79734 4.05188C7.80394 4.05461 7.80988 4.05864 7.81481 4.06373L16.2211 12.4717C16.2285 12.4789 16.2379 12.4837 16.2481 12.4856C16.2583 12.4875 16.2688 12.4863 16.2783 12.4823C16.2878 12.4782 16.2959 12.4714 16.3015 12.4627C16.3072 12.4541 16.3101 12.4439 16.31 12.4336V4.1796C16.31 4.16571 16.3155 4.15239 16.3253 4.14256C16.3352 4.13274 16.3485 4.12722 16.3624 4.12722Z" fill="#3455C8"/>
<path d="M59.1398 4.0874L59.8477 4.089C59.8568 4.08924 59.8657 4.09185 59.8735 4.09658C59.8813 4.10132 59.8878 4.108 59.8922 4.11598L68.5953 19.8429C68.6 19.8509 68.602 19.8599 68.602 19.8691C68.602 19.8782 68.5993 19.8872 68.5946 19.8951C68.59 19.9029 68.5833 19.9094 68.5753 19.9139C68.5673 19.9184 68.5586 19.9208 68.5493 19.9207H64.4192C64.41 19.9205 64.4011 19.9179 64.3934 19.9131C64.3856 19.9084 64.3791 19.9017 64.3747 19.8937L57.3826 7.27474C57.3783 7.26694 57.376 7.2582 57.376 7.24934C57.376 7.2404 57.3783 7.23167 57.3826 7.22394L59.0938 4.11439C59.0983 4.10618 59.105 4.09934 59.1131 4.0946C59.1212 4.08985 59.1304 4.08737 59.1398 4.0874Z" fill="#3455C8"/>
<path d="M4.56003 4.12708H1.23304C1.20937 4.12708 1.19019 4.14627 1.19019 4.16994V19.8779C1.19019 19.9016 1.20937 19.9207 1.23304 19.9207H4.56003C4.58369 19.9207 4.60288 19.9016 4.60288 19.8779V4.16994C4.60288 4.14627 4.58369 4.12708 4.56003 4.12708Z" fill="#3455C8"/>
<path d="M89.9715 9.08896L93.5842 4.15089C93.5895 4.14357 93.5968 4.1376 93.6048 4.13346C93.6128 4.12933 93.6215 4.12714 93.6302 4.12708H97.6955C97.7062 4.12715 97.7162 4.1301 97.7255 4.13561C97.7342 4.14112 97.7415 4.14897 97.7462 4.15831C97.7508 4.16765 97.7528 4.17812 97.7522 4.18856C97.7515 4.19902 97.7475 4.20904 97.7415 4.21756L91.6382 12.5636C91.6315 12.5732 91.6275 12.5849 91.6275 12.5969V19.8636C91.6275 19.8788 91.6215 19.8933 91.6108 19.904C91.5995 19.9147 91.5855 19.9207 91.5702 19.9207H88.3115C88.2962 19.9207 88.2815 19.9147 88.2708 19.904C88.2602 19.8933 88.2542 19.8788 88.2542 19.8636V12.6366C88.2542 12.6246 88.2502 12.613 88.2428 12.6033L82.1115 4.21756C82.1055 4.20904 82.1015 4.19902 82.1008 4.18856C82.1002 4.17812 82.1022 4.16765 82.1068 4.15831C82.1115 4.14897 82.1188 4.14112 82.1275 4.13561C82.1368 4.1301 82.1468 4.12715 82.1575 4.12708H86.2228C86.2315 4.12714 86.2402 4.12933 86.2482 4.13346C86.2562 4.1376 86.2635 4.14357 86.2688 4.15089L89.8795 9.08896C89.8848 9.09623 89.8922 9.1021 89.9002 9.1061C89.9082 9.11016 89.9168 9.1123 89.9255 9.1123C89.9348 9.1123 89.9435 9.11016 89.9515 9.1061C89.9595 9.1021 89.9662 9.09623 89.9715 9.08896Z" fill="#3455C8"/>
<path d="M42.2773 14.2619L36.7425 4.26028C36.7373 4.25063 36.7346 4.23979 36.7349 4.22883C36.7351 4.21787 36.7381 4.20715 36.7437 4.19773C36.7493 4.18829 36.7573 4.18047 36.7667 4.17503C36.7763 4.16957 36.7871 4.16668 36.798 4.16663H40.9027C40.9141 4.16669 40.9253 4.16981 40.9351 4.17567C40.9449 4.18154 40.9529 4.18993 40.9583 4.19996L44.4488 10.5095C44.4538 10.5188 44.4564 10.5291 44.4564 10.5396C44.4564 10.5502 44.4538 10.5606 44.4488 10.5698L42.3885 14.2619C42.383 14.2718 42.3749 14.2801 42.3651 14.2858C42.3554 14.2916 42.3443 14.2946 42.333 14.2946C42.3216 14.2946 42.3105 14.2916 42.3007 14.2858C42.2909 14.2801 42.2829 14.2718 42.2773 14.2619Z" fill="#3455C8"/>
<path d="M50.6286 4.16663H54.7492C54.7583 4.16659 54.7673 4.16894 54.7753 4.17345C54.7832 4.17796 54.7899 4.18447 54.7945 4.19233C54.7991 4.20019 54.8017 4.20913 54.8018 4.21827C54.8019 4.22741 54.7997 4.23641 54.7953 4.24441L46.2809 19.8936C46.2764 19.9018 46.2697 19.9086 46.2617 19.9134C46.2535 19.9182 46.2443 19.9206 46.2349 19.9206H45.3571C45.3476 19.9205 45.3383 19.9178 45.3301 19.9127C45.3221 19.9077 45.3155 19.9006 45.3111 19.892L43.6492 16.738C43.6451 16.7302 43.6431 16.7214 43.6434 16.7124C43.6437 16.7036 43.6463 16.6949 43.6508 16.6873L50.5841 4.19361C50.5885 4.18563 50.595 4.17895 50.6028 4.17421C50.6106 4.16948 50.6195 4.16687 50.6286 4.16663Z" fill="#3455C8"/>
<path d="M79.6406 4.16833H65.5961C65.5514 4.16833 65.5151 4.20458 65.5151 4.24929V7.45884C65.5151 7.50351 65.5514 7.53977 65.5961 7.53977H79.6406C79.6853 7.53977 79.7213 7.50351 79.7213 7.45884V4.24929C79.7213 4.20458 79.6853 4.16833 79.6406 4.16833Z" fill="#3455C8"/>
<path d="M105.717 14.2841L100.16 4.24123C100.156 4.23352 100.154 4.22489 100.154 4.21617C100.154 4.20744 100.157 4.19892 100.161 4.19142C100.165 4.18393 100.172 4.17771 100.179 4.17336C100.187 4.16902 100.195 4.1667 100.204 4.16663H104.339C104.349 4.1667 104.357 4.16925 104.365 4.174C104.373 4.17875 104.379 4.18553 104.383 4.19361L107.882 10.5142C107.887 10.522 107.889 10.5307 107.889 10.5396C107.889 10.5486 107.887 10.5573 107.882 10.565L105.806 14.2841C105.801 14.292 105.795 14.2986 105.787 14.3032C105.779 14.3078 105.771 14.3103 105.761 14.3103C105.752 14.3103 105.743 14.3078 105.735 14.3032C105.728 14.2986 105.721 14.292 105.717 14.2841Z" fill="#3455C8"/>
<path d="M114.065 4.16663H118.157C118.169 4.16657 118.18 4.16949 118.189 4.17511C118.199 4.18073 118.208 4.18883 118.213 4.19863C118.219 4.20843 118.223 4.21957 118.223 4.23094C118.223 4.24231 118.22 4.25353 118.214 4.26345L109.714 19.8873C109.709 19.8974 109.7 19.9059 109.69 19.9118C109.68 19.9176 109.669 19.9206 109.657 19.9206H108.793C108.781 19.9208 108.77 19.9176 108.759 19.9115C108.749 19.9053 108.741 19.8964 108.735 19.8857L107.079 16.7492C107.075 16.7396 107.072 16.7288 107.072 16.718C107.073 16.7072 107.075 16.6966 107.081 16.6873L114.008 4.19996C114.013 4.18981 114.022 4.18135 114.032 4.17549C114.042 4.16963 114.053 4.16657 114.065 4.16663Z" fill="#3455C8"/>
<path d="M37.4872 12.0667C37.4872 13.0981 37.284 14.1194 36.8893 15.0723C36.4946 16.0252 35.9161 16.891 35.1868 17.6203C34.4575 18.3496 33.5917 18.9282 32.6388 19.3228C31.6859 19.7176 30.6646 19.9207 29.6332 19.9207C27.5502 19.9207 25.5525 19.0932 24.0796 17.6203C22.6067 16.1474 21.7792 14.1497 21.7792 12.0667C21.7792 9.98371 22.6067 7.98604 24.0796 6.51314C25.5525 5.04024 27.5502 4.21277 29.6332 4.21277C31.7162 4.21277 33.7139 5.04024 35.1868 6.51314C36.6597 7.98604 37.4872 9.98371 37.4872 12.0667ZM34.1666 12.0667C34.1666 10.8644 33.6889 9.71138 32.8388 8.86118C31.9886 8.01104 30.8355 7.53338 29.6332 7.53338C28.4309 7.53338 27.2778 8.01104 26.4276 8.86118C25.5775 9.71138 25.0999 10.8644 25.0999 12.0667C25.0999 13.269 25.5775 14.4221 26.4276 15.2723C27.2778 16.1224 28.4309 16.6 29.6332 16.6C30.8355 16.6 31.9886 16.1224 32.8388 15.2723C33.6889 14.4221 34.1666 13.269 34.1666 12.0667Z" fill="#3455C8"/>
<path d="M56.1127 9.68241L58.1825 13.403C58.187 13.411 58.1893 13.4201 58.1893 13.4292C58.1893 13.4384 58.187 13.4474 58.1825 13.4554L54.6222 19.8919C54.6176 19.9005 54.6108 19.9077 54.6024 19.9128C54.594 19.9178 54.5844 19.9205 54.5746 19.9205H50.4445C50.4351 19.9205 50.426 19.9181 50.4179 19.9135C50.4097 19.9089 50.403 19.9023 50.3982 19.8943C50.3934 19.8863 50.3907 19.8772 50.3905 19.8679C50.3903 19.8585 50.3925 19.8493 50.3969 19.8411L56.0175 9.68241C56.0221 9.67374 56.0289 9.66654 56.0373 9.66148C56.0457 9.65648 56.0553 9.65381 56.0651 9.65381C56.0749 9.65381 56.0845 9.65648 56.0929 9.66148C56.1013 9.66654 56.1081 9.67374 56.1127 9.68241Z" fill="#3455C8"/>
<path d="M74.1272 9.84155H70.9145C70.8705 9.84155 70.8352 9.87709 70.8352 9.92089V19.8416C70.8352 19.8854 70.8705 19.9209 70.9145 19.9209H74.1272C74.1712 19.9209 74.2065 19.8854 74.2065 19.8416V9.92089C74.2065 9.87709 74.1712 9.84155 74.1272 9.84155Z" fill="#3455C8"/>
<path d="M10.3179 14.6064V19.8684C10.3179 19.8822 10.3125 19.8956 10.3026 19.9054C10.2928 19.9152 10.2795 19.9208 10.2656 19.9208H6.95768C6.94374 19.9208 6.93041 19.9152 6.92061 19.9054C6.91081 19.8956 6.90528 19.8822 6.90528 19.8684V11.2969C6.90514 11.2866 6.90814 11.2764 6.91374 11.2678C6.91941 11.2591 6.92748 11.2523 6.93701 11.2482C6.94654 11.2442 6.95701 11.243 6.96721 11.2449C6.97734 11.2468 6.98674 11.2516 6.99414 11.2588L10.3021 14.5684C10.3072 14.5733 10.3112 14.5792 10.3139 14.5858C10.3167 14.5923 10.318 14.5994 10.3179 14.6064Z" fill="#3455C8"/>
</svg>
