<svg width="53" height="53" viewBox="0 0 53 53" fill="none" xmlns="http://www.w3.org/2000/svg">
<path d="M6.77907 49.3003H1.84884C0.827761 49.3003 0 50.1281 0 51.1491C0 52.1702 0.827761 52.998 1.84884 52.998H51.1512C52.1722 52.998 53 52.1702 53 51.1491C53 50.1281 52.1722 49.3003 51.1512 49.3003H46.2209H6.77907Z" fill="#65DA01"/>
<path d="M26.501 16.6357C33.4038 16.6357 36.8555 16.6351 39.4922 17.9785C41.8113 19.1602 43.6964 21.0463 44.8779 23.3652C46.2214 26.0019 46.2217 29.4534 46.2217 36.3564V49.2979H28.3496V43.2637C29.4548 42.6244 30.1982 41.429 30.1982 40.0605C30.198 38.0186 28.542 36.3633 26.5 36.3633C24.4582 36.3635 22.803 38.0188 22.8027 40.0605C22.8027 41.4291 23.5461 42.6244 24.6514 43.2637V49.2979H6.7793V36.3564C6.7793 29.4534 6.77963 26.0019 8.12305 23.3652C9.30473 21.0462 11.1906 19.1602 13.5098 17.9785C16.1463 16.6353 19.5983 16.6357 26.501 16.6357ZM33.8955 21.7295C32.8746 21.7296 32.047 22.5572 32.0469 23.5781C32.0469 24.5994 32.8746 25.4266 33.8955 25.4268C35.9711 25.4268 37.5038 27.0011 37.4346 28.8975C37.3973 29.9178 38.1945 30.7753 39.2148 30.8125C40.2353 30.8496 41.0927 30.0525 41.1299 29.0322C41.2819 24.8645 37.884 21.7295 33.8955 21.7295Z" fill="#65DA01"/>
<path d="M26.5007 0C27.5217 0 28.3495 0.827761 28.3495 1.84884V9.24419C28.3495 10.2653 27.5217 11.093 26.5007 11.093C25.4796 11.093 24.6519 10.2653 24.6519 9.24419V1.84884C24.6519 0.827761 25.4796 0 26.5007 0Z" fill="#65DA01"/>
<path d="M49.9934 10.5531L46.2957 14.2508C45.5736 14.9728 44.4032 14.9728 43.6812 14.2508C42.9591 13.5288 42.9591 12.3582 43.6812 11.6362L47.3788 7.93848C48.1009 7.21647 49.2713 7.21647 49.9934 7.93848C50.7154 8.66049 50.7154 9.83112 49.9934 10.5531Z" fill="#65DA01"/>
<path d="M5.62198 7.93848C4.89997 7.21647 3.72933 7.21647 3.00733 7.93848C2.28532 8.66049 2.28532 9.83112 3.00733 10.5531L6.705 14.2508C7.42701 14.9728 8.59764 14.9728 9.31965 14.2508C10.0417 13.5288 10.0417 12.3582 9.31965 11.6362L5.62198 7.93848Z" fill="#65DA01"/>
</svg>
