<svg width="24" height="24" viewBox="0 0 24 24" fill="none" xmlns="http://www.w3.org/2000/svg">
<path d="M15.8611 1.72925H7.47696C3.83514 1.72925 1.66406 3.89925 1.66406 7.53925V15.9092C1.66406 19.5592 3.83514 21.7292 7.47696 21.7292H15.8511C19.4929 21.7292 21.664 19.5592 21.664 15.9192V7.53925C21.674 3.89925 19.503 1.72925 15.8611 1.72925ZM11.669 15.6092C9.52798 15.6092 7.78711 13.8692 7.78711 11.7292C7.78711 9.58925 9.52798 7.84925 11.669 7.84925C13.8101 7.84925 15.551 9.58925 15.551 11.7292C15.551 13.8692 13.8101 15.6092 11.669 15.6092ZM17.592 6.60925C17.542 6.72925 17.4719 6.83925 17.3819 6.93925C17.2818 7.02925 17.1718 7.09925 17.0517 7.14925C16.9317 7.19925 16.8016 7.22925 16.6715 7.22925C16.4014 7.22925 16.1513 7.12925 15.9612 6.93925C15.8711 6.83925 15.8011 6.72925 15.7511 6.60925C15.7011 6.48925 15.671 6.35925 15.671 6.22925C15.671 6.09925 15.7011 5.96925 15.7511 5.84925C15.8011 5.71925 15.8711 5.61925 15.9612 5.51925C16.1913 5.28925 16.5415 5.17925 16.8616 5.24925C16.9317 5.25925 16.9917 5.27925 17.0517 5.30925C17.1118 5.32925 17.1718 5.35925 17.2318 5.39925C17.2818 5.42925 17.3319 5.47925 17.3819 5.51925C17.4719 5.61925 17.542 5.71925 17.592 5.84925C17.642 5.96925 17.672 6.09925 17.672 6.22925C17.672 6.35925 17.642 6.48925 17.592 6.60925Z" fill="#979797"/>
</svg>
