<svg width="45" height="51" viewBox="0 0 45 51" fill="none" xmlns="http://www.w3.org/2000/svg">
<path fill-rule="evenodd" clip-rule="evenodd" d="M22.5 0C24.5285 1.92957e-07 26.4875 0.684029 30.4058 2.05205L31.8377 2.55199C39.3542 5.17637 43.1125 6.48858 44.0563 7.86015C45 9.23173 45 13.3087 45 21.4626V25.4781C45 39.8549 34.4025 46.832 27.7535 49.7946C25.95 50.5981 25.0483 51 22.5 51C19.9518 51 19.05 50.5981 17.2464 49.7946C10.5974 46.832 8.60428e-06 39.855 0 25.4781V21.4626C0 13.3086 2.21729e-06 9.23172 0.943799 7.86015C1.88757 6.48858 5.64581 5.17637 13.1623 2.55199L14.5943 2.05205C18.5125 0.68403 20.4715 0 22.5 0ZM22.4999 12.7504C21.5532 12.7504 20.9197 13.9093 19.6532 16.227L19.3255 16.8266C18.9655 17.4852 18.7854 17.8144 18.5049 18.0317C18.2242 18.249 17.8747 18.3297 17.1758 18.491L16.5395 18.6378C14.0798 19.2055 12.85 19.4894 12.5574 20.4491C12.2648 21.4089 13.1032 22.4088 14.7801 24.409L15.2139 24.9264C15.6904 25.4948 15.9286 25.7788 16.0358 26.1305C16.143 26.4821 16.107 26.8611 16.0349 27.6194L15.9694 28.31C15.7158 30.9783 15.5891 32.3127 16.3551 32.9058C17.1212 33.4989 18.2727 32.9581 20.5757 31.8767L21.1715 31.5967C21.8259 31.2894 22.1532 31.1356 22.4999 31.1356C22.8467 31.1356 23.174 31.2894 23.8285 31.5967L24.4242 31.8767C26.7272 32.9581 27.8787 33.4989 28.6447 32.9058C29.4109 32.3127 29.2839 30.9783 29.0304 28.31L28.9649 27.6194C28.8929 26.8611 28.857 26.4819 28.9642 26.1305C29.0712 25.7788 29.3094 25.4948 29.7859 24.9264L30.2199 24.409C31.8967 22.4088 32.7352 21.4089 32.4425 20.4491C32.15 19.4894 30.9202 19.2055 28.4605 18.6378L27.824 18.491C27.1252 18.3297 26.7757 18.249 26.4949 18.0317C26.2144 17.8145 26.0345 17.4851 25.6745 16.8266L25.3467 16.227C24.0802 13.9093 23.4467 12.7504 22.4999 12.7504Z" fill="#65DA01"/>
</svg>
