<svg width="49" height="49" viewBox="0 0 49 49" fill="none" xmlns="http://www.w3.org/2000/svg">
<path d="M24.502 0C36.0522 0 41.8279 0.000606194 45.416 3.58887C49.0041 7.17712 49.0039 12.9528 49.0039 24.5029C49.0039 36.0527 49.004 41.828 45.416 45.416C41.8279 49.0043 36.0522 49.0049 24.502 49.0049C12.9516 49.0049 7.17612 49.0043 3.58789 45.416C-7.43289e-05 41.828 5.21411e-10 36.0527 0 24.5029C0 12.9527 -0.000148633 7.17712 3.58789 3.58887C7.17612 0.000608615 12.9516 0 24.502 0ZM11.6377 36.1455C10.6228 36.1455 9.7998 36.9685 9.7998 37.9834C9.79993 38.9982 10.6229 39.8213 11.6377 39.8213H26.3389C27.3536 39.8213 28.1766 38.9981 28.1768 37.9834C28.1768 36.9685 27.3537 36.1455 26.3389 36.1455H11.6377ZM11.6377 27.5693C10.6228 27.5693 9.7998 28.3923 9.7998 29.4072C9.79991 30.422 10.6229 31.2451 11.6377 31.2451H33.6895C34.7043 31.2451 35.5272 30.422 35.5273 29.4072C35.5273 28.3924 34.7043 27.5693 33.6895 27.5693H11.6377ZM17.1504 7.82129C13.0907 7.82136 9.7998 11.1123 9.7998 15.1719C9.80001 19.2313 13.0908 22.5224 17.1504 22.5225C21.21 22.5225 24.5008 19.2313 24.501 15.1719C24.501 11.1122 21.2101 7.82129 17.1504 7.82129Z" fill="#65DA01"/>
</svg>
