<svg width="45" height="55" viewBox="0 0 45 55" fill="none" xmlns="http://www.w3.org/2000/svg">
<path fill-rule="evenodd" clip-rule="evenodd" d="M0 7.44531V46.0997C0 50.6745 3.70849 54.3828 8.28311 54.3828H35.8935C40.4682 54.3828 44.1766 50.6745 44.1766 46.0997V18.4895C44.1766 13.9148 40.4682 10.2063 35.8935 10.2063H2.76104C1.23617 10.2063 0 8.97018 0 7.44531ZM8.97337 26.7725C8.97337 25.6288 9.9005 24.7017 11.0441 24.7017H33.1324C34.2761 24.7017 35.2032 25.6288 35.2032 26.7725C35.2032 27.9161 34.2761 28.8432 33.1324 28.8432H11.0441C9.9005 28.8432 8.97337 27.9161 8.97337 26.7725ZM8.97337 36.4361C8.97337 35.2925 9.9005 34.3653 11.0441 34.3653H26.2298C27.3735 34.3653 28.3006 35.2925 28.3006 36.4361C28.3006 37.5797 27.3735 38.5069 26.2298 38.5069H11.0441C9.9005 38.5069 8.97337 37.5797 8.97337 36.4361Z" fill="#65DA01"/>
<path d="M38.6545 5.52312V10.6715C37.7909 10.3663 36.8615 10.2002 35.8935 10.2002H2.76104C1.23617 10.2002 0 8.96403 0 7.43917V7.24299C0 5.77131 1.08213 4.52359 2.53902 4.31547L32.3516 0.0565406C35.6781 -0.418717 38.6545 2.16266 38.6545 5.52312Z" fill="#449201"/>
</svg>
