<svg width="190" height="40" viewBox="0 0 190 40" fill="none" xmlns="http://www.w3.org/2000/svg">
<path d="M101.572 14.2211L99.379 10.9242L97.4469 14.2211H94.472L97.9223 8.74671L94.3953 3.4563H97.4469L99.6091 6.70722L101.511 3.4563H104.485L101.066 8.88472L104.623 14.2211H101.572Z" fill="#8A94A6"/>
<path d="M93.5955 9.8045C93.5955 10.0499 93.5801 10.3054 93.5495 10.5712H87.615C87.6559 11.1028 87.8246 11.5117 88.1211 11.798C88.4277 12.074 88.8009 12.212 89.2405 12.212C89.8947 12.212 90.3497 11.936 90.6052 11.384H93.3961C93.253 11.9462 92.9923 12.4523 92.6141 12.9021C92.246 13.3519 91.7809 13.7046 91.2186 13.9602C90.6564 14.2157 90.0276 14.3435 89.3325 14.3435C88.4942 14.3435 87.7479 14.1646 87.0936 13.8068C86.4394 13.449 85.9282 12.9379 85.5602 12.2734C85.1922 11.6089 85.0081 10.8319 85.0081 9.94251C85.0081 9.05311 85.1871 8.27616 85.5449 7.61166C85.9129 6.94717 86.424 6.43602 87.0783 6.07821C87.7326 5.72041 88.484 5.5415 89.3325 5.5415C90.1605 5.5415 90.8966 5.7153 91.5407 6.06288C92.1847 6.41046 92.6856 6.90628 93.0434 7.55033C93.4115 8.19438 93.5955 8.94577 93.5955 9.8045ZM90.9119 9.11445C90.9119 8.66463 90.7586 8.30683 90.4519 8.04103C90.1452 7.77523 89.7618 7.64233 89.3018 7.64233C88.8622 7.64233 88.4891 7.77012 88.1824 8.0257C87.8859 8.28127 87.7019 8.64419 87.6304 9.11445H90.9119Z" fill="#8A94A6"/>
<path d="M84.2133 3.4563V5.55713H81.3611V14.2211H78.7389V5.55713H75.8867V3.4563H84.2133Z" fill="#8A94A6"/>
<path d="M70.6022 14.3435C69.7639 14.3435 69.0074 14.1646 68.3327 13.8068C67.6682 13.449 67.1417 12.9379 66.7532 12.2734C66.375 11.6089 66.1859 10.8319 66.1859 9.94251C66.1859 9.06333 66.3801 8.29149 66.7686 7.627C67.157 6.95228 67.6886 6.43602 68.3634 6.07821C69.0381 5.72041 69.7946 5.5415 70.6329 5.5415C71.4711 5.5415 72.2277 5.72041 72.9024 6.07821C73.5771 6.43602 74.1087 6.95228 74.4972 7.627C74.8856 8.29149 75.0799 9.06333 75.0799 9.94251C75.0799 10.8217 74.8805 11.5986 74.4818 12.2734C74.0934 12.9379 73.5566 13.449 72.8717 13.8068C72.197 14.1646 71.4405 14.3435 70.6022 14.3435ZM70.6022 12.074C71.1031 12.074 71.5274 11.89 71.875 11.522C72.2328 11.1539 72.4117 10.6275 72.4117 9.94251C72.4117 9.25757 72.2379 8.73108 71.8903 8.36305C71.5529 7.99503 71.1338 7.81101 70.6329 7.81101C70.1217 7.81101 69.6975 7.99503 69.3601 8.36305C69.0227 8.72086 68.8541 9.24735 68.8541 9.94251C68.8541 10.6275 69.0176 11.1539 69.3448 11.522C69.6821 11.89 70.1013 12.074 70.6022 12.074Z" fill="#8A94A6"/>
<path d="M64.8052 3.4563V14.2211H62.183V3.4563H64.8052Z" fill="#8A94A6"/>
<path fill-rule="evenodd" clip-rule="evenodd" d="M6.18883 0H18.7378V12.3726H31.1088V0H43.6579V12.3726H49.8418V24.9216H37.2928V12.549H31.1088V12.5466L18.7338 24.9216V12.549H12.5491V24.9216H0.00012207V12.3726H6.18883V0ZM18.7378 24.9224H6.18883V37.4714H18.7378V24.9224ZM31.1088 24.9224H43.6579V37.4714H31.1088V24.9224Z" fill="#8A94A6"/>
<path d="M185.076 35.4637C182.69 35.4637 181.085 34.9418 179.524 33.811L180.717 31.6581C181.801 32.3757 183.601 32.9194 184.924 32.9194C186.116 32.9194 186.854 32.6584 186.854 31.8321C186.854 29.4834 179.654 31.4406 179.654 26.5042C179.654 23.9164 181.888 22.6116 184.577 22.6116C186.442 22.6116 188.025 23.0465 189.326 23.9164L188.285 26.1345C187.179 25.5038 185.813 25.1342 184.642 25.1342C183.883 25.1342 182.842 25.3299 182.842 26.2432C182.842 28.4179 189.998 26.4172 189.998 31.5276C189.998 34.0502 188.025 35.4637 185.076 35.4637Z" fill="#8A94A6"/>
<path d="M173.768 25.2858C174.506 24.068 175.807 22.6763 178.3 22.6763V26.1774H177.91C175.807 26.1774 173.768 27.1125 173.768 30.3963V35.137H170.472V22.8067H173.768V25.2858Z" fill="#8A94A6"/>
<path d="M162.424 35.377C158.109 35.377 155.55 32.8544 155.55 28.9836C155.55 24.656 158.889 22.5684 161.86 22.5684C165.525 22.5684 168.149 24.917 168.149 29.2445C168.149 29.6359 168.127 30.0056 168.084 30.3318H158.911C159.215 31.5061 160.342 32.6587 162.619 32.6587C164.484 32.6587 165.677 31.5496 165.677 31.5496L167.433 33.2241C167.433 33.2241 165.785 35.377 162.424 35.377ZM161.86 25.4171C159.974 25.4171 158.933 26.7872 158.889 28.1354H164.744C164.723 26.7872 163.768 25.4171 161.86 25.4171Z" fill="#8A94A6"/>
<path d="M148.536 22.5684C151.68 22.5684 153.935 25.1344 153.935 28.9836C153.935 32.8327 151.68 35.377 148.536 35.377C146.584 35.377 145.326 34.6811 144.524 33.6373V39.6828H141.315V22.8076H144.524V24.3081C145.326 23.2642 146.584 22.5684 148.536 22.5684ZM147.516 32.376C149.468 32.376 150.661 30.919 150.661 28.9618C150.661 27.0481 149.468 25.5694 147.516 25.5694C145.543 25.5694 144.459 27.0481 144.459 28.9618C144.459 30.919 145.543 32.376 147.516 32.376Z" fill="#8A94A6"/>
<path d="M132.434 35.377C128.595 35.377 125.863 32.4847 125.863 28.9618C125.863 25.4389 128.595 22.5684 132.434 22.5684C136.272 22.5684 139.004 25.4389 139.004 28.9618C139.004 32.4847 136.272 35.377 132.434 35.377ZM132.434 25.5259C130.417 25.5259 129.181 27.0046 129.181 28.9618C129.181 30.8972 130.417 32.4195 132.434 32.4195C134.472 32.4195 135.686 30.8972 135.686 28.9618C135.686 27.0046 134.472 25.5259 132.434 25.5259Z" fill="#8A94A6"/>
<path d="M120.244 35.1367V18.2615H123.54V35.1367H120.244Z" fill="#8A94A6"/>
<path d="M112.194 35.377C107.878 35.377 105.32 32.8544 105.32 28.9836C105.32 24.656 108.659 22.5684 111.63 22.5684C115.295 22.5684 117.919 24.917 117.919 29.2445C117.919 29.6359 117.897 30.0056 117.853 30.3318H108.681C108.984 31.5061 110.112 32.6587 112.389 32.6587C114.254 32.6587 115.446 31.5496 115.446 31.5496L117.203 33.2241C117.203 33.2241 115.555 35.377 112.194 35.377ZM111.63 25.4171C109.743 25.4171 108.702 26.7872 108.659 28.1354H114.514C114.492 26.7872 113.538 25.4171 111.63 25.4171Z" fill="#8A94A6"/>
<path d="M91.1154 22.8079H94.7368L97.9896 31.0933L101.221 22.8079H104.864L99.6593 35.1381H96.2765L91.1154 22.8079Z" fill="#8A94A6"/>
<path d="M84.9394 35.377C80.6241 35.377 78.0653 32.8544 78.0653 28.9836C78.0653 24.656 81.4048 22.5684 84.3756 22.5684C88.0404 22.5684 90.6643 24.917 90.6643 29.2445C90.6643 29.6359 90.6426 30.0056 90.5992 30.3318H81.4265C81.7301 31.5061 82.8577 32.6587 85.1346 32.6587C86.9995 32.6587 88.1922 31.5496 88.1922 31.5496L89.9487 33.2241C89.9487 33.2241 88.3006 35.377 84.9394 35.377ZM84.3756 25.4171C82.489 25.4171 81.4482 26.7872 81.4048 28.1354H87.2597C87.238 26.7872 86.2839 25.4171 84.3756 25.4171Z" fill="#8A94A6"/>
<path d="M62.183 35.1374V19.219H67.7126C72.9387 19.219 76.3432 22.3287 76.3432 27.1564C76.3432 31.9407 73.0037 35.1374 67.7126 35.1374H62.183ZM65.6092 32.1581H67.7343C70.9437 32.1581 72.8736 30.5054 72.8736 27.1999C72.8736 23.851 70.9437 22.1983 67.7343 22.1983H65.6092V32.1581Z" fill="#8A94A6"/>
</svg>
