<svg width="47" height="47" viewBox="0 0 47 47" fill="none" xmlns="http://www.w3.org/2000/svg">
<circle cx="23.5" cy="23.5" r="23.5" fill="black"/>
<path d="M39.7269 33.8781C39.2034 34.1967 38.6004 34.5039 37.9176 34.7997C37.2349 35.0956 36.4839 35.3232 35.6646 35.4825C34.8454 35.6645 33.9578 35.7556 33.002 35.7556C31.1587 35.7556 29.486 35.437 27.984 34.7997C26.482 34.1398 25.1962 33.2522 24.1266 32.1371C23.057 30.9992 22.2264 29.7021 21.6347 28.2456C21.0657 26.7663 20.7812 25.1961 20.7812 23.5348C20.7812 21.7597 21.0885 20.1098 21.7029 18.585C22.3174 17.0603 23.1822 15.729 24.2973 14.5911C25.4124 13.4532 26.7096 12.5657 28.1888 11.9285C29.668 11.2913 31.2725 10.9727 33.002 10.9727C34.2764 10.9727 35.4712 11.1433 36.5863 11.4847C37.7014 11.8261 38.7141 12.2698 39.6244 12.816L38.9076 14.3521C38.1111 13.8515 37.2122 13.4305 36.2108 13.0891C35.2095 12.7477 34.1513 12.5771 33.0362 12.5771C31.6024 12.5771 30.2484 12.8615 28.9739 13.4305C27.6995 13.9766 26.573 14.7504 25.5945 15.7517C24.6386 16.7303 23.8876 17.8796 23.3415 19.1995C22.7953 20.5194 22.5222 21.9418 22.5222 23.4665C22.5222 24.923 22.7612 26.2998 23.2391 27.597C23.7397 28.8942 24.4452 30.0321 25.3555 31.0106C26.2886 31.9892 27.4037 32.7629 28.7009 33.3319C29.998 33.8781 31.4431 34.1512 33.0362 34.1512C34.2195 34.1512 35.3005 33.9919 36.2791 33.6732C37.2804 33.3319 38.168 32.9109 38.9417 32.4102L39.7269 33.8781Z" fill="white"/>
<path d="M27.189 14.4028C27.6783 14.0614 28.2017 13.777 28.7479 13.5266C28.2244 13.1284 27.6783 12.7643 27.0979 12.457C26.5518 12.7643 26.0283 13.1056 25.5391 13.4811C26.1194 13.7428 26.6656 14.0501 27.189 14.4028Z" fill="#CB0808"/>
<path d="M27.063 32.4316C26.551 32.7616 26.0162 33.0575 25.4473 33.3078C25.9366 33.6833 26.4714 34.0247 27.0403 34.3319C27.6092 34.036 28.1554 33.6947 28.6675 33.3078C28.0985 33.0575 27.5637 32.773 27.063 32.4316Z" fill="white"/>
<path d="M8.83203 23.3982C8.83203 21.6914 9.15064 20.0984 9.78785 18.6192C10.4251 17.1172 11.3126 15.7972 12.4505 14.6594C13.5883 13.4987 14.8969 12.5998 16.3761 11.9626C17.8781 11.3026 19.4825 10.9727 21.1893 10.9727C22.8962 10.9727 24.5006 11.3026 26.0026 11.9626C27.5045 12.5998 28.8245 13.4987 29.9624 14.6594C31.1002 15.7972 31.9878 17.1172 32.625 18.6192C33.2849 20.0984 33.6149 21.6914 33.6149 23.3982C33.6149 25.1051 33.2849 26.7095 32.625 28.2115C31.9878 29.6907 31.1002 30.9992 29.9624 32.1371C28.8245 33.275 27.5045 34.1625 26.0026 34.7997C24.5006 35.437 22.8962 35.7556 21.1893 35.7556C19.4825 35.7556 17.8781 35.4483 16.3761 34.8339C14.8969 34.2194 13.5883 33.3546 12.4505 32.2395C11.3126 31.1244 10.4251 29.8159 9.78785 28.3139C9.15064 26.8119 8.83203 25.1733 8.83203 23.3982ZM10.5388 23.4324C10.5388 24.9116 10.8119 26.2998 11.3581 27.597C11.9043 28.8942 12.6667 30.0321 13.6452 31.0106C14.6238 31.9892 15.7503 32.7629 17.0247 33.3319C18.3219 33.8781 19.6987 34.1512 21.1552 34.1512C22.6572 34.1512 24.0568 33.8781 25.354 33.3319C26.6511 32.7629 27.789 31.9892 28.7676 31.0106C29.7462 30.0321 30.5085 28.8942 31.0547 27.597C31.6237 26.2998 31.9081 24.9002 31.9081 23.3982C31.9081 21.919 31.6237 20.5308 31.0547 19.2336C30.5085 17.9137 29.7462 16.7644 28.7676 15.7859C27.789 14.7845 26.6511 13.9994 25.354 13.4305C24.0568 12.8615 22.6686 12.5771 21.1893 12.5771C19.6874 12.5771 18.2878 12.8729 16.9906 13.4646C15.6934 14.0335 14.5555 14.8187 13.577 15.82C12.6212 16.8213 11.8702 17.982 11.324 19.3019C10.8006 20.5991 10.5388 21.9759 10.5388 23.4324Z" fill="#CB0808"/>
<path d="M16.9866 13.4611C17.1118 13.4042 17.237 13.3473 17.3621 13.3018V11.5723C17.0321 11.6861 16.7022 11.8112 16.3722 11.9591C16.1446 12.0616 15.917 12.164 15.6895 12.2777V14.1325C16.0991 13.8822 16.5315 13.6546 16.9866 13.4611Z" fill="#CB0808"/>
<path d="M17.3383 28.5841C17.3383 30.382 17.0083 31.9181 16.3483 33.1925C15.6884 34.467 14.8008 35.4341 13.6857 36.0941C12.5933 36.7768 11.3531 37.141 9.96484 37.1865V35.5821C11.6034 35.491 12.9575 34.8425 14.0271 33.6363C15.1194 32.4302 15.6656 30.712 15.6656 28.4817V8H17.3383V28.5841Z" fill="white"/>
<mask id="mask0_4753_3337" style="mask-type:alpha" maskUnits="userSpaceOnUse" x="2" y="22" width="38" height="14">
<rect x="2.00391" y="22.582" width="37.6636" height="13.1993" fill="#D9D9D9"/>
</mask>
<g mask="url(#mask0_4753_3337)">
<path d="M8.83398 23.4002C8.83398 21.6934 9.15259 20.1004 9.7898 18.6211C10.427 17.1191 11.3146 15.7992 12.4524 14.6613C13.5903 13.5007 14.8989 12.6018 16.3781 11.9646C17.8801 11.3046 19.4845 10.9746 21.1913 10.9746C22.8981 10.9746 24.5025 11.3046 26.0045 11.9646C27.5065 12.6018 28.8264 13.5007 29.9643 14.6613C31.1022 15.7992 31.9897 17.1191 32.6269 18.6211C33.2869 20.1004 33.6169 21.6934 33.6169 23.4002C33.6169 25.107 33.2869 26.7114 32.6269 28.2134C31.9897 29.6926 31.1022 31.0012 29.9643 32.1391C28.8264 33.2769 27.5065 34.1645 26.0045 34.8017C24.5025 35.4389 22.8981 35.7575 21.1913 35.7575C19.4845 35.7575 17.8801 35.4503 16.3781 34.8358C14.8989 34.2214 13.5903 33.3566 12.4524 32.2415C11.3146 31.1264 10.427 29.8178 9.7898 28.3158C9.15259 26.8138 8.83398 25.1753 8.83398 23.4002ZM10.5408 23.4343C10.5408 24.9136 10.8139 26.3018 11.3601 27.599C11.9062 28.8961 12.6686 30.034 13.6472 31.0126C14.6258 31.9911 15.7523 32.7649 17.0267 33.3338C18.3239 33.88 19.7007 34.1531 21.1572 34.1531C22.6592 34.1531 24.0587 33.88 25.3559 33.3338C26.6531 32.7649 27.791 31.9911 28.7695 31.0126C29.7481 30.034 30.5105 28.8961 31.0567 27.599C31.6256 26.3018 31.9101 24.9022 31.9101 23.4002C31.9101 21.921 31.6256 20.5328 31.0567 19.2356C30.5105 17.9156 29.7481 16.7664 28.7695 15.7878C27.791 14.7865 26.6531 14.0014 25.3559 13.4324C24.0587 12.8635 22.6705 12.579 21.1913 12.579C19.6893 12.579 18.2897 12.8749 16.9925 13.4666C15.6954 14.0355 14.5575 14.8206 13.5789 15.822C12.6231 16.8233 11.8721 17.9839 11.3259 19.3038C10.8025 20.601 10.5408 21.9779 10.5408 23.4343Z" fill="#CB0808"/>
</g>
</svg>
