<svg width="281" height="55" viewBox="0 0 281 55" fill="none" xmlns="http://www.w3.org/2000/svg">
<path d="M4.08301 54.7451H257.477C258.106 54.7451 258.727 54.5899 259.282 54.293L278.723 43.8975C279.968 43.2316 280.745 41.9343 280.745 40.5225V4.08301C280.745 1.96918 279.031 0.254883 276.917 0.254883H263.375C262.757 0.254883 262.255 0.756529 262.255 1.375C262.255 2.27531 261.525 3.00488 260.625 3.00488H238.375C237.475 3.00488 236.745 2.27531 236.745 1.375C236.745 0.756531 236.243 0.254883 235.625 0.254883H21.6367C20.9397 0.254884 20.2559 0.445532 19.6592 0.805664L2.10449 11.4023C0.956649 12.0952 0.254883 13.3389 0.254883 14.6797V50.917C0.254883 53.0308 1.96918 54.7451 4.08301 54.7451Z" stroke="url(#paint0_linear_4044_4378)" stroke-width="0.510324"/>
<path fill-rule="evenodd" clip-rule="evenodd" d="M99.8357 17.6907L98.9556 18.0301L88.6401 21.9349L78.3246 25.8397L78.2013 25.9873L78.0781 26.1349V26.3651V26.5954L78.2366 26.763L78.395 26.9307L81.0864 27.9145L83.7779 28.8983L83.8432 28.9767L83.9084 29.055L84.9423 32.3357L85.9762 35.6164L86.1503 35.7718L86.3243 35.9272L86.5492 35.9267L86.7741 35.9263L86.9548 35.8058L87.1355 35.6854L88.6342 34.4848L90.1329 33.2841L90.4395 33.2502L90.7462 33.2163L91.0007 33.3635L91.2551 33.5108L93.9128 35.4051L96.5705 37.2995L96.7521 37.3442L96.9337 37.3888L97.1425 37.2829L97.3514 37.1769L97.4305 36.9837L97.5096 36.7905L99.4824 27.4696L101.455 18.1486V17.9594V17.7702L101.297 17.5936L101.138 17.417L100.927 17.3842L100.716 17.3513L99.8357 17.6907ZM96.4207 21.6463V21.766L93.6042 24.3319L90.7877 26.8978L89.1147 28.422L87.4419 29.9462L87.3029 30.2278L87.1639 30.5094L86.9918 31.7373L86.8198 32.9654L86.7327 33.0683L86.6456 33.1712L86.4987 33.1505L86.3516 33.1299L85.7402 31.0579L85.1287 28.9859L85.1241 28.758L85.1194 28.5301L85.2179 28.3434L85.3162 28.1568L85.4704 28.0188L85.6245 27.8808L90.8817 24.692L96.1391 21.5032L96.2799 21.5149L96.4207 21.5266V21.6463Z" fill="#1EA1F1"/>
<path d="M118.022 33.9911C117.257 33.9911 116.584 33.8457 116.002 33.5548C115.431 33.264 114.99 32.8547 114.677 32.3269C114.365 31.7992 114.209 31.1906 114.209 30.5012V29.3541C114.209 29.2464 114.262 29.1925 114.37 29.1925H115.598C115.706 29.1925 115.76 29.2464 115.76 29.3541V30.5012C115.76 31.1475 115.964 31.6699 116.374 32.0684C116.783 32.4562 117.332 32.6501 118.022 32.6501C118.689 32.6501 119.233 32.4562 119.653 32.0684C120.073 31.6699 120.283 31.1475 120.283 30.5012V22.7137C120.283 22.606 120.337 22.5522 120.445 22.5522H121.673C121.781 22.5522 121.835 22.606 121.835 22.7137V30.5012C121.835 31.1906 121.673 31.7992 121.35 32.3269C121.037 32.8547 120.59 33.264 120.009 33.5548C119.427 33.8457 118.765 33.9911 118.022 33.9911ZM127.653 33.9911C126.856 33.9911 126.161 33.7918 125.568 33.3933C124.976 32.984 124.561 32.4185 124.324 31.6968C124.13 31.1152 124.033 30.4582 124.033 29.7257C124.033 28.961 124.125 28.3147 124.308 27.7869C124.545 27.076 124.96 26.5213 125.552 26.1228C126.145 25.7135 126.85 25.5088 127.669 25.5088C128.444 25.5088 129.117 25.7135 129.688 26.1228C130.27 26.5213 130.685 27.0706 130.932 27.7708C131.126 28.3201 131.223 28.9664 131.223 29.7096C131.223 30.4635 131.126 31.126 130.932 31.6968C130.695 32.4185 130.286 32.984 129.704 33.3933C129.123 33.7918 128.439 33.9911 127.653 33.9911ZM127.653 32.6501C128.083 32.6501 128.46 32.5316 128.784 32.2946C129.107 32.0469 129.338 31.7022 129.478 31.2606C129.597 30.8513 129.656 30.3451 129.656 29.7419C129.656 29.1387 129.602 28.6378 129.494 28.2393C129.354 27.7977 129.123 27.4584 128.8 27.2214C128.477 26.9737 128.083 26.8498 127.62 26.8498C127.179 26.8498 126.796 26.9737 126.473 27.2214C126.15 27.4584 125.918 27.7977 125.778 28.2393C125.66 28.6163 125.601 29.1172 125.601 29.7419C125.601 30.3666 125.66 30.8728 125.778 31.2606C125.908 31.7022 126.134 32.0469 126.457 32.2946C126.791 32.5316 127.189 32.6501 127.653 32.6501ZM134.191 24.3456C133.889 24.3456 133.642 24.2486 133.448 24.0547C133.254 23.8609 133.157 23.6131 133.157 23.3115C133.157 23.0099 133.254 22.7622 133.448 22.5683C133.642 22.3744 133.889 22.2775 134.191 22.2775C134.493 22.2775 134.74 22.3744 134.934 22.5683C135.128 22.7622 135.225 23.0099 135.225 23.3115C135.225 23.6131 135.128 23.8609 134.934 24.0547C134.74 24.2486 134.493 24.3456 134.191 24.3456ZM133.545 33.8457C133.437 33.8457 133.383 33.7918 133.383 33.6841V25.7997C133.383 25.6919 133.437 25.6381 133.545 25.6381H134.773C134.88 25.6381 134.934 25.6919 134.934 25.7997V33.6841C134.934 33.7918 134.88 33.8457 134.773 33.8457H133.545ZM141.039 25.525C141.923 25.525 142.623 25.7835 143.14 26.3005C143.657 26.8068 143.915 27.4961 143.915 28.3686V33.7003C143.915 33.808 143.861 33.8618 143.754 33.8618H142.526C142.418 33.8618 142.364 33.808 142.364 33.7003V28.6755C142.364 28.137 142.208 27.7008 141.896 27.3668C141.583 27.0329 141.169 26.866 140.652 26.866C140.145 26.866 139.731 27.0329 139.408 27.3668C139.085 27.7008 138.923 28.1316 138.923 28.6594V33.7003C138.923 33.808 138.869 33.8618 138.761 33.8618H137.533C137.426 33.8618 137.372 33.808 137.372 33.7003V25.7997C137.372 25.6919 137.426 25.6381 137.533 25.6381H138.761C138.869 25.6381 138.923 25.6919 138.923 25.7997V26.3813C138.923 26.4028 138.928 26.419 138.939 26.4298C138.961 26.4405 138.977 26.4352 138.988 26.4136C139.451 25.8212 140.135 25.525 141.039 25.525ZM156.747 22.5522C156.854 22.5522 156.908 22.606 156.908 22.7137V23.7478C156.908 23.8555 156.854 23.9093 156.747 23.9093H153.645C153.602 23.9093 153.58 23.9309 153.58 23.974V33.7003C153.58 33.808 153.526 33.8618 153.418 33.8618H152.191C152.083 33.8618 152.029 33.808 152.029 33.7003V23.974C152.029 23.9309 152.007 23.9093 151.964 23.9093H149.008C148.9 23.9093 148.846 23.8555 148.846 23.7478V22.7137C148.846 22.606 148.9 22.5522 149.008 22.5522H156.747ZM164.082 28.724C164.125 29.1656 164.141 29.6611 164.131 30.2104C164.131 30.3181 164.077 30.372 163.969 30.372H158.815C158.772 30.372 158.751 30.3935 158.751 30.4366C158.751 30.8028 158.783 31.0829 158.847 31.2768C158.966 31.7076 159.203 32.0469 159.558 32.2946C159.925 32.5316 160.382 32.6501 160.932 32.6501C161.729 32.6501 162.343 32.3216 162.774 31.6645C162.827 31.5568 162.897 31.5406 162.984 31.616L163.905 32.23C163.98 32.2946 163.996 32.3646 163.953 32.44C163.651 32.9247 163.221 33.3071 162.66 33.5872C162.111 33.8672 161.486 34.0072 160.786 34.0072C160 34.0072 159.338 33.8349 158.799 33.4902C158.26 33.1455 157.857 32.6555 157.587 32.02C157.329 31.3845 157.2 30.6143 157.2 29.7096C157.2 28.9233 157.259 28.3255 157.377 27.9162C157.571 27.173 157.959 26.5859 158.541 26.1551C159.122 25.7243 159.828 25.5088 160.657 25.5088C161.745 25.5088 162.558 25.7835 163.097 26.3328C163.635 26.8714 163.964 27.6684 164.082 28.724ZM160.657 26.8498C160.194 26.8498 159.811 26.9683 159.51 27.2053C159.208 27.4315 159.004 27.7385 158.896 28.1262C158.821 28.3632 158.772 28.6648 158.751 29.031C158.751 29.0741 158.772 29.0956 158.815 29.0956H162.515C162.558 29.0956 162.58 29.0741 162.58 29.031C162.558 28.6755 162.526 28.4116 162.483 28.2393C162.375 27.8192 162.16 27.4853 161.836 27.2376C161.524 26.9791 161.131 26.8498 160.657 26.8498ZM166.249 33.8618C166.142 33.8618 166.088 33.808 166.088 33.7003V22.7137C166.088 22.606 166.142 22.5522 166.249 22.5522H167.477C167.585 22.5522 167.639 22.606 167.639 22.7137V33.7003C167.639 33.808 167.585 33.8618 167.477 33.8618H166.249ZM176.547 28.724C176.59 29.1656 176.606 29.6611 176.595 30.2104C176.595 30.3181 176.541 30.372 176.434 30.372H171.28C171.237 30.372 171.215 30.3935 171.215 30.4366C171.215 30.8028 171.247 31.0829 171.312 31.2768C171.431 31.7076 171.668 32.0469 172.023 32.2946C172.389 32.5316 172.847 32.6501 173.396 32.6501C174.193 32.6501 174.807 32.3216 175.238 31.6645C175.292 31.5568 175.362 31.5406 175.448 31.616L176.369 32.23C176.445 32.2946 176.461 32.3646 176.418 32.44C176.116 32.9247 175.685 33.3071 175.125 33.5872C174.576 33.8672 173.951 34.0072 173.251 34.0072C172.465 34.0072 171.802 33.8349 171.264 33.4902C170.725 33.1455 170.321 32.6555 170.052 32.02C169.793 31.3845 169.664 30.6143 169.664 29.7096C169.664 28.9233 169.723 28.3255 169.842 27.9162C170.036 27.173 170.423 26.5859 171.005 26.1551C171.587 25.7243 172.292 25.5088 173.122 25.5088C174.21 25.5088 175.023 25.7835 175.561 26.3328C176.1 26.8714 176.428 27.6684 176.547 28.724ZM173.122 26.8498C172.658 26.8498 172.276 26.9683 171.975 27.2053C171.673 27.4315 171.468 27.7385 171.361 28.1262C171.285 28.3632 171.237 28.6648 171.215 29.031C171.215 29.0741 171.237 29.0956 171.28 29.0956H174.98C175.023 29.0956 175.044 29.0741 175.044 29.031C175.023 28.6755 174.99 28.4116 174.947 28.2393C174.84 27.8192 174.624 27.4853 174.301 27.2376C173.989 26.9791 173.596 26.8498 173.122 26.8498ZM183.609 25.7997C183.609 25.6919 183.663 25.6381 183.771 25.6381H184.999C185.107 25.6381 185.16 25.6919 185.16 25.7997V33.4417C185.16 34.745 184.789 35.6767 184.046 36.2368C183.313 36.7969 182.328 37.077 181.089 37.077C180.917 37.077 180.647 37.0662 180.281 37.0447C180.173 37.0339 180.12 36.9747 180.12 36.867L180.168 35.7521C180.168 35.7091 180.184 35.6714 180.217 35.639C180.249 35.6067 180.292 35.596 180.346 35.6067C180.497 35.6175 180.717 35.6229 181.008 35.6229C181.924 35.6229 182.586 35.4506 182.995 35.1059C183.405 34.772 183.609 34.2011 183.609 33.3933V33.1025C183.609 33.0809 183.599 33.0648 183.577 33.054C183.566 33.0432 183.55 33.0486 183.529 33.0701C183.076 33.5979 182.414 33.8618 181.541 33.8618C180.841 33.8618 180.206 33.6787 179.635 33.3125C179.075 32.9463 178.687 32.4077 178.472 31.6968C178.332 31.2229 178.262 30.5659 178.262 29.7257C178.262 28.8317 178.342 28.1424 178.504 27.6577C178.709 27.0114 179.069 26.4944 179.586 26.1066C180.114 25.7081 180.734 25.5088 181.444 25.5088C182.328 25.5088 183.022 25.7781 183.529 26.3167C183.55 26.3382 183.566 26.349 183.577 26.349C183.599 26.3382 183.609 26.3221 183.609 26.3005V25.7997ZM183.512 31.2283C183.545 31.0559 183.566 30.8728 183.577 30.679C183.599 30.4851 183.609 30.1619 183.609 29.7096C183.609 29.2572 183.599 28.9394 183.577 28.7563C183.566 28.5624 183.539 28.3793 183.496 28.207C183.41 27.8085 183.216 27.4853 182.915 27.2376C182.613 26.9791 182.236 26.8498 181.784 26.8498C181.331 26.8498 180.954 26.9791 180.653 27.2376C180.351 27.4853 180.136 27.8085 180.006 28.207C179.888 28.5301 179.829 29.031 179.829 29.7096C179.829 30.4528 179.883 30.959 179.99 31.2283C180.098 31.6268 180.308 31.9553 180.62 32.2138C180.944 32.4616 181.331 32.5854 181.784 32.5854C182.258 32.5854 182.64 32.4616 182.931 32.2138C183.232 31.9553 183.426 31.6268 183.512 31.2283ZM190.928 25.5573C191.273 25.5573 191.585 25.6273 191.865 25.7673C191.94 25.7997 191.967 25.8643 191.946 25.9612L191.687 27.173C191.676 27.2699 191.612 27.3022 191.493 27.2699C191.31 27.1945 191.095 27.1568 190.847 27.1568L190.621 27.173C190.115 27.1945 189.695 27.3722 189.361 27.7061C189.038 28.0293 188.876 28.4547 188.876 28.9825V33.7003C188.876 33.808 188.822 33.8618 188.714 33.8618H187.487C187.379 33.8618 187.325 33.808 187.325 33.7003V25.7997C187.325 25.6919 187.379 25.6381 187.487 25.6381H188.714C188.822 25.6381 188.876 25.6919 188.876 25.7997V26.656C188.876 26.6883 188.881 26.7098 188.892 26.7206C188.914 26.7206 188.93 26.7098 188.941 26.6883C189.425 25.9343 190.088 25.5573 190.928 25.5573ZM196.263 25.5088C196.92 25.5088 197.49 25.6273 197.975 25.8643C198.471 26.0905 198.848 26.4136 199.106 26.8337C199.375 27.243 199.51 27.7115 199.51 28.2393V33.7003C199.51 33.808 199.456 33.8618 199.349 33.8618H198.121C198.013 33.8618 197.959 33.808 197.959 33.7003V33.1186C197.959 33.0648 197.932 33.054 197.878 33.0863C197.598 33.3771 197.254 33.6033 196.844 33.7649C196.446 33.9157 195.999 33.9911 195.503 33.9911C194.706 33.9911 194.044 33.7918 193.516 33.3933C192.999 32.984 192.74 32.37 192.74 31.5514C192.74 30.7113 193.031 30.0542 193.613 29.5803C194.205 29.0956 195.029 28.8533 196.085 28.8533H197.894C197.937 28.8533 197.959 28.8317 197.959 28.7886V28.3524C197.959 27.8785 197.819 27.5123 197.539 27.2538C197.27 26.9845 196.855 26.8498 196.295 26.8498C195.843 26.8498 195.471 26.9414 195.18 27.1245C194.9 27.2968 194.728 27.5338 194.663 27.8354C194.631 27.9431 194.566 27.9916 194.469 27.9808L193.161 27.8031C193.053 27.7815 193.004 27.7385 193.015 27.6738C193.101 27.0383 193.441 26.5213 194.033 26.1228C194.625 25.7135 195.369 25.5088 196.263 25.5088ZM195.843 32.6824C196.413 32.6824 196.909 32.5316 197.329 32.23C197.749 31.9284 197.959 31.546 197.959 31.0829V30.1296C197.959 30.0865 197.937 30.065 197.894 30.065H196.376C195.74 30.065 195.234 30.1889 194.857 30.4366C194.48 30.6843 194.291 31.029 194.291 31.4706C194.291 31.8692 194.432 32.1708 194.712 32.3754C195.002 32.5801 195.379 32.6824 195.843 32.6824ZM210.151 25.525C210.969 25.525 211.616 25.7727 212.09 26.2682C212.564 26.7529 212.801 27.4315 212.801 28.3039V33.7003C212.801 33.808 212.747 33.8618 212.639 33.8618H211.427C211.32 33.8618 211.266 33.808 211.266 33.7003V28.6271C211.266 28.0885 211.115 27.6631 210.813 27.3507C210.522 27.0276 210.129 26.866 209.634 26.866C209.138 26.866 208.734 27.0222 208.422 27.3345C208.11 27.6469 207.954 28.067 207.954 28.5948V33.7003C207.954 33.808 207.9 33.8618 207.792 33.8618H206.58C206.473 33.8618 206.419 33.808 206.419 33.7003V28.6271C206.419 28.0885 206.268 27.6631 205.966 27.3507C205.675 27.0276 205.282 26.866 204.787 26.866C204.291 26.866 203.893 27.0222 203.591 27.3345C203.3 27.6469 203.155 28.067 203.155 28.5948V33.7003C203.155 33.808 203.101 33.8618 202.993 33.8618H201.766C201.658 33.8618 201.604 33.808 201.604 33.7003V25.7997C201.604 25.6919 201.658 25.6381 201.766 25.6381H202.993C203.101 25.6381 203.155 25.6919 203.155 25.7997V26.349C203.155 26.3705 203.16 26.3867 203.171 26.3975C203.193 26.4082 203.214 26.4028 203.236 26.3813C203.71 25.8104 204.399 25.525 205.304 25.525C205.853 25.525 206.322 25.6327 206.709 25.8481C207.097 26.0528 207.399 26.3598 207.614 26.7691C207.647 26.8121 207.679 26.8121 207.711 26.7691C207.97 26.349 208.309 26.0366 208.729 25.832C209.16 25.6273 209.634 25.525 210.151 25.525Z" fill="#1EA1F1"/>
<defs>
<linearGradient id="paint0_linear_4044_4378" x1="-28" y1="36.5" x2="312.998" y2="27.9171" gradientUnits="userSpaceOnUse">
<stop stop-color="#1EA1F1"/>
<stop offset="0.48" stop-color="#010102"/>
<stop offset="1" stop-color="#1EA1F1"/>
</linearGradient>
</defs>
</svg>
