<svg width="282" height="55" viewBox="0 0 282 55" fill="none" xmlns="http://www.w3.org/2000/svg">
<path d="M4.93457 54.7451H258.328C258.958 54.7451 259.579 54.5899 260.134 54.293L279.574 43.8975C280.819 43.2316 281.597 41.9343 281.597 40.5225V4.08301C281.597 1.96918 279.882 0.254883 277.769 0.254883H264.227C263.608 0.254883 263.106 0.756529 263.106 1.375C263.106 2.27531 262.377 3.00488 261.477 3.00488H239.227C238.326 3.00488 237.597 2.27531 237.597 1.375C237.597 0.756531 237.095 0.254883 236.477 0.254883H22.4883C21.7913 0.254884 21.1075 0.445532 20.5107 0.805664L2.95605 11.4023C1.80821 12.0952 1.10645 13.3389 1.10645 14.6797V50.917C1.10645 53.0308 2.82074 54.7451 4.93457 54.7451Z" stroke="url(#paint0_linear_4044_4386)" stroke-width="0.510324"/>
<path d="M103.41 19.9994C101.987 19.3347 100.465 18.8516 98.8738 18.5765C98.6784 18.9292 98.4501 19.4035 98.2928 19.7808C96.6015 19.5269 94.9258 19.5269 93.2657 19.7808C93.1083 19.4035 92.8748 18.9292 92.6777 18.5765C91.085 18.8516 89.5615 19.3365 88.1383 20.0029C85.2676 24.3332 84.4894 28.5559 84.8785 32.7186C86.7825 34.1379 88.6277 35.0001 90.4417 35.5643C90.8896 34.949 91.2891 34.2949 91.6332 33.6055C90.9778 33.3569 90.35 33.0501 89.7569 32.6939C89.9143 32.5776 90.0682 32.4559 90.2169 32.3307C93.8346 34.0198 97.7653 34.0198 101.34 32.3307C101.49 32.4559 101.644 32.5776 101.8 32.6939C101.205 33.0518 100.575 33.3586 99.92 33.6072C100.264 34.2949 100.662 34.9508 101.112 35.5661C102.927 35.0019 104.774 34.1397 106.678 32.7186C107.135 27.8929 105.898 23.709 103.41 19.9994ZM92.126 30.1586C91.04 30.1586 90.1494 29.1465 90.1494 27.9141C90.1494 26.6817 91.021 25.6679 92.126 25.6679C93.2311 25.6679 94.1217 26.6799 94.1027 27.9141C94.1044 29.1465 93.2311 30.1586 92.126 30.1586ZM99.4306 30.1586C98.3447 30.1586 97.454 29.1465 97.454 27.9141C97.454 26.6817 98.3256 25.6679 99.4306 25.6679C100.536 25.6679 101.426 26.6799 101.407 27.9141C101.407 29.1465 100.536 30.1586 99.4306 30.1586Z" fill="#7389DA"/>
<path d="M124.024 34.9925C123.251 34.9925 122.571 34.8455 121.983 34.5515C121.406 34.2576 120.959 33.8439 120.644 33.3104C120.328 32.777 120.17 32.1619 120.17 31.4651V30.3056C120.17 30.1968 120.224 30.1423 120.333 30.1423H121.574C121.683 30.1423 121.738 30.1968 121.738 30.3056V31.4651C121.738 32.1183 121.945 32.6463 122.358 33.0491C122.772 33.4411 123.327 33.637 124.024 33.637C124.699 33.637 125.249 33.4411 125.673 33.0491C126.098 32.6463 126.31 32.1183 126.31 31.4651V23.5939C126.31 23.485 126.365 23.4306 126.473 23.4306H127.715C127.823 23.4306 127.878 23.485 127.878 23.5939V31.4651C127.878 32.1619 127.715 32.777 127.388 33.3104C127.072 33.8439 126.62 34.2576 126.033 34.5515C125.445 34.8455 124.775 34.9925 124.024 34.9925ZM133.758 34.9925C132.953 34.9925 132.251 34.7911 131.652 34.3882C131.053 33.9745 130.634 33.403 130.394 32.6735C130.198 32.0857 130.1 31.4216 130.1 30.6812C130.1 29.9083 130.193 29.2551 130.378 28.7216C130.618 28.0031 131.037 27.4424 131.636 27.0396C132.234 26.6259 132.947 26.419 133.775 26.419C134.559 26.419 135.239 26.6259 135.816 27.0396C136.404 27.4424 136.823 27.9976 137.074 28.7053C137.27 29.2605 137.368 29.9137 137.368 30.6649C137.368 31.427 137.27 32.0965 137.074 32.6735C136.834 33.403 136.42 33.9745 135.832 34.3882C135.245 34.7911 134.553 34.9925 133.758 34.9925ZM133.758 33.637C134.194 33.637 134.575 33.5173 134.902 33.2778C135.228 33.0274 135.462 32.679 135.604 32.2326C135.724 31.8189 135.783 31.3072 135.783 30.6976C135.783 30.0879 135.729 29.5817 135.62 29.1788C135.479 28.7325 135.245 28.3895 134.918 28.15C134.591 27.8996 134.194 27.7744 133.726 27.7744C133.279 27.7744 132.893 27.8996 132.566 28.15C132.24 28.3895 132.006 28.7325 131.864 29.1788C131.744 29.5599 131.685 30.0661 131.685 30.6976C131.685 31.329 131.744 31.8407 131.864 32.2326C131.995 32.679 132.223 33.0274 132.55 33.2778C132.888 33.5173 133.29 33.637 133.758 33.637ZM140.367 25.2432C140.062 25.2432 139.812 25.1453 139.616 24.9493C139.42 24.7533 139.322 24.5029 139.322 24.1981C139.322 23.8933 139.42 23.6429 139.616 23.4469C139.812 23.2509 140.062 23.1529 140.367 23.1529C140.672 23.1529 140.922 23.2509 141.118 23.4469C141.314 23.6429 141.412 23.8933 141.412 24.1981C141.412 24.5029 141.314 24.7533 141.118 24.9493C140.922 25.1453 140.672 25.2432 140.367 25.2432ZM139.714 34.8455C139.605 34.8455 139.551 34.7911 139.551 34.6822V26.713C139.551 26.6041 139.605 26.5497 139.714 26.5497H140.955C141.064 26.5497 141.118 26.6041 141.118 26.713V34.6822C141.118 34.7911 141.064 34.8455 140.955 34.8455H139.714ZM147.289 26.4353C148.182 26.4353 148.89 26.6966 149.412 27.2192C149.935 27.7309 150.196 28.4277 150.196 29.3095V34.6985C150.196 34.8074 150.142 34.8618 150.033 34.8618H148.792C148.683 34.8618 148.628 34.8074 148.628 34.6985V29.6198C148.628 29.0754 148.471 28.6345 148.155 28.297C147.839 27.9595 147.42 27.7908 146.897 27.7908C146.386 27.7908 145.967 27.9595 145.64 28.297C145.313 28.6345 145.15 29.07 145.15 29.6034V34.6985C145.15 34.8074 145.096 34.8618 144.987 34.8618H143.746C143.637 34.8618 143.582 34.8074 143.582 34.6985V26.713C143.582 26.6041 143.637 26.5497 143.746 26.5497H144.987C145.096 26.5497 145.15 26.6041 145.15 26.713V27.3009C145.15 27.3226 145.156 27.339 145.166 27.3498C145.188 27.3607 145.205 27.3553 145.215 27.3335C145.684 26.7347 146.375 26.4353 147.289 26.4353ZM156.062 34.8618C155.953 34.8618 155.899 34.8074 155.899 34.6985V23.5939C155.899 23.485 155.953 23.4306 156.062 23.4306H160.014C161.146 23.4306 162.05 23.73 162.725 24.3287C163.4 24.9166 163.737 25.7059 163.737 26.6966V31.5957C163.737 32.5865 163.4 33.3812 162.725 33.98C162.05 34.5679 161.146 34.8618 160.014 34.8618H156.062ZM157.466 33.4411C157.466 33.4846 157.488 33.5064 157.532 33.5064H160.079C160.711 33.5064 161.211 33.3159 161.581 32.9348C161.963 32.5429 162.158 32.0203 162.169 31.3671V26.9253C162.169 26.272 161.979 25.7549 161.598 25.3739C161.228 24.9819 160.721 24.786 160.079 24.786H157.532C157.488 24.786 157.466 24.8078 157.466 24.8513V33.4411ZM166.745 25.2432C166.44 25.2432 166.189 25.1453 165.993 24.9493C165.797 24.7533 165.699 24.5029 165.699 24.1981C165.699 23.8933 165.797 23.6429 165.993 23.4469C166.189 23.2509 166.44 23.1529 166.745 23.1529C167.049 23.1529 167.3 23.2509 167.496 23.4469C167.692 23.6429 167.79 23.8933 167.79 24.1981C167.79 24.5029 167.692 24.7533 167.496 24.9493C167.3 25.1453 167.049 25.2432 166.745 25.2432ZM166.091 34.8455C165.982 34.8455 165.928 34.7911 165.928 34.6822V26.713C165.928 26.6041 165.982 26.5497 166.091 26.5497H167.332C167.441 26.5497 167.496 26.6041 167.496 26.713V34.6822C167.496 34.7911 167.441 34.8455 167.332 34.8455H166.091ZM172.883 34.9598C172.23 34.9598 171.653 34.8618 171.152 34.6659C170.662 34.4699 170.281 34.2032 170.009 33.8657C169.737 33.5173 169.6 33.1362 169.6 32.7225V32.5429C169.6 32.434 169.655 32.3796 169.764 32.3796H170.94C171.048 32.3796 171.103 32.434 171.103 32.5429V32.6246C171.103 32.9294 171.266 33.1961 171.593 33.4247C171.93 33.6534 172.355 33.7677 172.867 33.7677C173.356 33.7677 173.754 33.6643 174.059 33.4574C174.363 33.2397 174.516 32.9675 174.516 32.6409C174.516 32.3252 174.374 32.0911 174.091 31.9387C173.808 31.7754 173.351 31.6066 172.72 31.4324C172.099 31.2582 171.576 31.0841 171.152 30.9099C170.738 30.7248 170.384 30.4689 170.09 30.1423C169.807 29.8048 169.666 29.3748 169.666 28.8522C169.666 28.1228 169.949 27.5458 170.515 27.1212C171.092 26.6857 171.854 26.468 172.801 26.468C173.433 26.468 173.988 26.5714 174.467 26.7783C174.957 26.9743 175.332 27.2519 175.594 27.6111C175.855 27.9704 175.986 28.3732 175.986 28.8196V28.8686C175.986 28.9774 175.931 29.0319 175.822 29.0319H174.679C174.57 29.0319 174.516 28.9774 174.516 28.8686V28.8196C174.516 28.5039 174.358 28.2426 174.042 28.0357C173.737 27.818 173.318 27.7091 172.785 27.7091C172.306 27.7091 171.914 27.8017 171.609 27.9867C171.315 28.1718 171.168 28.4222 171.168 28.7379C171.168 29.0537 171.31 29.2932 171.593 29.4565C171.887 29.6198 172.355 29.794 172.997 29.979C173.629 30.1532 174.151 30.3274 174.565 30.5016C174.989 30.6649 175.349 30.9153 175.643 31.2528C175.937 31.5794 176.084 32.0094 176.084 32.5429C176.084 33.2832 175.79 33.8711 175.202 34.3066C174.625 34.7421 173.852 34.9598 172.883 34.9598ZM181.249 34.9925C180.422 34.9925 179.714 34.7856 179.126 34.3719C178.538 33.9473 178.135 33.3758 177.918 32.6572C177.754 32.1564 177.673 31.4978 177.673 30.6812C177.673 29.93 177.754 29.2714 177.918 28.7053C178.135 28.0085 178.538 27.4533 179.126 27.0396C179.725 26.6259 180.432 26.419 181.249 26.419C182.065 26.419 182.779 26.6259 183.388 27.0396C183.998 27.4533 184.395 27.9758 184.58 28.6073C184.646 28.7815 184.689 28.9611 184.711 29.1462C184.711 29.2333 184.662 29.2877 184.564 29.3095L183.339 29.4891H183.307C183.23 29.4891 183.176 29.4401 183.143 29.3422L183.094 29.0809C183.007 28.7107 182.795 28.4004 182.457 28.15C182.12 27.8996 181.712 27.7744 181.233 27.7744C180.765 27.7744 180.367 27.8996 180.041 28.15C179.714 28.4004 179.502 28.7325 179.404 29.1462C179.306 29.5381 179.257 30.0552 179.257 30.6976C179.257 31.329 179.306 31.8407 179.404 32.2326C179.513 32.6681 179.725 33.011 180.041 33.2614C180.367 33.5118 180.765 33.637 181.233 33.637C181.712 33.637 182.12 33.5118 182.457 33.2614C182.806 33.011 183.024 32.6844 183.111 32.2816C183.122 32.2707 183.122 32.2598 183.111 32.249C183.111 32.2272 183.116 32.2109 183.127 32.2V32.1346C183.16 32.0476 183.22 32.0149 183.307 32.0367L184.531 32.2326C184.618 32.2544 184.662 32.2979 184.662 32.3633V32.4286C184.662 32.5266 184.635 32.6463 184.58 32.7879C184.395 33.452 183.998 33.9854 183.388 34.3882C182.779 34.7911 182.065 34.9925 181.249 34.9925ZM189.846 34.9925C189.041 34.9925 188.338 34.7911 187.74 34.3882C187.141 33.9745 186.722 33.403 186.482 32.6735C186.286 32.0857 186.188 31.4216 186.188 30.6812C186.188 29.9083 186.281 29.2551 186.466 28.7216C186.705 28.0031 187.125 27.4424 187.723 27.0396C188.322 26.6259 189.035 26.419 189.863 26.419C190.646 26.419 191.327 26.6259 191.904 27.0396C192.492 27.4424 192.911 27.9976 193.161 28.7053C193.357 29.2605 193.455 29.9137 193.455 30.6649C193.455 31.427 193.357 32.0965 193.161 32.6735C192.922 33.403 192.508 33.9745 191.92 34.3882C191.332 34.7911 190.641 34.9925 189.846 34.9925ZM189.846 33.637C190.282 33.637 190.663 33.5173 190.989 33.2778C191.316 33.0274 191.55 32.679 191.692 32.2326C191.811 31.8189 191.871 31.3072 191.871 30.6976C191.871 30.0879 191.817 29.5817 191.708 29.1788C191.566 28.7325 191.332 28.3895 191.006 28.15C190.679 27.8996 190.282 27.7744 189.814 27.7744C189.367 27.7744 188.981 27.8996 188.654 28.15C188.328 28.3895 188.093 28.7325 187.952 29.1788C187.832 29.5599 187.772 30.0661 187.772 30.6976C187.772 31.329 187.832 31.8407 187.952 32.2326C188.083 32.679 188.311 33.0274 188.638 33.2778C188.975 33.5173 189.378 33.637 189.846 33.637ZM199.149 26.468C199.498 26.468 199.814 26.5388 200.097 26.6803C200.173 26.713 200.2 26.7783 200.178 26.8763L199.917 28.101C199.906 28.199 199.841 28.2317 199.721 28.199C199.536 28.1228 199.318 28.0847 199.068 28.0847L198.839 28.101C198.328 28.1228 197.903 28.3025 197.565 28.6399C197.239 28.9666 197.076 29.3966 197.076 29.93V34.6985C197.076 34.8074 197.021 34.8618 196.912 34.8618H195.671C195.562 34.8618 195.508 34.8074 195.508 34.6985V26.713C195.508 26.6041 195.562 26.5497 195.671 26.5497H196.912C197.021 26.5497 197.076 26.6041 197.076 26.713V27.5785C197.076 27.6111 197.081 27.6329 197.092 27.6438C197.114 27.6438 197.13 27.6329 197.141 27.6111C197.631 26.8491 198.3 26.468 199.149 26.468ZM206.601 23.5939C206.601 23.485 206.655 23.4306 206.764 23.4306H208.005C208.114 23.4306 208.168 23.485 208.168 23.5939V34.6985C208.168 34.8074 208.114 34.8618 208.005 34.8618H206.764C206.655 34.8618 206.601 34.8074 206.601 34.6985V34.1596C206.601 34.1378 206.59 34.1215 206.568 34.1106C206.557 34.0997 206.541 34.1052 206.519 34.127C206.28 34.3991 205.996 34.6114 205.67 34.7638C205.343 34.9163 204.989 34.9925 204.608 34.9925C203.825 34.9925 203.171 34.8019 202.649 34.4209C202.137 34.029 201.761 33.4792 201.522 32.7715C201.315 32.1945 201.212 31.4978 201.212 30.6812C201.212 29.9192 201.299 29.2605 201.473 28.7053C201.702 27.9867 202.077 27.4261 202.6 27.0232C203.122 26.6204 203.792 26.419 204.608 26.419C204.979 26.419 205.327 26.4952 205.654 26.6476C205.991 26.7892 206.28 26.996 206.519 27.2682C206.541 27.29 206.557 27.2954 206.568 27.2845C206.59 27.2736 206.601 27.2573 206.601 27.2355V23.5939ZM206.192 32.7552C206.443 32.2979 206.568 31.6121 206.568 30.6976C206.568 29.7831 206.432 29.0863 206.16 28.6073C205.844 28.0521 205.381 27.7744 204.772 27.7744C204.119 27.7744 203.634 28.0357 203.318 28.5583C202.97 29.1026 202.796 29.8212 202.796 30.7139C202.796 31.5522 202.932 32.2272 203.204 32.7389C203.52 33.3376 204.037 33.637 204.755 33.637C205.387 33.637 205.866 33.3431 206.192 32.7552Z" fill="#7389DA"/>
<defs>
<linearGradient id="paint0_linear_4044_4386" x1="-27.1484" y1="36.5" x2="313.849" y2="27.9171" gradientUnits="userSpaceOnUse">
<stop stop-color="#7389DA"/>
<stop offset="0.48" stop-color="#010102"/>
<stop offset="1" stop-color="#7389DA"/>
</linearGradient>
</defs>
</svg>
