<svg width="111" height="36" viewBox="0 0 111 36" fill="none" xmlns="http://www.w3.org/2000/svg">
<g clip-path="url(#clip0_1943_8183)">
<path d="M43.3379 25.1349C44.5102 26.4575 46.0139 26.9915 47.7982 26.9915C50.9587 26.9915 53.3545 25.2115 53.3545 21.4475V9.72381H50.8056V21.4221C50.8056 23.4058 49.5822 24.7281 47.6196 24.7281C46.2179 24.7281 45.2747 24.0161 44.5613 23.2024L43.3379 25.1349ZM57.1405 20.0487C57.1405 24.2195 59.5362 26.9915 64.3025 26.9915C69.0685 26.9915 71.439 24.2449 71.439 20.0235V9.72352H68.8647V19.9724C68.8647 22.8715 67.2845 24.7281 64.3025 24.7281C61.3205 24.7281 59.7147 22.8715 59.7147 19.9724V9.72381H57.1405V20.0487ZM87.1893 26.6864H89.6616V9.72352H87.1128V22.4392L77.8607 9.72381H75.2356V26.6864H77.7845V13.6655L87.1893 26.6864ZM92.7167 18.2178C92.7167 23.2532 96.2085 26.9915 101.281 26.9915C106.353 26.9915 109.844 23.2532 109.844 18.2178C109.844 13.1824 106.353 9.44409 101.281 9.44409C96.2085 9.44409 92.7167 13.1824 92.7167 18.2178ZM107.219 18.2178C107.219 21.9307 104.874 24.7281 101.281 24.7281C97.6359 24.7281 95.3419 21.9309 95.3419 18.2178C95.3419 14.4795 97.6359 11.7072 101.281 11.7072C104.874 11.7072 107.219 14.4795 107.219 18.2178Z" fill="white"/>
<path d="M18.2817 35.9999C16.0577 35.9896 10.386 35.469 5.65029 30.8347C0.623148 25.9276 0.208862 19.7479 0.208862 17.9753V17.961C0.238005 15.7419 0.813719 10.0867 5.49943 5.37214C10.2349 0.619854 15.9603 0.0312825 18.2029 -0.000146094C18.3217 -0.00347715 18.44 0.0175412 18.5504 0.0616158C18.6608 0.10569 18.761 0.171889 18.8449 0.25614C18.9295 0.33869 18.9967 0.437339 19.0426 0.546274C19.0884 0.655208 19.1121 0.772224 19.112 0.890425V4.75185C19.1126 4.92779 19.0608 5.09993 18.9633 5.24636C18.8658 5.3928 18.7269 5.50689 18.5643 5.57414C18.4563 5.619 18.3406 5.6422 18.2237 5.64243C16.9937 5.64243 12.7237 5.93385 9.36086 9.39671C7.14796 11.7024 5.90049 14.767 5.874 17.9627C5.88258 19.4216 6.21372 23.1404 9.14772 26.3224C12.5397 30.0061 17.002 30.3284 18.2877 30.3387C19.5303 30.3387 23.8331 30.0496 27.2083 26.5393C30.3143 23.3181 30.652 19.4856 30.656 17.9879V0.964711C30.656 0.729282 30.75 0.503283 30.9169 0.336711C31.084 0.169984 31.3105 0.0763756 31.5466 0.0764253H35.396C35.572 0.07602 35.7442 0.127881 35.8908 0.225438C36.0373 0.322995 36.1516 0.461856 36.2191 0.624425C36.2637 0.73232 36.2866 0.847966 36.2863 0.964711V18.0327C36.2863 19.7973 35.8929 25.9293 30.9274 30.8199C26.1874 35.4873 20.5014 35.9979 18.2817 35.9999ZM1.99115 17.9753C1.99115 19.5887 2.37858 25.1507 6.89258 29.5661C11.1686 33.7459 16.2831 34.2167 18.2811 34.223C19.8406 34.223 25.2823 33.8821 29.67 29.5579C34.1429 25.1507 34.4949 19.6239 34.4969 18.035V1.85985H32.4263V17.9961C32.4263 19.711 32.0286 24.0913 28.492 27.777C24.628 31.7916 19.6977 32.1159 18.2791 32.1159C16.8009 32.1036 11.7069 31.7359 7.83058 27.525C4.48886 23.8924 4.10143 19.6284 4.08915 17.9753C4.08915 16.2479 4.50343 11.8553 8.07515 8.16957C11.3263 4.82043 15.3226 4.06843 17.3229 3.91328V1.82471C15.0989 2.00214 10.5289 2.84728 6.76229 6.63043C2.54429 10.8741 2.02029 15.969 1.99115 17.9753Z" fill="#4643EE"/>
<path d="M18.2797 28.1219C16.2735 28.1221 14.312 27.5284 12.6426 26.4156C10.9749 25.3042 9.67443 23.723 8.90574 21.8722C8.13788 20.0227 7.93699 17.9867 8.3286 16.0228C8.72052 14.0582 9.68687 12.2542 11.1052 10.8394C12.5252 9.42289 14.3329 8.45872 16.3003 8.0685C18.2685 7.67793 20.3082 7.87844 22.1626 8.64479C24.0157 9.41019 25.6003 10.7077 26.7163 12.3734C27.831 14.0374 28.4262 15.9951 28.4263 17.9979C28.4209 20.6826 27.3501 23.2553 25.4492 25.1511C23.5456 27.0495 20.9682 28.1175 18.2797 28.1219ZM18.2797 9.6405C16.6248 9.64036 15.0068 10.1301 13.6297 11.0479C12.254 11.9648 11.1813 13.2691 10.5472 14.7959C9.91371 16.3216 9.74793 18.001 10.0709 19.6211C10.3943 21.2417 11.1915 22.7298 12.3615 23.8968C13.5329 25.0653 15.0242 25.8607 16.6472 26.1825C18.2706 26.5047 19.953 26.3394 21.4826 25.7074C23.0112 25.0759 24.3184 24.0055 25.2389 22.6314C26.1583 21.2588 26.6493 19.644 26.6495 17.9919C26.6464 15.7769 25.7635 13.6538 24.1952 12.0896C22.6246 10.5234 20.4978 9.64281 18.2797 9.6405Z" fill="#4643EE"/>
</g>
<defs>
<clipPath id="clip0_1943_8183">
<rect width="110" height="36" fill="white" transform="translate(0.111084)"/>
</clipPath>
</defs>
</svg>
