<svg width="29" height="29" viewBox="0 0 29 29" fill="none" xmlns="http://www.w3.org/2000/svg">
<path d="M11.4627 10.7424L8.57378 14.3535L11.4627 17.9646M17.2405 27.3535H18.6849M17.2405 10.7424L20.1293 14.3535L17.2405 17.9646M4.24045 27.3535C3.47427 27.3535 2.73947 27.0492 2.1977 26.5074C1.65593 25.9656 1.35156 25.2308 1.35156 24.4646V4.2424C1.35156 3.47622 1.65593 2.74142 2.1977 2.19965C2.73947 1.65788 3.47427 1.35352 4.24045 1.35352H24.4627C25.2289 1.35352 25.9637 1.65788 26.5054 2.19965C27.0472 2.74142 27.3516 3.47622 27.3516 4.2424V24.4646C27.3516 25.2308 27.0472 25.9656 26.5054 26.5074C25.9637 27.0492 25.2289 27.3535 24.4627 27.3535M10.0182 27.3535H11.4627" stroke="#78FE05" stroke-width="2.70833" stroke-linecap="round" stroke-linejoin="round"/>
</svg>
