<svg width="29" height="29" viewBox="0 0 29 29" fill="none" xmlns="http://www.w3.org/2000/svg">
<path d="M24.7448 1.35663V6.55443M27.3437 3.95553H22.1459M13.0718 2.41438C13.1275 2.11629 13.2857 1.84706 13.5189 1.65332C13.7522 1.45957 14.0459 1.35352 14.3492 1.35352C14.6524 1.35352 14.9461 1.45957 15.1794 1.65332C15.4127 1.84706 15.5709 2.11629 15.6265 2.41438L16.9923 9.63672C17.0892 10.1502 17.3388 10.6225 17.7083 10.992C18.0778 11.3615 18.5501 11.611 19.0636 11.708L26.2859 13.0738C26.584 13.1294 26.8532 13.2876 27.047 13.5209C27.2407 13.7542 27.3468 14.0479 27.3468 14.3511C27.3468 14.6544 27.2407 14.9481 27.047 15.1813C26.8532 15.4146 26.584 15.5728 26.2859 15.6285L19.0636 16.9942C18.5501 17.0912 18.0778 17.3407 17.7083 17.7102C17.3388 18.0797 17.0892 18.5521 16.9923 19.0655L15.6265 26.2879C15.5709 26.586 15.4127 26.8552 15.1794 27.0489C14.9461 27.2427 14.6524 27.3487 14.3492 27.3487C14.0459 27.3487 13.7522 27.2427 13.5189 27.0489C13.2857 26.8552 13.1275 26.586 13.0718 26.2879L11.7061 19.0655C11.6091 18.5521 11.3596 18.0797 10.9901 17.7102C10.6206 17.3407 10.1482 17.0912 9.63477 16.9942L2.41243 15.6285C2.11434 15.5728 1.84511 15.4146 1.65136 15.1813C1.45762 14.9481 1.35156 14.6544 1.35156 14.3511C1.35156 14.0479 1.45762 13.7542 1.65136 13.5209C1.84511 13.2876 2.11434 13.1294 2.41243 13.0738L9.63477 11.708C10.1482 11.611 10.6206 11.3615 10.9901 10.992C11.3596 10.6225 11.6091 10.1502 11.7061 9.63672L13.0718 2.41438ZM6.55247 24.7467C6.55247 26.1821 5.38891 27.3456 3.95357 27.3456C2.51824 27.3456 1.35467 26.1821 1.35467 24.7467C1.35467 23.3114 2.51824 22.1478 3.95357 22.1478C5.38891 22.1478 6.55247 23.3114 6.55247 24.7467Z" stroke="#78FE05" stroke-width="2.70833" stroke-linecap="round" stroke-linejoin="round"/>
</svg>
