<svg width="43" height="43" viewBox="0 0 43 43" fill="none" xmlns="http://www.w3.org/2000/svg">
<path fill-rule="evenodd" clip-rule="evenodd" d="M35.8333 7.16667V35.8333H7.16667V7.16667H35.8333ZM19.2324 14.3333H16.4405L11.1401 28.6667H13.6588L14.6595 25.8646H21.0045L21.9837 28.6667H24.6541L19.2324 14.3333ZM29.1251 14.3333H26.6165V28.6667H29.1251V14.3333ZM17.8153 16.7381L20.314 23.8888H15.3563L17.8153 16.7381ZM38.2222 28.6667H43V33.4444H38.2222V28.6667ZM9.55556 38.2222H14.3333V43H9.55556V38.2222ZM19.1111 38.2222H23.8889V43H19.1111V38.2222ZM9.55556 0H14.3333V4.77778H9.55556V0ZM28.6667 38.2222H33.4444V43H28.6667V38.2222ZM19.1111 0H23.8889V4.77778H19.1111V0ZM28.6667 0H33.4444V4.77778H28.6667V0ZM38.2222 19.1111H43V23.8889H38.2222V19.1111ZM0 28.6667H4.77778V33.4444H0V28.6667ZM38.2222 9.55556H43V14.3333H38.2222V9.55556ZM0 19.1111H4.77778V23.8889H0V19.1111ZM0 9.55556H4.77778V14.3333H0V9.55556Z" fill="#78FE05"/>
</svg>
