<svg width="30" height="42" viewBox="0 0 30 42" fill="none" xmlns="http://www.w3.org/2000/svg">
<path d="M21.8359 2.09766V8.65752H28.0332L21.8359 2.09766Z" fill="#78FE05"/>
<path d="M20.9865 10.3288C20.5312 10.3288 20.1686 9.96627 20.1686 9.51096V0H0V41.3154H30V10.3288H20.9865ZM12.1332 4.46037C15.0843 4.46037 17.4789 6.85498 17.4789 9.80607H12.1332V4.46037ZM9.67116 6.8887V12.2344H15.0169C15.0169 15.1855 12.6223 17.5801 9.67116 17.5801C6.72007 17.5801 4.32546 15.1855 4.32546 12.2344C4.32546 9.3086 6.72007 6.8887 9.67116 6.8887ZM24.882 36.7538H5.96965C5.51433 36.7538 5.15177 36.3912 5.15177 35.9359C5.15177 35.4806 5.51433 35.118 5.96965 35.118H24.8904C25.3457 35.118 25.7083 35.4806 25.7083 35.9359C25.7083 36.3997 25.3457 36.7538 24.882 36.7538ZM24.882 30.2614H5.96965C5.51433 30.2614 5.15177 29.8988 5.15177 29.4435C5.15177 28.9882 5.51433 28.6256 5.96965 28.6256H24.8904C25.3457 28.6256 25.7083 28.9882 25.7083 29.4435C25.7083 29.9073 25.3457 30.2614 24.882 30.2614ZM24.882 23.769H5.96965C5.51433 23.769 5.15177 23.4064 5.15177 22.9511C5.15177 22.4958 5.51433 22.1332 5.96965 22.1332H24.8904C25.3457 22.1332 25.7083 22.4958 25.7083 22.9511C25.7083 23.3811 25.3457 23.769 24.882 23.769Z" fill="#78FE05"/>
</svg>
