<svg width="25" height="31" viewBox="0 0 25 31" fill="none" xmlns="http://www.w3.org/2000/svg">
<path d="M10.2891 28.8535H4.10156C3.37222 28.8535 2.67274 28.5638 2.15702 28.048C1.64129 27.5323 1.35156 26.8329 1.35156 26.1035V4.10352C1.35156 3.37418 1.64129 2.67471 2.15702 2.15898C2.67274 1.64326 3.37222 1.35353 4.10156 1.35353H15.1016M15.1016 1.35353C15.5373 1.35246 15.9689 1.43769 16.3715 1.6043C16.7741 1.77092 17.1398 2.01562 17.4473 2.32427L22.3808 7.25777C22.6895 7.56532 22.9342 7.93095 23.1008 8.33356C23.2674 8.73617 23.3526 9.16779 23.3515 9.60352M15.1016 1.35353V8.22852C15.1016 8.59319 15.2464 8.94293 15.5043 9.20079C15.7621 9.45865 16.1119 9.60352 16.4766 9.60352H23.3515M23.3515 9.60352V17.8535M15.1016 26.1035L17.8515 28.8535L23.3515 23.3535" stroke="#78FE05" stroke-width="2.70833" stroke-linecap="round" stroke-linejoin="round"/>
</svg>
