<svg width="42" height="37" viewBox="0 0 42 37" fill="none" xmlns="http://www.w3.org/2000/svg">
<path d="M20.7185 6.47254C20.7185 10.0472 17.8207 12.9451 14.246 12.9451C10.6713 12.9451 7.77344 10.0472 7.77344 6.47254C7.77344 2.89786 10.6713 0 14.246 0C17.8207 0 20.7185 2.89786 20.7185 6.47254Z" fill="#78FE05"/>
<path d="M7.76705 18.125C3.47744 18.125 0 21.6024 0 25.892V36.2481H20.7121V18.125H7.76705Z" fill="#78FE05"/>
<path d="M33.6655 18.125H25.8984V36.2481H41.4325V25.892C41.4325 21.6024 37.9552 18.125 33.6655 18.125Z" fill="#78FE05"/>
<path d="M31.0765 12.9459C33.9363 12.9459 36.2545 10.6276 36.2545 7.76788C36.2545 4.90813 33.9363 2.58984 31.0765 2.58984C28.2166 2.58984 25.8984 4.90813 25.8984 7.76788C25.8984 10.6276 28.2166 12.9459 31.0765 12.9459Z" fill="#78FE05"/>
</svg>
