<svg width="48" height="48" viewBox="0 0 48 48" fill="none" xmlns="http://www.w3.org/2000/svg">
<path fill-rule="evenodd" clip-rule="evenodd" d="M31.8887 34H17.1109C15.945 34 14.9998 33.0548 14.9998 31.8889V17.1111C14.9998 15.9452 15.945 15 17.1109 15H31.8887C33.0546 15 33.9998 15.9452 33.9998 17.1111V31.8889C33.9998 33.0548 33.0546 34 31.8887 34ZM28.5414 31.361H31.3609V25.569C31.3609 23.1183 29.9717 21.9334 28.0313 21.9334C26.09 21.9334 25.273 23.4452 25.273 23.4452V22.2129H22.5558V31.361H25.273V26.5588C25.273 25.2721 25.8653 24.5064 26.999 24.5064C28.0411 24.5064 28.5414 25.2422 28.5414 26.5588V31.361ZM17.6387 19.3269C17.6387 20.2592 18.3886 21.015 19.3142 21.015C20.2397 21.015 20.9893 20.2592 20.9893 19.3269C20.9893 18.3947 20.2397 17.6388 19.3142 17.6388C18.3886 17.6388 17.6387 18.3947 17.6387 19.3269ZM20.7445 31.361H17.9111V22.2129H20.7445V31.361Z" fill="#323B4B"/>
</svg>
