<svg width="47" height="47" viewBox="0 0 47 47" fill="none" xmlns="http://www.w3.org/2000/svg">
<circle cx="23.5" cy="23.5" r="23.5" fill="black"/>
<path d="M27.8445 11.6348H35.4462L27.9869 22.2597H20.8262L27.8445 11.6348Z" stroke="white" stroke-width="1.30784"/>
<path d="M27.866 34.6835H35.4453L28.0501 24.0586H20.9102L27.866 34.6835Z" stroke="white" stroke-width="1.30784"/>
<path fill-rule="evenodd" clip-rule="evenodd" d="M10.9922 11H18.5714L25.5842 22.8999H18.4443L10.9922 11ZM19.3362 35.3524H11.0067L18.4443 23.41H25.5842L19.3362 35.3524Z" fill="white"/>
<mask id="mask0_4753_3288" style="mask-type:luminance" maskUnits="userSpaceOnUse" x="11" y="11" width="15" height="25">
<path fill-rule="evenodd" clip-rule="evenodd" d="M11.0137 11H18.5929L25.6057 22.8999H18.4658L11.0137 11ZM19.3577 35.3524H11.0282L18.4658 23.41H25.6057L19.3577 35.3524Z" fill="#07F2C7"/>
</mask>
<g mask="url(#mask0_4753_3288)">
<path d="M18.5861 11.003L18.66 10.9598L18.6348 10.918H18.5861V11.003ZM11.0071 11.003V10.918H10.8535L10.9351 11.0481L11.0071 11.003ZM25.5988 22.9029V22.9879H25.7476L25.6719 22.8597L25.5988 22.9029ZM18.4589 22.9029L18.3867 22.948L18.4121 22.9879H18.4589V22.9029ZM11.0216 35.3554L10.9495 35.3104L10.8684 35.4404H11.0216V35.3554ZM19.3519 35.3554V35.4404H19.4033L19.4267 35.3948L19.3519 35.3554ZM18.4589 23.413V23.328H18.4121L18.3867 23.368L18.4589 23.413ZM25.5988 23.413L25.6746 23.4525L25.7395 23.328H25.5988V23.413ZM18.5861 10.918H11.0071V11.088H18.5861V10.918ZM25.6719 22.8597L18.66 10.9598L18.513 11.0461L25.5258 22.9462L25.6719 22.8597ZM18.4589 22.9879H25.5988V22.818H18.4589V22.9879ZM10.9351 11.0481L18.3867 22.948L18.5311 22.8578L11.0791 10.9579L10.9351 11.0481ZM11.0216 35.4404H19.3519V35.2704H11.0216V35.4404ZM18.3867 23.368L10.9495 35.3104L11.0936 35.4003L18.5311 23.458L18.3867 23.368ZM25.5988 23.328H18.4589V23.498H25.5988V23.328ZM19.4267 35.3948L25.6746 23.4525L25.524 23.3735L19.276 35.316L19.4267 35.3948Z" fill="white"/>
</g>
</svg>
