<svg width="47" height="47" viewBox="0 0 47 47" fill="none" xmlns="http://www.w3.org/2000/svg">
<circle cx="23.5" cy="23.5" r="23.5" fill="black"/>
<mask id="mask0_6173_448" style="mask-type:alpha" maskUnits="userSpaceOnUse" x="0" y="0" width="47" height="47">
<circle cx="23.5" cy="23.5" r="23.5" fill="black"/>
</mask>
<g mask="url(#mask0_6173_448)">
<path d="M24.2434 15.0735C22.2214 13.3123 19.6513 12.3067 16.9711 12.2279C14.2908 12.1492 11.6661 13.0023 9.54429 14.6418C7.42246 16.2813 5.93474 18.6058 5.33464 21.2192C4.73453 23.8326 5.05915 26.5733 6.2532 28.9742C7.44725 31.3751 9.43684 33.2877 11.883 34.3861C14.3291 35.4846 17.0804 35.7009 19.6681 34.9981C22.2559 34.2954 24.5199 32.7172 26.0744 30.5324C27.629 28.3475 28.3779 25.6913 28.1935 23.0162L24.7247 23.2552C24.8537 25.1278 24.3295 26.9872 23.2413 28.5166C22.1532 30.046 20.5683 31.1507 18.7569 31.6426C16.9455 32.1345 15.0196 31.9831 13.3073 31.2142C11.595 30.4453 10.2023 29.1065 9.36648 27.4258C8.53064 25.7452 8.3034 23.8268 8.72348 21.9974C9.14356 20.168 10.185 18.5408 11.6702 17.3932C13.1555 16.2455 14.9928 15.6484 16.869 15.7035C18.7452 15.7586 20.5442 16.4625 21.9596 17.6954L24.2434 15.0735Z" fill="white"/>
<path d="M18.6856 22.9342C18.8888 20.2605 20.0128 17.7399 21.866 15.802C23.7192 13.864 26.1871 12.6286 28.8491 12.3063C31.5111 11.9839 34.2025 12.5945 36.4648 14.0341C38.727 15.4737 40.4201 17.6531 41.2556 20.201C42.0911 22.749 42.0173 25.5078 41.0468 28.0074C40.0762 30.5071 38.269 32.5929 35.933 33.9094C33.597 35.2259 30.8767 35.6917 28.2358 35.2275C25.5949 34.7632 23.1966 33.3976 21.4496 31.3633L24.0875 29.098C25.3103 30.522 26.9891 31.478 28.8378 31.8029C30.6865 32.1279 32.5906 31.8018 34.2258 30.8803C35.861 29.9587 37.1261 28.4987 37.8055 26.7489C38.4849 24.9992 38.5365 23.068 37.9517 21.2844C37.3668 19.5009 36.1817 17.9753 34.5981 16.9676C33.0145 15.9599 31.1305 15.5324 29.2671 15.7581C27.4037 15.9838 25.6762 16.8485 24.3789 18.2051C23.0817 19.5616 22.2949 21.3261 22.1527 23.1977L18.6856 22.9342Z" fill="white"/>
</g>
</svg>
