<svg width="105" height="24" viewBox="0 0 105 24" fill="none" xmlns="http://www.w3.org/2000/svg">
<path d="M33.9673 7.40903H35.6269L37.3797 11.6854H37.4543L39.2071 7.40903H40.8667V13.7739H39.5614V9.63115H39.5086L37.8614 13.7428H36.9726L35.3254 9.61561H35.2726V13.7739H33.9673V7.40903ZM47.2733 13.7739H45.8313L48.0285 7.40903H49.7627L51.9569 13.7739H50.5148L48.9205 8.86351H48.8708L47.2733 13.7739ZM47.1832 11.2721H50.5894V12.3226H47.1832V11.2721ZM62.2476 7.40903V13.7739H61.0852L58.3161 9.7679H58.2695V13.7739H56.9238V7.40903H58.1048L60.8521 11.412H60.9081V7.40903H62.2476ZM69.8165 13.7739H67.5602V7.40903H69.8352C70.4754 7.40903 71.0265 7.53646 71.4885 7.7913C71.9506 8.04407 72.3059 8.40769 72.5545 8.88216C72.8052 9.35662 72.9306 9.92433 72.9306 10.5853C72.9306 11.2483 72.8052 11.818 72.5545 12.2946C72.3059 12.7711 71.9485 13.1368 71.4823 13.3917C71.0182 13.6465 70.463 13.7739 69.8165 13.7739ZM68.9059 12.6209H69.7606C70.1584 12.6209 70.493 12.5505 70.7644 12.4096C71.0379 12.2666 71.243 12.046 71.3798 11.7476C71.5186 11.4472 71.588 11.0597 71.588 10.5853C71.588 10.1149 71.5186 9.7306 71.3798 9.43225C71.243 9.13389 71.0389 8.91427 70.7675 8.77338C70.4961 8.63249 70.1615 8.56205 69.7637 8.56205H68.9059V12.6209ZM78.8664 13.7739H77.4243L79.6216 7.40903H81.3558L83.5499 13.7739H82.1079L80.5135 8.86351H80.4638L78.8664 13.7739ZM78.7763 11.2721H82.1825V12.3226H78.7763V11.2721ZM88.5168 13.7739V7.40903H89.8625V12.6644H92.5912V13.7739H88.5168ZM98.9427 13.7739H97.5007L99.6979 7.40903H101.432L103.626 13.7739H102.184L100.59 8.86351H100.54L98.9427 13.7739ZM98.8526 11.2721H102.259V12.3226H98.8526V11.2721Z" fill="#8A94A6"/>
<path d="M61.4431 17.065H60.7006C60.687 16.9689 60.6593 16.8836 60.6175 16.809C60.5757 16.7333 60.522 16.6689 60.4565 16.6158C60.3909 16.5626 60.3152 16.522 60.2293 16.4937C60.1446 16.4655 60.0525 16.4513 59.953 16.4513C59.7733 16.4513 59.6168 16.496 59.4834 16.5852C59.3501 16.6734 59.2467 16.8022 59.1732 16.9717C59.0998 17.1401 59.063 17.3447 59.063 17.5854C59.063 17.8329 59.0998 18.0409 59.1732 18.2092C59.2478 18.3776 59.3518 18.5048 59.4851 18.5907C59.6185 18.6765 59.7728 18.7195 59.9479 18.7195C60.0462 18.7195 60.1372 18.7065 60.2209 18.6805C60.3056 18.6545 60.3808 18.6167 60.4463 18.5669C60.5119 18.5161 60.5661 18.4545 60.6091 18.3822C60.6531 18.3098 60.6836 18.2273 60.7006 18.1347L61.4431 18.138C61.4239 18.2974 61.3758 18.4511 61.299 18.5991C61.2233 18.7461 61.121 18.8777 60.9922 18.9941C60.8645 19.1094 60.7119 19.2009 60.5345 19.2687C60.3582 19.3354 60.1587 19.3688 59.9361 19.3688C59.6264 19.3688 59.3495 19.2987 59.1054 19.1586C58.8624 19.0184 58.6703 18.8156 58.529 18.55C58.3889 18.2844 58.3188 17.9629 58.3188 17.5854C58.3188 17.2068 58.39 16.8847 58.5324 16.6191C58.6748 16.3536 58.8681 16.1513 59.1122 16.0123C59.3563 15.8721 59.6309 15.8021 59.9361 15.8021C60.1372 15.8021 60.3237 15.8303 60.4955 15.8868C60.6684 15.9433 60.8215 16.0258 60.9549 16.1343C61.0882 16.2417 61.1967 16.3733 61.2803 16.5293C61.3651 16.6853 61.4194 16.8638 61.4431 17.065ZM62.7332 19.3213V15.8495H63.4673V17.282H64.9573V15.8495H65.6897V19.3213H64.9573V17.8872H63.4673V19.3213H62.7332ZM67.657 19.3213H66.8705L68.069 15.8495H69.0149L70.2117 19.3213H69.4251L68.5555 16.6429H68.5284L67.657 19.3213ZM67.6079 17.9567H69.4658V18.5296H67.6079V17.9567ZM72.1274 15.8495V19.3213H71.3933V15.8495H72.1274ZM76.3989 15.8495V19.3213H75.7649L74.2545 17.1362H74.2291V19.3213H73.4951V15.8495H74.1392L75.6378 18.0329H75.6683V15.8495H76.3989Z" fill="#8A94A6"/>
<circle cx="11.9342" cy="11.9342" r="11.9342" fill="#8A94A6"/>
<rect x="9.54688" y="9.54736" width="4.77367" height="4.77367" fill="#1B1B1D"/>
<path d="M11.7342 4.37598L13.9735 8.25458H9.49486L11.7342 4.37598Z" fill="#1B1B1D"/>
<path d="M11.7342 19.4927L13.9735 15.6141H9.49486L11.7342 19.4927Z" fill="#1B1B1D"/>
<path d="M19.4922 12.1335L15.6136 9.89419L15.6136 14.3728L19.4922 12.1335Z" fill="#1B1B1D"/>
<path d="M4.375 12.1335L8.25361 9.89419L8.25361 14.3728L4.375 12.1335Z" fill="#1B1B1D"/>
</svg>
