<svg width="27" height="24" viewBox="0 0 27 24" fill="none" xmlns="http://www.w3.org/2000/svg">
<path d="M14.8755 11.7285C14.8755 15.7457 11.619 19.0022 7.60182 19.0022C3.58467 19.0022 0.328125 15.7457 0.328125 11.7285C0.328125 7.71137 3.58467 4.45483 7.60182 4.45483C11.619 4.45483 14.8755 7.71137 14.8755 11.7285Z" fill="#979797"/>
<path d="M26.9988 11.7282C26.9988 15.0758 26.456 17.7896 25.7865 17.7896C25.117 17.7896 24.5742 15.0758 24.5742 11.7282C24.5742 8.38054 25.117 5.66675 25.7865 5.66675C26.456 5.66675 26.9988 8.38054 26.9988 11.7282Z" fill="#979797"/>
<path d="M19.7267 19.0022C21.7353 19.0022 23.3635 15.7457 23.3635 11.7285C23.3635 7.71137 21.7353 4.45483 19.7267 4.45483C17.7181 4.45483 16.0898 7.71137 16.0898 11.7285C16.0898 15.7457 17.7181 19.0022 19.7267 19.0022Z" fill="#979797"/>
</svg>
