<svg width="27" height="24" viewBox="0 0 27 24" fill="none" xmlns="http://www.w3.org/2000/svg">
<path d="M14.8775 11.7288C14.8775 15.7459 11.6209 19.0025 7.60377 19.0025C3.58662 19.0025 0.330078 15.7459 0.330078 11.7288C0.330078 7.71162 3.58662 4.45508 7.60377 4.45508C11.6209 4.45508 14.8775 7.71162 14.8775 11.7288Z" fill="#323B4B"/>
<path d="M27.0001 11.7284C27.0001 15.076 26.4574 17.7898 25.7878 17.7898C25.1183 17.7898 24.5756 15.076 24.5756 11.7284C24.5756 8.38078 25.1183 5.66699 25.7878 5.66699C26.4574 5.66699 27.0001 8.38078 27.0001 11.7284Z" fill="#323B4B"/>
<path d="M19.7272 19.0025C21.7358 19.0025 23.3641 15.7459 23.3641 11.7288C23.3641 7.71162 21.7358 4.45508 19.7272 4.45508C17.7186 4.45508 16.0904 7.71162 16.0904 11.7288C16.0904 15.7459 17.7186 19.0025 19.7272 19.0025Z" fill="#323B4B"/>
</svg>
