<svg width="65" height="63" viewBox="0 0 65 63" fill="none" xmlns="http://www.w3.org/2000/svg">
<rect opacity="0.5" width="65" height="62.7391" rx="14.1304" fill="#1D2D24"/>
<path fill-rule="evenodd" clip-rule="evenodd" d="M31.4172 12.0795C30.834 12.231 30.32 12.562 29.9778 13.0064C29.8195 13.212 20.1285 29.9722 19.975 30.3059C19.7834 30.7223 19.7139 31.45 19.8209 31.919C19.8481 32.0384 19.9486 32.2997 20.0443 32.4996C20.3558 33.1508 20.9216 33.6459 21.6305 33.8878L21.8267 33.9547C21.9039 33.981 21.9848 33.9945 22.0663 33.9946L31.8414 34.0064C39.04 34.0151 41.8271 34.0059 42.0607 33.9727C42.9327 33.8488 43.6892 33.3081 44.0651 32.54C44.2757 32.1098 44.3453 31.8138 44.3453 31.3482C44.3453 30.9005 44.2769 30.5957 44.0868 30.1968C43.8685 29.7387 34.3363 13.2497 34.1491 13.0064C33.5319 12.204 32.407 11.8224 31.4172 12.0795ZM16.4285 17.0092C16.0522 17.0583 15.5329 17.2286 15.1354 17.4332C14.0649 17.9842 13.3176 18.9801 13.0699 20.186C12.9959 20.5465 12.9938 20.8948 13.005 31.276L13.0165 41.889C13.0166 41.9585 13.0264 42.0277 13.0456 42.0945L13.1098 42.317C13.4866 43.6249 14.4446 44.6524 15.6816 45.0754C16.3175 45.2929 16.1021 45.2864 22.7759 45.2864H28.2078C28.6192 45.2864 28.9527 45.62 28.9527 46.0314V46.7408V47.4504C28.9527 47.8618 28.6193 48.1953 28.2079 48.1954L27.3872 48.1955C26.3927 48.1956 25.7645 48.2116 25.6648 48.2393C25.3164 48.336 24.9935 48.7813 24.9935 49.1649C24.9935 49.5485 25.3164 49.9938 25.6648 50.0905C25.8869 50.1522 38.2409 50.1517 38.4671 50.09C38.8007 49.999 39.1337 49.5369 39.1337 49.1649C39.1337 48.7929 38.8007 48.3308 38.4671 48.2398C38.3634 48.2115 37.744 48.1956 36.7399 48.1955L35.9193 48.1954C35.5079 48.1953 35.1744 47.8618 35.1744 47.4504V46.7416V46.0315C35.1744 45.6206 35.5071 45.2873 35.918 45.2866L41.487 45.2763L47.7022 45.2649C47.7668 45.2648 47.8312 45.2562 47.8937 45.2395L48.1387 45.1738C49.436 44.826 50.4953 43.8461 50.9216 42.5993C51.1442 41.9482 51.1326 42.5778 51.1326 31.1471C51.1326 19.5652 51.1482 20.297 50.8868 19.5746C50.7521 19.2024 50.4396 18.6721 50.1566 18.3358C49.7462 17.8481 48.9953 17.3657 48.3133 17.1518C47.742 16.9727 47.4521 16.9606 44.0423 16.9736L41.0359 16.9851C40.9143 16.9856 40.7946 17.0158 40.6874 17.0732L40.6833 17.0754C39.9934 17.4443 39.9631 18.3828 40.6278 18.7963C40.7207 18.8541 40.8278 18.885 40.9372 18.8857L44.1231 18.9062C47.4541 18.9276 47.4782 18.9284 47.745 19.0177C48.2622 19.1908 48.6796 19.5433 48.9147 20.0055C49.1698 20.5071 49.153 19.7983 49.153 30.0639V38.6834C49.153 39.0948 48.8195 39.4283 48.408 39.4283H32.0429H15.6785C15.2668 39.4283 14.9331 39.0943 14.9335 38.6825L14.9433 29.9847L14.9538 20.6777C14.9539 20.5874 14.9704 20.4978 15.0025 20.4134L15.045 20.3019C15.333 19.5459 15.9777 19.0339 16.7543 18.9446C16.9453 18.9227 18.4497 18.9053 20.177 18.9052C22.6708 18.9049 23.2836 18.8945 23.3888 18.8504C23.8432 18.66 24.0826 18.134 23.9365 17.6467C23.8759 17.4441 23.6555 17.1886 23.4438 17.0754L23.4405 17.0736C23.3328 17.016 23.2125 16.9857 23.0904 16.9855L19.9838 16.9804C18.1728 16.9774 16.573 16.9904 16.4285 17.0092ZM31.7706 18.3969C31.5312 18.4823 31.3513 18.6441 31.2378 18.876L31.2093 18.9342C31.1591 19.0368 31.1332 19.1496 31.1336 19.2638L31.1438 22.6064L31.1539 25.9123C31.1543 26.0499 31.1929 26.1847 31.2652 26.3018L31.2768 26.3205C31.3526 26.443 31.4743 26.5647 31.5969 26.6405C31.7688 26.7468 31.8324 26.7628 32.0838 26.7628C32.3351 26.7628 32.3988 26.7468 32.5707 26.6405C32.6932 26.5647 32.8149 26.443 32.8907 26.3205L32.9023 26.3018C32.9747 26.1847 33.0132 26.0499 33.0136 25.9123L33.0237 22.6064L33.034 19.2638C33.0343 19.1496 33.0084 19.0368 32.9582 18.9342L32.9297 18.876C32.7189 18.4451 32.2168 18.2376 31.7706 18.3969ZM31.6781 28.1714C31.4603 28.2728 31.2772 28.4596 31.1888 28.6704C31.1028 28.8758 31.1172 29.6308 31.2111 29.8332C31.3674 30.17 31.7068 30.3844 32.0838 30.3844C32.4607 30.3844 32.8001 30.17 32.9564 29.8332C33.0446 29.6432 33.063 28.9726 32.9871 28.719C32.8317 28.2005 32.1912 27.9325 31.6781 28.1714Z" fill="#65DA01"/>
</svg>
