<svg width="65" height="63" viewBox="0 0 65 63" fill="none" xmlns="http://www.w3.org/2000/svg">
<rect opacity="0.5" width="65" height="62.7391" rx="14.1304" fill="#1D2D24"/>
<path fill-rule="evenodd" clip-rule="evenodd" d="M43.4633 14.0292C42.4571 14.1298 41.297 14.4087 40.4056 14.7643C35.3893 16.7657 32.4983 21.9747 33.4721 27.2572C34.0556 30.4226 35.9464 33.1572 38.7158 34.8409C42.2841 37.0105 46.8543 36.9907 50.4114 34.7904C52.8562 33.2781 54.646 30.8732 55.3808 28.1132C55.6349 27.1587 55.7028 26.6408 55.7261 25.481C55.7486 24.3582 55.7028 23.793 55.5171 22.9017C55.1576 21.1768 54.3487 19.4935 53.2168 18.1153C51.4039 15.9078 48.8926 14.4923 46.0779 14.0914C45.4675 14.0044 44.049 13.9707 43.4633 14.0292ZM43.5077 22.8221V26.2205C43.5077 26.632 43.8412 26.9655 44.2526 26.9655H44.5269H44.8012C45.2126 26.9655 45.5461 26.632 45.5461 26.2205V22.8221V19.4236C45.5461 19.0122 45.2126 18.6787 44.8012 18.6787H44.5269H44.2526C43.8412 18.6787 43.5077 19.0122 43.5077 19.4236V22.8221ZM12 34.366V47.3586C12 47.77 12.3335 48.1035 12.745 48.1035H28.8617H44.9784C45.3899 48.1035 45.7234 47.77 45.7234 47.3586V43.3208V39.2894C45.7234 38.8754 45.386 38.5409 44.9721 38.5444L44.8039 38.5459C44.2981 38.5502 43.7248 38.5456 43.5298 38.5355C43.3368 38.5256 43.1748 38.6791 43.1742 38.8723L43.164 42.0475L43.155 44.835C43.1537 45.2455 42.8205 45.5776 42.41 45.5776H28.8614H15.3152C14.9038 45.5776 14.5702 45.2441 14.5702 44.8326V36.338V27.8434C14.5702 27.432 14.9038 27.0984 15.3152 27.0984H22.6355H29.9558C30.3672 27.0984 30.7007 26.7649 30.7007 26.3535V23.8635V21.3735C30.7007 20.962 30.3672 20.6285 29.9558 20.6285H21.3504H12.745C12.3335 20.6285 12 20.962 12 21.3735V34.366ZM43.5077 30.0454V30.2975C43.5077 30.7089 43.8412 31.0424 44.2526 31.0424H44.5269H44.8012C45.2126 31.0424 45.5461 30.7089 45.5461 30.2975V30.0454V29.7932C45.5461 29.3818 45.2126 29.0483 44.8012 29.0483H44.5269H44.2526C43.8412 29.0483 43.5077 29.3818 43.5077 29.7932V30.0454Z" fill="#65DA01"/>
</svg>
