<svg width="99" height="115" viewBox="0 0 99 115" fill="none" xmlns="http://www.w3.org/2000/svg">
<g filter="url(#filter0_b_1592_278)">
<rect x="29.3333" width="69.6667" height="114.889" fill="url(#paint0_linear_1592_278)"/>
</g>
<g opacity="0.9" filter="url(#filter1_b_1592_278)">
<rect x="33" y="15.8889" width="62.3333" height="78.2222" fill="url(#paint1_linear_1592_278)"/>
</g>
<circle cx="64.1667" cy="104.5" r="5.5" fill="#1E723C"/>
<rect x="55" y="3.66669" width="18.3333" height="2.44444" rx="1.22222" fill="#1E723C"/>
<path d="M34.8334 43.0217C34.9685 43.0217 35.0781 42.9121 35.0781 42.7769V33.1939L72.8439 54.9991L35.0781 76.8043V67.2213C35.0781 67.0862 34.9685 66.9766 34.8334 66.9766H5.13367V43.0217H34.8334Z" fill="url(#paint2_linear_1592_278)" fill-opacity="0.9" stroke="url(#paint3_linear_1592_278)" stroke-width="0.489516" stroke-linecap="round" stroke-linejoin="round"/>
<path d="M12.2986 20.2428C12.4338 20.2428 12.5434 20.1332 12.5434 19.998V16.3119L27.6216 25.0178L12.5434 33.7237V30.0377C12.5434 29.9025 12.4338 29.7929 12.2986 29.7929H0.244758V20.2428H12.2986Z" fill="url(#paint4_linear_1592_278)" fill-opacity="0.9" stroke="url(#paint5_linear_1592_278)" stroke-width="0.489516" stroke-linecap="round" stroke-linejoin="round"/>
<path d="M12.2986 81.3539C12.4338 81.3539 12.5434 81.2443 12.5434 81.1091V77.4231L27.6216 86.129L12.5434 94.8349V91.1488C12.5434 91.0136 12.4338 90.9041 12.2986 90.9041H0.244758V81.3539H12.2986Z" fill="url(#paint6_linear_1592_278)" fill-opacity="0.9" stroke="url(#paint7_linear_1592_278)" stroke-width="0.489516" stroke-linecap="round" stroke-linejoin="round"/>
<defs>
<filter id="filter0_b_1592_278" x="16.2821" y="-13.0511" width="95.769" height="140.991" filterUnits="userSpaceOnUse" color-interpolation-filters="sRGB">
<feFlood flood-opacity="0" result="BackgroundImageFix"/>
<feGaussianBlur in="BackgroundImageFix" stdDeviation="6.52557"/>
<feComposite in2="SourceAlpha" operator="in" result="effect1_backgroundBlur_1592_278"/>
<feBlend mode="normal" in="SourceGraphic" in2="effect1_backgroundBlur_1592_278" result="shape"/>
</filter>
<filter id="filter1_b_1592_278" x="19.9489" y="2.83777" width="88.4355" height="104.325" filterUnits="userSpaceOnUse" color-interpolation-filters="sRGB">
<feFlood flood-opacity="0" result="BackgroundImageFix"/>
<feGaussianBlur in="BackgroundImageFix" stdDeviation="6.52557"/>
<feComposite in2="SourceAlpha" operator="in" result="effect1_backgroundBlur_1592_278"/>
<feBlend mode="normal" in="SourceGraphic" in2="effect1_backgroundBlur_1592_278" result="shape"/>
</filter>
<linearGradient id="paint0_linear_1592_278" x1="13.8907" y1="0.0391824" x2="88.8309" y2="153.639" gradientUnits="userSpaceOnUse">
<stop stop-color="#75EDA1"/>
<stop offset="1" stop-color="#349256"/>
</linearGradient>
<linearGradient id="paint1_linear_1592_278" x1="19.183" y1="15.9156" x2="61.4283" y2="129.704" gradientUnits="userSpaceOnUse">
<stop stop-color="#4EB975"/>
<stop offset="1" stop-color="#349256"/>
</linearGradient>
<linearGradient id="paint2_linear_1592_278" x1="15.585" y1="49.7208" x2="122.224" y2="63.5795" gradientUnits="userSpaceOnUse">
<stop stop-color="white"/>
<stop offset="1" stop-color="white" stop-opacity="0"/>
</linearGradient>
<linearGradient id="paint3_linear_1592_278" x1="6.83482" y1="39.1113" x2="49.6888" y2="54.8195" gradientUnits="userSpaceOnUse">
<stop stop-color="white"/>
<stop offset="1" stop-color="white" stop-opacity="0"/>
</linearGradient>
<linearGradient id="paint4_linear_1592_278" x1="4.39302" y1="22.85" x2="48.1911" y2="28.5419" gradientUnits="userSpaceOnUse">
<stop stop-color="white"/>
<stop offset="1" stop-color="white" stop-opacity="0"/>
</linearGradient>
<linearGradient id="paint5_linear_1592_278" x1="0.799209" y1="18.4925" x2="18.4" y2="24.9441" gradientUnits="userSpaceOnUse">
<stop stop-color="white"/>
<stop offset="1" stop-color="white" stop-opacity="0"/>
</linearGradient>
<linearGradient id="paint6_linear_1592_278" x1="4.39302" y1="83.9611" x2="48.1911" y2="89.6531" gradientUnits="userSpaceOnUse">
<stop stop-color="white"/>
<stop offset="1" stop-color="white" stop-opacity="0"/>
</linearGradient>
<linearGradient id="paint7_linear_1592_278" x1="0.799209" y1="79.6036" x2="18.4" y2="86.0552" gradientUnits="userSpaceOnUse">
<stop stop-color="white"/>
<stop offset="1" stop-color="white" stop-opacity="0"/>
</linearGradient>
</defs>
</svg>
