<svg width="48" height="48" viewBox="0 0 48 48" fill="none" xmlns="http://www.w3.org/2000/svg">
<path opacity="0.5" d="M0 15C0 6.71573 6.71573 0 15 0H33C41.2843 0 48 6.71573 48 15V33C48 41.2843 41.2843 48 33 48H15C6.71573 48 0 41.2843 0 33V15Z" fill="#30473A"/>
<path fill-rule="evenodd" clip-rule="evenodd" d="M20.9093 10.0386C20.9385 10.0386 20.9677 10.0386 20.9971 10.0386H26.42C27.6024 10.0385 28.6212 10.0385 29.4371 10.1481C30.3114 10.2657 31.1495 10.5308 31.8292 11.2106C32.5091 11.8903 32.7741 12.7284 32.8917 13.6028C33.0014 14.4186 33.0014 15.4374 33.0012 16.6197V30.1332C33.0014 31.3156 33.0014 32.3344 32.8917 33.1503C32.7741 34.0246 32.5091 34.8627 31.8292 35.5424C31.1495 36.2223 30.3114 36.4873 29.4371 36.6049C28.6212 36.7146 27.6024 36.7146 26.42 36.7144H20.9093C19.7269 36.7146 18.7081 36.7146 17.8923 36.6049C17.018 36.4873 16.1799 36.2223 15.5001 35.5424C14.8203 34.8627 14.5552 34.0246 14.4377 33.1503C14.328 32.3344 14.3281 31.3156 14.3281 30.1332V16.7075C14.3281 16.6782 14.3281 16.6489 14.3281 16.6197C14.3281 15.4374 14.328 14.4186 14.4377 13.6028C14.5552 12.7284 14.8203 11.8903 15.5001 11.2106C16.1799 10.5308 17.018 10.2657 17.8923 10.1481C18.7081 10.0385 19.7269 10.0385 20.9093 10.0386ZM21.664 31.3793C21.664 30.6426 22.2611 30.0455 22.9978 30.0455H24.3316C25.0682 30.0455 25.6654 30.6426 25.6654 31.3793C25.6654 32.1159 25.0682 32.7131 24.3316 32.7131H22.9978C22.2611 32.7131 21.664 32.1159 21.664 31.3793Z" fill="#65DA01"/>
<circle cx="23.5" cy="14.5" r="1.5" fill="#1C2D23"/>
</svg>
