<svg width="65" height="63" viewBox="0 0 65 63" fill="none" xmlns="http://www.w3.org/2000/svg">
<rect opacity="0.5" width="65" height="62.7391" rx="14.1304" fill="#1D2D24"/>
<path fill-rule="evenodd" clip-rule="evenodd" d="M24.9692 11.8669C21.7094 12.1338 18.877 14.3867 17.8766 17.5085C17.5755 18.4479 17.4704 19.233 17.5034 20.2957C17.5423 21.5489 17.7953 22.5705 18.3317 23.6412C19.5114 25.9955 21.6472 27.5915 24.2724 28.0805C24.7583 28.171 26.0199 28.2059 26.5495 28.1435C29.4085 27.8069 31.8386 26.0733 33.053 23.5041C34.4925 20.4588 33.9036 16.8208 31.5769 14.386C30.1474 12.8902 28.312 12.0201 26.2553 11.8631C25.6384 11.8161 25.5881 11.8162 24.9692 11.8669ZM41.2461 15.5107C41.1758 15.5209 40.9288 15.5686 40.6972 15.6166C38.5289 16.0662 36.6886 17.7073 35.987 19.8172C35.4691 21.3747 35.5758 23.1018 36.2812 24.5798C36.7059 25.4697 37.5171 26.436 38.3149 27.0024C39.0249 27.5064 39.8954 27.8846 40.7987 28.0814C41.3138 28.1936 42.709 28.1945 43.2264 28.0831C44.5538 27.797 45.5549 27.259 46.4902 26.3289C47.431 25.3933 47.9802 24.3823 48.2611 23.069C48.3407 22.6968 48.3568 22.4892 48.3568 21.8334C48.3568 21.1776 48.3407 20.9699 48.2611 20.5977C47.9805 19.2857 47.4324 18.2767 46.4898 17.3367C45.5723 16.4218 44.5735 15.8805 43.27 15.5917C42.9594 15.5229 41.5486 15.4664 41.2461 15.5107ZM41.033 30.0622C39.7749 30.1814 38.1961 30.6763 37.1556 31.2777C36.2414 31.806 35.6396 32.2678 34.9186 32.9943C32.5523 35.3786 31.5562 38.7352 32.2353 42.0359C32.6893 44.2423 33.8911 46.2428 35.6409 47.7045C36.8089 48.6801 38.3605 49.4398 39.8826 49.7813C40.7865 49.9841 42.1395 50.0566 43.0906 49.9533C47.3485 49.491 50.8842 46.3169 51.7879 42.1454C52.006 41.1388 52.0658 39.8133 51.9393 38.7907C51.5794 35.8836 49.9669 33.289 47.5099 31.6635C45.6363 30.424 43.3031 29.8472 41.033 30.0622ZM16.703 31.9173C15.2058 32.2375 14.0654 33.4998 13.8707 35.0522C13.8137 35.5069 13.814 38.1089 13.8711 38.8177C14.0732 41.3239 15.2943 43.19 17.6077 44.528C20.5851 46.2501 25.3417 46.83 29.6128 45.9918C30.1857 45.8794 31.4549 45.5507 31.5034 45.5023C31.5127 45.493 31.3954 45.2017 31.2429 44.855C30.7495 43.734 30.403 42.4708 30.2694 41.3059C30.1933 40.6422 30.205 39.2207 30.292 38.5576C30.6047 36.1752 31.5904 33.9786 33.1291 32.2351C33.2623 32.0842 33.1551 31.8467 32.9539 31.8468L25.2366 31.8501C18.0946 31.8531 16.9617 31.862 16.703 31.9173ZM41.7697 33.6855C41.6827 33.7095 41.5248 33.8054 41.4189 33.8986C41.0826 34.1946 41.097 34.0042 41.097 38.1843C41.097 40.8616 41.1106 41.9189 41.147 42.0635C41.218 42.3456 41.5174 42.6391 41.8044 42.708C42.2232 42.8085 42.6263 42.6214 42.8174 42.2378L42.8578 42.1567C42.9047 42.0626 42.9292 41.9588 42.9292 41.8535V38.1919V34.5372C42.9292 34.4275 42.9027 34.3195 42.8519 34.2224L42.8101 34.1424C42.6135 33.766 42.1753 33.5735 41.7697 33.6855ZM41.6355 44.4007C41.2173 44.5292 40.8839 45.0087 40.8839 45.4818C40.8839 45.8911 41.1834 46.3358 41.5715 46.5028C41.7478 46.5786 41.8514 46.5948 42.0738 46.5812C42.3997 46.5613 42.6053 46.4731 42.8155 46.2628C43.0258 46.0526 43.114 45.847 43.1339 45.5211C43.1561 45.1574 43.0369 44.8645 42.7717 44.631C42.4486 44.3466 42.065 44.2688 41.6355 44.4007Z" fill="#65DA01"/>
</svg>
