<svg width="98" height="23" viewBox="0 0 98 23" fill="none" xmlns="http://www.w3.org/2000/svg">
<g clip-path="url(#clip0_6411_97)">
<path d="M0 0H6.82787V22.4918H0V0Z" fill="#8A94A6"/>
<path fill-rule="evenodd" clip-rule="evenodd" d="M20.8855 0H14.0576V0.064325H13.8568L6.82812 6.89221H14.0576V22.4918H20.8855V6.89221V0.064325V0Z" fill="#8A94A6"/>
<path d="M38.1393 4.97949H35.321V11.7115H35.224L30.6257 4.97949H28.1953V16.6635H31.0193V9.92014H31.0935L35.7432 16.6635H38.1393V4.97949Z" fill="#8A94A6"/>
<path d="M42.3889 16.8116C43.6099 16.8116 44.4542 16.3381 44.9333 15.4424H45.002V16.6632H47.6263V10.7071C47.6263 8.85297 45.9776 7.78613 43.7469 7.78613C41.3905 7.78613 40.0555 8.97278 39.833 10.5702L42.4062 10.6615C42.5259 10.1024 42.9878 9.76007 43.724 9.76007C44.4084 9.76007 44.8421 10.091 44.8421 10.6786V10.7071C44.8421 11.2434 44.2602 11.3575 42.7653 11.4887C40.9912 11.6371 39.5078 12.2932 39.5078 14.2329C39.5078 15.9672 40.7117 16.8116 42.3889 16.8116ZM43.2505 14.986C42.6058 14.986 42.1492 14.6779 42.1492 14.096C42.1492 13.5311 42.5942 13.1889 43.3874 13.0691C43.9063 12.9949 44.5453 12.8808 44.859 12.7153V13.5483C44.859 14.404 44.1405 14.986 43.2505 14.986Z" fill="#8A94A6"/>
<path d="M50.7203 19.9496C52.7285 19.9496 53.727 18.934 54.2118 17.5021L57.5149 7.90609L54.5769 7.90039L52.9394 14.1532H52.8482L51.2336 7.90039H48.3125L51.4276 16.9829L51.3192 17.2453C51.0513 17.9014 50.4464 17.9128 49.6247 17.6447L49.0085 19.67C49.4311 19.8412 50.0528 19.9496 50.7203 19.9496Z" fill="#8A94A6"/>
<path d="M60.8185 16.8116C62.0394 16.8116 62.8837 16.3381 63.3632 15.4424H63.4315V16.6632H66.0558V10.7071C66.0558 8.85297 64.4071 7.78613 62.1764 7.78613C59.8204 7.78613 58.4853 8.97278 58.2628 10.5702L60.8357 10.6615C60.9554 10.1024 61.4177 9.76007 62.1535 9.76007C62.8383 9.76007 63.2717 10.091 63.2717 10.6786V10.7071C63.2717 11.2434 62.6897 11.3575 61.1952 11.4887C59.4208 11.6371 57.9375 12.2932 57.9375 14.2329C57.9375 15.9672 59.1412 16.8116 60.8185 16.8116ZM61.68 14.986C61.0353 14.986 60.5791 14.6779 60.5791 14.096C60.5791 13.5311 61.0241 13.1889 61.8169 13.0691C62.3363 12.9949 62.9753 12.8808 63.2889 12.7153V13.5483C63.2889 14.404 62.57 14.986 61.68 14.986Z" fill="#8A94A6"/>
<path d="M78.1508 10.8216C78.1508 7.12467 75.9828 4.81982 72.9934 4.81982C70.004 4.81982 67.8359 7.12467 67.8359 10.8216C67.8359 14.5185 70.004 16.8234 72.9934 16.8234C75.9828 16.8234 78.1508 14.5185 78.1508 10.8216ZM76.7817 10.8216C76.7817 13.8567 75.1157 15.4998 72.9934 15.4998C70.8711 15.4998 69.2051 13.8567 69.2051 10.8216C69.2051 7.78649 70.8711 6.14343 72.9934 6.14343C75.1157 6.14343 76.7817 7.78649 76.7817 10.8216Z" fill="#8A94A6"/>
<path d="M81.6979 11.3917C81.6979 9.86277 82.6449 8.99559 83.9342 8.99559C85.1837 8.99559 85.9424 9.81144 85.9424 11.1864V16.6632H87.2887V11.0951C87.2887 8.85867 86.0962 7.78613 84.3222 7.78613C82.9984 7.78613 82.177 8.37943 81.7661 9.26943H81.6521V7.90024H80.3516V16.6632H81.6979V11.3917Z" fill="#8A94A6"/>
<path d="M93.421 16.8458C95.2011 16.8458 96.5016 15.9558 96.9125 14.6322L95.6116 14.2671C95.2694 15.18 94.4765 15.6363 93.421 15.6363C91.8406 15.6363 90.7509 14.6151 90.6883 12.7381H97.0494V12.1677C97.0494 8.90434 95.1095 7.78613 93.2841 7.78613C90.9108 7.78613 89.3359 9.65741 89.3359 12.3502C89.3359 15.043 90.8879 16.8458 93.421 16.8458ZM90.6883 11.5743C90.7794 10.2108 91.7438 8.99559 93.2841 8.99559C94.7444 8.99559 95.6802 10.091 95.6802 11.5743H90.6883Z" fill="#8A94A6"/>
</g>
<defs>
<clipPath id="clip0_6411_97">
<rect width="98" height="22.4918" fill="white"/>
</clipPath>
</defs>
</svg>
