<svg width="104" height="13" viewBox="0 0 104 13" fill="none" xmlns="http://www.w3.org/2000/svg">
<g clip-path="url(#clip0_2272_10405)">
<path fill-rule="evenodd" clip-rule="evenodd" d="M22.7979 8.54773L21.4688 10.1107H19.0704L18.0805 8.86964L17.0768 10.0844L14.7121 10.1103L13.3826 8.54816C13.6139 10.9375 15.6334 12.806 18.0905 12.806C20.5475 12.806 22.5666 10.9375 22.7979 8.54773ZM22.3651 6.06735C21.9801 5.25994 21.3742 4.57819 20.6175 4.10114C19.8609 3.6241 18.9845 3.3713 18.09 3.37207C17.1955 3.3713 16.3192 3.6241 15.5625 4.10114C14.8058 4.57819 14.1999 5.25994 13.815 6.06735H22.3655H22.3651Z" fill="#FF284A"/>
<path fill-rule="evenodd" clip-rule="evenodd" d="M22.7464 7.41223H13.382C13.4148 7.18179 13.4649 6.95697 13.53 6.73862H22.5984C22.6632 6.95697 22.7132 7.18179 22.7464 7.41223ZM19.5312 2.57488C19.5312 2.68363 19.5264 2.78503 19.5165 2.87911C19.0584 2.75673 18.5861 2.69493 18.1119 2.69528C17.6735 2.69528 17.2476 2.74706 16.8389 2.84588C16.8313 2.75575 16.8277 2.66533 16.8281 2.57488V0.128596C17.2735 0.042658 17.7261 -0.000403128 18.1797 2.84381e-06C18.644 2.84381e-06 19.0962 0.0444494 19.5312 0.128596V2.57488ZM16.1524 2.57488C16.1524 2.73541 16.1692 2.89162 16.2007 3.04222C15.5036 3.30551 14.8683 3.70983 14.3346 4.22988C13.8009 4.74993 13.3802 5.37453 13.0989 6.06459H12.0305V5.31633C12.0305 2.99475 13.7523 1.02012 16.1524 0.296026V2.57488ZM12.0305 9.4339H12.8763C13.0682 10.1752 13.4164 10.8669 13.8977 11.4625V12.8032L12.0305 11.0392V9.4339ZM23.3475 9.4339C23.1746 10.1033 22.8737 10.733 22.4616 11.2881V12.7855L24.3288 11.0392V9.4339H23.3475ZM23.1249 6.06459H24.3288V5.31633C24.3288 2.99475 22.6071 1.02012 20.2069 0.296026V2.57532C20.2069 2.7531 20.1862 2.92614 20.1478 3.09098C20.8174 3.36298 21.4259 3.76624 21.9372 4.27701C22.4486 4.78777 22.8525 5.39572 23.1253 6.06502L23.1249 6.06459ZM11.3547 6.73862H12.7063V8.75986H11.3547V6.73862ZM23.518 6.73862H24.8695V8.75986H23.5176L23.518 6.73862Z" fill="#3F77FF"/>
<path d="M59.3755 1.62769H52.5669V11.2994H57.0297V6.45425H53.9594L55.6186 4.84511H58.9176V12.9266H57.0297V11.5432L55.6186 12.9271H52.3192L50.679 11.2998V1.62769L52.3192 0H57.7163L59.3755 1.62769ZM69.8183 12.9266H67.9493V8.08151H63.4676V12.9266H61.5797V1.62769L63.2389 0H69.8183V12.9266ZM69.1317 1.62769H63.4676V7.85712L64.8981 6.45425H67.9493V2.78762L69.1317 1.62769ZM83.2049 12.9081H81.3165V2.78762L82.4993 1.64625H80.9545L78.418 6.45425H77.0449L74.6038 1.64625H73.078L74.2603 2.78762V12.9081H72.3724V0H75.7482L77.7125 4.24659H77.9412L79.9434 0H83.2049V12.9081ZM92.3302 12.9266H85.7508V3.21741L87.41 1.62769H85.5221V0H92.3302V1.62769H87.6392V6.22943L89.0313 4.84511H92.3302V6.45425H87.6392V11.2994H92.3302V12.9266ZM102.937 1.62769H96.453V4.84511H100.82L102.441 6.45425V11.2994L100.82 12.9266H96.2048L94.5651 11.2994V10.0087L96.453 8.23125V11.2994H100.553V6.45425H96.2048L94.5651 4.84511V1.62769L96.2048 0H101.278L102.937 1.62769ZM33.6327 8.1005H28.9412V12.9456H27.0533V3.2364L28.7125 1.64625H26.8246V0.0185554H33.6327V1.64625H28.9412V7.87567L30.3337 6.47323H33.6327V8.1005ZM43.3117 1.64625H40.3558V12.9456H38.4679V1.64625H35.5309V0.0185554H43.3117V1.64625ZM9.17326 12.9266H5.5308L2.32633 1.6648H0.705536L1.8879 2.76863V12.9266H0V0H3.66145L6.82751 11.2994H8.46729L7.28492 10.1209V0H9.17326V12.9266Z" fill="#3F77FF"/>
</g>
<defs>
<clipPath id="clip0_2272_10405">
<rect width="103.133" height="12.9456" fill="white"/>
</clipPath>
</defs>
</svg>
