<svg width="173" height="36" viewBox="0 0 173 36" fill="none" xmlns="http://www.w3.org/2000/svg">
<path d="M24.7845 1.52786V24.1392V33.5325C24.7845 33.8522 24.3943 34.0124 24.1661 33.7862L17.2831 26.967C17.2152 26.8996 17.177 26.8083 17.177 26.7132V1.52786C17.177 1.32964 17.3392 1.16895 17.5393 1.16895H24.4222C24.6223 1.16895 24.7845 1.32963 24.7845 1.52786Z" fill="#8A94A6" stroke="#8A94A6" stroke-width="0.79257"/>
<path d="M2.5813 2.28993L24.6791 24.1835C24.747 24.2508 24.7852 24.342 24.7852 24.4372V33.5332C24.7852 33.8529 24.395 34.0131 24.1668 33.7869L2.06899 11.8934C2.00106 11.8261 1.96289 11.7348 1.96289 11.6396V2.54371C1.96289 2.22396 2.35309 2.06382 2.5813 2.28993Z" fill="#8A94A6" stroke="#8A94A6" stroke-width="0.79257"/>
<path d="M17.532 26.8655V16.4802L24.4365 23.383L24.4221 33.4699L17.532 26.8655Z" fill="#8A94A6"/>
<path d="M5.85667 35.0144C8.62991 35.0144 10.8781 32.7871 10.8781 30.0394C10.8781 27.2918 8.62991 25.0645 5.85667 25.0645C3.08342 25.0645 0.835266 27.2918 0.835266 30.0394C0.835266 32.7871 3.08342 35.0144 5.85667 35.0144Z" fill="#8A94A6"/>
<path d="M5.85543 34.4286C8.30241 34.4286 10.2861 32.4632 10.2861 30.0389C10.2861 27.6145 8.30241 25.6492 5.85543 25.6492C3.40845 25.6492 1.42477 27.6145 1.42477 30.0389C1.42477 32.4632 3.40845 34.4286 5.85543 34.4286Z" fill="#8A94A6"/>
<path d="M32.7718 8.45698H34.9267L49.156 26.3356L49.1723 26.3519V8.45698H51.7547V30.6219H49.567L35.3709 12.7922L35.3544 12.7759V30.6219H32.7718V8.45698ZM69.0633 31.0457C66.903 31.0457 64.9069 30.535 63.0759 29.5137C61.255 28.4815 59.8076 27.0853 58.7327 25.3252C57.669 23.5541 57.1371 21.6202 57.1371 19.5232C57.1371 17.4044 57.669 15.465 58.7327 13.7048C59.8076 11.9338 61.255 10.5377 63.0759 9.51634C64.8963 8.48411 66.892 7.96802 69.0633 7.96802C71.224 7.96802 73.2144 8.48411 75.0348 9.51634C76.8663 10.5377 78.3137 11.9338 79.3775 13.7048C80.4523 15.465 80.9895 17.4044 80.9895 19.5232C80.9895 21.6202 80.4523 23.5541 79.3775 25.3252C78.3137 27.0853 76.8663 28.4815 75.0348 29.5137C73.2144 30.535 71.224 31.0457 69.0633 31.0457ZM69.0633 28.6662C70.7634 28.6662 72.3258 28.2642 73.7516 27.4602C75.1884 26.6561 76.3234 25.5588 77.1566 24.168C78.0013 22.7664 78.4235 21.2181 78.4235 19.5232C78.4235 17.8173 78.0013 16.2636 77.1566 14.862C76.3234 13.4604 75.1884 12.3576 73.7516 11.5535C72.3258 10.7495 70.7634 10.3475 69.0633 10.3475C67.3637 10.3475 65.7955 10.7549 64.3587 11.5698C62.9329 12.3739 61.8037 13.4767 60.97 14.8783C60.1368 16.269 59.72 17.8173 59.72 19.5232C59.72 21.2181 60.1368 22.7664 60.97 24.168C61.8143 25.5588 62.9498 26.6561 64.375 27.4602C65.8008 28.2642 67.3637 28.6662 69.0633 28.6662ZM95.8798 8.45698C97.2944 8.45698 98.5555 8.74488 99.6631 9.32077C100.782 9.89662 101.654 10.706 102.279 11.7491C102.904 12.7922 103.216 13.9928 103.216 15.3509C103.216 16.4266 103.008 17.4099 102.592 18.3008C102.175 19.1809 101.588 19.9198 100.831 20.5173C100.086 21.104 99.2135 21.5223 98.2157 21.7722L103.693 30.6219H100.699L95.6001 22.1471C95.4466 22.158 95.2165 22.1634 94.9094 22.1634H88.9874V30.6219H86.4046V8.45698H95.8798ZM95.8307 19.9632C96.7409 19.9632 97.5577 19.7676 98.2817 19.3765C99.0162 18.9853 99.5919 18.4421 100.009 17.7467C100.426 17.0513 100.634 16.2582 100.634 15.3672C100.634 14.4871 100.42 13.6994 99.9923 13.004C99.5755 12.3087 98.9945 11.7654 98.2485 11.3743C97.5139 10.9722 96.6913 10.7712 95.7811 10.7712H88.9874V19.9632H95.8307ZM116.84 8.45698C119.176 8.45698 121.233 8.91875 123.009 9.84225C124.796 10.7658 126.178 12.0642 127.154 13.7375C128.13 15.4107 128.618 17.3392 128.618 19.5232C128.618 21.7179 128.13 23.6573 127.154 25.3414C126.189 27.0147 124.818 28.3131 123.042 29.2366C121.276 30.1602 119.231 30.6219 116.906 30.6219H108.796V8.45698H116.84ZM116.84 28.3077C118.704 28.3077 120.328 27.9491 121.71 27.232C123.091 26.5149 124.149 25.5044 124.884 24.2006C125.63 22.8859 126.003 21.3485 126.003 19.5884C126.003 17.8282 125.63 16.2799 124.884 14.9435C124.138 13.6071 123.069 12.5749 121.676 11.8469C120.284 11.1189 118.65 10.7549 116.774 10.7549H111.346V28.3077H116.84ZM134.017 8.45698H148.772V10.8039H136.6V18.2357H147.194V20.4358H136.6V28.2914H148.921V30.6219H134.017V8.45698ZM162.807 18.2193L172.25 30.6219H169.141L161.113 20.1099L156.721 25.4393V30.6219H154.138V8.45698H156.721V22.0167L167.907 8.45698H170.967L162.807 18.2193Z" fill="#8A94A6"/>
</svg>
