<svg width="176" height="42" viewBox="0 0 176 42" fill="none" xmlns="http://www.w3.org/2000/svg">
<path d="M27.7844 4.52786V27.1392V36.5325C27.7844 36.8522 27.3942 37.0124 27.166 36.7862L20.2831 29.967C20.2152 29.8996 20.177 29.8083 20.177 29.7132V4.52786C20.177 4.32964 20.3392 4.16895 20.5393 4.16895H27.4222C27.6222 4.16895 27.7844 4.32963 27.7844 4.52786Z" fill="#8B6CFE" stroke="white" stroke-width="0.79257"/>
<path d="M5.5813 5.28993L27.6791 27.1835C27.747 27.2508 27.7852 27.342 27.7852 27.4372V36.5332C27.7852 36.8529 27.395 37.0131 27.1668 36.7869L5.06899 14.8934C5.00106 14.8261 4.96289 14.7348 4.96289 14.6396V5.54371C4.96289 5.22396 5.35309 5.06382 5.5813 5.28993Z" fill="#78CAE7" stroke="white" stroke-width="0.79257"/>
<path d="M20.532 29.8655V19.4802L27.4364 26.383L27.4221 36.4699L20.532 29.8655Z" fill="#6A62FD"/>
<path d="M8.85661 38.0144C11.6298 38.0144 13.878 35.7871 13.878 33.0394C13.878 30.2918 11.6298 28.0645 8.85661 28.0645C6.08336 28.0645 3.83521 30.2918 3.83521 33.0394C3.83521 35.7871 6.08336 38.0144 8.85661 38.0144Z" fill="white"/>
<path d="M8.85534 37.4286C11.3023 37.4286 13.286 35.4632 13.286 33.0389C13.286 30.6145 11.3023 28.6492 8.85534 28.6492C6.40835 28.6492 4.42468 30.6145 4.42468 33.0389C4.42468 35.4632 6.40835 37.4286 8.85534 37.4286Z" fill="#4BC3FF"/>
<path d="M35.7717 11.457H37.9266L52.1559 29.3356L52.1723 29.3519V11.457H54.7547V33.6219H52.567L38.3708 15.7922L38.3544 15.7759V33.6219H35.7717V11.457ZM72.0632 34.0457C69.903 34.0457 67.9068 33.535 66.0758 32.5137C64.2549 31.4815 62.8075 30.0853 61.7327 28.3252C60.6689 26.5541 60.137 24.6202 60.137 22.5232C60.137 20.4044 60.6689 18.465 61.7327 16.7048C62.8075 14.9338 64.2549 13.5377 66.0758 12.5163C67.8963 11.4841 69.8919 10.968 72.0632 10.968C74.224 10.968 76.2143 11.4841 78.0347 12.5163C79.8662 13.5377 81.3136 14.9338 82.3774 16.7048C83.4522 18.465 83.9894 20.4044 83.9894 22.5232C83.9894 24.6202 83.4522 26.5541 82.3774 28.3252C81.3136 30.0853 79.8662 31.4815 78.0347 32.5137C76.2143 33.535 74.224 34.0457 72.0632 34.0457ZM72.0632 31.6662C73.7633 31.6662 75.3258 31.2642 76.7515 30.4602C78.1883 29.6561 79.3233 28.5588 80.1565 27.168C81.0013 25.7664 81.4234 24.2181 81.4234 22.5232C81.4234 20.8173 81.0013 19.2636 80.1565 17.862C79.3233 16.4604 78.1883 15.3576 76.7515 14.5535C75.3258 13.7495 73.7633 13.3475 72.0632 13.3475C70.3636 13.3475 68.7954 13.7549 67.3586 14.5698C65.9329 15.3739 64.8036 16.4767 63.97 17.8783C63.1368 19.269 62.7199 20.8173 62.7199 22.5232C62.7199 24.2181 63.1368 25.7664 63.97 27.168C64.8142 28.5588 65.9497 29.6561 67.375 30.4602C68.8007 31.2642 70.3636 31.6662 72.0632 31.6662ZM98.8797 11.457C100.294 11.457 101.555 11.7449 102.663 12.3208C103.782 12.8966 104.654 13.706 105.279 14.7491C105.904 15.7922 106.216 16.9928 106.216 18.3509C106.216 19.4266 106.008 20.4099 105.592 21.3008C105.175 22.1809 104.588 22.9198 103.831 23.5173C103.086 24.104 102.213 24.5223 101.216 24.7722L106.693 33.6219H103.699L98.6 25.1471C98.4465 25.158 98.2164 25.1634 97.9093 25.1634H91.9874V33.6219H89.4045V11.457H98.8797ZM98.8306 22.9632C99.7408 22.9632 100.558 22.7676 101.282 22.3765C102.016 21.9853 102.592 21.4421 103.009 20.7467C103.425 20.0513 103.634 19.2582 103.634 18.3672C103.634 17.4871 103.42 16.6994 102.992 16.004C102.575 15.3087 101.994 14.7654 101.248 14.3743C100.514 13.9722 99.6913 13.7712 98.781 13.7712H91.9874V22.9632H98.8306ZM119.84 11.457C122.176 11.457 124.232 11.9188 126.009 12.8423C127.796 13.7658 129.178 15.0642 130.154 16.7375C131.13 18.4107 131.618 20.3392 131.618 22.5232C131.618 24.7179 131.13 26.6573 130.154 28.3414C129.189 30.0147 127.818 31.3131 126.042 32.2366C124.276 33.1602 122.231 33.6219 119.906 33.6219H111.796V11.457H119.84ZM119.84 31.3077C121.704 31.3077 123.328 30.9491 124.709 30.232C126.091 29.5149 127.149 28.5044 127.884 27.2006C128.63 25.8859 129.003 24.3485 129.003 22.5884C129.003 20.8282 128.63 19.2799 127.884 17.9435C127.138 16.6071 126.069 15.5749 124.676 14.8469C123.284 14.1189 121.65 13.7549 119.774 13.7549H114.346V31.3077H119.84ZM137.017 11.457H151.772V13.8039H139.6V21.2357H150.194V23.4358H139.6V31.2914H151.921V33.6219H137.017V11.457ZM165.807 21.2193L175.25 33.6219H172.141L164.113 23.1099L159.721 28.4393V33.6219H157.138V11.457H159.721V25.0167L170.907 11.457H173.967L165.807 21.2193Z" fill="white"/>
</svg>
