<svg width="81" height="18" viewBox="0 0 81 18" fill="none" xmlns="http://www.w3.org/2000/svg">
<g clip-path="url(#clip0_2272_10387)">
<path d="M4.25315 16.2803L0.593855 16.3784L0.430494 15.3655L2.84824 15.0715V2.95006L0.463166 3.17877L0.299805 2.16593L3.9591 1.12041L5.20064 1.0224L5.39668 3.79954L10.1995 0.597656C11.2668 0.597656 12.1163 0.695673 12.7479 0.891707C13.3796 1.08774 13.8588 1.40357 14.1855 1.8392C14.534 2.27483 14.7518 2.84115 14.839 3.53816C14.9479 4.21339 15.0023 5.04108 15.0023 6.02125V15.0715L17.6488 15.3655L17.4854 16.3784L13.8261 16.2803L10.8529 16.3784L10.6896 15.3655L12.4212 15.0715V5.59651C12.4212 4.68169 12.2252 4.01735 11.8331 3.60351C11.441 3.16788 10.8638 2.95006 10.1015 2.95006C9.4916 2.95006 8.89261 3.11342 8.30451 3.44014C7.70211 3.7756 7.11353 4.13529 6.54021 4.51833L5.46202 5.20445V15.0715L7.38969 15.3655L7.22633 16.3784L4.25315 16.2803ZM31.7503 12.131C31.7503 12.8715 31.7823 13.4161 31.8476 13.7646C31.9136 14.0913 32.0008 14.3854 32.1097 14.6467H33.8413L33.9713 15.6596L30.1486 16.4437L29.2345 13.8626L24.4317 16.8358C23.3201 16.8358 22.4387 16.7269 21.7845 16.5091C21.1536 16.2912 20.6635 15.9645 20.3143 15.5289C19.9658 15.0933 19.7371 14.5378 19.6282 13.8626C19.5417 13.1656 19.4982 12.3488 19.4982 11.4122V2.95006L17.0477 3.11342L16.8844 1.93722L20.6737 1.12041L22.0793 0.989724V11.9349C22.0793 12.8498 22.2753 13.5032 22.6674 13.8953C23.0588 14.2873 23.6686 14.4834 24.497 14.4834C25.0633 14.4834 25.6841 14.2982 26.3593 13.9279C27.0707 13.5272 27.7681 13.1022 28.4504 12.6537L29.1365 12.229V2.95006L27.0781 3.11342L26.9148 1.93722L30.3454 1.12041L31.7496 0.989724L31.7503 12.131ZM56.7718 16.2803L53.8639 16.3784L53.7006 15.3655L55.4649 15.0715V5.59651C55.4649 4.68169 55.2797 4.01735 54.9095 3.60351C54.561 3.18966 54.0709 2.98273 53.4392 2.98273C52.9382 2.98273 52.3719 3.1352 51.7402 3.44014C51.1304 3.74509 50.5205 4.11537 49.9106 4.551L48.8658 5.26979V15.0715L50.4014 15.3655L50.238 16.3784L47.6896 16.2803L44.8798 16.3784L44.7164 15.3655L46.2847 15.0715V5.59651C46.2847 4.68169 46.0995 4.01735 45.7292 3.60351C45.3807 3.18966 44.8906 2.98273 44.259 2.98273C43.758 2.98273 43.1917 3.1352 42.56 3.44014C41.9501 3.74509 41.3403 4.11537 40.7304 4.551L39.6522 5.26979V15.0715L41.4165 15.3655L41.2531 16.3784L38.5413 16.2803L34.784 16.3784L34.6207 15.3655L37.0384 15.0715V2.95006L34.6533 3.17877L34.49 2.16593L38.2146 1.12041L39.4562 1.0224L39.5868 3.76687L44.1283 0.597656C44.9124 0.597656 45.5768 0.663001 46.1213 0.79369C46.6658 0.924379 47.1124 1.12041 47.4609 1.38179C47.8094 1.64317 48.0816 1.98078 48.2777 2.39463C48.4737 2.80848 48.6153 3.28767 48.7024 3.83221L53.2765 0.597656C54.3438 0.597656 55.1933 0.706564 55.825 0.924379C56.4566 1.14219 56.9358 1.4907 57.2625 1.96989C57.5893 2.44908 57.7962 3.05897 57.8833 3.79954C57.9922 4.54011 58.0467 5.43315 58.0467 6.47866V15.0715L60.6605 15.3655L60.4971 16.3784L56.7718 16.2803ZM69.6338 8.56969L64.4389 10.7261C64.2133 10.943 64.0449 11.2124 63.9488 11.5102C63.8617 11.7934 63.8181 12.1092 63.8181 12.4577C63.8181 13.3072 64.025 13.8953 64.4389 14.222C64.8527 14.5487 65.3101 14.7121 65.8111 14.7121C66.3121 14.7121 66.7586 14.6032 67.1507 14.3854C67.5427 14.1458 67.8477 13.9497 68.0655 13.7973L69.6338 12.7191V8.56969ZM67.3467 0.597656C68.3487 0.597656 69.1655 0.673892 69.7971 0.826362C70.4288 0.957051 70.9189 1.21843 71.2674 1.6105C71.6377 2.00256 71.8882 2.5471 72.0188 3.24411C72.1495 3.91934 72.2149 4.7906 72.2149 5.85789V12.2617C72.2149 12.9804 72.2693 13.5141 72.3782 13.8626C72.4871 14.1893 72.6287 14.4725 72.803 14.7121H74.4693L74.5673 15.7249L70.81 16.4437L69.8298 13.9606L65.8764 16.8358C64.5042 16.8358 63.3825 16.4764 62.5112 15.7576C61.6399 15.0388 61.2043 14.026 61.2043 12.7191C61.2043 12.1527 61.2914 11.6627 61.4657 11.2488C61.6399 10.8132 61.9013 10.334 62.2498 9.81124L69.6338 7.32814V5.75987C69.6338 5.28068 69.612 4.84505 69.5684 4.45298C69.5466 4.03914 69.4704 3.69063 69.3397 3.40747C69.2189 3.11349 68.9994 2.87084 68.7189 2.72135C68.4576 2.5471 68.0873 2.45998 67.6081 2.45998C67.1289 2.45998 66.617 2.52532 66.0725 2.65601C65.5497 2.7867 65.0923 2.92828 64.7002 3.08075L64.1122 5.43315H61.7271V3.14609L67.3467 0.597656Z" fill="white"/>
<path d="M78.6179 17.024C79.9337 17.024 81.0003 15.9574 81.0003 14.6416C81.0003 13.3259 79.9337 12.2593 78.6179 12.2593C77.3022 12.2593 76.2356 13.3259 76.2356 14.6416C76.2356 15.9574 77.3022 17.024 78.6179 17.024Z" fill="white"/>
</g>
<defs>
<clipPath id="clip0_2272_10387">
<rect width="81" height="17.0168" fill="white" transform="translate(0 0.00292969)"/>
</clipPath>
</defs>
</svg>
