<svg width="95" height="25" viewBox="0 0 95 25" fill="none" xmlns="http://www.w3.org/2000/svg">
<path fill-rule="evenodd" clip-rule="evenodd" d="M29.5273 7.61719H34.3218C37.7521 7.61719 39.2333 7.69531 39.6036 7.87109C39.8765 7.98828 40.1494 8.32031 40.2273 8.59375C40.3053 8.86719 40.3638 10.625 40.3638 12.5C40.3638 15.3125 40.3053 16.0156 40.0519 16.4062C39.8765 16.6797 39.4672 16.9531 39.0774 17.0508C38.7071 17.1289 36.5827 17.1875 34.3218 17.1875C32.061 17.1875 29.9366 17.1094 29.5857 16.9922C29.2154 16.875 28.8841 16.6016 28.7672 16.3086C28.6502 16.0352 28.5723 14.1992 28.5723 12.207C28.5918 8.63281 28.5918 8.57422 29.0595 8.10547L29.5273 7.61719ZM30.7162 15.2344L38.1224 15.332V9.375H30.7162V15.2344ZM45.3337 7.61719H54.689L55.1762 8.10547C55.5855 8.51562 55.6635 8.76953 55.6635 9.86328C55.6635 10.9375 55.5855 11.1914 55.1762 11.6211C54.9228 11.875 54.5525 12.1094 54.3576 12.1094C54.1238 12.1094 54.2212 12.207 54.5915 12.3633C54.9034 12.5195 55.2932 12.7539 55.4101 12.9102C55.5855 13.0859 55.644 13.6914 55.605 14.7266C55.566 16.1523 55.527 16.2891 55.0203 16.6797C54.4941 17.0508 54.2017 17.0898 45.3337 17.1875V7.61719ZM47.4776 11.3281C51.7849 11.3086 53.1492 11.25 53.2857 11.1719C53.4416 11.0742 53.5196 10.7031 53.4806 10.1562L53.4221 9.27734L47.4776 9.16016V11.3281ZM47.4776 15.4297C52.5256 15.4297 53.1687 15.3711 53.4221 15.1367C53.578 14.9805 53.7145 14.6289 53.7145 14.3555C53.7145 14.082 53.6365 13.6914 53.5196 13.4766C53.3441 13.1055 53.1298 13.0859 50.4011 13.0859H47.4776V15.4297ZM60.3411 7.61719H62.3875L62.2901 17.1875H60.3411V7.61719ZM67.5524 7.61719H69.6963V15.4297L76.2255 15.332V7.61719H78.2719V11.8164C78.2719 14.2188 78.194 16.1914 78.077 16.4062C77.9796 16.6211 77.6093 16.8945 77.2585 16.9922C76.9076 17.1094 74.9586 17.1875 72.9122 17.1875C70.8852 17.1875 68.9362 17.1094 68.5854 16.9922C68.2346 16.8945 67.8643 16.6211 67.7473 16.4062C67.6499 16.1914 67.5524 14.2188 67.5524 11.8164V7.61719ZM92.6946 7.61719L93.1819 8.10547C93.4937 8.41797 93.6691 8.80859 93.6691 9.17969C93.6691 9.6875 93.5911 9.78516 92.948 9.96094C92.5387 10.0586 92.1489 10.1562 92.0709 10.1562C91.993 10.1562 91.915 9.94141 91.915 9.17969H85.2884L85.3858 11.2305L89.0889 11.3477C91.1354 11.4062 92.9285 11.5039 93.0844 11.582C93.2598 11.6602 93.4937 11.9336 93.6301 12.207C93.7666 12.4805 93.864 13.3984 93.864 14.2578C93.864 15.1172 93.7666 16.0352 93.6301 16.3086C93.4937 16.582 93.1234 16.8945 92.7921 16.9922C92.4802 17.1094 90.5507 17.1875 88.5042 17.1875C86.4773 17.1875 84.5283 17.1094 84.1774 16.9922C83.7097 16.8555 83.4953 16.6211 83.3394 16.1719C83.2419 15.8203 83.1445 15.3516 83.1445 15.1367C83.1445 14.8633 83.3199 14.707 83.7876 14.5898C84.1385 14.5117 84.5478 14.4531 84.7037 14.4531C84.8791 14.4531 84.996 14.6289 84.996 14.9023C84.996 15.332 85.0155 15.332 92.1099 15.4297L92.0125 13.1836L88.3093 13.0859C86.2824 13.0273 84.4893 12.9297 84.3139 12.8516C84.158 12.7734 83.9046 12.4609 83.7682 12.168C83.5927 11.7969 83.5343 11.0938 83.5927 10C83.6512 8.57422 83.7292 8.30078 84.119 7.98828C84.5283 7.65625 84.9181 7.61719 92.6946 7.61719V7.61719Z" fill="#FEFEFE"/>
<path fill-rule="evenodd" clip-rule="evenodd" d="M10.9917 0C11.1086 0 13.6423 1.38672 21.9256 6.15234L21.9646 18.6523L11.0307 25L0.116211 18.75V6.15234L5.437 3.08594C8.34102 1.38672 10.8552 0.0195312 10.9917 0ZM5.96323 4.49219V13.0859C4.61842 13.8672 4.59893 13.8867 4.59893 15.0977V16.3086L6.54793 17.3828L8.39949 16.2695C8.49694 13.8867 8.49694 13.8672 7.81479 13.4766L7.13264 13.0859L7.15213 5.37109L10.9332 3.16406L18.9241 7.73437C19.0995 9.21875 19.236 9.45312 19.7622 9.76562L20.3859 10.1562L20.2884 6.97266C14.8507 3.80859 12.7458 2.61719 12.1026 2.26562L10.9332 1.62109L5.96323 4.49219ZM9.08164 7.20703L8.98419 8.41797L11.0307 9.57031L12.395 8.78906L19.0411 12.5977L19.0216 17.0898L11.0307 21.6797C9.78329 20.9375 9.74431 20.9375 9.14011 21.3086C8.78929 21.5039 8.49694 21.7188 8.49694 21.7773C8.49694 21.8359 9.06215 22.1875 9.7638 22.5586L11.0307 23.2422L20.3859 17.8711L20.2884 11.875L13.0771 7.71484C12.9797 6.11328 12.9017 6.01562 12.0052 5.46875C11.4789 5.13672 11.0112 4.88281 10.9917 4.90234C10.9527 4.90234 10.5434 5.15625 10.0561 5.44922C9.19858 5.97656 9.17909 5.99609 9.08164 7.20703ZM1.77287 6.95312L1.67542 17.8711C5.33955 19.9805 6.54793 20.625 6.72335 20.6641C6.89876 20.7031 8.5749 19.8242 10.4459 18.7305C12.317 17.6367 13.9152 16.6992 14.0126 16.6602C14.0906 16.6211 14.4609 16.7773 14.8312 16.9922L15.5134 17.3828L17.3649 16.2891L17.4624 13.7695L15.5134 12.6953C13.6423 13.7305 13.5838 13.8281 13.5254 14.6289L13.4669 15.5078L6.93774 19.3359L3.03972 17.0898V7.8125C4.20913 7.10938 4.30658 6.91406 4.36505 6.25C4.38454 5.82031 4.38454 5.46875 4.36505 5.46875C4.32607 5.46875 3.74136 5.80078 3.03972 6.21094L1.77287 6.95312Z" fill="#0166E0"/>
<path d="M90.4533 11.2695C89.4983 11.3086 87.9586 11.3086 87.0426 11.2695C86.1265 11.25 86.9256 11.2109 88.7967 11.2109C90.6677 11.2109 91.4084 11.25 90.4533 11.2695Z" fill="white" fill-opacity="0.2"/>
<path d="M74.6664 15.3711C73.8088 15.4102 72.3081 15.4102 71.3531 15.3711C70.3981 15.3516 71.0802 15.3125 72.9123 15.3125C74.7443 15.3125 75.5239 15.3516 74.6664 15.3711Z" fill="white" fill-opacity="0.2"/>
<path d="M90.161 15.3711C89.1475 15.4102 87.5688 15.4102 86.6528 15.3711C85.7367 15.3516 86.5748 15.3125 88.5043 15.3125C90.4338 15.3125 91.1745 15.3516 90.161 15.3711Z" fill="white" fill-opacity="0.2"/>
<path d="M36.5633 17.3242C35.3354 17.3633 33.3669 17.3633 32.178 17.3242C30.9891 17.3047 32.0026 17.2656 34.4194 17.2656C36.8362 17.2656 37.7912 17.3047 36.5633 17.3242Z" fill="white" fill-opacity="0.2"/>
<path d="M51.3757 17.3242C50.1479 17.3633 48.2184 17.3633 47.0879 17.3242C45.9575 17.3047 46.971 17.2656 49.3293 17.2656C51.6876 17.2656 52.6036 17.3047 51.3757 17.3242Z" fill="white" fill-opacity="0.2"/>
<path d="M61.9004 17.3242C61.5301 17.3633 60.9454 17.3633 60.6335 17.3242C60.3217 17.2852 60.614 17.2461 61.3157 17.2461C62.0173 17.2461 62.2707 17.2852 61.9004 17.3242Z" fill="white" fill-opacity="0.2"/>
<path d="M74.9587 17.3242C73.9452 17.3633 72.1911 17.3633 71.0607 17.3242C69.9303 17.3047 70.7684 17.2656 72.9123 17.2656C75.0562 17.2656 75.9722 17.3047 74.9587 17.3242Z" fill="white" fill-opacity="0.2"/>
<path d="M90.4533 17.3242C89.4983 17.3633 87.8222 17.3633 86.7502 17.3242C85.6783 17.3047 86.4774 17.2656 88.5043 17.2656C90.5313 17.2656 91.4084 17.3047 90.4533 17.3242Z" fill="white" fill-opacity="0.2"/>
<path d="M60.2054 12.5977C60.2054 10.0195 60.2249 7.8125 60.2638 7.67578C60.3028 7.53906 60.3613 7.42188 60.3808 7.42188C60.4198 7.42188 60.4003 9.64844 60.2444 17.2852L60.2054 12.5977Z" fill="#FEFEFE" fill-opacity="0.8"/>
<path d="M78.3701 15.1367L78.2727 11.2891C78.2142 9.17969 78.2337 7.5 78.3116 7.57812C78.4091 7.65625 78.4481 9.39453 78.3701 15.1367Z" fill="#FEFEFE" fill-opacity="0.8"/>
<path d="M62.4272 14.8438C62.4078 16.1914 62.3688 15.1367 62.3688 12.5C62.3688 9.86328 62.4078 8.76953 62.4272 10.0586C62.4662 11.3477 62.4662 13.4961 62.4272 14.8438Z" fill="#FEFEFE" fill-opacity="0.8"/>
<path d="M76.2652 13.4766C76.2457 14.4922 76.2067 13.6133 76.2067 11.5234C76.2067 9.43359 76.2457 8.59375 76.2652 9.66797C76.3042 10.7422 76.3042 12.4609 76.2652 13.4766Z" fill="#FEFEFE" fill-opacity="0.8"/>
<path d="M85.4255 10.6445C85.3865 10.9766 85.3476 10.7422 85.3476 10.1562C85.3476 9.57031 85.3865 9.29688 85.4255 9.57031C85.4645 9.84375 85.4645 10.332 85.4255 10.6445Z" fill="#FEFEFE" fill-opacity="0.8"/>
<path d="M92.0521 14.8438C92.0132 15.2148 91.9742 15 91.9742 14.3555C91.9742 13.7109 92.0132 13.3984 92.0521 13.6719C92.0911 13.9453 92.0911 14.4727 92.0521 14.8438Z" fill="#FEFEFE" fill-opacity="0.8"/>
<path d="M55.8006 15.1367C55.7616 15.4688 55.7227 15.2344 55.7227 14.6484C55.7227 14.0625 55.7616 13.7891 55.8006 14.0625C55.8396 14.3359 55.8396 14.8242 55.8006 15.1367Z" fill="#FEFEFE" fill-opacity="0.8"/>
<path d="M69.2088 7.5625C68.897 7.60156 68.4097 7.60156 68.1369 7.5625C67.864 7.52344 68.1369 7.48438 68.7216 7.48438C69.3063 7.48438 69.5207 7.52344 69.2088 7.5625Z" fill="#FEFEFE" fill-opacity="0.6"/>
<path d="M45.275 14.9453C45.2555 16.2344 45.2165 15.082 45.2165 12.4062C45.2165 9.71094 45.2555 8.65625 45.275 10.0625C45.314 11.4688 45.314 13.6562 45.275 14.9453Z" fill="#FEFEFE" fill-opacity="0.6"/>
<path d="M67.4937 13.4805C67.4742 14.6133 67.4352 13.7344 67.4352 11.5273C67.4352 9.32031 67.4742 8.40234 67.4937 9.47656C67.5327 10.5508 67.5327 12.3477 67.4937 13.4805Z" fill="#FEFEFE" fill-opacity="0.6"/>
<path d="M28.5135 13.8711C28.4941 14.7891 28.4551 14.0859 28.4551 12.3086C28.4551 10.5312 28.4941 9.78906 28.5135 10.6484C28.5525 11.5078 28.5525 12.9531 28.5135 13.8711Z" fill="#FEFEFE" fill-opacity="0.6"/>
<path d="M36.661 7.5625C35.4722 7.60156 33.6011 7.60156 32.4707 7.5625C31.3403 7.54297 32.3148 7.50391 34.6146 7.50391C36.9144 7.50391 37.8499 7.54297 36.661 7.5625Z" fill="#FEFEFE" fill-opacity="0.6"/>
<path d="M52.0582 7.5625C50.9862 7.60156 49.2711 7.60156 48.2576 7.5625C47.2442 7.54297 48.1212 7.50391 50.2066 7.50391C52.2921 7.50391 53.1302 7.54297 52.0582 7.5625Z" fill="#FEFEFE" fill-opacity="0.6"/>
<path d="M61.7058 7.5625C61.4329 7.60156 61.0431 7.60156 60.8287 7.5625C60.6143 7.52344 60.8287 7.48438 61.316 7.48438C61.8032 7.48438 61.9786 7.52344 61.7058 7.5625Z" fill="#FEFEFE" fill-opacity="0.6"/>
<path d="M77.5902 7.5625C77.2784 7.60156 76.7911 7.60156 76.5182 7.5625C76.2454 7.52344 76.5182 7.48438 77.1029 7.48438C77.6876 7.48438 77.902 7.52344 77.5902 7.5625Z" fill="#FEFEFE" fill-opacity="0.6"/>
<path d="M90.2587 7.5625C89.3037 7.60156 87.764 7.60156 86.848 7.5625C85.9319 7.54297 86.731 7.50391 88.6021 7.50391C90.4731 7.50391 91.2138 7.54297 90.2587 7.5625Z" fill="#FEFEFE" fill-opacity="0.6"/>
<path d="M0.0584702 15.6188C0.0389801 17.3962 0 15.9899 0 12.4938C0 8.99775 0.0389801 7.55243 0.0584702 9.27118C0.0974504 10.9899 0.0974504 13.8415 0.0584702 15.6188Z" fill="#0166E0" fill-opacity="0.2"/>
<path d="M90.4531 13.2227C89.5955 13.2617 88.0948 13.2617 87.1398 13.2227C86.1847 13.2031 86.8669 13.1641 88.699 13.1641C90.531 13.1641 91.3106 13.2031 90.4531 13.2227Z" fill="#FEFCFE" fill-opacity="0.4"/>
<path d="M94.0003 14.8438C93.9613 15.2148 93.9223 15 93.9223 14.3555C93.9223 13.7109 93.9613 13.3984 94.0003 13.6719C94.0392 13.9453 94.0392 14.4727 94.0003 14.8438Z" fill="#FEFCFE" fill-opacity="0.4"/>
<path d="M83.4754 10.7398C83.4364 11.1109 83.3975 10.8961 83.3975 10.2515C83.3975 9.60701 83.4364 9.29451 83.4754 9.56795C83.5144 9.84139 83.5144 10.3687 83.4754 10.7398Z" fill="#FEFEFE" fill-opacity="0.3"/>
<path d="M36.2711 9.31641C35.1991 9.35547 33.484 9.35547 32.4705 9.31641C31.457 9.29688 32.3341 9.25781 34.4195 9.25781C36.5049 9.25781 37.343 9.29688 36.2711 9.31641Z" fill="white" fill-opacity="0.2"/>
<path d="M36.2711 15.3711C35.3161 15.4102 33.6399 15.4102 32.568 15.3711C31.496 15.3516 32.2951 15.3125 34.3221 15.3125C36.349 15.3125 37.2261 15.3516 36.2711 15.3711Z" fill="white" fill-opacity="0.2"/>
<path d="M47.3808 15.5234L47.3613 14.2539L47.3418 12.9844L47.4782 15.4258L53.1303 15.5234H47.3808Z" fill="#FEFEFE" fill-opacity="0.8"/>
<path d="M51.3761 11.4648C50.577 11.5039 49.3492 11.5039 48.6475 11.4648C47.9459 11.4258 48.6085 11.4062 50.1093 11.4062C51.61 11.4062 52.1752 11.4453 51.3761 11.4648Z" fill="#FEFEFE" fill-opacity="0.6"/>
<path d="M51.3761 13.0273C50.577 13.0664 49.3492 13.0664 48.6475 13.0273C47.9459 12.9883 48.6085 12.9687 50.1093 12.9687C51.61 12.9687 52.1752 13.0078 51.3761 13.0273Z" fill="#FEFEFE" fill-opacity="0.6"/>
<path d="M1.61804 15.0423C1.59855 16.6048 1.55957 15.4134 1.55957 12.4056C1.55957 9.39775 1.59855 8.12822 1.61804 9.57353C1.65702 11.0188 1.65702 13.4798 1.61804 15.0423Z" fill="#0366E0" fill-opacity="0.5"/>
<path d="M38.2587 13.8694C38.2392 14.7873 38.2002 14.0842 38.2002 12.3069C38.2002 10.5295 38.2392 9.78733 38.2587 10.6467C38.2976 11.5061 38.2976 12.9514 38.2587 13.8694Z" fill="#FEFEFE" fill-opacity="0.6"/>
<path d="M3.17663 14.646C3.15714 15.9937 3.11816 14.978 3.11816 12.3999C3.11816 9.82179 3.15714 8.72804 3.17663 9.95851C3.21561 11.189 3.21561 13.2984 3.17663 14.646Z" fill="#0866DF" fill-opacity="0.7"/>
<path d="M5.90613 8.2966C5.86715 9.05832 5.84766 8.53098 5.84766 7.12473C5.84766 5.71848 5.86715 5.11301 5.90613 5.75754C5.94511 6.40207 5.94511 7.53488 5.90613 8.2966Z" fill="#0166E0" fill-opacity="0.2"/>
<path d="M9.02454 7.61301C8.98556 7.9841 8.94658 7.76926 8.94658 7.12473C8.94658 6.4802 8.98556 6.1677 9.02454 6.44113C9.06352 6.71457 9.06352 7.24192 9.02454 7.61301Z" fill="#0166E0" fill-opacity="0.2"/>
<path d="M51.4737 9.12097C50.7135 9.15995 49.5441 9.15995 48.8425 9.12097C48.1409 9.08199 48.7645 9.0625 50.2068 9.0625C51.6491 9.0625 52.2338 9.08199 51.4737 9.12097Z" fill="#FEFCFE" fill-opacity="0.4"/>
<path d="M7.19188 9.375C7.17239 7.40234 7.19188 5.66406 7.25035 5.52734C7.28933 5.39062 7.3478 5.27344 7.36729 5.27344C7.40627 5.27344 7.38678 7.01172 7.23086 12.9883L7.19188 9.375Z" fill="#2B68E0" fill-opacity="0.6"/>
<path d="M18.9639 15.918C18.9249 16.5625 18.9054 16.0742 18.9054 14.8438C18.9054 13.6133 18.9249 13.0859 18.9639 13.6719C19.0029 14.2578 19.0029 15.2734 18.9639 15.918Z" fill="#2B68E0" fill-opacity="0.6"/>
<path d="M20.5233 9.3737C20.4843 9.86198 20.4453 9.51041 20.4453 8.59245C20.4453 7.67448 20.4843 7.28385 20.5233 7.71354C20.5623 8.14323 20.5623 8.88541 20.5233 9.3737Z" fill="#0666E0" fill-opacity="0.6"/>
<path d="M20.5233 16.4049C20.5038 17.3229 20.4648 16.6589 20.4648 14.9401C20.4648 13.2214 20.5038 12.4792 20.5233 13.2799C20.5623 14.0807 20.5623 15.487 20.5233 16.4049Z" fill="#0666E0" fill-opacity="0.6"/>
<path d="M5.8272 13.1211C5.72975 13.1992 5.71026 12.3984 5.76873 11.3633L5.86618 9.46875L5.92465 11.2266C5.94414 12.1836 5.90516 13.043 5.8272 13.1211Z" fill="#2F6CE0" fill-opacity="0.3"/>
<path d="M17.5992 15.6211C17.5602 15.9922 17.5212 15.7383 17.5212 15.0352C17.5212 14.332 17.5602 14.0195 17.5992 14.3516C17.6382 14.6641 17.6382 15.25 17.5992 15.6211Z" fill="#2F6CE0" fill-opacity="0.3"/>
<path d="M4.54085 15.5234C4.50187 15.8359 4.46289 15.6211 4.46289 15.0352C4.46289 14.4492 4.50187 14.1758 4.54085 14.4492C4.57983 14.7227 4.57983 15.1914 4.54085 15.5234Z" fill="#2F6CE0" fill-opacity="0.3"/>
<path d="M8.63377 15.5234C8.59479 15.8359 8.55581 15.6211 8.55581 15.0352C8.55581 14.4492 8.59479 14.1758 8.63377 14.4492C8.67275 14.7227 8.67275 15.1914 8.63377 15.5234Z" fill="#2F6CE0" fill-opacity="0.3"/>
</svg>
