<svg width="59" height="74" viewBox="0 0 59 74" fill="none" xmlns="http://www.w3.org/2000/svg">
<path d="M27.7529 0.528137C28.87 0.144156 30.0828 0.140548 31.2021 0.517395L55.5322 8.7088C55.9658 8.85483 56.3754 9.06404 56.748 9.32892L56.876 9.41974L57.0859 9.57892C58.1112 10.4051 58.7137 11.6541 58.7139 12.9803V45.3924C58.7138 47.3934 58.283 49.3714 57.4512 51.1912L57.0986 51.9617C55.8883 54.609 54.049 56.9204 51.7402 58.6932L43.2686 65.1981L43.249 65.2117L31.8633 72.3279C30.4035 73.2403 28.5497 73.2403 27.0898 72.3279L15.7041 65.2117L15.6846 65.1981L7.21289 58.6932C4.90415 56.9204 3.06478 54.609 1.85449 51.9617L1.50195 51.1912C0.670083 49.3714 0.239288 47.3934 0.239258 45.3924V12.4705C0.239258 11.3752 0.754687 10.3427 1.63086 9.68536C1.92154 9.46736 2.24563 9.29652 2.58887 9.17853L27.7529 0.528137ZM29.4316 17.7713C29.0935 17.7736 28.6526 17.8076 28.3213 17.8533L28.0342 17.9022C26.6591 18.2001 25.4647 18.8469 24.4521 19.8426C23.7186 20.5639 23.4191 20.9905 22.9756 21.9461C22.665 22.6153 22.5049 23.0295 22.4121 23.7205C22.3172 24.4279 22.2934 25.4227 22.2725 27.2518L22.2344 30.493L22.2324 30.7264L21.998 30.7274L20.9102 30.7303C20.0535 30.7319 19.7867 30.7715 19.5439 30.8817H19.543C19.1465 31.0618 18.8105 31.447 18.6953 31.8436C18.6947 31.8468 18.6929 31.8567 18.6904 31.8758C18.6872 31.9013 18.6841 31.9361 18.6807 31.9813C18.6738 32.0715 18.6668 32.1959 18.6611 32.3563C18.6497 32.6765 18.6417 33.1326 18.6357 33.7322C18.6239 34.9314 18.6223 36.6983 18.6318 39.0858L18.6592 45.9676L18.8936 46.2615C19.0292 46.4319 19.3166 46.6662 19.5127 46.7664L19.8711 46.95H39.082L39.4404 46.7664C39.6366 46.6662 39.9239 46.4319 40.0596 46.2615L40.293 45.9676L40.3213 39.0858C40.3308 36.6983 40.3293 34.9314 40.3174 33.7322C40.3114 33.1326 40.3034 32.6765 40.292 32.3563C40.2863 32.1959 40.2793 32.0715 40.2725 31.9813C40.269 31.9361 40.2659 31.9013 40.2627 31.8758C40.2603 31.8567 40.2584 31.8468 40.2578 31.8436C40.1426 31.447 39.8067 31.0618 39.4102 30.8817H39.4092C39.2272 30.799 39.0316 30.7562 38.584 30.7391L38.043 30.7303L36.9551 30.7274L36.7207 30.7264L36.7188 30.493L36.6807 27.2518C36.6591 25.3747 36.6365 24.3762 36.5312 23.658C36.4285 22.9565 36.2478 22.5241 35.8877 21.7781C34.6863 19.2897 32.2088 17.7522 29.4316 17.7713ZM28.541 36.0731C29.4946 35.5889 30.7287 35.9538 31.2432 36.8826V36.8836C31.4826 37.3164 31.5852 37.7589 31.5322 38.1873C31.4791 38.6166 31.2726 39.0104 30.9336 39.3494L30.6465 39.6365V40.6619C30.6465 41.0375 30.6353 41.3511 30.6045 41.6092C30.5739 41.8655 30.5222 42.0828 30.4346 42.2576C30.3436 42.4391 30.214 42.5728 30.0391 42.6561C29.8713 42.7359 29.6794 42.7606 29.4766 42.7606C29.2737 42.7606 29.0819 42.7359 28.9141 42.6561C28.7391 42.5728 28.6095 42.4391 28.5186 42.2576C28.4309 42.0828 28.3793 41.8655 28.3486 41.6092C28.3178 41.3511 28.3066 41.0375 28.3066 40.6619V39.6365L28.0234 39.3543C27.5652 38.8958 27.3231 38.2292 27.4238 37.6317H27.4248C27.4782 37.3156 27.6254 36.995 27.8193 36.7234C28.0128 36.4526 28.2645 36.2136 28.541 36.0731ZM29.6436 21.0457C29.9747 21.0596 30.2114 21.0803 30.4453 21.1404C30.679 21.2006 30.8994 21.2975 31.2021 21.4471C32.3733 22.0259 33.1389 23.0608 33.3496 24.3475C33.3778 24.5201 33.4006 24.9897 33.417 25.5858C33.4337 26.1915 33.4442 26.9499 33.4443 27.7147L33.4453 30.4901V30.7274H25.5078V30.4901L25.5088 27.7147C25.5089 26.9499 25.5194 26.1915 25.5361 25.5858C25.5526 24.9897 25.5754 24.5201 25.6035 24.3475C25.8493 22.8467 26.819 21.732 28.3232 21.1942C28.7081 21.0566 29.0647 21.0214 29.6436 21.0457Z" fill="url(#paint0_linear_5421_19655)" stroke="#65DA00" stroke-width="0.474456"/>
<defs>
<linearGradient id="paint0_linear_5421_19655" x1="35.9759" y1="87.6062" x2="26.1602" y2="6.22895" gradientUnits="userSpaceOnUse">
<stop stop-color="#142A01"/>
<stop offset="0.460655" stop-color="#65DA00"/>
<stop offset="1" stop-color="#65DA00"/>
</linearGradient>
</defs>
</svg>
