<svg width="132" height="132" viewBox="0 0 132 132" fill="none" xmlns="http://www.w3.org/2000/svg">
<path d="M37.9541 77.8262V93.6221H53.749V101.688H33.9209C32.8515 101.687 31.8255 101.262 31.0693 100.506C30.3132 99.7496 29.8887 98.7237 29.8887 97.6543V77.8262H37.9541ZM101.136 77.8262V97.6543C101.136 98.7237 100.711 99.7496 99.9551 100.506C99.1989 101.262 98.173 101.687 97.1035 101.688H77.2754V93.6221H93.0703V77.8262H101.136ZM105.085 62.0312V70.0957H25.9395V62.0312H105.085ZM53.749 30.4395V38.5049H37.9541V54.3008H29.8887V34.4727C29.8887 33.4033 30.3133 32.3773 31.0693 31.6211C31.8255 30.8649 32.8515 30.4395 33.9209 30.4395H53.749ZM97.1035 30.4395C98.173 30.4395 99.1989 30.8649 99.9551 31.6211C100.711 32.3773 101.136 33.4033 101.136 34.4727V54.3008H93.0703V38.5049H77.2754V30.4395H97.1035Z" fill="url(#paint0_linear_5456_21392)" stroke="#65DA00" stroke-width="0.167396"/>
<defs>
<linearGradient id="paint0_linear_5456_21392" x1="74.3623" y1="116.184" x2="67.347" y2="35.6278" gradientUnits="userSpaceOnUse">
<stop stop-color="#142A01"/>
<stop offset="0.460655" stop-color="#65DA00"/>
<stop offset="1" stop-color="#65DA00"/>
</linearGradient>
</defs>
</svg>
