<svg width="103" height="103" viewBox="0 0 103 103" fill="none" xmlns="http://www.w3.org/2000/svg">
<path d="M54.7168 19.7627C55.7943 19.7628 56.6677 20.6364 56.668 21.7139V22.5713C56.668 23.649 55.7945 24.5223 54.7168 24.5225H53.2393V27.585C66.6924 28.7894 77.2373 40.0911 77.2373 53.8574C77.2372 68.4266 65.4259 80.2373 50.8564 80.2373C47.5499 80.2373 44.3858 79.6268 41.4688 78.5156L41.0498 78.3564L41.417 78.0996C42.5758 77.2898 43.3339 75.9483 43.334 74.4287C43.334 71.9561 41.3291 69.9512 38.8564 69.9512V69.4775H39.2852C41.5211 69.4775 43.3339 67.6646 43.334 65.4287C43.334 63.1928 41.5211 61.3799 39.2852 61.3799H38.8564V60.9053C41.329 60.9053 43.3339 58.9013 43.334 56.4287C43.334 53.9561 41.3291 51.9512 38.8564 51.9512H24.5439L24.5654 51.6953C25.0356 45.8996 27.3794 40.6339 30.9893 36.5039L28.3281 33.8369C27.5672 33.0741 27.5684 31.8384 28.3311 31.0771L28.9385 30.4717C29.7014 29.7108 30.937 29.7119 31.6982 30.4746L34.4316 33.2139C38.3565 30.0867 43.1935 28.0571 48.4795 27.585V24.5225H47.002C45.9244 24.5222 45.0508 23.649 45.0508 22.5713V21.7139C45.051 20.6364 45.9245 19.7629 47.002 19.7627H54.7168ZM37.5713 71.1914C39.1225 71.1914 40.3809 72.4488 40.3809 74C40.3809 75.5512 39.1225 76.8086 37.5713 76.8086H28.1436C26.5924 76.8086 25.334 75.5512 25.334 74C25.334 72.4488 26.5924 71.1914 28.1436 71.1914H37.5713ZM37.5713 62.6201C39.1225 62.6201 40.3809 63.8775 40.3809 65.4287C40.3808 66.9798 39.1224 68.2373 37.5713 68.2373H20.4287C18.8776 68.2373 17.6202 66.9798 17.6201 65.4287C17.6201 63.8775 18.8775 62.6201 20.4287 62.6201H37.5713ZM37.5713 54.0488C39.1225 54.0488 40.3809 55.3062 40.3809 56.8574C40.3807 58.4085 39.1224 59.666 37.5713 59.666H13.5713C12.0203 59.6659 10.7628 58.4084 10.7627 56.8574C10.7627 55.3063 12.0202 54.0489 13.5713 54.0488H37.5713Z" fill="url(#paint0_linear_5421_19644)" stroke="#65DA00" stroke-width="0.474456"/>
<line x1="51.5812" y1="51.5126" x2="61.5126" y2="44.4188" stroke="#111C16" stroke-width="5" stroke-linecap="round"/>
<defs>
<linearGradient id="paint0_linear_5421_19644" x1="51.3958" y1="92.3079" x2="45.4151" y2="24.3191" gradientUnits="userSpaceOnUse">
<stop stop-color="#142A01"/>
<stop offset="0.460655" stop-color="#65DA00"/>
<stop offset="1" stop-color="#65DA00"/>
</linearGradient>
</defs>
</svg>
