<svg width="43" height="62" viewBox="0 0 43 62" fill="none" xmlns="http://www.w3.org/2000/svg">
<path d="M39.8516 9.57013C41.4322 9.57013 42.7137 10.8518 42.7139 12.4324V58.8074C42.7139 60.3882 41.4323 61.6697 39.8516 61.6697H32.9062V43.9324C32.9061 42.614 31.837 41.5449 30.5186 41.5447H12.4346C11.1161 41.5449 10.0471 42.614 10.0469 43.9324V61.6697H3.10156C1.5208 61.6697 0.239258 60.3882 0.239258 58.8074V12.4324C0.239434 10.8518 1.52091 9.57013 3.10156 9.57013H39.8516ZM17.1016 45.4451C18.3602 45.4451 19.3809 46.4658 19.3809 47.7244V61.6697H14.2393V47.7244C14.2393 46.4658 15.26 45.4451 16.5186 45.4451H17.1016ZM26.4346 45.4451C27.6932 45.4451 28.7139 46.4658 28.7139 47.7244V61.6697H23.5723V47.7244C23.5723 46.4658 24.593 45.4451 25.8516 45.4451H26.4346ZM12.1436 28.7117C10.986 28.7117 10.0471 29.6499 10.0469 30.8074C10.0469 31.9651 10.9859 32.9041 12.1436 32.9041C13.3011 32.9039 14.2393 31.965 14.2393 30.8074C14.2391 29.65 13.3009 28.7119 12.1436 28.7117ZM21.4766 28.7117C20.319 28.7117 19.381 29.6499 19.3809 30.8074C19.3809 31.9651 20.3189 32.9041 21.4766 32.9041C22.6342 32.9041 23.5723 31.9651 23.5723 30.8074C23.5721 29.6499 22.6341 28.7117 21.4766 28.7117ZM30.8096 28.7117C29.6522 28.7119 28.714 29.65 28.7139 30.8074C28.7139 31.965 29.6521 32.9039 30.8096 32.9041C31.9672 32.9041 32.9062 31.9651 32.9062 30.8074C32.9061 29.6499 31.9671 28.7117 30.8096 28.7117ZM12.1436 19.3787C10.9859 19.3787 10.0469 20.3168 10.0469 21.4744C10.0469 22.6321 10.9859 23.5701 12.1436 23.5701C13.3011 23.57 14.2393 22.632 14.2393 21.4744C14.2393 20.3169 13.3011 19.3789 12.1436 19.3787ZM21.4766 19.3787C20.3189 19.3787 19.3809 20.3168 19.3809 21.4744C19.3809 22.6321 20.3189 23.5701 21.4766 23.5701C22.6342 23.5701 23.5723 22.6321 23.5723 21.4744C23.5723 20.3168 22.6342 19.3787 21.4766 19.3787ZM30.8096 19.3787C29.6521 19.3789 28.7139 20.3169 28.7139 21.4744C28.7139 22.632 29.6521 23.57 30.8096 23.5701C31.9672 23.5701 32.9062 22.6321 32.9062 21.4744C32.9062 20.3168 31.9672 19.3787 30.8096 19.3787ZM33.7266 0.237122C35.1461 0.237122 36.2967 1.3879 36.2969 2.80743V5.37872H6.65625V2.80743C6.65643 1.3879 7.80699 0.237122 9.22656 0.237122H33.7266Z" fill="url(#paint0_linear_5421_19651)" stroke="#65DA00" stroke-width="0.474456"/>
<defs>
<linearGradient id="paint0_linear_5421_19651" x1="26.183" y1="73.9373" x2="16.5962" y2="5.67433" gradientUnits="userSpaceOnUse">
<stop stop-color="#142A01"/>
<stop offset="0.460655" stop-color="#65DA00"/>
<stop offset="1" stop-color="#65DA00"/>
</linearGradient>
</defs>
</svg>
