<svg width="64" height="64" viewBox="0 0 64 64" fill="none" xmlns="http://www.w3.org/2000/svg">
<rect opacity="0.5" width="64" height="64" rx="13" fill="#1D2D24"/>
<path d="M50.5458 15.153C50.3854 15.0728 50.2251 15.0087 50.0807 14.9285C48.9904 14.4314 47.868 13.9985 46.7455 13.5816C46.4409 13.4854 46.1523 13.3892 45.8476 13.2769C44.8374 12.9402 43.8272 12.6355 42.785 12.379C42.3841 12.2828 41.9672 12.1866 41.5503 12.0743C40.6203 11.8498 39.6582 11.6735 38.7122 11.5452C38.2312 11.465 37.7341 11.4009 37.2691 11.3528C36.3711 11.2405 35.4572 11.1603 34.5432 11.0962C34.0301 11.0641 33.517 11.0321 32.9718 11.016C32.5068 11 32.0578 11 31.5768 11C31.1438 11 30.7269 11 30.278 11.016C29.7649 11.0321 29.2197 11.0481 28.7066 11.0962C27.7926 11.1603 26.8786 11.2405 25.9807 11.3528C25.4836 11.4169 25.0026 11.465 24.5376 11.5452C23.5915 11.7055 22.6294 11.8819 21.6994 12.0743C21.2825 12.1705 20.8817 12.2667 20.4648 12.379C19.4386 12.6355 18.4123 12.9402 17.4022 13.2769C17.0975 13.3731 16.8089 13.4693 16.4882 13.5816C15.3497 13.9824 14.2433 14.4154 13.153 14.9125C12.9926 14.9926 12.8323 15.0568 12.6719 15.1369C11.4212 15.7142 10.1866 16.3556 9 17.029C9 18.408 9.06414 19.7389 9.17639 21.0698C9.19242 21.2942 9.20845 21.4867 9.24052 21.7111C9.35276 22.8817 9.51311 24.0362 9.7376 25.1746C9.80174 25.5274 9.88191 25.8641 9.93002 26.2329C10.1224 27.2431 10.395 28.2372 10.6516 29.2153C10.7638 29.6483 10.9081 30.1133 11.0524 30.5462C11.325 31.4442 11.6297 32.31 11.9664 33.1759C12.1588 33.673 12.3673 34.1701 12.5597 34.6511C13.634 33.7211 14.7725 32.8552 15.959 32.0856C17.1135 31.3319 18.3322 30.6745 19.5989 30.0973C20.8336 29.52 22.1163 29.039 23.4472 28.6702C24.3933 28.3976 25.3874 28.1571 26.3816 27.9807C26.7664 27.9165 27.1352 27.8684 27.52 27.8043C28.7707 27.6279 30.0214 27.5317 31.3202 27.5317C31.4004 27.5317 31.4806 27.5317 31.5607 27.5317C31.6569 27.5317 31.7852 27.5317 31.8814 27.5317C33.1802 27.5477 34.447 27.644 35.6816 27.8364C36.0665 27.9005 36.4513 27.9486 36.8361 28.0288C37.8303 28.2052 38.8084 28.4457 39.7544 28.7183C41.0853 29.1191 42.3521 29.6002 43.6028 30.1614C44.8695 30.7386 46.0881 31.4121 47.2426 32.1657C48.4292 32.9354 49.5676 33.8013 50.6259 34.7473C50.8504 34.2502 51.0428 33.7371 51.2352 33.224C51.5559 32.3902 51.8446 31.5083 52.1332 30.6585C50.9947 29.7605 49.8242 28.9267 48.5735 28.1731C47.3869 27.4355 46.1362 26.7941 44.8374 26.2329C43.5867 25.6717 42.2879 25.2067 40.957 24.8058C40.476 24.6615 39.9789 24.5332 39.4819 24.405C38.6481 24.2125 37.7982 24.0201 36.9323 23.8918C36.1948 23.7796 35.4411 23.6674 34.6875 23.5872C34.0782 23.5231 33.4368 23.491 32.7954 23.4749C32.3785 23.4589 31.9616 23.4589 31.5287 23.4589C31.1278 23.4589 30.759 23.4589 30.3581 23.4749C29.7168 23.491 29.0914 23.5391 28.4661 23.5872C27.7124 23.6513 26.9588 23.7475 26.2212 23.8598C25.3714 24.0041 24.5376 24.1805 23.7038 24.3729C23.2067 24.4851 22.7096 24.6294 22.2125 24.7738C20.8817 25.1746 19.5829 25.6557 18.3322 26.1848C17.0334 26.746 15.7827 27.4034 14.5961 28.109C14.5961 28.0929 14.5801 28.0448 14.5801 28.0288C14.1952 26.6819 13.9066 25.3029 13.6661 23.8918C13.6661 23.8598 13.65 23.8277 13.65 23.7956C13.4095 22.3846 13.2492 20.9575 13.169 19.4984C14.4678 18.8409 15.7987 18.2637 17.1616 17.7506C17.1777 17.7506 17.1777 17.7345 17.1937 17.7345C18.5246 17.2375 19.9036 16.8206 21.2825 16.4678H21.2986C22.6294 16.1311 23.9764 15.8585 25.3553 15.65C25.3714 15.65 25.4195 15.65 25.4515 15.634C26.7664 15.4416 28.0973 15.2973 29.4442 15.2331C29.4762 15.2331 29.5404 15.2331 29.5885 15.2331C30.2299 15.2171 30.8873 15.2011 31.5287 15.2011C32.2021 15.2011 32.9077 15.2171 33.549 15.2331C33.5811 15.2331 33.6452 15.2331 33.6933 15.2331C35.0403 15.3133 36.3711 15.4256 37.686 15.634C37.718 15.634 37.7501 15.634 37.7822 15.65C39.1612 15.8745 40.5081 16.1471 41.839 16.4838H41.855C43.25 16.8366 44.6129 17.2856 45.9438 17.7827C45.9599 17.7827 45.9759 17.7827 45.9759 17.7987C47.3549 18.3118 48.6857 18.889 49.9685 19.5465C51.3154 20.2199 52.6303 20.9735 53.897 21.8073C53.913 21.5829 53.9291 21.3423 53.9611 21.1339C54.0734 19.819 54.1375 18.4882 54.1375 17.1413C53.0632 16.3876 51.8285 15.7623 50.5458 15.153Z" fill="white"/>
<path d="M41.9826 33.8707C40.7319 33.2934 39.433 32.8124 38.0861 32.4596C36.9316 32.1389 35.713 31.8984 34.5104 31.7701C34.2699 31.7541 34.0294 31.706 33.8209 31.69C33.0994 31.6258 32.3778 31.5938 31.6402 31.5938C30.9187 31.5938 30.2292 31.6098 29.5397 31.6739C29.2992 31.69 29.0747 31.706 28.8502 31.7541C27.6155 31.8984 26.429 32.1069 25.2584 32.4276C23.9115 32.7803 22.5967 33.2614 21.362 33.8386C20.1113 34.4158 18.9247 35.0893 17.7863 35.859C16.6318 36.6607 15.5414 37.5266 14.5312 38.5047C14.9321 39.2583 15.3651 39.9959 15.8301 40.7335C16.1347 41.2145 16.4233 41.6795 16.744 42.1446C17.2411 42.8821 17.7382 43.5877 18.2673 44.2932C18.588 44.7101 18.9087 45.127 19.2454 45.5279C19.8387 46.2654 20.4641 46.9549 21.0894 47.6605C21.3941 47.9972 21.6987 48.3179 22.0194 48.6386C22.8693 47.5643 23.9115 46.6342 25.0821 45.8806C26.3328 45.0789 27.7438 44.5016 29.2511 44.197C30.0528 44.0366 30.8545 43.9565 31.7204 43.9565C32.6023 43.9565 33.4361 44.0527 34.2378 44.213C35.7451 44.5337 37.1401 45.111 38.3908 45.9287C37.4127 46.9229 36.3865 47.8529 35.3121 48.7508C35.2801 48.7829 35.232 48.815 35.1999 48.847C35.0877 48.9432 34.9594 49.0394 34.8471 49.1196C34.6066 49.312 34.3661 49.5044 34.1096 49.6969C34.0935 49.7129 34.0614 49.7289 34.0454 49.745C33.8209 49.9213 33.5964 50.0817 33.3559 50.2581C33.2757 50.3222 33.1795 50.3863 33.0994 50.4345C32.923 50.5627 32.7466 50.691 32.5702 50.8033C32.2976 50.9957 32.025 51.1721 31.7525 51.3645C30.6781 50.6429 29.6199 49.8732 28.6097 49.0555C27.1184 49.4403 25.8594 50.226 24.6568 51.1079C24.769 51.2041 24.7614 51.2041 24.8896 51.3003C24.9377 51.3484 24.9858 51.3965 25.066 51.4607C25.9639 52.2143 26.894 52.9519 27.856 53.6414C28.0164 53.7536 28.1767 53.8659 28.3371 53.9781C29.4435 54.7798 30.598 55.5014 31.8006 56.1909C32.3778 55.8542 32.9551 55.5014 33.5163 55.1486C34.0775 54.7959 34.6387 54.411 35.1839 54.0262C35.3603 53.914 35.5366 53.7697 35.713 53.6414C36.643 52.9679 37.557 52.2464 38.4389 51.4927C38.5832 51.3645 38.7275 51.2362 38.8718 51.1079C39.0001 50.9957 39.1284 50.8834 39.2406 50.7712C39.9943 50.0977 40.7319 49.3922 41.4534 48.6706C41.7901 48.3339 42.1108 47.9972 42.4315 47.6444C43.0408 46.971 43.6502 46.2654 44.2274 45.576C44.5641 45.1591 44.9009 44.7261 45.2376 44.2772C31.4318 35.1534 22.3401 42.7539 22.3401 42.7539C22.3081 42.7218 22.276 42.6737 22.2439 42.6416C21.4262 41.6154 20.6565 40.5411 19.9189 39.4347C21.0253 38.633 22.2439 37.9595 23.5106 37.4304C24.8255 36.8531 26.1884 36.4202 27.5995 36.1316C28.7059 35.9071 29.8443 35.7788 30.9988 35.7307C31.2393 35.7307 31.4799 35.7147 31.7204 35.7147C31.993 35.7147 32.2495 35.7147 32.5221 35.7307C33.6766 35.7628 34.8151 35.9071 35.9054 36.1476C37.3325 36.4523 38.6955 36.8852 39.9943 37.4624C41.261 38.0236 42.4636 38.6971 43.57 39.4828C44.7084 40.2845 45.7507 41.1985 46.6967 42.2087C47.0174 41.7276 47.3381 41.2306 47.6268 40.7335C48.0597 40.0119 48.4766 39.3064 48.8774 38.5688C47.8192 37.5907 46.7448 36.6928 45.5903 35.9071C44.4359 35.1214 43.2333 34.4479 41.9826 33.8707Z" fill="white"/>
</svg>
