<svg width="103" height="103" viewBox="0 0 103 103" fill="none" xmlns="http://www.w3.org/2000/svg">
<path d="M69.375 30.0957C70.9557 30.0957 72.2371 31.3774 72.2373 32.958V79.333C72.2373 80.9138 70.9558 82.1953 69.375 82.1953H62.4297V64.458C62.4295 63.1395 61.3605 62.0705 60.042 62.0703H41.958C40.6395 62.0705 39.5705 63.1395 39.5703 64.458V82.1953H32.625C31.0442 82.1953 29.7627 80.9138 29.7627 79.333V32.958C29.7629 31.3774 31.0443 30.0957 32.625 30.0957H69.375ZM46.625 65.9707C47.8836 65.9707 48.9043 66.9914 48.9043 68.25V82.1953H43.7627V68.25C43.7627 66.9914 44.7834 65.9707 46.042 65.9707H46.625ZM55.958 65.9707C57.2166 65.9707 58.2373 66.9914 58.2373 68.25V82.1953H53.0957V68.25C53.0957 66.9914 54.1164 65.9707 55.375 65.9707H55.958ZM41.667 49.2373C40.5095 49.2373 39.5705 50.1755 39.5703 51.333C39.5703 52.4907 40.5093 53.4297 41.667 53.4297C42.8245 53.4295 43.7627 52.4905 43.7627 51.333C43.7625 50.1756 42.8244 49.2375 41.667 49.2373ZM51 49.2373C49.8425 49.2373 48.9045 50.1755 48.9043 51.333C48.9043 52.4907 49.8424 53.4297 51 53.4297C52.1576 53.4297 53.0957 52.4907 53.0957 51.333C53.0955 50.1755 52.1575 49.2373 51 49.2373ZM60.333 49.2373C59.1756 49.2375 58.2375 50.1756 58.2373 51.333C58.2373 52.4905 59.1755 53.4295 60.333 53.4297C61.4907 53.4297 62.4297 52.4907 62.4297 51.333C62.4295 50.1755 61.4905 49.2373 60.333 49.2373ZM41.667 39.9043C40.5093 39.9043 39.5703 40.8424 39.5703 42C39.5703 43.1576 40.5093 44.0957 41.667 44.0957C42.8245 44.0955 43.7627 43.1575 43.7627 42C43.7627 40.8425 42.8245 39.9045 41.667 39.9043ZM51 39.9043C49.8424 39.9043 48.9043 40.8424 48.9043 42C48.9043 43.1576 49.8424 44.0957 51 44.0957C52.1576 44.0957 53.0957 43.1576 53.0957 42C53.0957 40.8424 52.1576 39.9043 51 39.9043ZM60.333 39.9043C59.1755 39.9045 58.2373 40.8425 58.2373 42C58.2373 43.1575 59.1755 44.0955 60.333 44.0957C61.4907 44.0957 62.4297 43.1576 62.4297 42C62.4297 40.8424 61.4907 39.9043 60.333 39.9043ZM63.25 20.7627C64.6696 20.7627 65.8201 21.9135 65.8203 23.333V25.9043H36.1797V23.333C36.1799 21.9135 37.3304 20.7627 38.75 20.7627H63.25Z" fill="url(#paint0_linear_5421_19649)" stroke="#65DA00" stroke-width="0.474456"/>
<defs>
<linearGradient id="paint0_linear_5421_19649" x1="55.7064" y1="94.4628" x2="46.1196" y2="26.1999" gradientUnits="userSpaceOnUse">
<stop stop-color="#142A01"/>
<stop offset="0.460655" stop-color="#65DA00"/>
<stop offset="1" stop-color="#65DA00"/>
</linearGradient>
</defs>
</svg>
