<svg width="67" height="61" viewBox="0 0 67 61" fill="none" xmlns="http://www.w3.org/2000/svg">
<path d="M44.1934 0.237122C45.2709 0.237274 46.1443 1.11079 46.1445 2.18829V3.04572C46.1445 4.12341 45.271 4.99673 44.1934 4.99689H42.7158V8.05939C56.169 9.2638 66.7139 20.5656 66.7139 34.3318C66.7137 48.901 54.9024 60.7117 40.333 60.7117C37.0265 60.7117 33.8623 60.1012 30.9453 58.9901L30.5264 58.8309L30.8936 58.574C32.0524 57.7643 32.8105 56.4227 32.8105 54.9031C32.8105 52.4305 30.8057 50.4256 28.333 50.4256V49.952H28.7617C30.9976 49.952 32.8105 48.139 32.8105 45.9031C32.8105 43.6672 30.9977 41.8543 28.7617 41.8543H28.333V41.3797C30.8056 41.3797 32.8105 39.3757 32.8105 36.9031C32.8105 34.4305 30.8057 32.4256 28.333 32.4256H14.0205L14.042 32.1697C14.5122 26.374 16.8559 21.1083 20.4658 16.9783L17.8047 14.3113C17.0437 13.5485 17.045 12.3128 17.8076 11.5516L18.415 10.9461C19.1779 10.1853 20.4136 10.1863 21.1748 10.949L23.9082 13.6883C27.833 10.5612 32.6701 8.53156 37.9561 8.05939V4.99689H36.4785C35.401 4.99666 34.5273 4.12341 34.5273 3.04572V2.18829C34.5276 1.11079 35.4011 0.237353 36.4785 0.237122H44.1934ZM27.0479 51.6658C28.599 51.6658 29.8574 52.9232 29.8574 54.4744C29.8574 56.0256 28.599 57.283 27.0479 57.283H17.6201C16.0689 57.283 14.8105 56.0256 14.8105 54.4744C14.8105 52.9232 16.0689 51.6658 17.6201 51.6658H27.0479ZM27.0479 43.0945C28.599 43.0945 29.8574 44.352 29.8574 45.9031C29.8573 47.4543 28.599 48.7117 27.0479 48.7117H9.90527C8.35413 48.7117 7.09675 47.4543 7.09668 45.9031C7.09668 44.352 8.35408 43.0945 9.90527 43.0945H27.0479ZM27.0479 34.5233C28.599 34.5233 29.8574 35.7807 29.8574 37.3318C29.8573 38.8829 28.599 40.1404 27.0479 40.1404H3.04785C1.49683 40.1403 0.239408 38.8828 0.239258 37.3318C0.239258 35.7807 1.49674 34.5233 3.04785 34.5233H27.0479Z" fill="url(#paint0_linear_5421_19646)" stroke="#65DA00" stroke-width="0.474456"/>
<defs>
<linearGradient id="paint0_linear_5421_19646" x1="40.8723" y1="72.7823" x2="34.8917" y2="4.79348" gradientUnits="userSpaceOnUse">
<stop stop-color="#142A01"/>
<stop offset="0.460655" stop-color="#65DA00"/>
<stop offset="1" stop-color="#65DA00"/>
</linearGradient>
</defs>
</svg>
