<svg width="103" height="103" viewBox="0 0 103 103" fill="none" xmlns="http://www.w3.org/2000/svg">
<path d="M49.2764 16.2881C50.3935 15.9041 51.6062 15.9005 52.7256 16.2773L77.0557 24.4688C77.4892 24.6148 77.8988 24.824 78.2715 25.0889L78.3994 25.1797L78.6094 25.3389C79.6347 26.165 80.2372 27.4141 80.2373 28.7402V61.1523C80.2373 63.1533 79.8065 65.1313 78.9746 66.9512L78.6221 67.7217C77.4118 70.369 75.5724 72.6803 73.2637 74.4531L64.792 80.958L64.7725 80.9717L53.3867 88.0879C51.9269 89.0002 50.0731 89.0002 48.6133 88.0879L37.2275 80.9717L37.208 80.958L28.7363 74.4531C26.4276 72.6803 24.5882 70.369 23.3779 67.7217L23.0254 66.9512C22.1935 65.1313 21.7627 63.1533 21.7627 61.1523V28.2305C21.7627 27.1352 22.2781 26.1026 23.1543 25.4453C23.445 25.2273 23.7691 25.0565 24.1123 24.9385L49.2764 16.2881ZM50.9551 33.5312C50.617 33.5336 50.176 33.5676 49.8447 33.6133L49.5576 33.6621C48.1825 33.9601 46.9881 34.6069 45.9756 35.6025C45.2421 36.3238 44.9425 36.7505 44.499 37.7061C44.1884 38.3752 44.0283 38.7895 43.9355 39.4805C43.8406 40.1878 43.8169 41.1827 43.7959 43.0117L43.7578 46.2529L43.7559 46.4863L43.5215 46.4873L42.4336 46.4902C41.577 46.4918 41.3101 46.5314 41.0674 46.6416H41.0664C40.6699 46.8218 40.334 47.2069 40.2188 47.6035C40.2181 47.6067 40.2163 47.6166 40.2139 47.6357C40.2106 47.6613 40.2075 47.6961 40.2041 47.7412C40.1973 47.8315 40.1903 47.9559 40.1846 48.1162C40.1732 48.4364 40.1651 48.8926 40.1592 49.4922C40.1473 50.6913 40.1457 52.4582 40.1553 54.8457L40.1826 61.7275L40.417 62.0215C40.5526 62.1918 40.84 62.4261 41.0361 62.5264L41.3945 62.71H60.6055L60.9639 62.5264C61.16 62.4261 61.4474 62.1918 61.583 62.0215L61.8164 61.7275L61.8447 54.8457C61.8543 52.4582 61.8527 50.6913 61.8408 49.4922C61.8349 48.8926 61.8268 48.4364 61.8154 48.1162C61.8097 47.9559 61.8027 47.8315 61.7959 47.7412C61.7925 47.6961 61.7894 47.6613 61.7861 47.6357C61.7837 47.6166 61.7819 47.6067 61.7812 47.6035C61.666 47.2069 61.3301 46.8218 60.9336 46.6416H60.9326C60.7506 46.559 60.555 46.5161 60.1074 46.499L59.5664 46.4902L58.4785 46.4873L58.2441 46.4863L58.2422 46.2529L58.2041 43.0117C58.1826 41.1347 58.1599 40.1362 58.0547 39.418C57.9519 38.7164 57.7712 38.284 57.4111 37.5381C56.2097 35.0496 53.7322 33.5121 50.9551 33.5312ZM50.0645 51.833C51.018 51.3489 52.2522 51.7138 52.7666 52.6426V52.6436C53.006 53.0764 53.1086 53.5189 53.0557 53.9473C53.0025 54.3765 52.796 54.7703 52.457 55.1094L52.1699 55.3965V56.4219C52.1699 56.7974 52.1588 57.1111 52.1279 57.3691C52.0973 57.6254 52.0456 57.8427 51.958 58.0176C51.867 58.199 51.7375 58.3327 51.5625 58.416C51.3947 58.4959 51.2028 58.5205 51 58.5205C50.7971 58.5205 50.6053 58.4959 50.4375 58.416C50.2625 58.3327 50.133 58.199 50.042 58.0176C49.9544 57.8427 49.9027 57.6254 49.8721 57.3691C49.8412 57.1111 49.8301 56.7974 49.8301 56.4219V55.3965L49.5469 55.1143C49.0886 54.6558 48.8465 53.9892 48.9473 53.3916H48.9482C49.0016 53.0755 49.1488 52.755 49.3428 52.4834C49.5362 52.2125 49.7879 51.9735 50.0645 51.833ZM51.167 36.8057C51.4981 36.8196 51.7349 36.8402 51.9688 36.9004C52.2024 36.9606 52.4228 37.0574 52.7256 37.207C53.8968 37.7859 54.6624 38.8207 54.873 40.1074C54.9012 40.2801 54.924 40.7497 54.9404 41.3457C54.9571 41.9515 54.9676 42.7099 54.9678 43.4746L54.9688 46.25V46.4873H47.0312V46.25L47.0322 43.4746C47.0324 42.7099 47.0429 41.9515 47.0596 41.3457C47.076 40.7497 47.0988 40.2801 47.127 40.1074C47.3727 38.6067 48.3424 37.492 49.8467 36.9541C50.2315 36.8166 50.5882 36.7814 51.167 36.8057Z" fill="url(#paint0_linear_5421_19653)" stroke="#65DA00" stroke-width="0.474456"/>
<defs>
<linearGradient id="paint0_linear_5421_19653" x1="57.4993" y1="103.366" x2="47.6836" y2="21.9889" gradientUnits="userSpaceOnUse">
<stop stop-color="#142A01"/>
<stop offset="0.460655" stop-color="#65DA00"/>
<stop offset="1" stop-color="#65DA00"/>
</linearGradient>
</defs>
</svg>
