<svg width="345" height="166" viewBox="0 0 345 166" fill="none" xmlns="http://www.w3.org/2000/svg">
<path opacity="0.5" d="M0 15C0 6.71572 6.71573 0 15 0H330C338.284 0 345 6.71573 345 15V151C345 159.284 338.284 166 330 166H15C6.71573 166 0 159.284 0 151V15Z" fill="#1C2D23"/>
<path d="M103.04 104.307V119.366H97.5578V104.307H92V99.5007H108.598V104.307H103.04Z" fill="#0A9600"/>
<path d="M121.442 113.356H112.692C112.88 115.009 113.819 115.722 115.208 115.722C116.523 115.722 117.612 115.422 119.076 114.671L121.029 117.938C119.189 119.027 117.274 119.628 114.945 119.628C110.477 119.628 107.998 116.436 107.998 111.892C107.998 106.747 110.89 104.118 114.795 104.118C118.888 104.118 121.442 106.822 121.442 112.342C121.479 112.793 121.479 113.131 121.442 113.356ZM114.682 107.949C113.518 107.949 112.88 108.737 112.692 110.202H116.936C116.71 108.7 116.185 107.949 114.682 107.949Z" fill="#0A9600"/>
<path d="M130.942 119.666C126.586 119.666 123.957 116.887 123.957 111.855C123.957 107.273 126.285 104.156 131.054 104.156C133.871 104.156 135.486 105.471 136.762 107.536L133.233 110.202C132.519 108.888 132.031 108.287 130.942 108.287C129.627 108.287 128.989 109.602 128.989 111.967C128.989 114.333 129.703 115.535 131.092 115.535C132.068 115.535 132.744 115.009 133.683 113.62L136.913 116.136C135.185 118.652 133.571 119.666 130.942 119.666Z" fill="#0A9600"/>
<path d="M148.327 119.365V110.916C148.327 109.001 147.689 108.475 146.637 108.475C145.548 108.475 144.91 108.963 144.91 110.878V119.365H139.803V100.739L144.91 98.7114V105.508C145.849 104.795 146.9 104.194 148.665 104.194C151.932 104.194 153.472 106.372 153.472 110.278V119.365H148.327Z" fill="#0A9600"/>
<path d="M165.679 119.665C159.783 119.665 156.629 115.309 156.629 109.451C156.629 103.067 160.384 99.2366 165.679 99.2366C170.561 99.2366 172.476 101.34 173.866 105.095L168.871 107.01C168.158 105.17 167.482 104.006 165.679 104.006C163.388 104.006 162.412 106.296 162.412 109.451C162.412 112.493 163.388 114.896 165.754 114.896C167.482 114.896 168.233 113.957 169.284 112.08L173.941 114.558C172.626 117.149 170.411 119.665 165.679 119.665Z" fill="white"/>
<path d="M186.481 110.09C185.843 109.377 185.092 108.851 184.115 108.851C182.876 108.851 182.088 109.452 182.088 111.254V119.366H176.98V104.495H182.088V105.584C182.951 104.72 183.965 104.195 185.28 104.195C186.369 104.195 187.082 104.457 187.683 104.833L186.481 110.09Z" fill="white"/>
<path d="M198.612 119.365V118.389C197.711 119.102 196.622 119.703 194.895 119.703C191.628 119.703 190.088 117.525 190.088 113.62V104.532H195.233V112.981C195.233 114.897 195.871 115.422 196.922 115.422C197.974 115.422 198.612 114.934 198.612 113.019V104.532H203.757V119.403H198.612V119.365Z" fill="white"/>
<path d="M215.96 119.365V110.916C215.96 109.001 215.322 108.475 214.27 108.475C213.181 108.475 212.543 108.963 212.543 110.878V119.365H207.436V104.494H212.543V105.471C213.482 104.757 214.533 104.156 216.298 104.156C219.565 104.156 221.105 106.335 221.105 110.24V119.328H215.96V119.365Z" fill="white"/>
<path d="M231.059 119.666C226.703 119.666 224.074 116.887 224.074 111.855C224.074 107.273 226.402 104.156 231.172 104.156C233.988 104.156 235.603 105.471 236.88 107.536L233.35 110.202C232.636 108.888 232.148 108.287 231.059 108.287C229.745 108.287 229.106 109.602 229.106 111.967C229.106 114.333 229.82 115.535 231.209 115.535C232.186 115.535 232.862 115.009 233.8 113.62L237.03 116.136C235.302 118.652 233.688 119.666 231.059 119.666Z" fill="white"/>
<path d="M248.444 119.365V110.916C248.444 109.001 247.806 108.475 246.755 108.475C245.665 108.475 245.027 108.963 245.027 110.878V119.365H239.92V100.739L245.027 98.7114V105.508C245.966 104.795 247.017 104.194 248.782 104.194C252.049 104.194 253.589 106.372 253.589 110.278V119.365H248.444Z" fill="white"/>
<path d="M138.832 47V58.3409H150.173V81.0227H161.476V58.3409H172.855V47H138.832Z" fill="#0A9600"/>
<path d="M184.159 69.6829V58.342H172.855V81.0238H206.841V69.6829H184.159Z" fill="#0A9600"/>
<path d="M206.84 47H184.158V58.3409H206.84V47Z" fill="#0A9600"/>
</svg>
