<svg width="345" height="166" viewBox="0 0 345 166" fill="none" xmlns="http://www.w3.org/2000/svg">
<path opacity="0.5" d="M0 15C0 6.71572 6.71573 0 15 0H330C338.284 0 345 6.71573 345 15V151C345 159.284 338.284 166 330 166H15C6.71573 166 0 159.284 0 151V15Z" fill="#1C2D23"/>
<path d="M97.0117 105.08H103.2V121.066H107.016V105.08H113.204V101.779H97.0117V105.08Z" fill="white"/>
<path d="M128.059 109.515H119.704V101.779H115.785V120.963H119.704V112.815H128.059V120.963H131.978V101.882H128.059V109.515Z" fill="white"/>
<path d="M138.986 112.809H147.34V109.715H138.986V105.177H148.371V101.876H135.066V121.06H148.681V117.759H138.986V112.809Z" fill="white"/>
<path d="M169.722 110.957C170.753 110.544 172.61 109.307 172.61 106.522C172.61 103.737 170.547 101.675 167.246 101.675H158.789V120.858H167.659C170.959 120.858 173.435 118.795 173.435 115.598C173.228 113.02 171.372 111.473 169.722 110.957ZM162.399 104.872H166.009C167.659 104.872 168.793 105.697 168.793 107.347C168.793 108.894 167.865 109.822 166.215 109.822H162.605V104.872H162.399ZM166.524 118.073H162.296V112.71H166.318C168.175 112.71 169.309 113.639 169.309 115.495C169.309 117.145 168.278 118.073 166.524 118.073Z" fill="white"/>
<path d="M179.729 101.876H176.016V121.06H189.217V117.656H179.832V101.876H179.729Z" fill="white"/>
<path d="M199.637 101.675C194.171 101.675 190.148 105.491 190.148 111.473C190.148 117.455 194.171 121.168 199.637 121.168C205.103 121.168 209.126 117.352 209.126 111.37C209.126 105.388 205 101.675 199.637 101.675ZM199.637 117.764C196.543 117.764 194.068 115.392 194.068 111.37C194.068 107.347 196.543 104.975 199.637 104.975C202.731 104.975 205.207 107.347 205.207 111.37C205.207 115.392 202.731 117.764 199.637 117.764Z" fill="white"/>
<path d="M220.364 104.973C223.458 104.973 224.799 106.83 225.211 108.893H229.027C228.615 104.664 225.933 101.57 220.364 101.57C215.104 101.57 211.391 105.489 211.391 111.368C211.391 117.35 215.207 121.166 220.364 121.166C225.933 121.166 228.615 118.072 229.027 113.843H225.211C224.902 115.906 223.664 117.762 220.467 117.762C217.476 117.762 215.207 115.39 215.207 111.368C215.207 107.449 217.476 104.973 220.364 104.973Z" fill="white"/>
<path d="M240.679 110.03L247.693 101.779H243.155L235.316 111.268V101.779H231.5V120.963H235.316V115.909L238.101 112.815L243.877 121.066H248.311L240.679 110.03Z" fill="white"/>
<path d="M171.993 79.9118L156.42 73.5173C155.904 73.2079 155.801 73.2079 155.801 72.589V51.9615C155.801 51.4458 155.904 51.3426 156.42 51.0332L171.993 45.0512C172.509 44.9481 172.612 44.9481 173.128 45.0512L188.702 51.0332C189.217 51.3426 189.321 51.4458 189.321 51.9615V72.6922C189.321 73.2079 189.217 73.311 188.702 73.6204L173.128 79.9118C172.612 80.0149 172.509 80.1181 171.993 79.9118ZM172.509 78.1585L186.123 72.7953L172.509 67.8447L158.895 72.6922L172.509 78.1585ZM157.657 71.3514L169.931 66.8133L167.662 65.8851C167.558 65.7819 167.352 65.5757 167.352 65.4725V59.078C167.352 58.7686 167.455 58.6654 167.662 58.6654L169.931 57.7372L157.657 53.096V71.3514ZM187.464 71.3514V53.1991L175.191 57.7372L177.46 58.6654C177.563 58.7686 177.769 58.9748 177.769 59.078V65.4725C177.769 65.5757 177.666 65.8851 177.46 65.8851L175.191 66.8133L187.464 71.3514ZM172.509 65.7819L175.81 64.4411V59.9031L172.509 58.5623L169.209 59.9031V64.4411L172.509 65.7819ZM172.509 56.8089L186.123 51.8583L172.509 46.5983L158.895 51.7552L172.509 56.8089Z" fill="white"/>
<path d="M188.597 51.1361L173.023 44.9479C172.92 44.9479 172.611 44.8447 172.508 44.8447C172.404 44.8447 172.095 44.8447 171.992 44.9479L156.418 51.1361C156.109 51.1361 155.902 51.5487 155.902 51.9612V72.6919C155.902 73.1045 156.212 73.3108 156.418 73.517L171.786 79.8084C171.889 79.8084 172.198 79.9116 172.301 79.9116C172.404 79.9116 172.714 79.9116 172.817 79.8084L188.184 73.517C188.494 73.4139 188.7 73.1045 188.7 72.6919V51.9612C189.113 51.5487 188.803 51.1361 188.597 51.1361ZM172.508 46.3918L186.534 51.755L172.508 56.8087L158.481 51.755L172.508 46.3918ZM172.508 58.4589L175.911 59.9028V64.6472L172.508 66.0911L169.104 64.6472V59.9028L172.508 58.4589ZM157.449 52.9926L170.238 57.8401L167.66 58.8715C167.557 58.8715 167.351 58.9746 167.351 59.1809V65.4723C167.351 65.5754 167.454 65.7817 167.454 65.7817L170.032 66.8131L157.346 71.5574V52.9926H157.449ZM172.508 78.3645L158.584 72.6919L172.611 67.6382L186.534 72.6919L172.508 78.3645ZM187.566 71.5574L174.777 66.8131L177.355 65.7817C177.458 65.7817 177.458 65.6786 177.458 65.4723V58.9746C177.458 58.8715 177.355 58.6652 177.355 58.6652L174.777 57.6338L187.566 52.7863V71.5574Z" fill="white"/>
</svg>
