<svg width="345" height="166" viewBox="0 0 345 166" fill="none" xmlns="http://www.w3.org/2000/svg">
<path opacity="0.5" d="M0 15C0 6.71572 6.71573 0 15 0H330C338.284 0 345 6.71573 345 15V151C345 159.284 338.284 166 330 166H15C6.71573 166 0 159.284 0 151V15Z" fill="#1C2D23"/>
<path d="M106.289 119.835C102.574 119.835 100.287 116.487 100.287 111.874C100.287 107.301 102.206 103.912 106.289 103.912C108.943 103.912 110.698 105.627 111.025 107.873H117.231C116.904 105.055 115.639 102.606 113.475 100.973C111.678 99.5846 109.229 98.7681 106.33 98.7681C98.8585 98.7681 94 104.443 94 111.874C94 119.386 99.0218 124.898 106.371 124.898C109.882 124.898 112.495 123.918 114.373 122.04C116.088 120.407 117.231 118.12 117.394 115.63H111.188C110.903 118.079 109.065 119.835 106.289 119.835Z" fill="white"/>
<path d="M128.821 105.911C123.064 105.911 119.227 110.034 119.227 115.424C119.227 120.813 123.064 124.936 128.821 124.936C134.619 124.936 138.375 120.813 138.375 115.424C138.375 110.034 134.578 105.911 128.821 105.911ZM128.78 120.854C126.29 120.854 124.983 118.69 124.983 115.424C124.983 112.157 126.29 109.953 128.78 109.953C131.271 109.953 132.618 112.157 132.618 115.424C132.577 118.69 131.271 120.854 128.78 120.854Z" fill="white"/>
<path d="M146.498 103.992C147.723 102.767 147.723 100.807 146.498 99.5822C145.273 98.3574 143.313 98.3574 142.089 99.5822C140.864 100.807 140.864 102.767 142.089 103.992C143.273 105.216 145.273 105.216 146.498 103.992Z" fill="white"/>
<path d="M139.312 110.44H141.721V124.403H147.437V106.398H139.353V110.44H139.312Z" fill="white"/>
<path d="M161.4 105.869C158.909 105.869 157.195 106.931 155.847 108.85H155.725V106.4H150.254V124.364H155.97V114.443C155.97 112.238 157.235 110.646 159.113 110.646C160.992 110.646 161.931 111.952 161.931 113.83V124.364H167.646V112.687C167.646 108.686 165.319 105.869 161.4 105.869Z" fill="white"/>
<path d="M181.042 99.2549H170.346V124.323H180.634C183.778 124.323 186.309 123.506 188.269 122.037C191.086 119.873 192.637 116.362 192.637 111.911C192.637 104.277 187.983 99.2549 181.042 99.2549ZM180.185 119.138H176.551V104.44H180.267C184.145 104.44 186.391 107.38 186.391 111.952C186.35 116.566 184.268 119.138 180.185 119.138Z" fill="white"/>
<path d="M209.584 108.233C208.032 106.845 205.991 105.988 203.46 105.988C197.989 105.988 194.273 110.111 194.273 115.46C194.273 120.89 197.907 125.013 203.827 125.013C206.113 125.013 207.91 124.401 209.42 123.38C210.972 122.278 212.033 120.767 212.442 119.134H206.889C206.399 120.236 205.419 120.93 203.909 120.93C201.582 120.93 200.234 119.42 199.867 117.011H212.768C212.768 113.296 211.707 110.193 209.584 108.233ZM199.867 113.541C200.234 111.377 201.377 110.029 203.541 110.029C205.378 110.029 206.726 111.418 206.93 113.541H199.867Z" fill="white"/>
<path d="M223.993 113.132C221.707 112.724 219.706 112.52 219.706 111.295C219.706 110.193 220.808 109.662 222.197 109.662C223.789 109.662 224.85 110.152 225.054 111.744H230.321C230.035 108.192 227.3 105.988 222.237 105.988C217.991 105.988 214.48 107.947 214.48 111.744C214.48 115.949 217.787 116.807 220.931 117.297C223.34 117.705 225.504 117.909 225.504 119.501C225.504 120.685 224.401 121.298 222.686 121.298C220.808 121.298 219.624 120.44 219.379 118.644H213.99C214.154 122.604 217.461 125.054 222.727 125.054C227.422 125.054 230.893 123.013 230.893 119.093C230.852 114.48 227.177 113.663 223.993 113.132Z" fill="white"/>
<path d="M244.282 113.137L250.61 106.401H244.037L238.689 112.484V99.2966H233.055V124.406H238.689V118.894L240.404 117.057L244.69 124.406H251.305L244.282 113.137Z" fill="white"/>
<path d="M172.545 61.8377C173.484 61.8377 174.26 61.062 174.26 60.123C174.26 59.1839 173.484 58.4082 172.545 58.4082C171.606 58.4082 170.83 59.1839 170.83 60.123C170.83 61.062 171.565 61.8377 172.545 61.8377Z" fill="#F8BF1E"/>
<path d="M186.344 61.8377C187.283 61.8377 188.058 61.062 188.058 60.123C188.058 59.1839 187.283 58.4082 186.344 58.4082C185.405 58.4082 184.629 59.1839 184.629 60.123C184.629 61.062 185.364 61.8377 186.344 61.8377Z" fill="#F8BF1E"/>
<path d="M191.408 45.9583C191.244 43.427 189.203 41.3856 186.672 41.1815C185.039 41.059 183.61 41.6714 182.589 42.7329C181.813 43.5495 180.752 43.9986 179.649 43.9986H179.241C178.098 43.9986 177.036 43.5087 176.22 42.6921C175.281 41.7531 173.974 41.1815 172.545 41.1815C171.116 41.1815 169.81 41.7939 168.871 42.6921C168.054 43.5087 166.993 43.9986 165.85 43.9986H165.482C164.38 43.9986 163.278 43.5495 162.502 42.7738C162.339 42.6105 162.175 42.4471 162.012 42.3247C160.093 40.7324 157.235 40.8141 155.357 42.4471C153.112 44.4477 153.03 47.918 155.112 50.0002C155.153 50.0411 155.153 50.0411 155.194 50.0819C156.01 50.8576 156.459 51.9599 156.459 53.0623V53.4706C156.459 54.6137 155.969 55.6752 155.153 56.4918C154.214 57.4308 153.642 58.7373 153.642 60.1663C153.642 61.5952 154.255 62.9017 155.153 63.8407C155.969 64.6573 156.459 65.7188 156.459 66.862V67.3927C156.459 68.4951 155.969 69.5566 155.194 70.3323C154.173 71.3122 153.561 72.7003 153.642 74.2517C153.765 76.9463 155.929 79.1102 158.623 79.1918C160.175 79.2327 161.563 78.6203 162.543 77.5996C163.318 76.783 164.38 76.2931 165.482 76.2931H165.931C167.034 76.2931 168.095 76.783 168.871 77.5996C169.892 78.6611 171.361 79.2735 172.995 79.1918C175.526 79.0285 177.567 76.9463 177.771 74.415C177.975 71.3938 175.607 68.8625 172.627 68.8625C171.198 68.8625 169.932 69.4341 168.993 70.3731C168.177 71.1897 167.115 71.6388 166.013 71.6388H165.523C164.421 71.6388 163.318 71.1897 162.502 70.3731C162.461 70.3323 162.461 70.3323 162.461 70.3323C161.644 69.5157 161.155 68.4542 161.155 67.3111V66.8211C161.155 65.678 161.644 64.6165 162.461 63.7999C163.4 62.8609 163.972 61.5544 163.972 60.1254C163.972 58.6965 163.359 57.39 162.461 56.451C161.644 55.6344 161.155 54.5729 161.155 53.4297V53.0215C161.155 51.8783 161.644 50.8168 162.42 50.0002C162.461 49.9594 162.461 49.9594 162.461 49.9594C162.502 49.9186 162.502 49.9186 162.502 49.9186C163.318 49.102 164.38 48.6529 165.523 48.6529H165.931C167.075 48.6529 168.136 49.1428 168.953 49.9594C169.892 50.8984 171.198 51.47 172.627 51.47C174.056 51.47 175.363 50.8576 176.302 49.9594C177.118 49.1428 178.18 48.6529 179.323 48.6529H179.69C180.833 48.6529 181.895 49.1428 182.711 49.9594C183.65 50.8984 184.957 51.47 186.386 51.47C189.244 51.5108 191.612 48.9795 191.408 45.9583Z" fill="#F8BF1E"/>
</svg>
