<svg width="185" height="55" viewBox="0 0 185 55" fill="none" xmlns="http://www.w3.org/2000/svg">
<path fill-rule="evenodd" clip-rule="evenodd" d="M26.9405 0C27.4889 0 28.2256 0.0221647 28.5746 0.0498705C28.9235 0.0831176 29.4497 0.132988 29.7378 0.160694C30.0258 0.1884 30.5409 0.254894 30.8733 0.299223C31.2056 0.343553 31.682 0.421129 31.9257 0.465458C32.1694 0.509788 32.6679 0.609529 33.0335 0.687105C33.3991 0.75914 33.7591 0.847799 33.8367 0.875505C33.9142 0.908752 34.0859 0.958623 34.2244 0.99187C34.3629 1.02512 34.7229 1.1304 35.0276 1.21906C35.3322 1.31326 35.792 1.46287 36.0523 1.55707C36.3126 1.64573 36.7336 1.80642 36.9939 1.9117C37.2543 2.01145 37.6254 2.16106 37.8248 2.24417C38.0242 2.32729 38.6224 2.60989 39.1542 2.88141C39.6859 3.14739 40.2731 3.45215 40.4559 3.56297C40.6386 3.66826 40.9267 3.84003 41.0929 3.93977C41.2535 4.03951 41.6911 4.32211 42.0622 4.56038C42.4278 4.8042 42.9041 5.13667 43.1146 5.29736C43.3251 5.45805 43.5522 5.62983 43.6131 5.67416C43.6741 5.71849 43.9732 5.9623 44.2778 6.21719C44.5825 6.46655 45.1419 6.95971 45.5241 7.31435C45.9063 7.66344 46.5045 8.26189 46.8535 8.64423C47.2024 9.02103 47.6899 9.57514 47.9336 9.86883C48.1773 10.1625 48.5651 10.6612 48.8032 10.9771C49.0359 11.2874 49.3627 11.7473 49.5289 11.9911C49.695 12.2349 50.0606 12.8223 50.3431 13.2933C50.62 13.7643 51.0576 14.5622 51.3069 15.0664C51.5562 15.5707 51.9273 16.3908 52.1267 16.895C52.3316 17.3993 52.6197 18.1806 52.7747 18.6405C52.9243 19.0949 53.1292 19.7709 53.2234 20.1366C53.3176 20.5023 53.4782 21.2116 53.5835 21.7158C53.6887 22.2201 53.8106 22.9515 53.8604 23.3505C53.9047 23.7439 53.9712 24.2315 54.0044 24.431C54.0377 24.6305 54.0764 25.578 54.093 26.5367C54.1097 27.5396 54.0986 28.5758 54.0653 28.9748C54.0321 29.3571 53.9656 30.0054 53.9158 30.4155C53.8659 30.8255 53.7939 31.3741 53.7496 31.6345C53.7053 31.895 53.5945 32.4546 53.5059 32.8813C53.4117 33.308 53.2622 33.9175 53.1736 34.2389C53.0849 34.5603 52.9631 34.9814 52.9021 35.1809C52.8412 35.3804 52.7027 35.7904 52.5975 36.0952C52.4867 36.4 52.3482 36.7878 52.2818 36.9541C52.2153 37.1203 52.1267 37.3309 52.0879 37.4251C52.0436 37.5193 51.9605 37.7132 51.8996 37.8684C51.8442 38.018 51.6503 38.4446 51.4731 38.8104C51.2958 39.1761 51.041 39.6748 50.9081 39.9186C50.7751 40.1624 50.609 40.4616 50.537 40.5835C50.4705 40.7054 50.2877 41.0047 50.1381 41.2485C49.9886 41.4923 49.7283 41.9023 49.5565 42.1628C49.3848 42.4232 49.1079 42.8222 48.9362 43.0494C48.77 43.2766 48.5927 43.5148 48.5429 43.5758C48.4986 43.6367 48.2438 43.947 47.9779 44.2684C47.712 44.5898 47.3077 45.0608 47.0806 45.3157C46.8479 45.5761 46.4713 45.9751 46.2442 46.2023C46.0171 46.435 45.5906 46.8395 45.3025 47.1C45.0145 47.3604 44.5382 47.7704 44.2501 48.0142C43.9621 48.2581 43.4857 48.6293 43.1977 48.8454C42.9097 49.056 42.4832 49.3552 42.2561 49.5104C42.029 49.6655 41.6301 49.926 41.3698 50.0866C41.1095 50.2529 40.7494 50.469 40.5666 50.5743C40.3839 50.6796 39.913 50.9344 39.5142 51.1395C39.1154 51.3445 38.4839 51.6548 38.1018 51.821C37.7196 51.9928 37.1158 52.2477 36.7558 52.3862C36.4013 52.5248 36.0745 52.6356 36.0357 52.6356C35.9969 52.6356 35.9415 52.6577 35.9138 52.6855C35.8806 52.7132 35.6369 52.8074 35.3599 52.8849C35.083 52.9681 34.5623 53.1177 34.1967 53.2229C33.8311 53.3227 33.3326 53.4501 33.0889 53.4945C32.8452 53.5443 32.5682 53.6108 32.4796 53.6385C32.391 53.6662 31.9035 53.7494 31.3995 53.8269C30.8954 53.9045 30.0978 54.0098 29.627 54.0597C28.9844 54.1372 28.3364 54.1594 27.0236 54.1539C25.7718 54.1539 25.0517 54.1262 24.4756 54.0652C24.0325 54.0098 23.3346 53.9211 22.9247 53.8602C22.5148 53.7992 22.0662 53.7272 21.9277 53.694C21.7892 53.6662 21.4292 53.5942 21.1245 53.5277C20.8199 53.4612 20.3823 53.3559 20.1552 53.295C19.9281 53.234 19.4517 53.0955 19.1028 52.9847C18.7538 52.8794 18.2553 52.7187 17.9949 52.63C17.7346 52.5358 17.3856 52.4029 17.2195 52.3308C17.0533 52.2532 16.8982 52.1923 16.876 52.1923C16.8484 52.1923 16.7265 52.1424 16.5991 52.087C16.4662 52.0261 16.1006 51.8654 15.7793 51.7213C15.458 51.5772 14.8875 51.3002 14.5053 51.0951C14.1231 50.8957 13.5028 50.5466 13.1206 50.3194C12.7384 50.0922 12.1512 49.7154 11.8189 49.4882C11.4865 49.261 10.9603 48.8842 10.6557 48.6515C10.351 48.4243 9.85251 48.0253 9.54786 47.7649C9.24321 47.5045 8.5176 46.8174 7.93599 46.2411C7.35439 45.6593 6.65647 44.9223 6.38505 44.6009C6.11364 44.2795 5.83669 43.9415 5.77022 43.8528C5.70375 43.7586 5.47665 43.4594 5.2717 43.1768C5.06676 42.8942 4.7898 42.5119 4.65687 42.3179C4.52947 42.124 4.27467 41.7472 4.10296 41.4701C3.92571 41.1931 3.60444 40.65 3.38288 40.2511C3.16686 39.8521 2.8179 39.1705 2.60187 38.7272C2.39139 38.284 2.07012 37.547 1.88733 37.0926C1.70454 36.6327 1.47744 36.0121 1.37774 35.7073C1.27803 35.4025 1.15064 34.9925 1.08971 34.793C1.02878 34.5935 0.917996 34.1946 0.840449 33.9064C0.768441 33.6183 0.629964 33.0198 0.541339 32.5765C0.452714 32.1333 0.341932 31.5348 0.29762 31.2467C0.253307 30.9585 0.164682 30.1938 0.0982135 29.5566C-0.00148972 28.5592 -0.0125679 28.1602 0.00958842 26.7583C0.0262056 25.8606 0.0760572 24.7635 0.125909 24.3202C0.170221 23.8769 0.23669 23.3283 0.275464 23.1011C0.308698 22.874 0.408401 22.2977 0.502565 21.8267C0.591191 21.3557 0.768441 20.591 0.8903 20.1366C1.01216 19.6767 1.21711 18.9785 1.35004 18.5851C1.48852 18.1861 1.67131 17.6653 1.75993 17.4214C1.84856 17.1776 1.98704 16.8285 2.06458 16.6457C2.14767 16.4628 2.23629 16.2633 2.26399 16.2024C2.29168 16.1414 2.49663 15.7037 2.72373 15.2327C2.95083 14.7617 3.26656 14.1522 3.42165 13.8751C3.57675 13.598 3.70415 13.3708 3.70415 13.3598C3.70415 13.3542 3.86478 13.0938 4.06419 12.7779C4.26359 12.4676 4.54608 12.041 4.6901 11.8359C4.83412 11.6254 5.11107 11.2375 5.31048 10.9715C5.50988 10.7055 5.74806 10.3952 5.83669 10.2789C5.92531 10.1625 6.22442 9.79679 6.49584 9.4754C6.77279 9.15402 7.40424 8.47799 7.9083 7.97375C8.41789 7.4695 9.07704 6.84335 9.38169 6.58291C9.68634 6.32248 10.2347 5.87918 10.6003 5.60212C10.9659 5.32507 11.2927 5.07571 11.3204 5.04801C11.3481 5.02584 11.7026 4.79311 12.0958 4.52714C12.4891 4.2667 13.0319 3.92315 13.3034 3.768C13.5692 3.61284 13.8129 3.4854 13.8406 3.4854C13.8683 3.4854 13.9016 3.46323 13.9126 3.44107C13.9182 3.41336 14.3724 3.16955 14.9208 2.89803C15.4691 2.62097 16.0563 2.33837 16.2224 2.27188C16.3886 2.19985 16.7376 2.05577 16.9979 1.95049C17.2582 1.84521 17.5795 1.7233 17.718 1.67897C17.8565 1.6291 18.0946 1.54599 18.2442 1.49058C18.3993 1.42962 18.7704 1.31326 19.0751 1.21906C19.3797 1.1304 19.8173 1.00295 20.0444 0.936458C20.2715 0.869964 20.7479 0.753599 21.0968 0.681564C21.4458 0.603988 21.9332 0.509788 22.1769 0.465458C22.4207 0.421129 22.897 0.343553 23.2294 0.299223C23.5617 0.249353 24.0879 0.1884 24.3926 0.160694C24.6972 0.127447 25.168 0.0831176 25.445 0.0554117C25.7219 0.033247 26.3922 0.00554117 26.9405 0ZM23.7002 4.48281C23.0466 4.57701 22.4982 4.66567 22.4816 4.67675C22.465 4.68783 22.2046 4.74878 21.9 4.81528C21.5953 4.88177 21.1079 5.00368 20.8199 5.09234C20.5318 5.17545 20.0832 5.31398 19.8228 5.3971C19.5625 5.48022 19.1637 5.62429 18.9366 5.71295C18.7095 5.80161 18.3217 5.95676 18.078 6.06204C17.8343 6.16732 17.3746 6.37789 17.0533 6.53304C16.732 6.69373 16.1947 6.97079 15.8624 7.15919C15.5301 7.34205 14.9263 7.70777 14.533 7.9682C14.1397 8.22864 13.5748 8.62206 13.2867 8.83817C12.9987 9.05981 12.4503 9.50865 12.0681 9.84112C11.6859 10.1736 11.1763 10.6446 10.9271 10.8829C10.6778 11.1267 10.2901 11.5367 10.0685 11.7972C9.84143 12.0576 9.47032 12.4953 9.24321 12.7724C9.01611 13.055 8.67823 13.4928 8.4899 13.7421C8.30711 13.997 8.0357 14.396 7.88614 14.6232C7.74213 14.8503 7.47071 15.2881 7.29346 15.5929C7.11067 15.8976 6.76725 16.5459 6.52907 17.0336C6.29089 17.5212 6.0084 18.1307 5.90316 18.3911C5.79791 18.6516 5.6539 19.0118 5.58743 19.1946C5.52096 19.3775 5.38802 19.7764 5.28278 20.0812C5.18308 20.386 5.02244 20.9345 4.92828 21.3003C4.83412 21.666 4.68456 22.3365 4.59594 22.7964C4.50177 23.2508 4.39099 23.9877 4.34668 24.431C4.30237 24.8743 4.2359 25.6722 4.19712 26.2042C4.14727 27.0132 4.15281 27.3734 4.22482 28.393C4.27467 29.0634 4.35222 29.9002 4.40207 30.2493C4.44638 30.5984 4.54608 31.1857 4.62363 31.5514C4.69564 31.9171 4.83412 32.5156 4.92828 32.8813C5.02244 33.247 5.21077 33.8843 5.34925 34.2943C5.48219 34.7044 5.70929 35.3305 5.8533 35.6796C5.99178 36.0287 6.21334 36.5329 6.34628 36.7989C6.47922 37.0704 6.58446 37.2976 6.58446 37.3142C6.58446 37.3309 6.72294 37.5968 6.90019 37.9072C7.0719 38.223 7.23807 38.5278 7.27131 38.5887C7.30454 38.6552 7.44302 38.8824 7.58149 39.104C7.71997 39.3257 8.00246 39.7524 8.20741 40.046C8.41235 40.3397 8.62838 40.6445 8.67823 40.7165C8.72808 40.7886 8.96072 41.0767 9.18782 41.3593C9.41493 41.6364 9.74727 42.0409 9.92452 42.2514C10.0962 42.462 10.5338 42.9219 10.8939 43.2765C11.2484 43.6256 11.8023 44.1354 12.1235 44.4125C12.4448 44.684 12.8325 45.0109 12.9821 45.1328C13.1372 45.2547 13.5083 45.5263 13.8129 45.7424C14.1176 45.9529 14.5773 46.2632 14.8377 46.4295C15.0925 46.5957 15.3805 46.7786 15.4747 46.8284C15.5633 46.8839 15.9399 47.0889 16.3055 47.2828C16.6711 47.4823 17.1585 47.7261 17.3856 47.8314C17.6127 47.9367 17.9728 48.0974 18.1888 48.1916C18.4048 48.2802 18.6762 48.3911 18.7981 48.4298C18.92 48.4686 19.0474 48.5185 19.0751 48.5407C19.1028 48.5573 19.4406 48.6792 19.8228 48.8011C20.205 48.923 20.6869 49.0782 20.903 49.1391C21.119 49.2001 21.5289 49.3053 21.8169 49.3718C22.1049 49.4383 22.5148 49.5214 22.7308 49.5658C22.9469 49.6101 23.4066 49.6821 23.7556 49.732C24.1045 49.7819 24.5532 49.8428 24.7526 49.8705C24.952 49.8927 25.6998 49.9315 26.4143 49.9537C27.2452 49.9758 28.0373 49.9647 28.6023 49.926C29.0897 49.8927 29.6768 49.8373 29.9039 49.7985C30.131 49.7653 30.6572 49.6821 31.0671 49.6101C31.477 49.5436 32.0752 49.4217 32.3965 49.3497C32.7178 49.2721 33.1166 49.1668 33.2828 49.1169C33.4489 49.0671 33.8644 48.9341 34.1967 48.8288C34.5291 48.718 35.094 48.5185 35.443 48.38C35.792 48.247 36.4566 47.9533 36.9109 47.7372C37.3706 47.5155 38.0187 47.1775 38.351 46.9891C38.6834 46.7952 39.3203 46.3962 39.7635 46.1081C40.2066 45.8144 40.7771 45.4044 41.0375 45.1938C41.2978 44.9888 41.608 44.7394 41.7243 44.6397C41.8462 44.5399 42.1951 44.2352 42.4998 43.9581C42.81 43.6811 43.3196 43.1823 43.6297 42.8499C43.9455 42.5174 44.4883 41.8968 44.8317 41.4701C45.1751 41.0435 45.6349 40.4395 45.8509 40.1236C46.0669 39.8133 46.2442 39.5307 46.2442 39.503C46.2442 39.4753 46.2608 39.4421 46.2885 39.431C46.3106 39.4254 46.4104 39.2814 46.5156 39.1151C46.6153 38.9489 46.7538 38.7217 46.8147 38.6164C46.8756 38.5111 47.0806 38.1288 47.2744 37.7686C47.4683 37.414 47.629 37.1092 47.629 37.0926C47.629 37.076 47.7065 36.9097 47.8007 36.7158C47.8948 36.5274 48.0887 36.073 48.2382 35.7073C48.3823 35.3416 48.5927 34.793 48.698 34.4883C48.8088 34.1835 48.9639 33.6959 49.047 33.4077C49.1245 33.1196 49.263 32.5544 49.3516 32.161C49.4402 31.762 49.551 31.23 49.5953 30.9696C49.6396 30.7092 49.7172 30.1606 49.767 29.7505C49.8113 29.3405 49.8723 28.5924 49.9 28.0882C49.9277 27.584 49.9387 26.847 49.9221 26.4536C49.9055 26.0546 49.8723 25.5116 49.8446 25.2345C49.8113 24.9574 49.7504 24.3978 49.7006 23.9877C49.6507 23.5777 49.5399 22.8906 49.4513 22.4639C49.3627 22.0372 49.2131 21.4111 49.119 21.0786C49.0248 20.7461 48.8863 20.2696 48.8088 20.0258C48.7257 19.782 48.5817 19.3609 48.4764 19.0838C48.3767 18.8067 48.2659 18.5352 48.2382 18.4743C48.2106 18.4133 48.133 18.2249 48.0665 18.0587C47.9945 17.8924 47.7674 17.4048 47.5514 16.9781C47.3409 16.5515 47.0363 15.9807 46.8812 15.7037C46.7205 15.4266 46.4547 14.9944 46.283 14.734C46.1168 14.4735 45.8398 14.0635 45.6681 13.8197C45.5019 13.5759 45.0699 13.0162 44.7099 12.5729C44.3498 12.1352 43.7073 11.4259 43.2808 10.9937C42.8543 10.567 42.184 9.9464 41.7852 9.61393C41.3864 9.287 40.7439 8.78276 40.3451 8.5057C39.9463 8.2231 39.4754 7.89617 39.2927 7.7798C39.1099 7.66344 38.7387 7.44179 38.4618 7.2811C38.1848 7.1204 37.642 6.83226 37.2432 6.63278C36.8444 6.4333 36.3126 6.18395 36.0523 6.07312C35.792 5.9623 35.443 5.81823 35.2768 5.75174C35.1107 5.69078 34.734 5.55225 34.446 5.45251C34.1579 5.35277 33.6594 5.19208 33.3382 5.10342C33.0169 5.00922 32.5073 4.88177 32.2026 4.81528C31.898 4.74878 31.6377 4.68783 31.621 4.67675C31.6044 4.66567 31.0671 4.58255 30.4301 4.48835C29.7932 4.39415 28.846 4.29441 28.3253 4.26116C27.8046 4.23346 27.1621 4.21129 26.8851 4.21683C26.6082 4.21683 26.0487 4.239 25.6389 4.2667C25.229 4.28887 24.3538 4.38861 23.7002 4.48281ZM36.8222 10.4673C36.8721 10.4673 36.9718 10.5504 37.0493 10.6501C37.1213 10.7499 37.3097 11.0768 37.4648 11.3816C37.6254 11.6863 37.7805 12.0354 37.8137 12.1573C37.8525 12.2792 37.8802 12.5286 37.8802 12.7114C37.8802 12.8943 37.8525 13.1326 37.8193 13.2379C37.786 13.3487 37.7251 13.5149 37.6808 13.6147C37.6365 13.7144 37.6032 13.8086 37.6032 13.8197C37.6032 13.8363 37.5146 14.0358 37.4094 14.263C37.3041 14.4957 37.2155 14.7063 37.2155 14.734C37.2155 14.7672 37.3872 14.9002 37.5922 15.0387C37.7971 15.1717 38.1294 15.4543 38.3289 15.6594C38.5283 15.8699 38.7886 16.1802 38.9105 16.3575C39.0268 16.5349 39.1542 16.6789 39.1819 16.6789C39.2151 16.6789 39.337 16.6291 39.4588 16.5626C39.5807 16.5016 39.9075 16.3631 40.1789 16.2467C40.5389 16.1026 40.7882 16.0361 41.0652 16.0195C41.3366 16.0029 41.5471 16.0251 41.7575 16.0916C41.9237 16.147 42.317 16.3243 42.6327 16.4905C42.9429 16.6512 43.2476 16.8285 43.3085 16.8839C43.3694 16.9394 43.4193 17.0169 43.4248 17.0613C43.4248 17.1111 43.3916 17.1776 43.3528 17.2109C43.2974 17.2663 43.2531 17.2663 43.1423 17.2053C43.0648 17.1665 42.8654 17.0557 42.6992 16.9615C42.533 16.8618 42.2339 16.7066 42.0345 16.618C41.8351 16.5238 41.5637 16.424 41.4252 16.4019C41.2812 16.3686 41.0652 16.3742 40.899 16.4074C40.7494 16.4351 40.5999 16.4794 40.5666 16.5016C40.5389 16.5238 40.3894 16.5903 40.2343 16.6457C40.0847 16.7011 39.8355 16.8064 39.4034 17.0225L39.625 17.0945C39.7524 17.1388 39.9463 17.2718 40.0847 17.4214C40.2675 17.6209 40.3229 17.7262 40.3506 17.9368C40.3728 18.0808 40.3728 18.2859 40.3506 18.3911C40.334 18.502 40.262 18.6737 40.19 18.779C40.118 18.8954 39.9518 19.0284 39.8022 19.1004C39.6361 19.1835 39.5087 19.2888 39.4533 19.4052C39.4034 19.5049 39.2927 19.6822 39.2096 19.8041C39.1265 19.9261 38.9271 20.12 38.7609 20.2308C38.5947 20.3416 38.3233 20.4635 38.1571 20.4968C37.9688 20.5411 37.642 20.5577 37.2986 20.5411C36.9164 20.519 36.6561 20.4746 36.4566 20.3971C36.296 20.3306 36.1409 20.2751 36.1077 20.2751C36.0745 20.2751 36.0689 20.3139 36.1022 20.3749C36.1298 20.4303 36.1797 20.6575 36.2185 20.8847C36.2572 21.1229 36.2739 21.4831 36.2572 21.7158C36.2406 21.9486 36.1963 22.209 36.1631 22.2977C36.1132 22.4417 36.1188 22.4805 36.2019 22.5526C36.2572 22.6024 36.6505 22.8629 37.8525 23.622L38.1848 23.5832C38.3676 23.5666 38.7277 23.5223 38.988 23.4946C39.2483 23.4669 39.6915 23.4392 39.974 23.4392C40.3783 23.4392 40.4946 23.4558 40.5279 23.5223C40.55 23.5666 40.5445 23.622 40.5168 23.6442C40.4946 23.6663 40.1789 23.7384 39.8244 23.8104C39.4699 23.8769 38.8329 23.9711 37.6309 24.1152L36.9662 23.8547C36.6007 23.7162 36.224 23.5611 36.1243 23.5167C36.0246 23.4724 35.9415 23.4502 35.9415 23.4613C35.9415 23.4779 36.0855 23.7661 36.5785 24.7136L37.1324 24.8854C37.4371 24.9796 37.9467 25.1403 38.2679 25.2456C38.5892 25.3453 38.8994 25.4561 38.9603 25.4838C39.0212 25.5116 39.193 25.5836 39.337 25.6501C39.481 25.711 39.5918 25.7942 39.5807 25.8329C39.5641 25.8773 39.4588 25.8994 39.2594 25.8884C39.0933 25.8828 38.8108 25.8385 38.628 25.7942C38.4452 25.7498 37.847 25.6058 37.2986 25.4783C36.3182 25.2511 36.3016 25.24 36.0966 25.0184C35.9803 24.8965 35.8861 24.8134 35.8861 24.8355C35.8861 24.8577 35.9304 25.0461 35.9914 25.2511C36.0468 25.4561 36.1298 25.7 36.1797 25.7886C36.224 25.8828 36.4954 26.171 36.7835 26.4258C37.0659 26.6863 37.4537 27.0686 37.6475 27.2736C37.8359 27.4787 37.991 27.6948 37.991 27.7557C37.991 27.8167 37.9744 27.8721 37.9522 27.8721C37.93 27.8721 37.6476 27.6892 37.3263 27.462C37.005 27.2349 36.5342 26.8636 36.2739 26.642C35.8861 26.3039 35.7698 26.1654 35.6092 25.844C35.5039 25.6279 35.2602 25.1292 35.0719 24.7358C34.7395 24.0542 34.7174 24.021 34.5789 24.0431C34.4958 24.0598 34.4238 24.093 34.4127 24.1152C34.4017 24.1373 34.4294 24.3147 34.4681 24.5031C34.5124 24.6915 34.6177 25.2123 34.6952 25.6501C34.7783 26.0934 34.9168 26.8802 35.0054 27.3956C35.094 27.9164 35.2436 28.8141 35.3322 29.3904C35.4264 29.9722 35.5649 30.8809 35.6369 31.4129C35.7144 31.9504 35.7864 32.4214 35.803 32.4657C35.8141 32.5156 35.875 33.0476 35.9415 33.6571C36.0024 34.2666 36.08 34.9814 36.1077 35.2363C36.1409 35.4967 36.1908 36.0453 36.2185 36.4554C36.2462 36.871 36.3016 38.0789 36.3403 39.1428C36.3957 40.6722 36.3902 41.448 36.3403 42.8C36.3016 43.7475 36.2462 44.7173 36.2185 44.9611C36.1908 45.2049 36.1243 45.5651 36.0689 45.759C36.0135 45.9529 35.9415 46.1358 35.9027 46.1635C35.864 46.1857 35.7753 46.1912 35.7089 46.1746C35.6369 46.1524 35.4707 46.0361 35.3378 45.9086C35.2048 45.7867 34.9445 45.4819 34.7562 45.2381C34.5678 44.9943 34.2133 44.4845 33.9696 44.1022C33.7204 43.7254 33.4545 43.2876 33.3659 43.1325C33.2772 42.9829 33.0446 42.5728 32.8507 42.2182C32.6513 41.8691 32.3079 41.1986 32.0808 40.7221C31.8537 40.2511 31.6487 39.8133 31.6155 39.7524C31.5878 39.6914 31.5047 39.4587 31.4272 39.226C31.3496 38.9988 31.2222 38.5278 31.1447 38.1731C31.0616 37.824 30.9508 37.2755 30.8954 36.9541C30.84 36.6382 30.7514 35.94 30.7016 35.4025C30.6129 34.4495 30.6129 34.4273 30.7293 33.8233C30.7957 33.4798 30.9176 33.0586 31.0173 32.8536C31.1114 32.6597 31.3053 32.3217 31.4493 32.1055C31.5989 31.895 31.7928 31.5681 31.8869 31.3852C31.9755 31.2023 32.0808 30.9419 32.1196 30.8034C32.1583 30.6704 32.2082 30.421 32.2359 30.2493C32.2636 30.083 32.3356 29.346 32.4021 28.6146C32.463 27.8832 32.535 27.0631 32.5682 26.786C32.6015 26.5145 32.6679 25.8274 32.7289 25.2622C32.8064 24.492 32.8119 24.2205 32.7676 24.1706C32.7289 24.1318 32.6125 24.0875 32.5073 24.0708C32.4021 24.0542 32.1196 23.9434 31.8869 23.8215C31.6487 23.6996 31.4438 23.5998 31.4272 23.5998C31.4106 23.5998 31.4659 23.7605 31.5435 23.9489C31.6654 24.2315 31.6931 24.3812 31.6931 24.7912C31.6931 25.1735 31.6654 25.3786 31.5712 25.6501C31.4992 25.8496 31.3607 26.182 31.2555 26.3871C31.1502 26.5921 30.9841 26.8913 30.8788 27.052C30.7791 27.2127 30.5852 27.4787 30.4523 27.6449C30.3194 27.8167 29.915 28.2988 29.5494 28.7254C29.1783 29.1521 28.4084 29.9777 27.8268 30.5596C27.2175 31.1691 26.4365 31.8784 25.9712 32.2496C25.5281 32.6043 25.0462 32.9755 24.8911 33.0752C24.7415 33.175 24.4646 33.3689 24.2818 33.4964C24.099 33.6294 23.9328 33.7402 23.9107 33.7402C23.8885 33.7402 23.678 33.8676 23.4509 34.0173C23.2238 34.1724 23.0244 34.2943 23.0078 34.2943C22.9912 34.2943 22.8416 34.383 22.6755 34.4883C22.5093 34.5991 22.3597 34.6822 22.3431 34.6822C22.3265 34.6822 22.2212 34.7431 22.1105 34.8152C21.9941 34.8872 21.6618 35.0756 21.3738 35.2419C21.0857 35.4025 20.3103 35.807 19.6567 36.1395C19.0031 36.472 17.9451 36.9762 17.3026 37.2644C16.6656 37.5525 16.1283 37.7797 16.1117 37.7631C16.095 37.7465 16.2224 37.4417 16.3831 37.0815C16.5492 36.7213 16.8207 36.1451 16.9868 35.7904C17.1475 35.4413 17.4687 34.7875 17.6958 34.3386C17.9229 33.8898 18.3217 33.1307 18.5821 32.6486C18.848 32.1665 19.2135 31.5237 19.3963 31.219C19.5791 30.9142 19.9558 30.3157 20.2327 29.8891C20.5041 29.4624 20.842 28.9582 20.9805 28.7642C21.1245 28.5758 21.3572 28.26 21.5012 28.0716C21.6507 27.8832 22.0662 27.4066 22.4262 27.0077C22.7918 26.6142 23.4509 25.9382 23.8996 25.5116C24.3483 25.0849 24.9077 24.5696 25.1348 24.359C25.3674 24.1484 25.8826 23.7384 26.2758 23.4392C26.6747 23.1455 27.1566 22.813 27.356 22.7077C27.5554 22.5969 27.9154 22.4362 28.1591 22.3531C28.5247 22.2256 28.6909 22.1979 29.1008 22.1979C29.5107 22.2035 29.6602 22.2256 29.9482 22.3475C30.1366 22.4307 30.2861 22.475 30.2751 22.4528C30.264 22.4307 30.1809 22.2478 30.0812 22.0483C29.987 21.8544 29.8707 21.5496 29.7378 21.0509L29.5051 21.0842C29.3722 21.1008 28.7463 21.1617 28.1037 21.2227C27.4667 21.2892 26.6027 21.3723 26.1928 21.4111C25.7829 21.4554 25.0462 21.5164 24.5587 21.5496C24.0325 21.5884 23.5063 21.6604 23.2571 21.7269C23.03 21.7934 22.681 21.9264 22.4816 22.0317C22.2822 22.1314 21.9609 22.3198 21.7615 22.4473C21.5621 22.5747 21.2851 22.7465 21.1411 22.8352C20.9971 22.9238 20.7312 23.0346 20.5595 23.0901C20.2937 23.1676 20.0444 23.1843 19.1304 23.1787C18.2941 23.1732 17.8565 23.1455 17.3303 23.0568C16.9481 22.9959 16.3775 22.8906 16.0563 22.8296C15.735 22.7687 15.2863 22.6579 15.0592 22.5858C14.8321 22.5082 14.4056 22.3586 14.1176 22.2423C13.8296 22.1314 13.3034 21.8987 12.9544 21.7214C12.6054 21.5441 12.1678 21.3224 11.9851 21.2227C11.8023 21.1229 11.4533 20.929 11.2096 20.7905C10.9659 20.6519 10.5781 20.4248 10.351 20.2918C10.1239 20.1532 9.83589 19.9759 9.71404 19.8928C9.59218 19.8152 9.48139 19.7377 9.46478 19.721C9.44816 19.7044 9.36507 19.6435 9.27091 19.588C9.18228 19.5326 8.91641 19.3442 8.68931 19.178C8.46221 19.0062 8.15202 18.7402 8.008 18.5906C7.85845 18.4355 7.72551 18.2582 7.70889 18.1972C7.69228 18.1363 7.69781 18.0587 7.71443 18.0199C7.73105 17.9811 7.83075 17.9146 7.93046 17.8758C8.03016 17.8315 8.29603 17.7705 8.52314 17.7373C8.75024 17.704 9.27645 17.6431 9.68634 17.6098C10.135 17.5655 11.3924 17.5433 12.8159 17.5433C14.1287 17.5433 15.7239 17.5766 16.3609 17.6098C17.0034 17.6486 17.9119 17.7151 18.3827 17.7595C18.8535 17.8038 19.7508 17.898 20.3767 17.9756C21.0027 18.0476 22.0218 18.1861 22.6478 18.2748C23.2737 18.369 24.2596 18.5186 24.8357 18.6128C25.4173 18.707 26.298 18.8511 26.8021 18.9397C27.3061 19.0284 28.065 19.1669 28.4915 19.2445C28.918 19.3276 29.3666 19.4163 29.4885 19.444C29.6104 19.4717 29.7378 19.4772 29.7655 19.4495C29.7987 19.4273 29.843 19.3498 29.8652 19.2888C29.8984 19.1835 29.8596 19.1503 29.5051 18.9785C29.2836 18.8788 28.7906 18.646 28.4084 18.4632C27.7659 18.1584 27.6938 18.103 27.356 17.7207C27.1566 17.499 26.8907 17.1887 26.7688 17.0336C26.647 16.8839 26.4254 16.5847 26.2814 16.3686C26.1429 16.1581 26.0266 15.953 26.0266 15.9142C26.0266 15.8755 26.0709 15.8422 26.1263 15.8422C26.1761 15.8422 26.6303 16.2633 28.0373 17.6985L28.5579 17.8814C28.8571 17.9866 29.0565 18.031 29.0343 17.9922C29.0121 17.9534 28.9512 17.8924 28.8958 17.8537C28.8404 17.8149 28.7573 17.7096 28.713 17.6154C28.6687 17.5267 28.5912 17.3106 28.5413 17.1333C28.497 16.956 28.3585 16.3908 28.2422 15.8699C28.1259 15.3546 28.0207 14.7949 28.0096 14.6232C27.9985 14.3849 28.0096 14.3184 28.076 14.3184C28.1259 14.3184 28.2256 14.4902 28.3308 14.734C28.425 14.9667 28.6466 15.615 28.8238 16.1747C28.9955 16.7399 29.1728 17.2386 29.2116 17.2829C29.2503 17.3328 29.5384 17.499 29.843 17.6597C30.1532 17.8204 30.4025 17.9312 30.4025 17.9091C30.4025 17.8869 30.264 17.5046 29.7765 16.2578L29.8984 15.2881C29.9649 14.7561 30.0701 14.1078 30.131 13.8474C30.192 13.5925 30.2695 13.3542 30.2972 13.321C30.3341 13.284 30.3692 13.2933 30.4025 13.3487C30.4357 13.3986 30.4578 13.659 30.4523 13.9305C30.4523 14.2076 30.4301 14.6453 30.3969 14.9002C30.3692 15.1606 30.3304 15.5374 30.2806 16.0916L30.8013 16.8784C31.0838 17.3106 31.3496 17.6819 31.3884 17.6985C31.4272 17.7151 31.5767 17.704 31.7207 17.6708C31.8648 17.6375 32.2082 17.6098 32.4796 17.6154C32.7566 17.6154 33.1111 17.6486 33.2661 17.6874C33.4268 17.7262 33.5597 17.7539 33.5597 17.7539C33.5597 17.7539 33.5099 17.5932 33.4489 17.3937C33.3825 17.1998 33.3215 16.8618 33.2994 16.6457C33.2828 16.4185 33.2938 16.1137 33.3326 15.8976C33.3714 15.6981 33.4711 15.4266 33.5597 15.2881C33.6483 15.1551 33.8367 14.9279 33.9862 14.7894C34.1302 14.6453 34.3463 14.5068 34.4626 14.468C34.6232 14.4181 34.6786 14.3627 34.7229 14.2242C34.7506 14.1244 34.8725 13.9527 34.9833 13.8418C35.0996 13.7255 35.2658 13.6091 35.3488 13.5759C35.4319 13.5426 35.5981 13.5149 35.72 13.5149C35.8418 13.5149 36.0357 13.5537 36.152 13.6036C36.2628 13.6534 36.429 13.7587 36.512 13.8363C36.6007 13.9194 36.7059 14.0635 36.7502 14.1522C36.7945 14.2464 36.8278 14.3516 36.8278 14.3904C36.8278 14.4292 36.8499 14.4569 36.8721 14.4625C36.8942 14.4625 36.9386 14.3904 36.9773 14.3073C37.0106 14.2242 37.1435 13.9028 37.2764 13.598C37.4592 13.1658 37.5091 12.9774 37.5146 12.7114C37.5146 12.4455 37.4758 12.2903 37.3207 11.9357C37.21 11.6919 37.0161 11.3262 36.8942 11.1211C36.7668 10.9161 36.6561 10.7 36.6505 10.6446C36.6505 10.5892 36.6671 10.5282 36.6893 10.5061C36.717 10.4839 36.7779 10.4673 36.8222 10.4673Z" fill="white"/>
<path fill-rule="evenodd" clip-rule="evenodd" d="M75.0752 14.7768C77.0859 14.7878 77.3019 14.7989 78.1771 14.9319C78.6978 15.0095 79.2295 15.0981 79.368 15.1314C79.5065 15.1591 79.7668 15.2201 79.9496 15.2644C80.1324 15.3143 80.4426 15.4085 80.642 15.486C80.8414 15.5581 81.1848 15.7077 81.4064 15.8185C81.628 15.9293 81.9382 16.1122 82.0988 16.2285C82.2594 16.3394 82.4477 16.4834 82.5198 16.5444C82.5918 16.6053 82.7856 16.8325 82.9407 17.0486C83.1014 17.2592 83.3118 17.5972 83.4005 17.7967C83.4946 17.9962 83.6331 18.4062 83.7106 18.711C83.8159 19.121 83.8713 19.5145 83.9101 20.2348C83.9378 20.7668 83.9654 23.7202 83.9654 26.8011C83.9654 29.8765 83.9433 32.8188 83.9156 33.3397C83.8768 34.0379 83.827 34.4313 83.7162 34.8635C83.6386 35.1849 83.5002 35.6005 83.4115 35.7889C83.3174 35.9828 83.1512 36.2654 83.0294 36.4261C82.913 36.5868 82.6693 36.8583 82.4921 37.0301C82.3148 37.2019 82.0766 37.3958 81.9714 37.4734C81.8661 37.5454 81.6058 37.6895 81.3898 37.7893C81.1793 37.8945 80.7639 38.0608 80.4758 38.1605C80.1878 38.2602 79.7613 38.3822 79.5342 38.4265C79.3071 38.4764 79.08 38.5262 79.0357 38.5428C78.9914 38.5595 78.6036 38.6093 78.1771 38.6537C77.7506 38.698 76.7647 38.7756 75.9892 38.8254C74.693 38.9086 74.4715 38.9086 73.2474 38.8254C72.5162 38.7756 71.6299 38.7035 71.281 38.6537C70.932 38.6093 70.5443 38.5539 70.4224 38.5207C70.3006 38.493 70.0015 38.4265 69.7577 38.3766C69.514 38.3267 69.1041 38.2104 68.8438 38.1217C68.5835 38.0275 68.2234 37.8779 68.0406 37.7837C67.8578 37.684 67.5864 37.5177 67.4313 37.4069C67.2818 37.2905 66.9993 37.0412 66.811 36.8472C66.6226 36.6533 66.3789 36.3485 66.2737 36.1657C66.1629 35.9828 66.0133 35.6559 65.9358 35.4453C65.8582 35.2292 65.7585 34.8469 65.7142 34.5865C65.6699 34.326 65.6034 33.8384 65.5702 33.5059C65.537 33.1125 65.5259 30.5414 65.5591 19.653L65.6976 19.0158C65.7752 18.6667 65.9192 18.1901 66.0189 17.9629C66.113 17.7357 66.2792 17.4199 66.3845 17.2703C66.4842 17.1151 66.6891 16.8658 66.8331 16.7162C66.9827 16.561 67.2042 16.3615 67.3206 16.2729C67.4424 16.1842 67.6917 16.0235 67.8745 15.9238C68.0572 15.8185 68.4173 15.6523 68.6776 15.5525C68.938 15.4528 69.3866 15.3087 69.6747 15.2311C69.9627 15.1536 70.4612 15.0483 70.7825 15.0039C71.1037 14.9596 71.5746 14.8931 71.8349 14.8599C72.0952 14.8266 72.4442 14.7934 72.6104 14.7823C72.7765 14.7712 73.8899 14.7712 75.0752 14.7768ZM72.1118 17.1872C71.3308 17.3035 70.8212 17.4033 70.4778 17.5252C70.2064 17.6194 69.9682 17.7136 69.9516 17.7302C69.935 17.7524 69.8519 17.8078 69.7577 17.8521C69.6691 17.8964 69.4586 18.0738 69.2869 18.24C69.1041 18.4229 68.9158 18.6833 68.8106 18.9049C68.7164 19.1044 68.589 19.4646 68.5336 19.7084C68.4339 20.1295 68.4284 20.4897 68.4284 26.8011V33.4505C68.6278 34.2207 68.7662 34.5975 68.8604 34.7804C68.9601 34.9632 69.1484 35.2237 69.2869 35.3622C69.4254 35.5007 69.7245 35.7113 69.9516 35.8221C70.1787 35.9385 70.5775 36.0826 70.8379 36.1435C71.0982 36.2045 71.4582 36.2876 71.641 36.3319C71.8238 36.3707 72.3223 36.4483 72.7488 36.5037C73.2529 36.5646 73.9342 36.5979 74.6875 36.5979C75.33 36.5979 76.1277 36.5702 76.46 36.5314C76.7979 36.4926 77.2189 36.4372 77.4016 36.4095C77.5844 36.3818 77.8337 36.3319 77.9556 36.3042C78.0774 36.2765 78.4042 36.1989 78.6756 36.1324C78.9526 36.0659 79.3459 35.9274 79.5508 35.8277C79.7558 35.7224 80.0383 35.534 80.1767 35.401C80.3152 35.2736 80.5035 35.0297 80.5977 34.8635C80.6919 34.6973 80.8137 34.4091 80.8691 34.2263C80.9245 34.0434 80.9965 33.6445 81.0297 33.3397C81.063 33.0128 81.0851 30.5469 81.0796 27.3552C81.0796 24.3685 81.0574 21.4262 81.0353 20.8166C80.991 19.8303 80.9688 19.6585 80.8414 19.2928C80.7639 19.0656 80.6254 18.7664 80.5368 18.6279C80.4426 18.4893 80.2875 18.2954 80.1878 18.2012C80.0881 18.1015 79.8555 17.9352 79.6727 17.8244C79.4899 17.7136 79.1409 17.5695 78.8972 17.4975C78.6535 17.4254 78.3931 17.3479 78.3156 17.3312C78.2381 17.3146 77.7395 17.237 77.2078 17.1595C76.4655 17.0486 75.9615 17.0099 75.0475 16.9932C74.3939 16.9877 73.7182 16.9877 73.552 16.9988C73.3858 17.0154 72.7378 17.0985 72.1118 17.1872ZM129.69 14.7601C130.638 14.7546 131.657 14.7768 131.961 14.7989C132.266 14.8266 132.765 14.8765 133.069 14.9097C133.374 14.9485 133.85 15.015 134.122 15.0594C134.399 15.1037 134.869 15.2145 135.174 15.3087C135.479 15.3974 135.778 15.4916 135.839 15.5193C135.9 15.5414 136.193 15.6855 136.492 15.8351C136.792 15.9847 137.163 16.2175 137.329 16.356C137.489 16.4945 137.75 16.755 137.905 16.9378C138.06 17.1207 138.265 17.4199 138.354 17.6028C138.442 17.7856 138.57 18.0959 138.636 18.2954C138.703 18.4949 138.797 18.8772 138.847 19.1543C138.924 19.592 138.935 20.7612 138.968 38.6315H136.088V29.8765H123.625V38.6315H120.745L120.778 19.5422L120.922 18.9049C121.005 18.5558 121.133 18.1125 121.21 17.9186C121.293 17.7302 121.448 17.431 121.565 17.2592C121.675 17.0819 121.886 16.8159 122.024 16.6608C122.168 16.5056 122.468 16.2563 122.689 16.1066C122.916 15.957 123.321 15.7354 123.586 15.6246C123.852 15.5082 124.273 15.3586 124.528 15.2976C124.777 15.2311 125.159 15.148 125.37 15.1092C125.586 15.0704 126.068 14.9929 126.45 14.943C126.832 14.8876 127.331 14.8266 127.558 14.8045C127.785 14.7823 128.749 14.7601 129.69 14.7601ZM127.392 17.1484C127.043 17.1983 126.616 17.2647 126.45 17.298C126.284 17.3257 125.913 17.431 125.63 17.5307C125.348 17.6305 125.121 17.7302 125.121 17.7524C125.121 17.7745 125.093 17.7967 125.054 17.7967C125.015 17.7967 124.86 17.8964 124.705 18.0128C124.556 18.1292 124.329 18.373 124.201 18.5503C124.074 18.7276 123.935 18.9991 123.886 19.1543C123.836 19.3039 123.758 19.6308 123.708 19.8746C123.642 20.2404 123.625 20.9219 123.625 23.8477V27.3829H136.088C136.055 20.3235 136.044 19.8303 135.961 19.5255C135.911 19.3371 135.794 19.0379 135.706 18.8606C135.623 18.6888 135.44 18.4229 135.307 18.2788C135.174 18.1347 134.914 17.9297 134.731 17.8244C134.548 17.7136 134.16 17.5529 133.872 17.4587C133.584 17.3645 133.097 17.2592 132.792 17.2149C132.488 17.1761 131.978 17.1151 131.657 17.0819C131.336 17.0486 130.676 17.0154 130.189 16.9988C129.702 16.9877 129.015 16.9932 128.666 17.0209C128.317 17.0431 127.741 17.0985 127.392 17.1484ZM153.121 14.7823C153.791 14.7934 154.6 14.8322 154.921 14.8654C155.242 14.8931 155.802 14.9541 156.167 15.0039C156.533 15.0483 157.131 15.1591 157.497 15.2533C157.862 15.3475 158.361 15.5027 158.604 15.6024C158.848 15.7021 159.236 15.8905 159.463 16.018C159.718 16.1676 160.05 16.4336 160.321 16.7106C160.648 17.0376 160.82 17.2703 160.97 17.5751C161.08 17.8022 161.235 18.1901 161.313 18.4339C161.385 18.6777 161.474 19.0656 161.512 19.2928C161.546 19.52 161.59 20.2237 161.651 22.008L158.771 21.9803L158.737 20.9829C158.715 20.401 158.66 19.8303 158.61 19.6087C158.56 19.4036 158.449 19.0933 158.361 18.916C158.278 18.7442 158.084 18.4672 157.934 18.3009C157.785 18.1403 157.513 17.9186 157.33 17.8189C157.148 17.7191 156.799 17.5861 156.555 17.5196C156.311 17.4531 155.94 17.3645 155.724 17.3202C155.514 17.2758 154.987 17.1872 154.561 17.1207C153.963 17.032 153.514 17.0043 152.594 17.0043C151.941 17.0043 151.215 17.032 150.988 17.0653C150.761 17.1041 150.285 17.1705 149.936 17.2149C149.587 17.2647 149.038 17.3645 148.717 17.4476C148.396 17.5252 147.969 17.6748 147.764 17.7745C147.548 17.8798 147.26 18.0904 147.1 18.2566C146.939 18.4173 146.734 18.6944 146.646 18.8772C146.562 19.0601 146.441 19.4313 146.385 19.7084C146.302 20.1074 146.28 20.4398 146.28 21.4095C146.28 22.2463 146.302 22.7062 146.358 22.9057C146.396 23.0664 146.479 23.3102 146.54 23.4487C146.596 23.5872 146.756 23.82 146.895 23.964C147.028 24.1136 147.288 24.3131 147.471 24.4129C147.654 24.5126 148.014 24.6511 148.274 24.7176C148.534 24.7786 149.133 24.8949 149.603 24.967C150.074 25.0446 150.911 25.1831 151.459 25.2773C152.007 25.3715 152.855 25.51 153.342 25.582C153.83 25.6541 154.688 25.7871 155.253 25.8813C155.818 25.9699 156.616 26.1195 157.026 26.2137C157.436 26.3024 157.923 26.4188 158.106 26.4686C158.289 26.5185 158.638 26.646 158.881 26.7568C159.125 26.8676 159.474 27.056 159.657 27.1779C159.84 27.2998 160.139 27.5547 160.321 27.7376C160.51 27.926 160.754 28.2252 160.875 28.408C160.992 28.5909 161.158 28.9012 161.241 29.1007C161.319 29.3002 161.435 29.6603 161.49 29.9042C161.584 30.292 161.595 30.5636 161.59 32.1206C161.59 33.4893 161.568 34.0213 161.496 34.4479C161.446 34.7527 161.33 35.2126 161.235 35.473C161.141 35.7446 160.931 36.1435 160.748 36.4095C160.576 36.6699 160.31 36.9858 160.155 37.1188C160.006 37.2462 159.74 37.4402 159.574 37.551C159.408 37.6563 159.131 37.8114 158.964 37.8945C158.798 37.9721 158.46 38.1051 158.217 38.1882C157.973 38.2713 157.513 38.4043 157.192 38.4819C156.871 38.5595 156.25 38.6647 155.807 38.7091C155.364 38.7534 154.666 38.8199 154.256 38.8476C153.846 38.8809 152.993 38.9086 152.362 38.9086C151.73 38.9086 150.983 38.8864 150.7 38.8532C150.418 38.8254 149.897 38.7756 149.548 38.7423C149.199 38.7091 148.761 38.6537 148.579 38.626C148.396 38.5927 147.986 38.5096 147.665 38.432C147.343 38.3544 146.911 38.227 146.695 38.1494C146.485 38.0718 146.136 37.9222 145.92 37.817C145.709 37.7172 145.36 37.5011 145.15 37.3404C144.934 37.1797 144.629 36.8916 144.469 36.6921C144.303 36.4926 144.109 36.1934 144.031 36.0272C143.954 35.8609 143.854 35.6448 143.815 35.5562C143.776 35.462 143.726 35.34 143.71 35.2791C143.688 35.2181 143.621 34.93 143.555 34.6419C143.461 34.193 143.438 33.8661 143.4 30.6522H146.28V32.0209C146.28 33.1845 146.297 33.4727 146.391 33.9215C146.452 34.2097 146.579 34.5975 146.673 34.7804C146.767 34.9632 146.972 35.2458 147.133 35.4065C147.294 35.5783 147.571 35.7778 147.775 35.8831C147.975 35.9828 148.324 36.1103 148.551 36.1601C148.778 36.21 149.055 36.2765 149.16 36.3042C149.266 36.3319 149.603 36.3929 149.908 36.4372C150.213 36.4815 150.938 36.5591 151.514 36.609C152.473 36.6866 152.661 36.6866 153.592 36.609C154.157 36.5647 154.893 36.476 155.226 36.4206C155.563 36.3596 156.062 36.2599 156.333 36.1934C156.61 36.1324 156.981 36.005 157.164 35.9219C157.347 35.8332 157.596 35.6836 157.718 35.5839C157.84 35.4841 158.034 35.2791 158.15 35.1184C158.267 34.9633 158.416 34.6973 158.477 34.531C158.538 34.3648 158.627 33.9769 158.671 33.6722C158.715 33.3674 158.754 32.7302 158.754 32.2592C158.754 31.7161 158.721 31.2285 158.665 30.9293C158.615 30.6467 158.51 30.3197 158.405 30.1258C158.311 29.943 158.106 29.6659 157.945 29.5052C157.79 29.35 157.502 29.1339 157.303 29.0287C157.103 28.9178 156.721 28.7793 156.444 28.7073C156.173 28.6408 155.586 28.5244 155.142 28.4524C154.699 28.3803 153.929 28.2584 153.425 28.1864C152.921 28.1088 152.312 28.0091 152.068 27.9648C151.825 27.9204 151.287 27.8318 150.877 27.7653C150.467 27.7043 149.731 27.5935 149.243 27.5215C148.756 27.4439 148.069 27.322 147.72 27.2389C147.371 27.1613 146.884 27.0283 146.64 26.9396C146.396 26.8565 146.058 26.718 145.892 26.6349C145.726 26.5518 145.499 26.4132 145.394 26.3356C145.288 26.2581 145.078 26.0918 144.923 25.9644C144.773 25.8425 144.507 25.5543 144.336 25.3272C144.17 25.1 143.948 24.7398 143.854 24.5292C143.76 24.3131 143.621 23.9419 143.555 23.698C143.433 23.2769 143.427 23.1606 143.427 21.4539C143.427 19.9301 143.444 19.5754 143.533 19.1543C143.588 18.8772 143.666 18.5448 143.704 18.4062C143.743 18.2677 143.843 18.0073 143.926 17.8244C144.009 17.6415 144.208 17.3146 144.369 17.1041C144.53 16.8879 144.834 16.5776 145.045 16.4059C145.25 16.2341 145.599 16.0014 145.809 15.885C146.025 15.7686 146.358 15.619 146.557 15.5414C146.756 15.4694 147.205 15.3364 147.554 15.2478C147.903 15.1591 148.379 15.0594 148.606 15.0317C148.833 14.9984 149.282 14.943 149.603 14.9097C149.925 14.8765 150.573 14.8266 151.044 14.8045C151.514 14.7768 152.45 14.7712 153.121 14.7823ZM88.4521 14.9707H91.3324L91.3601 33.6167L91.5041 34.1432C91.5872 34.4313 91.7091 34.7804 91.7755 34.9189C91.8475 35.0575 92.0303 35.3013 92.1854 35.462C92.3405 35.6227 92.5787 35.8277 92.7172 35.9163C92.8556 35.9995 93.1769 36.138 93.4373 36.21C93.6976 36.2876 94.185 36.3929 94.5174 36.4427C94.894 36.4982 95.4867 36.5369 96.0683 36.5369C96.589 36.5369 97.2204 36.5092 97.4808 36.476C97.7411 36.4372 98.1621 36.3541 98.4224 36.2931C98.6828 36.2266 99.0428 36.1047 99.2256 36.0161C99.4084 35.9219 99.6687 35.7612 99.8016 35.6504C99.9401 35.534 100.14 35.3068 100.25 35.1406C100.367 34.9743 100.505 34.6751 100.572 34.4756C100.633 34.2761 100.716 34.0046 100.754 33.8661C100.81 33.6666 100.832 31.766 100.86 14.9707H103.745L103.768 33.6722L103.895 34.1154C103.967 34.3593 104.089 34.6973 104.172 34.8635C104.25 35.0297 104.443 35.3013 104.598 35.462C104.748 35.6227 104.986 35.8221 105.125 35.8942C105.263 35.9717 105.634 36.1103 105.956 36.2045C106.277 36.2931 106.748 36.4095 107.008 36.4594C107.324 36.5148 107.817 36.5425 108.476 36.548C109.024 36.548 109.661 36.5148 109.888 36.4815C110.115 36.4427 110.581 36.3319 110.913 36.2377C111.251 36.1435 111.661 35.9994 111.827 35.9108C111.993 35.8277 112.248 35.6393 112.392 35.4897C112.536 35.3456 112.724 35.0741 112.818 34.8912C112.907 34.7084 113.023 34.3703 113.073 34.1432C113.123 33.916 113.184 33.5281 113.212 33.2843C113.239 33.0405 113.262 28.8181 113.267 14.9707H116.092V24.4018C116.092 32.1705 116.075 33.9215 116.014 34.3094C115.97 34.5698 115.898 34.9522 115.843 35.1683C115.793 35.3788 115.621 35.8166 115.466 36.1324C115.239 36.5924 115.101 36.7918 114.79 37.1021C114.58 37.3182 114.353 37.5344 114.292 37.5787C114.231 37.623 114.059 37.7338 113.904 37.8225C113.755 37.9112 113.455 38.0552 113.239 38.1439C113.029 38.2325 112.553 38.3766 112.187 38.4653C111.821 38.5539 111.334 38.6481 111.107 38.6814C110.88 38.7146 110.348 38.7811 109.933 38.8254C109.512 38.8698 108.98 38.9086 108.753 38.9086C108.526 38.9086 107.922 38.8587 107.412 38.7977C106.903 38.7368 106.321 38.6537 106.122 38.6038C105.922 38.5595 105.601 38.4764 105.402 38.4154C105.202 38.3544 104.892 38.2436 104.709 38.1605C104.526 38.0774 104.216 37.9167 104.017 37.8003C103.817 37.684 103.502 37.4512 103.313 37.2905C103.125 37.1299 102.854 36.8583 102.71 36.6921C102.571 36.5259 102.422 36.3375 102.377 36.2765C102.305 36.1657 102.3 36.1712 102.178 36.3319C102.111 36.4206 101.868 36.6921 101.641 36.9304C101.408 37.1686 101.02 37.5011 100.777 37.6618C100.533 37.8225 100.162 38.0386 99.9457 38.1328C99.7352 38.227 99.3197 38.3822 99.0317 38.4708C98.7437 38.5595 98.2341 38.6758 97.8962 38.7257C97.442 38.7977 96.9213 38.8199 95.8191 38.8199C94.7223 38.8199 94.1795 38.7977 93.6588 38.7202C93.2766 38.6703 92.695 38.5539 92.3571 38.4653C92.0248 38.3711 91.5872 38.2325 91.3878 38.155C91.1884 38.0718 90.856 37.9056 90.64 37.7782C90.4295 37.6563 90.064 37.3626 89.8369 37.1354C89.499 36.7974 89.366 36.609 89.1279 36.138C88.9506 35.7778 88.79 35.3456 88.7013 35.002C88.6238 34.6751 88.5407 34.1265 88.513 33.6722C88.4743 33.1956 88.4521 29.4442 88.4521 23.9308V14.9707ZM166.11 14.9984L171.887 15.015C175.061 15.0206 177.974 15.0538 178.351 15.0815C178.733 15.1092 179.343 15.2034 179.708 15.281C180.074 15.3641 180.561 15.5027 180.788 15.5913C181.021 15.68 181.331 15.8185 181.481 15.9016C181.636 15.9792 181.896 16.1343 182.062 16.2396C182.234 16.3449 182.489 16.5333 182.633 16.6608C182.777 16.7827 183.021 17.032 183.165 17.2149C183.314 17.3977 183.519 17.697 183.619 17.8798C183.719 18.0627 183.857 18.3619 183.929 18.5448C184.001 18.7276 184.095 19.0656 184.139 19.2928C184.178 19.5255 184.25 20.1074 184.289 20.595C184.333 21.1103 184.361 22.285 184.361 23.3933C184.361 24.4516 184.333 25.6873 184.295 26.1639C184.256 26.6404 184.184 27.2222 184.139 27.466C184.095 27.7099 183.984 28.1088 183.885 28.3526C183.791 28.5964 183.602 28.9622 183.475 29.1561C183.347 29.3556 183.148 29.6437 183.026 29.7933C182.904 29.9485 182.622 30.2145 182.395 30.3862C182.168 30.558 181.763 30.8185 181.497 30.957C181.231 31.0955 180.755 31.2839 180.445 31.3726C180.129 31.4612 179.642 31.5721 179.348 31.6219C179.06 31.6663 178.501 31.7272 178.102 31.7605C177.692 31.7937 175.587 31.8159 169.046 31.8159V38.6315H166.11V14.9984ZM169.046 29.544C176.894 29.544 177.637 29.5329 178.13 29.4553C178.495 29.3999 178.905 29.2946 179.226 29.1672C179.537 29.0453 179.891 28.8513 180.113 28.6851C180.318 28.5355 180.589 28.2584 180.722 28.0756C180.855 27.8927 181.027 27.599 181.099 27.4273C181.171 27.2499 181.27 26.851 181.315 26.5407C181.364 26.2248 181.425 25.8092 181.453 25.6098C181.481 25.4158 181.52 24.7786 181.542 24.1968C181.558 23.6205 181.547 22.745 181.514 22.2573C181.486 21.7697 181.431 21.0992 181.398 20.7612C181.364 20.4288 181.298 20.0021 181.254 19.8192C181.204 19.6364 181.104 19.3649 181.021 19.2097C180.938 19.0601 180.855 18.9105 180.833 18.8772C180.816 18.8495 180.689 18.6999 180.556 18.5558C180.428 18.4062 180.196 18.2012 180.041 18.1015C179.891 18.0017 179.614 17.8466 179.431 17.7635C179.248 17.6803 178.877 17.5529 178.6 17.4753L178.102 17.3368L169.051 17.2925L169.046 29.544Z" fill="white"/>
</svg>
