<svg width="132" height="132" viewBox="0 0 132 132" fill="none" xmlns="http://www.w3.org/2000/svg">
<path d="M84.7354 28.1287C91.8196 28.1289 97.5624 33.8715 97.5625 40.9558V67.1531L97.1816 66.9832C94.5988 65.8363 91.7394 65.199 88.7305 65.199C77.2168 65.199 67.8828 74.5329 67.8828 86.0466C67.8829 92.0477 70.4197 97.4555 74.4785 101.26L74.9775 101.727H47.0645C39.9801 101.727 34.2374 95.9845 34.2373 88.9001V40.9558C34.2374 33.8714 39.9801 28.1287 47.0645 28.1287H84.7354ZM52.7725 70.906C48.5089 70.906 45.0527 74.3631 45.0527 78.6267C45.053 82.8901 48.509 86.3464 52.7725 86.3464C57.0358 86.3463 60.4919 82.89 60.4922 78.6267C60.4922 74.3632 57.0359 70.9061 52.7725 70.906ZM47.6357 56.0662C46.2093 56.0662 45.053 57.2228 45.0527 58.6492C45.0527 60.0757 46.2092 61.2322 47.6357 61.2322H76.1738C77.6002 61.232 78.7568 60.0756 78.7568 58.6492C78.7566 57.2229 77.6001 56.0664 76.1738 56.0662H47.6357ZM47.6357 42.3679C46.2093 42.3679 45.0529 43.5245 45.0527 44.9509C45.0527 46.3775 46.2092 47.5339 47.6357 47.5339H59.0508C60.4773 47.5338 61.6338 46.3774 61.6338 44.9509C61.6336 43.5246 60.4771 42.368 59.0508 42.3679H47.6357Z" fill="url(#paint0_linear_5456_21401)" stroke="#65DA00" stroke-width="0.541603"/>
<path d="M88.7305 71.5066C96.7604 71.5068 103.27 78.0166 103.27 86.0466C103.269 89.034 102.363 91.8075 100.817 94.1169L106.63 99.4412C107.437 100.181 107.493 101.435 106.753 102.243C106.013 103.05 104.759 103.105 103.951 102.365L98.1836 97.0828C95.6415 99.2625 92.3422 100.586 88.7305 100.586C80.7005 100.586 74.1907 94.0766 74.1904 86.0466C74.1904 78.0165 80.7003 71.5066 88.7305 71.5066ZM88.7305 75.4724C82.8908 75.4724 78.1562 80.2069 78.1562 86.0466C78.1565 91.8861 82.8909 96.6199 88.7305 96.6199C94.5698 96.6196 99.3035 91.8859 99.3037 86.0466C99.3037 80.2071 94.5699 75.4727 88.7305 75.4724Z" fill="url(#paint1_linear_5456_21401)" stroke="#65DA00" stroke-width="0.541603"/>
<defs>
<linearGradient id="paint0_linear_5456_21401" x1="72.9351" y1="116.443" x2="63.6593" y2="34.062" gradientUnits="userSpaceOnUse">
<stop stop-color="#142A01"/>
<stop offset="0.460655" stop-color="#65DA00"/>
<stop offset="1" stop-color="#65DA00"/>
</linearGradient>
<linearGradient id="paint1_linear_5456_21401" x1="94.3782" y1="108.941" x2="91.1761" y2="74.0202" gradientUnits="userSpaceOnUse">
<stop stop-color="#142A01"/>
<stop offset="0.460655" stop-color="#65DA00"/>
<stop offset="1" stop-color="#65DA00"/>
</linearGradient>
</defs>
</svg>
