<svg width="132" height="132" viewBox="0 0 132 132" fill="none" xmlns="http://www.w3.org/2000/svg">
<path d="M62.1699 24.376C82.5633 24.376 99.0956 40.9085 99.0957 61.3018C99.0957 81.6952 82.5633 98.2275 62.1699 98.2275C41.7766 98.2274 25.2441 81.6951 25.2441 61.3018C25.2443 40.9085 41.7767 24.3761 62.1699 24.376ZM73.8066 31.2881C73.2106 32.0215 72.4832 33.2945 72.2949 34.9893C71.9801 37.824 73.5538 40.0344 75.459 41.6221C76.4255 42.4275 77.4328 43.5974 77.9561 45.5898C78.4787 47.5799 78.5164 50.3849 77.5576 54.46C76.5959 58.5469 73.5149 63.1857 69.6797 66.7812C65.846 70.3753 61.2411 72.9435 57.2236 72.8633C53.9977 72.7988 51.3995 70.6085 49.4668 67.9189C47.5329 65.2275 46.2527 62.0201 45.666 59.8867L45.665 59.8799C45.4796 58.8734 45.0816 57.2829 44.4922 55.7861C44.1976 55.0379 43.856 54.3147 43.4697 53.7002C43.0872 53.0917 42.6632 52.5947 42.2031 52.2832C35.9509 51.9699 33.6377 49.5088 33.0527 47.5791C31.0875 51.7417 29.9873 56.393 29.9873 61.3018C29.9873 66.0161 31.0011 70.4937 32.8223 74.5283L36.3135 73.5137C39.5212 72.5806 42.9547 72.8007 46.0166 74.1367C48.6744 75.2965 50.9163 77.2385 52.4443 79.7031L52.6943 80.1064C54.2451 82.6078 55.0674 85.4924 55.0674 88.4355V92.6934C57.3526 93.2083 59.729 93.4844 62.1699 93.4844C79.944 93.4844 94.3525 79.0758 94.3525 61.3018C94.3524 47.6315 85.8292 35.9525 73.8066 31.2881Z" fill="url(#paint0_linear_5456_21395)" stroke="#65DA00" stroke-width="0.151373"/>
<path d="M87.7539 63.3398C88.4389 63.1045 89.1826 63.102 89.8691 63.333L105.126 68.4697C105.391 68.559 105.642 68.6867 105.87 68.8486V68.8496L105.95 68.9062C106.633 69.3918 107.047 70.1692 107.07 71.0039H107.072V91.4043C107.072 92.6487 106.804 93.879 106.287 95.0107L106.066 95.4932C105.312 97.1425 104.166 98.583 102.728 99.6875L97.415 103.767L97.4092 103.771H97.4082L90.2686 108.233C89.3769 108.791 88.2452 108.791 87.3535 108.233L80.2129 103.771L80.2061 103.767V103.766L74.8936 99.6875C73.4551 98.583 72.3097 97.1425 71.5557 95.4932L71.334 95.0107C70.8168 93.8793 70.549 92.6493 70.5488 91.4053V70.7598C70.5488 70.0958 70.8624 69.4697 71.3936 69.0713L71.5283 68.9785C71.6676 68.8901 71.8173 68.8184 71.9736 68.7646L87.7539 63.3398Z" fill="url(#paint1_linear_5456_21395)" stroke="#65DA00" stroke-width="0.151373"/>
<path d="M88.8119 79.6489L88.8119 92.0917M95.1928 86.0299L82.75 86.0299" stroke="#111C16" stroke-width="5.10474" stroke-linecap="round"/>
<defs>
<linearGradient id="paint0_linear_5456_21395" x1="70.4288" y1="113.27" x2="62.3609" y2="29.8918" gradientUnits="userSpaceOnUse">
<stop stop-color="#142A01"/>
<stop offset="0.460655" stop-color="#65DA00"/>
<stop offset="1" stop-color="#65DA00"/>
</linearGradient>
<linearGradient id="paint1_linear_5456_21395" x1="92.8863" y1="117.876" x2="86.7312" y2="66.8458" gradientUnits="userSpaceOnUse">
<stop stop-color="#142A01"/>
<stop offset="0.460655" stop-color="#65DA00"/>
<stop offset="1" stop-color="#65DA00"/>
</linearGradient>
</defs>
</svg>
