<svg width="163" height="40" viewBox="0 0 163 40" fill="none" xmlns="http://www.w3.org/2000/svg">
<path d="M60.9768 16.0514C60.9768 17.3897 60.6639 18.6103 60.0403 19.7177C59.4366 20.8052 58.5089 21.6818 57.2595 22.3498C56.03 22.9979 54.5208 23.3219 52.7298 23.3219H49.6983V30.781H43.5752V8.68555H52.7298C54.5009 8.68555 55.9989 8.99847 57.2284 9.62654C58.4779 10.2524 59.4166 11.1201 60.0403 12.2276C60.6639 13.335 60.9768 14.6089 60.9768 16.0514ZM52.1351 18.4328C53.8639 18.4328 54.7272 17.6382 54.7272 16.0514C54.7272 14.4424 53.8639 13.639 52.1351 13.639H49.6983V18.435H52.1351V18.4328Z" fill="#8A94A6"/>
<path d="M71.7478 31.0024C69.1867 31.0024 67.0828 30.3965 65.4361 29.1848C63.7915 27.9531 62.906 26.1976 62.7795 23.9206H69.3088C69.3709 24.6929 69.5995 25.2588 69.9967 25.6139C70.3918 25.969 70.9022 26.1466 71.5281 26.1466C72.0895 26.1466 72.5489 26.0112 72.9018 25.7382C73.2769 25.4453 73.4633 25.048 73.4633 24.5464C73.4633 23.8984 73.1615 23.3968 72.5578 23.0418C71.9542 22.6867 70.9754 22.2894 69.6217 21.85C68.1836 21.3684 67.0184 20.909 66.1218 20.4718C65.2474 20.0124 64.4773 19.3533 63.8093 18.4966C63.1635 17.62 62.8417 16.4793 62.8417 15.0811C62.8417 13.6607 63.1968 12.449 63.9047 11.4459C64.6127 10.4228 65.5914 9.64822 66.8409 9.12668C68.0903 8.60514 69.5063 8.34326 71.0909 8.34326C73.6519 8.34326 75.6937 8.94913 77.2139 10.1609C78.7541 11.3526 79.5775 13.0349 79.6818 15.2076H73.0261C73.0061 14.5396 72.7975 14.038 72.4002 13.7029C72.0252 13.3678 71.5369 13.2013 70.9311 13.2013C70.4739 13.2013 70.0988 13.3367 69.8059 13.6097C69.5151 13.8804 69.3687 14.2688 69.3687 14.7704C69.3687 15.1876 69.524 15.5538 69.8369 15.8667C70.1698 16.1597 70.576 16.4193 71.0553 16.6501C71.5347 16.8588 72.2427 17.1317 73.1792 17.4646C74.5752 17.9462 75.7203 18.4256 76.6169 18.9072C77.5335 19.3666 78.3147 20.0257 78.9605 20.8824C79.6263 21.719 79.9614 22.7843 79.9614 24.0782C79.9614 25.3942 79.6285 26.5749 78.9605 27.6202C78.3147 28.6655 77.3671 29.4911 76.1176 30.0969C74.8925 30.6984 73.4344 31.0024 71.7478 31.0024Z" fill="#8A94A6"/>
<path d="M99.4025 8.68555V13.5747H93.528V30.781H87.4049V13.5747H81.5925V8.68555H99.4025Z" fill="#8A94A6"/>
<path d="M115.603 27.1768H107.793L106.606 30.781H100.17L108.2 8.68555H115.261L123.26 30.781H116.793L115.603 27.1768ZM114.072 22.4763L111.697 15.3302L109.354 22.4763H114.072Z" fill="#8A94A6"/>
<path d="M138.282 30.781L131.378 21.0959V30.781H125.255V8.68555H131.378V18.213L138.22 8.68555H145.282L137.191 19.4048L145.688 30.781H138.282Z" fill="#8A94A6"/>
<path d="M154.049 13.608V17.2121H161.077V21.8816H154.049V25.8608H162.016V30.781H147.926V8.68555H162.016V13.6058H154.049V13.608Z" fill="#8A94A6"/>
<path d="M20.0996 39.3394C30.9032 39.3394 39.6606 30.5554 39.6606 19.7207C39.6606 8.88608 30.9032 0.102051 20.0996 0.102051C9.29597 0.102051 0.538574 8.88608 0.538574 19.7207C0.538574 30.5554 9.29819 39.3394 20.0996 39.3394Z" fill="#8A94A6"/>
<path d="M28.6104 6.18164H11.5928V9.51726H28.6104V6.18164Z" fill="black"/>
<path d="M20.3283 33.3542C18.7459 33.3542 17.3278 33.0923 16.0761 32.5664C14.8222 32.0404 13.8168 31.2636 13.0556 30.2339C12.3166 29.2041 11.926 27.9657 11.8838 26.5143H17.492C17.5741 27.3332 17.8515 27.9635 18.3242 28.4052C18.7969 28.8246 19.4139 29.0354 20.1729 29.0354C20.9541 29.0354 21.5711 28.8579 22.0216 28.5006C22.4743 28.1233 22.7007 27.6084 22.7007 26.9559C22.7007 26.41 22.5165 25.9573 22.1459 25.6C21.7974 25.2426 21.3558 24.9497 20.8209 24.7167C20.3083 24.4859 19.567 24.224 18.6016 23.9288C17.2035 23.4872 16.065 23.0455 15.1817 22.6061C14.2984 22.1645 13.5372 21.5142 12.9002 20.6531C12.2633 19.792 11.9459 18.6668 11.9459 17.282C11.9459 15.2225 12.6761 13.6157 14.1342 12.4594C15.5923 11.2832 17.4942 10.6951 19.8356 10.6951C22.2191 10.6951 24.1388 11.2832 25.5991 12.4594C27.0572 13.6157 27.8384 15.2336 27.9405 17.3131H22.2391C22.1991 16.5984 21.9417 16.0414 21.469 15.6419C20.9963 15.2225 20.3904 15.0116 19.6514 15.0116C19.0144 15.0116 18.5018 15.1892 18.1112 15.5465C17.7206 15.8838 17.5253 16.3765 17.5253 17.0268C17.5253 17.7414 17.8537 18.2984 18.5106 18.6979C19.1676 19.0974 20.1951 19.5279 21.5933 19.9895C22.9892 20.4733 24.1211 20.935 24.9822 21.3766C25.8654 21.8182 26.6267 22.4596 27.2636 23.2985C27.9005 24.1396 28.2201 25.2204 28.2201 26.5454C28.2201 27.8059 27.9005 28.9511 27.2636 29.9809C26.6466 31.0106 25.7434 31.8296 24.5516 32.4399C23.3598 33.0502 21.9528 33.3542 20.3283 33.3542Z" fill="black"/>
</svg>
