<svg width="105" height="26" viewBox="0 0 105 26" fill="none" xmlns="http://www.w3.org/2000/svg">
<path d="M12.9669 0H12.9659C5.80503 0 0 5.80501 0 12.9658C0 20.1267 5.80503 25.9317 12.9659 25.9317H12.9669C20.1278 25.9317 25.9328 20.1267 25.9328 12.9658C25.9328 5.80501 20.1278 0 12.9669 0Z" fill="#242424"/>
<path d="M19.2794 14.7046C19.2794 15.6644 19.0591 16.5455 18.6185 17.348C18.178 18.1347 17.5014 18.772 16.5888 19.2597C15.6761 19.7475 14.5433 19.9914 13.1901 19.9914H10.6883V25.9391H6.65234V9.37048H13.1901C14.5118 9.37048 15.6289 9.59863 16.5416 10.055C17.4542 10.5113 18.1386 11.1407 18.5949 11.9431C19.0512 12.7456 19.2794 13.6661 19.2794 14.7046ZM12.8833 16.7815C13.6542 16.7815 14.2286 16.6006 14.6062 16.2387C14.9838 15.8768 15.1726 15.3654 15.1726 14.7046C15.1726 14.0437 14.9838 13.5323 14.6062 13.1704C14.2286 12.8085 13.6542 12.6276 12.8833 12.6276H10.6883V16.7815H12.8833Z" fill="white"/>
<path d="M19.3625 5.17297H6.65234V7.83943H19.3625V5.17297Z" fill="#E50913"/>
<path d="M36.9041 23.168C35.6721 23.168 34.5681 22.968 33.5921 22.568C32.6161 22.168 31.8321 21.576 31.2401 20.792C30.6641 20.008 30.3601 19.064 30.3281 17.96H34.6961C34.7601 18.584 34.9761 19.064 35.3441 19.4C35.7121 19.72 36.1921 19.88 36.7841 19.88C37.3921 19.88 37.8721 19.744 38.2241 19.472C38.5761 19.184 38.7521 18.792 38.7521 18.296C38.7521 17.88 38.6081 17.536 38.3201 17.264C38.0481 16.992 37.7041 16.768 37.2881 16.592C36.8881 16.416 36.3121 16.216 35.5601 15.992C34.4721 15.656 33.5841 15.32 32.8961 14.984C32.2081 14.648 31.6161 14.152 31.1201 13.496C30.6241 12.84 30.3761 11.984 30.3761 10.928C30.3761 9.35999 30.9441 8.13599 32.0801 7.25599C33.2161 6.35999 34.6961 5.91199 36.5201 5.91199C38.3761 5.91199 39.8721 6.35999 41.0081 7.25599C42.1441 8.13599 42.7521 9.36799 42.8321 10.952H38.3921C38.3601 10.408 38.1601 9.98399 37.7921 9.67999C37.4241 9.35999 36.9521 9.19999 36.3761 9.19999C35.8801 9.19999 35.4801 9.33599 35.1761 9.60799C34.8721 9.86399 34.7201 10.24 34.7201 10.736C34.7201 11.28 34.9761 11.704 35.4881 12.008C36.0001 12.312 36.8001 12.64 37.8881 12.992C38.9761 13.36 39.8561 13.712 40.5281 14.048C41.2161 14.384 41.8081 14.872 42.3041 15.512C42.8001 16.152 43.0481 16.976 43.0481 17.984C43.0481 18.944 42.8001 19.816 42.3041 20.6C41.8241 21.384 41.1201 22.008 40.1921 22.472C39.2641 22.936 38.1681 23.168 36.9041 23.168Z" fill="#242424"/>
<path d="M57.6937 6.15198V9.43998H53.2297V23H49.1257V9.43998H44.6616V6.15198H57.6937Z" fill="#242424"/>
<path d="M70.2414 20.024H63.9534L62.9454 23H58.6494L64.7454 6.15198H69.4974L75.5934 23H71.2494L70.2414 20.024ZM69.1854 16.856L67.0974 10.688L65.0334 16.856H69.1854Z" fill="#242424"/>
<path d="M87.2168 23L81.5527 15.56V23H77.4487V6.15198H81.5527V13.544L87.1688 6.15198H91.9928L85.4648 14.408L92.2327 23H87.2168Z" fill="#242424"/>
<path d="M98.2871 9.43998V12.848H103.783V16.016H98.2871V19.712H104.503V23H94.1831V6.15198H104.503V9.43998H98.2871Z" fill="#242424"/>
</svg>
