<svg width="90" height="89" viewBox="0 0 90 89" fill="none" xmlns="http://www.w3.org/2000/svg">
    <rect x="0.459473" width="88.6951" height="88.6951" rx="17.739" fill="#979797"
        fill-opacity="0.1" />
    <path fill-rule="evenodd" clip-rule="evenodd"
        d="M45 63.5C55.7696 63.5 64.5 54.7696 64.5 44C64.5 33.2304 55.7696 24.5 45 24.5C34.2304 24.5 25.5 33.2304 25.5 44C25.5 54.7696 34.2304 63.5 45 63.5ZM46 32.0833C46 31.531 45.5523 31.0833 45 31.0833C44.4477 31.0833 44 31.531 44 32.0833V43.75C44 44.4404 44.5596 45 45.25 45H52.5833C53.1356 45 53.5833 44.5523 53.5833 44C53.5833 43.4477 53.1356 43 52.5833 43H46V32.0833Z"
        fill="#979797" />
</svg>