<svg width="90" height="89" viewBox="0 0 90 89" fill="none" xmlns="http://www.w3.org/2000/svg">
<rect x="0.692871" width="88.6951" height="88.6951" rx="17.739" fill="#242424" fill-opacity="0.1"/>
<path fill-rule="evenodd" clip-rule="evenodd" d="M23.3337 40.8334H66.6664C66.6608 35.3659 66.5602 32.5345 64.7629 30.7372C62.8591 28.8334 59.795 28.8334 53.6667 28.8334H36.3334C30.2051 28.8334 27.141 28.8334 25.2372 30.7372C23.4399 32.5345 23.3393 35.3659 23.3337 40.8334ZM66.6667 42.8334H23.3334V48.3334C23.3334 54.4616 23.3334 57.5258 25.2372 59.4296C27.141 61.3334 30.2051 61.3334 36.3333 61.3334H36.3334H53.6667H53.6667C59.795 61.3334 62.8591 61.3334 64.7629 59.4296C66.6667 57.5258 66.6667 54.4616 66.6667 48.3334V42.8334ZM34.1667 51.6667C33.6144 51.6667 33.1667 52.1144 33.1667 52.6667C33.1667 53.219 33.6144 53.6667 34.1667 53.6667H34.1884C34.7407 53.6667 35.1884 53.219 35.1884 52.6667C35.1884 52.1144 34.7407 51.6667 34.1884 51.6667H34.1667Z" fill="#242424"/>
</svg>
