<svg width="90" height="89" viewBox="0 0 90 89" fill="none" xmlns="http://www.w3.org/2000/svg">
    <rect x="0.84668" width="88.6951" height="88.6951" rx="17.739" fill="#979797" fill-opacity="0.1" />
    <path fill-rule="evenodd" clip-rule="evenodd"
        d="M45.2498 22.3334V33.6667L45.2498 33.771V33.771V33.771V33.771C45.2497 34.5838 45.2495 35.3737 45.3371 36.0252C45.4358 36.7597 45.6764 37.5978 46.3726 38.2939C47.0688 38.9901 47.9069 39.2307 48.6413 39.3294C49.2928 39.417 50.0827 39.4169 50.8954 39.4167H50.8954H50.8954H50.8956L50.9998 39.4167H62.3332V52.6667C62.3332 58.795 62.3332 61.8591 60.4294 63.7629C58.5256 65.6667 55.4614 65.6667 49.3332 65.6667H40.6665C34.5382 65.6667 31.4741 65.6667 29.5703 63.7629C27.6665 61.8591 27.6665 58.795 27.6665 52.6667V35.3334C27.6665 29.2051 27.6665 26.141 29.5703 24.2372C31.4741 22.3334 34.5382 22.3334 40.6665 22.3334H45.2498ZM49.0832 22.3385V33.6667C49.0832 34.6244 49.0872 35.1499 49.1362 35.5144L49.1382 35.5284L49.1521 35.5303C49.5167 35.5793 50.0421 35.5834 50.9998 35.5834H62.328C62.3126 34.5488 62.2508 33.9009 62.0033 33.3033C61.6735 32.507 61.0472 31.8808 59.7948 30.6283L54.0382 24.8718C52.7858 23.6193 52.1595 22.9931 51.3632 22.6632C50.7656 22.4157 50.1178 22.3539 49.0832 22.3385ZM36.5833 46.1667C36.5833 45.1081 37.4414 44.25 38.4999 44.25H51.4999C52.5585 44.25 53.4166 45.1081 53.4166 46.1667C53.4166 47.2252 52.5585 48.0834 51.4999 48.0834L38.4999 48.0833C37.4414 48.0833 36.5833 47.2252 36.5833 46.1667ZM38.4999 52.9167C37.4414 52.9167 36.5833 53.7748 36.5833 54.8333C36.5833 55.8919 37.4414 56.75 38.4999 56.75H47.1666C48.2252 56.75 49.0833 55.8919 49.0833 54.8333C49.0833 53.7748 48.2252 52.9167 47.1666 52.9167H38.4999Z"
        fill="#979797" />
</svg>