<svg width="89" height="89" viewBox="0 0 89 89" fill="none" xmlns="http://www.w3.org/2000/svg">
<rect x="0.0366211" width="88.6951" height="88.6951" rx="17.739" fill="#242424" fill-opacity="0.1"/>
<circle cx="55.9167" cy="55.9167" r="5.41667" stroke="#242424" stroke-width="4.33333"/>
<path d="M63.5 63.5L60.25 60.25" stroke="#242424" stroke-width="4.33333" stroke-linecap="round"/>
<path fill-rule="evenodd" clip-rule="evenodd" d="M26.6666 39.6667C26.6666 31.4957 26.6666 27.4102 29.205 24.8718C31.7434 22.3334 35.8289 22.3334 44 22.3334C52.171 22.3334 56.2565 22.3334 58.7949 24.8718C61.3333 27.4102 61.3333 31.4957 61.3333 39.6667V46.5327C59.7398 45.611 57.8898 45.0834 55.9165 45.0834C49.9335 45.0834 45.0832 49.9336 45.0832 55.9167C45.0832 60.1262 47.4841 63.775 50.9913 65.5683C49.0633 65.6667 46.7656 65.6667 44 65.6667C35.8289 65.6667 31.7434 65.6667 29.205 63.1283C26.6666 60.5899 26.6666 56.5044 26.6666 48.3334V39.6667ZM35.3332 28.8334C34.1366 28.8334 33.1665 29.8034 33.1665 31.0001C33.1665 32.1967 34.1366 33.1667 35.3332 33.1667H43.9999C45.1965 33.1667 46.1665 32.1967 46.1665 31.0001C46.1665 29.8034 45.1965 28.8334 43.9999 28.8334H35.3332ZM35.3332 37.5001C34.1366 37.5001 33.1665 38.4701 33.1665 39.6667C33.1665 40.8633 34.1366 41.8334 35.3332 41.8334L48.3332 41.8334C49.5298 41.8334 50.4999 40.8633 50.4999 39.6667C50.4999 38.4701 49.5298 37.5001 48.3332 37.5001L35.3332 37.5001ZM35.3332 46.1667C34.1366 46.1667 33.1665 47.1368 33.1665 48.3334C33.1665 49.53 34.1366 50.5001 35.3332 50.5001H41.8332C43.0298 50.5001 43.9999 49.53 43.9999 48.3334C43.9999 47.1368 43.0298 46.1667 41.8332 46.1667H35.3332Z" fill="#242424"/>
</svg>
