<svg width="46" height="33" viewBox="0 0 46 33" fill="none" xmlns="http://www.w3.org/2000/svg">
<path d="M44.6149 1.61319C41.8288 0.444598 39.0405 8.63883e-08 36.2537 8.63883e-08C27.407 -0.000718165 18.561 4.47758 9.71435 4.47758C7.49567 4.47758 5.27843 4.19602 3.05975 3.49214C2.81052 3.41313 2.56057 3.37578 2.31636 3.37578C1.08025 3.37578 0 4.33249 0 5.66054V28.4478C0 29.3549 0.519296 30.2147 1.35319 30.5637C4.13928 31.7331 6.92753 32.1777 9.71435 32.1777C18.561 32.1777 27.4077 27.6994 36.2544 27.6994C38.4731 27.6994 40.6904 27.9809 42.909 28.6848C43.1583 28.7638 43.4082 28.8012 43.6524 28.8012C44.8885 28.8012 45.9688 27.8444 45.9688 26.5164V3.72988C45.9681 2.82201 45.4488 1.96298 44.6149 1.61319ZM3.44761 7.19831C4.89273 7.56031 6.40105 7.74203 7.95248 7.83971C7.53015 9.95065 5.67418 11.5416 3.44761 11.5416V7.19831ZM3.44761 27.6685V24.2367C5.91623 24.2367 7.91369 26.1953 8.02358 28.6467C6.40536 28.5167 4.89273 28.1935 3.44761 27.6685ZM22.984 22.984C19.8101 22.984 17.238 19.8963 17.238 16.0888C17.238 12.2807 19.8108 9.19362 22.984 9.19362C26.1573 9.19362 28.73 12.2807 28.73 16.0888C28.73 19.8977 26.1566 22.984 22.984 22.984ZM42.5205 24.9793C41.2621 24.664 39.9556 24.4873 38.6189 24.3731C39.0405 22.4999 40.5941 21.0778 42.5205 20.8336V24.9793ZM42.5205 8.02071C40.3018 7.73988 38.5801 5.88751 38.5119 3.59988C39.9154 3.75574 41.2477 4.04735 42.5205 4.50918V8.02071Z" fill="#65DA01"/>
</svg>
