<svg width="44" height="44" viewBox="0 0 44 44" fill="none" xmlns="http://www.w3.org/2000/svg">
<path d="M7.41449 17.5946L16.0671 8.79145C20.8265 3.95021 24.7356 -0.0062991 24.7546 7.52907e-06C24.7741 0.00631416 25.4868 0.720765 27.8882 3.16458L25.3642 5.73228L37.338 17.9176L40.2153 14.9909L41.7765 16.5779C42.6353 17.4509 43.3373 18.1757 43.3369 18.1879C43.3365 18.2 39.3472 22.2683 25.6076 36.246L22.4648 33.0535L25.0101 30.4633L20.4064 25.7784L3.14286 43.3468L0 40.1485L17.2636 22.58L13.0362 18.278L11.8189 19.5168C11.1492 20.1983 10.5866 20.7556 10.5684 20.7556C10.5503 20.7556 9.83316 20.0443 7.41449 17.5946Z" fill="#65DA01"/>
<path d="M24.0805 44V41.7476V39.4953H44V44H24.0805Z" fill="#65DA01"/>
</svg>
