<svg width="197" height="27" viewBox="0 0 197 27" fill="none" xmlns="http://www.w3.org/2000/svg">
<rect width="27" height="26" rx="2" fill="#242424"/>
<path d="M19.2794 14.7046C19.2794 15.6644 19.0591 16.5455 18.6185 17.348C18.178 18.1347 17.5014 18.772 16.5888 19.2597C15.6761 19.7475 14.5433 19.9914 13.1901 19.9914H10.6883V25.9391H6.65234V9.37048H13.1901C14.5118 9.37048 15.6289 9.59863 16.5416 10.055C17.4542 10.5113 18.1386 11.1407 18.5949 11.9431C19.0512 12.7456 19.2794 13.6661 19.2794 14.7046ZM12.8833 16.7815C13.6542 16.7815 14.2286 16.6006 14.6062 16.2387C14.9838 15.8768 15.1726 15.3654 15.1726 14.7046C15.1726 14.0437 14.9838 13.5323 14.6062 13.1704C14.2286 12.8085 13.6542 12.6276 12.8833 12.6276H10.6883V16.7815H12.8833Z" fill="white"/>
<path d="M19.3625 5.17297H6.65234V7.83943H19.3625V5.17297Z" fill="#E50913"/>
<path d="M35.5918 12.528V15.936H41.0878V19.104H35.5918V22.8H41.8078V26.088H31.4878V9.24H41.8078V12.528H35.5918Z" fill="#242424"/>
<path d="M55.9442 26.088L52.4402 19.728H51.4562V26.088H47.3522V9.24H54.2402C55.5682 9.24 56.6962 9.472 57.6242 9.936C58.5682 10.4 59.2722 11.04 59.7362 11.856C60.2002 12.656 60.4322 13.552 60.4322 14.544C60.4322 15.664 60.1122 16.664 59.4722 17.544C58.8482 18.424 57.9202 19.048 56.6882 19.416L60.5762 26.088H55.9442ZM51.4562 16.824H54.0002C54.7522 16.824 55.3122 16.64 55.6802 16.272C56.0642 15.904 56.2562 15.384 56.2562 14.712C56.2562 14.072 56.0642 13.568 55.6802 13.2C55.3122 12.832 54.7522 12.648 54.0002 12.648H51.4562V16.824Z" fill="#242424"/>
<path d="M71.9844 26.256C70.7524 26.256 69.6484 26.056 68.6724 25.656C67.6964 25.256 66.9124 24.664 66.3204 23.88C65.7444 23.096 65.4404 22.152 65.4084 21.048H69.7764C69.8404 21.672 70.0564 22.152 70.4244 22.488C70.7924 22.808 71.2724 22.968 71.8644 22.968C72.4724 22.968 72.9524 22.832 73.3044 22.56C73.6564 22.272 73.8324 21.88 73.8324 21.384C73.8324 20.968 73.6884 20.624 73.4004 20.352C73.1284 20.08 72.7844 19.856 72.3684 19.68C71.9684 19.504 71.3924 19.304 70.6404 19.08C69.5524 18.744 68.6644 18.408 67.9764 18.072C67.2884 17.736 66.6964 17.24 66.2004 16.584C65.7044 15.928 65.4564 15.072 65.4564 14.016C65.4564 12.448 66.0244 11.224 67.1604 10.344C68.2964 9.448 69.7764 9 71.6004 9C73.4564 9 74.9524 9.448 76.0884 10.344C77.2244 11.224 77.8324 12.456 77.9124 14.04H73.4724C73.4404 13.496 73.2404 13.072 72.8724 12.768C72.5044 12.448 72.0324 12.288 71.4564 12.288C70.9604 12.288 70.5604 12.424 70.2564 12.696C69.9524 12.952 69.8004 13.328 69.8004 13.824C69.8004 14.368 70.0564 14.792 70.5684 15.096C71.0804 15.4 71.8804 15.728 72.9684 16.08C74.0564 16.448 74.9364 16.8 75.6084 17.136C76.2964 17.472 76.8884 17.96 77.3844 18.6C77.8804 19.24 78.1284 20.064 78.1284 21.072C78.1284 22.032 77.8804 22.904 77.3844 23.688C76.9044 24.472 76.2004 25.096 75.2724 25.56C74.3444 26.024 73.2484 26.256 71.9844 26.256Z" fill="#242424"/>
<path d="M87.638 9.24V26.088H83.534V9.24H87.638Z" fill="#242424"/>
<path d="M99.5882 26.256C98.3562 26.256 97.2522 26.056 96.2762 25.656C95.3002 25.256 94.5162 24.664 93.9242 23.88C93.3482 23.096 93.0442 22.152 93.0122 21.048H97.3802C97.4442 21.672 97.6602 22.152 98.0282 22.488C98.3962 22.808 98.8762 22.968 99.4682 22.968C100.076 22.968 100.556 22.832 100.908 22.56C101.26 22.272 101.436 21.88 101.436 21.384C101.436 20.968 101.292 20.624 101.004 20.352C100.732 20.08 100.388 19.856 99.9722 19.68C99.5722 19.504 98.9962 19.304 98.2442 19.08C97.1562 18.744 96.2682 18.408 95.5802 18.072C94.8922 17.736 94.3002 17.24 93.8042 16.584C93.3082 15.928 93.0602 15.072 93.0602 14.016C93.0602 12.448 93.6282 11.224 94.7642 10.344C95.9002 9.448 97.3802 9 99.2042 9C101.06 9 102.556 9.448 103.692 10.344C104.828 11.224 105.436 12.456 105.516 14.04H101.076C101.044 13.496 100.844 13.072 100.476 12.768C100.108 12.448 99.6362 12.288 99.0602 12.288C98.5642 12.288 98.1642 12.424 97.8602 12.696C97.5562 12.952 97.4042 13.328 97.4042 13.824C97.4042 14.368 97.6602 14.792 98.1722 15.096C98.6842 15.4 99.4842 15.728 100.572 16.08C101.66 16.448 102.54 16.8 103.212 17.136C103.9 17.472 104.492 17.96 104.988 18.6C105.484 19.24 105.732 20.064 105.732 21.072C105.732 22.032 105.484 22.904 104.988 23.688C104.508 24.472 103.804 25.096 102.876 25.56C101.948 26.024 100.852 26.256 99.5882 26.256Z" fill="#242424"/>
<path d="M123.258 9.24V12.528H118.794V26.088H114.69V12.528H110.226V9.24H123.258Z" fill="#242424"/>
<path d="M132.301 12.528V15.936H137.797V19.104H132.301V22.8H138.517V26.088H128.197V9.24H138.517V12.528H132.301Z" fill="#242424"/>
<path d="M159.134 26.088H155.03L148.166 15.696V26.088H144.062V9.24H148.166L155.03 19.68V9.24H159.134V26.088Z" fill="#242424"/>
<path d="M164.293 17.64C164.293 15.976 164.653 14.496 165.373 13.2C166.093 11.888 167.093 10.872 168.373 10.152C169.669 9.416 171.133 9.048 172.765 9.048C174.765 9.048 176.477 9.576 177.901 10.632C179.325 11.688 180.277 13.128 180.757 14.952H176.245C175.909 14.248 175.429 13.712 174.805 13.344C174.197 12.976 173.501 12.792 172.717 12.792C171.453 12.792 170.429 13.232 169.645 14.112C168.861 14.992 168.469 16.168 168.469 17.64C168.469 19.112 168.861 20.288 169.645 21.168C170.429 22.048 171.453 22.488 172.717 22.488C173.501 22.488 174.197 22.304 174.805 21.936C175.429 21.568 175.909 21.032 176.245 20.328H180.757C180.277 22.152 179.325 23.592 177.901 24.648C176.477 25.688 174.765 26.208 172.765 26.208C171.133 26.208 169.669 25.848 168.373 25.128C167.093 24.392 166.093 23.376 165.373 22.08C164.653 20.784 164.293 19.304 164.293 17.64Z" fill="#242424"/>
<path d="M190.254 12.528V15.936H195.75V19.104H190.254V22.8H196.47V26.088H186.15V9.24H196.47V12.528H190.254Z" fill="#242424"/>
</svg>
