<svg width="47" height="47" viewBox="0 0 47 47" fill="none" xmlns="http://www.w3.org/2000/svg">
<circle cx="23.5" cy="23.5" r="23.5" fill="black"/>
<path d="M33.2104 23.2538C33.2104 24.4759 32.9229 25.6261 32.3478 26.6684C31.7727 27.6749 30.91 28.5015 29.7239 29.1126C28.5378 29.7236 27.1001 30.0471 25.3388 30.0471H22.1399V37.703H17V16.3887H25.4107C27.1001 16.3887 28.5378 16.6762 29.7239 17.2513C30.91 17.8264 31.7727 18.6531 32.3478 19.6954C32.9229 20.7378 33.2104 21.9239 33.2104 23.2538ZM25.0153 25.9136C26.0218 25.9136 26.7406 25.698 27.2438 25.2307C27.747 24.7635 27.9627 24.1165 27.9627 23.2538C27.9627 22.3912 27.7111 21.7442 27.2438 21.277C26.7406 20.8097 26.0218 20.594 25.0153 20.594H22.1758V25.9496H25.0153V25.9136Z" fill="white"/>
<path d="M33.2104 11.001H17V14.4156H33.2104V11.001Z" fill="#E50913"/>
</svg>
