<svg width="580" height="357" viewBox="0 0 580 357" fill="none" xmlns="http://www.w3.org/2000/svg">
<mask id="mask0_3362_1142" style="mask-type:alpha" maskUnits="userSpaceOnUse" x="0" y="0" width="580" height="357">
<rect x="0.28125" y="0.597656" width="579" height="356" rx="16" fill="black"/>
</mask>
<g mask="url(#mask0_3362_1142)">
<g filter="url(#filter0_dd_3362_1142)">
<rect x="0.28125" y="0.597656" width="579" height="356" rx="16" fill="black"/>
</g>
<g opacity="0.2">
<path d="M668.439 187.362C668.439 271.027 600.614 338.851 516.949 338.851C433.283 338.851 365.459 271.027 365.459 187.362C365.459 103.696 433.283 35.8717 516.949 35.8717C600.614 35.8717 668.439 103.696 668.439 187.362ZM413.886 187.362C413.886 244.282 460.029 290.425 516.949 290.425C573.869 290.425 620.012 244.282 620.012 187.362C620.012 130.441 573.869 84.2983 516.949 84.2983C460.029 84.2983 413.886 130.441 413.886 187.362Z" fill="url(#paint0_linear_3362_1142)"/>
<path d="M516.948 246.58C516.948 353.686 430.122 440.512 323.016 440.512C215.91 440.512 129.084 353.686 129.084 246.58C129.084 139.475 215.91 52.6482 323.016 52.6482C430.122 52.6482 516.948 139.475 516.948 246.58ZM191.078 246.58C191.078 319.448 250.149 378.518 323.016 378.518C395.883 378.518 454.954 319.448 454.954 246.58C454.954 173.713 395.883 114.642 323.016 114.642C250.149 114.642 191.078 173.713 191.078 246.58Z" fill="url(#paint1_linear_3362_1142)"/>
<path d="M433.566 72.054C433.566 157.863 364.004 227.425 278.195 227.425C192.386 227.425 122.824 157.863 122.824 72.054C122.824 -13.7551 192.386 -83.317 278.195 -83.317C364.004 -83.317 433.566 -13.7551 433.566 72.054ZM172.492 72.054C172.492 130.433 219.817 177.758 278.195 177.758C336.574 177.758 383.899 130.433 383.899 72.054C383.899 13.6755 336.574 -33.6497 278.195 -33.6497C219.817 -33.6497 172.492 13.6755 172.492 72.054Z" fill="url(#paint2_linear_3362_1142)"/>
</g>
<g filter="url(#filter1_f_3362_1142)">
<rect x="274.688" y="-75.9386" width="317.193" height="321.589" rx="50.0917" fill="#F087FF" fill-opacity="0.3"/>
</g>
<g filter="url(#filter2_f_3362_1142)">
<rect x="-284" y="232" width="388" height="394" rx="50.0917" fill="#F087FF" fill-opacity="0.3"/>
</g>
</g>
<defs>
<filter id="filter0_dd_3362_1142" x="-0.71875" y="-0.402344" width="581" height="358" filterUnits="userSpaceOnUse" color-interpolation-filters="sRGB">
<feFlood flood-opacity="0" result="BackgroundImageFix"/>
<feColorMatrix in="SourceAlpha" type="matrix" values="0 0 0 0 0 0 0 0 0 0 0 0 0 0 0 0 0 0 127 0" result="hardAlpha"/>
<feOffset/>
<feComposite in2="hardAlpha" operator="out"/>
<feColorMatrix type="matrix" values="0 0 0 0 1 0 0 0 0 1 0 0 0 0 1 0 0 0 1 0"/>
<feBlend mode="normal" in2="BackgroundImageFix" result="effect1_dropShadow_3362_1142"/>
<feColorMatrix in="SourceAlpha" type="matrix" values="0 0 0 0 0 0 0 0 0 0 0 0 0 0 0 0 0 0 127 0" result="hardAlpha"/>
<feMorphology radius="1" operator="dilate" in="SourceAlpha" result="effect2_dropShadow_3362_1142"/>
<feOffset/>
<feComposite in2="hardAlpha" operator="out"/>
<feColorMatrix type="matrix" values="0 0 0 0 0.956863 0 0 0 0 0.956863 0 0 0 0 0.960784 0 0 0 0.1 0"/>
<feBlend mode="normal" in2="effect1_dropShadow_3362_1142" result="effect2_dropShadow_3362_1142"/>
<feBlend mode="normal" in="SourceGraphic" in2="effect2_dropShadow_3362_1142" result="shape"/>
</filter>
<filter id="filter1_f_3362_1142" x="24.229" y="-326.397" width="818.11" height="822.506" filterUnits="userSpaceOnUse" color-interpolation-filters="sRGB">
<feFlood flood-opacity="0" result="BackgroundImageFix"/>
<feBlend mode="normal" in="SourceGraphic" in2="BackgroundImageFix" result="shape"/>
<feGaussianBlur stdDeviation="125.229" result="effect1_foregroundBlur_3362_1142"/>
</filter>
<filter id="filter2_f_3362_1142" x="-534.458" y="-18.4585" width="888.917" height="894.917" filterUnits="userSpaceOnUse" color-interpolation-filters="sRGB">
<feFlood flood-opacity="0" result="BackgroundImageFix"/>
<feBlend mode="normal" in="SourceGraphic" in2="BackgroundImageFix" result="shape"/>
<feGaussianBlur stdDeviation="125.229" result="effect1_foregroundBlur_3362_1142"/>
</filter>
<linearGradient id="paint0_linear_3362_1142" x1="641.217" y1="245.589" x2="365.459" y2="85.1883" gradientUnits="userSpaceOnUse">
<stop stop-color="#C91F87"/>
<stop offset="1" stop-color="#C91F87" stop-opacity="0"/>
</linearGradient>
<linearGradient id="paint1_linear_3362_1142" x1="211.339" y1="401.576" x2="451.344" y2="79.1902" gradientUnits="userSpaceOnUse">
<stop stop-color="#001847"/>
<stop offset="1" stop-color="#001847" stop-opacity="0"/>
</linearGradient>
<linearGradient id="paint2_linear_3362_1142" x1="405.647" y1="131.774" x2="122.824" y2="-32.7369" gradientUnits="userSpaceOnUse">
<stop stop-color="#C91F87"/>
<stop offset="1" stop-color="#C91F87" stop-opacity="0"/>
</linearGradient>
</defs>
</svg>
