<svg width="340" height="236" viewBox="0 0 340 236" fill="none" xmlns="http://www.w3.org/2000/svg">
<path opacity="0.2" d="M223.311 18H124.439L73.875 68.4753V168.525L124.439 219H223.311L273.875 168.525V68.4753L223.311 18Z" fill="#282828"/>
<g filter="url(#filter0_d_4701_2324)">
<path d="M214.521 34.3184H133.367C132.836 34.3184 132.328 34.5291 131.953 34.9041L90.7733 76.0834C90.3982 76.4585 90.1875 76.9672 90.1875 77.4977V159.786C90.1875 160.317 90.3982 160.825 90.7733 161.2L131.953 202.38C132.328 202.755 132.836 202.966 133.367 202.966H214.521C215.051 202.966 215.56 202.755 215.935 202.38L257.114 161.2C257.49 160.825 257.7 160.317 257.7 159.786V77.4976C257.7 76.9672 257.49 76.4585 257.114 76.0834L215.935 34.9041C215.56 34.5291 215.051 34.3184 214.521 34.3184Z" fill="url(#paint0_linear_4701_2324)" shape-rendering="crispEdges"/>
<path d="M133.367 34.5684H214.521C214.985 34.5684 215.431 34.7529 215.759 35.0811L256.938 76.2598C257.266 76.588 257.45 77.0339 257.45 77.498V159.786C257.45 160.25 257.266 160.695 256.938 161.023L215.759 202.203C215.431 202.531 214.985 202.716 214.521 202.716H133.367C132.903 202.716 132.457 202.531 132.129 202.203L90.9502 161.023C90.622 160.695 90.4375 160.25 90.4375 159.786V77.498C90.4375 77.0339 90.622 76.588 90.9502 76.2598L132.129 35.0811C132.457 34.7529 132.903 34.5684 133.367 34.5684Z" stroke="url(#paint1_linear_4701_2324)" stroke-width="0.5" shape-rendering="crispEdges"/>
</g>
<path d="M91.1748 147.247L112.995 124.991H139.615M119.759 138.519H148.78M119.759 195.034V178.668L146.715 151.894M150.962 205.071V188.924L162.308 178.668V159.03M188.274 159.03V168.849L201.366 180.632V205.071M202.894 149.429V156.412L227.332 180.632V205.071M201.366 138.519H214.24L243.261 167.322H260.717M209.222 119.1H227.332L250.243 96.4067H289.301M261.372 83.3146H240.424L214.24 108.626H207.383M197.301 78.8704L243.261 32.9102M181.946 73.5V36.6196L185.656 32.9102M162.308 75V66.7313L152.271 57.1305V32.9102M136.779 32.9102L129.142 39.238V64.1129L139.615 74.3683L154.383 89.1357M131.978 105.571H116.268L100.557 90.0788H55.9141" stroke="url(#paint2_radial_4701_2324)" stroke-width="1.30921"/>
<g filter="url(#filter1_f_4701_2324)">
<path d="M173.952 175.056C173.952 175.056 215.935 154.09 215.935 122.642V85.9526L173.952 70.2285L131.969 85.9526V122.642C131.969 154.09 173.952 175.056 173.952 175.056Z" stroke="url(#paint3_linear_4701_2324)" stroke-width="1.1349"/>
</g>
<path d="M173.952 175.056C173.952 175.056 215.935 154.09 215.935 122.642V85.9526L173.952 70.2285L131.969 85.9526V122.642C131.969 154.09 173.952 175.056 173.952 175.056Z" stroke="url(#paint4_linear_4701_2324)" stroke-width="1.06393"/>
<path d="M173.967 167.232C173.967 167.232 209.692 149.396 209.692 122.642V91.428L173.967 78.0508L138.242 91.428V122.642C138.242 149.396 173.967 167.232 173.967 167.232Z" fill="url(#paint5_linear_4701_2324)"/>
<path d="M173.688 110.893C176.777 110.893 179.281 113.397 179.281 116.486C179.281 118.985 177.642 121.101 175.381 121.818L179.841 134.386H168.094L172.134 121.859C169.801 121.186 168.094 119.036 168.094 116.486C168.094 113.397 170.598 110.893 173.688 110.893Z" fill="black"/>
<path d="M145.227 21.8451C145.227 20.6945 144.294 19.7617 143.143 19.7617H114.458V40.7939H143.143C144.294 40.7939 145.227 39.8612 145.227 38.7105V21.8451Z" fill="#1E1E1F"/>
<circle cx="1.10337" cy="1.10337" r="1.10337" transform="matrix(-1 0 0 1 134.273 25.6855)" fill="url(#paint6_linear_4701_2324)"/>
<circle cx="1.10337" cy="1.10337" r="1.10337" transform="matrix(-1 0 0 1 134.273 32.6621)" fill="url(#paint7_linear_4701_2324)"/>
<circle cx="1.10337" cy="1.10337" r="1.10337" transform="matrix(-1 0 0 1 137.602 29.1738)" fill="url(#paint8_linear_4701_2324)"/>
<circle cx="1.10337" cy="1.10337" r="1.10337" transform="matrix(-1 0 0 1 130.945 29.1738)" fill="url(#paint9_linear_4701_2324)"/>
<circle cx="1.10337" cy="1.10337" r="1.10337" transform="matrix(-1 0 0 1 124.289 29.1738)" fill="url(#paint10_linear_4701_2324)"/>
<circle opacity="0.4" cx="1.10337" cy="1.10337" r="1.10337" transform="matrix(-1 0 0 1 130.945 25.6855)" fill="#C1C1C1"/>
<circle opacity="0.4" cx="1.10337" cy="1.10337" r="1.10337" transform="matrix(-1 0 0 1 130.945 32.6621)" fill="#C1C1C1"/>
<circle opacity="0.4" cx="1.10337" cy="1.10337" r="1.10337" transform="matrix(-1 0 0 1 134.273 29.1738)" fill="#C1C1C1"/>
<circle opacity="0.4" cx="1.10337" cy="1.10337" r="1.10337" transform="matrix(-1 0 0 1 127.617 29.1738)" fill="#C1C1C1"/>
<circle cx="1.10337" cy="1.10337" r="1.10337" transform="matrix(-1 0 0 1 127.617 25.6855)" fill="url(#paint11_linear_4701_2324)"/>
<circle cx="1.10337" cy="1.10337" r="1.10337" transform="matrix(-1 0 0 1 127.617 32.6621)" fill="url(#paint12_linear_4701_2324)"/>
<path d="M106.703 154.121C106.703 152.97 105.77 152.037 104.62 152.037H75.9347V173.069H104.62C105.77 173.069 106.703 172.137 106.703 170.986V154.121Z" fill="#1E1E1F"/>
<circle cx="1.10337" cy="1.10337" r="1.10337" transform="matrix(-1 0 0 1 95.75 157.961)" fill="url(#paint13_linear_4701_2324)"/>
<circle cx="1.10337" cy="1.10337" r="1.10337" transform="matrix(-1 0 0 1 95.75 164.938)" fill="url(#paint14_linear_4701_2324)"/>
<circle cx="1.10337" cy="1.10337" r="1.10337" transform="matrix(-1 0 0 1 99.0781 161.449)" fill="url(#paint15_linear_4701_2324)"/>
<circle cx="1.10337" cy="1.10337" r="1.10337" transform="matrix(-1 0 0 1 92.4219 161.449)" fill="url(#paint16_linear_4701_2324)"/>
<circle cx="1.10337" cy="1.10337" r="1.10337" transform="matrix(-1 0 0 1 85.7656 161.449)" fill="url(#paint17_linear_4701_2324)"/>
<circle opacity="0.4" cx="1.10337" cy="1.10337" r="1.10337" transform="matrix(-1 0 0 1 92.4219 157.961)" fill="#C1C1C1"/>
<circle opacity="0.4" cx="1.10337" cy="1.10337" r="1.10337" transform="matrix(-1 0 0 1 92.4219 164.938)" fill="#C1C1C1"/>
<circle opacity="0.4" cx="1.10337" cy="1.10337" r="1.10337" transform="matrix(-1 0 0 1 95.75 161.449)" fill="#C1C1C1"/>
<circle opacity="0.4" cx="1.10337" cy="1.10337" r="1.10337" transform="matrix(-1 0 0 1 89.0938 161.449)" fill="#C1C1C1"/>
<circle cx="1.10337" cy="1.10337" r="1.10337" transform="matrix(-1 0 0 1 89.0938 157.961)" fill="url(#paint18_linear_4701_2324)"/>
<circle cx="1.10337" cy="1.10337" r="1.10337" transform="matrix(-1 0 0 1 89.0938 164.938)" fill="url(#paint19_linear_4701_2324)"/>
<path d="M276.172 160.044C276.172 158.894 275.239 157.961 274.088 157.961H245.403V178.993H274.088C275.239 178.993 276.172 178.06 276.172 176.91V160.044Z" fill="#1E1E1F"/>
<circle cx="1.10337" cy="1.10337" r="1.10337" transform="matrix(-1 0 0 1 265.219 163.885)" fill="url(#paint20_linear_4701_2324)"/>
<circle cx="1.10337" cy="1.10337" r="1.10337" transform="matrix(-1 0 0 1 265.219 170.861)" fill="url(#paint21_linear_4701_2324)"/>
<circle cx="1.10337" cy="1.10337" r="1.10337" transform="matrix(-1 0 0 1 268.547 167.373)" fill="url(#paint22_linear_4701_2324)"/>
<circle cx="1.10337" cy="1.10337" r="1.10337" transform="matrix(-1 0 0 1 261.891 167.373)" fill="url(#paint23_linear_4701_2324)"/>
<circle cx="1.10337" cy="1.10337" r="1.10337" transform="matrix(-1 0 0 1 255.234 167.373)" fill="url(#paint24_linear_4701_2324)"/>
<circle opacity="0.4" cx="1.10337" cy="1.10337" r="1.10337" transform="matrix(-1 0 0 1 261.891 163.885)" fill="#C1C1C1"/>
<circle opacity="0.4" cx="1.10337" cy="1.10337" r="1.10337" transform="matrix(-1 0 0 1 261.891 170.861)" fill="#C1C1C1"/>
<circle opacity="0.4" cx="1.10337" cy="1.10337" r="1.10337" transform="matrix(-1 0 0 1 265.219 167.373)" fill="#C1C1C1"/>
<circle opacity="0.4" cx="1.10337" cy="1.10337" r="1.10337" transform="matrix(-1 0 0 1 258.562 167.373)" fill="#C1C1C1"/>
<circle cx="1.10337" cy="1.10337" r="1.10337" transform="matrix(-1 0 0 1 258.562 163.885)" fill="url(#paint25_linear_4701_2324)"/>
<circle cx="1.10337" cy="1.10337" r="1.10337" transform="matrix(-1 0 0 1 258.562 170.861)" fill="url(#paint26_linear_4701_2324)"/>
<path d="M255.234 26.4389C255.234 25.2882 254.302 24.3555 253.151 24.3555H224.466V45.3877H253.151C254.302 45.3877 255.234 44.4549 255.234 43.3043V26.4389Z" fill="#1E1E1F"/>
<circle cx="1.10337" cy="1.10337" r="1.10337" transform="matrix(-1 0 0 1 244.281 30.2793)" fill="url(#paint27_linear_4701_2324)"/>
<circle cx="1.10337" cy="1.10337" r="1.10337" transform="matrix(-1 0 0 1 244.281 37.2559)" fill="url(#paint28_linear_4701_2324)"/>
<circle cx="1.10337" cy="1.10337" r="1.10337" transform="matrix(-1 0 0 1 247.609 33.7676)" fill="url(#paint29_linear_4701_2324)"/>
<circle cx="1.10337" cy="1.10337" r="1.10337" transform="matrix(-1 0 0 1 240.953 33.7676)" fill="url(#paint30_linear_4701_2324)"/>
<circle cx="1.10337" cy="1.10337" r="1.10337" transform="matrix(-1 0 0 1 234.297 33.7676)" fill="url(#paint31_linear_4701_2324)"/>
<circle opacity="0.4" cx="1.10337" cy="1.10337" r="1.10337" transform="matrix(-1 0 0 1 240.953 30.2793)" fill="#C1C1C1"/>
<circle opacity="0.4" cx="1.10337" cy="1.10337" r="1.10337" transform="matrix(-1 0 0 1 240.953 37.2559)" fill="#C1C1C1"/>
<circle opacity="0.4" cx="1.10337" cy="1.10337" r="1.10337" transform="matrix(-1 0 0 1 244.281 33.7676)" fill="#C1C1C1"/>
<circle opacity="0.4" cx="1.10337" cy="1.10337" r="1.10337" transform="matrix(-1 0 0 1 237.625 33.7676)" fill="#C1C1C1"/>
<circle cx="1.10337" cy="1.10337" r="1.10337" transform="matrix(-1 0 0 1 237.625 30.2793)" fill="url(#paint32_linear_4701_2324)"/>
<circle cx="1.10337" cy="1.10337" r="1.10337" transform="matrix(-1 0 0 1 237.625 37.2559)" fill="url(#paint33_linear_4701_2324)"/>
<path d="M69.7656 82.0287C69.7656 80.8781 68.8328 79.9453 67.6822 79.9453H38.9972V100.978H67.6822C68.8328 100.978 69.7656 100.045 69.7656 98.8941V82.0287Z" fill="#1E1E1F"/>
<circle cx="1.10337" cy="1.10337" r="1.10337" transform="matrix(-1 0 0 1 58.8125 85.8691)" fill="url(#paint34_linear_4701_2324)"/>
<circle cx="1.10337" cy="1.10337" r="1.10337" transform="matrix(-1 0 0 1 58.8125 92.8457)" fill="url(#paint35_linear_4701_2324)"/>
<circle cx="1.10337" cy="1.10337" r="1.10337" transform="matrix(-1 0 0 1 62.1406 89.3574)" fill="url(#paint36_linear_4701_2324)"/>
<circle cx="1.10337" cy="1.10337" r="1.10337" transform="matrix(-1 0 0 1 55.4844 89.3574)" fill="url(#paint37_linear_4701_2324)"/>
<circle cx="1.10337" cy="1.10337" r="1.10337" transform="matrix(-1 0 0 1 48.8281 89.3574)" fill="url(#paint38_linear_4701_2324)"/>
<circle opacity="0.4" cx="1.10337" cy="1.10337" r="1.10337" transform="matrix(-1 0 0 1 55.4844 85.8691)" fill="#C1C1C1"/>
<circle opacity="0.4" cx="1.10337" cy="1.10337" r="1.10337" transform="matrix(-1 0 0 1 55.4844 92.8457)" fill="#C1C1C1"/>
<circle opacity="0.4" cx="1.10337" cy="1.10337" r="1.10337" transform="matrix(-1 0 0 1 58.8125 89.3574)" fill="#C1C1C1"/>
<circle opacity="0.4" cx="1.10337" cy="1.10337" r="1.10337" transform="matrix(-1 0 0 1 52.1562 89.3574)" fill="#C1C1C1"/>
<circle cx="1.10337" cy="1.10337" r="1.10337" transform="matrix(-1 0 0 1 52.1562 85.8691)" fill="url(#paint39_linear_4701_2324)"/>
<circle cx="1.10337" cy="1.10337" r="1.10337" transform="matrix(-1 0 0 1 52.1562 92.8457)" fill="url(#paint40_linear_4701_2324)"/>
<path d="M301.766 88.0834C301.766 86.9328 300.833 86 299.682 86H270.997V107.032H299.682C300.833 107.032 301.766 106.099 301.766 104.949V88.0834Z" fill="#1E1E1F"/>
<circle cx="1.10337" cy="1.10337" r="1.10337" transform="matrix(-1 0 0 1 290.812 91.9238)" fill="url(#paint41_linear_4701_2324)"/>
<circle cx="1.10337" cy="1.10337" r="1.10337" transform="matrix(-1 0 0 1 290.812 98.9004)" fill="url(#paint42_linear_4701_2324)"/>
<circle cx="1.10337" cy="1.10337" r="1.10337" transform="matrix(-1 0 0 1 294.141 95.4121)" fill="url(#paint43_linear_4701_2324)"/>
<circle cx="1.10337" cy="1.10337" r="1.10337" transform="matrix(-1 0 0 1 287.484 95.4121)" fill="url(#paint44_linear_4701_2324)"/>
<circle cx="1.10337" cy="1.10337" r="1.10337" transform="matrix(-1 0 0 1 280.828 95.4121)" fill="url(#paint45_linear_4701_2324)"/>
<circle opacity="0.4" cx="1.10337" cy="1.10337" r="1.10337" transform="matrix(-1 0 0 1 287.484 91.9238)" fill="#C1C1C1"/>
<circle opacity="0.4" cx="1.10337" cy="1.10337" r="1.10337" transform="matrix(-1 0 0 1 287.484 98.9004)" fill="#C1C1C1"/>
<circle opacity="0.4" cx="1.10337" cy="1.10337" r="1.10337" transform="matrix(-1 0 0 1 290.812 95.4121)" fill="#C1C1C1"/>
<circle opacity="0.4" cx="1.10337" cy="1.10337" r="1.10337" transform="matrix(-1 0 0 1 284.156 95.4121)" fill="#C1C1C1"/>
<circle cx="1.10337" cy="1.10337" r="1.10337" transform="matrix(-1 0 0 1 284.156 91.9238)" fill="url(#paint46_linear_4701_2324)"/>
<circle cx="1.10337" cy="1.10337" r="1.10337" transform="matrix(-1 0 0 1 284.156 98.9004)" fill="url(#paint47_linear_4701_2324)"/>
<defs>
<filter id="filter0_d_4701_2324" x="68.6875" y="12.8184" width="194.512" height="195.647" filterUnits="userSpaceOnUse" color-interpolation-filters="sRGB">
<feFlood flood-opacity="0" result="BackgroundImageFix"/>
<feColorMatrix in="SourceAlpha" type="matrix" values="0 0 0 0 0 0 0 0 0 0 0 0 0 0 0 0 0 0 127 0" result="hardAlpha"/>
<feOffset dx="-8" dy="-8"/>
<feGaussianBlur stdDeviation="6.75"/>
<feComposite in2="hardAlpha" operator="out"/>
<feColorMatrix type="matrix" values="0 0 0 0 0 0 0 0 0 0 0 0 0 0 0 0 0 0 0.25 0"/>
<feBlend mode="normal" in2="BackgroundImageFix" result="effect1_dropShadow_4701_2324"/>
<feBlend mode="normal" in="SourceGraphic" in2="effect1_dropShadow_4701_2324" result="shape"/>
</filter>
<filter id="filter1_f_4701_2324" x="127.402" y="65.6226" width="93.1016" height="114.068" filterUnits="userSpaceOnUse" color-interpolation-filters="sRGB">
<feFlood flood-opacity="0" result="BackgroundImageFix"/>
<feBlend mode="normal" in="SourceGraphic" in2="BackgroundImageFix" result="shape"/>
<feGaussianBlur stdDeviation="2" result="effect1_foregroundBlur_4701_2324"/>
</filter>
<linearGradient id="paint0_linear_4701_2324" x1="252.022" y1="-5.53076" x2="106.587" y2="190.27" gradientUnits="userSpaceOnUse">
<stop stop-color="#151825" stop-opacity="0.1"/>
<stop offset="0.736825" stop-color="#151825"/>
<stop offset="1" stop-color="#1A162E"/>
</linearGradient>
<linearGradient id="paint1_linear_4701_2324" x1="94.176" y1="34.3184" x2="286.611" y2="101.581" gradientUnits="userSpaceOnUse">
<stop stop-color="#595D6C"/>
<stop offset="1" stop-color="#4A3B87" stop-opacity="0.18"/>
</linearGradient>
<radialGradient id="paint2_radial_4701_2324" cx="0" cy="0" r="1" gradientUnits="userSpaceOnUse" gradientTransform="translate(175.4 118.99) rotate(90.0252) scale(98.5551 176.875)">
<stop stop-color="#424242"/>
<stop offset="1" stop-color="#424242" stop-opacity="0"/>
</radialGradient>
<linearGradient id="paint3_linear_4701_2324" x1="180.305" y1="63.1155" x2="180.305" y2="207.004" gradientUnits="userSpaceOnUse">
<stop stop-color="#12B7FB" stop-opacity="0.1"/>
<stop offset="1" stop-color="#C34DD1"/>
</linearGradient>
<linearGradient id="paint4_linear_4701_2324" x1="180.305" y1="63.1155" x2="180.305" y2="207.004" gradientUnits="userSpaceOnUse">
<stop stop-color="#12B7FB" stop-opacity="0.1"/>
<stop offset="1" stop-color="#C34DD1"/>
</linearGradient>
<linearGradient id="paint5_linear_4701_2324" x1="209.692" y1="122.642" x2="138.242" y2="122.642" gradientUnits="userSpaceOnUse">
<stop stop-color="#AA83FF"/>
<stop offset="1" stop-color="#D0FFCC"/>
</linearGradient>
<linearGradient id="paint6_linear_4701_2324" x1="-2.04689" y1="-1.85748" x2="4.06513" y2="-3.10528" gradientUnits="userSpaceOnUse">
<stop stop-color="#00C2FF"/>
<stop offset="1" stop-color="#FF29C3"/>
</linearGradient>
<linearGradient id="paint7_linear_4701_2324" x1="-2.04689" y1="-1.85748" x2="4.06513" y2="-3.10528" gradientUnits="userSpaceOnUse">
<stop stop-color="#00C2FF"/>
<stop offset="1" stop-color="#FF29C3"/>
</linearGradient>
<linearGradient id="paint8_linear_4701_2324" x1="-2.04689" y1="-1.85748" x2="4.06513" y2="-3.10528" gradientUnits="userSpaceOnUse">
<stop stop-color="#00C2FF"/>
<stop offset="1" stop-color="#FF29C3"/>
</linearGradient>
<linearGradient id="paint9_linear_4701_2324" x1="-2.04689" y1="-1.85748" x2="4.06513" y2="-3.10528" gradientUnits="userSpaceOnUse">
<stop stop-color="#00C2FF"/>
<stop offset="1" stop-color="#FF29C3"/>
</linearGradient>
<linearGradient id="paint10_linear_4701_2324" x1="-2.04689" y1="-1.85748" x2="4.06513" y2="-3.10528" gradientUnits="userSpaceOnUse">
<stop stop-color="#00C2FF"/>
<stop offset="1" stop-color="#FF29C3"/>
</linearGradient>
<linearGradient id="paint11_linear_4701_2324" x1="-2.04689" y1="-1.85748" x2="4.06513" y2="-3.10528" gradientUnits="userSpaceOnUse">
<stop stop-color="#00C2FF"/>
<stop offset="1" stop-color="#FF29C3"/>
</linearGradient>
<linearGradient id="paint12_linear_4701_2324" x1="-2.04689" y1="-1.85748" x2="4.06513" y2="-3.10528" gradientUnits="userSpaceOnUse">
<stop stop-color="#00C2FF"/>
<stop offset="1" stop-color="#FF29C3"/>
</linearGradient>
<linearGradient id="paint13_linear_4701_2324" x1="-2.04689" y1="-1.85748" x2="4.06513" y2="-3.10528" gradientUnits="userSpaceOnUse">
<stop stop-color="#00C2FF"/>
<stop offset="1" stop-color="#FF29C3"/>
</linearGradient>
<linearGradient id="paint14_linear_4701_2324" x1="-2.04689" y1="-1.85748" x2="4.06513" y2="-3.10528" gradientUnits="userSpaceOnUse">
<stop stop-color="#00C2FF"/>
<stop offset="1" stop-color="#FF29C3"/>
</linearGradient>
<linearGradient id="paint15_linear_4701_2324" x1="-2.04689" y1="-1.85748" x2="4.06513" y2="-3.10528" gradientUnits="userSpaceOnUse">
<stop stop-color="#00C2FF"/>
<stop offset="1" stop-color="#FF29C3"/>
</linearGradient>
<linearGradient id="paint16_linear_4701_2324" x1="-2.04689" y1="-1.85748" x2="4.06513" y2="-3.10528" gradientUnits="userSpaceOnUse">
<stop stop-color="#00C2FF"/>
<stop offset="1" stop-color="#FF29C3"/>
</linearGradient>
<linearGradient id="paint17_linear_4701_2324" x1="-2.04689" y1="-1.85748" x2="4.06513" y2="-3.10528" gradientUnits="userSpaceOnUse">
<stop stop-color="#00C2FF"/>
<stop offset="1" stop-color="#FF29C3"/>
</linearGradient>
<linearGradient id="paint18_linear_4701_2324" x1="-2.04689" y1="-1.85748" x2="4.06513" y2="-3.10528" gradientUnits="userSpaceOnUse">
<stop stop-color="#00C2FF"/>
<stop offset="1" stop-color="#FF29C3"/>
</linearGradient>
<linearGradient id="paint19_linear_4701_2324" x1="-2.04689" y1="-1.85748" x2="4.06513" y2="-3.10528" gradientUnits="userSpaceOnUse">
<stop stop-color="#00C2FF"/>
<stop offset="1" stop-color="#FF29C3"/>
</linearGradient>
<linearGradient id="paint20_linear_4701_2324" x1="-2.04689" y1="-1.85748" x2="4.06513" y2="-3.10528" gradientUnits="userSpaceOnUse">
<stop stop-color="#00C2FF"/>
<stop offset="1" stop-color="#FF29C3"/>
</linearGradient>
<linearGradient id="paint21_linear_4701_2324" x1="-2.04689" y1="-1.85748" x2="4.06513" y2="-3.10528" gradientUnits="userSpaceOnUse">
<stop stop-color="#00C2FF"/>
<stop offset="1" stop-color="#FF29C3"/>
</linearGradient>
<linearGradient id="paint22_linear_4701_2324" x1="-2.04689" y1="-1.85748" x2="4.06513" y2="-3.10528" gradientUnits="userSpaceOnUse">
<stop stop-color="#00C2FF"/>
<stop offset="1" stop-color="#FF29C3"/>
</linearGradient>
<linearGradient id="paint23_linear_4701_2324" x1="-2.04689" y1="-1.85748" x2="4.06513" y2="-3.10528" gradientUnits="userSpaceOnUse">
<stop stop-color="#00C2FF"/>
<stop offset="1" stop-color="#FF29C3"/>
</linearGradient>
<linearGradient id="paint24_linear_4701_2324" x1="-2.04689" y1="-1.85748" x2="4.06513" y2="-3.10528" gradientUnits="userSpaceOnUse">
<stop stop-color="#00C2FF"/>
<stop offset="1" stop-color="#FF29C3"/>
</linearGradient>
<linearGradient id="paint25_linear_4701_2324" x1="-2.04689" y1="-1.85748" x2="4.06513" y2="-3.10528" gradientUnits="userSpaceOnUse">
<stop stop-color="#00C2FF"/>
<stop offset="1" stop-color="#FF29C3"/>
</linearGradient>
<linearGradient id="paint26_linear_4701_2324" x1="-2.04689" y1="-1.85748" x2="4.06513" y2="-3.10528" gradientUnits="userSpaceOnUse">
<stop stop-color="#00C2FF"/>
<stop offset="1" stop-color="#FF29C3"/>
</linearGradient>
<linearGradient id="paint27_linear_4701_2324" x1="-2.04689" y1="-1.85748" x2="4.06513" y2="-3.10528" gradientUnits="userSpaceOnUse">
<stop stop-color="#00C2FF"/>
<stop offset="1" stop-color="#FF29C3"/>
</linearGradient>
<linearGradient id="paint28_linear_4701_2324" x1="-2.04689" y1="-1.85748" x2="4.06513" y2="-3.10528" gradientUnits="userSpaceOnUse">
<stop stop-color="#00C2FF"/>
<stop offset="1" stop-color="#FF29C3"/>
</linearGradient>
<linearGradient id="paint29_linear_4701_2324" x1="-2.04689" y1="-1.85748" x2="4.06513" y2="-3.10528" gradientUnits="userSpaceOnUse">
<stop stop-color="#00C2FF"/>
<stop offset="1" stop-color="#FF29C3"/>
</linearGradient>
<linearGradient id="paint30_linear_4701_2324" x1="-2.04689" y1="-1.85748" x2="4.06513" y2="-3.10528" gradientUnits="userSpaceOnUse">
<stop stop-color="#00C2FF"/>
<stop offset="1" stop-color="#FF29C3"/>
</linearGradient>
<linearGradient id="paint31_linear_4701_2324" x1="-2.04689" y1="-1.85748" x2="4.06513" y2="-3.10528" gradientUnits="userSpaceOnUse">
<stop stop-color="#00C2FF"/>
<stop offset="1" stop-color="#FF29C3"/>
</linearGradient>
<linearGradient id="paint32_linear_4701_2324" x1="-2.04689" y1="-1.85748" x2="4.06513" y2="-3.10528" gradientUnits="userSpaceOnUse">
<stop stop-color="#00C2FF"/>
<stop offset="1" stop-color="#FF29C3"/>
</linearGradient>
<linearGradient id="paint33_linear_4701_2324" x1="-2.04689" y1="-1.85748" x2="4.06513" y2="-3.10528" gradientUnits="userSpaceOnUse">
<stop stop-color="#00C2FF"/>
<stop offset="1" stop-color="#FF29C3"/>
</linearGradient>
<linearGradient id="paint34_linear_4701_2324" x1="-2.04689" y1="-1.85748" x2="4.06513" y2="-3.10528" gradientUnits="userSpaceOnUse">
<stop stop-color="#00C2FF"/>
<stop offset="1" stop-color="#FF29C3"/>
</linearGradient>
<linearGradient id="paint35_linear_4701_2324" x1="-2.04689" y1="-1.85748" x2="4.06513" y2="-3.10528" gradientUnits="userSpaceOnUse">
<stop stop-color="#00C2FF"/>
<stop offset="1" stop-color="#FF29C3"/>
</linearGradient>
<linearGradient id="paint36_linear_4701_2324" x1="-2.04689" y1="-1.85748" x2="4.06513" y2="-3.10528" gradientUnits="userSpaceOnUse">
<stop stop-color="#00C2FF"/>
<stop offset="1" stop-color="#FF29C3"/>
</linearGradient>
<linearGradient id="paint37_linear_4701_2324" x1="-2.04689" y1="-1.85748" x2="4.06513" y2="-3.10528" gradientUnits="userSpaceOnUse">
<stop stop-color="#00C2FF"/>
<stop offset="1" stop-color="#FF29C3"/>
</linearGradient>
<linearGradient id="paint38_linear_4701_2324" x1="-2.04689" y1="-1.85748" x2="4.06513" y2="-3.10528" gradientUnits="userSpaceOnUse">
<stop stop-color="#00C2FF"/>
<stop offset="1" stop-color="#FF29C3"/>
</linearGradient>
<linearGradient id="paint39_linear_4701_2324" x1="-2.04689" y1="-1.85748" x2="4.06513" y2="-3.10528" gradientUnits="userSpaceOnUse">
<stop stop-color="#00C2FF"/>
<stop offset="1" stop-color="#FF29C3"/>
</linearGradient>
<linearGradient id="paint40_linear_4701_2324" x1="-2.04689" y1="-1.85748" x2="4.06513" y2="-3.10528" gradientUnits="userSpaceOnUse">
<stop stop-color="#00C2FF"/>
<stop offset="1" stop-color="#FF29C3"/>
</linearGradient>
<linearGradient id="paint41_linear_4701_2324" x1="-2.04689" y1="-1.85748" x2="4.06513" y2="-3.10528" gradientUnits="userSpaceOnUse">
<stop stop-color="#00C2FF"/>
<stop offset="1" stop-color="#FF29C3"/>
</linearGradient>
<linearGradient id="paint42_linear_4701_2324" x1="-2.04689" y1="-1.85748" x2="4.06513" y2="-3.10528" gradientUnits="userSpaceOnUse">
<stop stop-color="#00C2FF"/>
<stop offset="1" stop-color="#FF29C3"/>
</linearGradient>
<linearGradient id="paint43_linear_4701_2324" x1="-2.04689" y1="-1.85748" x2="4.06513" y2="-3.10528" gradientUnits="userSpaceOnUse">
<stop stop-color="#00C2FF"/>
<stop offset="1" stop-color="#FF29C3"/>
</linearGradient>
<linearGradient id="paint44_linear_4701_2324" x1="-2.04689" y1="-1.85748" x2="4.06513" y2="-3.10528" gradientUnits="userSpaceOnUse">
<stop stop-color="#00C2FF"/>
<stop offset="1" stop-color="#FF29C3"/>
</linearGradient>
<linearGradient id="paint45_linear_4701_2324" x1="-2.04689" y1="-1.85748" x2="4.06513" y2="-3.10528" gradientUnits="userSpaceOnUse">
<stop stop-color="#00C2FF"/>
<stop offset="1" stop-color="#FF29C3"/>
</linearGradient>
<linearGradient id="paint46_linear_4701_2324" x1="-2.04689" y1="-1.85748" x2="4.06513" y2="-3.10528" gradientUnits="userSpaceOnUse">
<stop stop-color="#00C2FF"/>
<stop offset="1" stop-color="#FF29C3"/>
</linearGradient>
<linearGradient id="paint47_linear_4701_2324" x1="-2.04689" y1="-1.85748" x2="4.06513" y2="-3.10528" gradientUnits="userSpaceOnUse">
<stop stop-color="#00C2FF"/>
<stop offset="1" stop-color="#FF29C3"/>
</linearGradient>
</defs>
</svg>
