<svg width="297" height="52" viewBox="0 0 297 52" fill="none" xmlns="http://www.w3.org/2000/svg">
<path d="M8 52H274.5L297 39.9688V8H278V10.75H253V8H28.5L8 20.375V52Z" fill="#735AA9"/>
<path d="M292 1H271V3.75H248V1H22.2217L21.9834 1.14355L1.4834 13.5186L1 13.8105V47H268.751L268.972 46.8818L291.472 34.8506L292 34.5684V1Z" fill="url(#paint0_linear_4326_732)" stroke="url(#paint1_linear_4326_732)" stroke-width="2"/>
<path d="M78.052 18.083C78.7433 18.083 79.3497 18.2303 79.871 18.525C80.4037 18.8083 80.8117 19.2107 81.095 19.732C81.3897 20.2533 81.537 20.854 81.537 21.534C81.537 22.214 81.3897 22.809 81.095 23.319C80.8003 23.829 80.381 24.2257 79.837 24.509C79.3043 24.7923 78.6867 24.934 77.984 24.934H74.992C74.9467 24.934 74.924 24.9567 74.924 25.002V29.83C74.924 29.9433 74.8673 30 74.754 30H73.462C73.3487 30 73.292 29.9433 73.292 29.83V18.253C73.292 18.1397 73.3487 18.083 73.462 18.083H78.052ZM77.831 23.608C78.4543 23.608 78.953 23.421 79.327 23.047C79.7123 22.673 79.905 22.18 79.905 21.568C79.905 20.9447 79.7123 20.446 79.327 20.072C78.953 19.6867 78.4543 19.494 77.831 19.494H74.992C74.9467 19.494 74.924 19.5167 74.924 19.562V23.54C74.924 23.5853 74.9467 23.608 74.992 23.608H77.831ZM87.0581 21.262C87.4208 21.262 87.7495 21.3357 88.0441 21.483C88.1235 21.517 88.1518 21.585 88.1291 21.687L87.8571 22.962C87.8458 23.064 87.7778 23.098 87.6531 23.064C87.4605 22.9847 87.2338 22.945 86.9731 22.945L86.7351 22.962C86.2025 22.9847 85.7605 23.1717 85.4091 23.523C85.0691 23.863 84.8991 24.3107 84.8991 24.866V29.83C84.8991 29.9433 84.8425 30 84.7291 30H83.4371C83.3238 30 83.2671 29.9433 83.2671 29.83V21.517C83.2671 21.4037 83.3238 21.347 83.4371 21.347H84.7291C84.8425 21.347 84.8991 21.4037 84.8991 21.517V22.418C84.8991 22.452 84.9048 22.4747 84.9161 22.486C84.9388 22.486 84.9558 22.4747 84.9671 22.452C85.4771 21.6587 86.1741 21.262 87.0581 21.262ZM92.9789 30.136C92.1403 30.136 91.4093 29.9263 90.7859 29.507C90.1626 29.0763 89.7263 28.4813 89.4769 27.722C89.2729 27.11 89.1709 26.4187 89.1709 25.648C89.1709 24.8433 89.2673 24.1633 89.4599 23.608C89.7093 22.86 90.1456 22.2763 90.7689 21.857C91.3923 21.4263 92.1346 21.211 92.9959 21.211C93.8119 21.211 94.5203 21.4263 95.1209 21.857C95.7329 22.2763 96.1693 22.8543 96.4299 23.591C96.6339 24.169 96.7359 24.849 96.7359 25.631C96.7359 26.4243 96.6339 27.1213 96.4299 27.722C96.1806 28.4813 95.7499 29.0763 95.1379 29.507C94.5259 29.9263 93.8063 30.136 92.9789 30.136ZM92.9789 28.725C93.4323 28.725 93.8289 28.6003 94.1689 28.351C94.5089 28.0903 94.7526 27.7277 94.8999 27.263C95.0246 26.8323 95.0869 26.2997 95.0869 25.665C95.0869 25.0303 95.0303 24.5033 94.9169 24.084C94.7696 23.6193 94.5259 23.2623 94.1859 23.013C93.8459 22.7523 93.4323 22.622 92.9449 22.622C92.4803 22.622 92.0779 22.7523 91.7379 23.013C91.3979 23.2623 91.1543 23.6193 91.0069 24.084C90.8823 24.4807 90.8199 25.0077 90.8199 25.665C90.8199 26.3223 90.8823 26.855 91.0069 27.263C91.1429 27.7277 91.3809 28.0903 91.7209 28.351C92.0723 28.6003 92.4916 28.725 92.9789 28.725ZM102.99 22.52C102.99 22.6333 102.934 22.69 102.82 22.69H100.984C100.939 22.69 100.916 22.7127 100.916 22.758V27.263C100.916 27.739 101.024 28.0847 101.239 28.3C101.455 28.504 101.789 28.606 102.242 28.606H102.735C102.849 28.606 102.905 28.6627 102.905 28.776V29.83C102.905 29.9433 102.849 30 102.735 30C102.373 30.0227 102.112 30.034 101.953 30.034C101.092 30.034 100.44 29.881 99.9982 29.575C99.5675 29.2577 99.3522 28.6797 99.3522 27.841V22.758C99.3522 22.7127 99.3295 22.69 99.2842 22.69H98.2472C98.1339 22.69 98.0772 22.6333 98.0772 22.52V21.517C98.0772 21.4037 98.1339 21.347 98.2472 21.347H99.2842C99.3295 21.347 99.3522 21.3243 99.3522 21.279V19.273C99.3522 19.1597 99.4089 19.103 99.5222 19.103H100.746C100.86 19.103 100.916 19.1597 100.916 19.273V21.279C100.916 21.3243 100.939 21.347 100.984 21.347H102.82C102.934 21.347 102.99 21.4037 102.99 21.517V22.52ZM111.803 24.594C111.849 25.0587 111.866 25.58 111.854 26.158C111.854 26.2713 111.798 26.328 111.684 26.328H106.261C106.216 26.328 106.193 26.3507 106.193 26.396C106.193 26.7813 106.227 27.076 106.295 27.28C106.42 27.7333 106.669 28.0903 107.043 28.351C107.429 28.6003 107.91 28.725 108.488 28.725C109.327 28.725 109.973 28.3793 110.426 27.688C110.483 27.5747 110.557 27.5577 110.647 27.637L111.616 28.283C111.696 28.351 111.713 28.4247 111.667 28.504C111.35 29.014 110.897 29.4163 110.307 29.711C109.729 30.0057 109.072 30.153 108.335 30.153C107.508 30.153 106.811 29.9717 106.244 29.609C105.678 29.2463 105.253 28.7307 104.969 28.062C104.697 27.3933 104.561 26.583 104.561 25.631C104.561 24.8037 104.624 24.1747 104.748 23.744C104.952 22.962 105.36 22.3443 105.972 21.891C106.584 21.4377 107.327 21.211 108.199 21.211C109.344 21.211 110.2 21.5 110.766 22.078C111.333 22.6447 111.679 23.4833 111.803 24.594ZM108.199 22.622C107.712 22.622 107.31 22.7467 106.992 22.996C106.675 23.234 106.46 23.557 106.346 23.965C106.267 24.2143 106.216 24.5317 106.193 24.917C106.193 24.9623 106.216 24.985 106.261 24.985H110.154C110.2 24.985 110.222 24.9623 110.222 24.917C110.2 24.543 110.166 24.2653 110.12 24.084C110.007 23.642 109.78 23.2907 109.44 23.03C109.112 22.758 108.698 22.622 108.199 22.622ZM117.382 30.136C116.52 30.136 115.784 29.9207 115.172 29.49C114.56 29.048 114.14 28.453 113.914 27.705C113.744 27.1837 113.659 26.498 113.659 25.648C113.659 24.866 113.744 24.1803 113.914 23.591C114.14 22.8657 114.56 22.2877 115.172 21.857C115.795 21.4263 116.532 21.211 117.382 21.211C118.232 21.211 118.974 21.4263 119.609 21.857C120.243 22.2877 120.657 22.8317 120.85 23.489C120.918 23.6703 120.963 23.8573 120.986 24.05C120.986 24.1407 120.935 24.1973 120.833 24.22L119.558 24.407H119.524C119.444 24.407 119.388 24.356 119.354 24.254L119.303 23.982C119.212 23.5967 118.991 23.2737 118.64 23.013C118.288 22.7523 117.863 22.622 117.365 22.622C116.877 22.622 116.464 22.7523 116.124 23.013C115.784 23.2737 115.563 23.6193 115.461 24.05C115.359 24.458 115.308 24.9963 115.308 25.665C115.308 26.3223 115.359 26.855 115.461 27.263C115.574 27.7163 115.795 28.0733 116.124 28.334C116.464 28.5947 116.877 28.725 117.365 28.725C117.863 28.725 118.288 28.5947 118.64 28.334C119.002 28.0733 119.229 27.7333 119.32 27.314C119.331 27.3027 119.331 27.2913 119.32 27.28C119.32 27.2573 119.325 27.2403 119.337 27.229V27.161C119.371 27.0703 119.433 27.0363 119.524 27.059L120.799 27.263C120.889 27.2857 120.935 27.331 120.935 27.399V27.467C120.935 27.569 120.906 27.6937 120.85 27.841C120.657 28.5323 120.243 29.0877 119.609 29.507C118.974 29.9263 118.232 30.136 117.382 30.136ZM127.129 22.52C127.129 22.6333 127.072 22.69 126.959 22.69H125.123C125.078 22.69 125.055 22.7127 125.055 22.758V27.263C125.055 27.739 125.163 28.0847 125.378 28.3C125.593 28.504 125.928 28.606 126.381 28.606H126.874C126.987 28.606 127.044 28.6627 127.044 28.776V29.83C127.044 29.9433 126.987 30 126.874 30C126.511 30.0227 126.251 30.034 126.092 30.034C125.231 30.034 124.579 29.881 124.137 29.575C123.706 29.2577 123.491 28.6797 123.491 27.841V22.758C123.491 22.7127 123.468 22.69 123.423 22.69H122.386C122.273 22.69 122.216 22.6333 122.216 22.52V21.517C122.216 21.4037 122.273 21.347 122.386 21.347H123.423C123.468 21.347 123.491 21.3243 123.491 21.279V19.273C123.491 19.1597 123.548 19.103 123.661 19.103H124.885C124.998 19.103 125.055 19.1597 125.055 19.273V21.279C125.055 21.3243 125.078 21.347 125.123 21.347H126.959C127.072 21.347 127.129 21.4037 127.129 21.517V22.52ZM140.446 18.202C140.502 18.134 140.57 18.1 140.65 18.1H141.942C142.055 18.1 142.112 18.1567 142.112 18.27V29.83C142.112 29.9433 142.055 30 141.942 30H140.65C140.536 30 140.48 29.9433 140.48 29.83V21.126C140.48 21.092 140.468 21.0693 140.446 21.058C140.423 21.0467 140.406 21.058 140.395 21.092L137.964 24.798C137.918 24.866 137.85 24.9 137.76 24.9H137.114C137.034 24.9 136.966 24.866 136.91 24.798L134.462 21.126C134.45 21.092 134.433 21.0807 134.411 21.092C134.388 21.1033 134.377 21.126 134.377 21.16V29.83C134.377 29.9433 134.32 30 134.207 30H132.915C132.801 30 132.745 29.9433 132.745 29.83V18.27C132.745 18.1567 132.801 18.1 132.915 18.1H134.207C134.297 18.1 134.365 18.134 134.411 18.202L137.386 22.656C137.397 22.6673 137.414 22.673 137.437 22.673C137.459 22.673 137.476 22.6673 137.488 22.656L140.446 18.202ZM144.438 33.383C144.359 33.383 144.319 33.3263 144.319 33.213V32.21C144.319 32.0967 144.376 32.04 144.489 32.04H144.523C144.976 32.0287 145.333 31.972 145.594 31.87C145.855 31.768 146.07 31.5753 146.24 31.292C146.41 31.02 146.574 30.6063 146.733 30.051C146.744 30.0397 146.744 30.0227 146.733 30C146.733 29.966 146.733 29.949 146.733 29.949L143.894 21.534L143.877 21.466C143.877 21.3867 143.928 21.347 144.03 21.347H145.407C145.509 21.347 145.577 21.3923 145.611 21.483L147.532 27.892C147.543 27.9147 147.56 27.926 147.583 27.926C147.606 27.926 147.623 27.9147 147.634 27.892L149.538 21.483C149.572 21.3923 149.64 21.347 149.742 21.347H151.085C151.21 21.347 151.255 21.4093 151.221 21.534L148.127 30.595C147.866 31.377 147.606 31.955 147.345 32.329C147.084 32.7143 146.744 32.9863 146.325 33.145C145.906 33.3037 145.316 33.383 144.557 33.383H144.438ZM161.043 18.083C161.735 18.083 162.341 18.2303 162.862 18.525C163.395 18.8083 163.803 19.2107 164.086 19.732C164.381 20.2533 164.528 20.854 164.528 21.534C164.528 22.214 164.381 22.809 164.086 23.319C163.792 23.829 163.372 24.2257 162.828 24.509C162.296 24.7923 161.678 24.934 160.975 24.934H157.983C157.938 24.934 157.915 24.9567 157.915 25.002V29.83C157.915 29.9433 157.859 30 157.745 30H156.453C156.34 30 156.283 29.9433 156.283 29.83V18.253C156.283 18.1397 156.34 18.083 156.453 18.083H161.043ZM160.822 23.608C161.446 23.608 161.944 23.421 162.318 23.047C162.704 22.673 162.896 22.18 162.896 21.568C162.896 20.9447 162.704 20.446 162.318 20.072C161.944 19.6867 161.446 19.494 160.822 19.494H157.983C157.938 19.494 157.915 19.5167 157.915 19.562V23.54C157.915 23.5853 157.938 23.608 157.983 23.608H160.822ZM170.049 21.262C170.412 21.262 170.741 21.3357 171.035 21.483C171.115 21.517 171.143 21.585 171.12 21.687L170.848 22.962C170.837 23.064 170.769 23.098 170.644 23.064C170.452 22.9847 170.225 22.945 169.964 22.945L169.726 22.962C169.194 22.9847 168.752 23.1717 168.4 23.523C168.06 23.863 167.89 24.3107 167.89 24.866V29.83C167.89 29.9433 167.834 30 167.72 30H166.428C166.315 30 166.258 29.9433 166.258 29.83V21.517C166.258 21.4037 166.315 21.347 166.428 21.347H167.72C167.834 21.347 167.89 21.4037 167.89 21.517V22.418C167.89 22.452 167.896 22.4747 167.907 22.486C167.93 22.486 167.947 22.4747 167.958 22.452C168.468 21.6587 169.165 21.262 170.049 21.262ZM175.97 30.136C175.131 30.136 174.4 29.9263 173.777 29.507C173.154 29.0763 172.717 28.4813 172.468 27.722C172.264 27.11 172.162 26.4187 172.162 25.648C172.162 24.8433 172.258 24.1633 172.451 23.608C172.7 22.86 173.137 22.2763 173.76 21.857C174.383 21.4263 175.126 21.211 175.987 21.211C176.803 21.211 177.511 21.4263 178.112 21.857C178.724 22.2763 179.16 22.8543 179.421 23.591C179.625 24.169 179.727 24.849 179.727 25.631C179.727 26.4243 179.625 27.1213 179.421 27.722C179.172 28.4813 178.741 29.0763 178.129 29.507C177.517 29.9263 176.797 30.136 175.97 30.136ZM175.97 28.725C176.423 28.725 176.82 28.6003 177.16 28.351C177.5 28.0903 177.744 27.7277 177.891 27.263C178.016 26.8323 178.078 26.2997 178.078 25.665C178.078 25.0303 178.021 24.5033 177.908 24.084C177.761 23.6193 177.517 23.2623 177.177 23.013C176.837 22.7523 176.423 22.622 175.936 22.622C175.471 22.622 175.069 22.7523 174.729 23.013C174.389 23.2623 174.145 23.6193 173.998 24.084C173.873 24.4807 173.811 25.0077 173.811 25.665C173.811 26.3223 173.873 26.855 173.998 27.263C174.134 27.7277 174.372 28.0903 174.712 28.351C175.063 28.6003 175.483 28.725 175.97 28.725ZM185.981 22.52C185.981 22.6333 185.925 22.69 185.811 22.69H183.975C183.93 22.69 183.907 22.7127 183.907 22.758V27.263C183.907 27.739 184.015 28.0847 184.23 28.3C184.446 28.504 184.78 28.606 185.233 28.606H185.726C185.84 28.606 185.896 28.6627 185.896 28.776V29.83C185.896 29.9433 185.84 30 185.726 30C185.364 30.0227 185.103 30.034 184.944 30.034C184.083 30.034 183.431 29.881 182.989 29.575C182.559 29.2577 182.343 28.6797 182.343 27.841V22.758C182.343 22.7127 182.321 22.69 182.275 22.69H181.238C181.125 22.69 181.068 22.6333 181.068 22.52V21.517C181.068 21.4037 181.125 21.347 181.238 21.347H182.275C182.321 21.347 182.343 21.3243 182.343 21.279V19.273C182.343 19.1597 182.4 19.103 182.513 19.103H183.737C183.851 19.103 183.907 19.1597 183.907 19.273V21.279C183.907 21.3243 183.93 21.347 183.975 21.347H185.811C185.925 21.347 185.981 21.4037 185.981 21.517V22.52ZM191.327 30.136C190.488 30.136 189.757 29.9263 189.134 29.507C188.51 29.0763 188.074 28.4813 187.825 27.722C187.621 27.11 187.519 26.4187 187.519 25.648C187.519 24.8433 187.615 24.1633 187.808 23.608C188.057 22.86 188.493 22.2763 189.117 21.857C189.74 21.4263 190.482 21.211 191.344 21.211C192.16 21.211 192.868 21.4263 193.469 21.857C194.081 22.2763 194.517 22.8543 194.778 23.591C194.982 24.169 195.084 24.849 195.084 25.631C195.084 26.4243 194.982 27.1213 194.778 27.722C194.528 28.4813 194.098 29.0763 193.486 29.507C192.874 29.9263 192.154 30.136 191.327 30.136ZM191.327 28.725C191.78 28.725 192.177 28.6003 192.517 28.351C192.857 28.0903 193.1 27.7277 193.248 27.263C193.372 26.8323 193.435 26.2997 193.435 25.665C193.435 25.0303 193.378 24.5033 193.265 24.084C193.117 23.6193 192.874 23.2623 192.534 23.013C192.194 22.7523 191.78 22.622 191.293 22.622C190.828 22.622 190.426 22.7523 190.086 23.013C189.746 23.2623 189.502 23.6193 189.355 24.084C189.23 24.4807 189.168 25.0077 189.168 25.665C189.168 26.3223 189.23 26.855 189.355 27.263C189.491 27.7277 189.729 28.0903 190.069 28.351C190.42 28.6003 190.839 28.725 191.327 28.725ZM200.688 30.136C199.827 30.136 199.09 29.9207 198.478 29.49C197.866 29.048 197.447 28.453 197.22 27.705C197.05 27.1837 196.965 26.498 196.965 25.648C196.965 24.866 197.05 24.1803 197.22 23.591C197.447 22.8657 197.866 22.2877 198.478 21.857C199.102 21.4263 199.838 21.211 200.688 21.211C201.538 21.211 202.281 21.4263 202.915 21.857C203.55 22.2877 203.964 22.8317 204.156 23.489C204.224 23.6703 204.27 23.8573 204.292 24.05C204.292 24.1407 204.241 24.1973 204.139 24.22L202.864 24.407H202.83C202.751 24.407 202.694 24.356 202.66 24.254L202.609 23.982C202.519 23.5967 202.298 23.2737 201.946 23.013C201.595 22.7523 201.17 22.622 200.671 22.622C200.184 22.622 199.77 22.7523 199.43 23.013C199.09 23.2737 198.869 23.6193 198.767 24.05C198.665 24.458 198.614 24.9963 198.614 25.665C198.614 26.3223 198.665 26.855 198.767 27.263C198.881 27.7163 199.102 28.0733 199.43 28.334C199.77 28.5947 200.184 28.725 200.671 28.725C201.17 28.725 201.595 28.5947 201.946 28.334C202.309 28.0733 202.536 27.7333 202.626 27.314C202.638 27.3027 202.638 27.2913 202.626 27.28C202.626 27.2573 202.632 27.2403 202.643 27.229V27.161C202.677 27.0703 202.74 27.0363 202.83 27.059L204.105 27.263C204.196 27.2857 204.241 27.331 204.241 27.399V27.467C204.241 27.569 204.213 27.6937 204.156 27.841C203.964 28.5323 203.55 29.0877 202.915 29.507C202.281 29.9263 201.538 30.136 200.688 30.136ZM209.638 30.136C208.799 30.136 208.068 29.9263 207.445 29.507C206.822 29.0763 206.385 28.4813 206.136 27.722C205.932 27.11 205.83 26.4187 205.83 25.648C205.83 24.8433 205.926 24.1633 206.119 23.608C206.368 22.86 206.805 22.2763 207.428 21.857C208.051 21.4263 208.794 21.211 209.655 21.211C210.471 21.211 211.179 21.4263 211.78 21.857C212.392 22.2763 212.828 22.8543 213.089 23.591C213.293 24.169 213.395 24.849 213.395 25.631C213.395 26.4243 213.293 27.1213 213.089 27.722C212.84 28.4813 212.409 29.0763 211.797 29.507C211.185 29.9263 210.465 30.136 209.638 30.136ZM209.638 28.725C210.091 28.725 210.488 28.6003 210.828 28.351C211.168 28.0903 211.412 27.7277 211.559 27.263C211.684 26.8323 211.746 26.2997 211.746 25.665C211.746 25.0303 211.689 24.5033 211.576 24.084C211.429 23.6193 211.185 23.2623 210.845 23.013C210.505 22.7523 210.091 22.622 209.604 22.622C209.139 22.622 208.737 22.7523 208.397 23.013C208.057 23.2623 207.813 23.6193 207.666 24.084C207.541 24.4807 207.479 25.0077 207.479 25.665C207.479 26.3223 207.541 26.855 207.666 27.263C207.802 27.7277 208.04 28.0903 208.38 28.351C208.731 28.6003 209.151 28.725 209.638 28.725ZM215.702 30C215.588 30 215.532 29.9433 215.532 29.83V18.27C215.532 18.1567 215.588 18.1 215.702 18.1H216.994C217.107 18.1 217.164 18.1567 217.164 18.27V29.83C217.164 29.9433 217.107 30 216.994 30H215.702Z" fill="#0D0128"/>
<defs>
<linearGradient id="paint0_linear_4326_732" x1="291" y1="24" x2="2" y2="24" gradientUnits="userSpaceOnUse">
<stop stop-color="#AA83FF"/>
<stop offset="1" stop-color="#D0FFCC"/>
</linearGradient>
<linearGradient id="paint1_linear_4326_732" x1="291" y1="24" x2="2" y2="24" gradientUnits="userSpaceOnUse">
<stop stop-color="#C7ADFF"/>
<stop offset="1" stop-color="#776899" stop-opacity="0"/>
</linearGradient>
</defs>
</svg>
