<svg width="340" height="237" viewBox="0 0 340 237" fill="none" xmlns="http://www.w3.org/2000/svg">
<mask id="mask0_4601_480" style="mask-type:alpha" maskUnits="userSpaceOnUse" x="21" y="6" width="284" height="226">
<path d="M21 6H305V232H21V6Z" fill="#18181B"/>
</mask>
<g mask="url(#mask0_4601_480)">
<path opacity="0.2" d="M172.486 83.0781L65 150.392V270.741L172.486 330.257L282 266.662V150.392L172.486 83.0781Z" fill="#282828"/>
<path d="M62.9225 140.723L52.8125 147.018V158.272L62.9225 163.838L73.2233 157.891V147.018L62.9225 140.723Z" fill="black"/>
<path d="M62.9218 140.723L52.9062 147.411L62.9218 153.694L73.1263 147.411L62.9218 140.723Z" fill="#121213"/>
<path d="M62.9053 138.738L51 146.115V159.303L62.9053 165.825L75.0352 158.856V146.115L62.9053 138.738Z" stroke="url(#paint0_linear_4601_480)" stroke-width="0.38151"/>
<g filter="url(#filter0_i_4601_480)">
<circle cx="62.9251" cy="152.361" r="2.47982" fill="#19162C"/>
</g>
<path d="M283.923 140.722L273.812 147.017V158.272L283.923 163.838L294.223 157.89V147.017L283.923 140.722Z" fill="black"/>
<path d="M283.922 140.722L273.906 147.411L283.922 153.694L294.126 147.411L283.922 140.722Z" fill="#121213"/>
<path d="M283.905 138.738L272 146.114V159.303L283.905 165.825L296.035 158.856V146.114L283.905 138.738Z" stroke="url(#paint1_linear_4601_480)" stroke-width="0.38151"/>
<g filter="url(#filter1_i_4601_480)">
<circle cx="283.925" cy="152.36" r="2.47982" fill="#19162C"/>
</g>
<rect x="113" y="40.4493" width="122" height="177.19" rx="4.35714" fill="#282828"/>
<g filter="url(#filter2_d_4601_480)">
<rect x="113" y="40.4493" width="122" height="177.19" rx="2" fill="url(#paint2_linear_4601_480)" shape-rendering="crispEdges"/>
<rect x="113.25" y="40.6993" width="121.5" height="176.69" rx="1.75" stroke="url(#paint3_linear_4601_480)" stroke-width="0.5" shape-rendering="crispEdges"/>
</g>
<rect x="131.453" y="162.832" width="80.7303" height="27.1081" rx="13.554" fill="black"/>
<rect x="126.07" y="159.545" width="91.4943" height="33.6797" rx="16.8399" stroke="url(#paint4_linear_4601_480)" stroke-width="0.5"/>
<g filter="url(#filter3_f_4601_480)">
<circle cx="173.276" cy="99.2707" r="39.9405" stroke="url(#paint5_linear_4601_480)" stroke-width="1.1349"/>
</g>
<circle cx="173.276" cy="99.2707" r="39.9405" stroke="url(#paint6_linear_4601_480)" stroke-width="1.06393"/>
<g filter="url(#filter4_i_4601_480)">
<circle cx="173.271" cy="71.6753" r="5.08333" fill="black"/>
</g>
<path d="M173.144 84.2365L160.633 92.4254V107.066L173.144 114.306L185.892 106.57V92.4254L173.144 84.2365Z" fill="#C1C1C1"/>
<path d="M173.106 84.3165L160.453 92.7663L173.106 100.704L185.998 92.7663L173.106 84.3165Z" fill="#989898"/>
<g filter="url(#filter5_f_4601_480)">
<path d="M173.067 72.4025L150.766 87.0369V113.202L173.067 126.141L195.789 112.315V87.0369L173.067 72.4025Z" stroke="url(#paint7_linear_4601_480)" stroke-width="1.1349"/>
</g>
<path d="M173.067 72.4025L150.766 87.0369V113.202L173.067 126.141L195.789 112.315V87.0369L173.067 72.4025Z" stroke="url(#paint8_linear_4601_480)" stroke-width="1.1349"/>
<g filter="url(#filter6_i_4601_480)">
<circle cx="173.271" cy="125.414" r="5.08333" fill="black"/>
</g>
</g>
<g filter="url(#filter7_d_4601_480)">
<rect x="39.75" y="56.3438" width="63.2039" height="34.7621" rx="2" fill="url(#paint9_linear_4601_480)" shape-rendering="crispEdges"/>
<rect x="40" y="56.5938" width="62.7039" height="34.2621" rx="1.75" stroke="url(#paint10_linear_4601_480)" stroke-width="0.5" shape-rendering="crispEdges"/>
</g>
<path d="M60.8289 78.7227C60.7509 78.7227 60.7033 78.688 60.6859 78.6187L58.2419 69.7657L58.2289 69.7267C58.2289 69.6573 58.2723 69.6227 58.3589 69.6227H59.4119C59.4899 69.6227 59.5376 69.6617 59.5549 69.7397L61.2579 76.2137C61.2666 76.231 61.2753 76.2397 61.2839 76.2397C61.3013 76.2397 61.3143 76.231 61.3229 76.2137L62.9349 69.7397C62.9523 69.6617 62.9999 69.6227 63.0779 69.6227H64.1049C64.1829 69.6227 64.2306 69.6617 64.2479 69.7397L65.9509 76.2267C65.9596 76.244 65.9683 76.2527 65.9769 76.2527C65.9856 76.2527 65.9943 76.244 66.0029 76.2267L67.7189 69.7397C67.7363 69.6617 67.7839 69.6227 67.8619 69.6227H68.8499C68.8933 69.6227 68.9236 69.6357 68.9409 69.6617C68.9669 69.6877 68.9756 69.7223 68.9669 69.7657L66.6139 78.6057C66.5966 78.6837 66.5489 78.7227 66.4709 78.7227H65.4699C65.3919 78.7227 65.3443 78.6837 65.3269 78.6057L63.6239 71.8977C63.6153 71.8717 63.6066 71.8587 63.5979 71.8587C63.5893 71.8587 63.5806 71.8717 63.5719 71.8977L61.9209 78.6057C61.9123 78.6837 61.8646 78.7227 61.7779 78.7227H60.8289ZM76.1584 70.5717C76.1584 70.6583 76.115 70.7017 76.0284 70.7017H71.4134C71.3787 70.7017 71.3614 70.719 71.3614 70.7537V73.5487C71.3614 73.5833 71.3787 73.6007 71.4134 73.6007H74.5854C74.672 73.6007 74.7154 73.644 74.7154 73.7307V74.5497C74.7154 74.6363 74.672 74.6797 74.5854 74.6797H71.4134C71.3787 74.6797 71.3614 74.697 71.3614 74.7317V77.5917C71.3614 77.6263 71.3787 77.6437 71.4134 77.6437H76.0284C76.115 77.6437 76.1584 77.687 76.1584 77.7737V78.5927C76.1584 78.6793 76.115 78.7227 76.0284 78.7227H70.2434C70.1567 78.7227 70.1134 78.6793 70.1134 78.5927V69.7527C70.1134 69.666 70.1567 69.6227 70.2434 69.6227H76.0284C76.115 69.6227 76.1584 69.666 76.1584 69.7527V70.5717ZM82.6019 73.9777C82.5586 74.0037 82.5586 74.0297 82.6019 74.0557C83.5206 74.4457 83.9799 75.1693 83.9799 76.2267C83.9799 77.024 83.7156 77.6393 83.1869 78.0727C82.6582 78.506 81.9692 78.7227 81.1199 78.7227H77.8829C77.7962 78.7227 77.7529 78.6793 77.7529 78.5927V69.7527C77.7529 69.666 77.7962 69.6227 77.8829 69.6227H81.0159C81.9172 69.6227 82.6149 69.8307 83.1089 70.2467C83.6116 70.654 83.8629 71.252 83.8629 72.0407C83.8629 72.9767 83.4426 73.6223 82.6019 73.9777ZM79.0529 70.7017C79.0182 70.7017 79.0009 70.719 79.0009 70.7537V73.4967C79.0009 73.5313 79.0182 73.5487 79.0529 73.5487H81.0159C81.5186 73.5487 81.9129 73.423 82.1989 73.1717C82.4936 72.9203 82.6409 72.578 82.6409 72.1447C82.6409 71.7027 82.4936 71.3517 82.1989 71.0917C81.9129 70.8317 81.5186 70.7017 81.0159 70.7017H79.0529ZM81.1199 77.6307C81.6139 77.6307 82.0039 77.4963 82.2899 77.2277C82.5846 76.9503 82.7319 76.5777 82.7319 76.1097C82.7319 75.6417 82.5846 75.2733 82.2899 75.0047C81.9952 74.7273 81.5922 74.5887 81.0809 74.5887H79.0529C79.0182 74.5887 79.0009 74.606 79.0009 74.6407V77.5787C79.0009 77.6133 79.0182 77.6307 79.0529 77.6307H81.1199Z" fill="white"/>
<g filter="url(#filter8_d_4601_480)">
<rect x="216.211" y="22.3438" width="63.2039" height="34.7621" rx="2" fill="url(#paint11_linear_4601_480)" shape-rendering="crispEdges"/>
<rect x="216.461" y="22.5938" width="62.7039" height="34.2621" rx="1.75" stroke="url(#paint12_linear_4601_480)" stroke-width="0.5" shape-rendering="crispEdges"/>
</g>
<path d="M233.066 35.7007C233.109 35.6487 233.161 35.6227 233.222 35.6227H234.21C234.297 35.6227 234.34 35.666 234.34 35.7527V44.5927C234.34 44.6793 234.297 44.7227 234.21 44.7227H233.222C233.135 44.7227 233.092 44.6793 233.092 44.5927V37.9367C233.092 37.9107 233.083 37.8933 233.066 37.8847C233.049 37.876 233.036 37.8847 233.027 37.9107L231.168 40.7447C231.133 40.7967 231.081 40.8227 231.012 40.8227H230.518C230.457 40.8227 230.405 40.7967 230.362 40.7447L228.49 37.9367C228.481 37.9107 228.468 37.902 228.451 37.9107C228.434 37.9193 228.425 37.9367 228.425 37.9627V44.5927C228.425 44.6793 228.382 44.7227 228.295 44.7227H227.307C227.22 44.7227 227.177 44.6793 227.177 44.5927V35.7527C227.177 35.666 227.22 35.6227 227.307 35.6227H228.295C228.364 35.6227 228.416 35.6487 228.451 35.7007L230.726 39.1067C230.735 39.1153 230.748 39.1197 230.765 39.1197C230.782 39.1197 230.795 39.1153 230.804 39.1067L233.066 35.7007ZM239.304 44.8397C238.671 44.8397 238.112 44.7097 237.627 44.4497C237.142 44.1897 236.765 43.8257 236.496 43.3577C236.227 42.881 236.093 42.335 236.093 41.7197V38.6257C236.093 38.0103 236.227 37.4687 236.496 37.0007C236.765 36.5327 237.142 36.1687 237.627 35.9087C238.112 35.6487 238.671 35.5187 239.304 35.5187C239.945 35.5187 240.509 35.6487 240.994 35.9087C241.479 36.1687 241.856 36.5327 242.125 37.0007C242.394 37.4687 242.528 38.0103 242.528 38.6257V41.7197C242.528 42.335 242.394 42.881 242.125 43.3577C241.856 43.8257 241.479 44.1897 240.994 44.4497C240.509 44.7097 239.945 44.8397 239.304 44.8397ZM239.304 43.7607C239.893 43.7607 240.37 43.5787 240.734 43.2147C241.098 42.8507 241.28 42.3697 241.28 41.7717V38.6127C241.28 38.006 241.098 37.5207 240.734 37.1567C240.37 36.784 239.893 36.5977 239.304 36.5977C238.715 36.5977 238.238 36.784 237.874 37.1567C237.519 37.5207 237.341 38.006 237.341 38.6127V41.7717C237.341 42.3697 237.519 42.8507 237.874 43.2147C238.238 43.5787 238.715 43.7607 239.304 43.7607ZM249.146 39.9777C249.103 40.0037 249.103 40.0297 249.146 40.0557C250.065 40.4457 250.524 41.1693 250.524 42.2267C250.524 43.024 250.26 43.6393 249.731 44.0727C249.202 44.506 248.513 44.7227 247.664 44.7227H244.427C244.34 44.7227 244.297 44.6793 244.297 44.5927V35.7527C244.297 35.666 244.34 35.6227 244.427 35.6227H247.56C248.461 35.6227 249.159 35.8307 249.653 36.2467C250.156 36.654 250.407 37.252 250.407 38.0407C250.407 38.9767 249.987 39.6223 249.146 39.9777ZM245.597 36.7017C245.562 36.7017 245.545 36.719 245.545 36.7537V39.4967C245.545 39.5313 245.562 39.5487 245.597 39.5487H247.56C248.063 39.5487 248.457 39.423 248.743 39.1717C249.038 38.9203 249.185 38.578 249.185 38.1447C249.185 37.7027 249.038 37.3517 248.743 37.0917C248.457 36.8317 248.063 36.7017 247.56 36.7017H245.597ZM247.664 43.6307C248.158 43.6307 248.548 43.4963 248.834 43.2277C249.129 42.9503 249.276 42.5777 249.276 42.1097C249.276 41.6417 249.129 41.2733 248.834 41.0047C248.539 40.7273 248.136 40.5887 247.625 40.5887H245.597C245.562 40.5887 245.545 40.606 245.545 40.6407V43.5787C245.545 43.6133 245.562 43.6307 245.597 43.6307H247.664ZM252.409 44.7227C252.323 44.7227 252.279 44.6793 252.279 44.5927V35.7527C252.279 35.666 252.323 35.6227 252.409 35.6227H253.397C253.484 35.6227 253.527 35.666 253.527 35.7527V44.5927C253.527 44.6793 253.484 44.7227 253.397 44.7227H252.409ZM255.656 44.7227C255.57 44.7227 255.526 44.6793 255.526 44.5927V35.7527C255.526 35.666 255.57 35.6227 255.656 35.6227H256.644C256.731 35.6227 256.774 35.666 256.774 35.7527V43.5917C256.774 43.6263 256.792 43.6437 256.826 43.6437H261.311C261.398 43.6437 261.441 43.687 261.441 43.7737V44.5927C261.441 44.6793 261.398 44.7227 261.311 44.7227H255.656ZM268.855 36.5717C268.855 36.6583 268.812 36.7017 268.725 36.7017H264.11C264.076 36.7017 264.058 36.719 264.058 36.7537V39.5487C264.058 39.5833 264.076 39.6007 264.11 39.6007H267.282C267.369 39.6007 267.412 39.644 267.412 39.7307V40.5497C267.412 40.6363 267.369 40.6797 267.282 40.6797H264.11C264.076 40.6797 264.058 40.697 264.058 40.7317V43.5917C264.058 43.6263 264.076 43.6437 264.11 43.6437H268.725C268.812 43.6437 268.855 43.687 268.855 43.7737V44.5927C268.855 44.6793 268.812 44.7227 268.725 44.7227H262.94C262.854 44.7227 262.81 44.6793 262.81 44.5927V35.7527C262.81 35.666 262.854 35.6227 262.94 35.6227H268.725C268.812 35.6227 268.855 35.666 268.855 35.7527V36.5717Z" fill="white"/>
<defs>
<filter id="filter0_i_4601_480" x="60.4453" y="149.881" width="4.96094" height="4.95964" filterUnits="userSpaceOnUse" color-interpolation-filters="sRGB">
<feFlood flood-opacity="0" result="BackgroundImageFix"/>
<feBlend mode="normal" in="SourceGraphic" in2="BackgroundImageFix" result="shape"/>
<feColorMatrix in="SourceAlpha" type="matrix" values="0 0 0 0 0 0 0 0 0 0 0 0 0 0 0 0 0 0 127 0" result="hardAlpha"/>
<feOffset dx="0.38151" dy="0.38151"/>
<feComposite in2="hardAlpha" operator="arithmetic" k2="-1" k3="1"/>
<feColorMatrix type="matrix" values="0 0 0 0 0.601638 0 0 0 0 0.601638 0 0 0 0 0.601638 0 0 0 0.25 0"/>
<feBlend mode="normal" in2="shape" result="effect1_innerShadow_4601_480"/>
</filter>
<filter id="filter1_i_4601_480" x="281.445" y="149.881" width="4.96094" height="4.95964" filterUnits="userSpaceOnUse" color-interpolation-filters="sRGB">
<feFlood flood-opacity="0" result="BackgroundImageFix"/>
<feBlend mode="normal" in="SourceGraphic" in2="BackgroundImageFix" result="shape"/>
<feColorMatrix in="SourceAlpha" type="matrix" values="0 0 0 0 0 0 0 0 0 0 0 0 0 0 0 0 0 0 127 0" result="hardAlpha"/>
<feOffset dx="0.38151" dy="0.38151"/>
<feComposite in2="hardAlpha" operator="arithmetic" k2="-1" k3="1"/>
<feColorMatrix type="matrix" values="0 0 0 0 0.601638 0 0 0 0 0.601638 0 0 0 0 0.601638 0 0 0 0.25 0"/>
<feBlend mode="normal" in2="shape" result="effect1_innerShadow_4601_480"/>
</filter>
<filter id="filter2_d_4601_480" x="91.5" y="18.9493" width="149" height="204.19" filterUnits="userSpaceOnUse" color-interpolation-filters="sRGB">
<feFlood flood-opacity="0" result="BackgroundImageFix"/>
<feColorMatrix in="SourceAlpha" type="matrix" values="0 0 0 0 0 0 0 0 0 0 0 0 0 0 0 0 0 0 127 0" result="hardAlpha"/>
<feOffset dx="-8" dy="-8"/>
<feGaussianBlur stdDeviation="6.75"/>
<feComposite in2="hardAlpha" operator="out"/>
<feColorMatrix type="matrix" values="0 0 0 0 0 0 0 0 0 0 0 0 0 0 0 0 0 0 0.25 0"/>
<feBlend mode="normal" in2="BackgroundImageFix" result="effect1_dropShadow_4601_480"/>
<feBlend mode="normal" in="SourceGraphic" in2="effect1_dropShadow_4601_480" result="shape"/>
</filter>
<filter id="filter3_f_4601_480" x="128.77" y="54.7628" width="89.0156" height="89.0158" filterUnits="userSpaceOnUse" color-interpolation-filters="sRGB">
<feFlood flood-opacity="0" result="BackgroundImageFix"/>
<feBlend mode="normal" in="SourceGraphic" in2="BackgroundImageFix" result="shape"/>
<feGaussianBlur stdDeviation="2" result="effect1_foregroundBlur_4601_480"/>
</filter>
<filter id="filter4_i_4601_480" x="168.188" y="66.5919" width="10.168" height="10.1667" filterUnits="userSpaceOnUse" color-interpolation-filters="sRGB">
<feFlood flood-opacity="0" result="BackgroundImageFix"/>
<feBlend mode="normal" in="SourceGraphic" in2="BackgroundImageFix" result="shape"/>
<feColorMatrix in="SourceAlpha" type="matrix" values="0 0 0 0 0 0 0 0 0 0 0 0 0 0 0 0 0 0 127 0" result="hardAlpha"/>
<feOffset dx="1.24771" dy="1.24771"/>
<feComposite in2="hardAlpha" operator="arithmetic" k2="-1" k3="1"/>
<feColorMatrix type="matrix" values="0 0 0 0 0.601638 0 0 0 0 0.601638 0 0 0 0 0.601638 0 0 0 0.25 0"/>
<feBlend mode="normal" in2="shape" result="effect1_innerShadow_4601_480"/>
</filter>
<filter id="filter5_f_4601_480" x="146.199" y="67.7256" width="54.1562" height="63.075" filterUnits="userSpaceOnUse" color-interpolation-filters="sRGB">
<feFlood flood-opacity="0" result="BackgroundImageFix"/>
<feBlend mode="normal" in="SourceGraphic" in2="BackgroundImageFix" result="shape"/>
<feGaussianBlur stdDeviation="2" result="effect1_foregroundBlur_4601_480"/>
</filter>
<filter id="filter6_i_4601_480" x="168.188" y="120.33" width="10.168" height="10.1667" filterUnits="userSpaceOnUse" color-interpolation-filters="sRGB">
<feFlood flood-opacity="0" result="BackgroundImageFix"/>
<feBlend mode="normal" in="SourceGraphic" in2="BackgroundImageFix" result="shape"/>
<feColorMatrix in="SourceAlpha" type="matrix" values="0 0 0 0 0 0 0 0 0 0 0 0 0 0 0 0 0 0 127 0" result="hardAlpha"/>
<feOffset dx="1.24771" dy="1.24771"/>
<feComposite in2="hardAlpha" operator="arithmetic" k2="-1" k3="1"/>
<feColorMatrix type="matrix" values="0 0 0 0 0.601638 0 0 0 0 0.601638 0 0 0 0 0.601638 0 0 0 0.25 0"/>
<feBlend mode="normal" in2="shape" result="effect1_innerShadow_4601_480"/>
</filter>
<filter id="filter7_d_4601_480" x="18.25" y="34.8438" width="90.2031" height="61.7621" filterUnits="userSpaceOnUse" color-interpolation-filters="sRGB">
<feFlood flood-opacity="0" result="BackgroundImageFix"/>
<feColorMatrix in="SourceAlpha" type="matrix" values="0 0 0 0 0 0 0 0 0 0 0 0 0 0 0 0 0 0 127 0" result="hardAlpha"/>
<feOffset dx="-8" dy="-8"/>
<feGaussianBlur stdDeviation="6.75"/>
<feComposite in2="hardAlpha" operator="out"/>
<feColorMatrix type="matrix" values="0 0 0 0 0 0 0 0 0 0 0 0 0 0 0 0 0 0 0.25 0"/>
<feBlend mode="normal" in2="BackgroundImageFix" result="effect1_dropShadow_4601_480"/>
<feBlend mode="normal" in="SourceGraphic" in2="effect1_dropShadow_4601_480" result="shape"/>
</filter>
<filter id="filter8_d_4601_480" x="194.711" y="0.84375" width="90.2031" height="61.7621" filterUnits="userSpaceOnUse" color-interpolation-filters="sRGB">
<feFlood flood-opacity="0" result="BackgroundImageFix"/>
<feColorMatrix in="SourceAlpha" type="matrix" values="0 0 0 0 0 0 0 0 0 0 0 0 0 0 0 0 0 0 127 0" result="hardAlpha"/>
<feOffset dx="-8" dy="-8"/>
<feGaussianBlur stdDeviation="6.75"/>
<feComposite in2="hardAlpha" operator="out"/>
<feColorMatrix type="matrix" values="0 0 0 0 0 0 0 0 0 0 0 0 0 0 0 0 0 0 0.25 0"/>
<feBlend mode="normal" in2="BackgroundImageFix" result="effect1_dropShadow_4601_480"/>
<feBlend mode="normal" in="SourceGraphic" in2="effect1_dropShadow_4601_480" result="shape"/>
</filter>
<linearGradient id="paint0_linear_4601_480" x1="51" y1="143.585" x2="75.0352" y2="160.181" gradientUnits="userSpaceOnUse">
<stop stop-opacity="0"/>
<stop offset="1" stop-color="#666666"/>
</linearGradient>
<linearGradient id="paint1_linear_4601_480" x1="272" y1="143.585" x2="296.035" y2="160.181" gradientUnits="userSpaceOnUse">
<stop stop-opacity="0"/>
<stop offset="1" stop-color="#666666"/>
</linearGradient>
<linearGradient id="paint2_linear_4601_480" x1="230.864" y1="-1.41845" x2="71.6362" y2="147.181" gradientUnits="userSpaceOnUse">
<stop stop-color="#151825" stop-opacity="0.1"/>
<stop offset="0.736825" stop-color="#151825"/>
<stop offset="1" stop-color="#1A162E"/>
</linearGradient>
<linearGradient id="paint3_linear_4601_480" x1="115.905" y1="40.4493" x2="264.458" y2="76.4425" gradientUnits="userSpaceOnUse">
<stop stop-color="#595D6C"/>
<stop offset="1" stop-color="#4A3B87" stop-opacity="0.18"/>
</linearGradient>
<linearGradient id="paint4_linear_4601_480" x1="126.07" y1="172.949" x2="228.318" y2="171.896" gradientUnits="userSpaceOnUse">
<stop stop-color="#666666" stop-opacity="0"/>
<stop offset="1" stop-color="#666666"/>
</linearGradient>
<linearGradient id="paint5_linear_4601_480" x1="179.321" y1="53.9099" x2="179.321" y2="163.557" gradientUnits="userSpaceOnUse">
<stop stop-color="#12B7FB" stop-opacity="0.1"/>
<stop offset="1" stop-color="#C34DD1"/>
</linearGradient>
<linearGradient id="paint6_linear_4601_480" x1="179.321" y1="59.3302" x2="179.321" y2="163.557" gradientUnits="userSpaceOnUse">
<stop stop-color="#12B7FB" stop-opacity="0"/>
<stop offset="1" stop-color="#C34DD1"/>
</linearGradient>
<linearGradient id="paint7_linear_4601_480" x1="176.684" y1="68.7561" x2="176.684" y2="142.518" gradientUnits="userSpaceOnUse">
<stop stop-color="#12B7FB" stop-opacity="0.1"/>
<stop offset="1" stop-color="#C34DD1"/>
</linearGradient>
<linearGradient id="paint8_linear_4601_480" x1="176.684" y1="68.7561" x2="176.684" y2="142.518" gradientUnits="userSpaceOnUse">
<stop stop-color="#12B7FB" stop-opacity="0.1"/>
<stop offset="1" stop-color="#C34DD1"/>
</linearGradient>
<linearGradient id="paint9_linear_4601_480" x1="100.811" y1="48.1299" x2="78.9921" y2="101.902" gradientUnits="userSpaceOnUse">
<stop stop-color="#151825" stop-opacity="0.1"/>
<stop offset="0.736825" stop-color="#151825"/>
<stop offset="1" stop-color="#1A162E"/>
</linearGradient>
<linearGradient id="paint10_linear_4601_480" x1="41.2549" y1="56.3437" x2="99.0666" y2="93.3327" gradientUnits="userSpaceOnUse">
<stop stop-color="#595D6C"/>
<stop offset="1" stop-color="#4A3B87" stop-opacity="0.18"/>
</linearGradient>
<linearGradient id="paint11_linear_4601_480" x1="277.272" y1="14.1299" x2="255.453" y2="67.9018" gradientUnits="userSpaceOnUse">
<stop stop-color="#151825" stop-opacity="0.1"/>
<stop offset="0.736825" stop-color="#151825"/>
<stop offset="1" stop-color="#1A162E"/>
</linearGradient>
<linearGradient id="paint12_linear_4601_480" x1="217.716" y1="22.3437" x2="275.528" y2="59.3327" gradientUnits="userSpaceOnUse">
<stop stop-color="#595D6C"/>
<stop offset="1" stop-color="#4A3B87" stop-opacity="0.18"/>
</linearGradient>
</defs>
</svg>
