<svg width="310" height="209" viewBox="0 0 310 209" fill="none" xmlns="http://www.w3.org/2000/svg">
<rect opacity="0.4" x="228.43" y="37" width="81" height="80" rx="4.63569" fill="#282828"/>
<g filter="url(#filter0_d_4282_907)">
<path d="M294.531 49.416H247.207C246.993 49.416 246.82 49.6146 246.82 49.8596V104.142C246.82 104.387 246.993 104.586 247.207 104.586H294.531C294.745 104.586 294.918 104.387 294.918 104.142V49.8596C294.918 49.6146 294.745 49.416 294.531 49.416Z" fill="url(#paint0_linear_4282_907)" shape-rendering="crispEdges"/>
<path d="M247.207 49.666H294.531C294.576 49.666 294.668 49.7193 294.668 49.8594V104.143C294.668 104.283 294.576 104.336 294.531 104.336H247.207C247.163 104.336 247.07 104.283 247.07 104.143V49.8594C247.07 49.7193 247.163 49.666 247.207 49.666Z" stroke="url(#paint1_linear_4282_907)" stroke-width="0.5" shape-rendering="crispEdges"/>
</g>
<rect width="31.8125" height="3.8125" rx="1" transform="matrix(-1 0 0 1 285.836 72.9785)" fill="url(#paint2_linear_4282_907)"/>
<path d="M271.785 82.9785C271.785 82.4262 271.337 81.9785 270.785 81.9785H255.023C254.471 81.9785 254.023 82.4262 254.023 82.9785V84.791C254.023 85.3433 254.471 85.791 255.023 85.791H270.785C271.337 85.791 271.785 85.3433 271.785 84.791V82.9785Z" fill="url(#paint3_linear_4282_907)"/>
<path d="M271.629 92.0215C271.629 91.4692 271.181 91.0215 270.629 91.0215H254.867C254.315 91.0215 253.867 91.4692 253.867 92.0215V93.834C253.867 94.3863 254.315 94.834 254.867 94.834H270.629C271.181 94.834 271.629 94.3863 271.629 93.834V92.0215Z" fill="url(#paint4_linear_4282_907)"/>
<path d="M295.748 79.877L280.134 95.4053L276.551 91.8027L292.165 76.2744L295.748 79.877ZM289.926 81.377L290.631 82.0859L292.758 79.9707L292.053 79.2617L289.926 81.377Z" fill="#C1C1C1"/>
<path d="M293.763 84.3926L294.673 85.9016L296.182 86.8115L294.673 87.7215L293.763 89.2305L292.853 87.7215L291.344 86.8115L292.853 85.9016L293.763 84.3926Z" fill="url(#paint5_linear_4282_907)"/>
<path d="M285.884 74.4238L286.794 75.9328L288.303 76.8428L286.794 77.7527L285.884 79.2617L284.974 77.7527L283.465 76.8428L284.974 75.9328L285.884 74.4238Z" fill="url(#paint6_linear_4282_907)"/>
<path d="M281.396 78.9121L282.305 80.4211L283.814 81.3311L282.305 82.241L281.396 83.75L280.486 82.241L278.977 81.3311L280.486 80.4211L281.396 78.9121Z" fill="url(#paint7_linear_4282_907)"/>
<path d="M178.928 157.743L246.5 208.979L74.5 208.979L136.806 157.743L136.806 95.9785L178.928 95.9785L178.928 157.743Z" fill="#121213"/>
<g filter="url(#filter1_d_4282_907)">
<path d="M209.735 23.8908H108.259C107.564 23.8908 107 24.4544 107 25.1497V126.626C107 127.321 107.564 127.884 108.259 127.884H209.735C210.43 127.884 210.994 127.321 210.994 126.626V25.1497C210.994 24.4544 210.43 23.8908 209.735 23.8908Z" fill="url(#paint8_linear_4282_907)" shape-rendering="crispEdges"/>
</g>
<path d="M198.042 33.962V27.2483C198.042 26.8286 197.692 26.5489 197.342 26.5489H120.554C120.134 26.5489 119.854 26.8986 119.854 27.2483V33.962C119.854 35.5705 118.526 36.8993 116.917 36.8993H110.203C109.784 36.8993 109.504 37.249 109.504 37.5987V114.457C109.504 114.877 109.854 115.157 110.203 115.157H116.917C118.526 115.157 119.854 116.485 119.854 118.094V124.808C119.854 125.227 120.204 125.507 120.554 125.507H197.342C197.762 125.507 198.042 125.157 198.042 124.808V118.094C198.042 116.485 199.371 115.157 200.979 115.157H207.763C208.182 115.157 208.462 114.807 208.462 114.457V37.5987C208.462 37.179 208.112 36.8993 207.763 36.8993H200.979C199.371 36.8993 198.042 35.5705 198.042 33.962Z" fill="#19191D"/>
<path d="M115.868 26.4795H110.902C110.091 26.4795 109.434 27.137 109.434 27.9481V32.9135C109.434 33.7246 110.091 34.3822 110.902 34.3822H115.868C116.679 34.3822 117.336 33.7246 117.336 32.9135V27.9481C117.336 27.137 116.679 26.4795 115.868 26.4795Z" fill="black"/>
<path d="M115.868 117.674H110.902C110.091 117.674 109.434 118.332 109.434 119.143V124.108C109.434 124.919 110.091 125.577 110.902 125.577H115.868C116.679 125.577 117.336 124.919 117.336 124.108V119.143C117.336 118.332 116.679 117.674 115.868 117.674Z" fill="black"/>
<path d="M207.204 117.674H202.238C201.427 117.674 200.77 118.332 200.77 119.143V124.108C200.77 124.919 201.427 125.577 202.238 125.577H207.204C208.015 125.577 208.672 124.919 208.672 124.108V119.143C208.672 118.332 208.015 117.674 207.204 117.674Z" fill="black"/>
<path d="M207.204 26.4792H202.238C201.427 26.4792 200.77 27.1368 200.77 27.9479V32.9133C200.77 33.7244 201.427 34.3819 202.238 34.3819H207.204C208.015 34.3819 208.672 33.7244 208.672 32.9133V27.9479C208.672 27.1368 208.015 26.4792 207.204 26.4792Z" fill="black"/>
<path d="M123.839 35.6403C123.42 35.6403 123 35.2906 123 34.8011V29.6259C123 29.2063 123.35 28.7867 123.839 28.7867C124.259 28.7867 124.678 29.1363 124.678 29.6259V34.8011C124.678 35.2207 124.329 35.6403 123.839 35.6403Z" fill="black"/>
<rect x="127.332" y="28.7869" width="1.67969" height="6.85352" fill="black"/>
<rect x="131.738" y="28.7869" width="1.67969" height="6.85352" fill="black"/>
<rect x="136.148" y="28.7869" width="1.67969" height="6.85352" fill="black"/>
<rect x="140.551" y="28.7869" width="1.67969" height="6.85352" fill="black"/>
<rect x="144.957" y="28.7869" width="1.67969" height="6.85352" fill="black"/>
<rect x="149.293" y="28.7869" width="1.67969" height="6.85352" fill="black"/>
<rect x="153.699" y="28.7869" width="1.67969" height="6.85352" fill="black"/>
<rect x="158.105" y="28.7869" width="1.67969" height="6.85352" fill="black"/>
<rect x="162.512" y="28.7869" width="1.67969" height="6.85352" fill="black"/>
<rect x="166.918" y="28.7869" width="1.67969" height="6.85352" fill="black"/>
<rect x="171.254" y="28.7869" width="1.67969" height="6.85352" fill="black"/>
<rect x="175.66" y="28.7869" width="1.67969" height="6.85352" fill="black"/>
<rect x="180.066" y="28.7869" width="1.67969" height="6.85352" fill="black"/>
<rect x="184.473" y="28.7869" width="1.67969" height="6.85352" fill="black"/>
<rect x="188.875" y="28.7869" width="1.67969" height="6.85352" fill="black"/>
<rect x="193.281" y="28.7869" width="1.67969" height="6.85352" fill="black"/>
<path d="M123.839 122.832C123.42 122.832 123 122.482 123 121.992V116.817C123 116.398 123.35 115.978 123.839 115.978C124.259 115.978 124.678 116.328 124.678 116.817V121.992C124.678 122.412 124.329 122.832 123.839 122.832Z" fill="black"/>
<rect x="127.332" y="115.978" width="1.67969" height="6.85352" fill="black"/>
<rect x="131.738" y="115.978" width="1.67969" height="6.85352" fill="black"/>
<rect x="136.148" y="115.978" width="1.67969" height="6.85352" fill="black"/>
<rect x="140.551" y="115.978" width="1.67969" height="6.85352" fill="black"/>
<rect x="144.957" y="115.978" width="1.67969" height="6.85352" fill="black"/>
<rect x="149.293" y="115.978" width="1.67969" height="6.85352" fill="black"/>
<rect x="153.699" y="115.978" width="1.67969" height="6.85352" fill="black"/>
<rect x="158.105" y="115.978" width="1.67969" height="6.85352" fill="black"/>
<rect x="162.512" y="115.978" width="1.67969" height="6.85352" fill="black"/>
<rect x="166.918" y="115.978" width="1.67969" height="6.85352" fill="black"/>
<rect x="171.254" y="115.978" width="1.67969" height="6.85352" fill="black"/>
<rect x="175.66" y="115.978" width="1.67969" height="6.85352" fill="black"/>
<rect x="180.066" y="115.978" width="1.67969" height="6.85352" fill="black"/>
<rect x="184.473" y="115.978" width="1.67969" height="6.85352" fill="black"/>
<rect x="188.875" y="115.978" width="1.67969" height="6.85352" fill="black"/>
<rect x="193.281" y="115.978" width="1.67969" height="6.85352" fill="black"/>
<rect x="206.152" y="40.0458" width="1.67969" height="6.85352" transform="rotate(90 206.152 40.0458)" fill="black"/>
<rect x="206.152" y="44.4521" width="1.67969" height="6.85352" transform="rotate(90 206.152 44.4521)" fill="black"/>
<rect x="206.152" y="48.8573" width="1.67969" height="6.85352" transform="rotate(90 206.152 48.8573)" fill="black"/>
<rect x="206.152" y="53.1943" width="1.67969" height="6.85352" transform="rotate(90 206.152 53.1943)" fill="black"/>
<rect x="206.152" y="57.5995" width="1.67969" height="6.85352" transform="rotate(90 206.152 57.5995)" fill="black"/>
<rect x="206.152" y="62.0058" width="1.67969" height="6.85352" transform="rotate(90 206.152 62.0058)" fill="black"/>
<rect x="206.152" y="66.412" width="1.67969" height="6.85352" transform="rotate(90 206.152 66.412)" fill="black"/>
<rect x="206.152" y="70.8173" width="1.67969" height="6.85352" transform="rotate(90 206.152 70.8173)" fill="black"/>
<rect x="206.152" y="75.1542" width="1.67969" height="6.85352" transform="rotate(90 206.152 75.1542)" fill="black"/>
<rect x="206.152" y="79.5595" width="1.67969" height="6.85352" transform="rotate(90 206.152 79.5595)" fill="black"/>
<rect x="206.152" y="83.9657" width="1.67969" height="6.85352" transform="rotate(90 206.152 83.9657)" fill="black"/>
<rect x="206.152" y="88.371" width="1.67969" height="6.85352" transform="rotate(90 206.152 88.371)" fill="black"/>
<rect x="206.152" y="92.7773" width="1.67969" height="6.85352" transform="rotate(90 206.152 92.7773)" fill="black"/>
<rect x="206.152" y="97.1835" width="1.67969" height="6.85352" transform="rotate(90 206.152 97.1835)" fill="black"/>
<rect x="206.152" y="101.519" width="1.67969" height="6.85352" transform="rotate(90 206.152 101.519)" fill="black"/>
<rect x="206.152" y="105.925" width="1.67969" height="6.85352" transform="rotate(90 206.152 105.925)" fill="black"/>
<rect x="206.152" y="110.331" width="1.67969" height="6.85352" transform="rotate(90 206.152 110.331)" fill="black"/>
<rect x="118.594" y="40.0453" width="1.67969" height="6.85352" transform="rotate(90 118.594 40.0453)" fill="black"/>
<rect x="118.594" y="44.4519" width="1.67969" height="6.85352" transform="rotate(90 118.594 44.4519)" fill="black"/>
<rect x="118.594" y="48.8572" width="1.67969" height="6.85352" transform="rotate(90 118.594 48.8572)" fill="black"/>
<rect x="118.594" y="53.1941" width="1.67969" height="6.85352" transform="rotate(90 118.594 53.1941)" fill="black"/>
<rect x="118.594" y="57.5994" width="1.67969" height="6.85352" transform="rotate(90 118.594 57.5994)" fill="black"/>
<rect x="118.594" y="62.0056" width="1.67969" height="6.85352" transform="rotate(90 118.594 62.0056)" fill="black"/>
<rect x="118.594" y="66.4119" width="1.67969" height="6.85352" transform="rotate(90 118.594 66.4119)" fill="black"/>
<rect x="118.594" y="70.8171" width="1.67969" height="6.85352" transform="rotate(90 118.594 70.8171)" fill="black"/>
<rect x="118.594" y="75.1541" width="1.67969" height="6.85352" transform="rotate(90 118.594 75.1541)" fill="black"/>
<rect x="118.594" y="79.5593" width="1.67969" height="6.85352" transform="rotate(90 118.594 79.5593)" fill="black"/>
<rect x="118.594" y="83.9656" width="1.67969" height="6.85352" transform="rotate(90 118.594 83.9656)" fill="black"/>
<rect x="118.594" y="88.3708" width="1.67969" height="6.85352" transform="rotate(90 118.594 88.3708)" fill="black"/>
<rect x="118.594" y="92.7771" width="1.67969" height="6.85352" transform="rotate(90 118.594 92.7771)" fill="black"/>
<rect x="118.594" y="97.1834" width="1.67969" height="6.85352" transform="rotate(90 118.594 97.1834)" fill="black"/>
<rect x="118.594" y="101.519" width="1.67969" height="6.85352" transform="rotate(90 118.594 101.519)" fill="black"/>
<rect x="118.594" y="105.925" width="1.67969" height="6.85352" transform="rotate(90 118.594 105.925)" fill="black"/>
<rect x="118.594" y="110.331" width="1.67969" height="6.85352" transform="rotate(90 118.594 110.331)" fill="black"/>
<path d="M124.189 40.0463H193.774C194.404 40.0463 194.963 40.5358 194.963 41.2352V110.821C194.963 111.45 194.474 112.01 193.774 112.01H124.189C123.559 112.01 123 111.52 123 110.821V41.2352C123 40.6057 123.49 40.0463 124.189 40.0463Z" stroke="url(#paint9_linear_4282_907)" stroke-width="1.06393"/>
<g filter="url(#filter2_d_4282_907)">
<path d="M193.217 41.2344H124.751C124.442 41.2344 124.191 41.4849 124.191 41.7939V110.26C124.191 110.569 124.442 110.82 124.751 110.82H193.217C193.526 110.82 193.777 110.569 193.777 110.26V41.7939C193.777 41.4849 193.526 41.2344 193.217 41.2344Z" fill="url(#paint10_linear_4282_907)" shape-rendering="crispEdges"/>
</g>
<path d="M129.192 50.5613C128.731 50.5613 128.328 50.4893 127.983 50.3454C127.638 50.1957 127.37 49.9856 127.18 49.7151C126.996 49.4388 126.904 49.1193 126.904 48.7567V48.5667C126.904 48.538 126.912 48.5149 126.929 48.4977C126.953 48.4746 126.978 48.4631 127.007 48.4631H127.992C128.02 48.4631 128.043 48.4746 128.061 48.4977C128.084 48.5149 128.095 48.538 128.095 48.5667V48.6963C128.095 48.9265 128.202 49.1222 128.415 49.2834C128.628 49.4388 128.915 49.5165 129.278 49.5165C129.583 49.5165 129.81 49.4532 129.96 49.3266C130.11 49.1942 130.185 49.033 130.185 48.843C130.185 48.7049 130.139 48.5898 130.046 48.4977C129.954 48.3998 129.828 48.3163 129.667 48.2473C129.511 48.1724 129.261 48.0717 128.915 47.9451C128.53 47.8127 128.202 47.6774 127.931 47.5393C127.666 47.4011 127.442 47.214 127.258 46.978C127.079 46.7363 126.99 46.4398 126.99 46.0887C126.99 45.7433 127.079 45.4411 127.258 45.1821C127.436 44.9231 127.684 44.7245 128 44.5863C128.317 44.4482 128.682 44.3791 129.097 44.3791C129.534 44.3791 129.923 44.4568 130.262 44.6122C130.608 44.7677 130.875 44.9864 131.065 45.2684C131.261 45.5447 131.359 45.8671 131.359 46.2355V46.365C131.359 46.3938 131.347 46.4197 131.324 46.4427C131.307 46.46 131.284 46.4686 131.255 46.4686H130.262C130.234 46.4686 130.208 46.46 130.185 46.4427C130.167 46.4197 130.159 46.3938 130.159 46.365V46.2959C130.159 46.0542 130.058 45.8498 129.857 45.6829C129.661 45.5102 129.39 45.4239 129.045 45.4239C128.774 45.4239 128.561 45.4814 128.406 45.5965C128.256 45.7117 128.181 45.87 128.181 46.0714C128.181 46.2153 128.225 46.3362 128.311 46.4341C128.403 46.5319 128.535 46.6211 128.708 46.7017C128.887 46.7766 129.16 46.8802 129.528 47.0126C129.937 47.1622 130.257 47.2946 130.487 47.4097C130.723 47.5249 130.933 47.6976 131.117 47.9278C131.307 48.1523 131.402 48.4459 131.402 48.8085C131.402 49.3496 131.203 49.7784 130.806 50.095C130.409 50.4058 129.871 50.5613 129.192 50.5613ZM135.182 50.5872C134.733 50.5872 134.335 50.4951 133.99 50.3109C133.65 50.1267 133.386 49.8705 133.196 49.5424C133.006 49.2086 132.911 48.8258 132.911 48.3941V46.5463C132.911 46.1204 133.006 45.7433 133.196 45.4152C133.386 45.0871 133.65 44.8338 133.99 44.6554C134.335 44.4712 134.733 44.3791 135.182 44.3791C135.636 44.3791 136.033 44.4712 136.373 44.6554C136.718 44.8338 136.986 45.0871 137.176 45.4152C137.366 45.7433 137.461 46.1204 137.461 46.5463V48.3941C137.461 48.8258 137.366 49.2086 137.176 49.5424C136.986 49.8763 136.718 50.1353 136.373 50.3195C136.033 50.4979 135.636 50.5872 135.182 50.5872ZM135.182 49.5424C135.498 49.5424 135.754 49.4417 135.95 49.2402C136.146 49.0387 136.244 48.7711 136.244 48.4372V46.5377C136.244 46.2038 136.146 45.9362 135.95 45.7347C135.76 45.5275 135.504 45.4239 135.182 45.4239C134.865 45.4239 134.609 45.5275 134.413 45.7347C134.223 45.9362 134.128 46.2038 134.128 46.5377V48.4372C134.128 48.7711 134.223 49.0387 134.413 49.2402C134.609 49.4417 134.865 49.5424 135.182 49.5424ZM139.275 50.4922C139.246 50.4922 139.22 50.4836 139.197 50.4663C139.18 50.4433 139.171 50.4174 139.171 50.3886V44.5518C139.171 44.523 139.18 44.5 139.197 44.4827C139.22 44.4597 139.246 44.4482 139.275 44.4482H140.285C140.314 44.4482 140.337 44.4597 140.354 44.4827C140.377 44.5 140.389 44.523 140.389 44.5518V49.4043C140.389 49.433 140.403 49.4474 140.432 49.4474H143.255C143.284 49.4474 143.307 49.459 143.324 49.482C143.347 49.4992 143.359 49.5223 143.359 49.551V50.3886C143.359 50.4174 143.347 50.4433 143.324 50.4663C143.307 50.4836 143.284 50.4922 143.255 50.4922H139.275ZM144.993 50.4922C144.964 50.4922 144.938 50.4836 144.915 50.4663C144.898 50.4433 144.89 50.4174 144.89 50.3886V44.5518C144.89 44.523 144.898 44.5 144.915 44.4827C144.938 44.4597 144.964 44.4482 144.993 44.4482H146.003C146.032 44.4482 146.055 44.4597 146.072 44.4827C146.095 44.5 146.107 44.523 146.107 44.5518V50.3886C146.107 50.4174 146.095 50.4433 146.072 50.4663C146.055 50.4836 146.032 50.4922 146.003 50.4922H144.993ZM148.038 50.4922C148.01 50.4922 147.984 50.4836 147.961 50.4663C147.943 50.4433 147.935 50.4174 147.935 50.3886V44.5518C147.935 44.523 147.943 44.5 147.961 44.4827C147.984 44.4597 148.01 44.4482 148.038 44.4482H150.197C150.629 44.4482 151.006 44.5259 151.328 44.6813C151.656 44.831 151.909 45.0439 152.088 45.3202C152.266 45.5965 152.356 45.916 152.356 46.2787V48.6617C152.356 49.0244 152.266 49.3438 152.088 49.6201C151.909 49.8964 151.656 50.1123 151.328 50.2677C151.006 50.4174 150.629 50.4922 150.197 50.4922H148.038ZM149.152 49.4043C149.152 49.433 149.167 49.4474 149.195 49.4474H150.24C150.505 49.4474 150.718 49.3582 150.879 49.1798C151.046 49.0013 151.132 48.7625 151.138 48.4631V46.4772C151.138 46.1779 151.055 45.939 150.888 45.7606C150.727 45.5822 150.508 45.4929 150.232 45.4929H149.195C149.167 45.4929 149.152 45.5073 149.152 45.5361V49.4043ZM154.153 50.4922C154.124 50.4922 154.098 50.4836 154.075 50.4663C154.058 50.4433 154.049 50.4174 154.049 50.3886V44.5518C154.049 44.523 154.058 44.5 154.075 44.4827C154.098 44.4597 154.124 44.4482 154.153 44.4482H155.163C155.192 44.4482 155.215 44.4597 155.232 44.4827C155.255 44.5 155.267 44.523 155.267 44.5518V50.3886C155.267 50.4174 155.255 50.4433 155.232 50.4663C155.215 50.4836 155.192 50.4922 155.163 50.4922H154.153ZM161.265 44.4482C161.294 44.4482 161.317 44.4597 161.334 44.4827C161.357 44.5 161.369 44.523 161.369 44.5518V45.398C161.369 45.4267 161.357 45.4526 161.334 45.4757C161.317 45.4929 161.294 45.5016 161.265 45.5016H159.719C159.691 45.5016 159.676 45.516 159.676 45.5447V50.3886C159.676 50.4174 159.665 50.4433 159.642 50.4663C159.624 50.4836 159.601 50.4922 159.573 50.4922H158.562C158.534 50.4922 158.508 50.4836 158.485 50.4663C158.467 50.4433 158.459 50.4174 158.459 50.3886V45.5447C158.459 45.516 158.444 45.5016 158.416 45.5016H156.913C156.885 45.5016 156.859 45.4929 156.836 45.4757C156.818 45.4526 156.81 45.4267 156.81 45.398V44.5518C156.81 44.523 156.818 44.5 156.836 44.4827C156.859 44.4597 156.885 44.4482 156.913 44.4482H161.265ZM164.554 50.4836C164.526 50.4836 164.5 50.4749 164.477 50.4577C164.459 50.4346 164.451 50.4087 164.451 50.3799V48.1955C164.451 48.1724 164.448 48.1552 164.442 48.1437L162.663 44.5691C162.652 44.546 162.646 44.5288 162.646 44.5173C162.646 44.4712 162.678 44.4482 162.741 44.4482H163.829C163.887 44.4482 163.927 44.4741 163.95 44.5259L165.029 46.8226C165.046 46.8572 165.064 46.8572 165.081 46.8226L166.16 44.5259C166.183 44.4741 166.224 44.4482 166.281 44.4482H167.386C167.427 44.4482 167.453 44.4597 167.464 44.4827C167.481 44.5 167.481 44.5288 167.464 44.5691L165.668 48.1437C165.662 48.1552 165.659 48.1724 165.659 48.1955V50.3799C165.659 50.4087 165.648 50.4346 165.625 50.4577C165.608 50.4749 165.585 50.4836 165.556 50.4836H164.554ZM170.848 50.5613C170.387 50.5613 169.984 50.4893 169.639 50.3454C169.294 50.1957 169.026 49.9856 168.836 49.7151C168.652 49.4388 168.56 49.1193 168.56 48.7567V48.5667C168.56 48.538 168.568 48.5149 168.586 48.4977C168.609 48.4746 168.634 48.4631 168.663 48.4631H169.648C169.676 48.4631 169.699 48.4746 169.717 48.4977C169.74 48.5149 169.751 48.538 169.751 48.5667V48.6963C169.751 48.9265 169.858 49.1222 170.071 49.2834C170.284 49.4388 170.571 49.5165 170.934 49.5165C171.239 49.5165 171.467 49.4532 171.616 49.3266C171.766 49.1942 171.841 49.033 171.841 48.843C171.841 48.7049 171.795 48.5898 171.703 48.4977C171.61 48.3998 171.484 48.3163 171.323 48.2473C171.167 48.1724 170.917 48.0717 170.571 47.9451C170.186 47.8127 169.858 47.6774 169.587 47.5393C169.322 47.4011 169.098 47.214 168.914 46.978C168.735 46.7363 168.646 46.4398 168.646 46.0887C168.646 45.7433 168.735 45.4411 168.914 45.1821C169.092 44.9231 169.34 44.7245 169.656 44.5863C169.973 44.4482 170.338 44.3791 170.753 44.3791C171.19 44.3791 171.579 44.4568 171.918 44.6122C172.264 44.7677 172.531 44.9864 172.721 45.2684C172.917 45.5447 173.015 45.8671 173.015 46.2355V46.365C173.015 46.3938 173.003 46.4197 172.98 46.4427C172.963 46.46 172.94 46.4686 172.911 46.4686H171.918C171.89 46.4686 171.864 46.46 171.841 46.4427C171.823 46.4197 171.815 46.3938 171.815 46.365V46.2959C171.815 46.0542 171.714 45.8498 171.513 45.6829C171.317 45.5102 171.046 45.4239 170.701 45.4239C170.43 45.4239 170.217 45.4814 170.062 45.5965C169.912 45.7117 169.838 45.87 169.838 46.0714C169.838 46.2153 169.881 46.3362 169.967 46.4341C170.059 46.5319 170.192 46.6211 170.364 46.7017C170.543 46.7766 170.816 46.8802 171.184 47.0126C171.593 47.1622 171.913 47.2946 172.143 47.4097C172.379 47.5249 172.589 47.6976 172.773 47.9278C172.963 48.1523 173.058 48.4459 173.058 48.8085C173.058 49.3496 172.86 49.7784 172.462 50.095C172.065 50.4058 171.527 50.5613 170.848 50.5613ZM176.812 50.5613C176.363 50.5613 175.968 50.4749 175.629 50.3022C175.289 50.1238 175.027 49.8763 174.843 49.5597C174.659 49.2431 174.567 48.8776 174.567 48.4631V46.4686C174.567 46.0542 174.659 45.6886 174.843 45.3721C175.027 45.0555 175.289 44.8108 175.629 44.6381C175.968 44.4655 176.363 44.3791 176.812 44.3791C177.255 44.3791 177.643 44.4626 177.977 44.6295C178.317 44.7907 178.579 45.0238 178.763 45.3289C178.953 45.6282 179.048 45.9765 179.048 46.3736C179.048 46.4254 179.013 46.4571 178.944 46.4686L177.934 46.529H177.917C177.859 46.529 177.831 46.4974 177.831 46.4341C177.831 46.129 177.736 45.8844 177.546 45.7002C177.361 45.516 177.117 45.4239 176.812 45.4239C176.501 45.4239 176.25 45.516 176.061 45.7002C175.876 45.8844 175.784 46.129 175.784 46.4341V48.5149C175.784 48.8143 175.876 49.056 176.061 49.2402C176.25 49.4244 176.501 49.5165 176.812 49.5165C177.117 49.5165 177.361 49.4244 177.546 49.2402C177.736 49.056 177.831 48.8143 177.831 48.5149C177.831 48.4516 177.865 48.42 177.934 48.42L178.944 48.4631C178.973 48.4631 178.996 48.4718 179.013 48.489C179.036 48.5063 179.048 48.5264 179.048 48.5495C179.048 48.9466 178.953 49.2978 178.763 49.6029C178.579 49.9079 178.317 50.1439 177.977 50.3109C177.643 50.4778 177.255 50.5613 176.812 50.5613ZM184.425 50.4922C184.368 50.4922 184.33 50.4634 184.313 50.4058L184.054 49.5597C184.042 49.5367 184.028 49.5251 184.011 49.5251H181.887C181.869 49.5251 181.855 49.5367 181.844 49.5597L181.593 50.4058C181.576 50.4634 181.538 50.4922 181.481 50.4922H180.384C180.35 50.4922 180.324 50.4836 180.307 50.4663C180.289 50.4433 180.286 50.4116 180.298 50.3713L182.163 44.5345C182.18 44.477 182.218 44.4482 182.275 44.4482H183.631C183.688 44.4482 183.726 44.477 183.743 44.5345L185.608 50.3713C185.614 50.3828 185.617 50.3972 185.617 50.4145C185.617 50.4663 185.585 50.4922 185.522 50.4922H184.425ZM182.154 48.5322C182.149 48.5667 182.16 48.584 182.189 48.584H183.709C183.743 48.584 183.755 48.5667 183.743 48.5322L182.966 45.9678C182.96 45.9448 182.952 45.9362 182.94 45.9419C182.929 45.9419 182.92 45.9505 182.914 45.9678L182.154 48.5322ZM190.624 44.5518C190.624 44.523 190.632 44.5 190.65 44.4827C190.673 44.4597 190.699 44.4482 190.727 44.4482H191.738C191.766 44.4482 191.789 44.4597 191.807 44.4827C191.83 44.5 191.841 44.523 191.841 44.5518V50.3886C191.841 50.4174 191.83 50.4433 191.807 50.4663C191.789 50.4836 191.766 50.4922 191.738 50.4922H190.762C190.704 50.4922 190.664 50.4692 190.641 50.4231L188.405 46.7276C188.393 46.7104 188.382 46.7046 188.37 46.7104C188.359 46.7104 188.353 46.7219 188.353 46.7449L188.37 50.3886C188.37 50.4174 188.359 50.4433 188.336 50.4663C188.318 50.4836 188.295 50.4922 188.267 50.4922H187.256C187.228 50.4922 187.202 50.4836 187.179 50.4663C187.161 50.4433 187.153 50.4174 187.153 50.3886V44.5518C187.153 44.523 187.161 44.5 187.179 44.4827C187.202 44.4597 187.228 44.4482 187.256 44.4482H188.232C188.29 44.4482 188.33 44.4712 188.353 44.5173L190.581 48.1955C190.592 48.2127 190.604 48.2214 190.615 48.2214C190.627 48.2156 190.632 48.2012 190.632 48.1782L190.624 44.5518Z" fill="#C1C1C1"/>
<path d="M173.073 91.4487H176.85L182.934 106.625H179.018L177.829 103.478H172.234L171.045 106.625H167.059L173.143 91.4487H173.073ZM176.85 100.54L175.031 95.435L173.143 100.54H176.85Z" fill="#C1C1C1"/>
<path d="M184.473 91.4487H188.319V106.625H184.473V91.4487Z" fill="#C1C1C1"/>
<path d="M122.32 20L124.942 20C125.188 20 125.38 20.4707 125.38 21.0759L125.38 23.4968L121.883 23.4968L121.883 21.0759C121.883 20.4707 122.074 20 122.32 20Z" fill="#363636"/>
<path d="M136.308 20L138.931 20C139.177 20 139.368 20.4707 139.368 21.0759L139.368 23.4968L135.871 23.4968L135.871 21.0759C135.871 20.4707 136.062 20 136.308 20Z" fill="#363636"/>
<path d="M150.296 20L152.919 20C153.165 20 153.356 20.4707 153.356 21.0759L153.356 23.4968L149.859 23.4968L149.859 21.0759C149.859 20.4707 150.051 20 150.296 20Z" fill="#363636"/>
<path d="M164.281 20L166.903 20C167.149 20 167.341 20.4707 167.341 21.0759L167.341 23.4968L163.844 23.4968L163.844 21.0759C163.844 20.4707 164.035 20 164.281 20Z" fill="#363636"/>
<path d="M178.269 20L180.892 20C181.138 20 181.329 20.4707 181.329 21.0759L181.329 23.4968L177.832 23.4968L177.832 21.0759C177.832 20.4707 178.023 20 178.269 20Z" fill="#363636"/>
<path d="M192.257 20L194.88 20C195.126 20 195.317 20.4707 195.317 21.0759L195.317 23.4968L191.82 23.4968L191.82 21.0759C191.82 20.4707 192.012 20 192.257 20Z" fill="#363636"/>
<path d="M122.636 132.15L125.259 132.15C125.505 132.15 125.696 131.679 125.696 131.074L125.696 128.653L122.199 128.653L122.199 131.074C122.199 131.679 122.39 132.15 122.636 132.15Z" fill="#363636"/>
<path d="M136.621 132.15L139.243 132.15C139.489 132.15 139.68 131.679 139.68 131.074L139.68 128.653L136.184 128.653L136.184 131.074C136.184 131.679 136.375 132.15 136.621 132.15Z" fill="#363636"/>
<path d="M150.609 132.15L153.232 132.15C153.477 132.15 153.669 131.679 153.669 131.074L153.669 128.653L150.172 128.653L150.172 131.074C150.172 131.679 150.363 132.15 150.609 132.15Z" fill="#363636"/>
<path d="M164.597 132.15L167.22 132.15C167.466 132.15 167.657 131.679 167.657 131.074L167.657 128.653L164.16 128.653L164.16 131.074C164.16 131.679 164.351 132.15 164.597 132.15Z" fill="#363636"/>
<path d="M178.582 132.15L181.204 132.15C181.45 132.15 181.641 131.679 181.641 131.074L181.641 128.653L178.145 128.653L178.145 131.074C178.145 131.679 178.336 132.15 178.582 132.15Z" fill="#363636"/>
<path d="M192.57 132.15L195.192 132.15C195.438 132.15 195.63 131.679 195.63 131.074L195.63 128.653L192.133 128.653L192.133 131.074C192.133 131.679 192.324 132.15 192.57 132.15Z" fill="#363636"/>
<path d="M215 112.306V109.684C215 109.438 214.529 109.247 213.924 109.247H211.503V112.744H213.924C214.529 112.744 215 112.552 215 112.306Z" fill="#363636"/>
<path d="M215 98.3194V95.6969C215 95.451 214.529 95.2598 213.924 95.2598H211.503V98.7565H213.924C214.529 98.7565 215 98.5653 215 98.3194Z" fill="#363636"/>
<path d="M215 84.3324V81.7098C215 81.464 214.529 81.2727 213.924 81.2727H211.503V84.7695H213.924C214.529 84.7695 215 84.5783 215 84.3324Z" fill="#363636"/>
<path d="M215 70.3454V67.7228C215 67.4769 214.529 67.2857 213.924 67.2857H211.503V70.7825H213.924C214.529 70.7825 215 70.5912 215 70.3454Z" fill="#363636"/>
<path d="M215 56.3583V53.7358C215 53.4899 214.529 53.2987 213.924 53.2987H211.503V56.7954H213.924C214.529 56.7954 215 56.6042 215 56.3583Z" fill="#363636"/>
<path d="M215 42.3713V39.7487C215 39.5029 214.529 39.3117 213.924 39.3117H211.503V42.8084H213.924C214.529 42.8084 215 42.6172 215 42.3713Z" fill="#363636"/>
<path d="M103 112.272V109.649C103 109.403 103.471 109.212 104.076 109.212H106.497V112.709H104.076C103.471 112.709 103 112.517 103 112.272Z" fill="#363636"/>
<path d="M103 98.2845V95.662C103 95.4161 103.471 95.2249 104.076 95.2249H106.497V98.7216H104.076C103.471 98.7216 103 98.5304 103 98.2845Z" fill="#363636"/>
<path d="M103 84.2975V81.6749C103 81.4291 103.471 81.2378 104.076 81.2378H106.497V84.7346H104.076C103.471 84.7346 103 84.5434 103 84.2975Z" fill="#363636"/>
<path d="M103 70.3105V67.6879C103 67.442 103.471 67.2508 104.076 67.2508H106.497V70.7476H104.076C103.471 70.7476 103 70.5563 103 70.3105Z" fill="#363636"/>
<path d="M103 56.3234V53.7009C103 53.455 103.471 53.2638 104.076 53.2638H106.497V56.7605H104.076C103.471 56.7605 103 56.5693 103 56.3234Z" fill="#363636"/>
<path d="M103 42.3364V39.7139C103 39.468 103.471 39.2768 104.076 39.2768H106.497V42.7735H104.076C103.471 42.7735 103 42.5823 103 42.3364Z" fill="#363636"/>
<g style="mix-blend-mode:multiply">
<path d="M190.346 113.058H127.544C127.265 113.058 127.055 112.849 127.055 112.569C127.055 112.289 127.265 112.079 127.544 112.079H190.346C190.626 112.079 190.836 112.289 190.836 112.569C190.836 112.849 190.626 113.058 190.346 113.058Z" fill="#999999"/>
</g>
<rect opacity="0.4" x="9" y="36.9785" width="81" height="80" rx="4.63569" fill="#282828"/>
<g filter="url(#filter3_f_4282_907)">
<line x1="255.41" y1="77.8174" x2="64.4723" y2="77.8175" stroke="url(#paint11_linear_4282_907)" stroke-width="1.1349"/>
</g>
<line x1="255.406" y1="77.782" x2="64.4684" y2="77.782" stroke="url(#paint12_linear_4282_907)" stroke-width="1.06393"/>
<path d="M230.5 22.5V8H215" stroke="url(#paint13_linear_4282_907)" stroke-width="1.1349"/>
<path d="M230.5 132V146.5H215" stroke="url(#paint14_linear_4282_907)" stroke-width="1.1349"/>
<path d="M90.5 22.5V8H106" stroke="url(#paint15_linear_4282_907)" stroke-width="1.1349"/>
<path d="M90.5 132V146.5H106" stroke="url(#paint16_linear_4282_907)" stroke-width="1.1349"/>
<g filter="url(#filter4_d_4282_907)">
<circle cx="49.5" cy="76.5495" r="27.5703" fill="url(#paint17_linear_4282_907)" shape-rendering="crispEdges"/>
<circle cx="49.5" cy="76.5495" r="27.3203" stroke="url(#paint18_linear_4282_907)" stroke-width="0.5" shape-rendering="crispEdges"/>
</g>
<g clip-path="url(#clip0_4282_907)">
<path d="M49.1609 59.6164L48.9297 60.3658V82.1115L49.1609 82.3316L59.7464 76.365L49.1609 59.6164Z" fill="#343434"/>
<path d="M48.9382 59.6164L39.2031 76.3649L48.9382 82.3316V71.7769V59.6164Z" fill="#8C8C8C"/>
<path d="M49.0611 84.9809L48.9297 85.1306V92.7884L49.0611 93.1472L59.7464 79.0854L49.0611 84.9809Z" fill="#3C3C3B"/>
<path d="M48.9382 93.1472V84.9809L39.2031 79.0854L48.9382 93.1472Z" fill="#8C8C8C"/>
<path d="M48.9297 82.3284L58.6648 76.2137L48.9297 71.5117V82.3284Z" fill="#141414"/>
<path d="M39.2031 76.2137L48.9382 82.3284V71.5117L39.2031 76.2137Z" fill="#393939"/>
</g>
<defs>
<filter id="filter0_d_4282_907" x="225.32" y="27.916" width="75.0977" height="82.1699" filterUnits="userSpaceOnUse" color-interpolation-filters="sRGB">
<feFlood flood-opacity="0" result="BackgroundImageFix"/>
<feColorMatrix in="SourceAlpha" type="matrix" values="0 0 0 0 0 0 0 0 0 0 0 0 0 0 0 0 0 0 127 0" result="hardAlpha"/>
<feOffset dx="-8" dy="-8"/>
<feGaussianBlur stdDeviation="6.75"/>
<feComposite in2="hardAlpha" operator="out"/>
<feColorMatrix type="matrix" values="0 0 0 0 0 0 0 0 0 0 0 0 0 0 0 0 0 0 0.25 0"/>
<feBlend mode="normal" in2="BackgroundImageFix" result="effect1_dropShadow_4282_907"/>
<feBlend mode="normal" in="SourceGraphic" in2="effect1_dropShadow_4282_907" result="shape"/>
</filter>
<filter id="filter1_d_4282_907" x="84.0659" y="0.956721" width="132.793" height="132.794" filterUnits="userSpaceOnUse" color-interpolation-filters="sRGB">
<feFlood flood-opacity="0" result="BackgroundImageFix"/>
<feColorMatrix in="SourceAlpha" type="matrix" values="0 0 0 0 0 0 0 0 0 0 0 0 0 0 0 0 0 0 127 0" result="hardAlpha"/>
<feOffset dx="-8.53362" dy="-8.53362"/>
<feGaussianBlur stdDeviation="7.20024"/>
<feComposite in2="hardAlpha" operator="out"/>
<feColorMatrix type="matrix" values="0 0 0 0 0 0 0 0 0 0 0 0 0 0 0 0 0 0 0.25 0"/>
<feBlend mode="normal" in2="BackgroundImageFix" result="effect1_dropShadow_4282_907"/>
<feBlend mode="normal" in="SourceGraphic" in2="effect1_dropShadow_4282_907" result="shape"/>
</filter>
<filter id="filter2_d_4282_907" x="101.257" y="18.3003" width="98.3869" height="98.3864" filterUnits="userSpaceOnUse" color-interpolation-filters="sRGB">
<feFlood flood-opacity="0" result="BackgroundImageFix"/>
<feColorMatrix in="SourceAlpha" type="matrix" values="0 0 0 0 0 0 0 0 0 0 0 0 0 0 0 0 0 0 127 0" result="hardAlpha"/>
<feOffset dx="-8.53362" dy="-8.53362"/>
<feGaussianBlur stdDeviation="7.20024"/>
<feComposite in2="hardAlpha" operator="out"/>
<feColorMatrix type="matrix" values="0 0 0 0 0 0 0 0 0 0 0 0 0 0 0 0 0 0 0.25 0"/>
<feBlend mode="normal" in2="BackgroundImageFix" result="effect1_dropShadow_4282_907"/>
<feBlend mode="normal" in="SourceGraphic" in2="effect1_dropShadow_4282_907" result="shape"/>
</filter>
<filter id="filter3_f_4282_907" x="60.4727" y="73.25" width="198.938" height="9.1349" filterUnits="userSpaceOnUse" color-interpolation-filters="sRGB">
<feFlood flood-opacity="0" result="BackgroundImageFix"/>
<feBlend mode="normal" in="SourceGraphic" in2="BackgroundImageFix" result="shape"/>
<feGaussianBlur stdDeviation="2" result="effect1_foregroundBlur_4282_907"/>
</filter>
<filter id="filter4_d_4282_907" x="0.429688" y="27.4791" width="82.1406" height="82.1406" filterUnits="userSpaceOnUse" color-interpolation-filters="sRGB">
<feFlood flood-opacity="0" result="BackgroundImageFix"/>
<feColorMatrix in="SourceAlpha" type="matrix" values="0 0 0 0 0 0 0 0 0 0 0 0 0 0 0 0 0 0 127 0" result="hardAlpha"/>
<feOffset dx="-8" dy="-8"/>
<feGaussianBlur stdDeviation="6.75"/>
<feComposite in2="hardAlpha" operator="out"/>
<feColorMatrix type="matrix" values="0 0 0 0 0 0 0 0 0 0 0 0 0 0 0 0 0 0 0.25 0"/>
<feBlend mode="normal" in2="BackgroundImageFix" result="effect1_dropShadow_4282_907"/>
<feBlend mode="normal" in="SourceGraphic" in2="effect1_dropShadow_4282_907" result="shape"/>
</filter>
<linearGradient id="paint0_linear_4282_907" x1="293.288" y1="36.3801" x2="244.276" y2="94.2954" gradientUnits="userSpaceOnUse">
<stop stop-color="#151825" stop-opacity="0.1"/>
<stop offset="0.736825" stop-color="#151825"/>
<stop offset="1" stop-color="#1A162E"/>
</linearGradient>
<linearGradient id="paint1_linear_4282_907" x1="247.966" y1="49.416" x2="304.636" y2="66.8019" gradientUnits="userSpaceOnUse">
<stop stop-color="#595D6C"/>
<stop offset="1" stop-color="#4A3B87" stop-opacity="0.18"/>
</linearGradient>
<linearGradient id="paint2_linear_4282_907" x1="0" y1="1.90625" x2="31.8125" y2="1.90625" gradientUnits="userSpaceOnUse">
<stop stop-opacity="0"/>
<stop offset="1"/>
</linearGradient>
<linearGradient id="paint3_linear_4282_907" x1="271.785" y1="83.8848" x2="254.023" y2="83.8848" gradientUnits="userSpaceOnUse">
<stop stop-opacity="0"/>
<stop offset="1"/>
</linearGradient>
<linearGradient id="paint4_linear_4282_907" x1="271.629" y1="92.9277" x2="253.867" y2="92.9277" gradientUnits="userSpaceOnUse">
<stop stop-opacity="0"/>
<stop offset="1"/>
</linearGradient>
<linearGradient id="paint5_linear_4282_907" x1="291.2" y1="84.3925" x2="296.188" y2="84.3996" gradientUnits="userSpaceOnUse">
<stop stop-color="#00C2FF"/>
<stop offset="1" stop-color="#FF29C3"/>
</linearGradient>
<linearGradient id="paint6_linear_4282_907" x1="283.321" y1="74.4238" x2="288.309" y2="74.4309" gradientUnits="userSpaceOnUse">
<stop stop-color="#00C2FF"/>
<stop offset="1" stop-color="#FF29C3"/>
</linearGradient>
<linearGradient id="paint7_linear_4282_907" x1="278.833" y1="78.912" x2="283.821" y2="78.9192" gradientUnits="userSpaceOnUse">
<stop stop-color="#00C2FF"/>
<stop offset="1" stop-color="#FF29C3"/>
</linearGradient>
<linearGradient id="paint8_linear_4282_907" x1="207.468" y1="-0.681489" x2="117.965" y2="120.634" gradientUnits="userSpaceOnUse">
<stop stop-color="#151825" stop-opacity="0.1"/>
<stop offset="0.736825" stop-color="#151825"/>
<stop offset="1" stop-color="#1A162E"/>
</linearGradient>
<linearGradient id="paint9_linear_4282_907" x1="164.427" y1="35.1633" x2="164.427" y2="133.942" gradientUnits="userSpaceOnUse">
<stop stop-color="#12B7FB" stop-opacity="0.1"/>
<stop offset="1" stop-color="#C34DD1"/>
</linearGradient>
<linearGradient id="paint10_linear_4282_907" x1="191.418" y1="24.7923" x2="131.528" y2="105.969" gradientUnits="userSpaceOnUse">
<stop stop-color="#151825" stop-opacity="0.1"/>
<stop offset="0.736825" stop-color="#151825"/>
<stop offset="1" stop-color="#1A162E"/>
</linearGradient>
<linearGradient id="paint11_linear_4282_907" x1="145.493" y1="77.3179" x2="145.493" y2="75.9452" gradientUnits="userSpaceOnUse">
<stop stop-color="#12B7FB" stop-opacity="0.1"/>
<stop offset="1" stop-color="#C34DD1"/>
</linearGradient>
<linearGradient id="paint12_linear_4282_907" x1="255.406" y1="76.75" x2="64.4684" y2="76.75" gradientUnits="userSpaceOnUse">
<stop stop-color="#12B7FB" stop-opacity="0.1"/>
<stop offset="0.490385" stop-color="#C34DD1"/>
<stop offset="1" stop-color="#12B7FB" stop-opacity="0.1"/>
</linearGradient>
<linearGradient id="paint13_linear_4282_907" x1="246.879" y1="-8.22521" x2="206.23" y2="25.5265" gradientUnits="userSpaceOnUse">
<stop stop-color="#12B7FB" stop-opacity="0.1"/>
<stop offset="1" stop-color="#C34DD1"/>
</linearGradient>
<linearGradient id="paint14_linear_4282_907" x1="246.879" y1="162.725" x2="206.23" y2="128.974" gradientUnits="userSpaceOnUse">
<stop stop-color="#12B7FB" stop-opacity="0.1"/>
<stop offset="1" stop-color="#C34DD1"/>
</linearGradient>
<linearGradient id="paint15_linear_4282_907" x1="74.1206" y1="-8.22521" x2="114.77" y2="25.5265" gradientUnits="userSpaceOnUse">
<stop stop-color="#12B7FB" stop-opacity="0.1"/>
<stop offset="1" stop-color="#C34DD1"/>
</linearGradient>
<linearGradient id="paint16_linear_4282_907" x1="74.1206" y1="162.725" x2="114.77" y2="128.974" gradientUnits="userSpaceOnUse">
<stop stop-color="#12B7FB" stop-opacity="0.1"/>
<stop offset="1" stop-color="#C34DD1"/>
</linearGradient>
<linearGradient id="paint17_linear_4282_907" x1="75.2011" y1="35.9501" x2="27.7436" y2="100.276" gradientUnits="userSpaceOnUse">
<stop stop-color="#151825" stop-opacity="0.1"/>
<stop offset="0.736825" stop-color="#151825"/>
<stop offset="1" stop-color="#1A162E"/>
</linearGradient>
<linearGradient id="paint18_linear_4282_907" x1="23.2426" y1="48.9791" x2="86.4934" y2="71.2371" gradientUnits="userSpaceOnUse">
<stop stop-color="#595D6C"/>
<stop offset="1" stop-color="#4A3B87" stop-opacity="0.18"/>
</linearGradient>
<clipPath id="clip0_4282_907">
<path d="M39.1953 66.708C39.1953 62.7913 42.3704 59.6162 46.2871 59.6162H52.6554C56.572 59.6162 59.7471 62.7913 59.7471 66.708V82.8722C59.7471 88.5474 55.1465 93.1481 49.4712 93.1481C43.796 93.1481 39.1953 88.5474 39.1953 82.8722V66.708Z" fill="white"/>
</clipPath>
</defs>
</svg>
