<svg width="297" height="52" viewBox="0 0 297 52" fill="none" xmlns="http://www.w3.org/2000/svg">
<path d="M8 52H274.5L297 39.9688V8H278V10.75H253V8H28.5L8 20.375V52Z" fill="#735AA9"/>
<path d="M292 1H271V3.75H248V1H22.2217L21.9834 1.14355L1.4834 13.5186L1 13.8105V47H268.751L268.972 46.8818L291.472 34.8506L292 34.5684V1Z" fill="url(#paint0_linear_4433_5104)" stroke="url(#paint1_linear_4433_5104)" stroke-width="2"/>
<path d="M47.052 19.083C47.7433 19.083 48.3497 19.2303 48.871 19.525C49.4037 19.8083 49.8117 20.2107 50.095 20.732C50.3897 21.2533 50.537 21.854 50.537 22.534C50.537 23.214 50.3897 23.809 50.095 24.319C49.8003 24.829 49.381 25.2257 48.837 25.509C48.3043 25.7923 47.6867 25.934 46.984 25.934H43.992C43.9467 25.934 43.924 25.9567 43.924 26.002V30.83C43.924 30.9433 43.8673 31 43.754 31H42.462C42.3487 31 42.292 30.9433 42.292 30.83V19.253C42.292 19.1397 42.3487 19.083 42.462 19.083H47.052ZM46.831 24.608C47.4543 24.608 47.953 24.421 48.327 24.047C48.7123 23.673 48.905 23.18 48.905 22.568C48.905 21.9447 48.7123 21.446 48.327 21.072C47.953 20.6867 47.4543 20.494 46.831 20.494H43.992C43.9467 20.494 43.924 20.5167 43.924 20.562V24.54C43.924 24.5853 43.9467 24.608 43.992 24.608H46.831ZM56.0581 22.262C56.4208 22.262 56.7495 22.3357 57.0441 22.483C57.1235 22.517 57.1518 22.585 57.1291 22.687L56.8571 23.962C56.8458 24.064 56.7778 24.098 56.6531 24.064C56.4605 23.9847 56.2338 23.945 55.9731 23.945L55.7351 23.962C55.2025 23.9847 54.7605 24.1717 54.4091 24.523C54.0691 24.863 53.8991 25.3107 53.8991 25.866V30.83C53.8991 30.9433 53.8425 31 53.7291 31H52.4371C52.3238 31 52.2671 30.9433 52.2671 30.83V22.517C52.2671 22.4037 52.3238 22.347 52.4371 22.347H53.7291C53.8425 22.347 53.8991 22.4037 53.8991 22.517V23.418C53.8991 23.452 53.9048 23.4747 53.9161 23.486C53.9388 23.486 53.9558 23.4747 53.9671 23.452C54.4771 22.6587 55.1741 22.262 56.0581 22.262ZM61.9789 31.136C61.1403 31.136 60.4093 30.9263 59.7859 30.507C59.1626 30.0763 58.7263 29.4813 58.4769 28.722C58.2729 28.11 58.1709 27.4187 58.1709 26.648C58.1709 25.8433 58.2673 25.1633 58.4599 24.608C58.7093 23.86 59.1456 23.2763 59.7689 22.857C60.3923 22.4263 61.1346 22.211 61.9959 22.211C62.8119 22.211 63.5203 22.4263 64.1209 22.857C64.7329 23.2763 65.1693 23.8543 65.4299 24.591C65.6339 25.169 65.7359 25.849 65.7359 26.631C65.7359 27.4243 65.6339 28.1213 65.4299 28.722C65.1806 29.4813 64.7499 30.0763 64.1379 30.507C63.5259 30.9263 62.8063 31.136 61.9789 31.136ZM61.9789 29.725C62.4323 29.725 62.8289 29.6003 63.1689 29.351C63.5089 29.0903 63.7526 28.7277 63.8999 28.263C64.0246 27.8323 64.0869 27.2997 64.0869 26.665C64.0869 26.0303 64.0303 25.5033 63.9169 25.084C63.7696 24.6193 63.5259 24.2623 63.1859 24.013C62.8459 23.7523 62.4323 23.622 61.9449 23.622C61.4803 23.622 61.0779 23.7523 60.7379 24.013C60.3979 24.2623 60.1543 24.6193 60.0069 25.084C59.8823 25.4807 59.8199 26.0077 59.8199 26.665C59.8199 27.3223 59.8823 27.855 60.0069 28.263C60.1429 28.7277 60.3809 29.0903 60.7209 29.351C61.0723 29.6003 61.4916 29.725 61.9789 29.725ZM71.9902 23.52C71.9902 23.6333 71.9335 23.69 71.8202 23.69H69.9842C69.9389 23.69 69.9162 23.7127 69.9162 23.758V28.263C69.9162 28.739 70.0239 29.0847 70.2392 29.3C70.4545 29.504 70.7889 29.606 71.2422 29.606H71.7352C71.8485 29.606 71.9052 29.6627 71.9052 29.776V30.83C71.9052 30.9433 71.8485 31 71.7352 31C71.3725 31.0227 71.1119 31.034 70.9532 31.034C70.0919 31.034 69.4402 30.881 68.9982 30.575C68.5675 30.2577 68.3522 29.6797 68.3522 28.841V23.758C68.3522 23.7127 68.3295 23.69 68.2842 23.69H67.2472C67.1339 23.69 67.0772 23.6333 67.0772 23.52V22.517C67.0772 22.4037 67.1339 22.347 67.2472 22.347H68.2842C68.3295 22.347 68.3522 22.3243 68.3522 22.279V20.273C68.3522 20.1597 68.4089 20.103 68.5222 20.103H69.7462C69.8595 20.103 69.9162 20.1597 69.9162 20.273V22.279C69.9162 22.3243 69.9389 22.347 69.9842 22.347H71.8202C71.9335 22.347 71.9902 22.4037 71.9902 22.517V23.52ZM80.8034 25.594C80.8487 26.0587 80.8657 26.58 80.8544 27.158C80.8544 27.2713 80.7977 27.328 80.6844 27.328H75.2614C75.216 27.328 75.1934 27.3507 75.1934 27.396C75.1934 27.7813 75.2274 28.076 75.2954 28.28C75.42 28.7333 75.6694 29.0903 76.0434 29.351C76.4287 29.6003 76.9104 29.725 77.4884 29.725C78.327 29.725 78.973 29.3793 79.4264 28.688C79.483 28.5747 79.5567 28.5577 79.6474 28.637L80.6164 29.283C80.6957 29.351 80.7127 29.4247 80.6674 29.504C80.35 30.014 79.8967 30.4163 79.3074 30.711C78.7294 31.0057 78.072 31.153 77.3354 31.153C76.508 31.153 75.811 30.9717 75.2444 30.609C74.6777 30.2463 74.2527 29.7307 73.9694 29.062C73.6974 28.3933 73.5614 27.583 73.5614 26.631C73.5614 25.8037 73.6237 25.1747 73.7484 24.744C73.9524 23.962 74.3604 23.3443 74.9724 22.891C75.5844 22.4377 76.3267 22.211 77.1994 22.211C78.344 22.211 79.1997 22.5 79.7664 23.078C80.333 23.6447 80.6787 24.4833 80.8034 25.594ZM77.1994 23.622C76.712 23.622 76.3097 23.7467 75.9924 23.996C75.675 24.234 75.4597 24.557 75.3464 24.965C75.267 25.2143 75.216 25.5317 75.1934 25.917C75.1934 25.9623 75.216 25.985 75.2614 25.985H79.1544C79.1997 25.985 79.2224 25.9623 79.2224 25.917C79.1997 25.543 79.1657 25.2653 79.1204 25.084C79.007 24.642 78.7804 24.2907 78.4404 24.03C78.1117 23.758 77.698 23.622 77.1994 23.622ZM86.3816 31.136C85.5203 31.136 84.7836 30.9207 84.1716 30.49C83.5596 30.048 83.1403 29.453 82.9136 28.705C82.7436 28.1837 82.6586 27.498 82.6586 26.648C82.6586 25.866 82.7436 25.1803 82.9136 24.591C83.1403 23.8657 83.5596 23.2877 84.1716 22.857C84.795 22.4263 85.5316 22.211 86.3816 22.211C87.2316 22.211 87.974 22.4263 88.6086 22.857C89.2433 23.2877 89.657 23.8317 89.8496 24.489C89.9176 24.6703 89.963 24.8573 89.9856 25.05C89.9856 25.1407 89.9346 25.1973 89.8326 25.22L88.5576 25.407H88.5236C88.4443 25.407 88.3876 25.356 88.3536 25.254L88.3026 24.982C88.212 24.5967 87.991 24.2737 87.6396 24.013C87.2883 23.7523 86.8633 23.622 86.3646 23.622C85.8773 23.622 85.4636 23.7523 85.1236 24.013C84.7836 24.2737 84.5626 24.6193 84.4606 25.05C84.3586 25.458 84.3076 25.9963 84.3076 26.665C84.3076 27.3223 84.3586 27.855 84.4606 28.263C84.574 28.7163 84.795 29.0733 85.1236 29.334C85.4636 29.5947 85.8773 29.725 86.3646 29.725C86.8633 29.725 87.2883 29.5947 87.6396 29.334C88.0023 29.0733 88.229 28.7333 88.3196 28.314C88.331 28.3027 88.331 28.2913 88.3196 28.28C88.3196 28.2573 88.3253 28.2403 88.3366 28.229V28.161C88.3706 28.0703 88.433 28.0363 88.5236 28.059L89.7986 28.263C89.8893 28.2857 89.9346 28.331 89.9346 28.399V28.467C89.9346 28.569 89.9063 28.6937 89.8496 28.841C89.657 29.5323 89.2433 30.0877 88.6086 30.507C87.974 30.9263 87.2316 31.136 86.3816 31.136ZM96.1289 23.52C96.1289 23.6333 96.0722 23.69 95.9589 23.69H94.1229C94.0775 23.69 94.0549 23.7127 94.0549 23.758V28.263C94.0549 28.739 94.1625 29.0847 94.3779 29.3C94.5932 29.504 94.9275 29.606 95.3809 29.606H95.8739C95.9872 29.606 96.0439 29.6627 96.0439 29.776V30.83C96.0439 30.9433 95.9872 31 95.8739 31C95.5112 31.0227 95.2505 31.034 95.0919 31.034C94.2305 31.034 93.5789 30.881 93.1369 30.575C92.7062 30.2577 92.4909 29.6797 92.4909 28.841V23.758C92.4909 23.7127 92.4682 23.69 92.4229 23.69H91.3859C91.2725 23.69 91.2159 23.6333 91.2159 23.52V22.517C91.2159 22.4037 91.2725 22.347 91.3859 22.347H92.4229C92.4682 22.347 92.4909 22.3243 92.4909 22.279V20.273C92.4909 20.1597 92.5475 20.103 92.6609 20.103H93.8849C93.9982 20.103 94.0549 20.1597 94.0549 20.273V22.279C94.0549 22.3243 94.0775 22.347 94.1229 22.347H95.9589C96.0722 22.347 96.1289 22.4037 96.1289 22.517V23.52ZM109.446 19.202C109.502 19.134 109.57 19.1 109.65 19.1H110.942C111.055 19.1 111.112 19.1567 111.112 19.27V30.83C111.112 30.9433 111.055 31 110.942 31H109.65C109.536 31 109.48 30.9433 109.48 30.83V22.126C109.48 22.092 109.468 22.0693 109.446 22.058C109.423 22.0467 109.406 22.058 109.395 22.092L106.964 25.798C106.918 25.866 106.85 25.9 106.76 25.9H106.114C106.034 25.9 105.966 25.866 105.91 25.798L103.462 22.126C103.45 22.092 103.433 22.0807 103.411 22.092C103.388 22.1033 103.377 22.126 103.377 22.16V30.83C103.377 30.9433 103.32 31 103.207 31H101.915C101.801 31 101.745 30.9433 101.745 30.83V19.27C101.745 19.1567 101.801 19.1 101.915 19.1H103.207C103.297 19.1 103.365 19.134 103.411 19.202L106.386 23.656C106.397 23.6673 106.414 23.673 106.437 23.673C106.459 23.673 106.476 23.6673 106.488 23.656L109.446 19.202ZM113.438 34.383C113.359 34.383 113.319 34.3263 113.319 34.213V33.21C113.319 33.0967 113.376 33.04 113.489 33.04H113.523C113.976 33.0287 114.333 32.972 114.594 32.87C114.855 32.768 115.07 32.5753 115.24 32.292C115.41 32.02 115.574 31.6063 115.733 31.051C115.744 31.0397 115.744 31.0227 115.733 31C115.733 30.966 115.733 30.949 115.733 30.949L112.894 22.534L112.877 22.466C112.877 22.3867 112.928 22.347 113.03 22.347H114.407C114.509 22.347 114.577 22.3923 114.611 22.483L116.532 28.892C116.543 28.9147 116.56 28.926 116.583 28.926C116.606 28.926 116.623 28.9147 116.634 28.892L118.538 22.483C118.572 22.3923 118.64 22.347 118.742 22.347H120.085C120.21 22.347 120.255 22.4093 120.221 22.534L117.127 31.595C116.866 32.377 116.606 32.955 116.345 33.329C116.084 33.7143 115.744 33.9863 115.325 34.145C114.906 34.3037 114.316 34.383 113.557 34.383H113.438ZM129.21 31.136C128.394 31.136 127.669 30.9773 127.034 30.66C126.411 30.3313 125.924 29.8723 125.572 29.283C125.232 28.6823 125.062 27.9967 125.062 27.226V22.874C125.062 22.092 125.232 21.4063 125.572 20.817C125.924 20.2277 126.411 19.7743 127.034 19.457C127.669 19.1283 128.394 18.964 129.21 18.964C130.026 18.964 130.746 19.1227 131.369 19.44C131.993 19.7573 132.474 20.1993 132.814 20.766C133.166 21.3213 133.341 21.9503 133.341 22.653V22.84C133.341 22.9533 133.285 23.01 133.171 23.01H131.879C131.766 23.01 131.709 22.9533 131.709 22.84V22.687C131.709 22.007 131.477 21.4573 131.012 21.038C130.559 20.6073 129.958 20.392 129.21 20.392C128.451 20.392 127.839 20.613 127.374 21.055C126.921 21.497 126.694 22.0863 126.694 22.823V27.277C126.694 28.0137 126.932 28.603 127.408 29.045C127.884 29.487 128.508 29.708 129.278 29.708C130.026 29.708 130.616 29.5153 131.046 29.13C131.488 28.7333 131.709 28.195 131.709 27.515V26.206C131.709 26.1607 131.687 26.138 131.641 26.138H129.346C129.233 26.138 129.176 26.0813 129.176 25.968V24.914C129.176 24.8007 129.233 24.744 129.346 24.744H133.171C133.285 24.744 133.341 24.8007 133.341 24.914V27.073C133.341 28.3763 132.967 29.3793 132.219 30.082C131.483 30.7847 130.48 31.136 129.21 31.136ZM138.669 22.211C139.361 22.211 139.961 22.3357 140.471 22.585C140.993 22.823 141.389 23.163 141.661 23.605C141.945 24.0357 142.086 24.5287 142.086 25.084V30.83C142.086 30.9433 142.03 31 141.916 31H140.624C140.511 31 140.454 30.9433 140.454 30.83V30.218C140.454 30.1613 140.426 30.15 140.369 30.184C140.075 30.49 139.712 30.728 139.281 30.898C138.862 31.0567 138.392 31.136 137.87 31.136C137.032 31.136 136.335 30.9263 135.779 30.507C135.235 30.0763 134.963 29.4303 134.963 28.569C134.963 27.685 135.269 26.9937 135.881 26.495C136.505 25.985 137.372 25.73 138.482 25.73H140.386C140.432 25.73 140.454 25.7073 140.454 25.662V25.203C140.454 24.7043 140.307 24.319 140.012 24.047C139.729 23.7637 139.293 23.622 138.703 23.622C138.227 23.622 137.836 23.7183 137.53 23.911C137.236 24.0923 137.054 24.3417 136.986 24.659C136.952 24.7723 136.884 24.8233 136.782 24.812L135.405 24.625C135.292 24.6023 135.241 24.557 135.252 24.489C135.343 23.8203 135.7 23.2763 136.323 22.857C136.947 22.4263 137.729 22.211 138.669 22.211ZM138.227 29.759C138.828 29.759 139.349 29.6003 139.791 29.283C140.233 28.9657 140.454 28.5633 140.454 28.076V27.073C140.454 27.0277 140.432 27.005 140.386 27.005H138.788C138.12 27.005 137.587 27.1353 137.19 27.396C136.794 27.6567 136.595 28.0193 136.595 28.484C136.595 28.9033 136.743 29.2207 137.037 29.436C137.343 29.6513 137.74 29.759 138.227 29.759ZM153.283 22.228C154.144 22.228 154.824 22.4887 155.323 23.01C155.821 23.52 156.071 24.234 156.071 25.152V30.83C156.071 30.9433 156.014 31 155.901 31H154.626C154.512 31 154.456 30.9433 154.456 30.83V25.492C154.456 24.9253 154.297 24.4777 153.98 24.149C153.674 23.809 153.26 23.639 152.739 23.639C152.217 23.639 151.792 23.8033 151.464 24.132C151.135 24.4607 150.971 24.9027 150.971 25.458V30.83C150.971 30.9433 150.914 31 150.801 31H149.526C149.412 31 149.356 30.9433 149.356 30.83V25.492C149.356 24.9253 149.197 24.4777 148.88 24.149C148.574 23.809 148.16 23.639 147.639 23.639C147.117 23.639 146.698 23.8033 146.381 24.132C146.075 24.4607 145.922 24.9027 145.922 25.458V30.83C145.922 30.9433 145.865 31 145.752 31H144.46C144.346 31 144.29 30.9433 144.29 30.83V22.517C144.29 22.4037 144.346 22.347 144.46 22.347H145.752C145.865 22.347 145.922 22.4037 145.922 22.517V23.095C145.922 23.1177 145.927 23.1347 145.939 23.146C145.961 23.1573 145.984 23.1517 146.007 23.129C146.505 22.5283 147.231 22.228 148.183 22.228C148.761 22.228 149.254 22.3413 149.662 22.568C150.07 22.7833 150.387 23.1063 150.614 23.537C150.648 23.5823 150.682 23.5823 150.716 23.537C150.988 23.095 151.345 22.7663 151.787 22.551C152.24 22.3357 152.739 22.228 153.283 22.228ZM159.321 20.987C159.003 20.987 158.743 20.885 158.539 20.681C158.335 20.477 158.233 20.2163 158.233 19.899C158.233 19.5817 158.335 19.321 158.539 19.117C158.743 18.913 159.003 18.811 159.321 18.811C159.638 18.811 159.899 18.913 160.103 19.117C160.307 19.321 160.409 19.5817 160.409 19.899C160.409 20.2163 160.307 20.477 160.103 20.681C159.899 20.885 159.638 20.987 159.321 20.987ZM158.641 30.983C158.527 30.983 158.471 30.9263 158.471 30.813V22.517C158.471 22.4037 158.527 22.347 158.641 22.347H159.933C160.046 22.347 160.103 22.4037 160.103 22.517V30.813C160.103 30.9263 160.046 30.983 159.933 30.983H158.641ZM166.527 22.228C167.456 22.228 168.193 22.5 168.737 23.044C169.281 23.5767 169.553 24.302 169.553 25.22V30.83C169.553 30.9433 169.496 31 169.383 31H168.091C167.977 31 167.921 30.9433 167.921 30.83V25.543C167.921 24.9763 167.756 24.5173 167.428 24.166C167.099 23.8147 166.663 23.639 166.119 23.639C165.586 23.639 165.15 23.8147 164.81 24.166C164.47 24.5173 164.3 24.9707 164.3 25.526V30.83C164.3 30.9433 164.243 31 164.13 31H162.838C162.724 31 162.668 30.9433 162.668 30.83V22.517C162.668 22.4037 162.724 22.347 162.838 22.347H164.13C164.243 22.347 164.3 22.4037 164.3 22.517V23.129C164.3 23.1517 164.305 23.1687 164.317 23.18C164.339 23.1913 164.356 23.1857 164.368 23.163C164.855 22.5397 165.575 22.228 166.527 22.228ZM177.202 22.517C177.202 22.4037 177.259 22.347 177.372 22.347H178.664C178.778 22.347 178.834 22.4037 178.834 22.517V30.558C178.834 31.9293 178.443 32.9097 177.661 33.499C176.891 34.0883 175.854 34.383 174.55 34.383C174.369 34.383 174.086 34.3717 173.7 34.349C173.587 34.3377 173.53 34.2753 173.53 34.162L173.581 32.989C173.581 32.9437 173.598 32.904 173.632 32.87C173.666 32.836 173.712 32.8247 173.768 32.836C173.927 32.8473 174.159 32.853 174.465 32.853C175.429 32.853 176.126 32.6717 176.556 32.309C176.987 31.9577 177.202 31.357 177.202 30.507V30.201C177.202 30.1783 177.191 30.1613 177.168 30.15C177.157 30.1387 177.14 30.1443 177.117 30.167C176.641 30.7223 175.944 31 175.026 31C174.29 31 173.621 30.8073 173.02 30.422C172.431 30.0367 172.023 29.47 171.796 28.722C171.649 28.2233 171.575 27.532 171.575 26.648C171.575 25.7073 171.66 24.982 171.83 24.472C172.046 23.792 172.425 23.248 172.969 22.84C173.525 22.4207 174.176 22.211 174.924 22.211C175.854 22.211 176.585 22.4943 177.117 23.061C177.14 23.0837 177.157 23.095 177.168 23.095C177.191 23.0837 177.202 23.0667 177.202 23.044V22.517ZM177.1 28.229C177.134 28.0477 177.157 27.855 177.168 27.651C177.191 27.447 177.202 27.107 177.202 26.631C177.202 26.155 177.191 25.8207 177.168 25.628C177.157 25.424 177.129 25.2313 177.083 25.05C176.993 24.6307 176.789 24.2907 176.471 24.03C176.154 23.758 175.757 23.622 175.281 23.622C174.805 23.622 174.409 23.758 174.091 24.03C173.774 24.2907 173.547 24.6307 173.411 25.05C173.287 25.39 173.224 25.917 173.224 26.631C173.224 27.413 173.281 27.9457 173.394 28.229C173.508 28.6483 173.729 28.994 174.057 29.266C174.397 29.5267 174.805 29.657 175.281 29.657C175.78 29.657 176.182 29.5267 176.488 29.266C176.806 28.994 177.01 28.6483 177.1 28.229ZM189.377 19.083C190.069 19.083 190.675 19.2303 191.196 19.525C191.729 19.8083 192.137 20.2107 192.42 20.732C192.715 21.2533 192.862 21.854 192.862 22.534C192.862 23.214 192.715 23.809 192.42 24.319C192.126 24.829 191.706 25.2257 191.162 25.509C190.63 25.7923 190.012 25.934 189.309 25.934H186.317C186.272 25.934 186.249 25.9567 186.249 26.002V30.83C186.249 30.9433 186.193 31 186.079 31H184.787C184.674 31 184.617 30.9433 184.617 30.83V19.253C184.617 19.1397 184.674 19.083 184.787 19.083H189.377ZM189.156 24.608C189.78 24.608 190.278 24.421 190.652 24.047C191.038 23.673 191.23 23.18 191.23 22.568C191.23 21.9447 191.038 21.446 190.652 21.072C190.278 20.6867 189.78 20.494 189.156 20.494H186.317C186.272 20.494 186.249 20.5167 186.249 20.562V24.54C186.249 24.5853 186.272 24.608 186.317 24.608H189.156ZM194.762 31C194.649 31 194.592 30.9433 194.592 30.83V19.27C194.592 19.1567 194.649 19.1 194.762 19.1H196.054C196.168 19.1 196.224 19.1567 196.224 19.27V30.83C196.224 30.9433 196.168 31 196.054 31H194.762ZM201.755 22.211C202.447 22.211 203.047 22.3357 203.557 22.585C204.079 22.823 204.475 23.163 204.747 23.605C205.031 24.0357 205.172 24.5287 205.172 25.084V30.83C205.172 30.9433 205.116 31 205.002 31H203.71C203.597 31 203.54 30.9433 203.54 30.83V30.218C203.54 30.1613 203.512 30.15 203.455 30.184C203.161 30.49 202.798 30.728 202.367 30.898C201.948 31.0567 201.478 31.136 200.956 31.136C200.118 31.136 199.421 30.9263 198.865 30.507C198.321 30.0763 198.049 29.4303 198.049 28.569C198.049 27.685 198.355 26.9937 198.967 26.495C199.591 25.985 200.458 25.73 201.568 25.73H203.472C203.518 25.73 203.54 25.7073 203.54 25.662V25.203C203.54 24.7043 203.393 24.319 203.098 24.047C202.815 23.7637 202.379 23.622 201.789 23.622C201.313 23.622 200.922 23.7183 200.616 23.911C200.322 24.0923 200.14 24.3417 200.072 24.659C200.038 24.7723 199.97 24.8233 199.868 24.812L198.491 24.625C198.378 24.6023 198.327 24.557 198.338 24.489C198.429 23.8203 198.786 23.2763 199.409 22.857C200.033 22.4263 200.815 22.211 201.755 22.211ZM201.313 29.759C201.914 29.759 202.435 29.6003 202.877 29.283C203.319 28.9657 203.54 28.5633 203.54 28.076V27.073C203.54 27.0277 203.518 27.005 203.472 27.005H201.874C201.206 27.005 200.673 27.1353 200.276 27.396C199.88 27.6567 199.681 28.0193 199.681 28.484C199.681 28.9033 199.829 29.2207 200.123 29.436C200.429 29.6513 200.826 29.759 201.313 29.759ZM211.526 23.52C211.526 23.6333 211.47 23.69 211.356 23.69H209.52C209.475 23.69 209.452 23.7127 209.452 23.758V28.263C209.452 28.739 209.56 29.0847 209.775 29.3C209.991 29.504 210.325 29.606 210.778 29.606H211.271C211.385 29.606 211.441 29.6627 211.441 29.776V30.83C211.441 30.9433 211.385 31 211.271 31C210.909 31.0227 210.648 31.034 210.489 31.034C209.628 31.034 208.976 30.881 208.534 30.575C208.104 30.2577 207.888 29.6797 207.888 28.841V23.758C207.888 23.7127 207.866 23.69 207.82 23.69H206.783C206.67 23.69 206.613 23.6333 206.613 23.52V22.517C206.613 22.4037 206.67 22.347 206.783 22.347H207.82C207.866 22.347 207.888 22.3243 207.888 22.279V20.273C207.888 20.1597 207.945 20.103 208.058 20.103H209.282C209.396 20.103 209.452 20.1597 209.452 20.273V22.279C209.452 22.3243 209.475 22.347 209.52 22.347H211.356C211.47 22.347 211.526 22.4037 211.526 22.517V23.52ZM217.343 20.528C216.776 20.528 216.391 20.6357 216.187 20.851C215.983 21.0663 215.881 21.4743 215.881 22.075V22.279C215.881 22.3243 215.903 22.347 215.949 22.347H217.734C217.847 22.347 217.904 22.4037 217.904 22.517V23.673C217.904 23.7863 217.847 23.843 217.734 23.843H215.949C215.903 23.843 215.881 23.8657 215.881 23.911V30.83C215.881 30.9433 215.824 31 215.711 31H214.419C214.305 31 214.249 30.9433 214.249 30.83V23.911C214.249 23.8657 214.226 23.843 214.181 23.843H213.042C212.928 23.843 212.872 23.7863 212.872 23.673V22.517C212.872 22.4037 212.928 22.347 213.042 22.347H214.181C214.226 22.347 214.249 22.3243 214.249 22.279V21.973C214.249 21.225 214.334 20.647 214.504 20.239C214.685 19.831 214.985 19.542 215.405 19.372C215.824 19.1907 216.413 19.1 217.173 19.1H217.751C217.864 19.1 217.921 19.1567 217.921 19.27V20.358C217.921 20.4713 217.864 20.528 217.751 20.528H217.343ZM222.616 31.136C221.777 31.136 221.046 30.9263 220.423 30.507C219.799 30.0763 219.363 29.4813 219.114 28.722C218.91 28.11 218.808 27.4187 218.808 26.648C218.808 25.8433 218.904 25.1633 219.097 24.608C219.346 23.86 219.782 23.2763 220.406 22.857C221.029 22.4263 221.771 22.211 222.633 22.211C223.449 22.211 224.157 22.4263 224.758 22.857C225.37 23.2763 225.806 23.8543 226.067 24.591C226.271 25.169 226.373 25.849 226.373 26.631C226.373 27.4243 226.271 28.1213 226.067 28.722C225.817 29.4813 225.387 30.0763 224.775 30.507C224.163 30.9263 223.443 31.136 222.616 31.136ZM222.616 29.725C223.069 29.725 223.466 29.6003 223.806 29.351C224.146 29.0903 224.389 28.7277 224.537 28.263C224.661 27.8323 224.724 27.2997 224.724 26.665C224.724 26.0303 224.667 25.5033 224.554 25.084C224.406 24.6193 224.163 24.2623 223.823 24.013C223.483 23.7523 223.069 23.622 222.582 23.622C222.117 23.622 221.715 23.7523 221.375 24.013C221.035 24.2623 220.791 24.6193 220.644 25.084C220.519 25.4807 220.457 26.0077 220.457 26.665C220.457 27.3223 220.519 27.855 220.644 28.263C220.78 28.7277 221.018 29.0903 221.358 29.351C221.709 29.6003 222.128 29.725 222.616 29.725ZM232.3 22.262C232.663 22.262 232.992 22.3357 233.286 22.483C233.366 22.517 233.394 22.585 233.371 22.687L233.099 23.962C233.088 24.064 233.02 24.098 232.895 24.064C232.703 23.9847 232.476 23.945 232.215 23.945L231.977 23.962C231.445 23.9847 231.003 24.1717 230.651 24.523C230.311 24.863 230.141 25.3107 230.141 25.866V30.83C230.141 30.9433 230.085 31 229.971 31H228.679C228.566 31 228.509 30.9433 228.509 30.83V22.517C228.509 22.4037 228.566 22.347 228.679 22.347H229.971C230.085 22.347 230.141 22.4037 230.141 22.517V23.418C230.141 23.452 230.147 23.4747 230.158 23.486C230.181 23.486 230.198 23.4747 230.209 23.452C230.719 22.6587 231.416 22.262 232.3 22.262ZM243.811 22.228C244.672 22.228 245.352 22.4887 245.851 23.01C246.35 23.52 246.599 24.234 246.599 25.152V30.83C246.599 30.9433 246.542 31 246.429 31H245.154C245.041 31 244.984 30.9433 244.984 30.83V25.492C244.984 24.9253 244.825 24.4777 244.508 24.149C244.202 23.809 243.788 23.639 243.267 23.639C242.746 23.639 242.321 23.8033 241.992 24.132C241.663 24.4607 241.499 24.9027 241.499 25.458V30.83C241.499 30.9433 241.442 31 241.329 31H240.054C239.941 31 239.884 30.9433 239.884 30.83V25.492C239.884 24.9253 239.725 24.4777 239.408 24.149C239.102 23.809 238.688 23.639 238.167 23.639C237.646 23.639 237.226 23.8033 236.909 24.132C236.603 24.4607 236.45 24.9027 236.45 25.458V30.83C236.45 30.9433 236.393 31 236.28 31H234.988C234.875 31 234.818 30.9433 234.818 30.83V22.517C234.818 22.4037 234.875 22.347 234.988 22.347H236.28C236.393 22.347 236.45 22.4037 236.45 22.517V23.095C236.45 23.1177 236.456 23.1347 236.467 23.146C236.49 23.1573 236.512 23.1517 236.535 23.129C237.034 22.5283 237.759 22.228 238.711 22.228C239.289 22.228 239.782 22.3413 240.19 22.568C240.598 22.7833 240.915 23.1063 241.142 23.537C241.176 23.5823 241.21 23.5823 241.244 23.537C241.516 23.095 241.873 22.7663 242.315 22.551C242.768 22.3357 243.267 22.228 243.811 22.228Z" fill="#0D0128"/>
<defs>
<linearGradient id="paint0_linear_4433_5104" x1="291" y1="24" x2="2" y2="24" gradientUnits="userSpaceOnUse">
<stop stop-color="#AA83FF"/>
<stop offset="1" stop-color="#D0FFCC"/>
</linearGradient>
<linearGradient id="paint1_linear_4433_5104" x1="291" y1="24" x2="2" y2="24" gradientUnits="userSpaceOnUse">
<stop stop-color="#C7ADFF"/>
<stop offset="1" stop-color="#776899" stop-opacity="0"/>
</linearGradient>
</defs>
</svg>
