<svg width="340" height="236" viewBox="0 0 340 236" fill="none" xmlns="http://www.w3.org/2000/svg">
<path opacity="0.2" d="M187.934 135L187.934 196.764L221.72 222.382L238.613 235.191L99.0827 235.191L114.659 222.382L145.812 196.764L145.812 135L187.934 135Z" fill="#282828"/>
<rect opacity="0.4" x="244.406" y="71.7523" width="86.5291" height="85.4609" rx="4.95213" fill="#282828"/>
<g filter="url(#filter0_d_4701_1993)">
<path d="M315.015 85.0142H264.46C264.232 85.0142 264.047 85.2263 264.047 85.488V143.476C264.047 143.738 264.232 143.95 264.46 143.95H315.015C315.243 143.95 315.428 143.738 315.428 143.476V85.488C315.428 85.2263 315.243 85.0142 315.015 85.0142Z" fill="url(#paint0_linear_4701_1993)" shape-rendering="crispEdges"/>
<path d="M264.46 85.2808H315.015C315.062 85.2808 315.161 85.3382 315.161 85.4878V143.476C315.161 143.626 315.062 143.683 315.015 143.683H264.46C264.413 143.683 264.313 143.626 264.313 143.476V85.4878C264.314 85.3382 264.413 85.2808 264.46 85.2808Z" stroke="url(#paint1_linear_4701_1993)" stroke-width="0.534131" shape-rendering="crispEdges"/>
</g>
<rect width="33.9841" height="4.07275" rx="1.06826" transform="matrix(-1 0 0 1 305.727 110.187)" fill="url(#paint2_linear_4701_1993)"/>
<path d="M290.719 120.867C290.719 120.277 290.24 119.799 289.65 119.799H272.813C272.223 119.799 271.745 120.277 271.745 120.867V122.804C271.745 123.394 272.223 123.872 272.813 123.872H289.65C290.24 123.872 290.719 123.394 290.719 122.804V120.867Z" fill="url(#paint3_linear_4701_1993)"/>
<path d="M290.547 130.529C290.547 129.939 290.069 129.461 289.479 129.461H272.641C272.051 129.461 271.573 129.939 271.573 130.529V132.465C271.573 133.055 272.051 133.534 272.641 133.534H289.479C290.069 133.534 290.547 133.055 290.547 132.465V130.529Z" fill="url(#paint4_linear_4701_1993)"/>
<path d="M316.304 117.551L299.624 134.14L295.797 130.292L312.477 113.704L316.304 117.551ZM310.084 119.154L310.837 119.911L313.109 117.651L312.356 116.894L310.084 119.154Z" fill="#C1C1C1"/>
<path d="M314.19 122.377L315.162 123.989L316.774 124.961L315.162 125.933L314.19 127.545L313.217 125.933L311.605 124.961L313.217 123.989L314.19 122.377Z" fill="#C1C1C1"/>
<path d="M305.768 111.729L306.74 113.341L308.352 114.313L306.74 115.285L305.768 116.897L304.796 115.285L303.184 114.313L304.796 113.341L305.768 111.729Z" fill="#C1C1C1"/>
<path d="M300.971 116.522L301.943 118.134L303.555 119.106L301.943 120.078L300.971 121.69L299.999 120.078L298.387 119.106L299.999 118.134L300.971 116.522Z" fill="#C1C1C1"/>
<rect opacity="0.4" x="10" y="71.7274" width="86.5291" height="85.4609" rx="4.95213" fill="#282828"/>
<g filter="url(#filter1_d_4701_1993)">
<circle cx="53.2648" cy="114" r="29.4523" fill="url(#paint5_linear_4701_1993)" shape-rendering="crispEdges"/>
<circle cx="53.2648" cy="114" r="29.1852" stroke="url(#paint6_linear_4701_1993)" stroke-width="0.534131" shape-rendering="crispEdges"/>
</g>
<g clip-path="url(#clip0_4701_1993)">
<path d="M52.9032 95.9136L52.6562 96.7141V119.944L52.9032 120.179L64.2114 113.805L52.9032 95.9136Z" fill="#343434"/>
<path d="M52.6652 95.9136L42.2656 113.805L52.6652 120.179V108.904V95.9136Z" fill="#8C8C8C"/>
<path d="M52.7967 123.009L52.6562 123.169V131.35L52.7967 131.733L64.2114 116.711L52.7967 123.009Z" fill="#3C3C3B"/>
<path d="M52.6652 131.733V123.009L42.2656 116.711L52.6652 131.733Z" fill="#8C8C8C"/>
<path d="M52.6562 120.175L63.0559 113.643L52.6562 108.62V120.175Z" fill="#141414"/>
<path d="M42.2656 113.643L52.6652 120.175V108.62L42.2656 113.643Z" fill="#393939"/>
</g>
<path d="M137.763 87.9101C137.282 87.9101 136.86 87.8349 136.499 87.6844C136.138 87.5279 135.858 87.3082 135.66 87.0254C135.467 86.7365 135.371 86.4024 135.371 86.0232V85.8246C135.371 85.7945 135.38 85.7705 135.398 85.7524C135.422 85.7283 135.449 85.7163 135.479 85.7163H136.508C136.538 85.7163 136.563 85.7283 136.581 85.7524C136.605 85.7705 136.617 85.7945 136.617 85.8246V85.96C136.617 86.2008 136.728 86.4054 136.951 86.574C137.173 86.7365 137.474 86.8177 137.854 86.8177C138.173 86.8177 138.41 86.7515 138.567 86.6191C138.723 86.4807 138.801 86.3121 138.801 86.1135C138.801 85.9691 138.753 85.8487 138.657 85.7524C138.561 85.6501 138.428 85.5628 138.26 85.4906C138.097 85.4123 137.835 85.307 137.474 85.1746C137.071 85.0362 136.728 84.8947 136.445 84.7503C136.168 84.6058 135.934 84.4102 135.741 84.1634C135.554 83.9107 135.461 83.6007 135.461 83.2335C135.461 82.8724 135.554 82.5564 135.741 82.2856C135.928 82.0148 136.186 81.8071 136.517 81.6627C136.848 81.5182 137.231 81.446 137.664 81.446C138.121 81.446 138.528 81.5272 138.883 81.6897C139.244 81.8522 139.524 82.081 139.722 82.3759C139.927 82.6648 140.029 83.0018 140.029 83.387V83.5224C140.029 83.5525 140.017 83.5796 139.993 83.6037C139.975 83.6218 139.951 83.6308 139.921 83.6308H138.883C138.853 83.6308 138.826 83.6218 138.801 83.6037C138.783 83.5796 138.774 83.5525 138.774 83.5224V83.4502C138.774 83.1974 138.669 82.9838 138.458 82.8092C138.254 82.6287 137.971 82.5384 137.61 82.5384C137.327 82.5384 137.104 82.5986 136.942 82.7189C136.785 82.8393 136.707 83.0048 136.707 83.2155C136.707 83.366 136.752 83.4924 136.842 83.5947C136.939 83.697 137.077 83.7903 137.258 83.8745C137.444 83.9528 137.73 84.0611 138.115 84.1996C138.543 84.356 138.877 84.4945 139.117 84.6149C139.364 84.7352 139.584 84.9158 139.777 85.1565C139.975 85.3913 140.074 85.6982 140.074 86.0774C140.074 86.6432 139.867 87.0916 139.452 87.4226C139.036 87.7476 138.473 87.9101 137.763 87.9101ZM144.026 87.9372C143.557 87.9372 143.142 87.8409 142.78 87.6483C142.425 87.4557 142.148 87.1879 141.95 86.8448C141.751 86.4957 141.652 86.0955 141.652 85.6441V83.712C141.652 83.2667 141.751 82.8724 141.95 82.5294C142.148 82.1863 142.425 81.9215 142.78 81.7349C143.142 81.5423 143.557 81.446 144.026 81.446C144.502 81.446 144.917 81.5423 145.272 81.7349C145.633 81.9215 145.913 82.1863 146.112 82.5294C146.31 82.8724 146.41 83.2667 146.41 83.712V85.6441C146.41 86.0955 146.31 86.4957 146.112 86.8448C145.913 87.1939 145.633 87.4647 145.272 87.6573C144.917 87.8439 144.502 87.9372 144.026 87.9372ZM144.026 86.8448C144.357 86.8448 144.625 86.7395 144.83 86.5288C145.034 86.3182 145.137 86.0383 145.137 85.6892V83.703C145.137 83.3539 145.034 83.0741 144.83 82.8634C144.631 82.6467 144.363 82.5384 144.026 82.5384C143.695 82.5384 143.427 82.6467 143.223 82.8634C143.024 83.0741 142.925 83.3539 142.925 83.703V85.6892C142.925 86.0383 143.024 86.3182 143.223 86.5288C143.427 86.7395 143.695 86.8448 144.026 86.8448ZM148.306 87.8379C148.276 87.8379 148.249 87.8289 148.225 87.8108C148.207 87.7867 148.198 87.7596 148.198 87.7296V81.6265C148.198 81.5964 148.207 81.5724 148.225 81.5543C148.249 81.5302 148.276 81.5182 148.306 81.5182H149.363C149.393 81.5182 149.417 81.5302 149.435 81.5543C149.459 81.5724 149.471 81.5964 149.471 81.6265V86.7003C149.471 86.7304 149.486 86.7455 149.516 86.7455H152.468C152.499 86.7455 152.523 86.7575 152.541 86.7816C152.565 86.7997 152.577 86.8237 152.577 86.8538V87.7296C152.577 87.7596 152.565 87.7867 152.541 87.8108C152.523 87.8289 152.499 87.8379 152.468 87.8379H148.306ZM154.285 87.8379C154.255 87.8379 154.228 87.8289 154.204 87.8108C154.186 87.7867 154.177 87.7596 154.177 87.7296V81.6265C154.177 81.5964 154.186 81.5724 154.204 81.5543C154.228 81.5302 154.255 81.5182 154.285 81.5182H155.342C155.372 81.5182 155.396 81.5302 155.414 81.5543C155.438 81.5724 155.45 81.5964 155.45 81.6265V87.7296C155.45 87.7596 155.438 87.7867 155.414 87.8108C155.396 87.8289 155.372 87.8379 155.342 87.8379H154.285ZM157.47 87.8379C157.44 87.8379 157.412 87.8289 157.388 87.8108C157.37 87.7867 157.361 87.7596 157.361 87.7296V81.6265C157.361 81.5964 157.37 81.5724 157.388 81.5543C157.412 81.5302 157.44 81.5182 157.47 81.5182H159.727C160.178 81.5182 160.572 81.5995 160.909 81.762C161.252 81.9185 161.517 82.1411 161.704 82.43C161.89 82.7189 161.984 83.053 161.984 83.4322V85.9239C161.984 86.3031 161.89 86.6372 161.704 86.9261C161.517 87.215 161.252 87.4407 160.909 87.6032C160.572 87.7596 160.178 87.8379 159.727 87.8379H157.47ZM158.634 86.7003C158.634 86.7304 158.649 86.7455 158.679 86.7455H159.772C160.049 86.7455 160.271 86.6522 160.44 86.4656C160.614 86.279 160.705 86.0293 160.711 85.7163V83.6398C160.711 83.3268 160.623 83.0771 160.449 82.8905C160.28 82.7039 160.052 82.6106 159.763 82.6106H158.679C158.649 82.6106 158.634 82.6257 158.634 82.6557V86.7003ZM163.863 87.8379C163.833 87.8379 163.806 87.8289 163.782 87.8108C163.764 87.7867 163.755 87.7596 163.755 87.7296V81.6265C163.755 81.5964 163.764 81.5724 163.782 81.5543C163.806 81.5302 163.833 81.5182 163.863 81.5182H164.919C164.949 81.5182 164.974 81.5302 164.992 81.5543C165.016 81.5724 165.028 81.5964 165.028 81.6265V87.7296C165.028 87.7596 165.016 87.7867 164.992 87.8108C164.974 87.8289 164.949 87.8379 164.919 87.8379H163.863ZM171.299 81.5182C171.33 81.5182 171.354 81.5302 171.372 81.5543C171.396 81.5724 171.408 81.5964 171.408 81.6265V82.5113C171.408 82.5414 171.396 82.5685 171.372 82.5926C171.354 82.6106 171.33 82.6196 171.299 82.6196H169.683C169.653 82.6196 169.638 82.6347 169.638 82.6648V87.7296C169.638 87.7596 169.626 87.7867 169.602 87.8108C169.584 87.8289 169.56 87.8379 169.53 87.8379H168.474C168.444 87.8379 168.417 87.8289 168.392 87.8108C168.374 87.7867 168.365 87.7596 168.365 87.7296V82.6648C168.365 82.6347 168.35 82.6196 168.32 82.6196H166.749C166.719 82.6196 166.692 82.6106 166.668 82.5926C166.65 82.5685 166.641 82.5414 166.641 82.5113V81.6265C166.641 81.5964 166.65 81.5724 166.668 81.5543C166.692 81.5302 166.719 81.5182 166.749 81.5182H171.299ZM174.739 87.8289C174.709 87.8289 174.682 87.8198 174.658 87.8018C174.64 87.7777 174.631 87.7506 174.631 87.7205V85.4364C174.631 85.4123 174.628 85.3943 174.621 85.3822L172.762 81.6446C172.75 81.6205 172.744 81.6025 172.744 81.5904C172.744 81.5423 172.777 81.5182 172.843 81.5182H173.98C174.041 81.5182 174.083 81.5453 174.107 81.5995L175.235 84.0009C175.253 84.0371 175.272 84.0371 175.29 84.0009L176.418 81.5995C176.442 81.5453 176.484 81.5182 176.544 81.5182H177.7C177.742 81.5182 177.769 81.5302 177.781 81.5543C177.799 81.5724 177.799 81.6025 177.781 81.6446L175.903 85.3822C175.897 85.3943 175.894 85.4123 175.894 85.4364V87.7205C175.894 87.7506 175.882 87.7777 175.858 87.8018C175.84 87.8198 175.816 87.8289 175.786 87.8289H174.739ZM181.319 87.9101C180.838 87.9101 180.417 87.8349 180.055 87.6844C179.694 87.5279 179.414 87.3082 179.216 87.0254C179.023 86.7365 178.927 86.4024 178.927 86.0232V85.8246C178.927 85.7945 178.936 85.7705 178.954 85.7524C178.978 85.7283 179.005 85.7163 179.035 85.7163H180.064C180.095 85.7163 180.119 85.7283 180.137 85.7524C180.161 85.7705 180.173 85.7945 180.173 85.8246V85.96C180.173 86.2008 180.284 86.4054 180.507 86.574C180.73 86.7365 181.03 86.8177 181.41 86.8177C181.729 86.8177 181.966 86.7515 182.123 86.6191C182.279 86.4807 182.358 86.3121 182.358 86.1135C182.358 85.9691 182.309 85.8487 182.213 85.7524C182.117 85.6501 181.984 85.5628 181.816 85.4906C181.653 85.4123 181.392 85.307 181.03 85.1746C180.627 85.0362 180.284 84.8947 180.001 84.7503C179.724 84.6058 179.49 84.4102 179.297 84.1634C179.11 83.9107 179.017 83.6007 179.017 83.2335C179.017 82.8724 179.11 82.5564 179.297 82.2856C179.484 82.0148 179.742 81.8071 180.073 81.6627C180.405 81.5182 180.787 81.446 181.22 81.446C181.677 81.446 182.084 81.5272 182.439 81.6897C182.8 81.8522 183.08 82.081 183.278 82.3759C183.483 82.6648 183.585 83.0018 183.585 83.387V83.5224C183.585 83.5525 183.573 83.5796 183.549 83.6037C183.531 83.6218 183.507 83.6308 183.477 83.6308H182.439C182.409 83.6308 182.382 83.6218 182.358 83.6037C182.34 83.5796 182.331 83.5525 182.331 83.5224V83.4502C182.331 83.1974 182.225 82.9838 182.015 82.8092C181.81 82.6287 181.527 82.5384 181.166 82.5384C180.883 82.5384 180.66 82.5986 180.498 82.7189C180.341 82.8393 180.263 83.0048 180.263 83.2155C180.263 83.366 180.308 83.4924 180.398 83.5947C180.495 83.697 180.633 83.7903 180.814 83.8745C181 83.9528 181.286 84.0611 181.671 84.1996C182.099 84.356 182.433 84.4945 182.674 84.6149C182.92 84.7352 183.14 84.9158 183.333 85.1565C183.531 85.3913 183.631 85.6982 183.631 86.0774C183.631 86.6432 183.423 87.0916 183.008 87.4226C182.592 87.7476 182.03 87.9101 181.319 87.9101ZM187.555 87.9101C187.086 87.9101 186.674 87.8198 186.318 87.6393C185.963 87.4527 185.69 87.1939 185.497 86.8629C185.304 86.5318 185.208 86.1496 185.208 85.7163V83.6308C185.208 83.1974 185.304 82.8152 185.497 82.4842C185.69 82.1532 185.963 81.8974 186.318 81.7168C186.674 81.5363 187.086 81.446 187.555 81.446C188.019 81.446 188.425 81.5333 188.774 81.7078C189.129 81.8763 189.403 82.1201 189.596 82.4391C189.794 82.752 189.894 83.1162 189.894 83.5315C189.894 83.5856 189.858 83.6187 189.785 83.6308L188.729 83.694H188.711C188.651 83.694 188.621 83.6609 188.621 83.5947C188.621 83.2757 188.521 83.0199 188.323 82.8273C188.13 82.6347 187.874 82.5384 187.555 82.5384C187.23 82.5384 186.969 82.6347 186.77 82.8273C186.577 83.0199 186.481 83.2757 186.481 83.5947V85.7705C186.481 86.0834 186.577 86.3362 186.77 86.5288C186.969 86.7214 187.23 86.8177 187.555 86.8177C187.874 86.8177 188.13 86.7214 188.323 86.5288C188.521 86.3362 188.621 86.0834 188.621 85.7705C188.621 85.7042 188.657 85.6711 188.729 85.6711L189.785 85.7163C189.815 85.7163 189.839 85.7253 189.858 85.7434C189.882 85.7614 189.894 85.7825 189.894 85.8066C189.894 86.2219 189.794 86.589 189.596 86.908C189.403 87.227 189.129 87.4738 188.774 87.6483C188.425 87.8228 188.019 87.9101 187.555 87.9101ZM195.516 87.8379C195.456 87.8379 195.417 87.8078 195.399 87.7476L195.128 86.8629C195.116 86.8388 195.101 86.8267 195.083 86.8267H192.862C192.844 86.8267 192.829 86.8388 192.817 86.8629L192.555 87.7476C192.537 87.8078 192.498 87.8379 192.437 87.8379H191.291C191.255 87.8379 191.228 87.8289 191.21 87.8108C191.192 87.7867 191.189 87.7536 191.201 87.7115L193.151 81.6085C193.169 81.5483 193.208 81.5182 193.268 81.5182H194.686C194.746 81.5182 194.785 81.5483 194.803 81.6085L196.753 87.7115C196.759 87.7235 196.762 87.7386 196.762 87.7566C196.762 87.8108 196.729 87.8379 196.663 87.8379H195.516ZM193.142 85.7885C193.136 85.8246 193.148 85.8427 193.178 85.8427H194.767C194.803 85.8427 194.815 85.8246 194.803 85.7885L193.99 83.1072C193.984 83.0831 193.975 83.0741 193.963 83.0801C193.951 83.0801 193.942 83.0891 193.936 83.1072L193.142 85.7885ZM201.997 81.6265C201.997 81.5964 202.006 81.5724 202.024 81.5543C202.049 81.5302 202.076 81.5182 202.106 81.5182H203.162C203.192 81.5182 203.216 81.5302 203.234 81.5543C203.258 81.5724 203.27 81.5964 203.27 81.6265V87.7296C203.27 87.7596 203.258 87.7867 203.234 87.8108C203.216 87.8289 203.192 87.8379 203.162 87.8379H202.142C202.082 87.8379 202.039 87.8138 202.015 87.7657L199.677 83.9016C199.665 83.8836 199.653 83.8776 199.641 83.8836C199.629 83.8836 199.623 83.8956 199.623 83.9197L199.641 87.7296C199.641 87.7596 199.629 87.7867 199.605 87.8108C199.587 87.8289 199.563 87.8379 199.533 87.8379H198.476C198.446 87.8379 198.419 87.8289 198.395 87.8108C198.377 87.7867 198.368 87.7596 198.368 87.7296V81.6265C198.368 81.5964 198.377 81.5724 198.395 81.5543C198.419 81.5302 198.446 81.5182 198.476 81.5182H199.497C199.557 81.5182 199.599 81.5423 199.623 81.5904L201.952 85.4364C201.964 85.4545 201.976 85.4635 201.988 85.4635C202 85.4575 202.006 85.4424 202.006 85.4184L201.997 81.6265Z" fill="black"/>
<g filter="url(#filter2_d_4701_1993)">
<path d="M228.503 53.4082H111.849C111.05 53.4082 110.402 54.0561 110.402 54.8553V171.509C110.402 172.308 111.05 172.956 111.849 172.956H228.503C229.302 172.956 229.95 172.308 229.95 171.509V54.8553C229.95 54.0561 229.302 53.4082 228.503 53.4082Z" fill="url(#paint7_linear_4701_1993)" shape-rendering="crispEdges"/>
</g>
<path d="M215.065 64.9861V57.2682C215.065 56.7858 214.664 56.4642 214.262 56.4642H125.988C125.505 56.4642 125.184 56.8662 125.184 57.2682V64.9861C125.184 66.8352 123.656 68.3627 121.807 68.3627H114.089C113.607 68.3627 113.285 68.7647 113.285 69.1667V157.521C113.285 158.003 113.687 158.325 114.089 158.325H121.807C123.656 158.325 125.184 159.852 125.184 161.702V169.419C125.184 169.902 125.586 170.223 125.988 170.223H214.262C214.744 170.223 215.065 169.821 215.065 169.419V161.702C215.065 159.852 216.593 158.325 218.442 158.325H226.24C226.723 158.325 227.044 157.923 227.044 157.521V69.1667C227.044 68.6843 226.642 68.3627 226.24 68.3627H218.442C216.593 68.3627 215.065 66.8352 215.065 64.9861Z" fill="#19191D"/>
<path d="M120.592 56.3865H114.884C113.951 56.3865 113.195 57.1424 113.195 58.0748V63.7828C113.195 64.7152 113.951 65.4711 114.884 65.4711H120.592C121.524 65.4711 122.28 64.7152 122.28 63.7828V58.0748C122.28 57.1424 121.524 56.3865 120.592 56.3865Z" fill="black"/>
<path d="M120.592 161.217H114.884C113.951 161.217 113.195 161.973 113.195 162.905V168.613C113.195 169.546 113.951 170.302 114.884 170.302H120.592C121.524 170.302 122.28 169.546 122.28 168.613V162.905C122.28 161.973 121.524 161.217 120.592 161.217Z" fill="black"/>
<path d="M225.596 161.217H219.888C218.955 161.217 218.199 161.973 218.199 162.905V168.613C218.199 169.546 218.955 170.302 219.888 170.302H225.596C226.528 170.302 227.284 169.546 227.284 168.613V162.905C227.284 161.973 226.528 161.217 225.596 161.217Z" fill="black"/>
<path d="M225.596 56.3844H219.888C218.955 56.3844 218.199 57.1403 218.199 58.0727V63.7808C218.199 64.7132 218.955 65.4691 219.888 65.4691H225.596C226.528 65.4691 227.284 64.7132 227.284 63.7808V58.0727C227.284 57.1403 226.528 56.3844 225.596 56.3844Z" fill="black"/>
<path d="M129.758 66.9151C129.275 66.9151 128.793 66.5131 128.793 65.9504V60.0011C128.793 59.5187 129.195 59.0364 129.758 59.0364C130.24 59.0364 130.722 59.4384 130.722 60.0011V65.9504C130.722 66.4327 130.32 66.9151 129.758 66.9151Z" fill="black"/>
<rect x="133.781" y="59.0364" width="1.93092" height="7.87859" fill="black"/>
<rect x="138.84" y="59.0364" width="1.93092" height="7.87859" fill="black"/>
<rect x="143.91" y="59.0364" width="1.93092" height="7.87859" fill="black"/>
<rect x="148.973" y="59.0364" width="1.93092" height="7.87859" fill="black"/>
<rect x="154.031" y="59.0364" width="1.93092" height="7.87859" fill="black"/>
<rect x="159.027" y="59.0364" width="1.93092" height="7.87859" fill="black"/>
<rect x="164.086" y="59.0364" width="1.93092" height="7.87859" fill="black"/>
<rect x="169.148" y="59.0364" width="1.93092" height="7.87859" fill="black"/>
<rect x="174.219" y="59.0364" width="1.93092" height="7.87859" fill="black"/>
<rect x="179.277" y="59.0364" width="1.93092" height="7.87859" fill="black"/>
<rect x="184.266" y="59.0364" width="1.93092" height="7.87859" fill="black"/>
<rect x="189.332" y="59.0364" width="1.93092" height="7.87859" fill="black"/>
<rect x="194.395" y="59.0364" width="1.93092" height="7.87859" fill="black"/>
<rect x="199.465" y="59.0364" width="1.93092" height="7.87859" fill="black"/>
<rect x="204.523" y="59.0364" width="1.93092" height="7.87859" fill="black"/>
<rect x="209.586" y="59.0364" width="1.93092" height="7.87859" fill="black"/>
<path d="M129.758 167.15C129.275 167.15 128.793 166.748 128.793 166.185V160.236C128.793 159.753 129.195 159.271 129.758 159.271C130.24 159.271 130.722 159.673 130.722 160.236V166.185C130.722 166.667 130.32 167.15 129.758 167.15Z" fill="black"/>
<rect x="133.781" y="159.271" width="1.93092" height="7.87859" fill="black"/>
<rect x="138.84" y="159.271" width="1.93092" height="7.87859" fill="black"/>
<rect x="143.91" y="159.271" width="1.93092" height="7.87859" fill="black"/>
<rect x="148.973" y="159.271" width="1.93092" height="7.87859" fill="black"/>
<rect x="154.031" y="159.271" width="1.93092" height="7.87859" fill="black"/>
<rect x="159.027" y="159.271" width="1.93092" height="7.87859" fill="black"/>
<rect x="164.086" y="159.271" width="1.93092" height="7.87859" fill="black"/>
<rect x="169.148" y="159.271" width="1.93092" height="7.87859" fill="black"/>
<rect x="174.219" y="159.271" width="1.93092" height="7.87859" fill="black"/>
<rect x="179.277" y="159.271" width="1.93092" height="7.87859" fill="black"/>
<rect x="184.266" y="159.271" width="1.93092" height="7.87859" fill="black"/>
<rect x="189.332" y="159.271" width="1.93092" height="7.87859" fill="black"/>
<rect x="194.395" y="159.271" width="1.93092" height="7.87859" fill="black"/>
<rect x="199.465" y="159.271" width="1.93092" height="7.87859" fill="black"/>
<rect x="204.523" y="159.271" width="1.93092" height="7.87859" fill="black"/>
<rect x="209.586" y="159.271" width="1.93092" height="7.87859" fill="black"/>
<rect x="224.391" y="71.9769" width="1.93092" height="7.87859" transform="rotate(90 224.391 71.9769)" fill="black"/>
<rect x="224.391" y="77.0422" width="1.93092" height="7.87859" transform="rotate(90 224.391 77.0422)" fill="black"/>
<rect x="224.391" y="82.1096" width="1.93092" height="7.87859" transform="rotate(90 224.391 82.1096)" fill="black"/>
<rect x="224.391" y="87.0929" width="1.93092" height="7.87859" transform="rotate(90 224.391 87.0929)" fill="black"/>
<rect x="224.391" y="92.1582" width="1.93092" height="7.87859" transform="rotate(90 224.391 92.1582)" fill="black"/>
<rect x="224.391" y="97.2235" width="1.93092" height="7.87859" transform="rotate(90 224.391 97.2235)" fill="black"/>
<rect x="224.391" y="102.289" width="1.93092" height="7.87859" transform="rotate(90 224.391 102.289)" fill="black"/>
<rect x="224.391" y="107.354" width="1.93092" height="7.87859" transform="rotate(90 224.391 107.354)" fill="black"/>
<rect x="224.391" y="112.34" width="1.93092" height="7.87859" transform="rotate(90 224.391 112.34)" fill="black"/>
<rect x="224.391" y="117.403" width="1.93092" height="7.87859" transform="rotate(90 224.391 117.403)" fill="black"/>
<rect x="224.391" y="122.466" width="1.93092" height="7.87859" transform="rotate(90 224.391 122.466)" fill="black"/>
<rect x="224.391" y="127.531" width="1.93092" height="7.87859" transform="rotate(90 224.391 127.531)" fill="black"/>
<rect x="224.391" y="132.597" width="1.93092" height="7.87859" transform="rotate(90 224.391 132.597)" fill="black"/>
<rect x="224.391" y="137.664" width="1.93092" height="7.87859" transform="rotate(90 224.391 137.664)" fill="black"/>
<rect x="224.391" y="142.647" width="1.93092" height="7.87859" transform="rotate(90 224.391 142.647)" fill="black"/>
<rect x="224.391" y="147.71" width="1.93092" height="7.87859" transform="rotate(90 224.391 147.71)" fill="black"/>
<rect x="224.391" y="152.776" width="1.93092" height="7.87859" transform="rotate(90 224.391 152.776)" fill="black"/>
<rect x="123.75" y="71.9769" width="1.93092" height="7.87859" transform="rotate(90 123.75 71.9769)" fill="black"/>
<rect x="123.75" y="77.0422" width="1.93092" height="7.87859" transform="rotate(90 123.75 77.0422)" fill="black"/>
<rect x="123.75" y="82.1096" width="1.93092" height="7.87859" transform="rotate(90 123.75 82.1096)" fill="black"/>
<rect x="123.75" y="87.0929" width="1.93092" height="7.87859" transform="rotate(90 123.75 87.0929)" fill="black"/>
<rect x="123.75" y="92.1582" width="1.93092" height="7.87859" transform="rotate(90 123.75 92.1582)" fill="black"/>
<rect x="123.75" y="97.2235" width="1.93092" height="7.87859" transform="rotate(90 123.75 97.2235)" fill="black"/>
<rect x="123.75" y="102.289" width="1.93092" height="7.87859" transform="rotate(90 123.75 102.289)" fill="black"/>
<rect x="123.75" y="107.354" width="1.93092" height="7.87859" transform="rotate(90 123.75 107.354)" fill="black"/>
<rect x="123.75" y="112.34" width="1.93092" height="7.87859" transform="rotate(90 123.75 112.34)" fill="black"/>
<rect x="123.75" y="117.403" width="1.93092" height="7.87859" transform="rotate(90 123.75 117.403)" fill="black"/>
<rect x="123.75" y="122.466" width="1.93092" height="7.87859" transform="rotate(90 123.75 122.466)" fill="black"/>
<rect x="123.75" y="127.531" width="1.93092" height="7.87859" transform="rotate(90 123.75 127.531)" fill="black"/>
<rect x="123.75" y="132.597" width="1.93092" height="7.87859" transform="rotate(90 123.75 132.597)" fill="black"/>
<rect x="123.75" y="137.664" width="1.93092" height="7.87859" transform="rotate(90 123.75 137.664)" fill="black"/>
<rect x="123.75" y="142.647" width="1.93092" height="7.87859" transform="rotate(90 123.75 142.647)" fill="black"/>
<rect x="123.75" y="147.71" width="1.93092" height="7.87859" transform="rotate(90 123.75 147.71)" fill="black"/>
<rect x="123.75" y="152.776" width="1.93092" height="7.87859" transform="rotate(90 123.75 152.776)" fill="black"/>
<path d="M130.164 71.9796H210.157C210.88 71.9796 211.524 72.5424 211.524 73.3463V153.34C211.524 154.063 210.961 154.706 210.157 154.706H130.164C129.44 154.706 128.797 154.143 128.797 153.34V73.3463C128.797 72.6228 129.36 71.9796 130.164 71.9796Z" stroke="url(#paint8_linear_4701_1993)" stroke-width="1.22306"/>
<g filter="url(#filter3_d_4701_1993)">
<path d="M209.51 73.3478H130.803C130.448 73.3478 130.16 73.6357 130.16 73.9909V152.698C130.16 153.053 130.448 153.341 130.803 153.341H209.51C209.865 153.341 210.153 153.053 210.153 152.698V73.9909C210.153 73.6357 209.865 73.3478 209.51 73.3478Z" fill="black"/>
</g>
<path d="M186.355 131.071H190.697L197.691 148.517H193.189L191.822 144.899H185.391L184.024 148.517H179.441L186.436 131.071H186.355ZM190.697 141.523L188.606 135.654L186.436 141.523H190.697Z" fill="#C1C1C1"/>
<path d="M199.461 131.071H203.883V148.517H199.461V131.071Z" fill="#C1C1C1"/>
<path d="M128.014 48.9349L131.029 48.9349C131.312 48.9349 131.531 49.4761 131.531 50.1718L131.531 52.9547L127.512 52.9547L127.512 50.1718C127.512 49.4761 127.732 48.9349 128.014 48.9349Z" fill="#363636"/>
<path d="M144.1 48.9349L147.115 48.9349C147.398 48.9349 147.617 49.476 147.617 50.1718L147.617 52.9547L143.598 52.9547L143.598 50.1718C143.598 49.476 143.817 48.9349 144.1 48.9349Z" fill="#363636"/>
<path d="M160.174 48.9349L163.189 48.9349C163.472 48.9349 163.692 49.4761 163.692 50.1718L163.692 52.9547L159.672 52.9547L159.672 50.1718C159.672 49.4761 159.892 48.9349 160.174 48.9349Z" fill="#363636"/>
<path d="M176.256 48.9349L179.271 48.9349C179.554 48.9349 179.774 49.4761 179.774 50.1718L179.774 52.9547L175.754 52.9547L175.754 50.1718C175.754 49.4761 175.974 48.9349 176.256 48.9349Z" fill="#363636"/>
<path d="M192.331 48.9349L195.345 48.9349C195.628 48.9349 195.848 49.4761 195.848 50.1718L195.848 52.9547L191.828 52.9547L191.828 50.1718C191.828 49.4761 192.048 48.9349 192.331 48.9349Z" fill="#363636"/>
<path d="M208.405 48.9349L211.42 48.9349C211.702 48.9349 211.922 49.4761 211.922 50.1718L211.922 52.9547L207.902 52.9547L207.902 50.1718C207.902 49.4761 208.122 48.9349 208.405 48.9349Z" fill="#363636"/>
<path d="M128.37 177.862L131.384 177.862C131.667 177.862 131.887 177.321 131.887 176.625L131.887 173.842L127.867 173.842L127.867 176.625C127.867 177.321 128.087 177.862 128.37 177.862Z" fill="#363636"/>
<path d="M144.46 177.862L147.474 177.862C147.757 177.862 147.977 177.321 147.977 176.625L147.977 173.842L143.957 173.842L143.957 176.625C143.957 177.321 144.177 177.862 144.46 177.862Z" fill="#363636"/>
<path d="M160.534 177.862L163.549 177.862C163.831 177.862 164.051 177.321 164.051 176.625L164.051 173.842L160.031 173.842L160.031 176.625C160.031 177.321 160.251 177.862 160.534 177.862Z" fill="#363636"/>
<path d="M176.608 177.862L179.623 177.862C179.905 177.862 180.125 177.321 180.125 176.625L180.125 173.842L176.105 173.842L176.105 176.625C176.105 177.321 176.325 177.862 176.608 177.862Z" fill="#363636"/>
<path d="M192.694 177.862L195.709 177.862C195.991 177.862 196.211 177.321 196.211 176.625L196.211 173.842L192.191 173.842L192.191 176.625C192.191 177.321 192.411 177.862 192.694 177.862Z" fill="#363636"/>
<path d="M208.768 177.862L211.783 177.862C212.066 177.862 212.285 177.321 212.285 176.625L212.285 173.842L208.266 173.842L208.266 176.625C208.266 177.321 208.485 177.862 208.768 177.862Z" fill="#363636"/>
<path d="M234.559 155.047V152.033C234.559 151.75 234.017 151.53 233.322 151.53H230.539V155.55H233.322C234.017 155.55 234.559 155.33 234.559 155.047Z" fill="#363636"/>
<path d="M234.559 138.969V135.954C234.559 135.671 234.017 135.451 233.322 135.451H230.539V139.471H233.322C234.017 139.471 234.559 139.251 234.559 138.969Z" fill="#363636"/>
<path d="M234.559 122.89V119.875C234.559 119.593 234.017 119.373 233.322 119.373H230.539V123.393H233.322C234.017 123.393 234.559 123.173 234.559 122.89Z" fill="#363636"/>
<path d="M234.559 106.809V103.795C234.559 103.512 234.017 103.292 233.322 103.292H230.539V107.312H233.322C234.017 107.312 234.559 107.092 234.559 106.809Z" fill="#363636"/>
<path d="M234.559 90.7286V87.7138C234.559 87.4312 234.017 87.2113 233.322 87.2113H230.539V91.2311H233.322C234.017 91.2311 234.559 91.0112 234.559 90.7286Z" fill="#363636"/>
<path d="M234.559 74.6521V71.6373C234.559 71.3546 234.017 71.1348 233.322 71.1348H230.539V75.1545H233.322C234.017 75.1545 234.559 74.9347 234.559 74.6521Z" fill="#363636"/>
<path d="M105.809 155.006V151.991C105.809 151.709 106.35 151.489 107.045 151.489H109.828V155.509H107.045C106.35 155.509 105.809 155.289 105.809 155.006Z" fill="#363636"/>
<path d="M105.809 138.927V135.913C105.809 135.63 106.35 135.41 107.045 135.41H109.828V139.43H107.045C106.35 139.43 105.809 139.21 105.809 138.927Z" fill="#363636"/>
<path d="M105.809 122.849V119.834C105.809 119.551 106.35 119.332 107.045 119.332H109.828V123.351H107.045C106.35 123.351 105.809 123.131 105.809 122.849Z" fill="#363636"/>
<path d="M105.809 106.768V103.753C105.809 103.471 106.35 103.251 107.045 103.251H109.828V107.271H107.045C106.35 107.271 105.809 107.051 105.809 106.768Z" fill="#363636"/>
<path d="M105.809 90.6916V87.6768C105.809 87.3942 106.35 87.1743 107.045 87.1743H109.828V91.1941H107.045C106.35 91.1941 105.809 90.9743 105.809 90.6916Z" fill="#363636"/>
<path d="M105.809 74.613V71.5982C105.809 71.3156 106.35 71.0957 107.045 71.0957H109.828V75.1155H107.045C106.35 75.1155 105.809 74.8956 105.809 74.613Z" fill="#363636"/>
<g style="mix-blend-mode:multiply">
<path d="M206.215 155.913H134.02C133.698 155.913 133.457 155.672 133.457 155.35C133.457 155.029 133.698 154.788 134.02 154.788H206.215C206.536 154.788 206.777 155.029 206.777 155.35C206.777 155.672 206.536 155.913 206.215 155.913Z" fill="#999999"/>
</g>
<g filter="url(#filter4_f_4701_1993)">
<line x1="281.004" y1="115.402" x2="61.5078" y2="115.402" stroke="url(#paint9_linear_4701_1993)" stroke-width="1.30464"/>
</g>
<line x1="280.996" y1="115.361" x2="61.5" y2="115.361" stroke="url(#paint10_linear_4701_1993)" stroke-width="1.22306"/>
<path d="M252.359 51.8119V35.1432H234.541" stroke="url(#paint11_linear_4701_1993)" stroke-width="1.30464"/>
<path d="M252.359 177.689V194.357H234.541" stroke="url(#paint12_linear_4701_1993)" stroke-width="1.30464"/>
<path d="M91.4102 51.8119V35.1432H109.228" stroke="url(#paint13_linear_4701_1993)" stroke-width="1.30464"/>
<path d="M91.4102 177.689V194.357H109.228" stroke="url(#paint14_linear_4701_1993)" stroke-width="1.30464"/>
<path d="M135.599 83.9055C135.081 83.9055 134.627 83.8245 134.239 83.6626C133.85 83.4942 133.549 83.2578 133.335 82.9534C133.128 82.6425 133.024 82.283 133.024 81.875V81.6613C133.024 81.6289 133.034 81.603 133.053 81.5835C133.079 81.5576 133.109 81.5447 133.141 81.5447H134.248C134.281 81.5447 134.307 81.5576 134.326 81.5835C134.352 81.603 134.365 81.6289 134.365 81.6613V81.807C134.365 82.0661 134.485 82.2863 134.724 82.4676C134.964 82.6425 135.288 82.7299 135.696 82.7299C136.039 82.7299 136.295 82.6587 136.464 82.5162C136.632 82.3672 136.716 82.1859 136.716 81.9721C136.716 81.8167 136.664 81.6872 136.561 81.5835C136.457 81.4734 136.315 81.3795 136.133 81.3018C135.958 81.2176 135.677 81.1042 135.288 80.9618C134.854 80.8128 134.485 80.6606 134.18 80.5051C133.882 80.3497 133.63 80.1392 133.423 79.8736C133.222 79.6016 133.121 79.2681 133.121 78.873C133.121 78.4844 133.222 78.1443 133.423 77.8529C133.623 77.5614 133.902 77.338 134.258 77.1825C134.614 77.0271 135.026 76.9493 135.492 76.9493C135.984 76.9493 136.421 77.0368 136.804 77.2117C137.192 77.3865 137.493 77.6327 137.707 77.95C137.927 78.2609 138.037 78.6236 138.037 79.0381V79.1839C138.037 79.2162 138.024 79.2454 137.999 79.2713C137.979 79.2907 137.953 79.3004 137.921 79.3004H136.804C136.771 79.3004 136.742 79.2907 136.716 79.2713C136.697 79.2454 136.687 79.2162 136.687 79.1839V79.1061C136.687 78.8341 136.574 78.6042 136.347 78.4164C136.127 78.222 135.822 78.1249 135.434 78.1249C135.129 78.1249 134.89 78.1897 134.715 78.3192C134.546 78.4487 134.462 78.6268 134.462 78.8535C134.462 79.0155 134.511 79.1515 134.608 79.2616C134.712 79.3717 134.86 79.4721 135.055 79.5628C135.256 79.647 135.563 79.7635 135.978 79.9125C136.438 80.0809 136.797 80.2299 137.056 80.3594C137.322 80.4889 137.558 80.6832 137.765 80.9423C137.979 81.1949 138.086 81.5252 138.086 81.9333C138.086 82.5421 137.863 83.0246 137.416 83.3809C136.969 83.7306 136.363 83.9055 135.599 83.9055ZM142.339 83.9346C141.833 83.9346 141.387 83.831 140.998 83.6237C140.616 83.4165 140.318 83.1283 140.104 82.7591C139.89 82.3834 139.783 81.9527 139.783 81.4669V79.3879C139.783 78.9086 139.89 78.4844 140.104 78.1152C140.318 77.746 140.616 77.461 140.998 77.2602C141.387 77.053 141.833 76.9493 142.339 76.9493C142.85 76.9493 143.297 77.053 143.679 77.2602C144.068 77.461 144.369 77.746 144.583 78.1152C144.797 78.4844 144.903 78.9086 144.903 79.3879V81.4669C144.903 81.9527 144.797 82.3834 144.583 82.7591C144.369 83.1347 144.068 83.4262 143.679 83.6335C143.297 83.8342 142.85 83.9346 142.339 83.9346ZM142.339 82.7591C142.695 82.7591 142.983 82.6457 143.203 82.419C143.423 82.1924 143.534 81.8912 143.534 81.5155V79.3782C143.534 79.0025 143.423 78.7013 143.203 78.4746C142.99 78.2415 142.701 78.1249 142.339 78.1249C141.982 78.1249 141.694 78.2415 141.474 78.4746C141.26 78.7013 141.153 79.0025 141.153 79.3782V81.5155C141.153 81.8912 141.26 82.1924 141.474 82.419C141.694 82.6457 141.982 82.7591 142.339 82.7591ZM146.945 83.8278C146.912 83.8278 146.883 83.818 146.857 83.7986C146.838 83.7727 146.828 83.7436 146.828 83.7112V77.1437C146.828 77.1113 146.838 77.0854 146.857 77.0659C146.883 77.04 146.912 77.0271 146.945 77.0271H148.081C148.114 77.0271 148.14 77.04 148.159 77.0659C148.185 77.0854 148.198 77.1113 148.198 77.1437V82.6036C148.198 82.636 148.214 82.6522 148.246 82.6522H151.423C151.456 82.6522 151.482 82.6652 151.501 82.6911C151.527 82.7105 151.54 82.7364 151.54 82.7688V83.7112C151.54 83.7436 151.527 83.7727 151.501 83.7986C151.482 83.818 151.456 83.8278 151.423 83.8278H146.945ZM153.379 83.8278C153.346 83.8278 153.317 83.818 153.291 83.7986C153.272 83.7727 153.262 83.7436 153.262 83.7112V77.1437C153.262 77.1113 153.272 77.0854 153.291 77.0659C153.317 77.04 153.346 77.0271 153.379 77.0271H154.515C154.548 77.0271 154.574 77.04 154.593 77.0659C154.619 77.0854 154.632 77.1113 154.632 77.1437V83.7112C154.632 83.7436 154.619 83.7727 154.593 83.7986C154.574 83.818 154.548 83.8278 154.515 83.8278H153.379ZM156.805 83.8278C156.773 83.8278 156.744 83.818 156.718 83.7986C156.698 83.7727 156.689 83.7436 156.689 83.7112V77.1437C156.689 77.1113 156.698 77.0854 156.718 77.0659C156.744 77.04 156.773 77.0271 156.805 77.0271H159.234C159.72 77.0271 160.144 77.1145 160.507 77.2894C160.876 77.4578 161.161 77.6974 161.362 78.0083C161.562 78.3192 161.663 78.6787 161.663 79.0867V81.7681C161.663 82.1762 161.562 82.5356 161.362 82.8465C161.161 83.1574 160.876 83.4003 160.507 83.5752C160.144 83.7436 159.72 83.8278 159.234 83.8278H156.805ZM158.058 82.6036C158.058 82.636 158.075 82.6522 158.107 82.6522H159.283C159.58 82.6522 159.82 82.5518 160.001 82.351C160.189 82.1503 160.286 81.8815 160.293 81.5447V79.3102C160.293 78.9734 160.199 78.7046 160.011 78.5038C159.83 78.303 159.584 78.2026 159.273 78.2026H158.107C158.075 78.2026 158.058 78.2188 158.058 78.2512V82.6036ZM163.685 83.8278C163.653 83.8278 163.624 83.818 163.598 83.7986C163.578 83.7727 163.569 83.7436 163.569 83.7112V77.1437C163.569 77.1113 163.578 77.0854 163.598 77.0659C163.624 77.04 163.653 77.0271 163.685 77.0271H164.822C164.854 77.0271 164.88 77.04 164.9 77.0659C164.925 77.0854 164.938 77.1113 164.938 77.1437V83.7112C164.938 83.7436 164.925 83.7727 164.9 83.7986C164.88 83.818 164.854 83.8278 164.822 83.8278H163.685ZM171.688 77.0271C171.72 77.0271 171.746 77.04 171.765 77.0659C171.791 77.0854 171.804 77.1113 171.804 77.1437V78.0957C171.804 78.1281 171.791 78.1573 171.765 78.1832C171.746 78.2026 171.72 78.2123 171.688 78.2123H169.949C169.916 78.2123 169.9 78.2285 169.9 78.2609V83.7112C169.9 83.7436 169.887 83.7727 169.861 83.7986C169.842 83.818 169.816 83.8278 169.783 83.8278H168.647C168.614 83.8278 168.585 83.818 168.559 83.7986C168.54 83.7727 168.53 83.7436 168.53 83.7112V78.2609C168.53 78.2285 168.514 78.2123 168.482 78.2123H166.791C166.759 78.2123 166.73 78.2026 166.704 78.1832C166.684 78.1573 166.675 78.1281 166.675 78.0957V77.1437C166.675 77.1113 166.684 77.0854 166.704 77.0659C166.73 77.04 166.759 77.0271 166.791 77.0271H171.688ZM175.389 83.818C175.356 83.818 175.327 83.8083 175.301 83.7889C175.282 83.763 175.272 83.7338 175.272 83.7015V81.2435C175.272 81.2176 175.269 81.1982 175.262 81.1852L173.261 77.1631C173.248 77.1372 173.242 77.1177 173.242 77.1048C173.242 77.053 173.277 77.0271 173.349 77.0271H174.573C174.637 77.0271 174.683 77.0562 174.709 77.1145L175.923 79.6988C175.943 79.7376 175.962 79.7376 175.981 79.6988L177.196 77.1145C177.222 77.0562 177.267 77.0271 177.332 77.0271H178.575C178.621 77.0271 178.65 77.04 178.663 77.0659C178.682 77.0854 178.682 77.1177 178.663 77.1631L176.642 81.1852C176.636 81.1982 176.632 81.2176 176.632 81.2435V83.7015C176.632 83.7338 176.619 83.763 176.593 83.7889C176.574 83.8083 176.548 83.818 176.516 83.818H175.389ZM182.47 83.9055C181.952 83.9055 181.499 83.8245 181.11 83.6626C180.721 83.4942 180.42 83.2578 180.206 82.9534C179.999 82.6425 179.896 82.283 179.896 81.875V81.6613C179.896 81.6289 179.905 81.603 179.925 81.5835C179.951 81.5576 179.98 81.5447 180.012 81.5447H181.12C181.152 81.5447 181.178 81.5576 181.197 81.5835C181.223 81.603 181.236 81.6289 181.236 81.6613V81.807C181.236 82.0661 181.356 82.2863 181.596 82.4676C181.835 82.6425 182.159 82.7299 182.567 82.7299C182.911 82.7299 183.166 82.6587 183.335 82.5162C183.503 82.3672 183.587 82.1859 183.587 81.9721C183.587 81.8167 183.536 81.6872 183.432 81.5835C183.328 81.4734 183.186 81.3795 183.004 81.3018C182.83 81.2176 182.548 81.1042 182.159 80.9618C181.725 80.8128 181.356 80.6606 181.052 80.5051C180.754 80.3497 180.501 80.1392 180.294 79.8736C180.093 79.6016 179.993 79.2681 179.993 78.873C179.993 78.4844 180.093 78.1443 180.294 77.8529C180.495 77.5614 180.773 77.338 181.129 77.1825C181.486 77.0271 181.897 76.9493 182.363 76.9493C182.855 76.9493 183.293 77.0368 183.675 77.2117C184.063 77.3865 184.365 77.6327 184.578 77.95C184.799 78.2609 184.909 78.6236 184.909 79.0381V79.1839C184.909 79.2162 184.896 79.2454 184.87 79.2713C184.85 79.2907 184.824 79.3004 184.792 79.3004H183.675C183.642 79.3004 183.613 79.2907 183.587 79.2713C183.568 79.2454 183.558 79.2162 183.558 79.1839V79.1061C183.558 78.8341 183.445 78.6042 183.218 78.4164C182.998 78.222 182.694 78.1249 182.305 78.1249C182.001 78.1249 181.761 78.1897 181.586 78.3192C181.418 78.4487 181.333 78.6268 181.333 78.8535C181.333 79.0155 181.382 79.1515 181.479 79.2616C181.583 79.3717 181.732 79.4721 181.926 79.5628C182.127 79.647 182.434 79.7635 182.849 79.9125C183.309 80.0809 183.668 80.2299 183.927 80.3594C184.193 80.4889 184.429 80.6832 184.637 80.9423C184.85 81.1949 184.957 81.5252 184.957 81.9333C184.957 82.5421 184.734 83.0246 184.287 83.3809C183.84 83.7306 183.234 83.9055 182.47 83.9055ZM189.181 83.9055C188.676 83.9055 188.232 83.8083 187.85 83.614C187.468 83.4132 187.173 83.1347 186.966 82.7785C186.758 82.4223 186.655 82.011 186.655 81.5447V79.3004C186.655 78.8341 186.758 78.4228 186.966 78.0666C187.173 77.7104 187.468 77.4351 187.85 77.2408C188.232 77.0465 188.676 76.9493 189.181 76.9493C189.679 76.9493 190.117 77.0433 190.492 77.2311C190.874 77.4124 191.169 77.6748 191.376 78.018C191.59 78.3548 191.697 78.7467 191.697 79.1936C191.697 79.2519 191.658 79.2875 191.58 79.3004L190.444 79.3684H190.424C190.359 79.3684 190.327 79.3328 190.327 79.2616C190.327 78.9183 190.22 78.643 190.006 78.4358C189.799 78.2285 189.524 78.1249 189.181 78.1249C188.831 78.1249 188.549 78.2285 188.335 78.4358C188.128 78.643 188.025 78.9183 188.025 79.2616V81.603C188.025 81.9398 188.128 82.2118 188.335 82.419C188.549 82.6263 188.831 82.7299 189.181 82.7299C189.524 82.7299 189.799 82.6263 190.006 82.419C190.22 82.2118 190.327 81.9398 190.327 81.603C190.327 81.5317 190.366 81.4961 190.444 81.4961L191.58 81.5447C191.613 81.5447 191.639 81.5544 191.658 81.5738C191.684 81.5932 191.697 81.6159 191.697 81.6418C191.697 82.0887 191.59 82.4838 191.376 82.8271C191.169 83.1704 190.874 83.4359 190.492 83.6237C190.117 83.8116 189.679 83.9055 189.181 83.9055ZM197.747 83.8278C197.683 83.8278 197.641 83.7954 197.621 83.7306L197.33 82.7785C197.317 82.7526 197.3 82.7396 197.281 82.7396H194.891C194.872 82.7396 194.855 82.7526 194.843 82.7785L194.561 83.7306C194.541 83.7954 194.499 83.8278 194.434 83.8278H193.201C193.162 83.8278 193.133 83.818 193.113 83.7986C193.094 83.7727 193.091 83.7371 193.103 83.6917L195.202 77.1242C195.221 77.0595 195.264 77.0271 195.328 77.0271H196.854C196.918 77.0271 196.96 77.0595 196.98 77.1242L199.078 83.6917C199.085 83.7047 199.088 83.7209 199.088 83.7403C199.088 83.7986 199.052 83.8278 198.981 83.8278H197.747ZM195.192 81.6224C195.186 81.6613 195.199 81.6807 195.231 81.6807H196.941C196.98 81.6807 196.993 81.6613 196.98 81.6224L196.105 78.737C196.099 78.711 196.089 78.7013 196.076 78.7078C196.063 78.7078 196.054 78.7175 196.047 78.737L195.192 81.6224ZM204.722 77.1437C204.722 77.1113 204.732 77.0854 204.751 77.0659C204.777 77.04 204.806 77.0271 204.839 77.0271H205.975C206.008 77.0271 206.034 77.04 206.053 77.0659C206.079 77.0854 206.092 77.1113 206.092 77.1437V83.7112C206.092 83.7436 206.079 83.7727 206.053 83.7986C206.034 83.818 206.008 83.8278 205.975 83.8278H204.877C204.813 83.8278 204.767 83.8019 204.741 83.75L202.225 79.5919C202.212 79.5725 202.199 79.566 202.186 79.5725C202.173 79.5725 202.167 79.5854 202.167 79.6113L202.186 83.7112C202.186 83.7436 202.173 83.7727 202.147 83.7986C202.128 83.818 202.102 83.8278 202.07 83.8278H200.933C200.901 83.8278 200.871 83.818 200.846 83.7986C200.826 83.7727 200.816 83.7436 200.816 83.7112V77.1437C200.816 77.1113 200.826 77.0854 200.846 77.0659C200.871 77.04 200.901 77.0271 200.933 77.0271H202.031C202.096 77.0271 202.141 77.053 202.167 77.1048L204.673 81.2435C204.686 81.2629 204.699 81.2726 204.712 81.2726C204.725 81.2662 204.732 81.25 204.732 81.2241L204.722 77.1437Z" fill="#C1C1C1"/>
<defs>
<filter id="filter0_d_4701_1993" x="241.079" y="62.0465" width="80.222" height="87.779" filterUnits="userSpaceOnUse" color-interpolation-filters="sRGB">
<feFlood flood-opacity="0" result="BackgroundImageFix"/>
<feColorMatrix in="SourceAlpha" type="matrix" values="0 0 0 0 0 0 0 0 0 0 0 0 0 0 0 0 0 0 127 0" result="hardAlpha"/>
<feOffset dx="-8.54609" dy="-8.54609"/>
<feGaussianBlur stdDeviation="7.21076"/>
<feComposite in2="hardAlpha" operator="out"/>
<feColorMatrix type="matrix" values="0 0 0 0 0 0 0 0 0 0 0 0 0 0 0 0 0 0 0.25 0"/>
<feBlend mode="normal" in2="BackgroundImageFix" result="effect1_dropShadow_4701_1993"/>
<feBlend mode="normal" in="SourceGraphic" in2="effect1_dropShadow_4701_1993" result="shape"/>
</filter>
<filter id="filter1_d_4701_1993" x="0.844888" y="61.58" width="87.7493" height="87.7476" filterUnits="userSpaceOnUse" color-interpolation-filters="sRGB">
<feFlood flood-opacity="0" result="BackgroundImageFix"/>
<feColorMatrix in="SourceAlpha" type="matrix" values="0 0 0 0 0 0 0 0 0 0 0 0 0 0 0 0 0 0 127 0" result="hardAlpha"/>
<feOffset dx="-8.54609" dy="-8.54609"/>
<feGaussianBlur stdDeviation="7.21076"/>
<feComposite in2="hardAlpha" operator="out"/>
<feColorMatrix type="matrix" values="0 0 0 0 0 0 0 0 0 0 0 0 0 0 0 0 0 0 0.25 0"/>
<feBlend mode="normal" in2="BackgroundImageFix" result="effect1_dropShadow_4701_1993"/>
<feBlend mode="normal" in="SourceGraphic" in2="effect1_dropShadow_4701_1993" result="shape"/>
</filter>
<filter id="filter2_d_4701_1993" x="84.038" y="27.0439" width="152.656" height="152.656" filterUnits="userSpaceOnUse" color-interpolation-filters="sRGB">
<feFlood flood-opacity="0" result="BackgroundImageFix"/>
<feColorMatrix in="SourceAlpha" type="matrix" values="0 0 0 0 0 0 0 0 0 0 0 0 0 0 0 0 0 0 127 0" result="hardAlpha"/>
<feOffset dx="-9.80998" dy="-9.80998"/>
<feGaussianBlur stdDeviation="8.27717"/>
<feComposite in2="hardAlpha" operator="out"/>
<feColorMatrix type="matrix" values="0 0 0 0 0 0 0 0 0 0 0 0 0 0 0 0 0 0 0.25 0"/>
<feBlend mode="normal" in2="BackgroundImageFix" result="effect1_dropShadow_4701_1993"/>
<feBlend mode="normal" in="SourceGraphic" in2="effect1_dropShadow_4701_1993" result="shape"/>
</filter>
<filter id="filter3_d_4701_1993" x="103.796" y="46.9835" width="113.101" height="113.102" filterUnits="userSpaceOnUse" color-interpolation-filters="sRGB">
<feFlood flood-opacity="0" result="BackgroundImageFix"/>
<feColorMatrix in="SourceAlpha" type="matrix" values="0 0 0 0 0 0 0 0 0 0 0 0 0 0 0 0 0 0 127 0" result="hardAlpha"/>
<feOffset dx="-9.80998" dy="-9.80998"/>
<feGaussianBlur stdDeviation="8.27717"/>
<feComposite in2="hardAlpha" operator="out"/>
<feColorMatrix type="matrix" values="0 0 0 0 0 0 0 0 0 0 0 0 0 0 0 0 0 0 0.25 0"/>
<feBlend mode="normal" in2="BackgroundImageFix" result="effect1_dropShadow_4701_1993"/>
<feBlend mode="normal" in="SourceGraphic" in2="effect1_dropShadow_4701_1993" result="shape"/>
</filter>
<filter id="filter4_f_4701_1993" x="56.9095" y="110.152" width="228.693" height="10.5012" filterUnits="userSpaceOnUse" color-interpolation-filters="sRGB">
<feFlood flood-opacity="0" result="BackgroundImageFix"/>
<feBlend mode="normal" in="SourceGraphic" in2="BackgroundImageFix" result="shape"/>
<feGaussianBlur stdDeviation="2.29914" result="effect1_foregroundBlur_4701_1993"/>
</filter>
<linearGradient id="paint0_linear_4701_1993" x1="313.686" y1="71.0884" x2="261.329" y2="132.957" gradientUnits="userSpaceOnUse">
<stop stop-color="#151825" stop-opacity="0.1"/>
<stop offset="0.736825" stop-color="#151825"/>
<stop offset="1" stop-color="#1A162E"/>
</linearGradient>
<linearGradient id="paint1_linear_4701_1993" x1="265.27" y1="85.0142" x2="325.809" y2="103.587" gradientUnits="userSpaceOnUse">
<stop stop-color="#595D6C"/>
<stop offset="1" stop-color="#4A3B87" stop-opacity="0.18"/>
</linearGradient>
<linearGradient id="paint2_linear_4701_1993" x1="0" y1="2.03637" x2="33.9841" y2="2.03637" gradientUnits="userSpaceOnUse">
<stop stop-opacity="0"/>
<stop offset="1"/>
</linearGradient>
<linearGradient id="paint3_linear_4701_1993" x1="290.719" y1="121.836" x2="271.745" y2="121.836" gradientUnits="userSpaceOnUse">
<stop stop-opacity="0"/>
<stop offset="1"/>
</linearGradient>
<linearGradient id="paint4_linear_4701_1993" x1="290.547" y1="131.497" x2="271.573" y2="131.497" gradientUnits="userSpaceOnUse">
<stop stop-opacity="0"/>
<stop offset="1"/>
</linearGradient>
<linearGradient id="paint5_linear_4701_1993" x1="80.7203" y1="70.6292" x2="30.0233" y2="139.346" gradientUnits="userSpaceOnUse">
<stop stop-color="#151825" stop-opacity="0.1"/>
<stop offset="0.736825" stop-color="#151825"/>
<stop offset="1" stop-color="#1A162E"/>
</linearGradient>
<linearGradient id="paint6_linear_4701_1993" x1="25.215" y1="84.5476" x2="92.7834" y2="108.325" gradientUnits="userSpaceOnUse">
<stop stop-color="#595D6C"/>
<stop offset="1" stop-color="#4A3B87" stop-opacity="0.18"/>
</linearGradient>
<linearGradient id="paint7_linear_4701_1993" x1="225.898" y1="25.1607" x2="123.007" y2="164.622" gradientUnits="userSpaceOnUse">
<stop stop-color="#151825" stop-opacity="0.1"/>
<stop offset="0.736825" stop-color="#151825"/>
<stop offset="1" stop-color="#1A162E"/>
</linearGradient>
<linearGradient id="paint8_linear_4701_1993" x1="176.42" y1="66.3663" x2="176.42" y2="179.919" gradientUnits="userSpaceOnUse">
<stop stop-color="#12B7FB" stop-opacity="0.1"/>
<stop offset="1" stop-color="#C34DD1"/>
</linearGradient>
<linearGradient id="paint9_linear_4701_1993" x1="154.647" y1="114.818" x2="154.647" y2="113.445" gradientUnits="userSpaceOnUse">
<stop stop-color="#12B7FB" stop-opacity="0.1"/>
<stop offset="1" stop-color="#C34DD1"/>
</linearGradient>
<linearGradient id="paint10_linear_4701_1993" x1="280.996" y1="114.25" x2="61.5" y2="114.25" gradientUnits="userSpaceOnUse">
<stop stop-color="#12B7FB" stop-opacity="0.1"/>
<stop offset="0.490385" stop-color="#C34DD1"/>
<stop offset="1" stop-color="#12B7FB" stop-opacity="0.1"/>
</linearGradient>
<linearGradient id="paint11_linear_4701_1993" x1="271.189" y1="16.4912" x2="224.459" y2="55.2911" gradientUnits="userSpaceOnUse">
<stop stop-color="#12B7FB" stop-opacity="0.1"/>
<stop offset="1" stop-color="#C34DD1"/>
</linearGradient>
<linearGradient id="paint12_linear_4701_1993" x1="271.189" y1="213.009" x2="224.459" y2="174.209" gradientUnits="userSpaceOnUse">
<stop stop-color="#12B7FB" stop-opacity="0.1"/>
<stop offset="1" stop-color="#C34DD1"/>
</linearGradient>
<linearGradient id="paint13_linear_4701_1993" x1="72.5809" y1="16.4912" x2="119.311" y2="55.2911" gradientUnits="userSpaceOnUse">
<stop stop-color="#12B7FB" stop-opacity="0.1"/>
<stop offset="1" stop-color="#C34DD1"/>
</linearGradient>
<linearGradient id="paint14_linear_4701_1993" x1="72.5809" y1="213.009" x2="119.311" y2="174.209" gradientUnits="userSpaceOnUse">
<stop stop-color="#12B7FB" stop-opacity="0.1"/>
<stop offset="1" stop-color="#C34DD1"/>
</linearGradient>
<clipPath id="clip0_4701_1993">
<path d="M42.2578 103.486C42.2578 99.3024 45.6496 95.9105 49.8337 95.9105H56.6367C60.8207 95.9105 64.2125 99.3024 64.2125 103.486V120.754C64.2125 126.817 59.2978 131.731 53.2352 131.731C47.1725 131.731 42.2578 126.817 42.2578 120.754V103.486Z" fill="white"/>
</clipPath>
</defs>
</svg>
