<svg width="340" height="238" viewBox="0 0 340 238" fill="none" xmlns="http://www.w3.org/2000/svg">
<path d="M164 34.7988L119.062 62.9989V113.417L164 138.35L209.785 111.708V62.9989L164 34.7988Z" fill="#020202"/>
<path opacity="0.2" d="M98.9371 49.1582L54 77.3583V127.777L98.9371 152.71L144.722 126.067V77.3583L98.9371 49.1582Z" fill="#282828"/>
<path opacity="0.2" d="M229.976 49.1582L185.039 77.3583V127.777L229.976 152.71L275.761 126.067V77.3583L229.976 49.1582Z" fill="#282828"/>
<g filter="url(#filter0_d_4701_2222)">
<path d="M162.915 23.2503L123.732 47.6472C123.107 48.0366 122.727 48.7213 122.727 49.4582V92.9945C122.727 93.7722 123.15 94.4884 123.831 94.8634L162.979 116.414C163.633 116.775 164.427 116.766 165.074 116.393L205.051 93.3125C205.711 92.9314 206.118 92.2271 206.118 91.4649V49.4699C206.118 48.7267 205.731 48.037 205.097 47.6495L165.155 23.2409C164.467 22.8202 163.6 22.8239 162.915 23.2503Z" fill="url(#paint0_linear_4701_2222)" shape-rendering="crispEdges"/>
</g>
<circle cx="163.963" cy="70.2076" r="25.6588" fill="url(#paint1_linear_4701_2222)"/>
<g filter="url(#filter1_f_4701_2222)">
<path d="M164 18L119.062 46.2001V96.6184L164 121.551L209.785 94.9093V46.2001L164 18Z" stroke="url(#paint2_linear_4701_2222)" stroke-width="1.1349"/>
</g>
<path d="M164 18L119.062 46.2001V96.6184L164 121.551L209.785 94.9093V46.2001L164 18Z" stroke="url(#paint3_linear_4701_2222)" stroke-width="1.1349"/>
<path d="M111.765 118.189L66.8281 146.39V196.808L111.765 221.741L157.55 195.099V146.39L111.765 118.189Z" fill="#020202"/>
<path d="M213.484 118.189L168.547 146.39V196.808L213.484 221.741L259.269 195.099V146.39L213.484 118.189Z" fill="#020202"/>
<g filter="url(#filter2_d_4701_2222)">
<path d="M110.689 107.532L71.5058 131.928C70.8803 132.318 70.5 133.003 70.5 133.739V177.276C70.5 178.053 70.9232 178.77 71.6046 179.145L110.752 200.696C111.406 201.056 112.201 201.048 112.848 200.674L152.824 177.594C153.484 177.213 153.891 176.508 153.891 175.746V133.751C153.891 133.008 153.504 132.318 152.87 131.931L112.929 107.522C112.24 107.101 111.374 107.105 110.689 107.532Z" fill="url(#paint4_linear_4701_2222)" shape-rendering="crispEdges"/>
</g>
<circle cx="111.659" cy="154.596" r="25.6588" fill="url(#paint5_linear_4701_2222)"/>
<g filter="url(#filter3_f_4701_2222)">
<path d="M111.765 102.281L66.8281 130.481V180.9L111.765 205.833L157.55 179.191V130.481L111.765 102.281Z" stroke="url(#paint6_linear_4701_2222)" stroke-width="1.1349"/>
</g>
<path d="M111.765 102.281L66.8281 130.481V180.9L111.765 205.833L157.55 179.191V130.481L111.765 102.281Z" stroke="url(#paint7_linear_4701_2222)" stroke-width="1.1349"/>
<g filter="url(#filter4_d_4701_2222)">
<path d="M211.954 106.608L172.771 131.005C172.146 131.394 171.766 132.079 171.766 132.816V176.352C171.766 177.13 172.189 177.846 172.87 178.221L212.018 199.772C212.672 200.132 213.467 200.124 214.113 199.751L254.09 176.67C254.75 176.289 255.157 175.585 255.157 174.822V132.827C255.157 132.084 254.77 131.394 254.136 131.007L214.194 106.598C213.506 106.178 212.639 106.181 211.954 106.608Z" fill="url(#paint8_linear_4701_2222)" shape-rendering="crispEdges"/>
</g>
<circle cx="213.659" cy="153.659" r="25.6588" fill="url(#paint9_linear_4701_2222)"/>
<g filter="url(#filter5_f_4701_2222)">
<path d="M213.484 101.365L168.547 129.565V179.984L213.484 204.917L259.269 178.275V129.565L213.484 101.365Z" stroke="url(#paint10_linear_4701_2222)" stroke-width="1.1349"/>
</g>
<path d="M213.484 101.365L168.547 129.565V179.984L213.484 204.917L259.269 178.275V129.565L213.484 101.365Z" stroke="url(#paint11_linear_4701_2222)" stroke-width="1.1349"/>
<path d="M164.267 54L164.043 54.752V76.5716L164.267 76.7924L174.53 70.8056L164.267 54Z" fill="black"/>
<path d="M164.263 54L154 70.8056L164.263 76.7924V66.2018V54Z" fill="#242424"/>
<path d="M164.267 78.7111L164.141 78.8633V86.6357L164.267 87L174.536 72.7274L164.267 78.7111Z" fill="#242424"/>
<path d="M164.263 87V78.7111L154 72.7274L164.263 87Z" fill="black"/>
<path d="M164.266 76.7928L174.529 70.8059L164.266 66.2022V76.7928Z" fill="black"/>
<path d="M154 70.8059L164.263 76.7928V66.2022L154 70.8059Z" fill="black"/>
<path d="M101.017 155.365L101.034 161.463L106.215 164.511V168.081L98.0018 163.264V153.582L101.017 155.365ZM101.017 149.268V152.821L98 151.036V147.483L101.017 145.698L104.049 147.483L101.017 149.268ZM108.378 147.483L111.396 145.698L114.428 147.483L111.396 149.268L108.378 147.483Z" fill="black"/>
<path d="M103.196 160.199V156.629L106.213 158.414V161.967L103.196 160.199ZM108.377 165.79L111.394 167.575L114.426 165.79V169.343L111.394 171.128L108.377 169.343V165.79ZM118.754 147.483L121.771 145.698L124.803 147.483V151.036L121.771 152.821V149.268L118.754 147.483ZM121.771 161.463L121.787 155.365L124.805 153.581V163.262L116.592 168.079V164.51L121.771 161.463Z" fill="black"/>
<path d="M119.608 160.199L116.591 161.967V158.414L119.608 156.629V160.199Z" fill="black"/>
<path d="M119.607 150.532L119.624 154.102L114.428 157.151V163.263L111.411 165.031L108.394 163.263V157.151L103.198 154.102V150.532L106.228 148.748L111.392 151.811L116.588 148.748L119.62 150.532H119.607ZM103.196 144.437L111.394 139.604L119.607 144.437L116.59 146.222L111.394 143.158L106.213 146.222L103.196 144.437Z" fill="black"/>
<path fill-rule="evenodd" clip-rule="evenodd" d="M221.037 151.34C222.339 152.976 223.123 155.054 223.123 157.307C223.123 159.56 222.322 161.696 220.979 163.349L220.862 163.491L220.828 163.307C220.803 163.157 220.77 162.998 220.737 162.84C220.069 159.894 217.883 157.365 214.277 155.312C211.849 153.935 210.455 152.275 210.088 150.389C209.854 149.17 210.03 147.943 210.363 146.892C210.706 145.84 211.206 144.964 211.632 144.438L213.034 142.728C213.276 142.427 213.743 142.427 213.985 142.728L221.037 151.34ZM223.249 149.629L213.868 138.163C213.693 137.946 213.351 137.946 213.176 138.163L203.787 149.629L203.754 149.671C202.035 151.816 201 154.536 201 157.499C201 164.4 206.608 170 213.518 170C220.428 170 226.036 164.4 226.036 157.499C226.036 154.536 225.001 151.816 223.274 149.671L223.249 149.629ZM206.032 151.307L206.867 150.28L206.892 150.472C206.908 150.622 206.933 150.772 206.967 150.923C207.509 153.768 209.454 156.147 212.692 157.983C215.512 159.585 217.148 161.429 217.624 163.457C217.824 164.3 217.857 165.135 217.774 165.861L217.766 165.902L217.724 165.919C216.455 166.537 215.02 166.887 213.51 166.887C208.21 166.887 203.913 162.598 203.913 157.307C203.913 155.037 204.705 152.942 206.032 151.307Z" fill="black"/>
<defs>
<filter id="filter0_d_4701_2222" x="99.7925" y="-0.00618076" width="112.192" height="122.552" filterUnits="userSpaceOnUse" color-interpolation-filters="sRGB">
<feFlood flood-opacity="0" result="BackgroundImageFix"/>
<feColorMatrix in="SourceAlpha" type="matrix" values="0 0 0 0 0 0 0 0 0 0 0 0 0 0 0 0 0 0 127 0" result="hardAlpha"/>
<feOffset dx="-8.53362" dy="-8.53362"/>
<feGaussianBlur stdDeviation="7.20024"/>
<feComposite in2="hardAlpha" operator="out"/>
<feColorMatrix type="matrix" values="0 0 0 0 0 0 0 0 0 0 0 0 0 0 0 0 0 0 0.25 0"/>
<feBlend mode="normal" in2="BackgroundImageFix" result="effect1_dropShadow_4701_2222"/>
<feBlend mode="normal" in="SourceGraphic" in2="effect1_dropShadow_4701_2222" result="shape"/>
</filter>
<filter id="filter1_f_4701_2222" x="114.496" y="13.3318" width="99.8555" height="112.872" filterUnits="userSpaceOnUse" color-interpolation-filters="sRGB">
<feFlood flood-opacity="0" result="BackgroundImageFix"/>
<feBlend mode="normal" in="SourceGraphic" in2="BackgroundImageFix" result="shape"/>
<feGaussianBlur stdDeviation="2" result="effect1_foregroundBlur_4701_2222"/>
</filter>
<filter id="filter2_d_4701_2222" x="47.5659" y="84.2751" width="112.192" height="122.552" filterUnits="userSpaceOnUse" color-interpolation-filters="sRGB">
<feFlood flood-opacity="0" result="BackgroundImageFix"/>
<feColorMatrix in="SourceAlpha" type="matrix" values="0 0 0 0 0 0 0 0 0 0 0 0 0 0 0 0 0 0 127 0" result="hardAlpha"/>
<feOffset dx="-8.53362" dy="-8.53362"/>
<feGaussianBlur stdDeviation="7.20024"/>
<feComposite in2="hardAlpha" operator="out"/>
<feColorMatrix type="matrix" values="0 0 0 0 0 0 0 0 0 0 0 0 0 0 0 0 0 0 0.25 0"/>
<feBlend mode="normal" in2="BackgroundImageFix" result="effect1_dropShadow_4701_2222"/>
<feBlend mode="normal" in="SourceGraphic" in2="effect1_dropShadow_4701_2222" result="shape"/>
</filter>
<filter id="filter3_f_4701_2222" x="62.2617" y="97.6131" width="99.8555" height="112.872" filterUnits="userSpaceOnUse" color-interpolation-filters="sRGB">
<feFlood flood-opacity="0" result="BackgroundImageFix"/>
<feBlend mode="normal" in="SourceGraphic" in2="BackgroundImageFix" result="shape"/>
<feGaussianBlur stdDeviation="2" result="effect1_foregroundBlur_4701_2222"/>
</filter>
<filter id="filter4_d_4701_2222" x="148.832" y="83.3512" width="112.192" height="122.552" filterUnits="userSpaceOnUse" color-interpolation-filters="sRGB">
<feFlood flood-opacity="0" result="BackgroundImageFix"/>
<feColorMatrix in="SourceAlpha" type="matrix" values="0 0 0 0 0 0 0 0 0 0 0 0 0 0 0 0 0 0 127 0" result="hardAlpha"/>
<feOffset dx="-8.53362" dy="-8.53362"/>
<feGaussianBlur stdDeviation="7.20024"/>
<feComposite in2="hardAlpha" operator="out"/>
<feColorMatrix type="matrix" values="0 0 0 0 0 0 0 0 0 0 0 0 0 0 0 0 0 0 0.25 0"/>
<feBlend mode="normal" in2="BackgroundImageFix" result="effect1_dropShadow_4701_2222"/>
<feBlend mode="normal" in="SourceGraphic" in2="effect1_dropShadow_4701_2222" result="shape"/>
</filter>
<filter id="filter5_f_4701_2222" x="163.98" y="96.6971" width="99.8555" height="112.872" filterUnits="userSpaceOnUse" color-interpolation-filters="sRGB">
<feFlood flood-opacity="0" result="BackgroundImageFix"/>
<feBlend mode="normal" in="SourceGraphic" in2="BackgroundImageFix" result="shape"/>
<feGaussianBlur stdDeviation="2" result="effect1_foregroundBlur_4701_2222"/>
</filter>
<linearGradient id="paint0_linear_4701_2222" x1="203.291" y1="0.239785" x2="119.577" y2="100.433" gradientUnits="userSpaceOnUse">
<stop stop-color="#151825" stop-opacity="0.1"/>
<stop offset="0.736825" stop-color="#151825"/>
<stop offset="1" stop-color="#1A162E"/>
</linearGradient>
<linearGradient id="paint1_linear_4701_2222" x1="189.622" y1="70.2076" x2="138.305" y2="70.2076" gradientUnits="userSpaceOnUse">
<stop stop-color="#AA83FF"/>
<stop offset="1" stop-color="#D0FFCC"/>
</linearGradient>
<linearGradient id="paint2_linear_4701_2222" x1="171.288" y1="10.9736" x2="171.288" y2="153.111" gradientUnits="userSpaceOnUse">
<stop stop-color="#12B7FB" stop-opacity="0.1"/>
<stop offset="1" stop-color="#C34DD1"/>
</linearGradient>
<linearGradient id="paint3_linear_4701_2222" x1="171.288" y1="10.9736" x2="171.288" y2="153.111" gradientUnits="userSpaceOnUse">
<stop stop-color="#12B7FB" stop-opacity="0.1"/>
<stop offset="1" stop-color="#C34DD1"/>
</linearGradient>
<linearGradient id="paint4_linear_4701_2222" x1="151.064" y1="84.521" x2="67.3506" y2="184.714" gradientUnits="userSpaceOnUse">
<stop stop-color="#151825" stop-opacity="0.1"/>
<stop offset="0.736825" stop-color="#151825"/>
<stop offset="1" stop-color="#1A162E"/>
</linearGradient>
<linearGradient id="paint5_linear_4701_2222" x1="137.318" y1="154.596" x2="86" y2="154.596" gradientUnits="userSpaceOnUse">
<stop stop-color="#AA83FF"/>
<stop offset="1" stop-color="#D0FFCC"/>
</linearGradient>
<linearGradient id="paint6_linear_4701_2222" x1="119.054" y1="95.2548" x2="119.054" y2="237.392" gradientUnits="userSpaceOnUse">
<stop stop-color="#12B7FB" stop-opacity="0.1"/>
<stop offset="1" stop-color="#C34DD1"/>
</linearGradient>
<linearGradient id="paint7_linear_4701_2222" x1="119.054" y1="95.2548" x2="119.054" y2="237.392" gradientUnits="userSpaceOnUse">
<stop stop-color="#12B7FB" stop-opacity="0.1"/>
<stop offset="1" stop-color="#C34DD1"/>
</linearGradient>
<linearGradient id="paint8_linear_4701_2222" x1="252.33" y1="83.5972" x2="168.616" y2="183.79" gradientUnits="userSpaceOnUse">
<stop stop-color="#151825" stop-opacity="0.1"/>
<stop offset="0.736825" stop-color="#151825"/>
<stop offset="1" stop-color="#1A162E"/>
</linearGradient>
<linearGradient id="paint9_linear_4701_2222" x1="239.318" y1="153.659" x2="188" y2="153.659" gradientUnits="userSpaceOnUse">
<stop stop-color="#AA83FF"/>
<stop offset="1" stop-color="#D0FFCC"/>
</linearGradient>
<linearGradient id="paint10_linear_4701_2222" x1="220.773" y1="94.3388" x2="220.773" y2="236.476" gradientUnits="userSpaceOnUse">
<stop stop-color="#12B7FB" stop-opacity="0.1"/>
<stop offset="1" stop-color="#C34DD1"/>
</linearGradient>
<linearGradient id="paint11_linear_4701_2222" x1="220.773" y1="94.3388" x2="220.773" y2="236.476" gradientUnits="userSpaceOnUse">
<stop stop-color="#12B7FB" stop-opacity="0.1"/>
<stop offset="1" stop-color="#C34DD1"/>
</linearGradient>
</defs>
</svg>
