<svg width="112" height="22" viewBox="0 0 112 22" fill="none" xmlns="http://www.w3.org/2000/svg">
<path d="M36.7477 16.5774C36.5721 16.6359 36.3605 16.6832 36.1129 16.7192C35.8653 16.7552 35.6177 16.7732 35.3701 16.7732C34.9199 16.7732 34.535 16.7372 34.2154 16.6652C33.9003 16.5931 33.5649 16.4716 33.2092 16.3005C32.8131 16.1114 32.3066 15.8503 31.6898 15.5172C31.0731 15.1841 30.6161 14.9207 30.319 14.7271C29.5987 14.538 28.9662 14.2499 28.4215 13.8628C27.8767 13.4711 27.4513 12.9781 27.1452 12.3839C26.8391 11.7851 26.686 11.0986 26.686 10.3243C26.686 9.40589 26.8953 8.59556 27.314 7.89326C27.7327 7.19097 28.2977 6.64849 29.009 6.26584C29.7248 5.88318 30.5081 5.69185 31.359 5.69185C32.2053 5.69185 32.9819 5.88092 33.6887 6.25908C34.3955 6.63724 34.956 7.17296 35.3701 7.86625C35.7888 8.55954 35.9981 9.35637 35.9981 10.2567C35.9981 11.0356 35.8293 11.7379 35.4917 12.3636C35.1585 12.9894 34.7016 13.5049 34.1209 13.91C33.5446 14.3152 32.8941 14.5876 32.1693 14.7271C32.8446 15.0512 33.3848 15.2943 33.79 15.4564C34.1996 15.623 34.6251 15.7558 35.0662 15.8548C35.5074 15.9584 36.0409 16.0372 36.6667 16.0912L36.7477 16.5774ZM31.5683 14.3084C32.095 14.3084 32.5745 14.1711 33.0066 13.8965C33.4433 13.6174 33.7877 13.2055 34.0398 12.6608C34.2964 12.116 34.4247 11.4588 34.4247 10.6889C34.4247 9.86959 34.2852 9.11777 34.0061 8.43349C33.7269 7.7492 33.3375 7.20898 32.8378 6.81281C32.3381 6.41215 31.7686 6.21181 31.1294 6.21181C30.5981 6.21181 30.1142 6.35587 29.6775 6.64399C29.2408 6.92761 28.8964 7.33728 28.6443 7.87301C28.3922 8.40423 28.2662 9.02323 28.2662 9.73003C28.2662 10.6394 28.4125 11.4407 28.7051 12.134C29.0022 12.8273 29.4006 13.363 29.9003 13.7412C30.4046 14.1194 30.9605 14.3084 31.5683 14.3084ZM41.1708 6.21181C40.9862 6.27934 40.7476 6.34237 40.455 6.40089C40.2119 6.45041 40.0363 6.50669 39.9283 6.56971C39.8247 6.62824 39.7437 6.74529 39.6852 6.92086C39.6312 7.09193 39.6041 7.36654 39.6041 7.7447V10.6282C39.6041 11.7131 39.8225 12.564 40.2592 13.1807C40.7003 13.793 41.4477 14.0991 42.5011 14.0991C44.4324 14.0991 45.3981 12.9039 45.3981 10.5134V7.8595C45.3981 7.45883 45.3688 7.16621 45.3103 6.98163C45.2562 6.79706 45.1707 6.671 45.0537 6.60348C44.9366 6.53145 44.7408 6.46167 44.4662 6.39414C44.2051 6.32661 43.9912 6.26358 43.8246 6.20506V5.86067H47.4644L47.4779 6.21181C47.4104 6.24783 47.3361 6.27709 47.2551 6.2996C47.1785 6.31761 47.075 6.33787 46.9444 6.36037C46.7734 6.39189 46.6361 6.4234 46.5325 6.45491C46.429 6.48193 46.3322 6.53145 46.2422 6.60348C46.1566 6.671 46.0958 6.76554 46.0598 6.88709C45.9878 7.1347 45.9518 7.42282 45.9518 7.75145C45.9518 7.96754 45.9563 8.30969 45.9653 8.77788C45.9743 9.24608 45.9788 9.59722 45.9788 9.83132C45.9788 10.8577 45.8888 11.7244 45.7087 12.4312C45.5331 13.138 45.1572 13.7142 44.581 14.1599C44.0092 14.6056 43.1651 14.8284 42.0487 14.8284C41.4004 14.8284 40.7971 14.7271 40.2389 14.5245C39.6807 14.3174 39.217 13.9978 38.8478 13.5656C38.4832 13.1334 38.2671 12.5932 38.1996 11.945C38.1455 11.4768 38.1185 10.8848 38.1185 10.169C38.1185 9.75479 38.1253 9.34512 38.1388 8.93995C38.1478 8.39972 38.1523 7.99906 38.1523 7.73795C38.1523 7.40481 38.1298 7.14595 38.0848 6.96138C38.0397 6.7813 37.9272 6.64624 37.7471 6.55621C37.5715 6.46617 37.3329 6.38288 37.0313 6.30635C36.8828 6.26584 36.7657 6.23207 36.6802 6.20506L36.7004 5.86067H41.1573L41.1708 6.21181ZM51.0164 12.8971C51.0164 13.2392 51.0457 13.4913 51.1042 13.6534C51.1672 13.8155 51.2505 13.9235 51.354 13.9776C51.4621 14.0316 51.6309 14.0788 51.8605 14.1194C52.1261 14.1644 52.3625 14.2229 52.5695 14.2949L52.556 14.6528H48.0654V14.3017C48.196 14.2432 48.313 14.2026 48.4166 14.1801C48.5246 14.1531 48.6597 14.1261 48.8217 14.0991C49.0243 14.0721 49.1729 14.0338 49.2674 13.9843C49.362 13.9303 49.434 13.8132 49.4835 13.6332C49.5375 13.4531 49.5645 13.1672 49.5645 12.7755V7.69743C49.5645 7.32828 49.533 7.05591 49.47 6.88034C49.407 6.70477 49.3237 6.59222 49.2201 6.5427C49.1211 6.49318 48.9725 6.45491 48.7745 6.4279C48.6124 6.40089 48.4773 6.37388 48.3693 6.34687C48.2658 6.31986 48.1555 6.27259 48.0384 6.20506L48.0519 5.86067H52.529L52.5425 6.21181C52.448 6.24783 52.3129 6.28609 52.1374 6.32661C51.8898 6.38964 51.6917 6.45266 51.5431 6.51569C51.3946 6.57872 51.2685 6.67776 51.165 6.81281C51.0659 6.94337 51.0164 7.12344 51.0164 7.35304V12.8971ZM61.6386 8.29843C61.5801 8.23991 61.517 8.15887 61.4495 8.05533C61.382 7.94729 61.3167 7.83699 61.2537 7.72444C61.2402 7.70193 61.2041 7.64116 61.1456 7.54212C61.0871 7.44308 61.0331 7.35754 60.9836 7.28551C60.934 7.21348 60.8868 7.15496 60.8417 7.10994C60.5401 6.80831 60.2047 6.58322 59.8356 6.43466C59.4709 6.28609 59.086 6.21181 58.6808 6.21181C58.0956 6.21181 57.5486 6.36488 57.0399 6.671C56.5357 6.97263 56.1305 7.41381 55.8244 7.99456C55.5228 8.5753 55.372 9.26409 55.372 10.0609C55.372 10.8758 55.5183 11.5893 55.8109 12.2016C56.108 12.8093 56.5267 13.2798 57.0669 13.6129C57.6116 13.9415 58.2442 14.1059 58.9645 14.1059C59.5767 14.1059 60.1192 13.9798 60.5919 13.7277C61.0691 13.4711 61.4382 13.0952 61.6994 12.6L62.0302 12.6472L61.9695 13.9235C61.4788 14.1981 60.9115 14.4187 60.2678 14.5853C59.6285 14.7474 59.032 14.8284 58.4783 14.8284C57.5959 14.8284 56.7991 14.6461 56.0878 14.2814C55.3765 13.9168 54.816 13.3946 54.4063 12.7148C53.9966 12.035 53.7918 11.2404 53.7918 10.331C53.7918 9.47117 54.0011 8.68784 54.4198 7.98105C54.8385 7.27426 55.4327 6.71602 56.2026 6.30635C56.9724 5.89668 57.8615 5.69185 58.8699 5.69185C59.7928 5.69185 60.7292 5.87642 61.6791 6.24558L61.956 8.28493L61.6386 8.29843ZM66.6964 9.75029L69.7757 6.69802C69.7937 6.64399 69.8027 6.59447 69.8027 6.54945C69.8027 6.4234 69.7487 6.34012 69.6407 6.2996C69.5326 6.25908 69.3683 6.22757 69.1477 6.20506C68.9721 6.18705 68.8416 6.16454 68.756 6.13753C68.675 6.11052 68.6345 6.05875 68.6345 5.98222C68.6345 5.96871 68.6457 5.92819 68.6683 5.86067H72.4768L72.5039 5.98222C72.5039 6.04074 72.4183 6.09927 72.2473 6.15779C72.0762 6.21631 71.8421 6.27709 71.545 6.34012C71.1128 6.43466 70.7931 6.56746 70.5861 6.73853L67.966 9.42615L71.1263 13.775C71.1848 13.838 71.2838 13.8988 71.4234 13.9573C71.5675 14.0113 71.7588 14.0766 71.9974 14.1531C72.2495 14.2297 72.4408 14.2972 72.5714 14.3557C72.7064 14.4142 72.774 14.4728 72.774 14.5313C72.774 14.5808 72.765 14.6213 72.747 14.6528H68.128C68.101 14.5943 68.0875 14.556 68.0875 14.538C68.0875 14.4705 68.128 14.4232 68.2091 14.3962C68.2946 14.3647 68.4274 14.3354 68.6075 14.3084C68.8236 14.2769 68.9856 14.2409 69.0937 14.2004C69.2062 14.1554 69.2625 14.0766 69.2625 13.964C69.2625 13.919 69.2242 13.847 69.1477 13.748L66.7234 10.196H66.1157V13.8155C66.1157 13.955 66.1607 14.0608 66.2507 14.1329C66.3453 14.2004 66.4578 14.2454 66.5884 14.2679C66.7189 14.2859 66.8855 14.2994 67.0881 14.3084C67.3087 14.3219 67.4685 14.3422 67.5675 14.3692C67.6666 14.3917 67.7161 14.4435 67.7161 14.5245C67.7161 14.5335 67.7049 14.5763 67.6823 14.6528H63.158C63.14 14.5988 63.1309 14.5605 63.1309 14.538C63.1309 14.4615 63.1805 14.4097 63.2795 14.3827C63.3786 14.3512 63.5294 14.3242 63.7319 14.3017C63.93 14.2747 64.0898 14.2477 64.2114 14.2207C64.333 14.1936 64.4387 14.1441 64.5288 14.0721C64.6188 14.0001 64.6638 13.901 64.6638 13.775V6.77905C64.6638 6.60348 64.5806 6.47967 64.414 6.40764C64.2474 6.33561 64.0133 6.27709 63.7117 6.23207C63.5046 6.19606 63.3538 6.16229 63.2593 6.13078C63.1692 6.09927 63.1242 6.04975 63.1242 5.98222C63.1242 5.96871 63.1355 5.92819 63.158 5.86067H67.6553C67.6733 5.91919 67.6823 5.95746 67.6823 5.97546C67.6823 6.052 67.6328 6.10602 67.5338 6.13753C67.4347 6.16904 67.2794 6.20056 67.0678 6.23207C66.8653 6.26358 66.7009 6.2951 66.5749 6.32661C66.4488 6.35812 66.3408 6.4099 66.2507 6.48193C66.1607 6.55396 66.1157 6.653 66.1157 6.77905V9.75029H66.6964ZM73.9017 11.9382C73.9467 12.0147 73.9827 12.0935 74.0097 12.1745C74.0412 12.2556 74.075 12.3614 74.111 12.4919C74.129 12.5369 74.1448 12.5887 74.1583 12.6472C74.3159 13.165 74.6152 13.5634 75.0564 13.8425C75.4976 14.1216 76.0018 14.2612 76.5691 14.2612C76.8662 14.2612 77.1543 14.2094 77.4334 14.1059C77.717 13.9978 77.9489 13.838 78.129 13.6264C78.3135 13.4103 78.4058 13.1492 78.4058 12.8431C78.4058 12.5775 78.3113 12.3299 78.1222 12.1003C77.9376 11.8707 77.7058 11.6658 77.4267 11.4858C77.152 11.3012 76.7716 11.0738 76.2854 10.8037C75.7137 10.4886 75.25 10.2095 74.8944 9.96638C74.5387 9.72328 74.2371 9.43516 73.9895 9.10202C73.7419 8.76438 73.6181 8.38397 73.6181 7.96079C73.6181 7.43857 73.7644 7.00864 74.057 6.671C74.3541 6.32886 74.7323 6.08126 75.1915 5.92819C75.6552 5.77063 76.1436 5.69185 76.6568 5.69185C77.098 5.69185 77.537 5.74587 77.9736 5.85391C78.4148 5.96196 78.8335 6.11727 79.2297 6.31986L79.3174 8.24441H78.8988C78.8447 8.14087 78.7817 7.97655 78.7097 7.75145L78.6422 7.55562C78.4891 7.11444 78.2235 6.7813 77.8453 6.55621C77.4717 6.32661 77.0395 6.21181 76.5488 6.21181C76.2967 6.21181 76.0423 6.25458 75.7857 6.34012C75.5291 6.42565 75.313 6.55846 75.1375 6.73853C74.9664 6.91411 74.8808 7.13245 74.8808 7.39356C74.8808 7.63666 74.9709 7.864 75.151 8.07559C75.331 8.28718 75.5539 8.48076 75.8195 8.65633C76.0851 8.8274 76.452 9.04349 76.9202 9.3046C77.5189 9.63774 78.0029 9.93261 78.3721 10.1892C78.7457 10.4413 79.0631 10.7475 79.3242 11.1076C79.5898 11.4678 79.7226 11.8752 79.7226 12.3299C79.7226 12.8926 79.5673 13.363 79.2567 13.7412C78.946 14.1149 78.5431 14.3895 78.0479 14.565C77.5572 14.7406 77.035 14.8284 76.4813 14.8284C75.9861 14.8284 75.4526 14.7676 74.8808 14.6461C74.3136 14.52 73.8544 14.349 73.5033 14.1329V11.9517L73.9017 11.9382ZM86.7726 7.42057L86.6105 7.00864C86.5385 6.82857 86.4822 6.69351 86.4417 6.60348C86.3876 6.55846 86.2031 6.47517 85.8879 6.35362C85.6403 6.25458 85.4625 6.1803 85.3545 6.13078C85.2464 6.08126 85.1924 6.03624 85.1924 5.99572C85.1924 5.98672 85.1992 5.96421 85.2127 5.92819C85.2262 5.89218 85.2352 5.86967 85.2397 5.86067H89.575C89.5795 5.87417 89.5862 5.89668 89.5952 5.92819C89.6087 5.95971 89.6155 5.98222 89.6155 5.99572C89.6155 6.09927 89.566 6.16679 89.4669 6.19831C89.3724 6.22982 89.2216 6.25458 89.0145 6.27259C88.7849 6.2906 88.6116 6.32211 88.4945 6.36713C88.3775 6.40764 88.319 6.49543 88.319 6.63049C88.319 6.72503 88.5711 7.56913 89.0753 9.16279C89.584 10.7565 89.9194 11.7874 90.0814 12.2556L90.2705 11.6816C91.324 8.53478 91.8507 6.85333 91.8507 6.63724C91.8507 6.49768 91.7831 6.40089 91.6481 6.34687C91.513 6.28834 91.315 6.24107 91.0538 6.20506C90.9458 6.19155 90.84 6.17355 90.7365 6.15104C90.6329 6.12853 90.5519 6.10152 90.4934 6.07L90.4528 5.99572L90.4934 5.86067H93.9846C94.0026 5.86067 94.0251 5.86967 94.0521 5.88768C94.0791 5.90118 94.0971 5.91694 94.1061 5.93495C94.1061 6.00248 94.0543 6.0565 93.9508 6.09701C93.8473 6.13303 93.6807 6.1758 93.4511 6.22532C93.1135 6.29735 92.8456 6.37613 92.6475 6.46167C92.4494 6.5427 92.3189 6.66875 92.2558 6.83982C92.2063 6.97938 92.1546 7.14145 92.1005 7.32603C92.0465 7.5061 92.0082 7.63441 91.9857 7.71094C91.9587 7.81898 91.9362 7.90002 91.9182 7.95404L89.8991 14.6461C89.8721 14.7361 89.7776 14.7811 89.6155 14.7811C89.5435 14.7811 89.4827 14.7721 89.4332 14.7541C89.3881 14.7361 89.3521 14.7001 89.3251 14.6461C89.2396 14.4795 89.1541 14.2342 89.0685 13.91L88.947 13.5251L87.0292 7.94053L85.2802 12.9714C85.2397 13.0839 85.1834 13.2663 85.1114 13.5184C85.0258 13.802 84.9538 14.0248 84.8953 14.1869C84.8368 14.349 84.7715 14.502 84.6994 14.6461C84.6724 14.7046 84.6364 14.7429 84.5914 14.7609C84.5464 14.7834 84.4879 14.7946 84.4158 14.7946C84.2808 14.7946 84.166 14.7001 84.0714 14.511C83.9769 14.3219 83.8824 14.0788 83.7878 13.7817L83.7203 13.5656L82.7951 11.0873C82.2954 9.72778 81.789 8.37722 81.2758 7.03566C81.2037 6.85108 81.0979 6.71377 80.9584 6.62373C80.8233 6.52919 80.641 6.43916 80.4114 6.35362C80.2403 6.2906 80.1098 6.23657 80.0197 6.19155C79.9297 6.14654 79.8464 6.08576 79.7699 6.00923L79.8172 5.86067H84.1592C84.1637 5.87417 84.1705 5.89668 84.1795 5.92819C84.1885 5.95521 84.193 5.97771 84.193 5.99572C84.193 6.08576 84.148 6.14879 84.0579 6.1848C83.9724 6.21631 83.8418 6.24333 83.6663 6.26584C83.4502 6.29285 83.2836 6.33336 83.1666 6.38739C83.054 6.43691 82.9977 6.53145 82.9977 6.671C82.9977 6.73403 83.2386 7.44983 83.7203 8.8184C84.2065 10.187 84.6184 11.3372 84.956 12.2691L86.7726 7.42057ZM95.5512 11.0603L95.4229 11.3845C95.2203 11.9112 95.0605 12.3456 94.9435 12.6878C94.8264 13.0254 94.7679 13.2865 94.7679 13.4711C94.7679 13.6332 94.8264 13.766 94.9435 13.8695C95.065 13.973 95.2023 14.0496 95.3554 14.0991C95.5129 14.1486 95.7043 14.1959 95.9294 14.2409L96.0577 14.2679V14.6528H92.8703V14.3017C92.9334 14.2522 92.9964 14.2116 93.0594 14.1801C93.127 14.1441 93.2102 14.1059 93.3093 14.0653C93.4668 14.0023 93.5929 13.937 93.6874 13.8695C93.7865 13.802 93.8743 13.6962 93.9508 13.5521C93.9958 13.4621 94.0408 13.3608 94.0859 13.2482C94.1354 13.1312 94.1669 13.0547 94.1804 13.0187L94.2614 12.8093L96.787 6.34012C96.805 6.2906 96.8185 6.20506 96.8275 6.08351C96.832 5.99347 96.8387 5.92144 96.8478 5.86742C96.8613 5.80889 96.8838 5.75712 96.9153 5.7121C97.1359 5.7121 97.325 5.73461 97.4825 5.77963C97.6446 5.82465 97.8067 5.90794 97.9687 6.02949L101.068 13.4643C101.127 13.6039 101.194 13.7164 101.271 13.802C101.347 13.883 101.426 13.946 101.507 13.9911C101.593 14.0316 101.708 14.0811 101.852 14.1396C101.973 14.1801 102.101 14.2342 102.237 14.3017L102.223 14.6528H98.2929L98.2794 14.3017C98.4909 14.2387 98.671 14.1756 98.8196 14.1126C98.9726 14.0496 99.1099 13.9618 99.2315 13.8492C99.353 13.7367 99.4138 13.5994 99.4138 13.4373C99.4138 13.2573 99.1887 12.5887 98.7385 11.4317C98.7115 11.3642 98.6845 11.2989 98.6575 11.2359C98.635 11.1729 98.6147 11.1144 98.5967 11.0603H95.5512ZM97.0166 7.1437L95.7808 10.4661H98.3469L97.0166 7.1437ZM104.06 7.69068C104.06 7.35304 104.031 7.10318 103.972 6.94112C103.918 6.77905 103.839 6.6665 103.736 6.60348C103.637 6.54045 103.475 6.47742 103.249 6.4144C103.024 6.35137 102.819 6.28159 102.635 6.20506L102.648 5.86067H105.998C106.844 5.86067 107.585 5.90794 108.219 6.00248C108.854 6.09251 109.408 6.31761 109.881 6.67776C110.353 7.03341 110.59 7.57813 110.59 8.31194C110.59 8.89718 110.45 9.38789 110.171 9.78405C109.892 10.1802 109.516 10.4751 109.043 10.6687C108.575 10.8577 108.053 10.9523 107.477 10.9523C107.373 10.9523 107.207 10.9343 106.977 10.8983C106.747 10.8623 106.538 10.8105 106.349 10.743C106.164 10.6754 106.072 10.5966 106.072 10.5066C106.072 10.4256 106.171 10.3851 106.369 10.3851H106.471C107.015 10.3851 107.468 10.3378 107.828 10.2432C108.192 10.1442 108.481 9.95062 108.692 9.6625C108.908 9.36988 109.016 8.9512 109.016 8.40648C109.016 7.90677 108.879 7.50385 108.604 7.19772C108.33 6.88709 107.979 6.6665 107.551 6.53595C107.123 6.40089 106.664 6.33336 106.173 6.33336C105.975 6.33336 105.757 6.34462 105.518 6.36713V12.7958C105.518 13.1785 105.543 13.4553 105.593 13.6264C105.642 13.7975 105.714 13.91 105.809 13.964C105.903 14.0181 106.059 14.0631 106.275 14.0991C106.567 14.1486 106.826 14.2161 107.051 14.3017L107.038 14.6528H102.648L102.628 14.3017L102.844 14.2409C103.11 14.1689 103.321 14.0991 103.479 14.0316C103.641 13.9595 103.778 13.8537 103.891 13.7142C104.003 13.5746 104.06 13.3878 104.06 13.1537V7.69068Z" fill="#8A94A6"/>
<path d="M10.2424 0.0183302C15.5953 -0.291083 20.3726 3.34762 21.4958 8.58908C21.8021 10.0279 21.8145 11.5161 21.5329 12.9611C20.8305 16.5255 18.3986 19.5021 15.0476 20.9037C12.7641 21.8629 10.1527 21.996 7.77949 21.2905C4.52756 20.322 1.90992 17.8931 0.703209 14.7217C-0.163148 12.4475 -0.231219 9.88243 0.511373 7.56492C1.87898 3.27645 5.74974 0.275143 10.2424 0.0183302Z" fill="#8A94A6"/>
<path d="M4.18186 10.0805C4.22518 10.2785 4.24993 10.4796 4.29325 10.6807C4.3211 10.8014 4.35823 10.7736 4.42011 10.721C4.54078 10.6219 4.65526 10.5137 4.78831 10.4332C4.82544 10.4394 4.8471 10.4703 4.86566 10.4982C5.21839 10.9592 5.68561 11.2408 6.23946 11.3924C6.49318 11.4636 6.75618 11.51 7.01918 11.5378C6.93564 11.445 6.86757 11.3429 6.81497 11.2284C6.72524 11.0304 6.75618 10.854 6.90779 10.6962C7.09035 10.5044 7.32859 10.4239 7.57303 10.362C8.08356 10.229 8.60338 10.2166 9.12629 10.2537C9.54709 10.2816 9.9617 10.3528 10.3701 10.4672C10.7105 10.5632 11.0416 10.6745 11.3417 10.8664C11.385 10.9004 11.4128 10.9468 11.4531 10.9809C11.8398 11.3955 12.0657 11.8844 12.0812 12.4506C12.0905 12.8404 11.9822 13.2148 11.7872 13.5583C11.4345 14.1771 10.9178 14.6288 10.3021 14.9723C9.67704 15.3219 8.98705 15.5385 8.2723 15.6128C6.99752 15.752 5.81247 15.4735 4.72643 14.7959C3.82294 14.2328 3.12676 13.4624 2.56053 12.5713C2.29753 12.1474 2.06547 11.7049 1.86435 11.247C1.8396 11.1913 1.83341 11.1294 1.80866 11.083C1.82413 11.1387 1.85507 11.1975 1.79628 11.2562C1.77772 11.0242 1.79938 10.7952 1.81175 10.5663C1.8427 9.93196 1.94171 9.30385 2.1057 8.6943C2.85138 5.93743 4.85019 3.69418 7.50496 2.63599C8.30325 2.31729 9.14176 2.11927 9.99574 2.04192C11.3448 1.91815 12.6505 2.09452 13.9253 2.54626C13.7304 2.91446 12.6258 3.8984 11.7656 4.47081C11.7408 4.22328 11.6851 3.97884 11.5985 3.74369C11.5954 3.68181 11.6511 3.66324 11.6851 3.6323C11.8646 3.47759 12.0441 3.32598 12.2235 3.17437C12.2421 3.1589 12.2606 3.14343 12.2761 3.12796C12.2978 3.1063 12.3318 3.08773 12.3225 3.0537C12.3163 3.01966 12.2761 3.01966 12.2452 3.01347C12.1616 2.99491 12.0781 2.98563 11.9915 2.98253C11.8739 2.97016 11.7563 2.94231 11.6387 2.93921C11.5459 2.93303 11.4562 2.91137 11.3664 2.91756C11.32 2.91756 11.2736 2.91446 11.2272 2.90827C11.1498 2.88352 11.0694 2.8959 10.992 2.8959C10.9456 2.8959 10.8992 2.8928 10.8497 2.8959C10.7136 2.90208 10.5805 2.88043 10.4444 2.90518C10.4104 2.91137 10.3794 2.91446 10.3454 2.91446C10.3052 2.91446 10.268 2.91756 10.2278 2.91446C10.1783 2.90827 10.1257 2.91446 10.0762 2.92993C9.93385 2.94231 9.79152 2.95469 9.65229 2.97944C9.48211 3.01657 9.30884 3.02276 9.14176 3.06607C8.98705 3.1063 8.82925 3.12796 8.67764 3.18056C8.47652 3.23625 8.2754 3.29813 8.07737 3.3662C7.78962 3.48069 7.49568 3.58589 7.2203 3.73441C6.59838 4.03763 6.01668 4.4213 5.49687 4.87614C5.01418 5.29385 4.581 5.76416 4.20661 6.28088C4.02096 6.54079 3.84769 6.80998 3.69608 7.09154C3.59707 7.2741 3.50424 7.45974 3.41761 7.64849C3.35573 7.79391 3.28147 7.93624 3.23196 8.08785C3.17008 8.23947 3.12057 8.39417 3.07107 8.55197C3.01228 8.70977 2.97824 8.87376 2.93492 9.03156C2.91636 9.09345 2.90398 9.15842 2.88851 9.2234C2.86995 9.30075 2.85757 9.37811 2.8421 9.45546C2.81735 9.58541 2.79569 9.71846 2.77712 9.85151C2.75237 9.98765 2.7369 10.1238 2.72762 10.263C2.70596 10.3528 2.72143 10.4487 2.70596 10.5415C2.68121 10.656 2.69668 10.7736 2.69049 10.888C2.68739 10.9685 2.6843 11.0489 2.68739 11.1294C2.68739 11.1634 2.67192 11.2098 2.70596 11.2253C2.74618 11.2439 2.77403 11.2006 2.80497 11.1789C2.90398 11.0984 2.9999 11.0149 3.09582 10.9314C3.4207 10.6529 3.74868 10.3775 4.07357 10.099C4.10141 10.0805 4.13235 10.0186 4.18186 10.0805Z" fill="#5C636F"/>
<path d="M11.3362 10.8912C10.9526 10.6623 10.5349 10.5323 10.1048 10.4302C9.54165 10.2972 8.95995 10.2415 8.38135 10.2724C7.97293 10.2941 7.56759 10.3498 7.19011 10.5292C7.1437 10.5509 7.10038 10.5756 7.06016 10.6035C6.75384 10.8077 6.70743 11.08 6.9302 11.3739C6.97661 11.4358 7.02612 11.4915 7.088 11.5658C6.88998 11.5658 6.71361 11.5286 6.54034 11.4946C6.07313 11.4018 5.63376 11.2409 5.25628 10.9377C5.07372 10.7922 4.90973 10.6313 4.78906 10.4271C4.83857 10.3467 4.92211 10.3096 4.99946 10.2631C5.14798 10.2013 5.28412 10.1115 5.43264 10.0435C6.09169 9.74023 6.79716 9.55458 7.51809 9.48651C7.80584 9.45866 8.0936 9.43082 8.38445 9.44319C9.23843 9.47723 10.0862 9.62575 10.9 9.88256C11.1104 9.94754 11.3177 10.0218 11.5374 10.093C11.5374 10.0311 11.5033 9.99395 11.4786 9.95373C11.3919 9.80521 11.2898 9.66288 11.1784 9.52983C11.1382 9.48032 11.0794 9.4401 11.0825 9.36584C11.197 9.39369 11.3146 9.41844 11.4291 9.44629C11.46 9.45248 11.4971 9.47104 11.5157 9.44629C11.5436 9.41225 11.5033 9.38441 11.4848 9.35965C11.3146 9.10593 11.1042 8.88934 10.8752 8.68823C10.9959 8.61706 11.1197 8.67585 11.2372 8.69132C12.4409 8.84603 13.5362 9.27302 14.4923 10.0218C15.7578 11.015 16.5746 12.296 16.9212 13.874C17.0325 14.4 17.0666 14.9415 17.0264 15.4768C16.9583 16.4081 16.6643 17.2683 16.1136 18.0325C16.0765 18.082 16.027 18.1222 16.0022 18.181C15.8784 18.3667 15.6928 18.4935 15.5257 18.6297C14.6129 19.3723 13.5455 19.759 12.3975 19.9385C11.5033 20.0808 10.5937 20.0963 9.69636 19.9849C8.28234 19.8116 6.9302 19.3011 5.75443 18.4966C5.46668 18.3017 5.18511 18.1006 4.93449 17.8592C4.9252 17.853 4.9252 17.8407 4.93139 17.8314L4.93449 17.8283C4.98709 17.8066 5.02112 17.8469 5.05825 17.8716C5.65851 18.3234 6.34232 18.6544 7.06944 18.8494C7.31388 18.9112 7.55831 18.9607 7.80894 18.9979C7.86463 19.0195 7.92651 19.0072 7.98221 19.0195C7.99458 19.0195 8.00696 19.0226 8.01624 19.0257C8.57938 19.0938 9.14251 19.0536 9.69945 18.9546C10.9216 18.738 12.0108 18.2274 12.939 17.4013C13.5733 16.8413 14.0746 16.1791 14.3407 15.3623C14.6067 14.5454 14.5696 13.7502 14.1952 12.9643C14.1179 13.317 13.9353 13.6079 13.7033 13.874C13.4712 14.1339 13.1989 14.3567 12.8957 14.53C12.8617 14.5516 12.8214 14.5887 12.7812 14.5578C12.7472 14.5299 12.7657 14.4835 12.7781 14.4495C12.8524 14.2051 12.9019 13.9544 12.9297 13.7007C13.038 12.6332 12.6265 11.8009 11.7756 11.1728C11.6333 11.0676 11.4879 10.9748 11.3362 10.8912Z" fill="#2C2C2D"/>
<path d="M7.81187 19.0195C7.49936 18.9886 7.18995 18.9236 6.88672 18.8308C6.3174 18.6575 5.77902 18.4069 5.28087 18.0789C5.16329 18.0016 5.06119 17.8964 4.93433 17.8345C4.86007 17.8252 4.82913 17.7509 4.77034 17.72C3.52031 16.6092 2.66633 15.2447 2.17745 13.6512C1.93921 12.8777 1.80925 12.0732 1.79688 11.2625C1.79997 11.2006 1.80306 11.1419 1.80925 11.0459C1.87113 11.1821 1.91755 11.2873 1.96705 11.3956C2.4157 12.3826 2.99121 13.2799 3.78331 14.0287C4.62491 14.8239 5.60575 15.3561 6.75986 15.5417C8.112 15.7614 9.3775 15.5262 10.5409 14.796C11.1226 14.4309 11.596 13.9637 11.8714 13.3232C12.2024 12.5466 12.0787 11.8257 11.5712 11.1604C11.5279 11.1016 11.4784 11.0459 11.4351 10.9902C11.4939 10.9376 11.5279 10.9995 11.562 11.0274C11.8621 11.278 12.1003 11.5936 12.2612 11.9525C12.4159 12.296 12.4995 12.6642 12.5026 13.0417C12.5088 13.4253 12.4221 13.8059 12.255 14.1524C12.2922 14.1524 12.3262 14.1401 12.3541 14.1153C12.515 14.0225 12.6666 13.9142 12.8089 13.7935C12.8522 13.7564 12.8924 13.6976 12.9636 13.7069C12.9265 13.9977 12.8615 14.2855 12.7749 14.5671C12.9605 14.4619 13.14 14.3443 13.3101 14.2112C13.4432 14.106 13.5515 13.9761 13.6845 13.8678C13.7402 13.8925 13.7402 13.9482 13.7526 13.9946C13.9661 14.7682 13.8114 15.4891 13.4308 16.1698C12.9667 16.996 12.286 17.6117 11.4939 18.1098C10.8534 18.5121 10.151 18.7998 9.41154 18.9607C8.94742 19.0659 8.47092 19.0938 7.99752 19.0443C7.93564 19.0102 7.87066 19.0474 7.81187 19.0195Z" fill="#141414"/>
<path d="M19.507 13.283C19.4668 12.3981 19.2471 11.5317 18.8634 10.7334C18.6128 10.2136 18.2972 9.72783 17.9228 9.28847C17.5856 8.88932 17.1988 8.54897 16.7904 8.22408C16.8275 8.18695 16.877 8.19314 16.9203 8.19933C17.4897 8.26431 18.0466 8.39735 18.585 8.59538C18.718 8.64489 18.848 8.70367 18.9717 8.77484C19.0151 8.7965 19.0584 8.82125 19.1017 8.8491C19.111 8.85529 19.1172 8.87076 19.1326 8.86766C19.1234 8.85529 19.1203 8.83982 19.1265 8.82435C18.7613 8.34785 18.3158 7.94871 17.8517 7.57122C17.2978 7.12257 16.6945 6.7389 16.0509 6.42949C15.1598 5.99012 14.2037 5.70236 13.2167 5.58169C13.13 5.56932 13.0372 5.58169 12.9537 5.55075C12.9475 5.49196 12.997 5.4734 13.031 5.44555C13.6096 4.96287 14.0737 4.39355 14.4017 3.71593C14.5007 3.51172 14.5843 3.29822 14.6523 3.08163C14.6709 3.01975 14.6833 2.95168 14.7452 2.91455C15.7817 3.41271 16.7099 4.10579 17.4835 4.95668C19.538 7.2154 20.3115 10.3559 19.5442 13.3108C19.5225 13.3201 19.5194 13.2985 19.507 13.283Z" fill="#5C636F"/>
<path d="M15.9994 18.1807C15.9994 18.091 16.0705 18.0384 16.1169 17.9734C16.5408 17.37 16.7977 16.7017 16.9307 15.9777C17.0142 15.529 17.0204 15.0773 16.9926 14.6286C16.9462 13.9386 16.7698 13.2734 16.4913 12.636C16.2871 12.1688 16.0303 11.7263 15.7271 11.3179C15.4022 10.8878 15.0247 10.4949 14.607 10.1545C13.9634 9.62231 13.2208 9.22317 12.4226 8.97564C11.9987 8.8395 11.5593 8.74977 11.1168 8.70645C11.0364 8.70026 10.959 8.6786 10.8755 8.68479C10.5939 8.47748 10.3062 8.27636 9.98438 8.13094L9.98747 8.1C10.102 8.1 10.2195 8.10309 10.334 8.1C11.9553 8.07215 13.4529 8.4682 14.7586 9.45523C16.1108 10.4794 16.9586 11.8315 17.2742 13.5024C17.5433 14.9257 17.336 16.2716 16.5439 17.5062C16.3892 17.7568 16.2191 17.9888 15.9994 18.1807Z" fill="#141414"/>
<path d="M14.7521 2.91464C14.5912 3.41279 14.387 3.88929 14.0931 4.32556C13.7991 4.76493 13.4402 5.15788 13.0287 5.49205C13.0039 5.51061 12.9823 5.53227 12.9606 5.55393C12.8183 5.6251 12.7007 5.73649 12.5708 5.82312C12.0912 6.13872 11.5775 6.40482 11.0423 6.61213C11.0299 6.61522 11.0144 6.61831 11.002 6.62141C10.9773 6.58737 11.0051 6.575 11.0206 6.55953C11.3238 6.26868 11.5126 5.91285 11.6394 5.5168C11.6518 5.4642 11.6889 5.42088 11.7384 5.40541C12.6822 5.03102 13.4371 4.4122 14.0529 3.61391C14.1085 3.54275 14.1642 3.46849 14.2323 3.37566C14.0405 3.37257 13.8951 3.46849 13.7342 3.49324C13.7032 3.49633 13.663 3.52109 13.6568 3.4623C14.2416 2.77849 14.6841 1.98021 14.9502 1.12313C14.9656 1.06744 14.9502 0.993179 15.0275 0.965332C15.0337 0.968426 15.0368 0.974614 15.0337 0.980803C15.0337 0.986991 15.0306 0.990085 15.0306 0.990085C15.0213 1.60272 14.9347 2.21227 14.7738 2.80325C14.7645 2.83728 14.7583 2.87441 14.7521 2.91464Z" fill="#141414"/>
<path d="M11.0783 9.36904C11.2702 9.57944 11.4373 9.8146 11.5765 10.0652C11.5889 10.09 11.6229 10.1178 11.592 10.1457C11.5672 10.1673 11.5425 10.1395 11.5177 10.1302C10.8896 9.89504 10.2429 9.71868 9.58079 9.6042C9.24662 9.54541 8.90936 9.52065 8.5721 9.4959C8.26888 9.47734 7.96256 9.48043 7.65933 9.50828C6.96625 9.56397 6.29172 9.71249 5.64814 9.99096C5.45012 10.0776 5.249 10.155 5.06335 10.2694C5.04169 10.2818 5.01694 10.3035 4.99219 10.2725C5.54913 9.87957 6.16796 9.58254 6.82391 9.3938C7.7274 9.12461 8.64636 9.05963 9.58388 9.13079C10.0604 9.16792 10.5338 9.24218 10.9979 9.34738C11.0288 9.35048 11.0536 9.35976 11.0783 9.36904Z" fill="#161F42"/>
<path d="M10.8443 2.86475H10.9835C11.0578 2.89569 11.1413 2.85546 11.2156 2.88641H11.3548C11.3672 2.95448 11.3115 2.98232 11.2744 3.01326C10.6308 3.55783 9.9934 4.10549 9.34982 4.64697C9.13632 4.82643 8.92592 5.00589 8.71552 5.18535C8.68149 5.20701 8.65673 5.23795 8.64126 5.27198C8.36279 5.37718 8.10288 5.50714 7.89867 5.73301C7.80275 5.8413 7.73778 5.96507 7.6697 6.08883C7.47787 6.2126 7.31697 6.37659 7.1437 6.52201C6.68577 6.90568 6.23403 7.29864 5.77609 7.67922C5.73896 7.71016 5.71112 7.75657 5.6678 7.78132C5.59045 7.66375 5.60592 7.53379 5.62448 7.40693C5.68327 7.31102 5.773 7.25223 5.85345 7.18106C6.299 6.80358 6.74146 6.42609 7.18392 6.04861C7.6171 5.68041 8.04719 5.31221 8.48037 4.9471C8.97852 4.5263 9.47358 4.1024 9.97174 3.6785C10.2471 3.44335 10.5225 3.2051 10.8041 2.97613C10.8474 2.94829 10.8752 2.92044 10.8443 2.86475Z" fill="#5C636F"/>
<path d="M18.9881 8.8092C18.4436 8.5462 17.865 8.38221 17.2709 8.28629C17.11 8.26154 16.9522 8.2275 16.7913 8.2275C16.584 8.09755 16.3798 7.95831 16.1663 7.83455C15.4763 7.4354 14.7213 7.16312 13.9323 7.03626C13.9138 7.03007 13.8983 7.02388 13.8828 7.0177C14.118 6.97438 14.9255 7.09505 15.4825 7.24976C16.0023 7.39209 16.5035 7.58702 16.9831 7.83764C16.9336 7.68603 16.8408 7.58702 16.7851 7.46635C16.7789 7.4354 16.7356 7.40756 16.7635 7.37352C16.7913 7.33949 16.8284 7.37662 16.8563 7.38899C16.9367 7.42612 17.0141 7.46944 17.0945 7.50657C17.769 7.85621 18.4064 8.27701 18.9943 8.75969C19.0253 8.79992 19.0253 8.79992 18.9881 8.8092Z" fill="#141414"/>
<path d="M10.8448 2.86516C10.8603 2.89919 10.9036 2.87444 10.9253 2.91157C10.7953 3.02296 10.6653 3.13744 10.5354 3.24883C10.2971 3.44995 10.0589 3.65107 9.82065 3.85219C9.48338 4.13685 9.14612 4.4246 8.80577 4.70926C8.57062 4.90729 8.34165 5.1115 8.1065 5.31262C7.82184 5.55396 7.53408 5.79221 7.25251 6.03355C7.02664 6.22539 6.80387 6.42032 6.57799 6.61215C6.33975 6.81327 6.1015 7.01439 5.86325 7.21551L5.625 7.41663L5.69307 7.1134C5.65594 7.01439 5.73639 6.97107 5.78899 6.92466C6.00558 6.7452 6.21907 6.55955 6.43257 6.377C6.93382 5.9531 7.43197 5.52611 7.93322 5.10222C8.36331 4.73711 8.79339 4.372 9.22348 4.00689C9.62262 3.66654 10.0249 3.32928 10.4209 2.98274C10.4518 2.95489 10.5106 2.92395 10.424 2.88991C10.5632 2.84041 10.7056 2.87754 10.8448 2.86516Z" fill="#5C636F"/>
<path d="M10.4245 2.89007C10.4554 2.89626 10.4925 2.8777 10.5266 2.90554C10.4461 3.02622 10.3254 3.10357 10.2171 3.19639C9.91392 3.46249 9.60451 3.7224 9.29819 3.9823C9.01662 4.22055 8.73196 4.45571 8.4504 4.69395C8.16883 4.9322 7.88726 5.17973 7.6026 5.42107C7.31794 5.66242 7.03638 5.89448 6.75481 6.13273C6.47325 6.37097 6.19168 6.61541 5.90702 6.85985C5.82348 6.93411 5.70899 6.98361 5.68734 7.11047C5.53882 7.12904 5.45837 7.2528 5.35008 7.33325C5.1768 7.45702 5.04376 7.62719 4.88596 7.76643C4.72506 7.88091 4.58273 8.01705 4.43421 8.14391C3.98866 8.5214 3.5462 8.90197 3.10064 9.27636C3.03876 9.32897 2.98306 9.39085 2.91499 9.43417C2.88405 9.45273 2.8562 9.48986 2.81289 9.45892C2.80979 9.37847 2.82526 9.29802 2.8593 9.22686C3.08208 9.08453 3.26772 8.89579 3.46884 8.7287C4.02269 8.26458 4.57035 7.79428 5.12111 7.32706C5.67187 6.85985 6.21334 6.39573 6.761 5.93161C7.29629 5.47677 7.83157 5.02193 8.36686 4.56709C8.91452 4.10297 9.46218 3.63885 10.0067 3.17164C10.115 3.07882 10.2295 2.99218 10.3316 2.89317L10.4245 2.89007Z" fill="#5C636F"/>
<path d="M11.634 2.91182C11.7609 2.90872 11.8815 2.94276 12.0053 2.95823C12.0393 3.03249 11.9743 3.06034 11.9372 3.09437C11.7825 3.23051 11.6216 3.35737 11.47 3.49661C11.4545 3.47495 11.436 3.45329 11.4205 3.43163C11.3865 3.38213 11.3617 3.3945 11.34 3.44092C11.1575 3.83387 10.845 4.10615 10.5015 4.3475C10.1179 4.61669 9.70325 4.84256 9.26698 5.02202C9.24223 4.9787 9.24223 4.97561 9.28245 4.93538C9.36599 4.84875 9.46191 4.77758 9.55164 4.70023C10.2107 4.14019 10.8697 3.58325 11.5257 3.01702C11.5628 2.98608 11.5969 2.94895 11.634 2.91182Z" fill="#5C636F"/>
<path d="M11.6391 2.91148C11.636 2.94861 11.6143 2.98573 11.5834 3.00739C11.1595 3.36631 10.7356 3.72833 10.3117 4.08725C9.98679 4.36262 9.665 4.6411 9.34012 4.91957C9.31227 4.94432 9.25658 4.96289 9.27205 5.02167C9.06784 5.11759 8.85743 5.20423 8.64394 5.27539C8.57277 5.25683 8.63156 5.22898 8.64394 5.21661C8.7708 5.10522 8.89766 4.99383 9.02761 4.88553C9.26277 4.68441 9.50101 4.4833 9.73926 4.28218C9.97442 4.08415 10.2096 3.88613 10.4416 3.6881C10.6737 3.49008 10.9088 3.28896 11.1409 3.08784C11.2152 3.02286 11.308 2.97336 11.3575 2.88363C11.4534 2.87744 11.5462 2.90838 11.6391 2.91148Z" fill="#5C636F"/>
<path d="M9.9923 5.7026C10.2367 5.58193 10.4935 5.47982 10.707 5.30346C10.7504 5.30036 10.7473 5.32821 10.7349 5.35606C10.5369 6.17291 9.91804 6.71129 9.07953 6.78864C8.91863 6.80411 8.75774 6.82268 8.59375 6.80721C8.61541 6.74842 8.6711 6.75151 8.71752 6.73914C8.90007 6.68963 9.07953 6.63703 9.24971 6.55039C9.56531 6.38641 9.79737 6.14506 9.93042 5.81399C9.9397 5.77067 9.96136 5.73045 9.9923 5.7026Z" fill="#141414"/>
<path d="M9.99114 5.70264C9.88903 6.0925 9.6415 6.36169 9.29805 6.55662C9.07837 6.68038 8.83393 6.73917 8.59259 6.80724C8.5338 6.63397 8.59878 6.48855 8.70089 6.3555C8.82156 6.20079 8.98864 6.10487 9.16501 6.02443C9.4342 5.90066 9.70957 5.79546 9.99114 5.70264Z" fill="#418AC9"/>
<path d="M2.81807 9.45567C2.95421 9.40617 3.04394 9.28859 3.15224 9.19886C3.50187 8.91111 3.84532 8.61716 4.18877 8.32632C4.37133 8.17161 4.54769 8.0169 4.72715 7.8591C4.77666 7.81578 4.81998 7.76937 4.89114 7.76318C4.70549 7.99524 4.52913 8.23349 4.39608 8.50268C4.04025 8.80281 3.68443 9.10604 3.3317 9.40926C3.16771 9.5485 3.00063 9.68464 2.83973 9.83007C2.81498 9.85172 2.78713 9.87957 2.75 9.84863C2.75619 9.71868 2.77785 9.58563 2.81807 9.45567Z" fill="#5C636F"/>
<path d="M4.17879 10.0805C4.0705 10.0898 4.02099 10.1857 3.94673 10.2445C3.64042 10.492 3.34647 10.7457 3.04944 11.0025C2.95042 11.0892 2.85451 11.1758 2.7493 11.2563C2.68123 11.3089 2.65339 11.2872 2.65648 11.2067C2.65648 11.1108 2.65648 11.0149 2.65648 10.9159C2.76478 10.7983 2.89164 10.7086 3.01231 10.6065C3.35885 10.3125 3.6992 10.0155 4.05194 9.72775C4.08288 9.703 4.10763 9.65659 4.16023 9.68753L4.17879 10.0805Z" fill="#5C636F"/>
<path d="M5.67188 7.78799C5.67497 7.74776 5.69663 7.71373 5.73066 7.69207C6.00914 7.45691 6.28761 7.22176 6.56608 6.98661C6.79505 6.79477 7.02092 6.59674 7.24988 6.40181C7.37055 6.29971 7.48813 6.19451 7.60571 6.0924C7.62737 6.07384 7.64903 6.05836 7.67069 6.0924C7.64593 6.1976 7.61499 6.3028 7.61809 6.41419C7.49432 6.55033 7.34271 6.65863 7.20347 6.7793C6.77029 7.15059 6.33711 7.5188 5.90393 7.887C5.88537 7.90247 5.87299 7.92103 5.85752 7.9396C5.77398 7.92413 5.70282 7.86843 5.67188 7.78799Z" fill="#5C636F"/>
<path d="M2.74778 9.85181C2.84679 9.82087 2.90558 9.73423 2.98293 9.67235C3.39136 9.33509 3.7905 8.99164 4.19583 8.64819C4.26081 8.59559 4.30413 8.51514 4.40005 8.50586C4.32579 8.68841 4.2639 8.87406 4.2144 9.0628C4.14323 9.05662 4.1061 9.11231 4.05969 9.15253C3.63889 9.51455 3.21499 9.87037 2.79419 10.2293C2.76944 10.251 2.74468 10.2819 2.70446 10.2695C2.69827 10.1272 2.71374 9.98795 2.74778 9.85181Z" fill="#5C636F"/>
<path d="M5.85234 7.93979C5.82449 7.88719 5.8709 7.87172 5.89875 7.85006C6.25457 7.54684 6.6104 7.24361 6.96622 6.94348C7.16734 6.77331 7.36846 6.60313 7.57267 6.43295C7.58505 6.42676 7.60052 6.42057 7.61599 6.41748C7.61599 6.5134 7.63146 6.60622 7.65931 6.69595C7.53864 6.83828 7.38393 6.94348 7.2447 7.06415C6.93219 7.33334 6.61968 7.59944 6.30099 7.86554C6.27933 7.88101 6.26076 7.90267 6.25457 7.92742C6.12153 7.97692 5.98848 7.99549 5.85234 7.93979Z" fill="#5C636F"/>
<path d="M4.15937 9.69074C4.02942 9.76499 3.92422 9.87329 3.80974 9.96921C3.50651 10.2167 3.20948 10.4705 2.91553 10.7273C2.83509 10.7984 2.76083 10.8758 2.65872 10.9222C2.6711 10.7984 2.63397 10.6716 2.68038 10.5509C3.13831 10.161 3.59624 9.77118 4.05727 9.38132C4.08821 9.35347 4.12224 9.32253 4.16866 9.34419L4.15937 9.69074Z" fill="#5C636F"/>
<path d="M4.16675 9.34129C4.01823 9.41864 3.90684 9.5424 3.77998 9.6476C3.47985 9.89514 3.189 10.1489 2.89197 10.3964C2.82699 10.4521 2.78058 10.5387 2.68157 10.548C2.69394 10.4552 2.65681 10.3593 2.70632 10.2695C2.99407 10.022 3.28492 9.77446 3.57577 9.53003C3.7707 9.36294 3.96873 9.19896 4.16675 9.03187C4.22863 8.97927 4.21316 9.03806 4.21626 9.06591C4.1946 9.15564 4.18222 9.24846 4.16675 9.34129Z" fill="#5C636F"/>
<path d="M6.264 7.93036C6.22069 7.89942 6.25163 7.87776 6.27329 7.8561C6.54557 7.62713 6.82095 7.39817 7.09323 7.1692C7.26341 7.02687 7.43049 6.88145 7.60067 6.73602C7.61923 6.71437 7.64089 6.70199 7.66874 6.6958L7.73681 6.83504C7.68421 6.91858 7.59758 6.96808 7.53569 7.04544C7.20153 7.41673 6.82404 7.72924 6.35064 7.9087C6.32279 7.91798 6.29495 7.92417 6.264 7.93036Z" fill="#5C636F"/>
<path d="M11.4766 3.49948C11.5199 3.36953 11.656 3.3293 11.7365 3.23648C11.8231 3.13747 11.9623 3.09415 12.0149 2.95801C12.117 2.95801 12.213 2.98586 12.3089 3.00133C12.3924 3.0168 12.3986 3.05393 12.3398 3.10653C12.213 3.21792 12.0861 3.3324 11.9592 3.44069C11.8386 3.5428 11.7179 3.64491 11.5972 3.74701C11.5539 3.66347 11.5137 3.57993 11.4766 3.49948Z" fill="#5C636F"/>
<path d="M5.74678 8.79034C5.76844 8.84294 5.70656 8.8677 5.71275 8.91411C5.6818 8.77178 5.60445 8.71918 5.46212 8.74703C5.31051 8.78106 5.17437 8.85841 5.07226 8.97599C5.04441 9.00693 5.01038 9.03478 4.97944 9.06263C4.95468 9.03169 4.97944 9.00384 4.98872 8.97599C5.0506 8.77487 5.18674 8.63254 5.35692 8.51806C5.39405 8.49021 5.43737 8.47165 5.48378 8.45927C5.6818 8.41286 5.7901 8.50878 5.76225 8.7099C5.76535 8.73774 5.75916 8.76559 5.74678 8.79034Z" fill="#5C636F"/>
<path d="M5.74388 8.79039C5.74388 8.75945 5.74697 8.72851 5.74697 8.69757C5.75006 8.49645 5.63558 8.4191 5.44684 8.50573C5.23025 8.60475 5.09411 8.78111 4.99819 8.99461C4.97653 8.9977 4.96415 8.99151 4.97034 8.96676C5.03841 8.71304 5.17146 8.50573 5.39115 8.35721C5.44684 8.32009 5.50872 8.29843 5.5706 8.28605C5.67271 8.26439 5.77482 8.32627 5.79957 8.42838C5.83361 8.54905 5.81504 8.6821 5.74388 8.79039Z" fill="#5C636F"/>
<path d="M7.52581 7.04536C7.48559 7.01442 7.52272 7.00204 7.54128 6.98657C7.60626 6.94016 7.64339 6.85971 7.72384 6.83496C7.82904 7.00204 7.99612 7.0763 8.17249 7.13819C8.20652 7.15056 8.24365 7.15984 8.30244 7.17532C8.03325 7.24648 7.80119 7.21863 7.58769 7.07321C7.57222 7.05464 7.55057 7.04536 7.52581 7.04536Z" fill="#5C636F"/>
<path d="M17.0945 7.5032C17.0078 7.49392 16.9459 7.43513 16.8686 7.40728C16.8376 7.39491 16.8098 7.35778 16.7789 7.38253C16.7541 7.40419 16.7943 7.43513 16.785 7.46607C16.7386 7.42585 16.7201 7.36396 16.6953 7.30518C16.8345 7.36087 16.9707 7.41656 17.0945 7.5032Z" fill="#5C636F"/>
<path d="M18.9922 8.80895C19.0169 8.79348 18.9922 8.77491 18.9953 8.75635L19.1283 8.83061L19.1995 8.92343C19.1129 8.89868 19.0541 8.84917 18.9922 8.80895Z" fill="#5C636F"/>
<path d="M13.6641 6.97751C13.7259 6.96822 13.7909 6.97441 13.8497 6.98988C13.7755 7.0332 13.7259 7.02701 13.6641 6.97751Z" fill="#5C636F"/>
<path d="M4.77344 17.7168C4.8446 17.7292 4.87864 17.8003 4.93743 17.8313L4.93433 17.8591C4.86936 17.8282 4.81366 17.7787 4.77344 17.7168Z" fill="#5C636F"/>
<path d="M19.5078 13.2832L19.548 13.308C19.5542 13.3544 19.5326 13.3946 19.5078 13.4503V13.2832Z" fill="#5C636F"/>
<path d="M13.6497 3.46826C13.6651 3.5023 13.7023 3.48992 13.727 3.4992L13.6032 3.54871C13.594 3.49611 13.6249 3.48373 13.6497 3.46826Z" fill="#5C636F"/>
<path d="M4.97301 8.9668L5.00085 8.99464C4.99466 9.0163 4.98538 9.04106 4.97919 9.06272L4.92969 9.12769C4.94206 9.05034 4.94516 9.00393 4.97301 8.9668Z" fill="#5C636F"/>
<path d="M10.7307 5.35201C10.7246 5.33362 10.7277 5.30909 10.7031 5.29989C10.7093 5.28149 10.7307 5.25696 10.7399 5.26616C10.7675 5.29375 10.7553 5.32442 10.7307 5.35201Z" fill="#5C636F"/>
<path d="M2.90625 9.03752C2.93719 8.87043 2.97123 8.70335 3.04549 8.54864C3.31777 8.35681 3.55911 8.12784 3.81283 7.91435C4.2522 7.54305 4.69156 7.17175 5.12784 6.79736C5.52698 6.45701 5.92612 6.11665 6.32836 5.7763C6.76154 5.4081 7.19472 5.0399 7.6279 4.67169C8.02085 4.33753 8.4169 4.00336 8.80986 3.6661C9.08523 3.43095 9.3668 3.19889 9.63599 2.95754C9.78141 2.92351 9.92684 2.90494 10.0754 2.91113C10.0877 2.89876 10.1063 2.89876 10.1218 2.90494C10.1558 2.96064 10.1125 2.99158 10.0785 3.02252C9.70406 3.33812 9.33277 3.65682 8.95837 3.97551C8.55923 4.31277 8.16318 4.65004 7.76404 4.99039C7.39584 5.3029 7.03073 5.6154 6.66253 5.92791C6.21697 6.30849 5.76832 6.68597 5.31967 7.06655C4.76273 7.53686 4.20888 8.01336 3.65194 8.48367C3.43535 8.66622 3.22495 8.85187 3.00526 9.02823C2.9867 9.04989 2.94957 9.12106 2.90625 9.03752Z" fill="#5C636F"/>
<path d="M9.64047 2.95801C9.60025 3.08796 9.47648 3.13747 9.38675 3.21792C9.09281 3.47782 8.78959 3.72845 8.49255 3.98217C8.15838 4.26373 7.82112 4.5453 7.48696 4.82996C7.19611 5.07749 6.91145 5.32811 6.6206 5.57564C6.33903 5.81389 6.05437 6.04905 5.77281 6.29039C5.49124 6.53173 5.21277 6.77307 4.9312 7.01132C4.64964 7.24957 4.36807 7.48782 4.08341 7.72607C3.85135 7.92409 3.62238 8.12212 3.39032 8.32014C3.2975 8.40059 3.20158 8.47794 3.10566 8.55529C3.084 8.57077 3.06544 8.58005 3.04688 8.55529C3.08091 8.3944 3.13351 8.2366 3.20777 8.09118C3.42127 7.95503 3.60073 7.77867 3.79256 7.61777C4.23193 7.24648 4.6713 6.87518 5.10757 6.50079C5.55931 6.11402 6.01415 5.72726 6.46589 5.34358C6.84028 5.02489 7.21467 4.70929 7.58597 4.39059C8.07175 3.97907 8.55443 3.56136 9.0433 3.15294C9.08043 3.12819 9.10828 3.09415 9.12375 3.05702C9.29393 2.98895 9.4703 2.99204 9.64047 2.95801Z" fill="#5C636F"/>
<path d="M9.13001 3.05078C9.20118 3.06935 9.14239 3.09719 9.13001 3.10957C9.00006 3.22715 8.86701 3.34472 8.73087 3.45921C8.49572 3.65723 8.26056 3.85526 8.02541 4.05328C7.68196 4.34103 7.33851 4.63188 6.99506 4.92273C6.7135 5.16098 6.43502 5.40542 6.15346 5.64366C5.86261 5.8912 5.57176 6.13563 5.28091 6.38007C4.99935 6.61832 4.72087 6.85966 4.43931 7.101C4.15774 7.33925 3.87618 7.5775 3.59461 7.81575C3.4925 7.90238 3.3904 7.98902 3.2852 8.07565C3.26354 8.09112 3.24188 8.13135 3.21094 8.08803C3.24188 7.93023 3.32542 7.79099 3.39659 7.64866C3.77716 7.32378 4.16084 6.99889 4.54451 6.67092C4.93746 6.33366 5.33351 5.99949 5.72647 5.66532C6.10395 5.34353 6.47834 5.02484 6.85583 4.70614C7.25188 4.36888 7.65102 4.02853 8.04707 3.69127C8.25128 3.518 8.4524 3.33544 8.66589 3.16526C8.81132 3.09719 8.97221 3.07863 9.13001 3.05078Z" fill="#5C636F"/>
<path d="M8.65993 3.16504C8.51142 3.35688 8.31339 3.48992 8.13393 3.64772C7.89878 3.85194 7.66053 4.05306 7.42228 4.25417C7.19022 4.4491 6.95816 4.64403 6.7261 4.84206C6.49404 5.04008 6.26507 5.23811 6.03302 5.43304C5.80096 5.63106 5.56271 5.82909 5.32755 6.02711C5.09859 6.22204 4.87271 6.41697 4.64375 6.6119C4.3529 6.85943 4.06205 7.10387 3.7712 7.34831C3.6691 7.43494 3.5639 7.52158 3.46179 7.60821C3.44323 7.62678 3.41847 7.63916 3.39062 7.64225C3.46488 7.44732 3.55771 7.26167 3.6691 7.08531C4.19819 6.65522 4.71491 6.20657 5.23473 5.76411C5.83808 5.25048 6.44144 4.74305 7.0417 4.22633C7.37896 3.93548 7.73169 3.65701 8.05967 3.35069C8.25151 3.27333 8.45263 3.21145 8.65993 3.16504Z" fill="#5C636F"/>
<path d="M8.05936 3.354C8.08411 3.39423 8.04079 3.4066 8.02223 3.42517C7.76541 3.65104 7.50551 3.87382 7.2456 4.0966C7.01663 4.29153 6.78767 4.48336 6.5587 4.67829C6.27404 4.91964 5.98938 5.16098 5.70472 5.39923C5.47266 5.59725 5.2437 5.79528 5.01164 5.99021C4.72079 6.23774 4.42994 6.48217 4.14218 6.72661C4.02151 6.82872 3.90084 6.93392 3.78326 7.03602C3.75232 7.06696 3.7121 7.08553 3.67188 7.09172C3.81421 6.80396 3.98748 6.53168 4.18241 6.28105C4.36187 6.14801 4.52586 5.99639 4.69603 5.85406C5.13849 5.47967 5.57786 5.10528 6.01723 4.73089C6.35758 4.44004 6.69794 4.1492 7.03829 3.86144C7.09089 3.81812 7.15587 3.78718 7.19609 3.72839C7.46838 3.55822 7.76541 3.4592 8.05936 3.354Z" fill="#5C636F"/>
<path d="M12.9604 13.7036C12.7283 13.8955 12.4962 14.0904 12.1868 14.2235C12.2766 14.044 12.3446 13.8553 12.391 13.6603C12.5736 12.8559 12.4034 12.1225 11.93 11.4573C11.8124 11.2933 11.6546 11.1665 11.5154 11.021C11.4937 10.9963 11.469 10.9684 11.4288 10.987C11.3854 10.9653 11.3669 10.9251 11.3359 10.8942C11.3545 10.8694 11.3762 10.8818 11.3978 10.8942C11.9579 11.2129 12.4251 11.6244 12.7128 12.2154C12.8521 12.5062 12.9387 12.8218 12.9665 13.1436C12.9851 13.3293 12.982 13.518 12.9604 13.7036Z" fill="#5C636F"/>
<path d="M2.9136 9.03769C3.00642 9.07173 3.03736 8.9789 3.08378 8.94177C3.55409 8.55191 4.0182 8.15586 4.48232 7.75672C4.92169 7.38233 5.35487 7.00485 5.79424 6.63046C6.28311 6.21584 6.77508 5.80432 7.26704 5.38971C7.70641 5.01532 8.14268 4.63783 8.58205 4.26344C9.05545 3.86121 9.52886 3.45587 10.0054 3.05054C10.0549 3.01032 10.1229 2.98866 10.1322 2.91131C10.1601 2.88655 10.1972 2.9144 10.225 2.88965H10.3426C10.3086 3.01341 10.1879 3.05673 10.1044 3.13099C9.86302 3.34758 9.6124 3.55179 9.36796 3.7591C9.0864 3.99735 8.80173 4.2356 8.52017 4.47384C8.2912 4.66878 8.06533 4.86371 7.83637 5.05864C7.49911 5.3433 7.15875 5.62796 6.82458 5.91571C6.59562 6.11064 6.36975 6.30557 6.14078 6.5005C5.84993 6.74803 5.55908 6.99247 5.26824 7.23691C5.03927 7.43184 4.8134 7.62677 4.58443 7.8217C4.34928 8.01972 4.11412 8.21775 3.87897 8.41577C3.64381 8.6138 3.41175 8.81801 3.1766 9.01603C3.09615 9.0841 3.00952 9.15217 2.92598 9.22025C2.90741 9.23572 2.88885 9.24809 2.86719 9.22025C2.86719 9.16146 2.88266 9.09648 2.9136 9.03769Z" fill="#5C636F"/>
<path d="M7.20428 3.72217C7.18571 3.83356 7.07742 3.8614 7.00935 3.92329C6.7711 4.13678 6.52666 4.3379 6.28223 4.54521C5.99757 4.78655 5.71291 5.0248 5.42825 5.26614C5.19928 5.46107 4.97341 5.656 4.74444 5.85093C4.57736 5.99326 4.41337 6.13559 4.24629 6.27792C4.22772 6.29339 4.20916 6.30577 4.1875 6.27792C4.30817 6.09227 4.44431 5.91591 4.59283 5.74883C5.1374 5.11453 5.75932 4.56377 6.47097 4.12131C6.70922 3.97589 6.94437 3.82427 7.20428 3.72217Z" fill="#5C636F"/>
<path d="M11.2164 2.88983C11.1391 2.88055 11.0586 2.91459 10.9844 2.86817C11.0617 2.87746 11.1422 2.84342 11.2164 2.88983Z" fill="#5C636F"/>
<path d="M10.2252 2.89014C10.2004 2.92418 10.1633 2.90871 10.1323 2.9118H10.0859C10.1293 2.87158 10.1788 2.89633 10.2252 2.89014Z" fill="#5C636F"/>
<path d="M7.99219 19.0413C8.75025 19.0753 9.50522 18.9547 10.2138 18.6917C10.9038 18.441 11.5473 18.079 12.1198 17.618C12.6798 17.1632 13.1625 16.6433 13.4843 15.9905C13.6575 15.6408 13.7658 15.2634 13.7999 14.8766C13.8308 14.5269 13.772 14.1959 13.6761 13.8679C13.6854 13.7875 13.7597 13.7503 13.803 13.6946C13.9701 13.4749 14.0907 13.2398 14.1433 12.9675C14.1526 12.9304 14.165 12.8963 14.1805 12.8623C14.2857 13.0727 14.3692 13.2924 14.428 13.5183C14.5084 13.837 14.5548 14.1618 14.5301 14.4898C14.4868 15.0591 14.3166 15.613 14.0319 16.108C13.7473 16.6093 13.3822 17.0363 12.9614 17.42C12.5901 17.751 12.1816 18.0388 11.7423 18.2708C11.2132 18.5586 10.65 18.7721 10.0622 18.9113C9.69706 18.998 9.32267 19.0506 8.94828 19.0722C8.76572 19.0815 8.58626 19.097 8.4068 19.0877C8.27375 19.0753 8.13142 19.0846 7.99219 19.0413Z" fill="#3B3B3C"/>
</svg>
