<svg width="47" height="47" viewBox="0 0 47 47" fill="none" xmlns="http://www.w3.org/2000/svg">
<path d="M22.1467 0.0396345C33.721 -0.629396 44.0508 7.2384 46.4794 18.5718C47.1417 21.6828 47.1685 24.9008 46.5597 28.0252C45.041 35.7324 39.7824 42.1685 32.5368 45.1992C27.5993 47.2732 21.9527 47.5609 16.8212 46.0355C9.78974 43.9414 4.12974 38.6895 1.52052 31.832C-0.352768 26.9146 -0.499954 21.3683 1.10572 16.3573C4.06283 7.08453 12.4324 0.59493 22.1467 0.0396345Z" fill="white"/>
<path d="M9.04103 21.7967C9.13469 22.2249 9.18821 22.6597 9.28188 23.0946C9.34209 23.3555 9.42237 23.2953 9.55618 23.1816C9.8171 22.9675 10.0646 22.7333 10.3523 22.5594C10.4326 22.5728 10.4794 22.6397 10.5196 22.6999C11.2823 23.6967 12.2925 24.3056 13.4901 24.6334C14.0387 24.7873 14.6074 24.8876 15.176 24.9478C14.9954 24.7471 14.8482 24.5263 14.7345 24.2788C14.5405 23.8506 14.6074 23.4693 14.9352 23.1281C15.3299 22.7133 15.8451 22.5393 16.3736 22.4055C17.4775 22.1178 18.6015 22.0911 19.7321 22.1713C20.642 22.2316 21.5385 22.3854 22.4216 22.633C23.1576 22.8404 23.8734 23.0812 24.5224 23.496C24.6161 23.5696 24.6763 23.67 24.7632 23.7436C25.5995 24.6401 26.0879 25.6971 26.1214 26.9215C26.1414 27.7644 25.9073 28.574 25.4858 29.3166C24.7231 30.6547 23.6058 31.6314 22.2745 32.3741C20.923 33.1301 19.4311 33.5984 17.8856 33.759C15.1292 34.06 12.5668 33.4579 10.2185 31.9927C8.26495 30.7751 6.75963 29.1092 5.53531 27.1824C4.96663 26.2658 4.46486 25.3091 4.02999 24.3189C3.97646 24.1985 3.96308 24.0647 3.90956 23.9643C3.94301 24.0848 4.00992 24.2119 3.8828 24.339C3.84266 23.8372 3.88949 23.3421 3.91625 22.8471C3.98316 21.4756 4.19724 20.1174 4.55183 18.7994C6.16419 12.8384 10.4861 7.9879 16.2264 5.69981C17.9525 5.01071 19.7656 4.58253 21.6121 4.41527C24.5291 4.14766 27.3524 4.52901 30.1088 5.50579C29.6873 6.30194 27.2989 8.42946 25.439 9.66716C25.3854 9.13194 25.265 8.6034 25.0777 8.09494C25.071 7.96114 25.1914 7.92099 25.265 7.85409C25.6531 7.51958 26.0411 7.19175 26.4291 6.86393C26.4693 6.83047 26.5094 6.79702 26.5429 6.76357C26.5897 6.71674 26.6633 6.6766 26.6432 6.603C26.6298 6.52941 26.5429 6.52941 26.476 6.51603C26.2953 6.47589 26.1147 6.45582 25.9274 6.44913C25.6731 6.42237 25.4189 6.36215 25.1647 6.35546C24.964 6.34208 24.7699 6.29525 24.5759 6.30863C24.4756 6.30863 24.3752 6.30194 24.2749 6.28856C24.1076 6.23504 23.9336 6.2618 23.7664 6.2618C23.666 6.2618 23.5657 6.25511 23.4586 6.2618C23.1643 6.27518 22.8766 6.22835 22.5822 6.28187C22.5086 6.29525 22.4417 6.30194 22.3681 6.30194C22.2811 6.30194 22.2009 6.30863 22.1139 6.30194C22.0068 6.28856 21.8931 6.30194 21.7861 6.33539C21.4783 6.36215 21.1705 6.38891 20.8695 6.44244C20.5015 6.52272 20.1269 6.5361 19.7656 6.62976C19.4311 6.71674 19.0899 6.76357 18.762 6.87731C18.3272 6.99773 17.8923 7.13154 17.4641 7.27872C16.8419 7.52627 16.2063 7.75374 15.6109 8.07487C14.2662 8.73052 13.0084 9.56012 11.8844 10.5436C10.8407 11.4468 9.90408 12.4637 9.09455 13.581C8.69313 14.143 8.31847 14.725 7.99065 15.3339C7.77656 15.7286 7.57585 16.13 7.38852 16.5381C7.25471 16.8526 7.09415 17.1603 6.9871 17.4881C6.8533 17.816 6.74625 18.1505 6.63921 18.4917C6.51209 18.8329 6.4385 19.1875 6.34483 19.5287C6.30469 19.6625 6.27793 19.803 6.24448 19.9435C6.20434 20.1107 6.17758 20.278 6.14412 20.4452C6.0906 20.7262 6.04377 21.0139 6.00363 21.3016C5.9501 21.596 5.91665 21.8904 5.89658 22.1914C5.84975 22.3854 5.8832 22.5928 5.84975 22.7935C5.79623 23.0411 5.82968 23.2953 5.8163 23.5429C5.80961 23.7168 5.80292 23.8908 5.80961 24.0647C5.80961 24.1383 5.77616 24.2386 5.84975 24.2721C5.93672 24.3122 5.99694 24.2186 6.06384 24.1717C6.27793 23.9978 6.48533 23.8172 6.69273 23.6365C7.39521 23.0344 8.10438 22.439 8.80687 21.8368C8.86708 21.7967 8.93398 21.6629 9.04103 21.7967Z" fill="#4189C9"/>
<path d="M24.5161 23.5493C23.6865 23.0543 22.7833 22.7733 21.8533 22.5525C20.6357 22.2648 19.3779 22.1444 18.1268 22.2113C17.2437 22.2581 16.3673 22.3785 15.5511 22.7666C15.4507 22.8134 15.357 22.8669 15.2701 22.9271C14.6077 23.3687 14.5074 23.9575 14.9891 24.593C15.0894 24.7268 15.1965 24.8473 15.3303 25.0078C14.9021 25.0078 14.5207 24.9275 14.1461 24.854C13.1359 24.6532 12.1858 24.3053 11.3696 23.6497C10.9749 23.3353 10.6203 22.9874 10.3594 22.5458C10.4664 22.3718 10.6471 22.2916 10.8143 22.1912C11.1355 22.0574 11.4298 21.8634 11.751 21.7162C13.176 21.0605 14.7014 20.6591 16.2602 20.5119C16.8824 20.4517 17.5046 20.3915 18.1335 20.4183C19.98 20.4919 21.8132 20.813 23.5727 21.3683C24.0277 21.5088 24.4759 21.6694 24.9509 21.8232C24.9509 21.6894 24.8773 21.6092 24.8238 21.5222C24.6365 21.201 24.4157 20.8933 24.1749 20.6056C24.0879 20.4986 23.9608 20.4116 23.9675 20.251C24.215 20.3112 24.4692 20.3648 24.7168 20.425C24.7837 20.4383 24.864 20.4785 24.9041 20.425C24.9643 20.3514 24.8773 20.2912 24.8372 20.2376C24.4692 19.689 24.0143 19.2207 23.5192 18.7858C23.7801 18.632 24.0477 18.7591 24.302 18.7925C26.9045 19.127 29.2729 20.0503 31.3402 21.6694C34.0765 23.817 35.8427 26.5867 36.5921 29.9988C36.8329 31.1361 36.9065 32.307 36.8195 33.4644C36.6723 35.4782 36.0368 37.3381 34.8459 38.9906C34.7656 39.0976 34.6586 39.1846 34.605 39.3117C34.3374 39.7131 33.936 39.9874 33.5747 40.2818C31.6011 41.8875 29.2929 42.7238 26.8108 43.1118C24.8773 43.4195 22.9104 43.453 20.9702 43.2122C17.9127 42.8375 14.9891 41.7336 12.4468 39.9941C11.8246 39.5726 11.2157 39.1378 10.6738 38.6159C10.6537 38.6025 10.6537 38.5758 10.6671 38.5557L10.6738 38.549C10.7876 38.5022 10.8611 38.5891 10.9414 38.6427C12.2394 39.6195 13.7179 40.3353 15.2901 40.7568C15.8187 40.8906 16.3472 40.9977 16.8891 41.0779C17.0095 41.1248 17.1433 41.098 17.2638 41.1248C17.2905 41.1248 17.3173 41.1315 17.3374 41.1382C18.555 41.2853 19.7726 41.1984 20.9769 40.9843C23.6196 40.516 25.9745 39.4121 27.9816 37.6257C29.3531 36.4148 30.437 34.9831 31.0123 33.2168C31.5877 31.4506 31.5074 29.7312 30.6979 28.0318C30.5306 28.7945 30.1359 29.4234 29.6341 29.9988C29.1324 30.5608 28.5436 31.0425 27.888 31.4171C27.8144 31.464 27.7274 31.5443 27.6404 31.4774C27.5668 31.4171 27.607 31.3168 27.6337 31.2432C27.7943 30.7147 27.9014 30.1727 27.9616 29.6241C28.1957 27.316 27.3059 25.5163 25.4661 24.1582C25.1583 23.9307 24.8439 23.73 24.5161 23.5493Z" fill="#262F71"/>
<path d="M16.8888 41.1254C16.213 41.0585 15.544 40.918 14.8884 40.7173C13.6573 40.3427 12.4932 39.8008 11.4161 39.0916C11.1619 38.9243 10.9411 38.6969 10.6668 38.5631C10.5062 38.543 10.4393 38.3824 10.3122 38.3155C7.60931 35.9137 5.76279 32.9633 4.70572 29.5178C4.19057 27.8452 3.90957 26.1057 3.88281 24.3528C3.8895 24.219 3.89619 24.0919 3.90957 23.8845C4.04338 24.1789 4.14373 24.4064 4.25078 24.6405C5.22087 26.7747 6.46527 28.7149 8.17799 30.334C9.99775 32.0534 12.1186 33.2041 14.6141 33.6055C17.5377 34.0805 20.2741 33.5721 22.7896 31.9932C24.0474 31.2037 25.071 30.1935 25.6664 28.8086C26.3823 27.1293 26.1147 25.5705 25.0175 24.1321C24.9238 24.0049 24.8168 23.8845 24.7231 23.7641C24.8502 23.6504 24.9238 23.7842 24.9974 23.8444C25.6464 24.3863 26.1615 25.0687 26.5094 25.8448C26.8439 26.5874 27.0246 27.3835 27.0313 28.1998C27.0446 29.0294 26.8573 29.8523 26.496 30.6016C26.5763 30.6016 26.6499 30.5748 26.7101 30.5213C27.058 30.3206 27.3859 30.0864 27.6936 29.8255C27.7873 29.7452 27.8743 29.6181 28.0281 29.6382C27.9478 30.2671 27.8073 30.8893 27.62 31.4981C28.0214 31.2706 28.4095 31.0164 28.7774 30.7287C29.0651 30.5012 29.2993 30.2202 29.587 29.9861C29.7074 30.0396 29.7074 30.16 29.7342 30.2604C30.1958 31.933 29.8613 33.4918 29.0384 34.9637C28.0348 36.75 26.563 38.0813 24.8502 39.1585C23.4653 40.0282 21.9466 40.6504 20.3477 40.9983C19.3441 41.2258 18.3138 41.286 17.2902 41.179C17.1564 41.1054 17.0159 41.1856 16.8888 41.1254Z" fill="#161F42"/>
<path d="M42.1634 28.7215C42.0764 26.808 41.6014 24.9347 40.7718 23.2087C40.2299 22.0847 39.5475 21.0343 38.738 20.0843C38.0087 19.2212 37.1724 18.4853 36.2893 17.7828C36.3696 17.7025 36.4766 17.7159 36.5703 17.7293C37.8013 17.8698 39.0056 18.1575 40.1697 18.5856C40.4574 18.6927 40.7384 18.8198 41.006 18.9737C41.0996 19.0205 41.1933 19.074 41.287 19.1343C41.307 19.1476 41.3204 19.1811 41.3539 19.1744C41.3338 19.1476 41.3271 19.1142 41.3405 19.0807C40.551 18.0504 39.5876 17.1874 38.5841 16.3712C37.3865 15.4011 36.0819 14.5715 34.6903 13.9024C32.7635 12.9524 30.6962 12.3302 28.562 12.0693C28.3747 12.0425 28.174 12.0693 27.9933 12.0024C27.9799 11.8753 28.087 11.8351 28.1606 11.7749C29.4117 10.7312 30.4152 9.50021 31.1244 8.03504C31.3385 7.59348 31.5191 7.13184 31.6663 6.66352C31.7065 6.52972 31.7332 6.38253 31.867 6.30225C34.1083 7.37939 36.1154 8.87801 37.7879 10.7178C42.2303 15.6018 43.9029 22.3924 42.2437 28.7817C42.1969 28.8017 42.1902 28.7549 42.1634 28.7215Z" fill="#4189C9"/>
<path d="M34.5997 39.3117C34.5997 39.1177 34.7536 39.0039 34.8539 38.8634C35.7705 37.5588 36.3258 36.1137 36.6135 34.5482C36.7941 33.5781 36.8075 32.6013 36.7473 31.6312C36.6469 30.1393 36.2656 28.7009 35.6635 27.3227C35.2219 26.3124 34.6666 25.3557 34.011 24.4726C33.3085 23.5426 32.4923 22.693 31.5891 21.957C30.1975 20.8063 28.5918 19.9433 26.8657 19.408C25.9491 19.1137 24.9991 18.9196 24.0424 18.826C23.8685 18.8126 23.7012 18.7658 23.5206 18.7791C22.9117 18.3309 22.2895 17.896 21.5938 17.5816L21.6004 17.5147C21.848 17.5147 22.1022 17.5214 22.3498 17.5147C25.8555 17.4545 29.0936 18.3108 31.9169 20.445C34.8406 22.6595 36.6737 25.5832 37.3561 29.1959C37.9382 32.2735 37.4899 35.1838 35.7772 37.8532C35.4427 38.3951 35.0747 38.8969 34.5997 39.3117Z" fill="#161F42"/>
<path d="M31.8878 6.30181C31.5399 7.37895 31.0983 8.40925 30.4627 9.35259C29.8271 10.3026 29.0511 11.1523 28.1613 11.8748C28.1077 11.915 28.0609 11.9618 28.0141 12.0086C27.7063 12.1625 27.4521 12.4034 27.1711 12.5907C26.1341 13.2731 25.0235 13.8485 23.8661 14.2967C23.8393 14.3034 23.8059 14.3101 23.7791 14.3168C23.7256 14.2432 23.7858 14.2164 23.8193 14.183C24.4749 13.5541 24.883 12.7847 25.1573 11.9284C25.1841 11.8146 25.2644 11.721 25.3714 11.6875C27.4119 10.878 29.0444 9.53992 30.3758 7.81382C30.4962 7.65994 30.6166 7.49937 30.7638 7.29866C30.349 7.29197 30.0345 7.49937 29.6867 7.55289C29.6197 7.55958 29.5328 7.61311 29.5194 7.48599C30.7839 6.00743 31.7406 4.28133 32.3159 2.42812C32.3494 2.30769 32.3159 2.14713 32.4832 2.08691C32.4966 2.0936 32.5033 2.10698 32.4966 2.12037C32.4966 2.13375 32.4899 2.14044 32.4899 2.14044C32.4698 3.46512 32.2825 4.78311 31.9346 6.06096C31.9145 6.13455 31.9011 6.21483 31.8878 6.30181Z" fill="#161F42"/>
<path d="M23.9489 20.2581C24.3637 20.7131 24.725 21.2215 25.026 21.7635C25.0528 21.817 25.1264 21.8772 25.0595 21.9374C25.006 21.9842 24.9524 21.924 24.8989 21.904C23.5408 21.3955 22.1425 21.0141 20.7108 20.7666C19.9882 20.6395 19.259 20.586 18.5297 20.5324C17.8741 20.4923 17.2118 20.499 16.5561 20.5592C15.0575 20.6796 13.599 21.0008 12.2074 21.6029C11.7792 21.7902 11.3444 21.9575 10.9429 22.205C10.8961 22.2318 10.8426 22.2786 10.7891 22.2117C11.9933 21.362 13.3314 20.7198 14.7497 20.3117C16.7033 19.7296 18.6903 19.5891 20.7175 19.743C21.7478 19.8233 22.7714 19.9838 23.7749 20.2113C23.8419 20.218 23.8954 20.2381 23.9489 20.2581Z" fill="#161F42"/>
<path d="M23.452 6.19482H23.7531C23.9137 6.26173 24.0943 6.17475 24.2549 6.24166H24.5559C24.5827 6.38884 24.4623 6.44906 24.382 6.51596C22.9904 7.69345 21.6122 8.87764 20.2206 10.0484C19.759 10.4365 19.304 10.8245 18.8491 11.2126C18.7755 11.2594 18.722 11.3263 18.6885 11.3999C18.0864 11.6274 17.5244 11.9083 17.0829 12.3967C16.8755 12.6309 16.735 12.8985 16.5878 13.1661C16.173 13.4337 15.8251 13.7883 15.4504 14.1028C14.4603 14.9324 13.4835 15.782 12.4933 16.6049C12.413 16.6718 12.3528 16.7722 12.2591 16.8257C12.0919 16.5715 12.1253 16.2905 12.1655 16.0162C12.2926 15.8088 12.4866 15.6817 12.6606 15.5278C13.624 14.7116 14.5807 13.8954 15.5374 13.0791C16.474 12.283 17.404 11.4869 18.3406 10.6974C19.4178 9.78752 20.4882 8.87095 21.5654 7.95437C22.1608 7.44591 22.7562 6.93076 23.365 6.43568C23.4587 6.37546 23.5189 6.31525 23.452 6.19482Z" fill="#5C94CE"/>
<path d="M41.0546 19.0472C39.8771 18.4786 38.626 18.124 37.3415 17.9166C36.9936 17.8631 36.6524 17.7895 36.3045 17.7895C35.8563 17.5085 35.4147 17.2074 34.9531 16.9398C33.4611 16.0767 31.8287 15.488 30.1227 15.2137C30.0825 15.2003 30.0491 15.1869 30.0156 15.1736C30.5241 15.0799 32.2703 15.3408 33.4745 15.6753C34.5985 15.9831 35.6823 16.4046 36.7193 16.9465C36.6123 16.6187 36.4116 16.4046 36.2911 16.1437C36.2778 16.0767 36.1841 16.0165 36.2443 15.9429C36.3045 15.8693 36.3848 15.9496 36.445 15.9764C36.619 16.0567 36.7862 16.1503 36.9602 16.2306C38.4186 16.9866 39.7969 17.8965 41.068 18.9402C41.1349 19.0272 41.1349 19.0272 41.0546 19.0472Z" fill="#161F42"/>
<path d="M23.4506 6.19498C23.4841 6.26857 23.5777 6.21505 23.6246 6.29533C23.3436 6.53618 23.0626 6.78373 22.7816 7.02458C22.2664 7.45945 21.7513 7.89432 21.2361 8.32919C20.5069 8.94469 19.7776 9.56689 19.0417 10.1824C18.5332 10.6106 18.0382 11.0521 17.5297 11.487C16.9142 12.0089 16.292 12.524 15.6832 13.0459C15.1948 13.4607 14.7131 13.8821 14.2247 14.2969C13.7095 14.7318 13.1944 15.1667 12.6792 15.6015L12.1641 16.0364L12.3113 15.3808C12.231 15.1667 12.4049 15.073 12.5186 14.9727C12.987 14.5846 13.4486 14.1832 13.9102 13.7885C14.9941 12.8719 16.0712 11.9486 17.155 11.0321C18.085 10.2426 19.0149 9.45316 19.9449 8.6637C20.8079 7.92777 21.6777 7.19852 22.534 6.44921C22.6009 6.389 22.7281 6.32209 22.5407 6.2485C22.8418 6.14146 23.1495 6.22174 23.4506 6.19498Z" fill="#6497D0"/>
<path d="M22.5527 6.24848C22.6196 6.26186 22.6999 6.22172 22.7735 6.28193C22.5996 6.54285 22.3386 6.71011 22.1045 6.91082C21.4488 7.48619 20.7798 8.04817 20.1175 8.61016C19.5086 9.12531 18.8931 9.63377 18.2843 10.1489C17.6755 10.6641 17.0667 11.1993 16.4512 11.7211C15.8357 12.243 15.2269 12.7448 14.618 13.2599C14.0092 13.7751 13.4004 14.3036 12.7849 14.8321C12.6043 14.9927 12.3567 15.0998 12.3099 15.3741C11.9887 15.4142 11.8148 15.6818 11.5806 15.8558C11.206 16.1234 10.9183 16.4913 10.5771 16.7924C10.2292 17.0399 9.92144 17.3343 9.60031 17.6086C8.6369 18.4248 7.68019 19.2477 6.71678 20.0573C6.58298 20.171 6.46255 20.3048 6.31537 20.3985C6.24846 20.4386 6.18825 20.5189 6.09459 20.452C6.0879 20.2781 6.12135 20.1041 6.19494 19.9502C6.67664 19.6425 7.07806 19.2344 7.51293 18.8731C8.7105 17.8695 9.89468 16.8526 11.0856 15.8424C12.2764 14.8321 13.4472 13.8286 14.6314 12.825C15.7888 11.8416 16.9463 10.8581 18.1037 9.87462C19.2879 8.87108 20.4721 7.86753 21.6495 6.8573C21.8837 6.65659 22.1312 6.46926 22.352 6.25517L22.5527 6.24848Z" fill="#689AD1"/>
<path d="M25.1548 6.29535C25.4291 6.28866 25.69 6.36225 25.9576 6.3957C26.0312 6.55627 25.8907 6.61648 25.8104 6.69008C25.4759 6.98445 25.128 7.25875 24.8002 7.55982C24.7668 7.51298 24.7266 7.46615 24.6932 7.41932C24.6196 7.31228 24.5661 7.33904 24.5192 7.43939C24.1245 8.28906 23.4488 8.87781 22.7061 9.39965C21.8765 9.98171 20.98 10.4701 20.0367 10.8581C19.9832 10.7645 19.9832 10.7578 20.0702 10.6708C20.2508 10.4835 20.4582 10.3296 20.6522 10.1623C22.0773 8.9514 23.5023 7.74715 24.9206 6.52282C25.0009 6.45592 25.0745 6.37563 25.1548 6.29535Z" fill="#4E8FCC"/>
<path d="M25.1603 6.29538C25.1536 6.37566 25.1068 6.45594 25.0399 6.50278C24.1233 7.27885 23.2068 8.06162 22.2902 8.83769C21.5877 9.43313 20.8919 10.0353 20.1894 10.6374C20.1292 10.6909 20.0088 10.731 20.0422 10.8582C19.6007 11.0656 19.1457 11.2529 18.6841 11.4068C18.5302 11.3666 18.6573 11.3064 18.6841 11.2797C18.9584 11.0388 19.2327 10.798 19.5137 10.5638C20.0222 10.1289 20.5373 9.69405 21.0525 9.25918C21.5609 8.831 22.0694 8.40282 22.5712 7.97464C23.073 7.54646 23.5814 7.11159 24.0832 6.67672C24.2438 6.53623 24.4445 6.42918 24.5515 6.23516C24.7589 6.22178 24.9596 6.28869 25.1603 6.29538Z" fill="#5591CD"/>
<path d="M21.6021 12.3299C22.1307 12.0689 22.686 11.8482 23.1476 11.4668C23.2413 11.4601 23.2346 11.5203 23.2078 11.5806C22.7796 13.3468 21.4416 14.5109 19.6285 14.6782C19.2806 14.7116 18.9327 14.7518 18.5781 14.7183C18.625 14.5912 18.7454 14.5979 18.8457 14.5711C19.2405 14.4641 19.6285 14.3503 19.9965 14.163C20.6789 13.8084 21.1807 13.2866 21.4683 12.5707C21.4884 12.4771 21.5352 12.3901 21.6021 12.3299Z" fill="#161F42"/>
<path d="M21.5956 12.3301C21.3748 13.1731 20.8396 13.7551 20.097 14.1766C19.622 14.4442 19.0935 14.5713 18.5716 14.7185C18.4445 14.3439 18.585 14.0294 18.8058 13.7417C19.0667 13.4072 19.428 13.1998 19.8093 13.0259C20.3914 12.7583 20.9868 12.5308 21.5956 12.3301Z" fill="#418AC9"/>
<path d="M6.0925 20.4452C6.38687 20.3382 6.58089 20.084 6.81505 19.8899C7.57106 19.2677 8.31368 18.6322 9.0563 18.0033C9.45103 17.6688 9.83238 17.3342 10.2204 16.993C10.3275 16.8994 10.4211 16.799 10.575 16.7856C10.1736 17.2874 9.79224 17.8026 9.50456 18.3846C8.73517 19.0336 7.96579 19.6892 7.20309 20.3449C6.8485 20.646 6.48723 20.9403 6.13933 21.2548C6.08581 21.3016 6.0256 21.3618 5.94531 21.2949C5.95869 21.0139 6.00553 20.7262 6.0925 20.4452Z" fill="#6497D0"/>
<path d="M9.03432 21.7967C8.80016 21.8168 8.69311 22.0242 8.53254 22.1513C7.8702 22.6865 7.23463 23.2351 6.59236 23.7904C6.37827 23.9777 6.17087 24.1651 5.9434 24.339C5.79621 24.4528 5.736 24.4059 5.74269 24.232C5.74269 24.0246 5.74269 23.8172 5.74269 23.6031C5.97685 23.3489 6.25115 23.1548 6.51207 22.9341C7.26139 22.2985 7.99732 21.6562 8.76001 21.034C8.82692 20.9805 8.88044 20.8801 8.99418 20.947L9.03432 21.7967Z" fill="#468CCA"/>
<path d="M12.2578 16.8397C12.2645 16.7527 12.3113 16.6791 12.3849 16.6323C12.9871 16.1238 13.5892 15.6154 14.1913 15.1069C14.6864 14.6921 15.1748 14.2639 15.6699 13.8424C15.9308 13.6217 16.185 13.3942 16.4393 13.1734C16.4861 13.1333 16.5329 13.0998 16.5798 13.1734C16.5262 13.4009 16.4593 13.6284 16.466 13.8692C16.1984 14.1636 15.8706 14.3977 15.5695 14.6587C14.6329 15.4615 13.6962 16.2577 12.7596 17.0538C12.7194 17.0872 12.6927 17.1274 12.6592 17.1675C12.4786 17.1341 12.3247 17.0137 12.2578 16.8397Z" fill="#5591CD"/>
<path d="M5.9403 21.3014C6.15439 21.2345 6.28151 21.0472 6.44876 20.9134C7.33188 20.1841 8.19494 19.4415 9.07137 18.6989C9.21186 18.5851 9.30553 18.4112 9.51293 18.3911C9.35236 18.7858 9.21855 19.1873 9.11151 19.5954C8.95763 19.582 8.87735 19.7024 8.77699 19.7894C7.86711 20.5722 6.95054 21.3415 6.04066 22.1176C5.98713 22.1644 5.93361 22.2313 5.84664 22.2046C5.83326 21.8968 5.86671 21.5958 5.9403 21.3014Z" fill="#5C94CE"/>
<path d="M12.6592 17.1676C12.599 17.0539 12.6993 17.0204 12.7595 16.9736C13.5289 16.3179 14.2983 15.6623 15.0677 15.0133C15.5026 14.6454 15.9374 14.2774 16.379 13.9094C16.4058 13.896 16.4392 13.8827 16.4727 13.876C16.4727 14.0834 16.5061 14.2841 16.5663 14.4781C16.3054 14.7859 15.9709 15.0133 15.6698 15.2743C14.9941 15.8563 14.3184 16.4317 13.6293 17.007C13.5825 17.0405 13.5423 17.0873 13.5289 17.1408C13.2412 17.2479 12.9536 17.288 12.6592 17.1676Z" fill="#4E8FCC"/>
<path d="M8.99232 20.9535C8.71133 21.1141 8.48386 21.3483 8.23632 21.5557C7.58067 22.0909 6.9384 22.6395 6.30282 23.1948C6.12887 23.3487 5.96831 23.5159 5.74753 23.6163C5.77429 23.3487 5.694 23.0744 5.79436 22.8134C6.78452 21.9705 7.77469 21.1275 8.77155 20.2845C8.83845 20.2243 8.91204 20.1574 9.0124 20.2042L8.99232 20.9535Z" fill="#4E8FCC"/>
<path d="M9.00447 20.1976C8.68334 20.3649 8.44249 20.6325 8.16818 20.86C7.51922 21.3952 6.89033 21.9438 6.24806 22.479C6.10757 22.5994 6.00721 22.7868 5.79312 22.8068C5.81988 22.6061 5.7396 22.3987 5.84665 22.2047C6.46884 21.6695 7.09773 21.1343 7.72662 20.6057C8.14811 20.2445 8.57629 19.8899 9.00447 19.5286C9.13828 19.4149 9.10482 19.542 9.11151 19.6022C9.06468 19.7962 9.03792 19.9969 9.00447 20.1976Z" fill="#5591CD"/>
<path d="M13.5394 17.147C13.4457 17.0801 13.5126 17.0332 13.5594 16.9864C14.1482 16.4913 14.7436 15.9962 15.3324 15.5012C15.7003 15.1934 16.0616 14.879 16.4296 14.5645C16.4697 14.5177 16.5165 14.4909 16.5768 14.4775L16.7239 14.7786C16.6102 14.9592 16.4229 15.0663 16.2891 15.2335C15.5665 16.0364 14.7503 16.7121 13.7267 17.1001C13.6665 17.1202 13.6063 17.1336 13.5394 17.147Z" fill="#488DCA"/>
<path d="M24.8125 7.56631C24.9062 7.28532 25.2005 7.19834 25.3745 6.99764C25.5618 6.78355 25.8629 6.68988 25.9766 6.39551C26.1974 6.39551 26.4048 6.45572 26.6122 6.48917C26.7928 6.52262 26.8062 6.60291 26.6791 6.71664C26.4048 6.95749 26.1305 7.20503 25.8562 7.4392C25.5953 7.65998 25.3343 7.88076 25.0734 8.10154C24.9798 7.9209 24.8928 7.74026 24.8125 7.56631Z" fill="#468CCA"/>
<path d="M12.4167 19.0074C12.4635 19.1211 12.3297 19.1746 12.3431 19.275C12.2762 18.9672 12.1089 18.8535 11.8012 18.9137C11.4733 18.9873 11.179 19.1546 10.9582 19.4088C10.898 19.4757 10.8244 19.5359 10.7575 19.5961C10.704 19.5292 10.7575 19.469 10.7776 19.4088C10.9114 18.9739 11.2057 18.6662 11.5737 18.4186C11.654 18.3584 11.7476 18.3183 11.848 18.2915C12.2762 18.1911 12.5103 18.3985 12.4501 18.8334C12.4568 18.8936 12.4434 18.9538 12.4167 19.0074Z" fill="#428AC9"/>
<path d="M12.4104 19.0071C12.4104 18.9402 12.4171 18.8733 12.4171 18.8064C12.4238 18.3715 12.1762 18.2042 11.7681 18.3916C11.2998 18.6056 11.0054 18.987 10.798 19.4486C10.7512 19.4553 10.7244 19.4419 10.7378 19.3884C10.885 18.8398 11.1727 18.3916 11.6477 18.0704C11.7681 17.9901 11.9019 17.9433 12.0357 17.9165C12.2565 17.8697 12.4773 18.0035 12.5308 18.2243C12.6044 18.4852 12.5643 18.7729 12.4104 19.0071Z" fill="#182144"/>
<path d="M16.2733 15.2337C16.1863 15.1668 16.2666 15.1401 16.3067 15.1066C16.4472 15.0063 16.5275 14.8323 16.7015 14.7788C16.9289 15.1401 17.2902 15.3007 17.6716 15.4345C17.7452 15.4612 17.8254 15.4813 17.9526 15.5147C17.3705 15.6686 16.8687 15.6084 16.4071 15.294C16.3736 15.2538 16.3268 15.2337 16.2733 15.2337Z" fill="#458CCA"/>
<path d="M36.949 16.2231C36.7617 16.203 36.6279 16.0759 36.4606 16.0157C36.3937 15.9889 36.3335 15.9087 36.2666 15.9622C36.2131 16.009 36.3 16.0759 36.28 16.1428C36.1796 16.0558 36.1395 15.922 36.0859 15.7949C36.387 15.9153 36.6814 16.0358 36.949 16.2231Z" fill="#63657D"/>
<path d="M41.0703 19.0473C41.1238 19.0139 41.0703 18.9737 41.077 18.9336L41.3647 19.0942L41.5186 19.2949C41.3312 19.2413 41.2041 19.1343 41.0703 19.0473Z" fill="#263154"/>
<path d="M29.5312 15.0866C29.6651 15.0665 29.8056 15.0799 29.9327 15.1133C29.7721 15.207 29.6651 15.1936 29.5312 15.0866Z" fill="#A09AA9"/>
<path d="M10.3125 38.3081C10.4664 38.3349 10.54 38.4887 10.6671 38.5556L10.6604 38.6159C10.5199 38.549 10.3995 38.4419 10.3125 38.3081Z" fill="#424A7F"/>
<path d="M42.1797 28.7217L42.2667 28.7752C42.28 28.8756 42.2332 28.9625 42.1797 29.083V28.7217Z" fill="#8CB7DE"/>
<path d="M29.5181 7.49951C29.5515 7.57311 29.6318 7.54634 29.6853 7.56641L29.4177 7.67346C29.3976 7.55972 29.4645 7.53296 29.5181 7.49951Z" fill="#5A5D76"/>
<path d="M10.7499 19.3882L10.8101 19.4484C10.7967 19.4952 10.7767 19.5488 10.7633 19.5956L10.6562 19.7361C10.683 19.5688 10.6897 19.4685 10.7499 19.3882Z" fill="#4F668A"/>
<path d="M23.2086 11.574C23.1953 11.5339 23.202 11.4803 23.1484 11.4603C23.1618 11.4201 23.2087 11.3666 23.2287 11.3867C23.2889 11.4469 23.2622 11.5138 23.2086 11.574Z" fill="#555A73"/>
<path d="M6.28906 19.5414C6.35597 19.1802 6.42956 18.8189 6.59013 18.4844C7.17887 18.0696 7.70072 17.5745 8.24932 17.1129C9.19934 16.31 10.1494 15.5072 11.0927 14.6977C11.9558 13.9617 12.8188 13.2258 13.6885 12.4899C14.6252 11.6937 15.5618 10.8976 16.4985 10.1014C17.3481 9.37886 18.2045 8.65631 19.0542 7.92707C19.6496 7.4186 20.2584 6.91683 20.8405 6.39499C21.1549 6.32139 21.4694 6.28125 21.7905 6.29463C21.8173 6.26787 21.8574 6.26787 21.8909 6.28125C21.9644 6.40168 21.8708 6.46858 21.7972 6.53548C20.9877 7.21789 20.1848 7.90699 19.3753 8.5961C18.5123 9.32534 17.6559 10.0546 16.7928 10.7905C15.9967 11.4662 15.2072 12.142 14.4111 12.8177C13.4477 13.6406 12.4776 14.4568 11.5075 15.2797C10.3032 16.2966 9.10568 17.3269 7.90143 18.3439C7.43311 18.7386 6.97816 19.14 6.50315 19.5214C6.46301 19.5682 6.38273 19.7221 6.28906 19.5414Z" fill="#6D9CD2"/>
<path d="M20.8508 6.39551C20.7638 6.6765 20.4962 6.78355 20.3022 6.95749C19.6666 7.51948 19.011 8.06139 18.3687 8.61C17.6461 9.21882 16.9169 9.82764 16.1943 10.4431C15.5654 10.9784 14.9499 11.5203 14.3211 12.0555C13.7122 12.5707 13.0967 13.0791 12.4879 13.601C11.8791 14.1228 11.277 14.6447 10.6681 15.1598C10.0593 15.675 9.45051 16.1901 8.835 16.7053C8.33323 17.1334 7.83815 17.5616 7.33637 17.9898C7.13567 18.1638 6.92826 18.331 6.72087 18.4983C6.67403 18.5317 6.63389 18.5518 6.59375 18.4983C6.66734 18.1504 6.78108 17.8092 6.94165 17.4947C7.40328 17.2004 7.79132 16.819 8.20611 16.4711C9.15614 15.6683 10.1062 14.8654 11.0495 14.0559C12.0263 13.2196 13.0098 12.3833 13.9865 11.5537C14.7961 10.8646 15.6056 10.1822 16.4084 9.49312C17.4588 8.60331 18.5025 7.70012 19.5596 6.817C19.6398 6.76347 19.7001 6.68988 19.7335 6.6096C20.1015 6.46241 20.4828 6.4691 20.8508 6.39551Z" fill="#729FD4"/>
<path d="M19.7439 6.5957C19.8977 6.63584 19.7706 6.69606 19.7439 6.72282C19.4629 6.97705 19.1752 7.23128 18.8808 7.47882C18.3724 7.907 17.8639 8.33518 17.3554 8.76336C16.6128 9.38556 15.8702 10.0144 15.1276 10.6433C14.5187 11.1585 13.9166 11.687 13.3078 12.2022C12.6789 12.7374 12.05 13.2659 11.4211 13.7945C10.8123 14.3096 10.2102 14.8315 9.60136 15.3533C8.99255 15.8685 8.38373 16.3836 7.77491 16.8988C7.55413 17.0861 7.33335 17.2734 7.10588 17.4608C7.05905 17.4942 7.01222 17.5812 6.94531 17.4875C7.01222 17.1463 7.19285 16.8453 7.34673 16.5375C8.16964 15.835 8.99924 15.1325 9.82883 14.4234C10.6785 13.6941 11.5349 12.9716 12.3845 12.249C13.2007 11.5532 14.0103 10.8641 14.8265 10.175C15.6829 9.44577 16.5459 8.70984 17.4023 7.9806C17.8438 7.60594 18.2787 7.21121 18.7403 6.84324C19.0548 6.69606 19.4027 6.65592 19.7439 6.5957Z" fill="#78A2D5"/>
<path d="M18.7295 6.84375C18.4084 7.25855 17.9802 7.54623 17.5922 7.88744C17.0837 8.329 16.5686 8.76387 16.0534 9.19874C15.5516 9.62023 15.0499 10.0417 14.5481 10.4699C14.0463 10.8981 13.5512 11.3263 13.0495 11.7477C12.5477 12.1759 12.0325 12.6041 11.5241 13.0323C11.029 13.4538 10.5406 13.8753 10.0455 14.2968C9.41662 14.832 8.78773 15.3605 8.15885 15.889C7.93807 16.0764 7.71059 16.2637 7.48981 16.451C7.44967 16.4912 7.39615 16.5179 7.33594 16.5246C7.4965 16.1031 7.69721 15.7017 7.93806 15.3204C9.08211 14.3904 10.1994 13.4203 11.3234 12.4636C12.628 11.353 13.9326 10.2558 15.2305 9.13853C15.9597 8.50964 16.7224 7.90751 17.4316 7.24517C17.8464 7.07791 18.2813 6.9441 18.7295 6.84375Z" fill="#7DA5D6"/>
<path d="M17.4322 7.25244C17.4857 7.33942 17.392 7.36618 17.3519 7.40632C16.7966 7.89471 16.2346 8.37641 15.6726 8.85811C15.1775 9.2796 14.6825 9.6944 14.1874 10.1159C13.5719 10.6377 12.9564 11.1596 12.3408 11.6747C11.8391 12.1029 11.344 12.5311 10.8422 12.9526C10.2133 13.4878 9.58444 14.0163 8.96224 14.5449C8.70132 14.7657 8.4404 14.9931 8.18616 15.2139C8.11926 15.2808 8.03229 15.3209 7.94531 15.3343C8.25307 14.7121 8.62772 14.1234 9.04921 13.5815C9.43725 13.2938 9.79184 12.966 10.1598 12.6582C11.1165 11.8487 12.0665 11.0392 13.0166 10.2296C13.7525 9.60074 14.4884 8.97185 15.2244 8.34965C15.3381 8.25599 15.4786 8.18908 15.5656 8.06197C16.1543 7.694 16.7966 7.47991 17.4322 7.25244Z" fill="#81A7D8"/>
<path d="M28.0202 29.6311C27.5185 30.0459 27.0167 30.4674 26.3476 30.7551C26.5417 30.367 26.6889 29.9589 26.7892 29.5374C27.1839 27.7979 26.816 26.2123 25.7924 24.7739C25.5381 24.4193 25.1969 24.145 24.8958 23.8306C24.849 23.7771 24.7955 23.7169 24.7085 23.757C24.6149 23.7102 24.5747 23.6232 24.5078 23.5563C24.548 23.5028 24.5948 23.5295 24.6416 23.5563C25.8526 24.2454 26.8628 25.1352 27.485 26.4131C27.7861 27.0419 27.9734 27.7244 28.0336 28.4201C28.0737 28.8216 28.0671 29.2297 28.0202 29.6311Z" fill="#0E1F66"/>
<path d="M6.29567 19.5417C6.49638 19.6153 6.56328 19.4146 6.66363 19.3343C7.68056 18.4913 8.6841 17.6349 9.68765 16.7719C10.6377 15.9624 11.5743 15.1462 12.5243 14.3366C13.5814 13.4401 14.6452 12.5503 15.7089 11.6538C16.6589 10.8443 17.6023 10.0281 18.5523 9.21854C19.5759 8.3488 20.5995 7.47237 21.6298 6.59594C21.7369 6.50897 21.8841 6.46214 21.9041 6.29488C21.9644 6.24136 22.0446 6.30157 22.1049 6.24805H22.3591C22.2855 6.51566 22.0246 6.60932 21.8439 6.76989C21.3221 7.23821 20.7802 7.67977 20.2516 8.12802C19.6428 8.64318 19.0273 9.15833 18.4185 9.67348C17.9234 10.095 17.435 10.5165 16.9399 10.938C16.2107 11.5535 15.4748 12.169 14.7522 12.7912C14.2571 13.2127 13.7687 13.6341 13.2737 14.0556C12.6448 14.5909 12.0159 15.1194 11.387 15.6479C10.8919 16.0694 10.4035 16.4909 9.90843 16.9124C9.39997 17.3406 8.8915 17.7688 8.38304 18.1969C7.87458 18.6251 7.37281 19.0667 6.86434 19.4949C6.6904 19.642 6.50307 19.7892 6.32243 19.9364C6.28229 19.9699 6.24214 19.9966 6.19531 19.9364C6.19531 19.8093 6.22876 19.6688 6.29567 19.5417Z" fill="#699AD1"/>
<path d="M15.5699 8.04834C15.5298 8.28919 15.2956 8.3494 15.1484 8.48321C14.6333 8.94484 14.1047 9.37971 13.5762 9.82796C12.9607 10.3498 12.3452 10.865 11.7297 11.3868C11.2346 11.8083 10.7462 12.2298 10.2511 12.6513C9.88985 12.959 9.53527 13.2668 9.17399 13.5745C9.13385 13.608 9.09371 13.6347 9.04688 13.5745C9.3078 13.1731 9.60217 12.7918 9.92331 12.4305C11.1008 11.059 12.4456 9.8681 13.9843 8.91139C14.4995 8.59694 15.0079 8.26912 15.5699 8.04834Z" fill="#88ABD9"/>
<path d="M24.2518 6.24858C24.0845 6.22851 23.9106 6.3021 23.75 6.20175C23.9173 6.22182 24.0912 6.14823 24.2518 6.24858Z" fill="#5591CD"/>
<path d="M22.0979 6.24838C22.0444 6.32197 21.9641 6.28852 21.8972 6.29521H21.7969C21.8905 6.20823 21.9976 6.26176 22.0979 6.24838Z" fill="#689AD1"/>
<path d="M17.2812 41.1721C18.9204 41.2457 20.5528 40.9847 22.0849 40.4161C23.5768 39.8741 24.9684 39.0914 26.2061 38.0945C27.4171 37.111 28.4608 35.9871 29.1565 34.5754C29.5312 33.8194 29.7654 33.0032 29.839 32.1669C29.9059 31.4109 29.7787 30.695 29.5713 29.9859C29.5914 29.8119 29.752 29.7316 29.8456 29.6112C30.2069 29.1362 30.4678 28.6277 30.5816 28.039C30.6016 27.9587 30.6284 27.8851 30.6619 27.8115C30.8893 28.2665 31.07 28.7415 31.1971 29.2299C31.371 29.919 31.4714 30.6215 31.4179 31.3306C31.3242 32.5616 30.9562 33.7592 30.3407 34.8297C29.7252 35.9135 28.9358 36.8367 28.0259 37.6663C27.223 38.3822 26.3399 39.0044 25.3899 39.5062C24.2459 40.1284 23.0282 40.59 21.7571 40.8911C20.9676 41.0784 20.1581 41.1921 19.3486 41.239C18.9538 41.259 18.5658 41.2925 18.1778 41.2724C17.8901 41.2457 17.5823 41.2657 17.2812 41.1721Z" fill="#0E1F66"/>
</svg>
