<svg width="91" height="18" viewBox="0 0 91 18" fill="none" xmlns="http://www.w3.org/2000/svg">
<g clip-path="url(#clip0_2272_10187)">
<path d="M32.0118 6.29548C32.0118 4.46105 30.4396 3.40296 28.6396 3.40296H24.75V13.706H26.3223V9.188H26.622L30.4552 13.706H32.2372V13.4243L28.5386 9.19192C30.3355 9.188 32.0118 8.0587 32.0118 6.29548ZM26.3223 7.77696V4.81322H28.7186C29.6163 4.81322 30.4403 5.3767 30.4403 6.2947C30.4403 7.21113 29.6163 7.77618 28.7186 7.77618H26.3223V7.77696ZM38.0763 7.63844L38.0019 7.70965L37.926 7.63922C37.4776 7.21583 36.7286 6.93331 35.9797 6.93331C34.0333 6.93331 32.3867 8.34435 32.3867 10.3909C32.3867 12.4366 34.0333 13.8469 35.9797 13.8469C36.7294 13.8469 37.4776 13.5651 37.926 13.1417L38.0019 13.0713L38.0763 13.1417L38.2257 13.706H39.5742V7.07496H38.2257L38.0763 7.63844ZM36.0524 12.5751C34.6289 12.5751 33.8658 11.5914 33.8658 10.3885C33.8658 9.18565 34.6289 8.20113 36.0524 8.20113C37.325 8.20113 38.2203 9.18879 38.2203 10.3885C38.2203 11.5875 37.3281 12.5751 36.0524 12.5751ZM46.3124 7.63922L46.2365 7.71044L46.1622 7.64C45.713 7.21661 44.9491 6.93409 44.2158 6.93409C42.2695 6.93409 40.6221 8.34513 40.6221 10.3909C40.6221 12.4374 42.2695 13.8477 44.2158 13.8477C44.964 13.8477 45.713 13.5651 46.1622 13.1425L46.2365 13.0721L46.3124 13.1425L46.4611 13.706H47.8088V2.98426H46.3124V7.63922ZM44.2902 12.5759C42.8682 12.5759 42.1043 11.5922 42.1043 10.3893C42.1043 9.18565 42.8682 8.20113 44.2902 8.20113C45.5627 8.20113 46.458 9.18957 46.458 10.3893C46.458 11.5883 45.5627 12.5759 44.2902 12.5759ZM50.7897 7.07496H49.3223V13.7052H50.7897V7.07418V7.07496ZM50.8077 4.25287H49.3106V5.80479H50.8077V4.25287ZM55.5222 6.93409C53.5758 6.93409 51.8541 8.34435 51.8541 10.3909C51.8541 12.4366 53.5758 13.8469 55.5222 13.8469C57.4685 13.8469 59.191 12.4358 59.191 10.3909C59.191 8.34513 57.4685 6.93409 55.5222 6.93409ZM55.5222 12.5767C54.1002 12.5767 53.3544 11.5937 53.3544 10.3909C53.3544 9.18722 54.1033 8.20348 55.5222 8.20348C56.941 8.20348 57.69 9.19113 57.69 10.3909C57.69 11.5898 56.945 12.5744 55.5222 12.5744V12.5767ZM61.7306 2.98426H60.2335V12.4358L60.3822 13.706H61.8801L61.7314 12.4358V2.98348L61.7306 2.98426ZM66.4482 6.93409C64.501 6.93409 62.7801 8.34435 62.7801 10.3909C62.7801 12.4366 64.5018 13.8469 66.4482 13.8469C68.3945 13.8469 70.117 12.4358 70.117 10.3909C70.117 8.34513 68.3945 6.93409 66.4482 6.93409ZM66.4482 12.5767C65.0254 12.5767 64.2803 11.5937 64.2803 10.3909C64.2803 9.18722 65.0293 8.20348 66.4482 8.20348C67.867 8.20348 68.616 9.19113 68.616 10.3909C68.616 11.5898 67.871 12.5744 66.4482 12.5744V12.5767ZM75.6579 7.63844L75.5836 7.71044L75.5077 7.63922C75.2095 7.21661 74.4636 6.93409 73.7859 6.93409C73.383 6.92962 72.9828 7.00132 72.6065 7.14539C72.2353 7.28704 71.8954 7.49971 71.6056 7.77148C71.3219 8.03725 71.0956 8.35816 70.9404 8.71452C70.7884 9.06509 70.7121 9.44377 70.7165 9.82583C70.7075 10.284 70.828 10.7353 71.064 11.1281C71.3011 11.5249 71.647 11.8551 72.065 12.0829C71.2706 12.4781 70.7165 13.1981 70.7165 14.1435C70.7165 15.7236 72.2144 16.6549 73.7867 16.6549C75.3582 16.6549 76.8561 15.7236 76.8561 14.1435C76.8561 13.1981 76.3161 12.4789 75.5077 12.0837C75.9209 11.8602 76.2667 11.5303 76.5094 11.1281C76.745 10.7355 76.8652 10.2844 76.8561 9.82661V7.07496H75.8074L75.6579 7.63844ZM73.7867 15.441C72.8131 15.441 72.1393 14.9057 72.1393 14.1294C72.1393 13.353 72.8131 12.7896 73.7867 12.7896C74.7595 12.7896 75.4333 13.353 75.4333 14.1294C75.4333 14.9042 74.7603 15.441 73.7867 15.441ZM73.7867 11.4482C72.8131 11.4482 72.1393 10.7438 72.1393 9.82661C72.1393 8.90939 72.8131 8.20348 73.7867 8.20348C74.7595 8.20348 75.4333 8.90939 75.4333 9.82661C75.4333 10.743 74.7603 11.4482 73.7867 11.4482ZM84.4192 10.3197C84.4192 8.27705 82.9221 6.93331 81.1268 6.93331C79.1804 6.93331 77.6833 8.34435 77.6833 10.3909C77.6833 12.4366 79.2556 13.8469 81.1268 13.8469C82.5488 13.8469 83.5975 13.1417 84.197 12.1541L82.937 11.5906C82.7123 12.1557 82.0988 12.5751 81.2003 12.5751C79.927 12.5751 79.1789 11.7284 79.1789 10.7407H84.2697L84.4192 10.3197ZM79.2548 9.50183C79.4794 8.76774 80.0781 8.2027 81.126 8.2027C82.0244 8.2027 82.7734 8.76774 82.8477 9.50183H79.2548ZM88.387 10.2907L90.6331 7.07418H88.9865L87.5637 9.10583L86.1417 7.07418H84.4936L86.7397 10.2907L84.3441 13.7052H85.9915L87.5637 11.4615L89.136 13.7052H90.7826L88.387 10.2907ZM14.4274 10.4378V5.86974L16.049 4.48061L15.0394 3.40296L13.3897 4.82261H8.46783V6.26105H12.9013V10.4386H14.4274V10.4378ZM1.52609 12.363H0V17.2598C0 17.4508 0.0806087 17.6331 0.223043 17.7685C0.366261 17.9031 0.560348 17.9783 0.763043 17.9783H5.95957V16.5406H1.52609V12.363ZM15.0989 14.9128L14.4282 15.5381V12.3599H12.9021V16.539H8.46783V17.9767H13.7403L13.7849 17.9712H13.8138L13.8639 17.9587L13.885 17.9532C13.9015 17.9493 13.9187 17.943 13.9343 17.9376L13.9547 17.9297C13.9704 17.924 13.9858 17.9175 14.0009 17.9102L14.0228 17.9008C14.0369 17.8937 14.0494 17.8851 14.0635 17.8773L14.087 17.864L14.1237 17.839L14.1472 17.8233C14.1603 17.8132 14.1728 17.8025 14.1848 17.7912L14.2012 17.7764L16.1687 15.9427L15.0989 14.9128ZM17.7863 12.4045L16.0435 14.0316L17.1157 15.0537L19.0863 13.2169C19.1574 13.151 19.2143 13.0714 19.2537 12.9829C19.2925 12.8959 19.3125 12.8018 19.3124 12.7066V7.8967H17.7863V12.4045ZM5.93061 2.20792H10.8415V0.770264H5.64104C5.45557 0.770264 5.27635 0.834438 5.13704 0.950264L3.21026 2.55618L4.21983 3.63461L5.92983 2.20713L5.93061 2.20792Z" fill="white"/>
<path d="M19.2655 1.23671C19.2091 1.09743 19.111 0.979048 18.9846 0.897837C18.8547 0.813879 18.7033 0.769552 18.5487 0.770272H13.3513V2.20792H16.5358L16.0099 2.64462L17.0194 3.72149L17.7895 3.08053V6.00436H19.3156V1.49105C19.3154 1.40392 19.2979 1.31761 19.2655 1.23671ZM3.30422 4.38905L2.29465 3.31062L0.255956 5.00732C0.152174 5.09437 0.0748976 5.20879 0.032913 5.33758C0.0268397 5.3569 0.0216172 5.37649 0.0172608 5.39627V5.40879C0.0133477 5.42992 0.0094347 5.45106 0.00708687 5.4714C0.00708687 5.49488 0.00708687 5.51679 0.00317383 5.53949V10.441H1.52926V6.26497H5.96743V4.82732H2.7783L3.30422 4.38905Z" fill="white"/>
</g>
<defs>
<clipPath id="clip0_2272_10187">
<rect width="90.7826" height="18" fill="white"/>
</clipPath>
</defs>
</svg>
