<svg width="48" height="41" viewBox="0 0 48 41" fill="none" xmlns="http://www.w3.org/2000/svg">
<path d="M24.9206 38.8399H2.15763C1.58539 38.8399 1.03659 38.6125 0.631955 38.2079C0.227321 37.8033 0 37.2545 0 36.6822V28.1596L1.07881 27.5123C5.33307 25.025 10.1754 23.7213 15.1034 23.7365C17.8431 23.7452 20.5676 24.1448 23.1945 24.9232C22.8495 26.4822 22.6687 28.0732 22.6551 29.6699C22.6614 32.8643 23.4386 36.01 24.9206 38.8399Z" fill="#65DA01"/>
<path d="M15.1 19.4187C17.0203 19.4187 18.8975 18.8492 20.4942 17.7823C22.0909 16.7155 23.3353 15.1991 24.0702 13.4249C24.8051 11.6508 24.9974 9.69856 24.6227 7.81514C24.2481 5.93171 23.3234 4.20168 21.9655 2.8438C20.6076 1.48593 18.8776 0.561203 16.9942 0.186566C15.1107 -0.18807 13.1585 0.00420685 11.3844 0.739083C9.61021 1.47396 8.09382 2.71843 7.02694 4.31512C5.96007 5.91181 5.39063 7.78901 5.39062 9.70933C5.39063 12.2844 6.41357 14.754 8.23442 16.5749C10.0553 18.3957 12.5249 19.4187 15.1 19.4187Z" fill="#65DA01"/>
<path d="M47.4669 31.3987V29.0253L43.5832 28.0543L43.0438 26.8676L45.2014 23.4154L43.4753 21.6893L40.0231 23.847L38.8364 23.3076L37.8655 19.4238H35.4921L34.5211 23.3076L33.3344 23.847L29.8822 21.6893L28.1561 23.4154L30.3138 26.8676L29.7744 28.0543L25.8906 29.0253V31.3987L29.7744 32.3696L30.3138 33.5563L28.1561 37.0085L29.8822 38.7346L33.3344 36.577L34.5211 37.1164L35.4921 41.0001H37.8655L38.8364 37.1164L40.0231 36.577L43.4753 38.7346L45.2014 37.0085L43.0438 33.5563L43.5832 32.3696L47.4669 31.3987ZM36.6788 33.4484C36.0387 33.4484 35.4129 33.2586 34.8807 32.903C34.3485 32.5473 33.9336 32.0419 33.6887 31.4505C33.4437 30.8591 33.3796 30.2084 33.5045 29.5806C33.6294 28.9528 33.9376 28.3761 34.3903 27.9235C34.8429 27.4708 35.4196 27.1626 36.0474 27.0377C36.6752 26.9128 37.3259 26.9769 37.9173 27.2219C38.5087 27.4668 39.0141 27.8817 39.3698 28.4139C39.7254 28.9461 39.9152 29.5719 39.9152 30.212C39.9303 30.641 39.8569 31.0686 39.6996 31.4681C39.5422 31.8676 39.3044 32.2304 39.0008 32.534C38.6972 32.8376 38.3344 33.0754 37.9349 33.2328C37.5354 33.3901 37.1078 33.4635 36.6788 33.4484Z" fill="#65DA01"/>
</svg>
