<svg width="44" height="44" viewBox="0 0 44 44" fill="none" xmlns="http://www.w3.org/2000/svg">
<path d="M40.8482 33.8711H2.99219V37.8559H40.8482V33.8711Z" fill="#65DA01"/>
<path d="M41.8409 39.8477H1.99242C1.464 39.8477 0.957219 40.0576 0.583567 40.4312C0.209915 40.8049 0 41.3117 0 41.8401V43.8325H43.8333V41.8401C43.8333 41.3117 43.6234 40.8049 43.2497 40.4312C42.8761 40.0576 42.3693 39.8477 41.8409 39.8477Z" fill="#65DA01"/>
<path d="M11.9536 15.9414H7.96875V31.8808H11.9536V15.9414Z" fill="#65DA01"/>
<path d="M23.9067 15.9414H19.9219V31.8808H23.9067V15.9414Z" fill="#65DA01"/>
<path d="M35.8598 15.9414H31.875V31.8808H35.8598V15.9414Z" fill="#65DA01"/>
<path d="M42.7375 9.36439L21.9167 0L1.09583 9.36439C0.77123 9.54005 0.498879 9.79846 0.306419 10.1134C0.113959 10.4283 0.00824328 10.7886 0 11.1576V11.9545C0 12.483 0.209915 12.9897 0.583567 13.3634C0.957219 13.737 1.464 13.947 1.99242 13.947H41.8409C42.3693 13.947 42.8761 13.737 43.2497 13.3634C43.6234 12.9897 43.8333 12.483 43.8333 11.9545V11.1576C43.8251 10.7886 43.7193 10.4283 43.5269 10.1134C43.3344 9.79846 43.0621 9.54005 42.7375 9.36439Z" fill="#65DA01"/>
</svg>
