<svg width="51" height="45" viewBox="0 0 51 45" fill="none" xmlns="http://www.w3.org/2000/svg">
<path d="M34.4155 0H15.9258C7.13478 0 0.00787111 7.12062 6.50131e-06 15.9101C-0.00785811 24.7012 7.12062 31.8281 15.9101 31.8359H34.4155C43.2066 31.8359 50.3335 24.7075 50.3335 15.918C50.3335 7.12848 43.2066 0 34.4155 0ZM34.0144 26.2237H16.3269C2.85801 25.9532 2.85801 5.88273 16.3269 5.61218H34.0144C47.7539 5.61218 47.7539 26.2237 34.0144 26.2237Z" fill="#65DA01"/>
<path d="M21.6141 41.9969H24.7302L23.1017 39.3467L20.0776 44.1363H18.682L22.3579 38.3699C22.4538 38.276 22.5615 38.1918 22.675 38.1194L22.6828 38.1155C22.7983 38.0431 22.9392 38 23.09 38H23.1017C23.2407 38.002 23.3699 38.045 23.4775 38.1174L23.4756 38.1155C23.5989 38.1918 23.7046 38.276 23.8005 38.3699L27.4764 44.1363H26.0808L25.429 43.0676H22.3129L21.6141 41.9969ZM35.846 43.0676V38.092H34.6834V43.5334V43.5511C34.6834 43.6293 34.701 43.7037 34.7323 43.7703L34.7303 43.7664C34.7675 43.8388 34.8145 43.8995 34.8693 43.9523C34.9026 44.0169 34.9574 44.0658 35.0239 44.0913C35.0983 44.1206 35.1844 44.1383 35.2745 44.1383H35.2803H40.5828L41.2346 43.0695L35.846 43.0676ZM16.6366 42.1359H16.6659C17.2159 42.1359 17.7151 41.9147 18.0791 41.5546C18.451 41.2081 18.684 40.7148 18.684 40.1668C18.684 40.155 18.684 40.1453 18.684 40.1335C18.684 40.1179 18.684 40.1002 18.684 40.0807C18.684 39.5267 18.451 39.0257 18.0791 38.6714C17.717 38.3112 17.2179 38.09 16.6659 38.09C16.6561 38.09 16.6444 38.09 16.6346 38.09H11.5181V44.1363H12.6866V39.1607H16.5465H16.5759C16.8382 39.1607 17.0731 39.2684 17.2433 39.4406C17.4156 39.6109 17.5232 39.8477 17.5232 40.1081V40.1394V40.1374C17.5213 40.3997 17.4156 40.6385 17.2453 40.8127C17.0789 40.9987 16.8362 41.1161 16.5681 41.1161C16.5602 41.1161 16.5524 41.1161 16.5465 41.1161H13.2406L16.7286 44.1402H18.4021L16.0748 42.1398L16.6366 42.1359ZM4.35613 44.1363C4.35222 44.1363 4.34635 44.1363 4.34047 44.1363C3.51839 44.1363 2.77459 43.7977 2.24219 43.2535C1.68239 42.727 1.33594 41.9832 1.33594 41.1572C1.33594 41.1416 1.33594 41.1259 1.33594 41.1102V41.1122C1.33594 41.1004 1.33594 41.0848 1.33594 41.0691C1.33594 40.2431 1.68435 39.4993 2.24219 38.9748L2.24415 38.9728C2.77851 38.4267 3.5223 38.09 4.34439 38.09H4.36005H7.89503H7.94396C8.76409 38.09 9.50397 38.4287 10.0344 38.9728C10.5805 39.5032 10.9172 40.2431 10.9172 41.0633V41.1141V41.1572C10.9172 41.9793 10.5766 42.7211 10.0305 43.2516C9.50005 43.7977 8.76018 44.1343 7.94005 44.1343C7.92243 44.1343 7.90481 44.1343 7.88915 44.1343L4.35613 44.1363ZM7.80107 43.0676H7.84805C8.37849 43.0676 8.85804 42.8444 9.19471 42.4863C9.5392 42.1398 9.75255 41.6622 9.75255 41.1357C9.75255 41.1279 9.75255 41.12 9.75255 41.1141V41.1161C9.75255 41.1004 9.75255 41.0809 9.75255 41.0633C9.75255 40.5387 9.5392 40.063 9.19471 39.7205C8.85217 39.376 8.37653 39.1627 7.85196 39.1627C7.83435 39.1627 7.81477 39.1627 7.79716 39.1627H4.44813C4.44226 39.1627 4.43443 39.1627 4.4266 39.1627C3.90007 39.1627 3.42248 39.376 3.07602 39.7205C2.71783 40.0591 2.49469 40.5387 2.49469 41.0691V41.1181V41.1161V41.1298C2.49469 41.6642 2.71783 42.1457 3.07407 42.4882C3.4166 42.8464 3.89811 43.0695 4.43247 43.0695H4.44617L7.80107 43.0676ZM29.8937 44.1363C29.88 44.1363 29.8624 44.1363 29.8448 44.1363C29.0246 44.1363 28.2848 43.7977 27.7543 43.2535C27.2082 42.7231 26.8716 41.9832 26.8716 41.1631C26.8716 41.1455 26.8716 41.1279 26.8716 41.1122C26.8716 41.0985 26.8716 41.0828 26.8716 41.0652C26.8716 40.2451 27.2102 39.5052 27.7543 38.9748C28.2848 38.4287 29.0246 38.092 29.8448 38.092H29.8957H29.8937H34.0785L33.3798 39.1607H29.9348C29.9289 39.1607 29.9211 39.1607 29.9133 39.1607C29.3868 39.1607 28.9092 39.3741 28.5627 39.7186C28.2045 40.0572 27.9814 40.5367 27.9814 41.0672V41.1161V41.1141V41.1278C27.9814 41.6622 28.2045 42.1437 28.5608 42.4863C28.9033 42.8444 29.3848 43.0676 29.9192 43.0676H29.9329H34.1607L33.462 44.1363H29.8937ZM44.0786 43.0676C44.0747 43.0676 44.0689 43.0676 44.063 43.0676C43.6245 43.0676 43.2233 42.909 42.9121 42.6468L42.914 42.6487C42.5891 42.3884 42.3464 42.0419 42.2192 41.6407L42.2152 41.625H47.1908L47.8426 40.5563H42.2152C42.3425 40.1492 42.5832 39.8106 42.9023 39.5659L42.9062 39.562C43.2174 39.3153 43.6167 39.1666 44.0493 39.1666H44.0708H47.5138L48.2126 38.0979H44.0278C44.0141 38.0979 43.9964 38.0979 43.9788 38.0979C43.1587 38.0979 42.4188 38.4365 41.8884 38.9806C41.3423 39.5111 41.0056 40.251 41.0056 41.0711V41.122V41.12V41.169C41.0056 41.9891 41.3442 42.729 41.8884 43.2594C42.4188 43.8055 43.1587 44.1422 43.9788 44.1422H44.0297H47.6038L48.3026 43.0735L44.0786 43.0676Z" fill="#65DA01"/>
</svg>
