<svg width="40" height="44" viewBox="0 0 40 44" fill="none" xmlns="http://www.w3.org/2000/svg">
<path d="M35.0573 4.38217H25.8986C24.9783 1.84051 22.5682 0 19.7197 0C16.8713 0 14.4612 1.84051 13.5409 4.38217H4.38217C1.97197 4.38217 0 6.35414 0 8.76433V39.4395C0 41.8497 1.97197 43.8217 4.38217 43.8217H35.0573C37.4675 43.8217 39.4395 41.8497 39.4395 39.4395V8.76433C39.4395 6.35414 37.4675 4.38217 35.0573 4.38217ZM19.7197 4.38217C20.9248 4.38217 21.9108 5.36815 21.9108 6.57325C21.9108 7.77835 20.9248 8.76433 19.7197 8.76433C18.5147 8.76433 17.5287 7.77835 17.5287 6.57325C17.5287 5.36815 18.5147 4.38217 19.7197 4.38217ZM19.7197 13.1465C23.3569 13.1465 26.293 16.0826 26.293 19.7198C26.293 23.3569 23.3569 26.293 19.7197 26.293C16.0826 26.293 13.1465 23.3569 13.1465 19.7198C13.1465 16.0826 16.0826 13.1465 19.7197 13.1465ZM32.8662 39.4395H6.57325V36.372C6.57325 31.9898 15.3376 29.5796 19.7197 29.5796C24.1019 29.5796 32.8662 31.9898 32.8662 36.372V39.4395Z" fill="#65DA01"/>
</svg>
