<svg width="297" height="52" viewBox="0 0 297 52" fill="none" xmlns="http://www.w3.org/2000/svg">
<path d="M8 52H274.5L297 39.9688V8H278V10.75H253V8H28.5L8 20.375V52Z" fill="#735AA9"/>
<path d="M292 1H271V3.75H248V1H22.2217L21.9834 1.14355L1.4834 13.5186L1 13.8105V47H268.751L268.972 46.8818L291.472 34.8506L292 34.5684V1Z" fill="url(#paint0_linear_4326_154)" stroke="url(#paint1_linear_4326_154)" stroke-width="2"/>
<path d="M41.177 30C41.0863 30 41.024 29.9603 40.99 29.881L38.61 24.798C38.5987 24.764 38.576 24.747 38.542 24.747H36.094C36.0487 24.747 36.026 24.7697 36.026 24.815V29.83C36.026 29.9433 35.9693 30 35.856 30H34.564C34.4507 30 34.394 29.9433 34.394 29.83V18.27C34.394 18.1567 34.4507 18.1 34.564 18.1H39.137C39.817 18.1 40.412 18.2417 40.922 18.525C41.4433 18.8083 41.8457 19.205 42.129 19.715C42.4123 20.225 42.554 20.8143 42.554 21.483C42.554 22.2763 42.3443 22.9507 41.925 23.506C41.517 24.05 40.9447 24.4183 40.208 24.611C40.1627 24.6337 40.1513 24.662 40.174 24.696L42.639 29.796C42.6503 29.8187 42.656 29.847 42.656 29.881C42.656 29.9603 42.6107 30 42.52 30H41.177ZM36.094 19.511C36.0487 19.511 36.026 19.5337 36.026 19.579V23.387C36.026 23.4323 36.0487 23.455 36.094 23.455H38.933C39.5337 23.455 40.0153 23.2793 40.378 22.928C40.7407 22.5653 40.922 22.0893 40.922 21.5C40.922 20.8993 40.7407 20.4177 40.378 20.055C40.0153 19.6923 39.5337 19.511 38.933 19.511H36.094ZM51.5534 24.594C51.5987 25.0587 51.6157 25.58 51.6044 26.158C51.6044 26.2713 51.5477 26.328 51.4344 26.328H46.0114C45.966 26.328 45.9434 26.3507 45.9434 26.396C45.9434 26.7813 45.9774 27.076 46.0454 27.28C46.17 27.7333 46.4194 28.0903 46.7934 28.351C47.1787 28.6003 47.6604 28.725 48.2384 28.725C49.077 28.725 49.723 28.3793 50.1764 27.688C50.233 27.5747 50.3067 27.5577 50.3974 27.637L51.3664 28.283C51.4457 28.351 51.4627 28.4247 51.4174 28.504C51.1 29.014 50.6467 29.4163 50.0574 29.711C49.4794 30.0057 48.822 30.153 48.0854 30.153C47.258 30.153 46.561 29.9717 45.9944 29.609C45.4277 29.2463 45.0027 28.7307 44.7194 28.062C44.4474 27.3933 44.3114 26.583 44.3114 25.631C44.3114 24.8037 44.3737 24.1747 44.4984 23.744C44.7024 22.962 45.1104 22.3443 45.7224 21.891C46.3344 21.4377 47.0767 21.211 47.9494 21.211C49.094 21.211 49.9497 21.5 50.5164 22.078C51.083 22.6447 51.4287 23.4833 51.5534 24.594ZM47.9494 22.622C47.462 22.622 47.0597 22.7467 46.7424 22.996C46.425 23.234 46.2097 23.557 46.0964 23.965C46.017 24.2143 45.966 24.5317 45.9434 24.917C45.9434 24.9623 45.966 24.985 46.0114 24.985H49.9044C49.9497 24.985 49.9724 24.9623 49.9724 24.917C49.9497 24.543 49.9157 24.2653 49.8704 24.084C49.757 23.642 49.5304 23.2907 49.1904 23.03C48.8617 22.758 48.448 22.622 47.9494 22.622ZM59.0356 21.517C59.0356 21.4037 59.0923 21.347 59.2056 21.347H60.4976C60.611 21.347 60.6676 21.4037 60.6676 21.517V33.077C60.6676 33.1903 60.611 33.247 60.4976 33.247H59.2056C59.0923 33.247 59.0356 33.1903 59.0356 33.077V29.286C59.0356 29.2633 59.0243 29.2463 59.0016 29.235C58.9903 29.2237 58.9733 29.2293 58.9506 29.252C58.7013 29.5353 58.401 29.7563 58.0496 29.915C57.7096 30.0623 57.347 30.136 56.9616 30.136C56.1116 30.136 55.4146 29.932 54.8706 29.524C54.3266 29.1047 53.9356 28.5153 53.6976 27.756C53.5163 27.178 53.4256 26.4923 53.4256 25.699C53.4256 24.8603 53.5333 24.135 53.7486 23.523C53.998 22.7863 54.389 22.2197 54.9216 21.823C55.4656 21.415 56.1456 21.211 56.9616 21.211C57.3583 21.211 57.7266 21.2903 58.0666 21.449C58.4066 21.6077 58.7013 21.8287 58.9506 22.112C58.9733 22.1347 58.9903 22.1403 59.0016 22.129C59.0243 22.1177 59.0356 22.1007 59.0356 22.078V21.517ZM58.5766 27.858C58.86 27.3707 59.0016 26.6453 59.0016 25.682C59.0016 24.73 58.8713 24.016 58.6106 23.54C58.2706 22.928 57.772 22.622 57.1146 22.622C56.3666 22.622 55.8283 22.9337 55.4996 23.557C55.2163 24.0897 55.0746 24.7923 55.0746 25.665C55.0746 26.617 55.256 27.365 55.6186 27.909C55.9473 28.453 56.4516 28.725 57.1316 28.725C57.7663 28.725 58.248 28.436 58.5766 27.858ZM68.2941 21.517C68.2941 21.4037 68.3508 21.347 68.4641 21.347H69.7391C69.8525 21.347 69.9091 21.4037 69.9091 21.517V29.83C69.9091 29.9433 69.8525 30 69.7391 30H68.4641C68.3508 30 68.2941 29.9433 68.2941 29.83V29.201C68.2941 29.1783 68.2828 29.167 68.2601 29.167C68.2488 29.1557 68.2318 29.1613 68.2091 29.184C67.7558 29.8073 67.0588 30.119 66.1181 30.119C65.5628 30.119 65.0471 30.0113 64.5711 29.796C64.1065 29.5807 63.7325 29.2633 63.4491 28.844C63.1658 28.4247 63.0241 27.9147 63.0241 27.314V21.517C63.0241 21.4037 63.0808 21.347 63.1941 21.347H64.4691C64.5825 21.347 64.6391 21.4037 64.6391 21.517V26.804C64.6391 27.3933 64.7921 27.858 65.0981 28.198C65.4155 28.538 65.8575 28.708 66.4241 28.708C66.9908 28.708 67.4441 28.538 67.7841 28.198C68.1241 27.8467 68.2941 27.382 68.2941 26.804V21.517ZM79.2946 24.594C79.3399 25.0587 79.3569 25.58 79.3456 26.158C79.3456 26.2713 79.2889 26.328 79.1756 26.328H73.7526C73.7073 26.328 73.6846 26.3507 73.6846 26.396C73.6846 26.7813 73.7186 27.076 73.7866 27.28C73.9113 27.7333 74.1606 28.0903 74.5346 28.351C74.9199 28.6003 75.4016 28.725 75.9796 28.725C76.8183 28.725 77.4643 28.3793 77.9176 27.688C77.9743 27.5747 78.0479 27.5577 78.1386 27.637L79.1076 28.283C79.1869 28.351 79.2039 28.4247 79.1586 28.504C78.8413 29.014 78.3879 29.4163 77.7986 29.711C77.2206 30.0057 76.5633 30.153 75.8266 30.153C74.9993 30.153 74.3023 29.9717 73.7356 29.609C73.1689 29.2463 72.7439 28.7307 72.4606 28.062C72.1886 27.3933 72.0526 26.583 72.0526 25.631C72.0526 24.8037 72.1149 24.1747 72.2396 23.744C72.4436 22.962 72.8516 22.3443 73.4636 21.891C74.0756 21.4377 74.8179 21.211 75.6906 21.211C76.8353 21.211 77.6909 21.5 78.2576 22.078C78.8243 22.6447 79.1699 23.4833 79.2946 24.594ZM75.6906 22.622C75.2033 22.622 74.8009 22.7467 74.4836 22.996C74.1663 23.234 73.9509 23.557 73.8376 23.965C73.7583 24.2143 73.7073 24.5317 73.6846 24.917C73.6846 24.9623 73.7073 24.985 73.7526 24.985H77.6456C77.6909 24.985 77.7136 24.9623 77.7136 24.917C77.6909 24.543 77.6569 24.2653 77.6116 24.084C77.4983 23.642 77.2716 23.2907 76.9316 23.03C76.6029 22.758 76.1893 22.622 75.6906 22.622ZM84.315 30.102C83.635 30.102 83.0344 30 82.513 29.796C82.003 29.592 81.6064 29.3143 81.323 28.963C81.0397 28.6003 80.898 28.2037 80.898 27.773V27.586C80.898 27.4727 80.9547 27.416 81.068 27.416H82.292C82.4054 27.416 82.462 27.4727 82.462 27.586V27.671C82.462 27.9883 82.632 28.266 82.972 28.504C83.3234 28.742 83.7654 28.861 84.298 28.861C84.808 28.861 85.2217 28.7533 85.539 28.538C85.8564 28.3113 86.015 28.028 86.015 27.688C86.015 27.3593 85.8677 27.1157 85.573 26.957C85.2784 26.787 84.8024 26.6113 84.145 26.43C83.499 26.2487 82.955 26.0673 82.513 25.886C82.0824 25.6933 81.714 25.427 81.408 25.087C81.1134 24.7357 80.966 24.288 80.966 23.744C80.966 22.9847 81.2607 22.384 81.85 21.942C82.4507 21.4887 83.244 21.262 84.23 21.262C84.8874 21.262 85.4654 21.3697 85.964 21.585C86.474 21.789 86.865 22.078 87.137 22.452C87.409 22.826 87.545 23.2453 87.545 23.71V23.761C87.545 23.8743 87.4884 23.931 87.375 23.931H86.185C86.0717 23.931 86.015 23.8743 86.015 23.761V23.71C86.015 23.3813 85.8507 23.1093 85.522 22.894C85.2047 22.6673 84.7684 22.554 84.213 22.554C83.7144 22.554 83.3064 22.6503 82.989 22.843C82.683 23.0357 82.53 23.2963 82.53 23.625C82.53 23.9537 82.6774 24.203 82.972 24.373C83.278 24.543 83.7654 24.7243 84.434 24.917C85.0914 25.0983 85.6354 25.2797 86.066 25.461C86.508 25.631 86.882 25.8917 87.188 26.243C87.494 26.583 87.647 27.0307 87.647 27.586C87.647 28.3567 87.341 28.9687 86.729 29.422C86.1284 29.8753 85.3237 30.102 84.315 30.102ZM93.8066 22.52C93.8066 22.6333 93.7499 22.69 93.6366 22.69H91.8006C91.7553 22.69 91.7326 22.7127 91.7326 22.758V27.263C91.7326 27.739 91.8403 28.0847 92.0556 28.3C92.2709 28.504 92.6053 28.606 93.0586 28.606H93.5516C93.6649 28.606 93.7216 28.6627 93.7216 28.776V29.83C93.7216 29.9433 93.6649 30 93.5516 30C93.1889 30.0227 92.9283 30.034 92.7696 30.034C91.9083 30.034 91.2566 29.881 90.8146 29.575C90.3839 29.2577 90.1686 28.6797 90.1686 27.841V22.758C90.1686 22.7127 90.1459 22.69 90.1006 22.69H89.0636C88.9503 22.69 88.8936 22.6333 88.8936 22.52V21.517C88.8936 21.4037 88.9503 21.347 89.0636 21.347H90.1006C90.1459 21.347 90.1686 21.3243 90.1686 21.279V19.273C90.1686 19.1597 90.2253 19.103 90.3386 19.103H91.5626C91.6759 19.103 91.7326 19.1597 91.7326 19.273V21.279C91.7326 21.3243 91.7553 21.347 91.8006 21.347H93.6366C93.7499 21.347 93.8066 21.4037 93.8066 21.517V22.52ZM106.498 30.136C105.625 30.136 104.866 30 104.22 29.728C103.585 29.456 103.092 29.0707 102.741 28.572C102.401 28.0733 102.231 27.4897 102.231 26.821V26.328C102.231 26.2147 102.287 26.158 102.401 26.158H103.642C103.755 26.158 103.812 26.2147 103.812 26.328V26.736C103.812 27.314 104.061 27.79 104.56 28.164C105.058 28.538 105.744 28.725 106.617 28.725C107.399 28.725 107.988 28.5607 108.385 28.232C108.781 27.9033 108.98 27.4727 108.98 26.94C108.98 26.5887 108.878 26.2883 108.674 26.039C108.47 25.7897 108.169 25.563 107.773 25.359C107.387 25.1437 106.821 24.8887 106.073 24.594C105.245 24.2767 104.588 23.9877 104.101 23.727C103.625 23.4663 103.228 23.1263 102.911 22.707C102.593 22.2763 102.435 21.738 102.435 21.092C102.435 20.1173 102.78 19.3523 103.472 18.797C104.174 18.2417 105.121 17.964 106.311 17.964C107.149 17.964 107.886 18.1057 108.521 18.389C109.155 18.6723 109.643 19.069 109.983 19.579C110.334 20.089 110.51 20.6783 110.51 21.347V21.687C110.51 21.8003 110.453 21.857 110.34 21.857H109.065C108.951 21.857 108.895 21.8003 108.895 21.687V21.432C108.895 20.8427 108.657 20.3553 108.181 19.97C107.716 19.5733 107.07 19.375 106.243 19.375C105.54 19.375 104.996 19.5223 104.611 19.817C104.225 20.1003 104.033 20.514 104.033 21.058C104.033 21.432 104.129 21.738 104.322 21.976C104.514 22.214 104.798 22.4293 105.172 22.622C105.557 22.8033 106.141 23.0413 106.923 23.336C107.727 23.6533 108.379 23.948 108.878 24.22C109.376 24.4807 109.79 24.832 110.119 25.274C110.447 25.7047 110.612 26.243 110.612 26.889C110.612 27.8863 110.243 28.6797 109.507 29.269C108.781 29.847 107.778 30.136 106.498 30.136ZM121.609 21.228C122.47 21.228 123.15 21.4887 123.649 22.01C124.147 22.52 124.397 23.234 124.397 24.152V29.83C124.397 29.9433 124.34 30 124.227 30H122.952C122.838 30 122.782 29.9433 122.782 29.83V24.492C122.782 23.9253 122.623 23.4777 122.306 23.149C122 22.809 121.586 22.639 121.065 22.639C120.543 22.639 120.118 22.8033 119.79 23.132C119.461 23.4607 119.297 23.9027 119.297 24.458V29.83C119.297 29.9433 119.24 30 119.127 30H117.852C117.738 30 117.682 29.9433 117.682 29.83V24.492C117.682 23.9253 117.523 23.4777 117.206 23.149C116.9 22.809 116.486 22.639 115.965 22.639C115.443 22.639 115.024 22.8033 114.707 23.132C114.401 23.4607 114.248 23.9027 114.248 24.458V29.83C114.248 29.9433 114.191 30 114.078 30H112.786C112.672 30 112.616 29.9433 112.616 29.83V21.517C112.616 21.4037 112.672 21.347 112.786 21.347H114.078C114.191 21.347 114.248 21.4037 114.248 21.517V22.095C114.248 22.1177 114.253 22.1347 114.265 22.146C114.287 22.1573 114.31 22.1517 114.333 22.129C114.831 21.5283 115.557 21.228 116.509 21.228C117.087 21.228 117.58 21.3413 117.988 21.568C118.396 21.7833 118.713 22.1063 118.94 22.537C118.974 22.5823 119.008 22.5823 119.042 22.537C119.314 22.095 119.671 21.7663 120.113 21.551C120.566 21.3357 121.065 21.228 121.609 21.228ZM129.823 21.211C130.514 21.211 131.115 21.3357 131.625 21.585C132.146 21.823 132.543 22.163 132.815 22.605C133.098 23.0357 133.24 23.5287 133.24 24.084V29.83C133.24 29.9433 133.183 30 133.07 30H131.778C131.664 30 131.608 29.9433 131.608 29.83V29.218C131.608 29.1613 131.579 29.15 131.523 29.184C131.228 29.49 130.865 29.728 130.435 29.898C130.015 30.0567 129.545 30.136 129.024 30.136C128.185 30.136 127.488 29.9263 126.933 29.507C126.389 29.0763 126.117 28.4303 126.117 27.569C126.117 26.685 126.423 25.9937 127.035 25.495C127.658 24.985 128.525 24.73 129.636 24.73H131.54C131.585 24.73 131.608 24.7073 131.608 24.662V24.203C131.608 23.7043 131.46 23.319 131.166 23.047C130.882 22.7637 130.446 22.622 129.857 22.622C129.381 22.622 128.99 22.7183 128.684 22.911C128.389 23.0923 128.208 23.3417 128.14 23.659C128.106 23.7723 128.038 23.8233 127.936 23.812L126.559 23.625C126.445 23.6023 126.394 23.557 126.406 23.489C126.496 22.8203 126.853 22.2763 127.477 21.857C128.1 21.4263 128.882 21.211 129.823 21.211ZM129.381 28.759C129.981 28.759 130.503 28.6003 130.945 28.283C131.387 27.9657 131.608 27.5633 131.608 27.076V26.073C131.608 26.0277 131.585 26.005 131.54 26.005H129.942C129.273 26.005 128.74 26.1353 128.344 26.396C127.947 26.6567 127.749 27.0193 127.749 27.484C127.749 27.9033 127.896 28.2207 128.191 28.436C128.497 28.6513 128.893 28.759 129.381 28.759ZM139.234 21.262C139.597 21.262 139.925 21.3357 140.22 21.483C140.299 21.517 140.328 21.585 140.305 21.687L140.033 22.962C140.022 23.064 139.954 23.098 139.829 23.064C139.636 22.9847 139.41 22.945 139.149 22.945L138.911 22.962C138.378 22.9847 137.936 23.1717 137.585 23.523C137.245 23.863 137.075 24.3107 137.075 24.866V29.83C137.075 29.9433 137.018 30 136.905 30H135.613C135.5 30 135.443 29.9433 135.443 29.83V21.517C135.443 21.4037 135.5 21.347 135.613 21.347H136.905C137.018 21.347 137.075 21.4037 137.075 21.517V22.418C137.075 22.452 137.081 22.4747 137.092 22.486C137.115 22.486 137.132 22.4747 137.143 22.452C137.653 21.6587 138.35 21.262 139.234 21.262ZM146.201 22.52C146.201 22.6333 146.144 22.69 146.031 22.69H144.195C144.15 22.69 144.127 22.7127 144.127 22.758V27.263C144.127 27.739 144.235 28.0847 144.45 28.3C144.665 28.504 145 28.606 145.453 28.606H145.946C146.059 28.606 146.116 28.6627 146.116 28.776V29.83C146.116 29.9433 146.059 30 145.946 30C145.583 30.0227 145.323 30.034 145.164 30.034C144.303 30.034 143.651 29.881 143.209 29.575C142.778 29.2577 142.563 28.6797 142.563 27.841V22.758C142.563 22.7127 142.54 22.69 142.495 22.69H141.458C141.345 22.69 141.288 22.6333 141.288 22.52V21.517C141.288 21.4037 141.345 21.347 141.458 21.347H142.495C142.54 21.347 142.563 21.3243 142.563 21.279V19.273C142.563 19.1597 142.62 19.103 142.733 19.103H143.957C144.07 19.103 144.127 19.1597 144.127 19.273V21.279C144.127 21.3243 144.15 21.347 144.195 21.347H146.031C146.144 21.347 146.201 21.4037 146.201 21.517V22.52ZM155.642 30.153C154.826 30.153 154.101 29.9943 153.466 29.677C152.843 29.3483 152.355 28.8893 152.004 28.3C151.664 27.6993 151.494 27.0137 151.494 26.243V21.84C151.494 21.0693 151.664 20.395 152.004 19.817C152.355 19.2277 152.843 18.7743 153.466 18.457C154.101 18.1283 154.826 17.964 155.642 17.964C156.458 17.964 157.178 18.1227 157.801 18.44C158.424 18.746 158.906 19.1823 159.246 19.749C159.597 20.3157 159.773 20.973 159.773 21.721V21.738C159.773 21.7947 159.756 21.84 159.722 21.874C159.688 21.908 159.648 21.925 159.603 21.925L158.311 21.993C158.198 21.993 158.141 21.942 158.141 21.84V21.789C158.141 21.0637 157.914 20.48 157.461 20.038C157.008 19.596 156.401 19.375 155.642 19.375C154.883 19.375 154.271 19.596 153.806 20.038C153.353 20.48 153.126 21.0637 153.126 21.789V26.311C153.126 27.0363 153.353 27.62 153.806 28.062C154.271 28.504 154.883 28.725 155.642 28.725C156.401 28.725 157.008 28.504 157.461 28.062C157.914 27.62 158.141 27.0363 158.141 26.311V26.277C158.141 26.175 158.198 26.124 158.311 26.124L159.603 26.192C159.716 26.192 159.773 26.2487 159.773 26.362C159.773 27.11 159.597 27.773 159.246 28.351C158.906 28.9177 158.424 29.3597 157.801 29.677C157.178 29.9943 156.458 30.153 155.642 30.153ZM165.458 30.136C164.62 30.136 163.889 29.9263 163.265 29.507C162.642 29.0763 162.206 28.4813 161.956 27.722C161.752 27.11 161.65 26.4187 161.65 25.648C161.65 24.8433 161.747 24.1633 161.939 23.608C162.189 22.86 162.625 22.2763 163.248 21.857C163.872 21.4263 164.614 21.211 165.475 21.211C166.291 21.211 167 21.4263 167.6 21.857C168.212 22.2763 168.649 22.8543 168.909 23.591C169.113 24.169 169.215 24.849 169.215 25.631C169.215 26.4243 169.113 27.1213 168.909 27.722C168.66 28.4813 168.229 29.0763 167.617 29.507C167.005 29.9263 166.286 30.136 165.458 30.136ZM165.458 28.725C165.912 28.725 166.308 28.6003 166.648 28.351C166.988 28.0903 167.232 27.7277 167.379 27.263C167.504 26.8323 167.566 26.2997 167.566 25.665C167.566 25.0303 167.51 24.5033 167.396 24.084C167.249 23.6193 167.005 23.2623 166.665 23.013C166.325 22.7523 165.912 22.622 165.424 22.622C164.96 22.622 164.557 22.7523 164.217 23.013C163.877 23.2623 163.634 23.6193 163.486 24.084C163.362 24.4807 163.299 25.0077 163.299 25.665C163.299 26.3223 163.362 26.855 163.486 27.263C163.622 27.7277 163.86 28.0903 164.2 28.351C164.552 28.6003 164.971 28.725 165.458 28.725ZM175.211 21.228C176.14 21.228 176.877 21.5 177.421 22.044C177.965 22.5767 178.237 23.302 178.237 24.22V29.83C178.237 29.9433 178.18 30 178.067 30H176.775C176.662 30 176.605 29.9433 176.605 29.83V24.543C176.605 23.9763 176.441 23.5173 176.112 23.166C175.783 22.8147 175.347 22.639 174.803 22.639C174.27 22.639 173.834 22.8147 173.494 23.166C173.154 23.5173 172.984 23.9707 172.984 24.526V29.83C172.984 29.9433 172.927 30 172.814 30H171.522C171.409 30 171.352 29.9433 171.352 29.83V21.517C171.352 21.4037 171.409 21.347 171.522 21.347H172.814C172.927 21.347 172.984 21.4037 172.984 21.517V22.129C172.984 22.1517 172.99 22.1687 173.001 22.18C173.024 22.1913 173.041 22.1857 173.052 22.163C173.539 21.5397 174.259 21.228 175.211 21.228ZM184.833 22.52C184.833 22.6333 184.776 22.69 184.663 22.69H182.827C182.782 22.69 182.759 22.7127 182.759 22.758V27.263C182.759 27.739 182.867 28.0847 183.082 28.3C183.297 28.504 183.632 28.606 184.085 28.606H184.578C184.691 28.606 184.748 28.6627 184.748 28.776V29.83C184.748 29.9433 184.691 30 184.578 30C184.215 30.0227 183.955 30.034 183.796 30.034C182.935 30.034 182.283 29.881 181.841 29.575C181.41 29.2577 181.195 28.6797 181.195 27.841V22.758C181.195 22.7127 181.172 22.69 181.127 22.69H180.09C179.977 22.69 179.92 22.6333 179.92 22.52V21.517C179.92 21.4037 179.977 21.347 180.09 21.347H181.127C181.172 21.347 181.195 21.3243 181.195 21.279V19.273C181.195 19.1597 181.252 19.103 181.365 19.103H182.589C182.702 19.103 182.759 19.1597 182.759 19.273V21.279C182.759 21.3243 182.782 21.347 182.827 21.347H184.663C184.776 21.347 184.833 21.4037 184.833 21.517V22.52ZM190.632 21.262C190.995 21.262 191.324 21.3357 191.618 21.483C191.698 21.517 191.726 21.585 191.703 21.687L191.431 22.962C191.42 23.064 191.352 23.098 191.227 23.064C191.035 22.9847 190.808 22.945 190.547 22.945L190.309 22.962C189.777 22.9847 189.335 23.1717 188.983 23.523C188.643 23.863 188.473 24.3107 188.473 24.866V29.83C188.473 29.9433 188.417 30 188.303 30H187.011C186.898 30 186.841 29.9433 186.841 29.83V21.517C186.841 21.4037 186.898 21.347 187.011 21.347H188.303C188.417 21.347 188.473 21.4037 188.473 21.517V22.418C188.473 22.452 188.479 22.4747 188.49 22.486C188.513 22.486 188.53 22.4747 188.541 22.452C189.051 21.6587 189.748 21.262 190.632 21.262ZM196.246 21.211C196.937 21.211 197.538 21.3357 198.048 21.585C198.569 21.823 198.966 22.163 199.238 22.605C199.521 23.0357 199.663 23.5287 199.663 24.084V29.83C199.663 29.9433 199.606 30 199.493 30H198.201C198.087 30 198.031 29.9433 198.031 29.83V29.218C198.031 29.1613 198.002 29.15 197.946 29.184C197.651 29.49 197.288 29.728 196.858 29.898C196.438 30.0567 195.968 30.136 195.447 30.136C194.608 30.136 193.911 29.9263 193.356 29.507C192.812 29.0763 192.54 28.4303 192.54 27.569C192.54 26.685 192.846 25.9937 193.458 25.495C194.081 24.985 194.948 24.73 196.059 24.73H197.963C198.008 24.73 198.031 24.7073 198.031 24.662V24.203C198.031 23.7043 197.883 23.319 197.589 23.047C197.305 22.7637 196.869 22.622 196.28 22.622C195.804 22.622 195.413 22.7183 195.107 22.911C194.812 23.0923 194.631 23.3417 194.563 23.659C194.529 23.7723 194.461 23.8233 194.359 23.812L192.982 23.625C192.868 23.6023 192.817 23.557 192.829 23.489C192.919 22.8203 193.276 22.2763 193.9 21.857C194.523 21.4263 195.305 21.211 196.246 21.211ZM195.804 28.759C196.404 28.759 196.926 28.6003 197.368 28.283C197.81 27.9657 198.031 27.5633 198.031 27.076V26.073C198.031 26.0277 198.008 26.005 197.963 26.005H196.365C195.696 26.005 195.163 26.1353 194.767 26.396C194.37 26.6567 194.172 27.0193 194.172 27.484C194.172 27.9033 194.319 28.2207 194.614 28.436C194.92 28.6513 195.316 28.759 195.804 28.759ZM205.334 30.136C204.472 30.136 203.736 29.9207 203.124 29.49C202.512 29.048 202.092 28.453 201.866 27.705C201.696 27.1837 201.611 26.498 201.611 25.648C201.611 24.866 201.696 24.1803 201.866 23.591C202.092 22.8657 202.512 22.2877 203.124 21.857C203.747 21.4263 204.484 21.211 205.334 21.211C206.184 21.211 206.926 21.4263 207.561 21.857C208.195 22.2877 208.609 22.8317 208.802 23.489C208.87 23.6703 208.915 23.8573 208.938 24.05C208.938 24.1407 208.887 24.1973 208.785 24.22L207.51 24.407H207.476C207.396 24.407 207.34 24.356 207.306 24.254L207.255 23.982C207.164 23.5967 206.943 23.2737 206.592 23.013C206.24 22.7523 205.815 22.622 205.317 22.622C204.829 22.622 204.416 22.7523 204.076 23.013C203.736 23.2737 203.515 23.6193 203.413 24.05C203.311 24.458 203.26 24.9963 203.26 25.665C203.26 26.3223 203.311 26.855 203.413 27.263C203.526 27.7163 203.747 28.0733 204.076 28.334C204.416 28.5947 204.829 28.725 205.317 28.725C205.815 28.725 206.24 28.5947 206.592 28.334C206.954 28.0733 207.181 27.7333 207.272 27.314C207.283 27.3027 207.283 27.2913 207.272 27.28C207.272 27.2573 207.277 27.2403 207.289 27.229V27.161C207.323 27.0703 207.385 27.0363 207.476 27.059L208.751 27.263C208.841 27.2857 208.887 27.331 208.887 27.399V27.467C208.887 27.569 208.858 27.6937 208.802 27.841C208.609 28.5323 208.195 29.0877 207.561 29.507C206.926 29.9263 206.184 30.136 205.334 30.136ZM215.081 22.52C215.081 22.6333 215.024 22.69 214.911 22.69H213.075C213.03 22.69 213.007 22.7127 213.007 22.758V27.263C213.007 27.739 213.115 28.0847 213.33 28.3C213.545 28.504 213.88 28.606 214.333 28.606H214.826C214.939 28.606 214.996 28.6627 214.996 28.776V29.83C214.996 29.9433 214.939 30 214.826 30C214.463 30.0227 214.203 30.034 214.044 30.034C213.183 30.034 212.531 29.881 212.089 29.575C211.658 29.2577 211.443 28.6797 211.443 27.841V22.758C211.443 22.7127 211.42 22.69 211.375 22.69H210.338C210.225 22.69 210.168 22.6333 210.168 22.52V21.517C210.168 21.4037 210.225 21.347 210.338 21.347H211.375C211.42 21.347 211.443 21.3243 211.443 21.279V19.273C211.443 19.1597 211.5 19.103 211.613 19.103H212.837C212.95 19.103 213.007 19.1597 213.007 19.273V21.279C213.007 21.3243 213.03 21.347 213.075 21.347H214.911C215.024 21.347 215.081 21.4037 215.081 21.517V22.52ZM227.922 30C227.82 30 227.752 29.9547 227.718 29.864L227.106 27.875C227.094 27.841 227.072 27.824 227.038 27.824H222.261C222.227 27.824 222.204 27.841 222.193 27.875L221.581 29.864C221.547 29.9547 221.479 30 221.377 30H220C219.875 30 219.83 29.9377 219.864 29.813L223.587 18.236C223.621 18.1453 223.689 18.1 223.791 18.1H225.491C225.593 18.1 225.661 18.1453 225.695 18.236L229.452 29.813L229.469 29.881C229.469 29.9603 229.418 30 229.316 30H227.922ZM222.618 26.447C222.606 26.4697 222.606 26.4923 222.618 26.515C222.64 26.5263 222.663 26.532 222.686 26.532H226.596C226.618 26.532 226.635 26.5263 226.647 26.515C226.669 26.4923 226.675 26.4697 226.664 26.447L224.692 20.14C224.68 20.1173 224.663 20.106 224.641 20.106C224.618 20.106 224.601 20.1173 224.59 20.14L222.618 26.447ZM236.352 21.517C236.352 21.4037 236.408 21.347 236.522 21.347H237.797C237.91 21.347 237.967 21.4037 237.967 21.517V29.83C237.967 29.9433 237.91 30 237.797 30H236.522C236.408 30 236.352 29.9433 236.352 29.83V29.201C236.352 29.1783 236.34 29.167 236.318 29.167C236.306 29.1557 236.289 29.1613 236.267 29.184C235.813 29.8073 235.116 30.119 234.176 30.119C233.62 30.119 233.105 30.0113 232.629 29.796C232.164 29.5807 231.79 29.2633 231.507 28.844C231.223 28.4247 231.082 27.9147 231.082 27.314V21.517C231.082 21.4037 231.138 21.347 231.252 21.347H232.527C232.64 21.347 232.697 21.4037 232.697 21.517V26.804C232.697 27.3933 232.85 27.858 233.156 28.198C233.473 28.538 233.915 28.708 234.482 28.708C235.048 28.708 235.502 28.538 235.842 28.198C236.182 27.8467 236.352 27.382 236.352 26.804V21.517ZM245.72 18.27C245.72 18.1567 245.777 18.1 245.89 18.1H247.182C247.296 18.1 247.352 18.1567 247.352 18.27V29.83C247.352 29.9433 247.296 30 247.182 30H245.89C245.777 30 245.72 29.9433 245.72 29.83V29.269C245.72 29.2463 245.709 29.2293 245.686 29.218C245.675 29.2067 245.658 29.2123 245.635 29.235C245.386 29.5183 245.091 29.7393 244.751 29.898C244.411 30.0567 244.043 30.136 243.646 30.136C242.83 30.136 242.15 29.9377 241.606 29.541C241.074 29.133 240.683 28.5607 240.433 27.824C240.218 27.2233 240.11 26.498 240.11 25.648C240.11 24.8547 240.201 24.169 240.382 23.591C240.62 22.843 241.011 22.2593 241.555 21.84C242.099 21.4207 242.796 21.211 243.646 21.211C244.032 21.211 244.394 21.2903 244.734 21.449C245.086 21.5963 245.386 21.8117 245.635 22.095C245.658 22.1177 245.675 22.1233 245.686 22.112C245.709 22.1007 245.72 22.0837 245.72 22.061V18.27ZM245.295 27.807C245.556 27.331 245.686 26.617 245.686 25.665C245.686 24.713 245.545 23.9877 245.261 23.489C244.933 22.911 244.451 22.622 243.816 22.622C243.136 22.622 242.632 22.894 242.303 23.438C241.941 24.0047 241.759 24.7527 241.759 25.682C241.759 26.5547 241.901 27.2573 242.184 27.79C242.513 28.4133 243.051 28.725 243.799 28.725C244.457 28.725 244.955 28.419 245.295 27.807ZM250.731 19.987C250.413 19.987 250.153 19.885 249.949 19.681C249.745 19.477 249.643 19.2163 249.643 18.899C249.643 18.5817 249.745 18.321 249.949 18.117C250.153 17.913 250.413 17.811 250.731 17.811C251.048 17.811 251.309 17.913 251.513 18.117C251.717 18.321 251.819 18.5817 251.819 18.899C251.819 19.2163 251.717 19.477 251.513 19.681C251.309 19.885 251.048 19.987 250.731 19.987ZM250.051 29.983C249.937 29.983 249.881 29.9263 249.881 29.813V21.517C249.881 21.4037 249.937 21.347 250.051 21.347H251.343C251.456 21.347 251.513 21.4037 251.513 21.517V29.813C251.513 29.9263 251.456 29.983 251.343 29.983H250.051ZM258.345 22.52C258.345 22.6333 258.288 22.69 258.175 22.69H256.339C256.293 22.69 256.271 22.7127 256.271 22.758V27.263C256.271 27.739 256.378 28.0847 256.594 28.3C256.809 28.504 257.143 28.606 257.597 28.606H258.09C258.203 28.606 258.26 28.6627 258.26 28.776V29.83C258.26 29.9433 258.203 30 258.09 30C257.727 30.0227 257.466 30.034 257.308 30.034C256.446 30.034 255.795 29.881 255.353 29.575C254.922 29.2577 254.707 28.6797 254.707 27.841V22.758C254.707 22.7127 254.684 22.69 254.639 22.69H253.602C253.488 22.69 253.432 22.6333 253.432 22.52V21.517C253.432 21.4037 253.488 21.347 253.602 21.347H254.639C254.684 21.347 254.707 21.3243 254.707 21.279V19.273C254.707 19.1597 254.763 19.103 254.877 19.103H256.101C256.214 19.103 256.271 19.1597 256.271 19.273V21.279C256.271 21.3243 256.293 21.347 256.339 21.347H258.175C258.288 21.347 258.345 21.4037 258.345 21.517V22.52Z" fill="#0D0128"/>
<defs>
<linearGradient id="paint0_linear_4326_154" x1="291" y1="24" x2="2" y2="24" gradientUnits="userSpaceOnUse">
<stop stop-color="#AA83FF"/>
<stop offset="1" stop-color="#D0FFCC"/>
</linearGradient>
<linearGradient id="paint1_linear_4326_154" x1="291" y1="24" x2="2" y2="24" gradientUnits="userSpaceOnUse">
<stop stop-color="#C7ADFF"/>
<stop offset="1" stop-color="#776899" stop-opacity="0"/>
</linearGradient>
</defs>
</svg>
