<svg width="297" height="52" viewBox="0 0 297 52" fill="none" xmlns="http://www.w3.org/2000/svg">
<path d="M8 52H274.5L297 39.9688V8H278V10.75H253V8H28.5L8 20.375V52Z" fill="#735AA9"/>
<path d="M292 1H271V3.75H248V1H22.2217L21.9834 1.14355L1.4834 13.5186L1 13.8105V47H268.751L268.972 46.8818L291.472 34.8506L292 34.5684V1Z" fill="url(#paint0_linear_4427_4138)" stroke="url(#paint1_linear_4427_4138)" stroke-width="2"/>
<path d="M67.177 31C67.0863 31 67.024 30.9603 66.99 30.881L64.61 25.798C64.5987 25.764 64.576 25.747 64.542 25.747H62.094C62.0487 25.747 62.026 25.7697 62.026 25.815V30.83C62.026 30.9433 61.9693 31 61.856 31H60.564C60.4507 31 60.394 30.9433 60.394 30.83V19.27C60.394 19.1567 60.4507 19.1 60.564 19.1H65.137C65.817 19.1 66.412 19.2417 66.922 19.525C67.4433 19.8083 67.8457 20.205 68.129 20.715C68.4123 21.225 68.554 21.8143 68.554 22.483C68.554 23.2763 68.3443 23.9507 67.925 24.506C67.517 25.05 66.9447 25.4183 66.208 25.611C66.1627 25.6337 66.1513 25.662 66.174 25.696L68.639 30.796C68.6503 30.8187 68.656 30.847 68.656 30.881C68.656 30.9603 68.6107 31 68.52 31H67.177ZM62.094 20.511C62.0487 20.511 62.026 20.5337 62.026 20.579V24.387C62.026 24.4323 62.0487 24.455 62.094 24.455H64.933C65.5337 24.455 66.0153 24.2793 66.378 23.928C66.7407 23.5653 66.922 23.0893 66.922 22.5C66.922 21.8993 66.7407 21.4177 66.378 21.055C66.0153 20.6923 65.5337 20.511 64.933 20.511H62.094ZM77.5534 25.594C77.5987 26.0587 77.6157 26.58 77.6044 27.158C77.6044 27.2713 77.5477 27.328 77.4344 27.328H72.0114C71.966 27.328 71.9434 27.3507 71.9434 27.396C71.9434 27.7813 71.9774 28.076 72.0454 28.28C72.17 28.7333 72.4194 29.0903 72.7934 29.351C73.1787 29.6003 73.6604 29.725 74.2384 29.725C75.077 29.725 75.723 29.3793 76.1764 28.688C76.233 28.5747 76.3067 28.5577 76.3974 28.637L77.3664 29.283C77.4457 29.351 77.4627 29.4247 77.4174 29.504C77.1 30.014 76.6467 30.4163 76.0574 30.711C75.4794 31.0057 74.822 31.153 74.0854 31.153C73.258 31.153 72.561 30.9717 71.9944 30.609C71.4277 30.2463 71.0027 29.7307 70.7194 29.062C70.4474 28.3933 70.3114 27.583 70.3114 26.631C70.3114 25.8037 70.3737 25.1747 70.4984 24.744C70.7024 23.962 71.1104 23.3443 71.7224 22.891C72.3344 22.4377 73.0767 22.211 73.9494 22.211C75.094 22.211 75.9497 22.5 76.5164 23.078C77.083 23.6447 77.4287 24.4833 77.5534 25.594ZM73.9494 23.622C73.462 23.622 73.0597 23.7467 72.7424 23.996C72.425 24.234 72.2097 24.557 72.0964 24.965C72.017 25.2143 71.966 25.5317 71.9434 25.917C71.9434 25.9623 71.966 25.985 72.0114 25.985H75.9044C75.9497 25.985 75.9724 25.9623 75.9724 25.917C75.9497 25.543 75.9157 25.2653 75.8704 25.084C75.757 24.642 75.5304 24.2907 75.1904 24.03C74.8617 23.758 74.448 23.622 73.9494 23.622ZM85.0356 22.517C85.0356 22.4037 85.0923 22.347 85.2056 22.347H86.4976C86.611 22.347 86.6676 22.4037 86.6676 22.517V34.077C86.6676 34.1903 86.611 34.247 86.4976 34.247H85.2056C85.0923 34.247 85.0356 34.1903 85.0356 34.077V30.286C85.0356 30.2633 85.0243 30.2463 85.0016 30.235C84.9903 30.2237 84.9733 30.2293 84.9506 30.252C84.7013 30.5353 84.401 30.7563 84.0496 30.915C83.7096 31.0623 83.347 31.136 82.9616 31.136C82.1116 31.136 81.4146 30.932 80.8706 30.524C80.3266 30.1047 79.9356 29.5153 79.6976 28.756C79.5163 28.178 79.4256 27.4923 79.4256 26.699C79.4256 25.8603 79.5333 25.135 79.7486 24.523C79.998 23.7863 80.389 23.2197 80.9216 22.823C81.4656 22.415 82.1456 22.211 82.9616 22.211C83.3583 22.211 83.7266 22.2903 84.0666 22.449C84.4066 22.6077 84.7013 22.8287 84.9506 23.112C84.9733 23.1347 84.9903 23.1403 85.0016 23.129C85.0243 23.1177 85.0356 23.1007 85.0356 23.078V22.517ZM84.5766 28.858C84.86 28.3707 85.0016 27.6453 85.0016 26.682C85.0016 25.73 84.8713 25.016 84.6106 24.54C84.2706 23.928 83.772 23.622 83.1146 23.622C82.3666 23.622 81.8283 23.9337 81.4996 24.557C81.2163 25.0897 81.0746 25.7923 81.0746 26.665C81.0746 27.617 81.256 28.365 81.6186 28.909C81.9473 29.453 82.4516 29.725 83.1316 29.725C83.7663 29.725 84.248 29.436 84.5766 28.858ZM94.2941 22.517C94.2941 22.4037 94.3508 22.347 94.4641 22.347H95.7391C95.8525 22.347 95.9091 22.4037 95.9091 22.517V30.83C95.9091 30.9433 95.8525 31 95.7391 31H94.4641C94.3508 31 94.2941 30.9433 94.2941 30.83V30.201C94.2941 30.1783 94.2828 30.167 94.2601 30.167C94.2488 30.1557 94.2318 30.1613 94.2091 30.184C93.7558 30.8073 93.0588 31.119 92.1181 31.119C91.5628 31.119 91.0471 31.0113 90.5711 30.796C90.1065 30.5807 89.7325 30.2633 89.4491 29.844C89.1658 29.4247 89.0241 28.9147 89.0241 28.314V22.517C89.0241 22.4037 89.0808 22.347 89.1941 22.347H90.4691C90.5825 22.347 90.6391 22.4037 90.6391 22.517V27.804C90.6391 28.3933 90.7921 28.858 91.0981 29.198C91.4155 29.538 91.8575 29.708 92.4241 29.708C92.9908 29.708 93.4441 29.538 93.7841 29.198C94.1241 28.8467 94.2941 28.382 94.2941 27.804V22.517ZM105.295 25.594C105.34 26.0587 105.357 26.58 105.346 27.158C105.346 27.2713 105.289 27.328 105.176 27.328H99.7526C99.7073 27.328 99.6846 27.3507 99.6846 27.396C99.6846 27.7813 99.7186 28.076 99.7866 28.28C99.9113 28.7333 100.161 29.0903 100.535 29.351C100.92 29.6003 101.402 29.725 101.98 29.725C102.818 29.725 103.464 29.3793 103.918 28.688C103.974 28.5747 104.048 28.5577 104.139 28.637L105.108 29.283C105.187 29.351 105.204 29.4247 105.159 29.504C104.841 30.014 104.388 30.4163 103.799 30.711C103.221 31.0057 102.563 31.153 101.827 31.153C100.999 31.153 100.302 30.9717 99.7356 30.609C99.1689 30.2463 98.7439 29.7307 98.4606 29.062C98.1886 28.3933 98.0526 27.583 98.0526 26.631C98.0526 25.8037 98.1149 25.1747 98.2396 24.744C98.4436 23.962 98.8516 23.3443 99.4636 22.891C100.076 22.4377 100.818 22.211 101.691 22.211C102.835 22.211 103.691 22.5 104.258 23.078C104.824 23.6447 105.17 24.4833 105.295 25.594ZM101.691 23.622C101.203 23.622 100.801 23.7467 100.484 23.996C100.166 24.234 99.9509 24.557 99.8376 24.965C99.7583 25.2143 99.7073 25.5317 99.6846 25.917C99.6846 25.9623 99.7073 25.985 99.7526 25.985H103.646C103.691 25.985 103.714 25.9623 103.714 25.917C103.691 25.543 103.657 25.2653 103.612 25.084C103.498 24.642 103.272 24.2907 102.932 24.03C102.603 23.758 102.189 23.622 101.691 23.622ZM110.315 31.102C109.635 31.102 109.034 31 108.513 30.796C108.003 30.592 107.606 30.3143 107.323 29.963C107.04 29.6003 106.898 29.2037 106.898 28.773V28.586C106.898 28.4727 106.955 28.416 107.068 28.416H108.292C108.405 28.416 108.462 28.4727 108.462 28.586V28.671C108.462 28.9883 108.632 29.266 108.972 29.504C109.323 29.742 109.765 29.861 110.298 29.861C110.808 29.861 111.222 29.7533 111.539 29.538C111.856 29.3113 112.015 29.028 112.015 28.688C112.015 28.3593 111.868 28.1157 111.573 27.957C111.278 27.787 110.802 27.6113 110.145 27.43C109.499 27.2487 108.955 27.0673 108.513 26.886C108.082 26.6933 107.714 26.427 107.408 26.087C107.113 25.7357 106.966 25.288 106.966 24.744C106.966 23.9847 107.261 23.384 107.85 22.942C108.451 22.4887 109.244 22.262 110.23 22.262C110.887 22.262 111.465 22.3697 111.964 22.585C112.474 22.789 112.865 23.078 113.137 23.452C113.409 23.826 113.545 24.2453 113.545 24.71V24.761C113.545 24.8743 113.488 24.931 113.375 24.931H112.185C112.072 24.931 112.015 24.8743 112.015 24.761V24.71C112.015 24.3813 111.851 24.1093 111.522 23.894C111.205 23.6673 110.768 23.554 110.213 23.554C109.714 23.554 109.306 23.6503 108.989 23.843C108.683 24.0357 108.53 24.2963 108.53 24.625C108.53 24.9537 108.677 25.203 108.972 25.373C109.278 25.543 109.765 25.7243 110.434 25.917C111.091 26.0983 111.635 26.2797 112.066 26.461C112.508 26.631 112.882 26.8917 113.188 27.243C113.494 27.583 113.647 28.0307 113.647 28.586C113.647 29.3567 113.341 29.9687 112.729 30.422C112.128 30.8753 111.324 31.102 110.315 31.102ZM119.807 23.52C119.807 23.6333 119.75 23.69 119.637 23.69H117.801C117.755 23.69 117.733 23.7127 117.733 23.758V28.263C117.733 28.739 117.84 29.0847 118.056 29.3C118.271 29.504 118.605 29.606 119.059 29.606H119.552C119.665 29.606 119.722 29.6627 119.722 29.776V30.83C119.722 30.9433 119.665 31 119.552 31C119.189 31.0227 118.928 31.034 118.77 31.034C117.908 31.034 117.257 30.881 116.815 30.575C116.384 30.2577 116.169 29.6797 116.169 28.841V23.758C116.169 23.7127 116.146 23.69 116.101 23.69H115.064C114.95 23.69 114.894 23.6333 114.894 23.52V22.517C114.894 22.4037 114.95 22.347 115.064 22.347H116.101C116.146 22.347 116.169 22.3243 116.169 22.279V20.273C116.169 20.1597 116.225 20.103 116.339 20.103H117.563C117.676 20.103 117.733 20.1597 117.733 20.273V22.279C117.733 22.3243 117.755 22.347 117.801 22.347H119.637C119.75 22.347 119.807 22.4037 119.807 22.517V23.52ZM127.853 31C127.751 31 127.689 30.9547 127.666 30.864L124.47 19.287L124.453 19.236C124.453 19.1453 124.51 19.1 124.623 19.1H126C126.102 19.1 126.165 19.151 126.187 19.253L128.414 27.719C128.426 27.7417 128.437 27.753 128.448 27.753C128.471 27.753 128.488 27.7417 128.499 27.719L130.607 19.253C130.63 19.151 130.692 19.1 130.794 19.1H132.137C132.239 19.1 132.302 19.151 132.324 19.253L134.551 27.736C134.563 27.7587 134.574 27.77 134.585 27.77C134.597 27.77 134.608 27.7587 134.619 27.736L136.863 19.253C136.886 19.151 136.948 19.1 137.05 19.1H138.342C138.399 19.1 138.439 19.117 138.461 19.151C138.495 19.185 138.507 19.2303 138.495 19.287L135.418 30.847C135.396 30.949 135.333 31 135.231 31H133.922C133.82 31 133.758 30.949 133.735 30.847L131.508 22.075C131.497 22.041 131.486 22.024 131.474 22.024C131.463 22.024 131.452 22.041 131.44 22.075L129.281 30.847C129.27 30.949 129.208 31 129.094 31H127.853ZM146.251 25.594C146.296 26.0587 146.313 26.58 146.302 27.158C146.302 27.2713 146.245 27.328 146.132 27.328H140.709C140.663 27.328 140.641 27.3507 140.641 27.396C140.641 27.7813 140.675 28.076 140.743 28.28C140.867 28.7333 141.117 29.0903 141.491 29.351C141.876 29.6003 142.358 29.725 142.936 29.725C143.774 29.725 144.42 29.3793 144.874 28.688C144.93 28.5747 145.004 28.5577 145.095 28.637L146.064 29.283C146.143 29.351 146.16 29.4247 146.115 29.504C145.797 30.014 145.344 30.4163 144.755 30.711C144.177 31.0057 143.519 31.153 142.783 31.153C141.955 31.153 141.258 30.9717 140.692 30.609C140.125 30.2463 139.7 29.7307 139.417 29.062C139.145 28.3933 139.009 27.583 139.009 26.631C139.009 25.8037 139.071 25.1747 139.196 24.744C139.4 23.962 139.808 23.3443 140.42 22.891C141.032 22.4377 141.774 22.211 142.647 22.211C143.791 22.211 144.647 22.5 145.214 23.078C145.78 23.6447 146.126 24.4833 146.251 25.594ZM142.647 23.622C142.159 23.622 141.757 23.7467 141.44 23.996C141.122 24.234 140.907 24.557 140.794 24.965C140.714 25.2143 140.663 25.5317 140.641 25.917C140.641 25.9623 140.663 25.985 140.709 25.985H144.602C144.647 25.985 144.67 25.9623 144.67 25.917C144.647 25.543 144.613 25.2653 144.568 25.084C144.454 24.642 144.228 24.2907 143.888 24.03C143.559 23.758 143.145 23.622 142.647 23.622ZM155.348 24.591C155.529 25.169 155.62 25.8547 155.62 26.648C155.62 27.498 155.512 28.2233 155.297 28.824C155.048 29.5607 154.651 30.133 154.107 30.541C153.574 30.9377 152.9 31.136 152.084 31.136C151.687 31.136 151.319 31.0567 150.979 30.898C150.639 30.7393 150.344 30.5183 150.095 30.235C150.072 30.2123 150.05 30.2067 150.027 30.218C150.016 30.2293 150.01 30.2463 150.01 30.269V30.83C150.01 30.9433 149.953 31 149.84 31H148.548C148.435 31 148.378 30.9433 148.378 30.83V19.27C148.378 19.1567 148.435 19.1 148.548 19.1H149.84C149.953 19.1 150.01 19.1567 150.01 19.27V23.061C150.01 23.0837 150.016 23.1007 150.027 23.112C150.05 23.1233 150.072 23.1177 150.095 23.095C150.344 22.8117 150.639 22.5963 150.979 22.449C151.33 22.2903 151.699 22.211 152.084 22.211C152.934 22.211 153.631 22.4207 154.175 22.84C154.719 23.2593 155.11 23.843 155.348 24.591ZM153.546 28.79C153.829 28.2573 153.971 27.5547 153.971 26.682C153.971 25.7527 153.79 25.0047 153.427 24.438C153.098 23.894 152.594 23.622 151.914 23.622C151.279 23.622 150.798 23.911 150.469 24.489C150.174 25.0103 150.027 25.7357 150.027 26.665C150.027 27.5943 150.163 28.3083 150.435 28.807C150.775 29.419 151.274 29.725 151.931 29.725C152.679 29.725 153.217 29.4133 153.546 28.79ZM168.59 31C168.488 31 168.42 30.9547 168.386 30.864L167.774 28.875C167.762 28.841 167.74 28.824 167.706 28.824H162.929C162.895 28.824 162.872 28.841 162.861 28.875L162.249 30.864C162.215 30.9547 162.147 31 162.045 31H160.668C160.543 31 160.498 30.9377 160.532 30.813L164.255 19.236C164.289 19.1453 164.357 19.1 164.459 19.1H166.159C166.261 19.1 166.329 19.1453 166.363 19.236L170.12 30.813L170.137 30.881C170.137 30.9603 170.086 31 169.984 31H168.59ZM163.286 27.447C163.274 27.4697 163.274 27.4923 163.286 27.515C163.308 27.5263 163.331 27.532 163.354 27.532H167.264C167.286 27.532 167.303 27.5263 167.315 27.515C167.337 27.4923 167.343 27.4697 167.332 27.447L165.36 21.14C165.348 21.1173 165.331 21.106 165.309 21.106C165.286 21.106 165.269 21.1173 165.258 21.14L163.286 27.447ZM178.89 24.523C179.105 25.135 179.213 25.8603 179.213 26.699C179.213 27.4923 179.122 28.178 178.941 28.756C178.703 29.5153 178.312 30.1047 177.768 30.524C177.224 30.932 176.527 31.136 175.677 31.136C175.291 31.136 174.923 31.0623 174.572 30.915C174.232 30.7563 173.937 30.5353 173.688 30.252C173.665 30.2293 173.642 30.2237 173.62 30.235C173.608 30.2463 173.603 30.2633 173.603 30.286V34.077C173.603 34.1903 173.546 34.247 173.433 34.247H172.141C172.027 34.247 171.971 34.1903 171.971 34.077V22.517C171.971 22.4037 172.027 22.347 172.141 22.347H173.433C173.546 22.347 173.603 22.4037 173.603 22.517V23.078C173.603 23.1007 173.608 23.1177 173.62 23.129C173.642 23.1403 173.665 23.1347 173.688 23.112C173.937 22.8287 174.232 22.6077 174.572 22.449C174.912 22.2903 175.28 22.211 175.677 22.211C176.493 22.211 177.167 22.415 177.7 22.823C178.244 23.2197 178.64 23.7863 178.89 24.523ZM177.02 28.909C177.382 28.365 177.564 27.617 177.564 26.665C177.564 25.7923 177.422 25.0897 177.139 24.557C176.81 23.9337 176.272 23.622 175.524 23.622C174.866 23.622 174.368 23.928 174.028 24.54C173.756 25.0273 173.62 25.7413 173.62 26.682C173.62 27.634 173.767 28.3593 174.062 28.858C174.39 29.436 174.872 29.725 175.507 29.725C176.187 29.725 176.691 29.453 177.02 28.909ZM188.369 24.523C188.585 25.135 188.692 25.8603 188.692 26.699C188.692 27.4923 188.602 28.178 188.42 28.756C188.182 29.5153 187.791 30.1047 187.247 30.524C186.703 30.932 186.006 31.136 185.156 31.136C184.771 31.136 184.403 31.0623 184.051 30.915C183.711 30.7563 183.417 30.5353 183.167 30.252C183.145 30.2293 183.122 30.2237 183.099 30.235C183.088 30.2463 183.082 30.2633 183.082 30.286V34.077C183.082 34.1903 183.026 34.247 182.912 34.247H181.62C181.507 34.247 181.45 34.1903 181.45 34.077V22.517C181.45 22.4037 181.507 22.347 181.62 22.347H182.912C183.026 22.347 183.082 22.4037 183.082 22.517V23.078C183.082 23.1007 183.088 23.1177 183.099 23.129C183.122 23.1403 183.145 23.1347 183.167 23.112C183.417 22.8287 183.711 22.6077 184.051 22.449C184.391 22.2903 184.76 22.211 185.156 22.211C185.972 22.211 186.647 22.415 187.179 22.823C187.723 23.2197 188.12 23.7863 188.369 24.523ZM186.499 28.909C186.862 28.365 187.043 27.617 187.043 26.665C187.043 25.7923 186.902 25.0897 186.618 24.557C186.29 23.9337 185.751 23.622 185.003 23.622C184.346 23.622 183.847 23.928 183.507 24.54C183.235 25.0273 183.099 25.7413 183.099 26.682C183.099 27.634 183.247 28.3593 183.541 28.858C183.87 29.436 184.352 29.725 184.986 29.725C185.666 29.725 186.171 29.453 186.499 28.909ZM201.66 31C201.558 31 201.49 30.9547 201.456 30.864L200.844 28.875C200.833 28.841 200.81 28.824 200.776 28.824H195.999C195.965 28.824 195.942 28.841 195.931 28.875L195.319 30.864C195.285 30.9547 195.217 31 195.115 31H193.738C193.613 31 193.568 30.9377 193.602 30.813L197.325 19.236C197.359 19.1453 197.427 19.1 197.529 19.1H199.229C199.331 19.1 199.399 19.1453 199.433 19.236L203.19 30.813L203.207 30.881C203.207 30.9603 203.156 31 203.054 31H201.66ZM196.356 27.447C196.345 27.4697 196.345 27.4923 196.356 27.515C196.379 27.5263 196.401 27.532 196.424 27.532H200.334C200.357 27.532 200.374 27.5263 200.385 27.515C200.408 27.4923 200.413 27.4697 200.402 27.447L198.43 21.14C198.419 21.1173 198.402 21.106 198.379 21.106C198.356 21.106 198.339 21.1173 198.328 21.14L196.356 27.447ZM210.09 22.517C210.09 22.4037 210.147 22.347 210.26 22.347H211.535C211.648 22.347 211.705 22.4037 211.705 22.517V30.83C211.705 30.9433 211.648 31 211.535 31H210.26C210.147 31 210.09 30.9433 210.09 30.83V30.201C210.09 30.1783 210.079 30.167 210.056 30.167C210.045 30.1557 210.028 30.1613 210.005 30.184C209.552 30.8073 208.855 31.119 207.914 31.119C207.359 31.119 206.843 31.0113 206.367 30.796C205.902 30.5807 205.528 30.2633 205.245 29.844C204.962 29.4247 204.82 28.9147 204.82 28.314V22.517C204.82 22.4037 204.877 22.347 204.99 22.347H206.265C206.378 22.347 206.435 22.4037 206.435 22.517V27.804C206.435 28.3933 206.588 28.858 206.894 29.198C207.211 29.538 207.653 29.708 208.22 29.708C208.787 29.708 209.24 29.538 209.58 29.198C209.92 28.8467 210.09 28.382 210.09 27.804V22.517ZM219.458 19.27C219.458 19.1567 219.515 19.1 219.628 19.1H220.92C221.034 19.1 221.09 19.1567 221.09 19.27V30.83C221.09 30.9433 221.034 31 220.92 31H219.628C219.515 31 219.458 30.9433 219.458 30.83V30.269C219.458 30.2463 219.447 30.2293 219.424 30.218C219.413 30.2067 219.396 30.2123 219.373 30.235C219.124 30.5183 218.829 30.7393 218.489 30.898C218.149 31.0567 217.781 31.136 217.384 31.136C216.568 31.136 215.888 30.9377 215.344 30.541C214.812 30.133 214.421 29.5607 214.171 28.824C213.956 28.2233 213.848 27.498 213.848 26.648C213.848 25.8547 213.939 25.169 214.12 24.591C214.358 23.843 214.749 23.2593 215.293 22.84C215.837 22.4207 216.534 22.211 217.384 22.211C217.77 22.211 218.132 22.2903 218.472 22.449C218.824 22.5963 219.124 22.8117 219.373 23.095C219.396 23.1177 219.413 23.1233 219.424 23.112C219.447 23.1007 219.458 23.0837 219.458 23.061V19.27ZM219.033 28.807C219.294 28.331 219.424 27.617 219.424 26.665C219.424 25.713 219.283 24.9877 218.999 24.489C218.671 23.911 218.189 23.622 217.554 23.622C216.874 23.622 216.37 23.894 216.041 24.438C215.679 25.0047 215.497 25.7527 215.497 26.682C215.497 27.5547 215.639 28.2573 215.922 28.79C216.251 29.4133 216.789 29.725 217.537 29.725C218.195 29.725 218.693 29.419 219.033 28.807ZM224.469 20.987C224.152 20.987 223.891 20.885 223.687 20.681C223.483 20.477 223.381 20.2163 223.381 19.899C223.381 19.5817 223.483 19.321 223.687 19.117C223.891 18.913 224.152 18.811 224.469 18.811C224.786 18.811 225.047 18.913 225.251 19.117C225.455 19.321 225.557 19.5817 225.557 19.899C225.557 20.2163 225.455 20.477 225.251 20.681C225.047 20.885 224.786 20.987 224.469 20.987ZM223.789 30.983C223.676 30.983 223.619 30.9263 223.619 30.813V22.517C223.619 22.4037 223.676 22.347 223.789 22.347H225.081C225.194 22.347 225.251 22.4037 225.251 22.517V30.813C225.251 30.9263 225.194 30.983 225.081 30.983H223.789ZM232.083 23.52C232.083 23.6333 232.026 23.69 231.913 23.69H230.077C230.032 23.69 230.009 23.7127 230.009 23.758V28.263C230.009 28.739 230.117 29.0847 230.332 29.3C230.547 29.504 230.882 29.606 231.335 29.606H231.828C231.941 29.606 231.998 29.6627 231.998 29.776V30.83C231.998 30.9433 231.941 31 231.828 31C231.465 31.0227 231.205 31.034 231.046 31.034C230.185 31.034 229.533 30.881 229.091 30.575C228.66 30.2577 228.445 29.6797 228.445 28.841V23.758C228.445 23.7127 228.422 23.69 228.377 23.69H227.34C227.227 23.69 227.17 23.6333 227.17 23.52V22.517C227.17 22.4037 227.227 22.347 227.34 22.347H228.377C228.422 22.347 228.445 22.3243 228.445 22.279V20.273C228.445 20.1597 228.502 20.103 228.615 20.103H229.839C229.952 20.103 230.009 20.1597 230.009 20.273V22.279C230.009 22.3243 230.032 22.347 230.077 22.347H231.913C232.026 22.347 232.083 22.4037 232.083 22.517V23.52Z" fill="#0D0128"/>
<defs>
<linearGradient id="paint0_linear_4427_4138" x1="291" y1="24" x2="2" y2="24" gradientUnits="userSpaceOnUse">
<stop stop-color="#AA83FF"/>
<stop offset="1" stop-color="#D0FFCC"/>
</linearGradient>
<linearGradient id="paint1_linear_4427_4138" x1="291" y1="24" x2="2" y2="24" gradientUnits="userSpaceOnUse">
<stop stop-color="#C7ADFF"/>
<stop offset="1" stop-color="#776899" stop-opacity="0"/>
</linearGradient>
</defs>
</svg>
