<svg width="297" height="52" viewBox="0 0 297 52" fill="none" xmlns="http://www.w3.org/2000/svg">
<path d="M8 52H274.5L297 39.9688V8H278V10.75H253V8H28.5L8 20.375V52Z" fill="#735AA9"/>
<path d="M292 1H271V3.75H248V1H22.2217L21.9834 1.14355L1.4834 13.5186L1 13.8105V47H268.751L268.972 46.8818L291.472 34.8506L292 34.5684V1Z" fill="url(#paint0_linear_4433_4893)" stroke="url(#paint1_linear_4433_4893)" stroke-width="2"/>
<path d="M66.177 31C66.0863 31 66.024 30.9603 65.99 30.881L63.61 25.798C63.5987 25.764 63.576 25.747 63.542 25.747H61.094C61.0487 25.747 61.026 25.7697 61.026 25.815V30.83C61.026 30.9433 60.9693 31 60.856 31H59.564C59.4507 31 59.394 30.9433 59.394 30.83V19.27C59.394 19.1567 59.4507 19.1 59.564 19.1H64.137C64.817 19.1 65.412 19.2417 65.922 19.525C66.4433 19.8083 66.8457 20.205 67.129 20.715C67.4123 21.225 67.554 21.8143 67.554 22.483C67.554 23.2763 67.3443 23.9507 66.925 24.506C66.517 25.05 65.9447 25.4183 65.208 25.611C65.1627 25.6337 65.1513 25.662 65.174 25.696L67.639 30.796C67.6503 30.8187 67.656 30.847 67.656 30.881C67.656 30.9603 67.6107 31 67.52 31H66.177ZM61.094 20.511C61.0487 20.511 61.026 20.5337 61.026 20.579V24.387C61.026 24.4323 61.0487 24.455 61.094 24.455H63.933C64.5337 24.455 65.0153 24.2793 65.378 23.928C65.7407 23.5653 65.922 23.0893 65.922 22.5C65.922 21.8993 65.7407 21.4177 65.378 21.055C65.0153 20.6923 64.5337 20.511 63.933 20.511H61.094ZM76.5534 25.594C76.5987 26.0587 76.6157 26.58 76.6044 27.158C76.6044 27.2713 76.5477 27.328 76.4344 27.328H71.0114C70.966 27.328 70.9434 27.3507 70.9434 27.396C70.9434 27.7813 70.9774 28.076 71.0454 28.28C71.17 28.7333 71.4194 29.0903 71.7934 29.351C72.1787 29.6003 72.6604 29.725 73.2384 29.725C74.077 29.725 74.723 29.3793 75.1764 28.688C75.233 28.5747 75.3067 28.5577 75.3974 28.637L76.3664 29.283C76.4457 29.351 76.4627 29.4247 76.4174 29.504C76.1 30.014 75.6467 30.4163 75.0574 30.711C74.4794 31.0057 73.822 31.153 73.0854 31.153C72.258 31.153 71.561 30.9717 70.9944 30.609C70.4277 30.2463 70.0027 29.7307 69.7194 29.062C69.4474 28.3933 69.3114 27.583 69.3114 26.631C69.3114 25.8037 69.3737 25.1747 69.4984 24.744C69.7024 23.962 70.1104 23.3443 70.7224 22.891C71.3344 22.4377 72.0767 22.211 72.9494 22.211C74.094 22.211 74.9497 22.5 75.5164 23.078C76.083 23.6447 76.4287 24.4833 76.5534 25.594ZM72.9494 23.622C72.462 23.622 72.0597 23.7467 71.7424 23.996C71.425 24.234 71.2097 24.557 71.0964 24.965C71.017 25.2143 70.966 25.5317 70.9434 25.917C70.9434 25.9623 70.966 25.985 71.0114 25.985H74.9044C74.9497 25.985 74.9724 25.9623 74.9724 25.917C74.9497 25.543 74.9157 25.2653 74.8704 25.084C74.757 24.642 74.5304 24.2907 74.1904 24.03C73.8617 23.758 73.448 23.622 72.9494 23.622ZM84.0356 22.517C84.0356 22.4037 84.0923 22.347 84.2056 22.347H85.4976C85.611 22.347 85.6676 22.4037 85.6676 22.517V34.077C85.6676 34.1903 85.611 34.247 85.4976 34.247H84.2056C84.0923 34.247 84.0356 34.1903 84.0356 34.077V30.286C84.0356 30.2633 84.0243 30.2463 84.0016 30.235C83.9903 30.2237 83.9733 30.2293 83.9506 30.252C83.7013 30.5353 83.401 30.7563 83.0496 30.915C82.7096 31.0623 82.347 31.136 81.9616 31.136C81.1116 31.136 80.4146 30.932 79.8706 30.524C79.3266 30.1047 78.9356 29.5153 78.6976 28.756C78.5163 28.178 78.4256 27.4923 78.4256 26.699C78.4256 25.8603 78.5333 25.135 78.7486 24.523C78.998 23.7863 79.389 23.2197 79.9216 22.823C80.4656 22.415 81.1456 22.211 81.9616 22.211C82.3583 22.211 82.7266 22.2903 83.0666 22.449C83.4066 22.6077 83.7013 22.8287 83.9506 23.112C83.9733 23.1347 83.9903 23.1403 84.0016 23.129C84.0243 23.1177 84.0356 23.1007 84.0356 23.078V22.517ZM83.5766 28.858C83.86 28.3707 84.0016 27.6453 84.0016 26.682C84.0016 25.73 83.8713 25.016 83.6106 24.54C83.2706 23.928 82.772 23.622 82.1146 23.622C81.3666 23.622 80.8283 23.9337 80.4996 24.557C80.2163 25.0897 80.0746 25.7923 80.0746 26.665C80.0746 27.617 80.256 28.365 80.6186 28.909C80.9473 29.453 81.4516 29.725 82.1316 29.725C82.7663 29.725 83.248 29.436 83.5766 28.858ZM93.2941 22.517C93.2941 22.4037 93.3508 22.347 93.4641 22.347H94.7391C94.8525 22.347 94.9091 22.4037 94.9091 22.517V30.83C94.9091 30.9433 94.8525 31 94.7391 31H93.4641C93.3508 31 93.2941 30.9433 93.2941 30.83V30.201C93.2941 30.1783 93.2828 30.167 93.2601 30.167C93.2488 30.1557 93.2318 30.1613 93.2091 30.184C92.7558 30.8073 92.0588 31.119 91.1181 31.119C90.5628 31.119 90.0471 31.0113 89.5711 30.796C89.1065 30.5807 88.7325 30.2633 88.4491 29.844C88.1658 29.4247 88.0241 28.9147 88.0241 28.314V22.517C88.0241 22.4037 88.0808 22.347 88.1941 22.347H89.4691C89.5825 22.347 89.6391 22.4037 89.6391 22.517V27.804C89.6391 28.3933 89.7921 28.858 90.0981 29.198C90.4155 29.538 90.8575 29.708 91.4241 29.708C91.9908 29.708 92.4441 29.538 92.7841 29.198C93.1241 28.8467 93.2941 28.382 93.2941 27.804V22.517ZM104.295 25.594C104.34 26.0587 104.357 26.58 104.346 27.158C104.346 27.2713 104.289 27.328 104.176 27.328H98.7526C98.7073 27.328 98.6846 27.3507 98.6846 27.396C98.6846 27.7813 98.7186 28.076 98.7866 28.28C98.9113 28.7333 99.1606 29.0903 99.5346 29.351C99.9199 29.6003 100.402 29.725 100.98 29.725C101.818 29.725 102.464 29.3793 102.918 28.688C102.974 28.5747 103.048 28.5577 103.139 28.637L104.108 29.283C104.187 29.351 104.204 29.4247 104.159 29.504C103.841 30.014 103.388 30.4163 102.799 30.711C102.221 31.0057 101.563 31.153 100.827 31.153C99.9993 31.153 99.3023 30.9717 98.7356 30.609C98.1689 30.2463 97.7439 29.7307 97.4606 29.062C97.1886 28.3933 97.0526 27.583 97.0526 26.631C97.0526 25.8037 97.1149 25.1747 97.2396 24.744C97.4436 23.962 97.8516 23.3443 98.4636 22.891C99.0756 22.4377 99.8179 22.211 100.691 22.211C101.835 22.211 102.691 22.5 103.258 23.078C103.824 23.6447 104.17 24.4833 104.295 25.594ZM100.691 23.622C100.203 23.622 99.8009 23.7467 99.4836 23.996C99.1663 24.234 98.9509 24.557 98.8376 24.965C98.7583 25.2143 98.7073 25.5317 98.6846 25.917C98.6846 25.9623 98.7073 25.985 98.7526 25.985H102.646C102.691 25.985 102.714 25.9623 102.714 25.917C102.691 25.543 102.657 25.2653 102.612 25.084C102.498 24.642 102.272 24.2907 101.932 24.03C101.603 23.758 101.189 23.622 100.691 23.622ZM109.315 31.102C108.635 31.102 108.034 31 107.513 30.796C107.003 30.592 106.606 30.3143 106.323 29.963C106.04 29.6003 105.898 29.2037 105.898 28.773V28.586C105.898 28.4727 105.955 28.416 106.068 28.416H107.292C107.405 28.416 107.462 28.4727 107.462 28.586V28.671C107.462 28.9883 107.632 29.266 107.972 29.504C108.323 29.742 108.765 29.861 109.298 29.861C109.808 29.861 110.222 29.7533 110.539 29.538C110.856 29.3113 111.015 29.028 111.015 28.688C111.015 28.3593 110.868 28.1157 110.573 27.957C110.278 27.787 109.802 27.6113 109.145 27.43C108.499 27.2487 107.955 27.0673 107.513 26.886C107.082 26.6933 106.714 26.427 106.408 26.087C106.113 25.7357 105.966 25.288 105.966 24.744C105.966 23.9847 106.261 23.384 106.85 22.942C107.451 22.4887 108.244 22.262 109.23 22.262C109.887 22.262 110.465 22.3697 110.964 22.585C111.474 22.789 111.865 23.078 112.137 23.452C112.409 23.826 112.545 24.2453 112.545 24.71V24.761C112.545 24.8743 112.488 24.931 112.375 24.931H111.185C111.072 24.931 111.015 24.8743 111.015 24.761V24.71C111.015 24.3813 110.851 24.1093 110.522 23.894C110.205 23.6673 109.768 23.554 109.213 23.554C108.714 23.554 108.306 23.6503 107.989 23.843C107.683 24.0357 107.53 24.2963 107.53 24.625C107.53 24.9537 107.677 25.203 107.972 25.373C108.278 25.543 108.765 25.7243 109.434 25.917C110.091 26.0983 110.635 26.2797 111.066 26.461C111.508 26.631 111.882 26.8917 112.188 27.243C112.494 27.583 112.647 28.0307 112.647 28.586C112.647 29.3567 112.341 29.9687 111.729 30.422C111.128 30.8753 110.324 31.102 109.315 31.102ZM118.807 23.52C118.807 23.6333 118.75 23.69 118.637 23.69H116.801C116.755 23.69 116.733 23.7127 116.733 23.758V28.263C116.733 28.739 116.84 29.0847 117.056 29.3C117.271 29.504 117.605 29.606 118.059 29.606H118.552C118.665 29.606 118.722 29.6627 118.722 29.776V30.83C118.722 30.9433 118.665 31 118.552 31C118.189 31.0227 117.928 31.034 117.77 31.034C116.908 31.034 116.257 30.881 115.815 30.575C115.384 30.2577 115.169 29.6797 115.169 28.841V23.758C115.169 23.7127 115.146 23.69 115.101 23.69H114.064C113.95 23.69 113.894 23.6333 113.894 23.52V22.517C113.894 22.4037 113.95 22.347 114.064 22.347H115.101C115.146 22.347 115.169 22.3243 115.169 22.279V20.273C115.169 20.1597 115.225 20.103 115.339 20.103H116.563C116.676 20.103 116.733 20.1597 116.733 20.273V22.279C116.733 22.3243 116.755 22.347 116.801 22.347H118.637C118.75 22.347 118.807 22.4037 118.807 22.517V23.52ZM132.123 19.202C132.18 19.134 132.248 19.1 132.327 19.1H133.619C133.733 19.1 133.789 19.1567 133.789 19.27V30.83C133.789 30.9433 133.733 31 133.619 31H132.327C132.214 31 132.157 30.9433 132.157 30.83V22.126C132.157 22.092 132.146 22.0693 132.123 22.058C132.101 22.0467 132.084 22.058 132.072 22.092L129.641 25.798C129.596 25.866 129.528 25.9 129.437 25.9H128.791C128.712 25.9 128.644 25.866 128.587 25.798L126.139 22.126C126.128 22.092 126.111 22.0807 126.088 22.092C126.066 22.1033 126.054 22.126 126.054 22.16V30.83C126.054 30.9433 125.998 31 125.884 31H124.592C124.479 31 124.422 30.9433 124.422 30.83V19.27C124.422 19.1567 124.479 19.1 124.592 19.1H125.884C125.975 19.1 126.043 19.134 126.088 19.202L129.063 23.656C129.075 23.6673 129.092 23.673 129.114 23.673C129.137 23.673 129.154 23.6673 129.165 23.656L132.123 19.202ZM136.116 34.383C136.036 34.383 135.997 34.3263 135.997 34.213V33.21C135.997 33.0967 136.053 33.04 136.167 33.04H136.201C136.654 33.0287 137.011 32.972 137.272 32.87C137.532 32.768 137.748 32.5753 137.918 32.292C138.088 32.02 138.252 31.6063 138.411 31.051C138.422 31.0397 138.422 31.0227 138.411 31C138.411 30.966 138.411 30.949 138.411 30.949L135.572 22.534L135.555 22.466C135.555 22.3867 135.606 22.347 135.708 22.347H137.085C137.187 22.347 137.255 22.3923 137.289 22.483L139.21 28.892C139.221 28.9147 139.238 28.926 139.261 28.926C139.283 28.926 139.3 28.9147 139.312 28.892L141.216 22.483C141.25 22.3923 141.318 22.347 141.42 22.347H142.763C142.887 22.347 142.933 22.4093 142.899 22.534L139.805 31.595C139.544 32.377 139.283 32.955 139.023 33.329C138.762 33.7143 138.422 33.9863 138.003 34.145C137.583 34.3037 136.994 34.383 136.235 34.383H136.116ZM150.494 31C150.392 31 150.33 30.9547 150.307 30.864L147.111 19.287L147.094 19.236C147.094 19.1453 147.151 19.1 147.264 19.1H148.641C148.743 19.1 148.805 19.151 148.828 19.253L151.055 27.719C151.066 27.7417 151.078 27.753 151.089 27.753C151.112 27.753 151.129 27.7417 151.14 27.719L153.248 19.253C153.271 19.151 153.333 19.1 153.435 19.1H154.778C154.88 19.1 154.942 19.151 154.965 19.253L157.192 27.736C157.203 27.7587 157.215 27.77 157.226 27.77C157.237 27.77 157.249 27.7587 157.26 27.736L159.504 19.253C159.527 19.151 159.589 19.1 159.691 19.1H160.983C161.04 19.1 161.079 19.117 161.102 19.151C161.136 19.185 161.147 19.2303 161.136 19.287L158.059 30.847C158.036 30.949 157.974 31 157.872 31H156.563C156.461 31 156.399 30.949 156.376 30.847L154.149 22.075C154.138 22.041 154.126 22.024 154.115 22.024C154.104 22.024 154.092 22.041 154.081 22.075L151.922 30.847C151.911 30.949 151.848 31 151.735 31H150.494ZM168.891 25.594C168.937 26.0587 168.954 26.58 168.942 27.158C168.942 27.2713 168.886 27.328 168.772 27.328H163.349C163.304 27.328 163.281 27.3507 163.281 27.396C163.281 27.7813 163.315 28.076 163.383 28.28C163.508 28.7333 163.757 29.0903 164.131 29.351C164.517 29.6003 164.998 29.725 165.576 29.725C166.415 29.725 167.061 29.3793 167.514 28.688C167.571 28.5747 167.645 28.5577 167.735 28.637L168.704 29.283C168.784 29.351 168.801 29.4247 168.755 29.504C168.438 30.014 167.985 30.4163 167.395 30.711C166.817 31.0057 166.16 31.153 165.423 31.153C164.596 31.153 163.899 30.9717 163.332 30.609C162.766 30.2463 162.341 29.7307 162.057 29.062C161.785 28.3933 161.649 27.583 161.649 26.631C161.649 25.8037 161.712 25.1747 161.836 24.744C162.04 23.962 162.448 23.3443 163.06 22.891C163.672 22.4377 164.415 22.211 165.287 22.211C166.432 22.211 167.288 22.5 167.854 23.078C168.421 23.6447 168.767 24.4833 168.891 25.594ZM165.287 23.622C164.8 23.622 164.398 23.7467 164.08 23.996C163.763 24.234 163.548 24.557 163.434 24.965C163.355 25.2143 163.304 25.5317 163.281 25.917C163.281 25.9623 163.304 25.985 163.349 25.985H167.242C167.288 25.985 167.31 25.9623 167.31 25.917C167.288 25.543 167.254 25.2653 167.208 25.084C167.095 24.642 166.868 24.2907 166.528 24.03C166.2 23.758 165.786 23.622 165.287 23.622ZM177.989 24.591C178.17 25.169 178.261 25.8547 178.261 26.648C178.261 27.498 178.153 28.2233 177.938 28.824C177.688 29.5607 177.292 30.133 176.748 30.541C176.215 30.9377 175.541 31.136 174.725 31.136C174.328 31.136 173.96 31.0567 173.62 30.898C173.28 30.7393 172.985 30.5183 172.736 30.235C172.713 30.2123 172.69 30.2067 172.668 30.218C172.656 30.2293 172.651 30.2463 172.651 30.269V30.83C172.651 30.9433 172.594 31 172.481 31H171.189C171.075 31 171.019 30.9433 171.019 30.83V19.27C171.019 19.1567 171.075 19.1 171.189 19.1H172.481C172.594 19.1 172.651 19.1567 172.651 19.27V23.061C172.651 23.0837 172.656 23.1007 172.668 23.112C172.69 23.1233 172.713 23.1177 172.736 23.095C172.985 22.8117 173.28 22.5963 173.62 22.449C173.971 22.2903 174.339 22.211 174.725 22.211C175.575 22.211 176.272 22.4207 176.816 22.84C177.36 23.2593 177.751 23.843 177.989 24.591ZM176.187 28.79C176.47 28.2573 176.612 27.5547 176.612 26.682C176.612 25.7527 176.43 25.0047 176.068 24.438C175.739 23.894 175.235 23.622 174.555 23.622C173.92 23.622 173.438 23.911 173.11 24.489C172.815 25.0103 172.668 25.7357 172.668 26.665C172.668 27.5943 172.804 28.3083 173.076 28.807C173.416 29.419 173.914 29.725 174.572 29.725C175.32 29.725 175.858 29.4133 176.187 28.79ZM186.807 25.356C187.034 25.9113 187.147 26.5517 187.147 27.277C187.147 27.8777 187.056 28.433 186.875 28.943C186.626 29.6457 186.212 30.1897 185.634 30.575C185.056 30.949 184.359 31.136 183.543 31.136C182.727 31.136 182.019 30.9263 181.418 30.507C180.829 30.0877 180.415 29.521 180.177 28.807C180.052 28.4897 179.979 28.0363 179.956 27.447C179.956 27.3337 180.013 27.277 180.126 27.277H181.435C181.548 27.277 181.605 27.3337 181.605 27.447C181.628 27.855 181.673 28.1553 181.741 28.348C181.854 28.7673 182.064 29.1017 182.37 29.351C182.687 29.6003 183.078 29.725 183.543 29.725C184.404 29.725 184.982 29.334 185.277 28.552C185.424 28.212 185.498 27.77 185.498 27.226C185.498 26.648 185.407 26.1323 185.226 25.679C184.909 24.9763 184.342 24.625 183.526 24.625C183.333 24.625 183.09 24.71 182.795 24.88C182.75 24.9027 182.716 24.914 182.693 24.914C182.636 24.914 182.591 24.8857 182.557 24.829L181.911 23.945C181.888 23.8997 181.877 23.86 181.877 23.826C181.877 23.792 181.894 23.7523 181.928 23.707L184.835 20.596C184.869 20.5393 184.858 20.511 184.801 20.511H180.279C180.166 20.511 180.109 20.4543 180.109 20.341V19.27C180.109 19.1567 180.166 19.1 180.279 19.1H186.875C186.988 19.1 187.045 19.1567 187.045 19.27V20.494C187.045 20.5507 187.017 20.6187 186.96 20.698L184.376 23.52C184.353 23.5427 184.348 23.5653 184.359 23.588C184.37 23.5993 184.393 23.6107 184.427 23.622C185.005 23.6787 185.492 23.86 185.889 24.166C186.286 24.4607 186.592 24.8573 186.807 25.356ZM200.145 31C200.043 31 199.975 30.9547 199.941 30.864L199.329 28.875C199.318 28.841 199.295 28.824 199.261 28.824H194.484C194.45 28.824 194.428 28.841 194.416 28.875L193.804 30.864C193.77 30.9547 193.702 31 193.6 31H192.223C192.099 31 192.053 30.9377 192.087 30.813L195.81 19.236C195.844 19.1453 195.912 19.1 196.014 19.1H197.714C197.816 19.1 197.884 19.1453 197.918 19.236L201.675 30.813L201.692 30.881C201.692 30.9603 201.641 31 201.539 31H200.145ZM194.841 27.447C194.83 27.4697 194.83 27.4923 194.841 27.515C194.864 27.5263 194.887 27.532 194.909 27.532H198.819C198.842 27.532 198.859 27.5263 198.87 27.515C198.893 27.4923 198.899 27.4697 198.887 27.447L196.915 21.14C196.904 21.1173 196.887 21.106 196.864 21.106C196.842 21.106 196.825 21.1173 196.813 21.14L194.841 27.447ZM208.575 22.517C208.575 22.4037 208.632 22.347 208.745 22.347H210.02C210.134 22.347 210.19 22.4037 210.19 22.517V30.83C210.19 30.9433 210.134 31 210.02 31H208.745C208.632 31 208.575 30.9433 208.575 30.83V30.201C208.575 30.1783 208.564 30.167 208.541 30.167C208.53 30.1557 208.513 30.1613 208.49 30.184C208.037 30.8073 207.34 31.119 206.399 31.119C205.844 31.119 205.328 31.0113 204.852 30.796C204.388 30.5807 204.014 30.2633 203.73 29.844C203.447 29.4247 203.305 28.9147 203.305 28.314V22.517C203.305 22.4037 203.362 22.347 203.475 22.347H204.75C204.864 22.347 204.92 22.4037 204.92 22.517V27.804C204.92 28.3933 205.073 28.858 205.379 29.198C205.697 29.538 206.139 29.708 206.705 29.708C207.272 29.708 207.725 29.538 208.065 29.198C208.405 28.8467 208.575 28.382 208.575 27.804V22.517ZM217.944 19.27C217.944 19.1567 218.001 19.1 218.114 19.1H219.406C219.519 19.1 219.576 19.1567 219.576 19.27V30.83C219.576 30.9433 219.519 31 219.406 31H218.114C218.001 31 217.944 30.9433 217.944 30.83V30.269C217.944 30.2463 217.933 30.2293 217.91 30.218C217.899 30.2067 217.882 30.2123 217.859 30.235C217.61 30.5183 217.315 30.7393 216.975 30.898C216.635 31.0567 216.267 31.136 215.87 31.136C215.054 31.136 214.374 30.9377 213.83 30.541C213.297 30.133 212.906 29.5607 212.657 28.824C212.442 28.2233 212.334 27.498 212.334 26.648C212.334 25.8547 212.425 25.169 212.606 24.591C212.844 23.843 213.235 23.2593 213.779 22.84C214.323 22.4207 215.02 22.211 215.87 22.211C216.255 22.211 216.618 22.2903 216.958 22.449C217.309 22.5963 217.61 22.8117 217.859 23.095C217.882 23.1177 217.899 23.1233 217.91 23.112C217.933 23.1007 217.944 23.0837 217.944 23.061V19.27ZM217.519 28.807C217.78 28.331 217.91 27.617 217.91 26.665C217.91 25.713 217.768 24.9877 217.485 24.489C217.156 23.911 216.675 23.622 216.04 23.622C215.36 23.622 214.856 23.894 214.527 24.438C214.164 25.0047 213.983 25.7527 213.983 26.682C213.983 27.5547 214.125 28.2573 214.408 28.79C214.737 29.4133 215.275 29.725 216.023 29.725C216.68 29.725 217.179 29.419 217.519 28.807ZM222.954 20.987C222.637 20.987 222.376 20.885 222.172 20.681C221.968 20.477 221.866 20.2163 221.866 19.899C221.866 19.5817 221.968 19.321 222.172 19.117C222.376 18.913 222.637 18.811 222.954 18.811C223.272 18.811 223.532 18.913 223.736 19.117C223.94 19.321 224.042 19.5817 224.042 19.899C224.042 20.2163 223.94 20.477 223.736 20.681C223.532 20.885 223.272 20.987 222.954 20.987ZM222.274 30.983C222.161 30.983 222.104 30.9263 222.104 30.813V22.517C222.104 22.4037 222.161 22.347 222.274 22.347H223.566C223.68 22.347 223.736 22.4037 223.736 22.517V30.813C223.736 30.9263 223.68 30.983 223.566 30.983H222.274ZM230.568 23.52C230.568 23.6333 230.512 23.69 230.398 23.69H228.562C228.517 23.69 228.494 23.7127 228.494 23.758V28.263C228.494 28.739 228.602 29.0847 228.817 29.3C229.033 29.504 229.367 29.606 229.82 29.606H230.313C230.427 29.606 230.483 29.6627 230.483 29.776V30.83C230.483 30.9433 230.427 31 230.313 31C229.951 31.0227 229.69 31.034 229.531 31.034C228.67 31.034 228.018 30.881 227.576 30.575C227.146 30.2577 226.93 29.6797 226.93 28.841V23.758C226.93 23.7127 226.908 23.69 226.862 23.69H225.825C225.712 23.69 225.655 23.6333 225.655 23.52V22.517C225.655 22.4037 225.712 22.347 225.825 22.347H226.862C226.908 22.347 226.93 22.3243 226.93 22.279V20.273C226.93 20.1597 226.987 20.103 227.1 20.103H228.324C228.438 20.103 228.494 20.1597 228.494 20.273V22.279C228.494 22.3243 228.517 22.347 228.562 22.347H230.398C230.512 22.347 230.568 22.4037 230.568 22.517V23.52Z" fill="#0D0128"/>
<defs>
<linearGradient id="paint0_linear_4433_4893" x1="291" y1="24" x2="2" y2="24" gradientUnits="userSpaceOnUse">
<stop stop-color="#AA83FF"/>
<stop offset="1" stop-color="#D0FFCC"/>
</linearGradient>
<linearGradient id="paint1_linear_4433_4893" x1="291" y1="24" x2="2" y2="24" gradientUnits="userSpaceOnUse">
<stop stop-color="#C7ADFF"/>
<stop offset="1" stop-color="#776899" stop-opacity="0"/>
</linearGradient>
</defs>
</svg>
