<svg width="297" height="52" viewBox="0 0 297 52" fill="none" xmlns="http://www.w3.org/2000/svg">
<path d="M8 52H274.5L297 39.9688V8H278V10.75H253V8H28.5L8 20.375V52Z" fill="#735AA9"/>
<path d="M292 1H271V3.75H248V1H22.2217L21.9834 1.14355L1.4834 13.5186L1 13.8105V47H268.751L268.972 46.8818L291.472 34.8506L292 34.5684V1Z" fill="url(#paint0_linear_4411_3918)" stroke="url(#paint1_linear_4411_3918)" stroke-width="2"/>
<path d="M59.177 31C59.0863 31 59.024 30.9603 58.99 30.881L56.61 25.798C56.5987 25.764 56.576 25.747 56.542 25.747H54.094C54.0487 25.747 54.026 25.7697 54.026 25.815V30.83C54.026 30.9433 53.9693 31 53.856 31H52.564C52.4507 31 52.394 30.9433 52.394 30.83V19.27C52.394 19.1567 52.4507 19.1 52.564 19.1H57.137C57.817 19.1 58.412 19.2417 58.922 19.525C59.4433 19.8083 59.8457 20.205 60.129 20.715C60.4123 21.225 60.554 21.8143 60.554 22.483C60.554 23.2763 60.3443 23.9507 59.925 24.506C59.517 25.05 58.9447 25.4183 58.208 25.611C58.1627 25.6337 58.1513 25.662 58.174 25.696L60.639 30.796C60.6503 30.8187 60.656 30.847 60.656 30.881C60.656 30.9603 60.6107 31 60.52 31H59.177ZM54.094 20.511C54.0487 20.511 54.026 20.5337 54.026 20.579V24.387C54.026 24.4323 54.0487 24.455 54.094 24.455H56.933C57.5337 24.455 58.0153 24.2793 58.378 23.928C58.7407 23.5653 58.922 23.0893 58.922 22.5C58.922 21.8993 58.7407 21.4177 58.378 21.055C58.0153 20.6923 57.5337 20.511 56.933 20.511H54.094ZM69.5534 25.594C69.5987 26.0587 69.6157 26.58 69.6044 27.158C69.6044 27.2713 69.5477 27.328 69.4344 27.328H64.0114C63.966 27.328 63.9434 27.3507 63.9434 27.396C63.9434 27.7813 63.9774 28.076 64.0454 28.28C64.17 28.7333 64.4194 29.0903 64.7934 29.351C65.1787 29.6003 65.6604 29.725 66.2384 29.725C67.077 29.725 67.723 29.3793 68.1764 28.688C68.233 28.5747 68.3067 28.5577 68.3974 28.637L69.3664 29.283C69.4457 29.351 69.4627 29.4247 69.4174 29.504C69.1 30.014 68.6467 30.4163 68.0574 30.711C67.4794 31.0057 66.822 31.153 66.0854 31.153C65.258 31.153 64.561 30.9717 63.9944 30.609C63.4277 30.2463 63.0027 29.7307 62.7194 29.062C62.4474 28.3933 62.3114 27.583 62.3114 26.631C62.3114 25.8037 62.3737 25.1747 62.4984 24.744C62.7024 23.962 63.1104 23.3443 63.7224 22.891C64.3344 22.4377 65.0767 22.211 65.9494 22.211C67.094 22.211 67.9497 22.5 68.5164 23.078C69.083 23.6447 69.4287 24.4833 69.5534 25.594ZM65.9494 23.622C65.462 23.622 65.0597 23.7467 64.7424 23.996C64.425 24.234 64.2097 24.557 64.0964 24.965C64.017 25.2143 63.966 25.5317 63.9434 25.917C63.9434 25.9623 63.966 25.985 64.0114 25.985H67.9044C67.9497 25.985 67.9724 25.9623 67.9724 25.917C67.9497 25.543 67.9157 25.2653 67.8704 25.084C67.757 24.642 67.5304 24.2907 67.1904 24.03C66.8617 23.758 66.448 23.622 65.9494 23.622ZM77.0356 22.517C77.0356 22.4037 77.0923 22.347 77.2056 22.347H78.4976C78.611 22.347 78.6676 22.4037 78.6676 22.517V34.077C78.6676 34.1903 78.611 34.247 78.4976 34.247H77.2056C77.0923 34.247 77.0356 34.1903 77.0356 34.077V30.286C77.0356 30.2633 77.0243 30.2463 77.0016 30.235C76.9903 30.2237 76.9733 30.2293 76.9506 30.252C76.7013 30.5353 76.401 30.7563 76.0496 30.915C75.7096 31.0623 75.347 31.136 74.9616 31.136C74.1116 31.136 73.4146 30.932 72.8706 30.524C72.3266 30.1047 71.9356 29.5153 71.6976 28.756C71.5163 28.178 71.4256 27.4923 71.4256 26.699C71.4256 25.8603 71.5333 25.135 71.7486 24.523C71.998 23.7863 72.389 23.2197 72.9216 22.823C73.4656 22.415 74.1456 22.211 74.9616 22.211C75.3583 22.211 75.7266 22.2903 76.0666 22.449C76.4066 22.6077 76.7013 22.8287 76.9506 23.112C76.9733 23.1347 76.9903 23.1403 77.0016 23.129C77.0243 23.1177 77.0356 23.1007 77.0356 23.078V22.517ZM76.5766 28.858C76.86 28.3707 77.0016 27.6453 77.0016 26.682C77.0016 25.73 76.8713 25.016 76.6106 24.54C76.2706 23.928 75.772 23.622 75.1146 23.622C74.3666 23.622 73.8283 23.9337 73.4996 24.557C73.2163 25.0897 73.0746 25.7923 73.0746 26.665C73.0746 27.617 73.256 28.365 73.6186 28.909C73.9473 29.453 74.4516 29.725 75.1316 29.725C75.7663 29.725 76.248 29.436 76.5766 28.858ZM86.2941 22.517C86.2941 22.4037 86.3508 22.347 86.4641 22.347H87.7391C87.8525 22.347 87.9091 22.4037 87.9091 22.517V30.83C87.9091 30.9433 87.8525 31 87.7391 31H86.4641C86.3508 31 86.2941 30.9433 86.2941 30.83V30.201C86.2941 30.1783 86.2828 30.167 86.2601 30.167C86.2488 30.1557 86.2318 30.1613 86.2091 30.184C85.7558 30.8073 85.0588 31.119 84.1181 31.119C83.5628 31.119 83.0471 31.0113 82.5711 30.796C82.1065 30.5807 81.7325 30.2633 81.4491 29.844C81.1658 29.4247 81.0241 28.9147 81.0241 28.314V22.517C81.0241 22.4037 81.0808 22.347 81.1941 22.347H82.4691C82.5825 22.347 82.6391 22.4037 82.6391 22.517V27.804C82.6391 28.3933 82.7921 28.858 83.0981 29.198C83.4155 29.538 83.8575 29.708 84.4241 29.708C84.9908 29.708 85.4441 29.538 85.7841 29.198C86.1241 28.8467 86.2941 28.382 86.2941 27.804V22.517ZM97.2946 25.594C97.3399 26.0587 97.3569 26.58 97.3456 27.158C97.3456 27.2713 97.2889 27.328 97.1756 27.328H91.7526C91.7073 27.328 91.6846 27.3507 91.6846 27.396C91.6846 27.7813 91.7186 28.076 91.7866 28.28C91.9113 28.7333 92.1606 29.0903 92.5346 29.351C92.9199 29.6003 93.4016 29.725 93.9796 29.725C94.8183 29.725 95.4643 29.3793 95.9176 28.688C95.9743 28.5747 96.0479 28.5577 96.1386 28.637L97.1076 29.283C97.1869 29.351 97.2039 29.4247 97.1586 29.504C96.8413 30.014 96.3879 30.4163 95.7986 30.711C95.2206 31.0057 94.5633 31.153 93.8266 31.153C92.9993 31.153 92.3023 30.9717 91.7356 30.609C91.1689 30.2463 90.7439 29.7307 90.4606 29.062C90.1886 28.3933 90.0526 27.583 90.0526 26.631C90.0526 25.8037 90.1149 25.1747 90.2396 24.744C90.4436 23.962 90.8516 23.3443 91.4636 22.891C92.0756 22.4377 92.8179 22.211 93.6906 22.211C94.8353 22.211 95.6909 22.5 96.2576 23.078C96.8243 23.6447 97.1699 24.4833 97.2946 25.594ZM93.6906 23.622C93.2033 23.622 92.8009 23.7467 92.4836 23.996C92.1663 24.234 91.9509 24.557 91.8376 24.965C91.7583 25.2143 91.7073 25.5317 91.6846 25.917C91.6846 25.9623 91.7073 25.985 91.7526 25.985H95.6456C95.6909 25.985 95.7136 25.9623 95.7136 25.917C95.6909 25.543 95.6569 25.2653 95.6116 25.084C95.4983 24.642 95.2716 24.2907 94.9316 24.03C94.6029 23.758 94.1893 23.622 93.6906 23.622ZM102.315 31.102C101.635 31.102 101.034 31 100.513 30.796C100.003 30.592 99.6064 30.3143 99.323 29.963C99.0397 29.6003 98.898 29.2037 98.898 28.773V28.586C98.898 28.4727 98.9547 28.416 99.068 28.416H100.292C100.405 28.416 100.462 28.4727 100.462 28.586V28.671C100.462 28.9883 100.632 29.266 100.972 29.504C101.323 29.742 101.765 29.861 102.298 29.861C102.808 29.861 103.222 29.7533 103.539 29.538C103.856 29.3113 104.015 29.028 104.015 28.688C104.015 28.3593 103.868 28.1157 103.573 27.957C103.278 27.787 102.802 27.6113 102.145 27.43C101.499 27.2487 100.955 27.0673 100.513 26.886C100.082 26.6933 99.714 26.427 99.408 26.087C99.1134 25.7357 98.966 25.288 98.966 24.744C98.966 23.9847 99.2607 23.384 99.85 22.942C100.451 22.4887 101.244 22.262 102.23 22.262C102.887 22.262 103.465 22.3697 103.964 22.585C104.474 22.789 104.865 23.078 105.137 23.452C105.409 23.826 105.545 24.2453 105.545 24.71V24.761C105.545 24.8743 105.488 24.931 105.375 24.931H104.185C104.072 24.931 104.015 24.8743 104.015 24.761V24.71C104.015 24.3813 103.851 24.1093 103.522 23.894C103.205 23.6673 102.768 23.554 102.213 23.554C101.714 23.554 101.306 23.6503 100.989 23.843C100.683 24.0357 100.53 24.2963 100.53 24.625C100.53 24.9537 100.677 25.203 100.972 25.373C101.278 25.543 101.765 25.7243 102.434 25.917C103.091 26.0983 103.635 26.2797 104.066 26.461C104.508 26.631 104.882 26.8917 105.188 27.243C105.494 27.583 105.647 28.0307 105.647 28.586C105.647 29.3567 105.341 29.9687 104.729 30.422C104.128 30.8753 103.324 31.102 102.315 31.102ZM111.807 23.52C111.807 23.6333 111.75 23.69 111.637 23.69H109.801C109.755 23.69 109.733 23.7127 109.733 23.758V28.263C109.733 28.739 109.84 29.0847 110.056 29.3C110.271 29.504 110.605 29.606 111.059 29.606H111.552C111.665 29.606 111.722 29.6627 111.722 29.776V30.83C111.722 30.9433 111.665 31 111.552 31C111.189 31.0227 110.928 31.034 110.77 31.034C109.908 31.034 109.257 30.881 108.815 30.575C108.384 30.2577 108.169 29.6797 108.169 28.841V23.758C108.169 23.7127 108.146 23.69 108.101 23.69H107.064C106.95 23.69 106.894 23.6333 106.894 23.52V22.517C106.894 22.4037 106.95 22.347 107.064 22.347H108.101C108.146 22.347 108.169 22.3243 108.169 22.279V20.273C108.169 20.1597 108.225 20.103 108.339 20.103H109.563C109.676 20.103 109.733 20.1597 109.733 20.273V22.279C109.733 22.3243 109.755 22.347 109.801 22.347H111.637C111.75 22.347 111.807 22.4037 111.807 22.517V23.52ZM125.123 19.202C125.18 19.134 125.248 19.1 125.327 19.1H126.619C126.733 19.1 126.789 19.1567 126.789 19.27V30.83C126.789 30.9433 126.733 31 126.619 31H125.327C125.214 31 125.157 30.9433 125.157 30.83V22.126C125.157 22.092 125.146 22.0693 125.123 22.058C125.101 22.0467 125.084 22.058 125.072 22.092L122.641 25.798C122.596 25.866 122.528 25.9 122.437 25.9H121.791C121.712 25.9 121.644 25.866 121.587 25.798L119.139 22.126C119.128 22.092 119.111 22.0807 119.088 22.092C119.066 22.1033 119.054 22.126 119.054 22.16V30.83C119.054 30.9433 118.998 31 118.884 31H117.592C117.479 31 117.422 30.9433 117.422 30.83V19.27C117.422 19.1567 117.479 19.1 117.592 19.1H118.884C118.975 19.1 119.043 19.134 119.088 19.202L122.063 23.656C122.075 23.6673 122.092 23.673 122.114 23.673C122.137 23.673 122.154 23.6673 122.165 23.656L125.123 19.202ZM132.907 31.136C132.068 31.136 131.337 30.9263 130.714 30.507C130.09 30.0763 129.654 29.4813 129.405 28.722C129.201 28.11 129.099 27.4187 129.099 26.648C129.099 25.8433 129.195 25.1633 129.388 24.608C129.637 23.86 130.073 23.2763 130.697 22.857C131.32 22.4263 132.062 22.211 132.924 22.211C133.74 22.211 134.448 22.4263 135.049 22.857C135.661 23.2763 136.097 23.8543 136.358 24.591C136.562 25.169 136.664 25.849 136.664 26.631C136.664 27.4243 136.562 28.1213 136.358 28.722C136.108 29.4813 135.678 30.0763 135.066 30.507C134.454 30.9263 133.734 31.136 132.907 31.136ZM132.907 29.725C133.36 29.725 133.757 29.6003 134.097 29.351C134.437 29.0903 134.68 28.7277 134.828 28.263C134.952 27.8323 135.015 27.2997 135.015 26.665C135.015 26.0303 134.958 25.5033 134.845 25.084C134.697 24.6193 134.454 24.2623 134.114 24.013C133.774 23.7523 133.36 23.622 132.873 23.622C132.408 23.622 132.006 23.7523 131.666 24.013C131.326 24.2623 131.082 24.6193 130.935 25.084C130.81 25.4807 130.748 26.0077 130.748 26.665C130.748 27.3223 130.81 27.855 130.935 28.263C131.071 28.7277 131.309 29.0903 131.649 29.351C132 29.6003 132.419 29.725 132.907 29.725ZM145.787 24.591C145.969 25.169 146.059 25.8547 146.059 26.648C146.059 27.498 145.952 28.2233 145.736 28.824C145.487 29.5607 145.09 30.133 144.546 30.541C144.014 30.9377 143.339 31.136 142.523 31.136C142.127 31.136 141.758 31.0567 141.418 30.898C141.078 30.7393 140.784 30.5183 140.534 30.235C140.512 30.2123 140.489 30.2067 140.466 30.218C140.455 30.2293 140.449 30.2463 140.449 30.269V30.83C140.449 30.9433 140.393 31 140.279 31H138.987C138.874 31 138.817 30.9433 138.817 30.83V19.27C138.817 19.1567 138.874 19.1 138.987 19.1H140.279C140.393 19.1 140.449 19.1567 140.449 19.27V23.061C140.449 23.0837 140.455 23.1007 140.466 23.112C140.489 23.1233 140.512 23.1177 140.534 23.095C140.784 22.8117 141.078 22.5963 141.418 22.449C141.77 22.2903 142.138 22.211 142.523 22.211C143.373 22.211 144.07 22.4207 144.614 22.84C145.158 23.2593 145.549 23.843 145.787 24.591ZM143.985 28.79C144.269 28.2573 144.41 27.5547 144.41 26.682C144.41 25.7527 144.229 25.0047 143.866 24.438C143.538 23.894 143.033 23.622 142.353 23.622C141.719 23.622 141.237 23.911 140.908 24.489C140.614 25.0103 140.466 25.7357 140.466 26.665C140.466 27.5943 140.602 28.3083 140.874 28.807C141.214 29.419 141.713 29.725 142.37 29.725C143.118 29.725 143.657 29.4133 143.985 28.79ZM149.183 20.987C148.866 20.987 148.605 20.885 148.401 20.681C148.197 20.477 148.095 20.2163 148.095 19.899C148.095 19.5817 148.197 19.321 148.401 19.117C148.605 18.913 148.866 18.811 149.183 18.811C149.5 18.811 149.761 18.913 149.965 19.117C150.169 19.321 150.271 19.5817 150.271 19.899C150.271 20.2163 150.169 20.477 149.965 20.681C149.761 20.885 149.5 20.987 149.183 20.987ZM148.503 30.983C148.39 30.983 148.333 30.9263 148.333 30.813V22.517C148.333 22.4037 148.39 22.347 148.503 22.347H149.795C149.908 22.347 149.965 22.4037 149.965 22.517V30.813C149.965 30.9263 149.908 30.983 149.795 30.983H148.503ZM152.7 31C152.587 31 152.53 30.9433 152.53 30.83V19.27C152.53 19.1567 152.587 19.1 152.7 19.1H153.992C154.105 19.1 154.162 19.1567 154.162 19.27V30.83C154.162 30.9433 154.105 31 153.992 31H152.7ZM163.535 25.594C163.58 26.0587 163.597 26.58 163.586 27.158C163.586 27.2713 163.529 27.328 163.416 27.328H157.993C157.947 27.328 157.925 27.3507 157.925 27.396C157.925 27.7813 157.959 28.076 158.027 28.28C158.151 28.7333 158.401 29.0903 158.775 29.351C159.16 29.6003 159.642 29.725 160.22 29.725C161.058 29.725 161.704 29.3793 162.158 28.688C162.214 28.5747 162.288 28.5577 162.379 28.637L163.348 29.283C163.427 29.351 163.444 29.4247 163.399 29.504C163.081 30.014 162.628 30.4163 162.039 30.711C161.461 31.0057 160.803 31.153 160.067 31.153C159.239 31.153 158.542 30.9717 157.976 30.609C157.409 30.2463 156.984 29.7307 156.701 29.062C156.429 28.3933 156.293 27.583 156.293 26.631C156.293 25.8037 156.355 25.1747 156.48 24.744C156.684 23.962 157.092 23.3443 157.704 22.891C158.316 22.4377 159.058 22.211 159.931 22.211C161.075 22.211 161.931 22.5 162.498 23.078C163.064 23.6447 163.41 24.4833 163.535 25.594ZM159.931 23.622C159.443 23.622 159.041 23.7467 158.724 23.996C158.406 24.234 158.191 24.557 158.078 24.965C157.998 25.2143 157.947 25.5317 157.925 25.917C157.925 25.9623 157.947 25.985 157.993 25.985H161.886C161.931 25.985 161.954 25.9623 161.954 25.917C161.931 25.543 161.897 25.2653 161.852 25.084C161.738 24.642 161.512 24.2907 161.172 24.03C160.843 23.758 160.429 23.622 159.931 23.622ZM176.477 31C176.375 31 176.307 30.9547 176.273 30.864L175.661 28.875C175.65 28.841 175.627 28.824 175.593 28.824H170.816C170.782 28.824 170.76 28.841 170.748 28.875L170.136 30.864C170.102 30.9547 170.034 31 169.932 31H168.555C168.431 31 168.385 30.9377 168.419 30.813L172.142 19.236C172.176 19.1453 172.244 19.1 172.346 19.1H174.046C174.148 19.1 174.216 19.1453 174.25 19.236L178.007 30.813L178.024 30.881C178.024 30.9603 177.973 31 177.871 31H176.477ZM171.173 27.447C171.162 27.4697 171.162 27.4923 171.173 27.515C171.196 27.5263 171.219 27.532 171.241 27.532H175.151C175.174 27.532 175.191 27.5263 175.202 27.515C175.225 27.4923 175.231 27.4697 175.219 27.447L173.247 21.14C173.236 21.1173 173.219 21.106 173.196 21.106C173.174 21.106 173.157 21.1173 173.145 21.14L171.173 27.447ZM186.777 24.523C186.993 25.135 187.1 25.8603 187.1 26.699C187.1 27.4923 187.01 28.178 186.828 28.756C186.59 29.5153 186.199 30.1047 185.655 30.524C185.111 30.932 184.414 31.136 183.564 31.136C183.179 31.136 182.811 31.0623 182.459 30.915C182.119 30.7563 181.825 30.5353 181.575 30.252C181.553 30.2293 181.53 30.2237 181.507 30.235C181.496 30.2463 181.49 30.2633 181.49 30.286V34.077C181.49 34.1903 181.434 34.247 181.32 34.247H180.028C179.915 34.247 179.858 34.1903 179.858 34.077V22.517C179.858 22.4037 179.915 22.347 180.028 22.347H181.32C181.434 22.347 181.49 22.4037 181.49 22.517V23.078C181.49 23.1007 181.496 23.1177 181.507 23.129C181.53 23.1403 181.553 23.1347 181.575 23.112C181.825 22.8287 182.119 22.6077 182.459 22.449C182.799 22.2903 183.168 22.211 183.564 22.211C184.38 22.211 185.055 22.415 185.587 22.823C186.131 23.2197 186.528 23.7863 186.777 24.523ZM184.907 28.909C185.27 28.365 185.451 27.617 185.451 26.665C185.451 25.7923 185.31 25.0897 185.026 24.557C184.698 23.9337 184.159 23.622 183.411 23.622C182.754 23.622 182.255 23.928 181.915 24.54C181.643 25.0273 181.507 25.7413 181.507 26.682C181.507 27.634 181.655 28.3593 181.949 28.858C182.278 29.436 182.76 29.725 183.394 29.725C184.074 29.725 184.579 29.453 184.907 28.909ZM196.257 24.523C196.472 25.135 196.58 25.8603 196.58 26.699C196.58 27.4923 196.489 28.178 196.308 28.756C196.07 29.5153 195.679 30.1047 195.135 30.524C194.591 30.932 193.894 31.136 193.044 31.136C192.659 31.136 192.29 31.0623 191.939 30.915C191.599 30.7563 191.304 30.5353 191.055 30.252C191.032 30.2293 191.01 30.2237 190.987 30.235C190.976 30.2463 190.97 30.2633 190.97 30.286V34.077C190.97 34.1903 190.913 34.247 190.8 34.247H189.508C189.395 34.247 189.338 34.1903 189.338 34.077V22.517C189.338 22.4037 189.395 22.347 189.508 22.347H190.8C190.913 22.347 190.97 22.4037 190.97 22.517V23.078C190.97 23.1007 190.976 23.1177 190.987 23.129C191.01 23.1403 191.032 23.1347 191.055 23.112C191.304 22.8287 191.599 22.6077 191.939 22.449C192.279 22.2903 192.647 22.211 193.044 22.211C193.86 22.211 194.534 22.415 195.067 22.823C195.611 23.2197 196.008 23.7863 196.257 24.523ZM194.387 28.909C194.75 28.365 194.931 27.617 194.931 26.665C194.931 25.7923 194.789 25.0897 194.506 24.557C194.177 23.9337 193.639 23.622 192.891 23.622C192.234 23.622 191.735 23.928 191.395 24.54C191.123 25.0273 190.987 25.7413 190.987 26.682C190.987 27.634 191.134 28.3593 191.429 28.858C191.758 29.436 192.239 29.725 192.874 29.725C193.554 29.725 194.058 29.453 194.387 28.909ZM209.548 31C209.446 31 209.378 30.9547 209.344 30.864L208.732 28.875C208.72 28.841 208.698 28.824 208.664 28.824H203.887C203.853 28.824 203.83 28.841 203.819 28.875L203.207 30.864C203.173 30.9547 203.105 31 203.003 31H201.626C201.501 31 201.456 30.9377 201.49 30.813L205.213 19.236C205.247 19.1453 205.315 19.1 205.417 19.1H207.117C207.219 19.1 207.287 19.1453 207.321 19.236L211.078 30.813L211.095 30.881C211.095 30.9603 211.044 31 210.942 31H209.548ZM204.244 27.447C204.232 27.4697 204.232 27.4923 204.244 27.515C204.266 27.5263 204.289 27.532 204.312 27.532H208.222C208.244 27.532 208.261 27.5263 208.273 27.515C208.295 27.4923 208.301 27.4697 208.29 27.447L206.318 21.14C206.306 21.1173 206.289 21.106 206.267 21.106C206.244 21.106 206.227 21.1173 206.216 21.14L204.244 27.447ZM217.978 22.517C217.978 22.4037 218.034 22.347 218.148 22.347H219.423C219.536 22.347 219.593 22.4037 219.593 22.517V30.83C219.593 30.9433 219.536 31 219.423 31H218.148C218.034 31 217.978 30.9433 217.978 30.83V30.201C217.978 30.1783 217.966 30.167 217.944 30.167C217.932 30.1557 217.915 30.1613 217.893 30.184C217.439 30.8073 216.742 31.119 215.802 31.119C215.246 31.119 214.731 31.0113 214.255 30.796C213.79 30.5807 213.416 30.2633 213.133 29.844C212.849 29.4247 212.708 28.9147 212.708 28.314V22.517C212.708 22.4037 212.764 22.347 212.878 22.347H214.153C214.266 22.347 214.323 22.4037 214.323 22.517V27.804C214.323 28.3933 214.476 28.858 214.782 29.198C215.099 29.538 215.541 29.708 216.108 29.708C216.674 29.708 217.128 29.538 217.468 29.198C217.808 28.8467 217.978 28.382 217.978 27.804V22.517ZM227.346 19.27C227.346 19.1567 227.403 19.1 227.516 19.1H228.808C228.922 19.1 228.978 19.1567 228.978 19.27V30.83C228.978 30.9433 228.922 31 228.808 31H227.516C227.403 31 227.346 30.9433 227.346 30.83V30.269C227.346 30.2463 227.335 30.2293 227.312 30.218C227.301 30.2067 227.284 30.2123 227.261 30.235C227.012 30.5183 226.717 30.7393 226.377 30.898C226.037 31.0567 225.669 31.136 225.272 31.136C224.456 31.136 223.776 30.9377 223.232 30.541C222.7 30.133 222.309 29.5607 222.059 28.824C221.844 28.2233 221.736 27.498 221.736 26.648C221.736 25.8547 221.827 25.169 222.008 24.591C222.246 23.843 222.637 23.2593 223.181 22.84C223.725 22.4207 224.422 22.211 225.272 22.211C225.658 22.211 226.02 22.2903 226.36 22.449C226.712 22.5963 227.012 22.8117 227.261 23.095C227.284 23.1177 227.301 23.1233 227.312 23.112C227.335 23.1007 227.346 23.0837 227.346 23.061V19.27ZM226.921 28.807C227.182 28.331 227.312 27.617 227.312 26.665C227.312 25.713 227.171 24.9877 226.887 24.489C226.559 23.911 226.077 23.622 225.442 23.622C224.762 23.622 224.258 23.894 223.929 24.438C223.567 25.0047 223.385 25.7527 223.385 26.682C223.385 27.5547 223.527 28.2573 223.81 28.79C224.139 29.4133 224.677 29.725 225.425 29.725C226.083 29.725 226.581 29.419 226.921 28.807ZM232.357 20.987C232.039 20.987 231.779 20.885 231.575 20.681C231.371 20.477 231.269 20.2163 231.269 19.899C231.269 19.5817 231.371 19.321 231.575 19.117C231.779 18.913 232.039 18.811 232.357 18.811C232.674 18.811 232.935 18.913 233.139 19.117C233.343 19.321 233.445 19.5817 233.445 19.899C233.445 20.2163 233.343 20.477 233.139 20.681C232.935 20.885 232.674 20.987 232.357 20.987ZM231.677 30.983C231.563 30.983 231.507 30.9263 231.507 30.813V22.517C231.507 22.4037 231.563 22.347 231.677 22.347H232.969C233.082 22.347 233.139 22.4037 233.139 22.517V30.813C233.139 30.9263 233.082 30.983 232.969 30.983H231.677ZM239.971 23.52C239.971 23.6333 239.914 23.69 239.801 23.69H237.965C237.919 23.69 237.897 23.7127 237.897 23.758V28.263C237.897 28.739 238.004 29.0847 238.22 29.3C238.435 29.504 238.769 29.606 239.223 29.606H239.716C239.829 29.606 239.886 29.6627 239.886 29.776V30.83C239.886 30.9433 239.829 31 239.716 31C239.353 31.0227 239.092 31.034 238.934 31.034C238.072 31.034 237.421 30.881 236.979 30.575C236.548 30.2577 236.333 29.6797 236.333 28.841V23.758C236.333 23.7127 236.31 23.69 236.265 23.69H235.228C235.114 23.69 235.058 23.6333 235.058 23.52V22.517C235.058 22.4037 235.114 22.347 235.228 22.347H236.265C236.31 22.347 236.333 22.3243 236.333 22.279V20.273C236.333 20.1597 236.389 20.103 236.503 20.103H237.727C237.84 20.103 237.897 20.1597 237.897 20.273V22.279C237.897 22.3243 237.919 22.347 237.965 22.347H239.801C239.914 22.347 239.971 22.4037 239.971 22.517V23.52Z" fill="#0D0128"/>
<defs>
<linearGradient id="paint0_linear_4411_3918" x1="291" y1="24" x2="2" y2="24" gradientUnits="userSpaceOnUse">
<stop stop-color="#AA83FF"/>
<stop offset="1" stop-color="#D0FFCC"/>
</linearGradient>
<linearGradient id="paint1_linear_4411_3918" x1="291" y1="24" x2="2" y2="24" gradientUnits="userSpaceOnUse">
<stop stop-color="#C7ADFF"/>
<stop offset="1" stop-color="#776899" stop-opacity="0"/>
</linearGradient>
</defs>
</svg>
