<svg width="47" height="47" viewBox="0 0 47 47" fill="none" xmlns="http://www.w3.org/2000/svg">
<circle cx="23.5" cy="23.5" r="23.5" fill="black"/>
<path d="M18.8028 15.8545C18.8664 15.8187 18.9817 15.767 19.0573 15.7392C19.1646 15.7034 20.1467 15.6915 23.1408 15.6875C26.95 15.6875 27.0971 15.6915 27.2959 15.763C27.4271 15.8108 27.5623 15.9022 27.6538 16.0016C27.7452 16.101 27.8287 16.2482 27.8685 16.3754C27.9202 16.5504 27.9202 16.6179 27.8804 16.8207C27.8486 16.9718 27.785 17.115 27.7055 17.2184C27.6379 17.3058 27.5027 17.4212 27.4073 17.4768C27.2442 17.5683 27.1766 17.5762 26.6717 17.5882C26.3257 17.6001 26.0951 17.62 26.0633 17.6478C26.0235 17.6876 26.0116 18.2721 26.0156 20.6061C26.0156 22.7414 26.0275 23.5446 26.0633 23.6082C26.0872 23.6599 27.7611 26.3121 29.785 29.505C31.8089 32.698 33.5385 35.4456 33.626 35.6086C33.7175 35.7717 33.8208 35.9864 33.8566 36.0858C33.8964 36.1852 33.9441 36.38 33.9719 36.5232C34.0077 36.718 34.0077 36.8532 33.9759 37.0798C33.9481 37.2508 33.8845 37.4695 33.8208 37.5928C33.7572 37.7081 33.6141 37.891 33.5027 37.9984C33.3874 38.1057 33.1807 38.2449 33.0455 38.3125C32.9063 38.3761 32.6598 38.4636 32.4968 38.4994C32.2184 38.567 31.6498 38.5709 23.1726 38.5709C14.6596 38.5709 14.1268 38.567 13.8286 38.4994C13.6536 38.4596 13.3872 38.3721 13.2361 38.3006C13.0532 38.2171 12.9021 38.1057 12.7709 37.9626C12.6636 37.8512 12.5085 37.6166 12.429 37.4457C12.2898 37.1673 12.2779 37.1117 12.2819 36.8214C12.2858 36.5629 12.3097 36.4436 12.4131 36.1852C12.4846 36.0102 12.6159 35.7319 12.7033 35.5689C12.7908 35.4058 13.0175 35.0281 13.2123 34.7338C13.4031 34.4396 15.0334 31.8709 16.8306 29.0279C18.6318 26.1849 20.1467 23.7872 20.2899 23.5406V20.6181C20.2899 18.3118 20.2819 17.6836 20.2422 17.6438C20.2064 17.608 20.0394 17.5961 19.6815 17.5961C19.3117 17.5961 19.1368 17.5802 19.0294 17.5325C18.9459 17.5007 18.8147 17.4212 18.7392 17.3615C18.6636 17.3019 18.5602 17.1706 18.5125 17.0752C18.4516 16.9586 18.4211 16.8274 18.4211 16.6816C18.4211 16.5623 18.441 16.3993 18.4648 16.3237C18.4927 16.2482 18.5523 16.1249 18.6 16.0533C18.6517 15.9817 18.7432 15.8943 18.8028 15.8545Z" fill="#4770F6"/>
<path d="M22.6758 5.21076C22.7395 5.17895 22.8627 5.13521 22.9462 5.11135H22.9422C23.0257 5.09147 23.2086 5.08352 23.3518 5.09545C23.5108 5.1034 23.6898 5.15112 23.817 5.21076C23.9323 5.26643 24.1033 5.38572 24.1987 5.48115C24.2902 5.5726 24.4134 5.7396 24.4651 5.84696C24.5486 6.00999 24.5645 6.10542 24.5645 6.38376C24.5645 6.68198 24.5486 6.75355 24.4413 6.9802C24.3657 7.13925 24.2464 7.2983 24.1431 7.38976C24.0476 7.47326 23.8965 7.57664 23.8091 7.62038C23.7216 7.66014 23.5506 7.70786 23.4313 7.71979C23.3041 7.73569 23.1212 7.72774 22.9939 7.69593C22.8746 7.6681 22.7037 7.60448 22.6162 7.55278C22.5287 7.50507 22.3816 7.3818 22.2862 7.2824C22.1947 7.18299 22.0953 7.05177 22.0635 6.99213C22.0317 6.92851 21.988 6.78139 21.9641 6.6621C21.9402 6.52691 21.9363 6.3599 21.9562 6.22471C21.976 6.10542 22.0357 5.91854 22.0913 5.8072C22.143 5.69984 22.2703 5.53284 22.3737 5.44138C22.4731 5.34595 22.6122 5.24257 22.6758 5.21076Z" fill="#3971FF"/>
<path d="M17.6499 9.68009C17.7812 9.61647 17.968 9.54887 18.0674 9.52899C18.1668 9.50911 18.31 9.4932 18.3855 9.48923C18.4611 9.48923 18.648 9.51309 18.803 9.5449C18.9581 9.58068 19.1688 9.66021 19.2802 9.71985C19.3875 9.78347 19.5545 9.91071 19.646 9.99819C19.7414 10.0896 19.8647 10.2368 19.9243 10.3322C19.98 10.4237 20.0595 10.5986 20.1033 10.7179C20.147 10.8531 20.1748 11.0479 20.1748 11.2348C20.1748 11.4336 20.147 11.6126 20.0953 11.7716C20.0476 11.9028 19.972 12.0818 19.9203 12.1692C19.8687 12.2567 19.7295 12.4197 19.6142 12.5311C19.4949 12.6384 19.3001 12.7776 19.1808 12.8372C19.0615 12.8969 18.8388 12.9605 18.6838 12.9804C18.5048 13.0043 18.3179 13.0043 18.1668 12.9804C18.0356 12.9605 17.8169 12.8889 17.6778 12.8253C17.5426 12.7577 17.3358 12.6186 17.2205 12.5112C17.1092 12.4038 16.9621 12.2209 16.8984 12.1056C16.8348 11.9863 16.7593 11.8034 16.7275 11.6921C16.6996 11.5847 16.6758 11.3859 16.6758 11.2547C16.6758 11.1235 16.7116 10.9008 16.7513 10.7577C16.7951 10.6145 16.8825 10.4197 16.9462 10.3203C17.0058 10.2209 17.137 10.0618 17.2364 9.96638C17.3319 9.87095 17.5187 9.74371 17.6499 9.68009Z" fill="#3971FF"/>
<path d="M26.2226 9.79142C26.3419 9.70792 26.5367 9.60852 26.656 9.56478C26.7952 9.51706 26.99 9.48923 27.1928 9.48923C27.4154 9.48525 27.5824 9.50911 27.7494 9.56478C27.8807 9.61249 28.0596 9.68804 28.1471 9.73973C28.2345 9.79142 28.3936 9.91867 28.5009 10.026C28.6083 10.1334 28.7475 10.3282 28.8071 10.4594C28.8707 10.5907 28.9423 10.8213 28.9701 10.9764C29.0019 11.1831 29.0019 11.3183 28.9701 11.5132C28.9423 11.6563 28.8668 11.8869 28.7992 12.0301C28.7196 12.1931 28.5924 12.368 28.4493 12.5072C28.326 12.6265 28.1272 12.7736 28.0079 12.8372C27.8886 12.8969 27.6739 12.9645 27.5308 12.9883C27.3876 13.0122 27.1809 13.0202 27.0735 13.0043C26.9622 12.9923 26.7952 12.9565 26.6958 12.9287C26.5964 12.8969 26.4373 12.8253 26.3379 12.7697C26.2385 12.714 26.0715 12.5828 25.9641 12.4794C25.8449 12.3601 25.7176 12.1772 25.6262 11.9903C25.5029 11.7358 25.479 11.6444 25.4671 11.3541C25.4592 11.1235 25.4751 10.9445 25.5188 10.7895C25.5546 10.6622 25.6222 10.4912 25.6699 10.4117C25.7176 10.3282 25.813 10.1891 25.8806 10.1016C25.9522 10.0141 26.1033 9.87493 26.2226 9.79142Z" fill="#3971FF"/>
<path d="M22.1969 20.8841C22.1889 18.1882 22.1969 17.6832 22.2446 17.6434C22.2844 17.6076 22.5548 17.5957 23.187 17.5957C23.9385 17.5957 24.0776 17.6037 24.0935 17.6553C24.1055 17.6872 24.1134 19.1186 24.1134 20.8364C24.1134 23.576 24.1214 23.9776 24.177 24.1088C24.2088 24.1884 24.6741 24.9518 25.2069 25.8067C25.7437 26.6616 26.686 28.1527 28.4316 30.8963L25.8073 30.9083C24.3599 30.9122 21.9862 30.9122 17.8867 30.8963L19.7873 27.9141C20.8331 26.2759 21.8072 24.7411 22.2049 24.077L22.1969 20.8841Z" fill="#F7F8F9"/>
</svg>
