<svg width="203" height="26" viewBox="0 0 203 26" fill="none" xmlns="http://www.w3.org/2000/svg">
<g clip-path="url(#clip0_1778_1368)">
<path d="M32.4892 14.0791H30.3212L28.821 9.75575C28.7027 9.41694 28.3634 9.19604 27.9926 9.21641C27.6218 9.23679 27.3111 9.4938 27.234 9.84339L25.3911 18.294L23.401 5.50336C23.3356 5.11445 22.9835 4.83064 22.5743 4.83705C22.1651 4.84345 21.823 5.13775 21.7703 5.52839L20.1011 19.8042L17.933 1.48419C17.8898 1.07986 17.5358 0.772461 17.1134 0.772461C16.6911 0.772461 16.3372 1.07986 16.2939 1.48419L14.126 19.8042L12.4826 5.52839C12.4372 5.13105 12.0918 4.82802 11.6766 4.82161C11.2613 4.81521 10.9059 5.10746 10.8478 5.50335L8.90519 18.0227L7.03206 8.11527C6.96401 7.74852 6.63916 7.47661 6.25235 7.46264C5.86519 7.44867 5.52039 7.69579 5.42361 8.05677L3.89709 13.7071H1.39967C1.04035 13.7071 0.749084 13.9875 0.749084 14.3333C0.749084 14.6788 1.04035 14.9591 1.39967 14.9591H4.26581C4.64146 14.9574 4.96903 14.7126 5.06372 14.3624L6.13899 10.3811L8.14218 20.9563C8.21357 21.3387 8.56256 21.6153 8.96639 21.6089C9.37022 21.6028 9.70985 21.3157 9.7682 20.9312L11.5981 9.15484L13.3324 23.9858C13.3759 24.3901 13.7298 24.6975 14.152 24.6975C14.5743 24.6975 14.9281 24.3901 14.9714 23.9858L17.1264 5.64045L19.2944 23.9768C19.3468 24.3733 19.697 24.6702 20.112 24.6702C20.5271 24.6702 20.8772 24.3733 20.9293 23.9768L22.6636 9.14585L24.498 21.0102C24.5621 21.3851 24.8939 21.6637 25.2886 21.6739C25.6833 21.6841 26.0302 21.4232 26.1152 21.0521L28.1444 11.7587L29.2372 14.9011C29.327 15.1538 29.5753 15.3217 29.853 15.3182H32.4892C32.8098 15.2743 33.0479 15.0102 33.0479 14.6985C33.0479 14.387 32.8098 14.1231 32.4892 14.0791Z" fill="white" stroke="white" stroke-width="1.04022"/>
<path d="M56.5786 8.55933V11.4108C56.5786 13.2957 55.5593 14.5618 53.5208 15.2089C54.6371 16.8106 55.7656 18.8167 56.9062 21.2274C55.2156 21.3407 53.5248 21.3407 51.8342 21.2274C50.734 18.9543 49.7066 17.1139 48.7521 15.7064H45.4273V21.2274C43.8498 21.3326 42.2684 21.3326 40.6828 21.2274V4.25171H49.2738C50.4306 4.25171 51.4458 4.32856 52.3195 4.48226C53.1932 4.63596 53.9536 4.88269 54.6007 5.22245C55.2479 5.55411 55.7373 5.99903 56.069 6.5572C56.4088 7.11538 56.5786 7.78276 56.5786 8.55933ZM51.8342 10.3188V9.69995C51.8342 9.37635 51.7694 9.10945 51.64 8.89911C51.5106 8.68877 51.3124 8.53506 51.0455 8.43798C50.7866 8.33281 50.5156 8.26405 50.2324 8.23176C49.9574 8.1994 49.6136 8.18322 49.201 8.18322H45.4273V11.8356H49.201C49.6136 11.8356 49.9574 11.8194 50.2324 11.787C50.5156 11.7547 50.7866 11.69 51.0455 11.5929C51.3124 11.4877 51.5106 11.33 51.64 11.1197C51.7694 10.9093 51.8342 10.6424 51.8342 10.3188Z" fill="white"/>
<path d="M73.2635 21.2274H59.5034V4.25171H73.2635C73.4011 5.51366 73.4011 6.77562 73.2635 8.0376H64.2479V10.8406H73.0208C73.1584 12.0945 73.1584 13.3443 73.0208 14.59H64.2479V17.4295H73.2635C73.4011 18.6914 73.4011 19.9574 73.2635 21.2274Z" fill="white"/>
<path d="M90.3007 15.5631V17.5288C90.3007 20.1983 87.6999 21.5331 82.4983 21.5331C80.0391 21.5331 77.7701 21.3996 75.6915 21.1326C75.6023 20.5907 75.5574 19.9434 75.5574 19.1911C75.5574 18.4308 75.6023 17.7755 75.6915 17.2254C78.3042 17.4924 80.5485 17.6259 82.4257 17.6259C83.4691 17.6259 84.2542 17.5733 84.7793 17.4681C85.3134 17.3549 85.5808 17.1243 85.5808 16.7764V16.0848C85.5808 15.745 85.4871 15.5226 85.3014 15.4174C85.1156 15.3123 84.5568 15.1586 83.6272 14.9563C83.1822 14.8592 82.8219 14.7783 82.547 14.7136L78.9432 13.9006C78.4496 13.7874 78.0166 13.6377 77.6451 13.4517C77.2728 13.2656 76.9289 13.0149 76.6136 12.6993C76.2975 12.3758 76.0548 11.9632 75.8855 11.4616C75.7154 10.952 75.6308 10.3575 75.6308 9.67794V7.93064C75.6308 5.26919 78.2353 3.93848 83.4452 3.93848C85.7426 3.93848 87.9509 4.12858 90.07 4.50879C90.1509 5.04268 90.1914 5.67366 90.1914 6.40172C90.1914 7.12168 90.1509 7.74861 90.07 8.28248C87.7568 7.96705 85.5965 7.80929 83.5905 7.80929C82.4496 7.80929 81.6249 7.86187 81.1148 7.96705C80.6137 8.06413 80.3627 8.29462 80.3627 8.65867V9.20475C80.3627 9.57681 80.5365 9.84783 80.8848 10.0177C81.2324 10.1876 82.0781 10.4302 83.4204 10.7457L87.0123 11.6073C87.5621 11.7367 88.0153 11.8823 88.3711 12.0441C88.7351 12.2059 89.0752 12.4324 89.3906 12.7236C89.706 13.0149 89.9367 13.3951 90.082 13.8642C90.2281 14.3254 90.3007 14.8916 90.3007 15.5631Z" fill="white"/>
<path d="M109.497 8.75575V16.6794C109.497 17.5692 109.299 18.3337 108.902 18.9727C108.506 19.6037 107.928 20.1052 107.167 20.4774C106.407 20.8414 105.525 21.1083 104.522 21.2782C103.527 21.4481 102.374 21.5331 101.064 21.5331C100.02 21.5331 99.0781 21.4805 98.2369 21.3753C97.3957 21.2701 96.6189 21.1002 95.9065 20.8657C95.2031 20.6311 94.6128 20.3277 94.1349 19.9556C93.666 19.5835 93.2982 19.1224 93.0308 18.5723C92.7723 18.0222 92.6428 17.3913 92.6428 16.6794V8.75575C92.6428 8.0439 92.7723 7.41695 93.0308 6.87495C93.2982 6.32487 93.666 5.86782 94.1349 5.50379C94.6128 5.13167 95.2031 4.82831 95.9065 4.59372C96.6189 4.35913 97.3957 4.1933 98.2369 4.09622C99.0781 3.99105 100.02 3.93848 101.064 3.93848C102.374 3.93848 103.527 4.02341 104.522 4.1933C105.525 4.35508 106.407 4.62203 107.167 4.99415C107.928 5.35817 108.506 5.85568 108.902 6.48666C109.299 7.11764 109.497 7.87401 109.497 8.75575ZM104.74 15.6358V9.75075C104.74 9.41097 104.676 9.12385 104.546 8.88923C104.417 8.65462 104.251 8.4726 104.049 8.34316C103.855 8.2057 103.588 8.10053 103.248 8.02772C102.908 7.95491 102.576 7.91042 102.253 7.89424C101.937 7.86997 101.541 7.85783 101.064 7.85783C100.587 7.85783 100.186 7.86997 99.8624 7.89424C99.547 7.91042 99.2197 7.95491 98.8796 8.02772C98.5402 8.10053 98.2691 8.2057 98.0668 8.34316C97.8728 8.4726 97.711 8.65462 97.5814 8.88923C97.4518 9.12385 97.3874 9.41097 97.3874 9.75075V15.6358C97.3874 15.9675 97.4518 16.2506 97.5814 16.4853C97.711 16.7198 97.8728 16.9059 98.0668 17.0434C98.2691 17.1728 98.5402 17.278 98.8796 17.3589C99.2197 17.4317 99.5515 17.4803 99.8744 17.5045C100.198 17.5207 100.595 17.5288 101.064 17.5288C101.533 17.5288 101.929 17.5207 102.253 17.5045C102.576 17.4803 102.908 17.4317 103.248 17.3589C103.588 17.278 103.855 17.1728 104.049 17.0434C104.251 16.9059 104.417 16.7198 104.546 16.4853C104.676 16.2506 104.74 15.9675 104.74 15.6358Z" fill="white"/>
<path d="M124.095 21.227L117.118 11.1071V21.227C115.54 21.3807 113.959 21.3807 112.373 21.227V4.25127C114.064 4.1542 115.751 4.1542 117.433 4.25127L124.52 14.6381V4.25127C126.162 4.1542 127.743 4.1542 129.264 4.25127V21.227C127.541 21.3241 125.818 21.3241 124.095 21.227Z" fill="white"/>
<path d="M145.076 21.2272L143.984 18.4H137.079L135.975 21.2272C134.357 21.3405 132.735 21.3405 131.11 21.2272L138.269 4.25148C139.789 4.14632 141.314 4.14632 142.843 4.25148L149.99 21.2272C148.348 21.3405 146.71 21.3405 145.076 21.2272ZM142.54 14.6626L140.526 9.39635L138.487 14.6626H142.54Z" fill="white"/>
<path d="M163.557 21.227L156.58 11.1071V21.227C155.002 21.3807 153.421 21.3807 151.835 21.227V4.25127C153.526 4.1542 155.213 4.1542 156.895 4.25127L163.981 14.6381V4.25127C165.623 4.1542 167.205 4.1542 168.726 4.25127V21.227C167.003 21.3241 165.28 21.3241 163.557 21.227Z" fill="white"/>
<path d="M171.614 16.8007V8.65867C171.614 7.78502 171.816 7.03674 172.221 6.41385C172.625 5.79096 173.216 5.30155 173.992 4.94561C174.769 4.58968 175.663 4.33486 176.674 4.18116C177.685 4.01937 178.858 3.93848 180.193 3.93848C182.029 3.93848 184.007 4.09622 186.126 4.41171C186.264 5.66558 186.264 6.92349 186.126 8.18548C184.282 7.96705 182.583 7.85783 181.03 7.85783C180.488 7.85783 180.055 7.86188 179.732 7.86997C179.417 7.87806 179.052 7.90232 178.64 7.94277C178.227 7.97514 177.903 8.03177 177.669 8.11267C177.442 8.18548 177.216 8.29057 176.99 8.4281C176.763 8.55754 176.601 8.72743 176.504 8.93778C176.407 9.14812 176.358 9.39479 176.358 9.67794V15.6601C176.358 15.919 176.398 16.1455 176.479 16.3396C176.569 16.5338 176.678 16.6996 176.807 16.8371C176.937 16.9665 177.123 17.0798 177.366 17.1769C177.608 17.2659 177.839 17.3346 178.057 17.3832C178.276 17.4317 178.567 17.4722 178.931 17.5045C179.303 17.5288 179.631 17.545 179.914 17.5531C180.197 17.5531 180.569 17.5531 181.03 17.5531C182.348 17.5531 184.056 17.3953 186.151 17.0798C186.385 18.2042 186.503 19.4541 186.503 20.8293C184.084 21.2985 181.981 21.5331 180.193 21.5331C178.858 21.5331 177.685 21.4522 176.674 21.2904C175.663 21.1286 174.769 20.8698 173.992 20.5138C173.216 20.1578 172.625 19.6685 172.221 19.0455C171.816 18.4227 171.614 17.6744 171.614 16.8007Z" fill="white"/>
<path d="M202.897 21.2274H189.136V4.25171H202.897C203.035 5.51366 203.035 6.77562 202.897 8.0376H193.881V10.8406H202.654C202.792 12.0945 202.792 13.3443 202.654 14.59H193.881V17.4295H202.897C203.035 18.6914 203.035 19.9574 202.897 21.2274Z" fill="white"/>
</g>
<defs>
<clipPath id="clip0_1778_1368">
<rect width="203" height="25.4686" fill="white"/>
</clipPath>
</defs>
</svg>
