<svg width="47" height="47" viewBox="0 0 47 47" fill="none" xmlns="http://www.w3.org/2000/svg">
<circle cx="23.5" cy="23.5" r="23.5" fill="black"/>
<path d="M23.9998 16.9058C26.1829 16.9058 27.9527 15.136 27.9527 12.9529C27.9527 10.7698 26.1829 9 23.9998 9C21.8167 9 20.0469 10.7698 20.0469 12.9529C20.0469 15.136 21.8167 16.9058 23.9998 16.9058Z" fill="#FF9100"/>
<path d="M34.9835 25.1678C33.0932 24.0798 30.6729 24.7232 29.5849 26.6135C29.2124 27.2583 29.0402 27.9738 29.0549 28.6761C29.0976 30.4236 27.5223 31.3261 26.0339 30.4236C25.9765 30.3956 25.9191 30.3515 25.8484 30.3235C24.3453 29.4785 24.3453 27.6882 25.8484 26.8579C27.0806 26.1851 27.9242 24.8822 27.9242 23.3776V23.2922C27.8815 21.5447 29.4568 20.6422 30.9452 21.5447C32.1333 22.2749 33.6806 22.3323 34.9688 21.5874C36.8591 20.4994 37.504 18.0791 36.4145 16.1887C35.3265 14.2984 32.9062 13.6536 31.0159 14.743C29.7277 15.4879 29.0107 16.863 29.0402 18.2513C29.0829 19.9988 27.5076 20.9013 26.0324 19.9988C25.4303 19.6264 24.7295 19.4114 23.9698 19.4114C23.2102 19.4114 22.5094 19.6264 21.9073 19.9841C20.4174 20.8719 18.8568 19.9694 18.8995 18.2366C18.9275 16.8336 18.212 15.4732 16.9238 14.7283C15.0335 13.6403 12.6131 14.2984 11.5252 16.1887C10.4372 18.0791 11.0953 20.4994 12.9856 21.5874C14.2738 22.3323 15.8211 22.2602 17.0092 21.5447C18.4991 20.6422 20.0596 21.5447 20.0169 23.2922V23.3776C20.0169 24.8807 20.8473 26.1851 22.0928 26.8579C23.5959 27.703 23.5959 29.4932 22.0928 30.3235C22.0353 30.3515 21.9779 30.3956 21.9205 30.4236C20.4306 31.3114 18.8701 30.4089 18.9128 28.6761C18.9275 27.9738 18.7552 27.2583 18.3828 26.6003C17.2948 24.7099 14.8745 24.0651 12.9841 25.1545C11.0938 26.272 10.449 28.6923 11.5384 30.5826C12.6264 32.473 15.0467 33.1178 16.937 32.0283C16.965 32.0136 16.9797 32.0004 17.0092 31.9856C18.4991 31.0832 20.0596 31.9856 20.0169 33.7332V33.8333C20.0169 36.0107 21.7924 37.7862 23.9698 37.7862C26.1472 37.7862 27.9227 36.0107 27.9227 33.8333V33.7479C27.8801 32.0004 29.4553 31.0979 30.9437 32.0004C30.9717 32.0151 31.0012 32.0283 31.0291 32.0578C32.9195 33.1458 35.3398 32.5024 36.4278 30.6121C37.5157 28.679 36.8724 26.2587 34.982 25.1707L34.9835 25.1678Z" fill="#FF9100"/>
</svg>
