<svg width="176" height="29" viewBox="0 0 176 29" fill="none" xmlns="http://www.w3.org/2000/svg">
<path d="M31.9451 25.2048V3.96802H40.8388C42.414 3.96802 43.7596 4.21093 44.8491 4.69824C45.9371 5.18554 46.7674 5.85835 47.3268 6.71813C47.8848 7.5779 48.1572 8.58048 48.1572 9.72587C48.1572 10.6136 47.9996 11.4013 47.6699 12.1168C47.3401 12.8323 46.8542 13.4197 46.1947 13.907C45.5366 14.3943 44.749 14.7226 43.8038 14.9096V15.0951C44.5193 15.2673 45.1214 15.5529 45.6087 15.9548C46.0961 16.3553 46.4965 16.8426 46.8115 17.4006C47.1413 17.9733 47.4269 18.6608 47.6846 19.4911L49.5028 25.1901H44.9772L43.3739 20.1212C43.1443 19.3056 42.8734 18.6755 42.5583 18.2162C42.2433 17.7583 41.8428 17.4285 41.3261 17.2283C40.8108 17.0281 40.1512 16.9133 39.3209 16.9133H36.3706V25.1768H31.9451V25.2048ZM40.0791 13.5198C40.824 13.5198 41.4689 13.405 42.0268 13.19C42.5716 12.9751 43 12.632 43.3018 12.1727C43.6021 11.7148 43.7596 11.1421 43.7596 10.4826C43.7596 9.82304 43.6021 9.25034 43.3018 8.80721C43.0014 8.3626 42.5716 8.03429 42.0268 7.83407C41.4821 7.63385 40.824 7.51901 40.0791 7.51901H36.3706V13.533H40.0791V13.5183V13.5198Z" fill="#8A94A6"/>
<path d="M58.2655 25.5642C56.6622 25.5642 55.2151 25.2064 53.9269 24.5042C52.6239 23.8019 51.6066 22.7993 50.8617 21.5112C50.1168 20.223 49.7443 18.7478 49.7443 17.0857C49.7443 15.4235 50.1168 13.9631 50.847 12.6749C51.5772 11.3867 52.6078 10.3694 53.8974 9.65389C55.2003 8.92367 56.6608 8.56592 58.2935 8.56592C59.9262 8.56592 61.3866 8.92367 62.6763 9.65389C63.9645 10.3694 64.9818 11.3867 65.712 12.6749C66.4422 13.9631 66.8147 15.4382 66.8147 17.1004C66.8147 18.7625 66.4422 20.223 65.6973 21.5112C64.9523 22.7993 63.9365 23.8019 62.6468 24.5189C61.3439 25.2064 59.8835 25.5642 58.264 25.5642H58.2655ZM58.2655 22.0264C59.0811 22.0264 59.8128 21.8262 60.4562 21.4243C61.101 21.0238 61.6163 20.4512 62.0035 19.7062C62.3759 18.9613 62.5762 18.0882 62.5762 17.0857C62.5762 16.0831 62.3907 15.2233 62.0182 14.4651C61.6457 13.7202 61.1304 13.1327 60.4856 12.7323C59.8408 12.3319 59.0958 12.1169 58.2802 12.1169C57.4646 12.1169 56.7329 12.3171 56.0896 12.7323C55.4447 13.1327 54.9294 13.7202 54.557 14.4651C54.1845 15.21 53.999 16.0978 53.999 17.1004C53.999 18.103 54.1845 18.9627 54.5717 19.7062C54.9442 20.4512 55.4594 21.0238 56.1043 21.4243C56.7197 21.8247 57.4499 22.0264 58.267 22.0264H58.2655Z" fill="#8A94A6"/>
<path d="M76.5401 25.5642C74.9369 25.5642 73.4897 25.2064 72.2015 24.5042C70.8986 23.8019 69.8813 22.7993 69.1363 21.5112C68.3914 20.223 68.0189 18.7478 68.0189 17.0857C68.0189 15.4235 68.3914 13.9631 69.1216 12.6749C69.8518 11.3867 70.8824 10.3694 72.1721 9.65389C73.475 8.92367 74.9354 8.56592 76.5681 8.56592C78.2008 8.56592 79.6612 8.92367 80.9509 9.65389C82.2391 10.3694 83.2564 11.3867 83.9866 12.6749C84.7168 13.9631 85.0893 15.4382 85.0893 17.1004C85.0893 18.7625 84.7168 20.223 83.9719 21.5112C83.227 22.7993 82.2111 23.8019 80.9215 24.5189C79.6185 25.2064 78.1581 25.5642 76.5387 25.5642H76.5401ZM76.5401 22.0264C77.3557 22.0264 78.0874 21.8262 78.7308 21.4243C79.3756 21.0238 79.8909 20.4512 80.2781 19.7062C80.6506 18.9613 80.8508 18.0882 80.8508 17.0857C80.8508 16.0831 80.6653 15.2233 80.2928 14.4651C79.9203 13.7202 79.4051 13.1327 78.7602 12.7323C78.1154 12.3319 77.3705 12.1169 76.5549 12.1169C75.7392 12.1169 75.0076 12.3171 74.3642 12.7323C73.7194 13.1327 73.2041 13.7202 72.8316 14.4651C72.4591 15.21 72.2736 16.0978 72.2736 17.1004C72.2736 18.103 72.4591 18.9627 72.8463 19.7062C73.2188 20.4512 73.7341 21.0238 74.3789 21.4243C74.9943 21.8247 75.7245 22.0264 76.5416 22.0264H76.5401Z" fill="#8A94A6"/>
<path d="M93.824 25.4593C92.4637 25.4593 91.3757 25.2443 90.5881 24.8144C89.7857 24.3845 89.2277 23.7971 88.9127 23.0816C88.5829 22.3514 88.4254 21.4916 88.4254 20.5038V12.2122H85.5472V8.87616H88.4254V4.79517H92.6212V8.87616H96.4019V12.199H92.6212V20.2756C92.6212 20.8335 92.7934 21.2634 93.1365 21.5638C93.4795 21.8641 94.0389 22.0084 94.8119 22.0084C95.2992 22.0084 95.8144 21.9509 96.3592 21.8508V25.0588C95.5715 25.3312 94.7265 25.4593 93.824 25.4593Z" fill="#8A94A6"/>
<path d="M104.365 25.5721C102.56 25.5721 101.057 25.1717 99.8541 24.3693C98.6513 23.567 97.8342 22.4216 97.4058 20.9184L100.843 19.7583C101.13 20.6034 101.574 21.2615 102.161 21.7208C102.748 22.1787 103.479 22.4083 104.324 22.4083C105.169 22.4083 105.827 22.2508 106.271 21.9505C106.716 21.6501 106.93 21.235 106.93 20.7477C106.93 20.3472 106.829 20.0174 106.629 19.7878C106.429 19.5449 106.085 19.3432 105.612 19.1577C105.139 18.9854 104.452 18.7999 103.579 18.5997C102.204 18.2994 101.116 17.9549 100.328 17.5691C99.5405 17.1819 98.9531 16.6961 98.5806 16.0793C98.2081 15.4639 98.0079 14.7042 98.0079 13.759C98.0079 12.7138 98.2803 11.8113 98.8103 11.0236C99.3403 10.236 100.098 9.63387 101.101 9.19073C102.104 8.76084 103.249 8.5459 104.552 8.5459C105.697 8.5459 106.715 8.70343 107.602 9.0332C108.49 9.36298 109.206 9.84881 109.78 10.4936C110.352 11.1385 110.753 11.9261 110.968 12.8418L107.56 13.9872C107.317 13.2717 106.93 12.7123 106.429 12.2971C105.914 11.8967 105.298 11.6817 104.581 11.6817C104.081 11.6817 103.651 11.7391 103.278 11.8672C102.906 11.9968 102.62 12.1823 102.419 12.4252C102.218 12.6681 102.118 12.9552 102.118 13.285C102.118 13.6574 102.204 13.9578 102.391 14.1727C102.563 14.3877 102.891 14.5732 103.351 14.7307C103.808 14.8882 104.481 15.0605 105.356 15.246C106.801 15.561 107.948 15.9041 108.764 16.2913C109.58 16.6637 110.196 17.1643 110.582 17.7664C110.969 18.3818 111.17 19.1562 111.17 20.1293C111.17 21.232 110.912 22.1772 110.382 22.9928C109.852 23.7952 109.079 24.4253 108.062 24.8831C107.044 25.341 105.814 25.5707 104.366 25.5707L104.365 25.5721Z" fill="#8A94A6"/>
<path d="M120.016 25.4593C118.656 25.4593 117.568 25.2443 116.78 24.8144C115.978 24.3845 115.42 23.7971 115.105 23.0816C114.775 22.3514 114.618 21.4916 114.618 20.5038V12.2122H111.739V8.87616H114.618V4.79517H118.814V8.87616H122.594V12.199H118.814V20.2756C118.814 20.8335 118.986 21.2634 119.329 21.5638C119.672 21.8641 120.231 22.0084 121.004 22.0084C121.491 22.0084 122.007 21.9509 122.551 21.8508V25.0588C121.764 25.3312 120.919 25.4593 120.016 25.4593Z" fill="#8A94A6"/>
<path d="M132.138 25.5642C130.534 25.5642 129.087 25.2064 127.799 24.5042C126.496 23.8019 125.479 22.7993 124.734 21.5112C123.989 20.223 123.616 18.7478 123.616 17.0857C123.616 15.4235 123.989 13.9631 124.719 12.6749C125.449 11.3867 126.48 10.3694 127.77 9.65389C129.073 8.92367 130.533 8.56592 132.166 8.56592C133.798 8.56592 135.259 8.92367 136.548 9.65389C137.837 10.3694 138.854 11.3867 139.584 12.6749C140.314 13.9631 140.687 15.4382 140.687 17.1004C140.687 18.7625 140.314 20.223 139.569 21.5112C138.825 22.7993 137.809 23.8019 136.519 24.5189C135.216 25.2064 133.769 25.5642 132.136 25.5642H132.138ZM132.138 22.0264C132.953 22.0264 133.685 21.8262 134.328 21.4243C134.973 21.0238 135.488 20.4512 135.876 19.7062C136.248 18.9613 136.448 18.0882 136.448 17.0857C136.448 16.0831 136.263 15.2233 135.89 14.4651C135.518 13.7202 135.003 13.1327 134.358 12.7323C133.713 12.3319 132.968 12.1169 132.152 12.1169C131.337 12.1169 130.605 12.3171 129.962 12.7323C129.317 13.1327 128.802 13.7202 128.429 14.4651C128.057 15.21 127.871 16.0978 127.871 17.1004C127.871 18.103 128.057 18.9627 128.444 19.7062C128.816 20.4512 129.332 21.0238 129.976 21.4243C130.607 21.8247 131.322 22.0264 132.139 22.0264H132.138Z" fill="#8A94A6"/>
<path d="M150.78 25.5764C149.263 25.5764 147.86 25.2613 146.57 24.6165C145.267 23.9716 144.235 23.0132 143.447 21.7383C142.66 20.4633 142.272 18.9308 142.272 17.1553C142.272 15.3798 142.645 13.8752 143.403 12.5722C144.163 11.2693 145.179 10.2815 146.468 9.57921C147.756 8.87696 149.189 8.53394 150.75 8.53394C152.038 8.53394 153.198 8.77685 154.23 9.26416C155.26 9.75146 156.135 10.4095 156.822 11.2546C157.51 12.0997 158.011 13.0595 158.298 14.1328L154.674 15.1781C154.502 14.5759 154.23 14.0474 153.887 13.5881C153.544 13.1302 153.114 12.7577 152.612 12.4854C152.111 12.213 151.524 12.0849 150.879 12.0849C150.019 12.0849 149.246 12.2999 148.574 12.715C147.901 13.1302 147.371 13.7176 146.998 14.4758C146.626 15.2355 146.426 16.1085 146.426 17.0816C146.426 18.0548 146.626 18.972 147.028 19.7169C147.428 20.4619 147.973 21.0346 148.646 21.4218C149.319 21.8089 150.049 22.0092 150.851 22.0092C151.496 22.0092 152.069 21.8796 152.584 21.622C153.099 21.3643 153.529 21.0066 153.887 20.5767C154.245 20.1321 154.517 19.6463 154.702 19.1163L158.311 20.191C158.053 21.1509 157.595 22.0386 156.936 22.8689C156.278 23.6846 155.418 24.3441 154.358 24.8447C153.313 25.3172 152.125 25.5749 150.777 25.5749L150.78 25.5764Z" fill="#8A94A6"/>
<path d="M160.361 25.2048V3.96802H164.557V15.3954L171.144 8.87934H175.999L168.983 15.6678L175.957 25.2048H171.058L166.003 18.2162L164.542 19.5912V25.2048H160.361Z" fill="#8A94A6"/>
<path d="M12.9999 7.90485C15.183 7.90485 16.9528 6.13507 16.9528 3.95194C16.9528 1.7688 15.183 -0.000976562 12.9999 -0.000976562C10.8168 -0.000976562 9.04697 1.7688 9.04697 3.95194C9.04697 6.13507 10.8168 7.90485 12.9999 7.90485Z" fill="#8A94A6"/>
<path d="M23.9835 16.1678C22.0932 15.0798 19.6729 15.7232 18.5849 17.6135C18.2124 18.2583 18.0402 18.9738 18.0549 19.6761C18.0976 21.4236 16.5223 22.3261 15.0339 21.4236C14.9765 21.3956 14.9191 21.3515 14.8484 21.3235C13.3453 20.4785 13.3453 18.6882 14.8484 17.8579C16.0806 17.1851 16.9242 15.8822 16.9242 14.3776V14.2922C16.8815 12.5447 18.4568 11.6422 19.9452 12.5447C21.1333 13.2749 22.6806 13.3323 23.9688 12.5874C25.8591 11.4994 26.504 9.07905 25.4145 7.18872C24.3265 5.29839 21.9062 4.65356 20.0159 5.743C18.7277 6.48794 18.0107 7.863 18.0402 9.2513C18.0829 10.9988 16.5076 11.9013 15.0324 10.9988C14.4303 10.6264 13.7295 10.4114 12.9698 10.4114C12.2102 10.4114 11.5094 10.6264 10.9073 10.9841C9.41737 11.8719 7.85681 10.9694 7.89951 9.23658C7.92748 7.83355 7.21198 6.47322 5.92379 5.72828C4.03346 4.64031 1.61313 5.29839 0.525154 7.18872C-0.562817 9.07905 0.0952656 11.4994 1.9856 12.5874C3.27379 13.3323 4.82109 13.2602 6.00918 12.5447C7.49906 11.6422 9.05962 12.5447 9.01692 14.2922V14.3776C9.01692 15.8807 9.84725 17.1851 11.0928 17.8579C12.5959 18.703 12.5959 20.4932 11.0928 21.3235C11.0353 21.3515 10.9779 21.3956 10.9205 21.4236C9.43062 22.3114 7.87006 21.4089 7.91276 19.6761C7.92748 18.9738 7.75523 18.2583 7.38276 17.6003C6.29479 15.7099 3.87446 15.0651 1.98412 16.1545C0.0937937 17.272 -0.551039 19.6923 0.538404 21.5826C1.62638 23.473 4.04671 24.1178 5.93704 23.0283C5.96501 23.0136 5.97973 23.0004 6.00918 22.9856C7.49906 22.0832 9.05962 22.9856 9.01692 24.7332V24.8333C9.01692 27.0107 10.7924 28.7862 12.9698 28.7862C15.1472 28.7862 16.9227 27.0107 16.9227 24.8333V24.7479C16.8801 23.0004 18.4553 22.0979 19.9437 23.0004C19.9717 23.0151 20.0012 23.0283 20.0291 23.0578C21.9195 24.1458 24.3398 23.5024 25.4278 21.6121C26.5157 19.679 25.8724 17.2587 23.982 16.1707L23.9835 16.1678Z" fill="#8A94A6"/>
</svg>
