<svg width="297" height="52" viewBox="0 0 297 52" fill="none" xmlns="http://www.w3.org/2000/svg">
<path d="M8 52H274.5L297 39.9688V8H278V10.75H253V8H28.5L8 20.375V52Z" fill="#735AA9"/>
<path d="M292 1H271V3.75H248V1H22.2217L21.9834 1.14355L1.4834 13.5186L1 13.8105V47H268.751L268.972 46.8818L291.472 34.8506L292 34.5684V1Z" fill="url(#paint0_linear_4387_2731)" stroke="url(#paint1_linear_4387_2731)" stroke-width="2"/>
<path d="M91.177 30C91.0863 30 91.024 29.9603 90.99 29.881L88.61 24.798C88.5987 24.764 88.576 24.747 88.542 24.747H86.094C86.0487 24.747 86.026 24.7697 86.026 24.815V29.83C86.026 29.9433 85.9693 30 85.856 30H84.564C84.4507 30 84.394 29.9433 84.394 29.83V18.27C84.394 18.1567 84.4507 18.1 84.564 18.1H89.137C89.817 18.1 90.412 18.2417 90.922 18.525C91.4433 18.8083 91.8457 19.205 92.129 19.715C92.4123 20.225 92.554 20.8143 92.554 21.483C92.554 22.2763 92.3443 22.9507 91.925 23.506C91.517 24.05 90.9447 24.4183 90.208 24.611C90.1627 24.6337 90.1513 24.662 90.174 24.696L92.639 29.796C92.6503 29.8187 92.656 29.847 92.656 29.881C92.656 29.9603 92.6107 30 92.52 30H91.177ZM86.094 19.511C86.0487 19.511 86.026 19.5337 86.026 19.579V23.387C86.026 23.4323 86.0487 23.455 86.094 23.455H88.933C89.5337 23.455 90.0153 23.2793 90.378 22.928C90.7407 22.5653 90.922 22.0893 90.922 21.5C90.922 20.8993 90.7407 20.4177 90.378 20.055C90.0153 19.6923 89.5337 19.511 88.933 19.511H86.094ZM99.7668 21.517C99.7668 21.4037 99.8234 21.347 99.9368 21.347H101.212C101.325 21.347 101.382 21.4037 101.382 21.517V29.83C101.382 29.9433 101.325 30 101.212 30H99.9368C99.8234 30 99.7668 29.9433 99.7668 29.83V29.201C99.7668 29.1783 99.7554 29.167 99.7328 29.167C99.7214 29.1557 99.7044 29.1613 99.6818 29.184C99.2284 29.8073 98.5314 30.119 97.5908 30.119C97.0354 30.119 96.5198 30.0113 96.0438 29.796C95.5791 29.5807 95.2051 29.2633 94.9218 28.844C94.6384 28.4247 94.4968 27.9147 94.4968 27.314V21.517C94.4968 21.4037 94.5534 21.347 94.6668 21.347H95.9418C96.0551 21.347 96.1118 21.4037 96.1118 21.517V26.804C96.1118 27.3933 96.2648 27.858 96.5708 28.198C96.8881 28.538 97.3301 28.708 97.8968 28.708C98.4634 28.708 98.9168 28.538 99.2568 28.198C99.5968 27.8467 99.7668 27.382 99.7668 26.804V21.517ZM107.622 21.228C108.552 21.228 109.288 21.5 109.832 22.044C110.376 22.5767 110.648 23.302 110.648 24.22V29.83C110.648 29.9433 110.592 30 110.478 30H109.186C109.073 30 109.016 29.9433 109.016 29.83V24.543C109.016 23.9763 108.852 23.5173 108.523 23.166C108.195 22.8147 107.758 22.639 107.214 22.639C106.682 22.639 106.245 22.8147 105.905 23.166C105.565 23.5173 105.395 23.9707 105.395 24.526V29.83C105.395 29.9433 105.339 30 105.225 30H103.933C103.82 30 103.763 29.9433 103.763 29.83V21.517C103.763 21.4037 103.82 21.347 103.933 21.347H105.225C105.339 21.347 105.395 21.4037 105.395 21.517V22.129C105.395 22.1517 105.401 22.1687 105.412 22.18C105.435 22.1913 105.452 22.1857 105.463 22.163C105.951 21.5397 106.67 21.228 107.622 21.228ZM124.472 19.341C124.472 19.4543 124.416 19.511 124.302 19.511H118.284C118.239 19.511 118.216 19.5337 118.216 19.579V23.234C118.216 23.2793 118.239 23.302 118.284 23.302H122.415C122.529 23.302 122.585 23.3587 122.585 23.472V24.543C122.585 24.6563 122.529 24.713 122.415 24.713H118.284C118.239 24.713 118.216 24.7357 118.216 24.781V29.83C118.216 29.9433 118.16 30 118.046 30H116.754C116.641 30 116.584 29.9433 116.584 29.83V18.27C116.584 18.1567 116.641 18.1 116.754 18.1H124.302C124.416 18.1 124.472 18.1567 124.472 18.27V19.341ZM129.485 21.262C129.848 21.262 130.176 21.3357 130.471 21.483C130.55 21.517 130.579 21.585 130.556 21.687L130.284 22.962C130.273 23.064 130.205 23.098 130.08 23.064C129.887 22.9847 129.661 22.945 129.4 22.945L129.162 22.962C128.629 22.9847 128.187 23.1717 127.836 23.523C127.496 23.863 127.326 24.3107 127.326 24.866V29.83C127.326 29.9433 127.269 30 127.156 30H125.864C125.751 30 125.694 29.9433 125.694 29.83V21.517C125.694 21.4037 125.751 21.347 125.864 21.347H127.156C127.269 21.347 127.326 21.4037 127.326 21.517V22.418C127.326 22.452 127.332 22.4747 127.343 22.486C127.366 22.486 127.383 22.4747 127.394 22.452C127.904 21.6587 128.601 21.262 129.485 21.262ZM138.874 24.594C138.919 25.0587 138.936 25.58 138.925 26.158C138.925 26.2713 138.868 26.328 138.755 26.328H133.332C133.286 26.328 133.264 26.3507 133.264 26.396C133.264 26.7813 133.298 27.076 133.366 27.28C133.49 27.7333 133.74 28.0903 134.114 28.351C134.499 28.6003 134.981 28.725 135.559 28.725C136.397 28.725 137.043 28.3793 137.497 27.688C137.553 27.5747 137.627 27.5577 137.718 27.637L138.687 28.283C138.766 28.351 138.783 28.4247 138.738 28.504C138.42 29.014 137.967 29.4163 137.378 29.711C136.8 30.0057 136.142 30.153 135.406 30.153C134.578 30.153 133.881 29.9717 133.315 29.609C132.748 29.2463 132.323 28.7307 132.04 28.062C131.768 27.3933 131.632 26.583 131.632 25.631C131.632 24.8037 131.694 24.1747 131.819 23.744C132.023 22.962 132.431 22.3443 133.043 21.891C133.655 21.4377 134.397 21.211 135.27 21.211C136.414 21.211 137.27 21.5 137.837 22.078C138.403 22.6447 138.749 23.4833 138.874 24.594ZM135.27 22.622C134.782 22.622 134.38 22.7467 134.063 22.996C133.745 23.234 133.53 23.557 133.417 23.965C133.337 24.2143 133.286 24.5317 133.264 24.917C133.264 24.9623 133.286 24.985 133.332 24.985H137.225C137.27 24.985 137.293 24.9623 137.293 24.917C137.27 24.543 137.236 24.2653 137.191 24.084C137.077 23.642 136.851 23.2907 136.511 23.03C136.182 22.758 135.768 22.622 135.27 22.622ZM147.988 24.594C148.033 25.0587 148.05 25.58 148.039 26.158C148.039 26.2713 147.982 26.328 147.869 26.328H142.446C142.401 26.328 142.378 26.3507 142.378 26.396C142.378 26.7813 142.412 27.076 142.48 27.28C142.605 27.7333 142.854 28.0903 143.228 28.351C143.613 28.6003 144.095 28.725 144.673 28.725C145.512 28.725 146.158 28.3793 146.611 27.688C146.668 27.5747 146.741 27.5577 146.832 27.637L147.801 28.283C147.88 28.351 147.897 28.4247 147.852 28.504C147.535 29.014 147.081 29.4163 146.492 29.711C145.914 30.0057 145.257 30.153 144.52 30.153C143.693 30.153 142.996 29.9717 142.429 29.609C141.862 29.2463 141.437 28.7307 141.154 28.062C140.882 27.3933 140.746 26.583 140.746 25.631C140.746 24.8037 140.808 24.1747 140.933 23.744C141.137 22.962 141.545 22.3443 142.157 21.891C142.769 21.4377 143.511 21.211 144.384 21.211C145.529 21.211 146.384 21.5 146.951 22.078C147.518 22.6447 147.863 23.4833 147.988 24.594ZM144.384 22.622C143.897 22.622 143.494 22.7467 143.177 22.996C142.86 23.234 142.644 23.557 142.531 23.965C142.452 24.2143 142.401 24.5317 142.378 24.917C142.378 24.9623 142.401 24.985 142.446 24.985H146.339C146.384 24.985 146.407 24.9623 146.407 24.917C146.384 24.543 146.35 24.2653 146.305 24.084C146.192 23.642 145.965 23.2907 145.625 23.03C145.296 22.758 144.883 22.622 144.384 22.622ZM160.931 30C160.829 30 160.761 29.9547 160.727 29.864L160.115 27.875C160.103 27.841 160.081 27.824 160.047 27.824H155.27C155.236 27.824 155.213 27.841 155.202 27.875L154.59 29.864C154.556 29.9547 154.488 30 154.386 30H153.009C152.884 30 152.839 29.9377 152.873 29.813L156.596 18.236C156.63 18.1453 156.698 18.1 156.8 18.1H158.5C158.602 18.1 158.67 18.1453 158.704 18.236L162.461 29.813L162.478 29.881C162.478 29.9603 162.427 30 162.325 30H160.931ZM155.627 26.447C155.615 26.4697 155.615 26.4923 155.627 26.515C155.649 26.5263 155.672 26.532 155.695 26.532H159.605C159.627 26.532 159.644 26.5263 159.656 26.515C159.678 26.4923 159.684 26.4697 159.673 26.447L157.701 20.14C157.689 20.1173 157.672 20.106 157.65 20.106C157.627 20.106 157.61 20.1173 157.599 20.14L155.627 26.447ZM164.584 30C164.47 30 164.414 29.9433 164.414 29.83V18.27C164.414 18.1567 164.47 18.1 164.584 18.1H165.876C165.989 18.1 166.046 18.1567 166.046 18.27V29.83C166.046 29.9433 165.989 30 165.876 30H164.584ZM175.905 30.136C175.032 30.136 174.273 30 173.627 29.728C172.992 29.456 172.499 29.0707 172.148 28.572C171.808 28.0733 171.638 27.4897 171.638 26.821V26.328C171.638 26.2147 171.695 26.158 171.808 26.158H173.049C173.162 26.158 173.219 26.2147 173.219 26.328V26.736C173.219 27.314 173.468 27.79 173.967 28.164C174.466 28.538 175.151 28.725 176.024 28.725C176.806 28.725 177.395 28.5607 177.792 28.232C178.189 27.9033 178.387 27.4727 178.387 26.94C178.387 26.5887 178.285 26.2883 178.081 26.039C177.877 25.7897 177.577 25.563 177.18 25.359C176.795 25.1437 176.228 24.8887 175.48 24.594C174.653 24.2767 173.995 23.9877 173.508 23.727C173.032 23.4663 172.635 23.1263 172.318 22.707C172.001 22.2763 171.842 21.738 171.842 21.092C171.842 20.1173 172.188 19.3523 172.879 18.797C173.582 18.2417 174.528 17.964 175.718 17.964C176.557 17.964 177.293 18.1057 177.928 18.389C178.563 18.6723 179.05 19.069 179.39 19.579C179.741 20.089 179.917 20.6783 179.917 21.347V21.687C179.917 21.8003 179.86 21.857 179.747 21.857H178.472C178.359 21.857 178.302 21.8003 178.302 21.687V21.432C178.302 20.8427 178.064 20.3553 177.588 19.97C177.123 19.5733 176.477 19.375 175.65 19.375C174.947 19.375 174.403 19.5223 174.018 19.817C173.633 20.1003 173.44 20.514 173.44 21.058C173.44 21.432 173.536 21.738 173.729 21.976C173.922 22.214 174.205 22.4293 174.579 22.622C174.964 22.8033 175.548 23.0413 176.33 23.336C177.135 23.6533 177.786 23.948 178.285 24.22C178.784 24.4807 179.197 24.832 179.526 25.274C179.855 25.7047 180.019 26.243 180.019 26.889C180.019 27.8863 179.651 28.6797 178.914 29.269C178.189 29.847 177.186 30.136 175.905 30.136ZM185.491 30.136C184.63 30.136 183.893 29.9207 183.281 29.49C182.669 29.048 182.25 28.453 182.023 27.705C181.853 27.1837 181.768 26.498 181.768 25.648C181.768 24.866 181.853 24.1803 182.023 23.591C182.25 22.8657 182.669 22.2877 183.281 21.857C183.904 21.4263 184.641 21.211 185.491 21.211C186.341 21.211 187.083 21.4263 187.718 21.857C188.353 22.2877 188.766 22.8317 188.959 23.489C189.027 23.6703 189.072 23.8573 189.095 24.05C189.095 24.1407 189.044 24.1973 188.942 24.22L187.667 24.407H187.633C187.554 24.407 187.497 24.356 187.463 24.254L187.412 23.982C187.321 23.5967 187.1 23.2737 186.749 23.013C186.398 22.7523 185.973 22.622 185.474 22.622C184.987 22.622 184.573 22.7523 184.233 23.013C183.893 23.2737 183.672 23.6193 183.57 24.05C183.468 24.458 183.417 24.9963 183.417 25.665C183.417 26.3223 183.468 26.855 183.57 27.263C183.683 27.7163 183.904 28.0733 184.233 28.334C184.573 28.5947 184.987 28.725 185.474 28.725C185.973 28.725 186.398 28.5947 186.749 28.334C187.112 28.0733 187.338 27.7333 187.429 27.314C187.44 27.3027 187.44 27.2913 187.429 27.28C187.429 27.2573 187.435 27.2403 187.446 27.229V27.161C187.48 27.0703 187.542 27.0363 187.633 27.059L188.908 27.263C188.999 27.2857 189.044 27.331 189.044 27.399V27.467C189.044 27.569 189.016 27.6937 188.959 27.841C188.766 28.5323 188.353 29.0877 187.718 29.507C187.083 29.9263 186.341 30.136 185.491 30.136ZM194.133 21.211C194.825 21.211 195.425 21.3357 195.935 21.585C196.457 21.823 196.853 22.163 197.125 22.605C197.409 23.0357 197.55 23.5287 197.55 24.084V29.83C197.55 29.9433 197.494 30 197.38 30H196.088C195.975 30 195.918 29.9433 195.918 29.83V29.218C195.918 29.1613 195.89 29.15 195.833 29.184C195.539 29.49 195.176 29.728 194.745 29.898C194.326 30.0567 193.856 30.136 193.334 30.136C192.496 30.136 191.799 29.9263 191.243 29.507C190.699 29.0763 190.427 28.4303 190.427 27.569C190.427 26.685 190.733 25.9937 191.345 25.495C191.969 24.985 192.836 24.73 193.946 24.73H195.85C195.896 24.73 195.918 24.7073 195.918 24.662V24.203C195.918 23.7043 195.771 23.319 195.476 23.047C195.193 22.7637 194.757 22.622 194.167 22.622C193.691 22.622 193.3 22.7183 192.994 22.911C192.7 23.0923 192.518 23.3417 192.45 23.659C192.416 23.7723 192.348 23.8233 192.246 23.812L190.869 23.625C190.756 23.6023 190.705 23.557 190.716 23.489C190.807 22.8203 191.164 22.2763 191.787 21.857C192.411 21.4263 193.193 21.211 194.133 21.211ZM193.691 28.759C194.292 28.759 194.813 28.6003 195.255 28.283C195.697 27.9657 195.918 27.5633 195.918 27.076V26.073C195.918 26.0277 195.896 26.005 195.85 26.005H194.252C193.584 26.005 193.051 26.1353 192.654 26.396C192.258 26.6567 192.059 27.0193 192.059 27.484C192.059 27.9033 192.207 28.2207 192.501 28.436C192.807 28.6513 193.204 28.759 193.691 28.759ZM203.612 21.228C204.542 21.228 205.278 21.5 205.822 22.044C206.366 22.5767 206.638 23.302 206.638 24.22V29.83C206.638 29.9433 206.582 30 206.468 30H205.176C205.063 30 205.006 29.9433 205.006 29.83V24.543C205.006 23.9763 204.842 23.5173 204.513 23.166C204.185 22.8147 203.748 22.639 203.204 22.639C202.672 22.639 202.235 22.8147 201.895 23.166C201.555 23.5173 201.385 23.9707 201.385 24.526V29.83C201.385 29.9433 201.329 30 201.215 30H199.923C199.81 30 199.753 29.9433 199.753 29.83V21.517C199.753 21.4037 199.81 21.347 199.923 21.347H201.215C201.329 21.347 201.385 21.4037 201.385 21.517V22.129C201.385 22.1517 201.391 22.1687 201.402 22.18C201.425 22.1913 201.442 22.1857 201.453 22.163C201.941 21.5397 202.66 21.228 203.612 21.228Z" fill="#0D0128"/>
<defs>
<linearGradient id="paint0_linear_4387_2731" x1="291" y1="24" x2="2" y2="24" gradientUnits="userSpaceOnUse">
<stop stop-color="#AA83FF"/>
<stop offset="1" stop-color="#D0FFCC"/>
</linearGradient>
<linearGradient id="paint1_linear_4387_2731" x1="291" y1="24" x2="2" y2="24" gradientUnits="userSpaceOnUse">
<stop stop-color="#C7ADFF"/>
<stop offset="1" stop-color="#776899" stop-opacity="0"/>
</linearGradient>
</defs>
</svg>
