<svg width="48" height="48" viewBox="0 0 48 48" fill="none" xmlns="http://www.w3.org/2000/svg">
<path d="M24.2 5.00374C19.6665 4.97578 15.3075 6.74982 12.0819 9.93563C8.85629 13.1214 7.0283 17.4581 7 21.9916C7.00247 24.5442 7.58426 27.063 8.70153 29.3581C9.8188 31.6533 11.4424 33.6649 13.45 35.2414V38.9795C13.4535 39.5407 13.5675 40.0957 13.7855 40.6128C14.0035 41.1299 14.3212 41.599 14.7205 41.9933C15.1198 42.3877 15.5929 42.6995 16.1127 42.911C16.6325 43.1225 17.1888 43.2295 17.75 43.226H30.65C31.2112 43.2295 31.7676 43.1225 32.2874 42.911C32.8072 42.6995 33.2802 42.3877 33.6795 41.9933C34.0788 41.599 34.3965 41.1299 34.6145 40.6128C34.8325 40.0957 34.9465 39.5407 34.95 38.9795V35.2414C36.9576 33.6649 38.5812 31.6533 39.6985 29.3581C40.8158 27.063 41.3976 24.5442 41.4 21.9916C41.3717 17.4581 39.5437 13.1214 36.3182 9.93563C33.0926 6.74982 28.7336 4.97578 24.2 5.00374ZM22.2889 39.4038H18.4667V35.5816C18.4667 35.0747 18.668 34.5886 19.0264 34.2302C19.3848 33.8718 19.8709 33.6704 20.3778 33.6704C20.8847 33.6704 21.3708 33.8718 21.7292 34.2302C22.0876 34.5886 22.2889 35.0747 22.2889 35.5816V39.4038ZM18.4667 29.8482C17.7107 29.8482 16.9717 29.624 16.3432 29.2041C15.7146 28.7841 15.2247 28.1871 14.9354 27.4887C14.6461 26.7903 14.5704 26.0217 14.7179 25.2803C14.8654 24.5389 15.2294 23.8578 15.764 23.3233C16.2985 22.7887 16.9796 22.4247 17.721 22.2772C18.4624 22.1297 19.231 22.2054 19.9294 22.4947C20.6278 22.784 21.2248 23.2739 21.6447 23.9025C22.0647 24.531 22.2889 25.27 22.2889 26.026C22.2889 27.0397 21.8862 28.0119 21.1694 28.7287C20.4526 29.4455 19.4804 29.8482 18.4667 29.8482ZM29.9334 39.4038H26.1111V35.5816C26.1111 35.0747 26.3125 34.5886 26.6709 34.2302C27.0293 33.8718 27.5154 33.6704 28.0222 33.6704C28.5291 33.6704 29.0152 33.8718 29.3736 34.2302C29.732 34.5886 29.9334 35.0747 29.9334 35.5816V39.4038ZM29.9334 29.8482C29.1774 29.8482 28.4384 29.624 27.8098 29.2041C27.1813 28.7841 26.6914 28.1871 26.4021 27.4887C26.1128 26.7903 26.0371 26.0217 26.1846 25.2803C26.3321 24.5389 26.6961 23.8578 27.2306 23.3233C27.7652 22.7887 28.4462 22.4247 29.1877 22.2772C29.9291 22.1297 30.6976 22.2054 31.3961 22.4947C32.0945 22.784 32.6914 23.2739 33.1114 23.9025C33.5314 24.531 33.7556 25.27 33.7556 26.026C33.7556 27.0397 33.3529 28.0119 32.6361 28.7287C31.9193 29.4455 30.9471 29.8482 29.9334 29.8482Z" fill="url(#paint0_linear_5441_20271)"/>
<defs>
<linearGradient id="paint0_linear_5441_20271" x1="29.3999" y1="65.1896" x2="22.1599" y2="2.59326" gradientUnits="userSpaceOnUse">
<stop stop-color="#142A01"/>
<stop offset="0.460655" stop-color="#65DA00"/>
<stop offset="1" stop-color="#65DA00"/>
</linearGradient>
</defs>
</svg>
