<svg width="48" height="48" viewBox="0 0 48 48" fill="none" xmlns="http://www.w3.org/2000/svg">
<path fill-rule="evenodd" clip-rule="evenodd" d="M22.3 25.7C22.3 26.6389 23.0611 27.4 24 27.4C24.9389 27.4 25.7 26.6389 25.7 25.7V17.2C25.7 16.2611 24.9389 15.5 24 15.5C23.0611 15.5 22.3 16.2611 22.3 17.2V25.7ZM25.7 30.781C25.7 29.8421 24.9389 29.081 24 29.081C23.0611 29.081 22.3 29.8421 22.3 30.781V30.8C22.3 31.7389 23.0611 32.5 24 32.5C24.9389 32.5 25.7 31.7389 25.7 30.8V30.781ZM15.9251 7.65929C18.1329 7.16864 20.8113 7 24 7C27.1887 7 29.867 7.16864 32.0748 7.65929C34.302 8.15425 36.153 8.9992 37.5769 10.4231C39.0008 11.847 39.8457 13.698 40.3407 15.9251C40.8314 18.1329 41 20.8113 41 24C41 27.1887 40.8314 29.867 40.3407 32.0748C39.8457 34.302 39.0008 36.153 37.5769 37.5769C36.153 39.0008 34.302 39.8457 32.0748 40.3407C29.867 40.8314 27.1887 41 24 41C20.8113 41 18.1329 40.8314 15.9251 40.3407C13.698 39.8457 11.847 39.0008 10.4231 37.5769C8.9992 36.153 8.15425 34.302 7.65929 32.0748C7.16864 29.867 7 27.1887 7 24C7 20.8113 7.16864 18.1329 7.65929 15.9251C8.15425 13.698 8.9992 11.847 10.4231 10.4231C11.847 8.9992 13.698 8.15425 15.9251 7.65929Z" fill="url(#paint0_linear_5441_20262)"/>
<defs>
<linearGradient id="paint0_linear_5441_20262" x1="29.1394" y1="60.5371" x2="23.3287" y2="4.71608" gradientUnits="userSpaceOnUse">
<stop stop-color="#142A01"/>
<stop offset="0.460655" stop-color="#65DA00"/>
<stop offset="1" stop-color="#65DA00"/>
</linearGradient>
</defs>
</svg>
