<svg width="48" height="48" viewBox="0 0 48 48" fill="none" xmlns="http://www.w3.org/2000/svg">
<path d="M36.6807 6.99316H19.0623C17.2299 6.99316 15.75 8.47311 15.75 10.3054V10.8692C15.75 11.2216 15.9614 11.433 16.3138 11.433H32.3113C34.1436 11.433 35.6236 12.9129 35.6236 14.7453V31.8703C35.6236 32.2227 35.835 32.4341 36.1874 32.4341H36.6807C38.513 32.4341 39.9929 30.9542 39.9929 29.1219V10.3054C39.9929 8.47311 38.513 6.99316 36.6807 6.99316Z" fill="url(#paint0_linear_5441_20239)"/>
<path d="M28.9307 14.7432H11.3123C9.47995 14.7432 8 16.2231 8 18.0554V36.8014C8 38.6337 9.47995 40.1137 11.3123 40.1137H28.9307C30.763 40.1137 32.2429 38.6337 32.2429 36.8014V18.0554C32.3134 16.2231 30.763 14.7432 28.9307 14.7432ZM27.5212 24.1162L19.0644 32.573C18.712 32.9254 18.3596 33.0663 17.9368 33.0663C17.5844 33.0663 17.0911 32.9254 16.8092 32.573L12.7217 28.4855C12.3694 28.1332 12.3694 27.6398 12.7217 27.3579L13.8493 26.2304C14.2017 25.878 14.695 25.878 14.9769 26.2304L17.9368 29.1903L25.1956 21.9315C25.5479 21.5791 26.0412 21.5791 26.3231 21.9315L27.4507 23.059C27.8031 23.2705 27.8031 23.8343 27.5212 24.1162Z" fill="url(#paint1_linear_5441_20239)"/>
<defs>
<linearGradient id="paint0_linear_5441_20239" x1="31.536" y1="47.053" x2="26.9782" y2="5.32949" gradientUnits="userSpaceOnUse">
<stop stop-color="#142A01"/>
<stop offset="0.460655" stop-color="#65DA00"/>
<stop offset="1" stop-color="#65DA00"/>
</linearGradient>
<linearGradient id="paint1_linear_5441_20239" x1="23.7875" y1="54.6921" x2="19.255" y2="13.0813" gradientUnits="userSpaceOnUse">
<stop stop-color="#142A01"/>
<stop offset="0.460655" stop-color="#65DA00"/>
<stop offset="1" stop-color="#65DA00"/>
</linearGradient>
</defs>
</svg>
