<svg width="48" height="48" viewBox="0 0 48 48" fill="none" xmlns="http://www.w3.org/2000/svg">
<path d="M41.6412 33.3533C41.0288 33.9489 40.2593 34.363 39.4203 34.5484C38.5812 34.7339 37.7063 34.6833 36.8949 34.4024L32.4334 38.8047C32.3732 38.8665 32.301 38.9156 32.221 38.9491C32.1411 38.9827 32.0551 39 31.9683 39C31.8814 39 31.7955 38.9827 31.7155 38.9491C31.6356 38.9156 31.5634 38.8665 31.5031 38.8047L29.6046 36.9314C29.4872 36.8066 29.4219 36.6427 29.4219 36.4724C29.4219 36.3021 29.4872 36.1382 29.6046 36.0134L34.0851 31.6111C33.7732 30.7571 33.7318 29.8296 33.9664 28.9518C34.2009 28.074 34.7003 27.2873 35.3984 26.696C36.0965 26.1047 36.9603 25.7368 37.8751 25.641C38.79 25.5452 39.7128 25.7261 40.521 26.1597L37.5024 29.232L39.4009 31.1053L42.4765 28.0705C42.9317 28.9226 43.0962 29.8968 42.9458 30.8485C42.7953 31.8001 42.3378 32.6786 41.6412 33.3533ZM42.9701 12.7467V23.537C41.5671 22.6066 39.9143 22.1108 38.2239 22.1133C37.3945 22.1158 36.5697 22.2357 35.7748 22.4692V15.1633H32.8321V23.9866C31.8451 24.779 31.05 25.7789 30.5048 26.9132C29.9595 28.0476 29.6779 29.2878 29.6806 30.5433C29.6611 30.8552 29.6611 31.168 29.6806 31.48H8.79701C7.78998 31.48 6.8242 31.0852 6.11212 30.3826C5.40004 29.68 5 28.727 5 27.7333V12.7467C5 11.753 5.40004 10.8 6.11212 10.0974C6.8242 9.39474 7.78998 9 8.79701 9H39.1731C40.1801 9 41.1459 9.39474 41.858 10.0974C42.5701 10.8 42.9701 11.753 42.9701 12.7467ZM22.0866 25.86L18.4604 15.1258H14.4925L11.0183 25.86H14.2457L14.7963 23.8555H18.2895L18.8401 25.86H22.0866ZM31.1424 18.5727C31.1735 18.1007 31.0956 17.6279 30.9148 17.1899C30.7339 16.7518 30.4547 16.36 30.0983 16.0437C29.2125 15.3973 28.1215 15.085 27.0227 15.1633H23.2257V25.86H26.1494V22.3194H26.9847C27.6321 22.3303 28.2759 22.2223 28.8832 22.0009C29.364 21.8228 29.7986 21.5413 30.1552 21.1767C30.4725 20.8335 30.7062 20.4235 30.8387 19.9777C31.0039 19.5267 31.0937 19.0522 31.1045 18.5727H31.1424ZM17.2833 19.7342L17.0555 18.9099L16.7707 17.8234C16.7707 17.43 16.6189 17.1303 16.5619 16.8867C16.5148 17.1896 16.4514 17.4897 16.3721 17.7859C16.3721 18.1419 16.2202 18.4978 16.1252 18.8537C16.0303 19.2097 15.9734 19.4907 15.8974 19.7342L15.4418 21.4764H17.701L17.2833 19.7342ZM27.896 17.8609C27.7705 17.7432 27.6207 17.6537 27.4568 17.5987C27.2929 17.5438 27.1189 17.5245 26.9467 17.5424H26.1873V19.9965H26.7759C27.0168 20.0021 27.2562 19.9574 27.4783 19.8653C27.6873 19.782 27.866 19.6383 27.9909 19.4532C28.1376 19.217 28.2103 18.9432 28.1997 18.6664C28.1998 18.5038 28.1622 18.3433 28.0898 18.1972C28.0174 18.0511 27.9122 17.9232 27.7821 17.8234L27.896 17.8609Z" fill="url(#paint0_linear_5441_20251)"/>
<defs>
<linearGradient id="paint0_linear_5441_20251" x1="29.744" y1="56.2386" x2="25.68" y2="6.78507" gradientUnits="userSpaceOnUse">
<stop stop-color="#142A01"/>
<stop offset="0.460655" stop-color="#65DA00"/>
<stop offset="1" stop-color="#65DA00"/>
</linearGradient>
</defs>
</svg>
