<svg width="48" height="48" viewBox="0 0 48 48" fill="none" xmlns="http://www.w3.org/2000/svg">
<path d="M14.1 34.8V34.6389C14.0998 33.0808 14.0997 31.6522 14.2559 30.4901C14.428 29.2103 14.8328 27.8578 15.9453 26.7452C17.0577 25.6328 18.4104 25.228 19.6901 25.0559C20.8522 24.8996 22.2808 24.8998 23.8389 24.9H24.1611C25.7192 24.8998 27.1478 24.8996 28.3099 25.0559C29.5897 25.228 30.9422 25.6328 32.0548 26.7452C33.1672 27.8578 33.572 29.2103 33.7441 30.4901C33.898 31.6351 33.9002 33.0387 33.9 34.57C38.5307 33.5798 42 29.5078 42 24.6352C42 20.186 39.1074 16.4044 35.0792 15.027C34.5068 9.94868 30.1486 6 24.8572 6C19.1765 6 14.5714 10.5509 14.5714 16.1647C14.5714 17.4064 14.7967 18.596 15.2091 19.696C14.7255 19.6021 14.2257 19.5529 13.7143 19.5529C9.4538 19.5529 6 22.9661 6 27.1765C6 31.3868 9.4538 34.8 13.7143 34.8H14.1Z" fill="url(#paint0_linear_5441_20225)"/>
<path fill-rule="evenodd" clip-rule="evenodd" d="M23.9969 27.6001C20.6028 27.6001 18.9057 27.6001 17.8513 28.6545C16.7969 29.709 16.7969 31.406 16.7969 34.8001C16.7969 38.1942 16.7969 39.8912 17.8513 40.9457C18.9057 42.0001 20.6028 42.0001 23.9969 42.0001C27.391 42.0001 29.088 42.0001 30.1424 40.9457C31.1969 39.8912 31.1969 38.1942 31.1969 34.8001C31.1969 31.406 31.1969 29.709 30.1424 28.6545C29.088 27.6001 27.391 27.6001 23.9969 27.6001ZM27.2453 33.1517L24.8454 30.7515C24.3769 30.283 23.6169 30.283 23.1484 30.7515L20.7484 33.1517C20.2797 33.6202 20.2797 34.38 20.7484 34.8487C21.217 35.3172 21.9767 35.3172 22.4455 34.8487L22.7968 34.4972V38.0001C22.7968 38.6629 23.3341 39.2 23.9969 39.2C24.6596 39.2 25.1969 38.6629 25.1969 38.0001V34.4972L25.5483 34.8487C26.017 35.3172 26.7768 35.3172 27.2453 34.8487C27.7141 34.38 27.7141 33.6202 27.2453 33.1517Z" fill="url(#paint1_linear_5441_20225)"/>
<defs>
<linearGradient id="paint0_linear_5441_20225" x1="29.4417" y1="51.3491" x2="25.4889" y2="3.88221" gradientUnits="userSpaceOnUse">
<stop stop-color="#142A01"/>
<stop offset="0.460655" stop-color="#65DA00"/>
<stop offset="1" stop-color="#65DA00"/>
</linearGradient>
<linearGradient id="paint1_linear_5441_20225" x1="26.1736" y1="50.2746" x2="23.7126" y2="26.6328" gradientUnits="userSpaceOnUse">
<stop stop-color="#142A01"/>
<stop offset="0.460655" stop-color="#65DA00"/>
<stop offset="1" stop-color="#65DA00"/>
</linearGradient>
</defs>
</svg>
