<svg width="29" height="32" viewBox="0 0 29 32" fill="none" xmlns="http://www.w3.org/2000/svg">
<path d="M4.3342 15.8888V4.33323C4.3342 3.56705 4.63856 2.83225 5.18033 2.29048C5.72211 1.74871 6.45691 1.44435 7.22309 1.44435H18.7786M18.7786 1.44435C19.2364 1.44322 19.6898 1.53276 20.1127 1.70779C20.5357 1.88282 20.9198 2.13988 21.2429 2.46412L26.4255 7.64679C26.7498 7.96987 27.0068 8.35396 27.1819 8.77691C27.3569 9.19986 27.4464 9.65328 27.4453 10.111M18.7786 1.44435V8.66656C18.7786 9.04965 18.9308 9.41705 19.2017 9.68794C19.4726 9.95882 19.84 10.111 20.2231 10.111H27.4453M27.4453 10.111V27.4443C27.4453 28.2105 27.1409 28.9453 26.5992 29.4871C26.0574 30.0289 25.3226 30.3332 24.5564 30.3332M13.0009 21.6666H15.8897V30.3332M13.0009 30.3332H18.7786M4.3342 21.6666C5.92969 21.6666 7.22309 22.96 7.22309 24.5554V27.4443C7.22309 29.0398 5.92969 30.3332 4.3342 30.3332C2.73871 30.3332 1.44531 29.0398 1.44531 27.4443V24.5554C1.44531 22.96 2.73871 21.6666 4.3342 21.6666Z" stroke="#78FE05" stroke-width="2.88889" stroke-linecap="round" stroke-linejoin="round"/>
</svg>
