<svg width="30" height="30" viewBox="0 0 30 30" fill="none" xmlns="http://www.w3.org/2000/svg">
<path d="M25.3984 1.3999H4.0651C2.59234 1.3999 1.39844 2.59381 1.39844 4.06657V9.3999C1.39844 10.8727 2.59234 12.0666 4.0651 12.0666H25.3984C26.8712 12.0666 28.0651 10.8727 28.0651 9.3999V4.06657C28.0651 2.59381 26.8712 1.3999 25.3984 1.3999Z" stroke="#78FE05" stroke-width="2.8"/>
<path d="M25.3984 17.3999H4.0651C2.59234 17.3999 1.39844 18.5938 1.39844 20.0666V25.3999C1.39844 26.8727 2.59234 28.0666 4.0651 28.0666H25.3984C26.8712 28.0666 28.0651 26.8727 28.0651 25.3999V20.0666C28.0651 18.5938 26.8712 17.3999 25.3984 17.3999Z" stroke="#78FE05" stroke-width="2.8"/>
<circle cx="6.73438" cy="6.73584" r="1.5" fill="#78FE05" stroke="#78FE05"/>
<circle cx="6.73438" cy="22.7358" r="1.5" fill="#78FE05" stroke="#78FE05"/>
</svg>
