<svg width="35" height="32" viewBox="0 0 35 32" fill="none" xmlns="http://www.w3.org/2000/svg">
<path d="M22.1014 15.7327H14.1387M22.1014 9.36258H14.1387M28.4715 23.6954V4.58497C28.4715 3.74024 28.136 2.9301 27.5386 2.33279C26.9413 1.73547 26.1312 1.3999 25.2865 1.3999H4.58351M4.58351 1.3999C5.42824 1.3999 6.23838 1.73547 6.83569 2.33279C7.43301 2.9301 7.76858 3.74024 7.76858 4.58497V26.8805C7.76858 27.7252 8.10415 28.5353 8.70146 29.1326C9.29878 29.73 10.1089 30.0655 10.9536 30.0655M4.58351 1.3999C3.73877 1.3999 2.92864 1.73547 2.33132 2.33279C1.73401 2.9301 1.39844 3.74024 1.39844 4.58497V7.77004C1.39844 8.19241 1.56622 8.59747 1.86488 8.89613C2.16354 9.19479 2.56861 9.36258 2.99097 9.36258H7.76858M10.9536 30.0655H30.0641C30.9088 30.0655 31.7189 29.73 32.3162 29.1326C32.9136 28.5353 33.2491 27.7252 33.2491 26.8805V25.2879C33.2491 24.8656 33.0813 24.4605 32.7827 24.1618C32.484 23.8632 32.079 23.6954 31.6566 23.6954H15.7313C15.3089 23.6954 14.9038 23.8632 14.6052 24.1618C14.3065 24.4605 14.1387 24.8656 14.1387 25.2879V26.8805C14.1387 27.7252 13.8031 28.5353 13.2058 29.1326C12.6085 29.73 11.7984 30.0655 10.9536 30.0655Z" stroke="#78FE05" stroke-width="2.8" stroke-linecap="round" stroke-linejoin="round"/>
</svg>
