<svg width="297" height="52" viewBox="0 0 297 52" fill="none" xmlns="http://www.w3.org/2000/svg">
<path d="M8 52H274.5L297 39.9688V8H278V10.75H253V8H28.5L8 20.375V52Z" fill="#735AA9"/>
<path d="M292 1H271V3.75H248V1H22.2217L21.9834 1.14355L1.4834 13.5186L1 13.8105V47H268.751L268.972 46.8818L291.472 34.8506L292 34.5684V1Z" fill="url(#paint0_linear_4411_3550)" stroke="url(#paint1_linear_4411_3550)" stroke-width="2"/>
<path d="M37.066 31.136C36.1933 31.136 35.434 31 34.788 30.728C34.1533 30.456 33.6603 30.0707 33.309 29.572C32.969 29.0733 32.799 28.4897 32.799 27.821V27.328C32.799 27.2147 32.8557 27.158 32.969 27.158H34.21C34.3233 27.158 34.38 27.2147 34.38 27.328V27.736C34.38 28.314 34.6293 28.79 35.128 29.164C35.6267 29.538 36.3123 29.725 37.185 29.725C37.967 29.725 38.5563 29.5607 38.953 29.232C39.3497 28.9033 39.548 28.4727 39.548 27.94C39.548 27.5887 39.446 27.2883 39.242 27.039C39.038 26.7897 38.7377 26.563 38.341 26.359C37.9557 26.1437 37.389 25.8887 36.641 25.594C35.8137 25.2767 35.1563 24.9877 34.669 24.727C34.193 24.4663 33.7963 24.1263 33.479 23.707C33.1617 23.2763 33.003 22.738 33.003 22.092C33.003 21.1173 33.3487 20.3523 34.04 19.797C34.7427 19.2417 35.689 18.964 36.879 18.964C37.7177 18.964 38.4543 19.1057 39.089 19.389C39.7237 19.6723 40.211 20.069 40.551 20.579C40.9023 21.089 41.078 21.6783 41.078 22.347V22.687C41.078 22.8003 41.0213 22.857 40.908 22.857H39.633C39.5197 22.857 39.463 22.8003 39.463 22.687V22.432C39.463 21.8427 39.225 21.3553 38.749 20.97C38.2843 20.5733 37.6383 20.375 36.811 20.375C36.1083 20.375 35.5643 20.5223 35.179 20.817C34.7937 21.1003 34.601 21.514 34.601 22.058C34.601 22.432 34.6973 22.738 34.89 22.976C35.0827 23.214 35.366 23.4293 35.74 23.622C36.1253 23.8033 36.709 24.0413 37.491 24.336C38.2957 24.6533 38.9473 24.948 39.446 25.22C39.9447 25.4807 40.3583 25.832 40.687 26.274C41.0157 26.7047 41.18 27.243 41.18 27.889C41.18 28.8863 40.8117 29.6797 40.075 30.269C39.3497 30.847 38.3467 31.136 37.066 31.136ZM46.6521 31.136C45.7908 31.136 45.0541 30.9207 44.4421 30.49C43.8301 30.048 43.4108 29.453 43.1841 28.705C43.0141 28.1837 42.9291 27.498 42.9291 26.648C42.9291 25.866 43.0141 25.1803 43.1841 24.591C43.4108 23.8657 43.8301 23.2877 44.4421 22.857C45.0655 22.4263 45.8021 22.211 46.6521 22.211C47.5021 22.211 48.2445 22.4263 48.8791 22.857C49.5138 23.2877 49.9275 23.8317 50.1201 24.489C50.1881 24.6703 50.2335 24.8573 50.2561 25.05C50.2561 25.1407 50.2051 25.1973 50.1031 25.22L48.8281 25.407H48.7941C48.7148 25.407 48.6581 25.356 48.6241 25.254L48.5731 24.982C48.4825 24.5967 48.2615 24.2737 47.9101 24.013C47.5588 23.7523 47.1338 23.622 46.6351 23.622C46.1478 23.622 45.7341 23.7523 45.3941 24.013C45.0541 24.2737 44.8331 24.6193 44.7311 25.05C44.6291 25.458 44.5781 25.9963 44.5781 26.665C44.5781 27.3223 44.6291 27.855 44.7311 28.263C44.8445 28.7163 45.0655 29.0733 45.3941 29.334C45.7341 29.5947 46.1478 29.725 46.6351 29.725C47.1338 29.725 47.5588 29.5947 47.9101 29.334C48.2728 29.0733 48.4995 28.7333 48.5901 28.314C48.6015 28.3027 48.6015 28.2913 48.5901 28.28C48.5901 28.2573 48.5958 28.2403 48.6071 28.229V28.161C48.6411 28.0703 48.7035 28.0363 48.7941 28.059L50.0691 28.263C50.1598 28.2857 50.2051 28.331 50.2051 28.399V28.467C50.2051 28.569 50.1768 28.6937 50.1201 28.841C49.9275 29.5323 49.5138 30.0877 48.8791 30.507C48.2445 30.9263 47.5021 31.136 46.6521 31.136ZM55.9914 22.228C56.9207 22.228 57.6574 22.5 58.2014 23.044C58.7454 23.5767 59.0174 24.302 59.0174 25.22V30.83C59.0174 30.9433 58.9607 31 58.8474 31H57.5554C57.442 31 57.3854 30.9433 57.3854 30.83V25.543C57.3854 24.9763 57.221 24.5173 56.8924 24.166C56.5637 23.8147 56.1274 23.639 55.5834 23.639C55.0507 23.639 54.6144 23.8147 54.2744 24.166C53.9344 24.5173 53.7644 24.9707 53.7644 25.526V30.83C53.7644 30.9433 53.7077 31 53.5944 31H52.3024C52.189 31 52.1324 30.9433 52.1324 30.83V19.27C52.1324 19.1567 52.189 19.1 52.3024 19.1H53.5944C53.7077 19.1 53.7644 19.1567 53.7644 19.27V23.129C53.7644 23.1517 53.77 23.1687 53.7814 23.18C53.804 23.1913 53.821 23.1857 53.8324 23.163C54.3197 22.5397 55.0394 22.228 55.9914 22.228ZM68.2506 25.594C68.296 26.0587 68.313 26.58 68.3016 27.158C68.3016 27.2713 68.245 27.328 68.1316 27.328H62.7086C62.6633 27.328 62.6406 27.3507 62.6406 27.396C62.6406 27.7813 62.6746 28.076 62.7426 28.28C62.8673 28.7333 63.1166 29.0903 63.4906 29.351C63.876 29.6003 64.3576 29.725 64.9356 29.725C65.7743 29.725 66.4203 29.3793 66.8736 28.688C66.9303 28.5747 67.004 28.5577 67.0946 28.637L68.0636 29.283C68.143 29.351 68.16 29.4247 68.1146 29.504C67.7973 30.014 67.344 30.4163 66.7546 30.711C66.1766 31.0057 65.5193 31.153 64.7826 31.153C63.9553 31.153 63.2583 30.9717 62.6916 30.609C62.125 30.2463 61.7 29.7307 61.4166 29.062C61.1446 28.3933 61.0086 27.583 61.0086 26.631C61.0086 25.8037 61.071 25.1747 61.1956 24.744C61.3996 23.962 61.8076 23.3443 62.4196 22.891C63.0316 22.4377 63.774 22.211 64.6466 22.211C65.7913 22.211 66.647 22.5 67.2136 23.078C67.7803 23.6447 68.126 24.4833 68.2506 25.594ZM64.6466 23.622C64.1593 23.622 63.757 23.7467 63.4396 23.996C63.1223 24.234 62.907 24.557 62.7936 24.965C62.7143 25.2143 62.6633 25.5317 62.6406 25.917C62.6406 25.9623 62.6633 25.985 62.7086 25.985H66.6016C66.647 25.985 66.6696 25.9623 66.6696 25.917C66.647 25.543 66.613 25.2653 66.5676 25.084C66.4543 24.642 66.2276 24.2907 65.8876 24.03C65.559 23.758 65.1453 23.622 64.6466 23.622ZM75.7329 19.27C75.7329 19.1567 75.7896 19.1 75.9029 19.1H77.1949C77.3082 19.1 77.3649 19.1567 77.3649 19.27V30.83C77.3649 30.9433 77.3082 31 77.1949 31H75.9029C75.7896 31 75.7329 30.9433 75.7329 30.83V30.269C75.7329 30.2463 75.7216 30.2293 75.6989 30.218C75.6876 30.2067 75.6706 30.2123 75.6479 30.235C75.3986 30.5183 75.1039 30.7393 74.7639 30.898C74.4239 31.0567 74.0556 31.136 73.6589 31.136C72.8429 31.136 72.1629 30.9377 71.6189 30.541C71.0862 30.133 70.6952 29.5607 70.4459 28.824C70.2306 28.2233 70.1229 27.498 70.1229 26.648C70.1229 25.8547 70.2136 25.169 70.3949 24.591C70.6329 23.843 71.0239 23.2593 71.5679 22.84C72.1119 22.4207 72.8089 22.211 73.6589 22.211C74.0442 22.211 74.4069 22.2903 74.7469 22.449C75.0982 22.5963 75.3986 22.8117 75.6479 23.095C75.6706 23.1177 75.6876 23.1233 75.6989 23.112C75.7216 23.1007 75.7329 23.0837 75.7329 23.061V19.27ZM75.3079 28.807C75.5686 28.331 75.6989 27.617 75.6989 26.665C75.6989 25.713 75.5572 24.9877 75.2739 24.489C74.9452 23.911 74.4636 23.622 73.8289 23.622C73.1489 23.622 72.6446 23.894 72.3159 24.438C71.9532 25.0047 71.7719 25.7527 71.7719 26.682C71.7719 27.5547 71.9136 28.2573 72.1969 28.79C72.5256 29.4133 73.0639 29.725 73.8119 29.725C74.4692 29.725 74.9679 29.419 75.3079 28.807ZM84.9084 22.517C84.9084 22.4037 84.965 22.347 85.0784 22.347H86.3534C86.4667 22.347 86.5234 22.4037 86.5234 22.517V30.83C86.5234 30.9433 86.4667 31 86.3534 31H85.0784C84.965 31 84.9084 30.9433 84.9084 30.83V30.201C84.9084 30.1783 84.897 30.167 84.8744 30.167C84.863 30.1557 84.846 30.1613 84.8234 30.184C84.37 30.8073 83.673 31.119 82.7324 31.119C82.177 31.119 81.6614 31.0113 81.1854 30.796C80.7207 30.5807 80.3467 30.2633 80.0634 29.844C79.78 29.4247 79.6384 28.9147 79.6384 28.314V22.517C79.6384 22.4037 79.695 22.347 79.8084 22.347H81.0834C81.1967 22.347 81.2534 22.4037 81.2534 22.517V27.804C81.2534 28.3933 81.4064 28.858 81.7124 29.198C82.0297 29.538 82.4717 29.708 83.0384 29.708C83.605 29.708 84.0584 29.538 84.3984 29.198C84.7384 28.8467 84.9084 28.382 84.9084 27.804V22.517ZM89.0748 31C88.9615 31 88.9048 30.9433 88.9048 30.83V19.27C88.9048 19.1567 88.9615 19.1 89.0748 19.1H90.3668C90.4802 19.1 90.5368 19.1567 90.5368 19.27V30.83C90.5368 30.9433 90.4802 31 90.3668 31H89.0748ZM99.9098 25.594C99.9552 26.0587 99.9722 26.58 99.9608 27.158C99.9608 27.2713 99.9042 27.328 99.7908 27.328H94.3678C94.3225 27.328 94.2998 27.3507 94.2998 27.396C94.2998 27.7813 94.3338 28.076 94.4018 28.28C94.5265 28.7333 94.7758 29.0903 95.1498 29.351C95.5352 29.6003 96.0168 29.725 96.5948 29.725C97.4335 29.725 98.0795 29.3793 98.5328 28.688C98.5895 28.5747 98.6632 28.5577 98.7538 28.637L99.7228 29.283C99.8022 29.351 99.8192 29.4247 99.7738 29.504C99.4565 30.014 99.0032 30.4163 98.4138 30.711C97.8358 31.0057 97.1785 31.153 96.4418 31.153C95.6145 31.153 94.9175 30.9717 94.3508 30.609C93.7842 30.2463 93.3592 29.7307 93.0758 29.062C92.8038 28.3933 92.6678 27.583 92.6678 26.631C92.6678 25.8037 92.7302 25.1747 92.8548 24.744C93.0588 23.962 93.4668 23.3443 94.0788 22.891C94.6908 22.4377 95.4332 22.211 96.3058 22.211C97.4505 22.211 98.3062 22.5 98.8728 23.078C99.4395 23.6447 99.7852 24.4833 99.9098 25.594ZM96.3058 23.622C95.8185 23.622 95.4162 23.7467 95.0988 23.996C94.7815 24.234 94.5662 24.557 94.4528 24.965C94.3735 25.2143 94.3225 25.5317 94.2998 25.917C94.2998 25.9623 94.3225 25.985 94.3678 25.985H98.2608C98.3062 25.985 98.3288 25.9623 98.3288 25.917C98.3062 25.543 98.2722 25.2653 98.2268 25.084C98.1135 24.642 97.8868 24.2907 97.5468 24.03C97.2182 23.758 96.8045 23.622 96.3058 23.622ZM109.452 31.153C108.636 31.153 107.911 30.9943 107.276 30.677C106.653 30.3483 106.166 29.8893 105.814 29.3C105.474 28.6993 105.304 28.0137 105.304 27.243V22.84C105.304 22.0693 105.474 21.395 105.814 20.817C106.166 20.2277 106.653 19.7743 107.276 19.457C107.911 19.1283 108.636 18.964 109.452 18.964C110.268 18.964 110.988 19.1227 111.611 19.44C112.235 19.746 112.716 20.1823 113.056 20.749C113.408 21.3157 113.583 21.973 113.583 22.721V22.738C113.583 22.7947 113.566 22.84 113.532 22.874C113.498 22.908 113.459 22.925 113.413 22.925L112.121 22.993C112.008 22.993 111.951 22.942 111.951 22.84V22.789C111.951 22.0637 111.725 21.48 111.271 21.038C110.818 20.596 110.212 20.375 109.452 20.375C108.693 20.375 108.081 20.596 107.616 21.038C107.163 21.48 106.936 22.0637 106.936 22.789V27.311C106.936 28.0363 107.163 28.62 107.616 29.062C108.081 29.504 108.693 29.725 109.452 29.725C110.212 29.725 110.818 29.504 111.271 29.062C111.725 28.62 111.951 28.0363 111.951 27.311V27.277C111.951 27.175 112.008 27.124 112.121 27.124L113.413 27.192C113.527 27.192 113.583 27.2487 113.583 27.362C113.583 28.11 113.408 28.773 113.056 29.351C112.716 29.9177 112.235 30.3597 111.611 30.677C110.988 30.9943 110.268 31.153 109.452 31.153ZM115.92 31C115.806 31 115.75 30.9433 115.75 30.83V19.27C115.75 19.1567 115.806 19.1 115.92 19.1H117.212C117.325 19.1 117.382 19.1567 117.382 19.27V30.83C117.382 30.9433 117.325 31 117.212 31H115.92ZM123.287 31.136C122.448 31.136 121.717 30.9263 121.094 30.507C120.47 30.0763 120.034 29.4813 119.785 28.722C119.581 28.11 119.479 27.4187 119.479 26.648C119.479 25.8433 119.575 25.1633 119.768 24.608C120.017 23.86 120.453 23.2763 121.077 22.857C121.7 22.4263 122.442 22.211 123.304 22.211C124.12 22.211 124.828 22.4263 125.429 22.857C126.041 23.2763 126.477 23.8543 126.738 24.591C126.942 25.169 127.044 25.849 127.044 26.631C127.044 27.4243 126.942 28.1213 126.738 28.722C126.488 29.4813 126.058 30.0763 125.446 30.507C124.834 30.9263 124.114 31.136 123.287 31.136ZM123.287 29.725C123.74 29.725 124.137 29.6003 124.477 29.351C124.817 29.0903 125.06 28.7277 125.208 28.263C125.332 27.8323 125.395 27.2997 125.395 26.665C125.395 26.0303 125.338 25.5033 125.225 25.084C125.077 24.6193 124.834 24.2623 124.494 24.013C124.154 23.7523 123.74 23.622 123.253 23.622C122.788 23.622 122.386 23.7523 122.046 24.013C121.706 24.2623 121.462 24.6193 121.315 25.084C121.19 25.4807 121.128 26.0077 121.128 26.665C121.128 27.3223 121.19 27.855 121.315 28.263C121.451 28.7277 121.689 29.0903 122.029 29.351C122.38 29.6003 122.799 29.725 123.287 29.725ZM134.331 22.517C134.331 22.4037 134.388 22.347 134.501 22.347H135.776C135.89 22.347 135.946 22.4037 135.946 22.517V30.83C135.946 30.9433 135.89 31 135.776 31H134.501C134.388 31 134.331 30.9433 134.331 30.83V30.201C134.331 30.1783 134.32 30.167 134.297 30.167C134.286 30.1557 134.269 30.1613 134.246 30.184C133.793 30.8073 133.096 31.119 132.155 31.119C131.6 31.119 131.084 31.0113 130.608 30.796C130.144 30.5807 129.77 30.2633 129.486 29.844C129.203 29.4247 129.061 28.9147 129.061 28.314V22.517C129.061 22.4037 129.118 22.347 129.231 22.347H130.506C130.62 22.347 130.676 22.4037 130.676 22.517V27.804C130.676 28.3933 130.829 28.858 131.135 29.198C131.453 29.538 131.895 29.708 132.461 29.708C133.028 29.708 133.481 29.538 133.821 29.198C134.161 28.8467 134.331 28.382 134.331 27.804V22.517ZM143.7 19.27C143.7 19.1567 143.756 19.1 143.87 19.1H145.162C145.275 19.1 145.332 19.1567 145.332 19.27V30.83C145.332 30.9433 145.275 31 145.162 31H143.87C143.756 31 143.7 30.9433 143.7 30.83V30.269C143.7 30.2463 143.688 30.2293 143.666 30.218C143.654 30.2067 143.637 30.2123 143.615 30.235C143.365 30.5183 143.071 30.7393 142.731 30.898C142.391 31.0567 142.022 31.136 141.626 31.136C140.81 31.136 140.13 30.9377 139.586 30.541C139.053 30.133 138.662 29.5607 138.413 28.824C138.197 28.2233 138.09 27.498 138.09 26.648C138.09 25.8547 138.18 25.169 138.362 24.591C138.6 23.843 138.991 23.2593 139.535 22.84C140.079 22.4207 140.776 22.211 141.626 22.211C142.011 22.211 142.374 22.2903 142.714 22.449C143.065 22.5963 143.365 22.8117 143.615 23.095C143.637 23.1177 143.654 23.1233 143.666 23.112C143.688 23.1007 143.7 23.0837 143.7 23.061V19.27ZM143.275 28.807C143.535 28.331 143.666 27.617 143.666 26.665C143.666 25.713 143.524 24.9877 143.241 24.489C142.912 23.911 142.43 23.622 141.796 23.622C141.116 23.622 140.611 23.894 140.283 24.438C139.92 25.0047 139.739 25.7527 139.739 26.682C139.739 27.5547 139.88 28.2573 140.164 28.79C140.492 29.4133 141.031 29.725 141.779 29.725C142.436 29.725 142.935 29.419 143.275 28.807ZM155.004 31.136C154.131 31.136 153.372 31 152.726 30.728C152.091 30.456 151.598 30.0707 151.247 29.572C150.907 29.0733 150.737 28.4897 150.737 27.821V27.328C150.737 27.2147 150.793 27.158 150.907 27.158H152.148C152.261 27.158 152.318 27.2147 152.318 27.328V27.736C152.318 28.314 152.567 28.79 153.066 29.164C153.564 29.538 154.25 29.725 155.123 29.725C155.905 29.725 156.494 29.5607 156.891 29.232C157.287 28.9033 157.486 28.4727 157.486 27.94C157.486 27.5887 157.384 27.2883 157.18 27.039C156.976 26.7897 156.675 26.563 156.279 26.359C155.893 26.1437 155.327 25.8887 154.579 25.594C153.751 25.2767 153.094 24.9877 152.607 24.727C152.131 24.4663 151.734 24.1263 151.417 23.707C151.099 23.2763 150.941 22.738 150.941 22.092C150.941 21.1173 151.286 20.3523 151.978 19.797C152.68 19.2417 153.627 18.964 154.817 18.964C155.655 18.964 156.392 19.1057 157.027 19.389C157.661 19.6723 158.149 20.069 158.489 20.579C158.84 21.089 159.016 21.6783 159.016 22.347V22.687C159.016 22.8003 158.959 22.857 158.846 22.857H157.571C157.457 22.857 157.401 22.8003 157.401 22.687V22.432C157.401 21.8427 157.163 21.3553 156.687 20.97C156.222 20.5733 155.576 20.375 154.749 20.375C154.046 20.375 153.502 20.5223 153.117 20.817C152.731 21.1003 152.539 21.514 152.539 22.058C152.539 22.432 152.635 22.738 152.828 22.976C153.02 23.214 153.304 23.4293 153.678 23.622C154.063 23.8033 154.647 24.0413 155.429 24.336C156.233 24.6533 156.885 24.948 157.384 25.22C157.882 25.4807 158.296 25.832 158.625 26.274C158.953 26.7047 159.118 27.243 159.118 27.889C159.118 28.8863 158.749 29.6797 158.013 30.269C157.287 30.847 156.284 31.136 155.004 31.136ZM168.126 25.594C168.171 26.0587 168.188 26.58 168.177 27.158C168.177 27.2713 168.12 27.328 168.007 27.328H162.584C162.538 27.328 162.516 27.3507 162.516 27.396C162.516 27.7813 162.55 28.076 162.618 28.28C162.742 28.7333 162.992 29.0903 163.366 29.351C163.751 29.6003 164.233 29.725 164.811 29.725C165.649 29.725 166.295 29.3793 166.749 28.688C166.805 28.5747 166.879 28.5577 166.97 28.637L167.939 29.283C168.018 29.351 168.035 29.4247 167.99 29.504C167.672 30.014 167.219 30.4163 166.63 30.711C166.052 31.0057 165.394 31.153 164.658 31.153C163.83 31.153 163.133 30.9717 162.567 30.609C162 30.2463 161.575 29.7307 161.292 29.062C161.02 28.3933 160.884 27.583 160.884 26.631C160.884 25.8037 160.946 25.1747 161.071 24.744C161.275 23.962 161.683 23.3443 162.295 22.891C162.907 22.4377 163.649 22.211 164.522 22.211C165.666 22.211 166.522 22.5 167.089 23.078C167.655 23.6447 168.001 24.4833 168.126 25.594ZM164.522 23.622C164.034 23.622 163.632 23.7467 163.315 23.996C162.997 24.234 162.782 24.557 162.669 24.965C162.589 25.2143 162.538 25.5317 162.516 25.917C162.516 25.9623 162.538 25.985 162.584 25.985H166.477C166.522 25.985 166.545 25.9623 166.545 25.917C166.522 25.543 166.488 25.2653 166.443 25.084C166.329 24.642 166.103 24.2907 165.763 24.03C165.434 23.758 165.02 23.622 164.522 23.622ZM173.704 31.136C172.843 31.136 172.106 30.9207 171.494 30.49C170.882 30.048 170.463 29.453 170.236 28.705C170.066 28.1837 169.981 27.498 169.981 26.648C169.981 25.866 170.066 25.1803 170.236 24.591C170.463 23.8657 170.882 23.2877 171.494 22.857C172.117 22.4263 172.854 22.211 173.704 22.211C174.554 22.211 175.296 22.4263 175.931 22.857C176.566 23.2877 176.979 23.8317 177.172 24.489C177.24 24.6703 177.285 24.8573 177.308 25.05C177.308 25.1407 177.257 25.1973 177.155 25.22L175.88 25.407H175.846C175.767 25.407 175.71 25.356 175.676 25.254L175.625 24.982C175.534 24.5967 175.313 24.2737 174.962 24.013C174.611 23.7523 174.186 23.622 173.687 23.622C173.2 23.622 172.786 23.7523 172.446 24.013C172.106 24.2737 171.885 24.6193 171.783 25.05C171.681 25.458 171.63 25.9963 171.63 26.665C171.63 27.3223 171.681 27.855 171.783 28.263C171.896 28.7163 172.117 29.0733 172.446 29.334C172.786 29.5947 173.2 29.725 173.687 29.725C174.186 29.725 174.611 29.5947 174.962 29.334C175.325 29.0733 175.551 28.7333 175.642 28.314C175.653 28.3027 175.653 28.2913 175.642 28.28C175.642 28.2573 175.648 28.2403 175.659 28.229V28.161C175.693 28.0703 175.755 28.0363 175.846 28.059L177.121 28.263C177.212 28.2857 177.257 28.331 177.257 28.399V28.467C177.257 28.569 177.229 28.6937 177.172 28.841C176.979 29.5323 176.566 30.0877 175.931 30.507C175.296 30.9263 174.554 31.136 173.704 31.136ZM184.335 22.517C184.335 22.4037 184.392 22.347 184.505 22.347H185.78C185.893 22.347 185.95 22.4037 185.95 22.517V30.83C185.95 30.9433 185.893 31 185.78 31H184.505C184.392 31 184.335 30.9433 184.335 30.83V30.201C184.335 30.1783 184.324 30.167 184.301 30.167C184.29 30.1557 184.273 30.1613 184.25 30.184C183.797 30.8073 183.1 31.119 182.159 31.119C181.604 31.119 181.088 31.0113 180.612 30.796C180.147 30.5807 179.773 30.2633 179.49 29.844C179.207 29.4247 179.065 28.9147 179.065 28.314V22.517C179.065 22.4037 179.122 22.347 179.235 22.347H180.51C180.623 22.347 180.68 22.4037 180.68 22.517V27.804C180.68 28.3933 180.833 28.858 181.139 29.198C181.456 29.538 181.898 29.708 182.465 29.708C183.032 29.708 183.485 29.538 183.825 29.198C184.165 28.8467 184.335 28.382 184.335 27.804V22.517ZM192.123 22.262C192.485 22.262 192.814 22.3357 193.109 22.483C193.188 22.517 193.216 22.585 193.194 22.687L192.922 23.962C192.91 24.064 192.842 24.098 192.718 24.064C192.525 23.9847 192.298 23.945 192.038 23.945L191.8 23.962C191.267 23.9847 190.825 24.1717 190.474 24.523C190.134 24.863 189.964 25.3107 189.964 25.866V30.83C189.964 30.9433 189.907 31 189.794 31H188.502C188.388 31 188.332 30.9433 188.332 30.83V22.517C188.332 22.4037 188.388 22.347 188.502 22.347H189.794C189.907 22.347 189.964 22.4037 189.964 22.517V23.418C189.964 23.452 189.969 23.4747 189.981 23.486C190.003 23.486 190.02 23.4747 190.032 23.452C190.542 22.6587 191.239 22.262 192.123 22.262ZM195.626 20.987C195.309 20.987 195.048 20.885 194.844 20.681C194.64 20.477 194.538 20.2163 194.538 19.899C194.538 19.5817 194.64 19.321 194.844 19.117C195.048 18.913 195.309 18.811 195.626 18.811C195.944 18.811 196.204 18.913 196.408 19.117C196.612 19.321 196.714 19.5817 196.714 19.899C196.714 20.2163 196.612 20.477 196.408 20.681C196.204 20.885 195.944 20.987 195.626 20.987ZM194.946 30.983C194.833 30.983 194.776 30.9263 194.776 30.813V22.517C194.776 22.4037 194.833 22.347 194.946 22.347H196.238C196.352 22.347 196.408 22.4037 196.408 22.517V30.813C196.408 30.9263 196.352 30.983 196.238 30.983H194.946ZM203.24 23.52C203.24 23.6333 203.184 23.69 203.07 23.69H201.234C201.189 23.69 201.166 23.7127 201.166 23.758V28.263C201.166 28.739 201.274 29.0847 201.489 29.3C201.705 29.504 202.039 29.606 202.492 29.606H202.985C203.099 29.606 203.155 29.6627 203.155 29.776V30.83C203.155 30.9433 203.099 31 202.985 31C202.623 31.0227 202.362 31.034 202.203 31.034C201.342 31.034 200.69 30.881 200.248 30.575C199.818 30.2577 199.602 29.6797 199.602 28.841V23.758C199.602 23.7127 199.58 23.69 199.534 23.69H198.497C198.384 23.69 198.327 23.6333 198.327 23.52V22.517C198.327 22.4037 198.384 22.347 198.497 22.347H199.534C199.58 22.347 199.602 22.3243 199.602 22.279V20.273C199.602 20.1597 199.659 20.103 199.772 20.103H200.996C201.11 20.103 201.166 20.1597 201.166 20.273V22.279C201.166 22.3243 201.189 22.347 201.234 22.347H203.07C203.184 22.347 203.24 22.4037 203.24 22.517V23.52ZM204.994 34.383C204.914 34.383 204.875 34.3263 204.875 34.213V33.21C204.875 33.0967 204.931 33.04 205.045 33.04H205.079C205.532 33.0287 205.889 32.972 206.15 32.87C206.41 32.768 206.626 32.5753 206.796 32.292C206.966 32.02 207.13 31.6063 207.289 31.051C207.3 31.0397 207.3 31.0227 207.289 31C207.289 30.966 207.289 30.949 207.289 30.949L204.45 22.534L204.433 22.466C204.433 22.3867 204.484 22.347 204.586 22.347H205.963C206.065 22.347 206.133 22.3923 206.167 22.483L208.088 28.892C208.099 28.9147 208.116 28.926 208.139 28.926C208.161 28.926 208.178 28.9147 208.19 28.892L210.094 22.483C210.128 22.3923 210.196 22.347 210.298 22.347H211.641C211.765 22.347 211.811 22.4093 211.777 22.534L208.683 31.595C208.422 32.377 208.161 32.955 207.901 33.329C207.64 33.7143 207.3 33.9863 206.881 34.145C206.461 34.3037 205.872 34.383 205.113 34.383H204.994ZM224.166 31C224.064 31 223.996 30.9547 223.962 30.864L223.35 28.875C223.339 28.841 223.316 28.824 223.282 28.824H218.505C218.471 28.824 218.448 28.841 218.437 28.875L217.825 30.864C217.791 30.9547 217.723 31 217.621 31H216.244C216.119 31 216.074 30.9377 216.108 30.813L219.831 19.236C219.865 19.1453 219.933 19.1 220.035 19.1H221.735C221.837 19.1 221.905 19.1453 221.939 19.236L225.696 30.813L225.713 30.881C225.713 30.9603 225.662 31 225.56 31H224.166ZM218.862 27.447C218.851 27.4697 218.851 27.4923 218.862 27.515C218.885 27.5263 218.907 27.532 218.93 27.532H222.84C222.863 27.532 222.88 27.5263 222.891 27.515C222.914 27.4923 222.919 27.4697 222.908 27.447L220.936 21.14C220.925 21.1173 220.908 21.106 220.885 21.106C220.862 21.106 220.845 21.1173 220.834 21.14L218.862 27.447ZM232.596 22.517C232.596 22.4037 232.653 22.347 232.766 22.347H234.041C234.154 22.347 234.211 22.4037 234.211 22.517V30.83C234.211 30.9433 234.154 31 234.041 31H232.766C232.653 31 232.596 30.9433 232.596 30.83V30.201C232.596 30.1783 232.585 30.167 232.562 30.167C232.551 30.1557 232.534 30.1613 232.511 30.184C232.058 30.8073 231.361 31.119 230.42 31.119C229.865 31.119 229.349 31.0113 228.873 30.796C228.408 30.5807 228.034 30.2633 227.751 29.844C227.468 29.4247 227.326 28.9147 227.326 28.314V22.517C227.326 22.4037 227.383 22.347 227.496 22.347H228.771C228.884 22.347 228.941 22.4037 228.941 22.517V27.804C228.941 28.3933 229.094 28.858 229.4 29.198C229.717 29.538 230.159 29.708 230.726 29.708C231.293 29.708 231.746 29.538 232.086 29.198C232.426 28.8467 232.596 28.382 232.596 27.804V22.517ZM241.964 19.27C241.964 19.1567 242.021 19.1 242.134 19.1H243.426C243.54 19.1 243.596 19.1567 243.596 19.27V30.83C243.596 30.9433 243.54 31 243.426 31H242.134C242.021 31 241.964 30.9433 241.964 30.83V30.269C241.964 30.2463 241.953 30.2293 241.93 30.218C241.919 30.2067 241.902 30.2123 241.879 30.235C241.63 30.5183 241.335 30.7393 240.995 30.898C240.655 31.0567 240.287 31.136 239.89 31.136C239.074 31.136 238.394 30.9377 237.85 30.541C237.318 30.133 236.927 29.5607 236.677 28.824C236.462 28.2233 236.354 27.498 236.354 26.648C236.354 25.8547 236.445 25.169 236.626 24.591C236.864 23.843 237.255 23.2593 237.799 22.84C238.343 22.4207 239.04 22.211 239.89 22.211C240.276 22.211 240.638 22.2903 240.978 22.449C241.33 22.5963 241.63 22.8117 241.879 23.095C241.902 23.1177 241.919 23.1233 241.93 23.112C241.953 23.1007 241.964 23.0837 241.964 23.061V19.27ZM241.539 28.807C241.8 28.331 241.93 27.617 241.93 26.665C241.93 25.713 241.789 24.9877 241.505 24.489C241.177 23.911 240.695 23.622 240.06 23.622C239.38 23.622 238.876 23.894 238.547 24.438C238.185 25.0047 238.003 25.7527 238.003 26.682C238.003 27.5547 238.145 28.2573 238.428 28.79C238.757 29.4133 239.295 29.725 240.043 29.725C240.701 29.725 241.199 29.419 241.539 28.807ZM246.975 20.987C246.657 20.987 246.397 20.885 246.193 20.681C245.989 20.477 245.887 20.2163 245.887 19.899C245.887 19.5817 245.989 19.321 246.193 19.117C246.397 18.913 246.657 18.811 246.975 18.811C247.292 18.811 247.553 18.913 247.757 19.117C247.961 19.321 248.063 19.5817 248.063 19.899C248.063 20.2163 247.961 20.477 247.757 20.681C247.553 20.885 247.292 20.987 246.975 20.987ZM246.295 30.983C246.181 30.983 246.125 30.9263 246.125 30.813V22.517C246.125 22.4037 246.181 22.347 246.295 22.347H247.587C247.7 22.347 247.757 22.4037 247.757 22.517V30.813C247.757 30.9263 247.7 30.983 247.587 30.983H246.295ZM254.589 23.52C254.589 23.6333 254.532 23.69 254.419 23.69H252.583C252.538 23.69 252.515 23.7127 252.515 23.758V28.263C252.515 28.739 252.623 29.0847 252.838 29.3C253.053 29.504 253.388 29.606 253.841 29.606H254.334C254.447 29.606 254.504 29.6627 254.504 29.776V30.83C254.504 30.9433 254.447 31 254.334 31C253.971 31.0227 253.711 31.034 253.552 31.034C252.691 31.034 252.039 30.881 251.597 30.575C251.166 30.2577 250.951 29.6797 250.951 28.841V23.758C250.951 23.7127 250.928 23.69 250.883 23.69H249.846C249.733 23.69 249.676 23.6333 249.676 23.52V22.517C249.676 22.4037 249.733 22.347 249.846 22.347H250.883C250.928 22.347 250.951 22.3243 250.951 22.279V20.273C250.951 20.1597 251.008 20.103 251.121 20.103H252.345C252.458 20.103 252.515 20.1597 252.515 20.273V22.279C252.515 22.3243 252.538 22.347 252.583 22.347H254.419C254.532 22.347 254.589 22.4037 254.589 22.517V23.52Z" fill="#0D0128"/>
<defs>
<linearGradient id="paint0_linear_4411_3550" x1="291" y1="24" x2="2" y2="24" gradientUnits="userSpaceOnUse">
<stop stop-color="#AA83FF"/>
<stop offset="1" stop-color="#D0FFCC"/>
</linearGradient>
<linearGradient id="paint1_linear_4411_3550" x1="291" y1="24" x2="2" y2="24" gradientUnits="userSpaceOnUse">
<stop stop-color="#C7ADFF"/>
<stop offset="1" stop-color="#776899" stop-opacity="0"/>
</linearGradient>
</defs>
</svg>
