<svg width="111" height="111" viewBox="0 0 111 111" fill="none" xmlns="http://www.w3.org/2000/svg">
<path d="M75.3457 52.918C86.3489 52.918 95.2636 61.9531 95.2637 73.0908C95.2637 84.2286 86.3489 93.2637 75.3457 93.2637C64.3427 93.2634 55.4287 84.2285 55.4287 73.0908C55.4288 61.9532 64.3427 52.9182 75.3457 52.918ZM87.2188 64.2119C86.0368 63.1033 84.2126 63.1383 83.0723 64.2656L82.9639 64.3779L73.4287 74.8096L73.2529 75.001L73.0596 74.8291L67.9697 70.3174C66.7185 69.2083 64.8173 69.3362 63.7217 70.6045C62.6246 71.8748 62.7518 73.8062 64.0049 74.917L71.4922 81.5527C72.7187 82.6398 74.5758 82.5419 75.6836 81.3301L87.3818 68.5312C88.5136 67.2929 88.4405 65.3582 87.2188 64.2119ZM46.8018 19.7363C55.4787 19.7366 62.5067 26.8612 62.5068 35.6426V40.5938H64.1152C67.882 40.5938 70.9305 43.6858 70.9307 47.4932V48.0654L70.71 48.1025C58.6268 50.1174 49.4045 60.7473 49.4043 73.5645C49.4043 76.3493 49.8412 79.0307 50.6465 81.543L50.7568 81.8867H28.5518C24.785 81.8867 21.7365 78.7947 21.7363 74.9873V47.4932C21.7365 43.6858 24.785 40.5938 28.5518 40.5938H31.0957V35.6426C31.0959 26.8611 38.1246 19.7363 46.8018 19.7363ZM46.8018 26.8994C42.0402 26.8994 38.174 30.8109 38.1738 35.6426V40.5938H55.4287V35.6426C55.4286 30.811 51.5631 26.8997 46.8018 26.8994Z" fill="url(#paint0_linear_5203_6265)" stroke="#65DA00" stroke-width="0.527026"/>
<defs>
<linearGradient id="paint0_linear_5203_6265" x1="66.6802" y1="107.975" x2="58.6889" y2="25.388" gradientUnits="userSpaceOnUse">
<stop stop-color="#142A01"/>
<stop offset="0.460655" stop-color="#65DA00"/>
<stop offset="1" stop-color="#65DA00"/>
</linearGradient>
</defs>
</svg>
