<svg width="75" height="56" viewBox="0 0 75 56" fill="none" xmlns="http://www.w3.org/2000/svg">
<path d="M64.975 0.226982C68.5103 0.226983 71.3761 3.09312 71.3763 6.62835V41.9037H72.6937L72.9056 41.9145C73.9542 42.021 74.7728 42.9061 74.7728 43.9828V47.3783C74.7728 51.5957 71.3534 55.015 67.1361 55.0151H7.86365C3.64628 55.015 0.226972 51.5957 0.226929 47.3783V43.9828C0.226966 42.8346 1.15792 41.9041 2.30603 41.9037H3.62341V6.62835C3.62367 3.09312 6.48949 0.226982 10.0248 0.226982H64.975ZM5.9613 46.9887C6.23503 48.6716 7.69103 49.9297 9.42029 49.9301H66.1967C67.8241 49.9297 69.1137 48.5892 69.0814 46.9887H5.9613ZM38.8676 13.5785C38.0828 10.1356 33.0963 10.2009 32.4017 13.6635L32.3715 13.8393L32.3705 13.8383L31.059 22.2924L30.6127 22.3071L29.4828 17.2231V17.2221L29.4467 17.0756C28.6458 14.0546 24.4166 13.7302 23.1927 16.6674L20.2523 23.7231L20.1947 23.8627H15.5804C14.2772 23.8629 13.2212 24.9198 13.2211 26.2231C13.2211 27.5264 14.2772 28.5833 15.5804 28.5834H21.1332C22.4701 28.5834 23.6765 27.7793 24.1908 26.5453L25.5638 23.2485L25.8392 22.5864L25.9955 23.2866L27.8871 31.8002C28.6816 35.3739 33.8316 35.2072 34.3929 31.5893L35.5463 24.1508L35.9945 24.145L37.1976 30.7592C37.8389 34.285 42.8436 34.4222 43.6771 30.9369L45.6488 22.6948L45.8431 21.8832L46.0863 22.6821L47.933 28.7231C48.7633 31.4392 52.4032 31.9187 53.9086 29.5102L54.4213 28.6899L54.4886 28.5834H60.7953C62.0986 28.5832 63.1556 27.5263 63.1556 26.2231C63.1555 24.9199 62.0985 23.8629 60.7953 23.8627H53.7074C53.0399 23.8628 52.3994 24.0653 51.8617 24.4262L51.6078 24.5961L51.5179 24.3032L48.8451 15.558L48.7933 15.3989V15.3979C47.7095 12.3304 43.2276 12.5226 42.4554 15.7504L40.8949 22.2758L40.4506 22.2631L38.9037 13.7553L38.8676 13.5785Z" fill="url(#paint0_linear_7_472)" stroke="#65DA00" stroke-width="0.454524"/>
<defs>
<linearGradient id="paint0_linear_7_472" x1="45.8023" y1="65.9332" x2="41.4218" y2="4.20009" gradientUnits="userSpaceOnUse">
<stop stop-color="#142A01"/>
<stop offset="0.460655" stop-color="#65DA00"/>
<stop offset="1" stop-color="#65DA00"/>
</linearGradient>
</defs>
</svg>
