<svg width="41" height="41" viewBox="0 0 41 41" fill="none" xmlns="http://www.w3.org/2000/svg">
<path fill-rule="evenodd" clip-rule="evenodd" d="M9.62245 1.018C6.53113 2.63479 5.02041 5.39429 5.02041 9.42495C5.02041 11.612 5.01664 11.6179 3.50927 11.9008C2.67839 12.0568 1.5488 12.6338 0.999061 13.1836C0.00920431 14.1736 0 14.2648 0 22.9655C0 31.6436 0.0121324 31.762 1.00868 32.9219L2.01737 34.096L8.43596 34.2286L14.8541 34.3613L19.6244 26.5548C23.4679 20.2642 24.6657 18.619 25.794 18.0809C27.0244 17.4942 27.1939 17.2181 27.1939 15.7979C27.1939 13.8025 25.8467 12.3062 23.6846 11.9008L22.1735 11.6171L22.1643 9.258C22.1371 2.24691 15.549 -2.08125 9.62245 1.018ZM11.2959 4.075C9.46807 4.988 8.36902 7.10856 8.36818 9.72287L8.36735 11.7104H13.5969H18.8265V9.71617C18.8265 8.59103 18.4923 7.08722 18.0588 6.26419C17.2731 4.77167 15.0909 3.34318 13.5969 3.34318C13.1367 3.34318 12.1013 3.67248 11.2959 4.075ZM27.0742 21.2354C26.7069 21.6412 24.3243 25.3564 21.7798 29.4913C14.6341 41.1025 14.5684 41 29.1535 41C39.0462 41 39.3148 40.9778 40.1469 40.084C40.6159 39.5807 41 38.7652 41 38.2723C41 37.3011 31.7319 21.8789 30.6324 21.0203C29.6677 20.2671 27.8507 20.3767 27.0742 21.2354ZM27.8511 25.3388C27.3729 25.8175 27.1939 26.8343 27.1939 29.0749C27.1939 31.3156 27.3729 32.3323 27.8511 32.811C28.6293 33.5889 28.6849 33.5956 29.7317 33.0353C30.4333 32.6595 30.5408 32.134 30.5408 29.0749C30.5408 26.0158 30.4333 25.4903 29.7317 25.1146C28.6849 24.5543 28.6293 24.561 27.8511 25.3388ZM27.629 35.7496C26.9638 36.5513 27.4411 37.9601 28.4904 38.2932C29.5585 38.6325 30.5408 37.8212 30.5408 36.6003C30.5408 35.178 28.5787 34.6048 27.629 35.7496Z" fill="#78FF04"/>
</svg>
