<svg width="43" height="42" viewBox="0 0 43 42" fill="none" xmlns="http://www.w3.org/2000/svg">
<path d="M40.1533 0H8.00504C6.85883 0 5.92969 0.929141 5.92969 2.07535V16.7505L8.96983 15.5888C9.31775 15.4557 9.67567 15.361 10.0398 15.302V10.5305C10.0398 9.79395 10.637 9.19679 11.3735 9.19679H36.7849C37.5215 9.19679 38.1187 9.79395 38.1187 10.5305V30.8144C38.1187 31.551 37.5215 32.1481 36.7849 32.1481H22.9432C22.4495 33.5766 21.8723 34.9641 21.2273 36.2581H40.1536C41.2998 36.2581 42.2289 35.329 42.2289 34.1828V2.07535C42.2288 0.929141 41.2995 0 40.1533 0ZM26.6082 5.95465C26.6082 6.35184 26.2862 6.67382 25.889 6.67382H23.8074C23.4102 6.67382 23.0882 6.35184 23.0882 5.95465V3.87306C23.0882 3.47588 23.4102 3.15389 23.8074 3.15389H25.889C26.2862 3.15389 26.6082 3.47588 26.6082 3.87306V5.95465ZM32.3633 5.95465C32.3633 6.35184 32.0413 6.67382 31.6441 6.67382H29.5625C29.1653 6.67382 28.8433 6.35184 28.8433 5.95465V3.87306C28.8433 3.47588 29.1653 3.15389 29.5625 3.15389H31.6441C32.0413 3.15389 32.3633 3.47588 32.3633 3.87306V5.95465ZM38.1185 5.95465C38.1185 6.35184 37.7965 6.67382 37.3993 6.67382H35.3178C34.9206 6.67382 34.5986 6.35184 34.5986 5.95465V3.87306C34.5986 3.47588 34.9206 3.15389 35.3178 3.15389H37.3993C37.7965 3.15389 38.1185 3.47588 38.1185 3.87306V5.95465Z" fill="#78FF04"/>
<path d="M20.1917 21.485L11.8149 18.2841C11.5235 18.1728 11.2169 18.1172 10.9101 18.1172C10.6033 18.1172 10.2966 18.1728 10.0053 18.2841L1.62854 21.485C0.562168 21.8924 -0.0994755 22.965 0.0122475 24.1011C0.743736 31.539 5.3325 41.9945 10.9101 41.9945C16.4877 41.9945 21.0765 31.539 21.8079 24.1013C21.9198 22.9633 21.2596 21.8932 20.1917 21.485Z" fill="#78FF04"/>
</svg>
