<svg width="26" height="30" viewBox="0 0 26 30" fill="none" xmlns="http://www.w3.org/2000/svg">
<path d="M14.8773 28.1257H21.4995C22.2021 28.1257 22.8758 27.8466 23.3726 27.3498C23.8693 26.8531 24.1484 26.1793 24.1484 25.4768V9.58341M24.1484 9.58341C24.1494 9.16371 24.0674 8.74796 23.9069 8.36015C23.7464 7.97234 23.5107 7.62015 23.2134 7.32391L18.4612 2.57179C18.165 2.27448 17.8128 2.03878 17.425 1.87829C17.0372 1.7178 16.6214 1.6357 16.2017 1.63673M24.1484 9.58341H17.5262C17.1749 9.58341 16.838 9.44387 16.5897 9.19549C16.3413 8.94711 16.2017 8.61023 16.2017 8.25897V1.63673M16.2017 1.63673H5.60616C4.90362 1.63673 4.22987 1.91581 3.7331 2.41257C3.23634 2.90934 2.95726 3.58309 2.95726 4.28562V8.6563M7.84447 20.8134L9.55301 27.2767C9.58924 27.3998 9.58894 27.5308 9.55213 27.6537C9.51532 27.7766 9.44359 27.8862 9.34566 27.9691C9.24773 28.052 9.12782 28.1047 9.00051 28.1207C8.8732 28.1368 8.74398 28.1155 8.62854 28.0595L6.18759 26.935C6.00625 26.8465 5.8071 26.8007 5.60534 26.8009C5.40358 26.8011 5.20453 26.8474 5.0234 26.9363L2.57847 28.0621C2.46308 28.1161 2.33456 28.1357 2.20831 28.1186C2.08206 28.1014 1.96345 28.0481 1.8667 27.9652C1.76995 27.8823 1.69917 27.7733 1.66286 27.6511C1.62654 27.529 1.62623 27.399 1.66195 27.2767L3.37049 20.8134M9.5795 17.5301C9.5795 19.7245 7.80057 21.5034 5.60616 21.5034C3.41174 21.5034 1.63281 19.7245 1.63281 17.5301C1.63281 15.3357 3.41174 13.5568 5.60616 13.5568C7.80057 13.5568 9.5795 15.3357 9.5795 17.5301Z" stroke="#78FE05" stroke-width="3.27334" stroke-linecap="round" stroke-linejoin="round"/>
</svg>
