<svg width="30" height="28" viewBox="0 0 30 28" fill="none" xmlns="http://www.w3.org/2000/svg">
<path d="M5.63281 20.3034H4.29948C3.59224 20.3034 2.91396 20.0224 2.41386 19.5223C1.91376 19.0222 1.63281 18.344 1.63281 17.6367V4.30339C1.63281 3.59614 1.91376 2.91786 2.41386 2.41777C2.91396 1.91767 3.59224 1.63672 4.29948 1.63672H25.6328C26.3401 1.63672 27.0183 1.91767 27.5184 2.41777C28.0185 2.91786 28.2995 3.59614 28.2995 4.30339V17.6367C28.2995 18.344 28.0185 19.0222 27.5184 19.5223C27.0183 20.0224 26.3401 20.3034 25.6328 20.3034H24.2995M14.9661 17.6367L21.6328 25.6367H8.29948L14.9661 17.6367Z" stroke="#78FE05" stroke-width="3.27308" stroke-linecap="round" stroke-linejoin="round"/>
</svg>
