<svg width="111" height="111" viewBox="0 0 111 111" fill="none" xmlns="http://www.w3.org/2000/svg">
<path d="M82.8916 78.4004C83.8311 78.4005 84.5933 79.1622 84.5938 80.1016V86.2275H28.1113V80.1016C28.1118 79.1623 28.8732 78.4008 29.8125 78.4004H82.8916ZM56.3545 32.6934C68.6944 32.6934 78.6982 42.6972 78.6982 55.0371V75.9062H34.0107V55.0371C34.0107 42.6972 44.0146 32.6934 56.3545 32.6934ZM56.3535 38.3066C55.2577 38.3067 54.3691 39.1952 54.3691 40.291C54.3694 41.3866 55.2579 42.2744 56.3535 42.2744C58.5367 42.2744 61.7679 42.88 64.3145 44.5918C65.5191 45.4016 66.6015 46.474 67.3496 47.9209C68.098 49.3683 68.5052 51.1776 68.3789 53.4502C68.3182 54.5443 69.1569 55.4812 70.251 55.542C71.3447 55.6024 72.28 54.7639 72.3408 53.6699C72.6771 47.6159 70.0294 43.6514 66.5283 41.2979C63.1528 39.0288 59.0851 38.3066 56.3535 38.3066ZM28.3418 49.6504C29.6886 49.6506 30.7802 50.742 30.7803 52.0889C30.7802 53.4356 29.6886 54.5281 28.3418 54.5283H20.9697C19.6227 54.5283 18.5304 53.4358 18.5303 52.0889C18.5303 50.7419 19.6227 49.6504 20.9697 49.6504H28.3418ZM89.1484 49.6504C90.4954 49.6504 91.5879 50.7419 91.5879 52.0889C91.5878 53.4358 90.4954 54.5283 89.1484 54.5283H82.8936C81.5466 54.5283 80.4542 53.4358 80.4541 52.0889C80.4541 50.7419 81.5466 49.6504 82.8936 49.6504H89.1484ZM78.2578 26.8525C79.2366 25.9272 80.7806 25.9707 81.7061 26.9492L81.8682 27.1396C82.6221 28.119 82.5266 29.5289 81.6094 30.3965L77.0645 34.6953C76.0858 35.6205 74.5426 35.577 73.6172 34.5986C72.6918 33.62 72.7346 32.0769 73.7129 31.1514L78.2578 26.8525ZM29.5654 26.7734C30.5179 25.8213 32.0622 25.8212 33.0146 26.7734L37.4375 31.1973C38.3898 32.1498 38.3899 33.694 37.4375 34.6465C36.4851 35.5985 34.9407 35.5987 33.9883 34.6465L29.5654 30.2227C28.6132 29.2702 28.6132 27.7259 29.5654 26.7734ZM56.3555 17.2129C57.7022 17.2132 58.7939 18.3054 58.7939 19.6523V25.9072C58.7939 27.2541 57.7022 28.3454 56.3555 28.3457C55.0085 28.3457 53.915 27.2544 53.915 25.9072V19.6523C53.915 18.3052 55.0085 17.2129 56.3555 17.2129Z" fill="url(#paint0_linear_5203_6275)" stroke="#65DA00" stroke-width="0.45484"/>
<defs>
<linearGradient id="paint0_linear_5203_6275" x1="63.1947" y1="100.064" x2="56.1003" y2="22.4227" gradientUnits="userSpaceOnUse">
<stop stop-color="#142A01"/>
<stop offset="0.460655" stop-color="#65DA00"/>
<stop offset="1" stop-color="#65DA00"/>
</linearGradient>
</defs>
</svg>
