<svg width="33" height="33" viewBox="0 0 33 33" fill="none" xmlns="http://www.w3.org/2000/svg">
<path d="M31.1172 16.3789C31.1172 20.2888 29.564 24.0385 26.7993 26.8032C24.0346 29.5679 20.2849 31.1211 16.375 31.1211M31.1172 16.3789C31.1172 12.469 29.564 8.7193 26.7993 5.95461C24.0346 3.18991 20.2849 1.63672 16.375 1.63672M31.1172 16.3789H1.63281M16.375 31.1211C12.4651 31.1211 8.7154 29.5679 5.9507 26.8032C3.186 24.0385 1.63281 20.2888 1.63281 16.3789M16.375 31.1211C19.0892 31.1211 21.2891 24.5199 21.2891 16.3789C21.2891 8.23794 19.0892 1.63672 16.375 1.63672M16.375 31.1211C13.6608 31.1211 11.4609 24.5199 11.4609 16.3789C11.4609 8.23794 13.6608 1.63672 16.375 1.63672M16.375 1.63672C12.4651 1.63672 8.7154 3.18991 5.9507 5.95461C3.186 8.7193 1.63281 12.469 1.63281 16.3789" stroke="#78FE05" stroke-width="3.27334" stroke-linecap="round" stroke-linejoin="round"/>
</svg>
