<svg width="75" height="75" viewBox="0 0 75 75" fill="none" xmlns="http://www.w3.org/2000/svg">
<path d="M53.8727 33.445C64.876 33.445 73.7907 42.4801 73.7907 53.6179C73.7907 64.7557 64.876 73.7907 53.8727 73.7907C42.8697 73.7905 33.9557 64.7555 33.9557 53.6179C33.9558 42.4802 42.8697 33.4453 53.8727 33.445ZM65.7458 44.739C64.5638 43.6304 62.7396 43.6653 61.5993 44.7927L61.4909 44.905L51.9557 55.3366L51.78 55.528L51.5866 55.3561L46.4968 50.8444C45.2455 49.7354 43.3443 49.8632 42.2487 51.1315C41.1516 52.4019 41.2788 54.3333 42.5319 55.444L50.0192 62.0798C51.2457 63.1669 53.1028 63.069 54.2106 61.8571L65.9089 49.0583C67.0407 47.82 66.9676 45.8852 65.7458 44.739ZM25.3288 0.263367C34.0058 0.263628 41.0337 7.38828 41.0339 16.1696V21.1208H42.6423C46.4091 21.1208 49.4575 24.2129 49.4577 28.0202V28.5925L49.237 28.6296C37.1539 30.6445 27.9316 41.2743 27.9313 54.0915C27.9313 56.8763 28.3682 59.5578 29.1735 62.07L29.2839 62.4138H7.0788C3.31199 62.4138 0.263524 59.3217 0.263367 55.5143V28.0202C0.263549 24.2129 3.31201 21.1208 7.0788 21.1208H9.62274V16.1696C9.62289 7.38812 16.6516 0.263367 25.3288 0.263367ZM25.3288 7.42645C20.5672 7.42645 16.701 11.3379 16.7009 16.1696V21.1208H33.9557V16.1696C33.9556 11.3381 30.0901 7.42671 25.3288 7.42645Z" fill="url(#paint0_linear_7_389)" stroke="#65DA00" stroke-width="0.527026"/>
<defs>
<linearGradient id="paint0_linear_7_389" x1="45.2072" y1="88.5017" x2="37.216" y2="5.91506" gradientUnits="userSpaceOnUse">
<stop stop-color="#142A01"/>
<stop offset="0.460655" stop-color="#65DA00"/>
<stop offset="1" stop-color="#65DA00"/>
</linearGradient>
</defs>
</svg>
