<svg width="32" height="32" viewBox="0 0 32 32" fill="none" xmlns="http://www.w3.org/2000/svg">
<path fill-rule="evenodd" clip-rule="evenodd" d="M0 15.5815V31.1629H15.5703H31.1406V23.494V15.825H23.4828H15.825L15.6977 8.03986L15.5703 0.254703L7.78516 0.127351L0 0V15.5815ZM21.0938 0.69253C20.4571 2.35228 21.1027 3.04016 23.4373 3.18843L25.718 3.33298L21.818 7.25391L17.9175 11.1744L18.953 12.2099L19.9886 13.2455L23.8314 9.4226C25.9448 7.31991 27.8267 5.59974 28.0131 5.59974C28.1995 5.59974 28.3519 6.6455 28.3519 7.92366C28.3519 10.196 28.3831 10.2476 29.7463 10.2476H31.1406V5.13495V0.0223099H26.246C22.412 0.0223099 21.2951 0.167323 21.0938 0.69253Z" fill="#78FF04"/>
</svg>
