<svg width="36" height="36" viewBox="0 0 36 36" fill="none" xmlns="http://www.w3.org/2000/svg">
<path d="M9.63281 27.2367V17.6367C9.63281 15.515 10.4757 13.4802 11.976 11.9799C13.4762 10.4796 15.5111 9.63672 17.6328 9.63672C19.7545 9.63672 21.7894 10.4796 23.2897 11.9799C24.79 13.4802 25.6328 15.515 25.6328 17.6367V27.2367M9.63281 27.2367H25.6328M9.63281 27.2367C8.78412 27.2367 7.97019 27.5739 7.37007 28.174C6.76995 28.7741 6.43281 29.588 6.43281 30.4367V32.0367C6.43281 32.4611 6.60138 32.868 6.90144 33.1681C7.2015 33.4681 7.60847 33.6367 8.03281 33.6367H27.2328C27.6572 33.6367 28.0641 33.4681 28.3642 33.1681C28.6642 32.868 28.8328 32.4611 28.8328 32.0367V30.4367C28.8328 29.588 28.4957 28.7741 27.8956 28.174C27.2954 27.5739 26.4815 27.2367 25.6328 27.2367M32.0328 17.6367H33.6328M28.0328 5.63672L27.2328 6.43672M1.63281 17.6367H3.23281M17.6328 1.63672V3.23672M6.31921 6.32312L7.45041 7.45432M17.6328 17.6367V27.2367" stroke="#78FE05" stroke-width="3.27308" stroke-linecap="round" stroke-linejoin="round"/>
</svg>
