<svg width="111" height="111" viewBox="0 0 111 111" fill="none" xmlns="http://www.w3.org/2000/svg">
<path d="M54.4932 23.9971C55.4697 23.6531 56.5303 23.6496 57.5088 23.9873L78.4824 31.2256C78.8622 31.3567 79.2209 31.5447 79.5469 31.7822L79.6572 31.8623H79.6562C80.6654 32.5976 81.2635 33.7862 81.2637 35.0508V63.6924C81.2636 65.4671 80.8909 67.2214 80.1709 68.8359L79.8672 69.5166C78.8205 71.8635 77.2293 73.9138 75.2314 75.4863L67.9277 81.2344L67.918 81.2422L67.9072 81.249L58.0908 87.5381C56.8121 88.3572 55.1879 88.3572 53.9092 87.5381L44.0928 81.249L44.082 81.2422L44.0723 81.2344L36.7686 75.4863C34.7707 73.9138 33.1795 71.8635 32.1328 69.5166L31.8291 68.8359C31.1092 67.2214 30.7364 65.4671 30.7363 63.6924V34.5996C30.7365 33.6177 31.1875 32.6906 31.957 32.0986C32.2125 31.9022 32.4977 31.7481 32.7998 31.6416L54.4932 23.9971ZM61.3066 39.7275C60.0398 38.5969 58.1195 38.7321 57.0146 40.0322L48.1494 50.4648C46.0073 52.9858 47.7653 56.8994 50.998 56.8994H56.6299L56.335 57.3154L51.333 64.3652C50.3403 65.7648 50.6443 67.7242 52.0059 68.7393C53.3635 69.751 55.2656 69.4454 56.2559 68.0498L64.2295 56.8105C66.0563 54.2352 64.2528 50.6427 61.1738 50.6426H56.082L56.4512 50.209L61.6035 44.1455C62.7112 42.8415 62.5769 40.862 61.3066 39.7275Z" fill="url(#paint0_linear_5203_6300)" stroke="#65DA00" stroke-width="0.527026"/>
<defs>
<linearGradient id="paint0_linear_5203_6300" x1="61.6029" y1="100.995" x2="52.7184" y2="29.1373" gradientUnits="userSpaceOnUse">
<stop stop-color="#142A01"/>
<stop offset="0.460655" stop-color="#65DA00"/>
<stop offset="1" stop-color="#65DA00"/>
</linearGradient>
</defs>
</svg>
