<svg width="74" height="70" viewBox="0 0 74 70" fill="none" xmlns="http://www.w3.org/2000/svg">
<path d="M64.5886 61.4148C65.5281 61.4149 66.2903 62.1766 66.2908 63.116V69.2419H9.80835V63.116C9.8088 62.1767 10.5702 61.4152 11.5095 61.4148H64.5886ZM38.0515 15.7078C50.3914 15.7078 60.3953 25.7116 60.3953 38.0515V58.9207H15.7078V38.0515C15.7078 25.7116 25.7116 15.7078 38.0515 15.7078ZM38.0505 21.321C36.9547 21.3211 36.0662 22.2096 36.0662 23.3054C36.0664 24.401 36.9549 25.2888 38.0505 25.2888C40.2338 25.2888 43.4649 25.8944 46.0115 27.6062C47.2161 28.416 48.2985 29.4884 49.0466 30.9353C49.795 32.3827 50.2022 34.192 50.0759 36.4646C50.0152 37.5587 50.8539 38.4956 51.948 38.5564C53.0418 38.6168 53.9771 37.7783 54.0378 36.6843C54.3741 30.6303 51.7264 26.6658 48.2253 24.3123C44.8498 22.0432 40.7821 21.321 38.0505 21.321ZM10.0388 32.6648C11.3856 32.665 12.4773 33.7564 12.4773 35.1033C12.4772 36.45 11.3856 37.5425 10.0388 37.5427H2.66675C1.31976 37.5427 0.227417 36.4502 0.227295 35.1033C0.227334 33.7563 1.31974 32.6648 2.66675 32.6648H10.0388ZM70.8455 32.6648C72.1925 32.6648 73.2849 33.7563 73.2849 35.1033C73.2848 36.4502 72.1924 37.5427 70.8455 37.5427H64.5906C63.2436 37.5427 62.1512 36.4502 62.1511 35.1033C62.1512 33.7563 63.2436 32.6648 64.5906 32.6648H70.8455ZM59.9548 9.86694C60.9336 8.9416 62.4776 8.98509 63.4031 9.96362L63.5652 10.1541C64.3191 11.1334 64.2236 12.5433 63.3064 13.4109L58.7615 17.7097C57.7828 18.6349 56.2397 18.5914 55.3142 17.613C54.3888 16.6344 54.4316 15.0913 55.4099 14.1658L59.9548 9.86694ZM11.2625 9.78784C12.2149 8.83567 13.7593 8.83564 14.7117 9.78784L19.1345 14.2117C20.0868 15.1642 20.087 16.7085 19.1345 17.6609C18.1821 18.6129 16.6377 18.6131 15.6853 17.6609L11.2625 13.2371C10.3102 12.2846 10.3102 10.7403 11.2625 9.78784ZM38.0525 0.227295C39.3992 0.227591 40.491 1.31985 40.491 2.66675V8.92163C40.491 10.2685 39.3992 11.3598 38.0525 11.3601C36.7056 11.3601 35.6121 10.2688 35.6121 8.92163V2.66675C35.6121 1.3196 36.7056 0.227295 38.0525 0.227295Z" fill="url(#paint0_linear_7_445)" stroke="#65DA00" stroke-width="0.45484"/>
<defs>
<linearGradient id="paint0_linear_7_445" x1="44.8917" y1="83.0781" x2="37.7974" y2="5.43713" gradientUnits="userSpaceOnUse">
<stop stop-color="#142A01"/>
<stop offset="0.460655" stop-color="#65DA00"/>
<stop offset="1" stop-color="#65DA00"/>
</linearGradient>
</defs>
</svg>
