<svg width="40" height="38" viewBox="0 0 40 38" fill="none" xmlns="http://www.w3.org/2000/svg">
<path d="M35.4353 0H4.25223C1.84263 0 0 1.84263 0 4.25223V29.7656C0 32.1752 1.84263 34.0179 4.25223 34.0179H7.79576C7.79576 33.4509 7.79576 32.8839 8.07924 32.317C6.52009 32.0335 5.10268 30.7578 4.67746 29.1987C4.39397 27.923 4.25223 26.6473 4.25223 25.5134C4.25223 24.3795 4.39397 23.1038 4.67746 21.8281C5.10268 20.1272 6.37835 18.9933 8.07924 18.7098C7.51228 17.1507 7.9375 15.4498 9.21317 14.1741C11.0558 12.4732 13.1819 11.1975 15.4498 10.4888C17.1507 10.0636 18.8516 10.4888 19.8438 11.7645C20.9777 10.4888 22.6786 9.92188 24.2377 10.4888C26.6473 11.1975 28.7734 12.4732 30.4743 14.1741C31.75 15.308 32.0335 17.1507 31.6083 18.7098C33.1674 18.9933 34.5848 20.269 35.01 21.8281C35.2935 23.1038 35.4353 24.2377 35.4353 25.5134C35.4353 26.7891 35.2935 27.923 35.01 29.1987C34.5848 30.8996 33.3092 32.0335 31.6083 32.317C31.75 32.8839 31.8917 33.4509 31.8917 34.0179H35.4353C37.8449 34.0179 39.6875 32.1752 39.6875 29.7656V4.25223C39.6875 1.84263 37.8449 0 35.4353 0ZM8.36272 6.23661C8.36272 6.37835 8.22098 6.52009 8.07924 6.66183C7.79576 6.94531 7.51228 7.08705 7.08705 7.08705C6.66183 7.08705 6.37835 6.94531 6.09487 6.66183C5.81138 6.37835 5.66964 6.09487 5.66964 5.66964C5.66964 5.24442 5.81138 4.96094 6.09487 4.67746L6.23661 4.53571C6.37835 4.53571 6.37835 4.39397 6.52009 4.39397C6.66183 4.25223 6.66183 4.25223 6.80357 4.25223C6.94531 4.25223 7.22879 4.25223 7.37054 4.25223C7.51228 4.25223 7.51228 4.25223 7.65402 4.39397C7.79576 4.39397 7.79576 4.53571 7.9375 4.53571L8.07924 4.67746C8.22098 4.8192 8.36272 4.96094 8.36272 5.10268C8.50446 5.24442 8.50446 5.5279 8.50446 5.66964C8.50446 5.81138 8.50446 6.09487 8.36272 6.23661ZM12.3315 6.66183C12.048 6.94531 11.7645 7.08705 11.3393 7.08705C10.9141 7.08705 10.6306 6.94531 10.3471 6.66183C10.0636 6.37835 9.92188 6.09487 9.92188 5.66964C9.92188 5.5279 9.92188 5.24442 10.0636 5.10268C10.2054 4.96094 10.2054 4.8192 10.3471 4.67746C10.4888 4.53571 10.6306 4.39397 10.7723 4.39397C11.3393 4.11049 11.9062 4.25223 12.3315 4.67746C12.4732 4.8192 12.615 4.96094 12.615 5.10268C12.7567 5.24442 12.7567 5.5279 12.7567 5.66964C12.7567 6.09487 12.615 6.37835 12.3315 6.66183ZM16.8672 6.23661C16.7254 6.37835 16.7254 6.52009 16.5837 6.66183C16.3002 6.94531 16.0167 7.08705 15.5915 7.08705C15.4498 7.08705 15.1663 7.08705 15.0246 6.94531C14.8828 6.80357 14.7411 6.80357 14.5993 6.66183C14.4576 6.52009 14.3158 6.37835 14.3158 6.23661C14.1741 6.09487 14.1741 5.81138 14.1741 5.66964C14.1741 5.5279 14.1741 5.24442 14.3158 5.10268C14.4576 4.96094 14.4576 4.8192 14.5993 4.67746C15.1663 4.11049 16.0167 4.11049 16.5837 4.67746C16.7254 4.8192 16.8672 4.96094 16.8672 5.10268C17.0089 5.24442 17.0089 5.5279 17.0089 5.66964C17.0089 5.81138 17.0089 6.09487 16.8672 6.23661Z" fill="#78FF04"/>
<path d="M32.1741 22.5367C32.0324 21.828 31.3237 21.4028 30.615 21.4028C29.7645 21.5445 28.9141 21.1193 28.4888 20.4106C28.0636 19.7019 28.0636 18.8514 28.6306 18.1427C29.0558 17.5758 29.0558 16.7253 28.4888 16.3001C27.0714 14.8827 25.2288 13.8905 23.3862 13.3235C22.6775 13.1818 21.9687 13.4653 21.6853 14.174C21.4018 14.8827 20.5513 15.4496 19.8426 15.4496C19.1339 15.4496 18.2835 14.8827 18 14.174C17.7165 13.4653 17.0078 13.1818 16.2991 13.3235C14.4565 13.8905 12.6138 14.8827 11.1964 16.3001C10.6295 16.867 10.6295 17.5758 11.0547 18.1427C11.6217 18.8514 11.6217 19.7019 11.1964 20.4106C10.7712 21.1193 9.92076 21.5445 9.07031 21.4028C8.36161 21.261 7.6529 21.828 7.51116 22.5367C7.22768 23.5289 7.08594 24.5211 7.08594 25.5133C7.08594 26.5054 7.22768 27.4976 7.51116 28.4898C7.6529 29.1985 8.36161 29.6237 9.07031 29.6237C9.92076 29.482 10.7712 29.9072 11.1964 30.6159C11.6217 31.3246 11.6217 32.1751 11.0547 32.8838C10.6295 33.4508 10.6295 34.3012 11.1964 34.7264C12.6138 36.1438 14.4565 37.136 16.2991 37.703C17.0078 37.8447 17.7165 37.5612 18 36.8525C18.2835 36.1438 19.1339 35.5769 19.8426 35.5769C20.5513 35.5769 21.4018 36.1438 21.6853 36.8525C21.9687 37.4195 22.394 37.703 22.9609 37.703C23.1027 37.703 23.2444 37.703 23.3862 37.703C25.2288 37.136 27.0714 36.1438 28.4888 34.7264C29.0558 34.1595 29.0558 33.4508 28.6306 32.8838C28.0636 32.1751 28.0636 31.3246 28.4888 30.6159C28.9141 29.9072 29.7645 29.482 30.615 29.6237C31.3237 29.7655 32.0324 29.1985 32.1741 28.4898C32.4576 27.4976 32.5993 26.5054 32.5993 25.5133C32.5993 24.5211 32.4576 23.5289 32.1741 22.5367ZM19.8426 29.7655C17.433 29.7655 15.5904 27.9229 15.5904 25.5133C15.5904 23.1037 17.433 21.261 19.8426 21.261C22.2522 21.261 24.0949 23.1037 24.0949 25.5133C24.0949 27.9229 22.2522 29.7655 19.8426 29.7655Z" fill="#78FF04"/>
</svg>
