<svg width="40" height="35" viewBox="0 0 40 35" fill="none" xmlns="http://www.w3.org/2000/svg">
<path d="M24.0968 2.29493C24.0968 1.02748 23.0693 0 21.8019 0H17.212C15.9446 0 14.9171 1.02748 14.9171 2.29493V10.957C13.7392 13.523 12.291 16.2735 10.8132 18.1665C9.32368 20.0744 6.92555 22.2369 4.79789 23.9836C4.72534 24.0431 4.65326 24.1021 4.58172 24.1604L1.95885 21.5375C1.23599 20.8146 0 21.3266 0 22.3489V29.9059C0 30.5396 0.513739 31.0533 1.14747 31.0533H8.70447C9.72672 31.0533 10.2387 29.8174 9.51581 29.0945L7.84316 27.4218C9.99372 25.6487 12.6499 23.2725 14.4311 20.9908C15.4228 19.7206 16.3622 18.1992 17.212 16.6398V26.3918H13.6892C12.1087 26.3918 11.3639 28.3434 12.5424 29.3964L18.3123 34.552C18.9629 35.1334 19.9456 35.136 20.5993 34.558L26.4296 29.4023C27.6168 28.3525 26.8743 26.3918 25.2894 26.3918H21.8019V16.6398C22.6517 18.1992 23.5911 19.7206 24.5828 20.9908C26.364 23.2725 29.0202 25.6487 31.1707 27.4218L29.4981 29.0945C28.7752 29.8174 29.2872 31.0533 30.3094 31.0533H37.8664C38.5002 31.0533 39.0139 30.5396 39.0139 29.9059V22.3489C39.0139 21.3266 37.7779 20.8146 37.055 21.5375L34.4322 24.1604C34.3606 24.1021 34.2886 24.0431 34.216 23.9836C32.0884 22.2369 29.6902 20.0744 28.2007 18.1665C26.7229 16.2735 25.2747 13.523 24.0968 10.957V2.29493Z" fill="#78FF04"/>
</svg>
