<svg width="25" height="25" viewBox="0 0 25 25" fill="none" xmlns="http://www.w3.org/2000/svg">
<path d="M13.4986 22.3012H22.2987M15.6986 4.70087L20.0987 9.10094M22.4901 6.6941C23.0717 6.11266 23.3985 5.32399 23.3986 4.5016C23.3987 3.67921 23.0721 2.89047 22.4907 2.30888C21.9092 1.72729 21.1206 1.40049 20.2982 1.40039C19.4758 1.40029 18.687 1.72688 18.1055 2.30833L3.4246 16.9925C3.1692 17.2471 2.98032 17.5607 2.87459 17.9055L1.42147 22.6928C1.39304 22.7879 1.39089 22.889 1.41525 22.9852C1.43961 23.0815 1.48958 23.1693 1.55984 23.2395C1.63011 23.3096 1.71805 23.3595 1.81435 23.3837C1.91064 23.4079 2.01169 23.4056 2.10678 23.377L6.89516 21.925C7.23965 21.8202 7.55316 21.6325 7.80818 21.3783L22.4901 6.6941Z" stroke="#78FE05" stroke-width="2.8"/>
</svg>
