<svg width="30" height="29" viewBox="0 0 30 29" fill="none" xmlns="http://www.w3.org/2000/svg">
<path d="M12.1042 8.20768L8.20378 12.1081L12.1042 16.0085M17.3047 16.0085L21.2051 12.1081L17.3047 8.20768M27.7057 19.9089C27.7057 20.5985 27.4318 21.2599 26.9441 21.7475C26.4565 22.2352 25.7951 22.5091 25.1055 22.5091H7.98015C7.29058 22.5093 6.6293 22.7833 6.14177 23.271L3.27888 26.1339C3.14979 26.2629 2.98532 26.3508 2.80627 26.3865C2.62722 26.4221 2.44164 26.4038 2.27298 26.3339C2.10432 26.2641 1.96016 26.1458 1.85873 25.994C1.7573 25.8422 1.70315 25.6638 1.70312 25.4812V4.30729C1.70312 3.61766 1.97708 2.95627 2.46472 2.46863C2.95237 1.98099 3.61375 1.70703 4.30339 1.70703H25.1055C25.7951 1.70703 26.4565 1.98099 26.9441 2.46863C27.4318 2.95627 27.7057 3.61766 27.7057 4.30729V19.9089Z" stroke="#78FE05" stroke-width="3.41358" stroke-linecap="round" stroke-linejoin="round"/>
</svg>
