<svg width="26" height="30" viewBox="0 0 26 30" fill="none" xmlns="http://www.w3.org/2000/svg">
<path d="M2.82169 12.0207V4.17366C2.82169 3.45602 3.10677 2.76777 3.61422 2.26032C4.12168 1.75287 4.80993 1.46778 5.52757 1.46778H16.3511M16.3511 1.46778C16.7798 1.46673 17.2045 1.5506 17.6007 1.71454C17.9968 1.87848 18.3566 2.11925 18.6592 2.42296L23.5136 7.27731C23.8173 7.57992 24.058 7.93969 24.222 8.33584C24.3859 8.73199 24.4698 9.15669 24.4687 9.58543M16.3511 1.46778V8.23249C16.3511 8.59131 16.4936 8.93543 16.7474 9.18916C17.0011 9.44288 17.3452 9.58543 17.704 9.58543H24.4687M24.4687 9.58543V25.8207C24.4687 26.5384 24.1837 27.2266 23.6762 27.7341C23.1688 28.2415 22.4805 28.5266 21.7629 28.5266H17.704M9.58639 21.7619V19.056C9.58639 18.3384 9.30131 17.6501 8.79386 17.1427C8.28641 16.6352 7.59816 16.3501 6.88051 16.3501C6.16287 16.3501 5.47462 16.6352 4.96717 17.1427C4.45971 17.6501 4.17463 18.3384 4.17463 19.056V21.7619M2.82169 21.7619H10.9393C11.6865 21.7619 12.2923 22.3676 12.2923 23.1148V27.1737C12.2923 27.9209 11.6865 28.5266 10.9393 28.5266H2.82169C2.07448 28.5266 1.46875 27.9209 1.46875 27.1737V23.1148C1.46875 22.3676 2.07448 21.7619 2.82169 21.7619Z" stroke="#78FE05" stroke-width="2.93553" stroke-linecap="round" stroke-linejoin="round"/>
</svg>
