<svg width="52" height="65" viewBox="0 0 52 65" fill="none" xmlns="http://www.w3.org/2000/svg">
<path d="M24.0201 0.524109C24.9966 0.180095 26.0573 0.176661 27.0358 0.514343L48.0094 7.75262C48.3892 7.88373 48.7479 8.07173 49.0739 8.30927L49.1842 8.38934H49.1832C50.1923 9.12468 50.7905 10.3133 50.7906 11.5778V40.2194C50.7906 41.9942 50.4178 43.7484 49.6979 45.363L49.3942 46.0436C48.3475 48.3905 46.7563 50.4408 44.7584 52.0134L37.4547 57.7614L37.4449 57.7692L37.4342 57.7761L27.6178 64.0651C26.3391 64.8842 24.7149 64.8842 23.4362 64.0651L13.6198 57.7761L13.609 57.7692L13.5992 57.7614L6.29553 52.0134C4.29765 50.4408 2.70647 48.3905 1.65979 46.0436L1.35608 45.363C0.636128 43.7484 0.263369 41.9942 0.263306 40.2194V11.1266C0.263442 10.1448 0.714428 9.21765 1.48401 8.62567C1.73951 8.42925 2.02466 8.2751 2.32678 8.16864L24.0201 0.524109ZM30.8336 16.2546C29.5668 15.1239 27.6465 15.2591 26.5416 16.5593L17.6764 26.9919C15.5343 29.5129 17.2923 33.4265 20.525 33.4265H26.1569L25.8619 33.8425L20.86 40.8923C19.8673 42.2918 20.1713 44.2512 21.5328 45.2663C22.8904 46.278 24.7926 45.9725 25.7828 44.5768L33.7565 33.3376C35.5833 30.7623 33.7797 27.1698 30.7008 27.1696H25.609L25.9781 26.736L31.1305 20.6725C32.2382 19.3685 32.1039 17.389 30.8336 16.2546Z" fill="url(#paint0_linear_7_533)" stroke="#65DA00" stroke-width="0.527026"/>
<defs>
<linearGradient id="paint0_linear_7_533" x1="31.1298" y1="77.5216" x2="22.2454" y2="5.66432" gradientUnits="userSpaceOnUse">
<stop stop-color="#142A01"/>
<stop offset="0.460655" stop-color="#65DA00"/>
<stop offset="1" stop-color="#65DA00"/>
</linearGradient>
</defs>
</svg>
