<svg width="31" height="29" viewBox="0 0 31 29" fill="none" xmlns="http://www.w3.org/2000/svg">
<path d="M18.4113 24.1762L19.6699 23.6554M19.6699 20.5246L18.4113 20.0024M21.8843 18.3102L21.362 17.0517M21.8843 25.8698L21.362 27.1297M25.015 18.3102L25.5372 17.0517M25.5359 27.1297L25.015 25.8698M1.63281 26.1807C1.63297 24.4639 2.03832 22.7714 2.81591 21.2408C3.59349 19.7103 4.72135 18.3849 6.10775 17.3724C7.49415 16.3599 9.09996 15.6889 10.7946 15.414C12.4892 15.1391 14.2247 15.2681 15.8601 15.7904M27.2294 20.5246L28.4893 20.0024M27.2294 23.6554L28.4893 24.1776M19.359 8.45448C19.359 12.2198 16.3066 15.2722 12.5412 15.2722C8.77588 15.2722 5.72347 12.2198 5.72347 8.45448C5.72347 4.68913 8.77588 1.63672 12.5412 1.63672C16.3066 1.63672 19.359 4.68913 19.359 8.45448ZM27.5403 22.09C27.5403 24.3492 25.7089 26.1807 23.4496 26.1807C21.1904 26.1807 19.359 24.3492 19.359 22.09C19.359 19.8308 21.1904 17.9993 23.4496 17.9993C25.7089 17.9993 27.5403 19.8308 27.5403 22.09Z" stroke="#78FE05" stroke-width="3.27334" stroke-linecap="round" stroke-linejoin="round"/>
</svg>
