<svg width="31" height="31" viewBox="0 0 31 31" fill="none" xmlns="http://www.w3.org/2000/svg">
<path d="M13.9286 8.7272C14.0313 8.41194 14.2322 8.13778 14.5017 7.9447C14.7713 7.75162 15.0955 7.64973 15.4271 7.6539C15.7586 7.65807 16.0802 7.76808 16.3448 7.96787C16.6095 8.16766 16.8033 8.44679 16.8981 8.76453L18.0446 11.0232C18.1561 11.2428 18.3183 11.4327 18.5176 11.5774C18.7169 11.7221 18.9477 11.8174 19.191 11.8554L21.7328 12.2536C22.0601 12.2549 22.3787 12.3594 22.6431 12.5522C22.9076 12.745 23.1045 13.0164 23.2059 13.3276C23.3072 13.6388 23.3078 13.9741 23.2075 14.2857C23.1073 14.5972 22.9113 14.8692 22.6475 15.063L20.8244 16.8799C20.6498 17.0536 20.519 17.2664 20.4428 17.5006C20.3665 17.7348 20.3469 17.9837 20.3857 18.227L20.7886 20.7361C20.8994 21.0506 20.9063 21.3924 20.8081 21.711C20.71 22.0297 20.512 22.3084 20.2434 22.506C19.9749 22.7037 19.6499 22.8098 19.3165 22.8087C18.983 22.8076 18.6588 22.6994 18.3915 22.5001L16.1126 21.3334C15.893 21.2209 15.6499 21.1623 15.4032 21.1623C15.1566 21.1623 14.9134 21.2209 14.6939 21.3334L12.415 22.5001C12.1477 22.6978 11.8242 22.8047 11.4917 22.805C11.1593 22.8054 10.8355 22.6993 10.5677 22.5022C10.3 22.3051 10.1025 22.0274 10.0041 21.7099C9.9057 21.3923 9.91163 21.0516 10.021 20.7376L10.4224 18.2285C10.4611 17.9853 10.4415 17.7363 10.3653 17.5021C10.289 17.2679 10.1582 17.0552 9.98369 16.8814L8.18546 15.0879C7.91271 14.8989 7.70753 14.6277 7.59989 14.3138C7.49225 13.9999 7.4878 13.6598 7.58719 13.3433C7.68658 13.0267 7.8846 12.7502 8.15232 12.5541C8.42003 12.3581 8.74343 12.2528 9.07524 12.2536L11.6155 11.8554C11.8588 11.8174 12.0896 11.7221 12.2889 11.5774C12.4882 11.4327 12.6503 11.2428 12.7619 11.0232L13.9286 8.7272Z" stroke="#78FE05" stroke-width="2.86394" stroke-linecap="round" stroke-linejoin="round"/>
<path d="M26.3186 1.43164H4.5408C2.82258 1.43164 1.42969 2.82453 1.42969 4.54275V26.3205C1.42969 28.0388 2.82258 29.4316 4.5408 29.4316H26.3186C28.0368 29.4316 29.4297 28.0388 29.4297 26.3205V4.54275C29.4297 2.82453 28.0368 1.43164 26.3186 1.43164Z" stroke="#78FE05" stroke-width="2.86394" stroke-linecap="round" stroke-linejoin="round"/>
</svg>
