<svg width="111" height="111" viewBox="0 0 111 111" fill="none" xmlns="http://www.w3.org/2000/svg">
<path d="M83.4268 28.106C86.962 28.106 89.8279 30.9721 89.8281 34.5073V69.7827H91.1455L91.3574 69.7935C92.4059 69.9 93.2246 70.7851 93.2246 71.8618V75.2573C93.2246 79.4747 89.8052 82.894 85.5879 82.894H26.3154C22.0981 82.894 18.6788 79.4747 18.6787 75.2573V71.8618C18.6787 70.7136 19.6097 69.7831 20.7578 69.7827H22.0752V34.5073C22.0755 30.9721 24.9413 28.106 28.4766 28.106H83.4268ZM24.4131 74.8677C24.6868 76.5506 26.1428 77.8087 27.8721 77.8091H84.6484C86.2759 77.8087 87.5655 76.4682 87.5332 74.8677H24.4131ZM57.3193 41.4575C56.5346 38.0146 51.5481 38.0799 50.8535 41.5425L50.8232 41.7183L50.8223 41.7173L49.5107 50.1714L49.0645 50.186L47.9346 45.1021V45.1011L47.8984 44.9546C47.0976 41.9336 42.8684 41.6092 41.6445 44.5464L38.7041 51.6021L38.6465 51.7417H34.0322C32.729 51.7418 31.6729 52.7988 31.6729 54.1021C31.6729 55.4054 32.729 56.4623 34.0322 56.4624H39.585C40.9218 56.4624 42.1283 55.6583 42.6426 54.4243L44.0156 51.1274L44.291 50.4653L44.4473 51.1655L46.3389 59.6792C47.1334 63.2529 52.2833 63.0861 52.8447 59.4683L53.998 52.0298L54.4463 52.0239L55.6494 58.6382C56.2907 62.164 61.2954 62.3012 62.1289 58.8159L64.1006 50.5737L64.2949 49.7622L64.5381 50.561L66.3848 56.6021C67.2151 59.3182 70.855 59.7977 72.3604 57.3892L72.873 56.5688L72.9404 56.4624H79.2471C80.5503 56.4622 81.6074 55.4053 81.6074 54.1021C81.6073 52.7989 80.5503 51.7419 79.2471 51.7417H72.1592C71.4917 51.7418 70.8512 51.9443 70.3135 52.3052L70.0596 52.4751L69.9697 52.1821L67.2969 43.437L67.2451 43.2778V43.2769C66.1613 40.2094 61.6794 40.4016 60.9072 43.6294L59.3467 50.1548L58.9023 50.1421L57.3555 41.6343L57.3193 41.4575Z" fill="url(#paint0_linear_5203_6278)" stroke="#65DA00" stroke-width="0.454524"/>
<defs>
<linearGradient id="paint0_linear_5203_6278" x1="64.2541" y1="93.8122" x2="59.8736" y2="32.0791" gradientUnits="userSpaceOnUse">
<stop stop-color="#142A01"/>
<stop offset="0.460655" stop-color="#65DA00"/>
<stop offset="1" stop-color="#65DA00"/>
</linearGradient>
</defs>
</svg>
