<svg width="44" height="36" viewBox="0 0 44 36" fill="none" xmlns="http://www.w3.org/2000/svg">
<path d="M11.6313 0H41.66C42.4745 0 43.1406 0.666142 43.1406 1.48058V7.40131C43.1406 8.21575 42.4745 8.88189 41.66 8.88189H11.6313C10.8169 8.88189 10.1507 8.21575 10.1507 7.40131V1.48058C10.1507 0.666142 10.8169 0 11.6313 0ZM9.09284 26.6457H28.9724C29.7861 26.6457 30.4522 27.3118 30.4522 28.1255V34.0478C30.4522 34.8614 29.7861 35.5276 28.9724 35.5276H9.09284C8.27919 35.5276 7.61305 34.8614 7.61305 34.0478V28.1255C7.61305 27.3118 8.27919 26.6457 9.09284 26.6457ZM1.48058 15.2261H21.3586C22.173 15.2261 22.8392 15.8922 22.8392 16.7067V22.6274C22.8392 23.4419 22.173 24.108 21.3586 24.108H1.48058C0.666142 24.108 0 23.4419 0 22.6274V16.7067C0 15.8922 0.666142 15.2261 1.48058 15.2261Z" fill="#78FF04"/>
</svg>
