<svg width="39" height="33" viewBox="0 0 39 33" fill="none" xmlns="http://www.w3.org/2000/svg">
<path d="M34.8214 0H4.17857C1.81071 0 0 1.7875 0 4.125V28.875C0 31.2125 1.81071 33 4.17857 33H34.8214C37.1893 33 39 31.2125 39 28.875V4.125C39 1.7875 37.1893 0 34.8214 0ZM9.88929 4.95C10.0286 4.8125 10.0286 4.675 10.1679 4.5375C10.3071 4.4 10.4464 4.2625 10.5857 4.2625C11.1429 3.9875 11.7 4.125 12.1179 4.5375C12.2571 4.675 12.3964 4.8125 12.3964 4.95C12.5357 5.0875 12.5357 5.3625 12.5357 5.5C12.5357 5.9125 12.3964 6.1875 12.1179 6.4625C11.8393 6.7375 11.5607 6.875 11.1429 6.875C10.725 6.875 10.4464 6.7375 10.1679 6.4625C9.88929 6.1875 9.75 5.9125 9.75 5.5C9.75 5.3625 9.75 5.0875 9.88929 4.95ZM5.57143 5.5C5.57143 5.0875 5.71071 4.8125 5.98929 4.5375L6.12857 4.4C6.26786 4.4 6.26786 4.2625 6.40714 4.2625C6.54643 4.125 6.54643 4.125 6.68571 4.125C6.825 4.125 7.10357 4.125 7.24286 4.125C7.38214 4.125 7.38214 4.125 7.52143 4.2625C7.66071 4.2625 7.66071 4.4 7.8 4.4L7.93929 4.5375C8.07857 4.675 8.21786 4.8125 8.21786 4.95C8.35714 5.0875 8.35714 5.3625 8.35714 5.5C8.35714 5.6375 8.35714 5.9125 8.21786 6.05C8.21786 6.1875 8.07857 6.325 7.93929 6.4625C7.66071 6.7375 7.38214 6.875 6.96429 6.875C6.54643 6.875 6.26786 6.7375 5.98929 6.4625C5.71071 6.1875 5.57143 5.9125 5.57143 5.5ZM13.5107 23.7875C14.0679 24.3375 14.0679 25.1625 13.5107 25.7125C13.2321 25.9875 12.9536 26.125 12.5357 26.125C12.1179 26.125 11.8393 25.9875 11.5607 25.7125L7.38214 21.5875C6.825 21.0375 6.825 20.2125 7.38214 19.6625L11.5607 15.5375C12.1179 14.9875 12.9536 14.9875 13.5107 15.5375C14.0679 16.0875 14.0679 16.9125 13.5107 17.4625L10.3071 20.625L13.5107 23.7875ZM14.7643 6.7375C14.625 6.6 14.4857 6.6 14.3464 6.4625C14.2071 6.325 14.0679 6.1875 14.0679 6.05C13.9286 5.9125 13.9286 5.6375 13.9286 5.5C13.9286 5.3625 13.9286 5.0875 14.0679 4.95C14.2071 4.8125 14.2071 4.675 14.3464 4.5375C14.9036 3.9875 15.7393 3.9875 16.2964 4.5375C16.4357 4.675 16.575 4.8125 16.575 4.95C16.7143 5.0875 16.7143 5.3625 16.7143 5.5C16.7143 5.6375 16.7143 5.9125 16.575 6.05C16.4357 6.1875 16.4357 6.325 16.2964 6.4625C16.0179 6.7375 15.7393 6.875 15.3214 6.875C15.1821 6.875 14.9036 6.875 14.7643 6.7375ZM23.5393 15.675L17.9679 26.675C17.6893 27.225 17.2714 27.5 16.7143 27.5C16.4357 27.5 16.2964 27.5 16.1571 27.3625C15.4607 27.0875 15.1821 26.2625 15.6 25.575L21.1714 14.575C21.45 13.8875 22.2857 13.6125 22.9821 14.025C23.5393 14.3 23.8179 15.125 23.5393 15.675ZM31.6179 21.5875L27.4393 25.7125C27.1607 25.9875 26.8821 26.125 26.4643 26.125C26.0464 26.125 25.7679 25.9875 25.4893 25.7125C24.9321 25.1625 24.9321 24.3375 25.4893 23.7875L28.6929 20.625L25.4893 17.4625C24.9321 16.9125 24.9321 16.0875 25.4893 15.5375C26.0464 14.9875 26.8821 14.9875 27.4393 15.5375L31.6179 19.6625C32.175 20.2125 32.175 21.0375 31.6179 21.5875Z" fill="#78FF04"/>
</svg>
