<svg width="297" height="52" viewBox="0 0 297 52" fill="none" xmlns="http://www.w3.org/2000/svg">
<path d="M8 52H274.5L297 39.9688V8H278V10.75H253V8H28.5L8 20.375V52Z" fill="#735AA9"/>
<path d="M292 1H271V3.75H248V1H22.2217L21.9834 1.14355L1.4834 13.5186L1 13.8105V47H268.751L268.972 46.8818L291.472 34.8506L292 34.5684V1Z" fill="url(#paint0_linear_4433_4468)" stroke="url(#paint1_linear_4433_4468)" stroke-width="2"/>
<path d="M47.066 30.136C46.1933 30.136 45.434 30 44.788 29.728C44.1533 29.456 43.6603 29.0707 43.309 28.572C42.969 28.0733 42.799 27.4897 42.799 26.821V26.328C42.799 26.2147 42.8557 26.158 42.969 26.158H44.21C44.3233 26.158 44.38 26.2147 44.38 26.328V26.736C44.38 27.314 44.6293 27.79 45.128 28.164C45.6267 28.538 46.3123 28.725 47.185 28.725C47.967 28.725 48.5563 28.5607 48.953 28.232C49.3497 27.9033 49.548 27.4727 49.548 26.94C49.548 26.5887 49.446 26.2883 49.242 26.039C49.038 25.7897 48.7377 25.563 48.341 25.359C47.9557 25.1437 47.389 24.8887 46.641 24.594C45.8137 24.2767 45.1563 23.9877 44.669 23.727C44.193 23.4663 43.7963 23.1263 43.479 22.707C43.1617 22.2763 43.003 21.738 43.003 21.092C43.003 20.1173 43.3487 19.3523 44.04 18.797C44.7427 18.2417 45.689 17.964 46.879 17.964C47.7177 17.964 48.4543 18.1057 49.089 18.389C49.7237 18.6723 50.211 19.069 50.551 19.579C50.9023 20.089 51.078 20.6783 51.078 21.347V21.687C51.078 21.8003 51.0213 21.857 50.908 21.857H49.633C49.5197 21.857 49.463 21.8003 49.463 21.687V21.432C49.463 20.8427 49.225 20.3553 48.749 19.97C48.2843 19.5733 47.6383 19.375 46.811 19.375C46.1083 19.375 45.5643 19.5223 45.179 19.817C44.7937 20.1003 44.601 20.514 44.601 21.058C44.601 21.432 44.6973 21.738 44.89 21.976C45.0827 22.214 45.366 22.4293 45.74 22.622C46.1253 22.8033 46.709 23.0413 47.491 23.336C48.2957 23.6533 48.9473 23.948 49.446 24.22C49.9447 24.4807 50.3583 24.832 50.687 25.274C51.0157 25.7047 51.18 26.243 51.18 26.889C51.18 27.8863 50.8117 28.6797 50.075 29.269C49.3497 29.847 48.3467 30.136 47.066 30.136ZM60.1881 24.594C60.2335 25.0587 60.2505 25.58 60.2391 26.158C60.2391 26.2713 60.1825 26.328 60.0691 26.328H54.6461C54.6008 26.328 54.5781 26.3507 54.5781 26.396C54.5781 26.7813 54.6121 27.076 54.6801 27.28C54.8048 27.7333 55.0541 28.0903 55.4281 28.351C55.8135 28.6003 56.2951 28.725 56.8731 28.725C57.7118 28.725 58.3578 28.3793 58.8111 27.688C58.8678 27.5747 58.9415 27.5577 59.0321 27.637L60.0011 28.283C60.0805 28.351 60.0975 28.4247 60.0521 28.504C59.7348 29.014 59.2815 29.4163 58.6921 29.711C58.1141 30.0057 57.4568 30.153 56.7201 30.153C55.8928 30.153 55.1958 29.9717 54.6291 29.609C54.0625 29.2463 53.6375 28.7307 53.3541 28.062C53.0821 27.3933 52.9461 26.583 52.9461 25.631C52.9461 24.8037 53.0085 24.1747 53.1331 23.744C53.3371 22.962 53.7451 22.3443 54.3571 21.891C54.9691 21.4377 55.7115 21.211 56.5841 21.211C57.7288 21.211 58.5845 21.5 59.1511 22.078C59.7178 22.6447 60.0635 23.4833 60.1881 24.594ZM56.5841 22.622C56.0968 22.622 55.6945 22.7467 55.3771 22.996C55.0598 23.234 54.8445 23.557 54.7311 23.965C54.6518 24.2143 54.6008 24.5317 54.5781 24.917C54.5781 24.9623 54.6008 24.985 54.6461 24.985H58.5391C58.5845 24.985 58.6071 24.9623 58.6071 24.917C58.5845 24.543 58.5505 24.2653 58.5051 24.084C58.3918 23.642 58.1651 23.2907 57.8251 23.03C57.4965 22.758 57.0828 22.622 56.5841 22.622ZM65.7664 30.136C64.9051 30.136 64.1684 29.9207 63.5564 29.49C62.9444 29.048 62.5251 28.453 62.2984 27.705C62.1284 27.1837 62.0434 26.498 62.0434 25.648C62.0434 24.866 62.1284 24.1803 62.2984 23.591C62.5251 22.8657 62.9444 22.2877 63.5564 21.857C64.1797 21.4263 64.9164 21.211 65.7664 21.211C66.6164 21.211 67.3587 21.4263 67.9934 21.857C68.6281 22.2877 69.0417 22.8317 69.2344 23.489C69.3024 23.6703 69.3477 23.8573 69.3704 24.05C69.3704 24.1407 69.3194 24.1973 69.2174 24.22L67.9424 24.407H67.9084C67.8291 24.407 67.7724 24.356 67.7384 24.254L67.6874 23.982C67.5967 23.5967 67.3757 23.2737 67.0244 23.013C66.6731 22.7523 66.2481 22.622 65.7494 22.622C65.2621 22.622 64.8484 22.7523 64.5084 23.013C64.1684 23.2737 63.9474 23.6193 63.8454 24.05C63.7434 24.458 63.6924 24.9963 63.6924 25.665C63.6924 26.3223 63.7434 26.855 63.8454 27.263C63.9587 27.7163 64.1797 28.0733 64.5084 28.334C64.8484 28.5947 65.2621 28.725 65.7494 28.725C66.2481 28.725 66.6731 28.5947 67.0244 28.334C67.3871 28.0733 67.6137 27.7333 67.7044 27.314C67.7157 27.3027 67.7157 27.2913 67.7044 27.28C67.7044 27.2573 67.7101 27.2403 67.7214 27.229V27.161C67.7554 27.0703 67.8177 27.0363 67.9084 27.059L69.1834 27.263C69.2741 27.2857 69.3194 27.331 69.3194 27.399V27.467C69.3194 27.569 69.2911 27.6937 69.2344 27.841C69.0417 28.5323 68.6281 29.0877 67.9934 29.507C67.3587 29.9263 66.6164 30.136 65.7664 30.136ZM76.3976 21.517C76.3976 21.4037 76.4543 21.347 76.5676 21.347H77.8426C77.956 21.347 78.0126 21.4037 78.0126 21.517V29.83C78.0126 29.9433 77.956 30 77.8426 30H76.5676C76.4543 30 76.3976 29.9433 76.3976 29.83V29.201C76.3976 29.1783 76.3863 29.167 76.3636 29.167C76.3523 29.1557 76.3353 29.1613 76.3126 29.184C75.8593 29.8073 75.1623 30.119 74.2216 30.119C73.6663 30.119 73.1506 30.0113 72.6746 29.796C72.21 29.5807 71.836 29.2633 71.5526 28.844C71.2693 28.4247 71.1276 27.9147 71.1276 27.314V21.517C71.1276 21.4037 71.1843 21.347 71.2976 21.347H72.5726C72.686 21.347 72.7426 21.4037 72.7426 21.517V26.804C72.7426 27.3933 72.8956 27.858 73.2016 28.198C73.519 28.538 73.961 28.708 74.5276 28.708C75.0943 28.708 75.5476 28.538 75.8876 28.198C76.2276 27.8467 76.3976 27.382 76.3976 26.804V21.517ZM84.1851 21.262C84.5478 21.262 84.8764 21.3357 85.1711 21.483C85.2504 21.517 85.2788 21.585 85.2561 21.687L84.9841 22.962C84.9728 23.064 84.9048 23.098 84.7801 23.064C84.5874 22.9847 84.3608 22.945 84.1001 22.945L83.8621 22.962C83.3294 22.9847 82.8874 23.1717 82.5361 23.523C82.1961 23.863 82.0261 24.3107 82.0261 24.866V29.83C82.0261 29.9433 81.9694 30 81.8561 30H80.5641C80.4508 30 80.3941 29.9433 80.3941 29.83V21.517C80.3941 21.4037 80.4508 21.347 80.5641 21.347H81.8561C81.9694 21.347 82.0261 21.4037 82.0261 21.517V22.418C82.0261 22.452 82.0318 22.4747 82.0431 22.486C82.0658 22.486 82.0828 22.4747 82.0941 22.452C82.6041 21.6587 83.3011 21.262 84.1851 21.262ZM93.5739 24.594C93.6192 25.0587 93.6362 25.58 93.6249 26.158C93.6249 26.2713 93.5682 26.328 93.4549 26.328H88.0319C87.9865 26.328 87.9639 26.3507 87.9639 26.396C87.9639 26.7813 87.9979 27.076 88.0659 27.28C88.1905 27.7333 88.4399 28.0903 88.8139 28.351C89.1992 28.6003 89.6809 28.725 90.2589 28.725C91.0975 28.725 91.7435 28.3793 92.1969 27.688C92.2535 27.5747 92.3272 27.5577 92.4179 27.637L93.3869 28.283C93.4662 28.351 93.4832 28.4247 93.4379 28.504C93.1205 29.014 92.6672 29.4163 92.0779 29.711C91.4999 30.0057 90.8425 30.153 90.1059 30.153C89.2785 30.153 88.5815 29.9717 88.0149 29.609C87.4482 29.2463 87.0232 28.7307 86.7399 28.062C86.4679 27.3933 86.3319 26.583 86.3319 25.631C86.3319 24.8037 86.3942 24.1747 86.5189 23.744C86.7229 22.962 87.1309 22.3443 87.7429 21.891C88.3549 21.4377 89.0972 21.211 89.9699 21.211C91.1145 21.211 91.9702 21.5 92.5369 22.078C93.1035 22.6447 93.4492 23.4833 93.5739 24.594ZM89.9699 22.622C89.4825 22.622 89.0802 22.7467 88.7629 22.996C88.4455 23.234 88.2302 23.557 88.1169 23.965C88.0375 24.2143 87.9865 24.5317 87.9639 24.917C87.9639 24.9623 87.9865 24.985 88.0319 24.985H91.9249C91.9702 24.985 91.9929 24.9623 91.9929 24.917C91.9702 24.543 91.9362 24.2653 91.8909 24.084C91.7775 23.642 91.5509 23.2907 91.2109 23.03C90.8822 22.758 90.4685 22.622 89.9699 22.622ZM106.992 18.202C107.049 18.134 107.117 18.1 107.196 18.1H108.488C108.602 18.1 108.658 18.1567 108.658 18.27V29.83C108.658 29.9433 108.602 30 108.488 30H107.196C107.083 30 107.026 29.9433 107.026 29.83V21.126C107.026 21.092 107.015 21.0693 106.992 21.058C106.97 21.0467 106.953 21.058 106.941 21.092L104.51 24.798C104.465 24.866 104.397 24.9 104.306 24.9H103.66C103.581 24.9 103.513 24.866 103.456 24.798L101.008 21.126C100.997 21.092 100.98 21.0807 100.957 21.092C100.935 21.1033 100.923 21.126 100.923 21.16V29.83C100.923 29.9433 100.867 30 100.753 30H99.4615C99.3481 30 99.2915 29.9433 99.2915 29.83V18.27C99.2915 18.1567 99.3481 18.1 99.4615 18.1H100.753C100.844 18.1 100.912 18.134 100.957 18.202L103.932 22.656C103.944 22.6673 103.961 22.673 103.983 22.673C104.006 22.673 104.023 22.6673 104.034 22.656L106.992 18.202ZM110.985 33.383C110.905 33.383 110.866 33.3263 110.866 33.213V32.21C110.866 32.0967 110.922 32.04 111.036 32.04H111.07C111.523 32.0287 111.88 31.972 112.141 31.87C112.401 31.768 112.617 31.5753 112.787 31.292C112.957 31.02 113.121 30.6063 113.28 30.051C113.291 30.0397 113.291 30.0227 113.28 30C113.28 29.966 113.28 29.949 113.28 29.949L110.441 21.534L110.424 21.466C110.424 21.3867 110.475 21.347 110.577 21.347H111.954C112.056 21.347 112.124 21.3923 112.158 21.483L114.079 27.892C114.09 27.9147 114.107 27.926 114.13 27.926C114.152 27.926 114.169 27.9147 114.181 27.892L116.085 21.483C116.119 21.3923 116.187 21.347 116.289 21.347H117.632C117.756 21.347 117.802 21.4093 117.768 21.534L114.674 30.595C114.413 31.377 114.152 31.955 113.892 32.329C113.631 32.7143 113.291 32.9863 112.872 33.145C112.452 33.3037 111.863 33.383 111.104 33.383H110.985ZM130.82 19.341C130.82 19.4543 130.763 19.511 130.65 19.511H124.632C124.587 19.511 124.564 19.5337 124.564 19.579V23.234C124.564 23.2793 124.587 23.302 124.632 23.302H128.763C128.876 23.302 128.933 23.3587 128.933 23.472V24.543C128.933 24.6563 128.876 24.713 128.763 24.713H124.632C124.587 24.713 124.564 24.7357 124.564 24.781V29.83C124.564 29.9433 124.507 30 124.394 30H123.102C122.989 30 122.932 29.9433 122.932 29.83V18.27C122.932 18.1567 122.989 18.1 123.102 18.1H130.65C130.763 18.1 130.82 18.1567 130.82 18.27V19.341ZM133.326 19.987C133.009 19.987 132.748 19.885 132.544 19.681C132.34 19.477 132.238 19.2163 132.238 18.899C132.238 18.5817 132.34 18.321 132.544 18.117C132.748 17.913 133.009 17.811 133.326 17.811C133.644 17.811 133.904 17.913 134.108 18.117C134.312 18.321 134.414 18.5817 134.414 18.899C134.414 19.2163 134.312 19.477 134.108 19.681C133.904 19.885 133.644 19.987 133.326 19.987ZM132.646 29.983C132.533 29.983 132.476 29.9263 132.476 29.813V21.517C132.476 21.4037 132.533 21.347 132.646 21.347H133.938C134.052 21.347 134.108 21.4037 134.108 21.517V29.813C134.108 29.9263 134.052 29.983 133.938 29.983H132.646ZM140.532 21.228C141.462 21.228 142.198 21.5 142.742 22.044C143.286 22.5767 143.558 23.302 143.558 24.22V29.83C143.558 29.9433 143.502 30 143.388 30H142.096C141.983 30 141.926 29.9433 141.926 29.83V24.543C141.926 23.9763 141.762 23.5173 141.433 23.166C141.105 22.8147 140.668 22.639 140.124 22.639C139.592 22.639 139.155 22.8147 138.815 23.166C138.475 23.5173 138.305 23.9707 138.305 24.526V29.83C138.305 29.9433 138.249 30 138.135 30H136.843C136.73 30 136.673 29.9433 136.673 29.83V21.517C136.673 21.4037 136.73 21.347 136.843 21.347H138.135C138.249 21.347 138.305 21.4037 138.305 21.517V22.129C138.305 22.1517 138.311 22.1687 138.322 22.18C138.345 22.1913 138.362 22.1857 138.373 22.163C138.861 21.5397 139.58 21.228 140.532 21.228ZM150.154 22.52C150.154 22.6333 150.098 22.69 149.984 22.69H148.148C148.103 22.69 148.08 22.7127 148.08 22.758V27.263C148.08 27.739 148.188 28.0847 148.403 28.3C148.619 28.504 148.953 28.606 149.406 28.606H149.899C150.013 28.606 150.069 28.6627 150.069 28.776V29.83C150.069 29.9433 150.013 30 149.899 30C149.537 30.0227 149.276 30.034 149.117 30.034C148.256 30.034 147.604 29.881 147.162 29.575C146.732 29.2577 146.516 28.6797 146.516 27.841V22.758C146.516 22.7127 146.494 22.69 146.448 22.69H145.411C145.298 22.69 145.241 22.6333 145.241 22.52V21.517C145.241 21.4037 145.298 21.347 145.411 21.347H146.448C146.494 21.347 146.516 21.3243 146.516 21.279V19.273C146.516 19.1597 146.573 19.103 146.686 19.103H147.91C148.024 19.103 148.08 19.1597 148.08 19.273V21.279C148.08 21.3243 148.103 21.347 148.148 21.347H149.984C150.098 21.347 150.154 21.4037 150.154 21.517V22.52ZM158.967 24.594C159.013 25.0587 159.03 25.58 159.018 26.158C159.018 26.2713 158.962 26.328 158.848 26.328H153.425C153.38 26.328 153.357 26.3507 153.357 26.396C153.357 26.7813 153.391 27.076 153.459 27.28C153.584 27.7333 153.833 28.0903 154.207 28.351C154.593 28.6003 155.074 28.725 155.652 28.725C156.491 28.725 157.137 28.3793 157.59 27.688C157.647 27.5747 157.721 27.5577 157.811 27.637L158.78 28.283C158.86 28.351 158.877 28.4247 158.831 28.504C158.514 29.014 158.061 29.4163 157.471 29.711C156.893 30.0057 156.236 30.153 155.499 30.153C154.672 30.153 153.975 29.9717 153.408 29.609C152.842 29.2463 152.417 28.7307 152.133 28.062C151.861 27.3933 151.725 26.583 151.725 25.631C151.725 24.8037 151.788 24.1747 151.912 23.744C152.116 22.962 152.524 22.3443 153.136 21.891C153.748 21.4377 154.491 21.211 155.363 21.211C156.508 21.211 157.364 21.5 157.93 22.078C158.497 22.6447 158.843 23.4833 158.967 24.594ZM155.363 22.622C154.876 22.622 154.474 22.7467 154.156 22.996C153.839 23.234 153.624 23.557 153.51 23.965C153.431 24.2143 153.38 24.5317 153.357 24.917C153.357 24.9623 153.38 24.985 153.425 24.985H157.318C157.364 24.985 157.386 24.9623 157.386 24.917C157.364 24.543 157.33 24.2653 157.284 24.084C157.171 23.642 156.944 23.2907 156.604 23.03C156.276 22.758 155.862 22.622 155.363 22.622ZM164.546 30.136C163.684 30.136 162.948 29.9207 162.336 29.49C161.724 29.048 161.304 28.453 161.078 27.705C160.908 27.1837 160.823 26.498 160.823 25.648C160.823 24.866 160.908 24.1803 161.078 23.591C161.304 22.8657 161.724 22.2877 162.336 21.857C162.959 21.4263 163.696 21.211 164.546 21.211C165.396 21.211 166.138 21.4263 166.773 21.857C167.407 22.2877 167.821 22.8317 168.014 23.489C168.082 23.6703 168.127 23.8573 168.15 24.05C168.15 24.1407 168.099 24.1973 167.997 24.22L166.722 24.407H166.688C166.608 24.407 166.552 24.356 166.518 24.254L166.467 23.982C166.376 23.5967 166.155 23.2737 165.804 23.013C165.452 22.7523 165.027 22.622 164.529 22.622C164.041 22.622 163.628 22.7523 163.288 23.013C162.948 23.2737 162.727 23.6193 162.625 24.05C162.523 24.458 162.472 24.9963 162.472 25.665C162.472 26.3223 162.523 26.855 162.625 27.263C162.738 27.7163 162.959 28.0733 163.288 28.334C163.628 28.5947 164.041 28.725 164.529 28.725C165.027 28.725 165.452 28.5947 165.804 28.334C166.166 28.0733 166.393 27.7333 166.484 27.314C166.495 27.3027 166.495 27.2913 166.484 27.28C166.484 27.2573 166.489 27.2403 166.501 27.229V27.161C166.535 27.0703 166.597 27.0363 166.688 27.059L167.963 27.263C168.053 27.2857 168.099 27.331 168.099 27.399V27.467C168.099 27.569 168.07 27.6937 168.014 27.841C167.821 28.5323 167.407 29.0877 166.773 29.507C166.138 29.9263 165.396 30.136 164.546 30.136ZM173.885 21.228C174.814 21.228 175.551 21.5 176.095 22.044C176.639 22.5767 176.911 23.302 176.911 24.22V29.83C176.911 29.9433 176.854 30 176.741 30H175.449C175.336 30 175.279 29.9433 175.279 29.83V24.543C175.279 23.9763 175.115 23.5173 174.786 23.166C174.457 22.8147 174.021 22.639 173.477 22.639C172.944 22.639 172.508 22.8147 172.168 23.166C171.828 23.5173 171.658 23.9707 171.658 24.526V29.83C171.658 29.9433 171.601 30 171.488 30H170.196C170.083 30 170.026 29.9433 170.026 29.83V18.27C170.026 18.1567 170.083 18.1 170.196 18.1H171.488C171.601 18.1 171.658 18.1567 171.658 18.27V22.129C171.658 22.1517 171.664 22.1687 171.675 22.18C171.698 22.1913 171.715 22.1857 171.726 22.163C172.213 21.5397 172.933 21.228 173.885 21.228ZM187.505 18.083C188.196 18.083 188.803 18.2303 189.324 18.525C189.857 18.8083 190.265 19.2107 190.548 19.732C190.843 20.2533 190.99 20.854 190.99 21.534C190.99 22.214 190.843 22.809 190.548 23.319C190.253 23.829 189.834 24.2257 189.29 24.509C188.757 24.7923 188.14 24.934 187.437 24.934H184.445C184.4 24.934 184.377 24.9567 184.377 25.002V29.83C184.377 29.9433 184.32 30 184.207 30H182.915C182.802 30 182.745 29.9433 182.745 29.83V18.253C182.745 18.1397 182.802 18.083 182.915 18.083H187.505ZM187.284 23.608C187.907 23.608 188.406 23.421 188.78 23.047C189.165 22.673 189.358 22.18 189.358 21.568C189.358 20.9447 189.165 20.446 188.78 20.072C188.406 19.6867 187.907 19.494 187.284 19.494H184.445C184.4 19.494 184.377 19.5167 184.377 19.562V23.54C184.377 23.5853 184.4 23.608 184.445 23.608H187.284ZM192.89 30C192.777 30 192.72 29.9433 192.72 29.83V18.27C192.72 18.1567 192.777 18.1 192.89 18.1H194.182C194.296 18.1 194.352 18.1567 194.352 18.27V29.83C194.352 29.9433 194.296 30 194.182 30H192.89ZM199.883 21.211C200.575 21.211 201.175 21.3357 201.685 21.585C202.207 21.823 202.603 22.163 202.875 22.605C203.159 23.0357 203.3 23.5287 203.3 24.084V29.83C203.3 29.9433 203.244 30 203.13 30H201.838C201.725 30 201.668 29.9433 201.668 29.83V29.218C201.668 29.1613 201.64 29.15 201.583 29.184C201.289 29.49 200.926 29.728 200.495 29.898C200.076 30.0567 199.606 30.136 199.084 30.136C198.246 30.136 197.549 29.9263 196.993 29.507C196.449 29.0763 196.177 28.4303 196.177 27.569C196.177 26.685 196.483 25.9937 197.095 25.495C197.719 24.985 198.586 24.73 199.696 24.73H201.6C201.646 24.73 201.668 24.7073 201.668 24.662V24.203C201.668 23.7043 201.521 23.319 201.226 23.047C200.943 22.7637 200.507 22.622 199.917 22.622C199.441 22.622 199.05 22.7183 198.744 22.911C198.45 23.0923 198.268 23.3417 198.2 23.659C198.166 23.7723 198.098 23.8233 197.996 23.812L196.619 23.625C196.506 23.6023 196.455 23.557 196.466 23.489C196.557 22.8203 196.914 22.2763 197.537 21.857C198.161 21.4263 198.943 21.211 199.883 21.211ZM199.441 28.759C200.042 28.759 200.563 28.6003 201.005 28.283C201.447 27.9657 201.668 27.5633 201.668 27.076V26.073C201.668 26.0277 201.646 26.005 201.6 26.005H200.002C199.334 26.005 198.801 26.1353 198.404 26.396C198.008 26.6567 197.809 27.0193 197.809 27.484C197.809 27.9033 197.957 28.2207 198.251 28.436C198.557 28.6513 198.954 28.759 199.441 28.759ZM209.654 22.52C209.654 22.6333 209.598 22.69 209.484 22.69H207.648C207.603 22.69 207.58 22.7127 207.58 22.758V27.263C207.58 27.739 207.688 28.0847 207.903 28.3C208.119 28.504 208.453 28.606 208.906 28.606H209.399C209.513 28.606 209.569 28.6627 209.569 28.776V29.83C209.569 29.9433 209.513 30 209.399 30C209.037 30.0227 208.776 30.034 208.617 30.034C207.756 30.034 207.104 29.881 206.662 29.575C206.232 29.2577 206.016 28.6797 206.016 27.841V22.758C206.016 22.7127 205.994 22.69 205.948 22.69H204.911C204.798 22.69 204.741 22.6333 204.741 22.52V21.517C204.741 21.4037 204.798 21.347 204.911 21.347H205.948C205.994 21.347 206.016 21.3243 206.016 21.279V19.273C206.016 19.1597 206.073 19.103 206.186 19.103H207.41C207.524 19.103 207.58 19.1597 207.58 19.273V21.279C207.58 21.3243 207.603 21.347 207.648 21.347H209.484C209.598 21.347 209.654 21.4037 209.654 21.517V22.52ZM215.471 19.528C214.904 19.528 214.519 19.6357 214.315 19.851C214.111 20.0663 214.009 20.4743 214.009 21.075V21.279C214.009 21.3243 214.031 21.347 214.077 21.347H215.862C215.975 21.347 216.032 21.4037 216.032 21.517V22.673C216.032 22.7863 215.975 22.843 215.862 22.843H214.077C214.031 22.843 214.009 22.8657 214.009 22.911V29.83C214.009 29.9433 213.952 30 213.839 30H212.547C212.433 30 212.377 29.9433 212.377 29.83V22.911C212.377 22.8657 212.354 22.843 212.309 22.843H211.17C211.056 22.843 211 22.7863 211 22.673V21.517C211 21.4037 211.056 21.347 211.17 21.347H212.309C212.354 21.347 212.377 21.3243 212.377 21.279V20.973C212.377 20.225 212.462 19.647 212.632 19.239C212.813 18.831 213.113 18.542 213.533 18.372C213.952 18.1907 214.541 18.1 215.301 18.1H215.879C215.992 18.1 216.049 18.1567 216.049 18.27V19.358C216.049 19.4713 215.992 19.528 215.879 19.528H215.471ZM220.744 30.136C219.905 30.136 219.174 29.9263 218.551 29.507C217.927 29.0763 217.491 28.4813 217.242 27.722C217.038 27.11 216.936 26.4187 216.936 25.648C216.936 24.8433 217.032 24.1633 217.225 23.608C217.474 22.86 217.91 22.2763 218.534 21.857C219.157 21.4263 219.899 21.211 220.761 21.211C221.577 21.211 222.285 21.4263 222.886 21.857C223.498 22.2763 223.934 22.8543 224.195 23.591C224.399 24.169 224.501 24.849 224.501 25.631C224.501 26.4243 224.399 27.1213 224.195 27.722C223.945 28.4813 223.515 29.0763 222.903 29.507C222.291 29.9263 221.571 30.136 220.744 30.136ZM220.744 28.725C221.197 28.725 221.594 28.6003 221.934 28.351C222.274 28.0903 222.517 27.7277 222.665 27.263C222.789 26.8323 222.852 26.2997 222.852 25.665C222.852 25.0303 222.795 24.5033 222.682 24.084C222.534 23.6193 222.291 23.2623 221.951 23.013C221.611 22.7523 221.197 22.622 220.71 22.622C220.245 22.622 219.843 22.7523 219.503 23.013C219.163 23.2623 218.919 23.6193 218.772 24.084C218.647 24.4807 218.585 25.0077 218.585 25.665C218.585 26.3223 218.647 26.855 218.772 27.263C218.908 27.7277 219.146 28.0903 219.486 28.351C219.837 28.6003 220.256 28.725 220.744 28.725ZM230.428 21.262C230.791 21.262 231.12 21.3357 231.414 21.483C231.494 21.517 231.522 21.585 231.499 21.687L231.227 22.962C231.216 23.064 231.148 23.098 231.023 23.064C230.831 22.9847 230.604 22.945 230.343 22.945L230.105 22.962C229.573 22.9847 229.131 23.1717 228.779 23.523C228.439 23.863 228.269 24.3107 228.269 24.866V29.83C228.269 29.9433 228.213 30 228.099 30H226.807C226.694 30 226.637 29.9433 226.637 29.83V21.517C226.637 21.4037 226.694 21.347 226.807 21.347H228.099C228.213 21.347 228.269 21.4037 228.269 21.517V22.418C228.269 22.452 228.275 22.4747 228.286 22.486C228.309 22.486 228.326 22.4747 228.337 22.452C228.847 21.6587 229.544 21.262 230.428 21.262ZM241.939 21.228C242.8 21.228 243.48 21.4887 243.979 22.01C244.478 22.52 244.727 23.234 244.727 24.152V29.83C244.727 29.9433 244.67 30 244.557 30H243.282C243.169 30 243.112 29.9433 243.112 29.83V24.492C243.112 23.9253 242.953 23.4777 242.636 23.149C242.33 22.809 241.916 22.639 241.395 22.639C240.874 22.639 240.449 22.8033 240.12 23.132C239.791 23.4607 239.627 23.9027 239.627 24.458V29.83C239.627 29.9433 239.57 30 239.457 30H238.182C238.069 30 238.012 29.9433 238.012 29.83V24.492C238.012 23.9253 237.853 23.4777 237.536 23.149C237.23 22.809 236.816 22.639 236.295 22.639C235.774 22.639 235.354 22.8033 235.037 23.132C234.731 23.4607 234.578 23.9027 234.578 24.458V29.83C234.578 29.9433 234.521 30 234.408 30H233.116C233.003 30 232.946 29.9433 232.946 29.83V21.517C232.946 21.4037 233.003 21.347 233.116 21.347H234.408C234.521 21.347 234.578 21.4037 234.578 21.517V22.095C234.578 22.1177 234.584 22.1347 234.595 22.146C234.618 22.1573 234.64 22.1517 234.663 22.129C235.162 21.5283 235.887 21.228 236.839 21.228C237.417 21.228 237.91 21.3413 238.318 21.568C238.726 21.7833 239.043 22.1063 239.27 22.537C239.304 22.5823 239.338 22.5823 239.372 22.537C239.644 22.095 240.001 21.7663 240.443 21.551C240.896 21.3357 241.395 21.228 241.939 21.228Z" fill="#0D0128"/>
<defs>
<linearGradient id="paint0_linear_4433_4468" x1="291" y1="24" x2="2" y2="24" gradientUnits="userSpaceOnUse">
<stop stop-color="#AA83FF"/>
<stop offset="1" stop-color="#D0FFCC"/>
</linearGradient>
<linearGradient id="paint1_linear_4433_4468" x1="291" y1="24" x2="2" y2="24" gradientUnits="userSpaceOnUse">
<stop stop-color="#C7ADFF"/>
<stop offset="1" stop-color="#776899" stop-opacity="0"/>
</linearGradient>
</defs>
</svg>
