<svg width="297" height="52" viewBox="0 0 297 52" fill="none" xmlns="http://www.w3.org/2000/svg">
<path d="M8 52H274.5L297 39.9688V8H278V10.75H253V8H28.5L8 20.375V52Z" fill="#735AA9"/>
<path d="M292 1H271V3.75H248V1H22.2217L21.9834 1.14355L1.4834 13.5186L1 13.8105V47H268.751L268.972 46.8818L291.472 34.8506L292 34.5684V1Z" fill="url(#paint0_linear_4326_168)" stroke="url(#paint1_linear_4326_168)" stroke-width="2"/>
<path d="M79.066 30.136C78.1933 30.136 77.434 30 76.788 29.728C76.1533 29.456 75.6603 29.0707 75.309 28.572C74.969 28.0733 74.799 27.4897 74.799 26.821V26.328C74.799 26.2147 74.8557 26.158 74.969 26.158H76.21C76.3233 26.158 76.38 26.2147 76.38 26.328V26.736C76.38 27.314 76.6293 27.79 77.128 28.164C77.6267 28.538 78.3123 28.725 79.185 28.725C79.967 28.725 80.5563 28.5607 80.953 28.232C81.3497 27.9033 81.548 27.4727 81.548 26.94C81.548 26.5887 81.446 26.2883 81.242 26.039C81.038 25.7897 80.7377 25.563 80.341 25.359C79.9557 25.1437 79.389 24.8887 78.641 24.594C77.8137 24.2767 77.1563 23.9877 76.669 23.727C76.193 23.4663 75.7963 23.1263 75.479 22.707C75.1617 22.2763 75.003 21.738 75.003 21.092C75.003 20.1173 75.3487 19.3523 76.04 18.797C76.7427 18.2417 77.689 17.964 78.879 17.964C79.7177 17.964 80.4543 18.1057 81.089 18.389C81.7237 18.6723 82.211 19.069 82.551 19.579C82.9023 20.089 83.078 20.6783 83.078 21.347V21.687C83.078 21.8003 83.0213 21.857 82.908 21.857H81.633C81.5197 21.857 81.463 21.8003 81.463 21.687V21.432C81.463 20.8427 81.225 20.3553 80.749 19.97C80.2843 19.5733 79.6383 19.375 78.811 19.375C78.1083 19.375 77.5643 19.5223 77.179 19.817C76.7937 20.1003 76.601 20.514 76.601 21.058C76.601 21.432 76.6973 21.738 76.89 21.976C77.0827 22.214 77.366 22.4293 77.74 22.622C78.1253 22.8033 78.709 23.0413 79.491 23.336C80.2957 23.6533 80.9473 23.948 81.446 24.22C81.9447 24.4807 82.3583 24.832 82.687 25.274C83.0157 25.7047 83.18 26.243 83.18 26.889C83.18 27.8863 82.8117 28.6797 82.075 29.269C81.3497 29.847 80.3467 30.136 79.066 30.136ZM88.6521 30.136C87.7908 30.136 87.0541 29.9207 86.4421 29.49C85.8301 29.048 85.4108 28.453 85.1841 27.705C85.0141 27.1837 84.9291 26.498 84.9291 25.648C84.9291 24.866 85.0141 24.1803 85.1841 23.591C85.4108 22.8657 85.8301 22.2877 86.4421 21.857C87.0655 21.4263 87.8021 21.211 88.6521 21.211C89.5021 21.211 90.2445 21.4263 90.8791 21.857C91.5138 22.2877 91.9275 22.8317 92.1201 23.489C92.1881 23.6703 92.2335 23.8573 92.2561 24.05C92.2561 24.1407 92.2051 24.1973 92.1031 24.22L90.8281 24.407H90.7941C90.7148 24.407 90.6581 24.356 90.6241 24.254L90.5731 23.982C90.4825 23.5967 90.2615 23.2737 89.9101 23.013C89.5588 22.7523 89.1338 22.622 88.6351 22.622C88.1478 22.622 87.7341 22.7523 87.3941 23.013C87.0541 23.2737 86.8331 23.6193 86.7311 24.05C86.6291 24.458 86.5781 24.9963 86.5781 25.665C86.5781 26.3223 86.6291 26.855 86.7311 27.263C86.8445 27.7163 87.0655 28.0733 87.3941 28.334C87.7341 28.5947 88.1478 28.725 88.6351 28.725C89.1338 28.725 89.5588 28.5947 89.9101 28.334C90.2728 28.0733 90.4995 27.7333 90.5901 27.314C90.6015 27.3027 90.6015 27.2913 90.5901 27.28C90.5901 27.2573 90.5958 27.2403 90.6071 27.229V27.161C90.6411 27.0703 90.7035 27.0363 90.7941 27.059L92.0691 27.263C92.1598 27.2857 92.2051 27.331 92.2051 27.399V27.467C92.2051 27.569 92.1768 27.6937 92.1201 27.841C91.9275 28.5323 91.5138 29.0877 90.8791 29.507C90.2445 29.9263 89.5021 30.136 88.6521 30.136ZM97.9914 21.228C98.9207 21.228 99.6574 21.5 100.201 22.044C100.745 22.5767 101.017 23.302 101.017 24.22V29.83C101.017 29.9433 100.961 30 100.847 30H99.5554C99.442 30 99.3854 29.9433 99.3854 29.83V24.543C99.3854 23.9763 99.221 23.5173 98.8924 23.166C98.5637 22.8147 98.1274 22.639 97.5834 22.639C97.0507 22.639 96.6144 22.8147 96.2744 23.166C95.9344 23.5173 95.7644 23.9707 95.7644 24.526V29.83C95.7644 29.9433 95.7077 30 95.5944 30H94.3024C94.189 30 94.1324 29.9433 94.1324 29.83V18.27C94.1324 18.1567 94.189 18.1 94.3024 18.1H95.5944C95.7077 18.1 95.7644 18.1567 95.7644 18.27V22.129C95.7644 22.1517 95.77 22.1687 95.7814 22.18C95.804 22.1913 95.821 22.1857 95.8324 22.163C96.3197 21.5397 97.0394 21.228 97.9914 21.228ZM110.251 24.594C110.296 25.0587 110.313 25.58 110.302 26.158C110.302 26.2713 110.245 26.328 110.132 26.328H104.709C104.663 26.328 104.641 26.3507 104.641 26.396C104.641 26.7813 104.675 27.076 104.743 27.28C104.867 27.7333 105.117 28.0903 105.491 28.351C105.876 28.6003 106.358 28.725 106.936 28.725C107.774 28.725 108.42 28.3793 108.874 27.688C108.93 27.5747 109.004 27.5577 109.095 27.637L110.064 28.283C110.143 28.351 110.16 28.4247 110.115 28.504C109.797 29.014 109.344 29.4163 108.755 29.711C108.177 30.0057 107.519 30.153 106.783 30.153C105.955 30.153 105.258 29.9717 104.692 29.609C104.125 29.2463 103.7 28.7307 103.417 28.062C103.145 27.3933 103.009 26.583 103.009 25.631C103.009 24.8037 103.071 24.1747 103.196 23.744C103.4 22.962 103.808 22.3443 104.42 21.891C105.032 21.4377 105.774 21.211 106.647 21.211C107.791 21.211 108.647 21.5 109.214 22.078C109.78 22.6447 110.126 23.4833 110.251 24.594ZM106.647 22.622C106.159 22.622 105.757 22.7467 105.44 22.996C105.122 23.234 104.907 23.557 104.794 23.965C104.714 24.2143 104.663 24.5317 104.641 24.917C104.641 24.9623 104.663 24.985 104.709 24.985H108.602C108.647 24.985 108.67 24.9623 108.67 24.917C108.647 24.543 108.613 24.2653 108.568 24.084C108.454 23.642 108.228 23.2907 107.888 23.03C107.559 22.758 107.145 22.622 106.647 22.622ZM117.733 18.27C117.733 18.1567 117.79 18.1 117.903 18.1H119.195C119.308 18.1 119.365 18.1567 119.365 18.27V29.83C119.365 29.9433 119.308 30 119.195 30H117.903C117.79 30 117.733 29.9433 117.733 29.83V29.269C117.733 29.2463 117.722 29.2293 117.699 29.218C117.688 29.2067 117.671 29.2123 117.648 29.235C117.399 29.5183 117.104 29.7393 116.764 29.898C116.424 30.0567 116.056 30.136 115.659 30.136C114.843 30.136 114.163 29.9377 113.619 29.541C113.086 29.133 112.695 28.5607 112.446 27.824C112.231 27.2233 112.123 26.498 112.123 25.648C112.123 24.8547 112.214 24.169 112.395 23.591C112.633 22.843 113.024 22.2593 113.568 21.84C114.112 21.4207 114.809 21.211 115.659 21.211C116.044 21.211 116.407 21.2903 116.747 21.449C117.098 21.5963 117.399 21.8117 117.648 22.095C117.671 22.1177 117.688 22.1233 117.699 22.112C117.722 22.1007 117.733 22.0837 117.733 22.061V18.27ZM117.308 27.807C117.569 27.331 117.699 26.617 117.699 25.665C117.699 24.713 117.557 23.9877 117.274 23.489C116.945 22.911 116.464 22.622 115.829 22.622C115.149 22.622 114.645 22.894 114.316 23.438C113.953 24.0047 113.772 24.7527 113.772 25.682C113.772 26.5547 113.914 27.2573 114.197 27.79C114.526 28.4133 115.064 28.725 115.812 28.725C116.469 28.725 116.968 28.419 117.308 27.807ZM126.908 21.517C126.908 21.4037 126.965 21.347 127.078 21.347H128.353C128.467 21.347 128.523 21.4037 128.523 21.517V29.83C128.523 29.9433 128.467 30 128.353 30H127.078C126.965 30 126.908 29.9433 126.908 29.83V29.201C126.908 29.1783 126.897 29.167 126.874 29.167C126.863 29.1557 126.846 29.1613 126.823 29.184C126.37 29.8073 125.673 30.119 124.732 30.119C124.177 30.119 123.661 30.0113 123.185 29.796C122.721 29.5807 122.347 29.2633 122.063 28.844C121.78 28.4247 121.638 27.9147 121.638 27.314V21.517C121.638 21.4037 121.695 21.347 121.808 21.347H123.083C123.197 21.347 123.253 21.4037 123.253 21.517V26.804C123.253 27.3933 123.406 27.858 123.712 28.198C124.03 28.538 124.472 28.708 125.038 28.708C125.605 28.708 126.058 28.538 126.398 28.198C126.738 27.8467 126.908 27.382 126.908 26.804V21.517ZM131.075 30C130.962 30 130.905 29.9433 130.905 29.83V18.27C130.905 18.1567 130.962 18.1 131.075 18.1H132.367C132.48 18.1 132.537 18.1567 132.537 18.27V29.83C132.537 29.9433 132.48 30 132.367 30H131.075ZM141.91 24.594C141.955 25.0587 141.972 25.58 141.961 26.158C141.961 26.2713 141.904 26.328 141.791 26.328H136.368C136.322 26.328 136.3 26.3507 136.3 26.396C136.3 26.7813 136.334 27.076 136.402 27.28C136.526 27.7333 136.776 28.0903 137.15 28.351C137.535 28.6003 138.017 28.725 138.595 28.725C139.433 28.725 140.079 28.3793 140.533 27.688C140.589 27.5747 140.663 27.5577 140.754 27.637L141.723 28.283C141.802 28.351 141.819 28.4247 141.774 28.504C141.456 29.014 141.003 29.4163 140.414 29.711C139.836 30.0057 139.178 30.153 138.442 30.153C137.614 30.153 136.917 29.9717 136.351 29.609C135.784 29.2463 135.359 28.7307 135.076 28.062C134.804 27.3933 134.668 26.583 134.668 25.631C134.668 24.8037 134.73 24.1747 134.855 23.744C135.059 22.962 135.467 22.3443 136.079 21.891C136.691 21.4377 137.433 21.211 138.306 21.211C139.45 21.211 140.306 21.5 140.873 22.078C141.439 22.6447 141.785 23.4833 141.91 24.594ZM138.306 22.622C137.818 22.622 137.416 22.7467 137.099 22.996C136.781 23.234 136.566 23.557 136.453 23.965C136.373 24.2143 136.322 24.5317 136.3 24.917C136.3 24.9623 136.322 24.985 136.368 24.985H140.261C140.306 24.985 140.329 24.9623 140.329 24.917C140.306 24.543 140.272 24.2653 140.227 24.084C140.113 23.642 139.887 23.2907 139.547 23.03C139.218 22.758 138.804 22.622 138.306 22.622ZM150.585 21.211C151.277 21.211 151.877 21.3357 152.387 21.585C152.909 21.823 153.305 22.163 153.577 22.605C153.861 23.0357 154.002 23.5287 154.002 24.084V29.83C154.002 29.9433 153.946 30 153.832 30H152.54C152.427 30 152.37 29.9433 152.37 29.83V29.218C152.37 29.1613 152.342 29.15 152.285 29.184C151.991 29.49 151.628 29.728 151.197 29.898C150.778 30.0567 150.308 30.136 149.786 30.136C148.948 30.136 148.251 29.9263 147.695 29.507C147.151 29.0763 146.879 28.4303 146.879 27.569C146.879 26.685 147.185 25.9937 147.797 25.495C148.421 24.985 149.288 24.73 150.398 24.73H152.302C152.348 24.73 152.37 24.7073 152.37 24.662V24.203C152.37 23.7043 152.223 23.319 151.928 23.047C151.645 22.7637 151.209 22.622 150.619 22.622C150.143 22.622 149.752 22.7183 149.446 22.911C149.152 23.0923 148.97 23.3417 148.902 23.659C148.868 23.7723 148.8 23.8233 148.698 23.812L147.321 23.625C147.208 23.6023 147.157 23.557 147.168 23.489C147.259 22.8203 147.616 22.2763 148.239 21.857C148.863 21.4263 149.645 21.211 150.585 21.211ZM150.143 28.759C150.744 28.759 151.265 28.6003 151.707 28.283C152.149 27.9657 152.37 27.5633 152.37 27.076V26.073C152.37 26.0277 152.348 26.005 152.302 26.005H150.704C150.036 26.005 149.503 26.1353 149.106 26.396C148.71 26.6567 148.511 27.0193 148.511 27.484C148.511 27.9033 148.659 28.2207 148.953 28.436C149.259 28.6513 149.656 28.759 150.143 28.759ZM167.514 18.202C167.571 18.134 167.639 18.1 167.718 18.1H169.01C169.123 18.1 169.18 18.1567 169.18 18.27V29.83C169.18 29.9433 169.123 30 169.01 30H167.718C167.605 30 167.548 29.9433 167.548 29.83V21.126C167.548 21.092 167.537 21.0693 167.514 21.058C167.491 21.0467 167.474 21.058 167.463 21.092L165.032 24.798C164.987 24.866 164.919 24.9 164.828 24.9H164.182C164.103 24.9 164.035 24.866 163.978 24.798L161.53 21.126C161.519 21.092 161.502 21.0807 161.479 21.092C161.456 21.1033 161.445 21.126 161.445 21.16V29.83C161.445 29.9433 161.388 30 161.275 30H159.983C159.87 30 159.813 29.9433 159.813 29.83V18.27C159.813 18.1567 159.87 18.1 159.983 18.1H161.275C161.366 18.1 161.434 18.134 161.479 18.202L164.454 22.656C164.465 22.6673 164.482 22.673 164.505 22.673C164.528 22.673 164.545 22.6673 164.556 22.656L167.514 18.202ZM178.765 24.594C178.811 25.0587 178.828 25.58 178.816 26.158C178.816 26.2713 178.76 26.328 178.646 26.328H173.223C173.178 26.328 173.155 26.3507 173.155 26.396C173.155 26.7813 173.189 27.076 173.257 27.28C173.382 27.7333 173.631 28.0903 174.005 28.351C174.391 28.6003 174.872 28.725 175.45 28.725C176.289 28.725 176.935 28.3793 177.388 27.688C177.445 27.5747 177.519 27.5577 177.609 27.637L178.578 28.283C178.658 28.351 178.675 28.4247 178.629 28.504C178.312 29.014 177.859 29.4163 177.269 29.711C176.691 30.0057 176.034 30.153 175.297 30.153C174.47 30.153 173.773 29.9717 173.206 29.609C172.64 29.2463 172.215 28.7307 171.931 28.062C171.659 27.3933 171.523 26.583 171.523 25.631C171.523 24.8037 171.586 24.1747 171.71 23.744C171.914 22.962 172.322 22.3443 172.934 21.891C173.546 21.4377 174.289 21.211 175.161 21.211C176.306 21.211 177.162 21.5 177.728 22.078C178.295 22.6447 178.641 23.4833 178.765 24.594ZM175.161 22.622C174.674 22.622 174.272 22.7467 173.954 22.996C173.637 23.234 173.422 23.557 173.308 23.965C173.229 24.2143 173.178 24.5317 173.155 24.917C173.155 24.9623 173.178 24.985 173.223 24.985H177.116C177.162 24.985 177.184 24.9623 177.184 24.917C177.162 24.543 177.128 24.2653 177.082 24.084C176.969 23.642 176.742 23.2907 176.402 23.03C176.074 22.758 175.66 22.622 175.161 22.622ZM187.88 24.594C187.925 25.0587 187.942 25.58 187.931 26.158C187.931 26.2713 187.874 26.328 187.761 26.328H182.338C182.292 26.328 182.27 26.3507 182.27 26.396C182.27 26.7813 182.304 27.076 182.372 27.28C182.496 27.7333 182.746 28.0903 183.12 28.351C183.505 28.6003 183.987 28.725 184.565 28.725C185.403 28.725 186.049 28.3793 186.503 27.688C186.559 27.5747 186.633 27.5577 186.724 27.637L187.693 28.283C187.772 28.351 187.789 28.4247 187.744 28.504C187.426 29.014 186.973 29.4163 186.384 29.711C185.806 30.0057 185.148 30.153 184.412 30.153C183.584 30.153 182.887 29.9717 182.321 29.609C181.754 29.2463 181.329 28.7307 181.046 28.062C180.774 27.3933 180.638 26.583 180.638 25.631C180.638 24.8037 180.7 24.1747 180.825 23.744C181.029 22.962 181.437 22.3443 182.049 21.891C182.661 21.4377 183.403 21.211 184.276 21.211C185.42 21.211 186.276 21.5 186.843 22.078C187.409 22.6447 187.755 23.4833 187.88 24.594ZM184.276 22.622C183.788 22.622 183.386 22.7467 183.069 22.996C182.751 23.234 182.536 23.557 182.423 23.965C182.343 24.2143 182.292 24.5317 182.27 24.917C182.27 24.9623 182.292 24.985 182.338 24.985H186.231C186.276 24.985 186.299 24.9623 186.299 24.917C186.276 24.543 186.242 24.2653 186.197 24.084C186.083 23.642 185.857 23.2907 185.517 23.03C185.188 22.758 184.774 22.622 184.276 22.622ZM194.124 22.52C194.124 22.6333 194.067 22.69 193.954 22.69H192.118C192.073 22.69 192.05 22.7127 192.05 22.758V27.263C192.05 27.739 192.158 28.0847 192.373 28.3C192.588 28.504 192.923 28.606 193.376 28.606H193.869C193.982 28.606 194.039 28.6627 194.039 28.776V29.83C194.039 29.9433 193.982 30 193.869 30C193.506 30.0227 193.246 30.034 193.087 30.034C192.226 30.034 191.574 29.881 191.132 29.575C190.701 29.2577 190.486 28.6797 190.486 27.841V22.758C190.486 22.7127 190.463 22.69 190.418 22.69H189.381C189.268 22.69 189.211 22.6333 189.211 22.52V21.517C189.211 21.4037 189.268 21.347 189.381 21.347H190.418C190.463 21.347 190.486 21.3243 190.486 21.279V19.273C190.486 19.1597 190.543 19.103 190.656 19.103H191.88C191.993 19.103 192.05 19.1597 192.05 19.273V21.279C192.05 21.3243 192.073 21.347 192.118 21.347H193.954C194.067 21.347 194.124 21.4037 194.124 21.517V22.52ZM197.118 19.987C196.801 19.987 196.54 19.885 196.336 19.681C196.132 19.477 196.03 19.2163 196.03 18.899C196.03 18.5817 196.132 18.321 196.336 18.117C196.54 17.913 196.801 17.811 197.118 17.811C197.436 17.811 197.696 17.913 197.9 18.117C198.104 18.321 198.206 18.5817 198.206 18.899C198.206 19.2163 198.104 19.477 197.9 19.681C197.696 19.885 197.436 19.987 197.118 19.987ZM196.438 29.983C196.325 29.983 196.268 29.9263 196.268 29.813V21.517C196.268 21.4037 196.325 21.347 196.438 21.347H197.73C197.844 21.347 197.9 21.4037 197.9 21.517V29.813C197.9 29.9263 197.844 29.983 197.73 29.983H196.438ZM204.324 21.228C205.254 21.228 205.99 21.5 206.534 22.044C207.078 22.5767 207.35 23.302 207.35 24.22V29.83C207.35 29.9433 207.294 30 207.18 30H205.888C205.775 30 205.718 29.9433 205.718 29.83V24.543C205.718 23.9763 205.554 23.5173 205.225 23.166C204.897 22.8147 204.46 22.639 203.916 22.639C203.384 22.639 202.947 22.8147 202.607 23.166C202.267 23.5173 202.097 23.9707 202.097 24.526V29.83C202.097 29.9433 202.041 30 201.927 30H200.635C200.522 30 200.465 29.9433 200.465 29.83V21.517C200.465 21.4037 200.522 21.347 200.635 21.347H201.927C202.041 21.347 202.097 21.4037 202.097 21.517V22.129C202.097 22.1517 202.103 22.1687 202.114 22.18C202.137 22.1913 202.154 22.1857 202.165 22.163C202.653 21.5397 203.372 21.228 204.324 21.228ZM215 21.517C215 21.4037 215.057 21.347 215.17 21.347H216.462C216.576 21.347 216.632 21.4037 216.632 21.517V29.558C216.632 30.9293 216.241 31.9097 215.459 32.499C214.689 33.0883 213.652 33.383 212.348 33.383C212.167 33.383 211.884 33.3717 211.498 33.349C211.385 33.3377 211.328 33.2753 211.328 33.162L211.379 31.989C211.379 31.9437 211.396 31.904 211.43 31.87C211.464 31.836 211.51 31.8247 211.566 31.836C211.725 31.8473 211.957 31.853 212.263 31.853C213.227 31.853 213.924 31.6717 214.354 31.309C214.785 30.9577 215 30.357 215 29.507V29.201C215 29.1783 214.989 29.1613 214.966 29.15C214.955 29.1387 214.938 29.1443 214.915 29.167C214.439 29.7223 213.742 30 212.824 30C212.088 30 211.419 29.8073 210.818 29.422C210.229 29.0367 209.821 28.47 209.594 27.722C209.447 27.2233 209.373 26.532 209.373 25.648C209.373 24.7073 209.458 23.982 209.628 23.472C209.844 22.792 210.223 22.248 210.767 21.84C211.323 21.4207 211.974 21.211 212.722 21.211C213.652 21.211 214.383 21.4943 214.915 22.061C214.938 22.0837 214.955 22.095 214.966 22.095C214.989 22.0837 215 22.0667 215 22.044V21.517ZM214.898 27.229C214.932 27.0477 214.955 26.855 214.966 26.651C214.989 26.447 215 26.107 215 25.631C215 25.155 214.989 24.8207 214.966 24.628C214.955 24.424 214.927 24.2313 214.881 24.05C214.791 23.6307 214.587 23.2907 214.269 23.03C213.952 22.758 213.555 22.622 213.079 22.622C212.603 22.622 212.207 22.758 211.889 23.03C211.572 23.2907 211.345 23.6307 211.209 24.05C211.085 24.39 211.022 24.917 211.022 25.631C211.022 26.413 211.079 26.9457 211.192 27.229C211.306 27.6483 211.527 27.994 211.855 28.266C212.195 28.5267 212.603 28.657 213.079 28.657C213.578 28.657 213.98 28.5267 214.286 28.266C214.604 27.994 214.808 27.6483 214.898 27.229Z" fill="#0D0128"/>
<defs>
<linearGradient id="paint0_linear_4326_168" x1="291" y1="24" x2="2" y2="24" gradientUnits="userSpaceOnUse">
<stop stop-color="#AA83FF"/>
<stop offset="1" stop-color="#D0FFCC"/>
</linearGradient>
<linearGradient id="paint1_linear_4326_168" x1="291" y1="24" x2="2" y2="24" gradientUnits="userSpaceOnUse">
<stop stop-color="#C7ADFF"/>
<stop offset="1" stop-color="#776899" stop-opacity="0"/>
</linearGradient>
</defs>
</svg>
