<svg width="594" height="525" viewBox="0 0 594 525" fill="none" xmlns="http://www.w3.org/2000/svg">
<g filter="url(#filter0_d_5492_23412)">
<rect x="5" y="3" width="584" height="515" rx="24" fill="url(#paint0_linear_5492_23412)"/>
<rect x="4.5" y="2.5" width="585" height="516" rx="24.5" stroke="#1C3023"/>
<path d="M556 64H38V36H556V64Z" stroke="#E5E7EB"/>
<path d="M39.4347 57V42.4545H44.8892C46.0066 42.4545 46.9441 42.6487 47.7017 43.0369C48.464 43.4252 49.0393 43.9697 49.4276 44.6705C49.8205 45.3665 50.017 46.1785 50.017 47.1065C50.017 48.0393 49.8182 48.849 49.4205 49.5355C49.0275 50.2173 48.4474 50.7453 47.6804 51.1193C46.9134 51.4886 45.9711 51.6733 44.8537 51.6733H40.9688V49.4858H44.4986C45.152 49.4858 45.687 49.3958 46.1037 49.2159C46.5204 49.0312 46.8281 48.7637 47.027 48.4134C47.2306 48.0582 47.3324 47.6226 47.3324 47.1065C47.3324 46.5904 47.2306 46.1501 47.027 45.7855C46.8234 45.4162 46.5133 45.1368 46.0966 44.9474C45.6799 44.7533 45.1425 44.6562 44.4844 44.6562H42.0696V57H39.4347ZM46.9489 50.4091L50.5497 57H47.6094L44.0724 50.4091H46.9489ZM57.0021 57.2131C55.9084 57.2131 54.9638 56.9858 54.1683 56.5312C53.3776 56.072 52.7692 55.4233 52.343 54.5852C51.9169 53.7424 51.7038 52.7505 51.7038 51.6094C51.7038 50.4872 51.9169 49.5024 52.343 48.6548C52.7739 47.8026 53.3752 47.1397 54.147 46.6662C54.9188 46.188 55.8255 45.9489 56.8672 45.9489C57.5395 45.9489 58.174 46.0578 58.7706 46.2756C59.3719 46.4886 59.9022 46.8201 60.3615 47.2699C60.8255 47.7197 61.1901 48.2926 61.4553 48.9886C61.7204 49.6799 61.853 50.5038 61.853 51.4602V52.2486H52.9112V50.5156H59.3885C59.3838 50.0232 59.2772 49.5852 59.0689 49.2017C58.8606 48.8134 58.5694 48.508 58.1953 48.2855C57.826 48.063 57.3951 47.9517 56.9027 47.9517C56.3771 47.9517 55.9155 48.0795 55.5178 48.3352C55.12 48.5862 54.8099 48.9176 54.5874 49.3295C54.3696 49.7367 54.2583 50.1842 54.2536 50.6719V52.1847C54.2536 52.8191 54.3696 53.3636 54.6016 53.8182C54.8336 54.268 55.1579 54.6136 55.5746 54.8551C55.9912 55.0919 56.4789 55.2102 57.0376 55.2102C57.4117 55.2102 57.7502 55.1581 58.0533 55.054C58.3563 54.9451 58.6191 54.7865 58.8416 54.5781C59.0642 54.3698 59.2322 54.1117 59.3459 53.804L61.7464 54.0739C61.5949 54.7083 61.3061 55.2623 60.88 55.7358C60.4586 56.2045 59.9188 56.5691 59.2607 56.8295C58.6025 57.0852 57.8497 57.2131 57.0021 57.2131ZM67.1673 57.2202C66.476 57.2202 65.8533 57.0971 65.2994 56.8509C64.7501 56.5999 64.3145 56.2306 63.9925 55.7429C63.6753 55.2552 63.5167 54.6539 63.5167 53.9389C63.5167 53.3234 63.6303 52.8144 63.8576 52.4119C64.0849 52.0095 64.395 51.6875 64.788 51.446C65.181 51.2045 65.6237 51.0223 66.1161 50.8991C66.6133 50.7713 67.127 50.679 67.6573 50.6222C68.2965 50.5559 68.815 50.4967 69.2127 50.4446C69.6104 50.3878 69.8993 50.3026 70.0792 50.1889C70.2638 50.0705 70.3562 49.8883 70.3562 49.642V49.5994C70.3562 49.0644 70.1976 48.6501 69.8803 48.3565C69.5631 48.063 69.1062 47.9162 68.5096 47.9162C67.8799 47.9162 67.3803 48.0535 67.011 48.3281C66.6464 48.6027 66.4002 48.9271 66.2724 49.3011L63.8718 48.9602C64.0612 48.2973 64.3737 47.7434 64.8093 47.2983C65.2449 46.8485 65.7776 46.5123 66.4073 46.2898C67.0371 46.0625 67.7331 45.9489 68.4954 45.9489C69.021 45.9489 69.5442 46.0104 70.065 46.1335C70.5858 46.2566 71.0617 46.4602 71.4925 46.7443C71.9234 47.0237 72.2691 47.4048 72.5295 47.8878C72.7946 48.3707 72.9272 48.9744 72.9272 49.6989V57H70.4556V55.5014H70.3704C70.2141 55.8045 69.994 56.0885 69.7099 56.3537C69.4305 56.6141 69.0778 56.8248 68.6516 56.9858C68.2302 57.142 67.7354 57.2202 67.1673 57.2202ZM67.8349 55.331C68.351 55.331 68.7984 55.2292 69.1772 55.0256C69.556 54.8172 69.8472 54.5426 70.0508 54.2017C70.2591 53.8608 70.3633 53.4891 70.3633 53.0866V51.8011C70.2828 51.8674 70.1455 51.929 69.9513 51.9858C69.762 52.0426 69.5489 52.0923 69.3121 52.1349C69.0754 52.1776 68.841 52.2154 68.609 52.2486C68.377 52.2817 68.1758 52.3101 68.0053 52.3338C67.6218 52.3859 67.2785 52.4711 66.9755 52.5895C66.6725 52.7079 66.4334 52.8736 66.2582 53.0866C66.083 53.295 65.9954 53.5649 65.9954 53.8963C65.9954 54.3698 66.1682 54.7273 66.5138 54.9688C66.8595 55.2102 67.2998 55.331 67.8349 55.331ZM78.0835 42.4545V57H75.5124V42.4545H78.0835ZM87.3395 49.8835V52H80.7912V49.8835H87.3395ZM95.4911 46.0909V48.0795H89.2198V46.0909H95.4911ZM90.7681 43.4773H93.3391V53.7188C93.3391 54.0644 93.3912 54.3295 93.4954 54.5142C93.6043 54.6941 93.7463 54.8172 93.9215 54.8835C94.0967 54.9498 94.2908 54.983 94.5039 54.983C94.6649 54.983 94.8117 54.9711 94.9442 54.9474C95.0816 54.9238 95.1857 54.9025 95.2567 54.8835L95.69 56.8935C95.5527 56.9408 95.3562 56.9929 95.1005 57.0497C94.8496 57.1065 94.5418 57.1397 94.1772 57.1491C93.5333 57.1681 92.9532 57.071 92.4371 56.858C91.921 56.6402 91.5115 56.304 91.2085 55.8494C90.9102 55.3949 90.7634 54.8267 90.7681 54.1449V43.4773ZM97.6413 57V46.0909H100.212V57H97.6413ZM98.9339 44.5426C98.5268 44.5426 98.1764 44.4077 97.8828 44.1378C97.5893 43.8632 97.4425 43.5341 97.4425 43.1506C97.4425 42.7623 97.5893 42.4332 97.8828 42.1634C98.1764 41.8887 98.5268 41.7514 98.9339 41.7514C99.3459 41.7514 99.6963 41.8887 99.9851 42.1634C100.279 42.4332 100.425 42.7623 100.425 43.1506C100.425 43.5341 100.279 43.8632 99.9851 44.1378C99.6963 44.4077 99.3459 44.5426 98.9339 44.5426ZM102.856 57V46.0909H105.314V47.9446H105.441C105.669 47.3196 106.045 46.8319 106.571 46.4815C107.096 46.1264 107.724 45.9489 108.453 45.9489C109.191 45.9489 109.814 46.1288 110.321 46.4886C110.832 46.8437 111.192 47.3291 111.4 47.9446H111.514C111.755 47.3385 112.163 46.8556 112.735 46.4957C113.313 46.1312 113.997 45.9489 114.788 45.9489C115.792 45.9489 116.611 46.2661 117.245 46.9006C117.88 47.535 118.197 48.4607 118.197 49.6776V57H115.619V50.0753C115.619 49.3982 115.439 48.9034 115.079 48.5909C114.719 48.2737 114.279 48.1151 113.758 48.1151C113.138 48.1151 112.653 48.3092 112.302 48.6974C111.957 49.081 111.784 49.5805 111.784 50.196V57H109.262V49.9688C109.262 49.4053 109.092 48.9555 108.751 48.6193C108.415 48.2831 107.975 48.1151 107.43 48.1151C107.061 48.1151 106.725 48.2098 106.422 48.3991C106.118 48.5838 105.877 48.8466 105.697 49.1875C105.517 49.5237 105.427 49.9167 105.427 50.3665V57H102.856ZM125.635 57.2131C124.541 57.2131 123.597 56.9858 122.801 56.5312C122.01 56.072 121.402 55.4233 120.976 54.5852C120.55 53.7424 120.337 52.7505 120.337 51.6094C120.337 50.4872 120.55 49.5024 120.976 48.6548C121.407 47.8026 122.008 47.1397 122.78 46.6662C123.552 46.188 124.458 45.9489 125.5 45.9489C126.172 45.9489 126.807 46.0578 127.403 46.2756C128.005 46.4886 128.535 46.8201 128.994 47.2699C129.458 47.7197 129.823 48.2926 130.088 48.9886C130.353 49.6799 130.486 50.5038 130.486 51.4602V52.2486H121.544V50.5156H128.021C128.017 50.0232 127.91 49.5852 127.702 49.2017C127.493 48.8134 127.202 48.508 126.828 48.2855C126.459 48.063 126.028 47.9517 125.536 47.9517C125.01 47.9517 124.548 48.0795 124.151 48.3352C123.753 48.5862 123.443 48.9176 123.22 49.3295C123.002 49.7367 122.891 50.1842 122.886 50.6719V52.1847C122.886 52.8191 123.002 53.3636 123.234 53.8182C123.466 54.268 123.791 54.6136 124.207 54.8551C124.624 55.0919 125.112 55.2102 125.67 55.2102C126.045 55.2102 126.383 55.1581 126.686 55.054C126.989 54.9451 127.252 54.7865 127.474 54.5781C127.697 54.3698 127.865 54.1117 127.979 53.804L130.379 54.0739C130.228 54.7083 129.939 55.2623 129.513 55.7358C129.091 56.2045 128.552 56.5691 127.893 56.8295C127.235 57.0852 126.482 57.2131 125.635 57.2131ZM137.096 44.6634V42.4545H148.701V44.6634H144.206V57H141.592V44.6634H137.096ZM153.396 50.608V57H150.825V42.4545H153.339V47.9446H153.467C153.723 47.3291 154.118 46.8437 154.653 46.4886C155.193 46.1288 155.879 45.9489 156.713 45.9489C157.47 45.9489 158.131 46.1075 158.694 46.4247C159.258 46.742 159.693 47.206 160.001 47.8168C160.314 48.4276 160.47 49.1733 160.47 50.054V57H157.899V50.4517C157.899 49.7178 157.709 49.1473 157.331 48.7401C156.957 48.3281 156.431 48.1222 155.754 48.1222C155.299 48.1222 154.892 48.2216 154.532 48.4205C154.177 48.6146 153.898 48.8963 153.694 49.2656C153.495 49.6349 153.396 50.0824 153.396 50.608ZM163.091 57V46.0909H165.583V47.9091H165.697C165.896 47.2794 166.237 46.794 166.72 46.4531C167.208 46.1075 167.764 45.9347 168.389 45.9347C168.531 45.9347 168.69 45.9418 168.865 45.956C169.045 45.9654 169.194 45.982 169.312 46.0057V48.3707C169.203 48.3329 169.03 48.2997 168.794 48.2713C168.562 48.2382 168.337 48.2216 168.119 48.2216C167.65 48.2216 167.229 48.3234 166.855 48.527C166.485 48.7259 166.194 49.0028 165.981 49.358C165.768 49.7131 165.662 50.1226 165.662 50.5866V57H163.091ZM175.401 57.2131C174.307 57.2131 173.362 56.9858 172.567 56.5312C171.776 56.072 171.168 55.4233 170.741 54.5852C170.315 53.7424 170.102 52.7505 170.102 51.6094C170.102 50.4872 170.315 49.5024 170.741 48.6548C171.172 47.8026 171.774 47.1397 172.545 46.6662C173.317 46.188 174.224 45.9489 175.266 45.9489C175.938 45.9489 176.572 46.0578 177.169 46.2756C177.77 46.4886 178.301 46.8201 178.76 47.2699C179.224 47.7197 179.589 48.2926 179.854 48.9886C180.119 49.6799 180.251 50.5038 180.251 51.4602V52.2486H171.31V50.5156H177.787C177.782 50.0232 177.676 49.5852 177.467 49.2017C177.259 48.8134 176.968 48.508 176.594 48.2855C176.224 48.063 175.794 47.9517 175.301 47.9517C174.776 47.9517 174.314 48.0795 173.916 48.3352C173.518 48.5862 173.208 48.9176 172.986 49.3295C172.768 49.7367 172.657 50.1842 172.652 50.6719V52.1847C172.652 52.8191 172.768 53.3636 173 53.8182C173.232 54.268 173.556 54.6136 173.973 54.8551C174.39 55.0919 174.877 55.2102 175.436 55.2102C175.81 55.2102 176.149 55.1581 176.452 55.054C176.755 54.9451 177.018 54.7865 177.24 54.5781C177.463 54.3698 177.631 54.1117 177.744 53.804L180.145 54.0739C179.993 54.7083 179.705 55.2623 179.278 55.7358C178.857 56.2045 178.317 56.5691 177.659 56.8295C177.001 57.0852 176.248 57.2131 175.401 57.2131ZM185.566 57.2202C184.874 57.2202 184.252 57.0971 183.698 56.8509C183.149 56.5999 182.713 56.2306 182.391 55.7429C182.074 55.2552 181.915 54.6539 181.915 53.9389C181.915 53.3234 182.029 52.8144 182.256 52.4119C182.483 52.0095 182.793 51.6875 183.186 51.446C183.579 51.2045 184.022 51.0223 184.515 50.8991C185.012 50.7713 185.525 50.679 186.056 50.6222C186.695 50.5559 187.213 50.4967 187.611 50.4446C188.009 50.3878 188.298 50.3026 188.478 50.1889C188.662 50.0705 188.755 49.8883 188.755 49.642V49.5994C188.755 49.0644 188.596 48.6501 188.279 48.3565C187.962 48.063 187.505 47.9162 186.908 47.9162C186.278 47.9162 185.779 48.0535 185.409 48.3281C185.045 48.6027 184.799 48.9271 184.671 49.3011L182.27 48.9602C182.46 48.2973 182.772 47.7434 183.208 47.2983C183.643 46.8485 184.176 46.5123 184.806 46.2898C185.435 46.0625 186.132 45.9489 186.894 45.9489C187.419 45.9489 187.943 46.0104 188.463 46.1335C188.984 46.2566 189.46 46.4602 189.891 46.7443C190.322 47.0237 190.667 47.4048 190.928 47.8878C191.193 48.3707 191.326 48.9744 191.326 49.6989V57H188.854V55.5014H188.769C188.613 55.8045 188.392 56.0885 188.108 56.3537C187.829 56.6141 187.476 56.8248 187.05 56.9858C186.629 57.142 186.134 57.2202 185.566 57.2202ZM186.233 55.331C186.749 55.331 187.197 55.2292 187.576 55.0256C187.954 54.8172 188.246 54.5426 188.449 54.2017C188.658 53.8608 188.762 53.4891 188.762 53.0866V51.8011C188.681 51.8674 188.544 51.929 188.35 51.9858C188.16 52.0426 187.947 52.0923 187.711 52.1349C187.474 52.1776 187.239 52.2154 187.007 52.2486C186.775 52.2817 186.574 52.3101 186.404 52.3338C186.02 52.3859 185.677 52.4711 185.374 52.5895C185.071 52.7079 184.832 52.8736 184.657 53.0866C184.481 53.295 184.394 53.5649 184.394 53.8963C184.394 54.3698 184.567 54.7273 184.912 54.9688C185.258 55.2102 185.698 55.331 186.233 55.331ZM199.358 46.0909V48.0795H193.087V46.0909H199.358ZM194.635 43.4773H197.206V53.7188C197.206 54.0644 197.258 54.3295 197.363 54.5142C197.471 54.6941 197.614 54.8172 197.789 54.8835C197.964 54.9498 198.158 54.983 198.371 54.983C198.532 54.983 198.679 54.9711 198.811 54.9474C198.949 54.9238 199.053 54.9025 199.124 54.8835L199.557 56.8935C199.42 56.9408 199.223 56.9929 198.968 57.0497C198.717 57.1065 198.409 57.1397 198.044 57.1491C197.4 57.1681 196.82 57.071 196.304 56.858C195.788 56.6402 195.379 56.304 195.076 55.8494C194.777 55.3949 194.631 54.8267 194.635 54.1449V43.4773ZM206.583 42.4545H209.808L214.126 52.9943H214.296L218.614 42.4545H221.839V57H219.31V47.0071H219.175L215.156 56.9574H213.266L209.246 46.9858H209.112V57H206.583V42.4545ZM229.353 57.2131C228.288 57.2131 227.364 56.9787 226.583 56.5099C225.802 56.0412 225.196 55.3854 224.765 54.5426C224.339 53.6998 224.126 52.715 224.126 51.5881C224.126 50.4612 224.339 49.474 224.765 48.6264C225.196 47.7789 225.802 47.1207 226.583 46.652C227.364 46.1832 228.288 45.9489 229.353 45.9489C230.418 45.9489 231.342 46.1832 232.123 46.652C232.904 47.1207 233.508 47.7789 233.934 48.6264C234.365 49.474 234.58 50.4612 234.58 51.5881C234.58 52.715 234.365 53.6998 233.934 54.5426C233.508 55.3854 232.904 56.0412 232.123 56.5099C231.342 56.9787 230.418 57.2131 229.353 57.2131ZM229.367 55.1534C229.945 55.1534 230.428 54.9948 230.816 54.6776C231.204 54.3556 231.493 53.9247 231.683 53.3849C231.877 52.8452 231.974 52.2438 231.974 51.581C231.974 50.9134 231.877 50.3097 231.683 49.7699C231.493 49.2254 231.204 48.7921 230.816 48.4702C230.428 48.1482 229.945 47.9872 229.367 47.9872C228.775 47.9872 228.283 48.1482 227.89 48.4702C227.502 48.7921 227.21 49.2254 227.016 49.7699C226.827 50.3097 226.732 50.9134 226.732 51.581C226.732 52.2438 226.827 52.8452 227.016 53.3849C227.21 53.9247 227.502 54.3556 227.89 54.6776C228.283 54.9948 228.775 55.1534 229.367 55.1534ZM239.333 50.608V57H236.762V46.0909H239.22V47.9446H239.348C239.599 47.3338 239.999 46.8485 240.548 46.4886C241.102 46.1288 241.786 45.9489 242.6 45.9489C243.353 45.9489 244.009 46.1098 244.568 46.4318C245.131 46.7538 245.567 47.2202 245.875 47.831C246.187 48.4418 246.341 49.1828 246.336 50.054V57H243.765V50.4517C243.765 49.7225 243.576 49.152 243.197 48.7401C242.823 48.3281 242.305 48.1222 241.642 48.1222C241.192 48.1222 240.792 48.2216 240.441 48.4205C240.096 48.6146 239.824 48.8963 239.625 49.2656C239.431 49.6349 239.333 50.0824 239.333 50.608ZM248.95 57V46.0909H251.521V57H248.95ZM250.243 44.5426C249.835 44.5426 249.485 44.4077 249.191 44.1378C248.898 43.8632 248.751 43.5341 248.751 43.1506C248.751 42.7623 248.898 42.4332 249.191 42.1634C249.485 41.8887 249.835 41.7514 250.243 41.7514C250.654 41.7514 251.005 41.8887 251.294 42.1634C251.587 42.4332 251.734 42.7623 251.734 43.1506C251.734 43.5341 251.587 43.8632 251.294 44.1378C251.005 44.4077 250.654 44.5426 250.243 44.5426ZM259.612 46.0909V48.0795H253.341V46.0909H259.612ZM254.889 43.4773H257.46V53.7188C257.46 54.0644 257.512 54.3295 257.616 54.5142C257.725 54.6941 257.867 54.8172 258.043 54.8835C258.218 54.9498 258.412 54.983 258.625 54.983C258.786 54.983 258.933 54.9711 259.065 54.9474C259.203 54.9238 259.307 54.9025 259.378 54.8835L259.811 56.8935C259.674 56.9408 259.477 56.9929 259.222 57.0497C258.971 57.1065 258.663 57.1397 258.298 57.1491C257.654 57.1681 257.074 57.071 256.558 56.858C256.042 56.6402 255.633 56.304 255.33 55.8494C255.031 55.3949 254.884 54.8267 254.889 54.1449V43.4773ZM266.404 57.2131C265.338 57.2131 264.415 56.9787 263.634 56.5099C262.853 56.0412 262.247 55.3854 261.816 54.5426C261.39 53.6998 261.176 52.715 261.176 51.5881C261.176 50.4612 261.39 49.474 261.816 48.6264C262.247 47.7789 262.853 47.1207 263.634 46.652C264.415 46.1832 265.338 45.9489 266.404 45.9489C267.469 45.9489 268.392 46.1832 269.174 46.652C269.955 47.1207 270.559 47.7789 270.985 48.6264C271.416 49.474 271.631 50.4612 271.631 51.5881C271.631 52.715 271.416 53.6998 270.985 54.5426C270.559 55.3854 269.955 56.0412 269.174 56.5099C268.392 56.9787 267.469 57.2131 266.404 57.2131ZM266.418 55.1534C266.996 55.1534 267.479 54.9948 267.867 54.6776C268.255 54.3556 268.544 53.9247 268.733 53.3849C268.927 52.8452 269.025 52.2438 269.025 51.581C269.025 50.9134 268.927 50.3097 268.733 49.7699C268.544 49.2254 268.255 48.7921 267.867 48.4702C267.479 48.1482 266.996 47.9872 266.418 47.9872C265.826 47.9872 265.334 48.1482 264.941 48.4702C264.552 48.7921 264.261 49.2254 264.067 49.7699C263.878 50.3097 263.783 50.9134 263.783 51.581C263.783 52.2438 263.878 52.8452 264.067 53.3849C264.261 53.9247 264.552 54.3556 264.941 54.6776C265.334 54.9948 265.826 55.1534 266.418 55.1534ZM273.813 57V46.0909H276.306V47.9091H276.42C276.619 47.2794 276.96 46.794 277.442 46.4531C277.93 46.1075 278.487 45.9347 279.112 45.9347C279.254 45.9347 279.412 45.9418 279.587 45.956C279.767 45.9654 279.916 45.982 280.035 46.0057V48.3707C279.926 48.3329 279.753 48.2997 279.516 48.2713C279.284 48.2382 279.059 48.2216 278.842 48.2216C278.373 48.2216 277.951 48.3234 277.577 48.527C277.208 48.7259 276.917 49.0028 276.704 49.358C276.491 49.7131 276.384 50.1226 276.384 50.5866V57H273.813Z" fill="white"/>
<g opacity="0.5">
<rect x="41" y="86" width="512" height="404" rx="15" fill="#1C2D23"/>
<path d="M69.9034 122V121.233L72.7841 118.08C73.1222 117.71 73.4006 117.389 73.6193 117.116C73.8381 116.841 74 116.582 74.1051 116.341C74.2131 116.097 74.267 115.841 74.267 115.574C74.267 115.267 74.1932 115.001 74.0455 114.777C73.9006 114.553 73.7017 114.379 73.4489 114.257C73.196 114.135 72.9119 114.074 72.5966 114.074C72.2614 114.074 71.9688 114.143 71.7188 114.283C71.4716 114.419 71.2798 114.611 71.1435 114.858C71.0099 115.105 70.9432 115.395 70.9432 115.727H69.9375C69.9375 115.216 70.0554 114.767 70.2912 114.381C70.527 113.994 70.848 113.693 71.2543 113.477C71.6634 113.261 72.1222 113.153 72.6307 113.153C73.142 113.153 73.5952 113.261 73.9901 113.477C74.3849 113.693 74.6946 113.984 74.919 114.351C75.1435 114.717 75.2557 115.125 75.2557 115.574C75.2557 115.895 75.1974 116.209 75.081 116.516C74.9673 116.82 74.7685 117.159 74.4844 117.534C74.2031 117.906 73.8125 118.361 73.3125 118.898L71.3523 120.994V121.062H75.4091V122H69.9034ZM79.8963 122.119C79.3963 122.119 78.946 122.02 78.5455 121.821C78.1449 121.622 77.8239 121.349 77.5824 121.003C77.3409 120.656 77.2088 120.261 77.1861 119.818H78.2088C78.2486 120.213 78.4276 120.54 78.7457 120.798C79.0668 121.054 79.4503 121.182 79.8963 121.182C80.2543 121.182 80.5724 121.098 80.8509 120.93C81.1321 120.763 81.3523 120.533 81.5114 120.24C81.6733 119.945 81.7543 119.611 81.7543 119.239C81.7543 118.858 81.6705 118.518 81.5028 118.22C81.3381 117.919 81.1108 117.682 80.821 117.509C80.5313 117.335 80.2003 117.247 79.8281 117.244C79.5611 117.241 79.2869 117.283 79.0057 117.368C78.7244 117.45 78.4929 117.557 78.3111 117.688L77.3224 117.568L77.8509 113.273H82.3849V114.21H78.7372L78.4304 116.784H78.4815C78.6605 116.642 78.8849 116.524 79.1548 116.43C79.4247 116.337 79.706 116.29 79.9986 116.29C80.5327 116.29 81.0085 116.418 81.4261 116.673C81.8466 116.926 82.1761 117.273 82.4148 117.713C82.6562 118.153 82.777 118.656 82.777 119.222C82.777 119.778 82.652 120.276 82.402 120.713C82.1548 121.148 81.8139 121.491 81.3793 121.744C80.9446 121.994 80.4503 122.119 79.8963 122.119ZM87.3164 122.119C86.6744 122.119 86.1275 121.945 85.6758 121.595C85.2241 121.243 84.8789 120.733 84.6403 120.065C84.4016 119.395 84.2823 118.585 84.2823 117.636C84.2823 116.693 84.4016 115.888 84.6403 115.22C84.8817 114.55 85.2283 114.038 85.68 113.686C86.1346 113.331 86.68 113.153 87.3164 113.153C87.9528 113.153 88.4968 113.331 88.9485 113.686C89.4031 114.038 89.7496 114.55 89.9883 115.22C90.2298 115.888 90.3505 116.693 90.3505 117.636C90.3505 118.585 90.2312 119.395 89.9925 120.065C89.7539 120.733 89.4087 121.243 88.957 121.595C88.5053 121.945 87.9585 122.119 87.3164 122.119ZM87.3164 121.182C87.9528 121.182 88.4471 120.875 88.7994 120.261C89.1516 119.648 89.3278 118.773 89.3278 117.636C89.3278 116.881 89.2468 116.237 89.0849 115.706C88.9258 115.175 88.6957 114.77 88.3945 114.491C88.0962 114.213 87.7369 114.074 87.3164 114.074C86.6857 114.074 86.1928 114.385 85.8377 115.007C85.4826 115.626 85.305 116.503 85.305 117.636C85.305 118.392 85.3846 119.034 85.5437 119.562C85.7028 120.091 85.9315 120.493 86.2298 120.768C86.5309 121.044 86.8931 121.182 87.3164 121.182Z" fill="white" fill-opacity="0.7"/>
<path d="M69.9034 178.2V177.433L72.7841 174.28C73.1222 173.91 73.4006 173.589 73.6193 173.317C73.8381 173.041 74 172.783 74.1051 172.541C74.2131 172.297 74.267 172.041 74.267 171.774C74.267 171.467 74.1932 171.202 74.0455 170.977C73.9006 170.753 73.7017 170.579 73.4489 170.457C73.196 170.335 72.9119 170.274 72.5966 170.274C72.2614 170.274 71.9688 170.344 71.7188 170.483C71.4716 170.619 71.2798 170.811 71.1435 171.058C71.0099 171.305 70.9432 171.595 70.9432 171.927H69.9375C69.9375 171.416 70.0554 170.967 70.2912 170.581C70.527 170.195 70.848 169.893 71.2543 169.677C71.6634 169.462 72.1222 169.354 72.6307 169.354C73.142 169.354 73.5952 169.462 73.9901 169.677C74.3849 169.893 74.6946 170.185 74.919 170.551C75.1435 170.918 75.2557 171.325 75.2557 171.774C75.2557 172.095 75.1974 172.409 75.081 172.716C74.9673 173.02 74.7685 173.359 74.4844 173.734C74.2031 174.106 73.8125 174.561 73.3125 175.098L71.3523 177.195V177.263H75.4091V178.2H69.9034ZM80.0156 178.32C79.3736 178.32 78.8267 178.145 78.375 177.795C77.9233 177.443 77.5781 176.933 77.3395 176.266C77.1009 175.595 76.9815 174.785 76.9815 173.837C76.9815 172.893 77.1009 172.088 77.3395 171.42C77.581 170.75 77.9276 170.239 78.3793 169.886C78.8338 169.531 79.3793 169.354 80.0156 169.354C80.652 169.354 81.196 169.531 81.6477 169.886C82.1023 170.239 82.4489 170.75 82.6875 171.42C82.929 172.088 83.0497 172.893 83.0497 173.837C83.0497 174.785 82.9304 175.595 82.6918 176.266C82.4531 176.933 82.108 177.443 81.6562 177.795C81.2045 178.145 80.6577 178.32 80.0156 178.32ZM80.0156 177.382C80.652 177.382 81.1463 177.075 81.4986 176.462C81.8509 175.848 82.027 174.973 82.027 173.837C82.027 173.081 81.946 172.437 81.7841 171.906C81.625 171.375 81.3949 170.97 81.0938 170.692C80.7955 170.413 80.4361 170.274 80.0156 170.274C79.3849 170.274 78.892 170.585 78.5369 171.207C78.1818 171.827 78.0043 172.703 78.0043 173.837C78.0043 174.592 78.0838 175.234 78.2429 175.763C78.402 176.291 78.6307 176.693 78.929 176.969C79.2301 177.244 79.5923 177.382 80.0156 177.382ZM87.5156 178.32C86.8736 178.32 86.3267 178.145 85.875 177.795C85.4233 177.443 85.0781 176.933 84.8395 176.266C84.6009 175.595 84.4815 174.785 84.4815 173.837C84.4815 172.893 84.6009 172.088 84.8395 171.42C85.081 170.75 85.4276 170.239 85.8793 169.886C86.3338 169.531 86.8793 169.354 87.5156 169.354C88.152 169.354 88.696 169.531 89.1477 169.886C89.6023 170.239 89.9489 170.75 90.1875 171.42C90.429 172.088 90.5497 172.893 90.5497 173.837C90.5497 174.785 90.4304 175.595 90.1918 176.266C89.9531 176.933 89.608 177.443 89.1562 177.795C88.7045 178.145 88.1577 178.32 87.5156 178.32ZM87.5156 177.382C88.152 177.382 88.6463 177.075 88.9986 176.462C89.3509 175.848 89.527 174.973 89.527 173.837C89.527 173.081 89.446 172.437 89.2841 171.906C89.125 171.375 88.8949 170.97 88.5938 170.692C88.2955 170.413 87.9361 170.274 87.5156 170.274C86.8849 170.274 86.392 170.585 86.0369 171.207C85.6818 171.827 85.5043 172.703 85.5043 173.837C85.5043 174.592 85.5838 175.234 85.7429 175.763C85.902 176.291 86.1307 176.693 86.429 176.969C86.7301 177.244 87.0923 177.382 87.5156 177.382Z" fill="white" fill-opacity="0.7"/>
<path d="M74.9716 225.673V234.4H73.9148V226.781H73.8636L71.733 228.195V227.121L73.9148 225.673H74.9716ZM80.2088 234.519C79.7088 234.519 79.2585 234.42 78.858 234.221C78.4574 234.022 78.1364 233.749 77.8949 233.403C77.6534 233.056 77.5213 232.661 77.4986 232.218H78.5213C78.5611 232.613 78.7401 232.94 79.0582 233.198C79.3793 233.454 79.7628 233.582 80.2088 233.582C80.5668 233.582 80.8849 233.498 81.1634 233.33C81.4446 233.163 81.6648 232.933 81.8239 232.64C81.9858 232.345 82.0668 232.011 82.0668 231.639C82.0668 231.258 81.983 230.918 81.8153 230.62C81.6506 230.319 81.4233 230.082 81.1335 229.908C80.8438 229.735 80.5128 229.647 80.1406 229.644C79.8736 229.641 79.5994 229.683 79.3182 229.768C79.0369 229.85 78.8054 229.957 78.6236 230.087L77.6349 229.968L78.1634 225.673H82.6974V226.61H79.0497L78.7429 229.184H78.794C78.973 229.042 79.1974 228.924 79.4673 228.83C79.7372 228.737 80.0185 228.69 80.3111 228.69C80.8452 228.69 81.321 228.818 81.7386 229.073C82.1591 229.326 82.4886 229.673 82.7273 230.113C82.9688 230.553 83.0895 231.056 83.0895 231.621C83.0895 232.178 82.9645 232.675 82.7145 233.113C82.4673 233.548 82.1264 233.891 81.6918 234.144C81.2571 234.394 80.7628 234.519 80.2088 234.519ZM87.6289 234.519C86.9869 234.519 86.44 234.345 85.9883 233.995C85.5366 233.643 85.1914 233.133 84.9528 232.465C84.7141 231.795 84.5948 230.985 84.5948 230.036C84.5948 229.093 84.7141 228.288 84.9528 227.62C85.1942 226.95 85.5408 226.438 85.9925 226.086C86.4471 225.731 86.9925 225.553 87.6289 225.553C88.2653 225.553 88.8093 225.731 89.261 226.086C89.7156 226.438 90.0621 226.95 90.3008 227.62C90.5423 228.288 90.663 229.093 90.663 230.036C90.663 230.985 90.5437 231.795 90.305 232.465C90.0664 233.133 89.7212 233.643 89.2695 233.995C88.8178 234.345 88.271 234.519 87.6289 234.519ZM87.6289 233.582C88.2653 233.582 88.7596 233.275 89.1119 232.661C89.4641 232.048 89.6403 231.173 89.6403 230.036C89.6403 229.281 89.5593 228.637 89.3974 228.106C89.2383 227.575 89.0082 227.17 88.707 226.891C88.4087 226.613 88.0494 226.474 87.6289 226.474C86.9982 226.474 86.5053 226.785 86.1502 227.407C85.7951 228.026 85.6175 228.903 85.6175 230.036C85.6175 230.792 85.6971 231.434 85.8562 231.962C86.0153 232.491 86.244 232.893 86.5423 233.168C86.8434 233.444 87.2056 233.582 87.6289 233.582Z" fill="white" fill-opacity="0.7"/>
<path d="M74.9716 281.873V290.6H73.9148V282.981H73.8636L71.733 284.396V283.322L73.9148 281.873H74.9716ZM80.3281 290.719C79.6861 290.719 79.1392 290.545 78.6875 290.195C78.2358 289.843 77.8906 289.333 77.652 288.665C77.4134 287.995 77.294 287.185 77.294 286.236C77.294 285.293 77.4134 284.488 77.652 283.82C77.8935 283.15 78.2401 282.638 78.6918 282.286C79.1463 281.931 79.6918 281.754 80.3281 281.754C80.9645 281.754 81.5085 281.931 81.9602 282.286C82.4148 282.638 82.7614 283.15 83 283.82C83.2415 284.488 83.3622 285.293 83.3622 286.236C83.3622 287.185 83.2429 287.995 83.0043 288.665C82.7656 289.333 82.4205 289.843 81.9688 290.195C81.517 290.545 80.9702 290.719 80.3281 290.719ZM80.3281 289.782C80.9645 289.782 81.4588 289.475 81.8111 288.861C82.1634 288.248 82.3395 287.373 82.3395 286.236C82.3395 285.481 82.2585 284.837 82.0966 284.306C81.9375 283.775 81.7074 283.37 81.4062 283.092C81.108 282.813 80.7486 282.674 80.3281 282.674C79.6974 282.674 79.2045 282.985 78.8494 283.607C78.4943 284.227 78.3168 285.103 78.3168 286.236C78.3168 286.992 78.3963 287.634 78.5554 288.163C78.7145 288.691 78.9432 289.093 79.2415 289.369C79.5426 289.644 79.9048 289.782 80.3281 289.782ZM87.8281 290.719C87.1861 290.719 86.6392 290.545 86.1875 290.195C85.7358 289.843 85.3906 289.333 85.152 288.665C84.9134 287.995 84.794 287.185 84.794 286.236C84.794 285.293 84.9134 284.488 85.152 283.82C85.3935 283.15 85.7401 282.638 86.1918 282.286C86.6463 281.931 87.1918 281.754 87.8281 281.754C88.4645 281.754 89.0085 281.931 89.4602 282.286C89.9148 282.638 90.2614 283.15 90.5 283.82C90.7415 284.488 90.8622 285.293 90.8622 286.236C90.8622 287.185 90.7429 287.995 90.5043 288.665C90.2656 289.333 89.9205 289.843 89.4688 290.195C89.017 290.545 88.4702 290.719 87.8281 290.719ZM87.8281 289.782C88.4645 289.782 88.9588 289.475 89.3111 288.861C89.6634 288.248 89.8395 287.373 89.8395 286.236C89.8395 285.481 89.7585 284.837 89.5966 284.306C89.4375 283.775 89.2074 283.37 88.9062 283.092C88.608 282.813 88.2486 282.674 87.8281 282.674C87.1974 282.674 86.7045 282.985 86.3494 283.607C85.9943 284.227 85.8168 285.103 85.8168 286.236C85.8168 286.992 85.8963 287.634 86.0554 288.163C86.2145 288.691 86.4432 289.093 86.7415 289.369C87.0426 289.644 87.4048 289.782 87.8281 289.782Z" fill="white" fill-opacity="0.7"/>
<path d="M80.6307 346.919C80.1307 346.919 79.6804 346.82 79.2798 346.621C78.8793 346.422 78.5582 346.149 78.3168 345.803C78.0753 345.456 77.9432 345.061 77.9205 344.618H78.9432C78.983 345.013 79.1619 345.34 79.4801 345.598C79.8011 345.854 80.1847 345.982 80.6307 345.982C80.9886 345.982 81.3068 345.898 81.5852 345.73C81.8665 345.563 82.0866 345.332 82.2457 345.04C82.4077 344.744 82.4886 344.411 82.4886 344.038C82.4886 343.658 82.4048 343.318 82.2372 343.02C82.0724 342.719 81.8452 342.482 81.5554 342.308C81.2656 342.135 80.9347 342.047 80.5625 342.044C80.2955 342.041 80.0213 342.082 79.7401 342.168C79.4588 342.25 79.2273 342.357 79.0455 342.487L78.0568 342.368L78.5852 338.073H83.1193V339.01H79.4716L79.1648 341.584H79.2159C79.3949 341.442 79.6193 341.324 79.8892 341.23C80.1591 341.136 80.4403 341.09 80.733 341.09C81.267 341.09 81.7429 341.217 82.1605 341.473C82.581 341.726 82.9105 342.073 83.1491 342.513C83.3906 342.953 83.5114 343.456 83.5114 344.021C83.5114 344.578 83.3864 345.075 83.1364 345.513C82.8892 345.948 82.5483 346.291 82.1136 346.544C81.679 346.794 81.1847 346.919 80.6307 346.919ZM88.0508 346.919C87.4087 346.919 86.8619 346.744 86.4102 346.395C85.9585 346.043 85.6133 345.533 85.3746 344.865C85.136 344.195 85.0167 343.385 85.0167 342.436C85.0167 341.493 85.136 340.688 85.3746 340.02C85.6161 339.35 85.9627 338.838 86.4144 338.486C86.869 338.131 87.4144 337.953 88.0508 337.953C88.6871 337.953 89.2312 338.131 89.6829 338.486C90.1374 338.838 90.484 339.35 90.7227 340.02C90.9641 340.688 91.0849 341.493 91.0849 342.436C91.0849 343.385 90.9656 344.195 90.7269 344.865C90.4883 345.533 90.1431 346.043 89.6914 346.395C89.2397 346.744 88.6928 346.919 88.0508 346.919ZM88.0508 345.982C88.6871 345.982 89.1815 345.675 89.5337 345.061C89.886 344.448 90.0621 343.573 90.0621 342.436C90.0621 341.68 89.9812 341.037 89.8192 340.506C89.6602 339.975 89.43 339.57 89.1289 339.291C88.8306 339.013 88.4712 338.874 88.0508 338.874C87.4201 338.874 86.9272 339.185 86.5721 339.807C86.217 340.426 86.0394 341.303 86.0394 342.436C86.0394 343.192 86.119 343.834 86.2781 344.362C86.4371 344.891 86.6658 345.293 86.9641 345.568C87.2653 345.844 87.6275 345.982 88.0508 345.982Z" fill="white" fill-opacity="0.7"/>
<path d="M87.75 403.119C87.108 403.119 86.5611 402.945 86.1094 402.595C85.6577 402.243 85.3125 401.733 85.0739 401.065C84.8352 400.395 84.7159 399.585 84.7159 398.636C84.7159 397.693 84.8352 396.888 85.0739 396.22C85.3153 395.55 85.6619 395.038 86.1136 394.686C86.5682 394.331 87.1136 394.153 87.75 394.153C88.3864 394.153 88.9304 394.331 89.3821 394.686C89.8366 395.038 90.1832 395.55 90.4219 396.22C90.6634 396.888 90.7841 397.693 90.7841 398.636C90.7841 399.585 90.6648 400.395 90.4261 401.065C90.1875 401.733 89.8423 402.243 89.3906 402.595C88.9389 402.945 88.392 403.119 87.75 403.119ZM87.75 402.182C88.3864 402.182 88.8807 401.875 89.233 401.261C89.5852 400.648 89.7614 399.773 89.7614 398.636C89.7614 397.881 89.6804 397.237 89.5185 396.706C89.3594 396.175 89.1293 395.77 88.8281 395.491C88.5298 395.213 88.1705 395.074 87.75 395.074C87.1193 395.074 86.6264 395.385 86.2713 396.007C85.9162 396.626 85.7386 397.503 85.7386 398.636C85.7386 399.392 85.8182 400.034 85.9773 400.562C86.1364 401.091 86.3651 401.493 86.6634 401.768C86.9645 402.044 87.3267 402.182 87.75 402.182Z" fill="white" fill-opacity="0.7"/>
<line x1="97" y1="115.5" x2="528" y2="115.5" stroke="#2A4A37" stroke-dasharray="2"/>
<line x1="97" y1="172.3" x2="528" y2="172.3" stroke="#2A4A37" stroke-dasharray="2"/>
<line x1="97" y1="229.1" x2="528" y2="229.1" stroke="#2A4A37" stroke-dasharray="2"/>
<line x1="97" y1="285.9" x2="528" y2="285.9" stroke="#2A4A37" stroke-dasharray="2"/>
<line x1="97" y1="342.7" x2="528" y2="342.7" stroke="#2A4A37" stroke-dasharray="2"/>
<line x1="97" y1="399.5" x2="528" y2="399.5" stroke="black" stroke-opacity="0.5"/>
<line x1="96.5" y1="400" x2="96.5" y2="116" stroke="#2A4A37" stroke-dasharray="2"/>
<line x1="168.336" y1="400" x2="168.336" y2="116" stroke="#2A4A37" stroke-dasharray="2"/>
<line x1="240.164" y1="400" x2="240.164" y2="116" stroke="#2A4A37" stroke-dasharray="2"/>
<line x1="312" y1="400" x2="312" y2="116" stroke="#2A4A37" stroke-dasharray="2"/>
<line x1="383.836" y1="400" x2="383.836" y2="116" stroke="#2A4A37" stroke-dasharray="2"/>
<line x1="455.664" y1="400" x2="455.664" y2="116" stroke="#2A4A37" stroke-dasharray="2"/>
<line x1="527.5" y1="400" x2="527.5" y2="116" stroke="#2A4A37" stroke-dasharray="2"/>
<rect x="111" y="265.997" width="78" height="132" rx="4" fill="url(#paint1_linear_5492_23412)"/>
<rect x="219" y="311.997" width="78" height="87" rx="4" fill="url(#paint2_linear_5492_23412)"/>
<rect x="327" y="141.998" width="78" height="257" rx="4" fill="url(#paint3_linear_5492_23412)"/>
<rect x="436" y="225.001" width="78" height="174" rx="4" fill="url(#paint4_linear_5492_23412)"/>
<path d="M292.903 458.5V457.733L295.784 454.58C296.122 454.21 296.401 453.889 296.619 453.616C296.838 453.341 297 453.082 297.105 452.841C297.213 452.597 297.267 452.341 297.267 452.074C297.267 451.767 297.193 451.501 297.045 451.277C296.901 451.053 296.702 450.879 296.449 450.757C296.196 450.635 295.912 450.574 295.597 450.574C295.261 450.574 294.969 450.643 294.719 450.783C294.472 450.919 294.28 451.111 294.143 451.358C294.01 451.605 293.943 451.895 293.943 452.227H292.938C292.938 451.716 293.055 451.267 293.291 450.881C293.527 450.494 293.848 450.193 294.254 449.977C294.663 449.761 295.122 449.653 295.631 449.653C296.142 449.653 296.595 449.761 296.99 449.977C297.385 450.193 297.695 450.484 297.919 450.851C298.143 451.217 298.256 451.625 298.256 452.074C298.256 452.395 298.197 452.709 298.081 453.016C297.967 453.32 297.768 453.659 297.484 454.034C297.203 454.406 296.812 454.861 296.312 455.398L294.352 457.494V457.562H298.409V458.5H292.903ZM303.016 458.619C302.374 458.619 301.827 458.445 301.375 458.095C300.923 457.743 300.578 457.233 300.339 456.565C300.101 455.895 299.982 455.085 299.982 454.136C299.982 453.193 300.101 452.388 300.339 451.72C300.581 451.05 300.928 450.538 301.379 450.186C301.834 449.831 302.379 449.653 303.016 449.653C303.652 449.653 304.196 449.831 304.648 450.186C305.102 450.538 305.449 451.05 305.688 451.72C305.929 452.388 306.05 453.193 306.05 454.136C306.05 455.085 305.93 455.895 305.692 456.565C305.453 457.233 305.108 457.743 304.656 458.095C304.205 458.445 303.658 458.619 303.016 458.619ZM303.016 457.682C303.652 457.682 304.146 457.375 304.499 456.761C304.851 456.148 305.027 455.273 305.027 454.136C305.027 453.381 304.946 452.737 304.784 452.206C304.625 451.675 304.395 451.27 304.094 450.991C303.795 450.713 303.436 450.574 303.016 450.574C302.385 450.574 301.892 450.885 301.537 451.507C301.182 452.126 301.004 453.003 301.004 454.136C301.004 454.892 301.084 455.534 301.243 456.062C301.402 456.591 301.631 456.993 301.929 457.268C302.23 457.544 302.592 457.682 303.016 457.682ZM307.669 458.5V457.733L310.55 454.58C310.888 454.21 311.166 453.889 311.385 453.616C311.604 453.341 311.766 453.082 311.871 452.841C311.979 452.597 312.033 452.341 312.033 452.074C312.033 451.767 311.959 451.501 311.811 451.277C311.666 451.053 311.467 450.879 311.214 450.757C310.962 450.635 310.678 450.574 310.362 450.574C310.027 450.574 309.734 450.643 309.484 450.783C309.237 450.919 309.045 451.111 308.909 451.358C308.776 451.605 308.709 451.895 308.709 452.227H307.703C307.703 451.716 307.821 451.267 308.057 450.881C308.293 450.494 308.614 450.193 309.02 449.977C309.429 449.761 309.888 449.653 310.396 449.653C310.908 449.653 311.361 449.761 311.756 449.977C312.151 450.193 312.46 450.484 312.685 450.851C312.909 451.217 313.021 451.625 313.021 452.074C313.021 452.395 312.963 452.709 312.847 453.016C312.733 453.32 312.534 453.659 312.25 454.034C311.969 454.406 311.578 454.861 311.078 455.398L309.118 457.494V457.562H313.175V458.5H307.669ZM317.884 458.619C317.321 458.619 316.82 458.523 316.379 458.33C315.942 458.136 315.594 457.868 315.335 457.524C315.08 457.178 314.94 456.776 314.918 456.318H315.991C316.014 456.599 316.111 456.842 316.281 457.047C316.452 457.249 316.675 457.405 316.95 457.516C317.226 457.626 317.531 457.682 317.866 457.682C318.241 457.682 318.574 457.616 318.864 457.486C319.153 457.355 319.381 457.173 319.545 456.94C319.71 456.707 319.793 456.438 319.793 456.131C319.793 455.81 319.713 455.527 319.554 455.283C319.395 455.036 319.162 454.842 318.855 454.703C318.548 454.564 318.173 454.494 317.73 454.494H317.031V453.557H317.73C318.077 453.557 318.381 453.494 318.642 453.369C318.906 453.244 319.112 453.068 319.26 452.841C319.411 452.614 319.486 452.347 319.486 452.04C319.486 451.744 319.42 451.487 319.29 451.268C319.159 451.05 318.974 450.879 318.736 450.757C318.5 450.635 318.222 450.574 317.901 450.574C317.599 450.574 317.315 450.629 317.048 450.74C316.784 450.848 316.568 451.006 316.401 451.213C316.233 451.418 316.142 451.665 316.128 451.955H315.105C315.122 451.497 315.26 451.097 315.518 450.753C315.777 450.406 316.115 450.136 316.533 449.943C316.953 449.75 317.415 449.653 317.918 449.653C318.457 449.653 318.92 449.763 319.307 449.982C319.693 450.197 319.99 450.483 320.197 450.838C320.405 451.193 320.509 451.577 320.509 451.989C320.509 452.48 320.379 452.899 320.121 453.246C319.865 453.592 319.517 453.832 319.077 453.966V454.034C319.628 454.125 320.058 454.359 320.368 454.737C320.678 455.112 320.832 455.577 320.832 456.131C320.832 456.605 320.703 457.031 320.445 457.409C320.189 457.784 319.839 458.08 319.396 458.295C318.953 458.511 318.449 458.619 317.884 458.619Z" fill="white" fill-opacity="0.7"/>
</g>
</g>
<path d="M123.268 416V407.273H128.501V408.21H124.325V411.159H128.109V412.097H124.325V416H123.268ZM131.18 407.273V416H130.174V407.273H131.18ZM134.948 416.153C134.533 416.153 134.157 416.075 133.819 415.919C133.481 415.76 133.212 415.531 133.013 415.233C132.815 414.932 132.715 414.568 132.715 414.142C132.715 413.767 132.789 413.463 132.937 413.23C133.085 412.994 133.282 412.81 133.529 412.676C133.776 412.543 134.049 412.443 134.347 412.378C134.648 412.31 134.951 412.256 135.255 412.216C135.653 412.165 135.975 412.126 136.222 412.101C136.472 412.072 136.654 412.026 136.768 411.96C136.884 411.895 136.942 411.781 136.942 411.619V411.585C136.942 411.165 136.827 410.838 136.597 410.605C136.37 410.372 136.025 410.256 135.562 410.256C135.082 410.256 134.705 410.361 134.433 410.571C134.16 410.781 133.968 411.006 133.857 411.244L132.903 410.903C133.073 410.506 133.3 410.196 133.585 409.974C133.871 409.75 134.184 409.594 134.522 409.506C134.863 409.415 135.198 409.369 135.528 409.369C135.738 409.369 135.979 409.395 136.252 409.446C136.528 409.494 136.793 409.595 137.049 409.749C137.308 409.902 137.522 410.134 137.692 410.443C137.863 410.753 137.948 411.168 137.948 411.688V416H136.942V415.114H136.891C136.823 415.256 136.71 415.408 136.55 415.57C136.391 415.732 136.18 415.869 135.915 415.983C135.651 416.097 135.329 416.153 134.948 416.153ZM135.102 415.25C135.499 415.25 135.835 415.172 136.107 415.016C136.383 414.859 136.59 414.658 136.729 414.411C136.871 414.163 136.942 413.903 136.942 413.631V412.71C136.9 412.761 136.806 412.808 136.661 412.851C136.519 412.891 136.354 412.926 136.167 412.957C135.982 412.986 135.802 413.011 135.626 413.034C135.452 413.054 135.312 413.071 135.204 413.085C134.942 413.119 134.698 413.175 134.471 413.251C134.246 413.325 134.065 413.437 133.925 413.588C133.789 413.736 133.721 413.937 133.721 414.193C133.721 414.543 133.85 414.807 134.109 414.986C134.37 415.162 134.701 415.25 135.102 415.25ZM144.42 410.92L143.517 411.176C143.46 411.026 143.376 410.879 143.265 410.737C143.157 410.592 143.01 410.473 142.822 410.379C142.635 410.286 142.395 410.239 142.102 410.239C141.701 410.239 141.368 410.331 141.1 410.516C140.836 410.697 140.704 410.929 140.704 411.21C140.704 411.46 140.795 411.658 140.977 411.803C141.159 411.947 141.443 412.068 141.829 412.165L142.801 412.403C143.386 412.545 143.822 412.763 144.109 413.055C144.396 413.345 144.539 413.719 144.539 414.176C144.539 414.551 144.431 414.886 144.216 415.182C144.002 415.477 143.704 415.71 143.321 415.881C142.937 416.051 142.491 416.136 141.983 416.136C141.315 416.136 140.762 415.991 140.325 415.702C139.887 415.412 139.61 414.989 139.494 414.432L140.449 414.193C140.539 414.545 140.711 414.81 140.964 414.986C141.22 415.162 141.554 415.25 141.966 415.25C142.434 415.25 142.806 415.151 143.082 414.952C143.36 414.75 143.5 414.509 143.5 414.227C143.5 414 143.42 413.81 143.261 413.656C143.102 413.5 142.858 413.384 142.528 413.307L141.437 413.051C140.838 412.909 140.397 412.689 140.116 412.391C139.838 412.089 139.699 411.713 139.699 411.261C139.699 410.892 139.802 410.565 140.01 410.281C140.22 409.997 140.505 409.774 140.866 409.612C141.23 409.45 141.642 409.369 142.102 409.369C142.75 409.369 143.258 409.511 143.627 409.795C144 410.08 144.264 410.455 144.42 410.92ZM147.059 412.062V416H146.053V407.273H147.059V410.477H147.144C147.298 410.139 147.528 409.871 147.835 409.672C148.144 409.47 148.556 409.369 149.07 409.369C149.516 409.369 149.907 409.459 150.242 409.638C150.577 409.814 150.837 410.085 151.022 410.452C151.21 410.815 151.303 411.278 151.303 411.841V416H150.298V411.909C150.298 411.389 150.163 410.987 149.893 410.703C149.626 410.416 149.255 410.273 148.781 410.273C148.451 410.273 148.156 410.342 147.894 410.482C147.636 410.621 147.431 410.824 147.281 411.091C147.133 411.358 147.059 411.682 147.059 412.062ZM156.654 416V407.273H157.711V415.062H161.768V416H156.654ZM165.927 416.136C165.336 416.136 164.818 415.996 164.372 415.714C163.929 415.433 163.582 415.04 163.332 414.534C163.085 414.028 162.961 413.437 162.961 412.761C162.961 412.08 163.085 411.484 163.332 410.976C163.582 410.467 163.929 410.072 164.372 409.791C164.818 409.51 165.336 409.369 165.927 409.369C166.518 409.369 167.035 409.51 167.478 409.791C167.924 410.072 168.271 410.467 168.518 410.976C168.768 411.484 168.893 412.08 168.893 412.761C168.893 413.437 168.768 414.028 168.518 414.534C168.271 415.04 167.924 415.433 167.478 415.714C167.035 415.996 166.518 416.136 165.927 416.136ZM165.927 415.233C166.376 415.233 166.745 415.118 167.035 414.888C167.325 414.658 167.539 414.355 167.679 413.98C167.818 413.605 167.887 413.199 167.887 412.761C167.887 412.324 167.818 411.916 167.679 411.538C167.539 411.161 167.325 410.855 167.035 410.622C166.745 410.389 166.376 410.273 165.927 410.273C165.478 410.273 165.109 410.389 164.819 410.622C164.529 410.855 164.315 411.161 164.176 411.538C164.037 411.916 163.967 412.324 163.967 412.761C163.967 413.199 164.037 413.605 164.176 413.98C164.315 414.355 164.529 414.658 164.819 414.888C165.109 415.118 165.478 415.233 165.927 415.233ZM172.354 416.153C171.94 416.153 171.563 416.075 171.225 415.919C170.887 415.76 170.619 415.531 170.42 415.233C170.221 414.932 170.121 414.568 170.121 414.142C170.121 413.767 170.195 413.463 170.343 413.23C170.491 412.994 170.688 412.81 170.935 412.676C171.183 412.543 171.455 412.443 171.754 412.378C172.055 412.31 172.357 412.256 172.661 412.216C173.059 412.165 173.381 412.126 173.629 412.101C173.879 412.072 174.06 412.026 174.174 411.96C174.29 411.895 174.349 411.781 174.349 411.619V411.585C174.349 411.165 174.234 410.838 174.004 410.605C173.776 410.372 173.431 410.256 172.968 410.256C172.488 410.256 172.112 410.361 171.839 410.571C171.566 410.781 171.374 411.006 171.263 411.244L170.309 410.903C170.479 410.506 170.707 410.196 170.991 409.974C171.278 409.75 171.59 409.594 171.928 409.506C172.269 409.415 172.604 409.369 172.934 409.369C173.144 409.369 173.386 409.395 173.658 409.446C173.934 409.494 174.2 409.595 174.455 409.749C174.714 409.902 174.928 410.134 175.099 410.443C175.269 410.753 175.354 411.168 175.354 411.688V416H174.349V415.114H174.298C174.229 415.256 174.116 415.408 173.957 415.57C173.798 415.732 173.586 415.869 173.322 415.983C173.058 416.097 172.735 416.153 172.354 416.153ZM172.508 415.25C172.906 415.25 173.241 415.172 173.513 415.016C173.789 414.859 173.996 414.658 174.136 414.411C174.278 414.163 174.349 413.903 174.349 413.631V412.71C174.306 412.761 174.212 412.808 174.067 412.851C173.925 412.891 173.761 412.926 173.573 412.957C173.388 412.986 173.208 413.011 173.032 413.034C172.859 413.054 172.718 413.071 172.61 413.085C172.349 413.119 172.104 413.175 171.877 413.251C171.653 413.325 171.471 413.437 171.332 413.588C171.195 413.736 171.127 413.937 171.127 414.193C171.127 414.543 171.256 414.807 171.515 414.986C171.776 415.162 172.107 415.25 172.508 415.25ZM178.196 412.062V416H177.19V409.455H178.162V410.477H178.247C178.4 410.145 178.633 409.878 178.946 409.676C179.258 409.472 179.662 409.369 180.156 409.369C180.599 409.369 180.987 409.46 181.319 409.642C181.652 409.821 181.91 410.094 182.095 410.46C182.279 410.824 182.372 411.284 182.372 411.841V416H181.366V411.909C181.366 411.395 181.233 410.994 180.966 410.707C180.699 410.418 180.332 410.273 179.866 410.273C179.545 410.273 179.258 410.342 179.005 410.482C178.755 410.621 178.558 410.824 178.413 411.091C178.268 411.358 178.196 411.682 178.196 412.062ZM132.825 431H131.717L134.922 422.273H136.012L139.217 431H138.109L135.501 423.653H135.433L132.825 431ZM133.234 427.591H137.7V428.528H133.234V427.591ZM142.876 424.455V425.307H139.484V424.455H142.876ZM140.473 422.886H141.479V429.125C141.479 429.409 141.52 429.622 141.602 429.764C141.688 429.903 141.795 429.997 141.926 430.045C142.06 430.091 142.2 430.114 142.348 430.114C142.459 430.114 142.55 430.108 142.621 430.097C142.692 430.082 142.749 430.071 142.791 430.062L142.996 430.966C142.928 430.991 142.832 431.017 142.71 431.043C142.588 431.071 142.433 431.085 142.246 431.085C141.962 431.085 141.683 431.024 141.411 430.902C141.141 430.78 140.916 430.594 140.737 430.344C140.561 430.094 140.473 429.778 140.473 429.398V422.886ZM147.236 424.455V425.307H143.844V424.455H147.236ZM144.832 422.886H145.838V429.125C145.838 429.409 145.879 429.622 145.962 429.764C146.047 429.903 146.155 429.997 146.286 430.045C146.419 430.091 146.56 430.114 146.707 430.114C146.818 430.114 146.909 430.108 146.98 430.097C147.051 430.082 147.108 430.071 147.151 430.062L147.355 430.966C147.287 430.991 147.192 431.017 147.07 431.043C146.947 431.071 146.793 431.085 146.605 431.085C146.321 431.085 146.043 431.024 145.77 430.902C145.5 430.78 145.276 430.594 145.097 430.344C144.92 430.094 144.832 429.778 144.832 429.398V422.886ZM150.675 431.153C150.26 431.153 149.884 431.075 149.545 430.919C149.207 430.76 148.939 430.531 148.74 430.233C148.541 429.932 148.442 429.568 148.442 429.142C148.442 428.767 148.516 428.463 148.663 428.23C148.811 427.994 149.009 427.81 149.256 427.676C149.503 427.543 149.776 427.443 150.074 427.378C150.375 427.31 150.678 427.256 150.982 427.216C151.379 427.165 151.702 427.126 151.949 427.101C152.199 427.072 152.381 427.026 152.494 426.96C152.611 426.895 152.669 426.781 152.669 426.619V426.585C152.669 426.165 152.554 425.838 152.324 425.605C152.097 425.372 151.751 425.256 151.288 425.256C150.808 425.256 150.432 425.361 150.159 425.571C149.886 425.781 149.695 426.006 149.584 426.244L148.629 425.903C148.8 425.506 149.027 425.196 149.311 424.974C149.598 424.75 149.911 424.594 150.249 424.506C150.589 424.415 150.925 424.369 151.254 424.369C151.464 424.369 151.706 424.395 151.979 424.446C152.254 424.494 152.52 424.595 152.776 424.749C153.034 424.902 153.249 425.134 153.419 425.443C153.589 425.753 153.675 426.168 153.675 426.688V431H152.669V430.114H152.618C152.55 430.256 152.436 430.408 152.277 430.57C152.118 430.732 151.906 430.869 151.642 430.983C151.378 431.097 151.055 431.153 150.675 431.153ZM150.828 430.25C151.226 430.25 151.561 430.172 151.834 430.016C152.109 429.859 152.317 429.658 152.456 429.411C152.598 429.163 152.669 428.903 152.669 428.631V427.71C152.626 427.761 152.533 427.808 152.388 427.851C152.246 427.891 152.081 427.926 151.893 427.957C151.709 427.986 151.528 428.011 151.352 428.034C151.179 428.054 151.038 428.071 150.93 428.085C150.669 428.119 150.425 428.175 150.197 428.251C149.973 428.325 149.791 428.437 149.652 428.588C149.516 428.736 149.447 428.937 149.447 429.193C149.447 429.543 149.577 429.807 149.835 429.986C150.097 430.162 150.428 430.25 150.828 430.25ZM158.169 431.136C157.556 431.136 157.027 430.991 156.584 430.702C156.141 430.412 155.8 430.013 155.561 429.504C155.323 428.996 155.203 428.415 155.203 427.761C155.203 427.097 155.326 426.51 155.57 426.001C155.817 425.49 156.161 425.091 156.601 424.804C157.044 424.514 157.561 424.369 158.152 424.369C158.613 424.369 159.027 424.455 159.397 424.625C159.766 424.795 160.069 425.034 160.304 425.341C160.54 425.648 160.686 426.006 160.743 426.415H159.738C159.661 426.116 159.49 425.852 159.226 425.622C158.965 425.389 158.613 425.273 158.169 425.273C157.777 425.273 157.434 425.375 157.138 425.58C156.846 425.781 156.617 426.067 156.452 426.436C156.29 426.803 156.209 427.233 156.209 427.727C156.209 428.233 156.289 428.673 156.448 429.048C156.61 429.423 156.837 429.714 157.13 429.922C157.425 430.129 157.772 430.233 158.169 430.233C158.431 430.233 158.668 430.188 158.881 430.097C159.094 430.006 159.275 429.875 159.422 429.705C159.57 429.534 159.675 429.33 159.738 429.091H160.743C160.686 429.477 160.546 429.825 160.321 430.135C160.1 430.442 159.806 430.686 159.439 430.868C159.076 431.047 158.652 431.136 158.169 431.136ZM163.151 428.614L163.134 427.369H163.338L166.202 424.455H167.446L164.395 427.54H164.31L163.151 428.614ZM162.213 431V422.273H163.219V431H162.213ZM166.373 431L163.816 427.761L164.532 427.062L167.651 431H166.373ZM173.377 425.92L172.474 426.176C172.417 426.026 172.333 425.879 172.222 425.737C172.114 425.592 171.967 425.473 171.779 425.379C171.592 425.286 171.352 425.239 171.059 425.239C170.658 425.239 170.325 425.331 170.058 425.516C169.793 425.697 169.661 425.929 169.661 426.21C169.661 426.46 169.752 426.658 169.934 426.803C170.116 426.947 170.4 427.068 170.786 427.165L171.758 427.403C172.343 427.545 172.779 427.763 173.066 428.055C173.353 428.345 173.496 428.719 173.496 429.176C173.496 429.551 173.388 429.886 173.173 430.182C172.96 430.477 172.661 430.71 172.278 430.881C171.894 431.051 171.448 431.136 170.94 431.136C170.272 431.136 169.719 430.991 169.282 430.702C168.844 430.412 168.567 429.989 168.451 429.432L169.406 429.193C169.496 429.545 169.668 429.81 169.921 429.986C170.177 430.162 170.511 430.25 170.923 430.25C171.391 430.25 171.763 430.151 172.039 429.952C172.317 429.75 172.457 429.509 172.457 429.227C172.457 429 172.377 428.81 172.218 428.656C172.059 428.5 171.815 428.384 171.485 428.307L170.394 428.051C169.795 427.909 169.354 427.689 169.073 427.391C168.795 427.089 168.656 426.713 168.656 426.261C168.656 425.892 168.759 425.565 168.967 425.281C169.177 424.997 169.462 424.774 169.823 424.612C170.187 424.45 170.599 424.369 171.059 424.369C171.707 424.369 172.215 424.511 172.585 424.795C172.957 425.08 173.221 425.455 173.377 425.92Z" fill="white"/>
<path d="M225.891 416V407.273H228.84C229.521 407.273 230.081 407.389 230.519 407.622C230.956 407.852 231.28 408.169 231.49 408.572C231.7 408.976 231.806 409.435 231.806 409.949C231.806 410.463 231.7 410.919 231.49 411.317C231.28 411.714 230.958 412.027 230.523 412.254C230.088 412.479 229.533 412.591 228.857 412.591H226.47V411.636H228.823C229.289 411.636 229.664 411.568 229.948 411.432C230.235 411.295 230.442 411.102 230.57 410.852C230.7 410.599 230.766 410.298 230.766 409.949C230.766 409.599 230.7 409.294 230.57 409.033C230.439 408.771 230.23 408.57 229.943 408.428C229.656 408.283 229.277 408.21 228.806 408.21H226.948V416H225.891ZM229.999 412.08L232.146 416H230.919L228.806 412.08H229.999ZM236.104 416.136C235.474 416.136 234.93 415.997 234.472 415.719C234.018 415.438 233.667 415.045 233.42 414.543C233.175 414.037 233.053 413.449 233.053 412.778C233.053 412.108 233.175 411.517 233.42 411.006C233.667 410.491 234.01 410.091 234.451 409.804C234.894 409.514 235.411 409.369 236.002 409.369C236.343 409.369 236.68 409.426 237.012 409.54C237.344 409.653 237.647 409.838 237.92 410.094C238.192 410.347 238.41 410.682 238.572 411.099C238.733 411.517 238.814 412.031 238.814 412.642V413.068H233.769V412.199H237.792C237.792 411.83 237.718 411.5 237.57 411.21C237.425 410.92 237.218 410.692 236.948 410.524C236.681 410.357 236.366 410.273 236.002 410.273C235.601 410.273 235.255 410.372 234.962 410.571C234.672 410.767 234.449 411.023 234.293 411.338C234.137 411.653 234.059 411.991 234.059 412.352V412.932C234.059 413.426 234.144 413.845 234.314 414.189C234.488 414.53 234.728 414.79 235.035 414.969C235.341 415.145 235.698 415.233 236.104 415.233C236.368 415.233 236.607 415.196 236.82 415.122C237.036 415.045 237.222 414.932 237.378 414.781C237.535 414.628 237.655 414.437 237.741 414.21L238.712 414.483C238.61 414.812 238.438 415.102 238.197 415.352C237.955 415.599 237.657 415.793 237.302 415.932C236.947 416.068 236.547 416.136 236.104 416.136ZM243.089 416.136C242.458 416.136 241.914 415.997 241.456 415.719C241.002 415.438 240.651 415.045 240.404 414.543C240.16 414.037 240.037 413.449 240.037 412.778C240.037 412.108 240.16 411.517 240.404 411.006C240.651 410.491 240.995 410.091 241.435 409.804C241.878 409.514 242.395 409.369 242.986 409.369C243.327 409.369 243.664 409.426 243.996 409.54C244.329 409.653 244.631 409.838 244.904 410.094C245.177 410.347 245.394 410.682 245.556 411.099C245.718 411.517 245.799 412.031 245.799 412.642V413.068H240.753V412.199H244.776C244.776 411.83 244.702 411.5 244.555 411.21C244.41 410.92 244.202 410.692 243.932 410.524C243.665 410.357 243.35 410.273 242.986 410.273C242.586 410.273 242.239 410.372 241.947 410.571C241.657 410.767 241.434 411.023 241.278 411.338C241.121 411.653 241.043 411.991 241.043 412.352V412.932C241.043 413.426 241.128 413.845 241.299 414.189C241.472 414.53 241.712 414.79 242.019 414.969C242.326 415.145 242.682 415.233 243.089 415.233C243.353 415.233 243.591 415.196 243.805 415.122C244.02 415.045 244.206 414.932 244.363 414.781C244.519 414.628 244.64 414.437 244.725 414.21L245.697 414.483C245.594 414.812 245.422 415.102 245.181 415.352C244.939 415.599 244.641 415.793 244.286 415.932C243.931 416.068 243.532 416.136 243.089 416.136ZM248.334 412.062V416H247.329V409.455H248.3V410.477H248.385C248.539 410.145 248.772 409.878 249.084 409.676C249.397 409.472 249.8 409.369 250.295 409.369C250.738 409.369 251.126 409.46 251.458 409.642C251.79 409.821 252.049 410.094 252.233 410.46C252.418 410.824 252.51 411.284 252.51 411.841V416H251.505V411.909C251.505 411.395 251.371 410.994 251.104 410.707C250.837 410.418 250.471 410.273 250.005 410.273C249.684 410.273 249.397 410.342 249.144 410.482C248.894 410.621 248.697 410.824 248.552 411.091C248.407 411.358 248.334 411.682 248.334 412.062ZM257.195 409.455V410.307H253.803V409.455H257.195ZM254.791 407.886H255.797V414.125C255.797 414.409 255.838 414.622 255.921 414.764C256.006 414.903 256.114 414.997 256.244 415.045C256.378 415.091 256.519 415.114 256.666 415.114C256.777 415.114 256.868 415.108 256.939 415.097C257.01 415.082 257.067 415.071 257.11 415.062L257.314 415.966C257.246 415.991 257.151 416.017 257.029 416.043C256.906 416.071 256.752 416.085 256.564 416.085C256.28 416.085 256.002 416.024 255.729 415.902C255.459 415.78 255.235 415.594 255.056 415.344C254.879 415.094 254.791 414.778 254.791 414.398V407.886ZM258.708 416V409.455H259.679V410.443H259.747C259.867 410.119 260.083 409.857 260.395 409.655C260.708 409.453 261.06 409.352 261.452 409.352C261.526 409.352 261.618 409.354 261.729 409.357C261.84 409.359 261.923 409.364 261.98 409.369V410.392C261.946 410.384 261.868 410.371 261.746 410.354C261.627 410.334 261.5 410.324 261.367 410.324C261.048 410.324 260.764 410.391 260.514 410.524C260.267 410.655 260.071 410.837 259.926 411.07C259.784 411.3 259.713 411.562 259.713 411.858V416H258.708ZM265.099 416.153C264.684 416.153 264.307 416.075 263.969 415.919C263.631 415.76 263.363 415.531 263.164 415.233C262.965 414.932 262.866 414.568 262.866 414.142C262.866 413.767 262.939 413.463 263.087 413.23C263.235 412.994 263.432 412.81 263.68 412.676C263.927 412.543 264.199 412.443 264.498 412.378C264.799 412.31 265.101 412.256 265.405 412.216C265.803 412.165 266.126 412.126 266.373 412.101C266.623 412.072 266.805 412.026 266.918 411.96C267.035 411.895 267.093 411.781 267.093 411.619V411.585C267.093 411.165 266.978 410.838 266.748 410.605C266.52 410.372 266.175 410.256 265.712 410.256C265.232 410.256 264.856 410.361 264.583 410.571C264.31 410.781 264.118 411.006 264.008 411.244L263.053 410.903C263.224 410.506 263.451 410.196 263.735 409.974C264.022 409.75 264.334 409.594 264.672 409.506C265.013 409.415 265.349 409.369 265.678 409.369C265.888 409.369 266.13 409.395 266.403 409.446C266.678 409.494 266.944 409.595 267.199 409.749C267.458 409.902 267.672 410.134 267.843 410.443C268.013 410.753 268.099 411.168 268.099 411.688V416H267.093V415.114H267.042C266.974 415.256 266.86 415.408 266.701 415.57C266.542 415.732 266.33 415.869 266.066 415.983C265.802 416.097 265.479 416.153 265.099 416.153ZM265.252 415.25C265.65 415.25 265.985 415.172 266.258 415.016C266.533 414.859 266.741 414.658 266.88 414.411C267.022 414.163 267.093 413.903 267.093 413.631V412.71C267.05 412.761 266.956 412.808 266.812 412.851C266.67 412.891 266.505 412.926 266.317 412.957C266.133 412.986 265.952 413.011 265.776 413.034C265.603 413.054 265.462 413.071 265.354 413.085C265.093 413.119 264.849 413.175 264.621 413.251C264.397 413.325 264.215 413.437 264.076 413.588C263.939 413.736 263.871 413.937 263.871 414.193C263.871 414.543 264.001 414.807 264.259 414.986C264.52 415.162 264.851 415.25 265.252 415.25ZM270.94 412.062V416H269.934V409.455H270.906V410.477H270.991C271.144 410.145 271.377 409.878 271.69 409.676C272.002 409.472 272.406 409.369 272.9 409.369C273.343 409.369 273.731 409.46 274.063 409.642C274.396 409.821 274.654 410.094 274.839 410.46C275.024 410.824 275.116 411.284 275.116 411.841V416H274.11V411.909C274.11 411.395 273.977 410.994 273.71 410.707C273.443 410.418 273.076 410.273 272.61 410.273C272.289 410.273 272.002 410.342 271.749 410.482C271.499 410.621 271.302 410.824 271.157 411.091C271.012 411.358 270.94 411.682 270.94 412.062ZM279.613 416.136C278.999 416.136 278.471 415.991 278.028 415.702C277.584 415.412 277.243 415.013 277.005 414.504C276.766 413.996 276.647 413.415 276.647 412.761C276.647 412.097 276.769 411.51 277.013 411.001C277.26 410.49 277.604 410.091 278.045 409.804C278.488 409.514 279.005 409.369 279.596 409.369C280.056 409.369 280.471 409.455 280.84 409.625C281.209 409.795 281.512 410.034 281.748 410.341C281.983 410.648 282.13 411.006 282.187 411.415H281.181C281.104 411.116 280.934 410.852 280.67 410.622C280.408 410.389 280.056 410.273 279.613 410.273C279.221 410.273 278.877 410.375 278.581 410.58C278.289 410.781 278.06 411.067 277.895 411.436C277.733 411.803 277.653 412.233 277.653 412.727C277.653 413.233 277.732 413.673 277.891 414.048C278.053 414.423 278.28 414.714 278.573 414.922C278.868 415.129 279.215 415.233 279.613 415.233C279.874 415.233 280.111 415.188 280.324 415.097C280.537 415.006 280.718 414.875 280.866 414.705C281.013 414.534 281.118 414.33 281.181 414.091H282.187C282.13 414.477 281.989 414.825 281.765 415.135C281.543 415.442 281.249 415.686 280.883 415.868C280.519 416.047 280.096 416.136 279.613 416.136ZM284.305 418.455C284.134 418.455 283.982 418.44 283.849 418.412C283.715 418.386 283.623 418.361 283.572 418.335L283.827 417.449C284.072 417.511 284.287 417.534 284.475 417.517C284.662 417.5 284.829 417.416 284.974 417.266C285.121 417.118 285.256 416.878 285.378 416.545L285.566 416.034L283.145 409.455H284.236L286.043 414.67H286.111L287.918 409.455H289.009L286.231 416.955C286.106 417.293 285.951 417.572 285.766 417.794C285.581 418.018 285.367 418.185 285.123 418.293C284.881 418.401 284.608 418.455 284.305 418.455ZM236.016 431V422.273H241.283V423.21H237.073V426.159H241.01V427.097H237.073V430.062H241.351V431H236.016ZM243.801 424.455L245.369 427.131L246.938 424.455H248.097L245.983 427.727L248.097 431H246.938L245.369 428.46L243.801 431H242.642L244.722 427.727L242.642 424.455H243.801ZM249.532 433.455V424.455H250.503V425.494H250.623C250.697 425.381 250.799 425.236 250.93 425.06C251.063 424.881 251.253 424.722 251.501 424.582C251.751 424.44 252.089 424.369 252.515 424.369C253.066 424.369 253.552 424.507 253.972 424.783C254.393 425.058 254.721 425.449 254.956 425.955C255.192 426.46 255.31 427.057 255.31 427.744C255.31 428.438 255.192 429.038 254.956 429.547C254.721 430.053 254.394 430.445 253.976 430.723C253.559 430.999 253.077 431.136 252.532 431.136C252.111 431.136 251.775 431.067 251.522 430.928C251.269 430.786 251.074 430.625 250.938 430.446C250.802 430.264 250.697 430.114 250.623 429.994H250.537V433.455H249.532ZM250.52 427.727C250.52 428.222 250.593 428.658 250.738 429.036C250.883 429.411 251.094 429.705 251.373 429.918C251.651 430.128 251.992 430.233 252.395 430.233C252.816 430.233 253.167 430.122 253.448 429.901C253.732 429.676 253.945 429.375 254.087 428.997C254.232 428.616 254.305 428.193 254.305 427.727C254.305 427.267 254.233 426.852 254.091 426.483C253.952 426.111 253.741 425.817 253.456 425.601C253.175 425.382 252.822 425.273 252.395 425.273C251.986 425.273 251.643 425.376 251.364 425.584C251.086 425.788 250.876 426.075 250.733 426.445C250.591 426.811 250.52 427.239 250.52 427.727ZM257.85 422.273V431H256.844V422.273H257.85ZM262.351 431.136C261.76 431.136 261.242 430.996 260.796 430.714C260.352 430.433 260.006 430.04 259.756 429.534C259.509 429.028 259.385 428.437 259.385 427.761C259.385 427.08 259.509 426.484 259.756 425.976C260.006 425.467 260.352 425.072 260.796 424.791C261.242 424.51 261.76 424.369 262.351 424.369C262.942 424.369 263.459 424.51 263.902 424.791C264.348 425.072 264.695 425.467 264.942 425.976C265.192 426.484 265.317 427.08 265.317 427.761C265.317 428.437 265.192 429.028 264.942 429.534C264.695 430.04 264.348 430.433 263.902 430.714C263.459 430.996 262.942 431.136 262.351 431.136ZM262.351 430.233C262.8 430.233 263.169 430.118 263.459 429.888C263.749 429.658 263.963 429.355 264.102 428.98C264.242 428.605 264.311 428.199 264.311 427.761C264.311 427.324 264.242 426.916 264.102 426.538C263.963 426.161 263.749 425.855 263.459 425.622C263.169 425.389 262.8 425.273 262.351 425.273C261.902 425.273 261.533 425.389 261.243 425.622C260.953 425.855 260.739 426.161 260.6 426.538C260.46 426.916 260.391 427.324 260.391 427.761C260.391 428.199 260.46 428.605 260.6 428.98C260.739 429.355 260.953 429.658 261.243 429.888C261.533 430.118 261.902 430.233 262.351 430.233ZM266.852 431V424.455H267.858V431H266.852ZM267.363 423.364C267.167 423.364 266.998 423.297 266.856 423.163C266.717 423.03 266.648 422.869 266.648 422.682C266.648 422.494 266.717 422.334 266.856 422.2C266.998 422.067 267.167 422 267.363 422C267.559 422 267.727 422.067 267.866 422.2C268.008 422.334 268.079 422.494 268.079 422.682C268.079 422.869 268.008 423.03 267.866 423.163C267.727 423.297 267.559 423.364 267.363 423.364ZM272.546 424.455V425.307H269.154V424.455H272.546ZM270.143 422.886H271.149V429.125C271.149 429.409 271.19 429.622 271.272 429.764C271.357 429.903 271.465 429.997 271.596 430.045C271.73 430.091 271.87 430.114 272.018 430.114C272.129 430.114 272.22 430.108 272.291 430.097C272.362 430.082 272.419 430.071 272.461 430.062L272.666 430.966C272.597 430.991 272.502 431.017 272.38 431.043C272.258 431.071 272.103 431.085 271.916 431.085C271.632 431.085 271.353 431.024 271.08 430.902C270.811 430.78 270.586 430.594 270.407 430.344C270.231 430.094 270.143 429.778 270.143 429.398V422.886ZM278.578 425.92L277.675 426.176C277.618 426.026 277.534 425.879 277.423 425.737C277.316 425.592 277.168 425.473 276.98 425.379C276.793 425.286 276.553 425.239 276.26 425.239C275.86 425.239 275.526 425.331 275.259 425.516C274.994 425.697 274.862 425.929 274.862 426.21C274.862 426.46 274.953 426.658 275.135 426.803C275.317 426.947 275.601 427.068 275.987 427.165L276.959 427.403C277.544 427.545 277.98 427.763 278.267 428.055C278.554 428.345 278.698 428.719 278.698 429.176C278.698 429.551 278.59 429.886 278.374 430.182C278.161 430.477 277.862 430.71 277.479 430.881C277.095 431.051 276.649 431.136 276.141 431.136C275.473 431.136 274.921 430.991 274.483 430.702C274.046 430.412 273.769 429.989 273.652 429.432L274.607 429.193C274.698 429.545 274.869 429.81 275.122 429.986C275.378 430.162 275.712 430.25 276.124 430.25C276.593 430.25 276.965 430.151 277.24 429.952C277.519 429.75 277.658 429.509 277.658 429.227C277.658 429 277.578 428.81 277.419 428.656C277.26 428.5 277.016 428.384 276.686 428.307L275.595 428.051C274.996 427.909 274.556 427.689 274.274 427.391C273.996 427.089 273.857 426.713 273.857 426.261C273.857 425.892 273.96 425.565 274.168 425.281C274.378 424.997 274.664 424.774 275.024 424.612C275.388 424.45 275.8 424.369 276.26 424.369C276.908 424.369 277.416 424.511 277.786 424.795C278.158 425.08 278.422 425.455 278.578 425.92Z" fill="white"/>
<path d="M324.311 416H323.203L326.408 407.273H327.499L330.703 416H329.595L326.987 408.653H326.919L324.311 416ZM324.72 412.591H329.186V413.528H324.72V412.591ZM334.585 416.136C333.972 416.136 333.443 415.991 333 415.702C332.557 415.412 332.216 415.013 331.977 414.504C331.739 413.996 331.619 413.415 331.619 412.761C331.619 412.097 331.742 411.51 331.986 411.001C332.233 410.49 332.577 410.091 333.017 409.804C333.46 409.514 333.977 409.369 334.568 409.369C335.029 409.369 335.443 409.455 335.813 409.625C336.182 409.795 336.485 410.034 336.72 410.341C336.956 410.648 337.102 411.006 337.159 411.415H336.154C336.077 411.116 335.906 410.852 335.642 410.622C335.381 410.389 335.029 410.273 334.585 410.273C334.193 410.273 333.85 410.375 333.554 410.58C333.262 410.781 333.033 411.067 332.868 411.436C332.706 411.803 332.625 412.233 332.625 412.727C332.625 413.233 332.705 413.673 332.864 414.048C333.026 414.423 333.253 414.714 333.546 414.922C333.841 415.129 334.188 415.233 334.585 415.233C334.847 415.233 335.084 415.188 335.297 415.097C335.51 415.006 335.691 414.875 335.838 414.705C335.986 414.534 336.091 414.33 336.154 414.091H337.159C337.102 414.477 336.962 414.825 336.737 415.135C336.516 415.442 336.222 415.686 335.855 415.868C335.492 416.047 335.068 416.136 334.585 416.136ZM341.289 416.136C340.675 416.136 340.146 415.991 339.703 415.702C339.26 415.412 338.919 415.013 338.681 414.504C338.442 413.996 338.323 413.415 338.323 412.761C338.323 412.097 338.445 411.51 338.689 411.001C338.936 410.49 339.28 410.091 339.72 409.804C340.164 409.514 340.681 409.369 341.271 409.369C341.732 409.369 342.146 409.455 342.516 409.625C342.885 409.795 343.188 410.034 343.423 410.341C343.659 410.648 343.806 411.006 343.862 411.415H342.857C342.78 411.116 342.61 410.852 342.345 410.622C342.084 410.389 341.732 410.273 341.289 410.273C340.896 410.273 340.553 410.375 340.257 410.58C339.965 410.781 339.736 411.067 339.571 411.436C339.409 411.803 339.328 412.233 339.328 412.727C339.328 413.233 339.408 413.673 339.567 414.048C339.729 414.423 339.956 414.714 340.249 414.922C340.544 415.129 340.891 415.233 341.289 415.233C341.55 415.233 341.787 415.188 342 415.097C342.213 415.006 342.394 414.875 342.541 414.705C342.689 414.534 342.794 414.33 342.857 414.091H343.862C343.806 414.477 343.665 414.825 343.441 415.135C343.219 415.442 342.925 415.686 342.558 415.868C342.195 416.047 341.771 416.136 341.289 416.136ZM348.077 416.136C347.446 416.136 346.902 415.997 346.445 415.719C345.99 415.438 345.639 415.045 345.392 414.543C345.148 414.037 345.026 413.449 345.026 412.778C345.026 412.108 345.148 411.517 345.392 411.006C345.639 410.491 345.983 410.091 346.423 409.804C346.867 409.514 347.384 409.369 347.975 409.369C348.316 409.369 348.652 409.426 348.985 409.54C349.317 409.653 349.619 409.838 349.892 410.094C350.165 410.347 350.382 410.682 350.544 411.099C350.706 411.517 350.787 412.031 350.787 412.642V413.068H345.742V412.199H349.764C349.764 411.83 349.691 411.5 349.543 411.21C349.398 410.92 349.191 410.692 348.921 410.524C348.654 410.357 348.338 410.273 347.975 410.273C347.574 410.273 347.227 410.372 346.935 410.571C346.645 410.767 346.422 411.023 346.266 411.338C346.11 411.653 346.031 411.991 346.031 412.352V412.932C346.031 413.426 346.117 413.845 346.287 414.189C346.46 414.53 346.7 414.79 347.007 414.969C347.314 415.145 347.671 415.233 348.077 415.233C348.341 415.233 348.58 415.196 348.793 415.122C349.009 415.045 349.195 414.932 349.351 414.781C349.507 414.628 349.628 414.437 349.713 414.21L350.685 414.483C350.583 414.812 350.411 415.102 350.169 415.352C349.928 415.599 349.629 415.793 349.274 415.932C348.919 416.068 348.52 416.136 348.077 416.136ZM356.953 410.92L356.05 411.176C355.993 411.026 355.909 410.879 355.798 410.737C355.691 410.592 355.543 410.473 355.355 410.379C355.168 410.286 354.928 410.239 354.635 410.239C354.235 410.239 353.901 410.331 353.634 410.516C353.369 410.697 353.237 410.929 353.237 411.21C353.237 411.46 353.328 411.658 353.51 411.803C353.692 411.947 353.976 412.068 354.362 412.165L355.334 412.403C355.919 412.545 356.355 412.763 356.642 413.055C356.929 413.345 357.073 413.719 357.073 414.176C357.073 414.551 356.965 414.886 356.749 415.182C356.536 415.477 356.237 415.71 355.854 415.881C355.47 416.051 355.024 416.136 354.516 416.136C353.848 416.136 353.296 415.991 352.858 415.702C352.421 415.412 352.144 414.989 352.027 414.432L352.982 414.193C353.073 414.545 353.244 414.81 353.497 414.986C353.753 415.162 354.087 415.25 354.499 415.25C354.968 415.25 355.34 415.151 355.615 414.952C355.894 414.75 356.033 414.509 356.033 414.227C356.033 414 355.953 413.81 355.794 413.656C355.635 413.5 355.391 413.384 355.061 413.307L353.97 413.051C353.371 412.909 352.931 412.689 352.649 412.391C352.371 412.089 352.232 411.713 352.232 411.261C352.232 410.892 352.335 410.565 352.543 410.281C352.753 409.997 353.039 409.774 353.399 409.612C353.763 409.45 354.175 409.369 354.635 409.369C355.283 409.369 355.791 409.511 356.161 409.795C356.533 410.08 356.797 410.455 356.953 410.92ZM363.223 410.92L362.319 411.176C362.263 411.026 362.179 410.879 362.068 410.737C361.96 410.592 361.812 410.473 361.625 410.379C361.437 410.286 361.197 410.239 360.905 410.239C360.504 410.239 360.17 410.331 359.903 410.516C359.639 410.697 359.507 410.929 359.507 411.21C359.507 411.46 359.598 411.658 359.78 411.803C359.961 411.947 360.246 412.068 360.632 412.165L361.604 412.403C362.189 412.545 362.625 412.763 362.912 413.055C363.199 413.345 363.342 413.719 363.342 414.176C363.342 414.551 363.234 414.886 363.018 415.182C362.805 415.477 362.507 415.71 362.123 415.881C361.74 416.051 361.294 416.136 360.785 416.136C360.118 416.136 359.565 415.991 359.128 415.702C358.69 415.412 358.413 414.989 358.297 414.432L359.251 414.193C359.342 414.545 359.514 414.81 359.767 414.986C360.023 415.162 360.356 415.25 360.768 415.25C361.237 415.25 361.609 415.151 361.885 414.952C362.163 414.75 362.302 414.509 362.302 414.227C362.302 414 362.223 413.81 362.064 413.656C361.905 413.5 361.66 413.384 361.331 413.307L360.24 413.051C359.64 412.909 359.2 412.689 358.919 412.391C358.64 412.089 358.501 411.713 358.501 411.261C358.501 410.892 358.605 410.565 358.812 410.281C359.023 409.997 359.308 409.774 359.669 409.612C360.032 409.45 360.444 409.369 360.905 409.369C361.552 409.369 362.061 409.511 362.43 409.795C362.802 410.08 363.067 410.455 363.223 410.92ZM375.39 410H374.333C374.271 409.696 374.161 409.429 374.005 409.199C373.852 408.969 373.664 408.776 373.443 408.619C373.224 408.46 372.981 408.341 372.714 408.261C372.447 408.182 372.169 408.142 371.879 408.142C371.35 408.142 370.872 408.276 370.443 408.543C370.017 408.81 369.677 409.203 369.424 409.723C369.174 410.243 369.049 410.881 369.049 411.636C369.049 412.392 369.174 413.03 369.424 413.55C369.677 414.07 370.017 414.463 370.443 414.73C370.872 414.997 371.35 415.131 371.879 415.131C372.169 415.131 372.447 415.091 372.714 415.011C372.981 414.932 373.224 414.814 373.443 414.658C373.664 414.499 373.852 414.304 374.005 414.074C374.161 413.841 374.271 413.574 374.333 413.273H375.39C375.311 413.719 375.166 414.118 374.955 414.47C374.745 414.822 374.484 415.122 374.171 415.369C373.859 415.614 373.508 415.8 373.119 415.928C372.732 416.055 372.319 416.119 371.879 416.119C371.134 416.119 370.472 415.938 369.893 415.574C369.313 415.21 368.857 414.693 368.525 414.023C368.193 413.352 368.026 412.557 368.026 411.636C368.026 410.716 368.193 409.92 368.525 409.25C368.857 408.58 369.313 408.062 369.893 407.699C370.472 407.335 371.134 407.153 371.879 407.153C372.319 407.153 372.732 407.217 373.119 407.345C373.508 407.473 373.859 407.661 374.171 407.908C374.484 408.152 374.745 408.45 374.955 408.803C375.166 409.152 375.311 409.551 375.39 410ZM379.621 416.136C379.03 416.136 378.511 415.996 378.065 415.714C377.622 415.433 377.275 415.04 377.025 414.534C376.778 414.028 376.655 413.437 376.655 412.761C376.655 412.08 376.778 411.484 377.025 410.976C377.275 410.467 377.622 410.072 378.065 409.791C378.511 409.51 379.03 409.369 379.621 409.369C380.211 409.369 380.729 409.51 381.172 409.791C381.618 410.072 381.964 410.467 382.211 410.976C382.461 411.484 382.586 412.08 382.586 412.761C382.586 413.437 382.461 414.028 382.211 414.534C381.964 415.04 381.618 415.433 381.172 415.714C380.729 415.996 380.211 416.136 379.621 416.136ZM379.621 415.233C380.069 415.233 380.439 415.118 380.729 414.888C381.018 414.658 381.233 414.355 381.372 413.98C381.511 413.605 381.581 413.199 381.581 412.761C381.581 412.324 381.511 411.916 381.372 411.538C381.233 411.161 381.018 410.855 380.729 410.622C380.439 410.389 380.069 410.273 379.621 410.273C379.172 410.273 378.802 410.389 378.513 410.622C378.223 410.855 378.008 411.161 377.869 411.538C377.73 411.916 377.66 412.324 377.66 412.761C377.66 413.199 377.73 413.605 377.869 413.98C378.008 414.355 378.223 414.658 378.513 414.888C378.802 415.118 379.172 415.233 379.621 415.233ZM385.127 412.062V416H384.122V409.455H385.093V410.477H385.178C385.332 410.145 385.565 409.878 385.877 409.676C386.19 409.472 386.593 409.369 387.088 409.369C387.531 409.369 387.919 409.46 388.251 409.642C388.583 409.821 388.842 410.094 389.026 410.46C389.211 410.824 389.303 411.284 389.303 411.841V416H388.298V411.909C388.298 411.395 388.164 410.994 387.897 410.707C387.63 410.418 387.264 410.273 386.798 410.273C386.477 410.273 386.19 410.342 385.937 410.482C385.687 410.621 385.49 410.824 385.345 411.091C385.2 411.358 385.127 411.682 385.127 412.062ZM393.988 409.455V410.307H390.596V409.455H393.988ZM391.584 407.886H392.59V414.125C392.59 414.409 392.631 414.622 392.714 414.764C392.799 414.903 392.907 414.997 393.037 415.045C393.171 415.091 393.312 415.114 393.459 415.114C393.57 415.114 393.661 415.108 393.732 415.097C393.803 415.082 393.86 415.071 393.903 415.062L394.107 415.966C394.039 415.991 393.944 416.017 393.822 416.043C393.699 416.071 393.545 416.085 393.357 416.085C393.073 416.085 392.795 416.024 392.522 415.902C392.252 415.78 392.028 415.594 391.849 415.344C391.672 415.094 391.584 414.778 391.584 414.398V407.886ZM395.501 416V409.455H396.472V410.443H396.54C396.66 410.119 396.876 409.857 397.188 409.655C397.501 409.453 397.853 409.352 398.245 409.352C398.319 409.352 398.411 409.354 398.522 409.357C398.633 409.359 398.716 409.364 398.773 409.369V410.392C398.739 410.384 398.661 410.371 398.539 410.354C398.42 410.334 398.293 410.324 398.16 410.324C397.841 410.324 397.557 410.391 397.307 410.524C397.06 410.655 396.864 410.837 396.719 411.07C396.577 411.3 396.506 411.562 396.506 411.858V416H395.501ZM402.425 416.136C401.834 416.136 401.316 415.996 400.87 415.714C400.427 415.433 400.08 415.04 399.83 414.534C399.583 414.028 399.459 413.437 399.459 412.761C399.459 412.08 399.583 411.484 399.83 410.976C400.08 410.467 400.427 410.072 400.87 409.791C401.316 409.51 401.834 409.369 402.425 409.369C403.016 409.369 403.533 409.51 403.976 409.791C404.422 410.072 404.769 410.467 405.016 410.976C405.266 411.484 405.391 412.08 405.391 412.761C405.391 413.437 405.266 414.028 405.016 414.534C404.769 415.04 404.422 415.433 403.976 415.714C403.533 415.996 403.016 416.136 402.425 416.136ZM402.425 415.233C402.874 415.233 403.243 415.118 403.533 414.888C403.823 414.658 404.037 414.355 404.177 413.98C404.316 413.605 404.385 413.199 404.385 412.761C404.385 412.324 404.316 411.916 404.177 411.538C404.037 411.161 403.823 410.855 403.533 410.622C403.243 410.389 402.874 410.273 402.425 410.273C401.976 410.273 401.607 410.389 401.317 410.622C401.028 410.855 400.813 411.161 400.674 411.538C400.535 411.916 400.465 412.324 400.465 412.761C400.465 413.199 400.535 413.605 400.674 413.98C400.813 414.355 401.028 414.658 401.317 414.888C401.607 415.118 401.976 415.233 402.425 415.233ZM407.932 407.273V416H406.926V407.273H407.932ZM350.018 422.273V431H348.961V422.273H350.018ZM356.637 425.92L355.733 426.176C355.677 426.026 355.593 425.879 355.482 425.737C355.374 425.592 355.226 425.473 355.039 425.379C354.851 425.286 354.611 425.239 354.319 425.239C353.918 425.239 353.584 425.331 353.317 425.516C353.053 425.697 352.921 425.929 352.921 426.21C352.921 426.46 353.012 426.658 353.194 426.803C353.376 426.947 353.66 427.068 354.046 427.165L355.018 427.403C355.603 427.545 356.039 427.763 356.326 428.055C356.613 428.345 356.756 428.719 356.756 429.176C356.756 429.551 356.648 429.886 356.432 430.182C356.219 430.477 355.921 430.71 355.537 430.881C355.154 431.051 354.708 431.136 354.199 431.136C353.532 431.136 352.979 430.991 352.542 430.702C352.104 430.412 351.827 429.989 351.711 429.432L352.665 429.193C352.756 429.545 352.928 429.81 353.181 429.986C353.437 430.162 353.77 430.25 354.182 430.25C354.651 430.25 355.023 430.151 355.299 429.952C355.577 429.75 355.716 429.509 355.716 429.227C355.716 429 355.637 428.81 355.478 428.656C355.319 428.5 355.074 428.384 354.745 428.307L353.654 428.051C353.055 427.909 352.614 427.689 352.333 427.391C352.055 427.089 351.915 426.713 351.915 426.261C351.915 425.892 352.019 425.565 352.226 425.281C352.437 424.997 352.722 424.774 353.083 424.612C353.447 424.45 353.858 424.369 354.319 424.369C354.966 424.369 355.475 424.511 355.844 424.795C356.216 425.08 356.481 425.455 356.637 425.92ZM362.906 425.92L362.003 426.176C361.946 426.026 361.862 425.879 361.752 425.737C361.644 425.592 361.496 425.473 361.308 425.379C361.121 425.286 360.881 425.239 360.588 425.239C360.188 425.239 359.854 425.331 359.587 425.516C359.323 425.697 359.191 425.929 359.191 426.21C359.191 426.46 359.281 426.658 359.463 426.803C359.645 426.947 359.929 427.068 360.316 427.165L361.287 427.403C361.872 427.545 362.308 427.763 362.595 428.055C362.882 428.345 363.026 428.719 363.026 429.176C363.026 429.551 362.918 429.886 362.702 430.182C362.489 430.477 362.191 430.71 361.807 430.881C361.423 431.051 360.977 431.136 360.469 431.136C359.801 431.136 359.249 430.991 358.811 430.702C358.374 430.412 358.097 429.989 357.98 429.432L358.935 429.193C359.026 429.545 359.198 429.81 359.45 429.986C359.706 430.162 360.04 430.25 360.452 430.25C360.921 430.25 361.293 430.151 361.568 429.952C361.847 429.75 361.986 429.509 361.986 429.227C361.986 429 361.906 428.81 361.747 428.656C361.588 428.5 361.344 428.384 361.014 428.307L359.923 428.051C359.324 427.909 358.884 427.689 358.602 427.391C358.324 427.089 358.185 426.713 358.185 426.261C358.185 425.892 358.289 425.565 358.496 425.281C358.706 424.997 358.992 424.774 359.352 424.612C359.716 424.45 360.128 424.369 360.588 424.369C361.236 424.369 361.744 424.511 362.114 424.795C362.486 425.08 362.75 425.455 362.906 425.92ZM368.665 428.324V424.455H369.67V431H368.665V429.892H368.596C368.443 430.224 368.204 430.507 367.881 430.74C367.557 430.97 367.148 431.085 366.653 431.085C366.244 431.085 365.881 430.996 365.562 430.817C365.244 430.635 364.994 430.362 364.812 429.999C364.631 429.632 364.54 429.17 364.54 428.614V424.455H365.545V428.545C365.545 429.023 365.679 429.403 365.946 429.688C366.216 429.972 366.559 430.114 366.977 430.114C367.227 430.114 367.481 430.05 367.74 429.922C368.001 429.794 368.22 429.598 368.396 429.334C368.575 429.07 368.665 428.733 368.665 428.324ZM374.257 431.136C373.626 431.136 373.082 430.997 372.624 430.719C372.17 430.438 371.819 430.045 371.572 429.543C371.328 429.037 371.205 428.449 371.205 427.778C371.205 427.108 371.328 426.517 371.572 426.006C371.819 425.491 372.163 425.091 372.603 424.804C373.046 424.514 373.563 424.369 374.154 424.369C374.495 424.369 374.832 424.426 375.164 424.54C375.497 424.653 375.799 424.838 376.072 425.094C376.345 425.347 376.562 425.682 376.724 426.099C376.886 426.517 376.967 427.031 376.967 427.642V428.068H371.921V427.199H375.944C375.944 426.83 375.87 426.5 375.722 426.21C375.578 425.92 375.37 425.692 375.1 425.524C374.833 425.357 374.518 425.273 374.154 425.273C373.754 425.273 373.407 425.372 373.115 425.571C372.825 425.767 372.602 426.023 372.445 426.338C372.289 426.653 372.211 426.991 372.211 427.352V427.932C372.211 428.426 372.296 428.845 372.467 429.189C372.64 429.53 372.88 429.79 373.187 429.969C373.494 430.145 373.85 430.233 374.257 430.233C374.521 430.233 374.759 430.196 374.972 430.122C375.188 430.045 375.374 429.932 375.531 429.781C375.687 429.628 375.808 429.437 375.893 429.21L376.865 429.483C376.762 429.812 376.59 430.102 376.349 430.352C376.107 430.599 375.809 430.793 375.454 430.932C375.099 431.068 374.7 431.136 374.257 431.136ZM383.133 425.92L382.23 426.176C382.173 426.026 382.089 425.879 381.978 425.737C381.87 425.592 381.722 425.473 381.535 425.379C381.347 425.286 381.107 425.239 380.815 425.239C380.414 425.239 380.08 425.331 379.813 425.516C379.549 425.697 379.417 425.929 379.417 426.21C379.417 426.46 379.508 426.658 379.69 426.803C379.872 426.947 380.156 427.068 380.542 427.165L381.514 427.403C382.099 427.545 382.535 427.763 382.822 428.055C383.109 428.345 383.252 428.719 383.252 429.176C383.252 429.551 383.144 429.886 382.928 430.182C382.715 430.477 382.417 430.71 382.034 430.881C381.65 431.051 381.204 431.136 380.695 431.136C380.028 431.136 379.475 430.991 379.038 430.702C378.6 430.412 378.323 429.989 378.207 429.432L379.161 429.193C379.252 429.545 379.424 429.81 379.677 429.986C379.933 430.162 380.267 430.25 380.678 430.25C381.147 430.25 381.519 430.151 381.795 429.952C382.073 429.75 382.213 429.509 382.213 429.227C382.213 429 382.133 428.81 381.974 428.656C381.815 428.5 381.57 428.384 381.241 428.307L380.15 428.051C379.551 427.909 379.11 427.689 378.829 427.391C378.551 427.089 378.411 426.713 378.411 426.261C378.411 425.892 378.515 425.565 378.722 425.281C378.933 424.997 379.218 424.774 379.579 424.612C379.943 424.45 380.355 424.369 380.815 424.369C381.463 424.369 381.971 424.511 382.34 424.795C382.713 425.08 382.977 425.455 383.133 425.92Z" fill="white"/>
<path d="M464.594 411.636C464.594 412.557 464.428 413.352 464.096 414.023C463.763 414.693 463.307 415.21 462.728 415.574C462.148 415.938 461.486 416.119 460.742 416.119C459.998 416.119 459.336 415.938 458.756 415.574C458.177 415.21 457.721 414.693 457.388 414.023C457.056 413.352 456.89 412.557 456.89 411.636C456.89 410.716 457.056 409.92 457.388 409.25C457.721 408.58 458.177 408.062 458.756 407.699C459.336 407.335 459.998 407.153 460.742 407.153C461.486 407.153 462.148 407.335 462.728 407.699C463.307 408.062 463.763 408.58 464.096 409.25C464.428 409.92 464.594 410.716 464.594 411.636ZM463.572 411.636C463.572 410.881 463.445 410.243 463.192 409.723C462.942 409.203 462.603 408.81 462.174 408.543C461.748 408.276 461.27 408.142 460.742 408.142C460.214 408.142 459.735 408.276 459.306 408.543C458.88 408.81 458.54 409.203 458.287 409.723C458.037 410.243 457.912 410.881 457.912 411.636C457.912 412.392 458.037 413.03 458.287 413.55C458.54 414.07 458.88 414.463 459.306 414.73C459.735 414.997 460.214 415.131 460.742 415.131C461.27 415.131 461.748 414.997 462.174 414.73C462.603 414.463 462.942 414.07 463.192 413.55C463.445 413.03 463.572 412.392 463.572 411.636ZM466.235 416V409.455H467.206V410.443H467.275C467.394 410.119 467.61 409.857 467.922 409.655C468.235 409.453 468.587 409.352 468.979 409.352C469.053 409.352 469.145 409.354 469.256 409.357C469.367 409.359 469.451 409.364 469.508 409.369V410.392C469.474 410.384 469.395 410.371 469.273 410.354C469.154 410.334 469.028 410.324 468.894 410.324C468.576 410.324 468.292 410.391 468.042 410.524C467.795 410.655 467.599 410.837 467.454 411.07C467.312 411.3 467.241 411.562 467.241 411.858V416H466.235ZM472.626 416.153C472.211 416.153 471.835 416.075 471.497 415.919C471.159 415.76 470.89 415.531 470.691 415.233C470.492 414.932 470.393 414.568 470.393 414.142C470.393 413.767 470.467 413.463 470.615 413.23C470.762 412.994 470.96 412.81 471.207 412.676C471.454 412.543 471.727 412.443 472.025 412.378C472.326 412.31 472.629 412.256 472.933 412.216C473.33 412.165 473.653 412.126 473.9 412.101C474.15 412.072 474.332 412.026 474.445 411.96C474.562 411.895 474.62 411.781 474.62 411.619V411.585C474.62 411.165 474.505 410.838 474.275 410.605C474.048 410.372 473.703 410.256 473.24 410.256C472.759 410.256 472.383 410.361 472.11 410.571C471.838 410.781 471.646 411.006 471.535 411.244L470.58 410.903C470.751 410.506 470.978 410.196 471.262 409.974C471.549 409.75 471.862 409.594 472.2 409.506C472.541 409.415 472.876 409.369 473.205 409.369C473.416 409.369 473.657 409.395 473.93 409.446C474.205 409.494 474.471 409.595 474.727 409.749C474.985 409.902 475.2 410.134 475.37 410.443C475.541 410.753 475.626 411.168 475.626 411.688V416H474.62V415.114H474.569C474.501 415.256 474.387 415.408 474.228 415.57C474.069 415.732 473.857 415.869 473.593 415.983C473.329 416.097 473.007 416.153 472.626 416.153ZM472.779 415.25C473.177 415.25 473.512 415.172 473.785 415.016C474.061 414.859 474.268 414.658 474.407 414.411C474.549 414.163 474.62 413.903 474.62 413.631V412.71C474.578 412.761 474.484 412.808 474.339 412.851C474.197 412.891 474.032 412.926 473.845 412.957C473.66 412.986 473.48 413.011 473.303 413.034C473.13 413.054 472.99 413.071 472.882 413.085C472.62 413.119 472.376 413.175 472.149 413.251C471.924 413.325 471.742 413.437 471.603 413.588C471.467 413.736 471.399 413.937 471.399 414.193C471.399 414.543 471.528 414.807 471.786 414.986C472.048 415.162 472.379 415.25 472.779 415.25ZM480.121 416.136C479.507 416.136 478.979 415.991 478.535 415.702C478.092 415.412 477.751 415.013 477.513 414.504C477.274 413.996 477.155 413.415 477.155 412.761C477.155 412.097 477.277 411.51 477.521 411.001C477.768 410.49 478.112 410.091 478.552 409.804C478.996 409.514 479.513 409.369 480.104 409.369C480.564 409.369 480.979 409.455 481.348 409.625C481.717 409.795 482.02 410.034 482.256 410.341C482.491 410.648 482.638 411.006 482.694 411.415H481.689C481.612 411.116 481.442 410.852 481.177 410.622C480.916 410.389 480.564 410.273 480.121 410.273C479.729 410.273 479.385 410.375 479.089 410.58C478.797 410.781 478.568 411.067 478.403 411.436C478.241 411.803 478.16 412.233 478.16 412.727C478.16 413.233 478.24 413.673 478.399 414.048C478.561 414.423 478.788 414.714 479.081 414.922C479.376 415.129 479.723 415.233 480.121 415.233C480.382 415.233 480.619 415.188 480.832 415.097C481.045 415.006 481.226 414.875 481.373 414.705C481.521 414.534 481.626 414.33 481.689 414.091H482.694C482.638 414.477 482.497 414.825 482.273 415.135C482.051 415.442 481.757 415.686 481.39 415.868C481.027 416.047 480.604 416.136 480.121 416.136ZM485.17 407.273V416H484.165V407.273H485.17ZM489.757 416.136C489.126 416.136 488.582 415.997 488.124 415.719C487.67 415.438 487.319 415.045 487.072 414.543C486.828 414.037 486.705 413.449 486.705 412.778C486.705 412.108 486.828 411.517 487.072 411.006C487.319 410.491 487.663 410.091 488.103 409.804C488.546 409.514 489.063 409.369 489.654 409.369C489.995 409.369 490.332 409.426 490.664 409.54C490.997 409.653 491.299 409.838 491.572 410.094C491.845 410.347 492.062 410.682 492.224 411.099C492.386 411.517 492.467 412.031 492.467 412.642V413.068H487.421V412.199H491.444C491.444 411.83 491.37 411.5 491.222 411.21C491.078 410.92 490.87 410.692 490.6 410.524C490.333 410.357 490.018 410.273 489.654 410.273C489.254 410.273 488.907 410.372 488.615 410.571C488.325 410.767 488.102 411.023 487.945 411.338C487.789 411.653 487.711 411.991 487.711 412.352V412.932C487.711 413.426 487.796 413.845 487.967 414.189C488.14 414.53 488.38 414.79 488.687 414.969C488.994 415.145 489.35 415.233 489.757 415.233C490.021 415.233 490.259 415.196 490.472 415.122C490.688 415.045 490.874 414.932 491.031 414.781C491.187 414.628 491.308 414.437 491.393 414.21L492.365 414.483C492.262 414.812 492.09 415.102 491.849 415.352C491.607 415.599 491.309 415.793 490.954 415.932C490.599 416.068 490.2 416.136 489.757 416.136ZM439.389 422.273H440.65L443.616 429.517H443.718L446.684 422.273H447.946V431H446.957V424.369H446.872L444.145 431H443.19L440.463 424.369H440.377V431H439.389V422.273ZM451.854 431.153C451.44 431.153 451.063 431.075 450.725 430.919C450.387 430.76 450.119 430.531 449.92 430.233C449.721 429.932 449.621 429.568 449.621 429.142C449.621 428.767 449.695 428.463 449.843 428.23C449.991 427.994 450.188 427.81 450.435 427.676C450.683 427.543 450.955 427.443 451.254 427.378C451.555 427.31 451.857 427.256 452.161 427.216C452.559 427.165 452.881 427.126 453.129 427.101C453.379 427.072 453.56 427.026 453.674 426.96C453.79 426.895 453.849 426.781 453.849 426.619V426.585C453.849 426.165 453.734 425.838 453.504 425.605C453.276 425.372 452.931 425.256 452.468 425.256C451.988 425.256 451.612 425.361 451.339 425.571C451.066 425.781 450.874 426.006 450.763 426.244L449.809 425.903C449.979 425.506 450.207 425.196 450.491 424.974C450.778 424.75 451.09 424.594 451.428 424.506C451.769 424.415 452.104 424.369 452.434 424.369C452.644 424.369 452.886 424.395 453.158 424.446C453.434 424.494 453.7 424.595 453.955 424.749C454.214 424.902 454.428 425.134 454.599 425.443C454.769 425.753 454.854 426.168 454.854 426.688V431H453.849V430.114H453.798C453.729 430.256 453.616 430.408 453.457 430.57C453.298 430.732 453.086 430.869 452.822 430.983C452.558 431.097 452.235 431.153 451.854 431.153ZM452.008 430.25C452.406 430.25 452.741 430.172 453.013 430.016C453.289 429.859 453.496 429.658 453.636 429.411C453.778 429.163 453.849 428.903 453.849 428.631V427.71C453.806 427.761 453.712 427.808 453.567 427.851C453.425 427.891 453.261 427.926 453.073 427.957C452.888 427.986 452.708 428.011 452.532 428.034C452.359 428.054 452.218 428.071 452.11 428.085C451.849 428.119 451.604 428.175 451.377 428.251C451.153 428.325 450.971 428.437 450.832 428.588C450.695 428.736 450.627 428.937 450.627 429.193C450.627 429.543 450.756 429.807 451.015 429.986C451.276 430.162 451.607 430.25 452.008 430.25ZM457.696 427.062V431H456.69V424.455H457.662V425.477H457.747C457.9 425.145 458.133 424.878 458.446 424.676C458.758 424.472 459.162 424.369 459.656 424.369C460.099 424.369 460.487 424.46 460.819 424.642C461.152 424.821 461.41 425.094 461.595 425.46C461.779 425.824 461.872 426.284 461.872 426.841V431H460.866V426.909C460.866 426.395 460.733 425.994 460.466 425.707C460.199 425.418 459.832 425.273 459.366 425.273C459.045 425.273 458.758 425.342 458.505 425.482C458.255 425.621 458.058 425.824 457.913 426.091C457.768 426.358 457.696 426.682 457.696 427.062ZM463.71 431V424.455H464.715V431H463.71ZM464.221 423.364C464.025 423.364 463.856 423.297 463.714 423.163C463.575 423.03 463.505 422.869 463.505 422.682C463.505 422.494 463.575 422.334 463.714 422.2C463.856 422.067 464.025 422 464.221 422C464.417 422 464.585 422.067 464.724 422.2C464.866 422.334 464.937 422.494 464.937 422.682C464.937 422.869 464.866 423.03 464.724 423.163C464.585 423.297 464.417 423.364 464.221 423.364ZM466.557 433.455V424.455H467.529V425.494H467.648C467.722 425.381 467.824 425.236 467.955 425.06C468.088 424.881 468.279 424.722 468.526 424.582C468.776 424.44 469.114 424.369 469.54 424.369C470.091 424.369 470.577 424.507 470.998 424.783C471.418 425.058 471.746 425.449 471.982 425.955C472.218 426.46 472.336 427.057 472.336 427.744C472.336 428.438 472.218 429.038 471.982 429.547C471.746 430.053 471.419 430.445 471.002 430.723C470.584 430.999 470.103 431.136 469.557 431.136C469.137 431.136 468.8 431.067 468.547 430.928C468.294 430.786 468.1 430.625 467.963 430.446C467.827 430.264 467.722 430.114 467.648 429.994H467.563V433.455H466.557ZM467.546 427.727C467.546 428.222 467.618 428.658 467.763 429.036C467.908 429.411 468.12 429.705 468.398 429.918C468.676 430.128 469.017 430.233 469.421 430.233C469.841 430.233 470.192 430.122 470.473 429.901C470.757 429.676 470.971 429.375 471.113 428.997C471.257 428.616 471.33 428.193 471.33 427.727C471.33 427.267 471.259 426.852 471.117 426.483C470.978 426.111 470.766 425.817 470.482 425.601C470.201 425.382 469.847 425.273 469.421 425.273C469.012 425.273 468.668 425.376 468.39 425.584C468.111 425.788 467.901 426.075 467.759 426.445C467.617 426.811 467.546 427.239 467.546 427.727ZM477.995 428.324V424.455H479V431H477.995V429.892H477.926C477.773 430.224 477.534 430.507 477.211 430.74C476.887 430.97 476.478 431.085 475.983 431.085C475.574 431.085 475.211 430.996 474.892 430.817C474.574 430.635 474.324 430.362 474.142 429.999C473.961 429.632 473.87 429.17 473.87 428.614V424.455H474.875V428.545C474.875 429.023 475.009 429.403 475.276 429.688C475.546 429.972 475.89 430.114 476.307 430.114C476.557 430.114 476.811 430.05 477.07 429.922C477.331 429.794 477.55 429.598 477.726 429.334C477.905 429.07 477.995 428.733 477.995 428.324ZM481.848 422.273V431H480.842V422.273H481.848ZM485.616 431.153C485.201 431.153 484.825 431.075 484.487 430.919C484.149 430.76 483.88 430.531 483.681 430.233C483.483 429.932 483.383 429.568 483.383 429.142C483.383 428.767 483.457 428.463 483.605 428.23C483.752 427.994 483.95 427.81 484.197 427.676C484.444 427.543 484.717 427.443 485.015 427.378C485.316 427.31 485.619 427.256 485.923 427.216C486.321 427.165 486.643 427.126 486.89 427.101C487.14 427.072 487.322 427.026 487.436 426.96C487.552 426.895 487.61 426.781 487.61 426.619V426.585C487.61 426.165 487.495 425.838 487.265 425.605C487.038 425.372 486.693 425.256 486.23 425.256C485.75 425.256 485.373 425.361 485.1 425.571C484.828 425.781 484.636 426.006 484.525 426.244L483.571 425.903C483.741 425.506 483.968 425.196 484.252 424.974C484.539 424.75 484.852 424.594 485.19 424.506C485.531 424.415 485.866 424.369 486.196 424.369C486.406 424.369 486.647 424.395 486.92 424.446C487.196 424.494 487.461 424.595 487.717 424.749C487.975 424.902 488.19 425.134 488.36 425.443C488.531 425.753 488.616 426.168 488.616 426.688V431H487.61V430.114H487.559C487.491 430.256 487.377 430.408 487.218 430.57C487.059 430.732 486.848 430.869 486.583 430.983C486.319 431.097 485.997 431.153 485.616 431.153ZM485.77 430.25C486.167 430.25 486.502 430.172 486.775 430.016C487.051 429.859 487.258 429.658 487.397 429.411C487.539 429.163 487.61 428.903 487.61 428.631V427.71C487.568 427.761 487.474 427.808 487.329 427.851C487.187 427.891 487.022 427.926 486.835 427.957C486.65 427.986 486.47 428.011 486.294 428.034C486.12 428.054 485.98 428.071 485.872 428.085C485.61 428.119 485.366 428.175 485.139 428.251C484.914 428.325 484.733 428.437 484.593 428.588C484.457 428.736 484.389 428.937 484.389 429.193C484.389 429.543 484.518 429.807 484.777 429.986C485.038 430.162 485.369 430.25 485.77 430.25ZM493.298 424.455V425.307H489.906V424.455H493.298ZM490.895 422.886H491.901V429.125C491.901 429.409 491.942 429.622 492.024 429.764C492.109 429.903 492.217 429.997 492.348 430.045C492.482 430.091 492.622 430.114 492.77 430.114C492.881 430.114 492.972 430.108 493.043 430.097C493.114 430.082 493.17 430.071 493.213 430.062L493.418 430.966C493.349 430.991 493.254 431.017 493.132 431.043C493.01 431.071 492.855 431.085 492.668 431.085C492.384 431.085 492.105 431.024 491.832 430.902C491.563 430.78 491.338 430.594 491.159 430.344C490.983 430.094 490.895 429.778 490.895 429.398V422.886ZM494.811 431V424.455H495.817V431H494.811ZM495.322 423.364C495.126 423.364 494.957 423.297 494.815 423.163C494.676 423.03 494.607 422.869 494.607 422.682C494.607 422.494 494.676 422.334 494.815 422.2C494.957 422.067 495.126 422 495.322 422C495.518 422 495.686 422.067 495.825 422.2C495.967 422.334 496.038 422.494 496.038 422.682C496.038 422.869 495.967 423.03 495.825 423.163C495.686 423.297 495.518 423.364 495.322 423.364ZM500.318 431.136C499.727 431.136 499.208 430.996 498.762 430.714C498.319 430.433 497.973 430.04 497.723 429.534C497.475 429.028 497.352 428.437 497.352 427.761C497.352 427.08 497.475 426.484 497.723 425.976C497.973 425.467 498.319 425.072 498.762 424.791C499.208 424.51 499.727 424.369 500.318 424.369C500.909 424.369 501.426 424.51 501.869 424.791C502.315 425.072 502.662 425.467 502.909 425.976C503.159 426.484 503.284 427.08 503.284 427.761C503.284 428.437 503.159 429.028 502.909 429.534C502.662 430.04 502.315 430.433 501.869 430.714C501.426 430.996 500.909 431.136 500.318 431.136ZM500.318 430.233C500.767 430.233 501.136 430.118 501.426 429.888C501.716 429.658 501.93 429.355 502.069 428.98C502.208 428.605 502.278 428.199 502.278 427.761C502.278 427.324 502.208 426.916 502.069 426.538C501.93 426.161 501.716 425.855 501.426 425.622C501.136 425.389 500.767 425.273 500.318 425.273C499.869 425.273 499.5 425.389 499.21 425.622C498.92 425.855 498.706 426.161 498.566 426.538C498.427 426.916 498.358 427.324 498.358 427.761C498.358 428.199 498.427 428.605 498.566 428.98C498.706 429.355 498.92 429.658 499.21 429.888C499.5 430.118 499.869 430.233 500.318 430.233ZM505.825 427.062V431H504.819V424.455H505.79V425.477H505.876C506.029 425.145 506.262 424.878 506.575 424.676C506.887 424.472 507.29 424.369 507.785 424.369C508.228 424.369 508.616 424.46 508.948 424.642C509.281 424.821 509.539 425.094 509.724 425.46C509.908 425.824 510.001 426.284 510.001 426.841V431H508.995V426.909C508.995 426.395 508.862 425.994 508.594 425.707C508.327 425.418 507.961 425.273 507.495 425.273C507.174 425.273 506.887 425.342 506.634 425.482C506.384 425.621 506.187 425.824 506.042 426.091C505.897 426.358 505.825 426.682 505.825 427.062Z" fill="white"/>
<defs>
<filter id="filter0_d_5492_23412" x="0" y="0" width="594" height="525" filterUnits="userSpaceOnUse" color-interpolation-filters="sRGB">
<feFlood flood-opacity="0" result="BackgroundImageFix"/>
<feColorMatrix in="SourceAlpha" type="matrix" values="0 0 0 0 0 0 0 0 0 0 0 0 0 0 0 0 0 0 127 0" result="hardAlpha"/>
<feOffset dy="2"/>
<feGaussianBlur stdDeviation="2"/>
<feComposite in2="hardAlpha" operator="out"/>
<feColorMatrix type="matrix" values="0 0 0 0 0 0 0 0 0 0 0 0 0 0 0 0 0 0 0.25 0"/>
<feBlend mode="normal" in2="BackgroundImageFix" result="effect1_dropShadow_5492_23412"/>
<feBlend mode="normal" in="SourceGraphic" in2="effect1_dropShadow_5492_23412" result="shape"/>
</filter>
<linearGradient id="paint0_linear_5492_23412" x1="417.971" y1="3" x2="295.713" y2="517.694" gradientUnits="userSpaceOnUse">
<stop stop-color="#0D1A12"/>
<stop offset="0.21623" stop-color="#08110C"/>
<stop offset="0.601627" stop-color="#030B06"/>
<stop offset="0.809114" stop-color="#030B06"/>
</linearGradient>
<linearGradient id="paint1_linear_5492_23412" x1="211.884" y1="209.799" x2="61.0836" y2="275.387" gradientUnits="userSpaceOnUse">
<stop stop-color="#1B3926"/>
<stop offset="1" stop-color="#78FF04"/>
</linearGradient>
<linearGradient id="paint2_linear_5492_23412" x1="319.884" y1="274.957" x2="194.958" y2="357.396" gradientUnits="userSpaceOnUse">
<stop stop-color="#1B3926"/>
<stop offset="1" stop-color="#78FF04"/>
</linearGradient>
<linearGradient id="paint3_linear_5492_23412" x1="427.884" y1="32.5822" x2="257.081" y2="70.7379" gradientUnits="userSpaceOnUse">
<stop stop-color="#1B3926"/>
<stop offset="1" stop-color="#78FF04"/>
</linearGradient>
<linearGradient id="paint4_linear_5492_23412" x1="536.884" y1="150.922" x2="375.163" y2="204.281" gradientUnits="userSpaceOnUse">
<stop stop-color="#1B3926"/>
<stop offset="1" stop-color="#78FF04"/>
</linearGradient>
</defs>
</svg>
