<svg width="39" height="39" viewBox="0 0 39 39" fill="none" xmlns="http://www.w3.org/2000/svg">
<path d="M38.6672 12.5672C38.6672 18.8701 34.0271 24.071 27.9948 24.9797V24.8637C27.3954 17.3621 21.3052 11.2718 13.7455 10.6724H13.6875C14.5962 4.64019 19.7971 0 26.1001 0C33.041 0 38.6672 5.62624 38.6672 12.5672Z" fill="#65DA01"/>
<path d="M25.0957 25.0955C24.6124 18.9666 19.7015 14.0557 13.5726 13.5724C13.2439 13.553 12.8959 13.5337 12.5672 13.5337C5.62624 13.5337 0 19.1599 0 26.1009C0 33.0418 5.62624 38.6681 12.5672 38.6681C19.5082 38.6681 25.1344 33.0418 25.1344 26.1009C25.1344 25.7722 25.115 25.4242 25.0957 25.0955ZM14.2686 27.8023L12.5672 30.9344L10.8658 27.8023L7.73366 26.1009L10.8658 24.3995L12.5672 21.2673L14.2686 24.3995L17.4007 26.1009L14.2686 27.8023Z" fill="#65DA01"/>
</svg>
