<svg width="252" height="38" viewBox="0 0 252 38" fill="none" xmlns="http://www.w3.org/2000/svg">
<path opacity="0.3" d="M0 19C0 8.50659 8.50659 0 19 0H233C243.493 0 252 8.50659 252 19V19C252 29.4934 243.493 38 233 38H19C8.50659 38 0 29.4934 0 19V19Z" fill="url(#paint0_linear_120_1225)"/>
<path d="M52.7266 22.2188C53.5182 22.5677 54.1771 22.8125 54.7031 22.9531C55.2344 23.0885 55.7422 23.1562 56.2266 23.1562C56.7161 23.1562 57.1016 23.0547 57.3828 22.8516C57.6641 22.6484 57.8047 22.3464 57.8047 21.9453C57.8047 21.7214 57.7448 21.526 57.625 21.3594C57.5052 21.1875 57.3203 21.0182 57.0703 20.8516C56.8255 20.6797 56.3411 20.4245 55.6172 20.0859C54.8932 19.7422 54.3594 19.4219 54.0156 19.125C53.25 18.4635 52.8672 17.6354 52.8672 16.6406C52.8672 15.6458 53.2083 14.8594 53.8906 14.2812C54.5781 13.7031 55.526 13.4141 56.7344 13.4141C57.75 13.4141 58.8802 13.6823 60.125 14.2188L59.3438 16.1016C58.7552 15.862 58.2578 15.6901 57.8516 15.5859C57.4453 15.4818 57.0312 15.4297 56.6094 15.4297C56.1927 15.4297 55.8594 15.5365 55.6094 15.75C55.3594 15.9583 55.2344 16.237 55.2344 16.5859C55.2344 16.7995 55.2812 16.987 55.375 17.1484C55.474 17.3047 55.6302 17.4583 55.8438 17.6094C56.0625 17.7552 56.5781 18.0208 57.3906 18.4062C58.4531 18.9115 59.1823 19.4245 59.5781 19.9453C59.9792 20.4453 60.1797 21.0729 60.1797 21.8281C60.1797 22.849 59.8073 23.6641 59.0625 24.2734C58.3177 24.862 57.3099 25.1562 56.0391 25.1562C54.7682 25.1562 53.6641 24.9271 52.7266 24.4688V22.2188ZM72.3203 16.1016C73.3255 16.1016 74.0781 16.3594 74.5781 16.875C75.0781 17.3906 75.3281 18.2005 75.3281 19.3047V25H72.9375V19.8984C72.9375 19.263 72.8307 18.7891 72.6172 18.4766C72.4036 18.1641 72.0729 18.0078 71.625 18.0078C71.0365 18.0078 70.599 18.2188 70.3125 18.6406C70.026 19.0625 69.8828 19.7214 69.8828 20.6172V25H67.5V19.8984C67.5 19.263 67.3932 18.7891 67.1797 18.4766C66.9661 18.1641 66.6354 18.0078 66.1875 18.0078C65.5781 18.0078 65.1354 18.2318 64.8594 18.6797C64.5833 19.1276 64.4453 19.8646 64.4453 20.8906V25H62.0625V16.2656H63.8828L64.2031 17.3906H64.3359C64.5703 16.9844 64.9089 16.6693 65.3516 16.4453C65.7943 16.2161 66.3021 16.1016 66.875 16.1016C68.1875 16.1016 69.0729 16.5312 69.5312 17.3906H69.7422C69.9766 16.9844 70.3203 16.6693 70.7734 16.4453C71.2266 16.2161 71.7422 16.1016 72.3203 16.1016ZM78.0156 16.875C79.026 16.349 80.1328 16.0859 81.3359 16.0859C82.5391 16.0859 83.4479 16.3438 84.0625 16.8594C84.6823 17.375 84.9922 18.1484 84.9922 19.1797V25H83.3281L82.8672 23.8125H82.8047C82.4036 24.3229 81.9922 24.6745 81.5703 24.8672C81.1484 25.0599 80.5938 25.1562 79.9062 25.1562C79.0729 25.1562 78.4115 24.9167 77.9219 24.4375C77.4427 23.9583 77.2031 23.2682 77.2031 22.3672C77.2031 21.4661 77.5234 20.7943 78.1641 20.3516C78.8047 19.9036 79.7865 19.6562 81.1094 19.6094L82.625 19.5625V19.1797C82.625 18.2943 82.1719 17.8516 81.2656 17.8516C80.5677 17.8516 79.7474 18.0625 78.8047 18.4844L78.0156 16.875ZM79.6484 22.4062C79.6484 23.0781 80.0339 23.4141 80.8047 23.4141C81.362 23.4141 81.8047 23.2552 82.1328 22.9375C82.4609 22.6198 82.625 22.1979 82.625 21.6719V20.9531L81.7031 20.9844C81.0104 21.0052 80.4948 21.1302 80.1562 21.3594C79.8177 21.5885 79.6484 21.9375 79.6484 22.4062ZM92.3281 16.1016C92.6562 16.1016 92.9245 16.125 93.1328 16.1719L92.9531 18.4062C92.7656 18.3542 92.5312 18.3281 92.25 18.3281C91.4896 18.3281 90.8958 18.5234 90.4688 18.9141C90.0469 19.3047 89.8359 19.8516 89.8359 20.5547V25H87.4531V16.2656H89.2578L89.6094 17.7344H89.7266C90.0078 17.2344 90.3724 16.8411 90.8203 16.5547C91.2786 16.2526 91.7812 16.1016 92.3281 16.1016ZM97.3594 16.2656H99.8047V18.0547H97.3594V22.2656C97.3594 22.5938 97.4505 22.8411 97.6328 23.0078C97.8203 23.1745 98.0964 23.2578 98.4609 23.2578C98.8255 23.2578 99.3047 23.1667 99.8984 22.9844V24.7578C99.3047 25.0234 98.5547 25.1562 97.6484 25.1562C96.7474 25.1562 96.0755 24.9193 95.6328 24.4453C95.1953 23.9661 94.9766 23.2396 94.9766 22.2656V18.0547H93.8359V17.0469L95.1484 16.25L95.8359 14.4062H97.3594V16.2656ZM110.633 25.1562C108.971 25.1562 107.701 24.6536 106.82 23.6484C105.94 22.6432 105.5 21.1953 105.5 19.3047C105.5 19.2786 105.5 19.2526 105.5 19.2266C105.5 18.0807 105.716 17.0651 106.148 16.1797C106.581 15.2891 107.198 14.6068 108 14.1328C108.802 13.6536 109.721 13.4141 110.758 13.4141C110.794 13.4141 110.828 13.4141 110.859 13.4141C111.979 13.4141 113.094 13.6823 114.203 14.2188L113.422 16.1875C112.365 15.6823 111.51 15.4297 110.859 15.4297C109.948 15.4297 109.242 15.7734 108.742 16.4609C108.242 17.1432 107.992 18.0964 107.992 19.3203C107.992 21.8672 108.948 23.1406 110.859 23.1406C111.656 23.1406 112.628 22.9401 113.773 22.5391V24.5703C112.836 24.9609 111.789 25.1562 110.633 25.1562ZM119.82 16.1016C120.622 16.1016 121.339 16.2839 121.969 16.6484C122.604 17.0078 123.094 17.5286 123.438 18.2109C123.786 18.888 123.961 19.6641 123.961 20.5391C123.961 20.5651 123.961 20.5911 123.961 20.6172C123.961 22.0391 123.586 23.151 122.836 23.9531C122.086 24.7552 121.042 25.1562 119.703 25.1562C119.682 25.1562 119.659 25.1562 119.633 25.1562C118.831 25.1562 118.112 24.974 117.477 24.6094C116.846 24.2396 116.357 23.7135 116.008 23.0312C115.664 22.349 115.492 21.5703 115.492 20.6953C115.492 20.6693 115.492 20.6432 115.492 20.6172C115.492 19.1901 115.865 18.0833 116.609 17.2969C117.354 16.5 118.401 16.1016 119.75 16.1016C119.771 16.1016 119.794 16.1016 119.82 16.1016ZM121.094 18.6641C120.807 18.237 120.349 18.0234 119.719 18.0234C119.089 18.0234 118.63 18.2344 118.344 18.6562C118.062 19.0781 117.922 19.7318 117.922 20.6172C117.922 21.4974 118.065 22.1562 118.352 22.5938C118.643 23.026 119.102 23.2422 119.727 23.2422C120.357 23.2422 120.812 23.026 121.094 22.5938C121.38 22.1615 121.523 21.5052 121.523 20.625C121.523 19.7396 121.38 19.0859 121.094 18.6641ZM130.898 16.1016C131.909 16.1016 132.677 16.3776 133.203 16.9297C133.734 17.4766 134 18.2682 134 19.3047V25H131.617V19.8984C131.617 19.263 131.503 18.7891 131.273 18.4766C131.049 18.1641 130.695 18.0078 130.211 18.0078C129.544 18.0078 129.062 18.2318 128.766 18.6797C128.469 19.1276 128.32 19.8646 128.32 20.8906V25H125.938V16.2656H127.758L128.078 17.3906H128.211C128.471 16.9688 128.833 16.6484 129.297 16.4297C129.766 16.2109 130.299 16.1016 130.898 16.1016ZM139.094 16.2656H141.539V18.0547H139.094V22.2656C139.094 22.5938 139.185 22.8411 139.367 23.0078C139.555 23.1745 139.831 23.2578 140.195 23.2578C140.56 23.2578 141.039 23.1667 141.633 22.9844V24.7578C141.039 25.0234 140.289 25.1562 139.383 25.1562C138.482 25.1562 137.81 24.9193 137.367 24.4453C136.93 23.9661 136.711 23.2396 136.711 22.2656V18.0547H135.57V17.0469L136.883 16.25L137.57 14.4062H139.094V16.2656ZM148.281 16.1016C148.609 16.1016 148.878 16.125 149.086 16.1719L148.906 18.4062C148.719 18.3542 148.484 18.3281 148.203 18.3281C147.443 18.3281 146.849 18.5234 146.422 18.9141C146 19.3047 145.789 19.8516 145.789 20.5547V25H143.406V16.2656H145.211L145.562 17.7344H145.68C145.961 17.2344 146.326 16.8411 146.773 16.5547C147.232 16.2526 147.734 16.1016 148.281 16.1016ZM150.906 16.875C151.917 16.349 153.023 16.0859 154.227 16.0859C155.43 16.0859 156.339 16.3438 156.953 16.8594C157.573 17.375 157.883 18.1484 157.883 19.1797V25H156.219L155.758 23.8125H155.695C155.294 24.3229 154.883 24.6745 154.461 24.8672C154.039 25.0599 153.484 25.1562 152.797 25.1562C151.964 25.1562 151.302 24.9167 150.812 24.4375C150.333 23.9583 150.094 23.2682 150.094 22.3672C150.094 21.4661 150.414 20.7943 151.055 20.3516C151.695 19.9036 152.677 19.6562 154 19.6094L155.516 19.5625V19.1797C155.516 18.2943 155.062 17.8516 154.156 17.8516C153.458 17.8516 152.638 18.0625 151.695 18.4844L150.906 16.875ZM152.539 22.4062C152.539 23.0781 152.924 23.4141 153.695 23.4141C154.253 23.4141 154.695 23.2552 155.023 22.9375C155.352 22.6198 155.516 22.1979 155.516 21.6719V20.9531L154.594 20.9844C153.901 21.0052 153.385 21.1302 153.047 21.3594C152.708 21.5885 152.539 21.9375 152.539 22.4062ZM163.891 25.1562C161.172 25.1562 159.812 23.6641 159.812 20.6797C159.812 19.2005 160.182 18.0677 160.922 17.2812C161.661 16.4948 162.721 16.1016 164.102 16.1016C165.117 16.1016 166.021 16.2995 166.812 16.6953L166.117 18.5391C165.273 18.1953 164.602 18.0234 164.102 18.0234C162.862 18.0234 162.242 18.8906 162.242 20.625C162.242 22.3594 162.862 23.2266 164.102 23.2266C164.977 23.2266 165.792 22.974 166.547 22.4688V24.5078C166.141 24.7682 165.75 24.9375 165.375 25.0156C164.984 25.1094 164.49 25.1562 163.891 25.1562ZM171.219 16.2656H173.664V18.0547H171.219V22.2656C171.219 22.5938 171.31 22.8411 171.492 23.0078C171.68 23.1745 171.956 23.2578 172.32 23.2578C172.685 23.2578 173.164 23.1667 173.758 22.9844V24.7578C173.164 25.0234 172.414 25.1562 171.508 25.1562C170.607 25.1562 169.935 24.9193 169.492 24.4453C169.055 23.9661 168.836 23.2396 168.836 22.2656V18.0547H167.695V17.0469L169.008 16.25L169.695 14.4062H171.219V16.2656ZM189.477 25H186.867L186.031 22.2812H181.875L181.047 25H178.438L182.469 13.5312H185.43L189.477 25ZM185.461 20.25L184.164 16.0703C184.065 15.7266 183.997 15.4714 183.961 15.3047C183.789 15.9661 183.297 17.6146 182.484 20.25H185.461ZM198.75 25H196.922L196.602 23.8828H196.477C196.221 24.2891 195.859 24.6042 195.391 24.8281C194.922 25.0469 194.388 25.1562 193.789 25.1562C192.768 25.1562 191.995 24.8828 191.469 24.3359C190.948 23.7891 190.688 22.9974 190.688 21.9609V16.2656H193.07V21.3672C193.07 22.0026 193.182 22.4766 193.406 22.7891C193.635 23.1016 193.992 23.2578 194.477 23.2578C195.143 23.2578 195.625 23.0365 195.922 22.5938C196.219 22.151 196.367 21.4115 196.367 20.375V16.2656H198.75V25ZM208.883 25H207.055L206.594 23.8672H206.492C205.956 24.7266 205.13 25.1562 204.016 25.1562C202.984 25.1562 202.177 24.7604 201.594 23.9688C201.01 23.1719 200.719 22.0625 200.719 20.6406C200.719 19.2135 201.016 18.1016 201.609 17.3047C202.208 16.5026 203.044 16.1016 204.117 16.1016C205.19 16.1016 206.016 16.5312 206.594 17.3906H206.672C206.552 16.7188 206.492 16.1354 206.492 15.6406V12.8438H208.883V25ZM206.656 20.6641C206.656 19.7318 206.51 19.0625 206.219 18.6562C205.927 18.2448 205.458 18.0391 204.812 18.0391C204.276 18.0391 203.862 18.2656 203.57 18.7188C203.279 19.1719 203.133 19.8255 203.133 20.6797C203.133 21.5286 203.279 22.1719 203.57 22.6094C203.867 23.0417 204.307 23.2578 204.891 23.2578C205.474 23.2578 205.909 23.0833 206.195 22.7344C206.482 22.3802 206.635 21.776 206.656 20.9219V20.6641ZM211.273 14.0156C211.273 13.2344 211.706 12.8438 212.57 12.8438C213.435 12.8438 213.867 13.2318 213.867 14.0078C213.867 14.3828 213.758 14.6719 213.539 14.875C213.32 15.0781 212.997 15.1797 212.57 15.1797C211.706 15.1797 211.273 14.7917 211.273 14.0156ZM213.758 25H211.375V16.2656H213.758V25ZM218.906 16.2656H221.352V18.0547H218.906V22.2656C218.906 22.5938 218.997 22.8411 219.18 23.0078C219.367 23.1745 219.643 23.2578 220.008 23.2578C220.372 23.2578 220.852 23.1667 221.445 22.9844V24.7578C220.852 25.0234 220.102 25.1562 219.195 25.1562C218.294 25.1562 217.622 24.9193 217.18 24.4453C216.742 23.9661 216.523 23.2396 216.523 22.2656V18.0547H215.383V17.0469L216.695 16.25L217.383 14.4062H218.906V16.2656ZM225.664 23.4141C226.529 23.4141 226.961 23.1641 226.961 22.6641C226.961 22.4089 226.846 22.2057 226.617 22.0547C226.393 21.9036 225.878 21.6484 225.07 21.2891C224.398 21.0078 223.904 20.7474 223.586 20.5078C223.273 20.2682 223.044 19.9948 222.898 19.6875C222.758 19.375 222.688 18.9922 222.688 18.5391C222.688 17.763 222.987 17.1641 223.586 16.7422C224.19 16.3151 225.034 16.1016 226.117 16.1016C227.201 16.1016 228.234 16.3307 229.219 16.7891L228.5 18.5078C227.995 18.2943 227.56 18.1354 227.195 18.0312C226.836 17.9219 226.474 17.8672 226.109 17.8672C225.406 17.8672 225.055 18.0573 225.055 18.4375C225.055 18.651 225.169 18.8385 225.398 19C225.628 19.1562 226.102 19.3776 226.82 19.6641C227.544 19.9505 228.065 20.2161 228.383 20.4609C229.003 20.9297 229.312 21.5964 229.312 22.4609C229.312 23.3255 229 23.9922 228.375 24.4609C227.75 24.9245 226.846 25.1562 225.664 25.1562C224.482 25.1562 223.492 24.987 222.695 24.6484V22.6797C223.143 22.888 223.643 23.0625 224.195 23.2031C224.753 23.3438 225.242 23.4141 225.664 23.4141Z" fill="#38FF7E"/>
<path d="M40 31H20V7H40V31Z" stroke="#E5E7EB"/>
<g clip-path="url(#clip0_120_1225)">
<path d="M24.5 11C25.163 11 25.7989 11.2634 26.2678 11.7322C26.7366 12.2011 27 12.837 27 13.5C27 14.163 26.7366 14.7989 26.2678 15.2678C25.7989 15.7366 25.163 16 24.5 16C23.837 16 23.2011 15.7366 22.7322 15.2678C22.2634 14.7989 22 14.163 22 13.5C22 12.837 22.2634 12.2011 22.7322 11.7322C23.2011 11.2634 23.837 11 24.5 11ZM36 11C36.663 11 37.2989 11.2634 37.7678 11.7322C38.2366 12.2011 38.5 12.837 38.5 13.5C38.5 14.163 38.2366 14.7989 37.7678 15.2678C37.2989 15.7366 36.663 16 36 16C35.337 16 34.7011 15.7366 34.2322 15.2678C33.7634 14.7989 33.5 14.163 33.5 13.5C33.5 12.837 33.7634 12.2011 34.2322 11.7322C34.7011 11.2634 35.337 11 36 11ZM20 20.3344C20 18.4938 21.4937 17 23.3344 17H24.6687C25.1656 17 25.6375 17.1094 26.0625 17.3031C26.0219 17.5281 26.0031 17.7625 26.0031 18C26.0031 19.1938 26.5281 20.2656 27.3562 21C27.35 21 27.3437 21 27.3344 21H20.6656C20.3 21 20 20.7 20 20.3344ZM32.6656 21C32.6594 21 32.6531 21 32.6438 21C33.475 20.2656 33.9969 19.1938 33.9969 18C33.9969 17.7625 33.975 17.5312 33.9375 17.3031C34.3625 17.1062 34.8344 17 35.3313 17H36.6656C38.5062 17 40 18.4938 40 20.3344C40 20.7031 39.7 21 39.3344 21H32.6656ZM27 18C27 17.2044 27.3161 16.4413 27.8787 15.8787C28.4413 15.3161 29.2044 15 30 15C30.7956 15 31.5587 15.3161 32.1213 15.8787C32.6839 16.4413 33 17.2044 33 18C33 18.7956 32.6839 19.5587 32.1213 20.1213C31.5587 20.6839 30.7956 21 30 21C29.2044 21 28.4413 20.6839 27.8787 20.1213C27.3161 19.5587 27 18.7956 27 18ZM24 26.1656C24 23.8656 25.8656 22 28.1656 22H31.8344C34.1344 22 36 23.8656 36 26.1656C36 26.625 35.6281 27 35.1656 27H24.8344C24.375 27 24 26.6281 24 26.1656Z" fill="#4ADE80"/>
</g>
<defs>
<linearGradient id="paint0_linear_120_1225" x1="126" y1="0" x2="126" y2="38" gradientUnits="userSpaceOnUse">
<stop offset="0.811202" stop-color="#030A06"/>
<stop offset="1"/>
</linearGradient>
<clipPath id="clip0_120_1225">
<path d="M20 11H40V27H20V11Z" fill="white"/>
</clipPath>
</defs>
</svg>
