<svg width="41" height="41" viewBox="0 0 41 41" fill="none" xmlns="http://www.w3.org/2000/svg">
<path d="M20.7661 5.08993C20.6232 5.08597 20.4798 5.08398 20.3359 5.08398C11.9125 5.08398 5.08398 11.9125 5.08398 20.3359C5.08398 28.7593 11.9125 35.5879 20.3359 35.5879C28.7593 35.5879 35.5879 28.7593 35.5879 20.3359C35.5879 20.1921 35.5859 20.0487 35.582 19.9058L40.0725 15.4152C40.4639 16.9909 40.6719 18.6391 40.6719 20.3359C40.6719 31.5672 31.5672 40.6719 20.3359 40.6719C9.1047 40.6719 0 31.5672 0 20.3359C0 9.1047 9.1047 0 20.3359 0C22.0327 0 23.681 0.207814 25.2567 0.599379L20.7661 5.08993Z" fill="#65DA01"/>
<path d="M10.1719 20.3335C10.1719 15.5956 13.4123 11.6146 17.7979 10.4858V15.9296C16.2782 16.8087 15.2559 18.4517 15.2559 20.3335C15.2559 23.1413 17.532 25.4175 20.3398 25.4175C22.2216 25.4175 23.8646 24.3951 24.7437 22.8755H30.1875C29.0586 27.261 25.0777 30.5015 20.3398 30.5015C14.7242 30.5015 10.1719 25.9491 10.1719 20.3335Z" fill="#65DA01"/>
<path d="M35.5831 5.08398L33.0411 0L25.4151 7.62598V11.657L19.8047 17.2675L23.3996 20.8624L29.01 15.252H33.0411L40.6671 7.62598L35.5831 5.08398Z" fill="#65DA01"/>
</svg>
