<svg width="48" height="48" viewBox="0 0 48 48" fill="none" xmlns="http://www.w3.org/2000/svg">
<path opacity="0.5" d="M0 15C0 6.71573 6.71573 0 15 0H33C41.2843 0 48 6.71573 48 15V33C48 41.2843 41.2843 48 33 48H15C6.71573 48 0 41.2843 0 33V15Z" fill="#30473A"/>
<path fill-rule="evenodd" clip-rule="evenodd" d="M23.723 6.94587C24.2981 6.93988 25.1503 6.98321 25.6166 7.04134C26.083 7.0995 26.7995 7.21488 27.211 7.29806C27.6217 7.38232 28.43 7.60977 29.0048 7.80619C29.5798 8.00168 30.4321 8.3546 30.8984 8.59013C31.3648 8.82475 32.1492 9.28958 32.6423 9.6223C33.1355 9.95504 33.7632 10.42 34.0373 10.6566C34.3114 10.8922 34.8445 11.4038 35.2212 11.7927C35.5989 12.1817 36.1654 12.8373 36.4793 13.2513C36.7932 13.6643 37.2516 14.3406 37.4987 14.7545C37.7459 15.1675 37.9762 15.6311 38.0111 15.7824C38.046 15.9338 38.1416 16.1267 38.2233 16.2089C38.3053 16.2922 38.5114 16.7316 38.6815 17.1859C38.851 17.641 39.0974 18.4189 39.2289 18.915C39.3615 19.4112 39.5376 20.3249 39.6193 20.9454C39.701 21.5659 39.7678 22.4901 39.7678 23.0002C39.7678 23.5105 39.6975 24.4471 39.6108 25.0805C39.5251 25.7139 39.3708 26.5707 39.2682 26.9846C39.1645 27.3976 38.9422 28.1195 38.7728 28.5886C38.6046 29.0571 38.3777 29.5184 38.27 29.6154C38.1623 29.7117 38.0609 29.916 38.044 30.0673C38.0279 30.2189 37.831 30.6586 37.6069 31.0443C37.3827 31.4302 36.9245 32.1179 36.5896 32.573C36.2548 33.028 35.611 33.7727 35.1586 34.2278C34.7061 34.684 33.9772 35.3316 33.5387 35.6674C33.1004 36.0031 32.4393 36.4656 32.0695 36.6942C31.6998 36.9228 30.9584 37.3055 30.4242 37.5461C29.8902 37.7866 29.1612 38.078 28.8054 38.1953C28.4497 38.3115 27.7771 38.4965 27.3107 38.6048C26.8444 38.713 26.0381 38.8455 25.5169 38.8986C24.9958 38.9517 24.1895 38.9985 23.723 39.0026C23.2568 39.0066 22.4953 38.9621 22.0289 38.906C21.5625 38.8489 20.844 38.7346 20.4335 38.6514C20.0217 38.5681 19.2144 38.3408 18.6396 38.1454C18.0637 37.951 17.1236 37.5465 16.5477 37.2469C15.9717 36.9462 15.0781 36.3969 14.5619 36.027C14.0466 35.657 13.2141 34.9488 12.7139 34.4527C12.2128 33.9566 11.487 33.1227 11.0994 32.5984C10.7128 32.0744 10.2812 31.4438 10.1425 31.195C10.004 30.9464 9.86352 30.5968 9.83063 30.4174C9.79771 30.2382 9.72522 30.0917 9.67045 30.0917C9.61529 30.0907 9.46433 29.8764 9.33311 29.6154C9.20252 29.3536 8.96076 28.7562 8.7974 28.2873C8.63401 27.8182 8.40929 27.0298 8.2967 26.5338C8.1841 26.0376 8.03669 25.1353 7.96891 24.5288C7.89416 23.8592 7.87057 22.9534 7.90844 22.2226C7.94234 21.561 8.03803 20.6369 8.12272 20.1678C8.20644 19.6987 8.36192 18.9997 8.46855 18.6137C8.57422 18.2278 8.80803 17.5297 8.98835 17.0607C9.16873 16.5916 9.41401 16.0948 9.5336 15.9575C9.65301 15.8192 9.78325 15.5722 9.82321 15.4069C9.86307 15.2415 10.1752 14.6763 10.518 14.153C10.8609 13.6297 11.5278 12.7606 12.0011 12.2234C12.473 11.6866 12.8932 11.2481 12.9346 11.2485C12.9754 11.2495 13.1885 11.086 13.4077 10.8847C13.6269 10.6842 14.053 10.3279 14.355 10.0944C14.657 9.86078 15.2064 9.48275 15.576 9.25526C15.9459 9.02667 16.6863 8.64392 17.2203 8.40342C17.7542 8.16296 18.4832 7.87275 18.8391 7.75739C19.1948 7.64211 19.7796 7.47308 20.1354 7.38186C20.4913 7.29164 21.2088 7.1581 21.7298 7.08695C22.251 7.0148 23.1481 6.95188 23.723 6.94587ZM23.9225 11.7492C23.8406 11.7543 23.676 11.7943 23.5575 11.8383C23.439 11.8826 23.2765 12.0037 23.1979 12.1078C23.118 12.2129 22.196 13.6398 21.1474 15.2786C20.098 16.9185 19.239 18.3061 19.239 18.3613C19.2387 18.4165 19.1788 18.5172 19.1053 18.5862C19.0316 18.6553 18.7621 19.0381 18.507 19.438C18.2529 19.8364 18.0439 20.1966 18.0413 20.24C18.0403 20.2811 17.9552 20.4055 17.8536 20.5158C17.7519 20.626 17.2589 21.3708 16.7577 22.1696C16.2555 22.9695 15.8478 23.7142 15.8507 23.8245C15.8541 23.935 16.0337 24.2617 16.2517 24.5511C16.469 24.8408 16.6474 25.1457 16.6474 25.2279C16.6476 25.31 16.7155 25.4013 16.797 25.4284C16.8797 25.4555 18.2984 27.2932 19.9497 29.5125C21.6008 31.7316 23.069 33.6719 23.2128 33.8247C23.3562 33.976 23.6084 34.1255 23.7729 34.1557C23.9822 34.1948 24.1294 34.1568 24.2619 34.0295C24.3685 33.9252 25.8577 31.9622 27.5748 29.6632C29.2929 27.3616 30.7679 25.4555 30.8496 25.4284C30.932 25.4012 30.9979 25.3099 30.9981 25.2279C30.9981 25.1457 31.1581 24.8626 31.3535 24.601C31.5488 24.3394 31.7319 24.0344 31.7608 23.9242C31.7906 23.8139 31.748 23.5888 31.6664 23.4235C31.5837 23.2581 29.961 20.6861 28.0586 17.7089C26.1572 14.7318 24.4817 12.171 24.3362 12.0187C24.1907 11.8653 24.0052 11.7452 23.9225 11.7492Z" fill="url(#paint0_linear_5483_22751)"/>
<path d="M23.0163 15.2425L23.089 15.1292C23.4756 14.5257 23.7636 14.1728 23.8434 14.2029C23.9141 14.23 25.2834 16.304 26.8869 18.8121C28.4904 21.3202 29.791 23.3912 29.777 23.4153C29.7631 23.4393 29.0565 23.7701 28.2074 24.1501C27.3583 24.531 26.5062 24.8748 26.3139 24.9149C26.1226 24.955 25.9202 25.0482 25.8654 25.1224C25.8106 25.1966 25.3851 25.4221 24.9187 25.6236C24.4533 25.8261 23.9371 25.9935 23.7726 25.9955C23.6082 25.9985 23.1378 25.8442 22.7262 25.6527C22.3156 25.4622 21.912 25.2297 21.8293 25.1364C21.7476 25.0432 21.5233 24.941 21.331 24.9099C21.1397 24.8788 20.3095 24.558 19.4873 24.1962C18.6651 23.8353 17.9476 23.5045 17.8928 23.4614C17.832 23.4133 18.711 21.9527 20.1291 19.7434C21.3364 17.863 22.585 15.9153 23.0163 15.2425Z" fill="url(#paint1_linear_5483_22751)"/>
<path d="M23.7806 31.8678C23.7019 31.8537 22.6285 30.4784 21.3938 28.8104C20.16 27.1423 19.1694 25.778 19.1943 25.778C19.2182 25.778 20.1909 26.203 21.3559 26.7233C22.5209 27.2426 23.5863 27.6957 23.7228 27.7287C23.9072 27.7748 24.5519 27.5303 26.2142 26.7854C27.448 26.2331 28.4645 25.791 28.4745 25.8041C28.4844 25.8171 27.5516 27.0912 26.4016 28.6349C25.2515 30.1787 24.2231 31.543 24.1164 31.6673C24.0098 31.7916 23.8583 31.8818 23.7806 31.8678Z" fill="url(#paint2_linear_5483_22751)"/>
<defs>
<linearGradient id="paint0_linear_5483_22751" x1="28.6477" y1="57.4237" x2="23.1387" y2="4.79828" gradientUnits="userSpaceOnUse">
<stop stop-color="#142A01"/>
<stop offset="0.460655" stop-color="#65DA00"/>
<stop offset="1" stop-color="#65DA00"/>
</linearGradient>
<linearGradient id="paint1_linear_5483_22751" x1="28.6477" y1="57.4237" x2="23.1387" y2="4.79828" gradientUnits="userSpaceOnUse">
<stop stop-color="#142A01"/>
<stop offset="0.460655" stop-color="#65DA00"/>
<stop offset="1" stop-color="#65DA00"/>
</linearGradient>
<linearGradient id="paint2_linear_5483_22751" x1="28.6477" y1="57.4237" x2="23.1387" y2="4.79828" gradientUnits="userSpaceOnUse">
<stop stop-color="#142A01"/>
<stop offset="0.460655" stop-color="#65DA00"/>
<stop offset="1" stop-color="#65DA00"/>
</linearGradient>
</defs>
</svg>
