<svg width="43" height="35" viewBox="0 0 43 35" fill="none" xmlns="http://www.w3.org/2000/svg">
<path d="M42.9581 35.0012H38.185V30.2281H42.9581V35.0012ZM33.4119 35.0012H28.6388V28.6369L33.4119 30.2281V35.0012ZM23.8656 35.0012H19.0925V31.8191L23.8656 27.0459V35.0012ZM14.3194 35.0012H9.54625V20.6818L12.7284 17.4997L14.3194 25.4549V35.0012ZM4.77313 35.0012H0V12.7266L4.77313 17.4997V35.0012Z" fill="#65DA01"/>
<path d="M0 0V7.34569L9.54625 15.9104L14.3194 11.1373L19.0925 27.0476L28.6387 15.9104L35.0028 22.2745L30.2297 27.0476H42.9579V14.3194L38.1849 19.0925L28.6387 9.54625L20.6835 19.0925L15.9104 3.18212L9.54625 9.54625L0 0Z" fill="#65DA01"/>
</svg>
