<svg width="108" height="120" viewBox="0 0 108 120" fill="none" xmlns="http://www.w3.org/2000/svg">
<g filter="url(#filter0_b_1592_256)">
<path d="M0 14C0 10.2288 0 8.34315 1.17157 7.17157C2.34315 6 4.22876 6 8 6H61L72.5 17.5L85 29.5V109C85 112.771 85 114.657 83.8284 115.828C82.6569 117 80.7712 117 77 117H8C4.22876 117 2.34315 117 1.17157 115.828C0 114.657 0 112.771 0 109V14Z" fill="url(#paint0_linear_1592_256)"/>
</g>
<g filter="url(#filter1_b_1592_256)">
<path d="M6 6C6 3.17157 6 1.75736 6.87868 0.87868C7.75736 0 9.17157 0 12 0H64.5147C65.741 0 66.3541 0 66.9054 0.228361C67.4567 0.456723 67.8903 0.890268 68.7574 1.75736L78.5 11.5L89.1552 21.729C90.0648 22.6022 90.5196 23.0388 90.7598 23.6024C91 24.166 91 24.7964 91 26.0573V105C91 107.828 91 109.243 90.1213 110.121C89.2426 111 87.8284 111 85 111H12C9.17157 111 7.75736 111 6.87868 110.121C6 109.243 6 107.828 6 105V6Z" fill="#B9DDFF" fill-opacity="0.6"/>
<path d="M78.2836 11.7164L78.2881 11.7207L88.9433 21.9497C89.8715 22.8407 90.2683 23.2296 90.4783 23.7223C90.6883 24.2151 90.6941 24.7707 90.6941 26.0573V105C90.6941 106.423 90.6934 107.459 90.5869 108.251C90.4817 109.034 90.278 109.532 89.905 109.905C89.532 110.278 89.0341 110.482 88.251 110.587C87.4592 110.693 86.4229 110.694 85 110.694H12C10.5771 110.694 9.54077 110.693 8.74895 110.587C7.96594 110.482 7.46804 110.278 7.09502 109.905C6.722 109.532 6.51833 109.034 6.41305 108.251C6.3066 107.459 6.30595 106.423 6.30595 105V6C6.30595 4.57714 6.3066 3.54077 6.41305 2.74895C6.51833 1.96594 6.722 1.46804 7.09502 1.09502C7.46804 0.721997 7.96594 0.518328 8.74895 0.413054C9.54077 0.306597 10.5771 0.305948 12 0.305948H64.5147C65.7659 0.305948 66.3063 0.311363 66.7883 0.51102C67.2703 0.710677 67.6563 1.08895 68.541 1.9737L78.2837 11.7163L78.2836 11.7164Z" stroke="url(#paint1_linear_1592_256)" stroke-width="0.611895"/>
</g>
<path d="M20.4573 25.6453L18.0705 26.7334V24.68L20.9926 23.2146H22.5633V37H20.4573V25.6453ZM30.645 37.193C29.9722 37.193 29.3463 37.0643 28.7672 36.807C28.1939 36.5496 27.6937 36.143 27.2666 35.5872C26.8454 35.0315 26.5149 34.3178 26.2751 33.4462C26.0352 32.5687 25.9153 31.5128 25.9153 30.2784C25.9153 29.0382 26.0382 27.9648 26.2839 27.058C26.5296 26.1513 26.8718 25.4025 27.3105 24.8117C27.7493 24.215 28.2699 23.7733 28.8725 23.4866C29.475 23.2 30.1331 23.0567 30.8468 23.0567C31.5137 23.0567 32.1338 23.1854 32.7071 23.4428C33.2862 23.7002 33.7864 24.1067 34.2076 24.6625C34.6346 25.2182 34.9681 25.9348 35.2079 26.8123C35.4536 27.684 35.5765 28.737 35.5765 29.9713C35.5765 31.2115 35.4536 32.2849 35.2079 33.1917C34.9622 34.0984 34.62 34.8501 34.1813 35.4468C33.7425 36.0377 33.2219 36.4764 32.6193 36.7631C32.0168 37.0497 31.3587 37.193 30.645 37.193ZM30.7503 35.3503C31.1188 35.3503 31.464 35.2743 31.7857 35.1222C32.1133 34.9642 32.397 34.6893 32.6369 34.2973C32.8826 33.9054 33.0727 33.373 33.2073 32.7003C33.3477 32.0217 33.4179 31.1647 33.4179 30.1292C33.4179 29.1055 33.3506 28.2573 33.216 27.5845C33.0815 26.9059 32.8943 26.3707 32.6544 25.9787C32.4146 25.5809 32.1309 25.303 31.8033 25.1451C31.4757 24.9813 31.1218 24.8994 30.7415 24.8994C30.3671 24.8994 30.0161 24.9784 29.6885 25.1363C29.3668 25.2884 29.086 25.5634 28.8461 25.9612C28.6063 26.3531 28.4162 26.8884 28.2758 27.567C28.1412 28.2397 28.0739 29.0938 28.0739 30.1292C28.0739 31.153 28.1412 32.0012 28.2758 32.674C28.4103 33.3409 28.5975 33.8732 28.8374 34.271C29.0772 34.6688 29.3609 34.9496 29.6885 35.1134C30.0161 35.2713 30.37 35.3503 30.7503 35.3503ZM40.0956 25.6453L37.7088 26.7334V24.68L40.6308 23.2146H42.2015V37H40.0956V25.6453ZM50.2832 37.193C49.6105 37.193 48.9845 37.0643 48.4054 36.807C47.8321 36.5496 47.3319 36.143 46.9049 35.5872C46.4837 35.0315 46.1532 34.3178 45.9133 33.4462C45.6735 32.5687 45.5536 31.5128 45.5536 30.2784C45.5536 29.0382 45.6764 27.9648 45.9221 27.058C46.1678 26.1513 46.51 25.4025 46.9488 24.8117C47.3875 24.215 47.9082 23.7733 48.5107 23.4866C49.1132 23.2 49.7714 23.0567 50.4851 23.0567C51.1519 23.0567 51.772 23.1854 52.3453 23.4428C52.9245 23.7002 53.4246 24.1067 53.8458 24.6625C54.2729 25.2182 54.6063 25.9348 54.8462 26.8123C55.0919 27.684 55.2147 28.737 55.2147 29.9713C55.2147 31.2115 55.0919 32.2849 54.8462 33.1917C54.6005 34.0984 54.2583 34.8501 53.8195 35.4468C53.3808 36.0377 52.8601 36.4764 52.2576 36.7631C51.655 37.0497 50.9969 37.193 50.2832 37.193ZM50.3885 35.3503C50.7571 35.3503 51.1022 35.2743 51.424 35.1222C51.7516 34.9642 52.0353 34.6893 52.2751 34.2973C52.5208 33.9054 52.711 33.373 52.8455 32.7003C52.9859 32.0217 53.0561 31.1647 53.0561 30.1292C53.0561 29.1055 52.9888 28.2573 52.8543 27.5845C52.7197 26.9059 52.5325 26.3707 52.2927 25.9787C52.0528 25.5809 51.7691 25.303 51.4415 25.1451C51.1139 24.9813 50.76 24.8994 50.3798 24.8994C50.0054 24.8994 49.6544 24.9784 49.3268 25.1363C49.005 25.2884 48.7242 25.5634 48.4844 25.9612C48.2445 26.3531 48.0544 26.8884 47.914 27.567C47.7795 28.2397 47.7122 29.0938 47.7122 30.1292C47.7122 31.153 47.7795 32.0012 47.914 32.674C48.0486 33.3409 48.2358 33.8732 48.4756 34.271C48.7154 34.6688 48.9992 34.9496 49.3268 35.1134C49.6544 35.2713 50.0083 35.3503 50.3885 35.3503ZM59.7338 25.6453L57.347 26.7334V24.68L60.2691 23.2146H61.8398V37H59.7338V25.6453ZM69.9215 37.193C69.2487 37.193 68.6228 37.0643 68.0436 36.807C67.4704 36.5496 66.9702 36.143 66.5431 35.5872C66.1219 35.0315 65.7914 34.3178 65.5516 33.4462C65.3117 32.5687 65.1918 31.5128 65.1918 30.2784C65.1918 29.0382 65.3147 27.9648 65.5603 27.058C65.806 26.1513 66.1483 25.4025 66.587 24.8117C67.0258 24.215 67.5464 23.7733 68.1489 23.4866C68.7515 23.2 69.4096 23.0567 70.1233 23.0567C70.7902 23.0567 71.4103 23.1854 71.9836 23.4428C72.5627 23.7002 73.0629 24.1067 73.4841 24.6625C73.9111 25.2182 74.2446 25.9348 74.4844 26.8123C74.7301 27.684 74.853 28.737 74.853 29.9713C74.853 31.2115 74.7301 32.2849 74.4844 33.1917C74.2387 34.0984 73.8965 34.8501 73.4578 35.4468C73.019 36.0377 72.4984 36.4764 71.8958 36.7631C71.2933 37.0497 70.6352 37.193 69.9215 37.193ZM70.0268 35.3503C70.3953 35.3503 70.7405 35.2743 71.0622 35.1222C71.3898 34.9642 71.6735 34.6893 71.9134 34.2973C72.1591 33.9054 72.3492 33.373 72.4838 32.7003C72.6242 32.0217 72.6943 31.1647 72.6943 30.1292C72.6943 29.1055 72.6271 28.2573 72.4925 27.5845C72.358 26.9059 72.1708 26.3707 71.9309 25.9787C71.6911 25.5809 71.4074 25.303 71.0798 25.1451C70.7522 24.9813 70.3982 24.8994 70.018 24.8994C69.6436 24.8994 69.2926 24.9784 68.965 25.1363C68.6433 25.2884 68.3625 25.5634 68.1226 25.9612C67.8828 26.3531 67.6927 26.8884 67.5523 27.567C67.4177 28.2397 67.3504 29.0938 67.3504 30.1292C67.3504 31.153 67.4177 32.0012 67.5523 32.674C67.6868 33.3409 67.874 33.8732 68.1138 34.271C68.3537 34.6688 68.6374 34.9496 68.965 35.1134C69.2926 35.2713 69.6465 35.3503 70.0268 35.3503Z" fill="url(#paint2_linear_1592_256)" fill-opacity="0.9"/>
<path d="M20.4573 45.4109L18.0705 46.499V44.4457L20.9926 42.9802H22.5633V56.7656H20.4573V45.4109ZM30.645 56.9587C29.9722 56.9587 29.3463 56.83 28.7672 56.5726C28.1939 56.3152 27.6937 55.9086 27.2666 55.3529C26.8454 54.7971 26.5149 54.0834 26.2751 53.2118C26.0352 52.3343 25.9153 51.2784 25.9153 50.044C25.9153 48.8039 26.0382 47.7304 26.2839 46.8237C26.5296 45.9169 26.8718 45.1681 27.3105 44.5773C27.7493 43.9806 28.2699 43.5389 28.8725 43.2523C29.475 42.9656 30.1331 42.8223 30.8468 42.8223C31.5137 42.8223 32.1338 42.951 32.7071 43.2084C33.2862 43.4658 33.7864 43.8724 34.2076 44.4281C34.6346 44.9838 34.9681 45.7005 35.2079 46.578C35.4536 47.4496 35.5765 48.5026 35.5765 49.7369C35.5765 50.9771 35.4536 52.0506 35.2079 52.9573C34.9622 53.8641 34.62 54.6158 34.1813 55.2125C33.7425 55.8033 33.2219 56.2421 32.6193 56.5287C32.0168 56.8153 31.3587 56.9587 30.645 56.9587ZM30.7503 55.1159C31.1188 55.1159 31.464 55.0399 31.7857 54.8878C32.1133 54.7298 32.397 54.4549 32.6369 54.063C32.8826 53.671 33.0727 53.1387 33.2073 52.4659C33.3477 51.7873 33.4179 50.9303 33.4179 49.8949C33.4179 48.8711 33.3506 48.0229 33.216 47.3501C33.0815 46.6716 32.8943 46.1363 32.6544 45.7443C32.4146 45.3465 32.1309 45.0687 31.8033 44.9107C31.4757 44.7469 31.1218 44.665 30.7415 44.665C30.3671 44.665 30.0161 44.744 29.6885 44.9019C29.3668 45.054 29.086 45.329 28.8461 45.7268C28.6063 46.1187 28.4162 46.654 28.2758 47.3326C28.1412 48.0053 28.0739 48.8594 28.0739 49.8949C28.0739 50.9186 28.1412 51.7669 28.2758 52.4396C28.4103 53.1065 28.5975 53.6388 28.8374 54.0366C29.0772 54.4344 29.3609 54.7152 29.6885 54.879C30.0161 55.037 30.37 55.1159 30.7503 55.1159ZM40.0956 45.4109L37.7088 46.499V44.4457L40.6308 42.9802H42.2015V56.7656H40.0956V45.4109ZM50.2832 56.9587C49.6105 56.9587 48.9845 56.83 48.4054 56.5726C47.8321 56.3152 47.3319 55.9086 46.9049 55.3529C46.4837 54.7971 46.1532 54.0834 45.9133 53.2118C45.6735 52.3343 45.5536 51.2784 45.5536 50.044C45.5536 48.8039 45.6764 47.7304 45.9221 46.8237C46.1678 45.9169 46.51 45.1681 46.9488 44.5773C47.3875 43.9806 47.9082 43.5389 48.5107 43.2523C49.1132 42.9656 49.7714 42.8223 50.4851 42.8223C51.1519 42.8223 51.772 42.951 52.3453 43.2084C52.9245 43.4658 53.4246 43.8724 53.8458 44.4281C54.2729 44.9838 54.6063 45.7005 54.8462 46.578C55.0919 47.4496 55.2147 48.5026 55.2147 49.7369C55.2147 50.9771 55.0919 52.0506 54.8462 52.9573C54.6005 53.8641 54.2583 54.6158 53.8195 55.2125C53.3808 55.8033 52.8601 56.2421 52.2576 56.5287C51.655 56.8153 50.9969 56.9587 50.2832 56.9587ZM50.3885 55.1159C50.7571 55.1159 51.1022 55.0399 51.424 54.8878C51.7516 54.7298 52.0353 54.4549 52.2751 54.063C52.5208 53.671 52.711 53.1387 52.8455 52.4659C52.9859 51.7873 53.0561 50.9303 53.0561 49.8949C53.0561 48.8711 52.9888 48.0229 52.8543 47.3501C52.7197 46.6716 52.5325 46.1363 52.2927 45.7443C52.0528 45.3465 51.7691 45.0687 51.4415 44.9107C51.1139 44.7469 50.76 44.665 50.3798 44.665C50.0054 44.665 49.6544 44.744 49.3268 44.9019C49.005 45.054 48.7242 45.329 48.4844 45.7268C48.2445 46.1187 48.0544 46.654 47.914 47.3326C47.7795 48.0053 47.7122 48.8594 47.7122 49.8949C47.7122 50.9186 47.7795 51.7669 47.914 52.4396C48.0486 53.1065 48.2358 53.6388 48.4756 54.0366C48.7154 54.4344 48.9992 54.7152 49.3268 54.879C49.6544 55.037 50.0083 55.1159 50.3885 55.1159ZM59.7338 45.4109L57.347 46.499V44.4457L60.2691 42.9802H61.8398V56.7656H59.7338V45.4109ZM69.9215 56.9587C69.2487 56.9587 68.6228 56.83 68.0436 56.5726C67.4704 56.3152 66.9702 55.9086 66.5431 55.3529C66.1219 54.7971 65.7914 54.0834 65.5516 53.2118C65.3117 52.3343 65.1918 51.2784 65.1918 50.044C65.1918 48.8039 65.3147 47.7304 65.5603 46.8237C65.806 45.9169 66.1483 45.1681 66.587 44.5773C67.0258 43.9806 67.5464 43.5389 68.1489 43.2523C68.7515 42.9656 69.4096 42.8223 70.1233 42.8223C70.7902 42.8223 71.4103 42.951 71.9836 43.2084C72.5627 43.4658 73.0629 43.8724 73.4841 44.4281C73.9111 44.9838 74.2446 45.7005 74.4844 46.578C74.7301 47.4496 74.853 48.5026 74.853 49.7369C74.853 50.9771 74.7301 52.0506 74.4844 52.9573C74.2387 53.8641 73.8965 54.6158 73.4578 55.2125C73.019 55.8033 72.4984 56.2421 71.8958 56.5287C71.2933 56.8153 70.6352 56.9587 69.9215 56.9587ZM70.0268 55.1159C70.3953 55.1159 70.7405 55.0399 71.0622 54.8878C71.3898 54.7298 71.6735 54.4549 71.9134 54.063C72.1591 53.671 72.3492 53.1387 72.4838 52.4659C72.6242 51.7873 72.6943 50.9303 72.6943 49.8949C72.6943 48.8711 72.6271 48.0229 72.4925 47.3501C72.358 46.6716 72.1708 46.1363 71.9309 45.7443C71.6911 45.3465 71.4074 45.0687 71.0798 44.9107C70.7522 44.7469 70.3982 44.665 70.018 44.665C69.6436 44.665 69.2926 44.744 68.965 44.9019C68.6433 45.054 68.3625 45.329 68.1226 45.7268C67.8828 46.1187 67.6927 46.654 67.5523 47.3326C67.4177 48.0053 67.3504 48.8594 67.3504 49.8949C67.3504 50.9186 67.4177 51.7669 67.5523 52.4396C67.6868 53.1065 67.874 53.6388 68.1138 54.0366C68.3537 54.4344 68.6374 54.7152 68.965 54.879C69.2926 55.037 69.6465 55.1159 70.0268 55.1159Z" fill="url(#paint3_linear_1592_256)" fill-opacity="0.9"/>
<path d="M20.4573 65.1804L18.0705 66.2685V64.2152L20.9926 62.7498H22.5633V76.5352H20.4573V65.1804ZM30.645 76.7282C29.9722 76.7282 29.3463 76.5995 28.7672 76.3421C28.1939 76.0847 27.6937 75.6781 27.2666 75.1224C26.8454 74.5667 26.5149 73.853 26.2751 72.9813C26.0352 72.1038 25.9153 71.0479 25.9153 69.8136C25.9153 68.5734 26.0382 67.4999 26.2839 66.5932C26.5296 65.6864 26.8718 64.9377 27.3105 64.3468C27.7493 63.7501 28.2699 63.3084 28.8725 63.0218C29.475 62.7351 30.1331 62.5918 30.8468 62.5918C31.5137 62.5918 32.1338 62.7205 32.7071 62.9779C33.2862 63.2353 33.7864 63.6419 34.2076 64.1976C34.6346 64.7534 34.9681 65.47 35.2079 66.3475C35.4536 67.2191 35.5765 68.2721 35.5765 69.5065C35.5765 70.7466 35.4536 71.8201 35.2079 72.7268C34.9622 73.6336 34.62 74.3853 34.1813 74.982C33.7425 75.5728 33.2219 76.0116 32.6193 76.2982C32.0168 76.5849 31.3587 76.7282 30.645 76.7282ZM30.7503 74.8855C31.1188 74.8855 31.464 74.8094 31.7857 74.6573C32.1133 74.4994 32.397 74.2244 32.6369 73.8325C32.8826 73.4405 33.0727 72.9082 33.2073 72.2355C33.3477 71.5569 33.4179 70.6998 33.4179 69.6644C33.4179 68.6407 33.3506 67.7924 33.216 67.1197C33.0815 66.4411 32.8943 65.9058 32.6544 65.5139C32.4146 65.1161 32.1309 64.8382 31.8033 64.6803C31.4757 64.5165 31.1218 64.4346 30.7415 64.4346C30.3671 64.4346 30.0161 64.5135 29.6885 64.6715C29.3668 64.8236 29.086 65.0985 28.8461 65.4963C28.6063 65.8883 28.4162 66.4235 28.2758 67.1021C28.1412 67.7749 28.0739 68.629 28.0739 69.6644C28.0739 70.6881 28.1412 71.5364 28.2758 72.2091C28.4103 72.876 28.5975 73.4084 28.8374 73.8062C29.0772 74.204 29.3609 74.4848 29.6885 74.6486C30.0161 74.8065 30.37 74.8855 30.7503 74.8855ZM40.0956 65.1804L37.7088 66.2685V64.2152L40.6308 62.7498H42.2015V76.5352H40.0956V65.1804ZM50.2832 76.7282C49.6105 76.7282 48.9845 76.5995 48.4054 76.3421C47.8321 76.0847 47.3319 75.6781 46.9049 75.1224C46.4837 74.5667 46.1532 73.853 45.9133 72.9813C45.6735 72.1038 45.5536 71.0479 45.5536 69.8136C45.5536 68.5734 45.6764 67.4999 45.9221 66.5932C46.1678 65.6864 46.51 64.9377 46.9488 64.3468C47.3875 63.7501 47.9082 63.3084 48.5107 63.0218C49.1132 62.7351 49.7714 62.5918 50.4851 62.5918C51.1519 62.5918 51.772 62.7205 52.3453 62.9779C52.9245 63.2353 53.4246 63.6419 53.8458 64.1976C54.2729 64.7534 54.6063 65.47 54.8462 66.3475C55.0919 67.2191 55.2147 68.2721 55.2147 69.5065C55.2147 70.7466 55.0919 71.8201 54.8462 72.7268C54.6005 73.6336 54.2583 74.3853 53.8195 74.982C53.3808 75.5728 52.8601 76.0116 52.2576 76.2982C51.655 76.5849 50.9969 76.7282 50.2832 76.7282ZM50.3885 74.8855C50.7571 74.8855 51.1022 74.8094 51.424 74.6573C51.7516 74.4994 52.0353 74.2244 52.2751 73.8325C52.5208 73.4405 52.711 72.9082 52.8455 72.2355C52.9859 71.5569 53.0561 70.6998 53.0561 69.6644C53.0561 68.6407 52.9888 67.7924 52.8543 67.1197C52.7197 66.4411 52.5325 65.9058 52.2927 65.5139C52.0528 65.1161 51.7691 64.8382 51.4415 64.6803C51.1139 64.5165 50.76 64.4346 50.3798 64.4346C50.0054 64.4346 49.6544 64.5135 49.3268 64.6715C49.005 64.8236 48.7242 65.0985 48.4844 65.4963C48.2445 65.8883 48.0544 66.4235 47.914 67.1021C47.7795 67.7749 47.7122 68.629 47.7122 69.6644C47.7122 70.6881 47.7795 71.5364 47.914 72.2091C48.0486 72.876 48.2358 73.4084 48.4756 73.8062C48.7154 74.204 48.9992 74.4848 49.3268 74.6486C49.6544 74.8065 50.0083 74.8855 50.3885 74.8855ZM59.7338 65.1804L57.347 66.2685V64.2152L60.2691 62.7498H61.8398V76.5352H59.7338V65.1804ZM69.9215 76.7282C69.2487 76.7282 68.6228 76.5995 68.0436 76.3421C67.4704 76.0847 66.9702 75.6781 66.5431 75.1224C66.1219 74.5667 65.7914 73.853 65.5516 72.9813C65.3117 72.1038 65.1918 71.0479 65.1918 69.8136C65.1918 68.5734 65.3147 67.4999 65.5603 66.5932C65.806 65.6864 66.1483 64.9377 66.587 64.3468C67.0258 63.7501 67.5464 63.3084 68.1489 63.0218C68.7515 62.7351 69.4096 62.5918 70.1233 62.5918C70.7902 62.5918 71.4103 62.7205 71.9836 62.9779C72.5627 63.2353 73.0629 63.6419 73.4841 64.1976C73.9111 64.7534 74.2446 65.47 74.4844 66.3475C74.7301 67.2191 74.853 68.2721 74.853 69.5065C74.853 70.7466 74.7301 71.8201 74.4844 72.7268C74.2387 73.6336 73.8965 74.3853 73.4578 74.982C73.019 75.5728 72.4984 76.0116 71.8958 76.2982C71.2933 76.5849 70.6352 76.7282 69.9215 76.7282ZM70.0268 74.8855C70.3953 74.8855 70.7405 74.8094 71.0622 74.6573C71.3898 74.4994 71.6735 74.2244 71.9134 73.8325C72.1591 73.4405 72.3492 72.9082 72.4838 72.2355C72.6242 71.5569 72.6943 70.6998 72.6943 69.6644C72.6943 68.6407 72.6271 67.7924 72.4925 67.1197C72.358 66.4411 72.1708 65.9058 71.9309 65.5139C71.6911 65.1161 71.4074 64.8382 71.0798 64.6803C70.7522 64.5165 70.3982 64.4346 70.018 64.4346C69.6436 64.4346 69.2926 64.5135 68.965 64.6715C68.6433 64.8236 68.3625 65.0985 68.1226 65.4963C67.8828 65.8883 67.6927 66.4235 67.5523 67.1021C67.4177 67.7749 67.3504 68.629 67.3504 69.6644C67.3504 70.6881 67.4177 71.5364 67.5523 72.2091C67.6868 72.876 67.874 73.4084 68.1138 73.8062C68.3537 74.204 68.6374 74.4848 68.965 74.6486C69.2926 74.8065 69.6465 74.8855 70.0268 74.8855Z" fill="url(#paint4_linear_1592_256)" fill-opacity="0.9"/>
<path d="M20.4573 84.95L18.0705 86.038V83.9847L20.9926 82.5193H22.5633V96.3047H20.4573V84.95ZM30.645 96.4977C29.9722 96.4977 29.3463 96.369 28.7672 96.1116C28.1939 95.8542 27.6937 95.4477 27.2666 94.8919C26.8454 94.3362 26.5149 93.6225 26.2751 92.7508C26.0352 91.8734 25.9153 90.8174 25.9153 89.5831C25.9153 88.3429 26.0382 87.2695 26.2839 86.3627C26.5296 85.456 26.8718 84.7072 27.3105 84.1163C27.7493 83.5196 28.2699 83.078 28.8725 82.7913C29.475 82.5047 30.1331 82.3614 30.8468 82.3614C31.5137 82.3614 32.1338 82.4901 32.7071 82.7475C33.2862 83.0049 33.7864 83.4114 34.2076 83.9672C34.6346 84.5229 34.9681 85.2395 35.2079 86.117C35.4536 86.9887 35.5765 88.0416 35.5765 89.276C35.5765 90.5162 35.4536 91.5896 35.2079 92.4964C34.9622 93.4031 34.62 94.1548 34.1813 94.7515C33.7425 95.3424 33.2219 95.7811 32.6193 96.0678C32.0168 96.3544 31.3587 96.4977 30.645 96.4977ZM30.7503 94.655C31.1188 94.655 31.464 94.579 31.7857 94.4269C32.1133 94.2689 32.397 93.994 32.6369 93.602C32.8826 93.2101 33.0727 92.6777 33.2073 92.005C33.3477 91.3264 33.4179 90.4694 33.4179 89.4339C33.4179 88.4102 33.3506 87.562 33.216 86.8892C33.0815 86.2106 32.8943 85.6753 32.6544 85.2834C32.4146 84.8856 32.1309 84.6077 31.8033 84.4498C31.4757 84.286 31.1218 84.2041 30.7415 84.2041C30.3671 84.2041 30.0161 84.2831 29.6885 84.441C29.3668 84.5931 29.086 84.8681 28.8461 85.2659C28.6063 85.6578 28.4162 86.1931 28.2758 86.8717C28.1412 87.5444 28.0739 88.3985 28.0739 89.4339C28.0739 90.4577 28.1412 91.3059 28.2758 91.9787C28.4103 92.6456 28.5975 93.1779 28.8374 93.5757C29.0772 93.9735 29.3609 94.2543 29.6885 94.4181C30.0161 94.576 30.37 94.655 30.7503 94.655ZM40.0956 84.95L37.7088 86.038V83.9847L40.6308 82.5193H42.2015V96.3047H40.0956V84.95ZM50.2832 96.4977C49.6105 96.4977 48.9845 96.369 48.4054 96.1116C47.8321 95.8542 47.3319 95.4477 46.9049 94.8919C46.4837 94.3362 46.1532 93.6225 45.9133 92.7508C45.6735 91.8734 45.5536 90.8174 45.5536 89.5831C45.5536 88.3429 45.6764 87.2695 45.9221 86.3627C46.1678 85.456 46.51 84.7072 46.9488 84.1163C47.3875 83.5196 47.9082 83.078 48.5107 82.7913C49.1132 82.5047 49.7714 82.3614 50.4851 82.3614C51.1519 82.3614 51.772 82.4901 52.3453 82.7475C52.9245 83.0049 53.4246 83.4114 53.8458 83.9672C54.2729 84.5229 54.6063 85.2395 54.8462 86.117C55.0919 86.9887 55.2147 88.0416 55.2147 89.276C55.2147 90.5162 55.0919 91.5896 54.8462 92.4964C54.6005 93.4031 54.2583 94.1548 53.8195 94.7515C53.3808 95.3424 52.8601 95.7811 52.2576 96.0678C51.655 96.3544 50.9969 96.4977 50.2832 96.4977ZM50.3885 94.655C50.7571 94.655 51.1022 94.579 51.424 94.4269C51.7516 94.2689 52.0353 93.994 52.2751 93.602C52.5208 93.2101 52.711 92.6777 52.8455 92.005C52.9859 91.3264 53.0561 90.4694 53.0561 89.4339C53.0561 88.4102 52.9888 87.562 52.8543 86.8892C52.7197 86.2106 52.5325 85.6753 52.2927 85.2834C52.0528 84.8856 51.7691 84.6077 51.4415 84.4498C51.1139 84.286 50.76 84.2041 50.3798 84.2041C50.0054 84.2041 49.6544 84.2831 49.3268 84.441C49.005 84.5931 48.7242 84.8681 48.4844 85.2659C48.2445 85.6578 48.0544 86.1931 47.914 86.8717C47.7795 87.5444 47.7122 88.3985 47.7122 89.4339C47.7122 90.4577 47.7795 91.3059 47.914 91.9787C48.0486 92.6456 48.2358 93.1779 48.4756 93.5757C48.7154 93.9735 48.9992 94.2543 49.3268 94.4181C49.6544 94.576 50.0083 94.655 50.3885 94.655ZM59.7338 84.95L57.347 86.038V83.9847L60.2691 82.5193H61.8398V96.3047H59.7338V84.95ZM69.9215 96.4977C69.2487 96.4977 68.6228 96.369 68.0436 96.1116C67.4704 95.8542 66.9702 95.4477 66.5431 94.8919C66.1219 94.3362 65.7914 93.6225 65.5516 92.7508C65.3117 91.8734 65.1918 90.8174 65.1918 89.5831C65.1918 88.3429 65.3147 87.2695 65.5603 86.3627C65.806 85.456 66.1483 84.7072 66.587 84.1163C67.0258 83.5196 67.5464 83.078 68.1489 82.7913C68.7515 82.5047 69.4096 82.3614 70.1233 82.3614C70.7902 82.3614 71.4103 82.4901 71.9836 82.7475C72.5627 83.0049 73.0629 83.4114 73.4841 83.9672C73.9111 84.5229 74.2446 85.2395 74.4844 86.117C74.7301 86.9887 74.853 88.0416 74.853 89.276C74.853 90.5162 74.7301 91.5896 74.4844 92.4964C74.2387 93.4031 73.8965 94.1548 73.4578 94.7515C73.019 95.3424 72.4984 95.7811 71.8958 96.0678C71.2933 96.3544 70.6352 96.4977 69.9215 96.4977ZM70.0268 94.655C70.3953 94.655 70.7405 94.579 71.0622 94.4269C71.3898 94.2689 71.6735 93.994 71.9134 93.602C72.1591 93.2101 72.3492 92.6777 72.4838 92.005C72.6242 91.3264 72.6943 90.4694 72.6943 89.4339C72.6943 88.4102 72.6271 87.562 72.4925 86.8892C72.358 86.2106 72.1708 85.6753 71.9309 85.2834C71.6911 84.8856 71.4074 84.6077 71.0798 84.4498C70.7522 84.286 70.3982 84.2041 70.018 84.2041C69.6436 84.2041 69.2926 84.2831 68.965 84.441C68.6433 84.5931 68.3625 84.8681 68.1226 85.2659C67.8828 85.6578 67.6927 86.1931 67.5523 86.8717C67.4177 87.5444 67.3504 88.3985 67.3504 89.4339C67.3504 90.4577 67.4177 91.3059 67.5523 91.9787C67.6868 92.6456 67.874 93.1779 68.1138 93.5757C68.3537 93.9735 68.6374 94.2543 68.965 94.4181C69.2926 94.576 69.6465 94.655 70.0268 94.655Z" fill="url(#paint5_linear_1592_256)" fill-opacity="0.9"/>
<path d="M66.5 23.5V0L91 23.5H66.5Z" fill="#D9D9D9"/>
<g filter="url(#filter2_b_1592_256)">
<path d="M56 82.7273C56 81.1054 56 80.2945 56.4427 79.7451C56.5324 79.6338 56.6338 79.5325 56.7451 79.4428C57.2944 79.0001 58.1054 79.0001 59.7273 79.0001H104.273C105.895 79.0001 106.706 79.0001 107.255 79.4428C107.366 79.5325 107.468 79.6338 107.557 79.7451C108 80.2945 108 81.1054 108 82.7273V94.0001C108 99.5782 108 102.367 107.447 104.669C105.692 111.982 99.9819 117.692 92.6689 119.447C90.3672 120 87.5781 120 82 120C76.4219 120 73.6328 120 71.3311 119.447C64.0181 117.692 58.3083 111.982 56.5526 104.669C56 102.367 56 99.5782 56 94.0001V82.7273Z" fill="#B9DDFF" fill-opacity="0.6"/>
<path d="M57 82.7273C57 81.8922 57.0016 81.3527 57.0486 80.95C57.0931 80.5688 57.1664 80.4408 57.2214 80.3726C57.2662 80.3169 57.3169 80.2663 57.3725 80.2214C57.4407 80.1665 57.5687 80.0931 57.9499 80.0487C58.3526 80.0017 58.8922 80.0001 59.7273 80.0001H104.273C105.108 80.0001 105.647 80.0017 106.05 80.0487C106.431 80.0931 106.559 80.1665 106.627 80.2214C106.683 80.2663 106.734 80.3169 106.779 80.3726L107.555 79.7469L106.779 80.3726C106.834 80.4408 106.907 80.5688 106.951 80.95C106.998 81.3527 107 81.8922 107 82.7273V94.0001C107 99.6359 106.993 102.278 106.475 104.436C104.807 111.383 99.3828 116.807 92.4355 118.475C90.2778 118.993 87.6359 119 82 119C76.3641 119 73.7222 118.993 71.5645 118.475C64.6172 116.807 59.1929 111.383 57.525 104.436C57.007 102.278 57 99.6359 57 94.0001V82.7273Z" stroke="url(#paint6_linear_1592_256)" stroke-width="2"/>
</g>
<g filter="url(#filter3_b_1592_256)">
<path d="M81.8897 52C70.8919 52 61.9763 60.9155 61.9763 71.9134V75.8961C61.9763 76.6293 62.5707 77.2237 63.3039 77.2237C64.0371 77.2237 64.6315 76.6293 64.6315 75.8961V72.2708C64.6315 62.7393 72.3583 55.0125 81.8897 55.0125C91.4212 55.0125 99.148 62.7393 99.148 72.2708V75.8961C99.148 76.6293 99.7424 77.2237 100.476 77.2237C101.209 77.2237 101.803 76.6293 101.803 75.8961V71.9134C101.803 60.9155 92.8876 52 81.8897 52Z" fill="#B9DDFF" fill-opacity="0.6"/>
</g>
<circle cx="82.1233" cy="106.523" r="4.54321" fill="white"/>
<rect x="80.9875" y="91.7576" width="2.2716" height="11.358" rx="1.1358" fill="white"/>
<defs>
<filter id="filter0_b_1592_256" x="-13.3053" y="-7.30527" width="111.611" height="137.611" filterUnits="userSpaceOnUse" color-interpolation-filters="sRGB">
<feFlood flood-opacity="0" result="BackgroundImageFix"/>
<feGaussianBlur in="BackgroundImageFix" stdDeviation="6.65264"/>
<feComposite in2="SourceAlpha" operator="in" result="effect1_backgroundBlur_1592_256"/>
<feBlend mode="normal" in="SourceGraphic" in2="effect1_backgroundBlur_1592_256" result="shape"/>
</filter>
<filter id="filter1_b_1592_256" x="-7.30527" y="-13.3053" width="111.611" height="137.611" filterUnits="userSpaceOnUse" color-interpolation-filters="sRGB">
<feFlood flood-opacity="0" result="BackgroundImageFix"/>
<feGaussianBlur in="BackgroundImageFix" stdDeviation="6.65264"/>
<feComposite in2="SourceAlpha" operator="in" result="effect1_backgroundBlur_1592_256"/>
<feBlend mode="normal" in="SourceGraphic" in2="effect1_backgroundBlur_1592_256" result="shape"/>
</filter>
<filter id="filter2_b_1592_256" x="42.9433" y="65.9433" width="78.1135" height="67.1135" filterUnits="userSpaceOnUse" color-interpolation-filters="sRGB">
<feFlood flood-opacity="0" result="BackgroundImageFix"/>
<feGaussianBlur in="BackgroundImageFix" stdDeviation="6.52837"/>
<feComposite in2="SourceAlpha" operator="in" result="effect1_backgroundBlur_1592_256"/>
<feBlend mode="normal" in="SourceGraphic" in2="effect1_backgroundBlur_1592_256" result="shape"/>
</filter>
<filter id="filter3_b_1592_256" x="46.8642" y="36.8878" width="70.0512" height="55.4479" filterUnits="userSpaceOnUse" color-interpolation-filters="sRGB">
<feFlood flood-opacity="0" result="BackgroundImageFix"/>
<feGaussianBlur in="BackgroundImageFix" stdDeviation="7.55608"/>
<feComposite in2="SourceAlpha" operator="in" result="effect1_backgroundBlur_1592_256"/>
<feBlend mode="normal" in="SourceGraphic" in2="effect1_backgroundBlur_1592_256" result="shape"/>
</filter>
<linearGradient id="paint0_linear_1592_256" x1="24.5192" y1="30.2812" x2="92.7222" y2="48.2418" gradientUnits="userSpaceOnUse">
<stop stop-color="#917FFB"/>
<stop offset="1" stop-color="#3F2DAF"/>
</linearGradient>
<linearGradient id="paint1_linear_1592_256" x1="52.0417" y1="-16.6499" x2="49.0258" y2="88.7133" gradientUnits="userSpaceOnUse">
<stop stop-color="white"/>
<stop offset="0.996024" stop-color="white" stop-opacity="0"/>
</linearGradient>
<linearGradient id="paint2_linear_1592_256" x1="49.8588" y1="44.4683" x2="49.8588" y2="14.9366" gradientUnits="userSpaceOnUse">
<stop stop-color="white"/>
<stop offset="1" stop-color="white"/>
</linearGradient>
<linearGradient id="paint3_linear_1592_256" x1="49.8588" y1="64.2339" x2="49.8588" y2="34.7022" gradientUnits="userSpaceOnUse">
<stop stop-color="white"/>
<stop offset="1" stop-color="white"/>
</linearGradient>
<linearGradient id="paint4_linear_1592_256" x1="49.8588" y1="84.0034" x2="49.8588" y2="54.4717" gradientUnits="userSpaceOnUse">
<stop stop-color="white"/>
<stop offset="1" stop-color="white"/>
</linearGradient>
<linearGradient id="paint5_linear_1592_256" x1="49.8588" y1="103.773" x2="49.8588" y2="74.2412" gradientUnits="userSpaceOnUse">
<stop stop-color="white"/>
<stop offset="1" stop-color="white"/>
</linearGradient>
<linearGradient id="paint6_linear_1592_256" x1="52.2857" y1="82.7273" x2="117.422" y2="125.382" gradientUnits="userSpaceOnUse">
<stop stop-color="white"/>
<stop offset="1" stop-color="white" stop-opacity="0"/>
</linearGradient>
</defs>
</svg>
