<svg width="43" height="43" viewBox="0 0 43 43" fill="none" xmlns="http://www.w3.org/2000/svg">
<g clip-path="url(#clip0_2272_10221)">
<path d="M42.6641 21.5C42.6641 9.81141 33.1886 0.335938 21.5 0.335938C9.81141 0.335938 0.335938 9.81141 0.335938 21.5C0.335938 33.1886 9.81141 42.6641 21.5 42.6641C33.1886 42.6641 42.6641 33.1886 42.6641 21.5Z" fill="#151515" stroke="#EAD3AB" stroke-width="0.671875"/>
<path d="M29.9345 11.0859H17.4672C14.9633 11.0859 12.9336 13.1098 12.9336 15.6063C12.9336 18.3125 14.5311 20.7651 17.0106 21.8656L29.6433 27.4724H29.9345C29.9345 24.7251 28.3071 22.2372 25.7856 21.1298L13.209 15.6063H29.9345V11.0859Z" fill="#EAD3AB"/>
<path d="M12.9336 27.4717H29.9345C29.9345 29.9682 27.9047 31.9921 25.4009 31.9921H12.9336V27.4717Z" fill="#EAD3AB"/>
</g>
<defs>
<clipPath id="clip0_2272_10221">
<rect width="43" height="43" fill="white"/>
</clipPath>
</defs>
</svg>
