<svg width="162" height="156" viewBox="0 0 162 156" fill="none" xmlns="http://www.w3.org/2000/svg">
<path d="M26.5 116.269L80.9012 148.696L134.207 116.218V95.607L80.9087 61.2537L26.5 95.3979V116.269Z" fill="#272727"/>
<path d="M62.7266 116.772V125.377L65.2249 127.876V139.257" stroke="#474747" stroke-width="0.555191" stroke-linecap="round"/>
<path d="M35.8008 108.722V105.668L38.8543 107.889V110.665L35.8008 108.722Z" fill="#ADA1C3"/>
<path d="M42.1836 112.331V109.278L45.2371 111.499V114.275L42.1836 112.331Z" fill="#ADA1C3"/>
<path d="M48.2891 115.662V112.609L51.3426 114.83V117.606L48.2891 115.662Z" fill="#ADA1C3"/>
<path d="M54.3984 118.993V115.94L57.452 118.161V120.937L54.3984 118.993Z" fill="#ADA1C3"/>
<path d="M72.1641 143.422V122.687L72.9968 123.157V143.977L72.1641 143.422Z" fill="#474747"/>
<path d="M74.94 145.088V124.389L76.8832 125.467V146.476L74.94 145.088Z" fill="#474747"/>
<path d="M80.7695 148.696V127.877L134.207 95.3975V116.217L80.7695 148.696Z" fill="#272727"/>
<path d="M26.5 95.3933L80.9012 128.432L134.207 95.3933L80.9012 61.2537L26.5 95.3933Z" fill="#323232"/>
<path d="M39.4102 94.843L80.7719 119.827L121.301 94.843L80.7719 69.0266L39.4102 94.843Z" fill="#3B3B3B"/>
<path d="M42.6016 96.786L80.7723 120.104L118.108 96.786L80.7723 74.0232L42.6016 96.786Z" fill="black"/>
<g style="mix-blend-mode:screen" opacity="0.2">
<path d="M81.5 120.5L42.5 96L16 51H142L118.5 96L81.5 120.5Z" fill="url(#paint0_linear_4337_1695)"/>
</g>
<path d="M80.7699 144.532L26.5 112.053V116.217L80.7699 148.696L134.207 116.217V112.053L80.7699 144.532Z" fill="#474747"/>
<path d="M120.746 103.448V110.943L124.077 112.608V122.324" stroke="#474747" stroke-width="0.555191" stroke-linecap="round"/>
<path d="M89.375 129.82V125.101L97.5488 120.382V125.101L89.375 129.82Z" fill="#474747" stroke="#474747" stroke-width="0.555191" stroke-linecap="round"/>
<g filter="url(#filter0_d_4337_1695)">
<path d="M50.6829 86.1608L44.659 76.1211C44.4127 75.7105 44.3649 75.2106 44.5292 74.7608L61.6412 27.8887C61.8405 27.3427 62.3224 26.9494 62.8973 26.8636L112.564 19.4507C113.146 19.3638 113.729 19.6067 114.077 20.0816L121.476 30.1699C121.787 30.5949 121.867 31.1469 121.69 31.6431L103.852 81.44C103.643 82.0228 103.115 82.4309 102.498 82.4854L52.1827 86.9249C51.5777 86.9783 50.9953 86.6816 50.6829 86.1608Z" fill="url(#paint1_linear_4337_1695)" shape-rendering="crispEdges"/>
<path d="M112.593 19.6472C113.102 19.5711 113.613 19.7834 113.918 20.199L121.315 30.2869C121.588 30.6587 121.658 31.1418 121.503 31.5759L103.665 81.3728C103.482 81.8828 103.02 82.2402 102.48 82.2878L52.165 86.7273C51.6358 86.7739 51.1259 86.514 50.8525 86.0583L44.8291 76.0193C44.6135 75.66 44.5721 75.2224 44.7158 74.8289L61.8271 27.9568C62.0016 27.4791 62.4238 27.1344 62.9268 27.0593L112.593 19.6472Z" stroke="url(#paint2_linear_4337_1695)" stroke-width="0.396626" shape-rendering="crispEdges"/>
</g>
<g filter="url(#filter1_d_4337_1695)">
<path d="M94.2452 70.5735L46.9833 75.5861C45.816 75.7099 44.9231 74.5671 45.3257 73.4644L61.8248 28.2712C62.0241 27.7253 62.506 27.332 63.0809 27.2462L111.059 20.0853C112.248 19.9078 113.195 21.0665 112.784 22.1966L95.5688 69.538C95.3617 70.1077 94.848 70.5096 94.2452 70.5735Z" fill="url(#paint3_linear_4337_1695)" shape-rendering="crispEdges"/>
<path d="M111.088 20.2817C112.128 20.1264 112.957 21.1397 112.598 22.1284L95.3828 69.4702C95.2016 69.9686 94.7519 70.3204 94.2246 70.3765L46.9619 75.3892C45.9409 75.4971 45.1598 74.4973 45.5117 73.5327L62.0107 28.3394C62.1852 27.8616 62.6074 27.517 63.1104 27.4419L111.088 20.2817Z" stroke="url(#paint4_linear_4337_1695)" stroke-width="0.396626" shape-rendering="crispEdges"/>
</g>
<path d="M62.7411 61.4917L57.8555 62.4397L75.9825 36.688L81.633 35.5916L81.3089 57.8889L76.4233 58.8369L77.0132 41.0478L76.8158 41.0861L62.7411 61.4917ZM66.5211 52.0404L79.8455 49.4549L78.5023 52.9509L65.1779 55.5363L66.5211 52.0404ZM98.4458 32.3293L89.2141 56.355L84.6369 57.2431L93.8686 33.2174L98.4458 32.3293Z" fill="url(#paint5_linear_4337_1695)"/>
<g filter="url(#filter2_d_4337_1695)">
<path d="M101.754 79.8422L95.5097 70.7597C95.2193 70.3372 95.1509 69.8005 95.3261 69.3187L112.497 22.0995C112.93 20.9078 114.517 20.6809 115.267 21.7035L121.476 30.1699C121.787 30.5949 121.868 31.1469 121.69 31.6431L104.555 79.4784C104.119 80.6962 102.487 80.9081 101.754 79.8422Z" fill="url(#paint6_linear_4337_1695)" shape-rendering="crispEdges"/>
<path d="M112.683 22.1677C113.062 21.125 114.451 20.9263 115.107 21.821L121.315 30.2869C121.588 30.6587 121.658 31.1418 121.503 31.5759L104.368 79.4119C103.986 80.4771 102.558 80.6628 101.917 79.7302L95.6729 70.6472C95.4188 70.2776 95.3594 69.808 95.5127 69.3865L112.683 22.1677Z" stroke="url(#paint7_linear_4337_1695)" stroke-width="0.396626" shape-rendering="crispEdges"/>
</g>
<path d="M51.191 87.0124L49.6523 84.7043L101.968 80.0882L120.433 28.5417L121.971 30.8498L103.507 82.3963L51.191 87.0124Z" fill="#0E0F1F"/>
<path d="M39.8828 22.3955C39.8828 22.3955 43.2376 20.5268 44.9492 18.8108C46.6482 17.1074 48.5011 13.7772 48.5011 13.7772C48.5011 13.7772 50.4049 17.1012 52.1187 18.8108C53.8198 20.5078 57.1193 22.3955 57.1193 22.3955C57.1193 22.3955 53.8198 24.2833 52.1187 25.9802C50.4049 27.6899 48.5011 31.0138 48.5011 31.0138C48.5011 31.0138 46.6482 27.6836 44.9492 25.9802C43.2376 24.2642 39.8828 22.3955 39.8828 22.3955Z" fill="url(#paint8_linear_4337_1695)"/>
<path d="M52.5117 11.7346C52.5117 11.7346 54.3548 10.708 55.2951 9.76523C56.2285 8.82944 57.2464 6.9999 57.2464 6.9999C57.2464 6.9999 58.2924 8.826 59.2339 9.76523C60.1685 10.6975 61.9812 11.7346 61.9812 11.7346C61.9812 11.7346 60.1685 12.7717 59.2339 13.704C58.2924 14.6432 57.2464 16.4693 57.2464 16.4693C57.2464 16.4693 56.2285 14.6398 55.2951 13.704C54.3548 12.7613 52.5117 11.7346 52.5117 11.7346Z" fill="url(#paint9_linear_4337_1695)"/>
<defs>
<filter id="filter0_d_4337_1695" x="27.3787" y="2.37845" width="98.7654" height="88.9156" filterUnits="userSpaceOnUse" color-interpolation-filters="sRGB">
<feFlood flood-opacity="0" result="BackgroundImageFix"/>
<feColorMatrix in="SourceAlpha" type="matrix" values="0 0 0 0 0 0 0 0 0 0 0 0 0 0 0 0 0 0 127 0" result="hardAlpha"/>
<feOffset dx="-6.34601" dy="-6.34601"/>
<feGaussianBlur stdDeviation="5.35445"/>
<feComposite in2="hardAlpha" operator="out"/>
<feColorMatrix type="matrix" values="0 0 0 0 0 0 0 0 0 0 0 0 0 0 0 0 0 0 0.25 0"/>
<feBlend mode="normal" in2="BackgroundImageFix" result="effect1_dropShadow_4337_1695"/>
<feBlend mode="normal" in="SourceGraphic" in2="effect1_dropShadow_4337_1695" result="shape"/>
</filter>
<filter id="filter1_d_4337_1695" x="28.1717" y="3.01224" width="89.074" height="76.9461" filterUnits="userSpaceOnUse" color-interpolation-filters="sRGB">
<feFlood flood-opacity="0" result="BackgroundImageFix"/>
<feColorMatrix in="SourceAlpha" type="matrix" values="0 0 0 0 0 0 0 0 0 0 0 0 0 0 0 0 0 0 127 0" result="hardAlpha"/>
<feOffset dx="-6.34601" dy="-6.34601"/>
<feGaussianBlur stdDeviation="5.35445"/>
<feComposite in2="hardAlpha" operator="out"/>
<feColorMatrix type="matrix" values="0 0 0 0 0 0 0 0 0 0 0 0 0 0 0 0 0 0 0.25 0"/>
<feBlend mode="normal" in2="BackgroundImageFix" result="effect1_dropShadow_4337_1695"/>
<feBlend mode="normal" in="SourceGraphic" in2="effect1_dropShadow_4337_1695" result="shape"/>
</filter>
<filter id="filter2_d_4337_1695" x="78.1756" y="4.00003" width="47.9686" height="80.8931" filterUnits="userSpaceOnUse" color-interpolation-filters="sRGB">
<feFlood flood-opacity="0" result="BackgroundImageFix"/>
<feColorMatrix in="SourceAlpha" type="matrix" values="0 0 0 0 0 0 0 0 0 0 0 0 0 0 0 0 0 0 127 0" result="hardAlpha"/>
<feOffset dx="-6.34601" dy="-6.34601"/>
<feGaussianBlur stdDeviation="5.35445"/>
<feComposite in2="hardAlpha" operator="out"/>
<feColorMatrix type="matrix" values="0 0 0 0 0 0 0 0 0 0 0 0 0 0 0 0 0 0 0.25 0"/>
<feBlend mode="normal" in2="BackgroundImageFix" result="effect1_dropShadow_4337_1695"/>
<feBlend mode="normal" in="SourceGraphic" in2="effect1_dropShadow_4337_1695" result="shape"/>
</filter>
<linearGradient id="paint0_linear_4337_1695" x1="79" y1="51" x2="79" y2="120.5" gradientUnits="userSpaceOnUse">
<stop stop-color="#A992EB" stop-opacity="0"/>
<stop offset="1" stop-color="#CBF0D1"/>
</linearGradient>
<linearGradient id="paint1_linear_4337_1695" x1="119.34" y1="3.31203" x2="63.8607" y2="89.6192" gradientUnits="userSpaceOnUse">
<stop stop-color="#151825" stop-opacity="0.1"/>
<stop offset="0.736825" stop-color="#151825"/>
<stop offset="1" stop-color="#423972"/>
</linearGradient>
<linearGradient id="paint2_linear_4337_1695" x1="46.1197" y1="19.3093" x2="132.242" y2="54.0929" gradientUnits="userSpaceOnUse">
<stop stop-color="#595D6C"/>
<stop offset="1" stop-color="#4A3B87" stop-opacity="0.18"/>
</linearGradient>
<linearGradient id="paint3_linear_4337_1695" x1="111.348" y1="6.42141" x2="66.7652" y2="80.9221" gradientUnits="userSpaceOnUse">
<stop stop-color="#151825" stop-opacity="0.1"/>
<stop offset="0.736825" stop-color="#151825"/>
<stop offset="1" stop-color="#1A162E"/>
</linearGradient>
<linearGradient id="paint4_linear_4337_1695" x1="46.1018" y1="19.6919" x2="121.223" y2="52.2833" gradientUnits="userSpaceOnUse">
<stop stop-color="#595D6C"/>
<stop offset="1" stop-color="#4A3B87" stop-opacity="0.18"/>
</linearGradient>
<linearGradient id="paint5_linear_4337_1695" x1="96.8285" y1="44.0792" x2="68.3302" y2="33.1289" gradientUnits="userSpaceOnUse">
<stop stop-color="#AA83FF"/>
<stop offset="1" stop-color="#D0FFCC"/>
</linearGradient>
<linearGradient id="paint6_linear_4337_1695" x1="121.061" y1="4.40275" x2="71.7973" y2="32.9039" gradientUnits="userSpaceOnUse">
<stop stop-color="#151825" stop-opacity="0.1"/>
<stop offset="0.736825" stop-color="#151825"/>
<stop offset="1" stop-color="#1A162E"/>
</linearGradient>
<linearGradient id="paint7_linear_4337_1695" x1="95.688" y1="19.3093" x2="129.635" y2="24.4082" gradientUnits="userSpaceOnUse">
<stop stop-color="#595D6C"/>
<stop offset="1" stop-color="#4A3B87" stop-opacity="0.18"/>
</linearGradient>
<linearGradient id="paint8_linear_4337_1695" x1="52.8102" y1="18.0864" x2="44.1919" y2="26.7046" gradientUnits="userSpaceOnUse">
<stop stop-color="#AA83FF"/>
<stop offset="1" stop-color="#D0FFCC"/>
</linearGradient>
<linearGradient id="paint9_linear_4337_1695" x1="59.6138" y1="9.36726" x2="54.8791" y2="14.102" gradientUnits="userSpaceOnUse">
<stop stop-color="#AA83FF"/>
<stop offset="1" stop-color="#D0FFCC"/>
</linearGradient>
</defs>
</svg>
