<svg width="162" height="172" viewBox="0 0 162 172" fill="none" xmlns="http://www.w3.org/2000/svg">
<path d="M27 131.769L81.4012 164.196L134.707 131.718V111.107L81.4087 76.7539L27 110.898V131.769Z" fill="#272727"/>
<path d="M63.2266 132.271V140.877L65.7249 143.375V154.757" stroke="#474747" stroke-width="0.555191" stroke-linecap="round"/>
<path d="M36.3008 124.222V121.168L39.3543 123.389V126.165L36.3008 124.222Z" fill="#ADA1C3"/>
<path d="M42.6836 127.831V124.777L45.7371 126.998V129.774L42.6836 127.831Z" fill="#ADA1C3"/>
<path d="M48.7891 131.163V128.109L51.8426 130.33V133.106L48.7891 131.163Z" fill="#ADA1C3"/>
<path d="M54.8984 134.493V131.439L57.952 133.66V136.436L54.8984 134.493Z" fill="#ADA1C3"/>
<path d="M72.6641 158.922V138.188L73.4968 138.658V159.477L72.6641 158.922Z" fill="#474747"/>
<path d="M75.44 160.588V139.889L77.3832 140.968V161.976L75.44 160.588Z" fill="#474747"/>
<path d="M81.2695 164.197V143.378L134.707 110.898V131.718L81.2695 164.197Z" fill="#272727"/>
<path d="M27 110.894L81.4012 143.932L134.707 110.894L81.4012 76.7539L27 110.894Z" fill="#323232"/>
<path d="M39.9102 110.344L81.2719 135.327L121.801 110.344L81.2719 84.5273L39.9102 110.344Z" fill="#3B3B3B"/>
<path d="M43.1016 112.286L81.2723 135.604L118.608 112.286L81.2723 89.5234L43.1016 112.286Z" fill="black"/>
<g style="mix-blend-mode:screen" opacity="0.2">
<path d="M82 136L43 111.5L16.5 66.5H142.5L119 111.5L82 136Z" fill="url(#paint0_linear_4337_1784)"/>
</g>
<path d="M81.2699 160.032L27 127.553V131.717L81.2699 164.196L134.707 131.717V127.553L81.2699 160.032Z" fill="#474747"/>
<path d="M121.246 118.947V126.442L124.577 128.108V137.824" stroke="#474747" stroke-width="0.555191" stroke-linecap="round"/>
<path d="M89.875 145.319V140.6L98.0488 135.881V140.6L89.875 145.319Z" fill="#474747" stroke="#474747" stroke-width="0.555191" stroke-linecap="round"/>
<path d="M76.8667 114.882L41.6797 94.2167L68.7654 78.418L76.8667 114.882Z" fill="black" fill-opacity="0.4"/>
<g filter="url(#filter0_d_4337_1784)">
<path d="M68.7614 78.4167L40 95.3334L60.1069 43.3906L68.7614 78.4167Z" fill="url(#paint1_linear_4337_1784)" shape-rendering="crispEdges"/>
<path d="M68.5137 78.3125L40.4248 94.833L60.0605 44.1045L68.5137 78.3125Z" stroke="url(#paint2_linear_4337_1784)" stroke-width="0.430399" shape-rendering="crispEdges"/>
</g>
<g filter="url(#filter1_d_4337_1784)">
<path d="M76.4479 113.746L60.3858 44.6147C60.2165 43.8858 60.5374 43.131 61.1798 42.7472L101.081 18.9106C102.083 18.3119 103.378 18.8632 103.641 20.0005L120.126 91.2606C120.301 92.0169 119.949 92.7966 119.265 93.1646L78.9409 114.872C77.9418 115.41 76.7047 114.851 76.4479 113.746Z" fill="url(#paint3_linear_4337_1784)" shape-rendering="crispEdges"/>
<path d="M101.191 19.0957C102.068 18.5719 103.201 19.0537 103.432 20.0488L119.917 91.3096C120.07 91.9711 119.761 92.6527 119.163 92.9746L78.8389 114.683C77.9647 115.153 76.8819 114.664 76.6572 113.697L60.5957 44.5664C60.4475 43.9286 60.7279 43.2675 61.29 42.9316L101.191 19.0957Z" stroke="url(#paint4_linear_4337_1784)" stroke-width="0.430399" shape-rendering="crispEdges"/>
</g>
<path d="M120.428 92.5422L76.8631 116L75.7461 110.415L118.752 86.3984L120.428 92.5422Z" fill="black"/>
<path d="M76.0202 78.1055L72.3079 76.4914C72.0849 76.3944 72.0065 76.0801 72.1329 75.7894L72.5906 74.7368C72.7169 74.4462 73.0002 74.2891 73.2233 74.3861L75.7241 75.4735L78.7593 68.4929C78.8857 68.2022 79.169 68.0452 79.392 68.1421L80.1997 68.4934C80.4228 68.5903 80.5011 68.9046 80.3747 69.1953L76.6529 77.7548C76.5265 78.0455 76.2433 78.2025 76.0202 78.1055Z" fill="url(#paint5_linear_4337_1784)"/>
<rect width="26.5988" height="2.04606" transform="matrix(0.87462 -0.48481 0.241922 0.970296 84.1562 65.7852)" fill="url(#paint6_linear_4337_1784)"/>
<rect width="16.3685" height="2.04606" transform="matrix(0.87462 -0.48481 0.241922 0.970296 85.2461 70.1562)" fill="url(#paint7_linear_4337_1784)"/>
<path d="M70.5866 60.6719L66.8743 59.0578C66.6513 58.9608 66.5729 58.6465 66.6993 58.3559L67.157 57.3032C67.2833 57.0126 67.5666 56.8555 67.7897 56.9525L70.2905 58.0399L73.3257 51.0593C73.4521 50.7686 73.7354 50.6116 73.9584 50.7086L74.7661 51.0598C74.9892 51.1567 75.0675 51.471 74.9411 51.7617L71.2193 60.3212C71.0929 60.6119 70.8097 60.7689 70.5866 60.6719Z" fill="url(#paint8_linear_4337_1784)"/>
<rect width="26.5988" height="2.04606" transform="matrix(0.87462 -0.48481 0.241922 0.970296 78.7227 48.3516)" fill="url(#paint9_linear_4337_1784)"/>
<rect width="16.3685" height="2.04606" transform="matrix(0.87462 -0.48481 0.241922 0.970296 79.8125 52.7227)" fill="url(#paint10_linear_4337_1784)"/>
<path d="M80.3796 95.586L76.6673 93.9718C76.4442 93.8748 76.3659 93.5606 76.4923 93.2699L76.9499 92.2173C77.0763 91.9266 77.3596 91.7696 77.5826 91.8666L80.0834 92.954L83.1187 85.9733C83.2451 85.6827 83.5284 85.5256 83.7514 85.6226L84.5591 85.9738C84.7821 86.0708 84.8605 86.3851 84.7341 86.6757L81.0123 95.2353C80.8859 95.526 80.6026 95.683 80.3796 95.586Z" fill="url(#paint11_linear_4337_1784)"/>
<rect width="26.5988" height="2.04606" transform="matrix(0.87462 -0.48481 0.241922 0.970296 88.5156 83.2715)" fill="url(#paint12_linear_4337_1784)"/>
<rect width="16.3685" height="2.04606" transform="matrix(0.87462 -0.48481 0.241922 0.970296 89.6016 87.6387)" fill="url(#paint13_linear_4337_1784)"/>
<path d="M76.3045 36.6859L75.1875 30.5421L86.9165 23.8398L88.0336 29.9836L76.3045 36.6859Z" fill="url(#paint14_linear_4337_1784)"/>
<defs>
<filter id="filter0_d_4337_1784" x="21.4928" y="24.8835" width="52.0033" height="75.1842" filterUnits="userSpaceOnUse" color-interpolation-filters="sRGB">
<feFlood flood-opacity="0" result="BackgroundImageFix"/>
<feColorMatrix in="SourceAlpha" type="matrix" values="0 0 0 0 0 0 0 0 0 0 0 0 0 0 0 0 0 0 127 0" result="hardAlpha"/>
<feOffset dx="-6.88638" dy="-6.88638"/>
<feGaussianBlur stdDeviation="5.81039"/>
<feComposite in2="hardAlpha" operator="out"/>
<feColorMatrix type="matrix" values="0 0 0 0 0 0 0 0 0 0 0 0 0 0 0 0 0 0 0.25 0"/>
<feBlend mode="normal" in2="BackgroundImageFix" result="effect1_dropShadow_4337_1784"/>
<feBlend mode="normal" in="SourceGraphic" in2="effect1_dropShadow_4337_1784" result="shape"/>
</filter>
<filter id="filter1_d_4337_1784" x="41.8327" y="0.158617" width="83.0736" height="119.655" filterUnits="userSpaceOnUse" color-interpolation-filters="sRGB">
<feFlood flood-opacity="0" result="BackgroundImageFix"/>
<feColorMatrix in="SourceAlpha" type="matrix" values="0 0 0 0 0 0 0 0 0 0 0 0 0 0 0 0 0 0 127 0" result="hardAlpha"/>
<feOffset dx="-6.88638" dy="-6.88638"/>
<feGaussianBlur stdDeviation="5.81039"/>
<feComposite in2="hardAlpha" operator="out"/>
<feColorMatrix type="matrix" values="0 0 0 0 0 0 0 0 0 0 0 0 0 0 0 0 0 0 0.25 0"/>
<feBlend mode="normal" in2="BackgroundImageFix" result="effect1_dropShadow_4337_1784"/>
<feBlend mode="normal" in="SourceGraphic" in2="effect1_dropShadow_4337_1784" result="shape"/>
</filter>
<linearGradient id="paint0_linear_4337_1784" x1="79.5" y1="66.5" x2="79.5" y2="136" gradientUnits="userSpaceOnUse">
<stop stop-color="#A992EB" stop-opacity="0"/>
<stop offset="1" stop-color="#CBF0D1"/>
</linearGradient>
<linearGradient id="paint1_linear_4337_1784" x1="67.7865" y1="31.1172" x2="22.8607" y2="64.8351" gradientUnits="userSpaceOnUse">
<stop stop-color="#151825" stop-opacity="0.1"/>
<stop offset="0.736825" stop-color="#151825"/>
<stop offset="1" stop-color="#423972"/>
</linearGradient>
<linearGradient id="paint2_linear_4337_1784" x1="40.6848" y1="43.3906" x2="76.4058" y2="50.3509" gradientUnits="userSpaceOnUse">
<stop stop-color="#595D6C"/>
<stop offset="1" stop-color="#4A3B87" stop-opacity="0.18"/>
</linearGradient>
<linearGradient id="paint3_linear_4337_1784" x1="118.378" y1="-5.51376" x2="31.3566" y2="66.9103" gradientUnits="userSpaceOnUse">
<stop stop-color="#151825" stop-opacity="0.1"/>
<stop offset="0.736825" stop-color="#151825"/>
<stop offset="1" stop-color="#423972"/>
</linearGradient>
<linearGradient id="paint4_linear_4337_1784" x1="61.5378" y1="17.6992" x2="135.831" y2="33.7519" gradientUnits="userSpaceOnUse">
<stop stop-color="#595D6C"/>
<stop offset="1" stop-color="#4A3B87" stop-opacity="0.18"/>
</linearGradient>
<linearGradient id="paint5_linear_4337_1784" x1="81.0423" y1="71.2746" x2="71.4541" y2="73.6652" gradientUnits="userSpaceOnUse">
<stop stop-color="#AA83FF"/>
<stop offset="1" stop-color="#D0FFCC"/>
</linearGradient>
<linearGradient id="paint6_linear_4337_1784" x1="26.5988" y1="1.02303" x2="0" y2="1.02303" gradientUnits="userSpaceOnUse">
<stop stop-color="#AA83FF"/>
<stop offset="1" stop-color="#D0FFCC"/>
</linearGradient>
<linearGradient id="paint7_linear_4337_1784" x1="16.3685" y1="1.02303" x2="0" y2="1.02303" gradientUnits="userSpaceOnUse">
<stop stop-color="#AA83FF"/>
<stop offset="1" stop-color="#D0FFCC"/>
</linearGradient>
<linearGradient id="paint8_linear_4337_1784" x1="75.6087" y1="53.841" x2="66.0205" y2="56.2316" gradientUnits="userSpaceOnUse">
<stop stop-color="#AA83FF"/>
<stop offset="1" stop-color="#D0FFCC"/>
</linearGradient>
<linearGradient id="paint9_linear_4337_1784" x1="26.5988" y1="1.02303" x2="0" y2="1.02303" gradientUnits="userSpaceOnUse">
<stop stop-color="#AA83FF"/>
<stop offset="1" stop-color="#D0FFCC"/>
</linearGradient>
<linearGradient id="paint10_linear_4337_1784" x1="16.3685" y1="1.02303" x2="0" y2="1.02303" gradientUnits="userSpaceOnUse">
<stop stop-color="#AA83FF"/>
<stop offset="1" stop-color="#D0FFCC"/>
</linearGradient>
<linearGradient id="paint11_linear_4337_1784" x1="85.4017" y1="88.755" x2="75.8135" y2="91.1457" gradientUnits="userSpaceOnUse">
<stop stop-color="#AA83FF"/>
<stop offset="1" stop-color="#D0FFCC"/>
</linearGradient>
<linearGradient id="paint12_linear_4337_1784" x1="26.5988" y1="1.02303" x2="0" y2="1.02303" gradientUnits="userSpaceOnUse">
<stop stop-color="#AA83FF"/>
<stop offset="1" stop-color="#D0FFCC"/>
</linearGradient>
<linearGradient id="paint13_linear_4337_1784" x1="16.3685" y1="1.02303" x2="0" y2="1.02303" gradientUnits="userSpaceOnUse">
<stop stop-color="#AA83FF"/>
<stop offset="1" stop-color="#D0FFCC"/>
</linearGradient>
<linearGradient id="paint14_linear_4337_1784" x1="88.0336" y1="30.2629" x2="75.1875" y2="30.2629" gradientUnits="userSpaceOnUse">
<stop stop-color="#AA83FF"/>
<stop offset="1" stop-color="#D0FFCC"/>
</linearGradient>
</defs>
</svg>
