<svg width="162" height="170" viewBox="0 0 162 170" fill="none" xmlns="http://www.w3.org/2000/svg">
<path d="M27 129.769L81.4012 162.196L134.707 129.718V109.107L81.4087 74.7537L27 108.898V129.769Z" fill="#272727"/>
<path d="M63.2266 130.272V138.877L65.7249 141.376V152.757" stroke="#474747" stroke-width="0.555191" stroke-linecap="round"/>
<path d="M36.3008 122.222V119.168L39.3543 121.389V124.165L36.3008 122.222Z" fill="#ADA1C3"/>
<path d="M42.6836 125.831V122.778L45.7371 124.999V127.775L42.6836 125.831Z" fill="#ADA1C3"/>
<path d="M48.7891 129.162V126.109L51.8426 128.33V131.106L48.7891 129.162Z" fill="#ADA1C3"/>
<path d="M54.8984 132.493V129.44L57.952 131.661V134.437L54.8984 132.493Z" fill="#ADA1C3"/>
<path d="M72.6641 156.922V136.187L73.4968 136.657V157.477L72.6641 156.922Z" fill="#474747"/>
<path d="M75.44 158.588V137.889L77.3832 138.967V159.976L75.44 158.588Z" fill="#474747"/>
<path d="M81.2695 162.196V141.377L134.707 108.897V129.717L81.2695 162.196Z" fill="#272727"/>
<path d="M27 108.893L81.4012 141.932L134.707 108.893L81.4012 74.7537L27 108.893Z" fill="#323232"/>
<path d="M39.9102 108.343L81.2719 133.327L121.801 108.343L81.2719 82.5266L39.9102 108.343Z" fill="#3B3B3B"/>
<path d="M43.1016 110.286L81.2723 133.604L118.608 110.286L81.2723 87.5232L43.1016 110.286Z" fill="black"/>
<g style="mix-blend-mode:screen" opacity="0.2">
<path d="M82 134L43 109.5L16.5 64.5H142.5L119 109.5L82 134Z" fill="url(#paint0_linear_4337_1663)"/>
</g>
<path d="M81.2699 158.032L27 125.553V129.717L81.2699 162.196L134.707 129.717V125.553L81.2699 158.032Z" fill="#474747"/>
<path d="M121.246 116.948V124.443L124.577 126.108V135.824" stroke="#474747" stroke-width="0.555191" stroke-linecap="round"/>
<path d="M89.875 143.32V138.601L98.0488 133.882V138.601L89.875 143.32Z" fill="#474747" stroke="#474747" stroke-width="0.555191" stroke-linecap="round"/>
<g filter="url(#filter0_d_4337_1663)">
<path d="M120.999 87.3966L80.7031 110.195V86.8664L99.7905 76.2623V53.4636L120.468 41.7991L120.999 87.3966Z" fill="url(#paint1_linear_4337_1663)" shape-rendering="crispEdges"/>
<path d="M120.786 87.2756L80.9131 109.835V86.9895L99.8926 76.4456L100.001 76.386V53.5852L120.262 42.1555L120.786 87.2756Z" stroke="url(#paint2_linear_4337_1663)" stroke-width="0.420323" shape-rendering="crispEdges"/>
</g>
<g filter="url(#filter1_d_4337_1663)">
<path d="M80.7049 110.195L42 87.3966V41.7991L61.6175 53.4636V76.2623L80.7049 86.8664V110.195Z" fill="url(#paint3_linear_4337_1663)" shape-rendering="crispEdges"/>
<path d="M61.4072 53.5823V76.386L61.5156 76.4456L80.4951 86.9895V109.827L42.21 87.2756V42.1682L61.4072 53.5823Z" stroke="url(#paint4_linear_4337_1663)" stroke-width="0.420323" shape-rendering="crispEdges"/>
</g>
<g filter="url(#filter2_d_4337_1663)">
<path d="M80.8727 41.7988L61.6175 53.4633L42 41.7988L81.2351 19L120.47 41.7988L99.735 53.6082L80.8727 41.7988Z" fill="url(#paint5_linear_4337_1663)" shape-rendering="crispEdges"/>
<path d="M120.048 41.7969L99.7402 53.3623L80.9844 41.6211L80.875 41.5518L80.7637 41.6191L61.6162 53.2178L42.4141 41.8008L81.2344 19.2422L120.048 41.7969Z" stroke="url(#paint6_linear_4337_1663)" stroke-width="0.420323" shape-rendering="crispEdges"/>
</g>
<path d="M80.7109 41.6355V65.0903L99.9013 76.2437V53.609L80.7109 41.6355Z" fill="url(#paint7_linear_4337_1663)"/>
<path d="M81.2386 64.5964L61.6211 76.2609L80.7115 86.9031L99.9018 76.2418L81.2386 64.5964Z" fill="url(#paint8_linear_4337_1663)"/>
<path d="M61.6211 76.2634V53.4646L80.7115 41.7673V64.9269L61.6211 76.2634Z" fill="url(#paint9_linear_4337_1663)"/>
<path d="M61.6836 53.6067L80.7099 64.8479M80.7099 64.8479L99.9002 53.6067M80.7099 64.8479V86.9027" stroke="#2D2D2D" stroke-width="0.32804"/>
<path d="M100.884 30.8102L80.874 41.7996L62.0117 30.4822" stroke="#282828" stroke-width="0.65608"/>
<path d="M99.793 98.7138V76.2593L120.238 64.458" stroke="#282828" stroke-width="0.65608"/>
<path d="M61.6248 98.5482V76.2556L42.332 65.124" stroke="#282828" stroke-width="0.65608"/>
<defs>
<filter id="filter0_d_4337_1663" x="62.6292" y="23.7252" width="62.9943" height="91.0937" filterUnits="userSpaceOnUse" color-interpolation-filters="sRGB">
<feFlood flood-opacity="0" result="BackgroundImageFix"/>
<feColorMatrix in="SourceAlpha" type="matrix" values="0 0 0 0 0 0 0 0 0 0 0 0 0 0 0 0 0 0 127 0" result="hardAlpha"/>
<feOffset dx="-6.72518" dy="-6.72518"/>
<feGaussianBlur stdDeviation="5.67437"/>
<feComposite in2="hardAlpha" operator="out"/>
<feColorMatrix type="matrix" values="0 0 0 0 0 0 0 0 0 0 0 0 0 0 0 0 0 0 0.25 0"/>
<feBlend mode="normal" in2="BackgroundImageFix" result="effect1_dropShadow_4337_1663"/>
<feBlend mode="normal" in="SourceGraphic" in2="effect1_dropShadow_4337_1663" result="shape"/>
</filter>
<filter id="filter1_d_4337_1663" x="23.9261" y="23.7252" width="61.4006" height="91.0937" filterUnits="userSpaceOnUse" color-interpolation-filters="sRGB">
<feFlood flood-opacity="0" result="BackgroundImageFix"/>
<feColorMatrix in="SourceAlpha" type="matrix" values="0 0 0 0 0 0 0 0 0 0 0 0 0 0 0 0 0 0 127 0" result="hardAlpha"/>
<feOffset dx="-6.72518" dy="-6.72518"/>
<feGaussianBlur stdDeviation="5.67437"/>
<feComposite in2="hardAlpha" operator="out"/>
<feColorMatrix type="matrix" values="0 0 0 0 0 0 0 0 0 0 0 0 0 0 0 0 0 0 0.25 0"/>
<feBlend mode="normal" in2="BackgroundImageFix" result="effect1_dropShadow_4337_1663"/>
<feBlend mode="normal" in="SourceGraphic" in2="effect1_dropShadow_4337_1663" result="shape"/>
</filter>
<filter id="filter2_d_4337_1663" x="23.9261" y="0.926091" width="101.166" height="57.3056" filterUnits="userSpaceOnUse" color-interpolation-filters="sRGB">
<feFlood flood-opacity="0" result="BackgroundImageFix"/>
<feColorMatrix in="SourceAlpha" type="matrix" values="0 0 0 0 0 0 0 0 0 0 0 0 0 0 0 0 0 0 127 0" result="hardAlpha"/>
<feOffset dx="-6.72518" dy="-6.72518"/>
<feGaussianBlur stdDeviation="5.67437"/>
<feComposite in2="hardAlpha" operator="out"/>
<feColorMatrix type="matrix" values="0 0 0 0 0 0 0 0 0 0 0 0 0 0 0 0 0 0 0.25 0"/>
<feBlend mode="normal" in2="BackgroundImageFix" result="effect1_dropShadow_4337_1663"/>
<feBlend mode="normal" in="SourceGraphic" in2="effect1_dropShadow_4337_1663" result="shape"/>
</filter>
<linearGradient id="paint0_linear_4337_1663" x1="79.5" y1="64.5" x2="79.5" y2="134" gradientUnits="userSpaceOnUse">
<stop stop-color="#A992EB" stop-opacity="0"/>
<stop offset="1" stop-color="#CBF0D1"/>
</linearGradient>
<linearGradient id="paint1_linear_4337_1663" x1="119.633" y1="25.6379" x2="59.5499" y2="73.617" gradientUnits="userSpaceOnUse">
<stop stop-color="#151825" stop-opacity="0.1"/>
<stop offset="0.736825" stop-color="#151825"/>
<stop offset="1" stop-color="#423972"/>
</linearGradient>
<linearGradient id="paint2_linear_4337_1663" x1="81.6626" y1="41.7991" x2="131.468" y2="52.1248" gradientUnits="userSpaceOnUse">
<stop stop-color="#595D6C"/>
<stop offset="1" stop-color="#4A3B87" stop-opacity="0.18"/>
</linearGradient>
<linearGradient id="paint3_linear_4337_1663" x1="79.3929" y1="25.6379" x2="19.8886" y2="71.2793" gradientUnits="userSpaceOnUse">
<stop stop-color="#151825" stop-opacity="0.1"/>
<stop offset="0.736825" stop-color="#151825"/>
<stop offset="1" stop-color="#423972"/>
</linearGradient>
<linearGradient id="paint4_linear_4337_1663" x1="42.9216" y1="41.7991" x2="90.914" y2="51.3562" gradientUnits="userSpaceOnUse">
<stop stop-color="#595D6C"/>
<stop offset="1" stop-color="#4A3B87" stop-opacity="0.18"/>
</linearGradient>
<linearGradient id="paint5_linear_4337_1663" x1="117.81" y1="10.8225" x2="99.4653" y2="67.2017" gradientUnits="userSpaceOnUse">
<stop stop-color="#151825" stop-opacity="0.1"/>
<stop offset="0.736825" stop-color="#151825"/>
<stop offset="1" stop-color="#423972"/>
</linearGradient>
<linearGradient id="paint6_linear_4337_1663" x1="43.8684" y1="19" x2="105.677" y2="68.3167" gradientUnits="userSpaceOnUse">
<stop stop-color="#595D6C"/>
<stop offset="1" stop-color="#4A3B87" stop-opacity="0.18"/>
</linearGradient>
<linearGradient id="paint7_linear_4337_1663" x1="99.9013" y1="58.9396" x2="80.7109" y2="58.9396" gradientUnits="userSpaceOnUse">
<stop stop-color="#AA83FF"/>
<stop offset="1" stop-color="#D0FFCC"/>
</linearGradient>
<linearGradient id="paint8_linear_4337_1663" x1="99.9018" y1="75.7498" x2="61.6211" y2="75.7498" gradientUnits="userSpaceOnUse">
<stop stop-color="#AA83FF"/>
<stop offset="1" stop-color="#D0FFCC"/>
</linearGradient>
<linearGradient id="paint9_linear_4337_1663" x1="80.7115" y1="59.0154" x2="61.6211" y2="59.0154" gradientUnits="userSpaceOnUse">
<stop stop-color="#AA83FF"/>
<stop offset="1" stop-color="#D0FFCC"/>
</linearGradient>
</defs>
</svg>
