<svg width="87" height="22" viewBox="0 0 87 22" fill="none" xmlns="http://www.w3.org/2000/svg">
<g clip-path="url(#clip0_2272_10081)">
<mask id="mask0_2272_10081" style="mask-type:luminance" maskUnits="userSpaceOnUse" x="0" y="0" width="87" height="22">
<path d="M87 0.00720215H0V21.1474H87V0.00720215Z" fill="white"/>
</mask>
<g mask="url(#mask0_2272_10081)">
<path d="M32.7417 8.60161C32.7417 9.32209 32.5724 9.98061 32.2339 10.5772C31.9066 11.1626 31.4046 11.6354 30.7275 11.9956C30.0617 12.3446 29.2436 12.5191 28.2732 12.5191H26.6314V16.5379H23.314V4.63342H28.2732C29.2323 4.63342 30.0448 4.80228 30.7106 5.14C31.3876 5.47773 31.8954 5.94488 32.2339 6.5415C32.5724 7.13814 32.7417 7.82483 32.7417 8.60161ZM27.9516 9.8849C28.8882 9.8849 29.3565 9.45714 29.3565 8.60161C29.3565 7.73477 28.8882 7.3014 27.9516 7.3014H26.6314V9.8849H27.9516Z" fill="white"/>
<path d="M38.5753 16.652C37.1874 16.652 36.0477 16.3255 35.1562 15.6725C34.2648 15.0084 33.7853 14.0628 33.7175 12.8358H37.2551C37.2889 13.2523 37.4131 13.5562 37.6275 13.7476C37.8418 13.939 38.1183 14.0347 38.4568 14.0347C38.7615 14.0347 39.0097 13.9615 39.2016 13.8151C39.4046 13.6575 39.5062 13.4436 39.5062 13.1735C39.5062 12.8245 39.3426 12.5543 39.0154 12.363C38.6882 12.1716 38.1578 11.9576 37.4243 11.7213C36.6457 11.4624 36.0138 11.2147 35.5286 10.9783C35.0547 10.7306 34.6372 10.376 34.2761 9.91451C33.9263 9.4417 33.7514 8.82815 33.7514 8.07394C33.7514 7.30846 33.9432 6.65554 34.3269 6.1152C34.7105 5.56359 35.2409 5.14706 35.918 4.86563C36.595 4.58419 37.3623 4.44348 38.2199 4.44348C39.6078 4.44348 40.7136 4.76994 41.5374 5.42286C42.3724 6.06451 42.8181 6.97074 42.8745 8.1415H39.2693C39.258 7.78126 39.1452 7.51109 38.9308 7.33097C38.7277 7.15086 38.4624 7.0608 38.1353 7.0608C37.887 7.0608 37.6839 7.13394 37.5259 7.28028C37.3679 7.42663 37.2889 7.63491 37.2889 7.90508C37.2889 8.13022 37.3736 8.32721 37.5428 8.49609C37.7234 8.65374 37.9435 8.79441 38.2029 8.91824C38.4624 9.03077 38.8461 9.17713 39.3539 9.35722C40.1099 9.61619 40.7305 9.87508 41.2158 10.134C41.7123 10.3816 42.1354 10.7363 42.4853 11.1978C42.8463 11.6481 43.0269 12.2222 43.0269 12.9202C43.0269 13.6293 42.8463 14.2654 42.4853 14.8283C42.1354 15.3911 41.622 15.8358 40.945 16.1623C40.2792 16.4887 39.4894 16.652 38.5753 16.652Z" fill="white"/>
<path d="M53.557 4.63342V7.26762H50.3749V16.5379H47.0574V7.26762H43.9092V4.63342H53.557Z" fill="white"/>
<path d="M62.3336 14.5961H58.1022L57.459 16.5379H53.9722L58.3222 4.63342H62.1476L66.4807 16.5379H62.9768L62.3336 14.5961ZM61.5044 12.0632L60.218 8.2132L58.9484 12.0632H61.5044Z" fill="white"/>
<path d="M74.6202 16.5379L70.8796 11.3202V16.5379H67.5623V4.63342H70.8796V9.76668L74.5863 4.63342H78.4118L74.0279 10.4084L78.6317 16.5379H74.6202Z" fill="white"/>
<path d="M83.1605 7.28448V9.22639H86.969V11.7424H83.1605V13.8869H87.4763V16.5379H79.8433V4.63342H87.4763V7.28448H83.1605Z" fill="white"/>
<path d="M10.5968 21.1474C16.4493 21.1474 21.1937 16.415 21.1937 10.5773C21.1937 4.7396 16.4493 0.00720215 10.5968 0.00720215C4.74436 0.00720215 0 4.7396 0 10.5773C0 16.415 4.74436 21.1474 10.5968 21.1474Z" fill="white"/>
<path d="M15.2068 3.28137H5.98755V5.07828H15.2068V3.28137Z" fill="#E50913"/>
<path d="M10.7209 17.9309C9.86392 17.9309 9.09596 17.7894 8.41704 17.5063C7.73808 17.2234 7.19271 16.8045 6.78092 16.2499C6.3802 15.6952 6.16874 15.0273 6.14648 14.2463H9.185C9.22947 14.6878 9.37973 15.0273 9.63577 15.2651C9.89173 15.4914 10.2257 15.6046 10.6374 15.6046C11.0604 15.6046 11.3943 15.5084 11.6391 15.316C11.8839 15.1122 12.0064 14.8349 12.0064 14.4839C12.0064 14.1896 11.9063 13.9463 11.7059 13.7538C11.5167 13.5614 11.2774 13.4029 10.988 13.2784C10.7098 13.1539 10.3092 13.0124 9.78603 12.8539C9.02913 12.6162 8.41143 12.3785 7.93285 12.1408C7.45424 11.9031 7.04245 11.5521 6.69741 11.088C6.35238 10.6239 6.17987 10.0183 6.17987 9.27118C6.17987 8.16181 6.57497 7.29588 7.36522 6.6733C8.15547 6.03935 9.185 5.72241 10.4538 5.72241C11.7449 5.72241 12.7856 6.03935 13.5757 6.6733C14.366 7.29588 14.7889 8.1675 14.8445 9.28818H11.756C11.7338 8.90326 11.5947 8.60332 11.3386 8.38825C11.0827 8.16181 10.7543 8.04863 10.3536 8.04863C10.0086 8.04863 9.73033 8.14487 9.51885 8.33727C9.30745 8.51843 9.20166 8.78439 9.20166 9.13532C9.20166 9.52023 9.37973 9.82018 9.73586 10.0352C10.0921 10.2504 10.6485 10.4824 11.4054 10.7314C12.1623 10.9918 12.7744 11.2409 13.2419 11.4785C13.7205 11.7163 14.1323 12.0615 14.4773 12.5143C14.8224 12.9671 14.9948 13.5501 14.9948 14.2633C14.9948 14.9424 14.8224 15.5593 14.4773 16.114C14.1433 16.6687 13.6536 17.1102 13.0081 17.4384C12.3626 17.7667 11.6002 17.9309 10.7209 17.9309Z" fill="black"/>
</g>
</g>
<defs>
<clipPath id="clip0_2272_10081">
<rect width="87" height="21.1402" fill="white"/>
</clipPath>
</defs>
</svg>
