<svg width="34" height="37" viewBox="0 0 34 37" fill="none" xmlns="http://www.w3.org/2000/svg">
<path d="M10.3237 7.28571H23.6808C24.3487 7.28571 24.8951 6.73929 24.8951 6.07143V3.64286C24.8951 1.63929 23.2558 0 21.2522 0H12.7522C10.7487 0 9.10938 1.63929 9.10938 3.64286V6.07143C9.10938 6.73929 9.6558 7.28571 10.3237 7.28571Z" fill="#65DA01"/>
<path d="M30.3571 3.03516H29.1429C28.7786 3.03516 28.5357 3.27801 28.5357 3.6423V6.07087C28.5357 8.7423 26.35 10.928 23.6786 10.928H10.3214C7.65 10.928 5.46429 8.7423 5.46429 6.07087V3.6423C5.46429 3.27801 5.22143 3.03516 4.85714 3.03516H3.64286C1.63929 3.03516 0 4.67444 0 6.67801V32.7852C0 34.7887 1.63929 36.428 3.64286 36.428H30.3571C32.3607 36.428 34 34.7887 34 32.7852V6.67801C34 4.67444 32.3607 3.03516 30.3571 3.03516ZM25.6821 31.9352L24.8929 32.7244C24.7107 32.9066 24.3464 32.9066 24.1036 32.7244L19.1857 27.8066C17.7893 28.778 16.0286 29.3244 14.0857 29.0816C10.9286 28.6566 8.37857 25.9852 8.075 22.828C7.65 18.4566 11.3536 14.6923 15.725 15.178C18.9429 15.4816 21.5536 17.9709 21.9786 21.1887C22.2214 23.0709 21.7357 24.8923 20.7036 26.2887L25.6214 31.2066C25.925 31.328 25.925 31.6923 25.6821 31.9352Z" fill="#65DA01"/>
<path d="M15 18C12.7722 18 11 19.8228 11 22C11 24.2278 12.7722 26 15 26C17.2278 26 19 24.2278 19 22C19 19.7722 17.2278 18 15 18Z" fill="#65DA01"/>
</svg>
