<svg width="39" height="35" viewBox="0 0 39 35" fill="none" xmlns="http://www.w3.org/2000/svg">
<path fill-rule="evenodd" clip-rule="evenodd" d="M6.45783 15.0918C12.1486 5.03059 14.994 0 19.5 0C24.0059 0 26.8513 5.03059 32.5422 15.0918L33.2512 16.3456C37.9803 24.7063 40.3449 28.8867 38.2077 31.9433C36.0707 35 30.7835 35 20.2092 35H18.7908C8.21644 35 2.92923 35 0.792207 31.9433C-1.34484 28.8867 1.01967 24.7063 5.7487 16.3456L6.45783 15.0918ZM19.5 8.26389C20.3077 8.26389 20.9625 8.91681 20.9625 9.72222V19.4444C20.9625 20.2498 20.3077 20.9028 19.5 20.9028C18.6923 20.9028 18.0375 20.2498 18.0375 19.4444V9.72222C18.0375 8.91681 18.6923 8.26389 19.5 8.26389ZM19.5 27.2222C20.577 27.2222 21.45 26.3517 21.45 25.2778C21.45 24.2039 20.577 23.3333 19.5 23.3333C18.423 23.3333 17.55 24.2039 17.55 25.2778C17.55 26.3517 18.423 27.2222 19.5 27.2222Z" fill="#65DA01"/>
</svg>
