<svg width="37" height="37" viewBox="0 0 37 37" fill="none" xmlns="http://www.w3.org/2000/svg">
<path d="M26.2646 0H10.7539C4.0165 0 0 4.0145 0 10.7485V26.233C0 32.9855 4.0165 37 10.7539 37H26.2461C32.9834 37 36.9999 32.9855 36.9999 26.2515V10.7485C37.0184 4.0145 33.0019 0 26.2646 0ZM10.4947 6.475C10.4947 5.7165 11.124 5.0875 11.8829 5.0875C12.6418 5.0875 13.2711 5.7165 13.2711 6.475V13.69C13.2711 14.4485 12.6418 15.0775 11.8829 15.0775C11.124 15.0775 10.4947 14.4485 10.4947 13.69V6.475ZM13.9242 26.6979C13.5476 26.865 13.2711 27.2194 13.2711 27.6312V30.525C13.2711 31.2835 12.6418 31.9125 11.8829 31.9125C11.124 31.9125 10.4947 31.2835 10.4947 30.525V27.6312C10.4947 27.2194 10.2182 26.865 9.84178 26.6975C8.07511 25.9118 6.84841 24.1573 6.84841 22.1075C6.84841 19.3325 9.10654 17.057 11.8829 17.057C14.6593 17.057 16.9359 19.314 16.9359 22.1075C16.9359 24.1577 15.6942 25.9122 13.9242 26.6979ZM26.5237 30.525C26.5237 31.2835 25.8944 31.9125 25.1355 31.9125C24.3766 31.9125 23.7473 31.2835 23.7473 30.525V23.31C23.7473 22.5515 24.3766 21.9225 25.1355 21.9225C25.8944 21.9225 26.5237 22.5515 26.5237 23.31V30.525ZM25.1355 19.9245C22.3591 19.9245 20.0825 17.6675 20.0825 14.874C20.0825 12.8239 21.3243 11.0693 23.0943 10.2837C23.4708 10.1165 23.7473 9.7621 23.7473 9.35029V6.475C23.7473 5.7165 24.3766 5.0875 25.1355 5.0875C25.8944 5.0875 26.5237 5.7165 26.5237 6.475V9.36879C26.5237 9.7806 26.8002 10.1349 27.1767 10.3024C28.9432 11.0882 30.17 12.8426 30.17 14.8925C30.17 17.6675 27.9119 19.9245 25.1355 19.9245Z" fill="#65DA01"/>
</svg>
