<svg width="87" height="18" viewBox="0 0 87 18" fill="none" xmlns="http://www.w3.org/2000/svg">
<path d="M0.675728 5.60374C0.892927 5.31534 1.35146 4.95484 1.68932 4.83468C2.02718 4.71451 3.88544 4.59435 9.41193 4.57031V6.0123H5.86436C3.25797 5.98827 2.22025 6.0844 1.97892 6.3007C1.80999 6.46893 1.71345 6.87749 1.73759 7.21396C1.80986 7.81377 1.83404 7.81479 4.69146 7.93435L4.70596 7.93495C6.29875 8.00705 7.84327 8.19932 8.13287 8.36755C8.4466 8.53578 8.90513 9.01645 9.1706 9.42501C9.43606 9.85761 9.65326 10.6026 9.65326 11.0593C9.65326 11.5159 9.50846 12.1648 9.33953 12.5013C9.19473 12.8137 8.6638 13.3424 8.20527 13.6308C7.40888 14.1595 7.14341 14.2076 0 14.1836V12.7416H3.61997C6.92621 12.7416 7.28821 12.6935 7.72261 12.2609C7.98807 11.9966 8.20527 11.4678 8.20527 11.0593C8.20527 10.5546 8.01221 10.1941 7.52954 9.8576C6.97448 9.42501 6.51595 9.35291 4.2957 9.37694C1.71345 9.37694 1.68932 9.37694 0.965326 8.65595C0.410264 8.10319 0.241331 7.71865 0.241331 7.02169C0.241331 6.54103 0.434397 5.89214 0.675728 5.60374Z" fill="white" fill-opacity="0.9"/>
<path d="M72.2788 8.65077L69.3828 5.76679L66.4868 2.88281H72.5201L78.312 8.65077L69.6241 17.3027H63.5908L72.2788 8.65077Z" fill="#D848BF"/>
<path d="M75.2952 5.64779L78.1187 2.83591L80.9665 0H86.9997L78.3118 8.65193L84.1038 14.4199H78.0705L75.2952 11.6561L78.3118 8.65193L75.2952 5.64779Z" fill="#3067F1"/>
<path fill-rule="evenodd" clip-rule="evenodd" d="M11.3428 4.57031L20.8754 4.69048L20.996 6.0123H16.8934L16.8693 10.17C16.8451 12.4292 16.7969 14.0634 16.7486 13.751C16.6762 13.3664 16.4831 13.2222 15.4454 13.2222V6.0123H11.3428V4.57031ZM24.8091 4.59435C25.4124 4.59435 25.5572 4.83468 27.3189 8.96838C28.3325 11.3717 29.2496 13.5347 29.2978 13.775C29.4185 14.1115 29.2737 14.1836 28.7186 14.1836C28.067 14.1836 27.9222 14.0394 26.788 11.5399L22.5647 11.6601L22.082 12.9338C21.6235 14.0874 21.527 14.1836 20.803 14.1836C20.3686 14.1836 20.0066 14.1595 20.0066 14.1355C20.0066 14.1115 20.8995 12.0206 21.9614 9.49711C23.0473 6.99766 23.9644 4.85871 24.0368 4.76258C24.0851 4.66645 24.4471 4.59435 24.8091 4.59435ZM24.2057 7.93495C23.9161 8.67998 23.6265 9.44904 23.5541 9.68937C23.4093 10.0499 23.5783 10.0979 24.7367 10.0979C25.6296 10.0979 26.0399 10.0258 26.0399 9.80954C26.0157 9.64131 25.7261 8.84821 25.3641 8.05512L24.7125 6.61313L24.2057 7.93495ZM28.7186 4.57031H38.1306V6.0123H34.0279V12.7416H33.4246C33.0867 12.7416 32.773 12.8858 32.7006 13.054C32.6523 13.2222 32.6041 11.7082 32.5799 6.0123H28.7186V4.57031ZM39.8199 4.57031H41.2679V14.1836H39.8199V4.57031ZM47.5425 4.59435C47.7356 4.57031 48.4596 4.73854 49.1594 4.93081C50.1247 5.21921 50.6315 5.53164 51.2831 6.32473C51.7899 6.94959 52.2243 7.79075 52.3691 8.48772C52.5381 9.35291 52.5139 9.90567 52.2485 10.7709C52.0313 11.4919 51.5727 12.2129 50.9935 12.7656C50.4867 13.2463 49.6421 13.775 49.1111 13.9432C48.5802 14.1115 47.7114 14.2076 47.1805 14.1595C46.6496 14.0874 45.7808 13.775 45.2498 13.4626C44.743 13.1261 44.0191 12.4292 43.7053 11.9004C43.3433 11.3717 43.0296 10.4825 42.9813 9.8576C42.9089 9.11258 43.0537 8.41562 43.4157 7.57446C43.7053 6.92556 44.2845 6.10843 44.7189 5.796C45.1292 5.45954 45.8532 5.05098 46.3358 4.90678C46.7944 4.73854 47.3253 4.59435 47.5425 4.59435ZM45.0568 7.50236C44.8154 7.81479 44.55 8.55982 44.4776 9.13661C44.4052 9.97777 44.4776 10.4104 44.8637 11.0112C45.1292 11.4438 45.6118 11.9485 45.9014 12.1408C46.2152 12.3571 46.8185 12.5734 47.3012 12.6695C47.8804 12.7656 48.4354 12.6695 49.087 12.3571C49.6179 12.1167 50.2454 11.588 50.4626 11.1794C50.7039 10.7949 50.9211 10.0018 50.9211 9.44904C50.9211 8.89628 50.7281 8.10319 50.4867 7.69462C50.2695 7.28606 49.6421 6.75733 49.1111 6.49296C48.5802 6.2286 47.9286 6.03633 47.6632 6.03633C47.3977 6.0123 46.7944 6.2286 46.3358 6.46893C45.8532 6.70926 45.274 7.18993 45.0568 7.50236ZM54.2998 4.57031H55.1444C55.9167 4.57031 56.1822 4.81064 62.143 11.7562L62.2155 4.57031H63.7117V14.1836H62.9877C62.3361 14.1836 61.8776 13.751 55.8684 6.70926L55.7478 14.1836H54.2998V4.57031Z" fill="white" fill-opacity="0.9"/>
</svg>
