<svg width="211" height="44" viewBox="0 0 211 44" fill="none" xmlns="http://www.w3.org/2000/svg">
<path d="M188.374 43.5L210.5 31.6689V0.5H192.5V3.25H166.5V0.5H20.6387L0.5 12.6572V43.5H188.374Z" fill="#C2FFBD" stroke="url(#paint0_linear_4044_4374)"/>
<path d="M56.083 28.136C55.199 28.136 54.4283 27.9943 53.771 27.711C53.1137 27.4277 52.6037 27.031 52.241 26.521C51.8897 26.011 51.714 25.4103 51.714 24.719V24.294C51.714 24.2373 51.731 24.192 51.765 24.158C51.8103 24.1127 51.8613 24.09 51.918 24.09H53.431C53.4877 24.09 53.533 24.1127 53.567 24.158C53.6123 24.192 53.635 24.2373 53.635 24.294V24.617C53.635 25.1383 53.8673 25.5747 54.332 25.926C54.7967 26.266 55.4313 26.436 56.236 26.436C56.9273 26.436 57.4487 26.2887 57.8 25.994C58.1513 25.6993 58.327 25.3197 58.327 24.855C58.327 24.5377 58.2307 24.2713 58.038 24.056C57.8453 23.8293 57.5677 23.6253 57.205 23.444C56.8537 23.2627 56.321 23.036 55.607 22.764C54.8023 22.4693 54.1507 22.1917 53.652 21.931C53.1533 21.6703 52.734 21.319 52.394 20.877C52.0653 20.4237 51.901 19.8627 51.901 19.194C51.901 18.1967 52.2637 17.409 52.989 16.831C53.7143 16.253 54.6833 15.964 55.896 15.964C56.746 15.964 57.494 16.1113 58.14 16.406C58.7973 16.7007 59.3073 17.1143 59.67 17.647C60.0327 18.1683 60.214 18.7747 60.214 19.466V19.755C60.214 19.8117 60.1913 19.8627 60.146 19.908C60.112 19.942 60.0667 19.959 60.01 19.959H58.48C58.4233 19.959 58.3723 19.942 58.327 19.908C58.293 19.8627 58.276 19.8117 58.276 19.755V19.568C58.276 19.0353 58.055 18.5877 57.613 18.225C57.1823 17.851 56.5817 17.664 55.811 17.664C55.1877 17.664 54.7003 17.7943 54.349 18.055C54.009 18.3157 53.839 18.684 53.839 19.16C53.839 19.5 53.9297 19.7777 54.111 19.993C54.2923 20.2083 54.5643 20.4067 54.927 20.588C55.2897 20.758 55.8507 20.979 56.61 21.251C57.4147 21.557 58.055 21.8347 58.531 22.084C59.0183 22.3333 59.432 22.6847 59.772 23.138C60.1233 23.58 60.299 24.1353 60.299 24.804C60.299 25.824 59.9193 26.6343 59.16 27.235C58.412 27.8357 57.3863 28.136 56.083 28.136ZM67.2319 19.517C67.2319 19.4603 67.2489 19.415 67.2829 19.381C67.3283 19.3357 67.3793 19.313 67.4359 19.313H68.9829C69.0396 19.313 69.0849 19.3357 69.1189 19.381C69.1643 19.415 69.1869 19.4603 69.1869 19.517V27.796C69.1869 27.8527 69.1643 27.9037 69.1189 27.949C69.0849 27.983 69.0396 28 68.9829 28H67.4359C67.3793 28 67.3283 27.983 67.2829 27.949C67.2489 27.9037 67.2319 27.8527 67.2319 27.796V27.252C67.2319 27.218 67.2206 27.1953 67.1979 27.184C67.1753 27.1727 67.1526 27.184 67.1299 27.218C66.6653 27.8187 65.9683 28.119 65.0389 28.119C64.1776 28.119 63.4523 27.8697 62.8629 27.371C62.2849 26.8723 61.9959 26.164 61.9959 25.246V19.517C61.9959 19.4603 62.0129 19.415 62.0469 19.381C62.0923 19.3357 62.1433 19.313 62.1999 19.313H63.7639C63.8206 19.313 63.8659 19.3357 63.8999 19.381C63.9453 19.415 63.9679 19.4603 63.9679 19.517V24.685C63.9679 25.2177 64.1039 25.6427 64.3759 25.96C64.6593 26.2773 65.0503 26.436 65.5489 26.436C66.0589 26.436 66.4669 26.2773 66.7729 25.96C67.0789 25.6427 67.2319 25.2177 67.2319 24.685V19.517ZM78.6222 21.557C78.8149 22.1917 78.9112 22.883 78.9112 23.631C78.9112 24.4357 78.8035 25.144 78.5882 25.756C78.3389 26.504 77.9365 27.0877 77.3812 27.507C76.8259 27.9263 76.1459 28.136 75.3412 28.136C74.5479 28.136 73.8962 27.8357 73.3862 27.235C73.3635 27.201 73.3409 27.1897 73.3182 27.201C73.2955 27.2123 73.2842 27.235 73.2842 27.269V27.796C73.2842 27.8527 73.2615 27.9037 73.2162 27.949C73.1822 27.983 73.1369 28 73.0802 28H71.5162C71.4595 28 71.4085 27.983 71.3632 27.949C71.3292 27.9037 71.3122 27.8527 71.3122 27.796V16.304C71.3122 16.2473 71.3292 16.202 71.3632 16.168C71.4085 16.1227 71.4595 16.1 71.5162 16.1H73.0802C73.1369 16.1 73.1822 16.1227 73.2162 16.168C73.2615 16.202 73.2842 16.2473 73.2842 16.304V19.993C73.2842 20.027 73.2955 20.0497 73.3182 20.061C73.3409 20.0723 73.3635 20.0667 73.3862 20.044C73.8735 19.466 74.5195 19.177 75.3242 19.177C76.1629 19.177 76.8542 19.3867 77.3982 19.806C77.9535 20.2253 78.3615 20.809 78.6222 21.557ZM76.4802 25.62C76.7522 25.144 76.8882 24.4923 76.8882 23.665C76.8882 22.781 76.7182 22.0897 76.3782 21.591C76.0722 21.115 75.6189 20.877 75.0182 20.877C74.4629 20.877 74.0379 21.1263 73.7432 21.625C73.4599 22.0897 73.3182 22.764 73.3182 23.648C73.3182 24.5207 73.4485 25.178 73.7092 25.62C74.0039 26.164 74.4459 26.436 75.0352 26.436C75.3525 26.436 75.6359 26.368 75.8852 26.232C76.1345 26.0847 76.3329 25.8807 76.4802 25.62ZM90.0903 19.177C90.963 19.177 91.643 19.4433 92.1303 19.976C92.629 20.4973 92.8783 21.2283 92.8783 22.169V27.796C92.8783 27.8527 92.8556 27.9037 92.8103 27.949C92.7763 27.983 92.731 28 92.6743 28H91.1273C91.0706 28 91.0196 27.983 90.9743 27.949C90.9403 27.9037 90.9233 27.8527 90.9233 27.796V22.577C90.9233 22.0557 90.7816 21.642 90.4983 21.336C90.2263 21.03 89.858 20.877 89.3933 20.877C88.9286 20.877 88.549 21.03 88.2543 21.336C87.9596 21.642 87.8123 22.05 87.8123 22.56V27.796C87.8123 27.8527 87.7896 27.9037 87.7443 27.949C87.7103 27.983 87.665 28 87.6083 28H86.0613C86.0046 28 85.9536 27.983 85.9083 27.949C85.8743 27.9037 85.8573 27.8527 85.8573 27.796V22.577C85.8573 22.0557 85.7156 21.642 85.4323 21.336C85.149 21.03 84.775 20.877 84.3103 20.877C83.8796 20.877 83.5226 21.0017 83.2393 21.251C82.9673 21.5003 82.8086 21.8403 82.7633 22.271V27.796C82.7633 27.8527 82.7406 27.9037 82.6953 27.949C82.6613 27.983 82.616 28 82.5593 28H80.9953C80.9386 28 80.8876 27.983 80.8423 27.949C80.8083 27.9037 80.7913 27.8527 80.7913 27.796V19.517C80.7913 19.4603 80.8083 19.415 80.8423 19.381C80.8876 19.3357 80.9386 19.313 80.9953 19.313H82.5593C82.616 19.313 82.6613 19.3357 82.6953 19.381C82.7406 19.415 82.7633 19.4603 82.7633 19.517V20.078C82.7633 20.112 82.7746 20.1347 82.7973 20.146C82.82 20.1573 82.8426 20.146 82.8653 20.112C83.1146 19.7947 83.4206 19.5623 83.7833 19.415C84.1573 19.2563 84.571 19.177 85.0243 19.177C85.5796 19.177 86.067 19.2903 86.4863 19.517C86.9056 19.7437 87.2286 20.0723 87.4553 20.503C87.4893 20.5483 87.529 20.5483 87.5743 20.503C87.8236 20.0497 88.1693 19.7153 88.6113 19.5C89.0533 19.2847 89.5463 19.177 90.0903 19.177ZM96.008 18.123C95.6567 18.123 95.3677 18.0097 95.141 17.783C94.9144 17.5563 94.801 17.2673 94.801 16.916C94.801 16.5647 94.9144 16.2757 95.141 16.049C95.3677 15.8223 95.6567 15.709 96.008 15.709C96.3594 15.709 96.6484 15.8223 96.875 16.049C97.1017 16.2757 97.215 16.5647 97.215 16.916C97.215 17.2673 97.1017 17.5563 96.875 17.783C96.6484 18.0097 96.3594 18.123 96.008 18.123ZM95.192 28C95.1354 28 95.0844 27.983 95.039 27.949C95.005 27.9037 94.988 27.8527 94.988 27.796V19.5C94.988 19.4433 95.005 19.398 95.039 19.364C95.0844 19.3187 95.1354 19.296 95.192 19.296H96.756C96.8127 19.296 96.858 19.3187 96.892 19.364C96.9374 19.398 96.96 19.4433 96.96 19.5V27.796C96.96 27.8527 96.9374 27.9037 96.892 27.949C96.858 27.983 96.8127 28 96.756 28H95.192ZM103.826 20.707C103.826 20.7637 103.803 20.8147 103.758 20.86C103.724 20.894 103.679 20.911 103.622 20.911H101.888C101.831 20.911 101.803 20.9393 101.803 20.996V25.093C101.803 25.5237 101.894 25.8353 102.075 26.028C102.268 26.2207 102.568 26.317 102.976 26.317H103.486C103.543 26.317 103.588 26.3397 103.622 26.385C103.667 26.419 103.69 26.4643 103.69 26.521V27.796C103.69 27.9207 103.622 27.9943 103.486 28.017L102.602 28.034C101.707 28.034 101.038 27.881 100.596 27.575C100.154 27.269 99.9274 26.691 99.916 25.841V20.996C99.916 20.9393 99.8877 20.911 99.831 20.911H98.862C98.8054 20.911 98.7544 20.894 98.709 20.86C98.675 20.8147 98.658 20.7637 98.658 20.707V19.517C98.658 19.4603 98.675 19.415 98.709 19.381C98.7544 19.3357 98.8054 19.313 98.862 19.313H99.831C99.8877 19.313 99.916 19.2847 99.916 19.228V17.239C99.916 17.1823 99.933 17.137 99.967 17.103C100.012 17.0577 100.063 17.035 100.12 17.035H101.599C101.656 17.035 101.701 17.0577 101.735 17.103C101.78 17.137 101.803 17.1823 101.803 17.239V19.228C101.803 19.2847 101.831 19.313 101.888 19.313H103.622C103.679 19.313 103.724 19.3357 103.758 19.381C103.803 19.415 103.826 19.4603 103.826 19.517V20.707ZM109.372 28C109.315 28 109.264 27.983 109.219 27.949C109.185 27.9037 109.168 27.8527 109.168 27.796V16.304C109.168 16.2473 109.185 16.202 109.219 16.168C109.264 16.1227 109.315 16.1 109.372 16.1H113.52C114.324 16.1 115.033 16.2417 115.645 16.525C116.257 16.8083 116.727 17.2163 117.056 17.749C117.396 18.2703 117.566 18.8823 117.566 19.585V24.515C117.566 25.2177 117.396 25.8353 117.056 26.368C116.727 26.8893 116.257 27.2917 115.645 27.575C115.033 27.8583 114.324 28 113.52 28H109.372ZM111.14 26.215C111.14 26.2717 111.168 26.3 111.225 26.3H113.605C114.205 26.3 114.681 26.113 115.033 25.739C115.395 25.3537 115.582 24.8437 115.594 24.209V19.908C115.594 19.262 115.412 18.752 115.05 18.378C114.687 17.9927 114.2 17.8 113.588 17.8H111.225C111.168 17.8 111.14 17.8283 111.14 17.885V26.215ZM126.817 22.679C126.862 22.9623 126.885 23.2797 126.885 23.631L126.868 24.158C126.868 24.294 126.8 24.362 126.664 24.362H121.343C121.286 24.362 121.258 24.3903 121.258 24.447C121.292 24.821 121.343 25.076 121.411 25.212C121.683 26.028 122.346 26.4417 123.4 26.453C124.17 26.453 124.782 26.1357 125.236 25.501C125.281 25.433 125.338 25.399 125.406 25.399C125.451 25.399 125.491 25.416 125.525 25.45L126.579 26.317C126.681 26.3963 126.698 26.487 126.63 26.589C126.278 27.0877 125.808 27.473 125.219 27.745C124.641 28.017 123.995 28.153 123.281 28.153C122.397 28.153 121.643 27.9547 121.02 27.558C120.408 27.1613 119.96 26.606 119.677 25.892C119.416 25.28 119.286 24.43 119.286 23.342C119.286 22.6847 119.354 22.152 119.49 21.744C119.716 20.9507 120.141 20.3273 120.765 19.874C121.399 19.4093 122.159 19.177 123.043 19.177C125.275 19.177 126.533 20.3443 126.817 22.679ZM123.043 20.877C122.623 20.877 122.272 20.9847 121.989 21.2C121.717 21.404 121.524 21.693 121.411 22.067C121.343 22.2597 121.297 22.509 121.275 22.815C121.252 22.8717 121.275 22.9 121.343 22.9H124.794C124.85 22.9 124.879 22.8717 124.879 22.815C124.856 22.5317 124.822 22.3163 124.777 22.169C124.675 21.761 124.471 21.4437 124.165 21.217C123.87 20.9903 123.496 20.877 123.043 20.877ZM133.128 20.707C133.128 20.7637 133.105 20.8147 133.06 20.86C133.026 20.894 132.98 20.911 132.924 20.911H131.19C131.133 20.911 131.105 20.9393 131.105 20.996V25.093C131.105 25.5237 131.195 25.8353 131.377 26.028C131.569 26.2207 131.87 26.317 132.278 26.317H132.788C132.844 26.317 132.89 26.3397 132.924 26.385C132.969 26.419 132.992 26.4643 132.992 26.521V27.796C132.992 27.9207 132.924 27.9943 132.788 28.017L131.904 28.034C131.008 28.034 130.34 27.881 129.898 27.575C129.456 27.269 129.229 26.691 129.218 25.841V20.996C129.218 20.9393 129.189 20.911 129.133 20.911H128.164C128.107 20.911 128.056 20.894 128.011 20.86C127.977 20.8147 127.96 20.7637 127.96 20.707V19.517C127.96 19.4603 127.977 19.415 128.011 19.381C128.056 19.3357 128.107 19.313 128.164 19.313H129.133C129.189 19.313 129.218 19.2847 129.218 19.228V17.239C129.218 17.1823 129.235 17.137 129.269 17.103C129.314 17.0577 129.365 17.035 129.422 17.035H130.901C130.957 17.035 131.003 17.0577 131.037 17.103C131.082 17.137 131.105 17.1823 131.105 17.239V19.228C131.105 19.2847 131.133 19.313 131.19 19.313H132.924C132.98 19.313 133.026 19.3357 133.06 19.381C133.105 19.415 133.128 19.4603 133.128 19.517V20.707ZM138.194 19.177C138.908 19.177 139.537 19.3017 140.081 19.551C140.625 19.8003 141.045 20.146 141.339 20.588C141.634 21.0187 141.781 21.5117 141.781 22.067V27.796C141.781 27.8527 141.759 27.9037 141.713 27.949C141.679 27.983 141.634 28 141.577 28H140.013C139.957 28 139.906 27.983 139.86 27.949C139.826 27.9037 139.809 27.8527 139.809 27.796V27.252C139.809 27.218 139.798 27.201 139.775 27.201C139.753 27.1897 139.73 27.1953 139.707 27.218C139.152 27.83 138.347 28.136 137.293 28.136C136.443 28.136 135.741 27.9207 135.185 27.49C134.641 27.0593 134.369 26.419 134.369 25.569C134.369 24.685 134.675 23.9993 135.287 23.512C135.911 23.0133 136.783 22.764 137.905 22.764H139.724C139.781 22.764 139.809 22.7357 139.809 22.679V22.271C139.809 21.829 139.679 21.489 139.418 21.251C139.158 21.0017 138.767 20.877 138.245 20.877C137.815 20.877 137.463 20.9563 137.191 21.115C136.931 21.2623 136.766 21.472 136.698 21.744C136.664 21.88 136.585 21.9367 136.46 21.914L134.811 21.71C134.755 21.6987 134.704 21.6817 134.658 21.659C134.624 21.625 134.613 21.5853 134.624 21.54C134.715 20.8487 135.083 20.282 135.729 19.84C136.387 19.398 137.208 19.177 138.194 19.177ZM137.786 26.572C138.342 26.572 138.818 26.4247 139.214 26.13C139.611 25.8353 139.809 25.4613 139.809 25.008V24.209C139.809 24.1523 139.781 24.124 139.724 24.124H138.296C137.696 24.124 137.22 24.2373 136.868 24.464C136.528 24.6907 136.358 25.0137 136.358 25.433C136.358 25.7957 136.489 26.079 136.749 26.283C137.021 26.4757 137.367 26.572 137.786 26.572ZM144.883 18.123C144.532 18.123 144.243 18.0097 144.016 17.783C143.789 17.5563 143.676 17.2673 143.676 16.916C143.676 16.5647 143.789 16.2757 144.016 16.049C144.243 15.8223 144.532 15.709 144.883 15.709C145.234 15.709 145.523 15.8223 145.75 16.049C145.977 16.2757 146.09 16.5647 146.09 16.916C146.09 17.2673 145.977 17.5563 145.75 17.783C145.523 18.0097 145.234 18.123 144.883 18.123ZM144.067 28C144.01 28 143.959 27.983 143.914 27.949C143.88 27.9037 143.863 27.8527 143.863 27.796V19.5C143.863 19.4433 143.88 19.398 143.914 19.364C143.959 19.3187 144.01 19.296 144.067 19.296H145.631C145.688 19.296 145.733 19.3187 145.767 19.364C145.812 19.398 145.835 19.4433 145.835 19.5V27.796C145.835 27.8527 145.812 27.9037 145.767 27.949C145.733 27.983 145.688 28 145.631 28H144.067ZM148.298 28C148.241 28 148.19 27.983 148.145 27.949C148.111 27.9037 148.094 27.8527 148.094 27.796V16.304C148.094 16.2473 148.111 16.202 148.145 16.168C148.19 16.1227 148.241 16.1 148.298 16.1H149.862C149.919 16.1 149.964 16.1227 149.998 16.168C150.043 16.202 150.066 16.2473 150.066 16.304V27.796C150.066 27.8527 150.043 27.9037 149.998 27.949C149.964 27.983 149.919 28 149.862 28H148.298ZM155.391 28.102C154.677 28.102 154.048 28 153.504 27.796C152.972 27.5807 152.558 27.2917 152.263 26.929C151.969 26.555 151.821 26.1413 151.821 25.688V25.535C151.821 25.4783 151.838 25.433 151.872 25.399C151.918 25.3537 151.969 25.331 152.025 25.331H153.521C153.578 25.331 153.623 25.3537 153.657 25.399C153.703 25.433 153.725 25.4783 153.725 25.535V25.569C153.725 25.8523 153.878 26.1017 154.184 26.317C154.502 26.521 154.898 26.623 155.374 26.623C155.828 26.623 156.196 26.5323 156.479 26.351C156.763 26.1583 156.904 25.9203 156.904 25.637C156.904 25.3763 156.785 25.1837 156.547 25.059C156.321 24.923 155.947 24.7813 155.425 24.634L154.779 24.43C154.201 24.26 153.714 24.0787 153.317 23.886C152.921 23.6933 152.586 23.4327 152.314 23.104C152.042 22.764 151.906 22.3333 151.906 21.812C151.906 21.0187 152.218 20.3897 152.841 19.925C153.465 19.449 154.286 19.211 155.306 19.211C155.998 19.211 156.604 19.3243 157.125 19.551C157.647 19.7663 158.049 20.0723 158.332 20.469C158.616 20.8543 158.757 21.2963 158.757 21.795C158.757 21.8517 158.735 21.9027 158.689 21.948C158.655 21.982 158.61 21.999 158.553 21.999H157.108C157.052 21.999 157.001 21.982 156.955 21.948C156.921 21.9027 156.904 21.8517 156.904 21.795C156.904 21.5003 156.757 21.2567 156.462 21.064C156.179 20.86 155.788 20.758 155.289 20.758C154.847 20.758 154.485 20.843 154.201 21.013C153.929 21.1717 153.793 21.3983 153.793 21.693C153.793 21.965 153.924 22.1747 154.184 22.322C154.456 22.458 154.904 22.611 155.527 22.781L155.901 22.883C156.502 23.0643 157.006 23.2513 157.414 23.444C157.822 23.6253 158.168 23.886 158.451 24.226C158.735 24.5547 158.876 24.9853 158.876 25.518C158.876 26.3227 158.559 26.9573 157.924 27.422C157.29 27.8753 156.445 28.102 155.391 28.102Z" fill="#2B2B2B"/>
<defs>
<linearGradient id="paint0_linear_4044_4374" x1="211" y1="22" x2="0" y2="22" gradientUnits="userSpaceOnUse">
<stop stop-color="white"/>
<stop offset="1" stop-color="white" stop-opacity="0"/>
</linearGradient>
</defs>
</svg>
