<svg width="211" height="44" viewBox="0 0 211 44" fill="none" xmlns="http://www.w3.org/2000/svg">
<path d="M188.374 43.5L210.5 31.6689V0.5H192.5V3.25H166.5V0.5H20.6387L0.5 12.6572V43.5H188.374Z" fill="#C2FFBD" stroke="url(#paint0_linear_4044_4593)"/>
<path d="M72.083 28.136C71.199 28.136 70.4283 27.9943 69.771 27.711C69.1137 27.4277 68.6037 27.031 68.241 26.521C67.8897 26.011 67.714 25.4103 67.714 24.719V24.294C67.714 24.2373 67.731 24.192 67.765 24.158C67.8103 24.1127 67.8613 24.09 67.918 24.09H69.431C69.4877 24.09 69.533 24.1127 69.567 24.158C69.6123 24.192 69.635 24.2373 69.635 24.294V24.617C69.635 25.1383 69.8673 25.5747 70.332 25.926C70.7967 26.266 71.4313 26.436 72.236 26.436C72.9273 26.436 73.4487 26.2887 73.8 25.994C74.1513 25.6993 74.327 25.3197 74.327 24.855C74.327 24.5377 74.2307 24.2713 74.038 24.056C73.8453 23.8293 73.5677 23.6253 73.205 23.444C72.8537 23.2627 72.321 23.036 71.607 22.764C70.8023 22.4693 70.1507 22.1917 69.652 21.931C69.1533 21.6703 68.734 21.319 68.394 20.877C68.0653 20.4237 67.901 19.8627 67.901 19.194C67.901 18.1967 68.2637 17.409 68.989 16.831C69.7143 16.253 70.6833 15.964 71.896 15.964C72.746 15.964 73.494 16.1113 74.14 16.406C74.7973 16.7007 75.3073 17.1143 75.67 17.647C76.0327 18.1683 76.214 18.7747 76.214 19.466V19.755C76.214 19.8117 76.1913 19.8627 76.146 19.908C76.112 19.942 76.0667 19.959 76.01 19.959H74.48C74.4233 19.959 74.3723 19.942 74.327 19.908C74.293 19.8627 74.276 19.8117 74.276 19.755V19.568C74.276 19.0353 74.055 18.5877 73.613 18.225C73.1823 17.851 72.5817 17.664 71.811 17.664C71.1877 17.664 70.7003 17.7943 70.349 18.055C70.009 18.3157 69.839 18.684 69.839 19.16C69.839 19.5 69.9297 19.7777 70.111 19.993C70.2923 20.2083 70.5643 20.4067 70.927 20.588C71.2897 20.758 71.8507 20.979 72.61 21.251C73.4147 21.557 74.055 21.8347 74.531 22.084C75.0183 22.3333 75.432 22.6847 75.772 23.138C76.1233 23.58 76.299 24.1353 76.299 24.804C76.299 25.824 75.9193 26.6343 75.16 27.235C74.412 27.8357 73.3863 28.136 72.083 28.136ZM83.2319 19.517C83.2319 19.4603 83.2489 19.415 83.2829 19.381C83.3283 19.3357 83.3793 19.313 83.4359 19.313H84.9829C85.0396 19.313 85.0849 19.3357 85.1189 19.381C85.1643 19.415 85.1869 19.4603 85.1869 19.517V27.796C85.1869 27.8527 85.1643 27.9037 85.1189 27.949C85.0849 27.983 85.0396 28 84.9829 28H83.4359C83.3793 28 83.3283 27.983 83.2829 27.949C83.2489 27.9037 83.2319 27.8527 83.2319 27.796V27.252C83.2319 27.218 83.2206 27.1953 83.1979 27.184C83.1753 27.1727 83.1526 27.184 83.1299 27.218C82.6653 27.8187 81.9683 28.119 81.0389 28.119C80.1776 28.119 79.4523 27.8697 78.8629 27.371C78.2849 26.8723 77.9959 26.164 77.9959 25.246V19.517C77.9959 19.4603 78.0129 19.415 78.0469 19.381C78.0923 19.3357 78.1433 19.313 78.1999 19.313H79.7639C79.8206 19.313 79.8659 19.3357 79.8999 19.381C79.9453 19.415 79.9679 19.4603 79.9679 19.517V24.685C79.9679 25.2177 80.1039 25.6427 80.3759 25.96C80.6593 26.2773 81.0503 26.436 81.5489 26.436C82.0589 26.436 82.4669 26.2773 82.7729 25.96C83.0789 25.6427 83.2319 25.2177 83.2319 24.685V19.517ZM94.6222 21.557C94.8149 22.1917 94.9112 22.883 94.9112 23.631C94.9112 24.4357 94.8035 25.144 94.5882 25.756C94.3389 26.504 93.9365 27.0877 93.3812 27.507C92.8259 27.9263 92.1459 28.136 91.3412 28.136C90.5479 28.136 89.8962 27.8357 89.3862 27.235C89.3635 27.201 89.3409 27.1897 89.3182 27.201C89.2955 27.2123 89.2842 27.235 89.2842 27.269V27.796C89.2842 27.8527 89.2615 27.9037 89.2162 27.949C89.1822 27.983 89.1369 28 89.0802 28H87.5162C87.4595 28 87.4085 27.983 87.3632 27.949C87.3292 27.9037 87.3122 27.8527 87.3122 27.796V16.304C87.3122 16.2473 87.3292 16.202 87.3632 16.168C87.4085 16.1227 87.4595 16.1 87.5162 16.1H89.0802C89.1369 16.1 89.1822 16.1227 89.2162 16.168C89.2615 16.202 89.2842 16.2473 89.2842 16.304V19.993C89.2842 20.027 89.2955 20.0497 89.3182 20.061C89.3409 20.0723 89.3635 20.0667 89.3862 20.044C89.8735 19.466 90.5195 19.177 91.3242 19.177C92.1629 19.177 92.8542 19.3867 93.3982 19.806C93.9535 20.2253 94.3615 20.809 94.6222 21.557ZM92.4802 25.62C92.7522 25.144 92.8882 24.4923 92.8882 23.665C92.8882 22.781 92.7182 22.0897 92.3782 21.591C92.0722 21.115 91.6189 20.877 91.0182 20.877C90.4629 20.877 90.0379 21.1263 89.7432 21.625C89.4599 22.0897 89.3182 22.764 89.3182 23.648C89.3182 24.5207 89.4485 25.178 89.7092 25.62C90.0039 26.164 90.4459 26.436 91.0352 26.436C91.3525 26.436 91.6359 26.368 91.8852 26.232C92.1345 26.0847 92.3329 25.8807 92.4802 25.62ZM100.021 28.102C99.3073 28.102 98.6783 28 98.1343 27.796C97.6016 27.5807 97.188 27.2917 96.8933 26.929C96.5986 26.555 96.4513 26.1413 96.4513 25.688V25.535C96.4513 25.4783 96.4683 25.433 96.5023 25.399C96.5476 25.3537 96.5986 25.331 96.6553 25.331H98.1513C98.208 25.331 98.2533 25.3537 98.2873 25.399C98.3326 25.433 98.3553 25.4783 98.3553 25.535V25.569C98.3553 25.8523 98.5083 26.1017 98.8143 26.317C99.1316 26.521 99.5283 26.623 100.004 26.623C100.458 26.623 100.826 26.5323 101.109 26.351C101.393 26.1583 101.534 25.9203 101.534 25.637C101.534 25.3763 101.415 25.1837 101.177 25.059C100.951 24.923 100.577 24.7813 100.055 24.634L99.4093 24.43C98.8313 24.26 98.344 24.0787 97.9473 23.886C97.5506 23.6933 97.2163 23.4327 96.9443 23.104C96.6723 22.764 96.5363 22.3333 96.5363 21.812C96.5363 21.0187 96.848 20.3897 97.4713 19.925C98.0946 19.449 98.9163 19.211 99.9363 19.211C100.628 19.211 101.234 19.3243 101.755 19.551C102.277 19.7663 102.679 20.0723 102.962 20.469C103.246 20.8543 103.387 21.2963 103.387 21.795C103.387 21.8517 103.365 21.9027 103.319 21.948C103.285 21.982 103.24 21.999 103.183 21.999H101.738C101.682 21.999 101.631 21.982 101.585 21.948C101.551 21.9027 101.534 21.8517 101.534 21.795C101.534 21.5003 101.387 21.2567 101.092 21.064C100.809 20.86 100.418 20.758 99.9193 20.758C99.4773 20.758 99.1146 20.843 98.8313 21.013C98.5593 21.1717 98.4233 21.3983 98.4233 21.693C98.4233 21.965 98.5536 22.1747 98.8143 22.322C99.0863 22.458 99.534 22.611 100.157 22.781L100.531 22.883C101.132 23.0643 101.636 23.2513 102.044 23.444C102.452 23.6253 102.798 23.886 103.081 24.226C103.365 24.5547 103.506 24.9853 103.506 25.518C103.506 26.3227 103.189 26.9573 102.554 27.422C101.92 27.8753 101.075 28.102 100.021 28.102ZM108.796 28.136C107.923 28.136 107.17 27.915 106.535 27.473C105.9 27.0197 105.458 26.4133 105.209 25.654C105.028 25.144 104.937 24.464 104.937 23.614C104.937 22.798 105.028 22.1293 105.209 21.608C105.447 20.86 105.883 20.2707 106.518 19.84C107.164 19.398 107.923 19.177 108.796 19.177C109.68 19.177 110.451 19.398 111.108 19.84C111.765 20.282 112.202 20.8373 112.417 21.506C112.474 21.6873 112.513 21.8687 112.536 22.05V22.084C112.536 22.1973 112.474 22.2653 112.349 22.288L110.819 22.509H110.785C110.683 22.509 110.615 22.4523 110.581 22.339C110.581 22.2823 110.575 22.237 110.564 22.203C110.541 22.1123 110.519 22.033 110.496 21.965C110.394 21.6477 110.19 21.387 109.884 21.183C109.578 20.979 109.215 20.877 108.796 20.877C108.365 20.877 107.997 20.9903 107.691 21.217C107.396 21.4323 107.198 21.7327 107.096 22.118C106.983 22.4807 106.926 22.985 106.926 23.631C106.926 24.2543 106.977 24.7587 107.079 25.144C107.192 25.5407 107.396 25.858 107.691 26.096C107.986 26.3227 108.354 26.436 108.796 26.436C109.227 26.436 109.595 26.3283 109.901 26.113C110.218 25.8863 110.422 25.586 110.513 25.212C110.524 25.1893 110.53 25.161 110.53 25.127C110.541 25.1157 110.547 25.0987 110.547 25.076C110.581 24.94 110.66 24.8833 110.785 24.906L112.315 25.144C112.372 25.1553 112.417 25.1837 112.451 25.229C112.496 25.263 112.513 25.314 112.502 25.382C112.468 25.5633 112.44 25.6937 112.417 25.773C112.202 26.4983 111.765 27.0763 111.108 27.507C110.451 27.9263 109.68 28.136 108.796 28.136ZM118.252 19.211C118.615 19.211 118.932 19.2847 119.204 19.432C119.295 19.4773 119.329 19.5623 119.306 19.687L119.017 21.217C119.006 21.353 118.927 21.3927 118.779 21.336C118.609 21.2793 118.411 21.251 118.184 21.251C118.037 21.251 117.924 21.2567 117.844 21.268C117.368 21.2907 116.972 21.4607 116.654 21.778C116.337 22.084 116.178 22.4863 116.178 22.985V27.796C116.178 27.8527 116.156 27.9037 116.11 27.949C116.076 27.983 116.031 28 115.974 28H114.41C114.354 28 114.303 27.983 114.257 27.949C114.223 27.9037 114.206 27.8527 114.206 27.796V19.517C114.206 19.4603 114.223 19.415 114.257 19.381C114.303 19.3357 114.354 19.313 114.41 19.313H115.974C116.031 19.313 116.076 19.3357 116.11 19.381C116.156 19.415 116.178 19.4603 116.178 19.517V20.282C116.178 20.3273 116.184 20.3557 116.195 20.367C116.218 20.367 116.241 20.35 116.263 20.316C116.739 19.5793 117.402 19.211 118.252 19.211ZM121.72 18.123C121.369 18.123 121.08 18.0097 120.853 17.783C120.626 17.5563 120.513 17.2673 120.513 16.916C120.513 16.5647 120.626 16.2757 120.853 16.049C121.08 15.8223 121.369 15.709 121.72 15.709C122.071 15.709 122.36 15.8223 122.587 16.049C122.814 16.2757 122.927 16.5647 122.927 16.916C122.927 17.2673 122.814 17.5563 122.587 17.783C122.36 18.0097 122.071 18.123 121.72 18.123ZM120.904 28C120.847 28 120.796 27.983 120.751 27.949C120.717 27.9037 120.7 27.8527 120.7 27.796V19.5C120.7 19.4433 120.717 19.398 120.751 19.364C120.796 19.3187 120.847 19.296 120.904 19.296H122.468C122.525 19.296 122.57 19.3187 122.604 19.364C122.649 19.398 122.672 19.4433 122.672 19.5V27.796C122.672 27.8527 122.649 27.9037 122.604 27.949C122.57 27.983 122.525 28 122.468 28H120.904ZM132.258 21.557C132.451 22.1917 132.547 22.883 132.547 23.631C132.547 24.4357 132.439 25.144 132.224 25.756C131.975 26.504 131.572 27.0877 131.017 27.507C130.462 27.9263 129.782 28.136 128.977 28.136C128.184 28.136 127.532 27.8357 127.022 27.235C126.999 27.201 126.977 27.1897 126.954 27.201C126.931 27.2123 126.92 27.235 126.92 27.269V27.796C126.92 27.8527 126.897 27.9037 126.852 27.949C126.818 27.983 126.773 28 126.716 28H125.152C125.095 28 125.044 27.983 124.999 27.949C124.965 27.9037 124.948 27.8527 124.948 27.796V16.304C124.948 16.2473 124.965 16.202 124.999 16.168C125.044 16.1227 125.095 16.1 125.152 16.1H126.716C126.773 16.1 126.818 16.1227 126.852 16.168C126.897 16.202 126.92 16.2473 126.92 16.304V19.993C126.92 20.027 126.931 20.0497 126.954 20.061C126.977 20.0723 126.999 20.0667 127.022 20.044C127.509 19.466 128.155 19.177 128.96 19.177C129.799 19.177 130.49 19.3867 131.034 19.806C131.589 20.2253 131.997 20.809 132.258 21.557ZM130.116 25.62C130.388 25.144 130.524 24.4923 130.524 23.665C130.524 22.781 130.354 22.0897 130.014 21.591C129.708 21.115 129.255 20.877 128.654 20.877C128.099 20.877 127.674 21.1263 127.379 21.625C127.096 22.0897 126.954 22.764 126.954 23.648C126.954 24.5207 127.084 25.178 127.345 25.62C127.64 26.164 128.082 26.436 128.671 26.436C128.988 26.436 129.272 26.368 129.521 26.232C129.77 26.0847 129.969 25.8807 130.116 25.62ZM141.688 22.679C141.733 22.9623 141.756 23.2797 141.756 23.631L141.739 24.158C141.739 24.294 141.671 24.362 141.535 24.362H136.214C136.157 24.362 136.129 24.3903 136.129 24.447C136.163 24.821 136.214 25.076 136.282 25.212C136.554 26.028 137.217 26.4417 138.271 26.453C139.041 26.453 139.653 26.1357 140.107 25.501C140.152 25.433 140.209 25.399 140.277 25.399C140.322 25.399 140.362 25.416 140.396 25.45L141.45 26.317C141.552 26.3963 141.569 26.487 141.501 26.589C141.149 27.0877 140.679 27.473 140.09 27.745C139.512 28.017 138.866 28.153 138.152 28.153C137.268 28.153 136.514 27.9547 135.891 27.558C135.279 27.1613 134.831 26.606 134.548 25.892C134.287 25.28 134.157 24.43 134.157 23.342C134.157 22.6847 134.225 22.152 134.361 21.744C134.587 20.9507 135.012 20.3273 135.636 19.874C136.27 19.4093 137.03 19.177 137.914 19.177C140.146 19.177 141.404 20.3443 141.688 22.679ZM137.914 20.877C137.494 20.877 137.143 20.9847 136.86 21.2C136.588 21.404 136.395 21.693 136.282 22.067C136.214 22.2597 136.168 22.509 136.146 22.815C136.123 22.8717 136.146 22.9 136.214 22.9H139.665C139.721 22.9 139.75 22.8717 139.75 22.815C139.727 22.5317 139.693 22.3163 139.648 22.169C139.546 21.761 139.342 21.4437 139.036 21.217C138.741 20.9903 138.367 20.877 137.914 20.877Z" fill="#2B2B2B"/>
<defs>
<linearGradient id="paint0_linear_4044_4593" x1="211" y1="22" x2="0" y2="22" gradientUnits="userSpaceOnUse">
<stop stop-color="white"/>
<stop offset="1" stop-color="white" stop-opacity="0"/>
</linearGradient>
</defs>
</svg>
