<svg width="29" height="32" viewBox="0 0 29 32" fill="none" xmlns="http://www.w3.org/2000/svg">
<path fill-rule="evenodd" clip-rule="evenodd" d="M14.5 0C14.8567 0 17.9903 1.60129 21.5575 3.60534C25.0863 5.58688 28.2044 7.45342 28.4867 7.75115C28.9768 8.27152 29 8.64458 29 16C29 23.3557 28.9769 23.7285 28.4867 24.2464C28.2043 24.5467 25.0862 26.4132 21.5575 28.3947C17.98 30.4062 14.8567 32 14.5 32C14.1433 32 11.02 30.4062 7.44248 28.3947C3.9138 26.4132 0.795699 24.5467 0.513274 24.2464C0.0230974 23.7285 0 23.3556 0 8.25887L0.592722 7.6886C0.916083 7.37586 4.03425 5.51671 7.52192 3.5577C11.061 1.56865 14.1407 0 14.5 0ZM4.23451 12.2478V19.2533H6.54425C6.54425 16.7088 6.65717 16.0007 6.80088 16.0007C6.94203 16.0007 7.60674 16.7337 8.27655 17.6319C9.48274 19.2481 9.50841 19.2632 10.7146 19.2582L11.9336 19.2533V12.2478H9.62389C9.62389 14.7698 9.53664 15.5504 9.43142 15.613C9.32612 15.6729 8.63321 14.9424 7.89159 13.9867C6.57504 12.2879 6.51858 12.2478 5.38938 12.2478H4.23451ZM12.9602 12.2478V19.2533H15.5265V16.5011H18.6062V15C15.6985 15 15.5265 14.9449 15.5265 14.4996C15.5265 14.0192 15.719 13.9967 20.2102 13.9366L24.8938 13.8741L25.0221 12.2478H12.9602ZM19.8894 15V19.2533H22.4558V15H19.8894Z" fill="url(#paint0_linear_7_627)"/>
<defs>
<linearGradient id="paint0_linear_7_627" x1="18.8836" y1="50.3879" x2="12.8631" y2="-2.02731" gradientUnits="userSpaceOnUse">
<stop stop-color="#142A01"/>
<stop offset="0.460655" stop-color="#65DA00"/>
<stop offset="1" stop-color="#65DA00"/>
</linearGradient>
</defs>
</svg>
