<svg width="32" height="33" viewBox="0 0 32 33" fill="none" xmlns="http://www.w3.org/2000/svg">
<path fill-rule="evenodd" clip-rule="evenodd" d="M15.8324 0.000553629C16.4074 -0.00543686 17.2597 0.0378991 17.726 0.0960268C18.1924 0.154186 18.9089 0.269569 19.3204 0.352743C19.7311 0.437007 20.5393 0.664453 21.1142 0.860873C21.6892 1.05637 22.5414 1.40929 23.0077 1.64481C23.4742 1.87944 24.2585 2.34426 24.7517 2.67698C25.2449 3.00973 25.8726 3.47469 26.1467 3.71128C26.4207 3.94685 26.9538 4.45846 27.3306 4.84741C27.7083 5.23635 28.2748 5.89203 28.5887 6.30602C28.9026 6.71902 29.361 7.39528 29.6081 7.8092C29.8553 8.2222 30.0856 8.68576 30.1205 8.83712C30.1554 8.98846 30.251 9.1814 30.3327 9.26357C30.4147 9.3469 30.6208 9.78629 30.7909 10.2406C30.9603 10.6957 31.2068 11.4736 31.3383 11.9697C31.4709 12.4659 31.647 13.3796 31.7287 14.0001C31.8104 14.6206 31.8772 15.5448 31.8772 16.0549C31.8772 16.5652 31.8069 17.5017 31.7202 18.1351C31.6345 18.7686 31.4802 19.6254 31.3776 20.0393C31.2739 20.4523 31.0516 21.1741 30.8822 21.6433C30.7139 22.1118 30.4871 22.5731 30.3793 22.6701C30.2717 22.7664 30.1703 22.9707 30.1534 23.122C30.1372 23.2736 29.9404 23.7133 29.7163 24.099C29.4921 24.4849 29.0338 25.1726 28.699 25.6277C28.3642 26.0827 27.7204 26.8274 27.268 27.2825C26.8155 27.7386 26.0866 28.3862 25.6481 28.7221C25.2097 29.0578 24.5487 29.5203 24.1789 29.7489C23.8092 29.9775 23.0677 30.3602 22.5336 30.6008C21.9996 30.8412 21.2706 31.1326 20.9148 31.25C20.5591 31.3662 19.8865 31.5512 19.4201 31.6594C18.9538 31.7677 18.1475 31.9001 17.6262 31.9533C17.1052 32.0064 16.2989 32.0532 15.8324 32.0573C15.3661 32.0613 14.6047 32.0168 14.1383 31.9607C13.6719 31.9036 12.9534 31.7893 12.5428 31.7061C12.1311 31.6228 11.3238 31.3955 10.749 31.2001C10.1731 31.0056 9.23298 30.6012 8.65707 30.3016C8.08105 30.0009 7.18746 29.4516 6.67123 29.0817C6.15597 28.7117 5.32345 28.0035 4.82329 27.5074C4.32214 27.0113 3.59642 26.1773 3.20874 25.6531C2.82221 25.129 2.39057 24.4985 2.25188 24.2497C2.11336 24.0011 1.97289 23.6515 1.94001 23.4721C1.90709 23.2928 1.83459 23.1464 1.77982 23.1464C1.72466 23.1453 1.5737 22.9311 1.44249 22.6701C1.31189 22.4083 1.07014 21.8109 0.906775 21.342C0.743386 20.8729 0.518668 20.0845 0.406071 19.5885C0.293474 19.0923 0.146061 18.19 0.0782802 17.5835C0.00353674 16.9139 -0.0200561 16.0081 0.0178139 15.2773C0.0517161 14.6157 0.147406 13.6916 0.232098 13.2225C0.315815 12.7534 0.471296 12.0543 0.577923 11.6684C0.683594 11.2825 0.917404 10.5844 1.09772 10.1154C1.2781 9.64626 1.52339 9.14949 1.64298 9.01216C1.76238 8.87388 1.89262 8.62687 1.93258 8.4616C1.97244 8.29619 2.28459 7.73098 2.62741 7.20772C2.9703 6.68441 3.63715 5.81529 4.11043 5.2781C4.58237 4.7413 5.00259 4.30283 5.04394 4.30321C5.08479 4.30421 5.29791 4.14073 5.51707 3.93935C5.73631 3.73887 6.16241 3.38261 6.46437 3.14905C6.76639 2.91547 7.31573 2.53744 7.68537 2.30994C8.05524 2.08136 8.79566 1.6986 9.32963 1.45811C9.86354 1.21765 10.5925 0.927435 10.9484 0.812075C11.3042 0.696796 11.889 0.527769 12.2447 0.436548C12.6007 0.34633 13.3181 0.212786 13.8391 0.141642C14.3604 0.0694856 15.2575 0.00656696 15.8324 0.000553629ZM16.0318 4.80391C15.95 4.80903 15.7853 4.84898 15.6669 4.89302C15.5484 4.9373 15.3859 5.05838 15.3073 5.16247C15.2274 5.26761 14.3054 6.69448 13.2568 8.33324C12.2074 9.97318 11.3484 11.3608 11.3484 11.416C11.3481 11.4712 11.2882 11.5719 11.2147 11.6409C11.141 11.71 10.8715 12.0928 10.6164 12.4927C10.3622 12.8911 10.1533 13.2513 10.1507 13.2947C10.1497 13.3357 10.0645 13.4602 9.96293 13.5705C9.8613 13.6807 9.36828 14.4255 8.86711 15.2243C8.36484 16.0242 7.95713 16.7689 7.96012 16.8791C7.96346 16.9897 8.14309 17.3164 8.36111 17.6058C8.57836 17.8955 8.75679 18.2004 8.75679 18.2826C8.75699 18.3647 8.82483 18.456 8.90636 18.4831C8.98908 18.5102 10.4078 20.3479 12.0591 22.5672C13.7102 24.7863 15.1783 26.7266 15.3222 26.8794C15.4656 27.0307 15.7178 27.1802 15.8823 27.2104C16.0915 27.2495 16.2388 27.2115 16.3713 27.0842C16.4779 26.9799 17.9671 25.0168 19.6842 22.7179C21.4023 20.4163 22.8772 18.5102 22.9589 18.4831C23.0414 18.4559 23.1073 18.3646 23.1075 18.2826C23.1075 18.2004 23.2675 17.9173 23.4628 17.6557C23.6581 17.394 23.8413 17.0891 23.8702 16.9789C23.9 16.8686 23.8574 16.6434 23.7758 16.4782C23.6931 16.3128 22.0704 13.7408 20.168 10.7636C18.2666 7.78647 16.5911 5.22572 16.4456 5.07336C16.3001 4.91999 16.1146 4.7999 16.0318 4.80391Z" fill="url(#paint0_linear_7_625)"/>
<path d="M15.1257 8.29714L15.1983 8.18385C15.585 7.58039 15.873 7.22753 15.9528 7.2576C16.0235 7.28467 17.3928 9.3587 18.9963 11.8668C20.5998 14.3749 21.9003 16.4459 21.8864 16.47C21.8724 16.494 21.1659 16.8248 20.3168 17.2047C19.4677 17.5857 18.6156 17.9295 18.4233 17.9696C18.2319 18.0097 18.0296 18.1029 17.9748 18.1771C17.92 18.2513 17.4945 18.4768 17.0281 18.6783C16.5627 18.8808 16.0464 19.0482 15.882 19.0502C15.7176 19.0532 15.2472 18.8989 14.8356 18.7074C14.425 18.5169 14.0214 18.2844 13.9387 18.1911C13.8569 18.0979 13.6327 17.9957 13.4404 17.9646C13.249 17.9335 12.4189 17.6127 11.5967 17.2509C10.7745 16.89 10.057 16.5592 10.0022 16.5161C9.94138 16.468 10.8204 15.0074 12.2385 12.798C13.4457 10.9177 14.6943 8.97003 15.1257 8.29714Z" fill="url(#paint1_linear_7_625)"/>
<path d="M15.89 24.9225C15.8112 24.9084 14.7379 23.5331 13.5032 21.865C12.2694 20.197 11.2788 18.8327 11.3037 18.8327C11.3276 18.8327 12.3003 19.2577 13.4653 19.778C14.6303 20.2972 15.6956 20.7503 15.8322 20.7834C16.0165 20.8295 16.6613 20.5849 18.3236 19.8401C19.5574 19.2878 20.5739 18.8457 20.5839 18.8588C20.5938 18.8718 19.661 20.1459 18.511 21.6896C17.3609 23.2334 16.3324 24.5977 16.2258 24.722C16.1192 24.8463 15.9677 24.9365 15.89 24.9225Z" fill="url(#paint2_linear_7_625)"/>
<defs>
<linearGradient id="paint0_linear_7_625" x1="20.7571" y1="50.4784" x2="15.2481" y2="-2.14703" gradientUnits="userSpaceOnUse">
<stop stop-color="#142A01"/>
<stop offset="0.460655" stop-color="#65DA00"/>
<stop offset="1" stop-color="#65DA00"/>
</linearGradient>
<linearGradient id="paint1_linear_7_625" x1="20.7571" y1="50.4784" x2="15.2481" y2="-2.14703" gradientUnits="userSpaceOnUse">
<stop stop-color="#142A01"/>
<stop offset="0.460655" stop-color="#65DA00"/>
<stop offset="1" stop-color="#65DA00"/>
</linearGradient>
<linearGradient id="paint2_linear_7_625" x1="20.7571" y1="50.4784" x2="15.2481" y2="-2.14703" gradientUnits="userSpaceOnUse">
<stop stop-color="#142A01"/>
<stop offset="0.460655" stop-color="#65DA00"/>
<stop offset="1" stop-color="#65DA00"/>
</linearGradient>
</defs>
</svg>
