<svg width="28" height="28" viewBox="0 0 28 28" fill="none" xmlns="http://www.w3.org/2000/svg">
<path d="M4.59376 19.1874C4.81646 19.2008 5.15104 19.2463 5.33692 19.289C5.52287 19.3317 5.8146 19.4298 5.98536 19.5068C6.15605 19.5837 6.44176 19.7476 6.62012 19.872C6.79846 19.9964 7.0784 20.2439 7.24219 20.4218C7.40544 20.5997 7.62474 20.886 7.72852 21.0575C7.83231 21.229 7.98905 21.5746 8.07716 21.8241C8.22461 22.2432 8.23633 22.3357 8.23633 23.0263C8.23633 23.6969 8.22102 23.8177 8.09083 24.2011C8.01029 24.4362 7.84221 24.7972 7.7168 25.0029C7.59138 25.2085 7.34819 25.5147 7.17579 25.6835C7.00389 25.8523 6.72353 26.0813 6.55274 26.1913C6.382 26.3013 6.22998 26.4106 6.21485 26.4335C6.19888 26.4573 6.05386 26.5261 5.89063 26.5878C5.72688 26.6503 5.36222 26.7802 5.08009 26.8769C4.79792 26.973 4.37163 27.0925 4.1338 27.1405C3.89605 27.1886 3.64043 27.2195 3.56641 27.2099C3.46168 27.1965 3.3951 27.121 3.27149 26.873C3.14343 26.6166 3.10738 26.4666 3.09278 26.1249C3.08251 25.8899 3.06333 25.6433 3.04981 25.5771C3.0363 25.5108 2.95858 25.4251 2.87696 25.3866C2.79535 25.3477 2.67955 25.3251 2.62012 25.3368C2.56047 25.3484 2.43343 25.4402 2.33692 25.5409C2.24048 25.6416 2.1616 25.759 2.16114 25.8036C2.16114 25.848 2.07948 26.0583 1.9795 26.2714C1.85626 26.5337 1.72108 26.724 1.56055 26.8612C1.42974 26.9724 1.20139 27.1081 1.05274 27.162C0.904079 27.2154 0.672472 27.2756 0.53907 27.2948C0.376062 27.3183 0.264033 27.3075 0.199226 27.2616C0.145728 27.2242 0.0798615 27.0969 0.0517649 26.9794C0.0241973 26.8619 0.00108818 26.2787 7.09407e-06 25.6835C-0.000524788 24.9832 0.0288643 24.3898 0.0839915 24.0009C0.131019 23.6702 0.205686 23.2439 0.250007 23.0527C0.29486 22.8615 0.403473 22.477 0.493171 22.1982C0.58236 21.9188 0.677186 21.6546 0.703132 21.6103C0.728668 21.5657 0.84167 21.3766 0.955085 21.1904C1.06811 21.0034 1.29433 20.6931 1.45801 20.5009C1.62177 20.3081 1.9017 20.0483 2.08009 19.9228C2.25846 19.7972 2.569 19.6205 2.76954 19.5302C2.97006 19.44 3.28583 19.3312 3.47169 19.289C3.65763 19.2468 3.89471 19.2018 3.99903 19.1884C4.10338 19.175 4.37054 19.1746 4.59376 19.1874Z" fill="url(#paint0_linear_7_626)"/>
<path fill-rule="evenodd" clip-rule="evenodd" d="M24.7822 0.0106639C25.1684 0.0229429 25.6248 0.0680938 25.7959 0.110273C25.9667 0.152479 26.2232 0.244831 26.3643 0.315351C26.5054 0.386021 26.7401 0.559582 26.8848 0.70207C27.0302 0.844717 27.2183 1.08153 27.3037 1.22844C27.3885 1.37522 27.4579 1.56171 27.458 1.6425C27.4586 1.72315 27.5009 1.85488 27.5527 1.93449C27.6371 2.06325 27.6461 2.22482 27.6397 3.39055C27.6332 4.49726 27.6116 4.83486 27.4981 5.55656C27.424 6.02656 27.2768 6.73487 27.1709 7.13176C27.0644 7.52806 26.8766 8.14141 26.7539 8.49406C26.6307 8.84667 26.4315 9.36407 26.3115 9.64348C26.1915 9.92291 25.9714 10.3908 25.8223 10.6845C25.6736 10.9783 25.4287 11.4357 25.2774 11.7001C25.1265 11.9646 24.7985 12.4811 24.5488 12.8486C24.2991 13.2156 23.9816 13.6584 23.8438 13.831C23.7059 14.0041 23.4491 14.3165 23.2725 14.5253C23.0957 14.7348 22.6882 15.1881 22.3672 15.5331C22.0456 15.8782 21.746 16.1611 21.7012 16.1611C21.6563 16.1615 21.5855 16.2272 21.543 16.3075C21.5008 16.3882 21.2642 16.649 21.0166 16.8857C20.769 17.1223 20.3961 17.47 19.8096 17.9989L19.7793 19.7909C19.7625 20.7766 19.7306 21.6559 19.709 21.7441C19.6867 21.8323 19.623 22.0007 19.5674 22.1181C19.5115 22.2357 19.3482 22.4611 19.2051 22.6191C18.9609 22.8875 18.8129 22.9713 16.8643 23.9335C15.7203 24.4983 14.6626 24.9898 14.5127 25.0263C14.2727 25.084 14.2146 25.0801 13.999 24.9872C13.865 24.9295 13.689 24.8067 13.6074 24.7148C13.5167 24.6128 13.4364 24.4398 13.4024 24.2685C13.3715 24.112 13.3532 23.4732 13.377 21.6591L13.2422 21.6923C13.1676 21.711 12.9606 21.7504 12.7822 21.7792C12.6039 21.8085 12.3002 21.816 12.1074 21.7958C11.9145 21.7761 11.707 21.7345 11.6475 21.704C11.5883 21.6732 11.5276 21.6276 11.5127 21.6025C11.4981 21.5779 11.3883 21.5416 11.2695 21.5224C11.1506 21.5037 10.9436 21.4091 10.8096 21.3124C10.6755 21.2157 9.58775 20.1667 8.39161 18.9823C7.19606 17.7986 6.21692 16.7876 6.21583 16.7353C6.21529 16.684 6.17812 16.6415 6.1338 16.6415C6.08666 16.641 5.98702 16.5 5.89747 16.3075C5.81154 16.1238 5.71112 15.8409 5.67384 15.6796C5.63012 15.4916 5.61578 15.2034 5.63575 14.8788C5.6525 14.5995 5.68043 14.3172 5.72852 14.1308L4.33497 14.1171C3.19267 14.1059 2.92359 14.09 2.84083 14.0243C2.78569 13.9805 2.6586 13.8661 2.5586 13.7704C2.44247 13.6594 2.36543 13.5245 2.34376 13.3964C2.32484 13.2864 2.32484 13.1051 2.34376 12.995C2.36323 12.8829 2.84013 11.8798 3.4043 10.7646C4.22796 9.13698 4.48255 8.68077 4.68848 8.46281C4.84577 8.29622 5.08134 8.12574 5.64747 7.85344L9.43165 7.79973L9.69923 7.50578C9.84687 7.34437 10.1258 7.04779 10.3203 6.84758C10.5149 6.64673 10.7416 6.44883 10.8232 6.40715C10.9049 6.36494 10.9708 6.30046 10.9697 6.26359C10.9704 6.2252 11.2435 5.93144 11.5791 5.6093C11.9153 5.2861 12.3726 4.86282 12.5947 4.66887C12.8168 4.47502 13.2418 4.12995 13.5391 3.90129C13.8364 3.67263 14.3906 3.2843 14.7695 3.03801C15.1472 2.79307 15.4931 2.59192 15.5391 2.59074C15.5834 2.59074 15.639 2.55943 15.6611 2.52043C15.6834 2.48192 15.8359 2.3745 15.999 2.28215C16.1623 2.18972 16.351 2.11329 16.418 2.11223C16.485 2.11113 16.5391 2.08593 16.5391 2.05656C16.5401 2.02677 16.7774 1.88591 17.0664 1.74309C17.3561 1.59991 17.9344 1.34841 18.3506 1.18547C18.7668 1.02308 19.4961 0.778182 19.9717 0.6425C20.4472 0.506311 21.1525 0.337528 21.5391 0.2675C21.9256 0.196979 22.5099 0.113474 22.8369 0.081953C23.1639 0.050437 23.5775 0.0169066 23.7559 0.00675766C23.9343 -0.00337889 24.396 -0.00213968 24.7822 0.0106639ZM19.9971 3.40617C19.8927 3.40889 19.7106 3.43179 19.5918 3.45793C19.4728 3.48414 19.2173 3.55438 19.0244 3.61418C18.8314 3.67349 18.527 3.80256 18.3486 3.90031C18.1703 3.99808 17.8973 4.18191 17.7422 4.30852C17.5871 4.43457 17.3482 4.67008 17.2119 4.83195C17.0752 4.9938 16.8459 5.36627 16.7022 5.66008C16.5584 5.95444 16.4118 6.35065 16.375 6.54191C16.3388 6.73258 16.3104 7.11702 16.3125 7.39641C16.3147 7.73084 16.3551 8.05041 16.4297 8.33195C16.4924 8.56699 16.6264 8.91574 16.7285 9.10637C16.8301 9.29709 17.0316 9.59803 17.1748 9.77434C17.3181 9.95062 17.5796 10.2096 17.7568 10.3495C17.9335 10.49 18.2367 10.6857 18.4297 10.7851C18.6226 10.8844 18.9638 11.0215 19.1865 11.0888C19.506 11.1855 19.7241 11.2122 20.2139 11.2138C20.6435 11.2159 20.9777 11.1848 21.2949 11.1132C21.5473 11.056 21.7667 10.9923 21.7813 10.9726C21.7966 10.9525 21.9301 10.8761 22.0781 10.8027C22.2267 10.729 22.4967 10.5522 22.6777 10.4091C22.8588 10.2654 23.1025 10.0387 23.2188 9.90617C23.3349 9.77315 23.5079 9.54561 23.6035 9.39934C23.6986 9.25297 23.8362 8.98872 23.9092 8.81242C23.9821 8.63615 24.0844 8.28803 24.1357 8.03801C24.2039 7.70624 24.2204 7.44686 24.1982 7.07609C24.1815 6.79785 24.1443 6.50946 24.1162 6.43547C24.0876 6.36174 24.0246 6.16961 23.9775 6.00773C23.93 5.84585 23.7999 5.56091 23.6875 5.37395C23.5756 5.18751 23.3497 4.88916 23.1865 4.71184C23.0234 4.53457 22.7438 4.28756 22.5654 4.16301C22.3871 4.03906 22.1311 3.88257 21.9971 3.81633C21.8629 3.75062 21.6079 3.6552 21.4297 3.60344C21.2514 3.55218 20.8994 3.48591 20.6465 3.45598C20.3935 3.42606 20.1014 3.4035 19.9971 3.40617Z" fill="url(#paint1_linear_7_626)"/>
<defs>
<linearGradient id="paint0_linear_7_626" x1="16.9181" y1="32.9084" x2="13.9643" y2="2.00858" gradientUnits="userSpaceOnUse">
<stop stop-color="#142A01"/>
<stop offset="0.460655" stop-color="#65DA00"/>
<stop offset="1" stop-color="#65DA00"/>
</linearGradient>
<linearGradient id="paint1_linear_7_626" x1="16.9181" y1="32.9084" x2="13.9643" y2="2.00858" gradientUnits="userSpaceOnUse">
<stop stop-color="#142A01"/>
<stop offset="0.460655" stop-color="#65DA00"/>
<stop offset="1" stop-color="#65DA00"/>
</linearGradient>
</defs>
</svg>
