<svg width="27" height="26" viewBox="0 0 27 26" fill="none" xmlns="http://www.w3.org/2000/svg">
<path fill-rule="evenodd" clip-rule="evenodd" d="M21.5452 5.30489L20.7545 5.60977L11.488 9.1175L2.22139 12.6252L2.11069 12.7578L2 12.8905V13.0973V13.3041L2.14232 13.4547L2.28464 13.6053L4.70242 14.4891L7.1202 15.3729L7.17884 15.4432L7.23741 15.5136L8.16616 18.4607L9.09496 21.4078L9.25133 21.5474L9.40769 21.687L9.60972 21.6865L9.81175 21.6862L9.97405 21.5779L10.1364 21.4698L11.4826 20.3912L12.829 19.3127L13.1044 19.2822L13.3799 19.2517L13.6085 19.384L13.837 19.5163L16.2245 21.218L18.612 22.9197L18.7751 22.9599L18.9382 23L19.1258 22.9048L19.3135 22.8096L19.3845 22.636L19.4556 22.4625L21.2278 14.0894L23 5.71624V5.54624V5.3763L22.8577 5.21765L22.7154 5.059L22.5256 5.02953L22.3358 5L21.5452 5.30489ZM18.4774 8.85822V8.96574L15.9473 11.2707L13.4172 13.5757L11.9143 14.945L10.4116 16.3142L10.2867 16.5671L10.1619 16.8201L10.0073 17.9232L9.85274 19.0263L9.77449 19.1188L9.69631 19.2112L9.5643 19.1927L9.43223 19.1742L8.88294 17.3128L8.33365 15.4515L8.32948 15.2468L8.3253 15.0421L8.41373 14.8744L8.50209 14.7067L8.64055 14.5828L8.77902 14.4588L13.5017 11.5942L18.2244 8.72966L18.3509 8.74021L18.4774 8.75076V8.85822Z" fill="#323B4B"/>
</svg>
