<svg width="26" height="26" viewBox="0 0 26 26" fill="none" xmlns="http://www.w3.org/2000/svg">
<path fill-rule="evenodd" clip-rule="evenodd" d="M20.6546 5.30489L19.8639 5.60977L10.5973 9.1175L1.33076 12.6252L1.22007 12.7578L1.10938 12.8905V13.0973V13.3041L1.25169 13.4547L1.39401 13.6053L3.8118 14.4891L6.22958 15.3729L6.28822 15.4432L6.34679 15.5136L7.27553 18.4607L8.20434 21.4078L8.3607 21.5474L8.51706 21.687L8.71909 21.6865L8.92112 21.6862L9.08343 21.5779L9.24574 21.4698L10.592 20.3912L11.9384 19.3127L12.2138 19.2822L12.4893 19.2517L12.7179 19.384L12.9464 19.5163L15.3339 21.218L17.7214 22.9197L17.8845 22.9599L18.0476 23L18.2352 22.9048L18.4229 22.8096L18.4939 22.636L18.5649 22.4625L20.3372 14.0894L22.1094 5.71624V5.54624V5.3763L21.9671 5.21765L21.8247 5.059L21.635 5.02953L21.4452 5L20.6546 5.30489ZM17.5868 8.85822V8.96574L15.0567 11.2707L12.5265 13.5757L11.0237 14.945L9.52095 16.3142L9.39609 16.5671L9.27129 16.8201L9.1167 17.9232L8.96211 19.0263L8.88387 19.1188L8.80569 19.2112L8.67368 19.1927L8.5416 19.1742L7.99231 17.3128L7.44303 15.4515L7.43885 15.2468L7.43468 15.0421L7.5231 14.8744L7.61147 14.7067L7.74993 14.5828L7.88839 14.4588L12.6111 11.5942L17.3338 8.72966L17.4603 8.74021L17.5868 8.75076V8.85822Z" fill="#979797"/>
</svg>
