<svg width="94" height="32" viewBox="0 0 94 32" fill="none" xmlns="http://www.w3.org/2000/svg">
<g clip-path="url(#clip0_2272_10262)">
<path fill-rule="evenodd" clip-rule="evenodd" d="M13.9991 0.0331342C14.0766 -0.011102 14.1717 -0.0110409 14.249 0.0332949L28.0138 7.92181C28.1343 7.99088 28.1761 8.14457 28.107 8.26509C28.0379 8.38561 27.8842 8.42732 27.7637 8.35825L14.1237 0.541294L0.827299 8.13865L28.0124 23.4775C28.0909 23.5217 28.1396 23.6045 28.1403 23.6946C28.141 23.7846 28.0935 23.8682 28.0158 23.9136L14.2509 31.9638C14.1719 32.01 14.0741 32.0096 13.9954 31.9629L0.189413 23.757C0.111945 23.711 0.0650325 23.627 0.0664369 23.5369C0.0678414 23.4468 0.117348 23.3643 0.196213 23.3207L13.5876 15.916L0.194323 8.35908C0.115502 8.31461 0.0666519 8.23122 0.0664073 8.14071C0.0661627 8.05021 0.114561 7.96655 0.193141 7.92165L13.9991 0.0331342ZM14.1021 16.2063L0.823439 23.5487L14.1249 31.4547L27.3839 23.7004L14.1021 16.2063Z" fill="#35A4F0"/>
<path fill-rule="evenodd" clip-rule="evenodd" d="M27.9024 7.9668C28.0413 7.9668 28.1539 8.0794 28.1539 8.21831V23.6062C28.1539 23.745 28.0413 23.8576 27.9024 23.8576C27.7635 23.8576 27.6509 23.745 27.6509 23.6062V8.21831C27.6509 8.0794 27.7635 7.9668 27.9024 7.9668Z" fill="#35A4F0"/>
<path d="M10.9505 16.6029C11.5352 16.2832 11.5424 15.446 10.9632 15.1165L6.9728 12.846C6.40547 12.5232 5.70093 12.933 5.70093 13.5857V18.0375C5.70093 18.6838 6.39302 19.0942 6.96014 18.7842L10.9505 16.6029Z" fill="#7B7778"/>
<path d="M22.4095 18.1293C22.4095 18.7792 21.7104 19.1893 21.1431 18.8722L7.88255 11.4592C7.3042 11.1359 7.30085 10.3049 7.87658 9.97694L13.6677 6.6782C13.9292 6.52928 14.2498 6.52948 14.5111 6.67873L21.9805 10.9459C22.2457 11.0974 22.4095 11.3794 22.4095 11.6848V18.1293Z" fill="#BDBBBC"/>
<path d="M14.5457 25.2639C14.2758 25.4256 13.9386 25.4252 13.6691 25.2628L7.88987 21.7809C7.33043 21.4438 7.3435 20.6283 7.91345 20.3093L13.6927 17.0752C13.9502 16.931 14.2642 16.9306 14.5221 17.0742L20.3337 20.3084C20.906 20.6268 20.9191 21.4454 20.3573 21.782L14.5457 25.2639Z" fill="#231F20"/>
<path fill-rule="evenodd" clip-rule="evenodd" d="M0.317919 7.9668C0.456825 7.9668 0.569431 8.0794 0.569431 8.21831V23.6061C0.569431 23.745 0.456825 23.8576 0.317919 23.8576C0.179013 23.8576 0.0664062 23.745 0.0664062 23.6061V8.21831C0.0664062 8.0794 0.179013 7.9668 0.317919 7.9668Z" fill="#35A4F0"/>
<path d="M36.0652 19.8921C35.5113 19.8921 35.0222 19.8238 34.5978 19.6872C34.1734 19.5435 33.8136 19.3314 33.5188 19.0511C33.231 18.7707 33.0116 18.4221 32.8605 18.0052C32.7167 17.5811 32.6448 17.0923 32.6448 16.5388V13.0777C32.6448 12.747 32.7311 12.499 32.9037 12.3337C33.0763 12.1612 33.3209 12.075 33.6374 12.075C33.9611 12.075 34.2057 12.1612 34.3711 12.3337C34.5438 12.499 34.6301 12.747 34.6301 13.0777V16.5604C34.6301 17.1139 34.7524 17.5308 34.997 17.8111C35.2416 18.0915 35.5976 18.2316 36.0652 18.2316C36.5256 18.2316 36.8781 18.0915 37.1226 17.8111C37.3671 17.5308 37.4894 17.1139 37.4894 16.5604V13.0777C37.4894 12.747 37.5722 12.499 37.7377 12.3337C37.9103 12.1612 38.1548 12.075 38.4713 12.075C38.7879 12.075 39.0288 12.1612 39.1943 12.3337C39.3597 12.499 39.4424 12.747 39.4424 13.0777V16.5388C39.4424 17.2792 39.313 17.901 39.054 18.4041C38.8023 18.9001 38.4246 19.2739 37.9211 19.5255C37.4175 19.7699 36.7989 19.8921 36.0652 19.8921Z" fill="white"/>
<path d="M41.6977 19.8705C41.3955 19.8705 41.1654 19.7914 41.0071 19.6333C40.8488 19.4752 40.7698 19.2415 40.7698 18.9324V13.0561C40.7698 12.7398 40.8488 12.499 41.0071 12.3337C41.1654 12.1612 41.374 12.075 41.633 12.075C41.8632 12.075 42.043 12.1181 42.1724 12.2043C42.3019 12.2906 42.4458 12.4343 42.6041 12.6356L46.0245 16.9054H45.7223V13.0022C45.7223 12.7003 45.7979 12.4703 45.949 12.3121C46.1073 12.154 46.3374 12.075 46.6396 12.075C46.9417 12.075 47.1682 12.154 47.3193 12.3121C47.4776 12.4703 47.5567 12.7003 47.5567 13.0022V18.9756C47.5567 19.2488 47.4847 19.468 47.3409 19.6333C47.197 19.7914 47.0028 19.8705 46.7582 19.8705C46.5136 19.8705 46.3194 19.8274 46.1756 19.7412C46.0389 19.6477 45.8914 19.504 45.7332 19.3099L42.3128 15.0293H42.6149V18.9324C42.6149 19.2415 42.5357 19.4752 42.3774 19.6333C42.2264 19.7914 41.9998 19.8705 41.6977 19.8705Z" fill="white"/>
<path d="M49.9395 19.8705C49.6229 19.8705 49.3784 19.7843 49.2057 19.6118C49.0331 19.4321 48.9468 19.1805 48.9468 18.857V13.0885C48.9468 12.7578 49.0331 12.5062 49.2057 12.3337C49.3784 12.1612 49.6229 12.075 49.9395 12.075C50.2631 12.075 50.5077 12.1612 50.6731 12.3337C50.8458 12.5062 50.9321 12.7578 50.9321 13.0885V18.857C50.9321 19.1805 50.8494 19.4321 50.684 19.6118C50.5185 19.7843 50.2704 19.8705 49.9395 19.8705Z" fill="white"/>
<path d="M55.1352 19.8971C54.8474 19.8971 54.5453 19.8755 54.2288 19.8324C53.9195 19.7965 53.6246 19.7389 53.344 19.6599C53.0635 19.5808 52.8117 19.4874 52.5888 19.3796C52.3945 19.2861 52.2578 19.1639 52.1787 19.0129C52.0996 18.8548 52.0708 18.6895 52.0924 18.517C52.114 18.3445 52.1751 18.1935 52.2758 18.0641C52.3765 17.9275 52.5096 17.8377 52.6751 17.7945C52.8405 17.7442 53.0275 17.7658 53.2361 17.8593C53.5095 17.9887 53.8188 18.0892 54.1641 18.1612C54.5093 18.2331 54.8331 18.269 55.1352 18.269C55.61 18.269 55.9408 18.2079 56.1279 18.0857C56.3221 17.9563 56.4192 17.7982 56.4192 17.6112C56.4192 17.446 56.3508 17.3129 56.2142 17.2124C56.0847 17.1117 55.851 17.0254 55.5128 16.9536L54.2504 16.684C53.5599 16.5402 53.0455 16.2887 52.7074 15.9292C52.3694 15.5698 52.2003 15.1062 52.2003 14.5383C52.2003 14.1645 52.2758 13.8267 52.4269 13.5248C52.5851 13.2157 52.8045 12.9533 53.0851 12.7377C53.3728 12.5221 53.7109 12.3567 54.0993 12.2417C54.4949 12.1195 54.9337 12.0583 55.4157 12.0583C55.7898 12.0583 56.1674 12.1015 56.5487 12.1878C56.9371 12.2668 57.2716 12.3891 57.5521 12.5544C57.7176 12.6406 57.8363 12.7592 57.9082 12.9102C57.9802 13.0611 58.009 13.2193 57.9946 13.3846C57.9802 13.5428 57.9226 13.6829 57.8219 13.8051C57.7284 13.9274 57.5989 14.01 57.4335 14.0531C57.2752 14.089 57.0846 14.0603 56.8616 13.9668C56.653 13.8734 56.4156 13.8051 56.1494 13.762C55.8904 13.7117 55.6387 13.6865 55.3941 13.6865C55.128 13.6865 54.9014 13.7189 54.7143 13.7835C54.5274 13.8411 54.3835 13.9273 54.2828 14.0423C54.1893 14.1574 54.1425 14.2903 54.1425 14.4413C54.1425 14.5922 54.2036 14.7216 54.3259 14.8294C54.4554 14.9301 54.6892 15.0163 55.0273 15.0882L56.2789 15.3577C56.9767 15.5087 57.4982 15.7567 57.8435 16.1018C58.1888 16.4468 58.3614 16.896 58.3614 17.4495C58.3614 17.8233 58.2859 18.1612 58.1348 18.4631C57.9838 18.7649 57.768 19.0237 57.4874 19.2394C57.2069 19.4479 56.8688 19.6096 56.4731 19.7246C56.0775 19.8396 55.6316 19.8971 55.1352 19.8971Z" fill="white"/>
<path d="M63.1771 19.8971C62.3355 19.8971 61.6125 19.7354 61.0083 19.4119C60.404 19.0884 59.94 18.632 59.6164 18.0425C59.2999 17.4531 59.1416 16.763 59.1416 15.9723C59.1416 15.3829 59.2316 14.8474 59.4114 14.3658C59.5983 13.8842 59.8645 13.4709 60.2098 13.1259C60.5623 12.7808 60.9867 12.5184 61.483 12.3388C61.9865 12.1519 62.5513 12.0583 63.1771 12.0583C63.508 12.0583 63.8497 12.0979 64.2022 12.177C64.5618 12.2489 64.8783 12.3603 65.1516 12.5113C65.3531 12.6191 65.4933 12.7557 65.5725 12.9209C65.6516 13.0863 65.6768 13.2552 65.648 13.4277C65.6264 13.6002 65.5652 13.7548 65.4646 13.8914C65.3639 14.0279 65.2344 14.1214 65.0762 14.1717C64.9179 14.2148 64.7452 14.1897 64.5582 14.0963C64.3424 13.9956 64.1266 13.9201 63.9108 13.8698C63.7022 13.8123 63.4828 13.7835 63.2526 13.7835C62.8066 13.7835 62.4326 13.8698 62.1305 14.0423C61.8355 14.2077 61.6125 14.4521 61.4615 14.7756C61.3104 15.099 61.2348 15.4979 61.2348 15.9723C61.2348 16.4468 61.3104 16.8493 61.4615 17.18C61.6125 17.5034 61.8355 17.7515 62.1305 17.924C62.4326 18.0892 62.8066 18.172 63.2526 18.172C63.4397 18.172 63.6411 18.1503 63.8568 18.1073C64.0726 18.0569 64.2849 17.9814 64.4935 17.8808C64.7093 17.7874 64.8999 17.7622 65.0653 17.8053C65.2379 17.8485 65.3746 17.9347 65.4754 18.0641C65.5833 18.1935 65.6516 18.3445 65.6804 18.517C65.7091 18.6823 65.684 18.8477 65.6048 19.0129C65.5329 19.1783 65.4035 19.3113 65.2164 19.4119C64.9646 19.5629 64.6518 19.6815 64.2777 19.7677C63.9108 19.854 63.5439 19.8971 63.1771 19.8971Z" fill="white"/>
<path d="M67.7583 19.8736C67.4418 19.8736 67.1973 19.7874 67.0246 19.6149C66.852 19.4351 66.7656 19.1872 66.7656 18.8708V13.1778C66.7656 12.8543 66.852 12.6063 67.0246 12.4338C67.2044 12.2613 67.4526 12.175 67.7691 12.175H70.4235C71.2866 12.175 71.9521 12.3871 72.4196 12.8112C72.8944 13.2281 73.1318 13.8104 73.1318 14.558C73.1318 15.0396 73.0239 15.4601 72.8081 15.8194C72.5995 16.1717 72.2937 16.4448 71.891 16.639C71.4953 16.8258 71.0061 16.9193 70.4235 16.9193L70.5098 16.7252H71.0278C71.337 16.7252 71.6104 16.8007 71.8478 16.9516C72.0852 17.0954 72.2829 17.3182 72.4412 17.6201L72.9808 18.5905C73.0958 18.799 73.1498 19.0039 73.1425 19.2051C73.1354 19.3992 73.0562 19.5609 72.9052 19.6903C72.7613 19.8125 72.5491 19.8736 72.2685 19.8736C71.9881 19.8736 71.7579 19.8161 71.578 19.7011C71.4054 19.5861 71.2507 19.4064 71.1141 19.162L70.1322 17.3613C70.0459 17.2032 69.9343 17.0954 69.7976 17.0378C69.6682 16.9732 69.5171 16.9408 69.3445 16.9408H68.751V18.8708C68.751 19.1872 68.6683 19.4351 68.5029 19.6149C68.3374 19.7874 68.0892 19.8736 67.7583 19.8736ZM68.751 15.5391H70.0674C70.4486 15.5391 70.74 15.4636 70.9414 15.3127C71.1428 15.1618 71.2435 14.9282 71.2435 14.6118C71.2435 14.31 71.1428 14.0835 70.9414 13.9326C70.74 13.7744 70.4486 13.6954 70.0674 13.6954H68.751V15.5391Z" fill="white"/>
<path d="M77.9993 19.8971C77.2296 19.8971 76.5534 19.7354 75.9708 19.4119C75.3881 19.0813 74.9349 18.6212 74.6113 18.0318C74.2948 17.4424 74.1365 16.7559 74.1365 15.9723C74.1365 15.3829 74.2264 14.8474 74.4062 14.3658C74.5932 13.8842 74.8558 13.4709 75.1939 13.1259C75.5392 12.7808 75.9492 12.5184 76.424 12.3388C76.8987 12.1519 77.4239 12.0583 77.9993 12.0583C78.769 12.0583 79.4416 12.2201 80.0171 12.5436C80.5997 12.8671 81.0529 13.3235 81.3766 13.913C81.7003 14.4951 81.8622 15.1817 81.8622 15.9723C81.8622 16.5618 81.7686 17.0973 81.5816 17.5789C81.4018 18.0606 81.1392 18.4775 80.794 18.8296C80.4559 19.1747 80.0494 19.4407 79.5746 19.6275C79.0999 19.8073 78.5748 19.8971 77.9993 19.8971ZM77.9993 18.2366C78.3806 18.2366 78.7042 18.1468 78.9704 17.9671C79.2365 17.7874 79.4416 17.5286 79.5854 17.1907C79.7293 16.8529 79.8013 16.4468 79.8013 15.9723C79.8013 15.2607 79.643 14.7072 79.3265 14.3119C79.01 13.9165 78.5676 13.7189 77.9993 13.7189C77.6252 13.7189 77.3016 13.8087 77.0282 13.9885C76.762 14.161 76.557 14.4161 76.4132 14.7539C76.2693 15.0846 76.1974 15.4907 76.1974 15.9723C76.1974 16.684 76.3557 17.241 76.6722 17.6436C76.9887 18.0389 77.431 18.2366 77.9993 18.2366Z" fill="white"/>
<path d="M85.7904 19.8705C85.5249 19.8705 85.3087 19.8094 85.1433 19.6872C84.9779 19.5578 84.8484 19.3602 84.7549 19.0942L82.6508 13.2394C82.5358 12.9159 82.5537 12.6428 82.7048 12.42C82.8631 12.1899 83.14 12.075 83.5356 12.075C83.8018 12.075 84.0104 12.1396 84.1614 12.269C84.3125 12.3912 84.4312 12.5853 84.5175 12.8512L86.1248 17.671H85.6185L87.3443 12.8512C87.4456 12.5853 87.5707 12.3912 87.7222 12.269C87.8728 12.1396 88.0677 12.075 88.3051 12.075C88.5426 12.075 88.7332 12.1396 88.877 12.269C89.0208 12.3912 89.1391 12.5889 89.2327 12.8621L90.8514 17.671H90.4199L92.0709 12.8512C92.1568 12.5853 92.2717 12.3912 92.4155 12.269C92.567 12.1396 92.7755 12.075 93.0419 12.075C93.3729 12.075 93.6138 12.1899 93.7644 12.42C93.9227 12.6428 93.9406 12.9159 93.8189 13.2394L91.693 19.105C91.5994 19.3637 91.4701 19.5578 91.3041 19.6872C91.1458 19.8094 90.9339 19.8705 90.6675 19.8705C90.3944 19.8705 90.1748 19.8094 90.0097 19.6872C89.8514 19.5578 89.7255 19.3602 89.6319 19.0942L88.1102 14.8244H88.38L86.8269 19.105C86.7256 19.3637 86.5963 19.5578 86.438 19.6872C86.2797 19.8094 86.0644 19.8705 85.7904 19.8705Z" fill="white"/>
</g>
<defs>
<clipPath id="clip0_2272_10262">
<rect width="93.867" height="31.9982" fill="white" transform="translate(0.0664062)"/>
</clipPath>
</defs>
</svg>
