<svg width="47" height="47" viewBox="0 0 47 47" fill="none" xmlns="http://www.w3.org/2000/svg">
<g clip-path="url(#clip0_6173_403)">
<g clip-path="url(#clip1_6173_403)">
<path d="M21.6699 3.10542L21.988 3.07649V0.0410156L21.612 0.0713849C15.7457 0.541385 10.2995 3.18785 6.27559 7.52558C2.23732 11.8644 -0.00532187 17.5732 9.48373e-06 23.5005C-0.00522988 29.4277 2.23711 35.1364 6.27487 39.4755C10.2981 43.8118 15.7457 46.4589 21.6113 46.9297L21.9873 46.9593V43.9123L21.6692 43.8833C16.6026 43.4336 11.9026 41.1103 8.43398 37.3417C4.95225 33.5692 3.02003 28.6233 3.02247 23.4897C3.02247 18.3486 4.94585 13.4317 8.4347 9.64275C11.9019 5.87625 16.6011 3.55445 21.6699 3.10542ZM40.7251 7.52558C36.7019 3.18857 31.2543 0.539939 25.3887 0.0699387L25.0134 0.0410156V3.07649L25.3316 3.10542C30.3982 3.55517 35.0981 5.87914 38.5667 9.64782C42.0483 13.4203 43.9802 18.3663 43.9775 23.4998C43.9775 28.6402 42.0556 33.5592 38.5667 37.3518C35.0989 41.1212 30.3989 43.4444 25.3316 43.8942L25.0134 43.9224V46.9579L25.3894 46.9275C31.2557 46.4575 36.7019 43.8103 40.7259 39.4733C44.7633 35.134 47.0054 29.4254 47 23.4984C47.0052 17.5714 44.7628 11.863 40.7251 7.52414" fill="black"/>
</g>
<g clip-path="url(#clip2_6173_403)">
<path d="M4.91406 23.4811C4.91406 23.1801 4.91406 22.8753 4.93636 22.5742C4.93822 22.547 4.93822 22.5197 4.93636 22.4924C5.15081 18.4354 6.6888 14.5604 9.31493 11.4606C11.9411 8.36072 15.5106 6.20684 19.4773 5.32859C23.4439 4.45035 27.5891 4.89613 31.2783 6.59771C34.9675 8.29929 37.9974 11.1629 39.9044 14.7503C39.9056 14.7589 39.9056 14.7676 39.9044 14.7763C40.146 15.2297 40.369 15.6981 40.5735 16.1738L30.5974 26.1647C30.4456 26.3186 30.2394 26.4068 30.0233 26.4103C29.8071 26.4137 29.5982 26.3322 29.4415 26.1833L20.2609 17.6345C19.2942 16.7244 18.0102 16.2279 16.6827 16.2508C15.3551 16.2738 14.0891 16.8143 13.1543 17.7572L7.95072 22.9608L5.06645 25.8339C4.96535 25.0537 4.91444 24.2678 4.91406 23.4811Z" fill="#4F8CEF"/>
<path d="M6.34375 30.6213L8.69651 28.2649L16.1897 20.7754C16.3415 20.6219 16.5472 20.5336 16.7631 20.5295C16.979 20.5253 17.188 20.6055 17.3456 20.7531L26.5262 29.3019C27.4934 30.2111 28.7772 30.707 30.1044 30.6841C31.4317 30.6612 32.6976 30.1212 33.6328 29.1792L41.9065 20.9204C42.0286 21.7685 42.0895 22.6244 42.0886 23.4813V24.3287C42.0905 24.3535 42.0905 24.3783 42.0886 24.4031C41.8964 28.4761 40.37 32.3728 37.7446 35.4927C35.1193 38.6126 31.5407 40.7824 27.5604 41.6678C23.5802 42.5532 19.4192 42.105 15.7188 40.3923C12.0185 38.6795 8.9841 35.7973 7.0834 32.1898C7.08179 32.1825 7.08179 32.1749 7.0834 32.1675C6.80464 31.6583 6.56304 31.1454 6.34375 30.6213Z" fill="#FF8533"/>
</g>
</g>
<defs>
<clipPath id="clip0_6173_403">
<rect width="47" height="47" fill="white"/>
</clipPath>
<clipPath id="clip1_6173_403">
<rect width="47" height="46.9184" fill="white" transform="translate(0 0.0410156)"/>
</clipPath>
<clipPath id="clip2_6173_403">
<rect width="37.2867" height="37.2219" fill="white" transform="translate(4.85938 4.88916)"/>
</clipPath>
</defs>
</svg>
