<svg width="40" height="40" viewBox="0 0 40 40" fill="none" xmlns="http://www.w3.org/2000/svg">
<path d="M21.6667 36.6654H30C30.8841 36.6654 31.7319 36.3142 32.357 35.6891C32.9821 35.0639 33.3333 34.2161 33.3333 33.332V13.332M33.3333 13.332C33.3346 12.8039 33.2313 12.2807 33.0294 11.7927C32.8274 11.3047 32.5308 10.8615 32.1567 10.4887L26.1767 4.50871C25.8039 4.13458 25.3607 3.83797 24.8727 3.63602C24.3847 3.43406 23.8615 3.33075 23.3333 3.33204M33.3333 13.332H25C24.558 13.332 24.134 13.1564 23.8215 12.8439C23.5089 12.5313 23.3333 12.1074 23.3333 11.6654V3.33204M23.3333 3.33204H10C9.11594 3.33204 8.2681 3.68323 7.64298 4.30835C7.01786 4.93348 6.66667 5.78132 6.66667 6.66538V12.1654M12.8167 27.4637L14.9667 35.597C15.0123 35.7519 15.0119 35.9168 14.9656 36.0714C14.9192 36.2261 14.829 36.364 14.7057 36.4684C14.5825 36.5727 14.4316 36.639 14.2714 36.6592C14.1112 36.6794 13.9486 36.6526 13.8033 36.582L10.7317 35.167C10.5035 35.0557 10.2529 34.998 9.99897 34.9983C9.74508 34.9986 9.4946 35.0569 9.26667 35.1687L6.19 36.5854C6.0448 36.6534 5.88307 36.678 5.7242 36.6564C5.56533 36.6348 5.41607 36.5678 5.29432 36.4635C5.17257 36.3592 5.08351 36.2219 5.03781 36.0682C4.99211 35.9146 4.99171 35.7509 5.03667 35.597L7.18667 27.4637M15 23.332C15 26.0935 12.7614 28.332 10 28.332C7.23858 28.332 5 26.0935 5 23.332C5 20.5706 7.23858 18.332 10 18.332C12.7614 18.332 15 20.5706 15 23.332Z" stroke="#78FF04" stroke-width="2" stroke-linecap="round" stroke-linejoin="round"/>
</svg>
