<svg width="39" height="39" viewBox="0 0 39 39" fill="none" xmlns="http://www.w3.org/2000/svg">
<path d="M38.6672 12.5672C38.6672 18.8701 34.0271 24.071 27.9948 24.9797V24.8637C27.3954 17.3621 21.3052 11.2718 13.7455 10.6724H13.6875C14.5962 4.64019 19.7971 0 26.1001 0C33.041 0 38.6672 5.62624 38.6672 12.5672Z" fill="#65DA01"/>
<path d="M25.0957 25.0931C24.6124 18.9641 19.7015 14.0533 13.5726 13.5699C13.2439 13.5506 12.8959 13.5312 12.5672 13.5312C5.62624 13.5312 0 19.1575 0 26.0984C0 33.0394 5.62624 38.6656 12.5672 38.6656C19.5082 38.6656 25.1344 33.0394 25.1344 26.0984C25.1344 25.7698 25.115 25.4217 25.0957 25.0931ZM14.2686 27.7998L12.5672 30.932L10.8658 27.7998L7.73366 26.0984L10.8658 24.397L12.5672 21.2649L14.2686 24.397L17.4007 26.0984L14.2686 27.7998Z" fill="#65DA01"/>
</svg>
