<svg width="82" height="17" viewBox="0 0 82 17" fill="none" xmlns="http://www.w3.org/2000/svg">
<path d="M75.44 7.27033C75.8095 7.25168 76.1791 7.3105 76.5246 7.44296C76.8706 7.57542 77.1844 7.77862 77.4468 8.03959C77.7097 8.30052 77.9147 8.61343 78.0492 8.95827C78.1837 9.30305 78.2444 9.67216 78.228 10.0419C78.2542 10.4163 78.2006 10.792 78.07 11.144C77.9399 11.4959 77.736 11.816 77.4719 12.0829C77.2084 12.3498 76.8908 12.5575 76.5404 12.6919C76.19 12.8264 75.815 12.8846 75.44 12.8627C75.0677 12.879 74.6954 12.8176 74.3477 12.6824C74 12.5472 73.6846 12.3413 73.4211 12.0775C73.1571 11.8138 72.951 11.4981 72.816 11.1505C72.6809 10.8029 72.6192 10.4309 72.6356 10.0583C72.6192 9.68643 72.6804 9.31519 72.816 8.96838C72.9515 8.62158 73.1576 8.30686 73.4217 8.04441C73.6857 7.78195 74.0017 7.5775 74.3488 7.44422C74.6965 7.31094 75.0682 7.25168 75.44 7.27033ZM80.36 14.3551V1.79272H78.228V6.56512C77.3828 5.92388 76.3534 5.57298 75.2924 5.56472C74.0667 5.53799 72.8794 5.99413 71.9867 6.83469C71.094 7.6753 70.567 8.83303 70.52 10.0583C70.5544 11.2937 71.0748 12.4657 71.9686 13.3194C72.8624 14.1731 74.0569 14.6396 75.2924 14.6175C76.3551 14.6189 77.3877 14.267 78.228 13.6171V14.3551H80.36ZM62.4512 9.32032C62.5501 8.72397 62.8628 8.18391 63.3302 7.80076C63.7981 7.4176 64.3891 7.21741 64.9932 7.23752C65.5896 7.23539 66.1674 7.44285 66.6261 7.82355C67.0847 8.20425 67.3947 8.73408 67.5024 9.32032H62.4512ZM69.6016 10.8127V10.2715C69.6333 9.64969 69.5365 9.02802 69.3173 8.44533C69.0975 7.86264 68.7603 7.33155 68.3262 6.88514C67.8921 6.43879 67.3706 6.08674 66.7944 5.85107C66.2182 5.6154 65.5994 5.5012 64.9768 5.51552C64.3563 5.4883 63.7369 5.58818 63.1564 5.80898C62.5758 6.02972 62.0466 6.36679 61.6011 6.79948C61.1556 7.23211 60.803 7.75123 60.5652 8.32501C60.3274 8.89879 60.2093 9.51505 60.2186 10.1361C60.2273 10.7571 60.3629 11.3697 60.6171 11.9363C60.8713 12.503 61.2387 13.0118 61.6968 13.4314C62.1543 13.851 62.6933 14.1727 63.2799 14.3767C63.8665 14.5806 64.4886 14.6626 65.108 14.6175C65.9941 14.6478 66.8715 14.4383 67.6478 14.0111C68.4246 13.5838 69.0713 12.9547 69.5196 12.1903L67.6828 11.4851C67.6527 11.5327 67.6254 11.582 67.6008 11.6327C67.5559 11.6725 67.522 11.7234 67.5024 11.7803C67.2159 12.1364 66.8502 12.421 66.4347 12.6116C66.0193 12.8023 65.565 12.8939 65.108 12.8791C64.488 12.9252 63.8725 12.7392 63.3816 12.3574C62.8907 11.9756 62.5594 11.4252 62.4512 10.8127H69.6016ZM50.6925 1.79272V14.3551H52.8409V10.0583C52.7769 9.41856 52.9024 8.77415 53.2017 8.20512C53.4121 7.92075 53.6905 7.69366 54.0114 7.5447C54.3323 7.39568 54.6852 7.32953 55.0384 7.35232C55.3538 7.32625 55.6703 7.38201 55.9573 7.51414C56.2449 7.64632 56.493 7.85045 56.6784 8.10672C56.9561 8.64202 57.0813 9.24352 57.0392 9.84512V14.3551H59.1712V9.73033C59.2422 8.84959 59.0416 7.96831 58.5972 7.20472C58.2227 6.68769 57.7291 6.26867 57.1578 5.9832C56.5871 5.69767 55.9557 5.55412 55.3172 5.56472C54.4338 5.53362 53.5735 5.85178 52.9229 6.45033V1.79272H50.6925ZM44.2801 7.25392C44.6526 7.23545 45.0249 7.29471 45.3733 7.42782C45.7217 7.56099 46.0386 7.76511 46.3039 8.02729C46.5691 8.28947 46.777 8.60397 46.9142 8.95083C47.0514 9.29764 47.115 9.66921 47.1009 10.0419C47.1009 10.4102 47.0283 10.7749 46.8874 11.1151C46.7465 11.4554 46.5399 11.7645 46.2795 12.025C46.0191 12.2853 45.7099 12.4919 45.3697 12.6329C45.0294 12.7738 44.6648 12.8463 44.2965 12.8463C43.9282 12.8463 43.5635 12.7738 43.2233 12.6329C42.883 12.4919 42.5739 12.2853 42.3134 12.025C42.0531 11.7645 41.8465 11.4554 41.7055 11.1151C41.5646 10.7749 41.4921 10.4102 41.4921 10.0419C41.4783 9.6721 41.5409 9.30338 41.6762 8.95887C41.8114 8.61441 42.0163 8.3015 42.278 8.03981C42.5397 7.77812 42.8526 7.57323 43.197 7.43804C43.5415 7.3028 43.9103 7.24015 44.2801 7.25392ZM49.0361 14.3551V5.77793H46.9697V6.56512C46.1258 5.93334 45.1044 5.58331 44.0505 5.56472C43.4298 5.52744 42.8082 5.61753 42.2236 5.82937C41.6391 6.0412 41.104 6.3704 40.6514 6.79664C40.1988 7.22293 39.8381 7.73723 39.5916 8.30801C39.3451 8.87884 39.2179 9.494 39.2179 10.1157C39.2179 10.7374 39.3451 11.3527 39.5916 11.9234C39.8381 12.4942 40.1988 13.0085 40.6514 13.4348C41.104 13.861 41.6391 14.1902 42.2236 14.4021C42.8082 14.6139 43.4298 14.704 44.0505 14.6667C45.1017 14.6609 46.1217 14.3094 46.9533 13.6663V14.4043L49.0361 14.3551ZM24.2721 1.79272H21.9761L26.2401 14.3551H28.3393L31.3405 5.48272L34.4401 14.3551H36.5393L40.8033 1.79272H38.4089L35.4077 10.8455L32.2917 1.79272H30.4057L27.2897 10.8455L24.2721 1.79272Z" fill="#BDC1C2"/>
<path d="M7.39643 3.41409C7.12474 3.42443 6.86245 3.51587 6.64318 3.67662C6.42396 3.83739 6.25794 4.06011 6.16643 4.31609L3.65721 12.0897C3.6068 12.1887 3.58053 12.2984 3.58053 12.4095C3.58053 12.5206 3.6068 12.6302 3.65721 12.7293C3.72759 12.8169 3.81789 12.8865 3.92059 12.9321C4.02329 12.9777 4.13541 12.9981 4.24761 12.9917H19.844C19.9559 12.9956 20.0672 12.974 20.1695 12.9285C20.2717 12.8831 20.3623 12.815 20.4344 12.7293C20.4848 12.6302 20.5111 12.5206 20.5111 12.4095C20.5111 12.2984 20.4848 12.1887 20.4344 12.0897L18.04 4.31609C17.9419 4.0612 17.7719 3.84029 17.5507 3.68017C17.3294 3.52005 17.0664 3.42761 16.7936 3.41409H7.39643ZM19.926 14.9761H4.32961C3.90355 14.9839 3.4818 14.8897 3.09953 14.7014C2.71725 14.5132 2.38553 14.2362 2.13201 13.8937C1.88865 13.5475 1.72933 13.1494 1.6667 12.7309C1.60408 12.3125 1.63986 11.8851 1.77121 11.4829L4.28041 3.70929C4.49199 3.04862 4.90759 2.47206 5.46746 2.06246C6.02736 1.65286 6.70271 1.43132 7.39643 1.42969H16.8428C17.5357 1.44251 18.2079 1.66811 18.7682 2.07589C19.3286 2.48368 19.7499 3.05392 19.9752 3.70929L22.468 11.4829C22.6049 11.8838 22.6433 12.3118 22.58 12.7307C22.5167 13.1496 22.3534 13.5471 22.1042 13.8896C21.8549 14.2322 21.5269 14.5097 21.1478 14.6988C20.7687 14.8879 20.3496 14.983 19.926 14.9761Z" fill="#F8D234"/>
</svg>
