<svg version="1.1" id="Layer_1" xmlns="http://www.w3.org/2000/svg" xmlns:xlink="http://www.w3.org/1999/xlink" x="0px" y="0px" viewBox="0 0 595.3 263" style="enable-background:new 0 0 595.3 263;" xml:space="preserve">
<style type="text/css">
	.st0{fill:#31006F;}
	.st1{fill:url(#SVGID_1_);}
	.st2{fill:url(#SVGID_00000093868886438208241920000008168960292440744347_);}
	.st3{fill:#FFFFFF;}
</style>
<g>
	<g>
		<polygon class="st0" points="254.9,72.8 236.6,123 221.4,81.4 213.2,81.4 198,123 179.6,72.8 179.4,72.8 179.4,72.8 163.2,72.8 
			171.1,80.8 193.9,143.3 201.9,143.3 217.3,100.5 232.6,143.3 240.6,143.3 266.3,72.8 		"></polygon>
		<path class="st0" d="M330.9,143.3h12l-33.1-70.5h-8.2l-32.9,70.5h11.8l5-10.7h40.5L330.9,143.3z M290.6,121.9l15.2-32.6l15.2,32.6
			H290.6z"></path>
		<polygon class="st0" points="407.3,143.3 418,143.3 418,72.8 407.3,72.8 407.3,102.7 371,102.7 371,72.8 370.8,72.8 370.8,72.8 
			354.5,72.8 360.4,78.6 360.4,143.3 371,143.3 371,113.4 407.3,113.4 		"></polygon>
		<path class="st0" d="M563.7,83.2c-6.9-6.9-15.2-10.3-24.9-10.3h-18.3v0h-16.3l5.7,5.7v64.8h29c9.7,0,18-3.4,24.9-10.3
			c6.9-6.9,10.3-15.2,10.3-24.9C574,98.3,570.6,90.1,563.7,83.2z M556.2,125.4c-4.8,4.8-10.6,7.2-17.3,7.2h-18.3V83.5h18.3
			c6.8,0,12.6,2.4,17.3,7.2c4.8,4.8,7.2,10.6,7.2,17.3C563.3,114.8,560.9,120.7,556.2,125.4z"></path>
		<path class="st0" d="M271.4,164.9h-9.8v25.9h3.9v-6.3h5.9c2.7,0,5-1,6.9-2.9c1.9-1.9,2.9-4.2,2.9-7c0-2.7-1-5-2.9-6.9
			C276.4,165.8,274.1,164.9,271.4,164.9z M275.6,178.9c-1.1,1.1-2.5,1.7-4.1,1.7h-5.9v-11.8h5.9c1.6,0,3,0.6,4.1,1.7
			c1.1,1.1,1.7,2.5,1.7,4.1C277.3,176.3,276.7,177.7,275.6,178.9z"></path>
		<path class="st0" d="M311.8,174.7c0-2.7-1-5-2.9-6.9c-1.9-1.9-4.2-2.9-6.9-2.9h-9.8v25.9h3.9v-6.3h5.9c0.6,0,1.1,0,1.6-0.1
			l3.2,6.4h4.4l-3.9-7.8c0.6-0.4,1.1-0.8,1.7-1.4C310.9,179.7,311.8,177.4,311.8,174.7z M306.2,178.9c-1.1,1.1-2.5,1.7-4.1,1.7h-5.9
			v-11.8h5.9c1.6,0,3,0.6,4.1,1.7c1.1,1.1,1.7,2.5,1.7,4.1C307.9,176.3,307.3,177.7,306.2,178.9z"></path>
		<path class="st0" d="M335.8,164.1c-3.8,0-7.1,1.3-9.7,4c-2.7,2.7-4,5.9-4,9.7c0,3.8,1.3,7.1,4,9.7c2.7,2.7,5.9,4,9.7,4
			c3.8,0,7-1.3,9.7-4c2.7-2.7,4-5.9,4-9.7c0-3.8-1.3-7-4-9.7C342.8,165.4,339.6,164.1,335.8,164.1z M342.7,184.8
			c-1.9,1.9-4.2,2.9-6.9,2.9c-2.7,0-5-1-7-2.9c-1.9-1.9-2.9-4.2-2.9-7c0-2.7,1-5,2.9-6.9c1.9-1.9,4.2-2.9,7-2.9c2.7,0,5,1,6.9,2.9
			c1.9,1.9,2.9,4.2,2.9,6.9C345.6,180.5,344.6,182.9,342.7,184.8z"></path>
		<path class="st0" d="M362.1,181.4c0,1.5-0.5,2.8-1.6,3.9c-1.1,1.1-2.6,1.6-4.7,1.6v3.9c3.1,0,5.6-0.9,7.4-2.8
			c1.8-1.8,2.7-4.1,2.7-6.7v-16.5h-3.9L362.1,181.4L362.1,181.4z"></path>
		<polygon class="st0" points="377.8,190.8 394.3,190.8 394.3,186.9 381.7,186.9 381.7,179.8 391.1,179.8 391.1,175.9 381.7,175.9 
			381.7,168.8 394.3,168.8 394.3,164.9 377.8,164.9 		"></polygon>
		<path class="st0" d="M415.9,168c2.7,0,5,0.9,6.9,2.9l2.8-2.8c-2.7-2.7-5.9-4-9.7-4c-3.8,0-7.1,1.3-9.7,4c-2.7,2.7-4,5.9-4,9.7
			c0,3.8,1.3,7.1,4,9.7c2.7,2.7,5.9,4,9.7,4c3.7,0,6.9-1.3,9.6-3.9l-2.9-2.7c-1.9,1.8-4.1,2.7-6.7,2.7c-2.7,0-5-1-7-2.9
			c-1.9-1.9-2.9-4.2-2.9-7c0-2.7,1-5,2.9-6.9C410.9,169,413.2,168,415.9,168z"></path>
		<polygon class="st0" points="433.5,168.8 440.6,168.8 440.6,190.8 444.5,190.8 444.5,168.8 451.6,168.8 451.6,164.9 433.5,164.9 
					"></polygon>
		<path class="st0" d="M474.7,176.8l-6.2-1.7c-1.1-0.3-2-0.8-2.6-1.5c-0.6-0.6-0.9-1.4-0.9-2.2c0-0.9,0.5-1.7,1.4-2.4s2.1-1,3.6-1
			c1,0,2.2,0.2,3.3,0.5c1.2,0.4,2.2,0.9,3.2,1.7l3.4-2.4c-1.4-1.3-3-2.2-4.8-2.8c-1.8-0.6-3.5-1-5.1-1c-2.6,0-4.8,0.7-6.4,2
			c-1.6,1.4-2.5,3.1-2.5,5.2c0,1.7,0.5,3.2,1.6,4.5s2.7,2.3,4.8,2.9l5.8,1.6c1.1,0.3,2,0.8,2.6,1.4c0.6,0.6,0.9,1.3,0.9,2.1
			c0,1.1-0.6,1.9-1.7,2.6c-1.1,0.7-2.6,1.1-4.5,1.1c-1.4,0-2.8-0.3-4.1-0.9c-1.4-0.6-2.6-1.6-3.7-3.1l-3.2,2.3
			c1.2,1.7,2.8,3.1,4.6,4.1c1.8,1,4,1.5,6.5,1.5c3.1,0,5.5-0.7,7.4-2.1c1.8-1.4,2.8-3.2,2.8-5.4c0-1.9-0.5-3.4-1.6-4.6
			C477.9,178.2,476.5,177.3,474.7,176.8z"></path>
		<polygon class="st0" points="454.1,72.8 437.8,72.8 443.6,78.7 443.6,143.3 488.5,143.3 488.5,132.6 454.3,132.6 454.3,113.4 
			487.6,113.4 487.6,102.7 454.3,102.7 454.3,83.5 488.5,83.5 488.5,72.8 454.1,72.8 		"></polygon>
	</g>
</g>
<g>
	
		<linearGradient id="SVGID_1_" gradientUnits="userSpaceOnUse" x1="17.1681" y1="193.7009" x2="78.2395" y2="106.9152" gradientTransform="matrix(1 0 0 -1 0 266)">
		<stop offset="0" style="stop-color:#03B2E2"></stop>
		<stop offset="1" style="stop-color:#37246A"></stop>
	</linearGradient>
	<path class="st1" d="M97.6,15.7L45.2,70.9L21,95.1v153.5l52.4-55.2l24.2-24.2C97.6,169.2,97.6,15.7,97.6,15.7z M70.8,193.4H47.8
		V68.2h23.1V193.4z"></path>
	
		<linearGradient id="SVGID_00000177465742364972015710000008271754100209520288_" gradientUnits="userSpaceOnUse" x1="58.8314" y1="133.1465" x2="99.3314" y2="189.7179" gradientTransform="matrix(1 0 0 -1 0 266)">
		<stop offset="9.250000e-02" style="stop-color:#B82C91;stop-opacity:0"></stop>
		<stop offset="1" style="stop-color:#B82C91"></stop>
	</linearGradient>
	<path style="fill:url(#SVGID_00000177465742364972015710000008271754100209520288_);" d="M97.6,15.7L45.2,70.9L21,95.1v153.5
		l52.4-55.2l24.2-24.2C97.6,169.2,97.6,15.7,97.6,15.7z M70.8,193.4H47.8V68.2h23.1V193.4z"></path>
</g>
<path class="st3" d="M153.6,99.2"></path>
</svg>