<svg width="48" height="48" viewBox="0 0 48 48" fill="none" xmlns="http://www.w3.org/2000/svg">
<path opacity="0.5" d="M0 15C0 6.71573 6.71573 0 15 0H33C41.2843 0 48 6.71573 48 15V33C48 41.2843 41.2843 48 33 48H15C6.71573 48 0 41.2843 0 33V15Z" fill="#30473A"/>
<path d="M27.75 20.2499L20.25 27.7499M20.25 20.2499L27.75 27.7499M36 25.4999C36 32.9999 30.75 36.7499 24.51 38.9249C24.1832 39.0357 23.8283 39.0304 23.505 38.9099C17.25 36.7499 12 32.9999 12 25.4999V14.9999C12 14.6021 12.158 14.2206 12.4393 13.9393C12.7206 13.658 13.1022 13.4999 13.5 13.4999C16.5 13.4999 20.25 11.6999 22.86 9.41994C23.1778 9.14844 23.582 8.99927 24 8.99927C24.418 8.99927 24.8222 9.14844 25.14 9.41994C27.765 11.7149 31.5 13.4999 34.5 13.4999C34.8978 13.4999 35.2794 13.658 35.5607 13.9393C35.842 14.2206 36 14.6021 36 14.9999V25.4999Z" stroke="#78FE05" stroke-width="2.88849" stroke-linecap="round" stroke-linejoin="round"/>
</svg>
