<svg width="297" height="52" viewBox="0 0 297 52" fill="none" xmlns="http://www.w3.org/2000/svg">
<path d="M8 52H274.5L297 39.9688V8H278V10.75H253V8H28.5L8 20.375V52Z" fill="#735AA9"/>
<path d="M292 1H271V3.75H248V1H22.2217L21.9834 1.14355L1.4834 13.5186L1 13.8105V47H268.751L268.972 46.8818L291.472 34.8506L292 34.5684V1Z" fill="url(#paint0_linear_4411_3734)" stroke="url(#paint1_linear_4411_3734)" stroke-width="2"/>
<path d="M40.177 31C40.0863 31 40.024 30.9603 39.99 30.881L37.61 25.798C37.5987 25.764 37.576 25.747 37.542 25.747H35.094C35.0487 25.747 35.026 25.7697 35.026 25.815V30.83C35.026 30.9433 34.9693 31 34.856 31H33.564C33.4507 31 33.394 30.9433 33.394 30.83V19.27C33.394 19.1567 33.4507 19.1 33.564 19.1H38.137C38.817 19.1 39.412 19.2417 39.922 19.525C40.4433 19.8083 40.8457 20.205 41.129 20.715C41.4123 21.225 41.554 21.8143 41.554 22.483C41.554 23.2763 41.3443 23.9507 40.925 24.506C40.517 25.05 39.9447 25.4183 39.208 25.611C39.1627 25.6337 39.1513 25.662 39.174 25.696L41.639 30.796C41.6503 30.8187 41.656 30.847 41.656 30.881C41.656 30.9603 41.6107 31 41.52 31H40.177ZM35.094 20.511C35.0487 20.511 35.026 20.5337 35.026 20.579V24.387C35.026 24.4323 35.0487 24.455 35.094 24.455H37.933C38.5337 24.455 39.0153 24.2793 39.378 23.928C39.7407 23.5653 39.922 23.0893 39.922 22.5C39.922 21.8993 39.7407 21.4177 39.378 21.055C39.0153 20.6923 38.5337 20.511 37.933 20.511H35.094ZM50.5534 25.594C50.5987 26.0587 50.6157 26.58 50.6044 27.158C50.6044 27.2713 50.5477 27.328 50.4344 27.328H45.0114C44.966 27.328 44.9434 27.3507 44.9434 27.396C44.9434 27.7813 44.9774 28.076 45.0454 28.28C45.17 28.7333 45.4194 29.0903 45.7934 29.351C46.1787 29.6003 46.6604 29.725 47.2384 29.725C48.077 29.725 48.723 29.3793 49.1764 28.688C49.233 28.5747 49.3067 28.5577 49.3974 28.637L50.3664 29.283C50.4457 29.351 50.4627 29.4247 50.4174 29.504C50.1 30.014 49.6467 30.4163 49.0574 30.711C48.4794 31.0057 47.822 31.153 47.0854 31.153C46.258 31.153 45.561 30.9717 44.9944 30.609C44.4277 30.2463 44.0027 29.7307 43.7194 29.062C43.4474 28.3933 43.3114 27.583 43.3114 26.631C43.3114 25.8037 43.3737 25.1747 43.4984 24.744C43.7024 23.962 44.1104 23.3443 44.7224 22.891C45.3344 22.4377 46.0767 22.211 46.9494 22.211C48.094 22.211 48.9497 22.5 49.5164 23.078C50.083 23.6447 50.4287 24.4833 50.5534 25.594ZM46.9494 23.622C46.462 23.622 46.0597 23.7467 45.7424 23.996C45.425 24.234 45.2097 24.557 45.0964 24.965C45.017 25.2143 44.966 25.5317 44.9434 25.917C44.9434 25.9623 44.966 25.985 45.0114 25.985H48.9044C48.9497 25.985 48.9724 25.9623 48.9724 25.917C48.9497 25.543 48.9157 25.2653 48.8704 25.084C48.757 24.642 48.5304 24.2907 48.1904 24.03C47.8617 23.758 47.448 23.622 46.9494 23.622ZM58.0356 22.517C58.0356 22.4037 58.0923 22.347 58.2056 22.347H59.4976C59.611 22.347 59.6676 22.4037 59.6676 22.517V34.077C59.6676 34.1903 59.611 34.247 59.4976 34.247H58.2056C58.0923 34.247 58.0356 34.1903 58.0356 34.077V30.286C58.0356 30.2633 58.0243 30.2463 58.0016 30.235C57.9903 30.2237 57.9733 30.2293 57.9506 30.252C57.7013 30.5353 57.401 30.7563 57.0496 30.915C56.7096 31.0623 56.347 31.136 55.9616 31.136C55.1116 31.136 54.4146 30.932 53.8706 30.524C53.3266 30.1047 52.9356 29.5153 52.6976 28.756C52.5163 28.178 52.4256 27.4923 52.4256 26.699C52.4256 25.8603 52.5333 25.135 52.7486 24.523C52.998 23.7863 53.389 23.2197 53.9216 22.823C54.4656 22.415 55.1456 22.211 55.9616 22.211C56.3583 22.211 56.7266 22.2903 57.0666 22.449C57.4066 22.6077 57.7013 22.8287 57.9506 23.112C57.9733 23.1347 57.9903 23.1403 58.0016 23.129C58.0243 23.1177 58.0356 23.1007 58.0356 23.078V22.517ZM57.5766 28.858C57.86 28.3707 58.0016 27.6453 58.0016 26.682C58.0016 25.73 57.8713 25.016 57.6106 24.54C57.2706 23.928 56.772 23.622 56.1146 23.622C55.3666 23.622 54.8283 23.9337 54.4996 24.557C54.2163 25.0897 54.0746 25.7923 54.0746 26.665C54.0746 27.617 54.256 28.365 54.6186 28.909C54.9473 29.453 55.4516 29.725 56.1316 29.725C56.7663 29.725 57.248 29.436 57.5766 28.858ZM67.2941 22.517C67.2941 22.4037 67.3508 22.347 67.4641 22.347H68.7391C68.8525 22.347 68.9091 22.4037 68.9091 22.517V30.83C68.9091 30.9433 68.8525 31 68.7391 31H67.4641C67.3508 31 67.2941 30.9433 67.2941 30.83V30.201C67.2941 30.1783 67.2828 30.167 67.2601 30.167C67.2488 30.1557 67.2318 30.1613 67.2091 30.184C66.7558 30.8073 66.0588 31.119 65.1181 31.119C64.5628 31.119 64.0471 31.0113 63.5711 30.796C63.1065 30.5807 62.7325 30.2633 62.4491 29.844C62.1658 29.4247 62.0241 28.9147 62.0241 28.314V22.517C62.0241 22.4037 62.0808 22.347 62.1941 22.347H63.4691C63.5825 22.347 63.6391 22.4037 63.6391 22.517V27.804C63.6391 28.3933 63.7921 28.858 64.0981 29.198C64.4155 29.538 64.8575 29.708 65.4241 29.708C65.9908 29.708 66.4441 29.538 66.7841 29.198C67.1241 28.8467 67.2941 28.382 67.2941 27.804V22.517ZM78.2946 25.594C78.3399 26.0587 78.3569 26.58 78.3456 27.158C78.3456 27.2713 78.2889 27.328 78.1756 27.328H72.7526C72.7073 27.328 72.6846 27.3507 72.6846 27.396C72.6846 27.7813 72.7186 28.076 72.7866 28.28C72.9113 28.7333 73.1606 29.0903 73.5346 29.351C73.9199 29.6003 74.4016 29.725 74.9796 29.725C75.8183 29.725 76.4643 29.3793 76.9176 28.688C76.9743 28.5747 77.0479 28.5577 77.1386 28.637L78.1076 29.283C78.1869 29.351 78.2039 29.4247 78.1586 29.504C77.8413 30.014 77.3879 30.4163 76.7986 30.711C76.2206 31.0057 75.5633 31.153 74.8266 31.153C73.9993 31.153 73.3023 30.9717 72.7356 30.609C72.1689 30.2463 71.7439 29.7307 71.4606 29.062C71.1886 28.3933 71.0526 27.583 71.0526 26.631C71.0526 25.8037 71.1149 25.1747 71.2396 24.744C71.4436 23.962 71.8516 23.3443 72.4636 22.891C73.0756 22.4377 73.8179 22.211 74.6906 22.211C75.8353 22.211 76.6909 22.5 77.2576 23.078C77.8243 23.6447 78.1699 24.4833 78.2946 25.594ZM74.6906 23.622C74.2033 23.622 73.8009 23.7467 73.4836 23.996C73.1663 24.234 72.9509 24.557 72.8376 24.965C72.7583 25.2143 72.7073 25.5317 72.6846 25.917C72.6846 25.9623 72.7073 25.985 72.7526 25.985H76.6456C76.6909 25.985 76.7136 25.9623 76.7136 25.917C76.6909 25.543 76.6569 25.2653 76.6116 25.084C76.4983 24.642 76.2716 24.2907 75.9316 24.03C75.6029 23.758 75.1893 23.622 74.6906 23.622ZM83.315 31.102C82.635 31.102 82.0344 31 81.513 30.796C81.003 30.592 80.6064 30.3143 80.323 29.963C80.0397 29.6003 79.898 29.2037 79.898 28.773V28.586C79.898 28.4727 79.9547 28.416 80.068 28.416H81.292C81.4054 28.416 81.462 28.4727 81.462 28.586V28.671C81.462 28.9883 81.632 29.266 81.972 29.504C82.3234 29.742 82.7654 29.861 83.298 29.861C83.808 29.861 84.2217 29.7533 84.539 29.538C84.8564 29.3113 85.015 29.028 85.015 28.688C85.015 28.3593 84.8677 28.1157 84.573 27.957C84.2784 27.787 83.8024 27.6113 83.145 27.43C82.499 27.2487 81.955 27.0673 81.513 26.886C81.0824 26.6933 80.714 26.427 80.408 26.087C80.1134 25.7357 79.966 25.288 79.966 24.744C79.966 23.9847 80.2607 23.384 80.85 22.942C81.4507 22.4887 82.244 22.262 83.23 22.262C83.8874 22.262 84.4654 22.3697 84.964 22.585C85.474 22.789 85.865 23.078 86.137 23.452C86.409 23.826 86.545 24.2453 86.545 24.71V24.761C86.545 24.8743 86.4884 24.931 86.375 24.931H85.185C85.0717 24.931 85.015 24.8743 85.015 24.761V24.71C85.015 24.3813 84.8507 24.1093 84.522 23.894C84.2047 23.6673 83.7684 23.554 83.213 23.554C82.7144 23.554 82.3064 23.6503 81.989 23.843C81.683 24.0357 81.53 24.2963 81.53 24.625C81.53 24.9537 81.6774 25.203 81.972 25.373C82.278 25.543 82.7654 25.7243 83.434 25.917C84.0914 26.0983 84.6354 26.2797 85.066 26.461C85.508 26.631 85.882 26.8917 86.188 27.243C86.494 27.583 86.647 28.0307 86.647 28.586C86.647 29.3567 86.341 29.9687 85.729 30.422C85.1284 30.8753 84.3237 31.102 83.315 31.102ZM92.8066 23.52C92.8066 23.6333 92.7499 23.69 92.6366 23.69H90.8006C90.7553 23.69 90.7326 23.7127 90.7326 23.758V28.263C90.7326 28.739 90.8403 29.0847 91.0556 29.3C91.2709 29.504 91.6053 29.606 92.0586 29.606H92.5516C92.6649 29.606 92.7216 29.6627 92.7216 29.776V30.83C92.7216 30.9433 92.6649 31 92.5516 31C92.1889 31.0227 91.9283 31.034 91.7696 31.034C90.9083 31.034 90.2566 30.881 89.8146 30.575C89.3839 30.2577 89.1686 29.6797 89.1686 28.841V23.758C89.1686 23.7127 89.1459 23.69 89.1006 23.69H88.0636C87.9503 23.69 87.8936 23.6333 87.8936 23.52V22.517C87.8936 22.4037 87.9503 22.347 88.0636 22.347H89.1006C89.1459 22.347 89.1686 22.3243 89.1686 22.279V20.273C89.1686 20.1597 89.2253 20.103 89.3386 20.103H90.5626C90.6759 20.103 90.7326 20.1597 90.7326 20.273V22.279C90.7326 22.3243 90.7553 22.347 90.8006 22.347H92.6366C92.7499 22.347 92.8066 22.4037 92.8066 22.517V23.52ZM100.853 31C100.751 31 100.689 30.9547 100.666 30.864L97.4703 19.287L97.4533 19.236C97.4533 19.1453 97.51 19.1 97.6233 19.1H99.0003C99.1023 19.1 99.1647 19.151 99.1873 19.253L101.414 27.719C101.426 27.7417 101.437 27.753 101.448 27.753C101.471 27.753 101.488 27.7417 101.499 27.719L103.607 19.253C103.63 19.151 103.692 19.1 103.794 19.1H105.137C105.239 19.1 105.302 19.151 105.324 19.253L107.551 27.736C107.563 27.7587 107.574 27.77 107.585 27.77C107.597 27.77 107.608 27.7587 107.619 27.736L109.863 19.253C109.886 19.151 109.948 19.1 110.05 19.1H111.342C111.399 19.1 111.439 19.117 111.461 19.151C111.495 19.185 111.507 19.2303 111.495 19.287L108.418 30.847C108.396 30.949 108.333 31 108.231 31H106.922C106.82 31 106.758 30.949 106.735 30.847L104.508 22.075C104.497 22.041 104.486 22.024 104.474 22.024C104.463 22.024 104.452 22.041 104.44 22.075L102.281 30.847C102.27 30.949 102.208 31 102.094 31H100.853ZM115.425 22.211C116.117 22.211 116.717 22.3357 117.227 22.585C117.749 22.823 118.145 23.163 118.417 23.605C118.701 24.0357 118.842 24.5287 118.842 25.084V30.83C118.842 30.9433 118.786 31 118.672 31H117.38C117.267 31 117.21 30.9433 117.21 30.83V30.218C117.21 30.1613 117.182 30.15 117.125 30.184C116.831 30.49 116.468 30.728 116.037 30.898C115.618 31.0567 115.148 31.136 114.626 31.136C113.788 31.136 113.091 30.9263 112.535 30.507C111.991 30.0763 111.719 29.4303 111.719 28.569C111.719 27.685 112.025 26.9937 112.637 26.495C113.261 25.985 114.128 25.73 115.238 25.73H117.142C117.188 25.73 117.21 25.7073 117.21 25.662V25.203C117.21 24.7043 117.063 24.319 116.768 24.047C116.485 23.7637 116.049 23.622 115.459 23.622C114.983 23.622 114.592 23.7183 114.286 23.911C113.992 24.0923 113.81 24.3417 113.742 24.659C113.708 24.7723 113.64 24.8233 113.538 24.812L112.161 24.625C112.048 24.6023 111.997 24.557 112.008 24.489C112.099 23.8203 112.456 23.2763 113.079 22.857C113.703 22.4263 114.485 22.211 115.425 22.211ZM114.983 29.759C115.584 29.759 116.105 29.6003 116.547 29.283C116.989 28.9657 117.21 28.5633 117.21 28.076V27.073C117.21 27.0277 117.188 27.005 117.142 27.005H115.544C114.876 27.005 114.343 27.1353 113.946 27.396C113.55 27.6567 113.351 28.0193 113.351 28.484C113.351 28.9033 113.499 29.2207 113.793 29.436C114.099 29.6513 114.496 29.759 114.983 29.759ZM121.215 31C121.102 31 121.045 30.9433 121.045 30.83V19.27C121.045 19.1567 121.102 19.1 121.215 19.1H122.507C122.621 19.1 122.677 19.1567 122.677 19.27V30.83C122.677 30.9433 122.621 31 122.507 31H121.215ZM125.216 31C125.103 31 125.046 30.9433 125.046 30.83V19.27C125.046 19.1567 125.103 19.1 125.216 19.1H126.508C126.622 19.1 126.678 19.1567 126.678 19.27V30.83C126.678 30.9433 126.622 31 126.508 31H125.216ZM136.051 25.594C136.097 26.0587 136.114 26.58 136.102 27.158C136.102 27.2713 136.046 27.328 135.932 27.328H130.509C130.464 27.328 130.441 27.3507 130.441 27.396C130.441 27.7813 130.475 28.076 130.543 28.28C130.668 28.7333 130.917 29.0903 131.291 29.351C131.677 29.6003 132.158 29.725 132.736 29.725C133.575 29.725 134.221 29.3793 134.674 28.688C134.731 28.5747 134.805 28.5577 134.895 28.637L135.864 29.283C135.944 29.351 135.961 29.4247 135.915 29.504C135.598 30.014 135.145 30.4163 134.555 30.711C133.977 31.0057 133.32 31.153 132.583 31.153C131.756 31.153 131.059 30.9717 130.492 30.609C129.926 30.2463 129.501 29.7307 129.217 29.062C128.945 28.3933 128.809 27.583 128.809 26.631C128.809 25.8037 128.872 25.1747 128.996 24.744C129.2 23.962 129.608 23.3443 130.22 22.891C130.832 22.4377 131.575 22.211 132.447 22.211C133.592 22.211 134.448 22.5 135.014 23.078C135.581 23.6447 135.927 24.4833 136.051 25.594ZM132.447 23.622C131.96 23.622 131.558 23.7467 131.24 23.996C130.923 24.234 130.708 24.557 130.594 24.965C130.515 25.2143 130.464 25.5317 130.441 25.917C130.441 25.9623 130.464 25.985 130.509 25.985H134.402C134.448 25.985 134.47 25.9623 134.47 25.917C134.448 25.543 134.414 25.2653 134.368 25.084C134.255 24.642 134.028 24.2907 133.688 24.03C133.36 23.758 132.946 23.622 132.447 23.622ZM142.296 23.52C142.296 23.6333 142.239 23.69 142.126 23.69H140.29C140.245 23.69 140.222 23.7127 140.222 23.758V28.263C140.222 28.739 140.33 29.0847 140.545 29.3C140.76 29.504 141.095 29.606 141.548 29.606H142.041C142.154 29.606 142.211 29.6627 142.211 29.776V30.83C142.211 30.9433 142.154 31 142.041 31C141.678 31.0227 141.418 31.034 141.259 31.034C140.398 31.034 139.746 30.881 139.304 30.575C138.873 30.2577 138.658 29.6797 138.658 28.841V23.758C138.658 23.7127 138.635 23.69 138.59 23.69H137.553C137.44 23.69 137.383 23.6333 137.383 23.52V22.517C137.383 22.4037 137.44 22.347 137.553 22.347H138.59C138.635 22.347 138.658 22.3243 138.658 22.279V20.273C138.658 20.1597 138.715 20.103 138.828 20.103H140.052C140.165 20.103 140.222 20.1597 140.222 20.273V22.279C140.222 22.3243 140.245 22.347 140.29 22.347H142.126C142.239 22.347 142.296 22.4037 142.296 22.517V23.52ZM151.584 31.136C150.711 31.136 149.952 31 149.306 30.728C148.671 30.456 148.178 30.0707 147.827 29.572C147.487 29.0733 147.317 28.4897 147.317 27.821V27.328C147.317 27.2147 147.373 27.158 147.487 27.158H148.728C148.841 27.158 148.898 27.2147 148.898 27.328V27.736C148.898 28.314 149.147 28.79 149.646 29.164C150.144 29.538 150.83 29.725 151.703 29.725C152.485 29.725 153.074 29.5607 153.471 29.232C153.867 28.9033 154.066 28.4727 154.066 27.94C154.066 27.5887 153.964 27.2883 153.76 27.039C153.556 26.7897 153.255 26.563 152.859 26.359C152.473 26.1437 151.907 25.8887 151.159 25.594C150.331 25.2767 149.674 24.9877 149.187 24.727C148.711 24.4663 148.314 24.1263 147.997 23.707C147.679 23.2763 147.521 22.738 147.521 22.092C147.521 21.1173 147.866 20.3523 148.558 19.797C149.26 19.2417 150.207 18.964 151.397 18.964C152.235 18.964 152.972 19.1057 153.607 19.389C154.241 19.6723 154.729 20.069 155.069 20.579C155.42 21.089 155.596 21.6783 155.596 22.347V22.687C155.596 22.8003 155.539 22.857 155.426 22.857H154.151C154.037 22.857 153.981 22.8003 153.981 22.687V22.432C153.981 21.8427 153.743 21.3553 153.267 20.97C152.802 20.5733 152.156 20.375 151.329 20.375C150.626 20.375 150.082 20.5223 149.697 20.817C149.311 21.1003 149.119 21.514 149.119 22.058C149.119 22.432 149.215 22.738 149.408 22.976C149.6 23.214 149.884 23.4293 150.258 23.622C150.643 23.8033 151.227 24.0413 152.009 24.336C152.813 24.6533 153.465 24.948 153.964 25.22C154.462 25.4807 154.876 25.832 155.205 26.274C155.533 26.7047 155.698 27.243 155.698 27.889C155.698 28.8863 155.329 29.6797 154.593 30.269C153.867 30.847 152.864 31.136 151.584 31.136ZM164.706 25.594C164.751 26.0587 164.768 26.58 164.757 27.158C164.757 27.2713 164.7 27.328 164.587 27.328H159.164C159.118 27.328 159.096 27.3507 159.096 27.396C159.096 27.7813 159.13 28.076 159.198 28.28C159.322 28.7333 159.572 29.0903 159.946 29.351C160.331 29.6003 160.813 29.725 161.391 29.725C162.229 29.725 162.875 29.3793 163.329 28.688C163.385 28.5747 163.459 28.5577 163.55 28.637L164.519 29.283C164.598 29.351 164.615 29.4247 164.57 29.504C164.252 30.014 163.799 30.4163 163.21 30.711C162.632 31.0057 161.974 31.153 161.238 31.153C160.41 31.153 159.713 30.9717 159.147 30.609C158.58 30.2463 158.155 29.7307 157.872 29.062C157.6 28.3933 157.464 27.583 157.464 26.631C157.464 25.8037 157.526 25.1747 157.651 24.744C157.855 23.962 158.263 23.3443 158.875 22.891C159.487 22.4377 160.229 22.211 161.102 22.211C162.246 22.211 163.102 22.5 163.669 23.078C164.235 23.6447 164.581 24.4833 164.706 25.594ZM161.102 23.622C160.614 23.622 160.212 23.7467 159.895 23.996C159.577 24.234 159.362 24.557 159.249 24.965C159.169 25.2143 159.118 25.5317 159.096 25.917C159.096 25.9623 159.118 25.985 159.164 25.985H163.057C163.102 25.985 163.125 25.9623 163.125 25.917C163.102 25.543 163.068 25.2653 163.023 25.084C162.909 24.642 162.683 24.2907 162.343 24.03C162.014 23.758 161.6 23.622 161.102 23.622ZM170.284 31.136C169.423 31.136 168.686 30.9207 168.074 30.49C167.462 30.048 167.043 29.453 166.816 28.705C166.646 28.1837 166.561 27.498 166.561 26.648C166.561 25.866 166.646 25.1803 166.816 24.591C167.043 23.8657 167.462 23.2877 168.074 22.857C168.697 22.4263 169.434 22.211 170.284 22.211C171.134 22.211 171.876 22.4263 172.511 22.857C173.146 23.2877 173.559 23.8317 173.752 24.489C173.82 24.6703 173.865 24.8573 173.888 25.05C173.888 25.1407 173.837 25.1973 173.735 25.22L172.46 25.407H172.426C172.347 25.407 172.29 25.356 172.256 25.254L172.205 24.982C172.114 24.5967 171.893 24.2737 171.542 24.013C171.191 23.7523 170.766 23.622 170.267 23.622C169.78 23.622 169.366 23.7523 169.026 24.013C168.686 24.2737 168.465 24.6193 168.363 25.05C168.261 25.458 168.21 25.9963 168.21 26.665C168.21 27.3223 168.261 27.855 168.363 28.263C168.476 28.7163 168.697 29.0733 169.026 29.334C169.366 29.5947 169.78 29.725 170.267 29.725C170.766 29.725 171.191 29.5947 171.542 29.334C171.905 29.0733 172.131 28.7333 172.222 28.314C172.233 28.3027 172.233 28.2913 172.222 28.28C172.222 28.2573 172.228 28.2403 172.239 28.229V28.161C172.273 28.0703 172.335 28.0363 172.426 28.059L173.701 28.263C173.792 28.2857 173.837 28.331 173.837 28.399V28.467C173.837 28.569 173.809 28.6937 173.752 28.841C173.559 29.5323 173.146 30.0877 172.511 30.507C171.876 30.9263 171.134 31.136 170.284 31.136ZM180.915 22.517C180.915 22.4037 180.972 22.347 181.085 22.347H182.36C182.474 22.347 182.53 22.4037 182.53 22.517V30.83C182.53 30.9433 182.474 31 182.36 31H181.085C180.972 31 180.915 30.9433 180.915 30.83V30.201C180.915 30.1783 180.904 30.167 180.881 30.167C180.87 30.1557 180.853 30.1613 180.83 30.184C180.377 30.8073 179.68 31.119 178.739 31.119C178.184 31.119 177.668 31.0113 177.192 30.796C176.728 30.5807 176.354 30.2633 176.07 29.844C175.787 29.4247 175.645 28.9147 175.645 28.314V22.517C175.645 22.4037 175.702 22.347 175.815 22.347H177.09C177.204 22.347 177.26 22.4037 177.26 22.517V27.804C177.26 28.3933 177.413 28.858 177.719 29.198C178.037 29.538 178.479 29.708 179.045 29.708C179.612 29.708 180.065 29.538 180.405 29.198C180.745 28.8467 180.915 28.382 180.915 27.804V22.517ZM188.703 22.262C189.065 22.262 189.394 22.3357 189.689 22.483C189.768 22.517 189.796 22.585 189.774 22.687L189.502 23.962C189.49 24.064 189.422 24.098 189.298 24.064C189.105 23.9847 188.878 23.945 188.618 23.945L188.38 23.962C187.847 23.9847 187.405 24.1717 187.054 24.523C186.714 24.863 186.544 25.3107 186.544 25.866V30.83C186.544 30.9433 186.487 31 186.374 31H185.082C184.968 31 184.912 30.9433 184.912 30.83V22.517C184.912 22.4037 184.968 22.347 185.082 22.347H186.374C186.487 22.347 186.544 22.4037 186.544 22.517V23.418C186.544 23.452 186.549 23.4747 186.561 23.486C186.583 23.486 186.6 23.4747 186.612 23.452C187.122 22.6587 187.819 22.262 188.703 22.262ZM192.206 20.987C191.889 20.987 191.628 20.885 191.424 20.681C191.22 20.477 191.118 20.2163 191.118 19.899C191.118 19.5817 191.22 19.321 191.424 19.117C191.628 18.913 191.889 18.811 192.206 18.811C192.524 18.811 192.784 18.913 192.988 19.117C193.192 19.321 193.294 19.5817 193.294 19.899C193.294 20.2163 193.192 20.477 192.988 20.681C192.784 20.885 192.524 20.987 192.206 20.987ZM191.526 30.983C191.413 30.983 191.356 30.9263 191.356 30.813V22.517C191.356 22.4037 191.413 22.347 191.526 22.347H192.818C192.932 22.347 192.988 22.4037 192.988 22.517V30.813C192.988 30.9263 192.932 30.983 192.818 30.983H191.526ZM199.82 23.52C199.82 23.6333 199.764 23.69 199.65 23.69H197.814C197.769 23.69 197.746 23.7127 197.746 23.758V28.263C197.746 28.739 197.854 29.0847 198.069 29.3C198.285 29.504 198.619 29.606 199.072 29.606H199.565C199.679 29.606 199.735 29.6627 199.735 29.776V30.83C199.735 30.9433 199.679 31 199.565 31C199.203 31.0227 198.942 31.034 198.783 31.034C197.922 31.034 197.27 30.881 196.828 30.575C196.398 30.2577 196.182 29.6797 196.182 28.841V23.758C196.182 23.7127 196.16 23.69 196.114 23.69H195.077C194.964 23.69 194.907 23.6333 194.907 23.52V22.517C194.907 22.4037 194.964 22.347 195.077 22.347H196.114C196.16 22.347 196.182 22.3243 196.182 22.279V20.273C196.182 20.1597 196.239 20.103 196.352 20.103H197.576C197.69 20.103 197.746 20.1597 197.746 20.273V22.279C197.746 22.3243 197.769 22.347 197.814 22.347H199.65C199.764 22.347 199.82 22.4037 199.82 22.517V23.52ZM201.574 34.383C201.494 34.383 201.455 34.3263 201.455 34.213V33.21C201.455 33.0967 201.511 33.04 201.625 33.04H201.659C202.112 33.0287 202.469 32.972 202.73 32.87C202.99 32.768 203.206 32.5753 203.376 32.292C203.546 32.02 203.71 31.6063 203.869 31.051C203.88 31.0397 203.88 31.0227 203.869 31C203.869 30.966 203.869 30.949 203.869 30.949L201.03 22.534L201.013 22.466C201.013 22.3867 201.064 22.347 201.166 22.347H202.543C202.645 22.347 202.713 22.3923 202.747 22.483L204.668 28.892C204.679 28.9147 204.696 28.926 204.719 28.926C204.741 28.926 204.758 28.9147 204.77 28.892L206.674 22.483C206.708 22.3923 206.776 22.347 206.878 22.347H208.221C208.345 22.347 208.391 22.4093 208.357 22.534L205.263 31.595C205.002 32.377 204.741 32.955 204.481 33.329C204.22 33.7143 203.88 33.9863 203.461 34.145C203.041 34.3037 202.452 34.383 201.693 34.383H201.574ZM220.746 31C220.644 31 220.576 30.9547 220.542 30.864L219.93 28.875C219.919 28.841 219.896 28.824 219.862 28.824H215.085C215.051 28.824 215.028 28.841 215.017 28.875L214.405 30.864C214.371 30.9547 214.303 31 214.201 31H212.824C212.699 31 212.654 30.9377 212.688 30.813L216.411 19.236C216.445 19.1453 216.513 19.1 216.615 19.1H218.315C218.417 19.1 218.485 19.1453 218.519 19.236L222.276 30.813L222.293 30.881C222.293 30.9603 222.242 31 222.14 31H220.746ZM215.442 27.447C215.431 27.4697 215.431 27.4923 215.442 27.515C215.465 27.5263 215.487 27.532 215.51 27.532H219.42C219.443 27.532 219.46 27.5263 219.471 27.515C219.494 27.4923 219.499 27.4697 219.488 27.447L217.516 21.14C217.505 21.1173 217.488 21.106 217.465 21.106C217.442 21.106 217.425 21.1173 217.414 21.14L215.442 27.447ZM229.176 22.517C229.176 22.4037 229.233 22.347 229.346 22.347H230.621C230.734 22.347 230.791 22.4037 230.791 22.517V30.83C230.791 30.9433 230.734 31 230.621 31H229.346C229.233 31 229.176 30.9433 229.176 30.83V30.201C229.176 30.1783 229.165 30.167 229.142 30.167C229.131 30.1557 229.114 30.1613 229.091 30.184C228.638 30.8073 227.941 31.119 227 31.119C226.445 31.119 225.929 31.0113 225.453 30.796C224.988 30.5807 224.614 30.2633 224.331 29.844C224.048 29.4247 223.906 28.9147 223.906 28.314V22.517C223.906 22.4037 223.963 22.347 224.076 22.347H225.351C225.464 22.347 225.521 22.4037 225.521 22.517V27.804C225.521 28.3933 225.674 28.858 225.98 29.198C226.297 29.538 226.739 29.708 227.306 29.708C227.873 29.708 228.326 29.538 228.666 29.198C229.006 28.8467 229.176 28.382 229.176 27.804V22.517ZM238.544 19.27C238.544 19.1567 238.601 19.1 238.714 19.1H240.006C240.12 19.1 240.176 19.1567 240.176 19.27V30.83C240.176 30.9433 240.12 31 240.006 31H238.714C238.601 31 238.544 30.9433 238.544 30.83V30.269C238.544 30.2463 238.533 30.2293 238.51 30.218C238.499 30.2067 238.482 30.2123 238.459 30.235C238.21 30.5183 237.915 30.7393 237.575 30.898C237.235 31.0567 236.867 31.136 236.47 31.136C235.654 31.136 234.974 30.9377 234.43 30.541C233.898 30.133 233.507 29.5607 233.257 28.824C233.042 28.2233 232.934 27.498 232.934 26.648C232.934 25.8547 233.025 25.169 233.206 24.591C233.444 23.843 233.835 23.2593 234.379 22.84C234.923 22.4207 235.62 22.211 236.47 22.211C236.856 22.211 237.218 22.2903 237.558 22.449C237.91 22.5963 238.21 22.8117 238.459 23.095C238.482 23.1177 238.499 23.1233 238.51 23.112C238.533 23.1007 238.544 23.0837 238.544 23.061V19.27ZM238.119 28.807C238.38 28.331 238.51 27.617 238.51 26.665C238.51 25.713 238.369 24.9877 238.085 24.489C237.757 23.911 237.275 23.622 236.64 23.622C235.96 23.622 235.456 23.894 235.127 24.438C234.765 25.0047 234.583 25.7527 234.583 26.682C234.583 27.5547 234.725 28.2573 235.008 28.79C235.337 29.4133 235.875 29.725 236.623 29.725C237.281 29.725 237.779 29.419 238.119 28.807ZM243.555 20.987C243.238 20.987 242.977 20.885 242.773 20.681C242.569 20.477 242.467 20.2163 242.467 19.899C242.467 19.5817 242.569 19.321 242.773 19.117C242.977 18.913 243.238 18.811 243.555 18.811C243.872 18.811 244.133 18.913 244.337 19.117C244.541 19.321 244.643 19.5817 244.643 19.899C244.643 20.2163 244.541 20.477 244.337 20.681C244.133 20.885 243.872 20.987 243.555 20.987ZM242.875 30.983C242.762 30.983 242.705 30.9263 242.705 30.813V22.517C242.705 22.4037 242.762 22.347 242.875 22.347H244.167C244.28 22.347 244.337 22.4037 244.337 22.517V30.813C244.337 30.9263 244.28 30.983 244.167 30.983H242.875ZM251.169 23.52C251.169 23.6333 251.112 23.69 250.999 23.69H249.163C249.118 23.69 249.095 23.7127 249.095 23.758V28.263C249.095 28.739 249.203 29.0847 249.418 29.3C249.633 29.504 249.968 29.606 250.421 29.606H250.914C251.027 29.606 251.084 29.6627 251.084 29.776V30.83C251.084 30.9433 251.027 31 250.914 31C250.551 31.0227 250.291 31.034 250.132 31.034C249.271 31.034 248.619 30.881 248.177 30.575C247.746 30.2577 247.531 29.6797 247.531 28.841V23.758C247.531 23.7127 247.508 23.69 247.463 23.69H246.426C246.313 23.69 246.256 23.6333 246.256 23.52V22.517C246.256 22.4037 246.313 22.347 246.426 22.347H247.463C247.508 22.347 247.531 22.3243 247.531 22.279V20.273C247.531 20.1597 247.588 20.103 247.701 20.103H248.925C249.038 20.103 249.095 20.1597 249.095 20.273V22.279C249.095 22.3243 249.118 22.347 249.163 22.347H250.999C251.112 22.347 251.169 22.4037 251.169 22.517V23.52Z" fill="#0D0128"/>
<defs>
<linearGradient id="paint0_linear_4411_3734" x1="291" y1="24" x2="2" y2="24" gradientUnits="userSpaceOnUse">
<stop stop-color="#AA83FF"/>
<stop offset="1" stop-color="#D0FFCC"/>
</linearGradient>
<linearGradient id="paint1_linear_4411_3734" x1="291" y1="24" x2="2" y2="24" gradientUnits="userSpaceOnUse">
<stop stop-color="#C7ADFF"/>
<stop offset="1" stop-color="#776899" stop-opacity="0"/>
</linearGradient>
</defs>
</svg>
