<svg width="48" height="48" viewBox="0 0 48 48" fill="none" xmlns="http://www.w3.org/2000/svg">
<path opacity="0.5" d="M0 15C0 6.71573 6.71573 0 15 0H33C41.2843 0 48 6.71573 48 15V33C48 41.2843 41.2843 48 33 48H15C6.71573 48 0 41.2843 0 33V15Z" fill="#30473A"/>
<path d="M28.7143 23.0621C28.4643 23.3121 28.3239 23.6512 28.3239 24.0047C28.3239 24.3583 28.4643 24.6973 28.7143 24.9474L31.8823 28.1167C32.1323 28.3667 32.4714 28.5071 32.8249 28.5071C33.1785 28.5071 33.5176 28.3667 33.7676 28.1167L36.9369 24.9474C37.1869 24.6973 37.3273 24.3583 37.3273 24.0047C37.3273 23.6512 37.1869 23.3121 36.9369 23.0621L33.7676 19.8927C33.5176 19.6428 33.1785 19.5023 32.8249 19.5023C32.4714 19.5023 32.1323 19.6428 31.8823 19.8927L28.7143 23.0621Z" stroke="#78FE05" stroke-width="2.88849" stroke-linecap="round" stroke-linejoin="round"/>
<path d="M11.0623 23.0621C10.8123 23.3121 10.6719 23.6512 10.6719 24.0047C10.6719 24.3583 10.8123 24.6973 11.0623 24.9474L14.2316 28.1167C14.4816 28.3667 14.8207 28.5071 15.1743 28.5071C15.5278 28.5071 15.8669 28.3667 16.1169 28.1167L19.2863 24.9474C19.5362 24.6973 19.6766 24.3583 19.6766 24.0047C19.6766 23.6512 19.5362 23.3121 19.2863 23.0621L16.1169 19.8927C15.8669 19.6428 15.5278 19.5023 15.1743 19.5023C14.8207 19.5023 14.4816 19.6428 14.2316 19.8927L11.0623 23.0621Z" stroke="#78FE05" stroke-width="2.88849" stroke-linecap="round" stroke-linejoin="round"/>
<path d="M19.8876 31.8874C19.7636 32.0112 19.6653 32.1583 19.5982 32.3201C19.5311 32.482 19.4965 32.6555 19.4965 32.8307C19.4965 33.0059 19.5311 33.1794 19.5982 33.3413C19.6653 33.5032 19.7636 33.6502 19.8876 33.7741L23.0569 36.9421C23.307 37.192 23.646 37.3324 23.9996 37.3324C24.3531 37.3324 24.6922 37.192 24.9423 36.9421L28.1116 33.7741C28.2356 33.6502 28.3339 33.5032 28.401 33.3413C28.4681 33.1794 28.5026 33.0059 28.5026 32.8307C28.5026 32.6555 28.4681 32.482 28.401 32.3201C28.3339 32.1583 28.2356 32.0112 28.1116 31.8874L24.9423 28.7194C24.6922 28.4694 24.3531 28.329 23.9996 28.329C23.646 28.329 23.307 28.4694 23.0569 28.7194L19.8876 31.8874Z" stroke="#78FE05" stroke-width="2.88849" stroke-linecap="round" stroke-linejoin="round"/>
<path d="M19.8876 14.2367C19.6376 14.4868 19.4972 14.8258 19.4972 15.1794C19.4972 15.5329 19.6376 15.872 19.8876 16.1221L23.0569 19.2901C23.307 19.54 23.646 19.6804 23.9996 19.6804C24.3531 19.6804 24.6922 19.54 24.9423 19.2901L28.1116 16.1221C28.3616 15.872 28.502 15.5329 28.502 15.1794C28.502 14.8258 28.3616 14.4868 28.1116 14.2367L24.9423 11.0674C24.6922 10.8174 24.3531 10.677 23.9996 10.677C23.646 10.677 23.307 10.8174 23.0569 11.0674L19.8876 14.2367Z" stroke="#78FE05" stroke-width="2.88849" stroke-linecap="round" stroke-linejoin="round"/>
</svg>
