<svg width="48" height="48" viewBox="0 0 48 48" fill="none" xmlns="http://www.w3.org/2000/svg">
<path opacity="0.5" d="M0 15C0 6.71573 6.71573 0 15 0H33C41.2843 0 48 6.71573 48 15V33C48 41.2843 41.2843 48 33 48H15C6.71573 48 0 41.2843 0 33V15Z" fill="#30473A"/>
<path d="M29.2688 10.3512H18.0994C13.2478 10.3512 10.3555 13.2435 10.3555 18.0952V29.2512C10.3555 34.1162 13.2478 37.0085 18.0994 37.0085H29.2555C34.1071 37.0085 36.9994 34.1162 36.9994 29.2646V18.0952C37.0127 13.2435 34.1204 10.3512 29.2688 10.3512ZM31.4813 26.4789C31.428 26.5988 31.3614 26.7055 31.2681 26.7988L27.2162 30.8507C27.0163 31.0506 26.763 31.1439 26.5098 31.1439C26.2565 31.1439 26.0033 31.0506 25.8034 30.8507C25.4168 30.4641 25.4168 29.8244 25.8034 29.4378L28.1492 27.092H16.8199C16.2734 27.092 15.8202 26.6388 15.8202 26.0923C15.8202 25.5459 16.2734 25.0927 16.8199 25.0927H30.5617C30.695 25.0927 30.8149 25.1193 30.9482 25.1727C31.1881 25.2793 31.388 25.4659 31.4947 25.7191C31.5746 25.9591 31.5746 26.239 31.4813 26.4789ZM30.5483 22.2537H16.8199C16.6866 22.2537 16.5666 22.227 16.4333 22.1737C16.1934 22.0671 15.9935 21.8805 15.8869 21.6272C15.7802 21.3873 15.7802 21.1074 15.8869 20.8675C15.9402 20.7476 16.0068 20.6409 16.1001 20.5476L20.152 16.4957C20.5385 16.1092 21.1783 16.1092 21.5648 16.4957C21.9514 16.8823 21.9514 17.522 21.5648 17.9086L19.2323 20.2544H30.5617C31.1081 20.2544 31.5613 20.7076 31.5613 21.254C31.5613 21.8005 31.1081 22.2537 30.5483 22.2537Z" fill="#65DA01"/>
</svg>
