<svg width="23" height="28" viewBox="0 0 23 28" fill="none" xmlns="http://www.w3.org/2000/svg">
<path d="M9.57031 26.4443H3.94531C3.28227 26.4443 2.64639 26.1809 2.17755 25.7121C1.7087 25.2433 1.44531 24.6074 1.44531 23.9443V3.94434C1.44531 3.2813 1.7087 2.64542 2.17755 2.17658C2.64639 1.70774 3.28227 1.44434 3.94531 1.44434H13.9453M13.9453 1.44434C14.3414 1.44337 14.7338 1.52086 15.0998 1.67232C15.4658 1.82379 15.7982 2.04624 16.0778 2.32684L20.5628 6.81184C20.8434 7.09143 21.0659 7.42382 21.2173 7.78983C21.3688 8.15585 21.4463 8.54823 21.4453 8.94434M13.9453 1.44434V7.69434C13.9453 8.02586 14.077 8.34381 14.3114 8.57823C14.5458 8.81265 14.8638 8.94434 15.1953 8.94434H21.4453M21.4453 8.94434V16.4443M13.9453 23.9443L16.4453 26.4443L21.4453 21.4443" stroke="#78FE05" stroke-width="2.88889" stroke-linecap="round" stroke-linejoin="round"/>
</svg>
