<svg width="208" height="43" viewBox="0 0 208 43" fill="none" xmlns="http://www.w3.org/2000/svg">
<ellipse cx="21.4404" cy="21.4405" rx="21.4404" ry="21.4405" fill="white"/>
<path d="M6.32924 16.0961C6.40964 15.9341 6.63219 15.7256 6.82444 15.6324C7.07845 15.5101 7.62957 15.4635 8.83436 15.4611C9.75601 15.46 10.6112 15.5136 10.7569 15.5811C10.9014 15.6487 11.9104 16.9407 12.9999 18.4517C14.0893 19.9639 15.23 21.5599 16.0876 22.7983V26.8758L15.4083 27.6331L13.6221 27.6669C12.2553 27.6925 11.7799 27.6622 11.6016 27.5399C11.4735 27.4525 10.6299 26.3632 9.72572 25.119C8.82271 23.8748 7.65521 22.2671 6.18359 20.2353V18.3131C6.18359 17.0106 6.2302 16.2953 6.32924 16.0961Z" fill="#1A6EEA"/>
<path d="M14.9107 16.2743C14.955 16.1147 15.1694 15.8654 15.3861 15.7209C15.752 15.4774 15.9093 15.4588 17.565 15.4588C19.2557 15.4588 19.3652 15.4728 19.632 15.7209C19.7858 15.8654 20.9941 17.5034 24.718 22.7401L24.7168 24.8371C24.7145 26.7756 24.697 26.9539 24.4791 27.1962C24.3498 27.3407 24.1133 27.5108 23.9525 27.5748C23.7928 27.6389 22.9796 27.6913 22.1465 27.6913C21.3134 27.6913 20.514 27.6459 20.3696 27.5911C20.2169 27.5329 19.0564 26.0417 17.5836 24.0088C16.1948 22.0935 15.0016 20.3821 14.9329 20.2062C14.8606 20.0233 14.8105 19.1728 14.8175 18.2257C14.8245 17.3123 14.8665 16.4351 14.9107 16.2743Z" fill="#1A6EEA"/>
<path d="M23.5738 16.0961C23.6542 15.9341 23.8767 15.7256 24.069 15.6324C24.3253 15.5089 24.8706 15.4646 26.108 15.4658C27.215 15.467 27.8849 15.5159 28.0504 15.6091C28.189 15.686 29.2074 17.0083 30.3132 18.5461C31.4201 20.0839 32.5514 21.6694 33.3321 22.7983V26.8758L32.6528 27.6331L30.8666 27.6645C29.5034 27.689 29.0245 27.6587 28.8462 27.5375C28.718 27.4502 27.7416 26.1768 26.6778 24.7101C25.6128 23.2422 24.4453 21.6345 23.4281 20.2353V18.3131C23.4281 17.0106 23.4748 16.2953 23.5738 16.0961Z" fill="#1A6EEA"/>
<path d="M29.5919 16.1951C29.5896 16.0553 29.6781 15.8537 29.79 15.7466C29.9671 15.5776 30.2386 15.559 31.9246 15.5998C33.6863 15.6429 33.9135 15.6732 34.4973 15.9399C34.8503 16.1019 35.3397 16.4129 35.5856 16.6331C35.8314 16.8521 36.1658 17.3205 36.3289 17.6723C36.5946 18.2455 36.6202 18.4179 36.569 19.3033C36.5259 20.0454 36.4385 20.4392 36.2194 20.8761C36.0586 21.1964 35.6706 21.6974 35.3583 21.9898C34.8538 22.4605 34.7361 22.5164 34.3225 22.4873C34.0662 22.4698 33.8238 22.4139 33.7854 22.3649C33.7457 22.3148 32.7868 20.9634 31.6554 19.3616C30.524 17.7597 29.5954 16.3349 29.5919 16.1951Z" fill="#1A6EEA"/>
<path d="M62.0096 14.0022L64.3876 26.2101L66.8591 14.0022H69.4524L66.1944 29.0281H62.7586L60.4368 16.2865L57.9278 29H54.6512L51.4026 14.0022H53.9958L56.458 26.2101L58.8359 14.0022H62.0096ZM79.9182 28.1949C79.6436 28.3634 79.3503 28.5101 79.0382 28.6349C78.7262 28.7597 78.4079 28.8658 78.0833 28.9532C77.765 29.0406 77.4498 29.1061 77.1378 29.1498C76.8257 29.1935 76.5323 29.2153 76.2577 29.2153C75.4027 29.2153 74.6412 29.0874 73.9734 28.8315C73.3118 28.5694 72.7501 28.198 72.2883 27.7174C71.8327 27.2306 71.4831 26.647 71.2397 25.9667C71.0026 25.2802 70.884 24.5125 70.884 23.6637C70.884 22.7962 70.9932 21.9973 71.2117 21.267C71.4301 20.5306 71.7515 19.8971 72.1759 19.3666C72.6066 18.8298 73.1371 18.4117 73.7675 18.1121C74.4041 17.8125 75.1343 17.6627 75.9581 17.6627C76.6884 17.6627 77.3312 17.7813 77.8867 18.0185C78.4484 18.2494 78.9196 18.5802 79.3004 19.0108C79.6811 19.4415 79.9682 19.9595 80.1617 20.5649C80.3551 21.1703 80.4519 21.8444 80.4519 22.5871C80.4519 22.818 80.4488 23.0458 80.4425 23.2705C80.4363 23.4952 80.4269 23.7136 80.4144 23.9258H73.5053C73.5116 24.5312 73.5833 25.0555 73.7206 25.4986C73.858 25.9418 74.0514 26.3069 74.3011 26.594C74.557 26.8811 74.8659 27.0933 75.2279 27.2306C75.5962 27.3679 76.0081 27.4366 76.4637 27.4366C77.0441 27.4366 77.5559 27.3554 77.999 27.1931C78.4422 27.0246 78.8791 26.775 79.3097 26.4442L79.9182 28.1949ZM78.2893 22.3905C78.2893 21.4168 78.0927 20.6835 77.6995 20.1904C77.3063 19.6974 76.7602 19.4446 76.0611 19.4321C75.6367 19.4446 75.2685 19.5351 74.9564 19.7036C74.6506 19.8659 74.3916 20.0874 74.1794 20.3683C73.9734 20.6492 73.8143 20.9768 73.7019 21.3513C73.5896 21.7258 73.524 22.1252 73.5053 22.5496H78.2893V22.3905ZM88.6428 27.4366C89.398 27.4366 89.9722 27.1026 90.3654 26.4348C90.7648 25.767 90.9646 24.7247 90.9646 23.3079C90.9646 22.5964 90.9178 21.9942 90.8241 21.5011C90.7305 21.008 90.5901 20.6086 90.4029 20.3028C90.2219 19.9969 89.9972 19.7754 89.7288 19.6381C89.4604 19.5008 89.1484 19.4321 88.7926 19.4321C88.3245 19.4321 87.8595 19.532 87.3977 19.7317C86.9421 19.9252 86.4771 20.231 86.0027 20.6492V26.2944C86.4147 26.7001 86.836 26.9934 87.2666 27.1744C87.6973 27.3492 88.156 27.4366 88.6428 27.4366ZM88.9798 29.2153C88.2621 29.2153 87.6286 29.0562 87.0794 28.7379C86.5301 28.4196 86.0901 27.9639 85.7593 27.371L85.2632 29H83.4282V13.5247L86.0027 13.1315V19.067C86.2212 18.8361 86.4552 18.6332 86.7049 18.4585C86.9608 18.2775 87.2198 18.1308 87.4819 18.0185C87.7503 17.8999 88.0187 17.8125 88.2871 17.7563C88.5554 17.6939 88.8176 17.6627 89.0735 17.6627C89.7974 17.6627 90.4309 17.7875 90.9739 18.0372C91.5232 18.2868 91.9819 18.6551 92.3501 19.1419C92.7184 19.6225 92.993 20.2185 93.174 20.93C93.3612 21.6353 93.4548 22.4435 93.4548 23.3548C93.4548 24.3846 93.3456 25.2708 93.1272 26.0135C92.915 26.75 92.6123 27.3554 92.2191 27.8298C91.8259 28.3041 91.3546 28.6536 90.8054 28.8783C90.2562 29.103 89.6477 29.2153 88.9798 29.2153ZM102.002 21.0611C102.002 20.5119 101.817 20.1155 101.449 19.8721C101.087 19.6225 100.554 19.4976 99.8483 19.4976C99.5737 19.4976 99.2803 19.532 98.9683 19.6006C98.6562 19.663 98.3629 19.7348 98.0882 19.816C97.8199 19.8971 97.5921 19.9751 97.4048 20.05C97.2176 20.1187 97.1115 20.1561 97.0865 20.1623L96.3188 18.4304C96.375 18.4054 96.5061 18.3461 96.712 18.2525C96.9242 18.1526 97.1864 18.0528 97.4984 17.9529C97.8105 17.8531 98.16 17.7626 98.547 17.6814C98.9339 17.6003 99.3365 17.5597 99.7547 17.5597C100.129 17.5597 100.501 17.5847 100.869 17.6346C101.237 17.6783 101.586 17.7532 101.917 17.8593C102.254 17.9654 102.566 18.1058 102.853 18.2806C103.141 18.4491 103.387 18.6613 103.593 18.9172C103.805 19.1731 103.971 19.4727 104.089 19.816C104.208 20.1592 104.267 20.5555 104.267 21.0049C104.267 21.4356 104.192 21.8163 104.042 22.1471C103.899 22.4779 103.712 22.7618 103.481 22.999C103.256 23.2362 103.006 23.4234 102.732 23.5607C102.457 23.6918 102.195 23.776 101.945 23.8135C102.245 23.8821 102.551 24.0007 102.863 24.1692C103.181 24.3315 103.468 24.5468 103.724 24.8152C103.986 25.0774 104.202 25.3957 104.37 25.7701C104.539 26.1446 104.623 26.5784 104.623 27.0714C104.623 27.7205 104.495 28.2791 104.239 28.7472C103.983 29.2091 103.64 29.5898 103.209 29.8894C102.779 30.1952 102.279 30.4199 101.711 30.5634C101.143 30.707 100.55 30.7788 99.9325 30.7788C99.4395 30.7788 98.9745 30.7413 98.5376 30.6664C98.107 30.5915 97.7262 30.5073 97.3955 30.4137C97.0647 30.32 96.7963 30.2295 96.5903 30.1422C96.3906 30.061 96.272 30.0142 96.2346 30.0017L96.8899 28.1668C96.9149 28.1793 97.0147 28.223 97.1895 28.2979C97.3643 28.3728 97.5889 28.4539 97.8636 28.5413C98.1444 28.6286 98.4596 28.7098 98.8091 28.7847C99.1649 28.8533 99.53 28.8877 99.9045 28.8877C100.685 28.8877 101.265 28.7347 101.646 28.4289C102.026 28.1231 102.217 27.6425 102.217 26.9872C102.217 26.6439 102.142 26.3412 101.992 26.0791C101.849 25.8107 101.643 25.5829 101.374 25.3957C101.112 25.2084 100.797 25.0617 100.429 24.9556C100.06 24.8495 99.6548 24.7809 99.2117 24.7497V22.896C99.5612 22.896 99.9013 22.8679 100.232 22.8118C100.569 22.7494 100.869 22.6464 101.131 22.5028C101.393 22.3593 101.602 22.172 101.758 21.9411C101.92 21.7039 102.002 21.4106 102.002 21.0611ZM119.227 18.7206C119.227 19.5694 119.077 20.2903 118.777 20.8832C118.478 21.4699 118.032 21.9473 117.439 22.3156C116.846 22.6776 116.1 22.9397 115.201 23.102C114.309 23.2643 113.269 23.3454 112.084 23.3454H110.988V29H108.301V14.0022H112.374C112.992 14.0022 113.588 14.0303 114.162 14.0865C114.742 14.1364 115.285 14.23 115.791 14.3673C116.296 14.5046 116.758 14.6887 117.176 14.9197C117.595 15.1443 117.954 15.4314 118.253 15.781C118.559 16.1305 118.796 16.5486 118.965 17.0355C119.133 17.516 119.22 18.0778 119.227 18.7206ZM111.99 21.6134C112.739 21.6134 113.397 21.5666 113.965 21.473C114.533 21.3732 115.004 21.2171 115.379 21.0049C115.76 20.7865 116.044 20.5025 116.231 20.153C116.424 19.8035 116.521 19.3728 116.521 18.861C116.521 18.2057 116.421 17.6783 116.222 17.2789C116.022 16.8794 115.738 16.5705 115.37 16.352C115.008 16.1274 114.568 15.9807 114.05 15.912C113.538 15.8371 112.97 15.7997 112.346 15.7997H110.988V21.6134H111.99ZM126.313 19.4321C125.695 19.4321 125.083 19.5195 124.478 19.6942C123.873 19.869 123.311 20.1155 122.793 20.4338L122.072 18.8049C122.397 18.6176 122.718 18.4522 123.036 18.3087C123.361 18.1651 123.695 18.0465 124.038 17.9529C124.388 17.8593 124.753 17.7875 125.133 17.7376C125.514 17.6877 125.926 17.6627 126.369 17.6627C127.268 17.6627 128.007 17.7688 128.588 17.981C129.168 18.187 129.627 18.5053 129.964 18.9359C130.307 19.3603 130.545 19.8971 130.676 20.5462C130.807 21.1953 130.872 21.9567 130.872 22.8305V29H128.916L128.55 27.4459C128.139 28.07 127.658 28.5225 127.109 28.8034C126.559 29.078 125.914 29.2153 125.171 29.2153C124.584 29.2153 124.057 29.1404 123.589 28.9906C123.121 28.8408 122.721 28.6162 122.39 28.3166C122.066 28.017 121.816 27.6456 121.641 27.2025C121.467 26.7594 121.379 26.2445 121.379 25.6578C121.379 25.0649 121.492 24.55 121.716 24.1131C121.941 23.6699 122.253 23.3048 122.652 23.0177C123.052 22.7244 123.526 22.5059 124.075 22.3624C124.631 22.2188 125.239 22.1471 125.901 22.1471C126.219 22.1471 126.51 22.1596 126.772 22.1845C127.04 22.2095 127.277 22.2407 127.483 22.2781C127.689 22.3093 127.861 22.3405 127.998 22.3718C128.142 22.403 128.245 22.4217 128.307 22.4279C128.307 21.9661 128.295 21.551 128.27 21.1828C128.245 20.8083 128.17 20.4931 128.045 20.2372C127.92 19.9751 127.723 19.7754 127.455 19.6381C127.187 19.5008 126.806 19.4321 126.313 19.4321ZM125.836 27.4366C126.297 27.4366 126.728 27.3367 127.127 27.137C127.533 26.9373 127.926 26.6377 128.307 26.2382V23.7386C128.257 23.7386 128.173 23.7324 128.054 23.7199C127.936 23.7011 127.798 23.6855 127.642 23.6731C127.493 23.6543 127.337 23.6387 127.174 23.6263C127.018 23.6138 126.881 23.6075 126.762 23.6075C126.313 23.6075 125.914 23.6356 125.564 23.6918C125.221 23.748 124.927 23.8478 124.684 23.9914C124.447 24.1287 124.266 24.319 124.141 24.5624C124.022 24.7996 123.963 25.1023 123.963 25.4706C123.963 26.1758 124.129 26.6814 124.459 26.9872C124.796 27.2868 125.255 27.4366 125.836 27.4366ZM133.118 17.9342H135.702L138.689 26.0323L141.029 17.9342H143.65L139.69 29.3277C139.397 30.164 139.054 30.8474 138.661 31.3779C138.267 31.9084 137.855 32.3235 137.425 32.6231C137 32.9226 136.576 33.1286 136.152 33.241C135.727 33.3533 135.337 33.4095 134.981 33.4095L134.27 31.6775C134.757 31.6151 135.175 31.5184 135.524 31.3873C135.874 31.2562 136.173 31.0752 136.423 30.8443C136.679 30.6134 136.894 30.3232 137.069 29.9736C137.25 29.6241 137.412 29.1966 137.556 28.6911L133.118 17.9342ZM148.63 29H146.056V17.9342H147.909L148.406 19.7598C148.749 19.0608 149.204 18.5365 149.772 18.187C150.34 17.8375 151.008 17.6627 151.776 17.6627C152.544 17.6627 153.174 17.8281 153.667 18.1589C154.166 18.4834 154.538 18.9453 154.781 19.5445C155.193 18.9453 155.705 18.4834 156.316 18.1589C156.934 17.8281 157.649 17.6627 158.46 17.6627C159.022 17.6627 159.515 17.7626 159.94 17.9623C160.37 18.1558 160.726 18.4335 161.007 18.7955C161.294 19.1513 161.509 19.5819 161.653 20.0874C161.796 20.593 161.868 21.1547 161.868 21.7726V29H159.284V21.6415C159.284 21.2234 159.247 20.8738 159.172 20.593C159.103 20.3121 159.003 20.0874 158.872 19.9189C158.741 19.7504 158.582 19.6318 158.395 19.5632C158.208 19.4883 157.995 19.4508 157.758 19.4508C157.321 19.4508 156.9 19.5694 156.494 19.8066C156.089 20.0375 155.661 20.3777 155.212 20.827V29H152.637V21.5854C152.637 20.8551 152.522 20.3215 152.291 19.9845C152.06 19.6474 151.67 19.4789 151.121 19.4789C150.69 19.4789 150.266 19.6162 149.847 19.8908C149.429 20.1592 149.023 20.5181 148.63 20.9675V29ZM173.776 28.1949C173.501 28.3634 173.208 28.5101 172.896 28.6349C172.584 28.7597 172.265 28.8658 171.941 28.9532C171.622 29.0406 171.307 29.1061 170.995 29.1498C170.683 29.1935 170.39 29.2153 170.115 29.2153C169.26 29.2153 168.499 29.0874 167.831 28.8315C167.169 28.5694 166.608 28.198 166.146 27.7174C165.69 27.2306 165.341 26.647 165.097 25.9667C164.86 25.2802 164.741 24.5125 164.741 23.6637C164.741 22.7962 164.851 21.9973 165.069 21.267C165.288 20.5306 165.609 19.8971 166.033 19.3666C166.464 18.8298 166.995 18.4117 167.625 18.1121C168.262 17.8125 168.992 17.6627 169.816 17.6627C170.546 17.6627 171.189 17.7813 171.744 18.0185C172.306 18.2494 172.777 18.5802 173.158 19.0108C173.539 19.4415 173.826 19.9595 174.019 20.5649C174.213 21.1703 174.309 21.8444 174.309 22.5871C174.309 22.818 174.306 23.0458 174.3 23.2705C174.294 23.4952 174.284 23.7136 174.272 23.9258H167.363C167.369 24.5312 167.441 25.0555 167.578 25.4986C167.715 25.9418 167.909 26.3069 168.159 26.594C168.414 26.8811 168.723 27.0933 169.085 27.2306C169.454 27.3679 169.866 27.4366 170.321 27.4366C170.902 27.4366 171.413 27.3554 171.856 27.1931C172.3 27.0246 172.737 26.775 173.167 26.4442L173.776 28.1949ZM172.147 22.3905C172.147 21.4168 171.95 20.6835 171.557 20.1904C171.164 19.6974 170.618 19.4446 169.919 19.4321C169.494 19.4446 169.126 19.5351 168.814 19.7036C168.508 19.8659 168.249 20.0874 168.037 20.3683C167.831 20.6492 167.672 20.9768 167.559 21.3513C167.447 21.7258 167.381 22.1252 167.363 22.5496H172.147V22.3905ZM179.654 19.5351C179.823 19.273 180.032 19.0295 180.281 18.8049C180.537 18.5739 180.818 18.3742 181.124 18.2057C181.436 18.0372 181.767 17.9061 182.116 17.8125C182.466 17.7126 182.819 17.6627 183.174 17.6627C183.848 17.6627 184.423 17.7594 184.897 17.9529C185.371 18.1464 185.761 18.4304 186.067 18.8049C186.373 19.1793 186.595 19.6443 186.732 20.1998C186.875 20.7553 186.947 21.395 186.947 22.119V29H184.373V21.9973C184.373 21.1297 184.229 20.4869 183.942 20.0687C183.661 19.6443 183.196 19.4321 182.547 19.4321C182.285 19.4321 182.017 19.4758 181.742 19.5632C181.467 19.6506 181.208 19.7598 180.965 19.8908C180.721 20.0219 180.503 20.1655 180.31 20.3215C180.116 20.4775 179.966 20.6211 179.86 20.7521V29H177.286V17.9342H179.224L179.654 19.5351ZM193.987 29.2153C193.431 29.2153 192.96 29.1279 192.573 28.9532C192.186 28.7722 191.874 28.5007 191.637 28.1387C191.4 27.7705 191.228 27.3086 191.122 26.7531C191.016 26.1914 190.963 25.5298 190.963 24.7684V19.1232H189.09V17.9342H191.131V14.1613L193.528 13.5435V17.9342H196.664V19.1232H193.528V25.6016C193.528 26.232 193.606 26.697 193.762 26.9965C193.924 27.2899 194.211 27.4366 194.623 27.4366C194.86 27.4366 195.122 27.371 195.41 27.24C195.703 27.1089 196.027 26.9373 196.383 26.7251L197.095 28.3166C196.932 28.4164 196.745 28.5194 196.533 28.6255C196.321 28.7316 196.084 28.8284 195.822 28.9157C195.559 29.0031 195.275 29.0749 194.97 29.1311C194.664 29.1872 194.336 29.2153 193.987 29.2153ZM201.335 23.7199C201.01 23.6013 200.705 23.4609 200.417 23.2986C200.13 23.1363 199.878 22.9397 199.659 22.7088C199.447 22.4716 199.278 22.1908 199.154 21.8662C199.029 21.5417 198.966 21.1578 198.966 20.7147C198.966 20.2279 199.069 19.7941 199.275 19.4134C199.481 19.0327 199.765 18.7144 200.127 18.4585C200.489 18.1963 200.917 17.9997 201.41 17.8687C201.909 17.7314 202.449 17.6627 203.029 17.6627C203.491 17.6627 203.944 17.7064 204.387 17.7938C204.83 17.8812 205.23 17.9841 205.585 18.1027C205.947 18.2151 206.247 18.3274 206.484 18.4397C206.727 18.5521 206.88 18.6332 206.943 18.6832L206.334 20.3496C206.241 20.2747 206.078 20.1873 205.847 20.0874C205.616 19.9813 205.351 19.8815 205.052 19.7879C204.758 19.688 204.443 19.6037 204.106 19.5351C203.769 19.4664 203.445 19.4321 203.132 19.4321C202.802 19.4321 202.515 19.4664 202.271 19.5351C202.034 19.5975 201.837 19.6849 201.681 19.7972C201.532 19.9096 201.419 20.0438 201.344 20.1998C201.276 20.3496 201.241 20.515 201.241 20.696C201.241 20.8395 201.266 20.9675 201.316 21.0798C201.366 21.1922 201.441 21.292 201.541 21.3794C201.641 21.4668 201.766 21.5479 201.915 21.6228C202.065 21.6977 202.24 21.7726 202.44 21.8475L204.2 22.4935C204.687 22.6745 205.12 22.8711 205.501 23.0833C205.882 23.2892 206.206 23.5264 206.475 23.7948C206.743 24.0569 206.946 24.3534 207.083 24.6842C207.227 25.0149 207.298 25.3894 207.298 25.8076C207.298 26.3443 207.199 26.8249 206.999 27.2493C206.805 27.6675 206.525 28.0232 206.156 28.3166C205.794 28.6099 205.354 28.8346 204.836 28.9906C204.325 29.1467 203.747 29.2247 203.104 29.2247C202.568 29.2247 202.065 29.1748 201.597 29.0749C201.135 28.9813 200.723 28.8752 200.361 28.7566C200.006 28.6318 199.709 28.5101 199.472 28.3915C199.241 28.2729 199.094 28.1886 199.032 28.1387L199.64 26.4442C199.709 26.5004 199.862 26.5846 200.099 26.697C200.336 26.8031 200.614 26.9123 200.932 27.0246C201.251 27.137 201.588 27.2337 201.943 27.3149C202.305 27.396 202.646 27.4366 202.964 27.4366C203.214 27.4366 203.457 27.4147 203.694 27.371C203.931 27.3211 204.14 27.24 204.321 27.1276C204.502 27.009 204.646 26.8561 204.752 26.6689C204.864 26.4754 204.921 26.232 204.921 25.9387C204.921 25.6079 204.793 25.3332 204.537 25.1148C204.281 24.8964 203.938 24.706 203.507 24.5437L201.335 23.7199Z" fill="white"/>
</svg>
