<svg width="32" height="32" viewBox="0 0 32 32" fill="none" xmlns="http://www.w3.org/2000/svg">
<path d="M14.1631 19.754H16.9598C17.7015 19.754 18.4129 19.4594 18.9374 18.9349C19.4618 18.4104 19.7565 17.6991 19.7565 16.9574C19.7565 16.2156 19.4618 15.5043 18.9374 14.9798C18.4129 14.4553 17.7015 14.1607 16.9598 14.1607H12.7648C11.9258 14.1607 11.2266 14.4404 10.8071 14.9997L2.97646 22.5507M8.5698 28.1441L10.8071 26.1864C11.2266 25.627 11.9258 25.3474 12.7648 25.3474H18.3581C19.8963 25.3474 21.2947 24.788 22.2735 23.6694L28.7058 17.5167C29.2454 17.0068 29.5604 16.3034 29.5813 15.5612C29.6023 14.8191 29.3276 14.099 28.8177 13.5594C28.3078 13.0198 27.6044 12.7049 26.8622 12.6839C26.1201 12.6629 25.4 12.9376 24.8604 13.4475L18.9874 18.9011M1.57812 21.1524L9.96814 29.5424M25.21 11.364C25.21 13.6036 23.3944 15.4192 21.1548 15.4192C18.9152 15.4192 17.0996 13.6036 17.0996 11.364C17.0996 9.12442 18.9152 7.30886 21.1548 7.30886C23.3944 7.30886 25.21 9.12442 25.21 11.364ZM11.3665 5.77069C11.3665 8.08753 9.4883 9.96569 7.17147 9.96569C4.85463 9.96569 2.97646 8.08753 2.97646 5.77069C2.97646 3.45385 4.85463 1.57568 7.17147 1.57568C9.4883 1.57568 11.3665 3.45385 11.3665 5.77069Z" stroke="#78FE05" stroke-width="3.15151" stroke-linecap="round" stroke-linejoin="round"/>
</svg>
