<svg width="26" height="31" viewBox="0 0 26 31" fill="none" xmlns="http://www.w3.org/2000/svg">
<path d="M12.6649 1.47021C12.2749 1.47021 11.8977 1.60939 11.6012 1.86271C9.16608 3.98997 5.66729 5.66939 2.86826 5.66939C2.49709 5.66939 2.14112 5.81684 1.87866 6.07929C1.6162 6.34175 1.46875 6.69773 1.46875 7.0689V16.8655C1.46875 23.8631 6.36705 27.3619 12.203 29.3772C12.5047 29.4895 12.8358 29.4945 13.1407 29.3912C18.9627 27.3619 23.861 23.8631 23.861 16.8655V7.0689C23.861 6.69773 23.7135 6.34175 23.4511 6.07929C23.1886 5.81684 22.8326 5.66939 22.4615 5.66939C19.6624 5.66939 16.1776 4.00396 13.7285 1.86271C13.432 1.60939 13.0548 1.47021 12.6649 1.47021ZM12.6649 1.47021V29.4611" stroke="#78FE05" stroke-width="2.94039" stroke-linecap="round" stroke-linejoin="round"/>
</svg>
