<svg width="30" height="30" viewBox="0 0 30 30" fill="none" xmlns="http://www.w3.org/2000/svg">
<path d="M1.57812 7.35346V4.46457C1.57812 3.69839 1.88249 2.96359 2.42426 2.42182C2.96603 1.88005 3.70083 1.57568 4.46701 1.57568H7.3559M21.8003 1.57568H24.6892C25.4554 1.57568 26.1902 1.88005 26.732 2.42182C27.2738 2.96359 27.5781 3.69839 27.5781 4.46457V7.35346M27.5781 21.7979V24.6868C27.5781 25.453 27.2738 26.1878 26.732 26.7295C26.1902 27.2713 25.4554 27.5757 24.6892 27.5757H21.8003M7.3559 27.5757H4.46701C3.70083 27.5757 2.96603 27.2713 2.42426 26.7295C1.88249 26.1878 1.57813 25.453 1.57812 24.6868V21.7979M7.3559 14.5757H21.8003" stroke="#78FE05" stroke-width="3.15151" stroke-linecap="round" stroke-linejoin="round"/>
</svg>
