<svg width="33" height="46" viewBox="0 0 33 46" fill="none" xmlns="http://www.w3.org/2000/svg">
<path d="M3.48421 44.998H1.95648V39.0645H0V37.793H5.44069V39.0645H3.48421V44.998Z" fill="#65DA01"/>
<path d="M13.4536 41.3857C13.4536 41.9409 13.3846 42.4469 13.2467 42.9035C13.1087 43.3569 12.8984 43.7479 12.6159 44.0764C12.3366 44.405 11.9818 44.658 11.5514 44.8354C11.121 45.0095 10.6117 45.0966 10.0236 45.0966C9.43554 45.0966 8.9263 45.0095 8.49591 44.8354C8.06551 44.658 7.70904 44.405 7.4265 44.0764C7.14723 43.7479 6.93861 43.3553 6.80062 42.8986C6.66263 42.4419 6.59364 41.9343 6.59364 41.3758C6.59364 40.63 6.7152 39.9811 6.95832 39.4292C7.20473 38.8739 7.58255 38.4436 8.0918 38.138C8.60104 37.8325 9.24827 37.6797 10.0335 37.6797C10.8154 37.6797 11.4577 37.8325 11.9604 38.138C12.4664 38.4436 12.8409 38.8739 13.084 39.4292C13.3304 39.9844 13.4536 40.6366 13.4536 41.3857ZM8.19529 41.3857C8.19529 41.8883 8.25771 42.322 8.38256 42.6867C8.51069 43.0481 8.70946 43.3274 8.97887 43.5245C9.24827 43.7183 9.59653 43.8153 10.0236 43.8153C10.4573 43.8153 10.8089 43.7183 11.0783 43.5245C11.3477 43.3274 11.5432 43.0481 11.6647 42.6867C11.7896 42.322 11.852 41.8883 11.852 41.3857C11.852 40.63 11.7107 40.0353 11.4282 39.6017C11.1456 39.168 10.6807 38.9512 10.0335 38.9512C9.6031 38.9512 9.25156 39.0497 8.97887 39.2468C8.70946 39.4407 8.51069 39.7199 8.38256 40.0846C8.25771 40.446 8.19529 40.8797 8.19529 41.3857Z" fill="#65DA01"/>
<path d="M17.6128 37.793C18.5425 37.793 19.221 37.9934 19.6481 38.3943C20.0752 38.7918 20.2888 39.3405 20.2888 40.0403C20.2888 40.3557 20.2411 40.6579 20.1458 40.9471C20.0506 41.2329 19.8945 41.4875 19.6777 41.7109C19.4641 41.9343 19.1783 42.1117 18.8202 42.2432C18.4621 42.3713 18.0202 42.4354 17.4945 42.4354H16.839V44.998H15.3113V37.793H17.6128ZM17.5339 39.0448H16.839V41.1836H17.3417C17.6275 41.1836 17.8756 41.1458 18.0859 41.0703C18.2961 40.9947 18.4588 40.8764 18.5738 40.7154C18.6887 40.5544 18.7462 40.3475 18.7462 40.0945C18.7462 39.7397 18.6477 39.4768 18.4506 39.306C18.2534 39.1319 17.9479 39.0448 17.5339 39.0448Z" fill="#65DA01"/>
<path d="M25.2758 44.998H23.753V40.8288C23.753 40.7138 23.7547 40.5725 23.7579 40.405C23.7612 40.2341 23.7661 40.06 23.7727 39.8826C23.7793 39.7019 23.7859 39.5392 23.7924 39.3947C23.7563 39.4374 23.6824 39.5113 23.5707 39.6165C23.4622 39.7183 23.3604 39.8103 23.2651 39.8924L22.4372 40.5577L21.7029 39.6411L24.0241 37.793H25.2758V44.998Z" fill="#65DA01"/>
<path d="M32.6481 41.3955C32.6481 41.977 32.6021 42.4961 32.5101 42.9528C32.4214 43.4095 32.2768 43.7972 32.0764 44.1159C31.8793 44.4346 31.6198 44.6777 31.2978 44.8452C30.9758 45.0128 30.5848 45.0966 30.1249 45.0966C29.5466 45.0966 29.0719 44.9504 28.7006 44.658C28.3294 44.3623 28.055 43.9385 27.8776 43.3865C27.7002 42.8313 27.6115 42.1676 27.6115 41.3955C27.6115 40.6169 27.692 39.9516 27.853 39.3996C28.0173 38.8444 28.2834 38.4189 28.6514 38.1232C29.0193 37.8275 29.5105 37.6797 30.1249 37.6797C30.6998 37.6797 31.1729 37.8275 31.5442 38.1232C31.9187 38.4156 32.1964 38.8394 32.377 39.3947C32.5577 39.9466 32.6481 40.6136 32.6481 41.3955ZM29.1245 41.3955C29.1245 41.9442 29.154 42.4025 29.2132 42.7705C29.2756 43.1352 29.3791 43.4095 29.5236 43.5935C29.6682 43.7775 29.8686 43.8695 30.1249 43.8695C30.3779 43.8695 30.5766 43.7791 30.7212 43.5984C30.869 43.4144 30.9742 43.1401 31.0366 42.7754C31.099 42.4074 31.1302 41.9475 31.1302 41.3955C31.1302 40.8469 31.099 40.3885 31.0366 40.0206C30.9742 39.6526 30.869 39.3766 30.7212 39.1926C30.5766 39.0054 30.3779 38.9117 30.1249 38.9117C29.8686 38.9117 29.6682 39.0054 29.5236 39.1926C29.3791 39.3766 29.2756 39.6526 29.2132 40.0206C29.154 40.3885 29.1245 40.8469 29.1245 41.3955Z" fill="#65DA01"/>
<path fill-rule="evenodd" clip-rule="evenodd" d="M16.543 0C16.8686 0 17.306 0.0131604 17.5132 0.0296109C17.7204 0.0493516 18.0328 0.0789625 18.2039 0.095413C18.3749 0.111864 18.6807 0.151345 18.8781 0.177666C19.0754 0.203986 19.3582 0.250048 19.503 0.276369C19.6477 0.30269 19.9437 0.361912 20.1607 0.407973C20.3778 0.450744 20.5916 0.503386 20.6376 0.519837C20.6837 0.539577 20.7856 0.569188 20.8678 0.588929C20.9501 0.608669 21.1638 0.671181 21.3447 0.723823C21.5256 0.779755 21.7986 0.868588 21.9532 0.924519C22.1077 0.977161 22.3577 1.07257 22.5123 1.13509C22.6668 1.19431 22.8872 1.28314 23.0056 1.33249C23.124 1.38184 23.4792 1.54964 23.7949 1.71085C24.1106 1.86878 24.4593 2.04974 24.5678 2.11554C24.6763 2.17805 24.8473 2.28004 24.946 2.33926C25.0414 2.39849 25.3012 2.56628 25.5216 2.70776C25.7386 2.85252 26.0215 3.04993 26.1464 3.14534C26.2714 3.24075 26.4063 3.34275 26.4424 3.36907C26.4786 3.39539 26.6562 3.54015 26.8371 3.6915C27.018 3.83955 27.3502 4.13237 27.5771 4.34294C27.804 4.55021 28.1592 4.90555 28.3664 5.13256C28.5736 5.35629 28.863 5.6853 29.0077 5.85968C29.1525 6.03405 29.3827 6.33016 29.5241 6.5177C29.6622 6.70194 29.8563 6.97502 29.9549 7.11979C30.0536 7.26455 30.2707 7.6133 30.4384 7.89296C30.6028 8.17262 30.8627 8.64639 31.0107 8.94579C31.1587 9.24519 31.379 9.73213 31.4974 10.0315C31.6191 10.3309 31.7901 10.7948 31.8822 11.0679C31.971 11.3377 32.0927 11.7391 32.1486 11.9562C32.2045 12.1734 32.2999 12.5945 32.3624 12.8939C32.4249 13.1933 32.4972 13.6276 32.5268 13.8645C32.5531 14.0981 32.5926 14.3876 32.6123 14.5061C32.6321 14.6245 32.6551 15.1871 32.665 15.7563C32.6748 16.3518 32.6682 16.9671 32.6485 17.204C32.6288 17.431 32.5893 17.8159 32.5597 18.0594C32.5301 18.3029 32.4874 18.6286 32.461 18.7832C32.4347 18.9378 32.369 19.2701 32.3163 19.5235C32.2604 19.7768 32.1716 20.1387 32.119 20.3296C32.0664 20.5204 31.994 20.7704 31.9578 20.8889C31.9217 21.0073 31.8395 21.2508 31.777 21.4317C31.7112 21.6127 31.629 21.843 31.5895 21.9417C31.55 22.0404 31.4974 22.1654 31.4744 22.2214C31.4481 22.2773 31.3987 22.3925 31.3626 22.4846C31.3297 22.5734 31.2146 22.8267 31.1093 23.0439C31.0041 23.261 30.8528 23.5571 30.7739 23.7019C30.6949 23.8467 30.5963 24.0243 30.5535 24.0967C30.514 24.1691 30.4055 24.3468 30.3167 24.4915C30.2279 24.6363 30.0733 24.8798 29.9714 25.0344C29.8694 25.189 29.705 25.4259 29.603 25.5608C29.5044 25.6957 29.3991 25.8372 29.3695 25.8734C29.3432 25.9096 29.1919 26.0938 29.0341 26.2846C28.8762 26.4755 28.6361 26.7551 28.5013 26.9065C28.3631 27.0611 28.1395 27.298 28.0046 27.4329C27.8698 27.5711 27.6166 27.8113 27.4455 27.9659C27.2745 28.1205 26.9917 28.364 26.8207 28.5088C26.6496 28.6535 26.3668 28.874 26.1958 29.0023C26.0248 29.1273 25.7715 29.305 25.6367 29.3971C25.5018 29.4892 25.265 29.6438 25.1105 29.7393C24.9559 29.838 24.7421 29.9663 24.6336 30.0288C24.525 30.0913 24.2455 30.2426 24.0087 30.3644C23.7719 30.4861 23.397 30.6704 23.17 30.7691C22.9431 30.8711 22.5846 31.0224 22.3708 31.1047C22.1603 31.1869 21.9663 31.2527 21.9433 31.2527C21.9203 31.2527 21.8874 31.2659 21.8709 31.2823C21.8512 31.2988 21.7065 31.3547 21.542 31.4008C21.3776 31.4501 21.0684 31.5389 20.8514 31.6015C20.6343 31.6607 20.3383 31.7363 20.1936 31.7627C20.0489 31.7923 19.8845 31.8318 19.8318 31.8482C19.7792 31.8647 19.4898 31.914 19.1905 31.9601C18.8912 32.0061 18.4176 32.0686 18.1381 32.0983C17.7566 32.1443 17.3718 32.1575 16.5923 32.1542C15.849 32.1542 15.4215 32.1377 15.0794 32.1016C14.8163 32.0687 14.4019 32.016 14.1586 31.9798C13.9152 31.9436 13.6488 31.9009 13.5666 31.8811C13.4843 31.8647 13.2706 31.8219 13.0897 31.7824C12.9088 31.7429 12.649 31.6804 12.5141 31.6442C12.3793 31.608 12.0964 31.5258 11.8893 31.46C11.6821 31.3975 11.3861 31.3021 11.2315 31.2494C11.0769 31.1935 10.8697 31.1145 10.771 31.0717C10.6724 31.0257 10.5803 30.9895 10.5671 30.9895C10.5507 30.9895 10.4783 30.9599 10.4027 30.927C10.3238 30.8908 10.1067 30.7954 9.91594 30.7098C9.72519 30.6243 9.38643 30.4598 9.1595 30.3381C8.93257 30.2196 8.56422 30.0123 8.33729 29.8774C8.11036 29.7425 7.76174 29.5188 7.56441 29.3839C7.36708 29.249 7.05464 29.0253 6.87375 28.8871C6.69286 28.7522 6.39686 28.5153 6.21598 28.3607C6.03509 28.2061 5.60425 27.7981 5.25892 27.4559C4.91359 27.1105 4.49919 26.6729 4.33804 26.4821C4.17689 26.2912 4.01244 26.0905 3.97298 26.0379C3.93351 25.982 3.79867 25.8043 3.67698 25.6365C3.55529 25.4687 3.39085 25.2417 3.31192 25.1265C3.23627 25.0114 3.08499 24.7876 2.98303 24.6231C2.87779 24.4586 2.68704 24.1362 2.55548 23.8993C2.42722 23.6624 2.22002 23.2578 2.09175 22.9945C1.96678 22.7313 1.77602 22.2937 1.66749 22.024C1.55896 21.7509 1.42411 21.3824 1.36492 21.2014C1.30572 21.0205 1.23007 20.777 1.19389 20.6586C1.15772 20.5401 1.09194 20.3032 1.0459 20.1322C1.00314 19.9611 0.92092 19.6057 0.868298 19.3425C0.815677 19.0793 0.7499 18.724 0.723589 18.5529C0.697278 18.3818 0.644656 17.9278 0.60519 17.5494C0.54599 16.9572 0.539413 16.7203 0.552568 15.8879C0.562435 15.3549 0.592034 14.7035 0.621634 14.4403C0.647945 14.1771 0.687411 13.8513 0.710433 13.7164C0.730166 13.5816 0.789366 13.2394 0.845276 12.9597C0.897898 12.6801 1.00314 12.226 1.0755 11.9562C1.14785 11.6832 1.26954 11.2686 1.34847 11.035C1.43069 10.7981 1.53922 10.4889 1.59185 10.3441C1.64447 10.1993 1.72669 9.99205 1.77273 9.88347C1.82207 9.7749 1.87469 9.65646 1.89113 9.62027C1.90758 9.58407 2.02926 9.32416 2.16411 9.0445C2.29895 8.76484 2.48642 8.40293 2.5785 8.23842C2.67059 8.07392 2.74623 7.93902 2.74623 7.93244C2.74623 7.92915 2.84161 7.77452 2.96001 7.58698C3.07841 7.40274 3.24614 7.1494 3.33165 7.02766C3.41716 6.90264 3.5816 6.67233 3.7 6.51441C3.8184 6.35648 3.95982 6.17224 4.01244 6.10314C4.06507 6.03405 4.24266 5.81691 4.40382 5.62608C4.56826 5.43525 4.94319 5.03386 5.24248 4.73446C5.54505 4.43506 5.93642 4.06328 6.11731 3.90864C6.2982 3.75401 6.6238 3.4908 6.84086 3.3263C7.05792 3.16179 7.25197 3.01374 7.26841 2.99729C7.28486 2.98412 7.49534 2.84594 7.72885 2.68802C7.96236 2.53338 8.28467 2.32939 8.44582 2.23727C8.60369 2.14515 8.7484 2.06948 8.76484 2.06948C8.78128 2.06948 8.80102 2.05632 8.8076 2.04315C8.81088 2.0267 9.08057 1.88194 9.40617 1.72072C9.73176 1.55622 10.0804 1.38842 10.179 1.34894C10.2777 1.30617 10.4849 1.22063 10.6395 1.15812C10.7941 1.0956 10.9848 1.02322 11.067 0.996902C11.1493 0.967291 11.2907 0.917939 11.3795 0.885038C11.4716 0.848847 11.6919 0.779755 11.8728 0.723823C12.0537 0.671181 12.3135 0.595509 12.4484 0.556028C12.5832 0.516546 12.866 0.447454 13.0732 0.404683C13.2804 0.358621 13.5699 0.30269 13.7146 0.276369C13.8593 0.250048 14.1421 0.203986 14.3395 0.177666C14.5368 0.148055 14.8492 0.111864 15.0301 0.095413C15.211 0.0756724 15.4906 0.0493516 15.655 0.032901C15.8194 0.0197406 16.2174 0.0032901 16.543 0ZM14.619 2.66169C14.2309 2.71763 13.9053 2.77027 13.8955 2.77685C13.8856 2.78343 13.731 2.81962 13.5501 2.8591C13.3692 2.89858 13.0798 2.97096 12.9088 3.02361C12.7378 3.07296 12.4714 3.15521 12.3168 3.20456C12.1622 3.25391 11.9254 3.33946 11.7906 3.3921C11.6557 3.44474 11.4255 3.53686 11.2808 3.59937C11.1361 3.66189 10.8631 3.78691 10.6724 3.87903C10.4816 3.97445 10.1626 4.13895 9.96527 4.25081C9.76794 4.35939 9.40946 4.57654 9.17595 4.73117C8.94244 4.88581 8.60698 5.1194 8.43595 5.24772C8.26493 5.37932 7.93934 5.64582 7.71241 5.84323C7.48548 6.04063 7.1829 6.32029 7.0349 6.46176C6.8869 6.60653 6.65668 6.85 6.52513 7.00463C6.39029 7.15927 6.16993 7.41919 6.03509 7.58369C5.90025 7.75149 5.69963 8.0114 5.58781 8.15946C5.47927 8.3108 5.31812 8.54769 5.22932 8.68259C5.14381 8.81748 4.98266 9.0774 4.87741 9.25835C4.76888 9.43931 4.56497 9.82425 4.42355 10.1138C4.28213 10.4033 4.1144 10.7652 4.05191 10.9199C3.98942 11.0745 3.90391 11.2883 3.86445 11.3969C3.82498 11.5055 3.74605 11.7424 3.68356 11.9233C3.62436 12.1043 3.52898 12.43 3.47307 12.6472C3.41716 12.8643 3.32836 13.2624 3.27574 13.5355C3.21983 13.8053 3.15405 14.2429 3.12774 14.5061C3.10143 14.7693 3.06196 15.2431 3.03894 15.5589C3.00934 16.0393 3.01263 16.2531 3.05539 16.8585C3.08499 17.2566 3.13103 17.7534 3.16063 17.9607C3.18694 18.168 3.24614 18.5167 3.29218 18.7339C3.33494 18.951 3.41716 19.3063 3.47307 19.5235C3.52898 19.7406 3.6408 20.119 3.72302 20.3625C3.80196 20.6059 3.9368 20.9777 4.02231 21.185C4.10453 21.3923 4.23609 21.6917 4.31502 21.8496C4.39395 22.0108 4.45644 22.1457 4.45644 22.1556C4.45644 22.1654 4.53866 22.3234 4.6439 22.5076C4.74586 22.6951 4.84452 22.8761 4.86426 22.9123C4.88399 22.9518 4.96621 23.0867 5.04843 23.2183C5.13065 23.3499 5.29839 23.6032 5.42007 23.7776C5.54176 23.952 5.67003 24.1329 5.69963 24.1757C5.72923 24.2185 5.86736 24.3895 6.0022 24.5573C6.13704 24.7218 6.33438 24.962 6.43962 25.087C6.54157 25.2121 6.80139 25.4851 7.01517 25.6957C7.22566 25.903 7.55454 26.2057 7.7453 26.3702C7.93605 26.5314 8.16627 26.7255 8.25507 26.7979C8.34716 26.8703 8.56751 27.0315 8.7484 27.1598C8.92928 27.2848 9.20226 27.4691 9.35683 27.5678C9.50812 27.6665 9.67914 27.7751 9.73505 27.8047C9.78767 27.8376 10.0113 27.9593 10.2284 28.0745C10.4454 28.1929 10.7349 28.3377 10.8697 28.4002C11.0046 28.4627 11.2183 28.5581 11.3466 28.614C11.4749 28.6667 11.636 28.7325 11.7084 28.7555C11.7807 28.7785 11.8564 28.8082 11.8728 28.8213C11.8893 28.8312 12.0899 28.9036 12.3168 28.976C12.5437 29.0483 12.8299 29.1405 12.9581 29.1766C13.0864 29.2128 13.3298 29.2754 13.5008 29.3148C13.6718 29.3543 13.9152 29.4037 14.0435 29.43C14.1717 29.4563 14.4447 29.4991 14.6519 29.5287C14.8591 29.5583 15.1255 29.5945 15.2439 29.6109C15.3623 29.6241 15.8063 29.6471 16.2305 29.6603C16.7239 29.6735 17.1942 29.6669 17.5296 29.6438C17.8191 29.6241 18.1677 29.5912 18.3025 29.5682C18.4374 29.5484 18.7498 29.4991 18.9932 29.4563C19.2366 29.4168 19.5918 29.3444 19.7825 29.3017C19.9733 29.2556 20.2101 29.1931 20.3087 29.1635C20.4074 29.1339 20.6541 29.0549 20.8514 28.9924C21.0487 28.9266 21.3842 28.8082 21.5914 28.7259C21.7986 28.6469 22.1932 28.4726 22.4629 28.3443C22.7359 28.2126 23.1207 28.0119 23.318 27.9001C23.5154 27.7849 23.8936 27.548 24.1567 27.377C24.4198 27.2026 24.7585 26.9591 24.9131 26.8341C25.0677 26.7124 25.2519 26.5643 25.3209 26.5051C25.3933 26.4459 25.6005 26.2649 25.7814 26.1004C25.9656 25.9359 26.2681 25.6398 26.4523 25.4424C26.6398 25.245 26.9621 24.8765 27.166 24.6231C27.3699 24.3698 27.6429 24.0112 27.7711 23.8236C27.8994 23.6394 28.0046 23.4716 28.0046 23.4552C28.0046 23.4387 28.0145 23.419 28.031 23.4124C28.0441 23.4091 28.1033 23.3236 28.1658 23.2248C28.225 23.1261 28.3072 22.9913 28.3434 22.9287C28.3796 22.8662 28.5013 22.6392 28.6164 22.4254C28.7315 22.2148 28.8269 22.0338 28.8269 22.024C28.8269 22.0141 28.8729 21.9154 28.9288 21.8002C28.9847 21.6884 29.0998 21.4186 29.1886 21.2014C29.2741 20.9843 29.3991 20.6586 29.4616 20.4776C29.5274 20.2967 29.6195 20.0071 29.6688 19.836C29.7148 19.665 29.7971 19.3294 29.8497 19.0958C29.9023 18.8589 29.9681 18.543 29.9944 18.3884C30.0207 18.2338 30.0668 17.908 30.0964 17.6646C30.1227 17.4211 30.1588 16.9769 30.1753 16.6775C30.1917 16.3781 30.1983 15.9406 30.1884 15.707C30.1786 15.4701 30.1588 15.1476 30.1424 14.9831C30.1227 14.8186 30.0865 14.4863 30.0569 14.2429C30.0273 13.9994 29.9615 13.5914 29.9089 13.3381C29.8563 13.0847 29.7675 12.713 29.7116 12.5156C29.6557 12.3182 29.5734 12.0352 29.5274 11.8904C29.4781 11.7457 29.3925 11.4956 29.3301 11.3311C29.2709 11.1666 29.2051 11.0054 29.1886 10.9692C29.1722 10.933 29.1261 10.8212 29.0867 10.7225C29.0439 10.6237 28.9091 10.3342 28.7808 10.0809C28.6558 9.82754 28.4749 9.48866 28.3829 9.32416C28.2875 9.15965 28.1296 8.90302 28.0277 8.74839C27.929 8.59375 27.7646 8.35029 27.6626 8.20552C27.5639 8.06076 27.3074 7.72846 27.0936 7.46525C26.8799 7.20533 26.4983 6.7842 26.2451 6.52757C25.9919 6.27423 25.5939 5.90574 25.3571 5.70833C25.1203 5.51422 24.7388 5.21482 24.502 5.05031C24.2652 4.88251 23.9857 4.6884 23.8771 4.61931C23.7686 4.55021 23.5482 4.41861 23.3838 4.3232C23.2194 4.22778 22.8971 4.0567 22.6603 3.93826C22.4235 3.81981 22.1077 3.67176 21.9532 3.60595C21.7986 3.54015 21.5914 3.45461 21.4927 3.41513C21.394 3.37894 21.1704 3.29668 20.9994 3.23746C20.8284 3.17824 20.5324 3.08283 20.3416 3.03019C20.1509 2.97425 19.8483 2.89858 19.6674 2.8591C19.4865 2.81962 19.3319 2.78343 19.3221 2.77685C19.3122 2.77027 18.9932 2.72092 18.615 2.66498C18.2367 2.60905 17.6743 2.54983 17.3652 2.53009C17.056 2.51364 16.6745 2.50048 16.5101 2.50377C16.3457 2.50377 16.0135 2.51693 15.7701 2.53338C15.5267 2.54654 15.0071 2.60576 14.619 2.66169ZM22.4103 6.21501C22.4399 6.21501 22.4991 6.26436 22.5451 6.32358C22.5879 6.3828 22.6997 6.57692 22.7918 6.75787C22.8872 6.93883 22.9793 7.14611 22.999 7.21849C23.022 7.29087 23.0385 7.43893 23.0385 7.5475C23.0385 7.65607 23.022 7.79755 23.0023 7.86006C22.9826 7.92586 22.9464 8.02456 22.9201 8.08379C22.8938 8.14301 22.874 8.19894 22.874 8.20552C22.874 8.21539 22.8214 8.33383 22.7589 8.46873C22.6964 8.60691 22.6438 8.73194 22.6438 8.74839C22.6438 8.76813 22.7458 8.84709 22.8675 8.92934C22.9891 9.00831 23.1865 9.1761 23.3049 9.29784C23.4233 9.42286 23.5778 9.60711 23.6502 9.71239C23.7193 9.81767 23.7949 9.90321 23.8114 9.90321C23.8311 9.90321 23.9034 9.8736 23.9758 9.83412C24.0482 9.79793 24.2422 9.71568 24.4033 9.64659C24.6171 9.56104 24.7651 9.52156 24.9296 9.51169C25.0907 9.50182 25.2157 9.51498 25.3407 9.55446C25.4393 9.58737 25.6728 9.69265 25.8603 9.79135C26.0445 9.88676 26.2254 9.99205 26.2616 10.0249C26.2977 10.0578 26.3273 10.1039 26.3306 10.1302C26.3306 10.1598 26.3109 10.1993 26.2879 10.2191C26.255 10.252 26.2287 10.252 26.1629 10.2158C26.1168 10.1927 25.9984 10.1269 25.8998 10.071C25.8011 10.0118 25.6235 9.91967 25.5051 9.86702C25.3867 9.81109 25.2256 9.75187 25.1433 9.73871C25.0578 9.71897 24.9296 9.72226 24.8309 9.742C24.7421 9.75845 24.6533 9.78477 24.6336 9.79793C24.6171 9.81109 24.5283 9.85057 24.4362 9.88347C24.3474 9.91638 24.1994 9.97889 23.9429 10.1072L24.0745 10.15C24.1501 10.1763 24.2652 10.2553 24.3474 10.3441C24.456 10.4625 24.4889 10.525 24.5053 10.6501C24.5185 10.7356 24.5185 10.8573 24.5053 10.9199C24.4954 10.9857 24.4527 11.0877 24.4099 11.1502C24.3672 11.2193 24.2685 11.2982 24.1797 11.341C24.081 11.3903 24.0054 11.4529 23.9725 11.5219C23.9429 11.5812 23.8771 11.6865 23.8278 11.7588C23.7785 11.8312 23.6601 11.9464 23.5614 12.0122C23.4627 12.078 23.3016 12.1504 23.2029 12.1701C23.0911 12.1964 22.8971 12.2063 22.6931 12.1964C22.4662 12.1833 22.3116 12.1569 22.1932 12.1109C22.0979 12.0714 22.0058 12.0385 21.986 12.0385C21.9663 12.0385 21.963 12.0615 21.9827 12.0977C21.9992 12.1306 22.0288 12.2655 22.0518 12.4004C22.0748 12.5419 22.0847 12.7557 22.0748 12.8939C22.065 13.0321 22.0387 13.1867 22.0189 13.2394C21.9893 13.3249 21.9926 13.348 22.042 13.3907C22.0748 13.4203 22.3083 13.575 23.022 14.0257L23.2194 14.0027C23.3279 13.9928 23.5417 13.9665 23.6962 13.95C23.8508 13.9336 24.1139 13.9171 24.2817 13.9171C24.5217 13.9171 24.5908 13.927 24.6105 13.9665C24.6237 13.9928 24.6204 14.0257 24.604 14.0389C24.5908 14.052 24.4033 14.0948 24.1929 14.1376C23.9824 14.1771 23.6042 14.233 22.8905 14.3185L22.4958 14.1639C22.2787 14.0816 22.0551 13.9895 21.9959 13.9632C21.9367 13.9369 21.8874 13.9237 21.8874 13.9303C21.8874 13.9402 21.9729 14.1113 22.2656 14.6739L22.5945 14.7759C22.7754 14.8318 23.0779 14.9272 23.2687 14.9897C23.4594 15.0489 23.6436 15.1147 23.6798 15.1312C23.716 15.1476 23.8179 15.1904 23.9034 15.2299C23.989 15.2661 24.0547 15.3154 24.0482 15.3385C24.0383 15.3648 23.9758 15.3779 23.8574 15.3714C23.7587 15.3681 23.591 15.3418 23.4825 15.3154C23.3739 15.2891 23.0187 15.2036 22.6931 15.1279C22.111 14.993 22.1011 14.9864 21.9795 14.8548C21.9104 14.7824 21.8545 14.7331 21.8545 14.7462C21.8545 14.7594 21.8808 14.8713 21.917 14.993C21.9499 15.1147 21.9992 15.2595 22.0288 15.3121C22.0551 15.3681 22.2163 15.5392 22.3873 15.6905C22.555 15.8451 22.7852 16.0722 22.9003 16.1939C23.0122 16.3156 23.1042 16.4439 23.1042 16.4801C23.1042 16.5163 23.0944 16.5492 23.0812 16.5492C23.0681 16.5492 22.9003 16.4407 22.7096 16.3058C22.5188 16.1709 22.2393 15.9504 22.0847 15.8188C21.8545 15.6181 21.7854 15.5359 21.69 15.345C21.6276 15.2167 21.4828 14.9206 21.371 14.687C21.1737 14.2823 21.1605 14.2626 21.0783 14.2758C21.029 14.2856 20.9862 14.3054 20.9796 14.3185C20.9731 14.3317 20.9895 14.437 21.0125 14.5488C21.0388 14.6607 21.1013 14.97 21.1474 15.2299C21.1967 15.4931 21.2789 15.9603 21.3316 16.2663C21.3842 16.5755 21.473 17.1085 21.5256 17.4507C21.5815 17.7962 21.6637 18.3358 21.7065 18.6516C21.7525 18.9707 21.7953 19.2504 21.8052 19.2767C21.8117 19.3063 21.8479 19.6222 21.8874 19.9841C21.9236 20.346 21.9696 20.7704 21.986 20.9218C22.0058 21.0764 22.0354 21.4021 22.0518 21.6456C22.0683 21.8924 22.1011 22.6096 22.1242 23.2413C22.1571 24.1494 22.1538 24.61 22.1242 25.4128C22.1011 25.9754 22.0683 26.5511 22.0518 26.6959C22.0354 26.8407 21.9959 27.0545 21.963 27.1697C21.9301 27.2848 21.8874 27.3934 21.8644 27.4099C21.8413 27.423 21.7887 27.4263 21.7492 27.4164C21.7065 27.4033 21.6078 27.3342 21.5289 27.2585C21.45 27.1861 21.2954 27.0052 21.1836 26.8604C21.0717 26.7157 20.8612 26.413 20.7165 26.1859C20.5685 25.9622 20.4107 25.7023 20.3581 25.6102C20.3054 25.5213 20.1673 25.2779 20.0522 25.0673C19.9338 24.86 19.7299 24.4619 19.595 24.179C19.4602 23.8993 19.3385 23.6394 19.3188 23.6032C19.3023 23.567 19.253 23.4288 19.207 23.2907C19.1609 23.1558 19.0853 22.8761 19.0392 22.6655C18.9899 22.4583 18.9241 22.1325 18.8912 21.9417C18.8583 21.7542 18.8057 21.3396 18.7761 21.0205C18.7235 20.4546 18.7235 20.4414 18.7926 20.0828C18.832 19.8788 18.9044 19.6288 18.9636 19.507C19.0195 19.3919 19.1346 19.1912 19.2201 19.0629C19.3089 18.9378 19.424 18.7437 19.4799 18.6352C19.5326 18.5266 19.595 18.3719 19.6181 18.2897C19.6411 18.2107 19.6707 18.0627 19.6871 17.9607C19.7036 17.862 19.7463 17.4244 19.7858 16.9901C19.822 16.5558 19.8647 16.0689 19.8845 15.9044C19.9042 15.7431 19.9437 15.3352 19.9798 14.9996C20.0259 14.5423 20.0292 14.381 20.0029 14.3514C19.9798 14.3284 19.9108 14.3021 19.8483 14.2922C19.7858 14.2823 19.6181 14.2165 19.4799 14.1442C19.3385 14.0718 19.2168 14.0126 19.207 14.0126C19.1971 14.0126 19.23 14.108 19.276 14.2198C19.3484 14.3876 19.3648 14.4765 19.3648 14.7199C19.3648 14.9469 19.3484 15.0687 19.2925 15.2299C19.2497 15.3483 19.1675 15.5457 19.105 15.6675C19.0425 15.7892 18.9438 15.9669 18.8814 16.0623C18.8222 16.1577 18.7071 16.3156 18.6281 16.4143C18.5492 16.5163 18.3091 16.8026 18.092 17.0559C17.8717 17.3092 17.4145 17.7995 17.0692 18.1449C16.7074 18.5068 16.2437 18.928 15.9674 19.1484C15.7043 19.359 15.4182 19.5794 15.3261 19.6386C15.2373 19.6979 15.0729 19.813 14.9643 19.8887C14.8558 19.9676 14.7571 20.0334 14.744 20.0334C14.7308 20.0334 14.6058 20.1091 14.471 20.198C14.3362 20.2901 14.2178 20.3625 14.2079 20.3625C14.198 20.3625 14.1092 20.4151 14.0106 20.4776C13.9119 20.5434 13.8231 20.5928 13.8132 20.5928C13.8034 20.5928 13.7409 20.629 13.6751 20.6717C13.606 20.7145 13.4087 20.8264 13.2377 20.9251C13.0667 21.0205 12.6062 21.2607 12.2181 21.4581C11.8301 21.6555 11.2019 21.9549 10.8204 22.126C10.4422 22.297 10.1231 22.4319 10.1133 22.4221C10.1034 22.4122 10.179 22.2312 10.2744 22.0174C10.3731 21.8035 10.5342 21.4614 10.6329 21.2508C10.7283 21.0435 10.919 20.6553 11.0539 20.3888C11.1887 20.1223 11.4255 19.6715 11.5801 19.3853C11.738 19.0991 11.955 18.7174 12.0636 18.5364C12.1721 18.3555 12.3957 18.0002 12.5602 17.7468C12.7213 17.4935 12.922 17.1941 13.0042 17.0789C13.0897 16.9671 13.2278 16.7795 13.3133 16.6677C13.4021 16.5558 13.6488 16.2729 13.8626 16.036C14.0796 15.8024 14.471 15.401 14.7374 15.1476C15.0038 14.8943 15.336 14.5883 15.4708 14.4633C15.6089 14.3383 15.9148 14.0948 16.1483 13.9171C16.3851 13.7428 16.6712 13.5454 16.7896 13.4828C16.908 13.417 17.1218 13.3216 17.2665 13.2723C17.4836 13.1966 17.5823 13.1802 17.8256 13.1802C18.069 13.1834 18.1578 13.1966 18.3288 13.269C18.4407 13.3183 18.5295 13.3447 18.5229 13.3315C18.5163 13.3183 18.467 13.2098 18.4078 13.0913C18.3519 12.9762 18.2828 12.7952 18.2039 12.4991L18.0657 12.5188C17.9868 12.5287 17.6152 12.5649 17.2336 12.6011C16.8554 12.6406 16.3424 12.6899 16.099 12.713C15.8556 12.7393 15.4182 12.7755 15.1288 12.7952C14.8163 12.8182 14.5039 12.861 14.3559 12.9005C14.2211 12.94 14.0139 13.0189 13.8955 13.0815C13.7771 13.1407 13.5863 13.2525 13.4679 13.3282C13.3495 13.4039 13.1851 13.5059 13.0996 13.5585C13.014 13.6112 12.8562 13.677 12.7542 13.7099C12.5964 13.7559 12.4484 13.7658 11.9057 13.7625C11.4091 13.7592 11.1493 13.7428 10.8368 13.6901C10.6099 13.6539 10.2711 13.5914 10.0804 13.5552C9.88963 13.519 9.62323 13.4532 9.48839 13.4105C9.35355 13.3644 9.1003 13.2756 8.92928 13.2065C8.75826 13.1407 8.44582 13.0025 8.23862 12.8972C8.03143 12.7919 7.77161 12.6603 7.66307 12.6011C7.55454 12.5419 7.34734 12.4267 7.20263 12.3445C7.05792 12.2622 6.8277 12.1273 6.69286 12.0484C6.55802 11.9661 6.387 11.8608 6.31464 11.8115C6.24229 11.7654 6.17651 11.7194 6.16664 11.7095C6.15678 11.6996 6.10744 11.6634 6.05153 11.6305C5.99891 11.5976 5.84105 11.4858 5.7062 11.3871C5.57136 11.2851 5.38719 11.1271 5.30168 11.0383C5.21288 10.9462 5.13394 10.8409 5.12408 10.8047C5.11421 10.7685 5.1175 10.7225 5.12737 10.6994C5.13723 10.6764 5.19643 10.6369 5.25563 10.6139C5.31483 10.5876 5.4727 10.5514 5.60754 10.5316C5.74238 10.5119 6.05482 10.4757 6.2982 10.456C6.5646 10.4296 7.31117 10.4165 8.1564 10.4165C8.93586 10.4165 9.88305 10.4362 10.2613 10.456C10.6428 10.479 11.1821 10.5185 11.4617 10.5448C11.7413 10.5711 12.274 10.627 12.6457 10.6731C13.0173 10.7159 13.6225 10.7981 13.9941 10.8508C14.3658 10.9067 14.9512 10.9955 15.2932 11.0515C15.6385 11.1074 16.1615 11.1929 16.4608 11.2456C16.76 11.2982 17.2106 11.3805 17.4639 11.4265C17.7171 11.4759 17.9835 11.5285 18.0559 11.545C18.1282 11.5614 18.2039 11.5647 18.2203 11.5483C18.24 11.5351 18.2663 11.489 18.2795 11.4529C18.2992 11.3903 18.2762 11.3706 18.0657 11.2686C17.9342 11.2094 17.6415 11.0712 17.4145 10.9626C17.033 10.7817 16.9903 10.7488 16.7896 10.5218C16.6712 10.3902 16.5134 10.2059 16.441 10.1138C16.3687 10.0249 16.2371 9.84728 16.1516 9.71897C16.0694 9.59394 16.0003 9.47221 16.0003 9.44918C16.0003 9.42615 16.0266 9.40641 16.0595 9.40641C16.0891 9.40641 16.3588 9.65646 17.1942 10.5086L17.5033 10.6172C17.6809 10.6797 17.7993 10.706 17.7862 10.683C17.773 10.6599 17.7368 10.6237 17.7039 10.6007C17.6711 10.5777 17.6217 10.5152 17.5954 10.4592C17.5691 10.4066 17.5231 10.2783 17.4935 10.173C17.4672 10.0677 17.3849 9.73213 17.3159 9.42286C17.2468 9.11688 17.1843 8.78458 17.1777 8.68259C17.1712 8.54111 17.1777 8.50163 17.2172 8.50163C17.2468 8.50163 17.306 8.60362 17.3685 8.74839C17.4244 8.88657 17.556 9.27151 17.6612 9.60382C17.7631 9.93941 17.8684 10.2355 17.8914 10.2618C17.9144 10.2914 18.0855 10.3902 18.2663 10.4856C18.4505 10.581 18.5985 10.6468 18.5985 10.6336C18.5985 10.6205 18.5163 10.3934 18.2269 9.65317L18.2992 9.0774C18.3387 8.76155 18.4012 8.37661 18.4374 8.22197C18.4735 8.07063 18.5196 7.92915 18.536 7.90941C18.558 7.88748 18.5788 7.89296 18.5985 7.92586C18.6183 7.95547 18.6314 8.11011 18.6281 8.27132C18.6281 8.43583 18.615 8.69575 18.5952 8.84709C18.5788 9.00173 18.5558 9.22545 18.5262 9.55446L18.8353 10.0217C19.003 10.2783 19.1609 10.4987 19.1839 10.5086C19.207 10.5185 19.2958 10.5119 19.3813 10.4921C19.4668 10.4724 19.6707 10.456 19.8318 10.4592C19.9963 10.4592 20.2068 10.479 20.2989 10.502C20.3942 10.525 20.4732 10.5415 20.4732 10.5415C20.4732 10.5415 20.4436 10.4461 20.4074 10.3276C20.3679 10.2125 20.3317 10.0118 20.3186 9.88347C20.3087 9.74858 20.3153 9.56762 20.3383 9.43931C20.3613 9.32087 20.4205 9.15965 20.4732 9.0774C20.5258 8.99844 20.6376 8.86354 20.7264 8.78129C20.8119 8.69575 20.9402 8.61349 21.0092 8.59046C21.1046 8.56085 21.1375 8.52795 21.1638 8.4457C21.1803 8.38648 21.2526 8.28448 21.3184 8.21868C21.3875 8.14959 21.4861 8.0805 21.5355 8.06076C21.5848 8.04102 21.6835 8.02456 21.7558 8.02456C21.8282 8.02456 21.9433 8.0476 22.0124 8.07721C22.0781 8.10682 22.1768 8.16933 22.2261 8.21539C22.2787 8.26474 22.3412 8.35029 22.3675 8.40293C22.3939 8.45886 22.4136 8.52137 22.4136 8.5444C22.4136 8.56743 22.4267 8.58388 22.4399 8.58717C22.4531 8.58717 22.4794 8.5444 22.5024 8.49505C22.5221 8.4457 22.6011 8.25487 22.68 8.07392C22.7885 7.81729 22.8181 7.70543 22.8214 7.5475C22.8214 7.38958 22.7984 7.29745 22.7063 7.08688C22.6405 6.94212 22.5254 6.72497 22.4531 6.60324C22.3774 6.48151 22.3116 6.35319 22.3083 6.32029C22.3083 6.28739 22.3182 6.2512 22.3314 6.23804C22.3478 6.22488 22.384 6.21501 22.4103 6.21501Z" fill="#65DA01"/>
</svg>
