<svg width="48" height="48" viewBox="0 0 48 48" fill="none" xmlns="http://www.w3.org/2000/svg">
<path opacity="0.5" d="M0 15C0 6.71573 6.71573 0 15 0H33C41.2843 0 48 6.71573 48 15V33C48 41.2843 41.2843 48 33 48H15C6.71573 48 0 41.2843 0 33V15Z" fill="#30473A"/>
<path d="M11.8828 11.8711V34.1975C11.8828 34.9376 12.1768 35.6475 12.7002 36.1709C13.2236 36.6943 13.9334 36.9883 14.6736 36.9883H37M18.8598 25.8251H28.6276C29.3983 25.8251 30.023 26.4498 30.023 27.2205V30.0113C30.023 30.7819 29.3983 31.4067 28.6276 31.4067H18.8598C18.0892 31.4067 17.4644 30.7819 17.4644 30.0113V27.2205C17.4644 26.4498 18.0892 25.8251 18.8598 25.8251ZM18.8598 14.6619H32.8138C33.5845 14.6619 34.2092 15.2866 34.2092 16.0573V18.8481C34.2092 19.6187 33.5845 20.2435 32.8138 20.2435H18.8598C18.0892 20.2435 17.4644 19.6187 17.4644 18.8481V16.0573C17.4644 15.2866 18.0892 14.6619 18.8598 14.6619Z" stroke="#78FE05" stroke-width="2.88849" stroke-linecap="round" stroke-linejoin="round"/>
</svg>
