<svg width="48" height="48" viewBox="0 0 48 48" fill="none" xmlns="http://www.w3.org/2000/svg">
<path opacity="0.5" d="M0 15C0 6.71573 6.71573 0 15 0H33C41.2843 0 48 6.71573 48 15V33C48 41.2843 41.2843 48 33 48H15C6.71573 48 0 41.2843 0 33V15Z" fill="#30473A"/>
<path d="M22.3047 35.3555C20.6361 34.7656 19.1914 33.673 18.1693 32.2281C17.1473 30.7832 16.5982 29.057 16.5977 27.2872V23.0069C16.5977 21.4933 17.199 20.0417 18.2692 18.9714C19.3395 17.9011 20.7911 17.2998 22.3047 17.2998H28.0118C29.518 17.2998 30.9632 17.8952 32.0322 18.9562C33.1013 20.0173 33.7075 21.4579 33.7188 22.9641M28.183 12.8483L30.8653 10.166M37.9991 14.4463C37.9975 15.8476 37.4804 17.1993 36.5463 18.2439C35.6123 19.2885 34.3265 19.9529 32.9341 20.1106M12.3174 37.2745C12.3157 35.8067 12.8797 34.3947 13.892 33.3319C14.9043 32.2691 16.2872 31.6372 17.7534 31.5675M12.3174 14.4463C12.319 15.8476 12.8361 17.1993 13.7702 18.2439C14.7043 19.2885 15.99 19.9529 17.3824 20.1106M16.5977 25.8604H10.8906M19.4512 10.166L22.1335 12.8483M20.878 17.4853V15.8731C20.878 14.7379 21.3289 13.6492 22.1316 12.8464C22.9343 12.0437 24.0231 11.5928 25.1583 11.5928C26.2935 11.5928 27.3822 12.0437 28.1849 12.8464C28.9876 13.6492 29.4386 14.7379 29.4386 15.8731V17.4853M28.0118 28.7182C28.011 28.465 28.0777 28.2162 28.2048 27.9972C28.332 27.7783 28.5152 27.5971 28.7355 27.4724C28.9559 27.3476 29.2054 27.2837 29.4586 27.2873C29.7118 27.2909 29.9595 27.3617 30.1762 27.4926L37.3057 31.7686C37.518 31.8951 37.6937 32.0746 37.8158 32.2894C37.9379 32.5043 38.002 32.7471 38.002 32.9942C38.002 33.2413 37.9379 33.4842 37.8158 33.699C37.6937 33.9139 37.518 34.0933 37.3057 34.2198L30.1762 38.4958C29.9593 38.6268 29.7115 38.6977 29.4582 38.7012C29.2049 38.7047 28.9553 38.6407 28.7349 38.5157C28.5145 38.3908 28.3314 38.2095 28.2043 37.9903C28.0772 37.7712 28.0108 37.5221 28.0118 37.2688V28.7182Z" stroke="#78FE05" stroke-width="2.88849" stroke-linecap="round" stroke-linejoin="round"/>
</svg>
