<svg width="48" height="48" viewBox="0 0 48 48" fill="none" xmlns="http://www.w3.org/2000/svg">
<path d="M36.0056 28.3336H34.6723V21.6669C34.6723 15.7854 29.8868 11 24.0054 11C18.124 11 13.3385 15.7854 13.3385 21.6669V28.3337H12.0052C11.2679 28.3337 10.6719 28.931 10.6719 29.667V37.6671C10.6719 38.4031 11.2679 39.0005 12.0052 39.0005H36.0056C36.7429 39.0005 37.3389 38.4031 37.3389 37.6671V29.667C37.3389 28.931 36.7429 28.3336 36.0056 28.3336ZM24.0054 15.0001C24.7414 15.0001 25.3387 15.5974 25.3387 16.3334C25.3387 17.0694 24.7414 17.6667 24.0054 17.6667C23.2694 17.6667 22.6721 17.0694 22.6721 16.3334C22.6721 15.5974 23.2694 15.0001 24.0054 15.0001ZM24.0054 25.6669C24.7414 25.6669 25.3387 26.2643 25.3387 27.0003C25.3387 27.7363 24.7414 28.3336 24.0054 28.3336C23.2694 28.3336 22.6721 27.7363 22.6721 27.0003C22.6721 26.2643 23.2694 25.6669 24.0054 25.6669ZM21.3387 25.6669C20.6027 25.6669 20.0053 25.0696 20.0053 24.3336C20.0053 23.5976 20.6027 23.0002 21.3387 23.0002C22.0747 23.0002 22.672 23.5975 22.672 24.3335C22.672 25.0695 22.0747 25.6669 21.3387 25.6669ZM24.0054 23.0002C23.2694 23.0002 22.6721 22.4029 22.6721 21.6669C22.6721 20.9309 23.2694 20.3335 24.0054 20.3335C24.7414 20.3335 25.3387 20.9309 25.3387 21.6669C25.3387 22.4029 24.7414 23.0002 24.0054 23.0002ZM21.3387 17.6668C22.0747 17.6668 22.672 18.2641 22.672 19.0001C22.672 19.7361 22.0747 20.3335 21.3387 20.3335C20.6027 20.3335 20.0053 19.7361 20.0053 19.0001C20.0053 18.2641 20.6027 17.6668 21.3387 17.6668ZM18.672 20.3335C19.408 20.3335 20.0053 20.9308 20.0053 21.6668C20.0053 22.4028 19.408 23.0002 18.672 23.0002C17.936 23.0002 17.3387 22.4029 17.3387 21.6669C17.3387 20.9309 17.936 20.3335 18.672 20.3335ZM18.672 25.6669C19.408 25.6669 20.0053 26.2643 20.0053 27.0003C20.0053 27.7363 19.408 28.3336 18.672 28.3336C17.936 28.3336 17.3387 27.7363 17.3387 27.0003C17.3387 26.2643 17.936 25.6669 18.672 25.6669ZM34.6723 36.3337H13.3385V31.0003H14.6719H33.3389H34.6722V36.3337H34.6723Z" fill="#65DA01"/>
<path d="M24.0052 9.66673C24.7425 9.66673 25.3385 9.06941 25.3385 8.3334C25.3385 7.59739 24.7425 7 24.0052 7C23.2679 7 22.6719 7.59732 22.6719 8.33334C22.6719 9.06935 23.2679 9.66673 24.0052 9.66673Z" fill="#65DA01"/>
<path d="M38.6667 17.6689H37.3334C36.596 17.6689 36 18.2663 36 19.0023C36 19.7383 36.596 20.3356 37.3333 20.3356H38.6667C39.404 20.3356 40 19.7383 40 19.0023C40 18.2663 39.4041 17.6689 38.6667 17.6689Z" fill="#65DA01"/>
<path d="M34.6618 12.3314C35.0031 12.3314 35.3445 12.2007 35.6045 11.9407L36.9378 10.6074C37.4591 10.0861 37.4591 9.24337 36.9378 8.72205C36.4165 8.20072 35.5738 8.20072 35.0525 8.72205L33.7191 10.0554C33.1978 10.5767 33.1978 11.4194 33.7191 11.9407C33.9791 12.2008 34.3204 12.3314 34.6618 12.3314Z" fill="#65DA01"/>
<path d="M12.0001 19.0023C12.0001 18.2663 11.4041 17.6689 10.6667 17.6689H9.33333C8.59601 17.6689 8 18.2663 8 19.0023C8 19.7383 8.59601 20.3356 9.33333 20.3356H10.6667C11.4041 20.3356 12.0001 19.7383 12.0001 19.0023Z" fill="#65DA01"/>
<path d="M12.3962 11.9408C12.6562 12.2008 12.9975 12.3315 13.3389 12.3315C13.6802 12.3315 14.0216 12.2008 14.2816 11.9408C14.8029 11.4195 14.8029 10.5768 14.2816 10.0554L12.9482 8.72205C12.4269 8.20072 11.5842 8.20072 11.0629 8.72205C10.5415 9.24337 10.5415 10.0861 11.0629 10.6074L12.3962 11.9408Z" fill="#65DA01"/>
</svg>
