<svg width="48" height="48" viewBox="0 0 48 48" fill="none" xmlns="http://www.w3.org/2000/svg">
<path d="M26.8059 17.5573C26.7371 17.5275 26.6786 17.4785 26.6376 17.4162C26.5966 17.3539 26.5749 17.2811 26.5751 17.2068V16.1097C26.5751 15.8065 26.4536 15.5159 26.2372 15.3015C26.0208 15.0872 25.7273 14.9668 25.4213 14.9668C25.1153 14.9668 24.8218 15.0872 24.6054 15.3015C24.389 15.5159 24.2674 15.8065 24.2674 16.1097V16.8716C24.2674 16.9726 24.2269 17.0695 24.1548 17.1409C24.0826 17.2124 23.9848 17.2525 23.8828 17.2525H23.1136C23.0116 17.2525 22.9137 17.2124 22.8416 17.1409C22.7695 17.0695 22.729 16.9726 22.729 16.8716V16.1097C22.729 15.8065 22.6074 15.5159 22.391 15.3015C22.1746 15.0872 21.8811 14.9668 21.5751 14.9668C21.2691 14.9668 20.9756 15.0872 20.7592 15.3015C20.5428 15.5159 20.4213 15.8065 20.4213 16.1097V16.8716C20.4213 16.9726 20.3808 17.0695 20.3086 17.1409C20.2365 17.2124 20.1387 17.2525 20.0367 17.2525C19.7319 17.2565 19.4407 17.3781 19.2252 17.5916C19.0096 17.8051 18.8868 18.0935 18.8828 18.3954V27.5382C18.8868 27.8401 19.0096 28.1285 19.2252 28.342C19.4407 28.5555 19.7319 28.6771 20.0367 28.6811C20.1387 28.6811 20.2365 28.7212 20.3086 28.7927C20.3808 28.8641 20.4213 28.961 20.4213 29.062V29.8239C20.4213 30.127 20.5428 30.4177 20.7592 30.6321C20.9756 30.8464 21.2691 30.9668 21.5751 30.9668C21.8811 30.9668 22.1746 30.8464 22.391 30.6321C22.6074 30.4177 22.729 30.127 22.729 29.8239V29.062C22.729 28.961 22.7695 28.8641 22.8416 28.7927C22.9137 28.7212 23.0116 28.6811 23.1136 28.6811H23.8828C23.9848 28.6811 24.0826 28.7212 24.1548 28.7927C24.2269 28.8641 24.2674 28.961 24.2674 29.062V29.8239C24.2674 30.127 24.389 30.4177 24.6054 30.6321C24.8218 30.8464 25.1153 30.9668 25.4213 30.9668C25.7273 30.9668 26.0208 30.8464 26.2372 30.6321C26.4536 30.4177 26.5751 30.127 26.5751 29.8239V28.7268C26.5749 28.6524 26.5966 28.5796 26.6376 28.5174C26.6786 28.4551 26.7371 28.4061 26.8059 28.3763C27.4203 28.1107 27.9436 27.6742 28.3123 27.1196C28.681 26.5651 28.8792 25.9165 28.8828 25.2525C28.8841 24.508 28.6351 23.7842 28.1751 23.1954C28.1227 23.1305 28.0941 23.0499 28.0941 22.9668C28.0941 22.8837 28.1227 22.8031 28.1751 22.7382C28.6351 22.1494 28.8841 21.4256 28.8828 20.6811C28.8792 20.0171 28.681 19.3685 28.3123 18.814C27.9436 18.2594 27.4203 17.8229 26.8059 17.5573ZM21.1905 19.9192C21.1905 19.8181 21.231 19.7212 21.3032 19.6498C21.3753 19.5784 21.4731 19.5382 21.5751 19.5382H25.4213C25.7273 19.5382 26.0208 19.6586 26.2372 19.873C26.4536 20.0873 26.5751 20.378 26.5751 20.6811C26.5751 20.9842 26.4536 21.2749 26.2372 21.4892C26.0208 21.7035 25.7273 21.8239 25.4213 21.8239H21.5751C21.4731 21.8239 21.3753 21.7838 21.3032 21.7124C21.231 21.6409 21.1905 21.544 21.1905 21.443V19.9192ZM25.4213 26.3954H21.5751C21.4731 26.3954 21.3753 26.3552 21.3032 26.2838C21.231 26.2123 21.1905 26.1155 21.1905 26.0144V24.4906C21.1905 24.3896 21.231 24.2927 21.3032 24.2212C21.3753 24.1498 21.4731 24.1097 21.5751 24.1097H25.4213C25.7273 24.1097 26.0208 24.2301 26.2372 24.4444C26.4536 24.6587 26.5751 24.9494 26.5751 25.2525C26.5751 25.5556 26.4536 25.8463 26.2372 26.0606C26.0208 26.275 25.7273 26.3954 25.4213 26.3954Z" fill="#65DA01"/>
<path d="M41.8672 34.6473C41.8981 34.4258 41.8831 34.2002 41.8233 33.9847C41.7635 33.7693 41.6601 33.5687 41.5196 33.3957C41.3777 33.2282 41.2016 33.0937 41.0033 33.0015C40.8051 32.9093 40.5894 32.8615 40.3711 32.8615H39.9933C39.8931 32.8615 39.797 32.8213 39.7262 32.7498C39.6553 32.6782 39.6155 32.5812 39.6155 32.48V13.0194C39.6155 12.2098 39.2971 11.4334 38.7303 10.8609C38.1635 10.2884 37.3948 9.9668 36.5932 9.9668H10.9035C10.102 9.9668 9.33324 10.2884 8.76644 10.8609C8.19965 11.4334 7.88123 12.2098 7.88123 13.0194V32.48C7.88123 32.5812 7.84142 32.6782 7.77057 32.7498C7.69972 32.8213 7.60363 32.8615 7.50344 32.8615H7.39766C7.17938 32.8615 6.9637 32.9093 6.76544 33.0015C6.56718 33.0937 6.39105 33.2282 6.24918 33.3957C6.10572 33.5639 6.00031 33.7616 5.94028 33.9752C5.88025 34.1887 5.86706 34.4129 5.90161 34.6321L6.09806 35.7768C6.24164 36.6678 6.69455 37.4781 7.37569 38.0626C8.05683 38.6471 8.92173 38.9676 9.81551 38.9668H37.9533C38.847 38.9676 39.7119 38.6471 40.3931 38.0626C41.0742 37.4781 41.5271 36.6678 41.6707 35.7768L41.8672 34.6473ZM10.9035 14.5457C10.9035 14.1409 11.0628 13.7527 11.3461 13.4665C11.6295 13.1802 12.0139 13.0194 12.4147 13.0194H35.0821C35.4828 13.0194 35.8672 13.1802 36.1506 13.4665C36.434 13.7527 36.5932 14.1409 36.5932 14.5457V31.3352C36.5932 31.74 36.434 32.1282 36.1506 32.4145C35.8672 32.7007 35.4828 32.8615 35.0821 32.8615H12.4147C12.0139 32.8615 11.6295 32.7007 11.3461 32.4145C11.0628 32.1282 10.9035 31.74 10.9035 31.3352V14.5457Z" fill="#65DA01"/>
</svg>
