<svg width="48" height="48" viewBox="0 0 48 48" fill="none" xmlns="http://www.w3.org/2000/svg">
<path opacity="0.5" d="M0 15C0 6.71573 6.71573 0 15 0H33C41.2843 0 48 6.71573 48 15V33C48 41.2843 41.2843 48 33 48H15C6.71573 48 0 41.2843 0 33V15Z" fill="#30473A"/>
<path fill-rule="evenodd" clip-rule="evenodd" d="M23.6875 40.8571L16.2247 35.5265C11.9262 32.4561 9.375 27.4988 9.375 22.2162V14.2768L23.6875 8.14282L38 14.2768V22.2162C38 27.4988 35.4489 32.4561 31.1502 35.5265L23.6875 40.8571ZM32.2895 19.8118L29.398 16.9202L21.6429 24.6754L17.977 21.0095L15.0855 23.9011L21.6429 30.4585L32.2895 19.8118Z" fill="#65DA01"/>
</svg>
