<svg width="48" height="48" viewBox="0 0 48 48" fill="none" xmlns="http://www.w3.org/2000/svg">
<path opacity="0.5" d="M0 15C0 6.71573 6.71573 0 15 0H33C41.2843 0 48 6.71573 48 15V33C48 41.2843 41.2843 48 33 48H15C6.71573 48 0 41.2843 0 33V15Z" fill="#30473A"/>
<path d="M21.7297 34.5998H13.5945C12.8753 34.5998 12.1856 34.3141 11.6771 33.8055C11.1685 33.297 10.8828 32.6073 10.8828 31.8881V14.2619C10.8828 13.5427 11.1685 12.853 11.6771 12.3444C12.1856 11.8359 12.8753 11.5502 13.5945 11.5502H18.8824C19.3359 11.5457 19.7833 11.6551 20.1836 11.8683C20.5839 12.0815 20.9244 12.3917 21.1738 12.7705L22.272 14.3975C22.5189 14.7724 22.8551 15.0802 23.2503 15.2932C23.6455 15.5062 24.0874 15.6177 24.5363 15.6178H35.2883C36.0075 15.6178 36.6972 15.9035 37.2058 16.412C37.7143 16.9205 38 17.6103 38 18.3295V21.7191M35.2883 30.5322V27.8205C35.2883 27.1013 35.0026 26.4116 34.494 25.903C33.9855 25.3945 33.2958 25.1088 32.5766 25.1088C31.8574 25.1088 31.1676 25.3945 30.6591 25.903C30.1505 26.4116 29.8648 27.1013 29.8648 27.8205V30.5322M28.509 30.5322H36.6441C37.393 30.5322 38 31.1392 38 31.8881V35.9556C38 36.7045 37.393 37.3115 36.6441 37.3115H28.509C27.7602 37.3115 27.1531 36.7045 27.1531 35.9556V31.8881C27.1531 31.1392 27.7602 30.5322 28.509 30.5322Z" stroke="#78FE05" stroke-width="3.11849" stroke-linecap="round" stroke-linejoin="round"/>
</svg>
