<svg width="36" height="36" viewBox="0 0 36 36" fill="none" xmlns="http://www.w3.org/2000/svg">
<path fill-rule="evenodd" clip-rule="evenodd" d="M36 12.375C36 19.2095 30.4596 24.75 23.625 24.75H15.75V29.25H11.25V33.75L9 36H0V27L11.6179 15.3821C11.3776 14.4194 11.25 13.4121 11.25 12.375C11.25 5.54047 16.7905 0 23.625 0C30.4596 0 36 5.54047 36 12.375ZM29.25 9C29.25 10.2426 28.2427 11.25 27 11.25C25.7573 11.25 24.75 10.2426 24.75 9C24.75 7.75737 25.7573 6.75 27 6.75C28.2427 6.75 29.25 7.75737 29.25 9Z" fill="#65DA01"/>
</svg>
