<svg width="31" height="44" viewBox="0 0 31 44" fill="none" xmlns="http://www.w3.org/2000/svg">
<path fill-rule="evenodd" clip-rule="evenodd" d="M10.8105 5.36156e-06C10.8584 5.36156e-06 10.9065 5.36156e-06 10.9547 5.36156e-06H19.8626C21.8049 -0.000104185 23.4783 -0.000191869 24.8185 0.179991C26.2546 0.373078 27.6314 0.808504 28.7479 1.92514C29.8646 3.04179 30.3 4.41846 30.4932 5.85464C30.6733 7.19475 30.6733 8.86823 30.6731 10.8105V33.0082C30.6733 34.9505 30.6733 36.6239 30.4932 37.9641C30.3 39.4002 29.8646 40.777 28.7479 41.8935C27.6314 43.0103 26.2546 43.4456 24.8185 43.6388C23.4783 43.8189 21.8049 43.8189 19.8626 43.8187H10.8105C8.86825 43.8189 7.19477 43.8189 5.85465 43.6388C4.41847 43.4456 3.04179 43.0103 1.92514 41.8935C0.808505 40.777 0.373078 39.4002 0.179991 37.9641C-0.000191869 36.6239 -0.000104185 34.9505 5.36156e-06 33.0082V10.9547C5.36156e-06 10.9065 5.36156e-06 10.8584 5.36156e-06 10.8105C-0.000104185 8.86823 -0.000191869 7.19475 0.179991 5.85464C0.373078 4.41846 0.808505 3.04179 1.92514 1.92514C3.04179 0.808504 4.41847 0.373078 5.85465 0.179991C7.19475 -0.000191869 8.86823 -0.000104185 10.8105 5.36156e-06ZM12.0501 35.055C12.0501 33.8449 13.031 32.864 14.2411 32.864H16.432C17.6421 32.864 18.623 33.8449 18.623 35.055C18.623 36.265 17.6421 37.2459 16.432 37.2459H14.2411C13.031 37.2459 12.0501 36.265 12.0501 35.055Z" fill="#65DA01"/>
</svg>
