<svg width="47" height="41" viewBox="0 0 47 41" fill="none" xmlns="http://www.w3.org/2000/svg">
<path d="M25.4566 28.6387C25.4566 30.5267 25.8384 32.3087 26.5173 33.9421H11.6676C8.48553 33.9421 5.70652 32.8814 3.41543 30.6116C1.14555 28.3841 0 25.6475 0 22.4442C0 19.6864 0.82734 17.2256 2.48202 15.0618C4.1367 12.898 6.36415 11.5191 9.01588 10.9251C9.90686 7.67941 11.6676 5.04889 14.3193 3.03358C16.9711 1.01826 19.9834 0 23.3352 0C27.4719 0 30.9722 1.44254 33.8573 4.32762C36.7424 7.2127 38.1849 10.713 38.1849 14.8497H38.397C31.1843 15.3376 25.4566 21.3199 25.4566 28.6387ZM38.1849 20.1531V16.9711L33.4118 21.7442L38.1849 26.5173V23.3352C39.5915 23.3352 40.9404 23.894 41.935 24.8886C42.9296 25.8832 43.4884 27.2321 43.4884 28.6387C43.4884 29.4872 43.2974 30.2934 42.9368 31.0146L45.2491 33.3269C46.1401 31.9905 46.6704 30.3782 46.6704 28.6387C46.6704 23.9504 42.8732 20.1531 38.1849 20.1531ZM38.1849 33.9421C36.7783 33.9421 35.4294 33.3834 34.4348 32.3888C33.4402 31.3942 32.8814 30.0452 32.8814 28.6387C32.8814 27.7901 33.0724 26.984 33.433 26.2627L31.1207 23.9504C30.2297 25.2869 29.6994 26.8991 29.6994 28.6387C29.6994 33.3269 33.4966 37.1242 38.1849 37.1242V40.3063L42.958 35.5332L38.1849 30.7601V33.9421Z" fill="#65DA01"/>
</svg>
