<svg width="48" height="48" viewBox="0 0 48 48" fill="none" xmlns="http://www.w3.org/2000/svg">
<path opacity="0.5" d="M0 15C0 6.71573 6.71573 0 15 0H33C41.2843 0 48 6.71573 48 15V33C48 41.2843 41.2843 48 33 48H15C6.71573 48 0 41.2843 0 33V15Z" fill="#30473A"/>
<path d="M24.3575 12C23.1594 12 22.4448 13.3352 23.1094 14.332L24.0185 15.6957C24.2967 16.113 24.765 16.3636 25.2665 16.3636H37.289C38.1174 16.3636 38.789 15.6921 38.789 14.8636V13.5C38.789 12.6716 38.1174 12 37.289 12H24.3575Z" fill="#65DA01"/>
<path d="M24.0968 18.5454C23.5952 18.5454 23.1269 18.2948 22.8487 17.8775L19.3756 12.6679C19.0974 12.2507 18.6291 12 18.1276 12H10.4688C9.64033 12 8.96875 12.6716 8.96875 13.5V34.5C8.96875 35.3284 9.64032 36 10.4688 36H37.2869C38.1153 36 38.7869 35.3284 38.7869 34.5V20.0454C38.7869 19.217 38.1153 18.5454 37.2869 18.5454H24.0968ZM27.8778 26.909C27.8778 27.0624 27.8691 27.2138 27.8521 27.3627C27.8163 27.6771 27.9453 27.9978 28.2194 28.156C28.5578 28.3514 28.6737 28.7841 28.4783 29.1225L28.0959 29.7849C27.9 30.1242 27.4662 30.2404 27.1269 30.0445C26.8522 29.8859 26.5092 29.9345 26.2543 30.1234C26.0129 30.3023 25.7507 30.4546 25.4721 30.5762C25.1818 30.7028 24.9687 30.975 24.9687 31.2917C24.9687 31.6828 24.6516 31.9999 24.2604 31.9999H23.4952C23.104 31.9999 22.7869 31.6828 22.7869 31.2917C22.7869 30.975 22.5737 30.7028 22.2835 30.5762C22.0049 30.4547 21.7427 30.3023 21.5013 30.1234C21.2464 29.9345 20.9034 29.8859 20.6287 30.0445C20.2894 30.2404 19.8556 30.1242 19.6597 29.7849L19.2773 29.1226C19.0819 28.7841 19.1979 28.3514 19.5363 28.1559C19.8104 27.9977 19.9394 27.6772 19.9036 27.3628C19.8866 27.2138 19.8779 27.0625 19.8779 26.909C19.8779 26.7556 19.8866 26.6042 19.9036 26.4553C19.9394 26.1409 19.8104 25.8203 19.5363 25.662C19.1979 25.4667 19.082 25.0339 19.2774 24.6955L19.6598 24.0331C19.8557 23.6939 20.2895 23.5776 20.6288 23.7735C20.9035 23.9321 21.2465 23.8835 21.5014 23.6946C21.7429 23.5157 22.005 23.3634 22.2836 23.2419C22.5739 23.1153 22.787 22.843 22.787 22.5264C22.787 22.1352 23.1041 21.8181 23.4953 21.8181H24.2605C24.6517 21.8181 24.9688 22.1352 24.9688 22.5264C24.9688 22.843 25.182 23.1152 25.4722 23.2418C25.7508 23.3634 26.013 23.5157 26.2544 23.6946C26.5093 23.8835 26.8523 23.9321 27.127 23.7735C27.4663 23.5776 27.9001 23.6939 28.096 24.0331L28.4784 24.6954C28.6738 25.0339 28.5579 25.4667 28.2194 25.6621C27.9453 25.8203 27.8163 26.1408 27.8521 26.4553C27.8691 26.6042 27.8778 26.7556 27.8778 26.909Z" fill="#65DA01"/>
<path d="M23.8806 25.082C22.8781 25.082 22.0625 25.8977 22.0625 26.9002C22.0625 27.9028 22.8781 28.7184 23.8806 28.7184C24.8832 28.7184 25.6988 27.9028 25.6988 26.9002C25.6988 25.8977 24.8832 25.082 23.8806 25.082Z" fill="#65DA01"/>
</svg>
