<svg width="48" height="48" viewBox="0 0 48 48" fill="none" xmlns="http://www.w3.org/2000/svg">
<path d="M32.1758 24.1172C34.313 24.1172 36.3628 24.9663 37.874 26.4775C39.3853 27.9888 40.2344 30.0385 40.2344 32.1758C40.2344 33.7696 39.7615 35.3281 38.876 36.6533C37.9905 37.9783 36.7321 39.0112 35.2598 39.6211C33.7873 40.231 32.1667 40.39 30.6035 40.0791C29.0404 39.7682 27.6045 39.001 26.4775 37.874C25.3505 36.747 24.5824 35.3113 24.2715 33.748C23.9605 32.1848 24.1205 30.5643 24.7305 29.0918C25.3404 27.6194 26.3732 26.361 27.6982 25.4756C29.0235 24.5901 30.5819 24.1172 32.1758 24.1172ZM11.2217 26.5078C11.6141 26.3466 12.0549 26.3466 12.4473 26.5078L15.3799 27.8779C15.7667 28.0597 16.0659 28.3871 16.2109 28.7891C16.356 29.191 16.3359 29.6346 16.1543 30.0215C16.047 30.2364 15.8926 30.4245 15.7031 30.5723C15.5135 30.7201 15.2924 30.8234 15.0576 30.875C15.3811 31.339 15.7426 31.7759 16.1377 32.1807C17.3709 33.3624 18.8524 34.2547 20.4736 34.792V34.9043C20.8374 35.0239 21.1463 35.2698 21.3457 35.5967C21.545 35.9235 21.6216 36.3104 21.5615 36.6885C21.5014 37.0667 21.3086 37.4112 21.0176 37.6602C20.7266 37.9091 20.3566 38.047 19.9736 38.0479C19.8041 38.0446 19.6356 38.017 19.4736 37.9668C17.3631 37.2576 15.444 36.072 13.8652 34.502C13.0548 33.6861 12.3503 32.7709 11.7695 31.7783C11.6278 32.011 11.429 32.2037 11.1924 32.3389C10.9557 32.4741 10.6886 32.5479 10.416 32.5518C10.1775 32.5518 9.9411 32.502 9.72266 32.4062C9.33618 32.2245 9.03764 31.8968 8.89258 31.4951C8.7475 31.0931 8.76763 30.6496 8.94922 30.2627L10.3037 27.3291C10.4889 26.9445 10.819 26.6492 11.2217 26.5078ZM16.0586 8C17.1168 8.00001 18.1649 8.20831 19.1426 8.61328C20.1202 9.01826 21.0086 9.61207 21.7568 10.3604C22.5051 11.1086 23.0989 11.9969 23.5039 12.9746C23.9089 13.9523 24.1172 15.0003 24.1172 16.0586C24.1172 17.6524 23.6443 19.2109 22.7588 20.5361C21.8733 21.8611 20.6149 22.894 19.1426 23.5039C17.6701 24.1138 16.0495 24.2729 14.4863 23.9619C12.9232 23.651 11.4873 22.8838 10.3604 21.7568C9.23334 20.6298 8.46524 19.1941 8.1543 17.6309C7.84335 16.0676 8.00335 14.4471 8.61328 12.9746C9.22317 11.5023 10.256 10.2439 11.5811 9.3584C12.9063 8.47291 14.4648 8 16.0586 8ZM28.2021 10.2285C28.4185 10.2179 28.6346 10.2513 28.8379 10.3262C30.9487 11.0354 32.8684 12.2208 34.4473 13.791C35.2579 14.6108 35.9669 15.5252 36.5586 16.5146C36.7905 16.2065 37.1251 15.9916 37.502 15.9092C37.8788 15.8268 38.2729 15.8821 38.6123 16.0654C38.9516 16.2488 39.2138 16.5479 39.3516 16.9082C39.4892 17.2686 39.4931 17.6673 39.3623 18.0303L39.2822 18.0947L37.9277 21.0273C37.796 21.3039 37.5886 21.5375 37.3291 21.7002C37.0694 21.8628 36.7683 21.9484 36.4619 21.9463C36.2284 21.9475 35.9966 21.8986 35.7842 21.8018L32.8516 20.4316C32.5597 20.2825 32.3202 20.0475 32.165 19.7588C32.0099 19.4701 31.9466 19.1411 31.9834 18.8154C32.0202 18.4897 32.1555 18.1824 32.3711 17.9355C32.5866 17.689 32.872 17.5139 33.1895 17.4336C32.8838 16.9536 32.5451 16.4955 32.1748 16.0635C30.948 14.8585 29.466 13.9439 27.8389 13.3877C27.6305 13.3282 27.436 13.228 27.2676 13.0918C27.0991 12.9555 26.9601 12.7861 26.8584 12.5947C26.7567 12.4034 26.6945 12.1934 26.6758 11.9775C26.6571 11.7617 26.6818 11.5439 26.749 11.3379C26.8163 11.132 26.924 10.9415 27.0664 10.7783C27.2089 10.615 27.3831 10.4822 27.5781 10.3877C27.7732 10.2932 27.9857 10.2392 28.2021 10.2285Z" fill="#65DA01"/>
</svg>
