<svg width="175" height="38" viewBox="0 0 175 38" fill="none" xmlns="http://www.w3.org/2000/svg">
<path opacity="0.3" d="M0 19C0 8.50659 8.50659 0 19 0H156C166.493 0 175 8.50659 175 19C175 29.4934 166.493 38 156 38H19C8.50659 38 0 29.4934 0 19Z" fill="url(#paint0_linear_5273_10645)"/>
<path d="M64.5625 25H61.8047L60.2578 19C60.1953 18.7552 60.0964 18.3151 59.9609 17.6797C59.8203 16.9557 59.7396 16.5052 59.7188 16.3281C59.6927 16.5729 59.6146 17.0286 59.4844 17.6953C59.3542 18.362 59.2604 18.8021 59.2031 19.0156L57.6641 25H54.9141L52 13.5781H54.3828L55.8438 19.8125C56.0885 20.8958 56.2734 21.8932 56.3984 22.8047C56.4297 22.5026 56.5026 22.0312 56.6172 21.3906C56.737 20.7448 56.8411 20.2734 56.9297 19.9766L58.5938 13.5781H60.8828L62.5469 19.9766C62.6302 20.3099 62.724 20.7682 62.8281 21.3516C62.9375 21.9349 63.0182 22.4193 63.0703 22.8047C63.138 22.3047 63.2266 21.763 63.3359 21.1797C63.4505 20.5964 63.5495 20.1406 63.6328 19.8125L65.0859 13.5781H67.4688L64.5625 25ZM71.1016 12.8438V15.3203C71.1016 15.5651 71.0833 16.0182 71.0469 16.6797L70.9922 17.3906H71.1172C71.6484 16.5312 72.4922 16.1016 73.6484 16.1016C74.6693 16.1016 75.4453 16.3776 75.9766 16.9297C76.513 17.4818 76.7812 18.2734 76.7812 19.3047V25H74.3984V19.8984C74.3984 18.638 73.9297 18.0078 72.9922 18.0078C72.3255 18.0078 71.8438 18.2344 71.5469 18.6875C71.25 19.1406 71.1016 19.875 71.1016 20.8906V25H68.7188V12.8438H71.1016ZM83.0234 16.1016C83.8255 16.1016 84.5417 16.2839 85.1719 16.6484C85.8073 17.0078 86.2969 17.5286 86.6406 18.2109C86.9896 18.888 87.1641 19.6641 87.1641 20.5391C87.1641 20.5651 87.1641 20.5911 87.1641 20.6172C87.1641 22.0391 86.7891 23.151 86.0391 23.9531C85.2891 24.7552 84.2448 25.1562 82.9062 25.1562C82.8854 25.1562 82.862 25.1562 82.8359 25.1562C82.0339 25.1562 81.3151 24.974 80.6797 24.6094C80.0495 24.2396 79.5599 23.7135 79.2109 23.0312C78.8672 22.349 78.6953 21.5703 78.6953 20.6953C78.6953 20.6693 78.6953 20.6432 78.6953 20.6172C78.6953 19.1901 79.0677 18.0833 79.8125 17.2969C80.5573 16.5 81.6042 16.1016 82.9531 16.1016C82.974 16.1016 82.9974 16.1016 83.0234 16.1016ZM84.2969 18.6641C84.0104 18.237 83.5521 18.0234 82.9219 18.0234C82.2917 18.0234 81.8333 18.2344 81.5469 18.6562C81.2656 19.0781 81.125 19.7318 81.125 20.6172C81.125 21.4974 81.2682 22.1562 81.5547 22.5938C81.8464 23.026 82.3047 23.2422 82.9297 23.2422C83.5599 23.2422 84.0156 23.026 84.2969 22.5938C84.5833 22.1615 84.7266 21.5052 84.7266 20.625C84.7266 19.7396 84.5833 19.0859 84.2969 18.6641ZM104.609 25H101.852L100.305 19C100.242 18.7552 100.143 18.3151 100.008 17.6797C99.8672 16.9557 99.7865 16.5052 99.7656 16.3281C99.7396 16.5729 99.6615 17.0286 99.5312 17.6953C99.401 18.362 99.3073 18.8021 99.25 19.0156L97.7109 25H94.9609L92.0469 13.5781H94.4297L95.8906 19.8125C96.1354 20.8958 96.3203 21.8932 96.4453 22.8047C96.4766 22.5026 96.5495 22.0312 96.6641 21.3906C96.7839 20.7448 96.888 20.2734 96.9766 19.9766L98.6406 13.5781H100.93L102.594 19.9766C102.677 20.3099 102.771 20.7682 102.875 21.3516C102.984 21.9349 103.065 22.4193 103.117 22.8047C103.185 22.3047 103.273 21.763 103.383 21.1797C103.497 20.5964 103.596 20.1406 103.68 19.8125L105.133 13.5781H107.516L104.609 25ZM115.789 24.5391C114.987 24.9505 113.964 25.1562 112.719 25.1562C111.312 25.1562 110.214 24.7682 109.422 23.9922C108.63 23.2161 108.234 22.1068 108.234 20.6641C108.234 19.2214 108.599 18.1042 109.328 17.3125C110.057 16.5052 111.055 16.1016 112.32 16.1016C113.586 16.1016 114.56 16.4531 115.242 17.1562C115.935 17.8542 116.281 18.8255 116.281 20.0703V21.2266H110.648C110.674 21.9089 110.875 22.4401 111.25 22.8203C111.63 23.1953 112.156 23.3828 112.828 23.3828C113.818 23.3828 114.805 23.1536 115.789 22.6953V24.5391ZM114.047 19.6406C114.036 19.0573 113.883 18.6042 113.586 18.2812C113.294 17.9583 112.896 17.7969 112.391 17.7969C111.885 17.7969 111.487 17.9557 111.195 18.2734C110.909 18.5911 110.745 19.0469 110.703 19.6406H114.047ZM132.164 25H129.555L128.719 22.2812H124.562L123.734 25H121.125L125.156 13.5312H128.117L132.164 25ZM128.148 20.25L126.852 16.0703C126.753 15.7266 126.685 15.4714 126.648 15.3047C126.477 15.9661 125.984 17.6146 125.172 20.25H128.148ZM138.297 16.1016C138.625 16.1016 138.893 16.125 139.102 16.1719L138.922 18.4062C138.734 18.3542 138.5 18.3281 138.219 18.3281C137.458 18.3281 136.865 18.5234 136.438 18.9141C136.016 19.3047 135.805 19.8516 135.805 20.5547V25H133.422V16.2656H135.227L135.578 17.7344H135.695C135.977 17.2344 136.341 16.8411 136.789 16.5547C137.247 16.2526 137.75 16.1016 138.297 16.1016ZM147.711 24.5391C146.909 24.9505 145.885 25.1562 144.641 25.1562C143.234 25.1562 142.135 24.7682 141.344 23.9922C140.552 23.2161 140.156 22.1068 140.156 20.6641C140.156 19.2214 140.521 18.1042 141.25 17.3125C141.979 16.5052 142.977 16.1016 144.242 16.1016C145.508 16.1016 146.482 16.4531 147.164 17.1562C147.857 17.8542 148.203 18.8255 148.203 20.0703V21.2266H142.57C142.596 21.9089 142.797 22.4401 143.172 22.8203C143.552 23.1953 144.078 23.3828 144.75 23.3828C145.74 23.3828 146.727 23.1536 147.711 22.6953V24.5391ZM145.969 19.6406C145.958 19.0573 145.805 18.6042 145.508 18.2812C145.216 17.9583 144.818 17.7969 144.312 17.7969C143.807 17.7969 143.409 17.9557 143.117 18.2734C142.831 18.5911 142.667 19.0469 142.625 19.6406H145.969Z" fill="#38FF7E"/>
<g clip-path="url(#clip0_5273_10645)">
<path d="M24.5 11C25.163 11 25.7989 11.2634 26.2678 11.7322C26.7366 12.2011 27 12.837 27 13.5C27 14.163 26.7366 14.7989 26.2678 15.2678C25.7989 15.7366 25.163 16 24.5 16C23.837 16 23.2011 15.7366 22.7322 15.2678C22.2634 14.7989 22 14.163 22 13.5C22 12.837 22.2634 12.2011 22.7322 11.7322C23.2011 11.2634 23.837 11 24.5 11ZM36 11C36.663 11 37.2989 11.2634 37.7678 11.7322C38.2366 12.2011 38.5 12.837 38.5 13.5C38.5 14.163 38.2366 14.7989 37.7678 15.2678C37.2989 15.7366 36.663 16 36 16C35.337 16 34.7011 15.7366 34.2322 15.2678C33.7634 14.7989 33.5 14.163 33.5 13.5C33.5 12.837 33.7634 12.2011 34.2322 11.7322C34.7011 11.2634 35.337 11 36 11ZM20 20.3344C20 18.4938 21.4937 17 23.3344 17H24.6687C25.1656 17 25.6375 17.1094 26.0625 17.3031C26.0219 17.5281 26.0031 17.7625 26.0031 18C26.0031 19.1938 26.5281 20.2656 27.3562 21C27.35 21 27.3438 21 27.3344 21H20.6656C20.3 21 20 20.7 20 20.3344ZM32.6656 21C32.6594 21 32.6531 21 32.6438 21C33.475 20.2656 33.9969 19.1938 33.9969 18C33.9969 17.7625 33.975 17.5312 33.9375 17.3031C34.3625 17.1062 34.8344 17 35.3313 17H36.6656C38.5063 17 40 18.4938 40 20.3344C40 20.7031 39.7 21 39.3344 21H32.6656ZM27 18C27 17.2044 27.3161 16.4413 27.8787 15.8787C28.4413 15.3161 29.2044 15 30 15C30.7956 15 31.5587 15.3161 32.1213 15.8787C32.6839 16.4413 33 17.2044 33 18C33 18.7956 32.6839 19.5587 32.1213 20.1213C31.5587 20.6839 30.7956 21 30 21C29.2044 21 28.4413 20.6839 27.8787 20.1213C27.3161 19.5587 27 18.7956 27 18ZM24 26.1656C24 23.8656 25.8656 22 28.1656 22H31.8344C34.1344 22 36 23.8656 36 26.1656C36 26.625 35.6281 27 35.1656 27H24.8344C24.375 27 24 26.6281 24 26.1656Z" fill="#4ADE80"/>
</g>
<defs>
<linearGradient id="paint0_linear_5273_10645" x1="87.5" y1="0" x2="87.5" y2="38" gradientUnits="userSpaceOnUse">
<stop offset="0.811202" stop-color="#030A06"/>
<stop offset="1"/>
</linearGradient>
<clipPath id="clip0_5273_10645">
<path d="M20 11H40V27H20V11Z" fill="white"/>
</clipPath>
</defs>
</svg>
