<svg width="97" height="44" viewBox="0 0 97 44" fill="none" xmlns="http://www.w3.org/2000/svg">
<path d="M74.3035 25.4487C72.7432 23.8766 71.9512 21.1698 71.9512 17.3519C71.9512 13.534 72.7196 10.8272 74.2798 9.23149C75.8401 7.6476 78.7833 6.84383 83.1094 6.84383L96.998 6.83201L91.5844 0L82.8376 0.0118199C75.8519 0.02364 70.7692 1.43023 67.6015 4.21977C66.1594 5.49634 65.0601 7.1157 64.2682 9.05419C65.1429 11.4182 65.5802 14.1841 65.5802 17.3637C65.5802 20.5433 65.1547 23.3092 64.28 25.6614C65.072 27.5881 66.1712 29.2074 67.6251 30.4722C70.8047 33.2499 75.8873 34.6447 82.873 34.6329L90.958 34.621L96.3125 27.789L83.1212 27.8009C78.8069 27.8127 75.8637 27.0207 74.3035 25.4487Z" fill="white"/>
<path d="M36.725 0.0722656L30.5786 0.084086H28.8647C27.2453 0.107726 25.8269 0.864212 24.6449 2.389L18.0375 10.7931L11.4182 2.40082C10.2007 0.864212 8.79415 0.0959059 7.18661 0.0959059H1.9976C1.11109 0.0959059 0.673745 0.462329 0.673745 1.20699C0.673745 1.57342 0.839226 1.9753 1.18201 2.389L12.6593 16.9041L0.508264 32.4593C0.177301 32.8967 0 33.2867 0 33.6413C0.0945607 34.3624 0.543724 34.7288 1.35931 34.7288H6.50105C8.10858 34.7288 9.51517 33.9723 10.6972 32.4593L18.0493 23.0623L25.425 32.4475C26.6188 33.9605 28.0136 34.717 29.633 34.7051L37.4342 34.6933L23.4156 16.9041L36.725 0.0722656Z" fill="white"/>
<path d="M59.3862 30.4791C60.84 29.2025 61.9393 27.5832 62.7194 25.6565C63.0386 24.8764 63.2986 24.0726 63.4996 23.2452C63.9251 21.484 64.1379 19.5219 64.1379 17.347C64.1379 15.1721 63.9133 13.1981 63.4878 11.4488C63.2868 10.6332 63.0268 9.82942 62.6958 9.04929C61.9039 7.12262 60.8046 5.50326 59.3507 4.22669C56.1711 1.43715 51.0885 0.0541992 44.1028 0.0541992H38.5828L33.181 6.89803L43.8428 6.88621C48.1689 6.88621 51.1239 7.66634 52.6842 9.25023C54.2444 10.8341 55.0364 13.5291 55.0364 17.3588C55.0364 21.1767 54.2563 23.8835 52.7078 25.4556C51.1476 27.0395 48.2044 27.8314 43.8782 27.8314L33.9021 27.8432L39.2802 34.6753H44.1501C51.1239 34.6634 56.2066 33.2687 59.3862 30.4791Z" fill="white"/>
<path d="M32.25 25.6926L32.2381 8.15161L25.3352 16.9339L32.25 25.6926Z" fill="#416BAA"/>
<path d="M86.2648 39.8576L88.8888 37.1744C88.9597 37.1035 88.9597 36.9971 88.8888 36.9262C88.8534 36.8907 88.8061 36.8789 88.7588 36.8789H87.825C87.7777 36.8789 87.7304 36.9025 87.695 36.938L84.3381 40.4368V37.0562C84.3381 36.9616 84.2553 36.8789 84.1608 36.8789H83.4398C83.3452 36.8789 83.2625 36.9616 83.2625 37.0562L83.2743 43.4391C83.2743 43.5336 83.357 43.6164 83.4516 43.6164H84.1726C84.2672 43.6164 84.3499 43.5336 84.3499 43.4391V41.7961L85.5201 40.6141L87.8605 43.5454C87.8959 43.5927 87.9432 43.6164 88.0023 43.6164H88.9006C88.9952 43.6164 89.0779 43.5336 89.0779 43.4391C89.0779 43.4036 89.0661 43.3563 89.0425 43.3327L86.2648 39.8576Z" fill="#416BAA"/>
<path d="M80.2384 40.9457C80.4038 40.8984 80.5575 40.8393 80.6993 40.7684C80.9239 40.662 81.1249 40.5202 81.3022 40.3429C81.4795 40.1656 81.6095 39.9646 81.7041 39.7401C81.7986 39.4918 81.8459 39.22 81.8459 38.9599C81.8459 38.6644 81.7868 38.3689 81.6686 38.1089C81.5504 37.8489 81.3731 37.6243 81.1603 37.447C80.9239 37.2578 80.6639 37.116 80.3802 37.0333C80.0492 36.9269 79.7183 36.8796 79.3755 36.8914H76.6332C76.5387 36.8914 76.4559 36.9742 76.4559 37.0687L76.4678 43.4634C76.4678 43.558 76.5505 43.6407 76.6451 43.6407H77.3661C77.4606 43.6407 77.5434 43.558 77.5434 43.4634V41.1585H79.1036L80.9003 43.5698C80.9358 43.6171 80.983 43.6407 81.0421 43.6407H81.9286C82.0232 43.6407 82.1059 43.558 82.1059 43.4634C82.1059 43.4279 82.0941 43.3807 82.0705 43.357L80.2384 40.9457ZM79.2928 40.1538H77.4961V37.908H79.2928C79.7656 37.908 80.1438 38.0025 80.392 38.2035C80.6403 38.3926 80.7703 38.6881 80.7584 39.0072C80.7584 39.1727 80.723 39.3382 80.6521 39.4918C80.5811 39.6337 80.4866 39.7519 80.3566 39.8464C80.2147 39.9528 80.0611 40.0356 79.8956 40.0828C79.7065 40.1301 79.5055 40.1538 79.2928 40.1538Z" fill="#416BAA"/>
<path d="M74.55 37.8122C74.2427 37.493 73.8763 37.233 73.4626 37.0557C72.5643 36.6774 71.5596 36.6892 70.6612 37.0675C70.2475 37.2448 69.8811 37.5048 69.5738 37.8358C69.2783 38.1549 69.0301 38.5332 68.8764 38.9469C68.7109 39.3724 68.6282 39.8216 68.6282 40.2707C68.6282 40.7199 68.7109 41.1809 68.8764 41.5946C69.1955 42.4338 69.8338 43.1076 70.6612 43.4622C71.5596 43.8404 72.5643 43.8286 73.4626 43.4503C73.8763 43.273 74.2427 43.013 74.55 42.682C74.8574 42.3629 75.0938 41.9847 75.2474 41.5709C75.4129 41.1454 75.4956 40.6963 75.4956 40.2471C75.4956 39.7979 75.4129 39.3488 75.2474 38.9232C75.0938 38.5095 74.8574 38.1313 74.55 37.8122ZM74.2191 41.2282C74.1127 41.5118 73.9472 41.7837 73.7344 42.0083C73.5335 42.2329 73.2853 42.4102 73.0016 42.5284C72.7061 42.6584 72.387 42.7175 72.0678 42.7175C71.7487 42.7175 71.4295 42.6584 71.134 42.5284C70.8503 42.3984 70.6021 42.2211 70.3894 41.9965C70.1766 41.7719 70.0111 41.5 69.9047 41.2163C69.6683 40.5899 69.6683 39.9043 69.9047 39.2897C70.0111 39.006 70.1766 38.7341 70.3894 38.5095C70.5903 38.285 70.8385 38.1077 71.1222 37.9895C71.4177 37.8594 71.7369 37.8003 72.056 37.8003C72.3751 37.8003 72.6943 37.8594 72.9898 37.9895C73.5571 38.2377 74.0063 38.7105 74.2191 39.2897C74.3373 39.597 74.3964 39.928 74.3964 40.2589C74.3964 40.6017 74.3373 40.9208 74.2191 41.2282Z" fill="#416BAA"/>
<path d="M68.1094 36.8907H67.3411C67.2702 36.8907 67.1992 36.938 67.1756 37.0089L65.5208 41.8315L63.9251 36.9971C63.9014 36.9262 63.8305 36.8789 63.7596 36.8789H63.1686C63.0977 36.8789 63.0268 36.9262 63.0031 36.9971L61.431 41.8433L59.7762 37.0207C59.7526 36.9498 59.6817 36.9025 59.6107 36.9025H58.8306C58.7361 36.9025 58.6533 36.9853 58.6533 37.0798C58.6533 37.1035 58.6533 37.1153 58.6651 37.1389L60.9582 43.5691C60.9819 43.64 61.0528 43.6873 61.1237 43.6873H61.7265C61.7975 43.6873 61.8684 43.64 61.892 43.5691L63.4759 38.8765L65.0716 43.5691C65.0953 43.64 65.1662 43.6873 65.2371 43.6873H65.8518C65.9227 43.6873 65.9936 43.64 66.0172 43.5691L68.2749 37.1508C68.2867 37.1271 68.2985 37.0917 68.2985 37.068C68.2867 36.9735 68.204 36.8907 68.1094 36.8907Z" fill="#416BAA"/>
<path d="M57.9416 36.9041H52.9299C52.8353 36.9041 52.7526 36.9868 52.7526 37.0814V37.7433C52.7526 37.8378 52.8353 37.9206 52.9299 37.9206H54.892V43.4642C54.892 43.5588 54.9747 43.6415 55.0693 43.6415H55.7903C55.8849 43.6415 55.9676 43.5588 55.9676 43.4642V37.9206H57.9416C58.0361 37.9206 58.1189 37.8378 58.1189 37.7433V37.0814C58.1307 36.9868 58.048 36.9041 57.9416 36.9041C57.9534 36.9041 57.9534 36.9041 57.9416 36.9041Z" fill="#416BAA"/>
<path d="M51.9533 42.6467H48.1827V40.7673H51.4923C51.5869 40.7673 51.6696 40.6846 51.6696 40.59V39.9399C51.6696 39.8453 51.5869 39.7626 51.4923 39.7626H48.1827V37.9423H51.906C52.0006 37.9423 52.0833 37.8596 52.0833 37.765V37.1031C52.0833 37.0085 52.0006 36.9258 51.906 36.9258H47.2844C47.1898 36.9258 47.1071 37.0085 47.1071 37.1031L47.1189 43.4859C47.1189 43.5805 47.2016 43.6632 47.2962 43.6632H51.9651C52.0597 43.6632 52.1424 43.5805 52.1424 43.4859V42.824C52.1424 42.7294 52.0597 42.6467 51.9533 42.6467Z" fill="#416BAA"/>
<path d="M45.472 36.9148H44.7628C44.6682 36.9148 44.5855 36.9975 44.5855 37.0921V41.7019L40.874 36.9857C40.8385 36.9384 40.7912 36.9148 40.7321 36.9148H40.0584C39.9638 36.9148 39.8811 36.9975 39.8811 37.0921L39.8929 43.4749C39.8929 43.5695 39.9757 43.6522 40.0702 43.6522H40.7794C40.874 43.6522 40.9567 43.5695 40.9567 43.4749V38.7469L44.7746 43.5813C44.8101 43.6286 44.8574 43.6522 44.9165 43.6522H45.4956C45.5902 43.6522 45.6729 43.5695 45.6729 43.4749L45.6611 37.0803C45.6493 36.9975 45.5666 36.9148 45.472 36.9148Z" fill="#416BAA"/>
</svg>
