<svg width="47" height="47" viewBox="0 0 47 47" fill="none" xmlns="http://www.w3.org/2000/svg">
<path d="M21.1382 0.105548C21.5358 0.0662204 21.9552 0.0312624 22.0776 0.0225229C22.1955 0.0137834 22.781 0.00504384 23.3752 0.000674084C23.9738 -0.00369567 24.7471 0.0137834 25.101 0.0356321C25.4593 0.0618507 26.071 0.123027 26.4686 0.171095C26.8662 0.219162 27.4953 0.315297 27.8667 0.385213C28.2381 0.455129 28.8673 0.594961 29.2649 0.691096C29.6624 0.7916 30.4183 1.01446 30.947 1.19362C31.4757 1.36841 32.2534 1.65681 32.6728 1.84034C33.0922 2.0195 33.6952 2.2948 34.0054 2.45211C34.3156 2.60505 34.8399 2.88471 35.1632 3.07261C35.4865 3.25614 36.0851 3.63194 36.4958 3.90287C36.9065 4.17379 37.4745 4.57581 37.7629 4.7943C38.0513 5.01715 38.5319 5.40606 38.8333 5.66388C39.1348 5.91733 39.7246 6.47228 40.1441 6.89615C40.5635 7.31565 41.1009 7.88808 41.3325 8.16338C41.5684 8.43867 41.9267 8.88002 42.1321 9.14657C42.3374 9.41313 42.7 9.91128 42.936 10.2609C43.1719 10.6104 43.5127 11.1392 43.6918 11.4407C43.8754 11.7422 44.1681 12.271 44.3516 12.6205C44.5351 12.9701 44.7841 13.4814 44.9108 13.7567C45.0332 14.032 45.2298 14.4952 45.3434 14.7836C45.4614 15.072 45.6361 15.5439 45.7366 15.8323C45.8371 16.1207 46.0119 16.6888 46.1298 17.0995C46.2434 17.5103 46.4095 18.1745 46.4925 18.5852C46.5799 18.996 46.6978 19.6733 46.759 20.0928C46.8202 20.5123 46.8944 21.1153 46.925 21.4256C46.96 21.7664 46.9818 22.6011 46.9818 23.5012C46.9818 24.4189 46.9556 25.2316 46.925 25.5769C46.8901 25.8871 46.8289 26.429 46.7808 26.7785C46.7328 27.1281 46.6323 27.7049 46.5624 28.0676C46.4925 28.4259 46.3527 29.0377 46.2522 29.4222C46.1561 29.8068 45.9725 30.436 45.8458 30.8206C45.7191 31.2051 45.5051 31.795 45.374 32.1315C45.2385 32.468 44.9939 33.036 44.8278 33.3987C44.6618 33.757 44.3909 34.2989 44.2293 34.6004C44.0676 34.9019 43.8142 35.3433 43.67 35.5836C43.5258 35.8239 43.2112 36.3134 42.9666 36.676C42.7219 37.0344 42.3505 37.5587 42.1364 37.834C41.9223 38.1093 41.5291 38.5944 41.2582 38.9046C40.9873 39.2149 40.3931 39.8354 39.9431 40.2811C39.4887 40.7268 38.9207 41.2555 38.6804 41.4566C38.4401 41.6576 37.9464 42.0421 37.5881 42.313C37.2255 42.584 36.675 42.9729 36.3648 43.1739C36.0545 43.3792 35.5302 43.6982 35.2069 43.8905C34.8836 44.0784 34.2239 44.4193 33.7433 44.6552C33.2626 44.8868 32.5854 45.1927 32.2359 45.3282C31.8864 45.468 31.2572 45.6952 30.8378 45.835C30.4183 45.9749 29.6712 46.1846 29.1775 46.307C28.6838 46.4293 27.9366 46.5867 27.5172 46.6566C27.0977 46.7309 26.4773 46.8182 26.1409 46.8532C25.8045 46.8925 25.1447 46.945 24.6772 46.9712C24.1748 47.0018 23.4451 47.0061 22.9077 46.993C22.4053 46.9756 21.6931 46.9362 21.3348 46.9013C20.9722 46.8663 20.4522 46.8051 20.177 46.7702C19.9017 46.7309 19.3687 46.6391 18.9973 46.5692C18.6259 46.4949 18.0055 46.3594 17.621 46.2589C17.2365 46.1628 16.5768 45.9705 16.1574 45.8307C15.7379 45.6908 15.0869 45.4549 14.7155 45.3063C14.3441 45.1577 13.6058 44.8213 13.0771 44.5635C12.5484 44.3013 11.8494 43.9255 11.526 43.7332C11.2027 43.5366 10.7221 43.235 10.4556 43.0603C10.1891 42.8811 9.7172 42.5446 9.40699 42.313C9.09241 42.0771 8.6118 41.6969 8.33654 41.4653C8.06128 41.2381 7.42775 40.6438 6.93404 40.15C6.44032 39.6562 5.86796 39.0576 5.66261 38.8172C5.45726 38.5769 5.08588 38.1137 4.83684 37.7903C4.58779 37.467 4.17272 36.8858 3.91494 36.5013C3.66153 36.1167 3.29889 35.5355 3.11539 35.2122C2.92751 34.8888 2.64352 34.3557 2.48186 34.0323C2.3202 33.709 2.06242 33.1584 1.91386 32.8088C1.76094 32.4592 1.53375 31.8912 1.40704 31.5416C1.28034 31.192 1.10557 30.672 1.01819 30.3836C0.930802 30.0952 0.773512 29.5053 0.664282 29.0727C0.559422 28.6401 0.41524 27.9409 0.345333 27.5214C0.271057 27.1019 0.183674 26.4901 0.148721 26.1668C0.109398 25.8434 0.0569681 25.1923 0.0307531 24.7248C0.000168965 24.2353 -0.00856937 23.475 0.0089073 22.9332C0.0220148 22.4175 0.0657065 21.6703 0.10066 21.2726C0.139982 20.875 0.209889 20.2851 0.25795 19.9617C0.306011 19.6384 0.406502 19.0878 0.476408 18.7382C0.550684 18.3886 0.67739 17.838 0.760404 17.5147C0.843418 17.1913 1.02255 16.5926 1.158 16.1819C1.28907 15.7711 1.5119 15.155 1.65171 14.8054C1.79153 14.4558 2.02746 13.9052 2.17601 13.5819C2.32894 13.2585 2.58672 12.7341 2.75274 12.4239C2.92314 12.1136 3.15908 11.6898 3.28141 11.4844C3.40375 11.279 3.67027 10.8595 3.87562 10.5449C4.08097 10.2303 4.44798 9.71027 4.69266 9.38691C4.93733 9.06355 5.26938 8.63968 5.43104 8.44741C5.5927 8.25514 5.95971 7.83565 6.25245 7.51229C6.54518 7.19329 7.05201 6.68203 7.37532 6.38052C7.69864 6.07901 8.19236 5.64203 8.46762 5.4148C8.74287 5.18321 9.22785 4.80741 9.53806 4.57581C9.85264 4.34421 10.3595 3.98589 10.674 3.78488C10.9886 3.5795 11.5086 3.26051 11.8319 3.07261C12.1552 2.88908 12.7756 2.56572 13.2082 2.3516C13.6407 2.14185 14.2873 1.84908 14.65 1.70488C15.0083 1.56068 15.5631 1.3553 15.8734 1.24605C16.1836 1.14118 16.6991 0.9795 17.0093 0.887735C17.3195 0.80034 17.8613 0.660507 18.2109 0.581852C18.5604 0.498826 19.1983 0.376473 19.6308 0.302187C20.0634 0.232271 20.7406 0.140506 21.1382 0.105548Z" fill="white"/>
<path d="M27.382 23.4313L38.3553 9.54395L33.2813 9.55413H31.865C30.5201 9.57451 29.3586 10.2062 28.3805 11.4492L22.9295 18.3878L17.4785 11.4594C16.48 10.196 15.3184 9.57451 13.9939 9.57451H9.71461C8.98102 9.57451 8.62441 9.88017 8.62441 10.4915C8.62441 10.7972 8.76706 11.1232 9.04215 11.4696L18.5075 23.4414L8.49196 36.2589C8.21686 36.6155 8.07422 36.9416 8.07422 37.237C8.15573 37.8382 8.53271 38.1337 9.19498 38.1337H13.4335C14.7581 38.1337 15.9196 37.5121 16.8977 36.2589L22.96 28.5053L29.0427 36.2386C30.031 37.4816 31.1824 38.1031 32.5069 38.1031L38.936 38.0929L27.382 23.4313Z" fill="#15294C"/>
<path d="M28.9609 23.4508L34.6667 30.6849L34.6463 16.2168L28.9609 23.4508Z" fill="#416BAA"/>
</svg>
