<svg width="97" height="44" viewBox="0 0 97 44" fill="none" xmlns="http://www.w3.org/2000/svg">
<path d="M74.3034 25.4487C72.7431 23.8766 71.9512 21.1698 71.9512 17.3519C71.9512 13.534 72.7195 10.8272 74.2797 9.23149C75.84 7.6476 78.7832 6.84383 83.1094 6.84383L96.998 6.83201L91.5844 0L82.8375 0.0118199C75.8518 0.02364 70.7692 1.43023 67.6014 4.21977C66.1593 5.49634 65.0601 7.1157 64.2681 9.05419C65.1428 11.4182 65.5802 14.1841 65.5802 17.3637C65.5802 20.5433 65.1546 23.3092 64.2799 25.6614C65.0719 27.5881 66.1712 29.2074 67.625 30.4722C70.8046 33.2499 75.8873 34.6447 82.873 34.6329L90.9579 34.621L96.3124 27.789L83.1212 27.8009C78.8068 27.8127 75.8636 27.0207 74.3034 25.4487Z" fill="#8A94A6"/>
<path d="M36.725 0.0722656L30.5785 0.084086H28.8646C27.2453 0.107726 25.8269 0.864212 24.6448 2.389L18.0374 10.7931L11.4182 2.40082C10.2007 0.864212 8.7941 0.0959059 7.18657 0.0959059H1.99755C1.11104 0.0959059 0.673699 0.462329 0.673699 1.20699C0.673699 1.57342 0.839181 1.9753 1.18196 2.389L12.6593 16.9041L0.508218 32.4593C0.177256 32.8967 -4.57764e-05 33.2867 -4.57764e-05 33.6413C0.0945149 34.3624 0.543678 34.7288 1.35926 34.7288H6.501C8.10854 34.7288 9.51513 33.9723 10.6971 32.4593L18.0492 23.0623L25.425 32.4475C26.6188 33.9605 28.0136 34.717 29.6329 34.7051L37.4342 34.6933L23.4156 16.9041L36.725 0.0722656Z" fill="#8A94A6"/>
<path d="M59.3861 30.4791C60.84 29.2025 61.9393 27.5832 62.7194 25.6565C63.0385 24.8764 63.2986 24.0726 63.4995 23.2452C63.925 21.484 64.1378 19.5219 64.1378 17.347C64.1378 15.1721 63.9132 13.1981 63.4877 11.4488C63.2868 10.6332 63.0267 9.82942 62.6957 9.04929C61.9038 7.12262 60.8045 5.50326 59.3507 4.22669C56.1711 1.43715 51.0884 0.0541992 44.1027 0.0541992H38.5828L33.181 6.89803L43.8427 6.88621C48.1688 6.88621 51.1239 7.66634 52.6841 9.25023C54.2444 10.8341 55.0363 13.5291 55.0363 17.3588C55.0363 21.1767 54.2562 23.8835 52.7078 25.4556C51.1475 27.0395 48.2043 27.8314 43.8782 27.8314L33.902 27.8432L39.2801 34.6753H44.15C51.1239 34.6634 56.2065 33.2687 59.3861 30.4791Z" fill="#8A94A6"/>
<path d="M32.2499 25.6926L32.2381 8.15161L25.3352 16.9339L32.2499 25.6926Z" fill="#8A94A6"/>
<path d="M86.2647 39.8576L88.8887 37.1744C88.9596 37.1035 88.9596 36.9971 88.8887 36.9262C88.8533 36.8907 88.806 36.8789 88.7587 36.8789H87.8249C87.7776 36.8789 87.7304 36.9025 87.6949 36.938L84.338 40.4368V37.0562C84.338 36.9616 84.2552 36.8789 84.1607 36.8789H83.4397C83.3451 36.8789 83.2624 36.9616 83.2624 37.0562L83.2742 43.4391C83.2742 43.5336 83.3569 43.6164 83.4515 43.6164H84.1725C84.2671 43.6164 84.3498 43.5336 84.3498 43.4391V41.7961L85.52 40.6141L87.8604 43.5454C87.8958 43.5927 87.9431 43.6164 88.0022 43.6164H88.9005C88.9951 43.6164 89.0778 43.5336 89.0778 43.4391C89.0778 43.4036 89.066 43.3563 89.0424 43.3327L86.2647 39.8576Z" fill="#8A94A6"/>
<path d="M80.2383 40.9457C80.4038 40.8984 80.5574 40.8393 80.6993 40.7684C80.9238 40.662 81.1248 40.5202 81.3021 40.3429C81.4794 40.1656 81.6094 39.9646 81.704 39.7401C81.7985 39.4918 81.8458 39.22 81.8458 38.9599C81.8458 38.6644 81.7867 38.3689 81.6685 38.1089C81.5503 37.8489 81.373 37.6243 81.1602 37.447C80.9238 37.2578 80.6638 37.116 80.3801 37.0333C80.0491 36.9269 79.7182 36.8796 79.3754 36.8914H76.6331C76.5386 36.8914 76.4558 36.9742 76.4558 37.0687L76.4677 43.4634C76.4677 43.558 76.5504 43.6407 76.645 43.6407H77.366C77.4606 43.6407 77.5433 43.558 77.5433 43.4634V41.1585H79.1035L80.9002 43.5698C80.9357 43.6171 80.9829 43.6407 81.042 43.6407H81.9285C82.0231 43.6407 82.1059 43.558 82.1059 43.4634C82.1059 43.4279 82.094 43.3807 82.0704 43.357L80.2383 40.9457ZM79.2927 40.1538H77.496V37.908H79.2927C79.7655 37.908 80.1437 38.0025 80.3919 38.2035C80.6402 38.3926 80.7702 38.6881 80.7584 39.0072C80.7584 39.1727 80.7229 39.3382 80.652 39.4918C80.5811 39.6337 80.4865 39.7519 80.3565 39.8464C80.2146 39.9528 80.061 40.0356 79.8955 40.0828C79.7064 40.1301 79.5054 40.1538 79.2927 40.1538Z" fill="#8A94A6"/>
<path d="M74.55 37.8122C74.2427 37.493 73.8762 37.233 73.4625 37.0557C72.5642 36.6774 71.5595 36.6892 70.6612 37.0675C70.2475 37.2448 69.881 37.5048 69.5737 37.8358C69.2782 38.1549 69.03 38.5332 68.8763 38.9469C68.7109 39.3724 68.6281 39.8216 68.6281 40.2707C68.6281 40.7199 68.7109 41.1809 68.8763 41.5946C69.1955 42.4338 69.8338 43.1076 70.6612 43.4622C71.5595 43.8404 72.5642 43.8286 73.4625 43.4503C73.8762 43.273 74.2427 43.013 74.55 42.682C74.8573 42.3629 75.0937 41.9847 75.2474 41.5709C75.4128 41.1454 75.4956 40.6963 75.4956 40.2471C75.4956 39.7979 75.4128 39.3488 75.2474 38.9232C75.0937 38.5095 74.8573 38.1313 74.55 37.8122ZM74.219 41.2282C74.1126 41.5118 73.9471 41.7837 73.7344 42.0083C73.5334 42.2329 73.2852 42.4102 73.0015 42.5284C72.706 42.6584 72.3869 42.7175 72.0678 42.7175C71.7486 42.7175 71.4295 42.6584 71.134 42.5284C70.8503 42.3984 70.6021 42.2211 70.3893 41.9965C70.1765 41.7719 70.0111 41.5 69.9047 41.2163C69.6683 40.5899 69.6683 39.9043 69.9047 39.2897C70.0111 39.006 70.1765 38.7341 70.3893 38.5095C70.5902 38.285 70.8385 38.1077 71.1221 37.9895C71.4177 37.8594 71.7368 37.8003 72.0559 37.8003C72.3751 37.8003 72.6942 37.8594 72.9897 37.9895C73.5571 38.2377 74.0063 38.7105 74.219 39.2897C74.3372 39.597 74.3963 39.928 74.3963 40.2589C74.3963 40.6017 74.3372 40.9208 74.219 41.2282Z" fill="#8A94A6"/>
<path d="M68.1094 36.8907H67.3411C67.2702 36.8907 67.1992 36.938 67.1756 37.0089L65.5208 41.8315L63.9251 36.9971C63.9014 36.9262 63.8305 36.8789 63.7596 36.8789H63.1686C63.0977 36.8789 63.0268 36.9262 63.0031 36.9971L61.431 41.8433L59.7762 37.0207C59.7526 36.9498 59.6817 36.9025 59.6107 36.9025H58.8306C58.7361 36.9025 58.6533 36.9853 58.6533 37.0798C58.6533 37.1035 58.6533 37.1153 58.6651 37.1389L60.9582 43.5691C60.9819 43.64 61.0528 43.6873 61.1237 43.6873H61.7265C61.7975 43.6873 61.8684 43.64 61.892 43.5691L63.4759 38.8765L65.0716 43.5691C65.0953 43.64 65.1662 43.6873 65.2371 43.6873H65.8518C65.9227 43.6873 65.9936 43.64 66.0172 43.5691L68.2749 37.1508C68.2867 37.1271 68.2985 37.0917 68.2985 37.068C68.2867 36.9735 68.204 36.8907 68.1094 36.8907Z" fill="#8A94A6"/>
<path d="M57.9416 36.9041H52.9298C52.8353 36.9041 52.7525 36.9868 52.7525 37.0814V37.7433C52.7525 37.8378 52.8353 37.9206 52.9298 37.9206H54.892V43.4642C54.892 43.5588 54.9747 43.6415 55.0693 43.6415H55.7903C55.8849 43.6415 55.9676 43.5588 55.9676 43.4642V37.9206H57.9416C58.0361 37.9206 58.1189 37.8378 58.1189 37.7433V37.0814C58.1307 36.9868 58.0479 36.9041 57.9416 36.9041C57.9534 36.9041 57.9534 36.9041 57.9416 36.9041Z" fill="#8A94A6"/>
<path d="M51.9533 42.6467H48.1827V40.7673H51.4923C51.5869 40.7673 51.6696 40.6846 51.6696 40.59V39.9399C51.6696 39.8453 51.5869 39.7626 51.4923 39.7626H48.1827V37.9423H51.906C52.0006 37.9423 52.0833 37.8596 52.0833 37.765V37.1031C52.0833 37.0085 52.0006 36.9258 51.906 36.9258H47.2844C47.1898 36.9258 47.1071 37.0085 47.1071 37.1031L47.1189 43.4859C47.1189 43.5805 47.2016 43.6632 47.2962 43.6632H51.9651C52.0597 43.6632 52.1424 43.5805 52.1424 43.4859V42.824C52.1424 42.7294 52.0597 42.6467 51.9533 42.6467Z" fill="#8A94A6"/>
<path d="M45.4719 36.915H44.7627C44.6682 36.915 44.5854 36.9978 44.5854 37.0923V41.7022L40.8739 36.986C40.8385 36.9387 40.7912 36.915 40.7321 36.915H40.0583C39.9638 36.915 39.881 36.9978 39.881 37.0923L39.8929 43.4752C39.8929 43.5698 39.9756 43.6525 40.0702 43.6525H40.7794C40.8739 43.6525 40.9567 43.5698 40.9567 43.4752V38.7472L44.7746 43.5816C44.81 43.6289 44.8573 43.6525 44.9164 43.6525H45.4956C45.5901 43.6525 45.6729 43.5698 45.6729 43.4752L45.6611 37.0805C45.6492 36.9978 45.5665 36.915 45.4719 36.915Z" fill="#8A94A6"/>
</svg>
