<svg width="88" height="21" viewBox="0 0 88 21" fill="none" xmlns="http://www.w3.org/2000/svg">
<path fill-rule="evenodd" clip-rule="evenodd" d="M64.0905 5.48689C62.4823 5.95656 62.2319 6.71897 62.2319 11.1474C62.2319 15.0081 62.244 15.086 62.9465 15.789C64.4193 17.2626 67.3195 16.9198 68.0437 15.1864C68.649 13.7372 68.5486 13.4365 67.4596 13.4365C66.6196 13.4365 66.4966 13.5232 66.4966 14.1147C66.4966 15.0945 65.5608 15.5336 64.6898 14.963C64.0382 14.536 64.0203 14.4306 64.0203 10.9875C64.0203 7.19469 64.1898 6.69806 65.4216 6.88075C66.0157 6.9688 66.3079 7.31382 66.6056 8.27764C66.8265 8.9919 68.4226 8.94706 68.4226 8.22674C68.4226 6.15659 66.3301 4.83316 64.0905 5.48689ZM71.5644 5.47809C69.8181 5.98517 69.6607 6.43998 69.6607 10.9828C69.6607 15.0356 69.6676 15.0819 70.3849 15.7991C71.8043 17.2183 75.2315 16.8557 75.853 15.2202C76.0035 14.8249 76.1265 12.8546 76.1265 10.8419C76.1265 6.66642 75.856 5.98902 73.9818 5.46846C72.8138 5.14407 72.7131 5.14462 71.5644 5.47809ZM35.9561 6.1453C35.9561 6.80261 36.0295 6.83315 37.6069 6.83315C38.5149 6.83315 39.2577 6.90524 39.2577 6.99329C39.2577 7.08133 38.5149 8.92835 37.6069 11.0978C36.6989 13.2673 35.9561 15.4239 35.9561 15.8902V16.7382H38.5537C41.2313 16.7382 41.6212 16.5827 41.3205 15.6352C41.1727 15.1693 40.9025 15.0874 39.5144 15.0874C38.6167 15.0874 37.882 15.0332 37.882 14.9668C37.882 14.9005 38.6249 13.0255 39.5329 10.8001C40.4408 8.57479 41.1837 6.46227 41.1837 6.10568C41.1837 5.47039 41.132 5.45745 38.5699 5.45745C35.9651 5.45745 35.9561 5.45993 35.9561 6.1453ZM42.6224 11.029L42.697 16.6006L43.5912 16.6867L44.4854 16.7731V14.2793V11.7857H45.7128H46.9402L47.0197 14.1931L47.0992 16.6006H47.9246H48.7501L48.8246 11.029L48.8989 5.45745H47.9304H46.9617V7.93371V10.41H45.7235H44.4854V7.93371V5.45745H43.5166H42.5481L42.6224 11.029ZM50.5385 11.0978V16.7382L52.2581 16.7365C56.3329 16.733 56.8675 16.0878 56.865 11.1754C56.8626 5.91859 56.5288 5.45745 52.7267 5.45745H50.5385V11.0978ZM77.7773 11.0978V16.7382H78.6028H79.4282V11.0978V5.45745H78.6028H77.7773V11.0978ZM81.142 11.0112L81.2166 16.6006L82.042 16.5995L82.8674 16.5984L83.005 13.1787L83.1426 9.75927L84.4982 12.9049C86.0967 16.6147 86.1782 16.7382 87.0281 16.7382H87.6824V11.0978V5.45745H86.857H86.0315V9.0893C86.0315 11.2164 85.9303 12.6127 85.7875 12.4598C85.6532 12.3161 84.9235 10.7126 84.1664 8.8967C82.8523 5.74553 82.7502 5.59117 81.9287 5.50836L81.0675 5.42169L81.142 11.0112ZM52.1893 10.9603V15.1176L53.4962 15.0337L54.8031 14.9498V10.9603V6.97072L53.4962 6.88681L52.1893 6.80289V10.9603ZM71.7793 7.16332C71.5556 7.38701 71.4491 8.67494 71.4491 11.1597C71.4491 14.8172 71.4508 14.8265 72.137 15.0874C72.5643 15.25 73.0796 15.2519 73.4978 15.0929C74.3659 14.763 74.5568 13.7535 74.4333 10.1467C74.3312 7.15837 74.1777 6.84554 72.8111 6.83728C72.425 6.83508 71.9609 6.98173 71.7793 7.16332Z" fill="white"/>
<path fill-rule="evenodd" clip-rule="evenodd" d="M8.10505 2.62484C6.85289 4.0685 5.82826 5.40072 5.82826 5.58534C5.82826 5.84342 8.69852 5.93752 18.2522 5.99255L30.6762 6.06409L33.1832 3.39275C34.5622 1.9235 35.6471 0.591276 35.594 0.432245C35.5291 0.23717 31.4138 0.119687 22.9398 0.071537L10.3818 0L8.10505 2.62484ZM0.0395928 7.72676C-0.0597328 7.88771 0.0343649 8.22806 0.248699 8.48339C0.463308 8.73872 1.31129 9.75234 2.13286 10.736C2.9547 11.7196 3.75096 12.6154 3.90228 12.7266C4.05361 12.8378 8.6036 12.9305 14.0137 12.933C22.8498 12.9365 23.8499 12.8922 23.8499 12.4969C23.8499 12.118 20.6473 8.22284 19.8604 7.64477C19.4053 7.31047 0.247874 7.38971 0.0395928 7.72676ZM5.73031 14.5288C5.33164 14.6617 1.28845 19.6945 1.28845 20.058C1.28845 20.2806 4.78026 20.3659 13.8984 20.3659H26.5086L28.393 18.2335C29.4292 17.0606 30.5237 15.823 30.825 15.4832C31.1263 15.1434 31.2883 14.7811 31.1854 14.6779C31.0019 14.4947 6.26766 14.3497 5.73031 14.5288Z" fill="url(#paint0_linear_2272_10311)"/>
<defs>
<linearGradient id="paint0_linear_2272_10311" x1="2.25137" y1="10.1802" x2="31.4162" y2="10.1802" gradientUnits="userSpaceOnUse">
<stop stop-color="#C72D2D"/>
<stop offset="1" stop-color="#FC532E"/>
</linearGradient>
</defs>
</svg>
