<svg width="125" height="32" viewBox="0 0 125 32" fill="none" xmlns="http://www.w3.org/2000/svg">
<g clip-path="url(#clip0_2272_10329)">
<path fill-rule="evenodd" clip-rule="evenodd" d="M9.58591 6.11169C8.06621 6.44258 7.45051 6.86433 7.872 7.2857C8.03275 7.44658 8.14922 7.43898 8.76364 7.22753C13.1199 5.72881 17.7583 7.70166 19.7744 11.9108C20.0127 12.4082 20.2932 13.2191 20.3978 13.7126C20.6219 14.7708 20.6337 16.6924 20.4211 17.4927L20.2705 18.0591L19.478 18.0781C18.4444 18.1031 17.5982 18.5967 17.1496 19.4361C16.8924 19.9175 16.8478 20.1588 16.8854 20.8661C16.9629 22.3233 17.8148 23.2089 19.3094 23.3859C19.8301 23.4475 20.0642 23.3995 20.6585 23.1088C21.6 22.6482 22.0374 22.008 22.1116 20.9825C22.1789 20.052 21.9888 19.4568 21.4472 18.9029L21.0266 18.4727L21.1992 17.7639C21.4677 16.6606 21.43 14.409 21.1233 13.2359C20.5971 11.2232 19.3496 9.27811 17.7894 8.03795C16.8267 7.27283 14.9734 6.38248 13.8101 6.12636C12.7028 5.88261 10.6702 5.87553 9.58591 6.11169ZM2.96413 7.99626C2.78923 8.06601 2.44998 8.27283 2.21008 8.45572C1.0371 9.35044 0.976611 11.4178 2.09309 12.4595C2.40377 12.7493 2.40609 12.7671 2.22925 13.4891C1.97816 14.5147 1.98408 16.725 2.24097 17.8134C2.7214 19.8496 4.01678 21.9031 5.62875 23.1841C7.89427 24.9843 10.8061 25.7181 13.5163 25.1715C15.0477 24.8626 15.7323 24.5452 15.6788 24.1689C15.6271 23.8045 15.3682 23.8065 13.9758 24.1814C11.8799 24.7456 9.43494 24.4728 7.59349 23.469C4.08512 21.5569 2.29116 17.8626 2.97224 13.9521L3.11278 13.1447L3.85796 13.1552C4.75423 13.168 5.50159 12.8028 6.09812 12.0607C6.43223 11.645 6.49941 11.4386 6.54124 10.6982C6.61434 9.40398 6.09182 8.51273 4.98962 8.05224C4.45822 7.8301 3.45011 7.8023 2.96413 7.99626ZM58.3015 15.5107V20.7231H58.8198H59.3381L59.3024 16.5403C59.2829 14.2396 59.2957 12.3583 59.3311 12.3593C59.3665 12.3605 61.1908 14.2714 63.3852 16.6059C66.3261 19.7348 67.451 20.8507 67.6645 20.8511L67.9541 20.8518V15.6394V10.427H67.4409H66.9279L66.894 14.6517L66.8601 18.8765L62.8704 14.5955C59.9804 11.4946 58.8009 10.3124 58.5911 10.3064L58.3015 10.2983V15.5107ZM86.4388 15.3452C85.1736 18.126 84.1104 20.4738 84.0763 20.5622C84.0329 20.6743 84.1689 20.7231 84.5248 20.7231H85.0355L85.8005 19.0178L86.5653 17.3125L88.9473 17.2776L91.3294 17.2426L92.1 18.9507L92.8706 20.6587L93.411 20.6982C93.7083 20.7201 93.9516 20.7099 93.9516 20.6757C93.9516 20.6415 92.9152 18.3071 91.6484 15.488C89.6233 10.9819 89.3084 10.3582 89.0422 10.3259C88.7608 10.2916 88.5751 10.6497 86.4388 15.3452ZM98.9709 15.5107V20.7231H99.4857H100.001V16.589C100.001 12.5058 100.004 12.457 100.253 12.6314C100.392 12.7286 102.198 14.6034 104.266 16.7977C106.771 19.456 108.125 20.8011 108.324 20.8281L108.623 20.8689V15.6479V10.427H108.11H107.597L107.563 14.6247L107.529 18.8225L103.54 14.5636C100.616 11.4423 99.4727 10.3039 99.2605 10.3015L98.9709 10.2983V15.5107ZM115.734 10.3892L115.445 10.4449V15.5654V20.6859L116.313 20.7679C117.829 20.9111 119.976 20.8568 120.838 20.6536C121.889 20.4058 123.063 19.7812 123.576 19.1964C123.797 18.9453 124.128 18.4188 124.312 18.0263C124.614 17.3817 124.647 17.1627 124.647 15.7681C124.647 14.3386 124.619 14.1641 124.277 13.4229C123.611 11.9807 122.043 10.8257 120.232 10.4426C119.589 10.3066 116.362 10.2682 115.734 10.3892ZM33.8484 10.8131V11.1992H36.7442C38.3368 11.1992 39.6399 11.2331 39.6399 11.2745C39.6399 11.3158 38.25 13.3221 36.5511 15.733C34.6317 18.4568 33.4623 20.2312 33.4623 20.4197V20.7231H37.3877H41.313V20.337V19.9509H38.0955C36.3259 19.9509 34.878 19.9272 34.878 19.8981C34.878 19.8691 36.278 17.8565 37.9892 15.4258C39.7004 12.995 41.126 10.8758 41.1574 10.7166L41.2143 10.427H37.5314H33.8484V10.8131ZM47.1046 15.575V20.7231H49.8716H52.6387V20.3399V19.9568L50.3543 19.9216L48.0698 19.8865L48.0346 17.7308L47.9993 15.575H49.9972H51.9952V15.1246V14.6741H49.9966H47.998L48.0339 12.9689L48.0698 11.2636L50.2256 11.2283L52.3813 11.193V10.81V10.427H49.7429H47.1046V15.575ZM74.6465 15.575V20.7231H77.671H80.6954V20.2726V19.8222H78.1858H75.6761V15.1246V10.427H75.1613H74.6465V15.575ZM116.442 11.2726C116.389 11.3266 116.345 13.2713 116.345 15.5941V19.8173L116.669 19.8984C116.846 19.9429 117.816 19.9561 118.824 19.9277C120.509 19.8801 120.722 19.8461 121.469 19.5063C122.987 18.8151 123.681 17.6368 123.681 15.7496C123.681 13.9144 122.794 12.5032 121.124 11.681C120.306 11.2782 120.213 11.2624 118.408 11.2192C117.38 11.1946 116.495 11.2187 116.442 11.2726ZM88.0244 14.1169C87.4974 15.2927 87.0468 16.3045 87.0232 16.3654C86.9996 16.4261 87.8828 16.476 88.9859 16.476C90.0889 16.476 90.9915 16.4458 90.9915 16.4089C90.9915 16.3415 89.0675 12.0637 89.0123 12.0086C88.9961 11.9924 88.5516 12.9411 88.0244 14.1169Z" fill="#3C97FF"/>
</g>
<defs>
<clipPath id="clip0_2272_10329">
<rect width="124.84" height="31.2742" fill="white" transform="translate(-0.000244141)"/>
</clipPath>
</defs>
</svg>
