<svg width="118" height="22" viewBox="0 0 118 22" fill="none" xmlns="http://www.w3.org/2000/svg">
<path fill-rule="evenodd" clip-rule="evenodd" d="M103.741 3.00481C102.756 2.31462 102.87 0.825401 103.949 0.293258C104.273 0.13356 104.546 0.00102853 104.556 -0.0011742C104.567 -0.00356049 104.838 0.0861991 105.159 0.197988C105.494 0.315099 105.862 0.632659 106.024 0.94563C106.778 2.40531 105.077 3.94042 103.741 3.00481ZM78.9312 16.6986V8.53018V0.361724H79.9408H80.9504V3.96925V7.57695L81.623 6.88437C82.5158 5.9651 83.3598 5.63506 84.8052 5.64001C86.2301 5.64497 86.8961 5.87827 87.7012 6.65492C88.675 7.5942 88.8435 8.51219 88.8435 12.8773V16.6986H87.8339H86.8243L86.8232 13.4404C86.8221 9.75985 86.6755 8.98706 85.8142 8.12579C85.2705 7.58209 85.1022 7.52059 84.1568 7.52059C82.8539 7.52059 82.1178 7.93672 81.4941 9.02597C81.0658 9.7738 81.0389 9.99554 80.979 13.2569L80.9161 16.6986H79.9235H78.9312ZM48.093 4.15537C48.093 3.21297 48.1481 2.38695 48.2154 2.31976C48.2826 2.2524 48.7782 2.19733 49.3168 2.19733H50.2957V4.03294V5.86855H51.6724H53.0491V6.78635V7.70415H51.6607H50.2721L50.3299 10.8977C50.4002 14.79 50.4356 14.863 52.2516 14.863H53.4163V15.7579C53.4163 16.6133 53.3909 16.6579 52.8426 16.7675C51.4136 17.0533 50.0173 16.7873 49.2166 16.0765C48.3698 15.325 48.2206 14.6343 48.1316 11.0541L48.0482 7.70415H47.1528H46.2574V6.78635V5.86855H47.1752H48.093V4.15537ZM35.5347 11.1C35.5622 8.17462 37.1836 6.12663 39.8181 5.68976C42.1594 5.30134 44.5787 6.51138 45.3974 8.48025C45.751 9.33032 45.9204 10.5695 45.7831 11.3012L45.6658 11.9261H41.6238H37.5818L37.6791 12.6517C37.9502 14.6736 40.2941 15.8054 42.3108 14.8882C42.7147 14.7044 43.1624 14.3346 43.3056 14.0662C43.5418 13.6234 43.6653 13.5781 44.6364 13.5781C45.2251 13.5781 45.7067 13.6227 45.7067 13.6772C45.7067 13.7317 45.549 14.0827 45.3565 14.4574C44.5347 16.0547 42.9724 16.9026 40.8506 16.9026C37.5054 16.9026 35.5009 14.7145 35.5347 11.1ZM54.3196 13.8518C52.6787 10.5187 54.4963 6.49761 57.9785 5.75786C59.7577 5.38009 61.5506 5.87203 62.4983 6.99836L62.9614 7.54868V6.69953V5.85019L64.0169 5.90526L65.0724 5.96033L65.121 11.3295L65.1697 16.6986H64.0656H62.9614V15.8585V15.0185L62.4983 15.5688C60.979 17.3745 57.6501 17.3528 55.4872 15.5235C55.1625 15.2487 54.6369 14.4965 54.3196 13.8518ZM66.8065 12.4444C66.1939 9.27397 68.1123 6.17528 70.9873 5.69214C72.9053 5.36981 75.0069 5.9651 76.0185 7.11749C76.6764 7.8666 77.0956 8.77137 77.0956 9.44211C77.0956 9.87696 77.0369 9.90688 76.1864 9.90688C75.2861 9.90688 75.2736 9.89881 74.914 9.08582C74.425 7.98041 73.65 7.52224 72.268 7.52133C71.0904 7.52059 70.4586 7.77795 69.719 8.55973C69.0507 9.26589 68.8354 9.91184 68.8354 11.2096C68.8354 13.6372 70.097 15.0473 72.268 15.0459C73.5602 15.0451 74.3954 14.5981 74.8374 13.6712C75.1357 13.0456 75.1741 13.0274 76.1989 13.0274H77.2535L77.1057 13.5429C76.4994 15.6569 74.7547 16.8916 72.3412 16.9141C69.3244 16.9426 67.3709 15.3651 66.8065 12.4444ZM90.883 8.79322C91.696 7.05986 93.0678 5.99318 94.8751 5.68902C96.4701 5.42066 97.8754 5.84303 98.9852 6.92439L99.6736 7.59512V6.73183V5.86855H100.683H101.693V11.2836V16.6986H100.683H99.6736V15.8353V14.9721L98.9852 15.6428C98.0568 16.5476 97.0804 16.9244 95.6848 16.9163C93.6273 16.9044 91.7698 15.7083 90.8223 13.785C90.1958 12.5134 90.2239 10.1986 90.883 8.79322ZM26.2493 7.69534V6.78195V5.86855H30.4712H34.6931V7.03104V8.19335L32.1452 10.3342C29.6519 12.4294 28.2684 13.7784 28.2684 14.1143C28.2684 14.2068 28.2183 14.4129 28.157 14.5726C28.0579 14.8309 28.414 14.863 31.3693 14.863H34.6931V15.7808V16.6986H30.4449H26.1968L26.2954 15.261C26.4562 12.916 26.947 12.2234 30.5453 9.26442L32.3312 7.79593L29.2901 7.74564L26.2493 7.69534ZM103.528 11.406C103.528 8.49493 103.583 6.05816 103.651 5.99098C103.718 5.92361 104.214 5.86855 104.752 5.86855H105.731V11.2836V16.6986H104.63H103.528V11.406ZM107.567 16.6986V11.2836V5.86855L110.825 5.86965C112.617 5.8702 114.414 5.96106 114.817 6.07138C115.851 6.35425 117.171 7.75078 117.449 8.85545C117.574 9.35143 117.663 11.152 117.663 13.2005V16.6986H116.663H115.663L115.607 12.6438C115.569 9.84752 115.627 8.68788 115.084 8.21075C114.638 7.81796 113.784 7.88771 112.135 7.88771H109.586V12.2932V16.6986H108.576H107.567ZM37.63 9.80593C37.63 8.8571 38.5012 7.75353 39.5574 7.36438C40.2887 7.0951 41.7486 7.24287 42.4597 7.65826C43.0998 8.03199 43.5888 8.78257 43.7757 9.67743L43.9003 10.274H40.7651H37.63V9.80593ZM56.2765 9.36134C56.6097 8.7488 57.0515 8.26089 57.5354 7.97087C58.3542 7.47984 59.7737 7.36548 60.7009 7.7159C61.4043 7.98151 62.1855 8.751 62.6301 9.61557C63.1815 10.6879 63.0455 12.5298 62.3397 13.5482C60.9459 15.5595 57.7347 15.5598 56.4039 13.5489C56.0131 12.9584 55.8881 12.5199 55.8332 11.5487C55.7715 10.4581 55.8262 10.1885 56.2765 9.36134ZM93.2991 8.68455C93.6212 8.3178 94.1339 7.90919 94.4386 7.77648C95.3353 7.38568 96.8994 7.46296 97.7407 7.93948C99.8149 9.11427 100.241 12.1368 98.5959 14.0106C97.5395 15.2144 95.1315 15.4038 93.8523 14.3841C92.1131 12.9975 91.8543 10.3304 93.2991 8.68455Z" fill="#005741"/>
<path fill-rule="evenodd" clip-rule="evenodd" d="M-0.000488281 6.41346V3.38471V0.355957H9.08816H18.177L18.1285 6.45935L18.0802 12.5627L16.4783 12.6158L14.8762 12.6687L14.8263 9.37007L14.7762 6.0713L10.4625 9.74491C8.08995 11.7654 5.76424 13.7935 5.29396 14.2517C4.27758 15.2425 3.54151 16.5264 3.3249 17.6859L3.1674 18.5285H9.01767H14.8679V17.1518V15.7751H16.5246H18.1812L18.1307 18.7579L18.0802 21.7408L9.03988 21.7883L-0.000488281 21.8361V19.762C-0.000488281 16.7149 0.491453 15.1247 2.07613 13.049C2.48859 12.5088 4.9986 10.2055 7.65381 7.93041C10.3092 5.65517 12.4816 3.76376 12.4816 3.72687C12.4816 3.69015 10.3753 3.66005 7.80084 3.66005H3.12004V5.03676V6.41346H1.55978H-0.000488281Z" fill="#005741"/>
</svg>
