<svg width="47" height="47" viewBox="0 0 47 47" fill="none" xmlns="http://www.w3.org/2000/svg">
<path d="M47 23.5C47 10.5213 36.4787 0 23.5 0C10.5213 0 0 10.5213 0 23.5C0 36.4787 10.5213 47 23.5 47C36.4787 47 47 36.4787 47 23.5Z" fill="white"/>
<path d="M17.8125 7.92329C17.6683 7.88524 17.5321 7.80982 17.4193 7.69703C17.0774 7.3551 17.0792 6.79877 17.4234 6.45465C17.7676 6.11041 18.3238 6.10868 18.6657 6.45061C18.8588 6.64367 18.9139 6.88907 18.9164 7.15778C18.953 7.398 18.9862 7.75307 19.1584 7.92987C19.3381 8.11438 19.9703 8.20549 19.9703 8.20549C19.9703 8.20549 20.4802 8.26511 20.6719 8.45678C21.0138 8.79871 21.012 9.35492 20.6679 9.69904C20.3236 10.0433 19.7674 10.0451 19.4255 9.70308C19.2007 9.47843 19.2027 9.30856 19.1992 9.3119C19.1992 9.3119 19.1467 8.57533 18.8498 8.2846C18.561 8.00194 17.806 7.92987 17.806 7.92987L17.8125 7.92329Z" fill="#FF4509"/>
<path d="M19.875 9.9814C19.7308 9.94334 19.5947 9.86792 19.4819 9.75513C19.1399 9.41308 19.1417 8.85688 19.4859 8.51276C19.83 8.16852 20.3862 8.16679 20.7283 8.50872C20.9212 8.70166 20.9765 8.94706 20.979 9.21588C21.0155 9.45598 21.0488 9.81118 21.2209 9.98786C21.4006 10.1725 22.0327 10.2636 22.0327 10.2636C22.0327 10.2636 22.5428 10.3232 22.7343 10.5149C23.0763 10.8568 23.0745 11.413 22.7303 11.7571C22.3862 12.1014 21.83 12.1031 21.4879 11.7612C21.2633 11.5364 21.2652 11.3667 21.2618 11.37C21.2618 11.37 21.2093 10.6334 20.9122 10.3427C20.6236 10.06 19.8684 9.98786 19.8684 9.98786L19.875 9.9814Z" fill="#FF4509"/>
<path d="M21.9298 12.0395C21.7856 12.0014 21.6494 11.926 21.5365 11.8131C21.1946 11.4712 21.1964 10.915 21.5405 10.5709C21.8848 10.2266 22.441 10.2249 22.7829 10.5668C22.976 10.7598 23.0311 11.0052 23.0336 11.274C23.0703 11.5141 23.1035 11.8693 23.2756 12.046C23.4553 12.2305 24.0875 12.3217 24.0875 12.3217C24.0875 12.3217 24.5975 12.3813 24.7891 12.5729C25.131 12.9149 25.1292 13.4711 24.7851 13.8153C24.4408 14.1595 23.8846 14.1612 23.5427 13.8193C23.3179 13.5945 23.3199 13.4248 23.3165 13.4281C23.3165 13.4281 23.2639 12.6915 22.967 12.4008C22.6782 12.1182 21.9232 12.046 21.9232 12.046L21.9298 12.0395Z" fill="#FF4509"/>
<path d="M23.9923 14.0975C23.848 14.0596 23.7119 13.9842 23.599 13.8713C23.2571 13.5293 23.2589 12.9731 23.603 12.629C23.9473 12.2848 24.5035 12.2829 24.8454 12.625C25.0385 12.8179 25.0936 13.0633 25.0961 13.3321C25.1328 13.5722 25.166 13.9274 25.3381 14.1041C25.5178 14.2886 26.15 14.3797 26.15 14.3797C26.15 14.3797 26.6599 14.4395 26.8516 14.631C27.1935 14.973 27.1917 15.5293 26.8476 15.8734C26.5033 16.2176 25.9471 16.2194 25.6052 15.8774C25.3804 15.6527 25.3824 15.4829 25.3789 15.4863C25.3789 15.4863 25.3264 14.7497 25.0295 14.459C24.7407 14.1763 23.9857 14.1041 23.9857 14.1041L23.9923 14.0975Z" fill="#FF4509"/>
<path d="M26.0469 16.1557C25.9027 16.1177 25.7665 16.0423 25.6537 15.9294C25.3118 15.5875 25.3135 15.0313 25.6578 14.6871C26.0019 14.3429 26.5581 14.341 26.9002 14.683C27.0931 14.876 27.1483 15.1214 27.1509 15.3901C27.1874 15.6304 27.2206 15.9856 27.3928 16.1622C27.5725 16.3467 28.2046 16.4379 28.2046 16.4379C28.2046 16.4379 28.7147 16.4976 28.9062 16.6891C29.2481 17.0311 29.2464 17.5873 28.9022 17.9315C28.558 18.2756 28.0018 18.2775 27.6599 17.9356C27.4351 17.7108 27.4371 17.541 27.4336 17.5444C27.4336 17.5444 27.3812 16.8078 27.0841 16.5171C26.7954 16.2344 26.0403 16.1622 26.0403 16.1622L26.0469 16.1557Z" fill="#FF4509"/>
<path d="M28.1016 18.2138C27.9575 18.1757 27.8213 18.1004 27.7084 17.9875C27.3664 17.6456 27.3683 17.0894 27.7124 16.7451C28.0567 16.401 28.6129 16.3992 28.9548 16.7411C29.1478 16.9342 29.203 17.1796 29.2055 17.4483C29.2422 17.6885 29.2754 18.0436 29.4475 18.2204C29.6271 18.4049 30.2593 18.496 30.2593 18.496C30.2593 18.496 30.7694 18.5557 30.961 18.7473C31.3029 19.0892 31.301 19.6454 30.9569 19.9896C30.6127 20.3338 30.0565 20.3356 29.7145 19.9937C29.4898 19.7689 29.4917 19.599 29.4884 19.6025C29.4884 19.6025 29.4358 18.8658 29.1389 18.5752C28.8501 18.2925 28.0951 18.2204 28.0951 18.2204L28.1016 18.2138Z" fill="#FF4509"/>
<path d="M21.7579 7.92329C21.6137 7.88524 21.4775 7.80982 21.3647 7.69703C21.0227 7.3551 21.0245 6.79877 21.3688 6.45465C21.7129 6.11041 22.2691 6.10868 22.611 6.45061C22.8041 6.64367 22.8592 6.88907 22.8617 7.15778C22.8984 7.398 22.9316 7.75307 23.1037 7.92987C23.2835 8.11438 23.9156 8.20549 23.9156 8.20549C23.9156 8.20549 24.4256 8.26511 24.6172 8.45678C24.9591 8.79871 24.9574 9.35492 24.6131 9.69904C24.269 10.0433 23.7127 10.0451 23.3708 9.70308C23.146 9.47843 23.148 9.30856 23.1446 9.3119C23.1446 9.3119 23.0921 8.57533 22.7951 8.2846C22.5064 8.00194 21.7513 7.92987 21.7513 7.92987L21.7579 7.92329Z" fill="#FF4509"/>
<path d="M23.8203 9.98136C23.6762 9.9433 23.54 9.86799 23.4272 9.75509C23.0852 9.41316 23.087 8.85695 23.4312 8.51271C23.7753 8.16859 24.3315 8.16674 24.6736 8.50868C24.8665 8.70173 24.9218 8.94714 24.9243 9.21584C24.9609 9.45606 24.9941 9.81114 25.1663 9.98793C25.3459 10.1724 25.978 10.2636 25.978 10.2636C25.978 10.2636 26.4881 10.3233 26.6796 10.5148C27.0216 10.8568 27.0198 11.413 26.6756 11.7572C26.3315 12.1013 25.7753 12.1032 25.4332 11.7613C25.2086 11.5365 25.2105 11.3666 25.2071 11.3701C25.2071 11.3701 25.1546 10.6334 24.8575 10.3428C24.5689 10.0601 23.8137 9.98793 23.8137 9.98793L23.8203 9.98136Z" fill="#FF4509"/>
<path d="M25.875 12.0395C25.7308 12.0014 25.5946 11.926 25.4818 11.8132C25.1399 11.4712 25.1417 10.915 25.4859 10.5709C25.83 10.2266 26.3863 10.2249 26.7282 10.5668C26.9212 10.7598 26.9764 11.0052 26.9789 11.274C27.0155 11.5141 27.0487 11.8693 27.2209 12.046C27.4006 12.2306 28.0327 12.3217 28.0327 12.3217C28.0327 12.3217 28.5427 12.3813 28.7343 12.5729C29.0763 12.9149 29.0745 13.4711 28.7302 13.8153C28.3861 14.1595 27.8299 14.1612 27.488 13.8193C27.2632 13.5945 27.2652 13.4248 27.2617 13.4281C27.2617 13.4281 27.2092 12.6915 26.9123 12.4008C26.6235 12.1182 25.8685 12.046 25.8685 12.046L25.875 12.0395Z" fill="#FF4509"/>
<path d="M27.9298 14.0976C27.7855 14.0595 27.6494 13.9841 27.5365 13.8713C27.1946 13.5294 27.1964 12.9732 27.5405 12.6289C27.8848 12.2848 28.441 12.283 28.7829 12.6249C28.976 12.8179 29.0311 13.0633 29.0336 13.332C29.0703 13.5723 29.1035 13.9273 29.2756 14.1041C29.4553 14.2887 30.0875 14.3798 30.0875 14.3798C30.0875 14.3798 30.5974 14.4394 30.7891 14.6311C31.131 14.973 31.1292 15.5292 30.7851 15.8734C30.4408 16.2176 29.8846 16.2194 29.5427 15.8775C29.3179 15.6527 29.3199 15.4828 29.3165 15.4863C29.3165 15.4863 29.2639 14.7496 28.967 14.4589C28.6782 14.1763 27.9232 14.1041 27.9232 14.1041L27.9298 14.0976Z" fill="#FF4509"/>
<path d="M29.9923 16.1557C29.848 16.1177 29.7119 16.0423 29.599 15.9294C29.2571 15.5875 29.2589 15.0313 29.603 14.6871C29.9473 14.3429 30.5035 14.341 30.8454 14.683C31.0385 14.876 31.0936 15.1214 31.0961 15.3901C31.1328 15.6304 31.166 15.9856 31.3381 16.1622C31.5178 16.3467 32.15 16.4379 32.15 16.4379C32.15 16.4379 32.6599 16.4976 32.8516 16.6891C33.1935 17.0311 33.1917 17.5873 32.8476 17.9315C32.5033 18.2756 31.9471 18.2775 31.6052 17.9356C31.3804 17.7108 31.3824 17.541 31.379 17.5444C31.379 17.5444 31.3264 16.8078 31.0295 16.5171C30.7407 16.2344 29.9857 16.1622 29.9857 16.1622L29.9923 16.1557Z" fill="#FF4509"/>
<path d="M32.0468 18.2138C31.9027 18.1757 31.7665 18.1004 31.6537 17.9875C31.3118 17.6456 31.3136 17.0894 31.6577 16.7451C32.002 16.401 32.5582 16.3992 32.9001 16.7411C33.093 16.9342 33.1483 17.1796 33.1508 17.4483C33.1874 17.6885 33.2206 18.0436 33.3928 18.2204C33.5724 18.4049 34.2045 18.496 34.2045 18.496C34.2045 18.496 34.7146 18.5557 34.9063 18.7473C35.2482 19.0892 35.2464 19.6454 34.9021 19.9896C34.558 20.3338 34.0018 20.3356 33.6599 19.9937C33.4351 19.7689 33.4371 19.599 33.4336 19.6025C33.4336 19.6025 33.3811 18.8658 33.0842 18.5752C32.7954 18.2925 32.0404 18.2204 32.0404 18.2204L32.0468 18.2138Z" fill="#FF4509"/>
<path d="M29.4961 19.188C29.5341 19.0439 29.6095 18.9077 29.7223 18.7949C30.0643 18.4528 30.6206 18.4547 30.9647 18.7989C31.3089 19.1431 31.3107 19.6993 30.9687 20.0412C30.7757 20.2342 30.5303 20.2894 30.2616 20.2919C30.0214 20.3286 29.6663 20.3618 29.4895 20.5339C29.305 20.7136 29.2139 21.3457 29.2139 21.3457C29.2139 21.3457 29.1542 21.8558 28.9626 22.0474C28.6206 22.3893 28.0644 22.3876 27.7203 22.0433C27.3761 21.6992 27.3742 21.1429 27.7163 20.8009C27.9409 20.5762 28.1108 20.5781 28.1075 20.5748C28.1075 20.5748 28.844 20.5223 29.1348 20.2252C29.4174 19.9366 29.4895 19.1815 29.4895 19.1815L29.4961 19.188Z" fill="#FF4509"/>
<path d="M27.4336 21.2465C27.4716 21.1024 27.547 20.9662 27.6599 20.8534C28.0018 20.5115 28.558 20.5133 28.9022 20.8574C29.2464 21.2017 29.2482 21.7579 28.9062 22.0998C28.7133 22.2928 28.4679 22.348 28.199 22.3505C27.9589 22.3871 27.6037 22.4203 27.4271 22.5925C27.2425 22.7722 27.1514 23.4042 27.1514 23.4042C27.1514 23.4042 27.0917 23.9143 26.9002 24.106C26.5582 24.4479 26.0019 24.4461 25.6578 24.1018C25.3135 23.7577 25.3118 23.2015 25.6537 22.8596C25.8785 22.6348 26.0483 22.6368 26.0449 22.6333C26.0449 22.6333 26.7815 22.5808 27.0722 22.2839C27.3549 21.9951 27.4271 21.2401 27.4271 21.2401L27.4336 21.2465Z" fill="#FF4509"/>
<path d="M25.3789 23.3043C25.417 23.1601 25.4923 23.0239 25.6052 22.911C25.9471 22.5691 26.5033 22.5709 26.8476 22.9151C27.1917 23.2593 27.1935 23.8155 26.8516 24.1574C26.6585 24.3505 26.4131 24.4056 26.1444 24.4081C25.9042 24.4448 25.5491 24.478 25.3723 24.6501C25.1878 24.8298 25.0967 25.462 25.0967 25.462C25.0967 25.462 25.037 25.9719 24.8454 26.1636C24.5035 26.5055 23.9473 26.5037 23.603 26.1596C23.2589 25.8153 23.2571 25.2591 23.599 24.9172C23.8238 24.6924 23.9936 24.6944 23.9902 24.691C23.9902 24.691 24.7269 24.6384 25.0175 24.3415C25.3001 24.0527 25.3723 23.2977 25.3723 23.2977L25.3789 23.3043Z" fill="#FF4509"/>
<path d="M33.4336 19.188C33.4717 19.0439 33.547 18.9077 33.6599 18.7949C34.0018 18.4528 34.558 18.4547 34.9022 18.7989C35.2464 19.1431 35.2482 19.6993 34.9063 20.0412C34.7132 20.2342 34.4678 20.2894 34.1991 20.2919C33.9589 20.3286 33.6037 20.3618 33.427 20.5339C33.2425 20.7136 33.1514 21.3457 33.1514 21.3457C33.1514 21.3457 33.0917 21.8558 32.9001 22.0474C32.5582 22.3893 32.002 22.3876 31.6577 22.0433C31.3136 21.6992 31.3118 21.1429 31.6537 20.8009C31.8785 20.5762 32.0483 20.5781 32.0449 20.5748C32.0449 20.5748 32.7816 20.5223 33.0722 20.2252C33.3548 19.9366 33.427 19.1815 33.427 19.1815L33.4336 19.188Z" fill="#FF4509"/>
<path d="M31.3789 21.2465C31.4168 21.1024 31.4923 20.9662 31.6052 20.8534C31.9471 20.5115 32.5033 20.5133 32.8474 20.8574C33.1917 21.2017 33.1935 21.7579 32.8516 22.0998C32.6585 22.2928 32.4131 22.348 32.1444 22.3505C31.9042 22.3871 31.549 22.4203 31.3723 22.5925C31.1878 22.7722 31.0967 23.4042 31.0967 23.4042C31.0967 23.4042 31.037 23.9143 30.8454 24.106C30.5035 24.4479 29.9472 24.4461 29.603 24.1018C29.2589 23.7577 29.2571 23.2015 29.599 22.8596C29.8238 22.6348 29.9935 22.6368 29.9902 22.6333C29.9902 22.6333 30.7268 22.5808 31.0175 22.2839C31.3001 21.9951 31.3723 21.2401 31.3723 21.2401L31.3789 21.2465Z" fill="#FF4509"/>
<path d="M29.3241 23.3043C29.3622 23.1601 29.4376 23.0239 29.5504 22.911C29.8925 22.5691 30.4487 22.5709 30.7928 22.9151C31.137 23.2593 31.1388 23.8155 30.7968 24.1574C30.6039 24.3505 30.3585 24.4056 30.0897 24.4081C29.8496 24.4448 29.4944 24.478 29.3177 24.6501C29.1331 24.8298 29.042 25.462 29.042 25.462C29.042 25.462 28.9823 25.9719 28.7908 26.1636C28.4487 26.5055 27.8925 26.5037 27.5484 26.1596C27.2042 25.8153 27.2024 25.2591 27.5444 24.9172C27.7691 24.6924 27.9389 24.6944 27.9355 24.691C27.9355 24.691 28.6721 24.6384 28.9628 24.3415C29.2455 24.0527 29.3177 23.2977 29.3177 23.2977L29.3241 23.3043Z" fill="#FF4509"/>
<path d="M27.2617 25.3624C27.2997 25.2181 27.3751 25.082 27.488 24.9691C27.8299 24.6272 28.3861 24.629 28.7304 24.9732C29.0745 25.3174 29.0763 25.8736 28.7344 26.2155C28.5413 26.4086 28.2959 26.4637 28.0272 26.4662C27.787 26.5029 27.4318 26.5361 27.2551 26.7082C27.0706 26.8879 26.9795 27.5201 26.9795 27.5201C26.9795 27.5201 26.9198 28.03 26.7282 28.2217C26.3863 28.5636 25.8301 28.5618 25.4859 28.2177C25.1417 27.8734 25.1399 27.3172 25.4818 26.9753C25.7066 26.7505 25.8765 26.7525 25.873 26.7491C25.873 26.7491 26.6096 26.6966 26.9003 26.3996C27.183 26.1108 27.2551 25.3558 27.2551 25.3558L27.2617 25.3624Z" fill="#FF4509"/>
<path d="M29.1771 39.0785C29.3212 39.1166 29.4574 39.192 29.5702 39.3049C29.9123 39.6469 29.9104 40.2031 29.5662 40.5472C29.2221 40.8914 28.6659 40.8932 28.3239 40.5512C28.1309 40.3583 28.0757 40.1129 28.0732 39.8441C28.0365 39.604 28.0033 39.2488 27.8313 39.0721C27.6515 38.8876 27.0194 38.7963 27.0194 38.7963C27.0194 38.7963 26.5093 38.7367 26.3178 38.5452C25.9758 38.2031 25.9777 37.6469 26.3218 37.3028C26.666 36.9586 27.2222 36.9568 27.5642 37.2988C27.7889 37.5235 27.787 37.6933 27.7903 37.6899C27.7903 37.6899 27.8428 38.4265 28.1399 38.7172C28.4286 38.9999 29.1837 39.0721 29.1837 39.0721L29.1771 39.0785Z" fill="#FF4509"/>
<path d="M27.1224 37.0206C27.2667 37.0585 27.4027 37.1339 27.5156 37.2468C27.8576 37.5888 27.8557 38.145 27.5116 38.4891C27.1674 38.8333 26.6112 38.8352 26.2692 38.4931C26.0762 38.3002 26.0211 38.0548 26.0185 37.786C25.9818 37.5459 25.9486 37.1907 25.7766 37.014C25.5969 36.8295 24.9647 36.7384 24.9647 36.7384C24.9647 36.7384 24.4547 36.6786 24.2631 36.4871C23.9211 36.1451 23.923 35.5888 24.2671 35.2447C24.6113 34.9004 25.1676 34.8987 25.5095 35.2407C25.7342 35.4654 25.7323 35.6352 25.7356 35.6318C25.7356 35.6318 25.7882 36.3684 26.0852 36.6591C26.3739 36.9418 27.129 37.014 27.129 37.014L27.1224 37.0206Z" fill="#FF4509"/>
<path d="M25.06 34.9624C25.2041 35.0003 25.3403 35.0758 25.4531 35.1887C25.7951 35.5306 25.7933 36.0868 25.4491 36.4309C25.105 36.7752 24.5486 36.777 24.2067 36.4351C24.0138 36.242 23.9585 35.9966 23.956 35.7279C23.9194 35.4877 23.8862 35.1325 23.714 34.9558C23.5344 34.7713 22.9023 34.6802 22.9023 34.6802C22.9023 34.6802 22.3922 34.6205 22.2007 34.4289C21.8586 34.087 21.8605 33.5308 22.2047 33.1865C22.5488 32.8424 23.105 32.8406 23.447 33.1825C23.6717 33.4073 23.6698 33.577 23.6732 33.5737C23.6732 33.5737 23.7257 34.3103 24.0226 34.601C24.3114 34.8836 25.0666 34.9558 25.0666 34.9558L25.06 34.9624Z" fill="#FF4509"/>
<path d="M23.0053 32.9043C23.1494 32.9424 23.2856 33.0177 23.3984 33.1306C23.7404 33.4725 23.7386 34.0287 23.3944 34.3729C23.0502 34.7171 22.494 34.7189 22.1521 34.377C21.959 34.1839 21.9039 33.9385 21.9014 33.6698C21.8647 33.4296 21.8315 33.0744 21.6594 32.8977C21.4796 32.7132 20.8476 32.6221 20.8476 32.6221C20.8476 32.6221 20.3375 32.5624 20.1459 32.3708C19.804 32.0289 19.8057 31.4727 20.15 31.1284C20.4941 30.7843 21.0504 30.7825 21.3923 31.1244C21.6171 31.3492 21.6151 31.519 21.6185 31.5156C21.6185 31.5156 21.671 32.2523 21.968 32.5429C22.2568 32.8255 23.0118 32.8977 23.0118 32.8977L23.0053 32.9043Z" fill="#FF4509"/>
<path d="M20.9427 30.8462C21.087 30.8843 21.2231 30.9597 21.336 31.0725C21.6779 31.4144 21.676 31.9706 21.3319 32.3148C20.9877 32.659 20.4315 32.6608 20.0895 32.3189C19.8965 32.1258 19.8414 31.8804 19.8388 31.6117C19.8022 31.3715 19.7689 31.0164 19.5969 30.8396C19.4172 30.6551 18.785 30.564 18.785 30.564C18.785 30.564 18.2751 30.5044 18.0834 30.3127C17.7414 29.9708 17.7433 29.4146 18.0874 29.0703C18.4317 28.7262 18.9879 28.7244 19.3298 29.0663C19.5546 29.2911 19.5526 29.4609 19.5559 29.4575C19.5559 29.4575 19.6085 30.1942 19.9055 30.4848C20.1943 30.7674 20.9493 30.8396 20.9493 30.8396L20.9427 30.8462Z" fill="#FF4509"/>
<path d="M18.8881 28.7881C19.0323 28.8261 19.1685 28.9016 19.2812 29.0144C19.6232 29.3563 19.6214 29.9125 19.2772 30.2567C18.9331 30.6009 18.3768 30.6027 18.0348 30.2608C17.8419 30.0677 17.7867 29.8223 17.7841 29.5536C17.7476 29.3134 17.7143 28.9583 17.5422 28.7815C17.3625 28.597 16.7304 28.5059 16.7304 28.5059C16.7304 28.5059 16.2203 28.4463 16.0288 28.2546C15.6867 27.9127 15.6886 27.3565 16.0328 27.0122C16.3769 26.6681 16.9331 26.6663 17.2751 27.0082C17.4998 27.233 17.4979 27.4028 17.5013 27.3994C17.5013 27.3994 17.5538 28.1361 17.8508 28.4268C18.1395 28.7093 18.8947 28.7815 18.8947 28.7815L18.8881 28.7881Z" fill="#FF4509"/>
<path d="M25.2396 39.0785C25.3838 39.1166 25.52 39.192 25.6328 39.3049C25.9748 39.6469 25.973 40.2031 25.6287 40.5472C25.2846 40.8914 24.7284 40.8932 24.3865 40.5512C24.1934 40.3583 24.1383 40.1129 24.1358 39.8441C24.0991 39.604 24.0659 39.2488 23.8938 39.0721C23.714 38.8876 23.0819 38.7963 23.0819 38.7963C23.0819 38.7963 22.5719 38.7367 22.3803 38.5452C22.0384 38.2031 22.0401 37.6469 22.3843 37.3028C22.7285 36.9586 23.2848 36.9568 23.6267 37.2988C23.8515 37.5235 23.8495 37.6933 23.8529 37.6899C23.8529 37.6899 23.9053 38.4265 24.2024 38.7172C24.4911 38.9999 25.2462 39.0721 25.2462 39.0721L25.2396 39.0785Z" fill="#FF4509"/>
<path d="M23.1849 37.0206C23.3292 37.0585 23.4652 37.1339 23.5781 37.2468C23.9201 37.5888 23.9182 38.145 23.5741 38.4891C23.2299 38.8333 22.6737 38.8352 22.3317 38.4931C22.1387 38.3002 22.0836 38.0548 22.081 37.786C22.0444 37.5459 22.0111 37.1907 21.8391 37.014C21.6594 36.8295 21.0272 36.7384 21.0272 36.7384C21.0272 36.7384 20.5172 36.6786 20.3256 36.4871C19.9836 36.1451 19.9855 35.5888 20.3296 35.2447C20.6738 34.9004 21.2301 34.8987 21.572 35.2407C21.7968 35.4654 21.7948 35.6352 21.7981 35.6318C21.7981 35.6318 21.8507 36.3684 22.1477 36.6591C22.4364 36.9418 23.1915 37.014 23.1915 37.014L23.1849 37.0206Z" fill="#FF4509"/>
<path d="M21.1225 34.9624C21.2666 35.0003 21.4028 35.0758 21.5156 35.1887C21.8576 35.5306 21.8558 36.0868 21.5116 36.4309C21.1675 36.7752 20.6111 36.777 20.2692 36.4351C20.0763 36.242 20.021 35.9966 20.0185 35.7279C19.9819 35.4877 19.9487 35.1325 19.7765 34.9558C19.5969 34.7713 18.9648 34.6802 18.9648 34.6802C18.9648 34.6802 18.4547 34.6205 18.2632 34.4289C17.9211 34.087 17.923 33.5308 18.2672 33.1865C18.6113 32.8424 19.1675 32.8406 19.5095 33.1825C19.7342 33.4073 19.7323 33.577 19.7357 33.5737C19.7357 33.5737 19.7882 34.3103 20.0852 34.601C20.3739 34.8836 21.1291 34.9558 21.1291 34.9558L21.1225 34.9624Z" fill="#FF4509"/>
<path d="M19.0678 32.9043C19.2119 32.9424 19.3481 33.0177 19.4609 33.1306C19.8029 33.4725 19.8011 34.0287 19.4569 34.3729C19.1127 34.7171 18.5565 34.7189 18.2146 34.377C18.0215 34.1839 17.9664 33.9385 17.9638 33.6698C17.9272 33.4296 17.894 33.0744 17.7219 32.8977C17.5421 32.7132 16.9101 32.6221 16.9101 32.6221C16.9101 32.6221 16.4 32.5624 16.2084 32.3708C15.8665 32.0289 15.8682 31.4727 16.2125 31.1284C16.5566 30.7843 17.1129 30.7825 17.4548 31.1244C17.6796 31.3492 17.6776 31.519 17.681 31.5156C17.681 31.5156 17.7335 32.2523 18.0305 32.5429C18.3192 32.8255 19.0743 32.8977 19.0743 32.8977L19.0678 32.9043Z" fill="#FF4509"/>
<path d="M17.0052 30.8462C17.1495 30.8843 17.2856 30.9597 17.3985 31.0725C17.7404 31.4144 17.7385 31.9706 17.3944 32.3148C17.0502 32.659 16.494 32.6608 16.152 32.3189C15.959 32.1258 15.9039 31.8804 15.9013 31.6117C15.8647 31.3715 15.8314 31.0164 15.6594 30.8396C15.4797 30.6551 14.8475 30.564 14.8475 30.564C14.8475 30.564 14.3376 30.5044 14.1459 30.3127C13.8039 29.9708 13.8058 29.4146 14.1499 29.0703C14.4942 28.7262 15.0504 28.7244 15.3923 29.0663C15.6171 29.2911 15.6151 29.4609 15.6184 29.4575C15.6184 29.4575 15.671 30.1942 15.968 30.4848C16.2568 30.7674 17.0118 30.8396 17.0118 30.8396L17.0052 30.8462Z" fill="#FF4509"/>
<path d="M14.9506 28.7881C15.0948 28.8261 15.231 28.9016 15.3438 29.0144C15.6857 29.3563 15.6838 29.9125 15.3397 30.2567C14.9956 30.6009 14.4393 30.6027 14.0973 30.2608C13.9044 30.0677 13.8492 29.8223 13.8466 29.5536C13.8101 29.3134 13.7769 28.9583 13.6047 28.7815C13.425 28.597 12.7929 28.5059 12.7929 28.5059C12.7929 28.5059 12.2828 28.4463 12.0912 28.2546C11.7492 27.9127 11.7511 27.3565 12.0953 27.0122C12.4395 26.6681 12.9957 26.6663 13.3376 27.0082C13.5624 27.233 13.5604 27.4028 13.5639 27.3994C13.5639 27.3994 13.6163 28.1361 13.9133 28.4268C14.2021 28.7093 14.9571 28.7815 14.9571 28.7815L14.9506 28.7881Z" fill="#FF4509"/>
<path d="M17.5014 27.8138C17.4633 27.958 17.3879 28.0942 17.2751 28.2071C16.9332 28.549 16.377 28.5471 16.0327 28.203C15.6886 27.8588 15.6868 27.3026 16.0287 26.9606C16.2217 26.7676 16.4672 26.7125 16.7359 26.7099C16.9761 26.6733 17.3312 26.64 17.5079 26.468C17.6925 26.2883 17.7836 25.6561 17.7836 25.6561C17.7836 25.6561 17.8432 25.1461 18.0349 24.9545C18.3768 24.6125 18.933 24.6144 19.2772 24.9585C19.6214 25.3028 19.6232 25.859 19.2813 26.2009C19.0565 26.4257 18.8866 26.4237 18.8901 26.427C18.8901 26.427 18.1534 26.4796 17.8627 26.7766C17.5801 27.0654 17.5079 27.8204 17.5079 27.8204L17.5014 27.8138Z" fill="#FF4509"/>
<path d="M19.5639 25.7553C19.5259 25.8994 19.4504 26.0356 19.3377 26.1484C18.9957 26.4903 18.4394 26.4886 18.0953 26.1444C17.751 25.8002 17.7493 25.244 18.0912 24.902C18.2842 24.709 18.5297 24.6538 18.7984 24.6513C19.0386 24.6147 19.3937 24.5815 19.5705 24.4093C19.755 24.2296 19.8461 23.5976 19.8461 23.5976C19.8461 23.5976 19.9057 23.0875 20.0974 22.8959C20.4393 22.554 20.9955 22.5557 21.3397 22.9C21.6839 23.2441 21.6858 23.8003 21.3437 24.1423C21.1191 24.367 20.9492 24.365 20.9525 24.3685C20.9525 24.3685 20.216 24.421 19.9252 24.718C19.6426 25.0067 19.5705 25.7618 19.5705 25.7618L19.5639 25.7553Z" fill="#FF4509"/>
<path d="M21.6185 23.6976C21.5806 23.8419 21.5052 23.9779 21.3923 24.0908C21.0503 24.4328 20.4941 24.4309 20.15 24.0868C19.8058 23.7426 19.8039 23.1864 20.146 22.8444C20.3389 22.6514 20.5843 22.5963 20.8531 22.5937C21.0932 22.557 21.4484 22.5238 21.6251 22.3518C21.8096 22.1721 21.9007 21.5399 21.9007 21.5399C21.9007 21.5399 21.9605 21.0299 22.152 20.8383C22.494 20.4963 23.0503 20.4982 23.3944 20.8423C23.7386 21.1865 23.7404 21.7427 23.3984 22.0847C23.1737 22.3094 23.0039 22.3075 23.0073 22.3108C23.0073 22.3108 22.2707 22.3634 21.98 22.6604C21.6973 22.9491 21.6251 23.7042 21.6251 23.7042L21.6185 23.6976Z" fill="#FF4509"/>
<path d="M13.5638 27.8138C13.5259 27.958 13.4505 28.0942 13.3376 28.2071C12.9956 28.549 12.4394 28.5471 12.0953 28.203C11.7511 27.8588 11.7492 27.3026 12.0913 26.9606C12.2842 26.7676 12.5296 26.7125 12.7984 26.7099C13.0385 26.6733 13.3937 26.64 13.5704 26.468C13.7549 26.2883 13.8462 25.6561 13.8462 25.6561C13.8462 25.6561 13.9058 25.1461 14.0973 24.9545C14.4393 24.6125 14.9956 24.6144 15.3397 24.9585C15.6839 25.3028 15.6857 25.859 15.3437 26.2009C15.119 26.4257 14.9492 26.4237 14.9526 26.427C14.9526 26.427 14.216 26.4796 13.9253 26.7766C13.6426 27.0654 13.5704 27.8204 13.5704 27.8204L13.5638 27.8138Z" fill="#FF4509"/>
<path d="M15.6186 25.7557C15.5805 25.9 15.5052 26.036 15.3923 26.149C15.0504 26.4909 14.4942 26.489 14.1499 26.1449C13.8058 25.8007 13.8039 25.2445 14.1459 24.9025C14.3389 24.7095 14.5843 24.6544 14.853 24.6518C15.0933 24.6151 15.4483 24.5819 15.6251 24.4099C15.8097 24.2302 15.9008 23.598 15.9008 23.598C15.9008 23.598 15.9605 23.088 16.152 22.8964C16.494 22.5544 17.0502 22.5563 17.3944 22.9004C17.7385 23.2446 17.7404 23.8009 17.3985 24.1428C17.1737 24.3676 17.0038 24.3656 17.0073 24.3689C17.0073 24.3689 16.2706 24.4215 15.98 24.7185C15.6973 25.0072 15.6251 25.7623 15.6251 25.7623L15.6186 25.7557Z" fill="#FF4509"/>
<path d="M17.6732 23.6976C17.6353 23.8419 17.5599 23.9779 17.447 24.0908C17.105 24.4328 16.5488 24.4309 16.2047 24.0868C15.8605 23.7426 15.8586 23.1864 16.2006 22.8444C16.3936 22.6514 16.639 22.5963 16.9077 22.5937C17.1479 22.557 17.5031 22.5238 17.6798 22.3518C17.8643 22.1721 17.9554 21.5399 17.9554 21.5399C17.9554 21.5399 18.0152 21.0299 18.2067 20.8383C18.5487 20.4963 19.1049 20.4982 19.4491 20.8423C19.7932 21.1865 19.7951 21.7427 19.4531 22.0847C19.2284 22.3094 19.0586 22.3075 19.062 22.3108C19.062 22.3108 18.3254 22.3634 18.0347 22.6604C17.752 22.9491 17.6798 23.7042 17.6798 23.7042L17.6732 23.6976Z" fill="#FF4509"/>
<path d="M19.7358 21.6395C19.6977 21.7837 19.6223 21.9199 19.5094 22.0327C19.1675 22.3747 18.6113 22.3729 18.2672 22.0286C17.9229 21.6845 17.9212 21.1283 18.2631 20.7864C18.456 20.5933 18.7015 20.5382 18.9703 20.5357C19.2104 20.499 19.5656 20.4658 19.7423 20.2937C19.9268 20.1139 20.018 19.4818 20.018 19.4818C20.018 19.4818 20.0776 18.9718 20.2692 18.7802C20.6112 18.4383 21.1674 18.44 21.5115 18.7842C21.8558 19.1284 21.8575 19.6847 21.5156 20.0266C21.2908 20.2514 21.1211 20.2494 21.1244 20.2528C21.1244 20.2528 20.3878 20.3052 20.0971 20.6023C19.8144 20.8911 19.7423 21.6461 19.7423 21.6461L19.7358 21.6395Z" fill="#FF4509"/>
</svg>
